<svg xmlns="http://www.w3.org/2000/svg" viewBox="0 0 43.9 60.6">
  <defs>
    <style>
      .a {
        fill: #f4ca76;
      }

      .b {
        fill: #536eb2;
      }
    </style>
  </defs>
  <title>icon-1</title>
  <g>
    <path class="a" d="M42,57.5a1.1,1.1,0,0,1-1.2,1.1H3.2a1.1,1.1,0,0,1-1.1-1.1V12.4H9.4a3,3,0,0,0,3.1-3V2H40.8A1.1,1.1,0,0,1,42,3.1ZM10.6,3.4v6a1.1,1.1,0,0,1-1.2,1.1h-6ZM40.8,0H10.9L.4,10.8H.1v46a3,3,0,0,0,2.3,3.7H40.8a3.1,3.1,0,0,0,3.1-3.1V3.1A3.1,3.1,0,0,0,40.8,0Z"/>
    <path class="b" d="M9.4,16.6H34.6a.9.9,0,0,0,.9-1,.9.9,0,0,0-.9-.9H9.4a.9.9,0,0,0-.9.9.9.9,0,0,0,.9,1Z"/>
    <path class="b" d="M9.4,21.9H34.6a1,1,0,0,0,.9-1,.9.9,0,0,0-.9-1H9.4a.9.9,0,0,0-.9,1,1,1,0,0,0,.9,1Z"/>
    <path class="b" d="M9.4,27.1H34.6a1,1,0,0,0,.9-1,.9.9,0,0,0-.9-1H9.4a.9.9,0,0,0-.9,1A1,1,0,0,0,9.4,27.1Z"/>
    <path class="b" d="M9.4,32.5H34.6a1,1,0,0,0,.9-1,.9.9,0,0,0-.9-1H9.4a.9.9,0,0,0-.9,1A1,1,0,0,0,9.4,32.5Z"/>
    <path class="b" d="M9.4,37.6H34.6a1,1,0,0,0,.9-1,.9.9,0,0,0-.9-1H9.4a.9.9,0,0,0-.9,1A1,1,0,0,0,9.4,37.6Z"/>
    <path class="b" d="M22,42.9H9.4a1,1,0,0,0,0,2H22a1,1,0,1,0,0-2Z"/>
    <path class="b" d="M22,48.2H9.4a.9.9,0,0,0-.9,1,.9.9,0,0,0,.9.9H22a1,1,0,0,0,1-.9A1,1,0,0,0,22,48.2Z"/>
    <path class="b" d="M30.9,45a1.5,1.5,0,0,0-1.5,1.5,1.5,1.5,0,0,0,3,0h0A1.5,1.5,0,0,0,30.9,45Z"/>
    <path class="b" d="M30.9,50.3a3.8,3.8,0,1,1,3.7-3.8h0A3.7,3.7,0,0,1,30.9,50.3Zm0-9.5a5.7,5.7,0,0,0-5.7,5.7,5.6,5.6,0,0,0,5.7,5.7,5.7,5.7,0,0,0,5.7-5.7,5.8,5.8,0,0,0-5.7-5.7Z"/>
  </g>
</svg>
