<svg xmlns="http://www.w3.org/2000/svg" viewBox="0 0 58 48.8">
  <defs>
    <style>
      .a {
        fill: #536eb2;
      }

      .b {
        fill: #f4ca76;
      }
    </style>
  </defs>
  <title>icon-4</title>
  <g>
    <path class="a" d="M48.2,14.2a6.3,6.3,0,0,1,0-12.5A6.4,6.4,0,0,1,54.4,8,6.2,6.2,0,0,1,48.2,14.2ZM48.2,0a7.9,7.9,0,0,0-8,7.9h0a7.9,7.9,0,0,0,7.9,7.9h.1a8,8,0,0,0,8-8h0A8,8,0,0,0,48.3,0Z"/>
    <path class="a" d="M50.7,9.2l-.2-.4a.5.5,0,0,0-.2-.4L50,8.1c-.1-.2-.2-.3-.4-.3l-.3-.3-.5-.2-.4-.2h-.7V6.9l-.3-.4V5.7s0-.1.2-.2h.1a.2.2,0,0,1,.3,0,.2.2,0,0,1,.3,0h.3a.2.2,0,0,1,.3,0h1V4.1H48.6V2.8H47.3V3.9h0l-.5.2-.3.3a.8.8,0,0,0-.4.4l-.2.4v.5a.4.4,0,0,0,0,.5.5.5,0,0,0,0,.5.6.6,0,0,0,.1.4l.2.4.3.3c.1.2.2.3.4.3a.5.5,0,0,0,.4.2l.4.2.5.2h.6v.4c.2.2,0,.2,0,.3V10c.1.1.1.1,0,.2s-.1.1-.1.2H45.7v1.5h2V13H49V12h0l.5-.2.3-.3a.8.8,0,0,0,.4-.4.8.8,0,0,0,.2-.4c0-.2.2-.3.2-.5v-1Z"/>
    <path class="a" d="M44.3,17a.9.9,0,0,0-1.2-.2l-8.9,7.1L22.7,19.1a1.1,1.1,0,0,0-.8,0L9.6,28a.9.9,0,0,0-.2,1.2h0a.8.8,0,0,0,.7.4l.5-.2,11.9-8.5L34,25.7a1.4,1.4,0,0,0,.9,0l9.3-7.3a1.1,1.1,0,0,0,.1-1.3Z"/>
    <path class="b" d="M51.3,47H45V22.5h6.3V47ZM38.5,47H32.2V31.3h6.3V47ZM25.8,47H19.4V30h6.4V47ZM12.9,47H6.6V35.1h6.3V47Zm44.3,0H53.1V21.7a.8.8,0,0,0-.8-.9H44.2a.8.8,0,0,0-.9.8h0V47h-3V30.4a.8.8,0,0,0-.8-.8H31.3a.7.7,0,0,0-.8.8h0V47h-3V29.1a.9.9,0,0,0-.9-.9h-8a.9.9,0,0,0-.9.9h0V47H14.9V34.2a.9.9,0,0,0-.9-.8H5.7a.9.9,0,0,0-.8.8h0V47H.8A1,1,0,0,0,0,48a1.1,1.1,0,0,0,.8.8H57.1a.9.9,0,0,0,.9-.9.8.8,0,0,0-.8-.9Z"/>
  </g>
</svg>
