<svg xmlns="http://www.w3.org/2000/svg" xmlns:xlink="http://www.w3.org/1999/xlink" viewBox="0 0 323.9 76.3">
  <defs>
    <style>
      .a {
        fill: #b6b6b6;
      }

      .b {
        fill: url(#a);
      }

      .c {
        fill: url(#b);
      }

      .d {
        fill: url(#c);
      }

      .e {
        fill: #fff;
      }
    </style>
    <linearGradient id="a" x1="31.53" y1="4.93" x2="31.53" y2="74.46" gradientUnits="userSpaceOnUse">
      <stop offset="0.15" stop-color="#4d64af"/>
      <stop offset="1" stop-color="#5da3dc"/>
    </linearGradient>
    <linearGradient id="b" x1="39.95" x2="39.95" y2="69.54" gradientUnits="userSpaceOnUse">
      <stop offset="0" stop-color="#662482"/>
      <stop offset="0.36" stop-color="#652684"/>
      <stop offset="0.55" stop-color="#622e89"/>
      <stop offset="0.7" stop-color="#5d3c93"/>
      <stop offset="0.83" stop-color="#554fa0"/>
      <stop offset="0.93" stop-color="#4d64af"/>
    </linearGradient>
    <linearGradient id="c" x1="35.74" y1="4.93" x2="35.74" y2="69.54" gradientUnits="userSpaceOnUse">
      <stop offset="0.15" stop-color="#290042"/>
      <stop offset="1" stop-color="#3b68bd"/>
    </linearGradient>
  </defs>
  <title>logo</title>
  <g>
    <path class="a" d="M101.6,39.7H93.3V51.8h1.6V41.2h5V51.8h1.7Zm6.9,2.7c-2.7,0-4.2,2-4.2,4.8s1.5,4.8,4.2,4.8,4.1-2,4.1-4.8S111.1,42.4,108.5,42.4Zm0,1.3c1.5,0,2.3,1.1,2.3,3.5s-.8,3.5-2.3,3.5-2.4-1.1-2.4-3.5S106.9,43.7,108.5,43.7Zm14.9-1.1h-2.1l-2,6.6-1.8-6.6h-2.1l-.8,9.2h1.6l.3-4.4c.1-.9.1-2.1.1-3.2l1.9,6.6h1.6l2.1-6.7c0,1.4,0,2.3.1,3.4l.4,4.3h1.6Zm7-.2c-2.6,0-4.1,2-4.1,4.8s1.5,4.8,4.1,4.8,4.1-2,4.1-4.8S133.1,42.4,130.4,42.4Zm0,1.3c1.6,0,2.4,1.1,2.4,3.5s-.8,3.5-2.4,3.5-2.3-1.1-2.3-3.5S128.9,43.7,130.4,43.7Zm17.4,6.8V42.6h-1.6v7.9h-2.9V42.6h-1.6v7.9h-2.9V42.6h-1.6v9.2h10.5l.2,2.6h1.3V50.5Zm6.2-4.9h-1.2v-3h-1.6v9.2h3.1c1.9,0,3.6-.9,3.6-3.1S156.9,45.6,154,45.6Zm.1,5h-1.3V46.8H154c1.7,0,2.2.6,2.2,1.9S155.4,50.6,154.1,50.6Zm19.1-8.2a2.5,2.5,0,0,0-2.1,1V38.9l-1.6-.2v4.7a2.8,2.8,0,0,0-2.2-1c-2.3,0-3.1,1.9-3.1,4.8s1.2,4.8,3.1,4.8a2.7,2.7,0,0,0,2.2-1.1v4.6h1.6V50.9a2.5,2.5,0,0,0,2.1,1.1c2,0,3.2-1.9,3.2-4.8S175.6,42.4,173.2,42.4Zm-5.6,8.3c-1,0-1.6-1.1-1.6-3.5s.6-3.5,1.6-3.5a2.4,2.4,0,0,1,1.9,1v4.9A2.1,2.1,0,0,1,167.6,50.7Zm5.3,0a2,2,0,0,1-1.8-1.1V44.7a2.1,2.1,0,0,1,1.8-1c1.1,0,1.7,1.1,1.7,3.5S174,50.7,172.9,50.7Zm13.4-8.1h-1.9l-3.9,7.3a16.7,16.7,0,0,0,.2-3.1V42.6h-1.6v9.2H181l3.9-7.4c0,.2-.2,1.6-.2,3.2v4.2h1.6Zm5.6-.2a5,5,0,0,0-3.3,1l.7,1a3.8,3.8,0,0,1,2.4-.8c1,0,1.9.4,1.9,1.3s-1,1.5-2.2,1.5h-1v1.2h1.3c1.3,0,2.4.3,2.4,1.5s-1.1,1.6-2.3,1.6a4.2,4.2,0,0,1-2.6-.8l-.9,1a5.5,5.5,0,0,0,3.6,1.1c2.1,0,3.9-.9,3.9-2.9s-.8-2-2.3-2.2c1.3-.4,1.8-1,1.8-2S193.6,42.4,191.9,42.4Zm7.1.2-.3,4.2c-.3,3.1-.4,3.5-1.5,3.9l.4,1.3c2-.6,2.3-1.5,2.6-5l.3-3.1h2.9v7.9H205V42.6Zm16.5,0h-2l-3.8,7.3a16.7,16.7,0,0,0,.2-3.1V42.6h-1.6v9.2h1.9l3.9-7.4a16.4,16.4,0,0,0-.2,3.2v4.2h1.6Zm10.2,7.9V42.6h-1.6v7.9h-3.7V42.6h-1.6v9.2h6.7l.3,2.6h1.3V50.5Zm9.6-.8V45.4c0-1.9-1-3-3.3-3a9.9,9.9,0,0,0-3.2.6l.4,1.2a9.2,9.2,0,0,1,2.5-.5c1.3,0,2,.5,2,1.8v.7h-1.5c-2.5,0-4,1.1-4,3a2.7,2.7,0,0,0,2.9,2.8,3.2,3.2,0,0,0,2.8-1.4c.2,1,.8,1.3,1.8,1.4l.3-1.1A1.1,1.1,0,0,1,235.3,49.7Zm-3.8,1.1a1.4,1.4,0,0,1-1.6-1.6c0-1.3.8-1.9,2.5-1.9h1.3v2.1A2.6,2.6,0,0,1,231.5,50.8Zm15.3-8.2h-2.1l-2,6.6-1.8-6.6h-2.1l-.8,9.2h1.5l.4-4.4V44.2l2,6.6h1.5l2.1-6.7c0,1.4,0,2.3.1,3.4l.4,4.3h1.6Zm15.3,0h-1.9l-3.8,7.3c0-.2.2-1.7.2-3.1V42.6H255v9.2h1.9l3.8-7.4c0,.2-.1,1.6-.1,3.2v4.2h1.5Zm16.5-2.9h-2l-5,10.3a34.3,34.3,0,0,0,.3-4.4V39.7h-1.7V51.8h2.1l4.9-10.2a41,41,0,0,0-.2,4.3v5.9h1.6Zm11.9,0h-8.4V51.8h1.7V41.2h5V51.8h1.7ZM98.1,68.7a1.9,1.9,0,0,0,1.8-1.9c0-1.7-1.5-2.5-3.7-2.5a14.5,14.5,0,0,0-3,.3v9.1h3.3c2.2,0,3.9-.8,3.9-2.8S99.6,68.9,98.1,68.7Zm-1.9-3.2c1.4,0,2.1.4,2.1,1.3s-.7,1.4-1.8,1.4H94.8V65.6Zm.3,7H94.8V69.4h1.7c1.6,0,2.2.5,2.2,1.4S97.7,72.5,96.5,72.5Zm14.7-8.2c-2.7,0-4.2,2-4.2,4.8s1.5,4.8,4.2,4.8,4.1-2,4.1-4.8S113.8,64.3,111.2,64.3Zm0,1.3c1.5,0,2.3,1.1,2.3,3.5s-.8,3.5-2.3,3.5-2.4-1.1-2.4-3.5S109.6,65.6,111.2,65.6Zm10.1-1.3c-2.5,0-4,1.9-4,4.9s1.5,4.7,4,4.7a4,4,0,0,0,2.8-1l-.7-1a4,4,0,0,1-2,.7c-1.5,0-2.4-1-2.4-3.5s.9-3.5,2.4-3.5a2.8,2.8,0,0,1,1.9.7l.8-1A4,4,0,0,0,121.3,64.3Zm9.9,4.4a1.9,1.9,0,0,0,1.8-1.9c0-1.7-1.4-2.5-3.7-2.5a14.5,14.5,0,0,0-3,.3v9.1h3.3c2.3,0,3.9-.8,3.9-2.8S132.7,68.9,131.2,68.7Zm-1.9-3.2c1.4,0,2.1.4,2.1,1.3s-.7,1.4-1.8,1.4h-1.7V65.6Zm.3,7h-1.7V69.4h1.8c1.5,0,2.1.5,2.1,1.4S130.8,72.5,129.6,72.5Zm10-8.2c-2.6,0-4.1,2-4.1,4.8s1.4,4.8,4.1,4.8,4.1-2,4.1-4.8S142.2,64.3,139.6,64.3Zm0,1.3c1.5,0,2.3,1.1,2.3,3.5s-.8,3.5-2.3,3.5-2.4-1.1-2.4-3.5S138,65.6,139.6,65.6Zm10.8-.5a3.4,3.4,0,0,0-3,1.7c.2-2.5,1-3.2,2.6-3.7a12.4,12.4,0,0,0,2.8-1.3l-.7-1.2a9.7,9.7,0,0,1-2.9,1.3c-2.8,1-3.5,2.9-3.5,6.7s1.7,5.3,4.1,5.3,4-1.6,4-4.6S152.5,65.1,150.4,65.1Zm-.6,7.5c-1.5,0-2.4-1.2-2.4-3.4V68.1a2.9,2.9,0,0,1,2.7-1.7c1.2,0,2,.8,2,3S151,72.6,149.8,72.6ZM160,64.3c-2.7,0-4.2,2-4.2,4.8s1.5,4.8,4.1,4.8,4.2-2,4.2-4.8S162.6,64.3,160,64.3Zm0,1.3c1.5,0,2.3,1.1,2.3,3.5s-.8,3.5-2.4,3.5-2.3-1.1-2.3-3.5S158.4,65.6,160,65.6Zm16.8-1.1h-1.7l-1.9,3.8H172V64.5h-1.6v3.8h-1.2l-1.9-3.8h-1.7l2.3,4.3-2.7,4.9H167l2.2-4.2h1.2v4.2H172V69.5h1.2l2.2,4.2h1.7l-2.6-4.9Zm8.8,7.9V64.5h-5.8l-.2,3.4c-.3,3.6-.8,4.1-1.5,4.5h-.6v3.9h1.3l.3-2.6H185l.2,2.6h1.4V72.4Zm-1.6,0h-4.4c1-.7,1.3-1.5,1.5-4.7l.2-1.9H184Zm11.9-3.6c0-2.8-1.4-4.5-3.8-4.5s-3.9,2-3.9,4.9,1.5,4.7,4.1,4.7a5,5,0,0,0,3.2-1.1l-.7-1a3.7,3.7,0,0,1-2.4.8c-1.3,0-2.3-.8-2.5-3h5.9C195.8,69.4,195.9,69.1,195.9,68.8Zm-1.6-.3h-4.4c.2-2.1,1-2.9,2.2-2.9s2.2.9,2.2,2.8Zm9.6,5.2h1.6V64.5h-1.6v3.9H200V64.5h-1.6v9.2H200V69.6h3.9ZM216,64.5h-1.9l-3.9,7.3a16.7,16.7,0,0,0,.2-3.1V64.5h-1.6v9.2h1.9l3.9-7.4c0,.2-.2,1.6-.2,3.2v4.2H216Zm10.5,0h-1.9l-3.9,7.3a16.7,16.7,0,0,0,.2-3.1V64.5h-1.6v9.2h1.9l3.9-7.4c0,.2-.2,1.6-.2,3.2v4.2h1.6Zm11.4-.2c-2.6,0-4.1,2-4.1,4.8s1.5,4.8,4.1,4.8,4.1-2,4.1-4.8S240.5,64.3,237.9,64.3Zm0,1.3c1.5,0,2.4,1.1,2.4,3.5s-.9,3.5-2.4,3.5-2.4-1.1-2.4-3.5S236.4,65.6,237.9,65.6Zm12.6-1.1h-7.8v1.3h3v7.9h1.6V65.8h3Zm12.7,7.9V64.5h-5.8l-.2,3.4c-.3,3.6-.8,4.1-1.4,4.5h-.7v3.9h1.3l.3-2.6h5.9l.3,2.6h1.3V72.4Zm-1.6,0h-4.4c1-.7,1.3-1.5,1.6-4.7V65.8h2.7Zm8.4-8.1c-2.6,0-4.2,2-4.2,4.8s1.5,4.8,4.2,4.8,4.1-2,4.1-4.8S272.6,64.3,270,64.3Zm0,1.3c1.5,0,2.3,1.1,2.3,3.5s-.8,3.5-2.3,3.5-2.4-1.1-2.4-3.5S268.4,65.6,270,65.6Zm7.4-1.1-.4,4.2c-.2,3.1-.3,3.5-1.4,3.9l.4,1.3c2-.6,2.3-1.5,2.6-5l.3-3.1h2.8v7.9h1.6V64.5Zm10.9,9.2V65.8h3.9l.2-1.3h-5.7v9.2Zm8.9-9.4c-2.6,0-4.1,2-4.1,4.8s1.4,4.8,4.1,4.8,4.1-2,4.1-4.8S299.8,64.3,297.2,64.3Zm0,1.3c1.5,0,2.4,1.1,2.4,3.5s-.9,3.5-2.4,3.5-2.4-1.1-2.4-3.5S295.7,65.6,297.2,65.6Zm11.6,3.1c1.2-.2,1.9-.9,1.9-1.9s-1.5-2.5-3.7-2.5a14.5,14.5,0,0,0-3,.3v9.1h3.3c2.2,0,3.9-.8,3.9-2.8S310.4,68.9,308.8,68.7ZM307,65.5c1.3,0,2.1.4,2.1,1.3s-.8,1.4-1.8,1.4h-1.7V65.6Zm.3,7h-1.7V69.4h1.7c1.6,0,2.2.5,2.2,1.4S308.5,72.5,307.3,72.5Z"/>
    <path d="M100.4,11.1H98.2V7.5h7.3l.5-3.6H93.4V24.1h7.1c4.6,0,7.9-2.1,7.9-6.7S105.4,11.1,100.4,11.1Zm-.4,9.5H98.2V14.4H100c2.3,0,3.4,1,3.4,3.1S102.2,20.6,100,20.6Zm23-1v-6c0-3.6-1.9-5.5-6.4-5.5a18,18,0,0,0-5.8,1.1l1,3.1a12.7,12.7,0,0,1,4.1-.9c1.9,0,2.6.6,2.6,2.4v.7h-1.6c-4.7,0-7.2,1.8-7.2,5.2a4.6,4.6,0,0,0,5,4.9,5.1,5.1,0,0,0,4.7-2.4c.7,1.6,1.9,2.1,3.7,2.3l1-3C123.4,21.2,123,20.8,123,19.6Zm-6.9,1.7c-1.2,0-1.8-.7-1.8-2s1-2.3,3.1-2.3h1.1v2.8A2.8,2.8,0,0,1,116.1,21.3Zm19.5,2.8h4.6V8.6h-4.6v5.9h-4.3V8.6h-4.6V24.1h4.6V17.9h4.3ZM157.7,8.6h-4.4l-3.4,6h-1.5v-6h-4.6V24.1h4.6V17.4h1.4l3.4,6.7h4.9l-4.5-8.3Zm10.9-.5a5.7,5.7,0,0,0-4.5,2.2l-.2-1.7h-4.1v22l4.6-.5V23a4.9,4.9,0,0,0,3.8,1.6c3.8,0,6.1-3.5,6.1-8.3S172.6,8.1,168.6,8.1Zm-1.8,13.1a2.7,2.7,0,0,1-2.4-1.4V13.3a3.1,3.1,0,0,1,2.7-1.8c1.5,0,2.5,1,2.5,4.8S168.5,21.2,166.8,21.2ZM183.9,8.1c-4.7,0-7.5,3.3-7.5,8.2s2.8,8.3,7.5,8.3,7.6-3.3,7.6-8.3S188.7,8.1,183.9,8.1Zm0,3.4c1.9,0,2.8,1.4,2.8,4.8s-.9,4.9-2.8,4.9-2.8-1.4-2.8-4.9S182.1,11.5,183.9,11.5Zm21.8-2.9H191.8V12h4.5V24.1h4.6V12h4.2ZM229.6,4h-2.9l-5,8.4h-2.8V4h-2.8V24.1h2.8V14.7h2.8l5.2,9.4h3.2L224,13.4Zm9,4.3c-4.4,0-6.9,3.3-6.9,8.1s2.5,8,6.8,8,6.9-3.3,6.9-8S242.9,8.3,238.6,8.3Zm0,2.2c2.5,0,3.9,1.9,3.9,5.9s-1.4,5.9-4,5.9-3.9-1.9-3.9-5.9S236,10.5,238.6,10.5Zm20.3,13.6h2.7V8.7h-2.7v6.5h-6.4V8.7h-2.7V24.1h2.7V17.3h6.4ZM272.7,8.3c-4.1,0-6.7,3.3-6.7,8.2s2.6,7.9,6.7,7.9a6.7,6.7,0,0,0,4.7-1.7L276.2,21a6.1,6.1,0,0,1-3.3,1.2c-2.5,0-4-1.7-4-5.7s1.5-5.9,4-5.9a5.2,5.2,0,0,1,3.3,1.1l1.2-1.7A6.7,6.7,0,0,0,272.7,8.3Zm18.5,12.2v-7c0-3.3-1.7-5.2-5.4-5.2a15.3,15.3,0,0,0-5.4,1.1l.7,2a12.2,12.2,0,0,1,4.2-.9c2.1,0,3.2.9,3.2,3.1v1.1h-2.4c-4.3,0-6.8,1.8-6.8,5.1s1.9,4.6,4.9,4.6a5.3,5.3,0,0,0,4.6-2.3,3.1,3.1,0,0,0,3,2.3l.6-1.8A1.9,1.9,0,0,1,291.2,20.5Zm-6.3,1.9c-1.8,0-2.7-.9-2.7-2.8s1.4-3.1,4.3-3.1h2V20A4,4,0,0,1,284.9,22.4ZM298,8.7l-.6,7c-.4,5.1-.5,5.9-2.4,6.6l.7,2.1c3.3-1,3.9-2.5,4.4-8.4l.4-5.1h4.8V24.1h2.6V8.7Zm25.9,0h-13v2.2h5V24.1h2.7V10.9h5Z"/>
    <g>
      <path class="b" d="M6,17.8,25.5,6.6a11.9,11.9,0,0,1,12.1,0L57,17.8a12.1,12.1,0,0,1,6.1,10.4v23A12.2,12.2,0,0,1,57,61.6L37.6,72.8a12.2,12.2,0,0,1-12.1.1L6,61.7A12.3,12.3,0,0,1,0,51.2v-23A12,12,0,0,1,6,17.8Z"/>
      <path class="c" d="M14.5,12.9,34,1.7a11.7,11.7,0,0,1,12-.1L65.4,12.8a12.1,12.1,0,0,1,6.1,10.5V46.2a12.1,12.1,0,0,1-6.1,10.5L46,67.9a11.9,11.9,0,0,1-12.1,0L14.5,56.7A12.1,12.1,0,0,1,8.4,46.2V23.3A12.1,12.1,0,0,1,14.5,12.9Z"/>
      <path class="d" d="M57,17.8,37.6,6.6a11.9,11.9,0,0,0-12.1,0l-12.2,7a12.2,12.2,0,0,0-4.9,9.7V46.2a12.1,12.1,0,0,0,6.1,10.5L33.9,67.9a11.9,11.9,0,0,0,12.1,0l12.2-7a12.4,12.4,0,0,0,4.9-9.7v-23A12.1,12.1,0,0,0,57,17.8Z"/>
      <g>
        <path class="e" d="M54.8,41.4c0-12.6-10.3-17.6-20-17.6H25.7V54.6h3.8V40.9h.2L50.8,65.1l2.8-1.6L47,55.8A16.5,16.5,0,0,0,54.8,41.4Zm-21.1-1,7.6-11.1H37.1L29.5,39.9V27.2h5.1c7.8,0,16,4.1,16,14.2a13.7,13.7,0,0,1-6,11.6L33.7,40.4Z"/>
        <path class="e" d="M35.3,55.8H22.6V14.6H51.5l-7-4h-26V59H35.6a23,23,0,0,0,6.4-.9l-2.5-2.8A20.1,20.1,0,0,1,35.3,55.8Z"/>
      </g>
    </g>
  </g>
</svg>
