<svg xmlns="http://www.w3.org/2000/svg" xmlns:xlink="http://www.w3.org/1999/xlink" viewBox="0 0 71.5 74.5">
  <defs>
    <style>
      .a {
        fill: url(#a);
      }

      .b {
        fill: url(#b);
      }

      .c {
        fill: url(#c);
      }

      .d {
        fill: #fff;
      }
    </style>
    <linearGradient id="a" data-name="Безымянный градиент 4" x1="31.55" y1="73.06" x2="31.55" y2="3.55" gradientTransform="matrix(1, 0, 0, -1, 0, 78.01)" gradientUnits="userSpaceOnUse">
      <stop offset="0.15" stop-color="#4d64af"/>
      <stop offset="1" stop-color="#5da3dc"/>
    </linearGradient>
    <linearGradient id="b" data-name="Безымянный градиент 2" x1="39.95" y1="78.01" x2="39.95" y2="8.45" gradientTransform="matrix(1, 0, 0, -1, 0, 78.01)" gradientUnits="userSpaceOnUse">
      <stop offset="0" stop-color="#662482"/>
      <stop offset="0.36" stop-color="#652684"/>
      <stop offset="0.55" stop-color="#622e89"/>
      <stop offset="0.7" stop-color="#5d3c93"/>
      <stop offset="0.83" stop-color="#554fa0"/>
      <stop offset="0.93" stop-color="#4d64af"/>
    </linearGradient>
    <linearGradient id="c" data-name="Безымянный градиент 3" x1="35.75" y1="73.06" x2="35.75" y2="8.45" gradientTransform="matrix(1, 0, 0, -1, 0, 78.01)" gradientUnits="userSpaceOnUse">
      <stop offset="0.15" stop-color="#290042"/>
      <stop offset="1" stop-color="#3b68bd"/>
    </linearGradient>
  </defs>
  <title>logo-self</title>
  <g>
    <path class="a" d="M6,17.8,25.5,6.6a11.9,11.9,0,0,1,12.1,0L57,17.8a12.1,12.1,0,0,1,6.1,10.4v23A12.3,12.3,0,0,1,57,61.6L37.6,72.8a12.2,12.2,0,0,1-12.1.1L6,61.7A12.3,12.3,0,0,1,0,51.2v-23A12.1,12.1,0,0,1,6,17.8Z"/>
    <path class="b" d="M14.5,12.9,34,1.7a11.7,11.7,0,0,1,12-.1L65.4,12.8a12.1,12.1,0,0,1,6.1,10.5V46.2a12,12,0,0,1-6.1,10.5L46,67.9a11.9,11.9,0,0,1-12.1,0L14.5,56.7A12,12,0,0,1,8.4,46.2V23.3A12.1,12.1,0,0,1,14.5,12.9Z"/>
    <path class="c" d="M57,17.8,37.6,6.6a11.9,11.9,0,0,0-12.1,0l-12.2,7a12.1,12.1,0,0,0-4.9,9.7V46.2a12,12,0,0,0,6.1,10.5L33.9,67.9a11.9,11.9,0,0,0,12.1,0l12.2-7a12.7,12.7,0,0,0,4.9-9.7v-23A12.1,12.1,0,0,0,57,17.8Z"/>
    <g>
      <path class="d" d="M54.8,41.4c0-12.6-10.3-17.6-20-17.6H25.7V54.6h3.8V40.9h.2L50.8,65.1l2.8-1.6L47,55.8A16.6,16.6,0,0,0,54.8,41.4Zm-21.1-1,7.6-11.1H37.1L29.5,39.9V27.2h5.1c7.8,0,16,4.1,16,14.2a13.8,13.8,0,0,1-6,11.6Z"/>
      <path class="d" d="M35.3,55.8H22.6V14.6H51.5l-7-4h-26V59H35.6a23,23,0,0,0,6.4-.9l-2.5-2.8A20.1,20.1,0,0,1,35.3,55.8Z"/>
    </g>
  </g>
</svg>
