<svg xmlns="http://www.w3.org/2000/svg" viewBox="0 0 39.4 39.4">
  <defs>
    <style>
      .a {
        fill: #e0bd6d;
      }
    </style>
  </defs>
  <title>time</title>
  <g>
    <path class="a" d="M17.8,0h3.8a15.2,15.2,0,0,1,5.2,1.2,19.6,19.6,0,0,1,10.4,9.2,20.1,20.1,0,0,1,2.1,6.7,6.2,6.2,0,0,1,.1,1.3V21a8.6,8.6,0,0,1-.1,1.6,21,21,0,0,1-1.9,6,21.5,21.5,0,0,1-4.5,5.8A22.3,22.3,0,0,1,27.3,38a21.2,21.2,0,0,1-5.5,1.4H18.3l-1.8-.2a19.6,19.6,0,0,1-8.4-3.5,20.3,20.3,0,0,1-5.9-6.8A23.4,23.4,0,0,1,.1,22.6c0-.5-.1-1-.1-1.4V18a12.8,12.8,0,0,1,.5-2.7A18.8,18.8,0,0,1,4.2,7.5,19.1,19.1,0,0,1,9.9,2.6,20.7,20.7,0,0,1,16.6.2Zm1.9,3.9A15.8,15.8,0,1,0,35.5,19.7,15.8,15.8,0,0,0,19.7,3.9Z"/>
    <path class="a" d="M21.8,13.3V17a.6.6,0,0,0,.2.5,5.7,5.7,0,0,1,.8,1.3c0,.2.1.3.3.4l4,2.1a1.8,1.8,0,0,1,.9,2.1,2,2,0,0,1-1.8,1.5l-1.1-.2-3.6-1.9a1.1,1.1,0,0,0-.8-.1,3,3,0,0,1-3.6-1.2,3.2,3.2,0,0,1,.3-4,.9.9,0,0,0,.3-.7v-8a1.9,1.9,0,0,1,1-1.7,1.9,1.9,0,0,1,2.9,1.5C21.7,10.1,21.7,11.5,21.8,13.3Z"/>
    <path class="a" d="M7.2,18a1.7,1.7,0,0,1,1.7,1.7,1.7,1.7,0,0,1-1.8,1.7,1.7,1.7,0,0,1-1.6-1.7A1.7,1.7,0,0,1,7.2,18Z"/>
    <path class="a" d="M19.7,33.9A1.6,1.6,0,0,1,18,32.2a1.8,1.8,0,0,1,1.7-1.7,1.8,1.8,0,0,1,1.7,1.8A1.7,1.7,0,0,1,19.7,33.9Z"/>
    <path class="a" d="M33.9,19.7a1.6,1.6,0,0,1-1.6,1.7,1.6,1.6,0,0,1-1.8-1.6A1.7,1.7,0,0,1,32.2,18,1.7,1.7,0,0,1,33.9,19.7Z"/>
  </g>
</svg>
