<svg xmlns="http://www.w3.org/2000/svg" viewBox="0 0 543.5 686">
  <title>bash</title>
  <g class="smap-group" id="smap-group-1" data-name="Сибай">
    <polygon class="smap-polygon" data-name="Map" points="466.5 453.75 467 457.25 467.25 473 471.75 473.25 473.75 481 461 479.5 462 489 457.25 491.5 454.25 502.75 458 519 456.75 526 452.75 530 454.96 534.97 462.27 537.75 464.5 548.25 456.75 548.5 459.2 558.7 464.25 561.75 465.75 570 473.75 570.25 471.75 579.75 468.25 586.5 455.75 585.25 450.5 579 448.75 591.25 442.25 599 448 606.25 453.75 606 454.75 615.5 449 616.75 450.75 636.5 448.75 644 444.5 644.5 444.5 651.75 428.75 654 422.75 650.5 419.5 658.5 410.5 662.75 403 658 405.25 652.75 393 652.75 390.75 647.25 373.87 647.8 363.5 641.75 368.25 652.5 363 662.5 345.25 661.25 344.75 670.75 328.75 686 320 683.25 316.5 671.25 310 669.25 305.75 658.25 299 662.25 302 681.75 285.75 683.25 287.5 669.75 285.5 658.5 276.5 650.5 276 640.25 286.75 633.5 279 625.25 282.75 617.25 276.5 612.5 276.75 605.5 268.75 605.75 260.5 603 246.75 609.75 241.5 604.25 241.5 594.75 258.17 585 263.83 592 272.83 592 279.17 578 292.5 572.33 304.83 564.33 304.83 540 323.5 528.33 323.5 523 316.83 521.67 317.5 505.67 315 499.63 316.75 487.5 320.83 487.38 323.88 494.25 331.25 494.63 334.13 499.13 337.88 495.75 342.88 496.13 353.5 486.5 362.13 485.88 366.38 488.38 371.25 486.38 374.5 487.75 376.25 479.5 372 474 384 464.63 390.88 465.75 394.25 473.5 399.88 466.13 392.75 452.13 388.75 453.38 386.13 449.25 390.63 446.25 390.13 443.38 384.75 444.38 383.75 438.88 389.88 437.5 392.63 435.38 395.63 438.13 399.88 436.63 401 424.88 397.38 423.38 401.88 416.63 398.63 414 395.05 415.26 393.63 419.88 377.63 420.88 377.25 415.25 383.88 414.38 390.5 400.5 395.75 400.63 406 403.5 414.63 404.75 431 399.5 435.5 386.25 440.13 382.25 439.5 376.63 443.88 369.5 450.25 372.63 452.88 369.63 445.63 364.38 446.38 360.75 461.75 362.88 464.75 372.75 460.75 380.25 462.75 387 462.75 395.5 454 402.75 454.5 405.75 461 406 463 443.75 460 447.5 461.5 455.5 463.75 451 466.5 453.75"/>
    <circle class="smap-point" cx="443" cy="521.5" r="4.5"/>
    <text class="smap-text" transform="translate(412.5 510.5)">Сибай</text>
  </g>
  <g class="smap-group" id="smap-group-2" data-name="Белорецк">
    <polygon class="smap-polygon" data-name="Map" points="315.74 318.63 312.17 330 319.17 345.67 315.83 353.67 318.17 371.33 304.83 374.67 295.83 385.67 309.5 384 318.17 386 316.17 399 320.83 409.67 313.17 420.33 313.5 428.67 306.17 430.67 297.83 440.33 292.4 448.61 294.83 461 299.5 492 297.17 502.67 305.5 506.33 317.5 505.67 315 499.63 316.75 487.5 320.83 487.38 323.88 494.25 331.25 494.63 334.13 499.13 337.88 495.75 342.88 496.13 353.5 486.5 362.13 485.88 366.38 488.38 371.25 486.38 374.5 487.75 376.25 479.5 372 474 384 464.63 390.88 465.75 394.25 473.5 399.88 466.13 392.75 452.13 388.75 453.38 386.13 449.25 390.63 446.25 390.13 443.38 384.75 444.38 383.75 438.88 389.88 437.5 392.63 435.38 395.63 438.13 399.88 436.63 401 424.88 397.38 423.38 401.88 416.63 398.63 414 395.05 415.26 393.63 419.88 377.63 420.88 377.25 415.25 383.88 414.38 390.5 400.5 395.75 400.63 406 403.5 414.63 404.75 431 399.5 435.5 386.25 440.13 382.25 439.5 376.63 443.88 369.5 450.25 372.63 452.88 369.63 445.63 364.38 446.38 360.75 461.75 362.88 467.5 357.75 464.63 353.5 467.5 350.13 470.75 352.63 479.38 351.5 487.25 343 490.25 326 495.75 320 499.38 322.88 505.13 319.38 512 319.31 523.69 326.06 528.38 324 528.38 320.88 526.31 315.88 533.31 310.69 533 305.31 527 297.25 521.69 296.75 527.13 287.19 528.17 279.17 520.5 278 524.33 272.83 524.83 265.83 528.83 264.33 536.17 252 536.17 245.33 538.67 242.17 538.67 235.5 541.83 232.33 539 229.17 543.5 226.17 541.33 222.5 529 226.83 525.67 222.5 519.83 222.5 516.83 218.67 510.75 226.25 505 228.67 504 239.42 488.5 254 488 258.92 478.42 259.25 471.5 256.17 468.5 260.33 459.5 265.67 451.33 266 449 270.5 441.5 278.83 436 284 417.95 270.5 406.17 277.17 401.17 275.67 383.83 293.5 377.33 290.83 370.67 280.5 365.33 280.17 366.5 271 354.5 262.83 350.5 251.33 346.83 255.83 343.17 255.5 345.17 250.33 338.67 251.17 334.67 263.67 324.33 272.83 323.67 295.17 317.83 306.33 322 313.17 318.83 322.17 315.74 318.63"/>
    <circle class="smap-point" cx="410" cy="353.5" r="4.5"/>
    <text class="smap-text" transform="translate(363 342)">Белорецк</text>
  </g>
  <g class="smap-group" id="smap-group-3" data-name="Туймазы">
    <polygon class="smap-polygon" data-name="Map" points="58.13 157 46.83 161 44.83 168.33 37.67 174.17 37.67 181 31.33 180.33 26 177.33 20.33 179.67 17.92 186.04 11.17 183.38 7.67 186 0.5 185 0.5 195.33 6.33 193.83 7.33 205.83 13.5 205.83 23 211.33 29.46 226 39.67 223.17 33.5 229.67 33.17 238.33 36.17 249 28.83 260.5 24.33 266.33 18.67 268.67 17 287.33 12.5 297.5 16.33 300.33 16.83 310.69 13.83 314.67 17.33 319.67 16.67 326.67 19 337.33 20 343 26.67 351.83 28.33 360.67 28.33 368.5 31.5 374.17 31.5 381.17 37.83 382.33 44.5 391.5 49.33 392.33 55.17 408 63.83 417.5 67.17 428 80.33 438 85.17 431.33 98.33 438 97.67 423.5 107.33 422.83 111 420.33 107.83 411.5 101.67 413.67 91.5 412.67 91.5 402.17 97.5 402.17 97.33 390.83 99.33 377.5 109.5 383 114.5 377.5 125.5 374.5 139.67 375 146.67 364.33 152.67 373.83 149 382.33 156.33 379.67 161.83 389.67 171 389.67 169.67 377.67 176.5 377.67 177.83 374.83 167.67 367.33 173.33 360.33 177 361.67 179.33 357.17 177 351.5 182.83 345.33 178.67 341.17 181.83 338 187.17 340.5 190.17 337.33 190.17 330 185.33 317.83 183.5 310.5 176 312.17 163.83 307.67 155.5 299.5 147.67 297.5 141.83 291.67 145.67 283.83 153.85 287.2 158.5 280.5 155.83 272.33 151.17 267.17 159 266.83 156.67 261.5 165.17 254.5 163.63 246.63 170 241.38 165.75 236.25 165.5 227.5 155.88 221 150.63 222.38 147.2 220.19 141.88 225.75 136.5 221.13 121.13 224.13 120.38 234.5 107.13 223.13 104.88 228.88 96.25 226.88 90.84 219.44 95.5 215.75 91 214.75 89.38 207.5 85.13 208.88 82.63 199 78 196.63 84.25 183.38 74.25 174.13 72.38 167.88 58.13 157"/>
    <circle class="smap-point" cx="43" cy="269.5" r="4.5"/>
    <text class="smap-text" transform="translate(0 257.75)">Туймазы</text>
  </g>
  <g class="smap-group" id="smap-group-4" data-name="Стерлитамак">
    <polygon class="smap-polygon" data-name="Map" points="193.83 316.17 208 312.5 221.5 307.83 226.75 306.5 227.5 313.33 232 326 239.5 327 246.67 321.5 251.83 327.67 259.33 314.33 262.17 304.17 266.17 301 276.17 315.67 284.27 314.02 291.33 316 303.83 319.67 313 315.5 315.74 318.63 312.17 330 319.17 345.67 315.83 353.67 318.17 371.33 304.83 374.67 295.83 385.67 309.5 384 318.17 386 316.17 399 320.83 409.67 313.17 420.33 313.5 428.67 306.17 430.67 297.83 440.33 292.4 448.61 294.83 461 299.5 492 297.17 502.67 305.5 506.33 317.5 505.67 316.83 521.67 323.5 523 323.5 528.33 304.83 540 304.83 564.33 292.5 572.33 279.17 578 272.83 592 263.83 592 258.17 585 258.17 570 253.17 555.33 261.17 547 256.83 541 248.83 549 232.83 540.33 228.17 550.67 223.17 551 220.5 557.33 216.83 551.33 214.5 566 209.83 576 198.83 577.67 185.83 572.33 181.5 566 183.83 546 177.17 544 177.83 536.67 172.5 533 167.83 540 162.5 538.33 158.83 528.67 160.17 523 168.17 527 174.17 525 168.17 517 176.83 517 172.83 508.67 162.83 509.33 153.17 515 150.17 511.67 153.17 503.33 146.5 495.67 140.83 482.67 136.5 473 135.83 459 128.5 450.67 117.17 457.33 109.5 457.33 104.5 452.33 105.5 441 98.33 438 97.67 423.5 107.33 422.83 111 420.33 107.83 411.5 101.67 413.67 91.5 412.67 91.5 402.17 97.5 402.17 97.33 390.83 99.33 377.5 109.5 383 114.5 377.5 125.5 374.5 139.67 375 146.67 364.33 152.67 373.83 149 382.33 156.33 379.67 161.83 389.67 171 389.67 169.67 377.67 176.5 377.67 177.83 374.83 167.67 367.33 173.33 360.33 177 361.67 179.33 357.17 177 351.5 182.83 345.33 178.67 341.17 181.83 338 187.17 340.5 190.17 337.33 190.17 330 185.33 317.83 193.83 316.17"/>
    <circle class="smap-point" cx="214" cy="402.5" r="4.5"/>
    <text class="smap-text" transform="translate(152 390.75)">Стерлитамак</text>
  </g>
  <g class="smap-group" id="smap-group-5" data-name="Уфа">
    <polygon class="smap-polygon" data-name="Map" points="150.63 222.38 155.88 221 165.5 227.5 165.75 236.25 170 241.38 163.63 246.63 165.17 254.5 156.67 261.5 159 266.83 151.17 267.17 155.83 272.33 158.5 280.5 153.85 287.2 145.67 283.83 141.83 291.67 147.67 297.5 155.5 299.5 163.83 307.67 176 312.17 183.5 310.5 185.33 317.83 193.83 316.17 208 312.5 221.5 307.83 226.75 306.5 227.5 313.33 232 326 239.5 327 246.67 321.5 251.83 327.67 259.33 314.33 262.17 304.17 266.17 301 276.17 315.67 284.27 314.02 291.33 316 303.83 319.67 313 315.5 318.83 322.17 322 313.17 317.83 306.33 323.67 295.17 324.33 272.83 334.67 263.67 338.67 251.17 323.5 242.17 314.67 231.67 325.33 220 318.67 211.33 316.67 197.83 323.83 192 319.67 187.83 322.5 180.83 329.17 179.17 333.17 172.67 341.83 168.33 340.83 157.33 327.5 154.67 328 142.67 319.5 138.33 312.67 141.83 305.33 148.83 294.5 147.17 281.83 142.83 275.17 145.17 265.5 139.17 255.17 142.17 252.17 145.67 245 130.33 245.67 120.17 249.33 111.67 241.83 107.67 231.33 120.67 222.67 116.5 209.75 122.13 197.38 117.25 192 114.25 190.88 120.88 182.5 124 176.13 131.63 165.88 138.75 168.63 150.88 167 157.75 158.75 163.75 159.5 173.88 152.38 176.5 141.5 180 134 184 130.25 180 128.63 171.63 119.5 167.88 111.38 179.25 102.25 177.38 91.13 181.88 84.25 183.38 78 196.63 82.63 199 85.13 208.88 89.38 207.5 91 214.75 95.5 215.75 90.84 219.44 96.25 226.88 104.88 228.88 107.13 223.13 120.38 234.5 121.13 224.13 136.5 221.13 141.88 225.75 147.2 220.19 150.63 222.38"/>
    <circle class="smap-point" cx="223" cy="248.5" r="4.5"/>
    <text class="smap-text" transform="translate(201.25 237.25)">Уфа</text>
  </g>
  <g class="smap-group" id="smap-group-6" data-name="Нефтекамск">
    <polygon class="smap-polygon" data-name="Map" points="176 30.5 183.75 30.75 192.33 20.67 206.5 18.5 212 12 222.67 14.33 224.33 19.17 221.5 26.83 233 38 248.33 34.83 257.67 22.5 266.5 23.5 270.67 27.33 270.67 35.83 278.5 44.33 286.17 47.83 296.17 61.67 318.67 52.5 320.5 40.33 326.17 30 335 30.33 337.67 36 336.5 42.83 342 50 340.83 59.83 351.83 64.33 345.33 73.33 358.83 79.67 354 97.67 345.83 103.67 343.83 115 333.33 118.67 327.67 128.5 326.33 138.33 319.5 138.33 312.67 141.83 305.33 148.83 294.5 147.17 281.83 142.83 275.17 145.17 265.5 139.17 255.17 142.17 252.17 145.67 245 130.33 245.67 120.17 249.33 111.67 241.83 107.67 231.33 120.67 222.67 116.5 209.75 122.13 197.38 117.25 192 114.25 190.88 120.88 182.5 124 176.13 131.63 165.88 138.75 168.63 150.88 167 157.75 158.75 163.75 159.5 173.88 152.38 176.5 141.5 180 134 184 130.25 180 128.63 171.63 119.5 167.88 111.38 179.25 102.25 177.38 91.13 181.88 84.25 183.38 74.25 174.13 72.38 167.88 58.13 157 63.25 145 68.13 135.25 79.75 126 86 121.13 89.13 114.63 90.5 106.63 84.13 102.5 78.88 103.25 74.38 107.25 66.13 99.88 67.88 95.38 59.88 86.88 49 89.13 51.88 76.63 58.75 76.75 61.5 63.13 71.38 66.88 78.63 61.63 86.5 44.63 103.63 40.5 103.75 24.13 111 17.63 117.63 0.88 123.63 0 131 12.75 139.5 19 150.44 23.22 152.25 31.5 167.5 23 176 30.5"/>
    <circle class="smap-point" cx="91.75" cy="62.75" r="4.5"/>
    <text class="smap-text" transform="translate(31.25 51.25)">Нефтекамск</text>
  </g>
  <g class="smap-group" id="smap-group-7" data-name="Месягутово">
    <polygon class="smap-polygon" data-name="Map" points="382.83 174.67 393.17 182.17 380.5 190.67 383.83 208.5 377.33 218.5 383.33 223.83 388.83 225 394.5 218.75 397.17 208.33 399.58 201.58 395.42 194.83 403.25 189.58 410.25 192 413.92 203.83 421.08 213.08 439.5 219.75 454.17 204.67 451 202.08 441.75 192.25 445.25 182.17 438.67 177.92 441.25 173.92 455.67 174.42 458.75 168.17 460.75 177.92 468.83 167.75 475.33 167.08 477.42 161.5 473.17 154.75 475.17 146.33 498.17 145.42 508 135.08 513.42 129.83 511.17 123.5 505.33 127.33 498.17 126.67 493.42 120.08 486.67 122.83 482.67 116.33 483.17 109 486.25 102.58 472 101.75 477 96.67 475.67 91.5 478.75 83.5 474.58 78.33 475 70.58 482.67 65.33 484.33 57.33 477.42 53.17 469.25 52.25 461.75 47.83 459.25 57.58 450.5 63.5 443.92 62.17 437.67 64.25 434 57.38 427.38 51.75 420 49.75 412 58.88 406.88 57.88 400.63 58 392.88 56.25 386.5 59.5 373.13 59.13 365.63 54.38 356.25 57.25 351.83 64.33 345.33 73.33 358.83 79.67 354 97.67 345.83 103.67 343.83 115 333.33 118.67 327.67 128.5 326.33 138.33 319.5 138.33 328 142.67 327.5 154.67 340.83 157.33 341.83 168.33 358.17 173.67 375.67 171.67 382.83 174.67"/>
    <circle class="smap-point" cx="400" cy="136.5" r="4.5"/>
    <text class="smap-text" transform="translate(343.75 125.25)">Месягутово</text>
  </g>
</svg>
