<svg xmlns="http://www.w3.org/2000/svg" viewBox="0 0 184.94394 345.54041">
  <title>arr-tor</title>
  <path d="M155.95445,173.01364c-9.67614-9.70565-18.73225-18.82863-27.83088-27.909Q66.56269,83.66723,4.96165,22.27C1.99477,19.31458-.0835,16.126.10915,11.76238A11.50494,11.50494,0,0,1,6.84585,1.30927a11.257,11.257,0,0,1,12.0552.96969,25.3274,25.3274,0,0,1,3.33987,2.99366q78.60861,78.5861,157.19987,157.18953c7.34084,7.34154,7.336,13.61038-.00534,20.95221q-78.59471,78.6-157.17,157.2194C19.40278,343.5,16.29611,345.622,12.14211,345.538c-4.9038-.0992-8.73914-2.30476-10.8262-6.77176A11.789,11.789,0,0,1,2.7671,325.73893a38.512,38.512,0,0,1,3.10219-3.252q73.15736-73.16889,146.333-146.31955C153.25883,175.11139,154.49321,174.23331,155.95445,173.01364Z"/>
</svg>
