<svg xmlns="http://www.w3.org/2000/svg" viewBox="0 0 345.54041 184.94394">
  <title>arr-tob</title>
  <path d="M172.52677,155.95445c9.70565-9.67614,18.82862-18.73225,27.909-27.83088Q261.87317,66.56269,323.27036,4.96165C326.22582,1.99477,329.41442-.0835,333.778.10915a11.50492,11.50492,0,0,1,10.4531,6.7367,11.257,11.257,0,0,1-.96968,12.0552,25.32811,25.32811,0,0,1-2.99366,3.33987Q261.6817,100.84953,183.07826,179.44079c-7.34155,7.34084-13.61038,7.336-20.95221-.00534q-78.6-78.59471-157.2194-157.17C2.04043,19.40278-.08162,16.29611.00241,12.14211.10161,7.23831,2.30717,3.403,6.77417,1.31591A11.789,11.789,0,0,1,19.80148,2.7671a38.512,38.512,0,0,1,3.252,3.10219Q96.22235,79.02665,169.373,152.20226C170.429,153.25883,171.3071,154.49321,172.52677,155.95445Z"/>
</svg>
