<svg xmlns="http://www.w3.org/2000/svg" viewBox="0 0 360.07378 330.90591">
  <title>comment</title>
  <g>
    <path d="M360.01825,51.38345a57.63616,57.63616,0,0,0-1.0415-11.53937C354.06055,16.0881,334.32623.0635,309.9845.02957Q249.991-.05411,189.99731.01406q-69.93-.00009-139.86.01349C22.34351.05654.25458,21.29647.14874,48.65139q-.31256,80.80253.0036,161.607c.08313,23.22815,17.04212,43.054,39.839,47.41736,3.01117.57635,6.07691.86779,9.36365,1.3255v71.90466c1.78442-1.12018,2.83453-1.72083,3.82379-2.40906q48.44952-33.7056,96.94525-67.34424a14.099,14.099,0,0,1,7.50812-2.39294c50.36926-.13776,100.739-.0622,151.10858-.1192,29.8999-.03388,51.29474-21.44489,51.31287-51.27374Q360.101,129.37505,360.01825,51.38345ZM338.91351,208.3992c-.048,17.36523-12.30444,29.09716-29.88464,29.11181-52.6189.0437-105.238-.01642-157.85657.116a14.12427,14.12427,0,0,0-7.5199,2.334c-23.15954,15.92164-46.18933,32.03211-69.2597,48.0835-1.088.757-2.2287,1.43793-3.95087,2.54321V237.46994c-7.6278,0-14.8388.173-22.03851-.03876A27.66342,27.66342,0,0,1,22.504,217.65786a32.451,32.451,0,0,1-1.3114-9.20788Q21.07665,129.334,21.1557,50.21786C21.17163,33.56924,32.845,21.69064,49.49145,21.1163c.74927-.02588,1.49946-.03351,2.24921-.03351q128.23526-.0021,256.47046-.0376c7.5097-.005,14.37958,1.56818,20.23608,6.44a28.24658,28.24658,0,0,1,10.49988,22.68238Q339.00458,129.28341,338.91351,208.3992Z"/>
    <path d="M263.30969,74.84371H96.41309v20.517h166.8966Z"/>
    <path d="M263.30084,119.85275H96.40527v20.50018H263.30084Z"/>
    <path d="M96.49982,185.37387h166.825V164.82839H96.49982Z"/>
  </g>
</svg>
