<svg xmlns="http://www.w3.org/2000/svg" viewBox="0 0 391.98439 391.91243">
  <title>search</title>
  <path d="M269.83768,293.2305c-39.34651,30.70879-83.40478,42.729-132.35437,34.63862-41.13911-6.79944-75.015-26.901-101.04383-59.41977A165.11179,165.11179,0,0,1,268.59694,36.36819c72.22595,57.67428,82.45129,164.363,24.77934,233.4887.61609.74363,1.208,1.58789,1.926,2.306q45.38324,45.39,90.78486,90.7616c7.42346,7.423,7.87937,17.53435,1.13525,24.24365-6.85974,6.82434-16.96218,6.218-24.55329-1.37747q-45.374-45.40012-90.79112-90.75713C271.31952,294.47552,270.69442,293.98411,269.83768,293.2305ZM32.8358,164.96313c-.11736,72.74571,59.09868,132.29657,131.80175,132.54693,73.14344.25188,132.90094-59.15669,132.97225-132.19587C297.681,92.365,238.33568,32.87893,165.38878,32.77971,92.425,32.68047,32.95352,91.98614,32.8358,164.96313Z"/>
</svg>
