<svg xmlns="http://www.w3.org/2000/svg" viewBox="0 0 409.6 350.92443">
  <title>share</title>
  <path d="M409.6,163.42256c-1.78892,2.26086-3.24441,4.92383-5.41533,6.724q-88.9723,73.777-178.08477,147.385a20.84319,20.84319,0,0,1-2.91928,2.09214c-7.34251,4.17871-16.23282-.213-16.97747-8.62192-.44541-5.02947-.20364-10.123-.20767-15.18779-.01591-19.99959-.08032-39.99969.06468-59.99822.02436-3.36-.99117-4.24585-4.29-4.20376-22.02515.28108-43.99283.98279-65.52052,6.3459C107.279,245.1752,84.04829,261.5,64.3371,283.36216c-15.60662,17.30969-28.5046,36.55-40.12867,56.68594-.93273,1.61572-1.83917,3.24934-2.83827,4.8236-5.29994,8.35093-15.63917,7.99793-20.31777-.671-.299-.554-.69924-1.05339-1.05239-1.57817v-48.8c.55293-6.74658,1.062-13.49707,1.66624-20.23906,2.90262-32.38914,9.65631-63.75633,25.47375-92.55766,19.50973-35.52448,49.05576-59.3841,86.5842-73.89621,28.02968-10.839,57.26388-15.3898,87.06946-17.10824,1.57815-.091,3.15789-.15465,5.34583-.26051V84.84831q.00033-35.38442.03069-70.76876a21.2524,21.2524,0,0,1,.73232-6.69564c2.56655-7.54133,11.42166-9.78042,18.04609-4.49417,9.06092,7.23052,17.94856,14.67852,26.89436,22.05284Q316.468,78.21507,381.085,131.49741c7.71152,6.35755,15.54038,12.5794,23.08364,19.13035,2.21938,1.9274,3.64306,4.771,5.43137,7.1948Zm-29.20088-2.99493L228.73965,35.27684V40.594q-.00011,28.39343-.001,56.78685c-.0018,11.039-3.74089,14.7323-14.8958,14.89365-26.77123.38718-53.18652,3.37625-78.90151,11.17782C88.62061,137.50537,55.3116,165.92274,37.86511,211.73,27.484,238.98638,24.038,267.46882,23.11519,296.3802a2.3064,2.3064,0,0,0,.28456,1.05354c9.2954-11.10029,18.164-22.63374,28.009-33.26287,25.03774-27.0321,55.5788-44.35744,92.14835-50.65886,23.76445-4.09494,47.74225-4.31679,71.73478-4.44138,9.18781-.0477,13.4822,4.30588,13.49113,13.4468q.0285,29.19321.0148,58.3865c.00083,1.37708.11343,2.75413.20569,4.84922C279.71436,243.77459,329.7863,202.325,380.39912,160.42763Z"/>
</svg>
