<svg xmlns="http://www.w3.org/2000/svg" viewBox="0 0 307.85567 361.45873">
  <title>user</title>
  <g>
    <path d="M303.92657,257.70557c-4.33361-16.51844-14.39013-28.61744-31.22393-33.44965a230.37061,230.37061,0,0,1-61.62079-28.057,12.9267,12.9267,0,0,0-5.17908-1.96649A9.72748,9.72748,0,0,0,195.4444,200.83c-1.6825,4.56866-.15528,9.124,4.46747,12.18213,19.71917,13.045,40.80285,23.3,63.62951,29.54791,11.42639,3.12756,18.32947,10.08465,21.1004,21.28064,3.63758,14.69726,3.3603,29.59357,1.3946,44.47919-.17871,1.35321-1.71558,2.97229-3.0412,3.66369-32.58679,16.9964-67.58386,25.31494-103.97351,28.23169a307.83231,307.83231,0,0,1-78.01209-3.46844c-26.39526-4.62555-51.82446-12.18811-75.77575-24.42951a6.59908,6.59908,0,0,1-4.007-5.87829c-1.20764-12.57343-1.35-25.13636.68652-37.62836,2.23261-13.69464,9.08478-23.10632,23.379-26.77179a148.0653,148.0653,0,0,0,27.05035-9.90094c12.14673-5.8233,23.80579-12.67792,35.57373-19.26953a9.48775,9.48775,0,0,0,4.9032-10.165,9.59332,9.59332,0,0,0-6.89258-8.15979c-3.63647-1.20752-6.84094-.08313-9.96618,1.95624A217.1,217.1,0,0,1,36.663,223.7619a51.73974,51.73974,0,0,0-12.52056,5.44275c-13.09864,7.95728-19.14,20.57874-21.91095,35.04541C1.17719,269.75427.726,275.37408,0,280.94116v17.647c.26044,2.07544.65918,4.14428.75848,6.22735.5647,11.85034,4.33918,20.63556,16.371,26.42255,40.76989,19.60919,83.7315,28.876,128.657,30.09405a325.50885,325.50885,0,0,0,77.41485-7.013c26.19019-5.62384,51.35468-14.05981,74.76667-27.32379a13.27012,13.27012,0,0,0,7.06591-9.51654C308.83643,297.4707,309.10559,277.44635,303.92657,257.70557Z"/>
    <path d="M100.45148,172.501c19.4165,20.85162,43.8753,25.6278,70.73242,20.36822,24.78387-4.85351,40.9917-20.59173,50.34833-43.40167,12.05822-29.39594,13.17541-60.01862,6.95178-90.72418-5.7757-28.49555-23.04077-47.48316-51.39252-55.5716C172.05188,1.734,166.8006,1.03833,161.647,0H145.41174a14.97835,14.97835,0,0,1-2.33636.66064C109.71161,4.59644,86.03845,25.75232,79.0733,58.559a167.02443,167.02443,0,0,0,.54547,70.66229C83.0965,145.2984,89.09692,160.30719,100.45148,172.501ZM96.491,81.11084c.76166-8.59216,1.93561-17.3623,4.54449-25.53381,6.3581-19.91455,20.85828-30.95777,41.221-34.34235a64.99229,64.99229,0,0,1,37.30676,4.33966c18.0586,7.89734,26.90741,22.798,30.01422,41.47571,1.4032,8.436,1.73737,17.0498,2.25733,22.46612-.41406,19.68647-2.0343,36.00739-8.51337,51.44477-6.93793,16.53064-17.99969,28.67242-36.37744,32.10846-29.61591,5.53723-52.87183-5.21814-63.80914-35.00067C96.37537,119.6626,94.77307,100.49158,96.491,81.11084Z"/>
  </g>
</svg>
