<svg xmlns="http://www.w3.org/2000/svg" viewBox="0 0 398 64">
  <title>logo-self-black</title>
  <g fill="#ffffff">
    <path d="M32.8,39.8H15.6l-2.8,8.1H0L17.6,1.3H30.8L48.4,47.9H35.6Zm-3.2-9.2L24.2,15.1,18.8,30.6Z"/>
    <path d="M64.4,1.3V26.6c0,1.4.1,2.8.2,4.2a11.2,11.2,0,0,0,.9,3.8,6,6,0,0,0,2.4,2.8,8.2,8.2,0,0,0,4.7,1.1,8,8,0,0,0,4.7-1.1,6.6,6.6,0,0,0,2.4-2.8,11.2,11.2,0,0,0,.9-3.8c.1-1.4.2-2.8.2-4.2V1.3h12v27c0,7.2-1.7,12.5-5,15.8s-8.3,5.1-15.2,5.1-11.9-1.7-15.2-5.1-5-8.6-5-15.8V1.3Z"/>
    <path d="M120,11.5V47.9H108V11.5H98.1V1.3h31.8V11.5Z"/>
    <path d="M228.9,37.6h19.4V47.9H208.6l22-36.4H212.3V1.3h38.4Z"/>
    <path d="M351.7,47.9V1.3h12.1L386,29.8V1.3h12V47.9H386L363.8,19.4V47.9Z"/>
    <path d="M158,48a24,24,0,1,1,24-24A24.1,24.1,0,0,1,158,48Zm0-36a12,12,0,1,0,12,12A12,12,0,0,0,158,12Z"/>
    <path d="M288.4,30a12,12,0,1,1,.3-11.5,31.5,31.5,0,0,1,5.5-12.2A23.7,23.7,0,0,0,278,0a24.1,24.1,0,0,0-24,24c0,13.2,14,30,24,40a121.3,121.3,0,0,0,16.5-20A30.5,30.5,0,0,1,288.4,30Z"/>
    <path d="M349,56.7,337.9,40A24,24,0,1,0,320,48a25.6,25.6,0,0,0,7.9-1.3L339,63.3ZM308,24a12,12,0,1,1,12,12A12,12,0,0,1,308,24Z"/>
  </g>
</svg>
