<svg xmlns="http://www.w3.org/2000/svg" viewBox="0 0 400 96">
  <title>logo</title>
  <g>
    <g>
      <path d="M32.8,39.8H15.6l-2.7,8.1H0L17.6,1.3H30.8L48.4,47.9H35.6Zm-3.2-9.2L24.2,15.1,18.8,30.6Z"/>
      <path d="M64.5,1.3V26.6c0,1.4,0,2.8.1,4.2a11.2,11.2,0,0,0,.9,3.8A6.8,6.8,0,0,0,68,37.4a7.7,7.7,0,0,0,4.6,1.1,8,8,0,0,0,4.7-1.1,6,6,0,0,0,2.4-2.8,14.1,14.1,0,0,0,1-3.8c.1-1.4.1-2.8.1-4.2V1.3h12v27c0,7.2-1.7,12.5-5,15.8s-8.3,5.1-15.2,5.1-11.9-1.7-15.2-5.1-5-8.6-5-15.8V1.3Z"/>
      <path d="M120.1,11.5V47.9H108V11.5H98.1V1.3H130V11.5Z"/>
      <path d="M228.9,37.6h19.4V47.9H208.7l21.9-36.4H212.3V1.3h38.4Z"/>
      <path d="M351.8,47.9V1.3h12L386,29.8V1.3h12V47.9H386L363.8,19.4V47.9Z"/>
    </g>
    <path d="M158,48a24,24,0,1,1,24-24A24.1,24.1,0,0,1,158,48Zm0-36a12,12,0,1,0,12,12A12,12,0,0,0,158,12Z"/>
    <path d="M288.4,30A12,12,0,1,1,278,12a12.1,12.1,0,0,1,10.7,6.5,30.2,30.2,0,0,1,5.6-12.2A24.1,24.1,0,0,0,254,24c0,13.2,14,30,24,40a121.3,121.3,0,0,0,16.5-20A31.6,31.6,0,0,1,288.4,30Z" style="fill: #008efa"/>
    <path d="M349,56.7,337.9,40A24,24,0,1,0,320,48a25.6,25.6,0,0,0,7.9-1.3L339,63.3ZM308,24a12,12,0,1,1,12,12A12,12,0,0,1,308,24Z" style="fill: #008efa"/>
    <g>
      <path d="M16.8,77.1V95.7h-3V79.1H3V95.7H0V77.1Z" style="fill: #5c5c5c"/>
      <path d="M44,86.2c0,6.4-4.9,9.8-10.8,9.8s-10.5-3.8-10.5-9.4,4.6-9.8,10.8-9.8S44,80.7,44,86.2Zm-18.1.3A7.2,7.2,0,0,0,33.4,94c4.7,0,7.4-3.5,7.4-7.7s-2.4-7.6-7.4-7.6S25.9,82.4,25.9,86.5Z" style="fill: #5c5c5c"/>
      <path d="M52.8,77.1v7.8c0,3-.1,5.4-.3,7.9h.1c1.2-1.9,2.6-3.9,4.3-6.1l7.5-9.6h3V95.7H64.6V87.8a59.5,59.5,0,0,1,.3-7.6h-.1a59.1,59.1,0,0,1-4.4,6.2l-7.2,9.3H50V77.1Z" style="fill: #5c5c5c"/>
      <path d="M91,95.1a19.3,19.3,0,0,1-6.2.9c-6.5,0-11.5-3.3-11.5-9.4s5-9.8,12.2-9.8a16,16,0,0,1,5.5.8l-.7,2a12.4,12.4,0,0,0-4.7-.8c-5.5,0-9.1,2.8-9.1,7.7s3.3,7.5,9,7.5a14.4,14.4,0,0,0,4.9-.8Z" style="fill: #5c5c5c"/>
      <path d="M99.8,77.1v8.2h.9l8-8.2h3.6l-8.8,8.5c3.8.4,5.3,2.3,6.5,4.8a43.4,43.4,0,0,0,2.6,5.3h-3.3a29.8,29.8,0,0,1-2.1-4.4c-1-2.4-2.5-4.1-6.5-4.1h-.9v8.5h-3V77.1Z" style="fill: #5c5c5c"/>
      <path d="M130.7,89.8l-2.4,5.9h-3.1l7.9-18.6h3.6l8,18.6h-3.3L139,89.8Zm7.6-1.8-2.2-5.4a17.4,17.4,0,0,1-1.2-3.4h-.1c-.4,1.1-.7,2.3-1.2,3.4L131.3,88Z" style="fill: #5c5c5c"/>
      <path d="M150.1,77.3a42.2,42.2,0,0,1,5.5-.3c3,0,5,.4,6.4,1.3a3.6,3.6,0,0,1,1.9,3.3c0,1.8-1.4,3.4-3.9,4.1h0c2.2.5,4.8,1.9,4.8,4.7a4.5,4.5,0,0,1-2,3.7c-1.6,1.2-4.2,1.8-8,1.8a26.7,26.7,0,0,1-4.7-.3Zm3,7.7h2.8c3.1,0,5-1.4,5-3.2s-2.1-3-5.1-3a13.8,13.8,0,0,0-2.7.2Zm0,8.9h2.6c3.1,0,5.9-.9,5.9-3.6s-2.7-3.6-6-3.6h-2.5Z" style="fill: #5c5c5c"/>
      <path d="M175.1,79.1H168v-2h17.3v2h-7.1V95.7h-3.1Z" style="fill: #5c5c5c"/>
      <path d="M208.6,86.2c0,6.4-4.9,9.8-10.8,9.8s-10.5-3.8-10.5-9.4,4.6-9.8,10.8-9.8S208.6,80.7,208.6,86.2Zm-18.1.3A7.2,7.2,0,0,0,198,94c4.7,0,7.4-3.5,7.4-7.7s-2.4-7.6-7.4-7.6S190.5,82.4,190.5,86.5Z" style="fill: #5c5c5c"/>
      <path d="M215.7,85.2h10.8c-.4-3.6-3.2-6.4-7.9-6.4a15.4,15.4,0,0,0-5,.9l-.7-1.8a16.6,16.6,0,0,1,5.8-1.1c7.3,0,11.1,4.2,11.1,9.6S224.7,96,218.6,96a17.7,17.7,0,0,1-6.1-1l.6-1.9a15.9,15.9,0,0,0,5,.9c5.2,0,8.2-3,8.5-6.9H215.7Z" style="fill: #5c5c5c"/>
      <path d="M238.7,77.1v8.2h.9l8-8.2h3.6l-8.8,8.5c3.9.4,5.3,2.3,6.5,4.8s1.6,3.6,2.6,5.3h-3.2a22.3,22.3,0,0,1-2.1-4.4c-1.1-2.4-2.6-4.1-6.5-4.1h-1v8.5h-3V77.1Z" style="fill: #5c5c5c"/>
      <path d="M272.1,95.1a19,19,0,0,1-6.1.9c-6.6,0-11.5-3.3-11.5-9.4s4.9-9.8,12.1-9.8a16,16,0,0,1,5.5.8l-.7,2a12.1,12.1,0,0,0-4.7-.8c-5.4,0-9.1,2.8-9.1,7.7s3.3,7.5,9,7.5a14,14,0,0,0,4.9-.8Z" style="fill: #5c5c5c"/>
      <path d="M294.7,77.1V95.7h-3V79.1H280.9V95.7h-3V77.1Z" style="fill: #5c5c5c"/>
      <path d="M314.1,87H305v6.7h10.1v2H302V77.1h12.6v2H305V85h9.1Z" style="fill: #5c5c5c"/>
      <path d="M321.1,77.3a42.4,42.4,0,0,1,5.7-.3q4.5,0,6.6,1.5a4.7,4.7,0,0,1,2,3.9,4.9,4.9,0,0,1-1.8,4,11.5,11.5,0,0,1-7.1,2,9,9,0,0,1-2.4-.2v7.5h-3Zm3,9,2.5.2c3.6,0,5.8-1.4,5.8-4s-2.2-3.6-5.5-3.6a9.8,9.8,0,0,0-2.8.2Z" style="fill: #5c5c5c"/>
      <path d="M345.9,79.1h-7.1v-2h17.3v2H349V95.7h-3.1Z" style="fill: #5c5c5c"/>
      <path d="M379.4,86.2c0,6.4-4.9,9.8-10.8,9.8s-10.5-3.8-10.5-9.4,4.6-9.8,10.8-9.8S379.4,80.7,379.4,86.2Zm-18.1.3a7.2,7.2,0,0,0,7.5,7.5c4.7,0,7.4-3.5,7.4-7.7s-2.4-7.6-7.4-7.6S361.3,82.4,361.3,86.5Z" style="fill: #5c5c5c"/>
      <path d="M385.4,77.3a39.5,39.5,0,0,1,5.4-.3c3,0,5,.4,6.4,1.3a3.7,3.7,0,0,1,2,3.3c0,1.8-1.5,3.4-4,4.1h0c2.2.5,4.8,1.9,4.8,4.7a4.7,4.7,0,0,1-1.9,3.7c-1.7,1.2-4.3,1.8-8.1,1.8a25.4,25.4,0,0,1-4.6-.3Zm3,7.7h2.7c3.2,0,5-1.4,5-3.2s-2.1-3-5.1-3a11.8,11.8,0,0,0-2.6.2Zm0,8.9h2.5c3.1,0,5.9-.9,5.9-3.6s-2.7-3.6-6-3.6h-2.4Z" style="fill: #5c5c5c"/>
    </g>
  </g>
</svg>
