<svg xmlns="http://www.w3.org/2000/svg" viewBox="0 0 235.4 344.6">
   <title>rub</title>
   <path
      d="M62.3,192v57.3h78.3v25.5H62.3v69.8H30.9V274.8H0V249.3H30.9V192H0V164.6H30.9V0h94.8a162.3,162.3,0,0,1,44.1,5.7c13.5,3.9,25,9.8,34.6,17.7a81.8,81.8,0,0,1,22.7,30c5.5,11.9,8.3,25.9,8.3,41.8s-2.7,30-8,42.2a83.2,83.2,0,0,1-22.2,30.4A93.8,93.8,0,0,1,171.3,186c-13.1,4-27.7,6-43.6,6Zm62.4-27.4a120.5,120.5,0,0,0,31.4-4,75.8,75.8,0,0,0,25.2-12.2A56.1,56.1,0,0,0,198,126.9c4-8.8,6-19.4,6-31.7s-2.1-22.7-6.3-31.4a55.4,55.4,0,0,0-16.9-20.9,73.1,73.1,0,0,0-25.2-11.7,123.4,123.4,0,0,0-30.9-3.8H62.3V164.6Z"/>
</svg>
