<?xml version="1.0" encoding="utf-8"?>
<!-- Generator: Adobe Illustrator 22.1.0, SVG Export Plug-In . SVG Version: 6.00 Build 0)  -->
<svg version="1.1" id="Слой_1" xmlns="http://www.w3.org/2000/svg" xmlns:xlink="http://www.w3.org/1999/xlink" x="0px" y="0px"
	 viewBox="0 0 255.8 512" style="enable-background:new 0 0 255.8 512;" xml:space="preserve">
<style type="text/css">
	.st0{display:none;}
	.st1{display:inline;}
</style>
<g id="Слой_1_1_" focusable="false" class="st0">
	<path class="st1" d="M238,320c85.1,0,144.6-59.5,144.6-144.9S323.1,32,238,32H74.6c-6.6,0-12,5.4-12,12v206.6h-52
		c-6.6,0-12,5.4-12,12V308c0,6.6,5.4,12,12,12h52v32h-52c-6.6,0-12,5.4-12,12v40c0,6.6,5.4,12,12,12h52v52c0,6.6,5.4,12,12,12h58.6
		c6.6,0,12-5.4,12-12v-52h161.4c6.6,0,12-5.4,12-12v-40c0-6.6-5.4-12-12-12H145.2v-32H238z M145.2,100.7h78.7
		c46.7,0,74.9,29.1,74.9,74.3c0,45.8-28.2,75.6-76.2,75.6h-77.4L145.2,100.7L145.2,100.7z"/>
</g>
<g id="Слой_2_1_" class="st0">
	<g id="_x33_VP8pF.tif" class="st1">
		
			<image style="overflow:visible;enable-background:new    ;" width="20" height="37" id="Слой_1_3_" xlink:href="6ED46A105ABED94B.png"  transform="matrix(12.044 0 0 12.044 -3.612 27.8169)">
		</image>
	</g>
</g>
<g id="Слой_3">
	<polygon points="0,256 234.6,490.6 255.8,469.4 42.4,256 255.8,42.6 234.6,21.4 	"/>
</g>
</svg>
