<svg xmlns="http://www.w3.org/2000/svg" viewBox="0 0 357.1 49.7">
  <defs>
    <style>
      .a {
        fill: #f31e1e;
      }

      .b {
        fill: #fff;
      }
    </style>
  </defs>
  <title>logo</title>
  <g>
    <g>
      <path class="a" d="M12.7,7.2l1.1.3h-3c11.7,2.1,27,.8,36.9-1.3,3.6.1,6.7-.5,7.1-1.4s-2.3-1.6-5.9-1.7l-2.3-.3A130.4,130.4,0,0,0,28.3,0l4,.8A39.9,39.9,0,0,0,26.1.3l.8.5C20-.4,10.6.1,5.8,1.7s-3.1,3.8,3.8,5Z"/>
      <path class="a" d="M25.5,12.2l-12-1.8-.8-.3.3,1.3h0c3.7-1.1,9.8-1.5,15.5-1.8l2-.2c1-.2,1.6-.4,1.8-.7S31,7.4,28.4,7.2h-3C18,6.4,6.4,6.3,2.3,8.6c-.9.5-.1,1.1.1,1.7S4.9,11.9,8.6,12s6.8-.6,7.1-1.5l1.8.2-1.4.3c1-.7,4.4-.9,6.9-1.3l3.7-.2-2.1-2-2,.2L23,8c-3.7.5-7.1,1.1-11.2,1.4l-5.1.8c-1.4.3-1.3.9.2,1.3l2.3.4-1-.2c5.2.4,10.7.7,15.9,1.2a4.8,4.8,0,0,0,2.2-.2C26.7,12.5,26.3,12.2,25.5,12.2Z"/>
      <g>
        <path class="a" d="M7.1,12.4a21.6,21.6,0,0,0-2.9-.3l-.5.2,1.6.4C6.5,12.9,7.1,12.7,7.1,12.4Z"/>
        <path class="a" d="M3.7,12.3h0Z"/>
        <path class="a" d="M231.6,9.3l12.1.3H268l12.1.2a2,2,0,0,0,1.1-.2c0-.1-.4-.3-.9-.2l-12.1-.2H255.7c-4.1.1-8.1.2-11.8.1l-12.1-.3-1,.2C230.7,9.2,231.1,9.3,231.6,9.3Z"/>
        <path class="a" d="M308.3,22.7c14.5-.1,8.9-.2,23.3,0l4.7-.4a2.1,2.1,0,0,1,1.2.1c.1.1-.2.3-.6.3h-1.4c2.8.1,4.9.6,4.8,1.3s-2.5,1.2-5.3,1.2c-7.6.1,4.9.2-2.7.2h-2.4l-2.5.3c11.8.3,3.5.6,15.1,1,1,0,1.9.2,1.9.4s-.8.4-1.8.5c-20.6.9-21.3,1.6-42.3,2l-20.7,3.1h2.6c22.8,0,22-2.9,44.1-3.5.5-.1,1,.1,1,.2s-.3.2-.8.2c-10.8.4-.5,1.4-11.2,2.1-8.8.6-17.2,1.1-25.4,1.9,16.7-.3,12.8-1.5,29.4-2.1a5.6,5.6,0,0,1,1.9.1h.4c2.1-.4,4.4-.6,6.7-.8a2.3,2.3,0,0,1,1.2.1c.3.1,0,.2-.5.3l-6.3.7a2,2,0,0,1-1.1,0c.1.2-.3.4-1.1.5-16.1,1.7-13.3,2.4-30.4,3.3a1.4,1.4,0,0,1-.7.4,16.4,16.4,0,0,1-6,.7h-1.9L259.3,36l-5.1.5q-4.8.8-9.9,1.2l-4.9.4-5,.4c.4.1.7.3.7.5s-1.7.7-3.5.7H229l7.7.4h9.8l9.6-.5,4.5-.2,4.5-.2q9.3-.3,18.3-.9c12.1-.7,24-1.6,35.9-2.5h1.3c.2.1.2.3-.2.3-15,2.2-27.9,5.1-44.8,6.5l-14.9,1.3-14.9,1.5-15.4,1-15.3.9c-21.5,0-41.4,1.1-63.4,1.6l-22.1.6-11,.2H64.9C54,50,44.1,48.2,42.7,45.6s1.7-3,6.1-4H46.2L42,41.3a32.1,32.1,0,0,1-9.5-1.9l-2.9-1c-4-2.1-10.3-3.8-13.5-6l.7-.8-.7-.2c-2.5-.6-4.2-1.4-4.8-2.2l.3-1a7,7,0,0,1,3.7-3.1,1.6,1.6,0,0,1,.7-1.3c-1.7-1-2.5-2-1.1-3.2-1.1-.3-.9-.7.3-.9l1.5-.2h0l-1.5-.6-1.6-.2-5.1-.3a17.2,17.2,0,0,1-3.3-.8C3,15.8,3,15.8,3.3,15.1l.4-.2-2.4-.4-.8-.3c-.1-.4-.1-.4-.4-.5v-.3l1-.6.6-.2,1.8-.3L6,13.4l.5-.4.6.5-.3-.4,1.3.2L6.6,13h4.2a7.4,7.4,0,0,0,2.5-.1v-.2l6.4.4.7.3a3.2,3.2,0,0,1,1.5-.2h2l1.4-.2h.3l6.1-.9,2.7.3-.8-.2c-.5-.2,0-.6-.3-.6-6.9-.8-14.4-1.2-21.8-1.6-1.4,0-2.6-.2-2.8-.5s.8-.6,2.1-.7c15.1-2.1,33.5-1.8,49-.1l12.2.5L71.4,9l3.1.3h.4l-3-.9C61.9,8.2,53,7.1,43.5,6.3c-5-.4-9.2-1-13.9-1.5-1.2-.1-2-.3-1.9-.6a4.2,4.2,0,0,1,2.5-.5c15.6-.5,33.4,0,45.8,2.4a59.5,59.5,0,0,1,7.9.7H84l-1.8-.6c2.2.2,3.3.6,5.2.9l-.7-.9c2.7.2,5.3.3,8,.3l8.1.3c5.4.3,10.7.6,15.5,1.3h1.1A129.3,129.3,0,0,1,132.6,7l-4.9-.2a96.9,96.9,0,0,1,10.9-.6c10.4.2,22.1,1.5,27.6,3.7l30.3-.3L226.8,9c1,0,2,.1,2.1.4s-.5.4-1.6.5c-14.4.8-29.1,1.2-43.8,1.6,12.3.4,24.6.8,37.2.9h21.5l11.5-.3,6.1-.2h6.1l12.1-.3c14-.5-7.6.1,6.3-.6l28.5-1.5,14-.4,14.1-.2h1.6l1.2.2c.8.1,1.6.3,1.7.6s-.2.6-.9.9l-1.2.3-.6.2H342l-30,1.5-30.2,1.3c-10.1.4,13.6-.5,3.4-.3l-15.5.2h-16l-6.7.2h-6.5a.3.3,0,0,1,.1.2c0,.3-.4.7-1.2.9h15.1l5.4-.3,5.5-.3,10.8-.4c7.2-.2,14.6-.3,22.1-.1,10.5.2,19.9,1,29.5,1.6,12.2-.4,6.7-.9,18.9-1.2l1.2.2c.2.1-.1.2-.6.3l-12.8,1c-4.3.2,24.9.5,20.5.8,1.4.4,2.2.9,2.1,1.4s-1.2,1.1-2.8,1.4h-9.9c1.3,0,2.2.2,2.2.5s-1,.5-2.2.5H320.1l-29.1.8a7.3,7.3,0,0,1,2.8,1.3h4.5Q319,21.6,340,21c7-.2-13.2-.3-6.1-.4h10.5M57,16.9l-.4-.2,1.5.3,2,.9ZM31.3,20.4h0l-1.2-.5Zm164.2-7.7c-8.9,0-17.6-.2-26.3-.9h6.3Zm-155.7.5A33.3,33.3,0,0,1,45.6,15a38.5,38.5,0,0,1,4.8-.2l12.7.4c-.5-.3.5-.3,1-.3h1.6L52.2,14C48.1,13.7,43.7,13.6,39.8,13.2ZM8.7,14.5H8.3l.9-.6Zm-1.3.8H8C7.8,15.6,7.6,15.5,7.4,15.3Zm5.8.7-.8-.3Zm4.2,15,2.2-2.5-2.4,2.4Z"/>
      </g>
    </g>
    <g>
      <path class="b" d="M34.5,17.5,40,32.7H37.3l-1.6-4.5H30.3c-.3.8-.6,1.5-.8,2.2l-.9,2.3H26l5.5-15.2ZM33,20.7l-1.9,5.4h3.8Z"/>
      <path class="b" d="M64.2,21.9a4.1,4.1,0,0,1-.5,1.9,3.9,3.9,0,0,1-1.6,1.5l.9.5.6.8.3.8a3.1,3.1,0,0,1,.1,1v2.1a4.4,4.4,0,0,0,.2,1,6.7,6.7,0,0,0,.6,1.2H62l-.3-.6a1.1,1.1,0,0,1-.1-.5,1.3,1.3,0,0,1-.1-.6V28.3c0-.2-.1-.4-.1-.7A2.1,2.1,0,0,0,61,27l-.7-.4-1-.2H55.5v6.3H52.9V17.5h6.4a4.6,4.6,0,0,1,2.1.4l1.6,1a4.2,4.2,0,0,1,.9,1.4A5,5,0,0,1,64.2,21.9Zm-8.7,2.4h3.8l.9-.2.8-.4a5.6,5.6,0,0,0,.5-.8,2.5,2.5,0,0,0,.1-.9,2.8,2.8,0,0,0-.1-.9,2.2,2.2,0,0,0-.5-.8l-.7-.5H55.5Z"/>
      <path class="b" d="M89.1,17.5v2.2H84.3v13H81.7v-13H76.9V17.5Z"/>
      <path class="b" d="M101,26.8a1.3,1.3,0,1,1,1.3,1.4A1.2,1.2,0,0,1,101,26.8Z"/>
      <path class="b" d="M119.1,17.5V32.7h-2.6V17.5Z"/>
      <path class="b" d="M135.8,17.5,142.3,29V17.5h2.6V32.7H142L135.5,21V32.7h-2.6V17.5Z"/>
      <path class="b" d="M157.8,26.8a1.3,1.3,0,1,1,1.3,1.4A1.3,1.3,0,0,1,157.8,26.8Z"/>
      <path class="b" d="M175,27.4a3.2,3.2,0,0,0,.3,1.4,2.6,2.6,0,0,0,.7,1.1l1,.7a2.8,2.8,0,0,0,1.3.3l1.2-.2a1.8,1.8,0,0,0,1-.4,2.3,2.3,0,0,0,.7-.7,4.3,4.3,0,0,0,.2-1.2,1.5,1.5,0,0,0-.3-1,3.9,3.9,0,0,0-1-.8l-1.4-.5-1.6-.6a5.2,5.2,0,0,1-1.6-.6l-1.4-.8a4,4,0,0,1-1-1.2,4.3,4.3,0,0,1-.3-1.7,3.3,3.3,0,0,1,.4-1.7,2.8,2.8,0,0,1,1.1-1.3,4,4,0,0,1,1.6-.8,7.8,7.8,0,0,1,2.2-.3,6.7,6.7,0,0,1,2.6.5,5.2,5.2,0,0,1,1.7,1.2,4.2,4.2,0,0,1,.9,1.6,5.1,5.1,0,0,1,.3,1.7H181a2.8,2.8,0,0,0-.3-1.3l-.6-.8a2.4,2.4,0,0,0-.9-.6h-2.1l-.9.3a1.7,1.7,0,0,0-.6.6,1.6,1.6,0,0,0-.3.9,1.8,1.8,0,0,0,.4,1.1l1,.7a5.9,5.9,0,0,0,1.4.6l1.6.5,1.6.7,1.4.8a2.7,2.7,0,0,1,.9,1.2,2.7,2.7,0,0,1,.4,1.6,4.2,4.2,0,0,1-.4,2,4.4,4.4,0,0,1-1.2,1.5,4.9,4.9,0,0,1-1.8.8,8.5,8.5,0,0,1-2.3.3,5.4,5.4,0,0,1-2.2-.4,5.2,5.2,0,0,1-1.9-1.1,5.9,5.9,0,0,1-1.3-1.8,6,6,0,0,1-.6-2.3Z"/>
      <path class="b" d="M208,17.5v2.2h-4.8v13h-2.5v-13h-4.8V17.5Z"/>
      <path class="b" d="M226,24.2l3.8-6.7h2.9l-5.5,9.2v6h-2.5v-6l-5.5-9.2h2.9Z"/>
      <path class="b" d="M247.5,17.5v13h7.2v2.2h-9.8V17.5Z"/>
      <path class="b" d="M278.2,17.5v2.2H270v4.1h7.7v2.1H270v4.6h8.5v2.2h-11V17.5Z"/>
    </g>
  </g>
</svg>
