<svg width="1600" height="680" viewBox="0 0 1600 680" fill="none" xmlns="http://www.w3.org/2000/svg">
<mask id="mask0_10_135" style="mask-type:alpha" maskUnits="userSpaceOnUse" x="0" y="0" width="1739" height="680">
<rect width="1739" height="680" fill="#D9D9D9"/>
</mask>
<g mask="url(#mask0_10_135)">
<path fill-rule="evenodd" clip-rule="evenodd" d="M1267.36 -362.366C1411.93 -391.787 1542.75 -275.491 1648.48 -172.601C1756.01 -67.9625 1855.54 58.4725 1853.98 208.498C1852.43 357.465 1751.03 481.711 1640.62 581.741C1536.51 676.068 1407.85 740.068 1267.36 740C1126.94 739.932 992.574 681.839 894.463 581.38C797.493 482.088 721.978 344.767 748.286 208.498C772.404 83.5715 929.545 50.427 1015.14 -43.7108C1109.88 -147.903 1129.36 -334.282 1267.36 -362.366Z" fill="url(#paint0_linear_10_135)"/>
</g>
<defs>
<linearGradient id="paint0_linear_10_135" x1="1616.7" y1="-219.559" x2="1066.33" y2="722.808" gradientUnits="userSpaceOnUse">
<stop offset="0.0658041" stop-color="#90C8FA"/>
<stop offset="0.769166" stop-color="#867CF7"/>
</linearGradient>
</defs>
</svg>
