<svg xmlns="http://www.w3.org/2000/svg" xmlns:xlink="http://www.w3.org/1999/xlink" viewBox="0 0 222.3 81.4">
  <defs>
    <style>
      .a {
        fill: #fff;
      }

      .b {
        fill: #343951;
      }

      .c {
        fill: #161616;
      }

      .d {
        fill: url(#a);
      }

      .e {
        fill: url(#b);
      }

      .f {
        fill: url(#c);
      }

      .g {
        fill: url(#d);
      }
    </style>
    <linearGradient id="a" x1="25.57" y1="294.41" x2="36.88" y2="291.83" gradientTransform="matrix(1, 0, 0, -1, 0, 334.19)" gradientUnits="userSpaceOnUse">
      <stop offset="0" stop-color="#343951"/>
      <stop offset="1" stop-color="#67a5fb"/>
    </linearGradient>
    <linearGradient id="b" x1="31.1" y1="280.4" x2="37.98" y2="279.59" gradientTransform="matrix(1, 0, 0, -1, 0, 334.19)" gradientUnits="userSpaceOnUse">
      <stop offset="0" stop-color="#343951"/>
      <stop offset="1" stop-color="#c10f19"/>
    </linearGradient>
    <linearGradient id="c" x1="89.25" y1="276.5" x2="91.64" y2="276.38" xlink:href="#b"/>
    <linearGradient id="d" x1="16.13" y1="303.44" x2="27.09" y2="303.79" gradientTransform="matrix(1, 0, 0, -1, 0, 334.19)" gradientUnits="userSpaceOnUse">
      <stop offset="0" stop-color="#888d9d"/>
      <stop offset="1" stop-color="#fff"/>
    </linearGradient>
  </defs>
  <title>logo</title>
  <g>
    <path class="a" d="M30.5,81.4,18.6,71.7A49.2,49.2,0,0,1,4.9,54.4,50.6,50.6,0,0,1,0,32.7V10.4l2.8-.6A93.2,93.2,0,0,0,25.9,2.3H26l.4-.2L28.9.8,30.5,0l2,1A93.1,93.1,0,0,0,58.2,9.8l2.8.6V32.7a50.6,50.6,0,0,1-4.9,21.7A49.2,49.2,0,0,1,42.4,71.7l-2.1,1.8h0l-3.9,3.1h0ZM7,16.1V32.7a44.8,44.8,0,0,0,4.2,18.7A42.7,42.7,0,0,0,23,66.3l7.5,6.1h0c-6.8-9.3-18-28.7-14.5-52.3,0-.2.1-.5.1-.7a.4.4,0,0,1,.1-.3,24.3,24.3,0,0,1,1.7-6A103.4,103.4,0,0,1,7,16.1ZM27.4,52.8A75.9,75.9,0,0,0,36,68l1.7-1.4h0l.3-.3A42.7,42.7,0,0,0,49.8,51.4,44.8,44.8,0,0,0,54,32.7V16.1A99.7,99.7,0,0,1,30.5,7.8l-.6.3h-.1l-.4.2a96.3,96.3,0,0,1-10,4.2L24.7,15a21.6,21.6,0,0,0-1.6,5.1c0,.2,0,.3-.1.4v.6a55.7,55.7,0,0,0,.8,20.1,25,25,0,0,1,2.6-5.5,5.5,5.5,0,0,1,.9-1.4l5.7,4-.6,1a17.4,17.4,0,0,0-1.1,1.8,18.5,18.5,0,0,0-1.8,7.3V49a8.1,8.1,0,0,0,.1,1.6l.3,1.4Z"/>
    <g>
      <path class="b" d="M19.5,20.6a1.3,1.3,0,0,1,.1-.6v-.3A24.3,24.3,0,0,1,27.9,5.2,95.9,95.9,0,0,1,3.5,13.3V32.7A48.4,48.4,0,0,0,8,52.9,46.6,46.6,0,0,0,20.8,69l9.7,7.9L35.4,73C27.3,63,16,43.7,19.5,20.6Z"/>
      <path class="b" d="M30.9,4.1a34.3,34.3,0,0,1,2.4,3.3,24.3,24.3,0,0,1,3.1,14.2,23.8,23.8,0,0,1-5.5,13.5c-4.9,6.3-5.9,13.1-4.4,18A73.6,73.6,0,0,0,37,71.6L40.2,69A46.6,46.6,0,0,0,53,52.9a48.4,48.4,0,0,0,4.5-20.2V13.3A101.1,101.1,0,0,1,30.9,4.1Z"/>
      <path class="c" d="M27.9,5.2a24.4,24.4,0,0,0-8.3,14.4h0V20c0,.1-.1.4-.1.6C16,43.7,27.3,62.9,35.4,72.9l1.7-1.3A74,74,0,0,1,26.5,53.1c-1.5-4.9-.5-11.7,4.4-18a23.8,23.8,0,0,0,5.5-13.5A24.3,24.3,0,0,0,33.3,7.4a34.3,34.3,0,0,0-2.4-3.3l-.4-.2A21,21,0,0,1,27.9,5.2Z"/>
      <path class="d" d="M30.9,35.1c-4.9,6.3-5.9,13.1-4.4,18a66.5,66.5,0,0,0,2.7,6.1c-.2-3.7,3.9-7.7,3.9-7.7A24,24,0,0,0,40,38.6,24.5,24.5,0,0,0,38.2,24a25.6,25.6,0,0,1-4.4,6.8,29.5,29.5,0,0,1-2.9,4.3Z"/>
      <path class="e" d="M36.3,47.7A39,39,0,0,1,33,51.5h0s-4,4-3.8,7.7c-.5-.9-.9-1.9-1.4-2.9a63.1,63.1,0,0,0,3.8,7.3,23,23,0,0,0,5.8-8.5A25.1,25.1,0,0,0,39.2,45l-2.9,2.7Z"/>
      <path class="f" d="M27.8,56.1c-.5-1-.9-2-1.3-3C26.9,54.1,27.3,55.1,27.8,56.1Z"/>
      <path class="g" d="M25.9,52.3C21.5,37.9,19.7,22,28.4,8.5c0,0,6.4,6.9,4.2,15.5C28.7,37.7,22.6,39.2,25.9,52.3Z"/>
    </g>
    <path class="a" d="M100.6,55.9a1.3,1.3,0,0,1-.2.8c-.1.2-.4.2-.7.2H80.1a5.7,5.7,0,0,1-3.4-.9c-.7-.6-1.1-1.9-1.1-3.7a8,8,0,0,1,1.2-4A22.8,22.8,0,0,1,80.3,44a34.7,34.7,0,0,1,4.3-3.5,43.7,43.7,0,0,1,3.8-2.6l2.4-1.6a9.2,9.2,0,0,0,1.4-1.4,4.2,4.2,0,0,0,.8-1.2,5.9,5.9,0,0,0,.2-1.3,2.7,2.7,0,0,0-.3-1.2,2.1,2.1,0,0,0-.8-1.1,3.5,3.5,0,0,0-1.5-.7,7.1,7.1,0,0,0-2.3-.3,13.1,13.1,0,0,0-3.8.6,16.6,16.6,0,0,0-4,2l-.7.2a.8.8,0,0,1-.7-.4L76.8,28a.9.9,0,0,1,.2-1.3,20.1,20.1,0,0,1,11.9-4,17.8,17.8,0,0,1,4.7.6,10.6,10.6,0,0,1,3.7,1.8A7.1,7.1,0,0,1,99.8,28a8.6,8.6,0,0,1,.9,4.1,9.7,9.7,0,0,1-.6,3.4,9.1,9.1,0,0,1-1.7,2.8,14.7,14.7,0,0,1-2.6,2.3,29.6,29.6,0,0,1-3.2,2.1A19.2,19.2,0,0,0,90,44.4l-2.5,1.9a22.9,22.9,0,0,0-2.1,2.3A7.5,7.5,0,0,0,83.9,51h16.5a1.4,1.4,0,0,1,.2.9Zm12.3-30.6a5.3,5.3,0,0,1,.8-2.6,3,3,0,0,1,2.4-.8h18a3,3,0,0,1,2.5.9,3.4,3.4,0,0,1,.7,2.5V56a1.5,1.5,0,0,1-.2.8h-7.2a1.5,1.5,0,0,1-.2-.8V28.5h-9.8l-.2,3.5c-.2,3.7-.5,7-.8,9.9a32.3,32.3,0,0,1-1.4,7.5,14.2,14.2,0,0,1-3.2,5.3,13,13,0,0,1-5.7,3.3h-1a1.4,1.4,0,0,1-.6-.7l-1.7-3.8a2.5,2.5,0,0,1-.1-.8,1.2,1.2,0,0,1,.7-.7,10.7,10.7,0,0,0,3.1-2.2,8.3,8.3,0,0,0,1.8-3.5,22.7,22.7,0,0,0,1-5.4c.3-2.2.5-4.9.7-8.1ZM155.7,30c3.9,0,6.8,1,8.8,3s2.9,4.7,2.9,8.3c0,1.8-.3,2.9-1,3.6a4,4,0,0,1-2.7.9H150.9a6.8,6.8,0,0,0,.5,2.7,4.3,4.3,0,0,0,1.3,1.7,5.1,5.1,0,0,0,1.8.9l2.4.2,2.9-.3,2.8-.9c.4-.2.7-.2.8-.1s.3.2.5.4l1.6,3.6a.9.9,0,0,1-.5,1.2,11.7,11.7,0,0,1-4.3,1.7,18.6,18.6,0,0,1-4.5.6c-4.4,0-7.6-1.1-9.7-3.3s-3.2-5.6-3.2-10.3a17.2,17.2,0,0,1,.9-5.8,11.8,11.8,0,0,1,2.5-4.4,10.5,10.5,0,0,1,3.9-2.7A11.9,11.9,0,0,1,155.7,30Zm.2,6a4.3,4.3,0,0,0-3.4,1.5,5.7,5.7,0,0,0-1.5,3.7h9.4a7.1,7.1,0,0,0-.3-2.1,4.6,4.6,0,0,0-.7-1.6,4.7,4.7,0,0,0-1.3-1.1A6.7,6.7,0,0,0,155.9,36ZM180,56.1a1,1,0,0,1-.2.7h-6.9a1,1,0,0,1-.2-.7V31.5a1,1,0,0,1,.2-.7h6.9a1,1,0,0,1,.2.7v8.7h2.3a4.8,4.8,0,0,0,2.4-.6,5.6,5.6,0,0,0,1.8-2.8l1.7-5.5c.1-.3.2-.5.4-.5h6q.6,0,.6.3a.4.4,0,0,1,0,.5l-1.8,6.6a10.2,10.2,0,0,1-1.3,2.8,4.7,4.7,0,0,1-2.3,1.8h0a7.5,7.5,0,0,1,1.8.7,3.8,3.8,0,0,1,1.1,1.1,2.9,2.9,0,0,1,.8,1.3,11.6,11.6,0,0,1,.6,1.5l2.5,8.6a.6.6,0,0,1,0,.6q0,.3-.6.3h-6.3c-.1,0-.2-.2-.3-.5L187,48.6a3.4,3.4,0,0,0-1.6-2.2,5,5,0,0,0-2.6-.6H180ZM213.6,51a10.6,10.6,0,0,0,3.1-.4,12.5,12.5,0,0,0,2.7-.8c.4-.1.7-.2.8-.1s.4.2.5.6l1.4,3.7a1.5,1.5,0,0,1,.2.8q0,.3-.6.6A12.5,12.5,0,0,1,217,57a24.8,24.8,0,0,1-4.5.5c-3.9,0-6.9-1.2-9-3.4s-3-5.7-3-10.2a20.3,20.3,0,0,1,.8-5.8,14.4,14.4,0,0,1,2.5-4.4,10.5,10.5,0,0,1,3.9-2.7,12.7,12.7,0,0,1,5.2-1,20.1,20.1,0,0,1,4.2.5,13.4,13.4,0,0,1,3.7,1.2c.5.2.7.4.7.6s.1.4-.1.8L220,37a1.7,1.7,0,0,1-.6.6,2.4,2.4,0,0,1-1-.2l-2.5-.6a9.9,9.9,0,0,0-2.4-.3,5.3,5.3,0,0,0-2.6.6,6.1,6.1,0,0,0-1.6,1.6,8.7,8.7,0,0,0-1,2.4,13.2,13.2,0,0,0,0,5.6,7.9,7.9,0,0,0,.9,2.3,5,5,0,0,0,1.7,1.5A6.8,6.8,0,0,0,213.6,51Z"/>
  </g>
</svg>
