<svg xmlns="http://www.w3.org/2000/svg" viewBox="0 0 34 37.2">
  <defs>
    <style>
      .a {
        fill: #e2574b;
      }

      .b {
        fill: #b53528;
      }

      .c {
        fill: #fff;
      }
    </style>
  </defs>
  <title>icon-pdf</title>
  <g>
    <polygon class="a" points="34 37.2 0 37.2 0 0 21.8 0 34 12.2 34 37.2"/>
    <polygon class="b" points="21.8 12.2 34 12.2 21.8 0 21.8 12.2"/>
    <g>
      <path class="c" d="M6.6,19.3l2-.2a2.9,2.9,0,0,1,2.1.7,1.8,1.8,0,0,1,.7,1.6,2.4,2.4,0,0,1-.6,1.7,3.4,3.4,0,0,1-2.3.8H7.6v3.1h-1Zm1,3.7h.9c1.2,0,1.9-.6,1.9-1.7s-.7-1.5-1.8-1.5h-1Z"/>
      <path class="c" d="M12.8,19.3l2.1-.2a4.4,4.4,0,0,1,3.1,1,3.5,3.5,0,0,1,1.1,2.8,4.2,4.2,0,0,1-1.1,3A4.8,4.8,0,0,1,14.6,27H12.8Zm1,6.8h1a3,3,0,0,0,3.3-3.3c0-1.8-1-3-3.2-3H13.8Z"/>
      <path class="c" d="M20.4,19.2h4.2V20H21.4v2.6h3v.8h-3v3.5h-1Z"/>
    </g>
  </g>
</svg>
