<svg xmlns="http://www.w3.org/2000/svg" viewBox="0 0 34.4 60"><defs><style>.a{fill:#1d1d1b;}</style></defs><path class="a" d="M4.4,0A4.4,4.4,0,0,1,7.6,1.3L33.1,26.9a4.2,4.2,0,0,1,0,6.2L7.6,58.7a4.5,4.5,0,0,1-6.3,0,4.5,4.5,0,0,1,0-6.3L23.7,30,1.3,7.6a4.5,4.5,0,0,1,0-6.3A4.3,4.3,0,0,1,4.4,0Z"/></svg><svg xmlns="http://www.w3.org/2000/svg" viewBox="0 0 34.4 60"><defs><style>.a{fill:#1d1d1b;}</style></defs><path class="a" d="M4.4,0A4.4,4.4,0,0,1,7.6,1.3L33.1,26.9a4.2,4.2,0,0,1,0,6.2L7.6,58.7a4.5,4.5,0,0,1-6.3,0,4.5,4.5,0,0,1,0-6.3L23.7,30,1.3,7.6a4.5,4.5,0,0,1,0-6.3A4.3,4.3,0,0,1,4.4,0Z"/></svg>