<svg xmlns="http://www.w3.org/2000/svg" viewBox="0 0 34.4 60"><defs><style>.a{fill:#1d1d1b;}</style></defs><path class="a" d="M30,0a4.2,4.2,0,0,0-3.1,1.3L1.3,26.9a4.4,4.4,0,0,0,0,6.2L26.9,58.7a4.4,4.4,0,0,0,6.2,0,4.3,4.3,0,0,0,0-6.3L10.7,30,33.1,7.6a4.3,4.3,0,0,0,0-6.3A4.2,4.2,0,0,0,30,0Z"/></svg><svg xmlns="http://www.w3.org/2000/svg" viewBox="0 0 34.4 60"><defs><style>.a{fill:#1d1d1b;}</style></defs><path class="a" d="M30,0a4.2,4.2,0,0,0-3.1,1.3L1.3,26.9a4.4,4.4,0,0,0,0,6.2L26.9,58.7a4.4,4.4,0,0,0,6.2,0,4.3,4.3,0,0,0,0-6.3L10.7,30,33.1,7.6a4.3,4.3,0,0,0,0-6.3A4.2,4.2,0,0,0,30,0Z"/></svg>