<svg xmlns="http://www.w3.org/2000/svg" viewBox="0 0 47.5 47.5"><defs><style>.a{fill:#467efa;}.b{fill:#fff;}</style></defs><circle class="a" cx="23.7" cy="23.7" r="23.7"/><path class="b" d="M17.8,26.6H18a119.4,119.4,0,0,1,8.3-9.1A39.2,39.2,0,0,1,30,14a17.8,17.8,0,0,1,2.7-2.1l1.6-.8,1.2-.3c.4.1.7.1.9.3a1.1,1.1,0,0,1,.5,1.3,2.1,2.1,0,0,1-.4.6l-.7.8-1.9,1.9a53,53,0,0,0-8.5,10.4,72.3,72.3,0,0,0-4.6,8.7c-.5,1.1-.9,2.2-1.4,3.2v.2a1.2,1.2,0,0,1-.7.5,1,1,0,0,1-.8-.4l-.2-.4-2.8-4.7A42.3,42.3,0,0,0,11.7,29,35.7,35.7,0,0,0,9,26.2H8.8a.9.9,0,0,1-.3-.7,1.8,1.8,0,0,1,1.4-1.6h1.2l2.4.6,3.8,1.8Z"/></svg><svg xmlns="http://www.w3.org/2000/svg" viewBox="0 0 47.5 47.5"><defs><style>.a{fill:#467efa;}.b{fill:#fff;}</style></defs><circle class="a" cx="23.7" cy="23.7" r="23.7"/><path class="b" d="M17.8,26.6H18a119.4,119.4,0,0,1,8.3-9.1A39.2,39.2,0,0,1,30,14a17.8,17.8,0,0,1,2.7-2.1l1.6-.8,1.2-.3c.4.1.7.1.9.3a1.1,1.1,0,0,1,.5,1.3,2.1,2.1,0,0,1-.4.6l-.7.8-1.9,1.9a53,53,0,0,0-8.5,10.4,72.3,72.3,0,0,0-4.6,8.7c-.5,1.1-.9,2.2-1.4,3.2v.2a1.2,1.2,0,0,1-.7.5,1,1,0,0,1-.8-.4l-.2-.4-2.8-4.7A42.3,42.3,0,0,0,11.7,29,35.7,35.7,0,0,0,9,26.2H8.8a.9.9,0,0,1-.3-.7,1.8,1.8,0,0,1,1.4-1.6h1.2l2.4.6,3.8,1.8Z"/></svg>