<svg xmlns="http://www.w3.org/2000/svg" viewBox="0 0 69.5 71.3"><defs><style>.a{fill:#fff;}</style></defs><path class="a" d="M18.8,26.3A6.9,6.9,0,0,1,5,26.3H0a11.9,11.9,0,0,0,23.8,0Z"/><path class="a" d="M64.5,26.9a6.9,6.9,0,0,1-13.8,0h-5a11.9,11.9,0,0,0,23.8,0Z"/><path class="a" d="M56.4,57.1a30.3,30.3,0,0,1-21.9,9.2,31.1,31.1,0,0,1-21.8-9L9.3,60.8a35.5,35.5,0,0,0,50.6-.2C58.8,59.4,57.6,58.3,56.4,57.1Z"/><path class="a" d="M59.9,10.6l-3.6,3.6A30.3,30.3,0,0,0,37.1,5.1V51.9H32V5.1a30.9,30.9,0,0,0-19.1,8.8L9.4,10.4A35.4,35.4,0,0,1,34.5,0,35.9,35.9,0,0,1,59.9,10.6Z"/></svg>