<svg xmlns="http://www.w3.org/2000/svg" viewBox="0 0 62.3 77.4"><defs><style>.a{fill:#467efa;}</style></defs><path class="a" d="M31.2,77.4h-.5C11.5,68.3,0,52.9,0,36V12.7a.9.9,0,0,1,.1-.5l.3-.4.4-.2h.4C13.4,12.7,22.9,9.1,30.3.4l.4-.3h.9l.4.3c7.3,8.5,16.8,12.2,29.1,11.2h.5c.1.1.3.1.4.3l.2.3a.9.9,0,0,1,.1.5V36c0,1.1,0,2.2-.1,3.3a36.8,36.8,0,0,1-1.7,8,21.9,21.9,0,0,1-1.2,3.3,47.8,47.8,0,0,1-4.4,8l-.8,1A58.2,58.2,0,0,1,31.6,77.3ZM2.2,13.9V36c0,15.9,10.8,30.4,29,39A55.4,55.4,0,0,0,52.3,58.3a3.6,3.6,0,0,0,.7-1,39.5,39.5,0,0,0,4.3-7.5c.4-1.1.8-2.1,1.1-3.2A37,37,0,0,0,60,39.1c.1-1,.1-2.1.1-3.1V13.9c-12,.7-21.5-2.9-28.9-11.1C23.6,11.1,14.1,14.7,2.2,13.9Z"/><path class="a" d="M54.4,40.3h-.1a1.2,1.2,0,0,1-.8-.4,2.4,2.4,0,0,1-.2-.8c.1-1.1.2-2.1.2-3.1a1.1,1.1,0,1,1,2.2,0h0c0,1.1-.1,2.2-.2,3.3a1,1,0,0,1-.4.7A.9.9,0,0,1,54.4,40.3Z"/><path class="a" d="M51,51.3h-.6c-.1-.1-.3-.2-.4-.4a1.3,1.3,0,0,1-.1-.6,1.1,1.1,0,0,1,.1-.5l1.5-3.2c0-.1.1-.2.2-.3l.3-.3h.9l.3.2c.2.1.2.3.3.4a.6.6,0,0,1,.1.4c0,.2,0,.3-.1.4A34.9,34.9,0,0,1,52,50.7l-.4.5Z"/><path class="a" d="M31.2,70l-.5-.2C15.6,61.9,6.6,49.3,6.6,36V19.5a1,1,0,0,1,1.1-1.1A37.1,37.1,0,0,0,30.4,9.6a1.1,1.1,0,0,1,.8-.3,1.1,1.1,0,0,1,.7.3,37.9,37.9,0,0,0,22.8,8.7,1.1,1.1,0,0,1,.7.3,1.1,1.1,0,0,1,.3.8v8.8a1.1,1.1,0,0,1-.3.8,1,1,0,0,1-1.6,0,1.1,1.1,0,0,1-.3-.8V20.4a40.1,40.1,0,0,1-22.3-8.5A39.8,39.8,0,0,1,8.8,20.5V36c0,12.5,8.2,24,22.4,31.6A52.4,52.4,0,0,0,44.7,57.2l.3-.3h.9l.4.2a.5.5,0,0,1,.2.4c.1.1.1.2.1.4v.4l-.3.4A51.4,51.4,0,0,1,31.7,69.8Z"/></svg><svg xmlns="http://www.w3.org/2000/svg" viewBox="0 0 62.3 77.4"><defs><style>.a{fill:#467efa;}</style></defs><path class="a" d="M31.2,77.4h-.5C11.5,68.3,0,52.9,0,36V12.7a.9.9,0,0,1,.1-.5l.3-.4.4-.2h.4C13.4,12.7,22.9,9.1,30.3.4l.4-.3h.9l.4.3c7.3,8.5,16.8,12.2,29.1,11.2h.5c.1.1.3.1.4.3l.2.3a.9.9,0,0,1,.1.5V36c0,1.1,0,2.2-.1,3.3a36.8,36.8,0,0,1-1.7,8,21.9,21.9,0,0,1-1.2,3.3,47.8,47.8,0,0,1-4.4,8l-.8,1A58.2,58.2,0,0,1,31.6,77.3ZM2.2,13.9V36c0,15.9,10.8,30.4,29,39A55.4,55.4,0,0,0,52.3,58.3a3.6,3.6,0,0,0,.7-1,39.5,39.5,0,0,0,4.3-7.5c.4-1.1.8-2.1,1.1-3.2A37,37,0,0,0,60,39.1c.1-1,.1-2.1.1-3.1V13.9c-12,.7-21.5-2.9-28.9-11.1C23.6,11.1,14.1,14.7,2.2,13.9Z"/><path class="a" d="M54.4,40.3h-.1a1.2,1.2,0,0,1-.8-.4,2.4,2.4,0,0,1-.2-.8c.1-1.1.2-2.1.2-3.1a1.1,1.1,0,1,1,2.2,0h0c0,1.1-.1,2.2-.2,3.3a1,1,0,0,1-.4.7A.9.9,0,0,1,54.4,40.3Z"/><path class="a" d="M51,51.3h-.6c-.1-.1-.3-.2-.4-.4a1.3,1.3,0,0,1-.1-.6,1.1,1.1,0,0,1,.1-.5l1.5-3.2c0-.1.1-.2.2-.3l.3-.3h.9l.3.2c.2.1.2.3.3.4a.6.6,0,0,1,.1.4c0,.2,0,.3-.1.4A34.9,34.9,0,0,1,52,50.7l-.4.5Z"/><path class="a" d="M31.2,70l-.5-.2C15.6,61.9,6.6,49.3,6.6,36V19.5a1,1,0,0,1,1.1-1.1A37.1,37.1,0,0,0,30.4,9.6a1.1,1.1,0,0,1,.8-.3,1.1,1.1,0,0,1,.7.3,37.9,37.9,0,0,0,22.8,8.7,1.1,1.1,0,0,1,.7.3,1.1,1.1,0,0,1,.3.8v8.8a1.1,1.1,0,0,1-.3.8,1,1,0,0,1-1.6,0,1.1,1.1,0,0,1-.3-.8V20.4a40.1,40.1,0,0,1-22.3-8.5A39.8,39.8,0,0,1,8.8,20.5V36c0,12.5,8.2,24,22.4,31.6A52.4,52.4,0,0,0,44.7,57.2l.3-.3h.9l.4.2a.5.5,0,0,1,.2.4c.1.1.1.2.1.4v.4l-.3.4A51.4,51.4,0,0,1,31.7,69.8Z"/></svg>