<svg xmlns="http://www.w3.org/2000/svg" viewBox="0 0 18 18.14"><defs><style>.cls-1{fill:#fd8338;}</style></defs><g id="Слой_2" data-name="Слой 2"><g id="Слой_1-2" data-name="Слой 1"><path class="cls-1" d="M0,18.14l.27-.79L1.56,13.5a.19.19,0,0,0,0-.18,8.89,8.89,0,0,1-.06-8.86A8.72,8.72,0,0,1,4.94,1.08,8.58,8.58,0,0,1,7.62.13,9.24,9.24,0,0,1,10.14.05a8.86,8.86,0,0,1,7.19,5.41A8.46,8.46,0,0,1,18,7.93a8.82,8.82,0,0,1-.4,3.71A8.69,8.69,0,0,1,16,14.42a8.86,8.86,0,0,1-2.79,2.27,8.67,8.67,0,0,1-2.76.89A8.79,8.79,0,0,1,5,16.64a.28.28,0,0,0-.25,0L.1,18.12ZM2.21,16l.12,0L5,15.09a.24.24,0,0,1,.22,0,7.34,7.34,0,0,0,6,.9,7.46,7.46,0,0,0,5.4-6.2,7.44,7.44,0,0,0-2.27-6.37,7.28,7.28,0,0,0-4.37-2,7,7,0,0,0-2.76.24A7.36,7.36,0,0,0,2.33,5.91a7.18,7.18,0,0,0-.53,4,7.3,7.3,0,0,0,1.29,3.23.15.15,0,0,1,0,.16l-.56,1.65Z"/><path class="cls-1" d="M4.86,6.86a2.33,2.33,0,0,1,.77-1.8,1,1,0,0,1,.66-.25h.4A.38.38,0,0,1,7,5c.09.2.17.41.26.61.16.39.32.78.49,1.17a.46.46,0,0,1,0,.49l-.49.57c-.19.22-.2.31-.05.56a5.93,5.93,0,0,0,2.34,2.24,5.86,5.86,0,0,0,.57.26.47.47,0,0,0,.58-.15c.17-.21.32-.43.48-.64a.45.45,0,0,1,.67-.19l1.64.79a.33.33,0,0,1,.2.34,1.87,1.87,0,0,1-.4,1.18,2.44,2.44,0,0,1-.94.6,2.25,2.25,0,0,1-1.47,0,9,9,0,0,1-2.29-1,8.43,8.43,0,0,1-1.77-1.49,10.61,10.61,0,0,1-1.49-2,3.17,3.17,0,0,1-.43-1.3.28.28,0,0,1,0-.09Z"/></g></g></svg>