<svg xmlns="http://www.w3.org/2000/svg" viewBox="0 0 42.47 51.68"><defs><style>.cls-1{fill:#fd8338;}</style></defs><g id="Слой_2" data-name="Слой 2"><g id="Слой_1-2" data-name="Слой 1"><g id="Page-1"><g id="passport"><g id="Group"><path id="Shape" class="cls-1" d="M37.86,0H4.6A4.59,4.59,0,0,0,0,4.6V47.07a4.59,4.59,0,0,0,4.6,4.61H37.86a4.59,4.59,0,0,0,4.61-4.61V4.6A4.59,4.59,0,0,0,37.86,0Zm2.75,47.07a2.72,2.72,0,0,1-2.75,2.75H4.6a2.73,2.73,0,0,1-2.75-2.75V4.6A2.74,2.74,0,0,1,4.6,1.85H37.86A2.73,2.73,0,0,1,40.61,4.6Z"/><path id="Shape-2" data-name="Shape" class="cls-1" d="M21.23,7.36A12.92,12.92,0,1,0,34.15,20.27,13,13,0,0,0,21.23,7.36ZM31.28,24.94H28.14a20.93,20.93,0,0,0,.45-3.71h3.64A9.39,9.39,0,0,1,31.28,24.94ZM11.19,15.67h3.14a21,21,0,0,0-.45,3.71H10.23A9.31,9.31,0,0,1,11.19,15.67Zm6.33-1.86h-.76c.83-2.3,2.11-4,3.51-4.47v10h-4.6a22.73,22.73,0,0,1,.51-3.71h1.34a.9.9,0,0,0,0-1.8Zm8.19,0H22.19V9.34C23.6,9.91,24.88,11.51,25.71,13.81ZM10.17,21.23h3.64a24,24,0,0,0,.45,3.71H11.13A12.3,12.3,0,0,1,10.17,21.23Zm5.56,0h4.61v3.71H16.25A17.66,17.66,0,0,1,15.73,21.23Zm4.61,5.5v4.48c-1.41-.51-2.69-2.17-3.52-4.48Zm1.79,4.48V26.73h3.52C24.88,29,23.6,30.7,22.13,31.21Zm0-6.27V15.67h4.09a20.89,20.89,0,0,1,.51,3.71H24.94a.87.87,0,0,0-.89.89.92.92,0,0,0,.89,1H26.8a23.87,23.87,0,0,1-.51,3.71Zm6.46-5.56a21.77,21.77,0,0,0-.45-3.71h3.14a11.58,11.58,0,0,1,.95,3.71Zm1.66-5.57H27.69A14.32,14.32,0,0,0,26,10.23,12.84,12.84,0,0,1,30.25,13.81ZM16.5,10.3a12.56,12.56,0,0,0-1.73,3.58H12.22A11.38,11.38,0,0,1,16.5,10.3ZM12.22,26.73h2.55a14.59,14.59,0,0,0,1.73,3.59A12.2,12.2,0,0,1,12.22,26.73ZM26,30.32a12.36,12.36,0,0,0,1.72-3.59h2.56A12.2,12.2,0,0,1,26,30.32Z"/><path id="Shape-3" data-name="Shape" class="cls-1" d="M33,37.86H9.21a.9.9,0,1,0,0,1.79H33a.9.9,0,1,0,0-1.79Z"/><path id="Shape-4" data-name="Shape" class="cls-1" d="M17.65,41.51H12.92a.9.9,0,1,0,0,1.79h4.73a.88.88,0,0,0,.9-.9A.92.92,0,0,0,17.65,41.51Z"/><path id="Shape-5" data-name="Shape" class="cls-1" d="M29.55,41.51H21.23a.9.9,0,0,0,0,1.79h8.32a.87.87,0,0,0,.89-.9A.91.91,0,0,0,29.55,41.51Z"/></g></g></g></g></g></svg>