<?xml version="1.0" encoding="UTF-8"?>
<svg id="b" data-name="Слой 2" xmlns="http://www.w3.org/2000/svg" viewBox="0 0 500 500">
  <defs>
    <style>
      .d {
        fill: #b81900;
      }
    </style>
  </defs>
  <g id="c" data-name="Слой 1">
    <g>
      <path class="d" d="M250,0C111.93,0,0,111.93,0,250s111.93,250,250,250,250-111.93,250-250S388.07,0,250,0Zm120.28,260.25c-5.27,12.04-12.17,21.54-20.69,28.53-8.53,6.99-18.13,11.83-28.8,14.52-10.68,2.7-21.42,4.05-32.24,4.05h-33.07v119.38h-73.83V121.01h106.9c10.54,0,21.14,1.18,31.82,3.54,10.67,2.36,20.28,6.97,28.8,13.83,8.53,6.86,15.49,16.33,20.9,28.39s8.11,27.87,8.11,47.42-2.64,34.03-7.9,46.07Z"/>
      <path class="d" d="M293.95,183.3c-3.33-2.7-7.25-4.61-11.75-5.72-4.51-1.11-9.46-1.66-14.87-1.66h-11.85v76.53h13.1c4.58,0,8.98-.62,13.21-1.87,4.23-1.25,8.07-3.36,11.54-6.34,3.46-2.98,6.17-6.97,8.11-11.96,1.94-4.99,2.91-11.3,2.91-18.93s-.9-13.86-2.7-18.72c-1.81-4.85-4.37-8.63-7.69-11.33Z"/>
    </g>
  </g>
</svg>