<svg xmlns="http://www.w3.org/2000/svg" xmlns:xlink="http://www.w3.org/1999/xlink" viewBox="0 0 369.2 81">
  <defs>
    <style>
      .a {
        fill: url(#a);
      }

      .b {
        fill: url(#b);
      }

      .c {
        fill: url(#c);
      }

      .d {
        fill: #fff;
      }
    </style>
    <linearGradient id="a" x1="34.31" y1="5.37" x2="34.31" y2="81.02" gradientUnits="userSpaceOnUse">
      <stop offset="0.15" stop-color="#4265af"/>
      <stop offset="1" stop-color="#0ca6df"/>
    </linearGradient>
    <linearGradient id="b" x1="43.48" x2="43.48" y2="75.67" gradientUnits="userSpaceOnUse">
      <stop offset="0" stop-color="#762a86"/>
      <stop offset="0.36" stop-color="#742c88"/>
      <stop offset="0.56" stop-color="#6d348d"/>
      <stop offset="0.71" stop-color="#614297"/>
      <stop offset="0.85" stop-color="#5055a4"/>
      <stop offset="0.93" stop-color="#4265af"/>
    </linearGradient>
    <linearGradient id="c" x1="38.89" y1="5.37" x2="38.89" y2="75.67" gradientUnits="userSpaceOnUse">
      <stop offset="0.15" stop-color="#2d0940"/>
      <stop offset="1" stop-color="#2569b3"/>
    </linearGradient>
  </defs>
  <title>logo</title>
  <g>
    <g>
      <path class="a" d="M6.6,19.3,27.7,7.1a13.5,13.5,0,0,1,13.2,0L62,19.3a13.2,13.2,0,0,1,6.6,11.4v25A13,13,0,0,1,62,67L40.9,79.2a13,13,0,0,1-13.2.1L6.6,67.1A13.2,13.2,0,0,1,0,55.7v-25A13.2,13.2,0,0,1,6.6,19.3Z"/>
      <path class="b" d="M15.8,14,37,1.8a13.1,13.1,0,0,1,13.1-.1L71.2,13.9a13.2,13.2,0,0,1,6.6,11.4v25a13.1,13.1,0,0,1-6.6,11.4L50.1,73.9a13,13,0,0,1-13.2,0L15.8,61.7A13.1,13.1,0,0,1,9.2,50.3v-25A13,13,0,0,1,15.8,14Z"/>
      <path class="c" d="M62,19.3,40.9,7.1a13.5,13.5,0,0,0-13.2,0L14.5,14.8A13.1,13.1,0,0,0,9.2,25.3v25a13.1,13.1,0,0,0,6.6,11.4L36.9,73.9a13,13,0,0,0,13.2,0l13.2-7.6a13.3,13.3,0,0,0,5.3-10.6v-25A13.2,13.2,0,0,0,62,19.3Z"/>
      <g>
        <path class="d" d="M59.6,45.1c0-13.8-11.2-19.2-21.8-19.2H28V59.4h4.1V44.5h.2l23,26.4,3-1.8-7.2-8.4A18,18,0,0,0,59.6,45.1ZM36.7,44l8.2-12.1H40.4L32.1,43.4V29.6h5.6c8.4,0,17.4,4.5,17.4,15.5a14.9,14.9,0,0,1-6.6,12.6L36.7,44Z"/>
        <path class="d" d="M38.4,60.8H24.6V15.9H56.1l-7.7-4.4H20.1V64.2H38.7a23.7,23.7,0,0,0,7-1l-2.7-3A24.2,24.2,0,0,1,38.4,60.8Z"/>
      </g>
      <rect class="d" x="94.8" y="11.7" width="1.4" height="59.14"/>
    </g>
    <path class="d" d="M120.4,36.4H118v-4h8.1l.6-4.1H112.6V50.8h7.9c5.1,0,8.8-2.3,8.8-7.4S126,36.4,120.4,36.4ZM120,47h-2V40.1h1.9c2.6,0,3.9,1.1,3.9,3.4S122.4,47,120,47Zm25.6-1.2V39.1c0-3.9-2.1-6.1-7.1-6.1a19.3,19.3,0,0,0-6.5,1.3l1.1,3.4a15.4,15.4,0,0,1,4.6-.9c2.1,0,2.9.6,2.9,2.6v.8h-1.8c-5.2,0-8.1,2-8.1,5.8s2.2,5.4,5.7,5.4a6,6,0,0,0,5.2-2.6c.7,1.7,2.1,2.3,4.1,2.5l1.1-3.3C146,47.7,145.6,47.2,145.6,45.8Zm-7.8,1.9a1.9,1.9,0,0,1-2-2.1c0-1.8,1.2-2.6,3.5-2.6h1.3v3.1A3.2,3.2,0,0,1,137.8,47.7Zm21.8,3.1h5.1V33.6h-5.1v6.6h-4.8V33.6h-5.1V50.8h5.1V44h4.8Zm24.6-17.2h-4.9l-3.7,6.7h-1.7V33.6h-5.2V50.8h5.2V43.4h1.5l3.8,7.4h5.4l-4.9-9.2Zm12.1-.6a6.4,6.4,0,0,0-5,2.5l-.2-1.9h-4.6V58.1l5.2-.6V49.6a5.4,5.4,0,0,0,4.2,1.8c4.2,0,6.8-3.9,6.8-9.2S200.7,33,196.3,33Zm-2,14.6a3,3,0,0,1-2.6-1.5V38.8a3.6,3.6,0,0,1,3-2c1.7,0,2.7,1.1,2.7,5.4S196.2,47.6,194.3,47.6ZM213.4,33c-5.3,0-8.4,3.7-8.4,9.2s3.2,9.2,8.4,9.2,8.5-3.6,8.5-9.2S218.7,33,213.4,33Zm0,3.8c2.1,0,3.1,1.6,3.1,5.4s-1,5.4-3.1,5.4-3.1-1.6-3.1-5.4S211.3,36.8,213.4,36.8Zm24.2-3.2H222.1v3.8h5.1V50.8h5.1V37.4H237Zm26.6-5.1H261l-5.6,9.3h-3.1V28.5h-3V50.8h3V40.4h3.1l5.8,10.4h3.6L258,39Zm10,4.8c-4.9,0-7.7,3.7-7.7,9s2.8,8.9,7.7,8.9,7.6-3.6,7.6-8.9S279.1,33.3,274.2,33.3Zm0,2.4c2.8,0,4.4,2.1,4.4,6.6s-1.6,6.5-4.4,6.5-4.4-2-4.4-6.5S271.4,35.7,274.2,35.7Zm22.7,15.1h3V33.7h-3v7.2h-7.1V33.7h-3V50.8h3V43.3h7.1Zm15.4-17.5c-4.7,0-7.5,3.7-7.5,9.1s2.8,8.8,7.5,8.8a8.2,8.2,0,0,0,5.2-1.8l-1.4-2a6.6,6.6,0,0,1-3.7,1.3c-2.7,0-4.4-1.8-4.4-6.3s1.7-6.6,4.4-6.6a5.8,5.8,0,0,1,3.7,1.3l1.4-1.9A7.8,7.8,0,0,0,312.3,33.3Zm20.5,13.6V39c0-3.6-1.9-5.7-6.1-5.7a16.3,16.3,0,0,0-5.9,1.2l.8,2.2a14.3,14.3,0,0,1,4.6-.9c2.4,0,3.6.9,3.6,3.3v1.3h-2.7c-4.7,0-7.5,2-7.5,5.7s2,5.1,5.5,5.1a5.8,5.8,0,0,0,5.1-2.5c.5,1.7,1.6,2.3,3.3,2.5l.7-2A2.1,2.1,0,0,1,332.8,46.9ZM325.7,49c-1.9,0-2.9-1.1-2.9-3.1s1.6-3.5,4.7-3.5h2.3v3.9A4.5,4.5,0,0,1,325.7,49Zm14.7-15.3-.7,7.9c-.4,5.6-.6,6.5-2.7,7.3l.8,2.3c3.7-1.1,4.3-2.8,4.9-9.3l.5-5.7h5.3V50.8h2.9V33.7Zm28.8,0H354.7v2.5h5.7V50.8h2.9V36.2h5.5Z"/>
  </g>
</svg>
