<svg xmlns="http://www.w3.org/2000/svg" viewBox="0 0 3239.2 569">
  <defs>
    <style>
      .a {
        fill: #fff;
      }
    </style>
  </defs>
  <g>
    <g>
      <path class="a" d="M1266.8,285.1c0,3.3-1,8.1-2.8,14.6-1.1,4.6-2,8.6-2.6,12.3q-3.3,24.3-3.3,66.6c0,7.9.6,21.7,1.9,41.3,1.4,17.2,2.2,30.8,2.2,40.9,0,47.5-2.2,75.5-6.5,83.8-5.9,10.8-12.7,16.1-20.1,16.1a14.4,14.4,0,0,1-12.4-6.3c-3-4.2-4.5-9.4-4.5-15.5,0-.4.1-1.2.2-2.6s.2-2.2.2-2.5q1.4-22.2,2.9-77.8c-8.3,5-25.1,7.5-50.3,7.5-7.7,0-19.6-.5-35.7-1.6-1.3,6.7-1.9,21.4-1.9,44,0,5,1.5,11.2,4.4,18.7s5,13,5,16.7c0,5.9-2.6,11-7.7,15.4a25.5,25.5,0,0,1-17.1,6.6c-17.8,0-26.8-12-26.8-35.9q0-58,3.9-91.8,2-19.4,2.6-62.3a628.6,628.6,0,0,1,3.8-64.6c.3-1.2.4-4.9.4-11s.5-10.9,1.6-14.4a16.1,16.1,0,0,1,6.3-8.5c5.1-3.4,10.1-5.2,15-5.2,7.1,0,13,3.7,17.6,10.9s6.8,14.3,6.8,21.8a34.9,34.9,0,0,1-1.5,9c-1.1,3.5-2.5,7.5-4.3,12s-2.8,7.4-3.2,8.7c-2.5,8-3.8,23.4-3.8,46.2,0,3.5-.2,7.1-.4,10.9-.4,9.4.1,17.3,1.5,23.6,5.7,2.6,13.8,3.9,24.4,3.9s28.5-2.1,55.5-6.1c1.1-11.6,1.7-17.8,1.7-18.5,0-5.6-.6-13.6-1.7-24s-1.1-18.9-1.1-24.1.7-17.3,2.1-33c1.4-12.9,3.4-21.4,5.8-25.5a52.1,52.1,0,0,1,12.3-12.5c4.9-3.7,9.4-5.5,13.4-5.5a15,15,0,0,1,11.4,5.3A17.7,17.7,0,0,1,1266.8,285.1Z"/>
      <path class="a" d="M1543.1,428.5q0,65.8-35.8,102.1t-101.2,36.2a80.7,80.7,0,0,1-26.1-4.1,67.1,67.1,0,0,1-20.6-11.3,83.8,83.8,0,0,1-15.7-17.2,102.6,102.6,0,0,1-11.4-21.1,161.7,161.7,0,0,1-7.2-23.8,209.1,209.1,0,0,1-4-24.8c-.7-8-1.1-16.1-1.1-24.3,0-15.3,2.7-32.6,7.9-52.2a314.4,314.4,0,0,1,21.7-57.1q14.3-28,36.1-46.6c14.7-12.8,30.4-19.2,47.3-19.2a81.9,81.9,0,0,1,41.3,10.8,99.1,99.1,0,0,1,31.3,28,189.6,189.6,0,0,1,21.1,39.2,218.6,218.6,0,0,1,12.5,43.6A234.9,234.9,0,0,1,1543.1,428.5Zm-47.7-20.2c0-11-3.3-25.9-9.7-44.7s-13.2-33.5-20-43.7c-5.7-8.2-13.5-12.3-23.7-12.3a18.2,18.2,0,0,0-8.2,1.5c-20.5,9.2-36.7,27.6-48.8,55.2s-17.6,54.5-17.6,79.6a141.1,141.1,0,0,0,7.1,43.7c5,15.1,11.7,26.7,20.2,34.8,3.9,3.6,9.4,5.3,16.5,5.3s18-2,29-6,20.8-9,25.5-13.2Q1495.4,481.7,1495.4,408.3Z"/>
      <path class="a" d="M1785.8,293.7c0,11-5.9,17.6-17.8,19.8-7.9,1.6-18.3,2.7-31.1,3.5a129.8,129.8,0,0,0-34.5,5.3q-5.4,14.4-5.4,43.5c0,14.8,1,37.2,2.8,67.3s2.9,54,2.9,67.1q0,64.2-27.8,64.2c-5.5,0-9.9-2.6-13.2-7.9a33.6,33.6,0,0,1-4.8-18c0-6.1.5-13.6,1.4-22.5a210.6,210.6,0,0,0,1.5-22.9c0-6-.4-14.8-1.1-26.3-.5-15.4-.7-24.1-.7-26.2q0-20.7.3-36.9c.5-21.5.8-33.8.8-36.8q0-32.8-7.2-45.9a42,42,0,0,0-6.9-.4c-5.3,0-12.9.4-23,1.1-11.7.9-19.2,1.3-22.5,1.3q-27.9,0-27.9-16.5a18.5,18.5,0,0,1,.7-5.7c3.3-7.4,7.8-13,13.6-16.8s13.3-6.1,22.6-7.2a152.4,152.4,0,0,1,15.4-1.1,115.6,115.6,0,0,1,16.8,0c4.8.2,9.5.4,14,.4,14.4,0,26.5-.2,36.3-.4s22.1-.4,36.9-.4a205.1,205.1,0,0,0,34.6-2.7,16.9,16.9,0,0,1,4.8-.4,16.7,16.7,0,0,1,13.5,6.2A24,24,0,0,1,1785.8,293.7Z"/>
      <path class="a" d="M1993.7,308c0,6.5-2.8,12.1-8.5,17s-12,7.4-19,7.4c-4.9,0-12.5-4.3-22.9-12.9s-18.8-12.6-26.6-12.6c-10,0-18.2,2.2-24.6,6.7s-9.5,11-9.5,19.5,3.6,15.4,10.8,25.1a213.7,213.7,0,0,0,24,27.2c4.1,3.5,13.6,12.3,28.6,26.2,9.7,8.9,16.5,16.3,20.6,22.2q9.5,13.2,13.2,19.5a102.3,102.3,0,0,1,9,20.4,74.8,74.8,0,0,1,3.8,22.5c0,10.2-4.1,22.2-12.4,35.9s-16.6,22.4-26.3,26.8-20.8,6.8-33.9,6.8q-26.4,0-56.7-11.4t-43.8-30.8c-8.3-10.9-12.5-20.6-12.5-29.2a21.4,21.4,0,0,1,5.2-13.8c3.5-4.3,7.5-6.5,12-6.5q10.6,0,20.4,14.7,19.8,31.1,72.5,31.1a31.3,31.3,0,0,0,20-6.8c5.7-4.5,8.6-10.1,8.6-16.8q0-27.6-38.4-57.6c-16.6-13.7-27.2-22.6-31.9-26.6a127,127,0,0,1-27.7-35.8,90.9,90.9,0,0,1-10.6-42.7c0-17.1,8.4-34.1,25.1-50.8s33.9-25.5,50.8-25.5c12.3,0,25.6,3,40.2,9s24.8,12.7,31.5,21.8S1993.7,303.2,1993.7,308Z"/>
      <path class="a" d="M2220.5,293.7c0,11-5.9,17.6-17.8,19.8-7.9,1.6-18.3,2.7-31.1,3.5a129.8,129.8,0,0,0-34.5,5.3q-5.4,14.4-5.4,43.5c0,14.8,1,37.2,2.8,67.3s2.9,54,2.9,67.1q0,64.2-27.8,64.2c-5.5,0-9.9-2.6-13.2-7.9a33.6,33.6,0,0,1-4.8-18c0-6.1.5-13.6,1.4-22.5a210.6,210.6,0,0,0,1.5-22.9c0-6-.4-14.8-1.1-26.3-.5-15.4-.7-24.1-.7-26.2q0-20.7.3-36.9c.5-21.5.8-33.8.8-36.8q0-32.8-7.2-45.9a42,42,0,0,0-6.9-.4c-5.3,0-12.9.4-23,1.1-11.7.9-19.2,1.3-22.5,1.3q-27.9,0-27.9-16.5a18.5,18.5,0,0,1,.7-5.7c3.3-7.4,7.8-13,13.6-16.8s13.3-6.1,22.6-7.2a152.4,152.4,0,0,1,15.4-1.1,115.6,115.6,0,0,1,16.8,0c4.8.2,9.5.4,14,.4,14.4,0,26.5-.2,36.3-.4s22.1-.4,36.9-.4a205.1,205.1,0,0,0,34.6-2.7,16.9,16.9,0,0,1,4.8-.4,16.7,16.7,0,0,1,13.5,6.2A24,24,0,0,1,2220.5,293.7Z"/>
      <path class="a" d="M2482.5,540.7a18.8,18.8,0,0,1-5.1,13.4,16.7,16.7,0,0,1-12.8,5.5h-8.3c-6.1,0-13.6-4.6-22.6-13.9-7.3-7.6-16.1-17.9-26.4-30.8a159.3,159.3,0,0,0-29.5-30.8c-11.7-9.6-22.6-14.3-32.5-14.3h-7.8c-7.9,0-13.6,1.6-17.3,4.9V478c0,1.8.3,8.5.7,20,.8,8.7,1.1,15.4,1.1,20q0,45.3-28,45.3c-5.4,0-9.6-2.6-12.5-7.9a38,38,0,0,1-4.4-18.7c0-8.7,1.1-20.7,3.3-36.1s4.3-27,4.6-31.2q3.3-41.2,3.3-139.2a92.7,92.7,0,0,0-9-12.5c-3.3-6.7-3.4-13-.4-18.7s6.9-9.1,11.6-11.4l7.5-4a108.8,108.8,0,0,1,15.1-6.4c23.7-9.6,46.4-14.3,68-14.3,40.7,0,66.5,12.2,77.4,36.8a116.9,116.9,0,0,1,10.1,48.4q0,29.5-20.2,54.2a152,152,0,0,1-49.7,39l14,16.9c2.2,2.7,7.3,8.7,15.4,18l10.8,11c7.8,7.8,12.2,12.3,13.2,13.4a87.2,87.2,0,0,0,12.1,11l6.8,5.4a23,23,0,0,0,3.7,2.8C2479.9,524.4,2482.5,531.3,2482.5,540.7Zm-57.4-196.4c0-16-4.9-26-14.6-29.9a45.5,45.5,0,0,0-13.9-4.1,168.5,168.5,0,0,0-20.4-.9,66.7,66.7,0,0,0-36,10.1q-15,26.8-15,69.6a201.6,201.6,0,0,0,1.4,22.1,136.1,136.1,0,0,0,20.4,1.9q26.7,0,52.1-21.5T2425.1,344.3Z"/>
      <path class="a" d="M2687.3,290.6c0,4.7-2.2,9.4-6.8,13.9s-8.9,5.8-15.7,7.9-16.4,4.3-28.6,6.8l-18.4,3.1-18.2,2.2c-6.7,1-10.8,1.5-12.2,1.5-5.1,9.4-7.6,24-7.6,44a164.3,164.3,0,0,0,1.5,24.7q5.8-2.6,33-4.2c20-1.2,33.8-1.8,41.5-1.8,18.7,0,28,4,28,12.1s-1.7,13-5.1,16.9-8.6,7-15.4,9.3-10.4,2.5-11.7,2.6-6.9.5-13.2,1.2l-10.9,1.2-52.2,10.8a13.6,13.6,0,0,0,.1,1.5,5.8,5.8,0,0,1,.2,1.4c0,5.3-.6,14.3-1.8,27.2s-1.8,21.7-1.8,26.6.1,8.6.3,10.1c3.9,2.3,9.1,3.4,15.4,3.4s15.4-1.1,29-3.4,22.9-3.3,29.2-3.3a46.2,46.2,0,0,1,25.3,7.1c7.9,4.7,11.9,11.1,11.9,19.5,0,6.2-4,11-11.9,14.3a68.8,68.8,0,0,1-22.9,5.3q-37.5,2.3-77.1,15a22.8,22.8,0,0,1-9,1.5c-11.2,0-18.7-5.1-22.5-15.4-4.8-12.7-7.2-32.7-7.2-59.8,0-10.3,1-28.3,3-53.9,2-27.3,3.1-45.3,3.1-54.1,0-11.3.7-28.4,2.2-51.2s3.3-36.4,5.7-41.3,6.3-9,11.9-12.8,11-5.7,16.1-5.7,8.9,2,11.4,6a168.5,168.5,0,0,0,17.2-4.7c15.3-5.3,28.3-7.9,39.1-7.9a78.2,78.2,0,0,1,29.4,5.8C2682.1,277.7,2687.3,283.2,2687.3,290.6Z"/>
      <path class="a" d="M2913.6,536.7c0,8.6-1.3,14.8-4,18.6s-7.5,5.8-14.7,5.8-11.8-4.2-15.1-12.5a173.8,173.8,0,0,1-8.2-30.2c-1.7-11.2-4.3-19-7.6-23.7-24.8,2-37.9,2.9-39.4,2.9-4.8,0-13.4.7-25.9,1.9l-21,2.2a74.9,74.9,0,0,0-5,21.1c0,5.5-.2,12.5-.7,21.1a34.9,34.9,0,0,1-2.3,9.8c-1.3,3.2-3.1,5.5-5.3,6.7a15.3,15.3,0,0,1-3.2,1.4,13.9,13.9,0,0,0-3.2,1.5c-6,2.3-9.7,3.5-11.2,3.5-9.7,0-14.6-3.8-14.6-11.4q0-47.5,22.2-114.1c8.8-26.6,13.9-43,15.4-48.9a360.6,360.6,0,0,1,10.1-37.5c1.5-5.1,4.9-17.4,10-36.8,4.6-17.8,8.7-31.3,12.5-40.6s10.5-13.2,20-13.2,15.3,4.7,21.3,14,10.3,20.6,15.8,38.3q6.6,19.9,16.5,60c5,19.7,8.8,34.1,11.3,43.3a22.8,22.8,0,0,1,1.4,3.9c.6,1.8,1.3,4.4,2.3,7.9s1.9,6.6,2.8,9.3c3.1,10.4,5.5,18.9,7.1,25.5,1.1,3.8,3.1,11.5,5.9,23.3C2911.3,506.5,2913.6,522.2,2913.6,536.7Zm-56.3-80.3-9.4-31.9a380.5,380.5,0,0,0-13-40.3,154.8,154.8,0,0,0-15.2-28.5l-4.1,10.1c-.3.9-1.8,4.5-4.2,10.8l-3.7,10.3-4.2,10.8-3.7,10.1c-.9,3.1-3.1,10.2-6.4,21.1-4,14.1-6.5,25-7.5,32.6,8.3-4.8,19.3-7.1,33-7.1,1.2,0,3.4,0,6.4.2l14.1.9Z"/>
      <path class="a" d="M3239.2,526.6c0,25.6-7.1,38.4-21.4,38.4-7.6,0-14.1-8.4-19.5-25a328.8,328.8,0,0,1-10.8-56.3,562.5,562.5,0,0,0-10.3-63.1c-4.1-21.3-9.3-35.2-15.4-41.6q-12.5,44.5-19,77l-1.1,5.5q-10.5,52.7-23,77a16.9,16.9,0,0,0-2.7,4.3q-7.4,12.3-19.8,12.3c-9.6,0-16.6-4.6-21.1-13.8q-4.9-9.1-12-35.4-4.3-19-7.5-29.7l-7.5-25.5c-9-33.2-16.6-53.3-22.6-60.5a874.4,874.4,0,0,0-22.9,112c-.4,1.9-.7,9.6-1.1,23.1s-1.6,21.4-3.8,27.9-10.2,11.2-23,11.2c-7.2,0-11.9-1.5-14.2-4.6s-3.4-8.8-3.4-17.4c0-11.4,2.2-27.6,6.4-48.6s7.2-33.6,7.6-37.4q2.6-18.6,9.3-47.4c5-21.8,8.3-38,9.7-48.6s3.8-24,7.9-39.4,8.2-28.2,11.8-35.9,11.3-12.5,21.1-12.5c8.3,0,15.2,5,20.9,15a89.4,89.4,0,0,1,11.7,30.1l4.8,28.2c1.4,8.4,3.6,19.5,6.4,33.4l6.1,29a502.4,502.4,0,0,0,15.7,59.3c2.1-1.4,5.6-12.4,10.5-33.1q5.9-24.9,14.7-66.5c5-22.3,9-37,12.1-44.2l5.1-14,6.8-17.2a78.8,78.8,0,0,1,13.9-23c5.7-6.2,12-9.1,19.1-8.6,2.1,0,3.4.1,3.9.4,8.5,1.6,13.6,8.2,15.4,19.8q.8,4.4,1.8,14.7c.5,4.9.7,10.5.7,16.8v11.8c.4,13.8,1.7,25.5,3.9,35.2l12.6,60.5q9.6,45.8,17.1,69.9A144.3,144.3,0,0,1,3239.2,526.6Z"/>
    </g>
    <path class="a" d="M707.1.3c-20.8,3.3-38.4,11.3-50.9,23.2s-17,21.9-18.6,39.1c-1.1,13.7,1.7,20.5,10.1,23.2,4.6,1.5,6.5,5.2,6.5,12.8s-1.2,10.9-9.2,19.1-7.6,8.6-1.1,14.8c4,3.7,4.3,5.4,1.8,7.5s-2,5.7,3,7.9,4.2,2.1,2.2,2.7a4.4,4.4,0,0,0-3,2.4c-.8,2,2.3,6.4,4.7,6.4.8,0,1.8,2,2.2,4.9.9,6.2,1.4,6.7,6.3,9.8s15.5,3.2,25,.7,16.3-2.2,18.4.2a35.2,35.2,0,0,1,3.8,7.8c1.6,4.8,1.7,6.7.5,13-.6,4.1-2.3,8.9-3.6,10.7-2.8,4-22.6,20-35.6,28.8-8.1,5.4-11,6.7-26.2,10.8-9.3,2.6-19.1,5.7-21.6,7.1-7.3,3.6-15.8,10.7-19.8,16.3s-3.8,5.1-8,4.4-5.5,0-8,6.3c-1.5,3.7-1.4,4,1.6,6.6s3,2.9,1.9,8.5c-6.1,28.4,10.1,52.5,38.5,56.8,9.9,1.6,10.3,1.8,10.3,5,0,1.4,1.3,4.5,2.9,6.8,2.7,4,2.8,5,2.8,19.4,0,17.1-1.5,22-7.7,27.3-8.8,7.5-18,7.1-30.9-1.1-23.3-14.9-77.2-45.9-90.4-51.9-21.5-9.8-82.4-33.8-109.1-42.9-12.7-4.4-25-8.7-27.2-9.7-8.9-3.8-9.7-3.4-29.2,15.4-22,21.3-46.4,46.9-78.7,82.6-13.5,15.1-30.5,33.7-37.7,41.2L198,482.1l-22.2,24H141.7c-18.8.2-38.7-.4-44.4-1.1-22.9-2.7-48.4-13.1-74-30.2-10.7-7.2-13-9.4-14.5-13.1-2.9-7.4-8.8-5.3-8.8,3.1,0,3.8,6.5,16.6,12.6,25,2.3,3.2,8.7,9,14,13,9.5,7,9.8,7.3,13.8,17,2.3,5.4,4.7,12.8,5.1,16.5s1.8,8,2.9,9.4c4,6.2,13.2,9.1,19.1,6.1,1.3-.7,5.1-4,8.4-7.3s7.4-6.5,10.2-7.3c15.9-4.6,38.4-6.3,54.2-4.2,6.6.9,6.6.9,4.6,3.2-3.7,3.9-24.4,18.1-33.1,22.3-4.5,2.3-8.3,4.7-8.3,5.5s1.1,2.2,2.3,3.3,4.2,1.9,21.3,1.5,20.1-.9,28-3.5c12-4.3,16.8-7.6,22.4-15.6s11.9-12.6,16.3-12.6a82.1,82.1,0,0,1,11.8,2.2c19.2,4.8,32.8,6.2,59.5,6.2s40.3-1.4,61.6-6.7c16.1-4.1,25.9-7.9,42-16.1l14.3-7.3,5,1.7c2.8.9,22.4,5.3,43.6,9.7s47.2,10.3,58,13c44,11.4,92,16.7,151.9,16.7,20.8,0,29.8-.5,36.3-1.9,35.1-7.1,59.5-36.5,59.5-71.3,0-12.5-2.7-23.1-10.1-39.9-8.8-19.4-10.8-28.2-10.7-46.1,0-13.6.2-15.8,3.6-25.7,4.2-12.6,10.4-23.6,18.1-32.1,3-3.4,9-10.8,13.3-16.4,15.8-20.9,24.9-31.6,28-33.2l3.2-1.6,17.4,25.5c9.4,13.9,25.3,35.8,34.9,48.7l17.6,23.4,4.3,13.6c4.2,13.2,7.4,19.6,22.6,45.1,21.9,36.8,44.4,76.7,45.9,81.6a112.4,112.4,0,0,1,3,11.4c3,14,3.2,14.3,8.9,16.9s25.7,3.4,36,.4c5.4-1.7,11.1-2.2,30.1-2.3,20.5-.1,23.5-.4,23.8-2s-.9-2.2-2.8-3c-4.5-1.8-30.6-6.1-42.9-7.1-27.7-2.4-41-18.3-58.1-69.2-4.6-13.8-9.7-28.2-11.5-32.4s-5.5-14.1-8.5-22.4c-5.7-15.9-7.8-19.4-21.5-36.9-4.5-5.9-9.4-13.1-10.7-16-3.2-7.4-10.2-23-24.1-53.6-12-26.1-18.1-44.5-15.7-46.9.6-.6,3.9,0,7.8,1.3,31.1,9.7,66.1,3.2,91.3-16.8,12.7-10.3,28.7-30.6,27.2-34.9-.2-.8-1.8.9-3.5,3.6-12.9,20.5-42.3,26.5-61.5,12.6l-4.3-3.2,4.3-1c2.5-.7,6.3-1.5,8.7-1.9,9.1-1.6,26.2-8.2,42.4-16.4s17.4-9,30.3-21.9,13.7-14.3,18.4-24c3-5.9,5.6-13.1,6-15.9l.8-5.2-7.7,8.4c-10.1,10.9-19.5,17.4-34.4,24s-21.9,9.4-21.9,8.8a96.5,96.5,0,0,1,6.8-7.4,61.3,61.3,0,0,0,15.8-55.1c-2.3-10.8-3.3-11.4-5.5-3.1-5.2,21.1-26,39.5-50.8,45-11.5,2.6-29.7,1.8-40.6-1.6-17.8-5.8-32.2-17.7-39.7-32.8-4.7-9.5-4.7-9.5-5.6-27.5-1-20.3-3.8-32.4-10.9-46.8C794,29.1,769.3,9.7,743.6,3.1,734.7.8,714.1-.7,707.1.3ZM387.6,377.6a70.1,70.1,0,0,1,7.8,5c1.9,1.3,26.9,16.6,55.7,34.1,55.9,33.8,69.2,42.2,73.5,46.9l2.8,3.1-9.1-.8-72.2-7.1L383,452.4l-5.7,2.4c-30.4,13.2-66,26-89.4,32.2s-60.7,14.7-64.3,14.7c-.8,0-2.4-1.4-3.4-3.1s-2-3.1.9-5.3c6.9-5.8,68.2-44.4,83.3-52.6a188,188,0,0,0,39.1-28.5c6.2-5.8,19.2-21.4,22.8-27.1Q375.2,370.4,387.6,377.6Z"/>
  </g>
</svg>
