<svg xmlns="http://www.w3.org/2000/svg" viewBox="0 0 3386.7 510.6">
  <defs>
    <style>
      .a {
        isolation: isolate;
      }

      .b {
        fill: #fff;
      }
    </style>
  </defs>
  <g>
    <g class="a">
      <path class="b" d="M1198.2,110.4c0,3.7-1,9.2-3.1,16.6-1.2,5.1-2.2,9.7-2.9,13.9q-3.7,27.4-3.7,75.4c0,9,.7,24.5,2.1,46.7,1.6,19.5,2.4,34.9,2.4,46.3q0,80.7-7.2,94.9c-6.8,12.1-14.4,18.2-22.9,18.2a16.4,16.4,0,0,1-14-7.1c-3.4-4.8-5.1-10.7-5.1-17.6,0-.4.1-1.4.2-2.9s.3-2.5.3-2.9c1.1-16.7,2.2-46.1,3.3-88q-14.1,8.6-56.9,8.5c-8.7,0-22.2-.6-40.5-1.9q-2.1,11.4-2.1,49.8c0,5.7,1.7,12.8,5,21.2s5.6,14.8,5.6,18.9c0,6.7-2.9,12.5-8.7,17.5a29.4,29.4,0,0,1-19.3,7.4c-20.2,0-30.3-13.5-30.3-40.7q0-65.6,4.3-103.8c1.6-14.6,2.5-38.2,2.9-70.6.5-27.4,1.9-51.7,4.4-73,.3-1.4.4-5.6.4-12.5s.6-12.4,1.9-16.3a18.8,18.8,0,0,1,7-9.7c5.9-3.8,11.5-5.8,17.1-5.8,8,0,14.6,4.1,19.9,12.3s7.7,16.2,7.7,24.7a37.2,37.2,0,0,1-1.8,10.2c-1.2,4-2.8,8.5-4.8,13.6s-3.2,8.3-3.6,9.8c-2.9,9-4.4,26.5-4.4,52.3,0,3.9-.1,8-.4,12.3-.4,10.7.2,19.6,1.7,26.8,6.5,2.9,15.7,4.3,27.6,4.3s32.3-2.2,62.9-6.8c1.3-13.2,1.9-20.2,1.9-21a263.3,263.3,0,0,0-1.9-27.2c-.8-12.3-1.2-21.4-1.2-27.2s.7-19.6,2.3-37.4q2.4-21.9,6.6-28.8a58.5,58.5,0,0,1,13.9-14.2c5.5-4.1,10.6-6.2,15.2-6.2a16.7,16.7,0,0,1,12.8,6A20,20,0,0,1,1198.2,110.4Z"/>
      <path class="b" d="M1505.5,272.7q0,74.6-40.5,115.6t-114.6,41a89.9,89.9,0,0,1-29.5-4.7,75.4,75.4,0,0,1-23.4-12.8,97.4,97.4,0,0,1-17.7-19.4,112.8,112.8,0,0,1-12.9-23.9,184.3,184.3,0,0,1-8.2-26.9,226.4,226.4,0,0,1-4.4-28.1c-.9-9-1.3-18.2-1.3-27.5q0-26,8.9-59a362.5,362.5,0,0,1,24.5-64.7c10.8-21.2,24.5-38.8,40.9-52.8s34.5-21.8,53.6-21.8a91.8,91.8,0,0,1,46.7,12.3,109.3,109.3,0,0,1,35.4,31.8,203,203,0,0,1,23.9,44.3,251.2,251.2,0,0,1,14.2,49.3A270.4,270.4,0,0,1,1505.5,272.7Zm-54-22.8q0-18.7-11-50.7c-7.3-21.4-14.9-37.9-22.6-49.4-6.4-9.3-15.3-13.9-26.8-13.9a21.6,21.6,0,0,0-9.4,1.7q-34.7,15.6-55.2,62.5t-19.9,90.1a160.6,160.6,0,0,0,8.1,49.4c5.6,17.1,13.3,30.3,22.8,39.4,4.4,4,10.7,6.1,18.7,6.1s20.3-2.3,32.8-6.9c14-5.1,23.6-10.1,28.9-14.9C1440.3,343,1451.5,305.3,1451.5,249.9Z"/>
      <path class="b" d="M1774.7,120.1q0,18.8-20.1,22.5c-9,1.8-20.8,3.1-35.3,3.9a150.2,150.2,0,0,0-39,6c-4.1,11-6.1,27.4-6.1,49.2,0,16.8,1.1,42.2,3.1,76.2q3.5,53.9,3.4,76c0,48.5-10.6,72.7-31.6,72.7-6.2,0-11.2-3-14.8-9a37.4,37.4,0,0,1-5.5-20.3,240.4,240.4,0,0,1,1.6-25.5,247.5,247.5,0,0,0,1.7-26c0-6.8-.4-16.7-1.3-29.7-.5-17.4-.8-27.3-.8-29.7,0-15.6.1-29.5.4-41.7q.9-36.6.9-41.7,0-37.2-8.1-51.9a43.3,43.3,0,0,0-7.9-.4c-6,0-14.6.4-26,1.2-13.3,1-21.8,1.4-25.5,1.4-21.1,0-31.6-6.2-31.6-18.6a19.6,19.6,0,0,1,.9-6.5c3.7-8.4,8.8-14.7,15.3-19s15-6.9,25.6-8.2a168.5,168.5,0,0,1,17.4-1.2,149.6,149.6,0,0,1,19.1,0c5.4.3,10.7.4,15.8.4,16.3,0,30-.1,41.1-.4s25-.4,41.7-.4a238.2,238.2,0,0,0,39.3-3.1,18.9,18.9,0,0,1,5.4-.5,18.6,18.6,0,0,1,15.2,7.1A26.6,26.6,0,0,1,1774.7,120.1Z"/>
      <path class="b" d="M2004.5,136.3c0,7.4-3.2,13.8-9.6,19.3s-13.6,8.3-21.5,8.3c-5.6,0-14.2-4.8-26-14.5s-21.2-14.3-30.1-14.3c-11.3,0-20.6,2.5-27.8,7.6s-10.8,12.4-10.8,22.1c0,7.9,4.1,17.3,12.3,28.4a232.2,232.2,0,0,0,27.2,30.7l32.3,29.7c11,10.1,18.7,18.5,23.3,25.2,7.2,9.9,12.2,17.3,14.9,22a112.8,112.8,0,0,1,10.2,23.1,82.3,82.3,0,0,1,4.4,25.4c0,11.7-4.7,25.2-14.1,40.7s-18.8,25.4-29.7,30.3-23.6,7.7-38.4,7.7q-30,0-64.2-12.8c-22.3-9-38.8-20.7-49.6-34.9q-14.1-18.4-14.1-33a24.2,24.2,0,0,1,5.9-15.7c3.9-4.9,8.5-7.4,13.6-7.4,8,0,15.7,5.6,23,16.6,15,23.6,42.3,35.3,82,35.3a35.3,35.3,0,0,0,22.7-7.7c6.5-5.1,9.7-11.4,9.7-19.1,0-20.7-14.4-42.4-43.4-65.2q-28.2-23.2-36.1-30.1a143,143,0,0,1-31.3-40.4,102.4,102.4,0,0,1-12.1-48.4q0-29.1,28.5-57.5t57.5-28.9c13.8,0,29,3.4,45.4,10.2s28.1,14.5,35.7,24.7S2004.5,130.9,2004.5,136.3Z"/>
      <path class="b" d="M2255.7,120.1q0,18.8-20.1,22.5c-9,1.8-20.8,3.1-35.3,3.9a151.7,151.7,0,0,0-39.1,6q-6,16.5-6,49.2c0,16.8,1.1,42.2,3.1,76.2,2.2,35.9,3.4,61.2,3.4,76,0,48.5-10.6,72.7-31.6,72.7-6.2,0-11.2-3-14.8-9a37.5,37.5,0,0,1-5.6-20.3,244,244,0,0,1,1.7-25.5,247.5,247.5,0,0,0,1.7-26c0-6.8-.4-16.7-1.3-29.7-.5-17.4-.8-27.3-.8-29.7,0-15.6.1-29.5.4-41.7.6-24.4.8-38.3.8-41.7q0-37.2-8.1-51.9a41.3,41.3,0,0,0-7.8-.4c-6,0-14.7.4-26,1.2-13.3,1-21.8,1.4-25.5,1.4-21.1,0-31.6-6.2-31.6-18.6a23,23,0,0,1,.8-6.5c3.8-8.4,8.9-14.7,15.4-19s15-6.9,25.5-8.2a172,172,0,0,1,17.5-1.2,149.5,149.5,0,0,1,19.1,0c5.4.3,10.6.4,15.8.4,16.3,0,30-.1,41.1-.4s24.9-.4,41.7-.4a236.1,236.1,0,0,0,39.2-3.1,19.9,19.9,0,0,1,5.4-.5,18.7,18.7,0,0,1,15.3,7.1A26.6,26.6,0,0,1,2255.7,120.1Z"/>
      <path class="b" d="M2546.8,399.8a21.2,21.2,0,0,1-5.9,15.1,18.8,18.8,0,0,1-14.5,6.3h-9.3c-7,0-15.5-5.3-25.6-15.8-8.3-8.6-18.2-20.2-29.9-34.9a186.9,186.9,0,0,0-33.4-34.9c-13.3-10.8-25.5-16.2-36.7-16.2h-9q-13.2,0-19.5,5.7v3.7c0,2.1.3,9.6.8,22.6.9,9.8,1.3,17.4,1.3,22.6q0,51.3-31.8,51.3c-6.1,0-10.8-2.9-14.1-8.9s-5-13-5-21.2c0-9.8,1.3-23.4,3.8-40.9s4.9-30.6,5.1-35.3q3.8-46.7,3.8-157.6a121.2,121.2,0,0,0-10.2-14.1c-3.7-7.6-3.9-14.6-.4-21.1s7.8-10.3,13.1-12.9l8.5-4.6a137.5,137.5,0,0,1,17-7.3c26.9-10.8,52.5-16.2,77-16.2q69.2,0,87.7,41.8a131.8,131.8,0,0,1,11.4,54.8q0,33.4-22.9,61.2a172.7,172.7,0,0,1-56.2,44.3l15.7,19.1c2.5,3,8.4,9.8,17.5,20.3l12.2,12.5c8.9,8.8,13.9,13.9,15,15.1a98.5,98.5,0,0,0,13.7,12.5l7.7,6.1a35.5,35.5,0,0,0,4.1,3.2Q2546.8,383.8,2546.8,399.8Zm-65-222.4c0-18.1-5.6-29.4-16.6-33.8a52.7,52.7,0,0,0-15.7-4.7,216.9,216.9,0,0,0-23.2-.9,75.5,75.5,0,0,0-40.7,11.4q-16.9,30.3-17,78.7a242.4,242.4,0,0,0,1.7,25.1,163.2,163.2,0,0,0,23,2.1q30.3,0,59-24.3C2471.9,214.7,2481.8,196.8,2481.8,177.4Z"/>
      <path class="b" d="M2773,116.6c0,5.4-2.5,10.7-7.7,15.8s-10.1,6.6-17.8,8.9-18.6,4.9-32.4,7.7l-20.8,3.5-20.5,2.5c-7.6,1.1-12.3,1.7-13.9,1.7-5.7,10.6-8.5,27.2-8.5,49.8,0,11.5.5,20.8,1.6,28,4.4-1.9,16.9-3.5,37.4-4.7,22.5-1.4,38.2-2.1,46.9-2.1,21.2,0,31.8,4.5,31.8,13.7s-2,14.7-5.8,19.1-9.7,7.9-17.5,10.6-11.7,2.7-13.3,2.9-7.7.6-14.8,1.3l-12.4,1.4-59.1,12.2a8.1,8.1,0,0,0,.2,1.7c.1,1,.2,1.5.2,1.6,0,6-.7,16.2-2.1,30.8s-2.1,24.5-2.1,30.1.2,9.7.4,11.4c4.5,2.6,10.3,3.9,17.5,3.9s17.4-1.3,32.8-3.9,25.9-3.7,33-3.7a53,53,0,0,1,28.7,8.1c8.9,5.2,13.4,12.6,13.4,22,0,7-4.5,12.4-13.4,16.2a74.6,74.6,0,0,1-26,6q-42.3,2.4-87.2,17a26.4,26.4,0,0,1-10.2,1.7c-12.7,0-21.2-5.8-25.5-17.5-5.4-14.4-8.1-36.9-8.1-67.7q0-17.4,3.3-61c2.4-30.9,3.5-51.3,3.5-61.2,0-12.8.9-32.1,2.5-58s3.8-41.1,6.5-46.7,7.1-10.2,13.5-14.5,12.4-6.5,18.2-6.5,10.1,2.3,12.9,6.9q7.7-1.6,19.5-5.4c17.3-6,32.1-8.9,44.2-8.9a88.6,88.6,0,0,1,33.3,6.6C2767.1,102.1,2773,108.3,2773,116.6Z"/>
      <path class="b" d="M3023.6,395.2c0,9.7-1.5,16.7-4.5,21.1s-8.5,6.5-16.7,6.5-13.3-4.7-17-14.1a194.3,194.3,0,0,1-9.4-34.2c-1.9-12.6-4.7-21.6-8.5-26.8-28.1,2.2-43,3.3-44.6,3.3-5.4,0-15.2.7-29.3,2.1l-23.9,2.5a90.1,90.1,0,0,0-5.6,23.8c0,6.3-.2,14.2-.8,23.9a35.9,35.9,0,0,1-2.6,11.1c-1.4,3.7-3.4,6.2-5.9,7.6a20.8,20.8,0,0,1-3.6,1.7,21.2,21.2,0,0,0-3.7,1.6c-6.8,2.7-11,4-12.6,4-11.1,0-16.7-4.3-16.7-12.9q0-53.7,25.2-129.1,14.8-45.3,17.4-55.5,6-26.6,11.4-42.3c1.8-5.8,5.6-19.7,11.4-41.8,5.2-20,9.9-35.3,14.2-45.8s11.8-15,22.6-15c9.3,0,17.3,5.3,24.1,15.8q8.5,13.2,17.8,43.4,7.5,22.7,18.7,67.9,8.5,33.5,12.9,49c.4.9.9,2.4,1.6,4.4s1.4,5,2.5,9,2.2,7.4,3.2,10.4c3.6,11.8,6.3,21.4,8.1,28.9q1.8,6.4,6.6,26.4C3021,361,3023.6,378.8,3023.6,395.2Zm-63.8-90.9c-.5-1.8-4-13.9-10.5-36.1q-7.8-28-14.8-45.6a163,163,0,0,0-17.2-32.3l-4.6,11.4-4.8,12.3-4.1,11.6-4.8,12.3-4.1,11.4c-1.1,3.6-3.6,11.5-7.3,23.8-4.6,16.1-7.4,28.4-8.5,37,9.4-5.4,21.8-8.1,37.4-8.1l7.2.3,15.9.9C2946.7,303.7,2953.5,304,2959.8,304.3Z"/>
      <path class="b" d="M3386.7,383.8q0,43.3-24.3,43.4c-8.6,0-15.9-9.4-22-28.2a372.1,372.1,0,0,1-12.3-63.8,622.4,622.4,0,0,0-11.6-71.4q-7-36.2-17.4-47.1c-9.5,33.6-16.6,62.7-21.6,87.2l-1.3,6.2q-11.8,59.5-25.9,87.2a18.9,18.9,0,0,0-3.1,4.8c-5.6,9.3-13.1,13.9-22.5,13.9s-18.7-5.2-23.8-15.6c-3.8-6.9-8.3-20.3-13.5-40.1-3.4-14.3-6.2-25.6-8.6-33.6l-8.5-28.8c-10.2-37.6-18.7-60.4-25.5-68.6-11.9,44.1-20.6,86.3-26,126.9-.4,2.1-.8,10.8-1.2,26.2-.4,13.7-1.9,24.2-4.4,31.5s-11.5,12.7-25.9,12.7c-8.2,0-13.5-1.8-16.1-5.2s-3.8-10-3.8-19.7c0-12.9,2.4-31.2,7.2-55.1s8.1-38,8.5-42.3c2-14,5.5-31.8,10.6-53.6q8.6-37.2,11-55c1.3-12.3,4.2-27.2,9-44.6s9.2-32,13.2-40.7,12.8-14.1,23.9-14.1c9.4,0,17.3,5.6,23.7,17a102.2,102.2,0,0,1,13.3,34l5.4,32c1.6,9.4,4.1,22,7.2,37.8l6.9,32.8q7.9,37.9,17.8,67.1c2.4-1.6,6.3-14,11.9-37.4,4.4-18.8,9.9-44,16.6-75.4,5.7-25.2,10.2-41.9,13.7-50l5.8-15.8,7.7-19.5a85.6,85.6,0,0,1,15.8-26c6.3-7,13.5-10.3,21.6-9.7,2.3,0,3.8.1,4.3.4,9.7,1.8,15.5,9.3,17.5,22.4.5,3.3,1.2,8.9,2,16.6a180.1,180.1,0,0,1,.9,19.1V155c.4,15.7,1.8,28.9,4.3,39.9l14.4,68.5c7.1,34.5,13.6,60.8,19.3,79.1C3384.7,357.2,3386.7,370.9,3386.7,383.8Z"/>
    </g>
    <path class="b" d="M634.6.3c-18.7,3-34.5,10.1-45.8,20.8s-15.2,19.7-16.6,35.1c-1.1,12.3,1.5,18.3,9.1,20.8,4.1,1.4,5.8,4.7,5.8,11.5s-1.1,9.9-8.2,17.2-6.9,7.7-1.1,13.2c3.6,3.4,3.9,4.9,1.7,6.7s-1.9,5.2,2.6,7.1,3.8,1.9,2,2.5a4.2,4.2,0,0,0-2.7,2.1c-.8,1.9,2.1,5.8,4.3,5.8.7,0,1.5,1.8,1.9,4.4.8,5.5,1.2,6,5.6,8.8s14,2.8,22.4.6,14.6-2,16.6.2,2.3,4.1,3.4,7,1.5,6,.5,11.7c-.6,3.7-2.1,8-3.3,9.6-2.6,3.6-20.3,17.9-31.9,25.8-7.3,4.9-10,6-23.5,9.7-8.4,2.4-17.2,5.2-19.4,6.4-6.5,3.3-14.2,9.6-17.8,14.6s-3.5,4.7-7.1,4-5,0-7.3,5.6c-1.3,3.3-1.2,3.6,1.5,6s2.8,2.5,1.7,7.6c-5.5,25.4,9.1,47,34.5,50.9,8.9,1.5,9.3,1.7,9.3,4.5s1.2,4,2.6,6c2.5,3.6,2.6,4.5,2.6,17.5,0,15.4-1.3,19.7-6.9,24.5-7.9,6.7-16.1,6.4-27.7-1-20.9-13.4-69.3-41.2-81.2-46.6-19.3-8.8-73.9-30.3-97.8-38.5-11.4-3.9-22.4-7.8-24.5-8.7-8-3.4-8.6-3.1-26.1,13.8-19.8,19.2-41.7,42.1-70.7,74.1-12.2,13.5-27.3,30.2-33.8,37l-31.6,34-19.9,21.6H127.1c-16.8.1-34.7-.4-39.8-1.1-20.5-2.4-43.4-11.7-66.4-27.1-9.5-6.5-11.7-8.4-13-11.8-2.6-6.5-7.9-4.6-7.9,2.9,0,3.4,5.8,14.8,11.4,22.4,2,2.9,7.7,8.1,12.5,11.7,8.5,6.2,8.8,6.6,12.4,15.3a82.3,82.3,0,0,1,4.6,14.7c.5,3.3,1.6,7.2,2.6,8.5,3.5,5.6,11.8,8.2,17.1,5.4,1.2-.5,4.6-3.5,7.6-6.5s6.6-5.8,9.1-6.5c14.2-4.1,34.4-5.6,48.6-3.8,6,.8,6,.8,4.1,2.8-3.3,3.6-21.8,16.3-29.5,20.1-4.1,2.1-7.5,4.2-7.5,4.9s.9,1.9,2,3,3.8,1.7,19.1,1.3,18.1-.9,25.1-3.2c10.8-3.7,15.1-6.7,20.1-13.9s10.7-11.4,14.6-11.4a77.6,77.6,0,0,1,10.6,2.1c17.3,4.3,29.4,5.5,53.4,5.5s36.2-1.2,55.3-6c14.5-3.7,23.2-7,37.7-14.4l12.8-6.6,4.5,1.5c2.6.8,20.2,4.7,39.1,8.8s42.4,9.2,52.1,11.6c39.5,10.3,82.6,15,136.3,15,18.7,0,26.7-.4,32.5-1.7,31.6-6.4,53.5-32.7,53.5-64,0-11.3-2.5-20.8-9.1-35.8-7.9-17.5-9.7-25.3-9.6-41.4,0-12.1.2-14.1,3.3-23,3.8-11.4,9.3-21.2,16.2-28.9,2.7-3,8.1-9.6,12-14.6,14.2-18.8,22.4-28.4,25.1-29.8l2.8-1.5,15.7,22.9c8.4,12.4,22.6,32.1,31.3,43.7l15.8,21,3.9,12.2c3.7,11.9,6.6,17.6,20.3,40.6,19.6,32.9,39.8,68.8,41.1,73.2a96.7,96.7,0,0,1,2.8,10.2c2.7,12.5,2.9,12.8,8,15.2s23.1,3,32.3.3c4.9-1.5,10-2,27.1-2.1s21-.3,21.3-1.7-.8-2-2.6-2.8c-3.9-1.5-27.4-5.4-38.5-6.3-24.8-2.2-36.7-16.4-52-62.1-4.2-12.3-8.8-25.3-10.3-29s-5-12.7-7.7-20.2c-5.1-14.3-7-17.4-19.3-33.1-4-5.4-8.4-11.8-9.5-14.4-2.9-6.6-9.2-20.6-21.7-48.1-10.7-23.4-16.2-40-14.1-42.1.6-.5,3.5,0,7.1,1.2a90.3,90.3,0,0,0,81.9-15.1c11.4-9.3,25.7-27.5,24.4-31.3-.2-.7-1.7.8-3.2,3.3-11.6,18.4-37.9,23.8-55.1,11.2l-3.9-2.8,3.9-.9a76.4,76.4,0,0,1,7.7-1.7c8.2-1.4,23.6-7.4,38.1-14.7s15.6-8.1,27.1-19.7,12.4-12.8,16.6-21.5c2.7-5.4,5-11.8,5.4-14.4l.8-4.6-7,7.5c-9.1,9.8-17.4,15.6-30.8,21.6s-19.7,8.4-19.7,7.8,2.8-3.1,6.1-6.6a54.9,54.9,0,0,0,14.2-49.5c-2-9.7-2.9-10.2-4.9-2.8-4.6,19-23.3,35.4-45.6,40.4-10.3,2.4-26.7,1.6-36.4-1.5-16-5.1-29-15.8-35.7-29.4-4.2-8.5-4.2-8.5-5-24.7-.9-18.2-3.4-29-9.8-42C712.8,26,690.7,8.5,667.6,2.6,659.3.8,640.8-.6,634.6.3ZM347.9,338.8c2.2,1.3,5.3,3.3,6.9,4.5S379,358.2,404.9,374c50.1,30.3,62.1,37.9,66,42l2.4,2.8-8.2-.7c-4.5-.4-33.6-3.2-64.7-6.4L343.7,406l-5,2.2c-27.3,11.9-59.3,23.3-80.3,28.8s-54.4,13.2-57.7,13.2c-.7,0-2.2-1.2-3-2.7s-1.8-2.8.8-4.9c6.2-5.1,61.2-39.8,74.7-47.2a166,166,0,0,0,35.2-25.5c5.4-5.2,17.2-19.3,20.4-24.3C334,336.8,340.4,334.5,347.9,338.8Z"/>
  </g>
</svg>
