<svg xmlns="http://www.w3.org/2000/svg" viewBox="0 0 3972.7 753.6">
  <defs>
    <style>
      .a {
        fill: #fff;
      }
    </style>
  </defs>
  <g>
    <path class="a" d="M936.5.4C909,4.8,885.6,15.4,869,31.1s-22.4,29-24.5,51.9c-1.5,18.1,2.2,27,13.4,30.6,6,2,8.6,7,8.6,17s-1.7,14.5-12.2,25.3-10.1,11.4-1.5,19.5c5.2,5,5.7,7.3,2.4,10s-2.7,7.6,3.9,10.4,5.6,2.9,3,3.7a6.1,6.1,0,0,0-4.1,3.1c-1,2.7,3.2,8.5,6.4,8.5,1,0,2.2,2.7,2.8,6.5,1.2,8.2,1.8,8.9,8.3,13s20.7,4.2,33.2.9,21.5-2.9,24.4.3c1.3,1.5,3.4,6,4.9,10.3,2.2,6.3,2.3,8.9.8,17.2-.9,5.4-3.2,11.8-4.8,14.2-3.8,5.3-30,26.4-47.2,38.1-10.7,7.2-14.6,8.9-34.6,14.3-12.4,3.5-25.4,7.6-28.7,9.4-9.6,4.8-20.9,14.2-26.2,21.6s-5.1,6.8-10.5,5.9-7.4,0-10.8,8.3c-1.9,4.9-1.7,5.3,2.2,8.8s4,3.8,2.5,11.2c-8.1,37.6,13.4,69.5,51,75.2,13.1,2.1,13.7,2.4,13.7,6.7,0,1.8,1.6,5.9,3.7,8.9,3.7,5.3,3.8,6.6,3.8,25.7,0,22.7-1.9,29.2-10.2,36.3-11.6,9.8-23.8,9.3-40.9-1.6-30.9-19.8-102.3-60.7-119.8-68.7-28.5-13-109.1-44.7-144.5-56.8-16.7-5.8-33-11.5-36-12.9-11.8-5-12.8-4.5-38.6,20.4-29.2,28.3-61.5,62.1-104.3,109.4-17.9,20-40.3,44.6-49.8,54.6s-30.5,32.8-46.6,50.2l-29.4,31.8H187.6c-24.8.2-51.2-.6-58.7-1.5-30.3-3.6-64.1-17.3-98-40-14.2-9.5-17.3-12.4-19.3-17.4C7.8,601.7,0,604.5,0,615.6c0,5,8.6,21.9,16.7,33.1,3,4.3,11.5,12,18.6,17.3,12.5,9.2,12.9,9.6,18.2,22.5,3,7.1,6.2,16.9,6.8,21.7s2.4,10.6,3.8,12.6c5.2,8.1,17.4,11.9,25.3,8,1.8-.9,6.8-5.3,11.1-9.7s9.8-8.6,13.6-9.7c20.9-6,50.8-8.3,71.7-5.6,8.7,1.3,8.7,1.3,6,4.3-4.8,5.3-32.2,24-43.7,29.6-6,3-11,6.2-11,7.3s1.4,2.8,3,4.3,5.6,2.6,28.2,2,26.7-1.2,37.1-4.7c16-5.6,22.3-10,29.7-20.5s15.8-16.8,21.5-16.8c2.1,0,9.1,1.3,15.7,3,25.5,6.4,43.4,8.2,78.8,8.2s53.4-1.8,81.5-8.9c21.4-5.5,34.4-10.5,55.6-21.3l19-9.7,6.7,2.2c3.7,1.3,29.7,7,57.7,12.9s62.5,13.6,76.8,17.2C706.7,730,770.3,737,849.6,737c27.6,0,39.5-.6,48.1-2.4,46.5-9.6,78.8-48.4,78.8-94.5,0-16.6-3.6-30.7-13.4-52.9-11.7-25.7-14.3-37.3-14.2-61,0-18,.3-20.9,4.8-34,5.6-16.8,13.7-31.3,24-42.6,3.9-4.4,11.9-14.2,17.6-21.7,21-27.6,33-41.8,37.1-43.9l4.2-2.2,23,33.7c12.6,18.5,33.5,47.5,46.3,64.6l23.2,31,5.8,17.9c5.5,17.6,9.8,26,29.9,59.9,29,48.6,58.8,101.5,60.8,108,1.3,4.1,3.1,10.9,4,15.1,4,18.5,4.3,18.9,11.8,22.4,9.3,4.4,34,4.5,47.6.5,7.2-2.3,14.8-2.9,39.9-3.1,27.2-.1,31.1-.4,31.5-2.5s-1.2-3.1-3.7-4.1c-5.9-2.3-40.6-8-56.8-9.4-36.7-3.2-54.3-24.2-76.9-91.6-6.2-18.2-13-37.4-15.2-42.9s-7.4-18.7-11.3-29.7c-7.5-21.1-10.4-25.7-28.5-48.8-6-7.9-12.5-17.4-14.2-21.2-4.2-9.8-13.5-30.5-31.9-71-15.8-34.6-24-59-20.8-62.1.7-.8,5.1,0,10.4,1.6,41.1,12.9,87.5,4.3,120.9-22.2,16.8-13.6,37.9-40.5,36-46.2-.3-1.1-2.4,1.2-4.7,4.8-17,27.1-55.9,35.1-81.4,16.6l-5.7-4.2,5.7-1.4c3.3-.9,8.3-1.9,11.5-2.4,12-2.1,34.8-10.9,56.2-21.7s23-12,40.1-29.1c15.8-15.5,18.2-18.9,24.4-31.7,3.9-7.8,7.3-17.4,8-21.1l1-6.8-10.2,11c-13.4,14.5-25.8,23.1-45.6,31.9s-29,12.3-29,11.6,4-4.7,9-9.8a81.5,81.5,0,0,0,21-73c-3.1-14.4-4.4-15.1-7.3-4.1-6.9,28-34.5,52.3-67.3,59.5-15.3,3.5-39.4,2.5-53.8-2.1-23.5-7.5-42.7-23.4-52.6-43.3-6.2-12.6-6.2-12.6-7.4-36.5-1.4-26.9-5-42.9-14.5-61.9-14.3-29.5-47-55.2-81-63.9C973,1,945.7-.9,936.5.4ZM513.4,500c3.2,1.9,7.8,4.9,10.2,6.7s35.8,22,73.9,45.2c74,44.7,91.6,55.9,97.3,62.1l3.7,4.1L686.4,617c-6.6-.5-49.6-4.7-95.5-9.4l-83.7-8.4-7.5,3.1c-40.2,17.6-87.4,34.5-118.4,42.7s-80.4,19.4-85.2,19.4c-1,0-3.2-1.8-4.5-4-2.6-4-2.6-4.1,1.2-7.1,9.2-7.6,90.4-58.8,110.3-69.7A250.7,250.7,0,0,0,454.9,546c8.2-7.7,25.5-28.4,30.2-36C492.9,497,502.4,493.7,513.4,500Z"/>
    <g>
      <path class="a" d="M1614.1,556.2c-4.8-.3-8.1-.6-10-.6s-5.9.3-10.5.6c-23.8,13.5-32.7,20.2-45.9,34.8-25.2,27.9-39.8,61.1-39.8,90.3,0,18.4,11.6,31.3,27.9,31.3,14,0,28.1-7.8,41.8-23.5,17.3-19.4,30.6-46.5,30.6-61.6,0-5.7-2.7-8.9-7-8.9s-12.2,3.8-18.1,10.3a63.7,63.7,0,0,0-9,10.8c-9.2,12.7-14.6,23.2-25.6,49.4l-5.4-3.5c15.9-36.2,21.8-46.5,35.6-61.1,7.3-7.8,16.5-12.4,24.6-12.4s14.1,8.1,14.1,19.2-4.9,28.1-10.6,37.3c-16.7,28.4-51.6,50.8-78.3,50.8-22.5,0-39.2-18.4-39.2-43.2s11.1-49.2,31.3-71.7c19.2-21,27.9-28.6,59.8-51l-67.6-12.2a253.8,253.8,0,0,0-39.5-3c-39.4,0-62.1,12.7-62.1,34.6a35.6,35.6,0,0,0,3.2,15.4c10.3,20.6,22.2,29.2,57,42.2l-.5,6.5c-28.1-11.1-37.6-16.5-49.2-27a50.9,50.9,0,0,1-15.9-37.6c0-30.8,30-53.2,71.3-53.2,12.7,0,27.3,1.6,43.5,4.5,24.6,4.4,40.3,7.9,83,17.9l3.2-1.6,3.8-1.7a12.2,12.2,0,0,1,4.9-1c1.9,0,2.4.8,2.4,4v15.1Z"/>
      <path class="a" d="M1736.3,680.2c-.6.8-3.5,4.3-9,10.5a113.8,113.8,0,0,1-9.1,9.8,14.2,14.2,0,0,1-9.8,4c-7,0-12.1-5.9-12.1-14.3a31.8,31.8,0,0,1,3.5-14l20.8-42.2,2.2-4.1a5.5,5.5,0,0,1,.5-1.8,4.8,4.8,0,0,0,.3-1.7c0-.8-1.1-1.6-2.5-1.6-3.2,0-11.6,7-23.2,19.7a285.6,285.6,0,0,0-28.1,36c-4.3,6.2-6.8,10.8-12.2,21.3h-17.3l59.2-148.1,18.1-5.4-49.4,123,16.7-20.8c17.6-21.6,33.3-34.3,41.9-34.3,6.2,0,11.6,6.2,11.6,13.2a28.6,28.6,0,0,1-3.5,13.2l-23.8,46.3-.8,2.4c-1.1,2.2-1.6,3.5-1.6,4.3s1.1,1.6,2.4,1.6a6.8,6.8,0,0,0,3.8-1.9,317.5,317.5,0,0,0,20.6-24.3l4.6,3.5C1738.2,677.5,1736.8,679.4,1736.3,680.2Z"/>
      <path class="a" d="M1792.5,668.6l-13.3,5.7a26.3,26.3,0,0,0-2.7,12.4c0,7,3,10.8,8.4,10.8,2.7,0,8.1-1.6,11.1-3.2a53.9,53.9,0,0,0,9.2-5.4c7.8-5.7,12.4-10.3,22.1-21.9l4.1,3.5c-10,12.7-14.9,17.5-23.3,23.8-10,7.3-19.1,11-27.5,11-10.6,0-17.9-8.3-17.9-20.2,0-14.3,7.3-31.4,20-46.5s23.8-21.1,35.4-21.1c9,0,16,6.2,16,14.1C1834.1,643.5,1818.7,657,1792.5,668.6Zm27-45.1c-11.6,0-29.2,20.5-37.6,43.7,17.6-7.8,24.4-12.1,33.8-21.3,6.5-6.5,10.3-12.7,10.3-17.6C1826,625.6,1823.3,623.5,1819.5,623.5Z"/>
      <path class="a" d="M2016.5,688c-10.6,11.1-22.7,17.6-32.7,17.6s-21.6-10.8-21.6-22.4a69.3,69.3,0,0,1,5.1-23.8l44.6-105.1,18.6-5.2-49.4,119.2c-3.5,8.1-6,17-6,21.1,0,5.9,4.9,10.3,11.7,10.3s14.8-4.6,22.4-13.3,11.6-16.7,17.6-35.4c-3-8.6-3.8-11.6-3.8-17.3,0-11.6,4.6-19.4,10.8-19.4s7.8,4.8,7.8,12.9C2041.6,647.8,2031.6,671.8,2016.5,688Z"/>
      <path class="a" d="M2095.9,668.6l-13.2,5.7a25.1,25.1,0,0,0-2.7,12.4c0,7,3,10.8,8.4,10.8,2.7,0,8.1-1.6,11-3.2a47.2,47.2,0,0,0,9.2-5.4c7.9-5.7,12.5-10.3,22.2-21.9l4,3.5c-10,12.7-14.8,17.5-23.2,23.8-10,7.3-19.2,11-27.6,11-10.5,0-17.8-8.3-17.8-20.2,0-14.3,7.3-31.4,20-46.5s23.8-21.1,35.4-21.1c8.9,0,15.9,6.2,15.9,14.1C2137.5,643.5,2122.1,657,2095.9,668.6Zm27.1-45.1c-11.7,0-29.2,20.5-37.6,43.7,17.6-7.8,24.3-12.1,33.8-21.3,6.5-6.5,10.2-12.7,10.2-17.6C2129.4,625.6,2126.7,623.5,2123,623.5Z"/>
      <path class="a" d="M2221.9,643.2c-1.9,0-3-1.1-3-2.4s0-1.1.3-1.4a7.4,7.4,0,0,1,.8-1.6,9.4,9.4,0,0,0,1-4.9c0-6.5-2.9-9.7-8.6-9.7a11.3,11.3,0,0,0-11.1,11.1c0,3.8,2.2,8.9,6.8,16.2,9.7,15.4,11.3,19.4,11.3,27.3,0,16.5-11.9,28.4-28.4,28.4-14.8,0-27.5-11.7-27.5-25.2,0-7.3,5.1-13.2,11.1-13.2s7.5,3.2,7.5,8.1a10.1,10.1,0,0,1-1.3,5.1l-2.2,2.5a11.5,11.5,0,0,0-1.9,5.9c0,5.9,6.8,11.1,14.9,11.1s15.7-6.8,15.7-16c0-5.1-1.1-8.1-8.4-19.4l-6.8-11.1a20.3,20.3,0,0,1-3.2-10.5c0-5.4,3-12.7,7-17.3s12.4-9.5,18.9-9.5c8.1,0,14.6,7,14.6,15.4C2229.4,638.1,2225.9,643.2,2221.9,643.2Z"/>
      <path class="a" d="M2311.3,625.1l-13.5.3-21.4,49.1c-4.6,10.8-7.3,18.4-7.3,20.3s.9,2.7,2.7,2.7a11.9,11.9,0,0,0,4.1-.8,31.4,31.4,0,0,0,4.9-3.2c7.3-6.3,10.8-9.8,23.2-25.5l4.1,3c-11.7,15.7-16,20.8-24.4,27.6-5.1,4.3-10.5,6.7-14.8,6.7-6.5,0-12.5-7.3-12.5-15.6,0-5.7,1.9-12.5,6.3-22.5l18.3-42.1-16.2.3,1.4-5.5,17.3-.5,10.2-24.3,18.1-6.5L2300,619.4h12.4Z"/>
      <path class="a" d="M2574.5,667.8c-5.7-.6-7-.8-13.2-1.9l-3.3,4-7,10a59.5,59.5,0,0,1-9.5,9.5c-12.7,11.3-24,16.8-34,16.8s-20.3-9.5-20.3-20.6c0-4,0-4.6,2.2-10l3.8-9.7,3.5-8.9c-16,21-23,28.9-35.2,38.6-8.3,6.5-14.8,9.7-20,9.7s-9.4-4.8-9.4-10.8,1.9-10.5,5.4-17.3l22.2-41.8,2.1-4.4a16.8,16.8,0,0,0,1.4-3.8c0-1.6-.8-2.4-2.2-2.4s-4.3,1.1-6.8,3.3c-5.6,4.8-8.9,8.3-17.8,20.2l-4.3-3.2c11.6-15.2,14-17.9,19.7-22.7a19.1,19.1,0,0,1,11.9-4.3c7.6,0,11.9,4.8,11.9,13.5,0,4.8-1.4,8.9-5.4,16.7l-18.4,33.8-5.4,10.5a10.7,10.7,0,0,0-.8,3.6c0,.8.5,1.3,1.6,1.3a6.6,6.6,0,0,0,3.5-1.9l8.4-6.7a87.6,87.6,0,0,0,13.8-13.6c8.1-8.9,14-16.7,31.9-40.5l11.1-14.9,16.2.6-11.6,22.4c-11.9,23-20.9,44.6-20.9,50.3,0,4,3.8,7.3,8.7,7.3s10.8-2.7,15.9-7.3c9-8.1,13.3-14.1,25.2-34.6-7.1-7.3-8.9-11.9-8.9-20,0-12.4,7-21.4,17-21.4s14.6,7.1,14.6,19a48.4,48.4,0,0,1-1.9,12.9c-1.4,3.8-2.7,6.2-6.2,11.4a101.3,101.3,0,0,0,12.1,1.9ZM2554,625.1c-4.1,0-7.6,6.2-7.6,14.3,0,6,1.3,8.7,5.9,13.2,4.1-9.1,5.7-15.4,5.7-21C2558,627.5,2556.4,625.1,2554,625.1Z"/>
      <path class="a" d="M2629.6,668.6l-13.2,5.7a25.1,25.1,0,0,0-2.7,12.4c0,7,3,10.8,8.4,10.8,2.7,0,8.1-1.6,11-3.2a47.2,47.2,0,0,0,9.2-5.4c7.9-5.7,12.5-10.3,22.2-21.9l4,3.5c-10,12.7-14.8,17.5-23.2,23.8-10,7.3-19.2,11-27.6,11-10.5,0-17.8-8.3-17.8-20.2,0-14.3,7.3-31.4,20-46.5s23.8-21.1,35.4-21.1c8.9,0,15.9,6.2,15.9,14.1C2671.2,643.5,2655.8,657,2629.6,668.6Zm27-45.1c-11.6,0-29.1,20.5-37.5,43.7,17.5-7.8,24.3-12.1,33.8-21.3,6.4-6.5,10.2-12.7,10.2-17.6C2663.1,625.6,2660.4,623.5,2656.6,623.5Z"/>
      <path class="a" d="M2757.2,688c-10.6,11.1-22.7,17.6-32.7,17.6s-21.6-10.8-21.6-22.4a69.3,69.3,0,0,1,5.1-23.8l44.6-105.1,18.6-5.2-49.4,119.2c-3.5,8.1-6,17-6,21.1,0,5.9,4.9,10.3,11.6,10.3s14.9-4.6,22.5-13.3,11.6-16.7,17.5-35.4c-2.9-8.6-3.7-11.6-3.7-17.3,0-11.6,4.5-19.4,10.8-19.4s7.8,4.8,7.8,12.9C2782.3,647.8,2772.3,671.8,2757.2,688Z"/>
      <path class="a" d="M2865.5,643.2c-4.6,0-8.1-3.8-8.1-8.7,0-2.7,1.4-5.4,4.3-8.1.3-.2.6-.5.6-.8s.3-.2.5-.5-.5-1.6-1.9-1.6c-3.5,0-8.9,2.4-13.5,6.4-10.8,9.2-20.2,24.1-26.5,41.9-2.9,8.7-4.6,16-4.6,20.6a7.4,7.4,0,0,0,7.6,7.5c3,0,9.5-2.4,14.1-5.4a95.1,95.1,0,0,0,8.9-6.5c7.3-5.6,11.3-9.7,20-19.4l4.6,3.2c-12.5,14.1-18.1,19.2-26.5,24.9s-16.5,8.9-24.3,8.9c-9.8,0-17.6-9.2-17.6-21.1,0-18.9,13.2-41.3,33.8-56.4,8.9-6.8,17.5-10.3,24.8-10.3s14.1,5.7,14.1,13.5S2871.5,643.2,2865.5,643.2Z"/>
      <path class="a" d="M2975.5,700.2c-4,3.5-8.9,5.4-13,5.4s-10.8-6.2-10.8-13.5c0-5.1,4.1-16.8,8.9-25.9l4.4-7.9,1.1-2.4.2-.3.6-2.4c-17.1,22.7-24.1,30.3-37.6,41.3-7.8,6.5-15.1,10-20.5,10s-11.1-6.2-11.1-15.4c0-19.7,17.5-46.2,40.2-61,10-6.5,24.1-10.9,34.9-10.9a32.9,32.9,0,0,1,14.6,3l11.9-.5-32.7,70.5a20.8,20.8,0,0,1-.8,2.7,6.5,6.5,0,0,0-.6,3,2.3,2.3,0,0,0,2.2,2.1c1.4,0,2.4-.8,5.7-3.5,8.4-8.1,10.8-11,22.1-25.9l4.6,3.2C2985.8,690.5,2982.5,694.3,2975.5,700.2Zm-.5-77c-9.2,0-21.4,5.7-31.6,14.3s-17.9,20-25.7,36.2c-4.9,10.3-7,16-7,19.8a3.1,3.1,0,0,0,3.2,3.2,10.3,10.3,0,0,0,2.4-.5,20.2,20.2,0,0,0,4.6-3c14.1-11.1,31.1-28.9,41.9-44.1l9.7-13.5,6.3-9.4,1-2.5A17.4,17.4,0,0,0,2975,623.2Z"/>
      <path class="a" d="M3160.9,698c-4.6,4.4-9.5,6.8-13.8,6.8-6.5,0-10.8-5.4-10.8-13.5s3-14.6,9.2-26.2l6.5-11.4,5.4-10c6.2-10.8,7.5-14.3,7.5-16.7a2.5,2.5,0,0,0-2.7-2.7c-3.5,0-11.3,5.1-19.7,13.2a309.9,309.9,0,0,0-31.1,36.2c-7,9.2-10.2,14.6-18.1,28.1h-16.5l24.6-52.1,8.1-18.7a8.1,8.1,0,0,0,1.1-3.2,2.6,2.6,0,0,0-2.7-2.7c-2.4,0-7.5,2.7-12.1,6.5a99.5,99.5,0,0,0-12.2,12.1c-15.4,17.1-23.2,27.9-41.9,58.1H3025l25.1-48.6a31.1,31.1,0,0,1,1.9-3.3c2.4-3.7,5.7-10.8,9.7-20.5a15.1,15.1,0,0,0,.8-3.8c0-1.6-.5-2.4-1.9-2.4s-6.7,2.7-10.8,5.7a39.6,39.6,0,0,0-4.6,4c-5.4,5.2-8.9,8.4-17,17l-4.1-3.7,12.2-12.7a104.6,104.6,0,0,1,14.3-12.7,21.7,21.7,0,0,1,12.5-4.1c7,0,10.8,4.1,10.8,11.6s-1.7,11.1-8.4,26.8l5.7-6.2.5-.6c18.1-21.3,31.9-31.3,43.2-31.3,6.5,0,9.5,3.8,9.5,11.1a26.4,26.4,0,0,1-.5,6.2c-.6,2.9-1.4,5.1-4.9,13.8-.8,2.4-1.9,5.1-3,8.1l-.8,2.1c17.9-20.8,23.3-26.2,34.1-34.6,5.4-4,11-6.5,15.6-6.5,7.6,0,12.2,5.2,12.2,12.7,0,5.2-1.4,9.8-5.4,17.3l-21.6,41.1c-2.2,3.8-2.7,5.7-2.7,7.3a2.4,2.4,0,0,0,2.7,2.7,10.4,10.4,0,0,0,5.1-2.1q1.7-1.4,3.3-3c4.5-5.4,7.2-8.7,16.4-22.4l4.6,2.1C3171.7,686.7,3168.2,691.6,3160.9,698Z"/>
      <path class="a" d="M3438.1,698c-4.6,4.4-9.4,6.8-13.7,6.8-6.5,0-10.9-5.4-10.9-13.5s3-14.6,9.2-26.2l6.5-11.4,5.4-10c6.2-10.8,7.6-14.3,7.6-16.7a2.6,2.6,0,0,0-2.7-2.7c-3.5,0-11.4,5.1-19.7,13.2a291.9,291.9,0,0,0-31.1,36.2c-7,9.2-10.3,14.6-18.1,28.1h-16.5l24.6-52.1,8.1-18.7a10.1,10.1,0,0,0,1.1-3.2,2.6,2.6,0,0,0-2.7-2.7c-2.5,0-7.6,2.7-12.2,6.5a107.1,107.1,0,0,0-12.2,12.1c-15.4,17.1-23.2,27.9-41.8,58.1h-16.8l25.1-48.6,1.9-3.3c2.5-3.7,5.7-10.8,9.8-20.5a15.1,15.1,0,0,0,.8-3.8c0-1.6-.6-2.4-1.9-2.4s-6.8,2.7-10.8,5.7a39.6,39.6,0,0,0-4.6,4c-5.4,5.2-8.9,8.4-17.1,17l-4-3.7,12.2-12.7a104.6,104.6,0,0,1,14.3-12.7,21.4,21.4,0,0,1,12.4-4.1c7,0,10.8,4.1,10.8,11.6s-1.6,11.1-8.4,26.8l5.7-6.2.6-.6c18.1-21.3,31.8-31.3,43.2-31.3,6.5,0,9.5,3.8,9.5,11.1a22.1,22.1,0,0,1-.6,6.2c-.5,2.9-1.3,5.1-4.9,13.8-.8,2.4-1.8,5.1-2.9,8.1l-.8,2.1c17.8-20.8,23.2-26.2,34-34.6,5.4-4,11.1-6.5,15.7-6.5,7.6,0,12.1,5.2,12.1,12.7,0,5.2-1.3,9.8-5.4,17.3l-21.6,41.1c-2.1,3.8-2.7,5.7-2.7,7.3a2.4,2.4,0,0,0,2.7,2.7,10.3,10.3,0,0,0,5.2-2.1l3.2-3c4.6-5.4,7.3-8.7,16.5-22.4l4.6,2.1C3448.9,686.7,3445.4,691.6,3438.1,698Z"/>
      <path class="a" d="M3546.8,671.3c-13,20-30.8,33.8-43.8,33.8s-20-11.6-20-27.9,7.8-33.2,22.4-45.1c9.2-7.6,16.5-10.8,34.6-15.9l1.4,4.8c-12.5,5.4-17.1,8.4-24.1,14.9-14.3,13.8-23,32.4-23,50,0,8.1,3.5,13,10,13s12.7-3.8,19.2-10.3c9.7-9.5,14.9-17,24.6-37.8-3.5-7.6-4.6-12.2-4.6-19.2s3-12.2,7.9-12.2,8.6,5.4,8.6,13.5C3560,644.3,3555.4,657.8,3546.8,671.3Z"/>
      <path class="a" d="M3678.4,619.9c-3,11.9-6.3,19.8-16.8,38.7,1.6,3.2,1.9,3.8,7.6,9.4l4.3,4.4,1.9,1.9-3.3,4.3c-5.6-4.9-6.7-6-14.3-14.1l-3,3.8-4.5,7c-11.4,17.6-29.8,30.9-42.5,30.9-10.2,0-17.5-10.3-17.5-24.1s5.1-27,14.3-38.9c5.9-7.6,11.1-11.9,24-20.8-5.9-10.8-7.8-15.4-10.5-22.7-3.2-8.9-4.6-16-4.6-22.7,0-17.3,11.6-30.3,27-30.3,21.4,0,40.3,25.7,40.3,54.9A74.9,74.9,0,0,1,3678.4,619.9Zm-29.8,32.7-4.3-5.1-8.4-12.7-4.6-6.5c-11,13.5-15.1,19.2-21.3,31.4s-10.5,23.5-10.5,30.8,3.5,9.2,9.9,9.2a21.7,21.7,0,0,0,15.7-6.5c8.9-8.4,12.5-13.3,26-37.3Zm-7.8-99.9c-11.1,0-17.3,10-17.3,27.8,0,10.5,1.6,17.3,7.3,32.4l2.2,6,4.6-2.2,5.1-2.7,5.1-3,1.9,4.1-12.4,9.4,3.5,6.3a56.6,56.6,0,0,0,4.1,6.4l2.1,3c1.9,2.4,3.5,4.6,7.6,9.2,5.7-14.3,7.8-20.3,10-31.1a114.4,114.4,0,0,0,2.4-22.1C3667,571.3,3655.9,552.7,3640.8,552.7Z"/>
      <path class="a" d="M3732.9,668.6l-13.2,5.7a25.1,25.1,0,0,0-2.7,12.4c0,7,3,10.8,8.4,10.8,2.7,0,8.1-1.6,11.1-3.2a49.6,49.6,0,0,0,9.1-5.4c7.9-5.7,12.5-10.3,22.2-21.9l4.1,3.5c-10,12.7-14.9,17.5-23.3,23.8-10,7.3-19.2,11-27.5,11-10.6,0-17.9-8.3-17.9-20.2,0-14.3,7.3-31.4,20-46.5s23.8-21.1,35.4-21.1c8.9,0,16,6.2,16,14.1C3774.6,643.5,3759.2,657,3732.9,668.6Zm27.1-45.1c-11.7,0-29.2,20.5-37.6,43.7,17.6-7.8,24.3-12.1,33.8-21.3,6.5-6.5,10.3-12.7,10.3-17.6C3766.5,625.6,3763.7,623.5,3760,623.5Z"/>
      <path class="a" d="M3854,586.2c-4.3,14-9.7,29.2-16.2,44.8-1.9,4.9-5.1,12.5-9.2,22.7-3,7.3-5.4,12.7-7,16.2-6.2,14.6-7.9,19.5-7.9,23.6s1.1,4.8,3,4.8,4.6-1.3,7-3.8c6-5.1,11.7-11.9,17.6-20,2.7-4,5.9-8.3,9.5-13.5l4.8,3.5c-10.2,15.2-14.8,21.1-22.1,28.7s-15.2,13-19.5,13a6,6,0,0,1-2.4-.9c-5.7-2.1-10-9.4-10-17,0-5.9,2.4-15.7,5.7-23.8l23.2-56.7,12.4-29.2a47.5,47.5,0,0,0,4.3-19.5,15.2,15.2,0,0,0-1.8-7.8l3.5-1.9c5.6,9.7,8.1,17,8.1,23.3C3857,575.4,3855.9,580.2,3854,586.2Z"/>
      <path class="a" d="M3936.7,643.2c-1.9,0-3-1.1-3-2.4s0-1.1.3-1.4.3-.8.8-1.6a9.4,9.4,0,0,0,1.1-4.9c0-6.5-3-9.7-8.7-9.7a11.3,11.3,0,0,0-11,11.1c0,3.8,2.1,8.9,6.7,16.2,9.7,15.4,11.4,19.4,11.4,27.3,0,16.5-11.9,28.4-28.4,28.4-14.9,0-27.6-11.7-27.6-25.2,0-7.3,5.2-13.2,11.1-13.2s7.6,3.2,7.6,8.1a10.2,10.2,0,0,1-1.4,5.1l-2.1,2.5a11.5,11.5,0,0,0-1.9,5.9c0,5.9,6.7,11.1,14.8,11.1s15.7-6.8,15.7-16c0-5.1-1.1-8.1-8.4-19.4L3907,654a19.6,19.6,0,0,1-3.3-10.5c0-5.4,3-12.7,7-17.3s12.5-9.5,19-9.5c8.1,0,14.6,7,14.6,15.4C3944.3,638.1,3940.7,643.2,3936.7,643.2Z"/>
    </g>
    <g>
      <path class="a" d="M1626.7,87.4c0,4-1.1,9.9-3.4,17.8-1.3,5.4-2.3,10.4-3.1,14.9-2.6,19.5-4,46.4-4,80.6,0,9.7.8,26.3,2.3,50,1.7,20.9,2.6,37.4,2.6,49.6,0,57.6-2.6,91.5-7.8,101.5-7.2,13.1-15.4,19.6-24.4,19.6a17.4,17.4,0,0,1-15-7.7c-3.6-5.1-5.4-11.3-5.4-18.7a25.3,25.3,0,0,1,.2-3.2c.1-1.6.2-2.6.2-3.1q1.8-26.8,3.6-94.2-15.1,9.2-60.9,9.1c-9.4,0-23.8-.7-43.4-2-1.5,8.2-2.2,25.9-2.2,53.3,0,6.1,1.8,13.7,5.3,22.7s6,15.8,6,20.2c0,7.2-3.1,13.4-9.3,18.7s-13.1,8-20.7,8q-32.4,0-32.4-43.6,0-70.2,4.7-111.1,2.4-23.6,3.1-75.5c.4-29.4,2-55.4,4.6-78.2.3-1.5.5-6,.5-13.4s.7-13.2,2-17.4a19.9,19.9,0,0,1,7.5-10.4c6.3-4.1,12.3-6.2,18.3-6.2,8.6,0,15.7,4.4,21.3,13.1s8.2,17.4,8.2,26.5a39,39,0,0,1-1.9,10.9,135.7,135.7,0,0,1-5.1,14.5c-2.1,5.4-3.4,8.9-3.9,10.6q-4.7,14.4-4.6,56c0,4.1-.2,8.5-.5,13.1-.4,11.4.2,21,1.8,28.7,7,3.1,16.8,4.6,29.6,4.6s34.5-2.4,67.3-7.3c1.3-14.1,2-21.6,2-22.5,0-6.8-.7-16.5-2-29.1s-1.3-22.9-1.3-29.1.8-21,2.4-40c1.8-15.7,4.1-26,7.1-30.9a67,67,0,0,1,14.9-15.2c5.9-4.4,11.3-6.5,16.2-6.5a18.1,18.1,0,0,1,13.8,6.3A21.2,21.2,0,0,1,1626.7,87.4Z"/>
      <path class="a" d="M1956,261.2q0,79.8-43.3,123.6T1790,428.7a94.8,94.8,0,0,1-31.6-5,82.3,82.3,0,0,1-25-13.6,105.8,105.8,0,0,1-19-20.8,123.9,123.9,0,0,1-13.7-25.6,184.4,184.4,0,0,1-8.8-28.9,239.1,239.1,0,0,1-4.8-30c-.9-9.7-1.3-19.5-1.3-29.4,0-18.5,3.1-39.6,9.5-63.2a383.2,383.2,0,0,1,26.2-69.3q17.4-33.9,43.8-56.4c17.8-15.6,36.9-23.3,57.4-23.3a98.6,98.6,0,0,1,50,13.1,118.7,118.7,0,0,1,37.8,34,218.3,218.3,0,0,1,25.6,47.4,273.1,273.1,0,0,1,15.2,52.8A290.8,290.8,0,0,1,1956,261.2Zm-57.8-24.5q0-19.9-11.8-54.2t-24.2-52.9c-6.8-9.9-16.4-14.9-28.7-14.9-4.3,0-7.6.6-10,1.8q-37.1,16.6-59.1,66.9c-14.2,33.9-21.3,66.1-21.3,96.4a170.8,170.8,0,0,0,8.7,52.9c6,18.4,14.2,32.5,24.4,42.2,4.8,4.3,11.4,6.5,20,6.5s21.8-2.5,35.1-7.3c15-5.5,25.3-10.9,30.9-16Q1898.2,325.5,1898.2,236.7Z"/>
      <path class="a" d="M2244.6,97.8c0,13.4-7.1,21.4-21.5,24-9.6,2-22.2,3.4-37.8,4.3a158.4,158.4,0,0,0-41.8,6.4c-4.3,11.7-6.4,29.3-6.4,52.7q0,26.9,3.3,81.5,3.6,57.6,3.6,81.4,0,77.7-33.8,77.7c-6.7,0-12-3.1-15.9-9.5a40.9,40.9,0,0,1-5.9-21.8,254.1,254.1,0,0,1,1.8-27.3,257.7,257.7,0,0,0,1.8-27.8c0-7.3-.5-17.9-1.4-31.8-.6-18.7-.9-29.2-.9-31.8,0-16.7.2-31.6.5-44.6q.9-39.1.9-44.7,0-39.7-8.7-55.6a48.1,48.1,0,0,0-8.4-.4c-6.4,0-15.7.4-27.8,1.3-14.2,1.1-23.3,1.6-27.3,1.6-22.6,0-33.8-6.7-33.8-20a22.2,22.2,0,0,1,.9-6.9c4-9,9.4-15.8,16.4-20.3s16.1-7.5,27.3-8.8a172.1,172.1,0,0,1,18.7-1.3,137.8,137.8,0,0,1,20.5,0c5.7.3,11.4.4,16.8.4,17.5,0,32.2-.1,44-.4s26.8-.5,44.7-.5a246.8,246.8,0,0,0,42-3.3,22,22,0,0,1,5.8-.5,19.9,19.9,0,0,1,16.3,7.6C2242.6,84.4,2244.6,90.6,2244.6,97.8Z"/>
      <path class="a" d="M2491.1,115.2c0,7.8-3.5,14.7-10.4,20.6s-14.5,8.9-23,8.9c-5.9,0-15.2-5.2-27.7-15.5s-22.8-15.4-32.3-15.4c-12.1,0-22,2.7-29.8,8.1s-11.5,13.3-11.5,23.7c0,8.5,4.4,18.6,13.1,30.5a257.4,257.4,0,0,0,29.1,32.8q7.3,6.4,34.7,31.8c11.7,10.8,20,19.8,24.9,26.9,7.7,10.7,13,18.5,16,23.6a123.7,123.7,0,0,1,10.9,24.7,88.8,88.8,0,0,1,4.6,27.3c0,12.4-5,26.9-15.1,43.5s-20.1,27.1-31.8,32.5-25.2,8.2-41.1,8.2q-31.9,0-68.6-13.8c-23.9-9.6-41.6-22.1-53.2-37.3-10-13.2-15.1-25-15.1-35.4a25.8,25.8,0,0,1,6.4-16.7c4.2-5.3,9-7.9,14.5-7.9,8.6,0,16.8,5.9,24.7,17.8q24,37.6,87.8,37.7a37.9,37.9,0,0,0,24.2-8.2c7-5.5,10.4-12.3,10.4-20.4,0-22.3-15.4-45.5-46.4-69.8-20.2-16.6-33-27.3-38.7-32.2a154,154,0,0,1-33.5-43.4,110,110,0,0,1-12.9-51.7q0-31.2,30.4-61.6t61.6-30.9c14.8,0,31,3.6,48.7,10.9s30,15.5,38.2,26.4S2491.1,109.4,2491.1,115.2Z"/>
      <path class="a" d="M2760.4,97.8q0,20.1-21.6,24c-9.6,2-22.2,3.4-37.8,4.3a158.3,158.3,0,0,0-41.7,6.4c-4.3,11.7-6.5,29.3-6.5,52.7q0,26.9,3.4,81.5,3.5,57.6,3.5,81.4,0,77.7-33.8,77.7c-6.6,0-11.9-3.1-15.9-9.5a40.9,40.9,0,0,1-5.9-21.8,254.1,254.1,0,0,1,1.8-27.3,257.7,257.7,0,0,0,1.8-27.8c0-7.3-.4-17.9-1.3-31.8-.6-18.7-.9-29.2-.9-31.8,0-16.7.1-31.6.4-44.6q.9-39.1.9-44.7,0-39.7-8.7-55.6c-1.1-.3-4-.4-8.4-.4-6.4,0-15.6.4-27.8,1.3-14.2,1.1-23.3,1.6-27.3,1.6-22.5,0-33.8-6.7-33.8-20a22.2,22.2,0,0,1,.9-6.9c4-9,9.5-15.8,16.4-20.3s16.1-7.5,27.4-8.8a170.5,170.5,0,0,1,18.6-1.3,138,138,0,0,1,20.5,0c5.8.3,11.4.4,16.9.4,17.5,0,32.1-.1,44-.4s26.7-.5,44.7-.5a248.5,248.5,0,0,0,42-3.3,21.1,21.1,0,0,1,5.7-.5,20.3,20.3,0,0,1,16.4,7.6A28.7,28.7,0,0,1,2760.4,97.8Z"/>
      <path class="a" d="M3072.4,397.2a22.7,22.7,0,0,1-6.3,16.2,20.4,20.4,0,0,1-15.5,6.7h-10c-7.4,0-16.5-5.7-27.4-16.9q-13.2-13.8-32-37.4a200,200,0,0,0-35.7-37.3c-14.3-11.6-27.4-17.3-39.4-17.3h-9.5c-9.5,0-16.5,2-20.9,6v4c0,2.2.3,10.3.9,24.2.9,10.5,1.3,18.6,1.3,24.2q0,54.9-34,54.9c-6.5,0-11.5-3.2-15.1-9.5s-5.3-14-5.3-22.7c0-10.5,1.3-25.1,4-43.8s5.2-32.7,5.5-37.8q4-49.9,4-168.6a119.3,119.3,0,0,0-10.9-15.2c-4-8.1-4.1-15.7-.4-22.6s8.4-11,14-13.8l9.1-4.9a147.9,147.9,0,0,1,18.2-7.8c28.8-11.5,56.2-17.3,82.5-17.3q74,0,93.7,44.7a139.9,139.9,0,0,1,12.3,58.6c0,23.9-8.2,45.7-24.5,65.6a184.7,184.7,0,0,1-60.2,47.3l16.9,20.5c2.7,3.2,8.9,10.5,18.7,21.7l13.1,13.4,16,16.2a105.6,105.6,0,0,0,14.6,13.3l8.3,6.6a47.1,47.1,0,0,0,4.4,3.4C3069.2,377.3,3072.4,385.8,3072.4,397.2Zm-69.6-238c0-19.4-5.9-31.5-17.8-36.3a60.2,60.2,0,0,0-16.8-5,238.3,238.3,0,0,0-24.7-1,80.2,80.2,0,0,0-43.6,12.3q-18.2,32.4-18.2,84.2a252.3,252.3,0,0,0,1.8,26.9,172.5,172.5,0,0,0,24.6,2.2q32.6,0,63.1-26T3002.8,159.2Z"/>
      <path class="a" d="M3315,94.1c0,5.7-2.7,11.4-8.2,16.8-4.5,3.9-10.8,7.1-19.1,9.6s-19.9,5.3-34.7,8.2l-22.2,3.8-22,2.7a143.8,143.8,0,0,1-14.9,1.7c-6.1,11.5-9.1,29.2-9.1,53.4q0,18.4,1.8,30c4.7-2.1,18-3.8,40-5.1,24.1-1.5,40.8-2.3,50.2-2.3,22.6,0,34,4.9,34,14.7s-2.1,15.7-6.2,20.5-10.4,8.5-18.7,11.3-12.6,3-14.2,3.1-8.3.6-15.9,1.4l-13.2,1.5-63.4,13.1c0,.2.1.7.2,1.8a15,15,0,0,1,.3,1.8c0,6.3-.8,17.3-2.3,32.8s-2.2,26.3-2.2,32.3a95,95,0,0,0,.5,12.2q7.1,4.2,18.6,4.2t35.1-4.2c16-2.7,27.8-4,35.4-4a56,56,0,0,1,30.6,8.7c9.7,5.6,14.5,13.4,14.5,23.5,0,7.6-4.8,13.4-14.5,17.4a79.8,79.8,0,0,1-27.7,6.4c-30.3,1.8-61.4,7.8-93.4,18.2a27.8,27.8,0,0,1-10.9,1.8c-13.6,0-22.7-6.2-27.3-18.7q-8.7-23.1-8.7-72.4c0-12.5,1.2-34.2,3.6-65.4q3.8-49.5,3.8-65.5,0-20.4,2.6-62c1.8-27.4,4.1-44.1,6.9-50s7.7-11,14.5-15.6,13.3-6.9,19.5-6.9,10.8,2.5,13.8,7.4c5.5-1.2,12.5-3.1,20.9-5.8,18.5-6.4,34.3-9.6,47.3-9.6a93.2,93.2,0,0,1,35.6,7.2C3308.6,78.5,3315,85.2,3315,94.1Z"/>
      <path class="a" d="M3583.6,392.3c0,10.4-1.5,17.9-4.7,22.5s-9.2,7-17.9,7-14.2-5-18.2-15.1a205.9,205.9,0,0,1-10-36.6c-2.1-13.5-5.2-23.1-9.2-28.7-30,2.4-46,3.5-47.7,3.5-5.8,0-16.3.8-31.4,2.3l-25.5,2.6a94.9,94.9,0,0,0-6,25.6c0,6.7-.3,15.2-.9,25.6a38.3,38.3,0,0,1-2.8,11.8c-1.5,4-3.7,6.7-6.3,8.2a20,20,0,0,1-3.9,1.7,25.8,25.8,0,0,0-3.9,1.8c-7.3,2.8-11.8,4.2-13.6,4.2-11.8,0-17.7-4.6-17.7-13.7q0-57.6,26.9-138.3c10.6-32.3,16.8-52,18.6-59.3,4.3-19,8.4-34.1,12.2-45.3,2-6.3,6-21.2,12.3-44.7,5.4-21.5,10.5-37.9,15.1-49.1s12.6-16,24.2-16c9.9,0,18.5,5.6,25.8,16.9,6.1,9.4,12.4,24.9,19.1,46.4q8,24.3,20,72.7,9.2,35.7,13.8,52.4c.4,1.1,1,2.7,1.6,4.8s1.6,5.3,2.8,9.6,2.3,7.9,3.3,11.2q5.8,18.9,8.7,30.9c1.3,4.6,3.7,14,7.1,28.2Q3583.7,365.9,3583.6,392.3Zm-68.2-97.4c-.6-1.9-4.3-14.8-11.3-38.6q-8.2-30-15.8-48.8a181.1,181.1,0,0,0-18.4-34.6l-4.9,12.3c-.5,1.2-2.2,5.5-5.1,13.1l-4.5,12.4-5.1,13.1-4.4,12.3q-1.8,5.7-7.8,25.5c-4.9,17.2-7.9,30.4-9.1,39.6,10.1-5.8,23.4-8.7,40-8.7l7.8.3,17,1C3501.4,294.3,3508.6,294.7,3515.4,294.9Z"/>
      <path class="a" d="M3972.7,380.1c0,30.9-8.6,46.4-26,46.4-9.1,0-17-10.1-23.5-30.2a389.1,389.1,0,0,1-13.1-68.2,675.4,675.4,0,0,0-12.5-76.5q-7.5-38.7-18.6-50.4-15.1,54-23.1,93.3l-1.4,6.7q-12.6,63.8-27.8,93.3a20.3,20.3,0,0,0-3.3,5.1c-5.9,9.9-13.9,14.9-24,14.9s-20.1-5.5-25.6-16.7q-6-11.1-14.4-42.9c-3.6-15.4-6.6-27.4-9.1-36l-9.1-30.8c-11-40.2-20.1-64.6-27.4-73.4q-19.1,70.7-27.7,135.8c-.5,2.2-.9,11.6-1.4,28-.4,14.7-2,25.9-4.6,33.8s-12.4,13.5-27.8,13.5c-8.8,0-14.5-1.8-17.2-5.5s-4.1-10.8-4.1-21.1c0-13.8,2.5-33.4,7.7-58.9s8.7-40.8,9.1-45.4q3.1-22.3,11.4-57.3,9.2-39.7,11.8-58.9c1.3-13.2,4.5-29.1,9.5-47.8s9.9-34.2,14.2-43.5,13.7-15.1,25.6-15.1c10.1,0,18.5,6.1,25.3,18.2a107.9,107.9,0,0,1,14.2,36.4l5.8,34.3c1.8,10,4.4,23.5,7.8,40.4l7.3,35.1c5.7,27.1,12,51.1,19.1,71.8,2.6-1.6,6.8-15,12.7-40q7.2-30.1,17.8-80.7c6.1-26.9,11-44.8,14.7-53.5l6.2-16.9,8.2-20.9a95.1,95.1,0,0,1,16.9-27.8c6.8-7.5,14.5-11,23.1-10.4,2.5,0,4.1.1,4.7.4,10.3,1.9,16.6,9.9,18.6,24,.6,3.6,1.4,9.5,2.3,17.8a204,204,0,0,1,.9,20.4v14.3c.4,16.7,2,30.9,4.6,42.6l15.4,73.4c7.7,36.9,14.5,65.1,20.6,84.6A171.6,171.6,0,0,1,3972.7,380.1Z"/>
    </g>
  </g>
</svg>
