<svg xmlns="http://www.w3.org/2000/svg" viewBox="0 0 3239.4 773.1">
  <defs>
    <style>
      .a {
        fill: #741b75;
      }
    </style>
  </defs>
  <g>
    <path class="a" d="M960.8.5c-28.2,4.4-52.2,15.3-69.2,31.4s-23,29.8-25.2,53.2c-1.6,18.6,2.3,27.7,13.7,31.5,6.2,2,8.9,7.1,8.9,17.3s-1.7,14.9-12.6,26.1-10.3,11.6-1.5,20c5.4,5.1,5.9,7.4,2.5,10.2s-2.8,7.8,4,10.7c5.2,2.3,5.7,3,3.1,3.7a6.3,6.3,0,0,0-4.2,3.3c-1.1,2.8,3.2,8.7,6.5,8.7,1.1,0,2.3,2.8,2.9,6.6,1.3,8.4,1.9,9.2,8.5,13.4s21.2,4.3,34.1.9,22-2.9,25,.3c1.4,1.6,3.5,6.2,5.1,10.6,2.2,6.5,2.3,9.1.8,17.6-1,5.6-3.3,12.1-5,14.6-3.9,5.4-30.7,27.1-48.4,39.1-11,7.4-15,9.1-35.5,14.7-12.7,3.6-26,7.8-29.4,9.6-9.9,5-21.5,14.6-26.9,22.2s-5.2,7-10.8,6-7.6,0-11,8.6c-2,4.9-1.8,5.4,2.2,9s4.1,3.8,2.6,11.4c-8.3,38.6,13.8,71.3,52.3,77.2,13.4,2.2,14,2.5,14,6.9,0,1.8,1.7,6,3.9,9.1,3.7,5.4,3.8,6.8,3.8,26.4,0,23.2-2,29.9-10.5,37.2-11.9,10.1-24.4,9.6-41.9-1.6-31.7-20.3-104.9-62.3-122.9-70.5-29.2-13.4-111.9-45.9-148.2-58.3-17.2-5.9-33.9-11.8-37-13.2-12-5.1-13.1-4.6-39.6,20.9-29.9,29-63,63.7-106.9,112.3-18.4,20.5-41.5,45.7-51.2,55.9S285.6,637.2,269,655l-30.1,32.7H192.5c-25.5.2-52.6-.6-60.3-1.5-31.1-3.7-65.7-17.8-100.5-41.1-14.5-9.8-17.8-12.7-19.8-17.8C8.1,617.3,0,620.1,0,631.6c0,5.1,8.8,22.5,17.2,34,3.1,4.3,11.7,12.2,19,17.6,12.8,9.5,13.3,10,18.7,23.1,3.1,7.3,6.3,17.4,7,22.4s2.4,10.8,3.8,12.8c5.4,8.4,17.9,12.3,26,8.2,1.8-.9,7-5.4,11.4-9.9s10.1-8.8,13.9-9.9c21.5-6.2,52.1-8.5,73.6-5.7,9,1.2,9,1.2,6.2,4.3-4.9,5.4-33.1,24.7-44.8,30.4-6.2,3.1-11.3,6.4-11.3,7.4s1.4,3,3.1,4.5,5.7,2.7,28.9,2.1,27.4-1.3,38-4.9c16.4-5.7,22.9-10.2,30.5-21s16.2-17.2,22.1-17.2c2.2,0,9.3,1.3,16.1,3,26.1,6.6,44.5,8.4,80.8,8.4s54.7-1.8,83.7-9.1c21.9-5.6,35.2-10.7,57-21.9l19.5-9.9,6.8,2.3c3.9,1.3,30.5,7.2,59.2,13.2s64.2,14,78.8,17.7c59.9,15.5,125.1,22.6,206.5,22.6,28.2,0,40.5-.6,49.3-2.5,47.7-9.7,80.8-49.6,80.8-96.9,0-17-3.7-31.4-13.7-54.2-12-26.4-14.7-38.3-14.6-62.7,0-18.4.3-21.4,5-34.8,5.7-17.3,14-32.1,24.6-43.8,4-4.5,12.2-14.5,18-22.1,21.5-28.4,33.9-43,38.1-45.2l4.3-2.1,23.7,34.5c12.8,19,34.3,48.7,47.4,66.2l23.8,31.8,5.9,18.5c5.7,18,10.1,26.7,30.8,61.4,29.6,49.9,60.3,104.2,62.3,110.8,1.4,4.2,3.2,11.2,4.1,15.5,4.1,18.9,4.4,19.4,12.1,23,9.6,4.5,34.9,4.6,48.8.4,7.5-2.3,15.2-2.9,41-3.1,27.9-.1,31.9-.4,32.3-2.6s-1.2-3.1-3.8-4.2c-6.1-2.3-41.6-8.2-58.3-9.6-37.6-3.3-55.7-24.8-78.8-94-6.4-18.7-13.4-38.4-15.7-44s-7.5-19.2-11.6-30.5c-7.7-21.6-10.6-26.4-29.2-50.1-6.2-8.1-12.8-17.8-14.5-21.7-4.3-10.1-13.9-31.3-32.8-72.9-16.2-35.5-24.6-60.4-21.3-63.7.7-.8,5.2,0,10.6,1.7,42.2,13.2,89.9,4.4,124-22.8,17.3-13.9,39-41.5,37-47.4-.3-1.1-2.5,1.2-4.8,4.9-17.5,27.8-57.4,36-83.5,17.1l-5.9-4.3,5.9-1.4a87.6,87.6,0,0,1,11.7-2.5c12.4-2.2,35.8-11.2,57.7-22.3s23.7-12.3,41.1-29.8c16.3-16,18.7-19.4,25.1-32.6,4-8,7.6-17.8,8.2-21.7l1.1-7-10.5,11.4c-13.8,14.8-26.5,23.7-46.7,32.7s-29.9,12.7-29.9,11.9,4.2-4.8,9.3-10.1a83.3,83.3,0,0,0,21.5-74.9c-3.1-14.7-4.5-15.5-7.4-4.1-7.1,28.7-35.4,53.6-69.1,61-15.7,3.6-40.4,2.5-55.2-2.1-24.1-7.8-43.8-24.1-54-44.5-6.3-12.9-6.3-12.9-7.6-37.4-1.4-27.6-5.1-44-14.8-63.6-14.7-30.2-48.2-56.5-83.2-65.5C998.3,1.1,970.3-.9,960.8.5ZM526.7,513c3.3,1.9,8.1,5,10.5,6.8s36.7,22.7,75.8,46.4c75.9,45.9,94,57.4,99.9,63.7l3.7,4.2L704.2,633c-6.8-.5-50.8-4.8-98-9.6l-85.8-8.7-7.7,3.3c-41.3,18-89.7,35.3-121.5,43.7s-82.4,20-87.4,20c-1.1,0-3.3-1.9-4.6-4.2-2.7-4-2.7-4.2,1.2-7.3,9.4-7.7,92.8-60.3,113.2-71.5s36.3-22.9,53.2-38.5c8.3-8,26.1-29.2,30.9-37C505.7,509.9,515.4,506.5,526.7,513Z"/>
    <g>
      <path class="a" d="M1581,578.1l-7-.4-7.4.4c-16.8,9.5-23,14.2-32.3,24.5-17.7,19.6-28,42.9-28,63.5,0,12.9,8.2,22,19.6,22,9.9,0,19.8-5.5,29.5-16.5,12.1-13.7,21.4-32.7,21.4-43.3,0-4-1.9-6.3-4.9-6.3s-8.6,2.6-12.7,7.2a51.9,51.9,0,0,0-6.3,7.6c-6.5,8.9-10.3,16.3-18.1,34.8l-3.8-2.5c11.2-25.5,15.4-32.7,25.1-42.9,5.1-5.5,11.6-8.8,17.3-8.8s9.9,5.7,9.9,13.5-3.4,19.8-7.4,26.2c-11.8,20-36.3,35.8-55.1,35.8-15.8,0-27.6-13-27.6-30.4s7.8-34.6,22.1-50.4,19.5-20.1,42-35.9l-47.5-8.6a184.4,184.4,0,0,0-27.8-2c-27.7,0-43.7,8.9-43.7,24.3a24.5,24.5,0,0,0,2.3,10.8c7.2,14.4,15.6,20.5,40.1,29.6l-.4,4.6c-19.8-7.8-26.4-11.6-34.6-19a35.5,35.5,0,0,1-11.2-26.4c0-21.7,21.1-37.4,50.2-37.4a172.2,172.2,0,0,1,30.6,3.2c17.3,3,28.3,5.5,58.3,12.5l2.3-1.1,2.6-1.1a8.7,8.7,0,0,1,3.5-.8c1.3,0,1.7.6,1.7,2.8v10.7Z"/>
      <path class="a" d="M1666.9,665.3c-.4.6-2.5,3-6.3,7.4s-5.1,5.7-6.4,6.9a10,10,0,0,1-6.9,2.8c-4.9,0-8.5-4.2-8.5-10.1a22,22,0,0,1,2.4-9.8l14.7-29.7,1.5-2.8a5.1,5.1,0,0,1,.4-1.4,2.8,2.8,0,0,0,.2-1.1c0-.6-.8-1.1-1.8-1.1s-8.1,4.9-16.3,13.8a218.3,218.3,0,0,0-19.8,25.3c-3,4.4-4.7,7.6-8.5,15h-12.2L1641,576.4l12.8-3.8L1619,659l11.8-14.6c12.3-15.2,23.4-24.1,29.4-24.1,4.4,0,8.2,4.3,8.2,9.3a20,20,0,0,1-2.5,9.3l-16.7,32.5-.6,1.7a10.1,10.1,0,0,0-1.1,3c0,.6.8,1.2,1.7,1.2a5,5,0,0,0,2.7-1.4,222.3,222.3,0,0,0,14.4-17.1l3.2,2.5C1668.2,663.4,1667.3,664.7,1666.9,665.3Z"/>
      <path class="a" d="M1706.4,657.1l-9.3,4a18.4,18.4,0,0,0-1.9,8.8c0,4.9,2.1,7.6,5.9,7.6a22.2,22.2,0,0,0,7.8-2.3,34.8,34.8,0,0,0,6.4-3.8c5.5-4,8.8-7.2,15.6-15.4l2.9,2.5c-7.1,8.9-10.5,12.3-16.4,16.7s-13.5,7.8-19.4,7.8-12.5-5.9-12.5-14.3c0-10,5.1-22,14.1-32.7s16.7-14.8,24.9-14.8c6.2,0,11.2,4.4,11.2,9.9C1735.7,639.5,1724.8,649,1706.4,657.1Zm19-31.7c-8.2,0-20.5,14.4-26.4,30.8,12.3-5.5,17.1-8.6,23.7-15,4.6-4.6,7.3-9,7.3-12.4C1730,626.9,1728.1,625.4,1725.4,625.4Z"/>
      <path class="a" d="M1863.9,670.8c-7.4,7.8-16,12.4-23,12.4s-15.2-7.6-15.2-15.8a48.2,48.2,0,0,1,3.6-16.7l31.4-73.9,13.1-3.6L1839,656.9c-2.5,5.7-4.2,12-4.2,14.9s3.5,7.2,8.2,7.2,10.5-3.2,15.8-9.3,8.1-11.8,12.3-24.9c-2.1-6.1-2.6-8.2-2.6-12.2,0-8.1,3.2-13.7,7.6-13.7s5.5,3.5,5.5,9.2C1881.6,642.5,1874.5,659.4,1863.9,670.8Z"/>
      <path class="a" d="M1919.8,657.1l-9.3,4a17.3,17.3,0,0,0-1.9,8.8c0,4.9,2,7.6,5.8,7.6a22.2,22.2,0,0,0,7.8-2.3,35.6,35.6,0,0,0,6.5-3.8c5.5-4,8.7-7.2,15.6-15.4l2.8,2.5c-7,8.9-10.4,12.3-16.3,16.7s-13.5,7.8-19.4,7.8c-7.4,0-12.5-5.9-12.5-14.3,0-10,5.1-22,14-32.7s16.7-14.8,24.9-14.8c6.3,0,11.2,4.4,11.2,9.9C1949,639.5,1938.2,649,1919.8,657.1Zm19-31.7c-8.2,0-20.6,14.4-26.4,30.8,12.3-5.5,17.1-8.6,23.7-15,4.6-4.6,7.2-9,7.2-12.4C1943.3,626.9,1941.4,625.4,1938.8,625.4Z"/>
      <path class="a" d="M2008.3,639.3a1.9,1.9,0,0,1-2.1-1.7,1.5,1.5,0,0,1,.2-1c.2-.2.2-.6.6-1.1a7.4,7.4,0,0,0,.7-3.4c0-4.6-2.1-6.9-6-6.9a7.9,7.9,0,0,0-7.8,7.8c0,2.7,1.5,6.3,4.7,11.4,6.9,10.8,8,13.7,8,19.2,0,11.6-8.4,19.9-20,19.9s-19.3-8.1-19.3-17.6c0-5.2,3.6-9.3,7.8-9.3s5.3,2.2,5.3,5.7a7.2,7.2,0,0,1-1,3.6l-1.5,1.7a7.7,7.7,0,0,0-1.3,4.2c0,4.1,4.7,7.8,10.4,7.8s11-4.8,11-11.3c0-3.6-.7-5.7-5.8-13.6l-4.8-7.8a14.5,14.5,0,0,1-2.3-7.4,20.4,20.4,0,0,1,5-12.2c3.6-4,8.7-6.6,13.3-6.6s10.2,4.9,10.2,10.8C2013.6,635.7,2011.2,639.3,2008.3,639.3Z"/>
      <path class="a" d="M2071.2,626.5l-9.5.2-15,34.6c-3.2,7.6-5.1,12.9-5.1,14.3s.5,1.9,1.9,1.9a7.4,7.4,0,0,0,2.8-.6,17,17,0,0,0,3.4-2.3c5.2-4.4,7.6-6.8,16.4-17.8l2.8,2c-8.2,11.1-11.2,14.7-17.1,19.4-3.6,3.1-7.4,4.8-10.4,4.8-4.6,0-8.8-5.2-8.8-11,0-4,1.4-8.8,4.4-15.8l12.9-29.7-11.4.2,1-3.8,12.1-.3,7.2-17.1,12.8-4.6-8.4,21.7h8.8Z"/>
      <path class="a" d="M2256.3,656.6a89.4,89.4,0,0,1-9.4-1.4l-2.2,2.9-5,7a44.2,44.2,0,0,1-6.6,6.7c-9,7.9-16.9,11.7-24,11.7a14.6,14.6,0,0,1-14.2-14.4c0-2.8,0-3.2,1.5-7l2.7-6.9,2.4-6.2c-11.2,14.8-16.1,20.3-24.7,27.1-5.9,4.6-10.4,6.9-14,6.9s-6.7-3.4-6.7-7.6,1.3-7.4,3.8-12.2l15.6-29.4,1.5-3.1a11.7,11.7,0,0,0,1-2.6c0-1.2-.6-1.7-1.6-1.7a7.6,7.6,0,0,0-4.7,2.2c-4,3.5-6.3,5.9-12.5,14.3l-3.1-2.3c8.2-10.6,9.9-12.5,13.9-16a13.2,13.2,0,0,1,8.3-3c5.4,0,8.4,3.4,8.4,9.5,0,3.4-.9,6.3-3.8,11.8L2170,666.6l-3.8,7.4a6.9,6.9,0,0,0-.6,2.5c0,.6.4,1,1.2,1a5.1,5.1,0,0,0,2.4-1.4l5.9-4.7a65.8,65.8,0,0,0,9.7-9.5c5.7-6.3,9.9-11.8,22.4-28.5l7.8-10.5,11.4.4-8.1,15.8c-8.4,16.1-14.7,31.3-14.7,35.3s2.7,5.2,6.1,5.2,7.6-1.9,11.2-5.2c6.3-5.7,9.3-9.9,17.7-24.3-5-5.1-6.3-8.4-6.3-14.1,0-8.7,5-15,12-15s10.2,5,10.2,13.3a34.1,34.1,0,0,1-1.3,9.2c-.9,2.6-1.9,4.3-4.4,7.9a64.2,64.2,0,0,0,8.6,1.4Zm-14.5-30.1c-2.8,0-5.3,4.4-5.3,10.1,0,4.2.9,6.1,4.2,9.3,2.8-6.4,4-10.8,4-14.8S2243.5,626.5,2241.8,626.5Z"/>
      <path class="a" d="M2295,657.1l-9.3,4a18.4,18.4,0,0,0-1.9,8.8c0,4.9,2.1,7.6,5.9,7.6a22.2,22.2,0,0,0,7.8-2.3,34.8,34.8,0,0,0,6.4-3.8c5.5-4,8.8-7.2,15.6-15.4l2.9,2.5c-7.1,8.9-10.5,12.3-16.4,16.7s-13.5,7.8-19.4,7.8-12.5-5.9-12.5-14.3c0-10,5.1-22,14.1-32.7s16.7-14.8,24.9-14.8c6.2,0,11.2,4.4,11.2,9.9C2324.3,639.5,2313.4,649,2295,657.1Zm19-31.7c-8.2,0-20.5,14.4-26.4,30.8,12.3-5.5,17.1-8.6,23.7-15,4.6-4.6,7.3-9,7.3-12.4C2318.6,626.9,2316.7,625.4,2314,625.4Z"/>
      <path class="a" d="M2384.7,670.8c-7.4,7.8-16,12.4-23,12.4s-15.2-7.6-15.2-15.8a48.2,48.2,0,0,1,3.6-16.7l31.4-73.9,13.1-3.6-34.8,83.7c-2.5,5.7-4.2,12-4.2,14.9s3.4,7.2,8.2,7.2,10.4-3.2,15.8-9.3,8.1-11.8,12.3-24.9c-2.1-6.1-2.7-8.2-2.7-12.2,0-8.1,3.3-13.7,7.6-13.7s5.6,3.5,5.6,9.2C2402.4,642.5,2395.3,659.4,2384.7,670.8Z"/>
      <path class="a" d="M2460.9,639.3a5.8,5.8,0,0,1-5.7-6.1c0-1.9.9-3.8,3-5.7.2-.2.4-.4.4-.6s.2-.2.4-.4-.4-1.1-1.4-1.1-6.2,1.7-9.5,4.6c-7.6,6.4-14.2,16.9-18.6,29.4-2.1,6.1-3.2,11.2-3.2,14.5a5.2,5.2,0,0,0,5.3,5.3c2.1,0,6.7-1.7,9.9-3.8s4.2-2.9,6.3-4.6c5.1-4,7.9-6.8,14-13.7l3.3,2.3c-8.8,9.9-12.8,13.5-18.7,17.5s-11.6,6.3-17.1,6.3-12.3-6.5-12.3-14.9c0-13.3,9.3-29,23.7-39.7,6.3-4.7,12.4-7.2,17.5-7.2s9.9,4,9.9,9.5S2465.1,639.3,2460.9,639.3Z"/>
      <path class="a" d="M2538.2,679.4a15,15,0,0,1-9.1,3.8c-4,0-7.6-4.4-7.6-9.5s2.8-11.8,6.3-18.3l3-5.5.8-1.7V648l.4-1.7c-11.9,16-16.9,21.3-26.4,29.1-5.5,4.5-10.6,7-14.4,7s-7.8-4.4-7.8-10.8c0-13.9,12.3-32.5,28.3-43,7-4.5,16.9-7.6,24.5-7.6a23.2,23.2,0,0,1,10.3,2.1l8.3-.4-23,49.6a18.3,18.3,0,0,1-.5,1.9,4.9,4.9,0,0,0-.4,2.1,1.5,1.5,0,0,0,1.5,1.5c1,0,1.7-.5,4-2.4,5.9-5.7,7.6-7.8,15.6-18.3l3.2,2.3C2545.4,672.5,2543.1,675.2,2538.2,679.4Zm-.4-54.2c-6.4,0-15,4-22.2,10.1s-12.5,14-18.1,25.4c-3.4,7.3-4.9,11.3-4.9,13.9a2.3,2.3,0,0,0,2.3,2.3,5.3,5.3,0,0,0,1.7-.4,11.1,11.1,0,0,0,3.2-2.1,169.8,169.8,0,0,0,29.5-30.9l6.8-9.5,4.4-6.7.7-1.7A10.8,10.8,0,0,0,2537.8,625.2Z"/>
      <path class="a" d="M2668.5,677.8c-3.2,3.1-6.6,4.8-9.6,4.8-4.6,0-7.6-3.8-7.6-9.5s2-10.3,6.4-18.4l4.6-8,3.8-7c4.3-7.6,5.3-10.1,5.3-11.8a1.8,1.8,0,0,0-1.9-1.9c-2.5,0-8,3.6-13.9,9.3a202.7,202.7,0,0,0-21.8,25.4c-5,6.5-7.2,10.3-12.8,19.8h-11.5l17.2-36.7,5.7-13.1a5.8,5.8,0,0,0,.8-2.3,1.8,1.8,0,0,0-1.9-1.9c-1.7,0-5.3,1.9-8.5,4.6a69.9,69.9,0,0,0-8.6,8.6c-10.8,11.9-16.3,19.5-29.4,40.8H2573l17.6-34.2a23.1,23.1,0,0,1,1.4-2.3c1.7-2.6,4-7.6,6.8-14.4a9.5,9.5,0,0,0,.6-2.7c0-1.1-.4-1.7-1.3-1.7s-4.8,1.9-7.6,4a30.6,30.6,0,0,0-3.3,2.9c-3.8,3.6-6.2,5.8-11.9,11.9l-2.9-2.6c3.8-4,6.7-6.9,8.6-9a84.5,84.5,0,0,1,10-8.9,15.6,15.6,0,0,1,8.8-2.8c4.9,0,7.6,2.8,7.6,8.1s-1.2,7.8-5.9,18.8l4-4.3.3-.4c12.8-15,22.5-22.1,30.4-22.1,4.6,0,6.7,2.7,6.7,7.8a16,16,0,0,1-.4,4.4c-.4,2.1-.9,3.6-3.4,9.7l-2.1,5.7-.6,1.5c12.6-14.6,16.4-18.4,24-24.3,3.8-2.9,7.8-4.6,11-4.6,5.3,0,8.5,3.6,8.5,9,0,3.6-.9,6.8-3.8,12.1L2660.9,671c-1.5,2.7-1.9,4-1.9,5.1a1.7,1.7,0,0,0,1.9,1.9,6.9,6.9,0,0,0,3.7-1.5,21.3,21.3,0,0,0,2.2-2.1c3.3-3.8,5.2-6.1,11.6-15.7l3.3,1.5C2676.1,669.9,2673.7,673.3,2668.5,677.8Z"/>
      <path class="a" d="M2863.5,677.8c-3.2,3.1-6.7,4.8-9.7,4.8-4.6,0-7.6-3.8-7.6-9.5s2.1-10.3,6.4-18.4l4.6-8,3.8-7c4.4-7.6,5.3-10.1,5.3-11.8a1.7,1.7,0,0,0-1.9-1.9c-2.4,0-7.9,3.6-13.8,9.3a203.3,203.3,0,0,0-21.9,25.4c-4.9,6.5-7.2,10.3-12.7,19.8h-11.6l17.3-36.7,5.7-13.1a5.5,5.5,0,0,0,.7-2.3,1.8,1.8,0,0,0-1.9-1.9c-1.7,0-5.3,1.9-8.5,4.6a69.9,69.9,0,0,0-8.6,8.6c-10.8,11.9-16.3,19.5-29.4,40.8h-11.8l17.7-34.2a16.7,16.7,0,0,1,1.3-2.3c1.7-2.6,4-7.6,6.8-14.4a9.5,9.5,0,0,0,.6-2.7c0-1.1-.4-1.7-1.3-1.7s-4.8,1.9-7.6,4a23.6,23.6,0,0,0-3.2,2.9c-3.8,3.6-6.3,5.8-12,11.9l-2.9-2.6c3.8-4,6.7-6.9,8.6-9a77.6,77.6,0,0,1,10.1-8.9,15.3,15.3,0,0,1,8.7-2.8c4.9,0,7.6,2.8,7.6,8.1s-1.1,7.8-5.9,18.8l4-4.3.4-.4c12.7-15,22.4-22.1,30.4-22.1,4.5,0,6.6,2.7,6.6,7.8a16,16,0,0,1-.4,4.4c-.3,2.1-.9,3.6-3.4,9.7-.5,1.7-1.3,3.6-2.1,5.7l-.5,1.5c12.5-14.6,16.3-18.4,23.9-24.3,3.8-2.9,7.8-4.6,11-4.6,5.4,0,8.6,3.6,8.6,9,0,3.6-1,6.8-3.8,12.1L2855.9,671c-1.5,2.7-1.9,4-1.9,5.1s.5,1.9,1.9,1.9a6.6,6.6,0,0,0,3.6-1.5,21.9,21.9,0,0,0,2.3-2.1c3.2-3.8,5.1-6.1,11.6-15.7l3.2,1.5C2871.1,669.9,2868.6,673.3,2863.5,677.8Z"/>
      <path class="a" d="M2939.9,659c-9.2,14.1-21.7,23.8-30.8,23.8s-14.1-8.2-14.1-19.6,5.5-23.4,15.8-31.7c6.4-5.3,11.6-7.6,24.3-11.2l1,3.4c-8.8,3.8-12,5.9-17,10.4-10,9.7-16.1,22.8-16.1,35.2,0,5.7,2.5,9.1,7,9.1s9-2.6,13.5-7.2c6.9-6.7,10.5-12,17.3-26.6-2.5-5.3-3.2-8.6-3.2-13.5s2.1-8.5,5.5-8.5,6.1,3.8,6.1,9.5C2949.2,640,2945.9,649.5,2939.9,659Z"/>
      <path class="a" d="M3032.4,622.9c-2.1,8.4-4.4,13.9-11.8,27.2,1.1,2.3,1.3,2.7,5.3,6.7l3.1,3,1.3,1.3-2.3,3.1a110.9,110.9,0,0,1-10.1-9.9l-2,2.6-3.3,5c-8,12.3-20.9,21.6-29.8,21.6-7.2,0-12.4-7.2-12.4-16.9s3.7-19,10.1-27.3c4.2-5.3,7.8-8.4,16.9-14.7a97.8,97.8,0,0,1-7.4-15.9,45.3,45.3,0,0,1-3.2-16c0-12.1,8.2-21.3,19-21.3,15,0,28.3,18.1,28.3,38.6A53.8,53.8,0,0,1,3032.4,622.9Zm-20.9,23-3.1-3.6-5.8-8.9-3.3-4.6c-7.8,9.5-10.6,13.5-15,22.1s-7.4,16.5-7.4,21.6,2.5,6.5,7,6.5a15.3,15.3,0,0,0,11.1-4.6c6.2-5.9,8.7-9.3,18.2-26.2Zm-5.5-70.3c-7.8,0-12.2,7.1-12.2,19.6,0,7.4,1.2,12.2,5.1,22.8l1.6,4.2,3.2-1.5,3.6-1.9,3.6-2.1,1.3,2.8-8.7,6.7,2.5,4.3a29.7,29.7,0,0,0,2.8,4.6,7.6,7.6,0,0,1,1.5,2.1c1.4,1.7,2.5,3.2,5.4,6.4,4-10,5.5-14.2,7-21.8a82.4,82.4,0,0,0,1.7-15.6C3024.4,588.7,3016.6,575.6,3006,575.6Z"/>
      <path class="a" d="M3070.8,657.1l-9.3,4a17.3,17.3,0,0,0-1.9,8.8c0,4.9,2,7.6,5.8,7.6a22.2,22.2,0,0,0,7.8-2.3,35.6,35.6,0,0,0,6.5-3.8c5.5-4,8.7-7.2,15.6-15.4l2.8,2.5c-7,8.9-10.4,12.3-16.3,16.7s-13.5,7.8-19.4,7.8-12.5-5.9-12.5-14.3c0-10,5.1-22,14-32.7s16.7-14.8,24.9-14.8c6.3,0,11.2,4.4,11.2,9.9C3100,639.5,3089.2,649,3070.8,657.1Zm19-31.7c-8.2,0-20.6,14.4-26.4,30.8,12.3-5.5,17.1-8.6,23.7-15,4.6-4.6,7.2-9,7.2-12.4C3094.3,626.9,3092.4,625.4,3089.8,625.4Z"/>
      <path class="a" d="M3155.9,599.2c-3.1,9.9-6.9,20.5-11.4,31.5-1.3,3.4-3.6,8.8-6.5,16-2.1,5.1-3.8,8.9-4.9,11.4-4.4,10.2-5.5,13.7-5.5,16.5s.7,3.4,2.1,3.4a7.9,7.9,0,0,0,4.9-2.6c4.2-3.6,8.2-8.4,12.4-14.1l6.6-9.5,3.4,2.5c-7.2,10.6-10.4,14.8-15.6,20.1s-10.6,9.1-13.6,9.1a3.5,3.5,0,0,1-1.7-.5c-4-1.5-7.1-6.7-7.1-12s1.7-11,4-16.7l16.4-39.9,8.7-20.5a33.7,33.7,0,0,0,3-13.7,10.8,10.8,0,0,0-1.3-5.5l2.5-1.4c4,6.9,5.7,12,5.7,16.4C3158,591.6,3157.2,595,3155.9,599.2Z"/>
      <path class="a" d="M3214,639.3a1.9,1.9,0,0,1-2.1-1.7,1.5,1.5,0,0,1,.2-1c.2-.2.2-.6.6-1.1a6.3,6.3,0,0,0,.8-3.4c0-4.6-2.1-6.9-6.1-6.9a7.9,7.9,0,0,0-7.8,7.8c0,2.7,1.5,6.3,4.7,11.4,6.9,10.8,8,13.7,8,19.2,0,11.6-8.3,19.9-19.9,19.9s-19.4-8.1-19.4-17.6c0-5.2,3.6-9.3,7.8-9.3s5.3,2.2,5.3,5.7a7.2,7.2,0,0,1-1,3.6l-1.5,1.7a8.6,8.6,0,0,0-1.3,4.2c0,4.1,4.7,7.8,10.4,7.8a10.9,10.9,0,0,0,11.1-11.3c0-3.6-.8-5.7-5.9-13.6l-4.8-7.8a14.5,14.5,0,0,1-2.3-7.4,20.4,20.4,0,0,1,5-12.2c3.6-4,8.7-6.6,13.3-6.6s10.2,4.9,10.2,10.8C3219.3,635.7,3216.9,639.3,3214,639.3Z"/>
    </g>
    <g>
      <path class="a" d="M1589.8,248.5c0,2.8-.8,7-2.3,12.5a104.5,104.5,0,0,0-2.2,10.5c-1.9,13.7-2.8,32.6-2.8,56.7,0,6.7.5,18.5,1.5,35.1,1.3,14.7,1.9,26.3,1.9,34.9q0,60.8-5.4,71.4c-5.2,9.1-10.9,13.7-17.2,13.7a12.4,12.4,0,0,1-10.6-5.4,22.6,22.6,0,0,1-3.8-13.2c0-.3,0-1,.1-2.2a11.1,11.1,0,0,0,.2-2.1c.8-12.6,1.7-34.7,2.5-66.3-7.1,4.3-21.4,6.4-42.8,6.4-6.6,0-16.7-.5-30.5-1.4q-1.5,8.5-1.5,37.5c0,4.3,1.2,9.6,3.7,15.9s4.2,11.1,4.2,14.3c0,5-2.2,9.3-6.5,13.1a22.3,22.3,0,0,1-14.6,5.6q-22.8,0-22.8-30.6c0-32.9,1.1-59,3.3-78.1,1.1-11.1,1.9-28.8,2.2-53.2a540.5,540.5,0,0,1,3.3-55,76.3,76.3,0,0,0,.3-9.3,44.2,44.2,0,0,1,1.4-12.3,13.8,13.8,0,0,1,5.3-7.3c4.4-2.9,8.6-4.3,12.8-4.3,6.1,0,11.1,3,15,9.2a33.6,33.6,0,0,1,5.8,18.6,26.8,26.8,0,0,1-1.3,7.6c-.9,3.1-2.1,6.5-3.6,10.3s-2.4,6.2-2.8,7.4c-2.1,6.8-3.2,19.9-3.2,39.4,0,2.9-.1,6-.4,9.2a86,86,0,0,0,1.3,20.1c4.9,2.2,11.8,3.3,20.8,3.3s24.3-1.7,47.3-5.1c1-9.9,1.4-15.2,1.4-15.8a191.5,191.5,0,0,0-1.4-20.5c-.6-9.3-.9-16.1-.9-20.5s.6-14.7,1.7-28.1c1.3-11,2.9-18.3,5-21.7a44.4,44.4,0,0,1,10.5-10.7c4.1-3.1,7.9-4.6,11.4-4.6a13,13,0,0,1,9.7,4.4A15.2,15.2,0,0,1,1589.8,248.5Z"/>
      <path class="a" d="M1821.4,370.7q0,56.1-30.5,86.9c-20.3,20.6-49.1,30.9-86.2,30.9a68,68,0,0,1-22.2-3.5,58.3,58.3,0,0,1-17.6-9.6,75.1,75.1,0,0,1-13.4-14.6,92.1,92.1,0,0,1-9.7-18,133.8,133.8,0,0,1-6.1-20.3,167.8,167.8,0,0,1-3.4-21.1q-.9-10.2-.9-20.7c0-13,2.2-27.9,6.7-44.5a271.5,271.5,0,0,1,18.4-48.7c8.2-15.9,18.4-29.1,30.8-39.6s25.9-16.4,40.3-16.4a69.3,69.3,0,0,1,35.2,9.2,82.6,82.6,0,0,1,26.6,23.9,155.4,155.4,0,0,1,18,33.3,198.3,198.3,0,0,1,10.7,37.1A202.7,202.7,0,0,1,1821.4,370.7Zm-40.7-17.2c0-9.4-2.7-22.1-8.2-38.1s-11.2-28.6-17.1-37.2q-7.2-10.5-20.1-10.5a15.5,15.5,0,0,0-7.1,1.3c-17.3,7.8-31.2,23.4-41.5,47s-15,46.4-15,67.8a119.7,119.7,0,0,0,6.1,37.2c4.2,12.9,10,22.8,17.2,29.7,3.3,3,8,4.5,14,4.5s15.3-1.7,24.7-5.2,17.8-7.6,21.7-11.2Q1780.8,416,1780.7,353.5Z"/>
      <path class="a" d="M2024.3,255.8c0,9.4-5,15-15.1,16.9-6.8,1.4-15.7,2.3-26.6,3a114.5,114.5,0,0,0-29.4,4.5c-3,8.2-4.5,20.6-4.5,37,0,12.6.8,31.8,2.3,57.4s2.5,46,2.5,57.2c0,36.4-7.9,54.7-23.7,54.7-4.7,0-8.4-2.3-11.2-6.8a28.7,28.7,0,0,1-4.1-15.3,188.6,188.6,0,0,1,1.2-19.2,168.2,168.2,0,0,0,1.3-19.5c0-5.1-.3-12.6-1-22.4-.4-13.1-.6-20.5-.6-22.3,0-11.8.1-22.3.3-31.4.4-18.4.7-28.8.7-31.4,0-18.7-2.1-31.7-6.1-39.1a36,36,0,0,0-6-.3q-6.7,0-19.5.9c-10,.8-16.4,1.1-19.2,1.1-15.9,0-23.8-4.7-23.8-14a16.8,16.8,0,0,1,.6-4.9c2.9-6.3,6.7-11.1,11.6-14.3s11.3-5.2,19.2-6.1a108.2,108.2,0,0,1,13.2-1,111.8,111.8,0,0,1,14.3,0l11.9.3q18.5,0,30.9-.3c8.4-.2,18.8-.3,31.4-.3a179.7,179.7,0,0,0,29.6-2.3,14.9,14.9,0,0,1,4-.4,13.9,13.9,0,0,1,11.5,5.4A19.5,19.5,0,0,1,2024.3,255.8Z"/>
      <path class="a" d="M2197.6,268c0,5.5-2.4,10.4-7.3,14.5a24,24,0,0,1-16.2,6.3c-4.1,0-10.6-3.6-19.5-10.9s-16-10.8-22.6-10.8q-12.9,0-21,5.7c-5.4,3.8-8.1,9.3-8.1,16.6s3.1,13.1,9.2,21.4a181.4,181.4,0,0,0,20.5,23.2c3.4,3,11.5,10.4,24.4,22.3,8.2,7.6,14,13.9,17.5,18.9,5.4,7.5,9.1,13,11.2,16.6a88.2,88.2,0,0,1,7.7,17.4,61.1,61.1,0,0,1,3.2,19.1c0,8.8-3.5,19-10.6,30.7s-14.1,19-22.3,22.8-17.8,5.7-28.9,5.7q-22.5,0-48.3-9.6c-16.8-6.8-29.2-15.6-37.4-26.3s-10.6-17.5-10.6-24.8A18.4,18.4,0,0,1,2043,415c2.9-3.7,6.4-5.6,10.2-5.6,6.1,0,11.8,4.2,17.4,12.5q16.8,26.6,61.7,26.6a26.5,26.5,0,0,0,17-5.8c4.9-3.8,7.3-8.6,7.3-14.4,0-15.6-10.8-31.9-32.6-49-14.2-11.7-23.2-19.3-27.2-22.7a108.1,108.1,0,0,1-23.6-30.5,77.9,77.9,0,0,1-9.1-36.4c0-14.5,7.2-29,21.5-43.2s28.9-21.8,43.2-21.8c10.5,0,21.9,2.6,34.3,7.7s21.1,10.9,26.8,18.6S2197.6,264,2197.6,268Z"/>
      <path class="a" d="M2386.9,255.8c0,9.4-5,15-15.1,16.9-6.8,1.4-15.6,2.3-26.6,3a114.5,114.5,0,0,0-29.4,4.5c-3,8.2-4.5,20.6-4.5,37,0,12.6.8,31.8,2.4,57.4s2.5,46,2.5,57.2c0,36.4-8,54.7-23.8,54.7-4.7,0-8.4-2.3-11.2-6.8a28.7,28.7,0,0,1-4.1-15.3,188.6,188.6,0,0,1,1.2-19.2,168.2,168.2,0,0,0,1.3-19.5c0-5.1-.3-12.6-.9-22.4-.5-13.1-.7-20.5-.7-22.3,0-11.8.1-22.3.3-31.4.5-18.4.7-28.8.7-31.4,0-18.7-2.1-31.7-6.1-39.1a35.2,35.2,0,0,0-6-.3q-6.6,0-19.5.9c-10,.8-16.4,1.1-19.2,1.1-15.8,0-23.8-4.7-23.8-14a13.7,13.7,0,0,1,.7-4.9c2.8-6.3,6.6-11.1,11.5-14.3s11.3-5.2,19.2-6.1a109.6,109.6,0,0,1,13.2-1,111.8,111.8,0,0,1,14.3,0l11.9.3c12.3,0,22.6-.1,31-.3s18.8-.3,31.4-.3a179.3,179.3,0,0,0,29.5-2.3,15.3,15.3,0,0,1,4.1-.4,13.7,13.7,0,0,1,11.4,5.4A19.5,19.5,0,0,1,2386.9,255.8Z"/>
      <path class="a" d="M2606.3,466.3a16.1,16.1,0,0,1-4.4,11.4,14.3,14.3,0,0,1-10.9,4.7h-7c-5.3,0-11.7-4-19.3-11.9-6.2-6.4-13.7-15.2-22.5-26.2a138.9,138.9,0,0,0-25.1-26.3c-10-8.1-19.2-12.2-27.7-12.2h-6.7q-10,0-14.7,4.2v2.9c0,1.5.2,7.2.6,17,.7,7.4,1,13.1,1,17,0,25.8-8,38.6-23.9,38.6-4.6,0-8.2-2.2-10.7-6.7a32.2,32.2,0,0,1-3.7-15.9c0-7.4.9-17.7,2.8-30.8s3.7-23,3.9-26.6q2.9-35.1,2.8-118.6a87.5,87.5,0,0,0-7.6-10.6q-4.2-8.6-.3-15.9a23.4,23.4,0,0,1,9.8-9.7l6.4-3.5a94.4,94.4,0,0,1,12.8-5.4c20.2-8.2,39.6-12.2,58-12.2,34.7,0,56.7,10.4,65.9,31.4a97.8,97.8,0,0,1,8.6,41.2q0,25.2-17.2,46.1a127.7,127.7,0,0,1-42.3,33.3l11.9,14.4c1.8,2.3,6.2,7.4,13.1,15.3l9.2,9.4c6.7,6.6,10.4,10.4,11.3,11.4a79.5,79.5,0,0,0,10.3,9.4l5.8,4.6a24.8,24.8,0,0,0,3.1,2.4C2604.1,452.3,2606.3,458.3,2606.3,466.3ZM2557.4,299c0-13.7-4.2-22.2-12.5-25.5a37.5,37.5,0,0,0-11.8-3.5,148.7,148.7,0,0,0-17.4-.7,56.2,56.2,0,0,0-30.7,8.6q-12.7,22.8-12.8,59.2c0,5,.5,11.3,1.3,18.9a128.7,128.7,0,0,0,17.3,1.5c15.2,0,30-6,44.4-18.2S2557.4,313.5,2557.4,299Z"/>
      <path class="a" d="M2776.9,253.2c0,4-1.9,8-5.8,11.8s-7.6,5-13.4,6.8-14,3.7-24.4,5.7l-15.6,2.7-15.5,1.9q-8.5,1.2-10.5,1.2c-4.2,8.1-6.4,20.6-6.4,37.5a147,147,0,0,0,1.3,21.1c3.3-1.4,12.7-2.6,28.1-3.6,17-1,28.8-1.5,35.3-1.5,16,0,23.9,3.4,23.9,10.3s-1.4,11-4.3,14.4-7.3,5.9-13.2,7.9a90.3,90.3,0,0,1-10,2.2l-11.1,1-9.3,1-44.6,9.3c0,.1.1.5.2,1.2a9.3,9.3,0,0,1,.1,1.3q0,6.6-1.5,23.1c-1.1,10.9-1.6,18.5-1.6,22.6a72,72,0,0,0,.3,8.6c3.4,2,7.7,3,13.2,3s13.1-1,24.6-3,19.6-2.8,24.9-2.8a40.5,40.5,0,0,1,21.6,6.1c6.7,4,10.1,9.5,10.1,16.6,0,5.3-3.4,9.4-10.1,12.2a56.5,56.5,0,0,1-19.6,4.5q-31.8,1.8-65.6,12.8a20.5,20.5,0,0,1-7.7,1.3q-14.2,0-19.2-13.2c-4-10.8-6.1-27.8-6.1-50.9,0-8.8.9-24.1,2.5-45.9s2.7-38.6,2.7-46.1c0-9.6.6-24.1,1.9-43.6s2.8-31,4.8-35.2a29,29,0,0,1,10.2-10.9c4.8-3.2,9.3-4.9,13.7-4.9a10.6,10.6,0,0,1,9.7,5.2c3.9-.8,8.7-2.2,14.7-4.1,13-4.4,24.1-6.7,33.3-6.7a67.1,67.1,0,0,1,25,5C2772.4,242.2,2776.9,246.9,2776.9,253.2Z"/>
      <path class="a" d="M2965.8,462.9c0,7.3-1.1,12.5-3.4,15.8s-6.4,4.9-12.5,4.9-10-3.5-12.9-10.6a153.4,153.4,0,0,1-7-25.8c-1.4-9.4-3.6-16.2-6.4-20.1l-33.6,2.5c-4.1,0-11.4.5-22,1.5l-18,1.9a64.1,64.1,0,0,0-4.2,18q0,7-.6,18a27.2,27.2,0,0,1-2,8.3c-1.1,2.8-2.6,4.7-4.4,5.7l-2.8,1.3a12.2,12.2,0,0,0-2.7,1.2c-5.1,2-8.3,3-9.5,3-8.4,0-12.5-3.2-12.5-9.7q0-40.5,18.9-97.2c7.5-22.7,11.8-36.6,13.1-41.7a321.6,321.6,0,0,1,8.6-31.9c1.3-4.4,4.2-14.8,8.6-31.4s7.4-26.6,10.6-34.5,8.9-11.3,17-11.3,13.1,4,18.2,11.9,8.7,17.6,13.4,32.7q5.6,17,14.1,51.1c4.2,16.7,7.5,29,9.6,36.8a18.3,18.3,0,0,1,1.2,3.4c.5,1.5,1.1,3.7,2,6.7s1.6,5.6,2.3,7.9c2.7,8.9,4.8,16.1,6.1,21.7.9,3.2,2.6,9.9,5,19.9A151.6,151.6,0,0,1,2965.8,462.9Zm-48-68.5c-.4-1.3-3.1-10.4-7.9-27.2a351.3,351.3,0,0,0-11.1-34.3,128,128,0,0,0-13-24.3l-3.4,8.6c-.4.9-1.6,3.9-3.6,9.3l-3.2,8.7-3.6,9.2-3.1,8.6c-.8,2.7-2.6,8.7-5.5,18-3.4,12.1-5.5,21.3-6.4,27.8,7.1-4.1,16.5-6.1,28.2-6.1l5.4.2,12,.7C2908,394,2913,394.2,2917.8,394.4Z"/>
      <path class="a" d="M3239.4,454.3c0,21.7-6.1,32.6-18.3,32.6-6.5,0-12-7.1-16.6-21.2a289.9,289.9,0,0,1-9.2-48,498.4,498.4,0,0,0-8.7-53.7c-3.6-18.2-8-30-13.2-35.5q-10.7,38-16.2,65.6l-1,4.7q-8.8,44.8-19.5,65.6a17.3,17.3,0,0,0-2.3,3.6c-4.2,7-9.8,10.5-16.9,10.5s-14.1-3.9-18-11.7c-2.8-5.2-6.2-15.3-10.1-30.2-2.5-10.8-4.7-19.3-6.4-25.3l-6.4-21.7q-11.7-42.3-19.3-51.6a757.3,757.3,0,0,0-19.5,95.5c-.3,1.5-.6,8.1-.9,19.7s-1.4,18.2-3.3,23.7-8.7,9.6-19.5,9.6c-6.2,0-10.2-1.3-12.2-4s-2.8-7.5-2.8-14.8q0-14.6,5.4-41.4c4-18,6.1-28.6,6.4-31.9,1.5-10.5,4.1-23.9,8-40.3,4.3-18.6,7-32.4,8.3-41.4s3.2-20.5,6.7-33.6,7-24.1,10-30.6,9.6-10.6,18-10.6,13,4.2,17.8,12.8a77.8,77.8,0,0,1,10,25.6l4,24.1c1.3,7,3.1,16.5,5.5,28.4l5.2,24.7a414.2,414.2,0,0,0,13.4,50.5c1.8-1.2,4.7-10.6,8.9-28.2q5-21.2,12.5-56.7c4.3-18.9,7.7-31.5,10.3-37.6l4.4-11.9,5.8-14.7a64.8,64.8,0,0,1,11.9-19.5c4.7-5.4,10.2-7.8,16.2-7.4a10.2,10.2,0,0,1,3.3.3c7.3,1.4,11.7,7,13.1,16.9.4,2.5.9,6.7,1.6,12.5q.6,6.3.6,14.4v10q.4,17.7,3.3,30l10.8,51.5c5.4,26,10.2,45.8,14.5,59.6A122.6,122.6,0,0,1,3239.4,454.3Z"/>
    </g>
  </g>
</svg>
