<svg xmlns="http://www.w3.org/2000/svg" xmlns:xlink="http://www.w3.org/1999/xlink" viewBox="0 0 707 170.5"><defs><style>.a{fill:url(#a);}</style><linearGradient id="a" y1="85.25" x2="707.02" y2="85.25" gradientUnits="userSpaceOnUse"><stop offset="0" stop-color="#f50f23"/><stop offset="1" stop-color="#fab016"/></linearGradient></defs><path class="a" d="M97.2,86.7c0,26.9-19.5,47.7-43.2,47.7-12.1,0-20.9-4.2-26.9-11v8.4H0V5.4H27.1V50c6-6.8,14.8-11,26.9-11C77.7,39,97.2,59.8,97.2,86.7Zm-27.1,0c0-13.6-9.1-22-21.5-22s-21.5,8.4-21.5,22,9,22,21.5,22S70.1,100.2,70.1,86.7ZM107.5,0h27.1V131.8H107.5Zm37.4,86.7c0-26.9,21.3-47.7,47.9-47.7a47.7,47.7,0,1,1,0,95.4C166.2,134.4,144.9,113.6,144.9,86.7Zm68.7,0c0-12.8-9.1-21.3-20.8-21.3S172,73.9,172,86.7s9.1,21.3,20.8,21.3S213.6,99.5,213.6,86.7ZM347.7,41.5v85.8c0,30.4-23.7,43.2-47.7,43.2-18.8,0-34.5-7-42.8-21.9l23.1-13.3c3.4,6.3,8.7,11.4,20.6,11.4s20.4-6.5,20.4-19.4V119c-6,7.4-14.6,11.8-26.4,11.8-25.6,0-44.4-21-44.4-45.9S269.3,39,294.9,39c11.8,0,20.4,4.3,26.4,11.8V41.5ZM321.3,84.9c0-12.5-9-21-21.9-21s-21.8,8.5-21.8,21,9,20.9,21.8,20.9S321.3,97.4,321.3,84.9ZM455.2,41.5v85.8c0,30.4-23.7,43.2-47.7,43.2-18.8,0-34.5-7-42.8-21.9l23.1-13.3c3.5,6.3,8.7,11.4,20.6,11.4s20.4-6.5,20.4-19.4V119c-5.9,7.4-14.6,11.8-26.3,11.8-25.7,0-44.5-21-44.5-45.9S376.8,39,402.5,39c11.7,0,20.4,4.3,26.3,11.8V41.5ZM428.8,84.9c0-12.5-9-21-21.8-21s-21.9,8.5-21.9,21,9,20.9,21.9,20.9S428.8,97.4,428.8,84.9Zm87.1,25.3c7.4,0,13.8-2.9,17.4-6.9L555,115.8c-8.9,12.3-22.3,18.6-39.4,18.6-30.9,0-50.1-20.8-50.1-47.7S485.1,39,513.6,39c26.4,0,45.9,20.4,45.9,47.7a53.4,53.4,0,0,1-1.1,10.8H494.3C497.7,106.9,506,110.2,515.9,110.2Zm16.7-32.9C529.7,66.8,521.5,63,513.4,63c-10.3,0-17.1,5.1-19.7,14.3ZM624,39.7V70.4c-11.2-1.8-27.1,2.7-27.1,20.6v40.8H569.8V41.5h27.1V57.6C600.5,45.5,612.6,39.7,624,39.7Zm83,65.1c0,20.7-18,29.6-37.5,29.6s-31.8-6.9-38.9-21.5l23.5-13.4c2.3,6.9,7.4,10.7,15.4,10.7s9.7-2,9.7-5.6c0-10-44.4-4.7-44.4-36,0-19.7,16.6-29.6,35.4-29.6,14.6,0,27.6,6.5,35.2,19.3L682.3,70.8c-2.6-4.7-6.2-7.9-12.1-7.9s-7.6,1.8-7.6,5C662.6,78.2,707,71.3,707,104.8Z"/></svg>