<?xml version="1.0" encoding="utf-8"?>
<!-- Generator: Adobe Illustrator 24.2.3, SVG Export Plug-In . SVG Version: 6.00 Build 0)  -->
<svg version="1.1" id="Слой_1" xmlns="http://www.w3.org/2000/svg" xmlns:xlink="http://www.w3.org/1999/xlink" x="0px" y="0px"
	 viewBox="0 0 2055.5 514" style="enable-background:new 0 0 2055.5 514;" xml:space="preserve">
<style type="text/css">
	.st0{opacity:0.15;}
	.st1{fill:#FFFFFF;}
	.st2{opacity:0.15;fill:#FFFFFF;enable-background:new    ;}
</style>
<g class="st0">
	<path class="st1" d="M303.4,139.2c5.8,5.8,6.4,14.6-2.2,23.2c-4.8,4.7-11,7.9-16.4,8.2l-1.6-6c4.3-0.1,9.6-2.4,13.7-6.4
		s5.6-10.4,1.9-14s-8.5-3.8-16.3,4l-7.6,7.7l-15.8-19.4l18.9-19l4.2,4.2l-14.9,14.9l8.3,10.2l3.7-3.8
		C289.4,133,297.5,133.2,303.4,139.2z"/>
	<path class="st1" d="M339.1,115.4l4.1,4.1l-24.1,24.2l-3.3-3.3l0.5-26.9c0.1-7-1.3-9.7-3.5-11.9s-8-3.1-12.7,1.6s-5.4,7.7-4.9,12.3
		l-6.1,0.4c-0.6-5.8,1.9-12.1,7.2-17.4c7-7,15.1-7.9,20.9-2.1c3.2,3.2,5.2,7.1,5,16l-0.4,20.2L339.1,115.4z"/>
	<path class="st1" d="M383.6,79.2l-24.5-24.5l8.2,32.6l-2.2,2.2l-32.4-8.1l24.4,24.3l-4.6,4.6l-33.7-33.6l4-3.9l37.6,9.6l-9.8-37.5
		l4-3.9l33.6,33.6L383.6,79.2z"/>
</g>
<path class="st2" d="M206.6,171.7c-15,15-15,39.3,0,54.3s39.3,15,54.3,0s15-39.3,0-54.3c0,0,0,0,0,0
	C245.9,156.7,221.6,156.7,206.6,171.7z M245.6,227.7L206.8,189l47-8.2L245.6,227.7z"/>
<g class="st0">
	<path class="st1" d="M1212.1,185c5.8,5.8,6.3,14.6-2.3,23.2c-4.7,4.7-11,7.9-16.4,8.2l-1.6-6c4.4-0.1,9.6-2.4,13.7-6.4
		s5.6-10.4,2-14s-8.6-3.8-16.3,4l-7.7,7.7l-15.8-19.4l19-19l4.2,4.2l-15,15l8.3,10.1l3.8-3.8C1198,178.8,1206.1,179,1212.1,185z"/>
	<path class="st1" d="M1247.7,161.2l4.2,4.2l-24.2,24.1l-3.2-3.3l0.5-26.8c0.1-7.1-1.4-9.8-3.5-12s-8-3.1-12.7,1.6s-5.4,7.7-5,12.3
		l-6.1,0.4c-0.6-5.8,2-12.1,7.2-17.4c7-7,15.2-7.9,20.9-2.1c3.3,3.2,5.3,7.1,5.1,16.1l-0.4,20.1L1247.7,161.2z"/>
	<path class="st1" d="M1292.3,125l-24.6-24.5l8.3,32.6l-2.2,2.2l-32.4-8.1l24.3,24.3l-4.6,4.6l-33.6-33.6l3.9-3.9l37.7,9.6
		l-9.8-37.5l3.9-3.9l33.7,33.6L1292.3,125z"/>
</g>
<path class="st2" d="M1115.3,217.5c-15,15-15,39.3,0,54.3c15,15,39.3,15,54.3,0s15-39.3,0-54.3c0,0,0,0,0,0
	C1154.6,202.5,1130.3,202.5,1115.3,217.5z M1154.2,273.5l-38.7-38.7l46.9-8.2L1154.2,273.5z"/>
<g class="st0">
	<path class="st1" d="M114,104.3l4.2,4.2L94,132.6l-3.2-3.2l0.4-26.9c0.1-7-1.3-9.8-3.4-11.9s-8-3.2-12.7,1.5s-5.4,7.7-5,12.3
		l-6.1,0.4c-0.6-5.8,2-12.1,7.2-17.4c7-7,15.1-7.9,20.9-2.1c3.3,3.2,5.2,7.1,5,16.1l-0.3,20.1L114,104.3z"/>
	<path class="st1" d="M138,68.5c5.8,5.8,6.3,14.6-2.3,23.2c-4.8,4.8-11,7.9-16.4,8.3l-1.6-6c5.2-0.4,10.1-2.7,13.7-6.5
		c5.1-5.1,5.6-10.3,1.9-14s-8.5-3.7-16.3,4l-7.6,7.7L93.6,65.8l19-18.9l4.1,4.1l-14.9,15l8.3,10.1l3.8-3.7
		C123.9,62.3,132,62.6,138,68.5z"/>
	<path class="st1" d="M188.5,38.2l-24.6-24.5l8.3,32.6l-2.2,2.2l-32.4-8.1l24.3,24.3l-4.6,4.6l-33.6-33.6l3.9-3.9l37.7,9.6
		l-9.8-37.5l3.9-3.9l33.7,33.6L188.5,38.2z"/>
</g>
<path class="st2" d="M11.2,131c-15,15-15,39.3,0,54.3s39.3,15,54.3,0c15-15,15-39.3,0-54.3c0,0,0,0,0,0C50.5,116,26.2,116,11.2,131z
	 M50.2,187l-38.8-38.8l47-8.2L50.2,187z"/>
<g class="st0">
	<path class="st1" d="M1972.2,413.7l4.2,4.2l-24.2,24.1l-3.3-3.2l0.5-26.9c0.1-7-1.3-9.8-3.4-11.9s-8-3.1-12.8,1.6
		s-5.3,7.6-4.9,12.2l-6.1,0.4c-0.6-5.8,2-12.1,7.2-17.3c7-7.1,15.1-8,20.9-2.2c3.3,3.3,5.2,7.1,5,16.1l-0.3,20.1L1972.2,413.7z"/>
	<path class="st1" d="M1996.1,377.9c5.9,5.8,6.4,14.6-2.2,23.2c-4.8,4.8-11,7.9-16.4,8.3l-1.6-6c5.2-0.4,10.1-2.7,13.7-6.5
		c5.1-5.1,5.6-10.3,1.9-14s-8.5-3.7-16.3,4.1l-7.6,7.6l-15.8-19.4l18.9-18.9l4.2,4.2l-14.9,14.9l8.3,10.1l3.7-3.7
		C1982.1,371.7,1990.2,372,1996.1,377.9z"/>
	<path class="st1" d="M2046.7,347.6l-24.6-24.5l8.3,32.6l-2.2,2.2l-32.4-8.1l24.3,24.3l-4.6,4.6l-33.6-33.6l3.9-3.9l37.7,9.6
		l-9.8-37.4l3.9-4l33.7,33.6L2046.7,347.6z"/>
</g>
<path class="st2" d="M1869.4,440.4c-15,15-15,39.3,0,54.3c15,15,39.3,15,54.3,0s15-39.3,0-54.3c0,0,0,0,0,0
	C1908.7,425.4,1884.4,425.4,1869.4,440.4z M1908.4,496.4l-38.8-38.8l47-8.2L1908.4,496.4z"/>
<g class="st0">
	<path class="st1" d="M841.8,351.1l4.2,4.2l-24.2,24.1l-3.2-3.2l0.4-26.9c0.1-7-1.3-9.8-3.4-11.9s-8-3.1-12.7,1.6s-5.4,7.6-5,12.2
		l-6.1,0.4c-0.6-5.8,2-12.1,7.2-17.3c7-7.1,15.1-8,20.9-2.2c3.3,3.3,5.2,7.1,5,16.1l-0.3,20.1L841.8,351.1z"/>
	<path class="st1" d="M865.8,315.3c5.8,5.8,6.3,14.6-2.3,23.2c-4.7,4.8-11,7.9-16.4,8.3l-1.6-6c5.2-0.4,10.1-2.7,13.7-6.5
		c5.1-5.1,5.6-10.3,2-14s-8.6-3.7-16.4,4.1l-7.6,7.6l-15.8-19.4l19-18.9l4.1,4.2l-14.9,14.9l8.3,10.1l3.8-3.7
		C851.7,309.1,859.8,309.4,865.8,315.3z"/>
	<path class="st1" d="M916.3,285l-24.6-24.5l8.3,32.6l-2.2,2.2l-32.4-8.1l24.3,24.3l-4.6,4.6l-33.6-33.6l3.9-3.9l37.7,9.6l-9.8-37.4
		l3.9-4l33.7,33.6L916.3,285z"/>
</g>
<path class="st2" d="M739,377.8c-15,15-15,39.3,0,54.3c15,15,39.3,15,54.3,0s15-39.3,0-54.3c0,0,0,0,0,0
	C778.3,362.9,754,362.9,739,377.8z M778,433.8L739.2,395l47-8.2L778,433.8z"/>
<g class="st0">
	<path class="st1" d="M1750.3,371.9c5.8,5.8,6.3,14.6-2.3,23.2c-4.7,4.8-11,7.9-16.4,8.3l-1.6-6c5.2-0.4,10.1-2.7,13.7-6.5
		c5.1-5.1,5.6-10.3,2-14s-8.6-3.7-16.4,4l-7.6,7.7l-15.8-19.4l19-18.9l4.2,4.1l-15,15l8.3,10.1l3.8-3.7
		C1736.2,365.7,1744.3,366,1750.3,371.9z"/>
	<path class="st1" d="M1782.5,339.4c6.5,6.5,5.4,15.9-1.3,22.5c-9,9.1-20.2,8.1-30.9-2.6s-11.1-24.1-1.7-33.5
		c3.2-3.2,6.8-5.6,10.3-6.4l1.9,5.6c-2.8,0.5-5.6,2.4-8,4.8c-6.8,6.8-6.9,15.5,1.5,23.9l1.3,1.1c-1-4.8,1-9.9,5.2-14
		C1767.5,334.1,1776.3,333.2,1782.5,339.4z M1778,344.3c-3.9-4-9.4-3.5-14.1,1.2s-4.9,10.5-1.2,14.2s9.2,3.7,14.4-1.5
		S1782,348.2,1778,344.3z"/>
	<path class="st1" d="M1832.8,309.6l-24.6-24.4l8.3,32.5l-2.2,2.2l-32.4-8.1l24.3,24.3l-4.6,4.7l-33.6-33.7l3.9-3.9l37.7,9.6
		l-9.8-37.4l3.9-4l33.7,33.6L1832.8,309.6z"/>
</g>
<path class="st2" d="M1696.8,393.9c-1.7-1.3-3.6-2.4-5.6-3.2c-2-0.8-4.1-1.4-6.2-1.6c-1-0.1-2-0.1-3,0.1c-1.5,0.2-3,0.5-4.4,0.9
	c-2.5,0.7-4.9,2-7,3.6c-0.9,0.8-1.8,1.6-2.5,2.6c-1.2,1.5-2.1,3.3-2.6,5.1c-0.6,1.8-0.9,3.7-1,5.6c-0.1,3.1,0.2,6.2,1,9.2
	c0,0.1,0.1,0.2,0.1,0.3s-0.1,0.1-0.1,0h-0.3c-2.3-0.6-4.6-1-7-1c-2.1-0.1-4.2,0.1-6.3,0.5c-2.5,0.6-4.9,1.7-6.9,3.4
	c-1.1,0.8-2.1,1.9-2.9,3c-0.9,1.2-1.6,2.5-2.2,3.9c-0.8,2-1.3,4-1.7,6.1c-0.1,1.1-0.2,2.3-0.1,3.4c0.2,1.6,0.5,3.1,1,4.6
	c1.1,3.4,2.9,6.6,5.3,9.2c1.1,1.3,2.4,2.4,3.8,3.4c1.7,1.3,3.6,2.3,5.6,3.1c2.7,1.1,5.6,1.8,8.5,2.1c3,0.3,6,0.4,9,0.1l6-0.7
	l10.8-1.5c3.8-0.5,7.6-0.8,11.4-0.9c1.6,0,3.3,0.1,4.9,0.4h0.2v-0.3c-0.1-0.5-0.2-1.1-0.2-1.6c-0.2-1.3-0.2-2.5-0.1-3.8
	c0-2.6,0.2-5.2,0.5-7.8c0.4-3.4,0.8-6.8,1.3-10.2s0.7-5.2,1-7.8c0.4-2.7,0.5-5.5,0.3-8.3c-0.1-2.7-0.5-5.3-1.2-7.9
	c-1.1-3.9-3-7.5-5.7-10.6C1699.4,396,1698.2,394.9,1696.8,393.9z"/>
<g class="st0">
	<path class="st1" d="M557.1,423.8c6.1,6.1,4.7,15.1-3.5,23.3s-17.1,9.5-23.2,3.4c-3.8-3.8-4.5-8.8-2.2-14
		c-4.5,1.6-8.6,0.8-11.9-2.6c-5.7-5.6-4.3-13.9,2.9-21.2s15.7-8.7,21.3-3c3.4,3.3,4.2,7.4,2.5,12C548.4,419.3,553.3,420,557.1,423.8
		z M521.2,429.4c3.3,3.3,8.1,2.6,12.7-2s5.4-9.5,2.1-12.8s-8.4-2.5-12.9,2S517.8,426,521.2,429.4L521.2,429.4z M552.2,428.5
		c-3.7-3.7-9.3-2.8-14.6,2.6s-6.2,10.8-2.5,14.5s9.3,2.9,14.6-2.4S556,432.3,552.2,428.5L552.2,428.5z"/>
	<path class="st1" d="M586.5,393.7c5.7,5.6,6.1,14.4-2.4,23c-4.8,4.8-11.1,7.9-16.5,8.2l-1.6-6c4.4-0.1,9.7-2.4,13.8-6.5
		s5.6-10.2,1.9-13.9s-8.4-3.3-14.1,2.5l-2.7,2.6l-3.4-3.3l-1.9-18.8l-16.2,16.1l-4.1-4.1l22.1-22.2l3.3,3.3l2.1,19.6
		C574.1,388.1,581.3,388.5,586.5,393.7z"/>
	<path class="st1" d="M637.3,362.6l-24.5-24.4l8.2,32.6l-2.2,2.2l-32.4-8.1l24.4,24.3l-4.7,4.6l-33.6-33.6l4-3.9l37.6,9.6l-9.8-37.5
		l4-3.9l33.6,33.5L637.3,362.6z"/>
</g>
<path class="st2" d="M500.2,448.1c-1.8-1.3-3.7-2.3-5.7-3.1c-2-0.9-4.1-1.4-6.2-1.6h-3c-1.5,0.2-3,0.5-4.4,1c-2.6,0.7-4.9,1.9-7,3.6
	c-1,0.7-1.8,1.6-2.5,2.6c-1.2,1.5-2,3.2-2.6,5c-0.6,1.8-0.9,3.8-1,5.7c-0.1,3.1,0.3,6.1,1,9.1c0.1,0.1,0.1,0.3,0.1,0.4h-0.4
	c-2.3-0.6-4.6-0.9-7-1c-2.1-0.1-4.2,0.1-6.3,0.6c-3.9,0.9-7.4,3.1-9.8,6.3c-0.9,1.2-1.6,2.5-2.1,3.9c-0.9,2-1.4,4.1-1.7,6.2
	c-0.2,1.1-0.3,2.3-0.2,3.4c0.2,1.5,0.5,3,1,4.5c1.1,3.4,2.9,6.6,5.3,9.2c1.1,1.3,2.4,2.4,3.8,3.4c1.7,1.3,3.6,2.3,5.6,3.1
	c2.8,1.1,5.6,1.9,8.6,2.2c3,0.3,6,0.3,9,0c2-0.1,3.9-0.4,5.9-0.7l10.9-1.4c3.7-0.6,7.5-0.9,11.3-0.9c1.6,0,3.3,0.1,4.9,0.3h0.2v-0.2
	c-0.1-0.6-0.1-1.1-0.2-1.6s-0.1-2.5-0.1-3.8c0-2.6,0.2-5.3,0.5-7.9c0.4-3.4,0.9-6.7,1.3-10.1s0.7-5.2,1-7.8c0.4-2.8,0.5-5.6,0.4-8.4
	c-0.2-2.6-0.6-5.2-1.3-7.8c-1-4-3-7.6-5.7-10.7C502.7,450.3,501.5,449.2,500.2,448.1z"/>
<g class="st0">
	<path class="st1" d="M1280.5,350.7c6.1,6.1,4.7,15.1-3.5,23.3s-17.1,9.5-23.2,3.4c-3.9-3.8-4.6-8.8-2.2-14c-4.6,1.6-8.7,0.8-12-2.5
		c-5.6-5.7-4.3-14,3-21.3s15.7-8.7,21.3-3c3.3,3.3,4.1,7.5,2.5,12C1271.7,346.2,1276.6,346.9,1280.5,350.7z M1244.5,356.3
		c3.4,3.3,8.2,2.6,12.8-2s5.4-9.5,2.1-12.8s-8.4-2.5-12.9,2S1241.2,352.9,1244.5,356.3L1244.5,356.3z M1275.5,355.4
		c-3.7-3.7-9.2-2.7-14.6,2.6s-6.2,10.8-2.5,14.5s9.3,3,14.7-2.4S1279.3,359.2,1275.5,355.4L1275.5,355.4z"/>
	<path class="st1" d="M1309.9,320.6c5.6,5.6,6,14.4-2.5,23c-4.8,4.8-11,7.9-16.4,8.2l-1.6-6c4.4-0.1,9.6-2.4,13.7-6.5
		s5.6-10.2,2-13.9s-8.4-3.3-14.2,2.5l-2.7,2.7l-3.3-3.4l-1.9-18.8l-16.2,16.2l-4.2-4.2l22.2-22.2l3.3,3.3l2,19.6
		C1297.5,315,1304.7,315.4,1309.9,320.6z"/>
	<path class="st1" d="M1360.7,289.6l-24.6-24.5l8.3,32.6l-2.2,2.2l-32.4-8.1l24.3,24.3l-4.6,4.6l-33.6-33.6l3.9-3.9l37.7,9.6
		l-9.8-37.5l3.9-3.9l33.7,33.5L1360.7,289.6z"/>
</g>
<path class="st2" d="M1223.5,375.1c-1.7-1.4-3.6-2.4-5.6-3.2c-2-0.8-4.1-1.4-6.3-1.6c-1-0.1-1.9-0.1-2.9,0c-1.5,0.2-3,0.5-4.4,1
	c-2.6,0.7-5,1.9-7.1,3.6c-0.9,0.8-1.7,1.6-2.4,2.6c-1.2,1.5-2.1,3.2-2.7,5c-1.3,4.9-1.3,10,0.1,14.8c0,0.1,0,0.3,0.1,0.4h-0.5
	c-2.3-0.6-4.6-0.9-7-1c-2.1,0-4.2,0.2-6.3,0.6c-2.5,0.6-4.9,1.7-6.9,3.3c-1.1,0.9-2,1.9-2.8,3.1c-0.9,1.2-1.6,2.5-2.2,3.8
	c-0.8,2-1.3,4.1-1.7,6.2c-0.2,1.1-0.2,2.3-0.1,3.4c0.2,1.5,0.5,3,0.9,4.5c1.1,3.4,2.9,6.6,5.3,9.2c1.2,1.2,2.4,2.4,3.8,3.4
	c1.8,1.3,3.7,2.3,5.7,3.2c2.7,1.1,5.6,1.8,8.5,2.1c3,0.3,6,0.3,9,0c2-0.1,4-0.4,6-0.7l10.8-1.4c3.8-0.5,7.6-0.8,11.4-0.9
	c1.6,0,3.3,0.1,4.9,0.3h0.2v-0.3l-0.3-1.6c-0.1-1.3-0.1-2.5-0.1-3.8s0.3-5.2,0.6-7.9s0.8-6.7,1.3-10.1s0.7-5.2,1-7.8
	c0.3-2.8,0.4-5.5,0.3-8.3c-0.1-2.7-0.5-5.3-1.2-7.9c-1.1-3.9-3.1-7.6-5.7-10.7C1226,377.2,1224.8,376.1,1223.5,375.1z"/>
<g class="st0">
	<path class="st1" d="M1075.8,101.5c5.8,5.8,6.3,14.6-2.3,23.2c-4.7,4.8-11,7.9-16.4,8.3l-1.6-6c5.2-0.4,10.1-2.7,13.7-6.5
		c5.1-5.1,5.6-10.3,2-14s-8.6-3.7-16.4,4.1l-7.6,7.6l-15.8-19.4l19-18.9l4.2,4.2l-15,14.9l8.3,10.1l3.8-3.7
		C1061.7,95.3,1069.8,95.6,1075.8,101.5z"/>
	<path class="st1" d="M1108,69c6.5,6.5,5.4,15.9-1.3,22.5c-9,9.1-20.2,8.1-30.9-2.6s-11.1-24.1-1.7-33.5c3.2-3.2,6.8-5.6,10.3-6.4
		l1.9,5.6c-2.8,0.5-5.6,2.4-8,4.8c-6.8,6.8-6.9,15.5,1.5,23.9c0.4,0.4,0.8,0.8,1.3,1.1c-1-4.8,1-9.9,5.2-14
		C1093,63.7,1101.8,62.8,1108,69z M1103.5,73.9c-3.9-4-9.4-3.5-14.1,1.2s-4.9,10.5-1.2,14.2s9.2,3.7,14.4-1.5
		S1107.5,77.9,1103.5,73.9z"/>
	<path class="st1" d="M1158.3,39.2l-24.6-24.4l8.3,32.5l-2.2,2.2l-32.4-8.1l24.3,24.4l-4.6,4.6l-33.6-33.6l3.9-4l37.7,9.6L1125.3,5
		l3.9-4l33.7,33.6L1158.3,39.2z"/>
</g>
<path class="st2" d="M1022.3,123.5c-1.7-1.3-3.6-2.4-5.6-3.2c-2-0.8-4.1-1.4-6.2-1.6c-1-0.1-2-0.1-3,0.1c-1.5,0.2-3,0.5-4.4,0.9
	c-2.6,0.7-4.9,1.9-7,3.6c-0.9,0.8-1.8,1.6-2.5,2.6c-1.2,1.5-2.1,3.3-2.6,5.1c-0.6,1.8-0.9,3.7-1,5.6c-0.1,3.1,0.2,6.2,1,9.2v0.3
	h-0.4c-2.3-0.6-4.6-1-7-1c-2.1-0.1-4.2,0.1-6.3,0.6c-2.5,0.5-4.9,1.6-6.9,3.3c-1.1,0.9-2.1,1.9-2.9,3c-0.9,1.2-1.6,2.5-2.2,3.9
	c-0.8,2-1.3,4-1.7,6.1c-0.1,1.1-0.2,2.3-0.1,3.4c0.2,1.6,0.5,3.1,1,4.6c1.1,3.4,2.9,6.6,5.3,9.2c1.1,1.3,2.4,2.4,3.8,3.4
	c1.7,1.3,3.6,2.3,5.6,3.1c2.7,1.1,5.6,1.8,8.5,2.1c3,0.4,6,0.4,9,0.1l6-0.7l10.8-1.5c3.8-0.4,7.6-0.8,11.4-0.9
	c1.6,0,3.3,0.1,4.9,0.4h0.2v-0.3c-0.1-0.5-0.2-1-0.2-1.5c-0.2-1.3-0.2-2.6-0.1-3.9c0-2.6,0.2-5.2,0.5-7.8c0.4-3.4,0.8-6.8,1.3-10.2
	s0.7-5.2,1-7.8c0.4-2.7,0.5-5.5,0.3-8.3c-0.1-2.7-0.5-5.3-1.2-7.9c-1.1-3.9-3-7.5-5.7-10.6C1024.8,125.6,1023.6,124.5,1022.3,123.5z
	"/>
<g class="st0">
	<path class="st1" d="M993.7,426.2c5.8,5.8,6.4,14.6-2.2,23.2c-4.8,4.7-11,7.9-16.4,8.2l-1.6-6c4.3-0.1,9.6-2.4,13.7-6.5
		s5.6-10.3,1.9-13.9s-8.5-3.8-16.3,4l-7.6,7.6l-15.8-19.3l18.9-19l4.2,4.2l-14.9,14.9l8.3,10.2l3.7-3.8
		C979.7,420,987.8,420.2,993.7,426.2z"/>
	<path class="st1" d="M1025.9,393.7c6.5,6.4,5.4,15.8-1.2,22.5c-9.1,9-20.2,8-30.9-2.7s-11.2-24.1-1.7-33.5c2.8-3,6.4-5.2,10.3-6.4
		l1.9,5.6c-2.9,0.6-5.6,2.5-8,4.9c-6.8,6.8-6.9,15.4,1.5,23.8l1.2,1.2c-0.9-4.8,1.1-9.9,5.2-14.1
		C1010.9,388.3,1019.8,387.5,1025.9,393.7z M1021.5,398.5c-4-3.9-9.5-3.5-14.2,1.2s-4.9,10.6-1.2,14.3s9.3,3.7,14.5-1.5
		C1025.8,407.3,1025.5,402.5,1021.5,398.5z"/>
	<path class="st1" d="M1076.2,363.8l-24.5-24.4l8.2,32.6l-2.2,2.2l-32.4-8.1l24.4,24.3l-4.6,4.6l-33.7-33.6l4-3.9l37.6,9.6
		l-9.8-37.5l4-3.9l33.6,33.5L1076.2,363.8z"/>
</g>
<path class="st2" d="M940.3,448.1c-1.7-1.3-3.6-2.3-5.6-3.1c-2-0.9-4.1-1.4-6.3-1.6h-3c-1.5,0.2-3,0.5-4.4,1c-2.6,0.7-4.9,1.9-7,3.6
	c-0.9,0.8-1.8,1.6-2.5,2.6c-1.2,1.5-2,3.2-2.6,5c-0.6,1.8-0.9,3.8-1,5.7c-0.1,3.1,0.3,6.1,1,9.1c0.1,0.1,0.1,0.3,0.1,0.4h-0.4
	c-2.3-0.6-4.6-0.9-7-1c-2.1-0.1-4.2,0.1-6.3,0.6c-2.5,0.5-4.9,1.7-6.9,3.3c-1.1,0.9-2,1.9-2.9,3c-0.8,1.3-1.5,2.6-2.1,3.9
	c-0.8,2-1.4,4.1-1.7,6.2c-0.2,1.1-0.2,2.3-0.1,3.4c0.1,1.5,0.4,3,0.9,4.5c1.1,3.4,2.9,6.6,5.3,9.2c1.1,1.3,2.4,2.4,3.8,3.4
	c1.7,1.3,3.6,2.3,5.6,3.1c2.8,1.1,5.6,1.9,8.6,2.2c3,0.3,6,0.3,9,0c2-0.1,3.9-0.4,5.9-0.7l10.9-1.4c3.7-0.5,7.5-0.8,11.3-0.9
	c1.7,0,3.3,0.1,5,0.3h0.2v-0.2c0-0.5-0.1-1.1-0.2-1.6c-0.1-1.3-0.1-2.5-0.1-3.8s0.3-5.3,0.5-7.9s0.9-6.7,1.3-10.1s0.7-5.2,1.1-7.8
	c0.3-2.8,0.4-5.6,0.3-8.4c-0.1-2.6-0.6-5.3-1.3-7.8c-1-4-3-7.6-5.7-10.7C942.9,450.3,941.6,449.2,940.3,448.1z"/>
<g class="st0">
	<path class="st1" d="M1508.5,106.3c5.8,5.8,6.3,14.6-2.3,23.2c-4.7,4.7-11,7.9-16.4,8.2l-1.6-6c4.4-0.1,9.6-2.4,13.7-6.5
		s5.6-10.3,2-13.9s-8.6-3.8-16.3,4l-7.7,7.6l-15.8-19.3l19-19l4.2,4.2l-15,14.9l8.3,10.2l3.8-3.8
		C1494.4,100.1,1502.5,100.3,1508.5,106.3z"/>
	<path class="st1" d="M1540.7,73.8c6.5,6.4,5.4,15.8-1.3,22.5c-9,9-20.2,8-30.9-2.7s-11.1-24.1-1.7-33.5c3.2-3.1,6.8-5.5,10.3-6.4
		l1.9,5.6c-3.1,0.9-5.8,2.6-8,4.9c-6.8,6.8-6.9,15.4,1.5,23.8l1.3,1.2c-1-4.8,1-9.9,5.2-14.1C1525.7,68.4,1534.5,67.6,1540.7,73.8z
		 M1536.2,78.6c-3.9-3.9-9.4-3.5-14.1,1.2s-4.9,10.6-1.2,14.3s9.2,3.7,14.4-1.5S1540.2,82.6,1536.2,78.6z"/>
	<path class="st1" d="M1591,43.9l-24.6-24.4l8.3,32.6l-2.2,2.2l-32.4-8.2l24.3,24.4l-4.6,4.6l-33.6-33.6l3.9-3.9l37.7,9.6L1558,9.7
		l3.9-3.9l33.7,33.5L1591,43.9z"/>
</g>
<path class="st2" d="M1455,128.2c-1.7-1.3-3.6-2.3-5.6-3.1c-2-0.9-4.1-1.4-6.2-1.6h-3c-1.5,0.2-3,0.5-4.4,1c-2.6,0.7-5,1.9-7,3.6
	c-1,0.7-1.8,1.6-2.5,2.6c-1.2,1.5-2.1,3.2-2.6,5c-0.6,1.8-0.9,3.8-1,5.7c-0.1,3.1,0.2,6.1,1,9.1v0.4h-0.4c-2.3-0.6-4.6-0.9-7-1
	c-2.1-0.1-4.2,0.1-6.3,0.6c-2.5,0.5-4.9,1.7-6.9,3.3c-1.1,0.9-2.1,1.9-2.9,3c-0.8,1.2-1.6,2.5-2.2,3.9c-0.8,2-1.3,4.1-1.7,6.2
	c-0.1,1.1-0.2,2.2-0.1,3.3c0.6,5.1,2.8,10,6.3,13.8c1.1,1.3,2.4,2.4,3.8,3.4c1.7,1.3,3.6,2.3,5.6,3.1c2.7,1.1,5.6,1.9,8.5,2.2
	c3,0.3,6,0.3,9,0c2-0.1,4-0.4,6-0.7l10.8-1.4c3.8-0.5,7.6-0.8,11.4-0.9c1.6-0.1,3.3,0,4.9,0.3h0.2v-0.2c-0.1-0.5-0.2-1.1-0.2-1.6
	c-0.2-1.3-0.2-2.5-0.1-3.8c0-2.6,0.2-5.3,0.5-7.9c0.4-3.4,0.8-6.7,1.3-10.1s0.7-5.2,1-7.8c0.4-2.8,0.5-5.6,0.3-8.4
	c-0.1-2.6-0.5-5.3-1.2-7.8c-1.1-4-3-7.6-5.7-10.7C1457.5,130.4,1456.3,129.2,1455,128.2z"/>
<g class="st0">
	<path class="st1" d="M559.6,112.1l4.1,4.2l-24.1,24.2l-3.3-3.3l0.5-26.9c0.1-7-1.3-9.8-3.5-11.9s-8-3.1-12.7,1.6s-5.4,7.7-4.9,12.2
		l-6.1,0.5c-0.6-5.9,1.9-12.2,7.2-17.4c7-7,15.1-8,20.9-2.2c3.2,3.3,5.2,7.2,5,16.1l-0.4,20.2L559.6,112.1z"/>
	<path class="st1" d="M583.1,77.1c5.7,5.7,6.1,14.5-2.4,23c-4.8,4.8-11.1,8-16.4,8.3l-1.6-6c5.2-0.4,10.1-2.8,13.7-6.6
		c5.1-5,5.6-10.2,2-13.8s-8.4-3.3-14.2,2.4l-2.7,2.7l-3.3-3.4l-2-18.8l-16.1,16.2l-4.2-4.2l22.2-22.2l3.2,3.3l2.1,19.6
		C570.7,71.6,578,71.9,583.1,77.1z"/>
	<path class="st1" d="M633.9,46.1l-24.5-24.4l8.3,32.5l-2.2,2.2L583,48.3l24.4,24.4l-4.6,4.6l-33.6-33.6l3.9-4l37.6,9.6L601,11.9
		l3.9-4l33.6,33.6L633.9,46.1z"/>
</g>
<path class="st2" d="M500.2,128.2c-1.8-1.3-3.7-2.3-5.7-3.1c-2-0.9-4.1-1.4-6.2-1.6h-3c-1.5,0.2-3,0.5-4.4,1c-2.6,0.7-4.9,1.9-7,3.6
	c-1,0.7-1.8,1.6-2.5,2.6c-1.2,1.5-2,3.2-2.6,5c-0.6,1.8-0.9,3.8-1,5.7c-0.1,3.1,0.3,6.1,1,9.1c0.1,0.1,0.1,0.3,0.1,0.4h-0.4
	c-2.3-0.6-4.6-0.9-7-1c-2.1-0.1-4.2,0.1-6.3,0.6c-3.9,0.9-7.4,3.1-9.8,6.3c-0.9,1.2-1.6,2.5-2.1,3.9c-0.9,2-1.4,4.1-1.7,6.2
	c-0.2,1.1-0.3,2.2-0.2,3.3c0.2,1.6,0.5,3.1,1,4.6c1.1,3.4,2.9,6.6,5.3,9.2c1.1,1.3,2.4,2.4,3.8,3.4c1.7,1.3,3.6,2.3,5.6,3.1
	c2.8,1.1,5.6,1.9,8.6,2.2c3,0.3,6,0.3,9,0c2-0.1,3.9-0.4,5.9-0.7l10.9-1.4c3.7-0.6,7.5-0.9,11.3-0.9c1.6-0.1,3.3,0,4.9,0.3h0.2v-0.2
	c-0.1-0.6-0.1-1.1-0.2-1.6s-0.1-2.5-0.1-3.8c0-2.6,0.2-5.3,0.5-7.9c0.4-3.4,0.9-6.7,1.3-10.1s0.7-5.2,1-7.8c0.4-2.8,0.5-5.6,0.4-8.4
	c-0.2-2.6-0.6-5.2-1.3-7.8c-1-4-3-7.6-5.7-10.7C502.7,130.4,501.5,129.3,500.2,128.2z"/>
<g class="st0">
	<path class="st1" d="M112.2,426.2c5.8,5.8,6.3,14.6-2.2,23.2c-4.8,4.7-11,7.9-16.5,8.2l-1.6-6c4.4-0.1,9.7-2.4,13.7-6.5
		s5.7-10.3,2-13.9s-8.5-3.8-16.3,4l-7.7,7.6l-15.8-19.3l19-19l4.2,4.2l-14.9,14.9l8.3,10.2l3.7-3.8
		C98.1,420,106.3,420.2,112.2,426.2z"/>
	<path class="st1" d="M141.5,397.3c5.7,5.6,6.1,14.4-2.4,23c-4.8,4.8-11.1,7.9-16.5,8.2l-1.6-6c4.4-0.1,9.7-2.4,13.8-6.5
		s5.6-10.2,1.9-13.9s-8.4-3.3-14.1,2.5l-2.7,2.6l-3.4-3.3l-1.9-18.8l-16.2,16.1l-4.1-4.1l22.1-22.2l3.3,3.3l2.1,19.6
		C129.1,391.7,136.3,392.1,141.5,397.3z"/>
	<path class="st1" d="M192.3,366.2l-24.5-24.4l8.2,32.6l-2.2,2.2l-32.4-8.1l24.4,24.3l-4.7,4.6l-33.6-33.6l4-3.9l37.6,9.6l-9.8-37.5
		l4-3.9l33.6,33.5L192.3,366.2z"/>
</g>
<path class="st2" d="M58.8,448.1c-1.8-1.3-3.7-2.3-5.7-3.1c-2-0.9-4.1-1.4-6.2-1.6h-3c-1.5,0.2-3,0.5-4.4,1c-2.6,0.7-4.9,1.9-7,3.6
	c-1,0.7-1.8,1.6-2.5,2.6c-1.2,1.5-2,3.2-2.6,5c-0.6,1.8-0.9,3.8-1,5.7c-0.1,3.1,0.3,6.1,1,9.1c0.1,0.1,0.1,0.3,0.1,0.4h-0.4
	c-2.3-0.6-4.6-0.9-7-1c-2.1-0.1-4.2,0.1-6.3,0.6c-3.9,0.8-7.4,3-9.8,6.2c-0.8,1.2-1.5,2.5-2.1,3.9c-0.8,2-1.4,4.1-1.7,6.2
	C0,487.8,0,489,0.1,490.1c0.1,1.5,0.4,3,0.9,4.5c1.1,3.4,2.9,6.6,5.3,9.2c1.1,1.3,2.4,2.4,3.8,3.4c1.7,1.3,3.6,2.3,5.6,3.1
	c2.8,1.1,5.6,1.9,8.6,2.2c3,0.3,6,0.3,9,0c2-0.1,3.9-0.4,5.9-0.7l10.9-1.4c3.7-0.6,7.5-0.9,11.3-0.9c1.6,0,3.3,0.1,4.9,0.3h0.3v-0.2
	c-0.1-0.6-0.1-1.1-0.2-1.6s-0.1-2.5-0.1-3.8s0.3-5.3,0.5-7.9s0.9-6.7,1.3-10.1s0.7-5.2,1-7.8c0.4-2.8,0.5-5.6,0.4-8.4
	c-0.2-2.6-0.6-5.2-1.3-7.8c-1-4-3-7.6-5.7-10.7C61.4,450.3,60.1,449.1,58.8,448.1z"/>
<g class="st0">
	<path class="st1" d="M757.3,158.7c6.5,6.5,5.4,15.8-1.2,22.5c-9.1,9-20.2,8.1-30.9-2.6s-11.2-24.1-1.7-33.5
		c3.1-3.2,6.8-5.6,10.3-6.4l1.9,5.5c-2.9,0.6-5.6,2.5-8,4.9c-6.8,6.8-6.9,15.5,1.5,23.9l1.2,1.1c-0.9-4.8,1.1-9.9,5.2-14.1
		C742.3,153.4,751.2,152.5,757.3,158.7z M752.9,163.5c-4-3.9-9.5-3.5-14.2,1.2s-4.9,10.6-1.2,14.3s9.3,3.7,14.5-1.5
		S756.9,167.5,752.9,163.5L752.9,163.5z"/>
	<path class="st1" d="M787,129.3c5.8,5.8,6.4,14.6-2.2,23.2c-4.8,4.8-11,7.9-16.5,8.3l-1.5-6c5.2-0.4,10-2.7,13.6-6.5
		c5.1-5.1,5.7-10.3,2-14s-8.5-3.7-16.3,4l-7.6,7.7l-15.8-19.4l18.9-18.9l4.2,4.1l-14.9,15l8.3,10.1l3.7-3.8
		C773,123.1,781.1,123.4,787,129.3z"/>
	<path class="st1" d="M837.5,99L813,74.5l8.3,32.6l-2.2,2.2l-32.5-8.1l24.4,24.3l-4.6,4.6l-33.6-33.6l3.9-3.9l37.6,9.6l-9.7-37.5
		l3.9-3.9l33.6,33.6L837.5,99z"/>
</g>
<path class="st2" d="M658.2,193.8c-15,15-15,39.3,0,54.3c15,15,39.3,15,54.3,0s15-39.3,0-54.3c0,0,0,0,0,0
	C697.5,178.9,673.2,178.9,658.2,193.8z M697.2,249.8l-38.8-38.7l47-8.2L697.2,249.8z"/>
<g class="st0">
	<path class="st1" d="M382.5,351.8c6.5,6.4,5.4,15.8-1.3,22.5c-9,9-20.2,8-30.9-2.7s-11.1-24.1-1.7-33.5c3.2-3.2,6.8-5.6,10.3-6.4
		l1.9,5.6c-3.1,0.8-5.9,2.5-8,4.9c-6.8,6.8-6.9,15.4,1.5,23.8l1.3,1.2c-1-4.8,1-9.9,5.2-14.1C367.5,346.4,376.3,345.6,382.5,351.8z
		 M378,356.6c-3.9-3.9-9.4-3.5-14.1,1.2s-4.9,10.6-1.2,14.3s9.2,3.7,14.4-1.5S382,360.6,378,356.6L378,356.6z"/>
	<path class="st1" d="M412.2,322.4c5.8,5.8,6.3,14.6-2.3,23.2c-4.7,4.7-11,7.9-16.4,8.2l-1.6-6c4.4-0.1,9.6-2.4,13.7-6.5
		s5.6-10.3,2-13.9s-8.6-3.8-16.4,4l-7.6,7.6l-15.8-19.3l19-19l4.1,4.2L376,319.8l8.3,10.2l3.8-3.8
		C398.1,316.2,406.2,316.4,412.2,322.4z"/>
	<path class="st1" d="M462.7,292l-24.6-24.4l8.3,32.5l-2.2,2.2l-32.4-8.1l24.3,24.4l-4.6,4.6l-33.6-33.6l3.9-4l37.7,9.6l-9.8-37.4
		l3.9-4l33.7,33.6L462.7,292z"/>
</g>
<path class="st2" d="M283.4,386.9c-15,15-15.1,39.3-0.1,54.3s39.3,15.1,54.3,0.1s15.1-39.3,0.1-54.3c0,0-0.1-0.1-0.1-0.1
	C322.6,372,298.4,372,283.4,386.9z M322.3,442.9l-38.7-38.8l46.9-8.2L322.3,442.9z"/>
<g class="st0">
	<path class="st1" d="M1456.6,413.3c6.5,6.5,5.4,15.9-1.3,22.5c-9,9.1-20.1,8.1-30.9-2.6s-11.1-24.1-1.7-33.5
		c3.2-3.2,6.8-5.6,10.3-6.4l2,5.6c-2.9,0.5-5.7,2.4-8.1,4.8c-6.8,6.8-6.9,15.5,1.5,23.9c0.4,0.4,0.8,0.8,1.3,1.1
		c-1-4.8,1-9.9,5.2-14C1441.6,408,1450.4,407.1,1456.6,413.3z M1452.1,418.2c-3.9-4-9.4-3.5-14.1,1.2s-4.9,10.5-1.2,14.2
		s9.2,3.7,14.4-1.5S1456.1,422.2,1452.1,418.2L1452.1,418.2z"/>
	<path class="st1" d="M1486.3,383.9c5.8,5.8,6.3,14.6-2.3,23.2c-4.7,4.8-11,8-16.4,8.3l-1.6-6c5.2-0.4,10.1-2.7,13.7-6.5
		c5.1-5.1,5.6-10.3,2-14s-8.6-3.7-16.3,4.1l-7.7,7.6l-15.8-19.4l19-18.9l4.2,4.2l-15,14.9l8.3,10.1l3.8-3.7
		C1472.2,377.7,1480.3,378,1486.3,383.9z"/>
	<path class="st1" d="M1536.8,353.6l-24.5-24.4l8.2,32.5l-2.2,2.2l-32.4-8.1l24.3,24.3l-4.6,4.7l-33.6-33.7l4-3.9l37.6,9.6
		l-9.8-37.4l4-4l33.6,33.6L1536.8,353.6z"/>
</g>
<path class="st2" d="M1357.5,448.5c-15,15-15,39.3,0,54.3c15,15,39.3,15,54.3,0s15-39.3,0-54.3c0,0,0,0,0,0
	c-14.9-15-39.2-15.1-54.2-0.1C1357.6,448.4,1357.5,448.5,1357.5,448.5z M1396.5,504.5l-38.8-38.8l47-8.2L1396.5,504.5z"/>
<g class="st0">
	<path class="st1" d="M1708,179.9l4.2,4.1l-24.1,24.2l-3.3-3.3l0.5-26.9c0.1-7-1.4-9.8-3.5-11.9s-8-3.1-12.7,1.6s-5.4,7.7-5,12.3
		l-6.1,0.4c-0.6-5.8,2-12.2,7.2-17.4c7.1-7,15.2-7.9,20.9-2.2c3.3,3.3,5.3,7.2,5.1,16.1l-0.4,20.2L1708,179.9z"/>
	<path class="st1" d="M1695.3,133.7l33.6,33.6l-4.7,4.8l-29.5-29.5l-7.6,7.6l-4.1-4.1L1695.3,133.7z"/>
	<path class="st1" d="M1772.7,123.5l-24.5-24.4l8.2,32.5l-2.2,2.3l-32.4-8.2l24.4,24.4l-4.7,4.6l-33.6-33.6l4-4l37.6,9.6l-9.8-37.4
		l4-3.9l33.6,33.5L1772.7,123.5z"/>
</g>
<path class="st2" d="M1648.6,196c-1.7-1.3-3.6-2.4-5.6-3.2c-2-0.8-4.1-1.4-6.3-1.6h-2.9c-1.5,0.2-3,0.5-4.4,1
	c-2.6,0.7-4.9,1.9-7,3.6c-1,0.7-1.8,1.6-2.5,2.6c-1.2,1.5-2.1,3.2-2.6,5.1c-0.6,1.8-0.9,3.7-1,5.6c-0.2,3.1,0.2,6.1,1,9.1
	c0,0.2,0,0.3,0.1,0.4h-0.4c-2.3-0.6-4.6-1-7-1.1c-2.1-0.1-4.2,0.1-6.3,0.6c-2.5,0.6-4.9,1.7-7,3.3c-1.1,0.9-2,2-2.8,3.1
	c-0.9,1.2-1.6,2.5-2.2,3.9c-0.8,2-1.3,4-1.7,6.1c-0.2,1.1-0.2,2.3-0.1,3.4c0.1,1.5,0.5,3.1,1,4.5c1,3.4,2.8,6.6,5.2,9.2
	c1.2,1.2,2.5,2.4,3.8,3.5c1.8,1.2,3.7,2.3,5.7,3.1c2.7,1.1,5.6,1.8,8.5,2.1c3,0.3,6,0.3,9,0.1l6-0.7l10.8-1.5
	c3.8-0.5,7.6-0.8,11.4-0.9c1.6,0,3.3,0.1,4.9,0.4h0.2v-0.3c-0.1-0.5-0.2-1.1-0.2-1.6c-0.2-1.3-0.2-2.5-0.2-3.8
	c0.1-2.6,0.3-5.2,0.6-7.9s0.8-6.7,1.3-10.1s0.7-5.2,1-7.8c0.3-2.8,0.4-5.5,0.3-8.3c-0.1-2.7-0.5-5.3-1.2-7.9c-1.1-4-3-7.6-5.7-10.7
	C1651.2,198.1,1649.9,197,1648.6,196z"/>
<g class="st0">
	<path class="st1" d="M1968.2,102.3c5.6,5.7,6,14.5-2.5,23c-4.8,4.8-11,8-16.4,8.3l-1.6-6c5.2-0.4,10.1-2.8,13.7-6.6
		c5.1-5,5.6-10.2,2-13.9s-8.4-3.3-14.2,2.5l-2.7,2.7l-3.3-3.4l-1.9-18.8l-16.2,16.2l-4.2-4.2l22.2-22.2l3.3,3.3l2,19.6
		C1955.8,96.7,1963,97.1,1968.2,102.3z"/>
	<path class="st1" d="M2000.7,69.1c6.4,6.5,5.3,15.9-1.3,22.5c-9.1,9.1-20.2,8.1-30.9-2.6s-11.1-24.1-1.7-33.5
		c3.1-3.2,6.8-5.6,10.3-6.4l1.9,5.6c-2.9,0.5-5.6,2.4-8,4.8c-6.8,6.8-6.9,15.5,1.5,23.9l1.2,1.1c-0.9-4.8,1.1-9.9,5.3-14
		C1985.6,63.8,1994.5,62.9,2000.7,69.1z M1996.2,74c-3.9-4-9.5-3.5-14.2,1.2s-4.9,10.5-1.2,14.2s9.3,3.7,14.5-1.5
		S2000.2,78,1996.2,74z"/>
	<path class="st1" d="M2050.9,39.3l-24.5-24.4l8.3,32.5l-2.3,2.2l-32.4-8.1l24.4,24.4l-4.6,4.6l-33.6-33.6l3.9-4l37.6,9.6l-9.8-37.4
		l4-4l33.6,33.6L2050.9,39.3z"/>
</g>
<path class="st2" d="M1915.1,123.5c-1.7-1.3-3.6-2.4-5.6-3.2c-2-0.8-4.1-1.4-6.3-1.6c-1-0.1-2-0.1-3,0.1c-1.5,0.2-3,0.5-4.4,0.9
	c-2.5,0.8-4.9,2-7,3.6c-0.9,0.8-1.7,1.7-2.5,2.6c-1.1,1.6-2,3.3-2.6,5.1c-0.6,1.8-0.9,3.7-1,5.6c-0.1,3.1,0.3,6.2,1,9.2
	c0.1,0.1,0.1,0.2,0.1,0.3h-0.4c-2.3-0.6-4.6-1-7-1c-2.1-0.1-4.2,0.1-6.3,0.6c-2.5,0.5-4.9,1.6-6.9,3.3c-1.1,0.9-2,1.9-2.9,3
	c-0.8,1.2-1.5,2.5-2.1,3.9c-0.8,2-1.3,4-1.7,6.1c-0.2,1.1-0.2,2.3-0.1,3.4c0.1,1.6,0.4,3.1,0.9,4.6c1.1,3.4,2.9,6.5,5.3,9.2
	c1.2,1.2,2.4,2.4,3.8,3.4c1.7,1.3,3.6,2.3,5.6,3.1c2.8,1.1,5.6,1.8,8.6,2.1c3,0.4,6,0.4,9,0.1l5.9-0.7l10.9-1.5
	c3.8-0.4,7.5-0.8,11.3-0.9c1.7,0,3.3,0.1,5,0.4h0.2v-0.3c0-0.5-0.1-1-0.2-1.5c-0.1-1.3-0.1-2.6-0.1-3.9s0.3-5.2,0.5-7.8
	s0.9-6.8,1.3-10.2s0.7-5.2,1.1-7.8c0.3-2.8,0.4-5.5,0.3-8.3c-0.1-2.7-0.6-5.3-1.3-7.9c-1-3.9-3-7.6-5.7-10.6
	C1917.7,125.6,1916.5,124.5,1915.1,123.5z"/>
</svg>
