<svg xmlns="http://www.w3.org/2000/svg" viewBox="0 0 2055.5 514"><defs><style>.a,.c{opacity:0.25;}.b,.c{fill:#fff;}</style></defs><g class="a"><path class="b" d="M303.4,139.2c5.8,5.8,6.4,14.6-2.2,23.2-4.8,4.7-11,7.9-16.4,8.2l-1.6-6c4.3-.1,9.6-2.4,13.7-6.4s5.6-10.4,1.9-14-8.5-3.8-16.3,4l-7.6,7.7-15.8-19.4,18.9-19,4.2,4.2-14.9,14.9,8.3,10.2,3.7-3.8C289.4,133,297.5,133.2,303.4,139.2Z"/><path class="b" d="M339.1,115.4l4.1,4.1-24.1,24.2-3.3-3.3.5-26.9c.1-7-1.3-9.7-3.5-11.9s-8-3.1-12.7,1.6-5.4,7.7-4.9,12.3l-6.1.4c-.6-5.8,1.9-12.1,7.2-17.4,7-7,15.1-7.9,20.9-2.1,3.2,3.2,5.2,7.1,5,16l-.4,20.2Z"/><path class="b" d="M383.6,79.2,359.1,54.7l8.2,32.6-2.2,2.2-32.4-8.1,24.4,24.3-4.6,4.6L318.8,76.7l4-3.9,37.6,9.6-9.8-37.5,4-3.9,33.6,33.6Z"/></g><path class="c" d="M206.6,171.7a38.4,38.4,0,1,0,54.3,0A38.4,38.4,0,0,0,206.6,171.7Zm39,56L206.8,189l47-8.2Z"/><g class="a"><path class="b" d="M1212.1,185c5.8,5.8,6.3,14.6-2.3,23.2-4.7,4.7-11,7.9-16.4,8.2l-1.6-6c4.4-.1,9.6-2.4,13.7-6.4s5.6-10.4,2-14-8.6-3.8-16.3,4l-7.7,7.7-15.8-19.4,19-19,4.2,4.2-15,15,8.3,10.1,3.8-3.8C1198,178.8,1206.1,179,1212.1,185Z"/><path class="b" d="M1247.7,161.2l4.2,4.2-24.2,24.1-3.2-3.3.5-26.8c.1-7.1-1.4-9.8-3.5-12s-8-3.1-12.7,1.6-5.4,7.7-5,12.3l-6.1.4c-.6-5.8,2-12.1,7.2-17.4,7-7,15.2-7.9,20.9-2.1,3.3,3.2,5.3,7.1,5.1,16.1l-.4,20.1Z"/><path class="b" d="M1292.3,125l-24.6-24.5,8.3,32.6-2.2,2.2-32.4-8.1,24.3,24.3-4.6,4.6-33.6-33.6,3.9-3.9,37.7,9.6-9.8-37.5,3.9-3.9,33.7,33.6Z"/></g><path class="c" d="M1115.3,217.5a38.4,38.4,0,1,0,54.3,0A38.4,38.4,0,0,0,1115.3,217.5Zm38.9,56-38.7-38.7,46.9-8.2Z"/><g class="a"><path class="b" d="M114,104.3l4.2,4.2L94,132.6l-3.2-3.2.4-26.9c.1-7-1.3-9.8-3.4-11.9s-8-3.2-12.7,1.5-5.4,7.7-5,12.3l-6.1.4c-.6-5.8,2-12.1,7.2-17.4,7-7,15.1-7.9,20.9-2.1,3.3,3.2,5.2,7.1,5,16.1l-.3,20.1Z"/><path class="b" d="M138,68.5c5.8,5.8,6.3,14.6-2.3,23.2-4.8,4.8-11,7.9-16.4,8.3l-1.6-6a21.6,21.6,0,0,0,13.7-6.5c5.1-5.1,5.6-10.3,1.9-14s-8.5-3.7-16.3,4l-7.6,7.7L93.6,65.8l19-18.9,4.1,4.1L101.8,66l8.3,10.1,3.8-3.7C123.9,62.3,132,62.6,138,68.5Z"/><path class="b" d="M188.5,38.2,163.9,13.7l8.3,32.6L170,48.5l-32.4-8.1,24.3,24.3-4.6,4.6L123.7,35.7l3.9-3.9,37.7,9.6L155.5,3.9,159.4,0l33.7,33.6Z"/></g><path class="c" d="M11.2,131a38.4,38.4,0,1,0,54.3,0A38.4,38.4,0,0,0,11.2,131Zm39,56L11.4,148.2l47-8.2Z"/><g class="a"><path class="b" d="M1972.2,413.7l4.2,4.2L1952.2,442l-3.3-3.2.5-26.9c.1-7-1.3-9.8-3.4-11.9s-8-3.1-12.8,1.6-5.3,7.6-4.9,12.2l-6.1.4c-.6-5.8,2-12.1,7.2-17.3,7-7.1,15.1-8,20.9-2.2,3.3,3.3,5.2,7.1,5,16.1l-.3,20.1Z"/><path class="b" d="M1996.1,377.9c5.9,5.8,6.4,14.6-2.2,23.2-4.8,4.8-11,7.9-16.4,8.3l-1.6-6a21.6,21.6,0,0,0,13.7-6.5c5.1-5.1,5.6-10.3,1.9-14s-8.5-3.7-16.3,4.1l-7.6,7.6-15.8-19.4,18.9-18.9,4.2,4.2L1960,375.4l8.3,10.1,3.7-3.7C1982.1,371.7,1990.2,372,1996.1,377.9Z"/><path class="b" d="M2046.7,347.6l-24.6-24.5,8.3,32.6-2.2,2.2-32.4-8.1,24.3,24.3-4.6,4.6-33.6-33.6,3.9-3.9,37.7,9.6-9.8-37.4,3.9-4,33.7,33.6Z"/></g><path class="c" d="M1869.4,440.4a38.4,38.4,0,1,0,54.3,0A38.4,38.4,0,0,0,1869.4,440.4Zm39,56-38.8-38.8,47-8.2Z"/><g class="a"><path class="b" d="M841.8,351.1l4.2,4.2-24.2,24.1-3.2-3.2.4-26.9c.1-7-1.3-9.8-3.4-11.9s-8-3.1-12.7,1.6-5.4,7.6-5,12.2l-6.1.4c-.6-5.8,2-12.1,7.2-17.3,7-7.1,15.1-8,20.9-2.2,3.3,3.3,5.2,7.1,5,16.1l-.3,20.1Z"/><path class="b" d="M865.8,315.3c5.8,5.8,6.3,14.6-2.3,23.2-4.7,4.8-11,7.9-16.4,8.3l-1.6-6a21.6,21.6,0,0,0,13.7-6.5c5.1-5.1,5.6-10.3,2-14s-8.6-3.7-16.4,4.1l-7.6,7.6-15.8-19.4,19-18.9,4.1,4.2-14.9,14.9,8.3,10.1,3.8-3.7C851.7,309.1,859.8,309.4,865.8,315.3Z"/><path class="b" d="M916.3,285l-24.6-24.5,8.3,32.6-2.2,2.2-32.4-8.1,24.3,24.3-4.6,4.6-33.6-33.6,3.9-3.9,37.7,9.6-9.8-37.4,3.9-4,33.7,33.6Z"/></g><path class="c" d="M739,377.8a38.4,38.4,0,1,0,54.3,0A38.6,38.6,0,0,0,739,377.8Zm39,56L739.2,395l47-8.2Z"/><g class="a"><path class="b" d="M1750.3,371.9c5.8,5.8,6.3,14.6-2.3,23.2-4.7,4.8-11,7.9-16.4,8.3l-1.6-6a21.6,21.6,0,0,0,13.7-6.5c5.1-5.1,5.6-10.3,2-14s-8.6-3.7-16.4,4l-7.6,7.7-15.8-19.4,19-18.9,4.2,4.1-15,15,8.3,10.1,3.8-3.7C1736.2,365.7,1744.3,366,1750.3,371.9Z"/><path class="b" d="M1782.5,339.4c6.5,6.5,5.4,15.9-1.3,22.5-9,9.1-20.2,8.1-30.9-2.6s-11.1-24.1-1.7-33.5c3.2-3.2,6.8-5.6,10.3-6.4l1.9,5.6c-2.8.5-5.6,2.4-8,4.8-6.8,6.8-6.9,15.5,1.5,23.9l1.3,1.1c-1-4.8,1-9.9,5.2-14C1767.5,334.1,1776.3,333.2,1782.5,339.4Zm-4.5,4.9c-3.9-4-9.4-3.5-14.1,1.2s-4.9,10.5-1.2,14.2,9.2,3.7,14.4-1.5S1782,348.2,1778,344.3Z"/><path class="b" d="M1832.8,309.6l-24.6-24.4,8.3,32.5-2.2,2.2-32.4-8.1,24.3,24.3-4.6,4.7L1768,307.1l3.9-3.9,37.7,9.6-9.8-37.4,3.9-4,33.7,33.6Z"/></g><path class="c" d="M1696.8,393.9a23.9,23.9,0,0,0-5.6-3.2,22.7,22.7,0,0,0-6.2-1.6,10.1,10.1,0,0,0-3,.1,31.2,31.2,0,0,0-4.4.9,20.3,20.3,0,0,0-7,3.6,15.2,15.2,0,0,0-2.5,2.6,15.4,15.4,0,0,0-2.6,5.1,21.3,21.3,0,0,0-1,5.6,31.7,31.7,0,0,0,1,9.2c0,.1.1.2.1.3s-.1.1-.1,0h-.3a28.2,28.2,0,0,0-7-1,26.4,26.4,0,0,0-6.3.5,16,16,0,0,0-6.9,3.4,13.8,13.8,0,0,0-2.9,3,18.7,18.7,0,0,0-2.2,3.9,32.5,32.5,0,0,0-1.7,6.1,19.3,19.3,0,0,0-.1,3.4,23.6,23.6,0,0,0,1,4.6,24.3,24.3,0,0,0,5.3,9.2,24.9,24.9,0,0,0,3.8,3.4,23.5,23.5,0,0,0,5.6,3.1,31.1,31.1,0,0,0,8.5,2.1,45.1,45.1,0,0,0,9,.1l6-.7,10.8-1.5a109.4,109.4,0,0,1,11.4-.9,26.3,26.3,0,0,1,4.9.4h.2v-.3a7.8,7.8,0,0,1-.2-1.6,16,16,0,0,1-.1-3.8,68.1,68.1,0,0,1,.5-7.8c.4-3.4.8-6.8,1.3-10.2s.7-5.2,1-7.8a38.5,38.5,0,0,0,.3-8.3,35.1,35.1,0,0,0-1.2-7.9,26.7,26.7,0,0,0-5.7-10.6A19.9,19.9,0,0,0,1696.8,393.9Z"/><g class="a"><path class="b" d="M557.1,423.8c6.1,6.1,4.7,15.1-3.5,23.3s-17.1,9.5-23.2,3.4c-3.8-3.8-4.5-8.8-2.2-14-4.5,1.6-8.6.8-11.9-2.6-5.7-5.6-4.3-13.9,2.9-21.2s15.7-8.7,21.3-3c3.4,3.3,4.2,7.4,2.5,12C548.4,419.3,553.3,420,557.1,423.8Zm-35.9,5.6c3.3,3.3,8.1,2.6,12.7-2s5.4-9.5,2.1-12.8-8.4-2.5-12.9,2S517.8,426,521.2,429.4Zm31-.9c-3.7-3.7-9.3-2.8-14.6,2.6s-6.2,10.8-2.5,14.5,9.3,2.9,14.6-2.4S556,432.3,552.2,428.5Z"/><path class="b" d="M586.5,393.7c5.7,5.6,6.1,14.4-2.4,23-4.8,4.8-11.1,7.9-16.5,8.2l-1.6-6c4.4-.1,9.7-2.4,13.8-6.5s5.6-10.2,1.9-13.9-8.4-3.3-14.1,2.5l-2.7,2.6-3.4-3.3-1.9-18.8-16.2,16.1-4.1-4.1,22.1-22.2,3.3,3.3,2.1,19.6C574.1,388.1,581.3,388.5,586.5,393.7Z"/><path class="b" d="M637.3,362.6l-24.5-24.4,8.2,32.6-2.2,2.2-32.4-8.1,24.4,24.3-4.7,4.6-33.6-33.6,4-3.9,37.6,9.6-9.8-37.5,4-3.9L641.9,358Z"/></g><path class="c" d="M500.2,448.1a26.3,26.3,0,0,0-5.7-3.1,19.6,19.6,0,0,0-6.2-1.6h-3a23.3,23.3,0,0,0-4.4,1,19.5,19.5,0,0,0-7,3.6,12.4,12.4,0,0,0-2.5,2.6,15.9,15.9,0,0,0-2.6,5,22,22,0,0,0-1,5.7,34.8,34.8,0,0,0,1,9.1.6.6,0,0,1,.1.4h-.4a32.8,32.8,0,0,0-7-1,22.5,22.5,0,0,0-6.3.6,16.7,16.7,0,0,0-9.8,6.3,18.6,18.6,0,0,0-2.1,3.9,22.9,22.9,0,0,0-1.7,6.2,12.7,12.7,0,0,0-.2,3.4,24.2,24.2,0,0,0,1,4.5,24.9,24.9,0,0,0,5.3,9.2,20.5,20.5,0,0,0,3.8,3.4,23.5,23.5,0,0,0,5.6,3.1,32,32,0,0,0,8.6,2.2,45.1,45.1,0,0,0,9,0,59.3,59.3,0,0,0,5.9-.7l10.9-1.4a84.7,84.7,0,0,1,11.3-.9,39.1,39.1,0,0,1,4.9.3h.2v-.2c-.1-.6-.1-1.1-.2-1.6s-.1-2.5-.1-3.8a69.8,69.8,0,0,1,.5-7.9c.4-3.4.9-6.7,1.3-10.1s.7-5.2,1-7.8a47.3,47.3,0,0,0,.4-8.4,41,41,0,0,0-1.3-7.8,25.8,25.8,0,0,0-5.7-10.7A29,29,0,0,0,500.2,448.1Z"/><g class="a"><path class="b" d="M1280.5,350.7c6.1,6.1,4.7,15.1-3.5,23.3s-17.1,9.5-23.2,3.4c-3.9-3.8-4.6-8.8-2.2-14-4.6,1.6-8.7.8-12-2.5-5.6-5.7-4.3-14,3-21.3s15.7-8.7,21.3-3c3.3,3.3,4.1,7.5,2.5,12C1271.7,346.2,1276.6,346.9,1280.5,350.7Zm-36,5.6c3.4,3.3,8.2,2.6,12.8-2s5.4-9.5,2.1-12.8-8.4-2.5-12.9,2S1241.2,352.9,1244.5,356.3Zm31-.9c-3.7-3.7-9.2-2.7-14.6,2.6s-6.2,10.8-2.5,14.5,9.3,3,14.7-2.4S1279.3,359.2,1275.5,355.4Z"/><path class="b" d="M1309.9,320.6c5.6,5.6,6,14.4-2.5,23-4.8,4.8-11,7.9-16.4,8.2l-1.6-6c4.4-.1,9.6-2.4,13.7-6.5s5.6-10.2,2-13.9-8.4-3.3-14.2,2.5l-2.7,2.7-3.3-3.4-1.9-18.8-16.2,16.2-4.2-4.2,22.2-22.2,3.3,3.3,2,19.6C1297.5,315,1304.7,315.4,1309.9,320.6Z"/><path class="b" d="M1360.7,289.6l-24.6-24.5,8.3,32.6-2.2,2.2-32.4-8.1,24.3,24.3-4.6,4.6-33.6-33.6,3.9-3.9,37.7,9.6-9.8-37.5,3.9-3.9,33.7,33.5Z"/></g><path class="c" d="M1223.5,375.1a20.8,20.8,0,0,0-5.6-3.2,22.4,22.4,0,0,0-6.3-1.6,14,14,0,0,0-2.9,0,21.6,21.6,0,0,0-4.4,1,19.1,19.1,0,0,0-7.1,3.6,14.8,14.8,0,0,0-2.4,2.6,16.2,16.2,0,0,0-2.7,5,28.1,28.1,0,0,0,.1,14.8.6.6,0,0,0,.1.4h-.5a32.8,32.8,0,0,0-7-1,26.9,26.9,0,0,0-6.3.6,18.3,18.3,0,0,0-6.9,3.3,13.8,13.8,0,0,0-2.8,3.1,20.8,20.8,0,0,0-2.2,3.8,33.5,33.5,0,0,0-1.7,6.2,12.8,12.8,0,0,0-.1,3.4,23.9,23.9,0,0,0,.9,4.5,24.9,24.9,0,0,0,5.3,9.2,29.9,29.9,0,0,0,3.8,3.4,32,32,0,0,0,5.7,3.2,35.3,35.3,0,0,0,8.5,2.1,45.1,45.1,0,0,0,9,0c2-.1,4-.4,6-.7l10.8-1.4a87.5,87.5,0,0,1,11.4-.9,40.3,40.3,0,0,1,4.9.3h.2v-.3l-.3-1.6c-.1-1.3-.1-2.5-.1-3.8s.3-5.2.6-7.9.8-6.7,1.3-10.1.7-5.2,1-7.8a46.4,46.4,0,0,0,.3-8.3,35.1,35.1,0,0,0-1.2-7.9,28.4,28.4,0,0,0-5.7-10.7A38,38,0,0,0,1223.5,375.1Z"/><g class="a"><path class="b" d="M1075.8,101.5c5.8,5.8,6.3,14.6-2.3,23.2-4.7,4.8-11,7.9-16.4,8.3l-1.6-6a21.6,21.6,0,0,0,13.7-6.5c5.1-5.1,5.6-10.3,2-14s-8.6-3.7-16.4,4.1l-7.6,7.6-15.8-19.4,19-18.9,4.2,4.2-15,14.9,8.3,10.1,3.8-3.7C1061.7,95.3,1069.8,95.6,1075.8,101.5Z"/><path class="b" d="M1108,69c6.5,6.5,5.4,15.9-1.3,22.5-9,9.1-20.2,8.1-30.9-2.6s-11.1-24.1-1.7-33.5c3.2-3.2,6.8-5.6,10.3-6.4l1.9,5.6c-2.8.5-5.6,2.4-8,4.8-6.8,6.8-6.9,15.5,1.5,23.9a6.9,6.9,0,0,0,1.3,1.1c-1-4.8,1-9.9,5.2-14C1093,63.7,1101.8,62.8,1108,69Zm-4.5,4.9c-3.9-4-9.4-3.5-14.1,1.2s-4.9,10.5-1.2,14.2,9.2,3.7,14.4-1.5S1107.5,77.9,1103.5,73.9Z"/><path class="b" d="M1158.3,39.2l-24.6-24.4,8.3,32.5-2.2,2.2-32.4-8.1,24.3,24.4-4.6,4.6-33.6-33.6,3.9-4,37.7,9.6L1125.3,5l3.9-4,33.7,33.6Z"/></g><path class="c" d="M1022.3,123.5a23.9,23.9,0,0,0-5.6-3.2,22.7,22.7,0,0,0-6.2-1.6,10.1,10.1,0,0,0-3,.1,31.2,31.2,0,0,0-4.4.9,19.4,19.4,0,0,0-7,3.6,15.2,15.2,0,0,0-2.5,2.6A15.4,15.4,0,0,0,991,131a21.3,21.3,0,0,0-1,5.6,31.7,31.7,0,0,0,1,9.2v.3h-.4a28.2,28.2,0,0,0-7-1,21.8,21.8,0,0,0-6.3.6,14.8,14.8,0,0,0-6.9,3.3,16.4,16.4,0,0,0-2.9,3,18.7,18.7,0,0,0-2.2,3.9,32.5,32.5,0,0,0-1.7,6.1,19.6,19.6,0,0,0-.1,3.4,23.6,23.6,0,0,0,1,4.6,24.3,24.3,0,0,0,5.3,9.2,24.9,24.9,0,0,0,3.8,3.4,23.5,23.5,0,0,0,5.6,3.1,31.1,31.1,0,0,0,8.5,2.1,38.7,38.7,0,0,0,9,.1l6-.7,10.8-1.5c3.8-.4,7.6-.8,11.4-.9a27,27,0,0,1,4.9.4h.2v-.3a7.7,7.7,0,0,1-.2-1.5,17,17,0,0,1-.1-3.9,68.1,68.1,0,0,1,.5-7.8c.4-3.4.8-6.8,1.3-10.2s.7-5.2,1-7.8a38.2,38.2,0,0,0,.3-8.3,35.1,35.1,0,0,0-1.2-7.9,27.3,27.3,0,0,0-5.7-10.6A19.9,19.9,0,0,0,1022.3,123.5Z"/><g class="a"><path class="b" d="M993.7,426.2c5.8,5.8,6.4,14.6-2.2,23.2-4.8,4.7-11,7.9-16.4,8.2l-1.6-6c4.3-.1,9.6-2.4,13.7-6.5s5.6-10.3,1.9-13.9-8.5-3.8-16.3,4l-7.6,7.6-15.8-19.3,18.9-19,4.2,4.2-14.9,14.9,8.3,10.2,3.7-3.8C979.7,420,987.8,420.2,993.7,426.2Z"/><path class="b" d="M1025.9,393.7c6.5,6.4,5.4,15.8-1.2,22.5-9.1,9-20.2,8-30.9-2.7s-11.2-24.1-1.7-33.5a23.9,23.9,0,0,1,10.3-6.4l1.9,5.6c-2.9.6-5.6,2.5-8,4.9-6.8,6.8-6.9,15.4,1.5,23.8l1.2,1.2c-.9-4.8,1.1-9.9,5.2-14.1C1010.9,388.3,1019.8,387.5,1025.9,393.7Zm-4.4,4.8c-4-3.9-9.5-3.5-14.2,1.2s-4.9,10.6-1.2,14.3,9.3,3.7,14.5-1.5S1025.5,402.5,1021.5,398.5Z"/><path class="b" d="M1076.2,363.8l-24.5-24.4,8.2,32.6-2.2,2.2-32.4-8.1,24.4,24.3-4.6,4.6-33.7-33.6,4-3.9,37.6,9.6-9.8-37.5,4-3.9,33.6,33.5Z"/></g><path class="c" d="M940.3,448.1a25.7,25.7,0,0,0-5.6-3.1,20.2,20.2,0,0,0-6.3-1.6h-3a23.3,23.3,0,0,0-4.4,1,19.5,19.5,0,0,0-7,3.6,15.5,15.5,0,0,0-2.5,2.6,15.9,15.9,0,0,0-2.6,5,22,22,0,0,0-1,5.7,34.8,34.8,0,0,0,1,9.1.6.6,0,0,1,.1.4h-.4a32.8,32.8,0,0,0-7-1,22.5,22.5,0,0,0-6.3.6,16.4,16.4,0,0,0-6.9,3.3,20.6,20.6,0,0,0-2.9,3,37.2,37.2,0,0,0-2.1,3.9,27.2,27.2,0,0,0-1.7,6.2,12.8,12.8,0,0,0-.1,3.4,18,18,0,0,0,.9,4.5,24.9,24.9,0,0,0,5.3,9.2,24.3,24.3,0,0,0,3.8,3.4,23.5,23.5,0,0,0,5.6,3.1,32,32,0,0,0,8.6,2.2,45.1,45.1,0,0,0,9,0,56,56,0,0,0,5.9-.7l10.9-1.4a86,86,0,0,1,11.3-.9,41.9,41.9,0,0,1,5,.3h.2v-.2a7.8,7.8,0,0,0-.2-1.6c-.1-1.3-.1-2.5-.1-3.8s.3-5.3.5-7.9.9-6.7,1.3-10.1.7-5.2,1.1-7.8a59,59,0,0,0,.3-8.4,34.4,34.4,0,0,0-1.3-7.8,25.8,25.8,0,0,0-5.7-10.7A29,29,0,0,0,940.3,448.1Z"/><g class="a"><path class="b" d="M1508.5,106.3c5.8,5.8,6.3,14.6-2.3,23.2-4.7,4.7-11,7.9-16.4,8.2l-1.6-6c4.4-.1,9.6-2.4,13.7-6.5s5.6-10.3,2-13.9-8.6-3.8-16.3,4l-7.7,7.6-15.8-19.3,19-19,4.2,4.2-15,14.9,8.3,10.2,3.8-3.8C1494.4,100.1,1502.5,100.3,1508.5,106.3Z"/><path class="b" d="M1540.7,73.8c6.5,6.4,5.4,15.8-1.3,22.5-9,9-20.2,8-30.9-2.7s-11.1-24.1-1.7-33.5c3.2-3.1,6.8-5.5,10.3-6.4l1.9,5.6a17.1,17.1,0,0,0-8,4.9c-6.8,6.8-6.9,15.4,1.5,23.8l1.3,1.2c-1-4.8,1-9.9,5.2-14.1C1525.7,68.4,1534.5,67.6,1540.7,73.8Zm-4.5,4.8c-3.9-3.9-9.4-3.5-14.1,1.2s-4.9,10.6-1.2,14.3,9.2,3.7,14.4-1.5S1540.2,82.6,1536.2,78.6Z"/><path class="b" d="M1591,43.9l-24.6-24.4,8.3,32.6-2.2,2.2-32.4-8.2,24.3,24.4-4.6,4.6-33.6-33.6,3.9-3.9,37.7,9.6L1558,9.7l3.9-3.9,33.7,33.5Z"/></g><path class="c" d="M1455,128.2a23.5,23.5,0,0,0-5.6-3.1,19.6,19.6,0,0,0-6.2-1.6h-3a21.6,21.6,0,0,0-4.4,1,18,18,0,0,0-7,3.6,10.3,10.3,0,0,0-2.5,2.6,14.1,14.1,0,0,0-2.6,5,22,22,0,0,0-1,5.7,31,31,0,0,0,1,9.1v.4h-.4a33.8,33.8,0,0,0-7-1,21.8,21.8,0,0,0-6.3.6,15.8,15.8,0,0,0-6.9,3.3,16.4,16.4,0,0,0-2.9,3,25.6,25.6,0,0,0-2.2,3.9,33.5,33.5,0,0,0-1.7,6.2,18.2,18.2,0,0,0-.1,3.3,25,25,0,0,0,6.3,13.8,20.5,20.5,0,0,0,3.8,3.4,23.5,23.5,0,0,0,5.6,3.1,31.3,31.3,0,0,0,8.5,2.2,45.1,45.1,0,0,0,9,0c2-.1,4-.4,6-.7l10.8-1.4a87.5,87.5,0,0,1,11.4-.9,26.3,26.3,0,0,1,4.9.3h.2v-.2a10,10,0,0,1-.2-1.6,16.1,16.1,0,0,1-.1-3.8,69.8,69.8,0,0,1,.5-7.9c.4-3.4.8-6.7,1.3-10.1s.7-5.2,1-7.8a39.4,39.4,0,0,0,.3-8.4,34.2,34.2,0,0,0-1.2-7.8,27,27,0,0,0-5.7-10.7A24.1,24.1,0,0,0,1455,128.2Z"/><g class="a"><path class="b" d="M559.6,112.1l4.1,4.2-24.1,24.2-3.3-3.3.5-26.9c.1-7-1.3-9.8-3.5-11.9s-8-3.1-12.7,1.6-5.4,7.7-4.9,12.2l-6.1.5c-.6-5.9,1.9-12.2,7.2-17.4,7-7,15.1-8,20.9-2.2,3.2,3.3,5.2,7.2,5,16.1l-.4,20.2Z"/><path class="b" d="M583.1,77.1c5.7,5.7,6.1,14.5-2.4,23-4.8,4.8-11.1,8-16.4,8.3l-1.6-6a21.2,21.2,0,0,0,13.7-6.6c5.1-5,5.6-10.2,2-13.8s-8.4-3.3-14.2,2.4l-2.7,2.7-3.3-3.4-2-18.8L540.1,81.1l-4.2-4.2,22.2-22.2,3.2,3.3,2.1,19.6C570.7,71.6,578,71.9,583.1,77.1Z"/><path class="b" d="M633.9,46.1,609.4,21.7l8.3,32.5-2.2,2.2L583,48.3l24.4,24.4-4.6,4.6L569.2,43.7l3.9-4,37.6,9.6L601,11.9l3.9-4,33.6,33.6Z"/></g><path class="c" d="M500.2,128.2a26.3,26.3,0,0,0-5.7-3.1,19.6,19.6,0,0,0-6.2-1.6h-3a23.3,23.3,0,0,0-4.4,1,19.5,19.5,0,0,0-7,3.6,12.4,12.4,0,0,0-2.5,2.6,15.9,15.9,0,0,0-2.6,5,22,22,0,0,0-1,5.7,34.8,34.8,0,0,0,1,9.1.6.6,0,0,1,.1.4h-.4a32.8,32.8,0,0,0-7-1,22.5,22.5,0,0,0-6.3.6,16.7,16.7,0,0,0-9.8,6.3,18.6,18.6,0,0,0-2.1,3.9,22.9,22.9,0,0,0-1.7,6.2,12.2,12.2,0,0,0-.2,3.3,23.6,23.6,0,0,0,1,4.6,24.9,24.9,0,0,0,5.3,9.2,20.5,20.5,0,0,0,3.8,3.4,23.5,23.5,0,0,0,5.6,3.1,32,32,0,0,0,8.6,2.2,45.1,45.1,0,0,0,9,0,59.3,59.3,0,0,0,5.9-.7l10.9-1.4a84.7,84.7,0,0,1,11.3-.9,26.3,26.3,0,0,1,4.9.3h.2v-.2c-.1-.6-.1-1.1-.2-1.6s-.1-2.5-.1-3.8a69.8,69.8,0,0,1,.5-7.9c.4-3.4.9-6.7,1.3-10.1s.7-5.2,1-7.8a47.3,47.3,0,0,0,.4-8.4,41,41,0,0,0-1.3-7.8,25.8,25.8,0,0,0-5.7-10.7A29,29,0,0,0,500.2,128.2Z"/><g class="a"><path class="b" d="M112.2,426.2c5.8,5.8,6.3,14.6-2.2,23.2-4.8,4.7-11,7.9-16.5,8.2l-1.6-6c4.4-.1,9.7-2.4,13.7-6.5s5.7-10.3,2-13.9-8.5-3.8-16.3,4l-7.7,7.6L67.8,423.5l19-19,4.2,4.2L76.1,423.6l8.3,10.2,3.7-3.8C98.1,420,106.3,420.2,112.2,426.2Z"/><path class="b" d="M141.5,397.3c5.7,5.6,6.1,14.4-2.4,23-4.8,4.8-11.1,7.9-16.5,8.2l-1.6-6c4.4-.1,9.7-2.4,13.8-6.5s5.6-10.2,1.9-13.9-8.4-3.3-14.1,2.5l-2.7,2.6-3.4-3.3-1.9-18.8L98.4,401.2l-4.1-4.1,22.1-22.2,3.3,3.3,2.1,19.6C129.1,391.7,136.3,392.1,141.5,397.3Z"/><path class="b" d="M192.3,366.2l-24.5-24.4,8.2,32.6-2.2,2.2-32.4-8.1,24.4,24.3-4.7,4.6-33.6-33.6,4-3.9,37.6,9.6L159.3,332l4-3.9,33.6,33.5Z"/></g><path class="c" d="M58.8,448.1a24.2,24.2,0,0,0-5.7-3.1,18.9,18.9,0,0,0-6.2-1.6h-3a23.3,23.3,0,0,0-4.4,1,19.5,19.5,0,0,0-7,3.6,12.4,12.4,0,0,0-2.5,2.6,15.9,15.9,0,0,0-2.6,5,22,22,0,0,0-1,5.7,34.8,34.8,0,0,0,1,9.1.6.6,0,0,1,.1.4h-.4a32.8,32.8,0,0,0-7-1,22.5,22.5,0,0,0-6.3.6A16.7,16.7,0,0,0,4,476.6a24.8,24.8,0,0,0-2.1,3.9,27.2,27.2,0,0,0-1.7,6.2,12.8,12.8,0,0,0-.1,3.4,18,18,0,0,0,.9,4.5,24.9,24.9,0,0,0,5.3,9.2,20.5,20.5,0,0,0,3.8,3.4,23.5,23.5,0,0,0,5.6,3.1,32,32,0,0,0,8.6,2.2,45.1,45.1,0,0,0,9,0,56,56,0,0,0,5.9-.7l10.9-1.4a84.7,84.7,0,0,1,11.3-.9,39.1,39.1,0,0,1,4.9.3h.3v-.2c-.1-.6-.1-1.1-.2-1.6s-.1-2.5-.1-3.8.3-5.3.5-7.9.9-6.7,1.3-10.1.7-5.2,1-7.8a47.3,47.3,0,0,0,.4-8.4,41,41,0,0,0-1.3-7.8,25.8,25.8,0,0,0-5.7-10.7A29,29,0,0,0,58.8,448.1Z"/><g class="a"><path class="b" d="M757.3,158.7c6.5,6.5,5.4,15.8-1.2,22.5-9.1,9-20.2,8.1-30.9-2.6s-11.2-24.1-1.7-33.5c3.1-3.2,6.8-5.6,10.3-6.4l1.9,5.5c-2.9.6-5.6,2.5-8,4.9-6.8,6.8-6.9,15.5,1.5,23.9l1.2,1.1c-.9-4.8,1.1-9.9,5.2-14.1C742.3,153.4,751.2,152.5,757.3,158.7Zm-4.4,4.8c-4-3.9-9.5-3.5-14.2,1.2s-4.9,10.6-1.2,14.3,9.3,3.7,14.5-1.5S756.9,167.5,752.9,163.5Z"/><path class="b" d="M787,129.3c5.8,5.8,6.4,14.6-2.2,23.2-4.8,4.8-11,7.9-16.5,8.3l-1.5-6a21.3,21.3,0,0,0,13.6-6.5c5.1-5.1,5.7-10.3,2-14s-8.5-3.7-16.3,4l-7.6,7.7-15.8-19.4,18.9-18.9,4.2,4.1-14.9,15,8.3,10.1,3.7-3.8C773,123.1,781.1,123.4,787,129.3Z"/><path class="b" d="M837.5,99,813,74.5l8.3,32.6-2.2,2.2-32.5-8.1L811,125.5l-4.6,4.6L772.8,96.5l3.9-3.9,37.6,9.6-9.7-37.5,3.9-3.9,33.6,33.6Z"/></g><path class="c" d="M658.2,193.8a38.4,38.4,0,1,0,54.3,0A38.6,38.6,0,0,0,658.2,193.8Zm39,56-38.8-38.7,47-8.2Z"/><g class="a"><path class="b" d="M382.5,351.8c6.5,6.4,5.4,15.8-1.3,22.5-9,9-20.2,8-30.9-2.7s-11.1-24.1-1.7-33.5c3.2-3.2,6.8-5.6,10.3-6.4l1.9,5.6a16.3,16.3,0,0,0-8,4.9c-6.8,6.8-6.9,15.4,1.5,23.8l1.3,1.2c-1-4.8,1-9.9,5.2-14.1C367.5,346.4,376.3,345.6,382.5,351.8Zm-4.5,4.8c-3.9-3.9-9.4-3.5-14.1,1.2s-4.9,10.6-1.2,14.3,9.2,3.7,14.4-1.5S382,360.6,378,356.6Z"/><path class="b" d="M412.2,322.4c5.8,5.8,6.3,14.6-2.3,23.2-4.7,4.7-11,7.9-16.4,8.2l-1.6-6c4.4-.1,9.6-2.4,13.7-6.5s5.6-10.3,2-13.9-8.6-3.8-16.4,4l-7.6,7.6-15.8-19.3,19-19,4.1,4.2L376,319.8l8.3,10.2,3.8-3.8C398.1,316.2,406.2,316.4,412.2,322.4Z"/><path class="b" d="M462.7,292l-24.6-24.4,8.3,32.5-2.2,2.2-32.4-8.1,24.3,24.4-4.6,4.6-33.6-33.6,3.9-4,37.7,9.6-9.8-37.4,3.9-4,33.7,33.6Z"/></g><path class="c" d="M283.4,386.9a38.4,38.4,0,1,0,54.2,0A38.4,38.4,0,0,0,283.4,386.9Zm38.9,56-38.7-38.8,46.9-8.2Z"/><g class="a"><path class="b" d="M1456.6,413.3c6.5,6.5,5.4,15.9-1.3,22.5-9,9.1-20.1,8.1-30.9-2.6s-11.1-24.1-1.7-33.5c3.2-3.2,6.8-5.6,10.3-6.4l2,5.6c-2.9.5-5.7,2.4-8.1,4.8-6.8,6.8-6.9,15.5,1.5,23.9a6.9,6.9,0,0,0,1.3,1.1c-1-4.8,1-9.9,5.2-14C1441.6,408,1450.4,407.1,1456.6,413.3Zm-4.5,4.9c-3.9-4-9.4-3.5-14.1,1.2s-4.9,10.5-1.2,14.2,9.2,3.7,14.4-1.5S1456.1,422.2,1452.1,418.2Z"/><path class="b" d="M1486.3,383.9c5.8,5.8,6.3,14.6-2.3,23.2-4.7,4.8-11,8-16.4,8.3l-1.6-6a21.6,21.6,0,0,0,13.7-6.5c5.1-5.1,5.6-10.3,2-14s-8.6-3.7-16.3,4.1l-7.7,7.6-15.8-19.4,19-18.9,4.2,4.2-15,14.9,8.3,10.1,3.8-3.7C1472.2,377.7,1480.3,378,1486.3,383.9Z"/><path class="b" d="M1536.8,353.6l-24.5-24.4,8.2,32.5-2.2,2.2-32.4-8.1,24.3,24.3-4.6,4.7L1472,351.1l4-3.9,37.6,9.6-9.8-37.4,4-4,33.6,33.6Z"/></g><path class="c" d="M1357.5,448.5a38.4,38.4,0,1,0,54.3,0A38.3,38.3,0,0,0,1357.5,448.5Zm39,56-38.8-38.8,47-8.2Z"/><g class="a"><path class="b" d="M1708,179.9l4.2,4.1-24.1,24.2-3.3-3.3.5-26.9c.1-7-1.4-9.8-3.5-11.9s-8-3.1-12.7,1.6-5.4,7.7-5,12.3l-6.1.4c-.6-5.8,2-12.2,7.2-17.4,7.1-7,15.2-7.9,20.9-2.2,3.3,3.3,5.3,7.2,5.1,16.1l-.4,20.2Z"/><path class="b" d="M1695.3,133.7l33.6,33.6-4.7,4.8-29.5-29.5-7.6,7.6-4.1-4.1Z"/><path class="b" d="M1772.7,123.5l-24.5-24.4,8.2,32.5-2.2,2.3-32.4-8.2,24.4,24.4-4.7,4.6-33.6-33.6,4-4,37.6,9.6-9.8-37.4,4-3.9,33.6,33.5Z"/></g><path class="c" d="M1648.6,196a23.9,23.9,0,0,0-5.6-3.2,22.4,22.4,0,0,0-6.3-1.6h-2.9a21.6,21.6,0,0,0-4.4,1,19.4,19.4,0,0,0-7,3.6,12.3,12.3,0,0,0-2.5,2.6,13.7,13.7,0,0,0-2.6,5.1,21.3,21.3,0,0,0-1,5.6,28,28,0,0,0,1,9.1c0,.2,0,.3.1.4h-.4a34,34,0,0,0-7-1.1,25.9,25.9,0,0,0-6.3.6,18.1,18.1,0,0,0-7,3.3,16.7,16.7,0,0,0-2.8,3.1,18.7,18.7,0,0,0-2.2,3.9,30.5,30.5,0,0,0-1.7,6.1,12.8,12.8,0,0,0-.1,3.4,17.3,17.3,0,0,0,1,4.5,23.9,23.9,0,0,0,5.2,9.2,41.4,41.4,0,0,0,3.8,3.5,31.5,31.5,0,0,0,5.7,3.1,31.1,31.1,0,0,0,8.5,2.1,54.1,54.1,0,0,0,9,.1l6-.7,10.8-1.5a87.5,87.5,0,0,1,11.4-.9,27,27,0,0,1,4.9.4h.2v-.3a8.8,8.8,0,0,1-.2-1.6,23.6,23.6,0,0,1-.2-3.8c.1-2.6.3-5.2.6-7.9s.8-6.7,1.3-10.1.7-5.2,1-7.8a46.4,46.4,0,0,0,.3-8.3,35.1,35.1,0,0,0-1.2-7.9,27,27,0,0,0-5.7-10.7A29.1,29.1,0,0,0,1648.6,196Z"/><g class="a"><path class="b" d="M1968.2,102.3c5.6,5.7,6,14.5-2.5,23-4.8,4.8-11,8-16.4,8.3l-1.6-6a21.2,21.2,0,0,0,13.7-6.6c5.1-5,5.6-10.2,2-13.9s-8.4-3.3-14.2,2.5l-2.7,2.7-3.3-3.4-1.9-18.8-16.2,16.2-4.2-4.2,22.2-22.2,3.3,3.3,2,19.6C1955.8,96.7,1963,97.1,1968.2,102.3Z"/><path class="b" d="M2000.7,69.1c6.4,6.5,5.3,15.9-1.3,22.5-9.1,9.1-20.2,8.1-30.9-2.6s-11.1-24.1-1.7-33.5c3.1-3.2,6.8-5.6,10.3-6.4l1.9,5.6c-2.9.5-5.6,2.4-8,4.8-6.8,6.8-6.9,15.5,1.5,23.9l1.2,1.1c-.9-4.8,1.1-9.9,5.3-14C1985.6,63.8,1994.5,62.9,2000.7,69.1Zm-4.5,4.9c-3.9-4-9.5-3.5-14.2,1.2s-4.9,10.5-1.2,14.2,9.3,3.7,14.5-1.5S2000.2,78,1996.2,74Z"/><path class="b" d="M2050.9,39.3l-24.5-24.4,8.3,32.5-2.3,2.2L2000,41.5l24.4,24.4-4.6,4.6-33.6-33.6,3.9-4,37.6,9.6-9.8-37.4,4-4,33.6,33.6Z"/></g><path class="c" d="M1915.1,123.5a26.1,26.1,0,0,0-5.6-3.2,23.3,23.3,0,0,0-6.3-1.6,10.1,10.1,0,0,0-3,.1,34.3,34.3,0,0,0-4.4.9,21.2,21.2,0,0,0-7,3.6,30.7,30.7,0,0,0-2.5,2.6,20.5,20.5,0,0,0-2.6,5.1,21.3,21.3,0,0,0-1,5.6,35.6,35.6,0,0,0,1,9.2.4.4,0,0,1,.1.3h-.4a27.5,27.5,0,0,0-7-1,22.5,22.5,0,0,0-6.3.6,15.3,15.3,0,0,0-6.9,3.3,20.6,20.6,0,0,0-2.9,3,24.2,24.2,0,0,0-2.1,3.9,32.5,32.5,0,0,0-1.7,6.1,13,13,0,0,0-.1,3.4,17.9,17.9,0,0,0,.9,4.6,25.7,25.7,0,0,0,5.3,9.2,30.7,30.7,0,0,0,3.8,3.4,23.5,23.5,0,0,0,5.6,3.1,31.8,31.8,0,0,0,8.6,2.1,38.7,38.7,0,0,0,9,.1l5.9-.7,10.9-1.5c3.8-.4,7.5-.8,11.3-.9a28.1,28.1,0,0,1,5,.4h.2v-.3a7.7,7.7,0,0,0-.2-1.5c-.1-1.3-.1-2.6-.1-3.9s.3-5.2.5-7.8.9-6.8,1.3-10.2.7-5.2,1.1-7.8a57.1,57.1,0,0,0,.3-8.3,35.2,35.2,0,0,0-1.3-7.9,26.1,26.1,0,0,0-5.7-10.6A23.1,23.1,0,0,0,1915.1,123.5Z"/></svg>