<svg xmlns="http://www.w3.org/2000/svg" viewBox="0 0 512 512">
  <defs>
    <style>
      .a {
        fill: #201600;
      }

      .b {
        fill: none;
      }
    </style>
  </defs>
  <title>arc</title>
  <g>
    <path class="a" d="M162.63477,93.36523A228.49665,228.49665,0,0,0,0,26V136A120.13623,120.13623,0,0,1,120,256,120.13623,120.13623,0,0,1,0,376V486a228.49462,228.49462,0,0,0,162.63477-67.36523,230.001,230.001,0,0,0,0-325.26954Z"/>
    <path class="a" d="M444.63477,93.36523A228.49665,228.49665,0,0,0,282,26V136a120,120,0,0,1,0,240V486A230.0003,230.0003,0,0,0,444.63477,93.36523Z"/>
    <rect class="b" width="512" height="512"/>
  </g>
</svg>
