<svg xmlns="http://www.w3.org/2000/svg" viewBox="0 0 11.1 7.3">
  <defs>
    <style>
      .a {
        fill: #fff;
      }
    </style>
  </defs>
  <title>handle</title>
  <g>
    <path class="a" d="M10.9,3.2l-3-3L7.4,0,7,.2a.6.6,0,0,0,0,.9L9.5,3.7,7,6.2a.6.6,0,0,0,0,.9.6.6,0,0,0,.9,0l3-3a.8.8,0,0,0,.2-.4A.8.8,0,0,0,10.9,3.2Z"/>
    <path class="a" d="M4.1.2a.6.6,0,0,0-.9,0l-3,3a.8.8,0,0,0-.2.5.8.8,0,0,0,.2.4l3,3c.1.2.3.2.5.2a.4.4,0,0,0,.4-.2.6.6,0,0,0,0-.9L1.5,3.7,4.1,1.1A.6.6,0,0,0,4.1.2Z"/>
  </g>
</svg>
