<svg xmlns="http://www.w3.org/2000/svg" viewBox="0 0 48.8 56.5">
  <defs>
    <style>
      .a {
        fill: #3ba935;
      }
    </style>
  </defs>
  <title>i-1</title>
  <g>
    <path class="a" d="M47,46.5l-5.5-5.6V1.1A1.1,1.1,0,0,0,40.4,0H11.8c-.2,0-.3.1-.4.3L.3,11.6l-.2.2H0V48.1a1.1,1.1,0,0,0,1.1,1.1H33.4L39,54.7a5.5,5.5,0,0,0,4.1,1.8,5.7,5.7,0,0,0,3.9-10ZM3.8,11.3l7.4-7.4v7.4ZM45.7,48.2a3.4,3.4,0,0,1,.9,2.4,4.4,4.4,0,0,1-1.1,2.5,3.9,3.9,0,0,1-2.5,1,3.3,3.3,0,0,1-2.3-.9Zm-6.4-9.5-8.9-8.8-.2-.2h-.4l-8.5-2a1,1,0,0,0-1.1.4,1.3,1.3,0,0,0-.4,1l2,8.6v.2c0,.2.1.3.3.4l8.8,8.9H2.2V13.5H12.3a1.1,1.1,0,0,0,1.1-1.1V2.3H39.3ZM27.4,31.3,23.7,35l-1.1-4.8ZM44,46.6l-5,5L24.7,37.3l5-5Z"/>
    <path class="a" d="M7.5,18.1c-.1.2,0,.4.2.7a1.3,1.3,0,0,0,.9.4H33A1.1,1.1,0,0,0,33,17H8.6A1.1,1.1,0,0,0,7.5,18.1Z"/>
    <path class="a" d="M33,22.6H8.6a1.1,1.1,0,0,0-1.1,1.1.7.7,0,0,0,.2.7,1,1,0,0,0,.9.4H33a1.1,1.1,0,1,0,0-2.2Z"/>
    <path class="a" d="M15.1,28.2H8.6a1.1,1.1,0,0,0,0,2.2h6.5a1.1,1.1,0,0,0,1.1-1.1,1,1,0,0,0-.2-.7A1.5,1.5,0,0,0,15.1,28.2Z"/>
  </g>
</svg>
