<svg xmlns="http://www.w3.org/2000/svg" viewBox="0 0 56.4 56.6">
  <defs>
    <style>
      .a {
        fill: #3ba935;
      }
    </style>
  </defs>
  <title>i-2</title>
  <g>
    <path class="a" d="M56.3,38.9h0a3.1,3.1,0,0,0-2.9-2.1h-1V6.8a1.1,1.1,0,0,0-1.1-1.1H38.2V1.1A1.1,1.1,0,0,0,37.1,0H1.1A1.1,1.1,0,0,0,0,1.1V50.2a1.1,1.1,0,0,0,1.1,1.2H32l-.4,1.2a3.2,3.2,0,0,0,1.1,3.5,3.4,3.4,0,0,0,1.7.5,3.5,3.5,0,0,0,1.8-.5l5.1-3.7a.7.7,0,0,1,.9,0l5,3.6a3.2,3.2,0,0,0,3.5,0,3.1,3.1,0,0,0,1.1-3.5l-1.9-5.7c-.1-.4,0-.7.2-.8l5-3.6A3.4,3.4,0,0,0,56.3,38.9Zm-8.6,8.6,1.9,5.7a.9.9,0,0,1-.2.9.8.8,0,0,1-.9,0l-5-3.6a3.4,3.4,0,0,0-1.7-.5,3.5,3.5,0,0,0-1.8.5l-5,3.6a.7.7,0,0,1-.9,0,.6.6,0,0,1-.2-.8l1.9-5.8A3.2,3.2,0,0,0,34.7,44l-5-3.6a.6.6,0,0,1-.2-.8.7.7,0,0,1,.7-.6h6.1l1.2-.2A3.2,3.2,0,0,0,39.1,37L41,31.1a.7.7,0,0,1,.7-.4.8.8,0,0,1,.7.5L44.3,37a3.2,3.2,0,0,0,2.9,2.1h6.1a.8.8,0,0,1,.7.5h0a.6.6,0,0,1,.1.4q0,.1-.3.3l-5,3.6A3.1,3.1,0,0,0,47.7,47.5ZM35.9,36.8H30.1a3.1,3.1,0,0,0-2.9,2.1,3.2,3.2,0,0,0,1.1,3.5l5,3.6a.6.6,0,0,1,.2.8l-.7,2.4H2.3V2.3H35.9ZM46.6,24a1.1,1.1,0,0,0-1.1-1.1H38.1V19.5h7.4a1.1,1.1,0,1,0,0-2.2H38.1V13.9h7.4a1.1,1.1,0,1,0,0-2.2H38.1V8H50V36.9H46.9a.7.7,0,0,1-.4-.5l-1.9-5.8a3.1,3.1,0,0,0-5.8,0l-.7,2.2V25.1h7.4A1.1,1.1,0,0,0,46.6,24Z"/>
    <path class="a" d="M8.7,9.8H29.5a1.1,1.1,0,1,0,0-2.2H8.7a1.1,1.1,0,1,0,0,2.2Z"/>
    <path class="a" d="M8.7,17.4H29.5a1.1,1.1,0,0,0,0-2.2H8.7a1.1,1.1,0,0,0,0,2.2Z"/>
    <path class="a" d="M8.7,24.9H29.5a1.1,1.1,0,0,0,0-2.2H8.7a1.1,1.1,0,0,0,0,2.2Z"/>
    <path class="a" d="M8.7,32.5H29.5a1.1,1.1,0,1,0,0-2.2H8.7a1.1,1.1,0,1,0,0,2.2Z"/>
  </g>
</svg>
