<svg xmlns="http://www.w3.org/2000/svg" viewBox="0 0 56.4 47.1">
  <defs>
    <style>
      .a {
        fill: #3ba935;
      }
    </style>
  </defs>
  <title>i-3</title>
  <g>
    <path class="a" d="M52.3,0H4.1A4.1,4.1,0,0,0,0,4.1V33.9A4.1,4.1,0,0,0,4.1,38H24.5v6.8H12.7a1.1,1.1,0,0,0-1.1,1.1,1.1,1.1,0,0,0,1.1,1.2h31a1.1,1.1,0,0,0,1.1-1.2,1.1,1.1,0,0,0-1.1-1.1H31.9V38H52.3a4.1,4.1,0,0,0,4.1-4.1V4.1A4.1,4.1,0,0,0,52.3,0ZM29.6,38v6.8H26.8V38ZM2.3,31.6H54.1v2.3a1.8,1.8,0,0,1-1.8,1.9H4.1a1.8,1.8,0,0,1-1.8-1.9Zm0-2.3V4.1A1.8,1.8,0,0,1,4.1,2.3H52.3a1.8,1.8,0,0,1,1.8,1.8V29.3Z"/>
    <path class="a" d="M40.9,8a1.2,1.2,0,0,0-.9.3L23.7,21.9,20,17.6a1.2,1.2,0,0,0-1.7-.1,1.2,1.2,0,0,0-.1,1.7l5.2,6L41.5,10.1a1.2,1.2,0,0,0,.2-1.7A1.2,1.2,0,0,0,40.9,8Z"/>
  </g>
</svg>
