<svg width="295" height="46" viewBox="0 0 295 46" fill="none" xmlns="http://www.w3.org/2000/svg">
<path d="M68.0859 44.0332V1.08398H60.0879V16.1719C59.248 14.8633 58.2812 13.5645 57.1875 12.2754C56.1133 10.9668 54.8828 9.7168 53.4961 8.52539C52.1094 7.31445 50.5664 6.19141 48.8672 5.15625C47.168 4.12109 45.293 3.22266 43.2422 2.46094C41.1914 1.69922 38.9453 1.10352 36.5039 0.673828C34.082 0.224609 31.4453 0 28.5938 0C25.3711 0 22.4316 0.302734 19.7754 0.908203C17.1387 1.51367 14.7656 2.34375 12.6562 3.39844C10.5469 4.45312 8.71094 5.70312 7.14844 7.14844C5.58594 8.57422 4.27734 10.1172 3.22266 11.7773C2.1875 13.4375 1.39648 15.1758 0.849609 16.9922C0.322266 18.7891 0.0390625 20.5859 0 22.3828V22.8223C0 25.5762 0.527344 28.2324 1.58203 30.791C2.65625 33.3496 4.25781 35.6738 6.38672 37.7637C7.71484 39.0723 9.0625 40.166 10.4297 41.0449C11.8164 41.9043 13.1738 42.6074 14.502 43.1543C15.8301 43.7012 17.1094 44.1113 18.3398 44.3848C19.5703 44.6582 20.7129 44.8438 21.7676 44.9414C22.8223 45.0586 23.7695 45.1172 24.6094 45.1172H26.6895C33.2324 45.1172 39.043 43.4277 44.1211 40.0488C49.1992 36.6504 53.4082 31.6309 56.748 24.9902L50.6836 21.9434C49.2578 24.7754 47.6367 27.2266 45.8203 29.2969C44.0039 31.3672 42.0605 33.0762 39.9902 34.4238C37.9395 35.752 35.791 36.7383 33.5449 37.3828C31.3184 38.0273 29.0625 38.3496 26.7773 38.3496C24.7461 38.3496 22.8906 38.125 21.2109 37.6758C19.5312 37.2266 18.0273 36.6211 16.6992 35.8594C15.3711 35.0781 14.2188 34.1699 13.2422 33.1348C12.2656 32.0996 11.4551 30.9961 10.8105 29.8242C10.166 28.6523 9.69727 27.4609 9.4043 26.25C9.11133 25.0391 8.96484 23.8672 8.96484 22.7344V22.5293C9.00391 21.2207 9.16992 19.9219 9.46289 18.6328C9.75586 17.3438 10.2148 16.1133 10.8398 14.9414C11.4648 13.7695 12.2754 12.6855 13.2715 11.6895C14.2871 10.6934 15.5176 9.83398 16.9629 9.11133C18.4082 8.36914 20.0879 7.79297 22.002 7.38281C23.9355 6.95312 26.1328 6.73828 28.5938 6.73828C31.4258 6.73828 33.9941 6.99219 36.2988 7.5C38.623 8.00781 40.7227 8.69141 42.5977 9.55078C44.4727 10.3906 46.1328 11.3672 47.5781 12.4805C49.0234 13.5938 50.293 14.7559 51.3867 15.9668C52.5 17.1582 53.4473 18.3691 54.2285 19.5996C55.0098 20.8105 55.6641 21.9531 56.1914 23.0273C56.7188 24.082 57.1387 25.0293 57.4512 25.8691C57.7637 26.6895 57.9883 27.3145 58.125 27.7441C58.7891 29.6973 59.2773 31.6895 59.5898 33.7207C59.9219 35.752 60.0879 37.8027 60.0879 39.873V44.0332H68.0859Z" fill="white"/>
<path d="M68.0859 44.0332V1.08398H60.0879V16.1719C59.248 14.8633 58.2812 13.5645 57.1875 12.2754C56.1133 10.9668 54.8828 9.7168 53.4961 8.52539C52.1094 7.31445 50.5664 6.19141 48.8672 5.15625C47.168 4.12109 45.293 3.22266 43.2422 2.46094C41.1914 1.69922 38.9453 1.10352 36.5039 0.673828C34.082 0.224609 31.4453 0 28.5938 0C25.3711 0 22.4316 0.302734 19.7754 0.908203C17.1387 1.51367 14.7656 2.34375 12.6562 3.39844C10.5469 4.45312 8.71094 5.70312 7.14844 7.14844C5.58594 8.57422 4.27734 10.1172 3.22266 11.7773C2.1875 13.4375 1.39648 15.1758 0.849609 16.9922C0.322266 18.7891 0.0390625 20.5859 0 22.3828V22.8223C0 25.5762 0.527344 28.2324 1.58203 30.791C2.65625 33.3496 4.25781 35.6738 6.38672 37.7637C7.71484 39.0723 9.0625 40.166 10.4297 41.0449C11.8164 41.9043 13.1738 42.6074 14.502 43.1543C15.8301 43.7012 17.1094 44.1113 18.3398 44.3848C19.5703 44.6582 20.7129 44.8438 21.7676 44.9414C22.8223 45.0586 23.7695 45.1172 24.6094 45.1172H26.6895C33.2324 45.1172 39.043 43.4277 44.1211 40.0488C49.1992 36.6504 53.4082 31.6309 56.748 24.9902L50.6836 21.9434C49.2578 24.7754 47.6367 27.2266 45.8203 29.2969C44.0039 31.3672 42.0605 33.0762 39.9902 34.4238C37.9395 35.752 35.791 36.7383 33.5449 37.3828C31.3184 38.0273 29.0625 38.3496 26.7773 38.3496C24.7461 38.3496 22.8906 38.125 21.2109 37.6758C19.5312 37.2266 18.0273 36.6211 16.6992 35.8594C15.3711 35.0781 14.2188 34.1699 13.2422 33.1348C12.2656 32.0996 11.4551 30.9961 10.8105 29.8242C10.166 28.6523 9.69727 27.4609 9.4043 26.25C9.11133 25.0391 8.96484 23.8672 8.96484 22.7344V22.5293C9.00391 21.2207 9.16992 19.9219 9.46289 18.6328C9.75586 17.3438 10.2148 16.1133 10.8398 14.9414C11.4648 13.7695 12.2754 12.6855 13.2715 11.6895C14.2871 10.6934 15.5176 9.83398 16.9629 9.11133C18.4082 8.36914 20.0879 7.79297 22.002 7.38281C23.9355 6.95312 26.1328 6.73828 28.5938 6.73828C31.4258 6.73828 33.9941 6.99219 36.2988 7.5C38.623 8.00781 40.7227 8.69141 42.5977 9.55078C44.4727 10.3906 46.1328 11.3672 47.5781 12.4805C49.0234 13.5938 50.293 14.7559 51.3867 15.9668C52.5 17.1582 53.4473 18.3691 54.2285 19.5996C55.0098 20.8105 55.6641 21.9531 56.1914 23.0273C56.7188 24.082 57.1387 25.0293 57.4512 25.8691C57.7637 26.6895 57.9883 27.3145 58.125 27.7441C58.7891 29.6973 59.2773 31.6895 59.5898 33.7207C59.9219 35.752 60.0879 37.8027 60.0879 39.873V44.0332H68.0859Z" fill="url(#paint0_radial_2050_24)"/>
<path d="M68.0859 44.0332V1.08398H60.0879V16.1719C59.248 14.8633 58.2812 13.5645 57.1875 12.2754C56.1133 10.9668 54.8828 9.7168 53.4961 8.52539C52.1094 7.31445 50.5664 6.19141 48.8672 5.15625C47.168 4.12109 45.293 3.22266 43.2422 2.46094C41.1914 1.69922 38.9453 1.10352 36.5039 0.673828C34.082 0.224609 31.4453 0 28.5938 0C25.3711 0 22.4316 0.302734 19.7754 0.908203C17.1387 1.51367 14.7656 2.34375 12.6562 3.39844C10.5469 4.45312 8.71094 5.70312 7.14844 7.14844C5.58594 8.57422 4.27734 10.1172 3.22266 11.7773C2.1875 13.4375 1.39648 15.1758 0.849609 16.9922C0.322266 18.7891 0.0390625 20.5859 0 22.3828V22.8223C0 25.5762 0.527344 28.2324 1.58203 30.791C2.65625 33.3496 4.25781 35.6738 6.38672 37.7637C7.71484 39.0723 9.0625 40.166 10.4297 41.0449C11.8164 41.9043 13.1738 42.6074 14.502 43.1543C15.8301 43.7012 17.1094 44.1113 18.3398 44.3848C19.5703 44.6582 20.7129 44.8438 21.7676 44.9414C22.8223 45.0586 23.7695 45.1172 24.6094 45.1172H26.6895C33.2324 45.1172 39.043 43.4277 44.1211 40.0488C49.1992 36.6504 53.4082 31.6309 56.748 24.9902L50.6836 21.9434C49.2578 24.7754 47.6367 27.2266 45.8203 29.2969C44.0039 31.3672 42.0605 33.0762 39.9902 34.4238C37.9395 35.752 35.791 36.7383 33.5449 37.3828C31.3184 38.0273 29.0625 38.3496 26.7773 38.3496C24.7461 38.3496 22.8906 38.125 21.2109 37.6758C19.5312 37.2266 18.0273 36.6211 16.6992 35.8594C15.3711 35.0781 14.2188 34.1699 13.2422 33.1348C12.2656 32.0996 11.4551 30.9961 10.8105 29.8242C10.166 28.6523 9.69727 27.4609 9.4043 26.25C9.11133 25.0391 8.96484 23.8672 8.96484 22.7344V22.5293C9.00391 21.2207 9.16992 19.9219 9.46289 18.6328C9.75586 17.3438 10.2148 16.1133 10.8398 14.9414C11.4648 13.7695 12.2754 12.6855 13.2715 11.6895C14.2871 10.6934 15.5176 9.83398 16.9629 9.11133C18.4082 8.36914 20.0879 7.79297 22.002 7.38281C23.9355 6.95312 26.1328 6.73828 28.5938 6.73828C31.4258 6.73828 33.9941 6.99219 36.2988 7.5C38.623 8.00781 40.7227 8.69141 42.5977 9.55078C44.4727 10.3906 46.1328 11.3672 47.5781 12.4805C49.0234 13.5938 50.293 14.7559 51.3867 15.9668C52.5 17.1582 53.4473 18.3691 54.2285 19.5996C55.0098 20.8105 55.6641 21.9531 56.1914 23.0273C56.7188 24.082 57.1387 25.0293 57.4512 25.8691C57.7637 26.6895 57.9883 27.3145 58.125 27.7441C58.7891 29.6973 59.2773 31.6895 59.5898 33.7207C59.9219 35.752 60.0879 37.8027 60.0879 39.873V44.0332H68.0859Z" fill="url(#paint1_radial_2050_24)"/>
<path d="M68.0859 44.0332V1.08398H60.0879V16.1719C59.248 14.8633 58.2812 13.5645 57.1875 12.2754C56.1133 10.9668 54.8828 9.7168 53.4961 8.52539C52.1094 7.31445 50.5664 6.19141 48.8672 5.15625C47.168 4.12109 45.293 3.22266 43.2422 2.46094C41.1914 1.69922 38.9453 1.10352 36.5039 0.673828C34.082 0.224609 31.4453 0 28.5938 0C25.3711 0 22.4316 0.302734 19.7754 0.908203C17.1387 1.51367 14.7656 2.34375 12.6562 3.39844C10.5469 4.45312 8.71094 5.70312 7.14844 7.14844C5.58594 8.57422 4.27734 10.1172 3.22266 11.7773C2.1875 13.4375 1.39648 15.1758 0.849609 16.9922C0.322266 18.7891 0.0390625 20.5859 0 22.3828V22.8223C0 25.5762 0.527344 28.2324 1.58203 30.791C2.65625 33.3496 4.25781 35.6738 6.38672 37.7637C7.71484 39.0723 9.0625 40.166 10.4297 41.0449C11.8164 41.9043 13.1738 42.6074 14.502 43.1543C15.8301 43.7012 17.1094 44.1113 18.3398 44.3848C19.5703 44.6582 20.7129 44.8438 21.7676 44.9414C22.8223 45.0586 23.7695 45.1172 24.6094 45.1172H26.6895C33.2324 45.1172 39.043 43.4277 44.1211 40.0488C49.1992 36.6504 53.4082 31.6309 56.748 24.9902L50.6836 21.9434C49.2578 24.7754 47.6367 27.2266 45.8203 29.2969C44.0039 31.3672 42.0605 33.0762 39.9902 34.4238C37.9395 35.752 35.791 36.7383 33.5449 37.3828C31.3184 38.0273 29.0625 38.3496 26.7773 38.3496C24.7461 38.3496 22.8906 38.125 21.2109 37.6758C19.5312 37.2266 18.0273 36.6211 16.6992 35.8594C15.3711 35.0781 14.2188 34.1699 13.2422 33.1348C12.2656 32.0996 11.4551 30.9961 10.8105 29.8242C10.166 28.6523 9.69727 27.4609 9.4043 26.25C9.11133 25.0391 8.96484 23.8672 8.96484 22.7344V22.5293C9.00391 21.2207 9.16992 19.9219 9.46289 18.6328C9.75586 17.3438 10.2148 16.1133 10.8398 14.9414C11.4648 13.7695 12.2754 12.6855 13.2715 11.6895C14.2871 10.6934 15.5176 9.83398 16.9629 9.11133C18.4082 8.36914 20.0879 7.79297 22.002 7.38281C23.9355 6.95312 26.1328 6.73828 28.5938 6.73828C31.4258 6.73828 33.9941 6.99219 36.2988 7.5C38.623 8.00781 40.7227 8.69141 42.5977 9.55078C44.4727 10.3906 46.1328 11.3672 47.5781 12.4805C49.0234 13.5938 50.293 14.7559 51.3867 15.9668C52.5 17.1582 53.4473 18.3691 54.2285 19.5996C55.0098 20.8105 55.6641 21.9531 56.1914 23.0273C56.7188 24.082 57.1387 25.0293 57.4512 25.8691C57.7637 26.6895 57.9883 27.3145 58.125 27.7441C58.7891 29.6973 59.2773 31.6895 59.5898 33.7207C59.9219 35.752 60.0879 37.8027 60.0879 39.873V44.0332H68.0859Z" fill="url(#paint2_radial_2050_24)"/>
<path d="M122.432 44.0332V1.05469H114.199C112.305 1.58203 110.225 2.2168 107.959 2.95898C105.713 3.68164 103.389 4.51172 100.986 5.44922C98.584 6.38672 96.1621 7.43164 93.7207 8.58398C91.2793 9.7168 88.9258 10.9668 86.6602 12.334C84.4141 13.7012 82.3047 15.1855 80.332 16.7871C78.3789 18.3691 76.6797 20.0684 75.2344 21.8848C73.7891 23.7012 72.6465 25.6445 71.8066 27.7148C70.9668 29.7656 70.5469 31.9336 70.5469 34.2188C70.5469 35.8789 70.791 37.3047 71.2793 38.4961C71.7676 39.668 72.3926 40.6641 73.1543 41.4844C73.9355 42.2852 74.7852 42.9297 75.7031 43.418C76.6406 43.9062 77.5488 44.2773 78.4277 44.5312C79.3066 44.7852 80.1074 44.9512 80.8301 45.0293C81.5527 45.127 82.0801 45.1758 82.4121 45.1758V38.2324C82.1191 38.2324 81.748 38.2031 81.2988 38.1445C80.8496 38.0664 80.4199 37.9004 80.0098 37.6465C79.5996 37.373 79.2383 36.9727 78.9258 36.4453C78.6328 35.8984 78.4863 35.1562 78.4863 34.2188C78.4863 32.7148 78.7695 31.2695 79.3359 29.8828C79.9219 28.4961 80.7031 27.1777 81.6797 25.9277C82.6758 24.6582 83.8379 23.4668 85.166 22.3535C86.4941 21.2207 87.9102 20.1562 89.4141 19.1602C90.918 18.1641 92.4707 17.2461 94.0723 16.4062C95.6738 15.5469 97.2461 14.7656 98.7891 14.0625C101.758 12.7148 104.502 11.6309 107.021 10.8105C109.561 9.9707 111.885 9.24805 113.994 8.64258V44.0332H122.432Z" fill="white"/>
<path d="M122.432 44.0332V1.05469H114.199C112.305 1.58203 110.225 2.2168 107.959 2.95898C105.713 3.68164 103.389 4.51172 100.986 5.44922C98.584 6.38672 96.1621 7.43164 93.7207 8.58398C91.2793 9.7168 88.9258 10.9668 86.6602 12.334C84.4141 13.7012 82.3047 15.1855 80.332 16.7871C78.3789 18.3691 76.6797 20.0684 75.2344 21.8848C73.7891 23.7012 72.6465 25.6445 71.8066 27.7148C70.9668 29.7656 70.5469 31.9336 70.5469 34.2188C70.5469 35.8789 70.791 37.3047 71.2793 38.4961C71.7676 39.668 72.3926 40.6641 73.1543 41.4844C73.9355 42.2852 74.7852 42.9297 75.7031 43.418C76.6406 43.9062 77.5488 44.2773 78.4277 44.5312C79.3066 44.7852 80.1074 44.9512 80.8301 45.0293C81.5527 45.127 82.0801 45.1758 82.4121 45.1758V38.2324C82.1191 38.2324 81.748 38.2031 81.2988 38.1445C80.8496 38.0664 80.4199 37.9004 80.0098 37.6465C79.5996 37.373 79.2383 36.9727 78.9258 36.4453C78.6328 35.8984 78.4863 35.1562 78.4863 34.2188C78.4863 32.7148 78.7695 31.2695 79.3359 29.8828C79.9219 28.4961 80.7031 27.1777 81.6797 25.9277C82.6758 24.6582 83.8379 23.4668 85.166 22.3535C86.4941 21.2207 87.9102 20.1562 89.4141 19.1602C90.918 18.1641 92.4707 17.2461 94.0723 16.4062C95.6738 15.5469 97.2461 14.7656 98.7891 14.0625C101.758 12.7148 104.502 11.6309 107.021 10.8105C109.561 9.9707 111.885 9.24805 113.994 8.64258V44.0332H122.432Z" fill="url(#paint3_radial_2050_24)"/>
<path d="M122.432 44.0332V1.05469H114.199C112.305 1.58203 110.225 2.2168 107.959 2.95898C105.713 3.68164 103.389 4.51172 100.986 5.44922C98.584 6.38672 96.1621 7.43164 93.7207 8.58398C91.2793 9.7168 88.9258 10.9668 86.6602 12.334C84.4141 13.7012 82.3047 15.1855 80.332 16.7871C78.3789 18.3691 76.6797 20.0684 75.2344 21.8848C73.7891 23.7012 72.6465 25.6445 71.8066 27.7148C70.9668 29.7656 70.5469 31.9336 70.5469 34.2188C70.5469 35.8789 70.791 37.3047 71.2793 38.4961C71.7676 39.668 72.3926 40.6641 73.1543 41.4844C73.9355 42.2852 74.7852 42.9297 75.7031 43.418C76.6406 43.9062 77.5488 44.2773 78.4277 44.5312C79.3066 44.7852 80.1074 44.9512 80.8301 45.0293C81.5527 45.127 82.0801 45.1758 82.4121 45.1758V38.2324C82.1191 38.2324 81.748 38.2031 81.2988 38.1445C80.8496 38.0664 80.4199 37.9004 80.0098 37.6465C79.5996 37.373 79.2383 36.9727 78.9258 36.4453C78.6328 35.8984 78.4863 35.1562 78.4863 34.2188C78.4863 32.7148 78.7695 31.2695 79.3359 29.8828C79.9219 28.4961 80.7031 27.1777 81.6797 25.9277C82.6758 24.6582 83.8379 23.4668 85.166 22.3535C86.4941 21.2207 87.9102 20.1562 89.4141 19.1602C90.918 18.1641 92.4707 17.2461 94.0723 16.4062C95.6738 15.5469 97.2461 14.7656 98.7891 14.0625C101.758 12.7148 104.502 11.6309 107.021 10.8105C109.561 9.9707 111.885 9.24805 113.994 8.64258V44.0332H122.432Z" fill="url(#paint4_radial_2050_24)"/>
<path d="M122.432 44.0332V1.05469H114.199C112.305 1.58203 110.225 2.2168 107.959 2.95898C105.713 3.68164 103.389 4.51172 100.986 5.44922C98.584 6.38672 96.1621 7.43164 93.7207 8.58398C91.2793 9.7168 88.9258 10.9668 86.6602 12.334C84.4141 13.7012 82.3047 15.1855 80.332 16.7871C78.3789 18.3691 76.6797 20.0684 75.2344 21.8848C73.7891 23.7012 72.6465 25.6445 71.8066 27.7148C70.9668 29.7656 70.5469 31.9336 70.5469 34.2188C70.5469 35.8789 70.791 37.3047 71.2793 38.4961C71.7676 39.668 72.3926 40.6641 73.1543 41.4844C73.9355 42.2852 74.7852 42.9297 75.7031 43.418C76.6406 43.9062 77.5488 44.2773 78.4277 44.5312C79.3066 44.7852 80.1074 44.9512 80.8301 45.0293C81.5527 45.127 82.0801 45.1758 82.4121 45.1758V38.2324C82.1191 38.2324 81.748 38.2031 81.2988 38.1445C80.8496 38.0664 80.4199 37.9004 80.0098 37.6465C79.5996 37.373 79.2383 36.9727 78.9258 36.4453C78.6328 35.8984 78.4863 35.1562 78.4863 34.2188C78.4863 32.7148 78.7695 31.2695 79.3359 29.8828C79.9219 28.4961 80.7031 27.1777 81.6797 25.9277C82.6758 24.6582 83.8379 23.4668 85.166 22.3535C86.4941 21.2207 87.9102 20.1562 89.4141 19.1602C90.918 18.1641 92.4707 17.2461 94.0723 16.4062C95.6738 15.5469 97.2461 14.7656 98.7891 14.0625C101.758 12.7148 104.502 11.6309 107.021 10.8105C109.561 9.9707 111.885 9.24805 113.994 8.64258V44.0332H122.432Z" fill="url(#paint5_radial_2050_24)"/>
<path d="M140.127 17.4023C141.064 17.168 141.973 17.0508 142.852 17.0508C144.512 17.0508 146.045 17.4121 147.451 18.1348C148.877 18.8379 150.088 19.7949 151.084 21.0059C152.08 22.2168 152.793 23.5254 153.223 24.9316C153.672 26.3184 153.896 27.666 153.896 28.9746C153.896 29.4238 153.838 30.2051 153.721 31.3184C153.623 32.4316 153.105 33.916 152.168 35.7715C151.25 37.627 149.873 39.4043 148.037 41.1035C146.318 42.5098 144.561 43.5059 142.764 44.0918C140.986 44.6973 139.121 45 137.168 45C136.074 45 134.941 44.8047 133.77 44.4141C132.598 44.043 131.494 43.4668 130.459 42.6855C129.424 41.8848 128.516 40.8887 127.734 39.6973C126.973 38.5059 126.484 37.3047 126.27 36.0938C126.055 34.8828 125.947 33.8281 125.947 32.9297C125.947 31.9922 126.055 30.752 126.27 29.209C126.504 27.6465 127.188 25.6055 128.32 23.0859C128.789 22.0312 129.297 20.918 129.844 19.7461C130.391 18.5547 130.938 17.3438 131.484 16.1133C132.051 14.8828 132.607 13.6621 133.154 12.4512C133.701 11.2207 134.229 10.0488 134.736 8.93555C135.928 6.31836 137.129 3.70117 138.34 1.08398H146.66L138.193 19.2773C136.768 22.2266 135.674 24.8828 134.912 27.2461C134.17 29.5898 133.789 31.2012 133.77 32.0801C133.75 32.9395 133.74 33.418 133.74 33.5156C133.74 35.0195 134.062 36.2012 134.707 37.0605C135.371 37.9199 136.426 38.3496 137.871 38.3496C139.355 38.3496 140.674 37.998 141.826 37.2949C142.979 36.5723 143.936 35.6738 144.697 34.5996C145.459 33.5059 145.967 32.4609 146.221 31.4648C146.475 30.4492 146.602 29.5996 146.602 28.916C146.602 28.4473 146.523 27.8418 146.367 27.0996C146.23 26.3379 145.781 25.6055 145.02 24.9023C144.277 24.1797 143.213 23.8184 141.826 23.8184C141.318 23.8184 140.752 23.877 140.127 23.9941V17.4023Z" fill="white"/>
<path d="M140.127 17.4023C141.064 17.168 141.973 17.0508 142.852 17.0508C144.512 17.0508 146.045 17.4121 147.451 18.1348C148.877 18.8379 150.088 19.7949 151.084 21.0059C152.08 22.2168 152.793 23.5254 153.223 24.9316C153.672 26.3184 153.896 27.666 153.896 28.9746C153.896 29.4238 153.838 30.2051 153.721 31.3184C153.623 32.4316 153.105 33.916 152.168 35.7715C151.25 37.627 149.873 39.4043 148.037 41.1035C146.318 42.5098 144.561 43.5059 142.764 44.0918C140.986 44.6973 139.121 45 137.168 45C136.074 45 134.941 44.8047 133.77 44.4141C132.598 44.043 131.494 43.4668 130.459 42.6855C129.424 41.8848 128.516 40.8887 127.734 39.6973C126.973 38.5059 126.484 37.3047 126.27 36.0938C126.055 34.8828 125.947 33.8281 125.947 32.9297C125.947 31.9922 126.055 30.752 126.27 29.209C126.504 27.6465 127.188 25.6055 128.32 23.0859C128.789 22.0312 129.297 20.918 129.844 19.7461C130.391 18.5547 130.938 17.3438 131.484 16.1133C132.051 14.8828 132.607 13.6621 133.154 12.4512C133.701 11.2207 134.229 10.0488 134.736 8.93555C135.928 6.31836 137.129 3.70117 138.34 1.08398H146.66L138.193 19.2773C136.768 22.2266 135.674 24.8828 134.912 27.2461C134.17 29.5898 133.789 31.2012 133.77 32.0801C133.75 32.9395 133.74 33.418 133.74 33.5156C133.74 35.0195 134.062 36.2012 134.707 37.0605C135.371 37.9199 136.426 38.3496 137.871 38.3496C139.355 38.3496 140.674 37.998 141.826 37.2949C142.979 36.5723 143.936 35.6738 144.697 34.5996C145.459 33.5059 145.967 32.4609 146.221 31.4648C146.475 30.4492 146.602 29.5996 146.602 28.916C146.602 28.4473 146.523 27.8418 146.367 27.0996C146.23 26.3379 145.781 25.6055 145.02 24.9023C144.277 24.1797 143.213 23.8184 141.826 23.8184C141.318 23.8184 140.752 23.877 140.127 23.9941V17.4023Z" fill="url(#paint6_radial_2050_24)"/>
<path d="M140.127 17.4023C141.064 17.168 141.973 17.0508 142.852 17.0508C144.512 17.0508 146.045 17.4121 147.451 18.1348C148.877 18.8379 150.088 19.7949 151.084 21.0059C152.08 22.2168 152.793 23.5254 153.223 24.9316C153.672 26.3184 153.896 27.666 153.896 28.9746C153.896 29.4238 153.838 30.2051 153.721 31.3184C153.623 32.4316 153.105 33.916 152.168 35.7715C151.25 37.627 149.873 39.4043 148.037 41.1035C146.318 42.5098 144.561 43.5059 142.764 44.0918C140.986 44.6973 139.121 45 137.168 45C136.074 45 134.941 44.8047 133.77 44.4141C132.598 44.043 131.494 43.4668 130.459 42.6855C129.424 41.8848 128.516 40.8887 127.734 39.6973C126.973 38.5059 126.484 37.3047 126.27 36.0938C126.055 34.8828 125.947 33.8281 125.947 32.9297C125.947 31.9922 126.055 30.752 126.27 29.209C126.504 27.6465 127.188 25.6055 128.32 23.0859C128.789 22.0312 129.297 20.918 129.844 19.7461C130.391 18.5547 130.938 17.3438 131.484 16.1133C132.051 14.8828 132.607 13.6621 133.154 12.4512C133.701 11.2207 134.229 10.0488 134.736 8.93555C135.928 6.31836 137.129 3.70117 138.34 1.08398H146.66L138.193 19.2773C136.768 22.2266 135.674 24.8828 134.912 27.2461C134.17 29.5898 133.789 31.2012 133.77 32.0801C133.75 32.9395 133.74 33.418 133.74 33.5156C133.74 35.0195 134.062 36.2012 134.707 37.0605C135.371 37.9199 136.426 38.3496 137.871 38.3496C139.355 38.3496 140.674 37.998 141.826 37.2949C142.979 36.5723 143.936 35.6738 144.697 34.5996C145.459 33.5059 145.967 32.4609 146.221 31.4648C146.475 30.4492 146.602 29.5996 146.602 28.916C146.602 28.4473 146.523 27.8418 146.367 27.0996C146.23 26.3379 145.781 25.6055 145.02 24.9023C144.277 24.1797 143.213 23.8184 141.826 23.8184C141.318 23.8184 140.752 23.877 140.127 23.9941V17.4023Z" fill="url(#paint7_radial_2050_24)"/>
<path d="M140.127 17.4023C141.064 17.168 141.973 17.0508 142.852 17.0508C144.512 17.0508 146.045 17.4121 147.451 18.1348C148.877 18.8379 150.088 19.7949 151.084 21.0059C152.08 22.2168 152.793 23.5254 153.223 24.9316C153.672 26.3184 153.896 27.666 153.896 28.9746C153.896 29.4238 153.838 30.2051 153.721 31.3184C153.623 32.4316 153.105 33.916 152.168 35.7715C151.25 37.627 149.873 39.4043 148.037 41.1035C146.318 42.5098 144.561 43.5059 142.764 44.0918C140.986 44.6973 139.121 45 137.168 45C136.074 45 134.941 44.8047 133.77 44.4141C132.598 44.043 131.494 43.4668 130.459 42.6855C129.424 41.8848 128.516 40.8887 127.734 39.6973C126.973 38.5059 126.484 37.3047 126.27 36.0938C126.055 34.8828 125.947 33.8281 125.947 32.9297C125.947 31.9922 126.055 30.752 126.27 29.209C126.504 27.6465 127.188 25.6055 128.32 23.0859C128.789 22.0312 129.297 20.918 129.844 19.7461C130.391 18.5547 130.938 17.3438 131.484 16.1133C132.051 14.8828 132.607 13.6621 133.154 12.4512C133.701 11.2207 134.229 10.0488 134.736 8.93555C135.928 6.31836 137.129 3.70117 138.34 1.08398H146.66L138.193 19.2773C136.768 22.2266 135.674 24.8828 134.912 27.2461C134.17 29.5898 133.789 31.2012 133.77 32.0801C133.75 32.9395 133.74 33.418 133.74 33.5156C133.74 35.0195 134.062 36.2012 134.707 37.0605C135.371 37.9199 136.426 38.3496 137.871 38.3496C139.355 38.3496 140.674 37.998 141.826 37.2949C142.979 36.5723 143.936 35.6738 144.697 34.5996C145.459 33.5059 145.967 32.4609 146.221 31.4648C146.475 30.4492 146.602 29.5996 146.602 28.916C146.602 28.4473 146.523 27.8418 146.367 27.0996C146.23 26.3379 145.781 25.6055 145.02 24.9023C144.277 24.1797 143.213 23.8184 141.826 23.8184C141.318 23.8184 140.752 23.877 140.127 23.9941V17.4023Z" fill="url(#paint8_radial_2050_24)"/>
<path d="M202.91 25.0781C201.309 24.082 199.561 23.2422 197.666 22.5586C199.561 21.8555 201.309 21.0156 202.91 20.0391C204.512 19.0625 205.977 18.0078 207.305 16.875C208.633 15.7227 209.834 14.541 210.908 13.3301C211.982 12.1191 212.93 10.9277 213.75 9.75586C215.703 7.00195 217.285 4.11133 218.496 1.08398H209.707C208.184 4.30664 206.318 7.1875 204.111 9.72656C203.174 10.8008 202.109 11.8652 200.918 12.9199C199.746 13.9551 198.447 14.8828 197.021 15.7031C195.596 16.5234 194.043 17.1875 192.363 17.6953C190.684 18.2031 188.877 18.4766 186.943 18.5156C185.01 18.4766 183.203 18.2031 181.523 17.6953C179.863 17.1875 178.32 16.5234 176.895 15.7031C175.469 14.8828 174.16 13.9551 172.969 12.9199C171.777 11.8652 170.713 10.8008 169.775 9.72656C167.588 7.1875 165.732 4.30664 164.209 1.08398H155.391C156.602 4.11133 158.184 7.00195 160.137 9.75586C160.977 10.9277 161.934 12.1191 163.008 13.3301C164.082 14.541 165.283 15.7227 166.611 16.875C167.939 18.0078 169.404 19.0625 171.006 20.0391C172.607 21.0156 174.355 21.8555 176.25 22.5586C174.355 23.2422 172.607 24.082 171.006 25.0781C169.404 26.0547 167.939 27.1094 166.611 28.2422C165.283 29.375 164.082 30.5566 163.008 31.7871C161.934 32.998 160.977 34.1895 160.137 35.3613C158.184 38.1152 156.602 41.0059 155.391 44.0332H164.209C165.732 40.8105 167.588 37.9297 169.775 35.3906C170.713 34.2969 171.777 33.2324 172.969 32.1973C174.16 31.1621 175.469 30.2344 176.895 29.4141C178.32 28.5742 179.863 27.9004 181.523 27.3926C183.203 26.8652 185.01 26.5918 186.943 26.5723C188.877 26.5918 190.684 26.8652 192.363 27.3926C194.043 27.9004 195.596 28.5742 197.021 29.4141C198.447 30.2344 199.746 31.1621 200.918 32.1973C202.109 33.2324 203.174 34.2969 204.111 35.3906C206.318 37.9297 208.184 40.8105 209.707 44.0332H218.496C217.285 41.0059 215.703 38.1152 213.75 35.3613C212.93 34.1895 211.982 32.998 210.908 31.7871C209.834 30.5566 208.633 29.375 207.305 28.2422C205.977 27.1094 204.512 26.0547 202.91 25.0781Z" fill="white"/>
<path d="M202.91 25.0781C201.309 24.082 199.561 23.2422 197.666 22.5586C199.561 21.8555 201.309 21.0156 202.91 20.0391C204.512 19.0625 205.977 18.0078 207.305 16.875C208.633 15.7227 209.834 14.541 210.908 13.3301C211.982 12.1191 212.93 10.9277 213.75 9.75586C215.703 7.00195 217.285 4.11133 218.496 1.08398H209.707C208.184 4.30664 206.318 7.1875 204.111 9.72656C203.174 10.8008 202.109 11.8652 200.918 12.9199C199.746 13.9551 198.447 14.8828 197.021 15.7031C195.596 16.5234 194.043 17.1875 192.363 17.6953C190.684 18.2031 188.877 18.4766 186.943 18.5156C185.01 18.4766 183.203 18.2031 181.523 17.6953C179.863 17.1875 178.32 16.5234 176.895 15.7031C175.469 14.8828 174.16 13.9551 172.969 12.9199C171.777 11.8652 170.713 10.8008 169.775 9.72656C167.588 7.1875 165.732 4.30664 164.209 1.08398H155.391C156.602 4.11133 158.184 7.00195 160.137 9.75586C160.977 10.9277 161.934 12.1191 163.008 13.3301C164.082 14.541 165.283 15.7227 166.611 16.875C167.939 18.0078 169.404 19.0625 171.006 20.0391C172.607 21.0156 174.355 21.8555 176.25 22.5586C174.355 23.2422 172.607 24.082 171.006 25.0781C169.404 26.0547 167.939 27.1094 166.611 28.2422C165.283 29.375 164.082 30.5566 163.008 31.7871C161.934 32.998 160.977 34.1895 160.137 35.3613C158.184 38.1152 156.602 41.0059 155.391 44.0332H164.209C165.732 40.8105 167.588 37.9297 169.775 35.3906C170.713 34.2969 171.777 33.2324 172.969 32.1973C174.16 31.1621 175.469 30.2344 176.895 29.4141C178.32 28.5742 179.863 27.9004 181.523 27.3926C183.203 26.8652 185.01 26.5918 186.943 26.5723C188.877 26.5918 190.684 26.8652 192.363 27.3926C194.043 27.9004 195.596 28.5742 197.021 29.4141C198.447 30.2344 199.746 31.1621 200.918 32.1973C202.109 33.2324 203.174 34.2969 204.111 35.3906C206.318 37.9297 208.184 40.8105 209.707 44.0332H218.496C217.285 41.0059 215.703 38.1152 213.75 35.3613C212.93 34.1895 211.982 32.998 210.908 31.7871C209.834 30.5566 208.633 29.375 207.305 28.2422C205.977 27.1094 204.512 26.0547 202.91 25.0781Z" fill="url(#paint9_radial_2050_24)"/>
<path d="M202.91 25.0781C201.309 24.082 199.561 23.2422 197.666 22.5586C199.561 21.8555 201.309 21.0156 202.91 20.0391C204.512 19.0625 205.977 18.0078 207.305 16.875C208.633 15.7227 209.834 14.541 210.908 13.3301C211.982 12.1191 212.93 10.9277 213.75 9.75586C215.703 7.00195 217.285 4.11133 218.496 1.08398H209.707C208.184 4.30664 206.318 7.1875 204.111 9.72656C203.174 10.8008 202.109 11.8652 200.918 12.9199C199.746 13.9551 198.447 14.8828 197.021 15.7031C195.596 16.5234 194.043 17.1875 192.363 17.6953C190.684 18.2031 188.877 18.4766 186.943 18.5156C185.01 18.4766 183.203 18.2031 181.523 17.6953C179.863 17.1875 178.32 16.5234 176.895 15.7031C175.469 14.8828 174.16 13.9551 172.969 12.9199C171.777 11.8652 170.713 10.8008 169.775 9.72656C167.588 7.1875 165.732 4.30664 164.209 1.08398H155.391C156.602 4.11133 158.184 7.00195 160.137 9.75586C160.977 10.9277 161.934 12.1191 163.008 13.3301C164.082 14.541 165.283 15.7227 166.611 16.875C167.939 18.0078 169.404 19.0625 171.006 20.0391C172.607 21.0156 174.355 21.8555 176.25 22.5586C174.355 23.2422 172.607 24.082 171.006 25.0781C169.404 26.0547 167.939 27.1094 166.611 28.2422C165.283 29.375 164.082 30.5566 163.008 31.7871C161.934 32.998 160.977 34.1895 160.137 35.3613C158.184 38.1152 156.602 41.0059 155.391 44.0332H164.209C165.732 40.8105 167.588 37.9297 169.775 35.3906C170.713 34.2969 171.777 33.2324 172.969 32.1973C174.16 31.1621 175.469 30.2344 176.895 29.4141C178.32 28.5742 179.863 27.9004 181.523 27.3926C183.203 26.8652 185.01 26.5918 186.943 26.5723C188.877 26.5918 190.684 26.8652 192.363 27.3926C194.043 27.9004 195.596 28.5742 197.021 29.4141C198.447 30.2344 199.746 31.1621 200.918 32.1973C202.109 33.2324 203.174 34.2969 204.111 35.3906C206.318 37.9297 208.184 40.8105 209.707 44.0332H218.496C217.285 41.0059 215.703 38.1152 213.75 35.3613C212.93 34.1895 211.982 32.998 210.908 31.7871C209.834 30.5566 208.633 29.375 207.305 28.2422C205.977 27.1094 204.512 26.0547 202.91 25.0781Z" fill="url(#paint10_radial_2050_24)"/>
<path d="M202.91 25.0781C201.309 24.082 199.561 23.2422 197.666 22.5586C199.561 21.8555 201.309 21.0156 202.91 20.0391C204.512 19.0625 205.977 18.0078 207.305 16.875C208.633 15.7227 209.834 14.541 210.908 13.3301C211.982 12.1191 212.93 10.9277 213.75 9.75586C215.703 7.00195 217.285 4.11133 218.496 1.08398H209.707C208.184 4.30664 206.318 7.1875 204.111 9.72656C203.174 10.8008 202.109 11.8652 200.918 12.9199C199.746 13.9551 198.447 14.8828 197.021 15.7031C195.596 16.5234 194.043 17.1875 192.363 17.6953C190.684 18.2031 188.877 18.4766 186.943 18.5156C185.01 18.4766 183.203 18.2031 181.523 17.6953C179.863 17.1875 178.32 16.5234 176.895 15.7031C175.469 14.8828 174.16 13.9551 172.969 12.9199C171.777 11.8652 170.713 10.8008 169.775 9.72656C167.588 7.1875 165.732 4.30664 164.209 1.08398H155.391C156.602 4.11133 158.184 7.00195 160.137 9.75586C160.977 10.9277 161.934 12.1191 163.008 13.3301C164.082 14.541 165.283 15.7227 166.611 16.875C167.939 18.0078 169.404 19.0625 171.006 20.0391C172.607 21.0156 174.355 21.8555 176.25 22.5586C174.355 23.2422 172.607 24.082 171.006 25.0781C169.404 26.0547 167.939 27.1094 166.611 28.2422C165.283 29.375 164.082 30.5566 163.008 31.7871C161.934 32.998 160.977 34.1895 160.137 35.3613C158.184 38.1152 156.602 41.0059 155.391 44.0332H164.209C165.732 40.8105 167.588 37.9297 169.775 35.3906C170.713 34.2969 171.777 33.2324 172.969 32.1973C174.16 31.1621 175.469 30.2344 176.895 29.4141C178.32 28.5742 179.863 27.9004 181.523 27.3926C183.203 26.8652 185.01 26.5918 186.943 26.5723C188.877 26.5918 190.684 26.8652 192.363 27.3926C194.043 27.9004 195.596 28.5742 197.021 29.4141C198.447 30.2344 199.746 31.1621 200.918 32.1973C202.109 33.2324 203.174 34.2969 204.111 35.3906C206.318 37.9297 208.184 40.8105 209.707 44.0332H218.496C217.285 41.0059 215.703 38.1152 213.75 35.3613C212.93 34.1895 211.982 32.998 210.908 31.7871C209.834 30.5566 208.633 29.375 207.305 28.2422C205.977 27.1094 204.512 26.0547 202.91 25.0781Z" fill="url(#paint11_radial_2050_24)"/>
<path fill-rule="evenodd" clip-rule="evenodd" d="M261.27 26.4844C261.25 26.875 261.24 27.2754 261.24 27.6855C261.24 28.4473 261.279 29.3262 261.357 30.3223C261.455 31.3184 261.631 32.3535 261.885 33.4277C262.139 34.4824 262.451 35.4004 262.822 36.1816C263.193 36.9434 263.613 37.4512 264.082 37.7051L260.303 44.7656C259.541 44.4141 258.857 43.9648 258.252 43.418C257.666 42.8516 257.139 42.2168 256.67 41.5137C256.201 40.8105 255.791 40.0586 255.439 39.2578C255.107 38.457 254.814 37.6367 254.561 36.7969C253.447 37.9883 252.207 39.082 250.84 40.0781C249.473 41.0742 247.988 41.9434 246.387 42.6855C244.805 43.4082 243.115 43.9746 241.318 44.3848C239.541 44.8145 237.676 45.0586 235.723 45.1172H234.99C233.35 45.1172 231.729 44.9316 230.127 44.5605C228.525 44.209 227.002 43.6816 225.557 42.9785C224.131 42.2559 222.842 41.416 221.689 40.459C220.557 39.4824 219.59 38.4375 218.789 37.3242C217.988 36.2109 217.373 35.0586 216.943 33.8672C216.533 32.6562 216.328 31.4746 216.328 30.3223C216.328 28.4082 216.641 26.7871 217.266 25.459C217.91 24.1113 218.73 22.9883 219.727 22.0898C220.742 21.1719 221.875 20.4395 223.125 19.8926C224.395 19.3457 225.654 18.9258 226.904 18.6328C228.174 18.3398 229.365 18.1348 230.479 18.0176C231.611 17.9004 232.549 17.8125 233.291 17.7539L233.701 17.7246C234.893 17.627 236.26 17.5488 237.803 17.4902C239.365 17.4121 241.006 17.3633 242.725 17.3438C244.443 17.3047 246.191 17.2852 247.969 17.2852C249.766 17.2852 251.494 17.2949 253.154 17.3145C253.154 16.2012 252.773 15.0488 252.012 13.8574C251.25 12.6465 250.205 11.543 248.877 10.5469C247.549 9.53125 245.967 8.70117 244.131 8.05664C242.314 7.39258 240.352 7.06055 238.242 7.06055C237.07 7.06055 235.859 7.17773 234.609 7.41211C233.379 7.64648 232.119 8.02734 230.83 8.55469C229.561 9.08203 228.271 9.76562 226.963 10.6055C225.654 11.4258 224.355 12.4316 223.066 13.623L217.91 8.96484C219.316 7.38281 220.859 6.02539 222.539 4.89258C224.238 3.75977 225.977 2.83203 227.754 2.10938C229.551 1.38672 231.338 0.859375 233.115 0.527344C234.912 0.175781 236.621 0 238.242 0C241.133 0 243.711 0.302734 245.977 0.908203C248.242 1.51367 250.225 2.31445 251.924 3.31055C253.643 4.28711 255.088 5.40039 256.26 6.65039C257.451 7.90039 258.418 9.16992 259.16 10.459C259.902 11.748 260.439 12.998 260.771 14.209C261.104 15.4199 261.27 16.4844 261.27 17.4023C261.27 17.4219 261.25 17.4316 261.211 17.4316C261.191 17.4316 261.182 17.4414 261.182 17.4609H261.27V26.4844ZM226.055 34.3359C227.48 35.625 229.053 36.5723 230.771 37.1777C232.49 37.7832 234.268 38.0859 236.104 38.0859C238.096 38.0859 240.068 37.7539 242.021 37.0898C243.975 36.4258 245.762 35.4883 247.383 34.2773C249.023 33.0469 250.42 31.582 251.572 29.8828C252.725 28.1641 253.486 26.25 253.857 24.1406C252.197 24.1211 250.459 24.1113 248.643 24.1113C246.846 24.1113 245.078 24.1309 243.34 24.1699C241.602 24.1895 239.951 24.2285 238.389 24.2871C236.826 24.3457 235.459 24.4238 234.287 24.5215L233.848 24.5508C231.875 24.7266 230.254 24.9512 228.984 25.2246C227.715 25.498 226.709 25.8594 225.967 26.3086C225.225 26.7578 224.707 27.3145 224.414 27.9785C224.121 28.623 223.975 29.4043 223.975 30.3223C223.975 31.0645 224.16 31.7676 224.531 32.4316C224.922 33.0762 225.43 33.7109 226.055 34.3359Z" fill="white"/>
<path fill-rule="evenodd" clip-rule="evenodd" d="M261.27 26.4844C261.25 26.875 261.24 27.2754 261.24 27.6855C261.24 28.4473 261.279 29.3262 261.357 30.3223C261.455 31.3184 261.631 32.3535 261.885 33.4277C262.139 34.4824 262.451 35.4004 262.822 36.1816C263.193 36.9434 263.613 37.4512 264.082 37.7051L260.303 44.7656C259.541 44.4141 258.857 43.9648 258.252 43.418C257.666 42.8516 257.139 42.2168 256.67 41.5137C256.201 40.8105 255.791 40.0586 255.439 39.2578C255.107 38.457 254.814 37.6367 254.561 36.7969C253.447 37.9883 252.207 39.082 250.84 40.0781C249.473 41.0742 247.988 41.9434 246.387 42.6855C244.805 43.4082 243.115 43.9746 241.318 44.3848C239.541 44.8145 237.676 45.0586 235.723 45.1172H234.99C233.35 45.1172 231.729 44.9316 230.127 44.5605C228.525 44.209 227.002 43.6816 225.557 42.9785C224.131 42.2559 222.842 41.416 221.689 40.459C220.557 39.4824 219.59 38.4375 218.789 37.3242C217.988 36.2109 217.373 35.0586 216.943 33.8672C216.533 32.6562 216.328 31.4746 216.328 30.3223C216.328 28.4082 216.641 26.7871 217.266 25.459C217.91 24.1113 218.73 22.9883 219.727 22.0898C220.742 21.1719 221.875 20.4395 223.125 19.8926C224.395 19.3457 225.654 18.9258 226.904 18.6328C228.174 18.3398 229.365 18.1348 230.479 18.0176C231.611 17.9004 232.549 17.8125 233.291 17.7539L233.701 17.7246C234.893 17.627 236.26 17.5488 237.803 17.4902C239.365 17.4121 241.006 17.3633 242.725 17.3438C244.443 17.3047 246.191 17.2852 247.969 17.2852C249.766 17.2852 251.494 17.2949 253.154 17.3145C253.154 16.2012 252.773 15.0488 252.012 13.8574C251.25 12.6465 250.205 11.543 248.877 10.5469C247.549 9.53125 245.967 8.70117 244.131 8.05664C242.314 7.39258 240.352 7.06055 238.242 7.06055C237.07 7.06055 235.859 7.17773 234.609 7.41211C233.379 7.64648 232.119 8.02734 230.83 8.55469C229.561 9.08203 228.271 9.76562 226.963 10.6055C225.654 11.4258 224.355 12.4316 223.066 13.623L217.91 8.96484C219.316 7.38281 220.859 6.02539 222.539 4.89258C224.238 3.75977 225.977 2.83203 227.754 2.10938C229.551 1.38672 231.338 0.859375 233.115 0.527344C234.912 0.175781 236.621 0 238.242 0C241.133 0 243.711 0.302734 245.977 0.908203C248.242 1.51367 250.225 2.31445 251.924 3.31055C253.643 4.28711 255.088 5.40039 256.26 6.65039C257.451 7.90039 258.418 9.16992 259.16 10.459C259.902 11.748 260.439 12.998 260.771 14.209C261.104 15.4199 261.27 16.4844 261.27 17.4023C261.27 17.4219 261.25 17.4316 261.211 17.4316C261.191 17.4316 261.182 17.4414 261.182 17.4609H261.27V26.4844ZM226.055 34.3359C227.48 35.625 229.053 36.5723 230.771 37.1777C232.49 37.7832 234.268 38.0859 236.104 38.0859C238.096 38.0859 240.068 37.7539 242.021 37.0898C243.975 36.4258 245.762 35.4883 247.383 34.2773C249.023 33.0469 250.42 31.582 251.572 29.8828C252.725 28.1641 253.486 26.25 253.857 24.1406C252.197 24.1211 250.459 24.1113 248.643 24.1113C246.846 24.1113 245.078 24.1309 243.34 24.1699C241.602 24.1895 239.951 24.2285 238.389 24.2871C236.826 24.3457 235.459 24.4238 234.287 24.5215L233.848 24.5508C231.875 24.7266 230.254 24.9512 228.984 25.2246C227.715 25.498 226.709 25.8594 225.967 26.3086C225.225 26.7578 224.707 27.3145 224.414 27.9785C224.121 28.623 223.975 29.4043 223.975 30.3223C223.975 31.0645 224.16 31.7676 224.531 32.4316C224.922 33.0762 225.43 33.7109 226.055 34.3359Z" fill="url(#paint12_radial_2050_24)"/>
<path fill-rule="evenodd" clip-rule="evenodd" d="M261.27 26.4844C261.25 26.875 261.24 27.2754 261.24 27.6855C261.24 28.4473 261.279 29.3262 261.357 30.3223C261.455 31.3184 261.631 32.3535 261.885 33.4277C262.139 34.4824 262.451 35.4004 262.822 36.1816C263.193 36.9434 263.613 37.4512 264.082 37.7051L260.303 44.7656C259.541 44.4141 258.857 43.9648 258.252 43.418C257.666 42.8516 257.139 42.2168 256.67 41.5137C256.201 40.8105 255.791 40.0586 255.439 39.2578C255.107 38.457 254.814 37.6367 254.561 36.7969C253.447 37.9883 252.207 39.082 250.84 40.0781C249.473 41.0742 247.988 41.9434 246.387 42.6855C244.805 43.4082 243.115 43.9746 241.318 44.3848C239.541 44.8145 237.676 45.0586 235.723 45.1172H234.99C233.35 45.1172 231.729 44.9316 230.127 44.5605C228.525 44.209 227.002 43.6816 225.557 42.9785C224.131 42.2559 222.842 41.416 221.689 40.459C220.557 39.4824 219.59 38.4375 218.789 37.3242C217.988 36.2109 217.373 35.0586 216.943 33.8672C216.533 32.6562 216.328 31.4746 216.328 30.3223C216.328 28.4082 216.641 26.7871 217.266 25.459C217.91 24.1113 218.73 22.9883 219.727 22.0898C220.742 21.1719 221.875 20.4395 223.125 19.8926C224.395 19.3457 225.654 18.9258 226.904 18.6328C228.174 18.3398 229.365 18.1348 230.479 18.0176C231.611 17.9004 232.549 17.8125 233.291 17.7539L233.701 17.7246C234.893 17.627 236.26 17.5488 237.803 17.4902C239.365 17.4121 241.006 17.3633 242.725 17.3438C244.443 17.3047 246.191 17.2852 247.969 17.2852C249.766 17.2852 251.494 17.2949 253.154 17.3145C253.154 16.2012 252.773 15.0488 252.012 13.8574C251.25 12.6465 250.205 11.543 248.877 10.5469C247.549 9.53125 245.967 8.70117 244.131 8.05664C242.314 7.39258 240.352 7.06055 238.242 7.06055C237.07 7.06055 235.859 7.17773 234.609 7.41211C233.379 7.64648 232.119 8.02734 230.83 8.55469C229.561 9.08203 228.271 9.76562 226.963 10.6055C225.654 11.4258 224.355 12.4316 223.066 13.623L217.91 8.96484C219.316 7.38281 220.859 6.02539 222.539 4.89258C224.238 3.75977 225.977 2.83203 227.754 2.10938C229.551 1.38672 231.338 0.859375 233.115 0.527344C234.912 0.175781 236.621 0 238.242 0C241.133 0 243.711 0.302734 245.977 0.908203C248.242 1.51367 250.225 2.31445 251.924 3.31055C253.643 4.28711 255.088 5.40039 256.26 6.65039C257.451 7.90039 258.418 9.16992 259.16 10.459C259.902 11.748 260.439 12.998 260.771 14.209C261.104 15.4199 261.27 16.4844 261.27 17.4023C261.27 17.4219 261.25 17.4316 261.211 17.4316C261.191 17.4316 261.182 17.4414 261.182 17.4609H261.27V26.4844ZM226.055 34.3359C227.48 35.625 229.053 36.5723 230.771 37.1777C232.49 37.7832 234.268 38.0859 236.104 38.0859C238.096 38.0859 240.068 37.7539 242.021 37.0898C243.975 36.4258 245.762 35.4883 247.383 34.2773C249.023 33.0469 250.42 31.582 251.572 29.8828C252.725 28.1641 253.486 26.25 253.857 24.1406C252.197 24.1211 250.459 24.1113 248.643 24.1113C246.846 24.1113 245.078 24.1309 243.34 24.1699C241.602 24.1895 239.951 24.2285 238.389 24.2871C236.826 24.3457 235.459 24.4238 234.287 24.5215L233.848 24.5508C231.875 24.7266 230.254 24.9512 228.984 25.2246C227.715 25.498 226.709 25.8594 225.967 26.3086C225.225 26.7578 224.707 27.3145 224.414 27.9785C224.121 28.623 223.975 29.4043 223.975 30.3223C223.975 31.0645 224.16 31.7676 224.531 32.4316C224.922 33.0762 225.43 33.7109 226.055 34.3359Z" fill="url(#paint13_radial_2050_24)"/>
<path fill-rule="evenodd" clip-rule="evenodd" d="M261.27 26.4844C261.25 26.875 261.24 27.2754 261.24 27.6855C261.24 28.4473 261.279 29.3262 261.357 30.3223C261.455 31.3184 261.631 32.3535 261.885 33.4277C262.139 34.4824 262.451 35.4004 262.822 36.1816C263.193 36.9434 263.613 37.4512 264.082 37.7051L260.303 44.7656C259.541 44.4141 258.857 43.9648 258.252 43.418C257.666 42.8516 257.139 42.2168 256.67 41.5137C256.201 40.8105 255.791 40.0586 255.439 39.2578C255.107 38.457 254.814 37.6367 254.561 36.7969C253.447 37.9883 252.207 39.082 250.84 40.0781C249.473 41.0742 247.988 41.9434 246.387 42.6855C244.805 43.4082 243.115 43.9746 241.318 44.3848C239.541 44.8145 237.676 45.0586 235.723 45.1172H234.99C233.35 45.1172 231.729 44.9316 230.127 44.5605C228.525 44.209 227.002 43.6816 225.557 42.9785C224.131 42.2559 222.842 41.416 221.689 40.459C220.557 39.4824 219.59 38.4375 218.789 37.3242C217.988 36.2109 217.373 35.0586 216.943 33.8672C216.533 32.6562 216.328 31.4746 216.328 30.3223C216.328 28.4082 216.641 26.7871 217.266 25.459C217.91 24.1113 218.73 22.9883 219.727 22.0898C220.742 21.1719 221.875 20.4395 223.125 19.8926C224.395 19.3457 225.654 18.9258 226.904 18.6328C228.174 18.3398 229.365 18.1348 230.479 18.0176C231.611 17.9004 232.549 17.8125 233.291 17.7539L233.701 17.7246C234.893 17.627 236.26 17.5488 237.803 17.4902C239.365 17.4121 241.006 17.3633 242.725 17.3438C244.443 17.3047 246.191 17.2852 247.969 17.2852C249.766 17.2852 251.494 17.2949 253.154 17.3145C253.154 16.2012 252.773 15.0488 252.012 13.8574C251.25 12.6465 250.205 11.543 248.877 10.5469C247.549 9.53125 245.967 8.70117 244.131 8.05664C242.314 7.39258 240.352 7.06055 238.242 7.06055C237.07 7.06055 235.859 7.17773 234.609 7.41211C233.379 7.64648 232.119 8.02734 230.83 8.55469C229.561 9.08203 228.271 9.76562 226.963 10.6055C225.654 11.4258 224.355 12.4316 223.066 13.623L217.91 8.96484C219.316 7.38281 220.859 6.02539 222.539 4.89258C224.238 3.75977 225.977 2.83203 227.754 2.10938C229.551 1.38672 231.338 0.859375 233.115 0.527344C234.912 0.175781 236.621 0 238.242 0C241.133 0 243.711 0.302734 245.977 0.908203C248.242 1.51367 250.225 2.31445 251.924 3.31055C253.643 4.28711 255.088 5.40039 256.26 6.65039C257.451 7.90039 258.418 9.16992 259.16 10.459C259.902 11.748 260.439 12.998 260.771 14.209C261.104 15.4199 261.27 16.4844 261.27 17.4023C261.27 17.4219 261.25 17.4316 261.211 17.4316C261.191 17.4316 261.182 17.4414 261.182 17.4609H261.27V26.4844ZM226.055 34.3359C227.48 35.625 229.053 36.5723 230.771 37.1777C232.49 37.7832 234.268 38.0859 236.104 38.0859C238.096 38.0859 240.068 37.7539 242.021 37.0898C243.975 36.4258 245.762 35.4883 247.383 34.2773C249.023 33.0469 250.42 31.582 251.572 29.8828C252.725 28.1641 253.486 26.25 253.857 24.1406C252.197 24.1211 250.459 24.1113 248.643 24.1113C246.846 24.1113 245.078 24.1309 243.34 24.1699C241.602 24.1895 239.951 24.2285 238.389 24.2871C236.826 24.3457 235.459 24.4238 234.287 24.5215L233.848 24.5508C231.875 24.7266 230.254 24.9512 228.984 25.2246C227.715 25.498 226.709 25.8594 225.967 26.3086C225.225 26.7578 224.707 27.3145 224.414 27.9785C224.121 28.623 223.975 29.4043 223.975 30.3223C223.975 31.0645 224.16 31.7676 224.531 32.4316C224.922 33.0762 225.43 33.7109 226.055 34.3359Z" fill="url(#paint14_radial_2050_24)"/>
<path d="M286.934 43.5938C289.492 43.9648 292.139 44.1504 294.873 44.1504L294.844 37.0312C291.035 37.0117 287.705 36.582 284.854 35.7422C282.021 34.9023 279.658 33.8086 277.764 32.4609C275.889 31.1133 274.502 29.5996 273.604 27.9199C272.705 26.2402 272.256 24.541 272.256 22.8223V22.5879C272.295 20.791 272.803 19.043 273.779 17.3438C274.775 15.625 276.221 14.1016 278.115 12.7734C280.01 11.4258 282.354 10.3418 285.146 9.52148C287.959 8.68164 291.191 8.25195 294.844 8.23242L294.873 1.02539C292.139 1.02539 289.492 1.23047 286.934 1.64062C284.375 2.03125 281.973 2.62695 279.727 3.42773C277.48 4.22852 275.43 5.23438 273.574 6.44531C271.719 7.63672 270.117 9.0332 268.77 10.6348C267.441 12.2363 266.406 14.0332 265.664 16.0254C264.922 18.0176 264.551 20.2148 264.551 22.6172C264.551 25.1367 264.922 27.4219 265.664 29.4727C266.406 31.5234 267.441 33.3496 268.77 34.9512C270.117 36.5332 271.719 37.9004 273.574 39.0527C275.43 40.2051 277.48 41.1621 279.727 41.9238C281.973 42.666 284.375 43.2227 286.934 43.5938Z" fill="white"/>
<path d="M286.934 43.5938C289.492 43.9648 292.139 44.1504 294.873 44.1504L294.844 37.0312C291.035 37.0117 287.705 36.582 284.854 35.7422C282.021 34.9023 279.658 33.8086 277.764 32.4609C275.889 31.1133 274.502 29.5996 273.604 27.9199C272.705 26.2402 272.256 24.541 272.256 22.8223V22.5879C272.295 20.791 272.803 19.043 273.779 17.3438C274.775 15.625 276.221 14.1016 278.115 12.7734C280.01 11.4258 282.354 10.3418 285.146 9.52148C287.959 8.68164 291.191 8.25195 294.844 8.23242L294.873 1.02539C292.139 1.02539 289.492 1.23047 286.934 1.64062C284.375 2.03125 281.973 2.62695 279.727 3.42773C277.48 4.22852 275.43 5.23438 273.574 6.44531C271.719 7.63672 270.117 9.0332 268.77 10.6348C267.441 12.2363 266.406 14.0332 265.664 16.0254C264.922 18.0176 264.551 20.2148 264.551 22.6172C264.551 25.1367 264.922 27.4219 265.664 29.4727C266.406 31.5234 267.441 33.3496 268.77 34.9512C270.117 36.5332 271.719 37.9004 273.574 39.0527C275.43 40.2051 277.48 41.1621 279.727 41.9238C281.973 42.666 284.375 43.2227 286.934 43.5938Z" fill="url(#paint15_radial_2050_24)"/>
<path d="M286.934 43.5938C289.492 43.9648 292.139 44.1504 294.873 44.1504L294.844 37.0312C291.035 37.0117 287.705 36.582 284.854 35.7422C282.021 34.9023 279.658 33.8086 277.764 32.4609C275.889 31.1133 274.502 29.5996 273.604 27.9199C272.705 26.2402 272.256 24.541 272.256 22.8223V22.5879C272.295 20.791 272.803 19.043 273.779 17.3438C274.775 15.625 276.221 14.1016 278.115 12.7734C280.01 11.4258 282.354 10.3418 285.146 9.52148C287.959 8.68164 291.191 8.25195 294.844 8.23242L294.873 1.02539C292.139 1.02539 289.492 1.23047 286.934 1.64062C284.375 2.03125 281.973 2.62695 279.727 3.42773C277.48 4.22852 275.43 5.23438 273.574 6.44531C271.719 7.63672 270.117 9.0332 268.77 10.6348C267.441 12.2363 266.406 14.0332 265.664 16.0254C264.922 18.0176 264.551 20.2148 264.551 22.6172C264.551 25.1367 264.922 27.4219 265.664 29.4727C266.406 31.5234 267.441 33.3496 268.77 34.9512C270.117 36.5332 271.719 37.9004 273.574 39.0527C275.43 40.2051 277.48 41.1621 279.727 41.9238C281.973 42.666 284.375 43.2227 286.934 43.5938Z" fill="url(#paint16_radial_2050_24)"/>
<path d="M286.934 43.5938C289.492 43.9648 292.139 44.1504 294.873 44.1504L294.844 37.0312C291.035 37.0117 287.705 36.582 284.854 35.7422C282.021 34.9023 279.658 33.8086 277.764 32.4609C275.889 31.1133 274.502 29.5996 273.604 27.9199C272.705 26.2402 272.256 24.541 272.256 22.8223V22.5879C272.295 20.791 272.803 19.043 273.779 17.3438C274.775 15.625 276.221 14.1016 278.115 12.7734C280.01 11.4258 282.354 10.3418 285.146 9.52148C287.959 8.68164 291.191 8.25195 294.844 8.23242L294.873 1.02539C292.139 1.02539 289.492 1.23047 286.934 1.64062C284.375 2.03125 281.973 2.62695 279.727 3.42773C277.48 4.22852 275.43 5.23438 273.574 6.44531C271.719 7.63672 270.117 9.0332 268.77 10.6348C267.441 12.2363 266.406 14.0332 265.664 16.0254C264.922 18.0176 264.551 20.2148 264.551 22.6172C264.551 25.1367 264.922 27.4219 265.664 29.4727C266.406 31.5234 267.441 33.3496 268.77 34.9512C270.117 36.5332 271.719 37.9004 273.574 39.0527C275.43 40.2051 277.48 41.1621 279.727 41.9238C281.973 42.666 284.375 43.2227 286.934 43.5938Z" fill="url(#paint17_radial_2050_24)"/>
<defs>
<radialGradient id="paint0_radial_2050_24" cx="0" cy="0" r="1" gradientUnits="userSpaceOnUse" gradientTransform="translate(20.25 1.75) rotate(26.7788) scale(239.708 98.3863)">
<stop stop-color="#40D3F2"/>
<stop offset="1" stop-color="#40D3F2" stop-opacity="0"/>
</radialGradient>
<radialGradient id="paint1_radial_2050_24" cx="0" cy="0" r="1" gradientUnits="userSpaceOnUse" gradientTransform="translate(250.25 95.75) rotate(-146.334) scale(359.352 147.341)">
<stop stop-color="#E100FF"/>
<stop offset="1" stop-color="#E100FF" stop-opacity="0"/>
</radialGradient>
<radialGradient id="paint2_radial_2050_24" cx="0" cy="0" r="1" gradientUnits="userSpaceOnUse" gradientTransform="translate(156.25 -53.25) rotate(146.162) scale(215.502 170.185)">
<stop stop-color="#2B47FC"/>
<stop offset="1" stop-color="#2B47FC" stop-opacity="0"/>
</radialGradient>
<radialGradient id="paint3_radial_2050_24" cx="0" cy="0" r="1" gradientUnits="userSpaceOnUse" gradientTransform="translate(20.25 1.75) rotate(26.7788) scale(239.708 98.3863)">
<stop stop-color="#40D3F2"/>
<stop offset="1" stop-color="#40D3F2" stop-opacity="0"/>
</radialGradient>
<radialGradient id="paint4_radial_2050_24" cx="0" cy="0" r="1" gradientUnits="userSpaceOnUse" gradientTransform="translate(250.25 95.75) rotate(-146.334) scale(359.352 147.341)">
<stop stop-color="#E100FF"/>
<stop offset="1" stop-color="#E100FF" stop-opacity="0"/>
</radialGradient>
<radialGradient id="paint5_radial_2050_24" cx="0" cy="0" r="1" gradientUnits="userSpaceOnUse" gradientTransform="translate(156.25 -53.25) rotate(146.162) scale(215.502 170.185)">
<stop stop-color="#2B47FC"/>
<stop offset="1" stop-color="#2B47FC" stop-opacity="0"/>
</radialGradient>
<radialGradient id="paint6_radial_2050_24" cx="0" cy="0" r="1" gradientUnits="userSpaceOnUse" gradientTransform="translate(20.25 1.75) rotate(26.7788) scale(239.708 98.3863)">
<stop stop-color="#40D3F2"/>
<stop offset="1" stop-color="#40D3F2" stop-opacity="0"/>
</radialGradient>
<radialGradient id="paint7_radial_2050_24" cx="0" cy="0" r="1" gradientUnits="userSpaceOnUse" gradientTransform="translate(250.25 95.75) rotate(-146.334) scale(359.352 147.341)">
<stop stop-color="#E100FF"/>
<stop offset="1" stop-color="#E100FF" stop-opacity="0"/>
</radialGradient>
<radialGradient id="paint8_radial_2050_24" cx="0" cy="0" r="1" gradientUnits="userSpaceOnUse" gradientTransform="translate(156.25 -53.25) rotate(146.162) scale(215.502 170.185)">
<stop stop-color="#2B47FC"/>
<stop offset="1" stop-color="#2B47FC" stop-opacity="0"/>
</radialGradient>
<radialGradient id="paint9_radial_2050_24" cx="0" cy="0" r="1" gradientUnits="userSpaceOnUse" gradientTransform="translate(20.25 1.75) rotate(26.7788) scale(239.708 98.3863)">
<stop stop-color="#40D3F2"/>
<stop offset="1" stop-color="#40D3F2" stop-opacity="0"/>
</radialGradient>
<radialGradient id="paint10_radial_2050_24" cx="0" cy="0" r="1" gradientUnits="userSpaceOnUse" gradientTransform="translate(250.25 95.75) rotate(-146.334) scale(359.352 147.341)">
<stop stop-color="#E100FF"/>
<stop offset="1" stop-color="#E100FF" stop-opacity="0"/>
</radialGradient>
<radialGradient id="paint11_radial_2050_24" cx="0" cy="0" r="1" gradientUnits="userSpaceOnUse" gradientTransform="translate(156.25 -53.25) rotate(146.162) scale(215.502 170.185)">
<stop stop-color="#2B47FC"/>
<stop offset="1" stop-color="#2B47FC" stop-opacity="0"/>
</radialGradient>
<radialGradient id="paint12_radial_2050_24" cx="0" cy="0" r="1" gradientUnits="userSpaceOnUse" gradientTransform="translate(20.25 1.75) rotate(26.7788) scale(239.708 98.3863)">
<stop stop-color="#40D3F2"/>
<stop offset="1" stop-color="#40D3F2" stop-opacity="0"/>
</radialGradient>
<radialGradient id="paint13_radial_2050_24" cx="0" cy="0" r="1" gradientUnits="userSpaceOnUse" gradientTransform="translate(250.25 95.75) rotate(-146.334) scale(359.352 147.341)">
<stop stop-color="#E100FF"/>
<stop offset="1" stop-color="#E100FF" stop-opacity="0"/>
</radialGradient>
<radialGradient id="paint14_radial_2050_24" cx="0" cy="0" r="1" gradientUnits="userSpaceOnUse" gradientTransform="translate(156.25 -53.25) rotate(146.162) scale(215.502 170.185)">
<stop stop-color="#2B47FC"/>
<stop offset="1" stop-color="#2B47FC" stop-opacity="0"/>
</radialGradient>
<radialGradient id="paint15_radial_2050_24" cx="0" cy="0" r="1" gradientUnits="userSpaceOnUse" gradientTransform="translate(20.25 1.75) rotate(26.7788) scale(239.708 98.3863)">
<stop stop-color="#40D3F2"/>
<stop offset="1" stop-color="#40D3F2" stop-opacity="0"/>
</radialGradient>
<radialGradient id="paint16_radial_2050_24" cx="0" cy="0" r="1" gradientUnits="userSpaceOnUse" gradientTransform="translate(250.25 95.75) rotate(-146.334) scale(359.352 147.341)">
<stop stop-color="#E100FF"/>
<stop offset="1" stop-color="#E100FF" stop-opacity="0"/>
</radialGradient>
<radialGradient id="paint17_radial_2050_24" cx="0" cy="0" r="1" gradientUnits="userSpaceOnUse" gradientTransform="translate(156.25 -53.25) rotate(146.162) scale(215.502 170.185)">
<stop stop-color="#2B47FC"/>
<stop offset="1" stop-color="#2B47FC" stop-opacity="0"/>
</radialGradient>
</defs>
</svg>
