<svg width="296" height="46" viewBox="0 0 296 46" fill="none" xmlns="http://www.w3.org/2000/svg">
<path d="M68.459 1.55078V44.5H60.4609V40.3398C60.4609 38.2695 60.2949 36.2188 59.9629 34.1875C59.6504 32.1562 59.1621 30.1641 58.498 28.2109C58.3613 27.7812 58.1367 27.1562 57.8242 26.3359C57.5117 25.4961 57.0918 24.5488 56.5645 23.4941C56.0371 22.4199 55.3828 21.2773 54.6016 20.0664C53.8203 18.8359 52.873 17.625 51.7598 16.4336C50.666 15.2227 49.3965 14.0605 47.9512 12.9473C46.5059 11.834 44.8457 10.8574 42.9707 10.0176C41.0957 9.1582 38.9961 8.47461 36.6719 7.9668C34.3672 7.45898 31.7988 7.20508 28.9668 7.20508C26.5059 7.20508 24.3086 7.41992 22.375 7.84961C20.4609 8.25977 18.7812 8.83594 17.3359 9.57812C15.8906 10.3008 14.6602 11.1602 13.6445 12.1562C12.6484 13.1523 11.8379 14.2363 11.2129 15.4082C10.5879 16.5801 10.1289 17.8105 9.83594 19.0996C9.54297 20.3887 9.37695 21.6875 9.33789 22.9961C9.33789 23.0742 9.33789 23.1426 9.33789 23.2012C9.33789 24.334 9.48438 25.5059 9.77734 26.7168C10.0703 27.9277 10.5391 29.1191 11.1836 30.291C11.8281 31.4629 12.6387 32.5664 13.6152 33.6016C14.5918 34.6367 15.7441 35.5449 17.0723 36.3262C18.4004 37.0879 19.9043 37.6934 21.584 38.1426C23.2637 38.5918 25.1191 38.8164 27.1504 38.8164C29.4355 38.8164 31.6914 38.4941 33.918 37.8496C36.1641 37.2051 38.3125 36.2188 40.3633 34.8906C42.4336 33.543 44.377 31.834 46.1934 29.7637C48.0098 27.6934 49.6309 25.2422 51.0566 22.4102L57.1211 25.457C53.7812 32.0977 49.5723 37.1172 44.4941 40.5156C39.416 43.8945 33.6055 45.584 27.0625 45.584C26.5156 45.584 25.8223 45.584 24.9824 45.584C24.1426 45.584 23.1953 45.5254 22.1406 45.4082C21.0859 45.3105 19.9434 45.125 18.7129 44.8516C17.4824 44.5781 16.2031 44.168 14.875 43.6211C13.5469 43.0742 12.1895 42.3711 10.8027 41.5117C9.43555 40.6328 8.08789 39.5391 6.75977 38.2305C4.63086 36.1406 3.0293 33.8164 1.95508 31.2578C0.900391 28.6992 0.373047 26.043 0.373047 23.2891C0.373047 23.1523 0.373047 23.0059 0.373047 22.8496C0.412109 21.0527 0.695312 19.2559 1.22266 17.459C1.76953 15.6426 2.56055 13.9043 3.5957 12.2441C4.65039 10.584 5.95898 9.04102 7.52148 7.61523C9.08398 6.16992 10.9199 4.91992 13.0293 3.86523C15.1387 2.81055 17.5117 1.98047 20.1484 1.375C22.8047 0.769531 25.7441 0.466797 28.9668 0.466797C31.8184 0.466797 34.4551 0.691406 36.877 1.14062C39.3184 1.57031 41.5645 2.16602 43.6152 2.92773C45.666 3.68945 47.541 4.58789 49.2402 5.62305C50.9395 6.6582 52.4824 7.78125 53.8691 8.99219C55.2559 10.1836 56.4863 11.4336 57.5605 12.7422C58.6543 14.0312 59.6211 15.3301 60.4609 16.6387V1.55078H68.459Z" fill="white"/>
<path d="M122.805 1.52148V44.5H114.367V9.10938C112.258 9.71484 109.934 10.4375 107.395 11.2773C104.875 12.0977 102.131 13.1816 99.1621 14.5293C97.6191 15.2324 96.0469 16.0137 94.4453 16.873C92.8438 17.7129 91.291 18.6309 89.7871 19.627C88.2832 20.623 86.8672 21.6875 85.5391 22.8203C84.2109 23.9336 83.0488 25.125 82.0527 26.3945C81.0762 27.6445 80.2949 28.9629 79.709 30.3496C79.1426 31.7363 78.8594 33.1816 78.8594 34.6855C78.8594 35.623 79.0059 36.3652 79.2988 36.9121C79.6113 37.4395 79.9727 37.8398 80.3828 38.1133C80.793 38.3672 81.2227 38.5332 81.6719 38.6113C82.1211 38.6699 82.4922 38.6992 82.7852 38.6992V45.6426C82.4531 45.6426 81.9258 45.5938 81.2031 45.4961C80.4805 45.418 79.6797 45.252 78.8008 44.998C77.9219 44.7441 77.0137 44.373 76.0762 43.8848C75.1582 43.3965 74.3086 42.752 73.5273 41.9512C72.7656 41.1309 72.1406 40.1348 71.6523 38.9629C71.1641 37.7715 70.9199 36.3457 70.9199 34.6855C70.9199 32.4004 71.3398 30.2324 72.1797 28.1816C73.0195 26.1113 74.1621 24.168 75.6074 22.3516C77.0527 20.5352 78.752 18.8359 80.7051 17.2539C82.6777 15.6523 84.7871 14.168 87.0332 12.8008C89.2988 11.4336 91.6523 10.1836 94.0938 9.05078C96.5352 7.89844 98.957 6.85352 101.359 5.91602C103.762 4.97852 106.086 4.14844 108.332 3.42578C110.598 2.68359 112.678 2.04883 114.572 1.52148H122.805Z" fill="white"/>
<path d="M140.5 17.8691C141.438 17.6348 142.346 17.5176 143.225 17.5176C144.885 17.5176 146.418 17.8789 147.824 18.6016C149.25 19.3047 150.461 20.2617 151.457 21.4727C152.453 22.6836 153.166 23.9922 153.596 25.3984C154.045 26.7852 154.27 28.1328 154.27 29.4414C154.27 29.8906 154.211 30.6719 154.094 31.7852C153.996 32.8984 153.479 34.3828 152.541 36.2383C151.623 38.0938 150.246 39.8711 148.41 41.5703C146.691 42.9766 144.934 43.9727 143.137 44.5586C141.359 45.1641 139.494 45.4668 137.541 45.4668C136.447 45.4668 135.314 45.2715 134.143 44.8809C132.971 44.5098 131.867 43.9336 130.832 43.1523C129.797 42.3516 128.889 41.3555 128.107 40.1641C127.346 38.9727 126.857 37.7715 126.643 36.5605C126.428 35.3496 126.32 34.2949 126.32 33.3965C126.32 32.459 126.428 31.2188 126.643 29.6758C126.877 28.1133 127.561 26.0723 128.693 23.5527C129.162 22.498 129.67 21.3848 130.217 20.2129C130.764 19.0215 131.311 17.8105 131.857 16.5801C132.424 15.3496 132.98 14.1289 133.527 12.918C134.074 11.6875 134.602 10.5156 135.109 9.40234C136.301 6.78516 137.502 4.16797 138.713 1.55078H147.033L138.566 19.7441C137.141 22.6934 136.047 25.3496 135.285 27.7129C134.543 30.0566 134.162 31.668 134.143 32.5469C134.123 33.4062 134.113 33.8848 134.113 33.9824C134.113 35.4863 134.436 36.668 135.08 37.5273C135.744 38.3867 136.799 38.8164 138.244 38.8164C139.729 38.8164 141.047 38.4648 142.199 37.7617C143.352 37.0391 144.309 36.1406 145.07 35.0664C145.832 33.9727 146.34 32.9277 146.594 31.9316C146.848 30.916 146.975 30.0664 146.975 29.3828C146.975 28.9141 146.896 28.3086 146.74 27.5664C146.604 26.8047 146.154 26.0723 145.393 25.3691C144.65 24.6465 143.586 24.2852 142.199 24.2852C141.691 24.2852 141.125 24.3438 140.5 24.4609V17.8691Z" fill="white"/>
<path d="M198.039 23.0254C199.934 23.709 201.682 24.5488 203.283 25.5449C204.885 26.5215 206.35 27.5762 207.678 28.709C209.006 29.8418 210.207 31.0234 211.281 32.2539C212.355 33.4648 213.303 34.6562 214.123 35.8281C216.076 38.582 217.658 41.4727 218.869 44.5H210.08C208.557 41.2773 206.691 38.3965 204.484 35.8574C203.547 34.7637 202.482 33.6992 201.291 32.6641C200.119 31.6289 198.82 30.7012 197.395 29.8809C195.969 29.041 194.416 28.3672 192.736 27.8594C191.057 27.332 189.25 27.0586 187.316 27.0391C185.383 27.0586 183.576 27.332 181.896 27.8594C180.236 28.3672 178.693 29.041 177.268 29.8809C175.842 30.7012 174.533 31.6289 173.342 32.6641C172.15 33.6992 171.086 34.7637 170.148 35.8574C167.961 38.3965 166.105 41.2773 164.582 44.5H155.764C156.975 41.4727 158.557 38.582 160.51 35.8281C161.35 34.6562 162.307 33.4648 163.381 32.2539C164.455 31.0234 165.656 29.8418 166.984 28.709C168.312 27.5762 169.777 26.5215 171.379 25.5449C172.98 24.5488 174.729 23.709 176.623 23.0254C174.729 22.3223 172.98 21.4824 171.379 20.5059C169.777 19.5293 168.312 18.4746 166.984 17.3418C165.656 16.1895 164.455 15.0078 163.381 13.7969C162.307 12.5859 161.35 11.3945 160.51 10.2227C158.557 7.46875 156.975 4.57812 155.764 1.55078H164.582C166.105 4.77344 167.961 7.6543 170.148 10.1934C171.086 11.2676 172.15 12.332 173.342 13.3867C174.533 14.4219 175.842 15.3496 177.268 16.1699C178.693 16.9902 180.236 17.6543 181.896 18.1621C183.576 18.6699 185.383 18.9434 187.316 18.9824C189.25 18.9434 191.057 18.6699 192.736 18.1621C194.416 17.6543 195.969 16.9902 197.395 16.1699C198.82 15.3496 200.119 14.4219 201.291 13.3867C202.482 12.332 203.547 11.2676 204.484 10.1934C206.691 7.6543 208.557 4.77344 210.08 1.55078H218.869C217.658 4.57812 216.076 7.46875 214.123 10.2227C213.303 11.3945 212.355 12.5859 211.281 13.7969C210.207 15.0078 209.006 16.1895 207.678 17.3418C206.35 18.4746 204.885 19.5293 203.283 20.5059C201.682 21.4824 199.934 22.3223 198.039 23.0254Z" fill="white"/>
<path d="M261.643 26.9512C261.623 27.3418 261.613 27.7422 261.613 28.1523C261.613 28.9141 261.652 29.793 261.73 30.7891C261.828 31.7852 262.004 32.8203 262.258 33.8945C262.512 34.9492 262.824 35.8672 263.195 36.6484C263.566 37.4102 263.986 37.918 264.455 38.1719L260.676 45.2324C259.914 44.8809 259.23 44.4316 258.625 43.8848C258.039 43.3184 257.512 42.6836 257.043 41.9805C256.574 41.2773 256.164 40.5254 255.812 39.7246C255.48 38.9238 255.188 38.1035 254.934 37.2637C253.82 38.4551 252.58 39.5488 251.213 40.5449C249.846 41.541 248.361 42.4102 246.76 43.1523C245.178 43.875 243.488 44.4414 241.691 44.8516C239.914 45.2812 238.049 45.5254 236.096 45.584C235.842 45.584 235.598 45.584 235.363 45.584C233.723 45.584 232.102 45.3984 230.5 45.0273C228.898 44.6758 227.375 44.1484 225.93 43.4453C224.504 42.7227 223.215 41.8828 222.062 40.9258C220.93 39.9492 219.963 38.9043 219.162 37.791C218.361 36.6777 217.746 35.5254 217.316 34.334C216.906 33.123 216.701 31.9414 216.701 30.7891C216.701 28.875 217.014 27.2539 217.639 25.9258C218.283 24.5781 219.104 23.4551 220.1 22.5566C221.115 21.6387 222.248 20.9062 223.498 20.3594C224.768 19.8125 226.027 19.3926 227.277 19.0996C228.547 18.8066 229.738 18.6016 230.852 18.4844C231.984 18.3672 232.922 18.2793 233.664 18.2207L234.074 18.1914C235.266 18.0938 236.633 18.0156 238.176 17.957C239.738 17.8789 241.379 17.8301 243.098 17.8105C244.816 17.7715 246.564 17.752 248.342 17.752C250.139 17.752 251.867 17.7617 253.527 17.7812C253.527 16.668 253.146 15.5156 252.385 14.3242C251.623 13.1133 250.578 12.0098 249.25 11.0137C247.922 9.99805 246.34 9.16797 244.504 8.52344C242.688 7.85938 240.725 7.52734 238.615 7.52734C237.443 7.52734 236.232 7.64453 234.982 7.87891C233.752 8.11328 232.492 8.49414 231.203 9.02148C229.934 9.54883 228.645 10.2324 227.336 11.0723C226.027 11.8926 224.729 12.8984 223.439 14.0898L218.283 9.43164C219.689 7.84961 221.232 6.49219 222.912 5.35938C224.611 4.22656 226.35 3.29883 228.127 2.57617C229.924 1.85352 231.711 1.32617 233.488 0.994141C235.285 0.642578 236.994 0.466797 238.615 0.466797C241.506 0.466797 244.084 0.769531 246.35 1.375C248.615 1.98047 250.598 2.78125 252.297 3.77734C254.016 4.75391 255.461 5.86719 256.633 7.11719C257.824 8.36719 258.791 9.63672 259.533 10.9258C260.275 12.2148 260.812 13.4648 261.145 14.6758C261.477 15.8867 261.643 16.9512 261.643 17.8691C261.643 17.8887 261.623 17.8984 261.584 17.8984C261.564 17.8984 261.555 17.9082 261.555 17.9277H261.643V26.9512ZM226.428 34.8027C227.854 36.0918 229.426 37.0391 231.145 37.6445C232.863 38.25 234.641 38.5527 236.477 38.5527C238.469 38.5527 240.441 38.2207 242.395 37.5566C244.348 36.8926 246.135 35.9551 247.756 34.7441C249.396 33.5137 250.793 32.0488 251.945 30.3496C253.098 28.6309 253.859 26.7168 254.23 24.6074C252.57 24.5879 250.832 24.5781 249.016 24.5781C247.219 24.5781 245.451 24.5977 243.713 24.6367C241.975 24.6562 240.324 24.6953 238.762 24.7539C237.199 24.8125 235.832 24.8906 234.66 24.9883L234.221 25.0176C232.248 25.1934 230.627 25.418 229.357 25.6914C228.088 25.9648 227.082 26.3262 226.34 26.7754C225.598 27.2246 225.08 27.7812 224.787 28.4453C224.494 29.0898 224.348 29.8711 224.348 30.7891C224.348 31.5312 224.533 32.2344 224.904 32.8984C225.295 33.543 225.803 34.1777 226.428 34.8027Z" fill="white"/>
<path d="M295.246 44.6172C292.512 44.6172 289.865 44.4316 287.307 44.0605C284.748 43.6895 282.346 43.1328 280.1 42.3906C277.854 41.6289 275.803 40.6719 273.947 39.5195C272.092 38.3672 270.49 37 269.143 35.418C267.814 33.8164 266.779 31.9902 266.037 29.9395C265.295 27.8887 264.924 25.6035 264.924 23.084C264.924 20.6816 265.295 18.4844 266.037 16.4922C266.779 14.5 267.814 12.7031 269.143 11.1016C270.49 9.5 272.092 8.10352 273.947 6.91211C275.803 5.70117 277.854 4.69531 280.1 3.89453C282.346 3.09375 284.748 2.49805 287.307 2.10742C289.865 1.69727 292.512 1.49219 295.246 1.49219L295.217 8.69922C291.564 8.71875 288.332 9.14844 285.52 9.98828C282.727 10.8086 280.383 11.8926 278.488 13.2402C276.594 14.5684 275.148 16.0918 274.152 17.8105C273.176 19.5098 272.668 21.2578 272.629 23.0547C272.629 23.1328 272.629 23.2109 272.629 23.2891C272.629 25.0078 273.078 26.707 273.977 28.3867C274.875 30.0664 276.262 31.5801 278.137 32.9277C280.031 34.2754 282.395 35.3691 285.227 36.209C288.078 37.0488 291.408 37.4785 295.217 37.498L295.246 44.6172Z" fill="white"/>
</svg>
