<svg xmlns="http://www.w3.org/2000/svg" viewBox="0 0 107.2 18.4">
  <defs>
    <style>
      .a {
        fill: #fff;
      }
    </style>
  </defs>
  <title>logo-pro-2</title>
  <g>
    <path class="a" d="M8.1.1A4.79,4.79,0,0,0,4.3,1.9V.1H0V12.8H4.2V6a2.94,2.94,0,0,1,.7-1.9,2.11,2.11,0,0,1,1.6-.6A1.87,1.87,0,0,1,7.9,4a3.72,3.72,0,0,1,.5,2.3v6.4h4.3V4.8a4.06,4.06,0,0,0-1.1-3.3A4.91,4.91,0,0,0,8.1.1Z"/>
    <path class="a" d="M23,0a4.45,4.45,0,0,0-3.6,1.7V.1H15.1V18.4h4.2V11.1A5.26,5.26,0,0,0,23,12.6,5.67,5.67,0,0,0,27.1,11,6.54,6.54,0,0,0,29,6.3a6.48,6.48,0,0,0-1.8-4.6A6,6,0,0,0,23,0Zm1.6,9.1a2.55,2.55,0,0,1-2.2,1,2.7,2.7,0,0,1-2.2-1,3.94,3.94,0,0,1-.8-2.5,4.59,4.59,0,0,1,.8-2.8,2.44,2.44,0,0,1,2.2-1,2.57,2.57,0,0,1,2.2,1,4.59,4.59,0,0,1,.8,2.8A4.15,4.15,0,0,1,24.6,9.1Z"/>
    <path class="a" d="M37.3.1a6.53,6.53,0,0,0-4.9,1.7,6.08,6.08,0,0,0-1.8,4.6,6.11,6.11,0,0,0,1.8,4.5,6.41,6.41,0,0,0,4.9,1.8c2.5,0,3.9-.7,4.8-1.6a5.53,5.53,0,0,0,1.4-2.4H39.4a1.39,1.39,0,0,1-.7.8,3.12,3.12,0,0,1-1.4.3,2.36,2.36,0,0,1-1.8-.6,3.06,3.06,0,0,1-.7-2h9V6.7a6.62,6.62,0,0,0-1.9-5A6.64,6.64,0,0,0,37.3.1ZM34.7,4.7a1.78,1.78,0,0,1,.6-1.3,3.38,3.38,0,0,1,2-.6,2.31,2.31,0,0,1,1.8.6,2.73,2.73,0,0,1,.7,1.3Z"/>
    <polygon class="a" points="69.9 0.1 66.4 0.1 62.7 5.1 62.7 0.1 60.1 0.1 60.1 12.7 62.7 12.7 62.7 8.1 63.1 7.7 66.8 12.7 70.1 12.7 65 6 69.9 0.1"/>
    <polygon class="a" points="71.2 2.2 74.5 2.2 74.5 12.7 77.1 12.7 77.1 2.2 80.3 2.2 80.3 0 71.2 0 71.2 2.2"/>
    <polygon class="a" points="87.7 11.1 82.6 0.1 81.4 0.1 87.1 12.5 84.6 18.4 85.8 18.4 93.4 0.1 92.2 0.1 87.7 11.1"/>
    <polygon class="a" points="104.8 0 100.3 10.6 95.8 0 93.5 12.7 94.6 12.7 96.2 3.1 100.4 13 104.5 3.1 106.1 12.7 107.2 12.7 104.8 0"/>
    <path class="a" d="M55.1,1.7A4.42,4.42,0,0,0,51.5,0c-3.2,0-5.9,2.4-5.9,6.3,0,3.3,2.2,6.4,5.9,6.4a4.71,4.71,0,0,0,3.6-1.6v1.6h2.8V.1H55.1Zm-3.4,8.7c-2.2,0-3.6-1.9-3.6-4.1s1.4-4.1,3.6-4.2c2,0,3.7,1.4,3.7,4.2S53.6,10.4,51.7,10.4Z"/>
  </g>
</svg>
