<svg xmlns="http://www.w3.org/2000/svg" viewBox="0 0 734 501">
  <defs>
    <style>
      .a {
        fill: #ff6725;
      }
    </style>
  </defs>
  <title>logo</title>
  <g>
    <polygon class="a" points="134.26 0 42.78 340.5 152.78 340.5 244.26 0 134.26 0"/>
    <polygon class="a" points="0 499.73 110 499.73 136.66 400.5 26.66 400.5 0 499.73"/>
    <path class="a" d="M543.67.31l-79-.31h-110L220.4,499.73h110L372.51,343l84.87.85L534.64,501H657L576.14,336.92C614.52,328.82,734,273,734,157,734,112.66,720,0,543.67.31Zm-41.82,244-102.54-1,38.4-142.95h106C619,101,619,150.14,619,166,619,183.78,598,245,501.85,244.29Z"/>
  </g>
</svg>
