<svg xmlns="http://www.w3.org/2000/svg" viewBox="0 0 42.4 42.5">
  <defs>
    <style>
      .a {
        fill: none;
      }

      .b {
        fill: #878787;
      }

      .c {
        fill: #9a9a9a;
      }

      .d {
        fill: #636363;
      }

      .e {
        fill: #fff;
      }

      .f {
        fill: #8f8f8f;
      }
    </style>
  </defs>
  <title>logo-pro-9</title>
  <g>
    <g>
      <rect class="a" x="20.2" y="22.3" width="0.1" height="7.6"/>
      <rect class="a" x="20.2" y="33" width="0.1" height="7.5"/>
      <path class="b" d="M9.6,23.9a.9.9,0,0,0,.9.9h1.3a.9.9,0,0,0,.9-.9V20.3h7.6V12.6h3.8a.9.9,0,0,0,.9-.9V10.4a.9.9,0,0,0-.9-.9H20.3V1.9H3.9A1.69,1.69,0,0,0,2,3.6V7.5H3.6a2.9,2.9,0,0,1,2.9,2.9v1.3a2.9,2.9,0,0,1-2.9,2.9H2v5.7H9.6Z"/>
      <path class="c" d="M24.9,30.8v1.3a.9.9,0,0,1-.9.9h.1a.9.9,0,0,0,.9-.9V30.8a.9.9,0,0,0-.9-.9H24A.9.9,0,0,1,24.9,30.8Z"/>
      <path class="c" d="M33,18.4a.9.9,0,0,0-.9-.9H30.8a.9.9,0,0,0-.9.9v3.8H22.3v5.7h1.8A2.9,2.9,0,0,1,27,30.8v1.3A2.9,2.9,0,0,1,24.1,35H22.3v5.5H38.7a1.79,1.79,0,0,0,1.8-1.8V22.2H33Z"/>
      <path class="d" d="M24,33a.9.9,0,0,0,.9-.9V30.8a.9.9,0,0,0-.9-.9H20.2V22.3H14.7v1.6a2.9,2.9,0,0,1-2.9,2.9H10.5a2.9,2.9,0,0,1-2.9-2.9V22.3H2V38.7a1.79,1.79,0,0,0,1.8,1.8H20.2V33H24Z"/>
      <path class="e" d="M35,20.2V18.4a2.9,2.9,0,0,0-2.9-2.9H30.8a2.9,2.9,0,0,0-2.9,2.9v1.8H22.3V14.7h1.8A2.9,2.9,0,0,0,27,11.8V10.5a2.9,2.9,0,0,0-2.9-2.9H22.3V0H3.8C.2,0,0,2.5,0,3.8V9.5H3.6a.9.9,0,0,1,.9.9v1.3a.9.9,0,0,1-.9.9H0V38.7a3.8,3.8,0,0,0,3.8,3.8H38.6a3.8,3.8,0,0,0,3.8-3.8V20.2ZM2,14.6H3.6a2.9,2.9,0,0,0,2.9-2.9V10.4A2.9,2.9,0,0,0,3.6,7.5H2V3.6A1.69,1.69,0,0,1,3.9,1.9H20.3V9.5h3.8a.9.9,0,0,1,.9.9v1.3a.9.9,0,0,1-.9.9H20.3v7.7H12.7v3.6a.9.9,0,0,1-.9.9H10.5a.9.9,0,0,1-.9-.9V20.3H2ZM20.3,33v7.5H3.8A1.79,1.79,0,0,1,2,38.7V22.3H7.6v1.6a2.9,2.9,0,0,0,2.9,2.9h1.3a2.9,2.9,0,0,0,2.9-2.9V22.3h5.6v7.6h3.8a.9.9,0,0,1,.9.9v1.3a.9.9,0,0,1-.9.9H20.3Zm20.2,5.7a1.79,1.79,0,0,1-1.8,1.8H22.3V35h1.8A2.9,2.9,0,0,0,27,32.1V30.8a2.9,2.9,0,0,0-2.9-2.9H22.3V22.2h7.6V18.4a.9.9,0,0,1,.9-.9h1.3a.9.9,0,0,1,.9.9v3.8h7.5Z"/>
    </g>
    <path class="d" d="M18,9.7a.7.7,0,1,1-.7-.7A.68.68,0,0,1,18,9.7Z"/>
    <circle class="f" cx="38.4" cy="33.5" r="0.7"/>
    <circle class="c" cx="8.9" cy="39" r="0.7"/>
    <path class="e" d="M37.4,39H31.1a.7.7,0,1,1,0-1.4h6.3a.27.27,0,0,0,.3-.3V35.5a.7.7,0,0,1,1.4,0v1.8A1.83,1.83,0,0,1,37.4,39Z"/>
    <path class="e" d="M17.3,8a.68.68,0,0,1-.7-.7V5.5a.27.27,0,0,0-.3-.3H10a.7.7,0,0,1,0-1.4h6.4A1.58,1.58,0,0,1,18,5.4V7.3A.68.68,0,0,1,17.3,8Z"/>
    <path class="e" d="M6.6,39.6H4.8A1.58,1.58,0,0,1,3.2,38V31.7a.7.7,0,0,1,1.4,0V38a.27.27,0,0,0,.3.3H6.7a.68.68,0,0,1,.7.7A.87.87,0,0,1,6.6,39.6Z"/>
  </g>
</svg>
