<svg xmlns="http://www.w3.org/2000/svg" viewBox="0 0 104.9 14.2">
  <defs>
    <style>
      .a {
        fill: #fff;
      }
    </style>
  </defs>
  <title>logo-pro-12</title>
  <g>
    <path class="a" d="M64.5.2a.86.86,0,0,0-.8.8V12.4H58.5V1a.8.8,0,0,0-1.6,0V12.4H51.7V1a.8.8,0,0,0-1.6,0V13.2a.86.86,0,0,0,.8.8H64.5a.86.86,0,0,0,.8-.8V1A.86.86,0,0,0,64.5.2Z"/>
    <path class="a" d="M72.5,9.4l2.8-3.1a.67.67,0,0,0,0-1C75,5,74.5,5,74,5.5L71,8.9A.78.78,0,0,0,71,10l3.2,3.7a1,1,0,0,0,.8.4.71.71,0,0,0,.8-.7.73.73,0,0,0-.2-.6Z"/>
    <path class="a" d="M68.5,5.9v7.5c0,1,1.7,1,1.6,0V5.9C70.1,4.9,68.4,4.9,68.5,5.9Z"/>
    <path class="a" d="M81.7,5a4.52,4.52,0,0,0-3.4,1.3A4.45,4.45,0,0,0,77,9.6a4.87,4.87,0,0,0,1.3,3.3,5.1,5.1,0,0,0,6.8,0,4.45,4.45,0,0,0,1.3-3.3,4.45,4.45,0,0,0-1.3-3.3A4.52,4.52,0,0,0,81.7,5Zm0,7.7a2.91,2.91,0,0,1-3-3.1,3,3,0,1,1,6,0A2.91,2.91,0,0,1,81.7,12.7Z"/>
    <path class="a" d="M95.7,5.9a.68.68,0,0,0-.7-.7H90.4a.77.77,0,0,0-.8.7l-.1,2a11.62,11.62,0,0,1-.5,3.4,2.45,2.45,0,0,1-1.1,1.3c-.4.2-.6.4-.6.8a.71.71,0,0,0,.8.7c1.5,0,2.7-1.8,3-5.9V6.8h3.1v6.6c0,1,1.7,1,1.6,0h-.1Z"/>
    <path class="a" d="M101.5,5.1a5.45,5.45,0,0,0-2.4.5.55.55,0,0,0-.4.6c0,.1.1.2.1.3a.55.55,0,0,0,.6.4c.1,0,.2-.1.3-.1a3.92,3.92,0,0,1,1.8-.4c1.6,0,2,.9,2,2.8a3.59,3.59,0,0,0-2.2-.6c-1.9,0-3.3,1-3.3,2.9a2.57,2.57,0,0,0,2.7,2.7,3.57,3.57,0,0,0,2.8-1.3v.6a.7.7,0,0,0,1.4,0V8.7C104.9,6.3,103.9,5.1,101.5,5.1Zm2,6.4a3.15,3.15,0,0,1-2.3,1.1c-1,0-1.6-.5-1.6-1.4s.9-1.4,1.9-1.4a3.17,3.17,0,0,1,2,.6Z"/>
    <path class="a" d="M25.6,5.8A1.16,1.16,0,0,0,24.4,7a4.6,4.6,0,1,1-9.2,0,4.65,4.65,0,0,1,4.6-4.6A1.16,1.16,0,0,0,21,1.2,1.16,1.16,0,0,0,19.8,0a7,7,0,0,0-7,7,7,7,0,0,0,14,0A1.16,1.16,0,0,0,25.6,5.8Z"/>
    <path class="a" d="M10.2.1H1.1A1.11,1.11,0,0,0,0,1.2,1.11,1.11,0,0,0,1.1,2.3H4.4V12.7a1.16,1.16,0,0,0,1.2,1.2,1.22,1.22,0,0,0,1.2-1.2V2.3h3.4a1.11,1.11,0,0,0,1.1-1.1A1.11,1.11,0,0,0,10.2.1Z"/>
    <path class="a" d="M40,.1H31.5a1.22,1.22,0,0,0-1.2,1.2V12.7a1.16,1.16,0,0,0,1.2,1.2,1.22,1.22,0,0,0,1.2-1.2V2.3h6.1V12.7A1.16,1.16,0,0,0,40,13.9a1.22,1.22,0,0,0,1.2-1.2V1.3A1.16,1.16,0,0,0,40,.1Z"/>
    <path class="a" d="M23.9,5.4v.1l.1.1a.1.1,0,0,0,.1-.1,4.06,4.06,0,0,1,2.4-2.4c.1,0,.1-.1.1-.2.2-.2.1-.3,0-.3A4.06,4.06,0,0,1,24.2.2a.1.1,0,0,0-.1-.1c-.1,0-.1,0-.2.1V.3a4.06,4.06,0,0,1-2.4,2.4.1.1,0,0,0-.1.1V3h.1A4.06,4.06,0,0,1,23.9,5.4Z"/>
  </g>
</svg>
