<svg xmlns="http://www.w3.org/2000/svg" viewBox="0 0 105.4 18.2">
  <defs>
    <style>
      .a {
        fill: #fff;
      }
    </style>
  </defs>
  <title>logo-pro-11</title>
  <g>
    <path class="a" d="M1.3.6A1.22,1.22,0,0,0,.4.9a1,1,0,0,0-.4.9,1.27,1.27,0,0,0,.4.9,1.8,1.8,0,0,0,.9.4,1.27,1.27,0,0,0,.9-.4,1.22,1.22,0,0,0,.4-.9A1.27,1.27,0,0,0,2.2.9,1.61,1.61,0,0,0,1.3.6Z"/>
    <path class="a" d="M1.3,5.4a.86.86,0,0,0-.6.3.6.6,0,0,0-.3.6V17a.86.86,0,0,0,.3.6.86.86,0,0,0,.6.3.86.86,0,0,0,.6-.3.85.85,0,0,0,.2-.6V6.3a.73.73,0,0,0-.2-.6A.6.6,0,0,0,1.3,5.4Z"/>
    <path class="a" d="M104.1,13a.86.86,0,0,0,.6-.3.6.6,0,0,0,.3-.6V1.4a.86.86,0,0,0-.3-.6,1.42,1.42,0,0,0-.6-.2.86.86,0,0,0-.6.3.85.85,0,0,0-.2.6V12.1a.73.73,0,0,0,.2.6A.6.6,0,0,0,104.1,13Z"/>
    <path class="a" d="M105,15.8a1.22,1.22,0,0,0-.9-.4,1.27,1.27,0,0,0-.9.4,1.22,1.22,0,0,0-.4.9,1.27,1.27,0,0,0,.4.9,1.61,1.61,0,0,0,.9.3,1.22,1.22,0,0,0,.9-.3,1,1,0,0,0,.4-.9A1.27,1.27,0,0,0,105,15.8Z"/>
    <path class="a" d="M20.2,0c-.3,0-.5.1-.7.5L14.2,11.7,7.8.5C7.6.2,7.4,0,7.1,0a1.69,1.69,0,0,0-.5.2c-.3.2-.5.4-.5.7a.9.9,0,0,0,.1.5l7.2,12.3-.2.5A4.34,4.34,0,0,1,12,15.9a2.16,2.16,0,0,1-1.4.6,1.93,1.93,0,0,1-1-.3A1.42,1.42,0,0,0,9,16a.91.91,0,0,0-.7.3c-.1.2-.2.3-.2.5a.75.75,0,0,0,.4.7,3.06,3.06,0,0,0,2,.7,3.52,3.52,0,0,0,2.3-.9,7,7,0,0,0,1.8-2.5L20.9,1.4A.9.9,0,0,0,21,.9a1,1,0,0,0-.4-.8A.6.6,0,0,0,20.2,0Z"/>
    <path class="a" d="M30.7,5.5a.86.86,0,0,0-.6.3.6.6,0,0,0-.3.6v4.2a1.48,1.48,0,0,1-.9,1.3,5.21,5.21,0,0,1-2.3.5,3.25,3.25,0,0,1-2.6-1,4.37,4.37,0,0,1-.9-2.9V6.3a.73.73,0,0,0-.2-.6.6.6,0,0,0-.6-.3.86.86,0,0,0-.6.3.6.6,0,0,0-.3.6V8.5a5.78,5.78,0,0,0,1.3,4.1,4.9,4.9,0,0,0,3.8,1.5,5.85,5.85,0,0,0,1.9-.4,5.6,5.6,0,0,0,1.5-1V17a.71.71,0,0,0,.3.6.6.6,0,0,0,.6.3.86.86,0,0,0,.6-.3.85.85,0,0,0,.2-.6V6.3a.73.73,0,0,0-.2-.6C31.3,5.5,31.1,5.4,30.7,5.5Z"/>
    <path class="a" d="M46.8,5.4a1.55,1.55,0,0,0-1.2.7L38,15.3v-9a.91.91,0,0,0-1.8,0V17c0,.6.3,1,.9,1a1.67,1.67,0,0,0,1.2-.6l7.6-9.2v9a.91.91,0,0,0,1.8,0V6.3A.8.8,0,0,0,46.8,5.4Z"/>
    <path class="a" d="M71.4,6.1a7.54,7.54,0,0,0-2.9-.9,6.21,6.21,0,0,0-3.1.8,5.83,5.83,0,0,0-2.1,2.3,7.21,7.21,0,0,0,0,6.6,4.91,4.91,0,0,0,2.2,2.3,7.31,7.31,0,0,0,3.3.8,6,6,0,0,0,2.2-.4,6.79,6.79,0,0,0,1.9-1.1.55.55,0,0,0,.3-.5.86.86,0,0,0-.3-.6c-.2-.1-.3-.2-.5-.2a.73.73,0,0,0-.6.2,3.16,3.16,0,0,1-1.3.7,5.55,5.55,0,0,1-1.7.3,4.54,4.54,0,0,1-3.2-1.2,4.17,4.17,0,0,1-1.5-3h9.2a1.27,1.27,0,0,0,.6-.1,1.42,1.42,0,0,0,.2-.6,6.57,6.57,0,0,0-.7-3.2A4.78,4.78,0,0,0,71.4,6.1Zm-7.3,4.7A4.7,4.7,0,0,1,65.5,8a3.69,3.69,0,0,1,2.8-1.1,4.1,4.1,0,0,1,4.1,3.9Z"/>
    <path class="a" d="M82.4,6a1,1,0,0,0-.9-.6.94.94,0,0,0-.8.6l-5,10.7a.37.37,0,0,0-.1.3c0,.3.2.5.5.7a.6.6,0,0,0,.4.1.75.75,0,0,0,.5-.1,1.38,1.38,0,0,0,.3-.4L81.6,8l4.2,9.4a.75.75,0,0,0,.7.5.6.6,0,0,0,.4-.1c.3-.2.5-.4.5-.7a.76.76,0,0,0-.1-.4Z"/>
    <path class="a" d="M97.1,10a6.69,6.69,0,0,0-2.6-.5H90.8V6.3a.73.73,0,0,0-.2-.6.6.6,0,0,0-.6-.3.86.86,0,0,0-.6.3.86.86,0,0,0-.3.6v7.2a4.81,4.81,0,0,0,.7,2.4,4.94,4.94,0,0,0,1.9,1.6,4.85,4.85,0,0,0,2.7.5,6,6,0,0,0,2.7-.6,3.35,3.35,0,0,0,1.8-1.5,4,4,0,0,0,.6-2.2,4,4,0,0,0-.6-2.2A5.35,5.35,0,0,0,97.1,10Zm-.2,5.8a4.36,4.36,0,0,1-2.5.8,3.66,3.66,0,0,1-2.5-.9,2.7,2.7,0,0,1-1-2.2V11.1h3.6a3.61,3.61,0,0,1,2.4.7,2.38,2.38,0,0,1,.9,2A2.38,2.38,0,0,1,96.9,15.8Z"/>
    <path class="a" d="M60.6,5.4H50.4a.74.74,0,0,0-.8.8.74.74,0,0,0,.8.8h4.2V17.1a.85.85,0,0,0,.2.6.9.9,0,0,0,1.5-.6V6.9h4.2a.74.74,0,0,0,.8-.8C61.4,5.7,61.1,5.4,60.6,5.4Z"/>
  </g>
</svg>
