<svg xmlns="http://www.w3.org/2000/svg" viewBox="0 0 88.4 43.25">
  <defs>
    <style>
      .a {
        fill: #fff;
      }
    </style>
  </defs>
  <title>logo-pro-8</title>
  <g>
    <path class="a" d="M15.8,29.45c-4.4.1-8.9,0-13.3,0V18.65H0v24.1H2.5V32.25c0-.3,0-.3.3-.3h13v10.8h2.4V18.65H15.8Z"/>
    <path class="a" d="M34.9,18a12.4,12.4,0,1,0,12.5,12.3A12.46,12.46,0,0,0,34.9,18Zm.1,22.3a9.85,9.85,0,1,1,9.8-9.9A9.84,9.84,0,0,1,35,40.25Z"/>
    <path class="a" d="M87.9,26.35a12.14,12.14,0,0,0-5.2-6.6A12,12,0,0,0,77.2,18a12.58,12.58,0,0,0-4.3.4,12.43,12.43,0,0,0-7.8,6.2,11.06,11.06,0,0,0-1.4,5,13.11,13.11,0,0,0,.7,5.2,12.32,12.32,0,0,0,4.7,5.9,11.51,11.51,0,0,0,5.7,2,14.12,14.12,0,0,0,4.6-.4,12.24,12.24,0,0,0,7.3-5.5,11.81,11.81,0,0,0,1.7-6.4A17.52,17.52,0,0,0,87.9,26.35ZM76,40.25a9.85,9.85,0,1,1,9.9-10A10,10,0,0,1,76,40.25Z"/>
    <path class="a" d="M42.68,6.67a.43.43,0,0,0,0-.12.54.54,0,0,0-.5-.5.46.46,0,0,0-.28.11,1.09,1.09,0,0,1,.18,0A.71.71,0,0,1,42.68,6.67Z"/>
    <path class="a" d="M37.27,15a.55.55,0,0,0-.57-.43.53.53,0,0,0-.17,0,1,1,0,0,1,.57.26A.64.64,0,0,0,37.27,15Z"/>
    <path class="a" d="M66.6,7.45a.69.69,0,0,0-.28,0,.41.41,0,0,0,.28.13.42.42,0,0,0,.27-.12A.36.36,0,0,1,66.6,7.45Z"/>
    <path class="a" d="M55.57,6a.41.41,0,0,0,0-.16.47.47,0,0,0-.5-.5.89.89,0,0,0-.41.27A.78.78,0,0,1,55.57,6Z"/>
    <path class="a" d="M57,4.08v0a.58.58,0,0,0-.6-.6.43.43,0,0,0-.22.06,1,1,0,0,1,.52.14A1.21,1.21,0,0,1,57,4.08Z"/>
    <path class="a" d="M53.7,19.15c-.8-.1-1.6-.1-2.4-.2s-1.5-.1-2.3-.2c-.2-.1-.3-.1-.3-.3-.2-1-.5-2.1-.7-3.2a1.35,1.35,0,0,0-.8-1.2,1,1,0,0,1-.4-.5,4.33,4.33,0,0,1-.1-.5c-.3-1.1-.5-2.1-.7-3.2a.55.55,0,0,0-.3-.5,29,29,0,0,0-2.9-1.9c-.1-.1-.1-.1-.1-.3a1,1,0,0,0,0-.48.46.46,0,0,1-.48.38c-.3,0-.6-.2-.5-.5a.54.54,0,0,1,.22-.39A.69.69,0,0,0,41.2,7a.77.77,0,0,0,1,.7.59.59,0,0,1,.7.1H43c.9.6,1.7,1.1,2.6,1.7.2.1.3.2.3.4.2,1.1.5,2.3.7,3.4v.2h-.1c0-.1-.1-.1-.1-.2s-.1-.3-.1-.4a22.11,22.11,0,0,0-.5-2.5.55.55,0,0,0-.3-.5c-.9-.6-1.7-1.1-2.6-1.7a.75.75,0,0,0-.5-.1c-.2.1-.5.1-.7.2a1,1,0,0,1-1-.4c.1-.1.1-.2.2-.3a.76.76,0,0,0,.1-.9.91.91,0,0,0-.8-.4.86.86,0,0,0-.7.6.68.68,0,0,0,.4.8,6,6,0,0,1,1.1.6.75.75,0,0,0,.5.1c.2,0,.3-.1.5-.1a1,1,0,0,1,.9.1c.7.4,1.5.9,2.2,1.4a.68.68,0,0,1,.4.6c0,.2.1.3.1.5a10.46,10.46,0,0,1,.4,1.7v.2h-.1c0-.1-.1-.3-.1-.4a12.86,12.86,0,0,0-.4-1.9.52.52,0,0,0-.2-.4c-.7-.5-1.4-1-2.1-1.4a.75.75,0,0,0-.5-.1,3,3,0,0,0-1,.2.78.78,0,0,1-.8-.1c-.4-.3-.9-.6-1.3-.9a4.35,4.35,0,0,1-.7-.4c-.3-.2-.3-.3,0-.5l.3-.3a.86.86,0,0,0,.3-.6A1.25,1.25,0,0,0,38,4.45a1.22,1.22,0,0,0-1.2,1.2,1.27,1.27,0,0,0,1,1.3c.2,0,.3.1.4.3l.3.3c.8.5,1.7,1,2.5,1.5a.9.9,0,0,0,.5.1c.3-.1.6-.1.9-.2a.82.82,0,0,1,.7.1c.6.3,1.1.7,1.6,1a1.37,1.37,0,0,1,.5.8c.1.6.3,1.3.4,1.9a.68.68,0,0,0,.4.6c.5.3.9.6,1.4.9a.85.85,0,0,1,.3.5c.3,1.1.5,2.1.7,3.2v.2h-.2c-.4,0-.8-.1-1.2-.1s-.6-.1-.7-.5v-.1c-.2-1.3-.5-2.5-.7-3.8a.55.55,0,0,0-.3-.5c-1-.6-1.9-1.3-2.8-1.9-.2-.1-.3-.2-.2-.4v-.2a.76.76,0,0,0-1-.8.8.8,0,0,0-.5.9.76.76,0,0,0,.8.6h.3a.37.37,0,0,1,.3.1c.9.6,1.8,1.3,2.7,1.9.2.2.4.4.4.6.2.9.3,1.9.5,2.8v.3c-.2-.2-.4-.3-.6-.5a.35.35,0,0,1-.1-.2c-.1-.5-.2-.9-.3-1.3a1,1,0,0,0-.4-.9c-.7-.4-1.3-.9-1.9-1.3a1.27,1.27,0,0,0-.6-.1,2.77,2.77,0,0,0-.9.1,1,1,0,0,1-.9-.2,17,17,0,0,0-1.4-1c-.2-.1-.4-.3-.6-.4a.3.3,0,0,1,0-.4c0-.1.1-.1.2-.2A1.38,1.38,0,0,0,38.6,9a1.38,1.38,0,0,0-1.6-.5.59.59,0,0,1-.7-.1,3,3,0,0,0-.7-.5,1.64,1.64,0,0,0-1-.1.62.62,0,0,1-.7-.2c-.1-.2-.4-.3-.6-.4a1.28,1.28,0,1,0-.5,2.5,1.33,1.33,0,0,0,1.4-.9.37.37,0,0,0,.1-.3c.1-.2.1-.3.4-.3H35a.66.66,0,0,1,.6.1c.2.2.5.3.7.5s.2.2.1.4a1.23,1.23,0,0,0,.9,1.8s.2.1.2.2a1,1,0,0,0,.5.6c.1,0,.2.1.3.2a4.88,4.88,0,0,0-.7.3,1.16,1.16,0,0,1-1-.2c-.5-.4-1.1-.7-1.6-1.1a1.27,1.27,0,0,0-.6-.1,1.7,1.7,0,0,0-.7.1.76.76,0,0,1-.5-.2.76.76,0,0,0-.4-.2.71.71,0,0,0-.8.3.75.75,0,0,0,0,.9,1,1,0,0,0,.9.2.82.82,0,0,0,.5-.5.27.27,0,0,1,.3-.3c.2,0,.3-.1.5-.1a.59.59,0,0,1,.7.1c.5.4,1.1.8,1.7,1.2a.62.62,0,0,0,.7.2c.2,0,.3-.1.5-.1a1.73,1.73,0,0,1,1-.1c.1,0,.1.1.2.1-.1.1-.1.1-.2.1-.5.1-1.1.2-1.7.3a.78.78,0,0,1-.8-.2c-.1-.2-.3-.3-.4-.4a1.39,1.39,0,0,0-1.1-.2c-.2,0-.3.1-.5.1a.9.9,0,0,1-.5.1h-.3a.83.83,0,0,0-.5,1,.8.8,0,0,0,.9.5.67.67,0,0,0,.6-.7.24.24,0,0,0,0-.09.88.88,0,0,1,.62.19,3,3,0,0,1,.7.5.75.75,0,0,0,.5.1l1.6-.3c.2,0,.4-.1.6-.1a.61.61,0,0,1,.3,0c-.2,0-.3.2-.3.4a.19.19,0,0,0,0,.08l.08,0a.22.22,0,0,1,.2.2l.11.1c.19,0,.29-.2.29-.4a.44.44,0,0,0-.24-.36,3,3,0,0,1,.44.26,1.08,1.08,0,0,0,.8.2c.3-.1.5-.1.8-.2a.82.82,0,0,1,.7.1c.5.4,1,.7,1.5,1.1.3.3.5.5.5.9a2.77,2.77,0,0,1,.1.9l-.1.1a.37.37,0,0,1-.3.1c-.1.1-.2,0-.3-.1l-1.3-1.6a.66.66,0,0,0-.5-.4c-.7-.1-1.4-.3-2.1-.4a1.21,1.21,0,0,1-.29-.2h0a.42.42,0,0,1-.38-.32.5.5,0,0,0-.52.22.48.48,0,0,0,0,.7c.1.2.4.2.6.1a.6.6,0,0,1,.4-.1c.8.2,1.5.3,2.2.5.1,0,.2.1.3.2l1.44,1.73,0,0c-.5-.5-1.1-.9-1.6-1.4a.86.86,0,0,0-.6-.3,6.75,6.75,0,0,0-1.4-.2c-.5-.1-1.1-.1-1.6-.2a.93.93,0,0,1-.43-.07.47.47,0,0,1,0,.17.6.6,0,1,1-1.2,0,.66.66,0,0,1,.43-.56,1.85,1.85,0,0,0-.23,0,1.11,1.11,0,0,0,0,2.2,1.11,1.11,0,0,0,1.2-.9c.1-.3.1-.3.4-.3l2.6.3c.2,0,.3.1.5.2.4.4.9.7,1.3,1.1l2.6,2.3a5.5,5.5,0,0,1,.7.9c.1.2.2.3.3.5a.68.68,0,0,0,.6.4c.5,0,1,.1,1.5.1s1.1.1,1.6.1c.7.1,1.3.1,2,.2.4,0,.9.1,1.3.1.2,0,.2,0,.2.2v21.3h1.5V19.75a.52.52,0,0,0-.2-.4A1.85,1.85,0,0,0,53.7,19.15ZM38.1,6.65a.9.9,0,1,1,.9-.9A.9.9,0,0,1,38.1,6.65Zm-5,2.6a.9.9,0,0,1-.9-.9,1.06,1.06,0,0,1,.9-.9.9.9,0,0,1,0,1.8Zm4.4,1.3a.9.9,0,0,1-.9-.9.88.88,0,0,1,.9-.8.9.9,0,0,1,.9.9A.82.82,0,0,1,37.5,10.55Zm-4.9,1.1a.5.5,0,0,1,0-1,.5.5,0,0,1,0,1Zm1.1,1.9a.47.47,0,0,1-.5-.5c0-.3.2-.6.5-.5a.54.54,0,0,1,.44.29c0,.06-.08.13-.14.21l.19,0s0,0,0,0A.47.47,0,0,1,33.7,13.55Z"/>
    <path class="a" d="M58.41,15.69l-.88.26h.07Z"/>
    <path class="a" d="M65.4,20.45a4.62,4.62,0,0,0,.7-.7c.6-.7,1.2-1.4,1.9-2.1.2-.1.4-.3.6-.4l3.9-2.1c.1,0,.3-.1.4-.1l1.4-.3c.4-.1.3-.1.4.2a1.22,1.22,0,0,0,1.3.9,1.24,1.24,0,1,0-1-2.1.52.52,0,0,1-.4.2,4.25,4.25,0,0,1-1.1.2,6.36,6.36,0,0,0-1.8.6c-.8.5-1.6.9-2.4,1.3-.1.1-.1.1-.2.1a.35.35,0,0,1,.1-.2c.3-.3.6-.7.9-1,.1-.1.2-.1.3-.2.5-.3,1-.5,1.5-.8.2-.1.3-.1.4,0a.54.54,0,1,0,.4-1,.52.52,0,0,0-.7.3c0,.1-.2.2-.3.3-.5.3-1,.5-1.5.8a1,1,0,0,0-.5.4c-.4.4-.8.9-1.2,1.3a.84.84,0,0,1-.7.2c-.2,0-.2-.1-.2-.2v-.7a1.43,1.43,0,0,1,.5-1.1l1.4-1.1a.84.84,0,0,1,.7-.2c.2,0,.3.1.5.1a1.25,1.25,0,0,0,1.2-.3,1.14,1.14,0,0,1,.8-.3c.6.1,1.3.1,1.9.2a1,1,0,0,0,.9-.1c.2-.2.4-.3.6-.5a1.1,1.1,0,0,1,.9-.3c.4.1.4.1.3.5a.67.67,0,0,0,.3.8,1,1,0,0,0,.9,0,.91.91,0,0,0,.3-1,.72.72,0,0,0-.9-.5.64.64,0,0,1-.6,0,.6.6,0,0,0-.4-.1,1.13,1.13,0,0,0-1.1.3c-.1.2-.3.3-.4.4a1,1,0,0,1-.7.2c-.6-.1-1.1-.1-1.7-.2-.1,0-.2-.1-.3-.1a1.27,1.27,0,0,1,.6-.1,3.4,3.4,0,0,1,1,.1.83.83,0,0,0,.8-.2c.5-.4,1-.9,1.6-1.3a.75.75,0,0,1,.5-.1,1.27,1.27,0,0,0,.6.1c.1,0,.2.1.3.2s.2.3.3.4a.77.77,0,0,0,1.1-.1A.82.82,0,0,0,78.3,10c0,.1-.1.1-.1.2a.37.37,0,0,1-.3.1.9.9,0,0,0-.5-.1,1.31,1.31,0,0,0-1,.3l-1.5,1.2a.73.73,0,0,1-.6.2c-.2,0-.4-.1-.6-.1s-.3-.1-.4-.1A1.77,1.77,0,0,0,74,11c.1-.2.2-.4.4-.4a1.16,1.16,0,0,0,.7-.5,1.4,1.4,0,0,0,0-1.4c-.1-.1,0-.2.1-.3a2.7,2.7,0,0,1,.8-.7,1.45,1.45,0,0,1,.7-.2c.6.1.5.1.6.5a1.2,1.2,0,0,0,1.2.9,1.3,1.3,0,0,0,1.2-.8,1.39,1.39,0,0,0-.6-1.7,1.28,1.28,0,0,0-1.7.4c-.1.2-.3.2-.5.2a1.26,1.26,0,0,0-1.3.3c-.3.2-.5.4-.8.6s-.3.2-.5.1a.37.37,0,0,0-.3-.1,1.33,1.33,0,0,0-1.4,1.6,1.6,1.6,0,0,0,.7.9c.3.2.3.3,0,.5h-.1l-1.8,1.5a.84.84,0,0,1-.7.2c-.2,0-.5-.1-.8-.1a.78.78,0,0,0-.8.2c-.1.1-.3.2-.4.3l-1.3,1a.68.68,0,0,0-.4.6c-.1.5-.1,1-.2,1.5a1.27,1.27,0,0,1-.8.8v-.4l.3-2.7a.55.55,0,0,1,.3-.5c.8-.6,1.6-1.3,2.4-1.9a1.2,1.2,0,0,1,.8-.2.8.8,0,0,0,.9-1,.73.73,0,0,0-.9-.6c-.4,0-.6.4-.6.8v.3c0,.1,0,.1-.1.2-.8.7-1.7,1.4-2.5,2a1,1,0,0,0-.6.9,8.75,8.75,0,0,1-.2,1.6c-.1.8-.2,1.5-.3,2.3a.27.27,0,0,1-.3.3c-.4,0-.8.1-1.2.1h-.5v-.2c.1-1,.3-2,.4-3a1.27,1.27,0,0,1,.4-.6,11.32,11.32,0,0,1,1.3-1c.2-.2.4-.3.4-.6.1-.5.2-1.1.3-1.7a1.7,1.7,0,0,1,.6-1c.5-.3,1-.7,1.5-1a1.7,1.7,0,0,1,.7-.1c.3,0,.6.1.9.1a.6.6,0,0,0,.4-.1c.8-.6,1.6-1.1,2.4-1.7.1-.1.3-.3.3-.4s.2-.3.4-.3a1.27,1.27,0,0,0,1-1.3,1.3,1.3,0,0,0-1-1.3,1.49,1.49,0,0,0-1.5.7,1.23,1.23,0,0,0,.3,1.6c0,.1.1.1.2.2s.2.2,0,.4l-2.1,1.5a.75.75,0,0,1-.5.1,2.77,2.77,0,0,1-.9-.1.75.75,0,0,0-.8.1c-.7.5-1.4,1-2,1.5-.1.1-.1.3-.2.4a.76.76,0,0,0-.1.4c-.1.5-.2,1.1-.3,1.7,0,.1-.1.2-.1.3h-.1v-.2c.1-.6.2-1.3.3-1.9.1-.4.1-.7.4-.9.8-.5,1.5-1.1,2.3-1.6a.75.75,0,0,1,.5-.1,2,2,0,0,1,.8.1.84.84,0,0,0,.7-.2l.9-.6a.7.7,0,0,0,.4-.9.72.72,0,0,0-.9-.5.63.63,0,0,0-.6.5.78.78,0,0,0,.2.8l.2.2c-.1.1-.3.2-.4.3a.75.75,0,0,1-.5.1c-.2,0-.3-.1-.5-.1a1.13,1.13,0,0,0-1.1.3c-.1.1-.3.2-.4.3-.6.4-1.2.9-1.8,1.3a.85.85,0,0,0-.3.5c0,.2-.1.5-.1.7l-.3,2.1c-.1.2-.1.3-.3.4V13c.1-1,.3-1.9.4-2.9a1.22,1.22,0,0,1,.6-1l2.3-1.7a.82.82,0,0,1,.7-.1.76.76,0,0,0,1-.6.72.72,0,0,0-.5-.9.78.78,0,0,0-1,.5v.5a.37.37,0,0,1-.1.3c-.9.6-1.9,1.3-2.8,2a.55.55,0,0,0-.3.5c-.1.3-.1.7-.2,1.1s-.1.7-.2,1.1c-.2,0-.2-.1-.3-.2-.2-.3-.2-.3,0-.6a.64.64,0,0,0,0-.6c-.2-.2-.4-.3-.6-.2a.51.51,0,0,0-.4.5c0,.3.1.4.4.5l.3.3a.82.82,0,0,0,.5.5,5.07,5.07,0,0,1-.2,1.3.55.55,0,0,1-.3.5c-.1.1-.2.1-.3.2a1.37,1.37,0,0,0-.5.8c-.2.9-.3,1.7-.4,2.5-.1.3-.1.6-.2.9l-.1.1a2.2,2.2,0,0,1-.8.1c0-.1.1-.1.1-.2.1-.3.3-.6.4-.9V17c-.1-.2,0-.3.1-.4a.78.78,0,0,0,.2-.8.76.76,0,0,0-1-.6.83.83,0,0,0-.6,1,.87.87,0,0,0,.8.6c.3.1.3.1.2.4s-.3.7-.5,1.1a.22.22,0,0,1-.2.2,1.27,1.27,0,0,1-.6.1l-3.3.3H57a19.22,19.22,0,0,1,0-2.4c.2.1.3.2.5.3a1,1,0,0,0,.9.1.62.62,0,0,1,.7.2c.3.4.7.4,1.2.2a1,1,0,0,0-.49-2L60.7,15a.82.82,0,0,0,.5-.5l.3-.9a.78.78,0,0,1,.4-.4,1.47,1.47,0,0,0,.9-1.6,1.37,1.37,0,0,0-.5-.8.37.37,0,0,1-.2-.5.37.37,0,0,0,.1-.3c.1-.3.2-.5.5-.5h.1a.44.44,0,0,1,.5.1.78.78,0,0,0,.8.2.85.85,0,0,0,.7-.7.89.89,0,0,0-.4-1,.77.77,0,0,0-1,.1c-.2.2-.2.4-.3.6s0,.2-.1.2-.2.1-.4.2V9c0-.2.1-.3.1-.5a1.07,1.07,0,0,1,1.1-.9l1.3.3a1.08,1.08,0,0,0,.8-.2.71.71,0,0,1,.42-.23.4.4,0,0,1-.12-.27.4.4,0,1,1,.8,0,.39.39,0,0,1-.13.28A.55.55,0,0,0,67.2,7,.6.6,0,0,0,66,7a.37.37,0,0,1-.1.3,2.09,2.09,0,0,1-.6.4h-.2l-1.5-.3a.66.66,0,0,0-.6.1c-.1.1-.2.1-.3.2A.91.91,0,0,1,63,7c.2-.1.2-.1.4,0,0,.1.1.1.2.2a.9.9,0,0,0,1.1.1c.2,0,.4-.1.6-.1h.1a.55.55,0,0,0,.4-.6.47.47,0,0,0-.5-.5c-.3,0-.6.1-.6.4-.1.1,0,.3,0,.4s.1.2-.1.3a.83.83,0,0,1-1.1-.3l.1-.1c1-.6,1.9-1.1,2.8-1.7a1.27,1.27,0,0,0,.7-.9.22.22,0,0,1,.2-.2c.2-.1.3-.1.4-.2a1.09,1.09,0,0,0,.4-1.3.87.87,0,0,0-1.1-.6,1.09,1.09,0,0,0-.8.8,1,1,0,0,0,.4,1.1.37.37,0,0,1,.1.3.66.66,0,0,1-.4.5c-1.2.7-2.3,1.4-3.5,2.1a1,1,0,0,0-.4.5c0,.1-.1.2-.1.3s-.1.1-.1,0a1,1,0,0,1-.4-.7c0-.2.1-.5.1-.7a.68.68,0,0,1,.4-.6,14.8,14.8,0,0,0,1.3-.8.45.45,0,0,1,.5,0h.1c.3.1.5-.1.7-.3a.61.61,0,0,0,0-.8.52.52,0,0,0-.7-.3.68.68,0,0,0-.6.9c0,.1,0,.1-.1.2-.4.2-.8.5-1.2.7a1.48,1.48,0,0,0-.8,1.1,1.09,1.09,0,0,0,.2,1.1l.3.6a.92.92,0,0,1-.2,1c-.2-.1-.3-.3-1,.2-.3-.4-.6-.9-.9-1.4a.62.62,0,0,1-.2-.7c.2-.8.4-1.7.6-2.5.1-.2.2-.4.4-.4.4,0,.5-.3.6-.6a.84.84,0,0,0-.08-.33.42.42,0,0,1-.12,0,.47.47,0,0,1-.5-.5v0a.83.83,0,0,0-.8.32.64.64,0,0,0,.1.9.66.66,0,0,1,.2.7c-.2.8-.4,1.7-.6,2.5a.78.78,0,0,0,.1.8c.4.7.9,1.4,1.3,2.1a1.13,1.13,0,0,1,.1.8v.1c0,.4-.1.5-.5.6a1.61,1.61,0,0,0-.7.4,1.4,1.4,0,0,0,.1,1.9,1.42,1.42,0,0,1,.2.6v.2a.81.81,0,0,1-.34.69H59.7l-.21.09.25-.08a.93.93,0,0,1-.39.17A.9.9,0,0,0,59,16c-.1.1-.1.3-.2.3a.66.66,0,0,1-.6.1c-.2-.1-.49-.29-.69-.39l-.91.29c-.3.1-.3.1-.3-.2v-1.3a.52.52,0,0,1,.2-.4c.7-.4,1.3-.7,1.9-1.1.2-.2.4-.3.4-.5a8.33,8.33,0,0,0,.4-1.5c0-.3.1-.4.4-.5a.89.89,0,0,0,.5-.8,1,1,0,0,0-.7-.7.74.74,0,0,0-.8.4.8.8,0,0,0,.2.9c.1.1.1.2.1.4a7.37,7.37,0,0,0-.4,1.4.54.54,0,0,1-.3.4,14,14,0,0,1-1.6,1,.35.35,0,0,1-.2.1v-2.4a.6.6,0,0,1,.1-.4c.4-.7.8-1.3,1.2-2a1.61,1.61,0,0,0,.3-.9V3.45a.6.6,0,0,1,.3-.6A.87.87,0,0,0,58.68,2a.61.61,0,0,1-.48.28c-.3,0-.5-.3-.6-.6a.54.54,0,0,1,.33-.53,1,1,0,0,0-.83.13A1,1,0,0,0,57.4,3c.2,0,.2.1.2.2v2.7c-.2-.2-.3-.4-.5-.5s-.2-.3-.1-.6a.72.72,0,0,0,0-.67.63.63,0,0,1-.59.57.65.65,0,0,1-.6-.6.65.65,0,0,1,.38-.54,1.46,1.46,0,0,0-.68.14,1,1,0,0,0-.4,1.1.93.93,0,0,0,1.3.6c.2,0,.2,0,.3.1l.9.9a.4.4,0,0,1,.2.4v1.4a.6.6,0,0,1-.1.4c-.5.8-1.1,1.6-1.6,2.4l-.2.2-.7-.7a1.42,1.42,0,0,1-.2-.6V7.75a.75.75,0,0,1,.4-.7.78.78,0,0,0,.2-1l0,0a.46.46,0,0,1-.47.34.47.47,0,0,1-.5-.5.44.44,0,0,1,.09-.23l-.09,0c-.3.2-.5.4-.5.7a.75.75,0,0,0,.4.7.52.52,0,0,1,.2.4v2.3l-.2-.2a11.41,11.41,0,0,0-1.1-1.1.91.91,0,0,1-.3-.7V3.45a.55.55,0,0,1,.3-.5,1.15,1.15,0,0,0,.5-1.2,1.06,1.06,0,0,0-1.2-1,1.11,1.11,0,0,0-1.1,1.1A1.15,1.15,0,0,0,52.2,3c.2.1.3.2.3.4v3.2a.35.35,0,0,0-.1-.2c-.4-.6-.7-1.2-1.1-1.7-.1-.2-.1-.3,0-.4a.8.8,0,0,0-.3-1.1.83.83,0,0,0-1.1.3.75.75,0,0,0,0,.9.67.67,0,0,0,.7.4A.4.4,0,0,1,51,5c.5.7.9,1.4,1.4,2.1a1.14,1.14,0,0,1,.3.8.91.91,0,0,0,.3.7l2.6,2.6a1.09,1.09,0,0,1,.4.9v6.1c-.1-.1-.2-.1-.3-.2a6,6,0,0,0-.8-.8.71.71,0,0,1-.3-.6v-2.4a1.08,1.08,0,0,1,.2-.8,1.68,1.68,0,0,0,.1-1.8,1.64,1.64,0,0,0-1.5-1A1.81,1.81,0,0,0,51.7,12a1.65,1.65,0,0,0,1,2,2.35,2.35,0,0,0,.8.2c.2,0,.2.1.2.2v2a.1.1,0,0,0-.1-.1c-.8-.5-1.5-.9-2.3-1.4a.52.52,0,0,1-.2-.4V12c0-.4,0-.4.4-.6a1.08,1.08,0,0,0,.8-1.1,1.22,1.22,0,0,0-.7-1.4c-.1,0-.2-.1-.3-.1s-.1-.1-.1-.2v-.2a1.28,1.28,0,0,0-.4-1l-2.9-2.9c-.1-.1-.2-.3-.3-.4s0-.3.1-.4.2-.1.3-.2a1.49,1.49,0,0,0,.4-.9,1.08,1.08,0,0,0-.8-1,1.14,1.14,0,0,0-1.2.6.93.93,0,0,0,.4,1.2.55.55,0,0,1,.3.5.37.37,0,0,0,.1.3c0,.1.1.2.2.3l3,3a1.14,1.14,0,0,1,.3.8c0,.1-.1.2-.2.3a1.79,1.79,0,0,0-.7.5c-.1.1-.1.1-.2,0a6,6,0,0,1-.8-.8,1,1,0,0,0-1-.4c-.1.1-.2,0-.2-.1a1.42,1.42,0,0,0-.2-.6c-.1-.2-.1-.3.1-.5a.84.84,0,0,0-.4-1.4.86.86,0,0,0-1.1.6A.8.8,0,0,0,46.6,7c.4,0,.7.5.7.9a.78.78,0,0,1-.8-.2l-1-1a1.22,1.22,0,0,1-.4-.9V4a.91.91,0,0,0-.3-.7,6,6,0,0,0-.8-.8.78.78,0,0,1-.2-.8.85.85,0,0,0,0-.7,1.3,1.3,0,0,0-1.7-.9A1.4,1.4,0,0,0,41.3,2a1.43,1.43,0,0,0,1.7.7.6.6,0,0,1,.4.1l.9.9a.76.76,0,0,1,.2.5c0,.3,0,.3-.3.3H42a1.21,1.21,0,0,0,.64.2h2.3c.1,0,.2,0,.2.2v1.3a.73.73,0,0,0,.2.6l1.5,1.5a.76.76,0,0,0,.5.2h1a.86.86,0,0,1,.6.3l.9.9c.1.2.3.4.3.6a1.27,1.27,0,0,0,.7.9.52.52,0,0,1,.2.4v1.7l-.3-.3c-.1-.1-.1-.2-.1-.4a.6.6,0,0,0,.1-.4c-.1-.5-.4-.9-.9-.9a1,1,0,0,0-.9.7.9.9,0,0,0,.7,1h.5a.37.37,0,0,1,.3.1l.5.5c0,.1.1.2.1.3v.7a.75.75,0,0,0,.4.7c.3.2.5.3.8.5l.2.2a.37.37,0,0,1-.3.1c-.3.1-.4,0-.6-.2a.92.92,0,0,0-1-.2.72.72,0,0,0-.57.61.63.63,0,0,1,.47-.21.5.5,0,0,1,0,1,.51.51,0,0,1-.4-.17,1.07,1.07,0,0,0,.4.47.86.86,0,0,0,1.3-.5.27.27,0,0,1,.3-.3,1.27,1.27,0,0,0,.6-.1.6.6,0,0,1,.4.1c.2.1.4.3.6.4a4.7,4.7,0,0,1,1.2.9,4.62,4.62,0,0,0,.7.7.6.6,0,0,1,.3.6v23.6h2.4V21.45c0-.1,0-.2.2-.2a28.25,28.25,0,0,0,2.9-.2c1,0,2.1-.1,3.1-.2A1.78,1.78,0,0,0,65.4,20.45Zm10-6.4a.65.65,0,0,1,.6.6c.1.3-.2.6-.6.6a.6.6,0,0,1,0-1.2Zm2.4-2.2a.47.47,0,0,1,.5.5.54.54,0,0,1-.5.5.5.5,0,0,1,0-1Zm.9-1.9a.47.47,0,0,1,.5.5.54.54,0,0,1-.5.5.5.5,0,0,1,0-1Zm-.3-3.3a.88.88,0,0,1,.9.8.9.9,0,0,1-.9.9.88.88,0,0,1-.8-.9A.79.79,0,0,1,78.4,6.65Zm-5.5,2.6a.86.86,0,0,1,.8-.8.82.82,0,0,1,.9.8.88.88,0,0,1-.8.9A.9.9,0,0,1,72.9,9.25Zm-.8-3.9a.91.91,0,0,1,1.8,0,.9.9,0,0,1-1.8,0Zm-3.6,1.1A.5.5,0,1,1,69,7C68.7,7,68.4,6.65,68.5,6.45Zm-4.2,4.3a.45.45,0,0,1-.4.3c-.2,0-.3-.2-.3-.4s.2-.3.4-.3S64.4,10.45,64.3,10.75Zm-2.4,5.8a.6.6,0,0,1,0-1.2.58.58,0,0,1,.6.6A.53.53,0,0,1,61.9,16.55Zm2-8a.56.56,0,0,1,.6.5.56.56,0,0,1-.6.5.54.54,0,0,1-.5-.5A.47.47,0,0,1,63.9,8.55Zm2.5-5.7a.7.7,0,0,1,1.4,0,.7.7,0,1,1-1.4,0Zm-2.2.6a.47.47,0,0,1,.5.5.5.5,0,1,1-1,0A.47.47,0,0,1,64.2,3.45Zm-2.7,7.7a.79.79,0,0,1,.8.8.86.86,0,0,1-.8.8.79.79,0,0,1-.8-.8A.74.74,0,0,1,61.5,11.15Zm-1.7,4.6a.65.65,0,0,1,.6.6.53.53,0,0,1-.6.6.6.6,0,1,1,0-1.2ZM50.7,4.25a.47.47,0,0,1-.5-.5.5.5,0,0,1,1,0A.47.47,0,0,1,50.7,4.25Zm2.3-2a.65.65,0,0,1-.6-.6.58.58,0,0,1,.6-.6c.3,0,.5.3.6.6A.65.65,0,0,1,53,2.25Zm-6.4.3a.86.86,0,0,1,.8-.7.68.68,0,0,1,.7.7.68.68,0,0,1-.7.7A.71.71,0,0,1,46.6,2.55Zm-4.1-.5a.79.79,0,0,1-.8-.8.82.82,0,0,1,.8-.9.86.86,0,0,1,.8.8A.82.82,0,0,1,42.5,2.05Zm4.3,4.7a.63.63,0,0,1-.5-.6.47.47,0,0,1,.6-.5.63.63,0,0,1,.5.6A.63.63,0,0,1,46.8,6.75ZM50.2,10a.86.86,0,0,1,.8-.8.74.74,0,0,1,.8.8.79.79,0,0,1-.8.8A.74.74,0,0,1,50.2,10Zm3.4,3.2a.9.9,0,1,1,0-1.8,1.06,1.06,0,0,1,.9.9A.9.9,0,0,1,53.6,13.15Z"/>
    <path class="a" d="M49.93,16.26a.41.41,0,0,0-.13.29.68.68,0,0,0,.2.33,1,1,0,0,1-.1-.43A.58.58,0,0,1,49.93,16.26Z"/>
    <path class="a" d="M58.68,2a.58.58,0,0,0,.12-.32.65.65,0,0,0-.6-.6.64.64,0,0,0-.27.07,1,1,0,0,1,.57.33A1,1,0,0,1,58.68,2Z"/>
    <path class="a" d="M40.6,3.15c-.2-.2-.3-.3-.2-.6a.25.25,0,0,0,0-.17c-.34.09-.32.15-.25.37s.1.3.2.4a11.41,11.41,0,0,0,1.1,1.1.76.76,0,0,0,.5.2H42a.54.54,0,0,1-.16-.1Z"/>
    <path class="a" d="M41,2.15a.61.61,0,0,0-.8-.9s-.06.06-.09.08a.42.42,0,0,1,.19.32A.36.36,0,0,1,40,2a.93.93,0,0,0,.19.21l.15.13.55-.13A.1.1,0,0,1,41,2.15Z"/>
    <path class="a" d="M40.11,1.33a.42.42,0,0,0-.21-.08.37.37,0,0,0-.4.4c.1.3.2.4.4.4H40A.52.52,0,0,1,40.11,1.33Z"/>
    <path class="a" d="M59.35,15.43l.14-.09-1.08.35c.29-.08.59-.17.89-.24Z"/>
    <path class="a" d="M61.22,3.12a.55.55,0,0,0,.38-.47.47.47,0,0,0-.5-.5.48.48,0,0,0-.5.48l.2,0A.76.76,0,0,1,61.22,3.12Z"/>
    <path class="a" d="M57.5,16h0Z"/>
  </g>
</svg>
