<svg xmlns="http://www.w3.org/2000/svg" viewBox="0 0 72.6 54.4">
  <defs>
    <style>
      .a {
        fill: #8f8f8f;
      }

      .b {
        fill: none;
      }

      .c {
        fill: #a6a6a6;
      }

      .d {
        fill: #979797;
      }

      .e {
        fill: #c1c1c1;
      }

      .f {
        fill: #bababa;
      }

      .g {
        fill: #ebebeb;
      }

      .h {
        fill: #d5d5d5;
      }

      .i {
        fill: #c5c5c5;
      }

      .j {
        fill: #d7d7d7;
      }

      .k {
        fill: #b6b6b6;
      }

      .l {
        fill: #e6e6e6;
      }

      .m {
        fill: #cecece;
      }

      .n {
        fill: #cfcfcf;
      }

      .o {
        fill: #d1d1d1;
      }

      .p {
        fill: #c9c9c9;
      }

      .q {
        fill: #ccc;
      }

      .r {
        fill: #c7c7c7;
      }

      .s {
        fill: #acacac;
      }

      .t {
        fill: #c6c6c6;
      }

      .u {
        fill: #cacaca;
      }

      .v {
        fill: #b1b1b1;
      }

      .w {
        fill: #a8a8a8;
      }

      .x {
        fill: #b5b5b5;
      }

      .y {
        fill: #fff;
      }
    </style>
  </defs>
  <title>logo-pro-13</title>
  <g>
    <path class="a" d="M72.4,2.3V1h-.2c-.1,0-.1,0-.2-.1s-.1-.1-.2-.1-.1-.1-.2-.1L71.5.6c0-.1-.1-.1-.1-.2s0-.1-.1-.2V0H70.2a1.11,1.11,0,0,1-1.1,1.1A1.11,1.11,0,0,1,68,0H66.9a1.11,1.11,0,0,1-1.1,1.1A1.11,1.11,0,0,1,64.7,0H63.6a1.11,1.11,0,0,1-1.1,1.1A1.11,1.11,0,0,1,61.4,0H60.3a1.11,1.11,0,0,1-1.1,1.1A1.11,1.11,0,0,1,58.1,0H57a1.11,1.11,0,0,1-1.1,1.1A1.11,1.11,0,0,1,54.8,0H53.7a1.11,1.11,0,0,1-1.1,1.1A1.11,1.11,0,0,1,51.5,0h-1a1.11,1.11,0,0,1-1.1,1.1A1.11,1.11,0,0,1,48.3,0H47.2a1.11,1.11,0,0,1-1.1,1.1A1.11,1.11,0,0,1,45,0H43.9a1.11,1.11,0,0,1-1.1,1.1A1.11,1.11,0,0,1,41.7,0H40.6a1.11,1.11,0,0,1-1.1,1.1A1.11,1.11,0,0,1,38.4,0H37.3a1.11,1.11,0,0,1-1.1,1.1A1.11,1.11,0,0,1,35.1,0H34a1.11,1.11,0,0,1-1.1,1.1A1.11,1.11,0,0,1,31.8,0H30.7a1.11,1.11,0,0,1-1.1,1.1A1.11,1.11,0,0,1,28.5,0h-1a1.11,1.11,0,0,1-1.1,1.1A1.11,1.11,0,0,1,25.3,0H24.2a1.11,1.11,0,0,1-1.1,1.1A1.11,1.11,0,0,1,22,0H20.9a1.11,1.11,0,0,1-1.1,1.1A1.11,1.11,0,0,1,18.7,0H17.6a1.11,1.11,0,0,1-1.1,1.1A1.11,1.11,0,0,1,15.4,0H14.3a1.11,1.11,0,0,1-1.1,1.1A1.11,1.11,0,0,1,12.1,0H11A1.11,1.11,0,0,1,9.9,1.1,1.11,1.11,0,0,1,8.8,0H7.7A1.11,1.11,0,0,1,6.6,1.1,1.11,1.11,0,0,1,5.5,0H4.4A1.11,1.11,0,0,1,3.3,1.1,1.11,1.11,0,0,1,2.2,0H1.1A1.14,1.14,0,0,1,.8.8C.7.8.7.9.6.9S.5,1,.4,1s-.1,0-.2.1H0V2.3H0A1.11,1.11,0,0,1,1.1,3.4,1.11,1.11,0,0,1,0,4.5H0V5.7H0A1.11,1.11,0,0,1,1.1,6.8,1.11,1.11,0,0,1,0,7.9H0V9.1H0a1.11,1.11,0,0,1,1.1,1.1A1.11,1.11,0,0,1,0,11.3H0v1.2H0a1.11,1.11,0,0,1,1.1,1.1A1.11,1.11,0,0,1,0,14.7H0v1.2H0A1.11,1.11,0,0,1,1.1,17,1.11,1.11,0,0,1,0,18.1H0v1.2H0a1.11,1.11,0,0,1,1.1,1.1A1.11,1.11,0,0,1,0,21.5H0v1.2H0a1.11,1.11,0,0,1,1.1,1.1A1.11,1.11,0,0,1,0,24.9H0v1.2H0a1.11,1.11,0,0,1,1.1,1.1A1.11,1.11,0,0,1,0,28.3H0v1.2H0a1.11,1.11,0,0,1,1.1,1.1A1.11,1.11,0,0,1,0,31.7H0v1.2H0A1.11,1.11,0,0,1,1.1,34,1.11,1.11,0,0,1,0,35.1H0v1.2H0a1.11,1.11,0,0,1,1.1,1.1A1.11,1.11,0,0,1,0,38.5H0v1.2H0a1.11,1.11,0,0,1,1.1,1.1A1.11,1.11,0,0,1,0,41.9H0v1.2H0a1.11,1.11,0,0,1,1.1,1.1A1.11,1.11,0,0,1,0,45.3H0v1.2H0a1.11,1.11,0,0,1,1.1,1.1A1.11,1.11,0,0,1,0,48.7H0v1.2H0A1.11,1.11,0,0,1,1.1,51,1.11,1.11,0,0,1,0,52.1H0v1.2H0a1.14,1.14,0,0,1,.8.3c.1,0,.1.1.1.2s.1.1.1.2,0,.1.1.2v.2H2.2a1.1,1.1,0,1,1,2.2,0H5.5a1.1,1.1,0,1,1,2.2,0H8.8a1.1,1.1,0,1,1,2.2,0h1.1a1.1,1.1,0,0,1,2.2,0h1.1a1.1,1.1,0,0,1,2.2,0h1.1a1.1,1.1,0,1,1,2.2,0H22a1.1,1.1,0,1,1,2.2,0h1.1a1.1,1.1,0,1,1,2.2,0h1.1a1.1,1.1,0,1,1,2.2,0h1.1a1.1,1.1,0,1,1,2.2,0h1.1a1.1,1.1,0,1,1,2.2,0h1.1a1.1,1.1,0,0,1,2.2,0h1.1a1.1,1.1,0,0,1,2.2,0h1.1a1.1,1.1,0,1,1,2.2,0h1.1a1.1,1.1,0,1,1,2.2,0h1.1a1.1,1.1,0,1,1,2.2,0H55a1.1,1.1,0,0,1,2.2,0h1.1a1.1,1.1,0,0,1,2.2,0h1.1a1.1,1.1,0,1,1,2.2,0h1.1a1.1,1.1,0,1,1,2.2,0h1.1a1.1,1.1,0,0,1,2.2,0h1.1v-.2c0-.1,0-.1.1-.2s.1-.1.1-.2.1-.1.1-.2a1.14,1.14,0,0,1,.8-.3V52.1a1.1,1.1,0,1,1,0-2.2V48.7a1.1,1.1,0,1,1,0-2.2V45.3a1.1,1.1,0,0,1,0-2.2V41.9a1.1,1.1,0,1,1,0-2.2V38.5a1.1,1.1,0,1,1,0-2.2V35.1a1.1,1.1,0,1,1,0-2.2V31.7a1.1,1.1,0,1,1,0-2.2V28.3a1.1,1.1,0,1,1,0-2.2V24.9a1.1,1.1,0,1,1,0-2.2V21.5a1.1,1.1,0,1,1,0-2.2V18.1a1.1,1.1,0,1,1,0-2.2V14.7a1.1,1.1,0,1,1,0-2.2V11.3a1.1,1.1,0,1,1,0-2.2V7.8a1.1,1.1,0,1,1,0-2.2V4.4a1.11,1.11,0,0,1-1.1-1.1C71.3,2.8,71.8,2.3,72.4,2.3Z"/>
    <g>
      <polygon class="b" points="64.2 48.9 64.2 48.9 57.2 19.8 64.2 48.9"/>
      <polygon class="c" points="5.7 13.6 5.7 25.9 57.2 19.8 5.7 13.6"/>
      <polygon class="d" points="17.9 5.5 5.7 5.5 5.7 13.6 57.2 19.8 17.9 5.5"/>
      <polygon class="e" points="35.5 5.5 17.9 5.5 57.2 19.8 35.5 5.5"/>
      <polygon class="f" points="49.1 5.5 35.5 5.5 57.2 19.8 49.1 5.5"/>
      <polygon class="g" points="55.5 5.5 49.1 5.5 57.2 19.8 55.5 5.5"/>
      <polygon class="h" points="58.7 5.5 55.5 5.5 57.2 19.8 58.7 5.5"/>
      <polygon class="i" points="63.2 5.5 58.7 5.5 57.2 19.8 63.2 5.5"/>
      <polygon class="j" points="66.9 8 66.9 5.5 63.2 5.5 57.2 19.8 66.9 8"/>
      <polygon class="k" points="66.9 12.4 66.9 8 57.2 19.8 66.9 12.4"/>
      <polygon class="h" points="66.9 16.5 66.9 12.4 57.2 19.8 66.9 16.5"/>
      <polygon class="l" points="66.9 19 66.9 16.5 57.2 19.8 66.9 19"/>
      <polygon class="m" points="57.2 19.8 66.9 21 66.9 19 57.2 19.8"/>
      <polygon class="n" points="66.9 23.1 66.9 21 57.2 19.8 66.9 23.1"/>
      <polygon class="o" points="66.9 25.2 66.9 23.1 57.2 19.8 66.9 25.2"/>
      <polygon class="p" points="66.9 27.4 66.9 25.2 57.2 19.8 66.9 27.4"/>
      <polygon class="q" points="66.9 31.1 66.9 27.4 57.2 19.8 66.9 31.1"/>
      <polygon class="h" points="66.9 35.9 66.9 31.1 57.2 19.8 66.9 35.9"/>
      <polygon class="r" points="64.2 48.9 66.9 48.9 66.9 35.9 57.2 19.8 64.2 48.9"/>
      <polygon class="s" points="55.2 48.9 64.2 48.9 57.2 19.8 55.2 48.9"/>
      <polygon class="q" points="52.4 48.9 55.2 48.9 57.2 19.8 52.4 48.9"/>
      <polygon class="t" points="45.6 48.9 52.4 48.9 57.2 19.8 45.6 48.9"/>
      <polygon class="u" points="38.2 48.9 45.6 48.9 57.2 19.8 38.2 48.9"/>
      <polygon class="v" points="32.2 48.9 38.2 48.9 57.2 19.8 32.2 48.9"/>
      <polygon class="v" points="9.7 48.9 32.2 48.9 57.2 19.8 9.7 48.9"/>
      <polygon class="w" points="5.7 40.9 5.7 48.9 9.7 48.9 57.2 19.8 5.7 40.9"/>
      <polygon class="x" points="5.7 25.9 5.7 40.9 57.2 19.8 5.7 25.9"/>
    </g>
    <circle class="c" cx="58.1" cy="20" r="5.8"/>
    <g>
      <g>
        <path class="y" d="M21.5,38.9h1.2v4.7H20.3V41.2H11v2.4H8.6V38.9H9.8l4.8-10.6h2.1Zm-2.7,0-3.2-7.2-3.1,7.2Z"/>
        <path class="y" d="M28.7,28.3h1.9l5.3,12.8H33.3L32,37.8H27.3L26,41.1H23.4Zm2.4,7.3-1.5-3.7-1.5,3.7Z"/>
        <path class="y" d="M37.2,28.3h3.6c4.1,0,4.6,2.8,4.6,4,0,1.6-.9,4-4.6,4H39.6v4.9H37.2ZM39.6,34H41c.6,0,2-.1,2-1.7s-1.4-1.7-2-1.7H39.6Z"/>
        <path class="y" d="M51.3,33.5a6.5,6.5,0,0,1,6.5-5.3,6.7,6.7,0,1,1-6.6,7.7H49.1v5.3H46.7V28.3h2.4v5.1h2.2Zm10.8,1.3a4.3,4.3,0,1,0-4.3,4.4A4.29,4.29,0,0,0,62.1,34.8Z"/>
      </g>
      <g>
        <path class="y" d="M16.2,13.3v2.3H11v2.7h2.1c4.2,0,4.3,3.4,4.3,4a4,4,0,0,1-4.3,4H8.5v-13ZM10.9,24H13a1.69,1.69,0,0,0,1.9-1.7A1.72,1.72,0,0,0,13,20.6H10.9Z"/>
        <path class="y" d="M30.1,26.4H27.4l-3.6-9.7-3.6,9.7H17.5l5.3-13.1h2.1Z"/>
        <path class="y" d="M36.1,13.3H38l5.5,13.1H40.8L39.5,23H34.7l-1.3,3.4H30.7Zm2.5,7.4-1.5-3.8-1.5,3.8Z"/>
        <path class="y" d="M44.6,13.3h6.5v2.3H47V26.3H44.6Z"/>
        <path class="y" d="M65,19.9a6.9,6.9,0,1,1-6.9-6.8A6.77,6.77,0,0,1,65,19.9Zm-2.4,0A4.5,4.5,0,1,0,58,24.4,4.57,4.57,0,0,0,62.6,19.9Z"/>
      </g>
      <path class="y" d="M67.3,49.3H5.3V5.1h62ZM6.1,48.4H66.5V6H6.1Z"/>
    </g>
  </g>
</svg>
