<svg xmlns="http://www.w3.org/2000/svg" viewBox="0 0 106.7 16.2">
  <defs>
    <style>
      .a {
        fill: #fff;
      }
    </style>
  </defs>
  <title>logo-pro-4</title>
  <g>
    <polygon class="a" points="41.1 7.9 44.8 7.9 44.8 7.2 41.1 7.2 41.1 1.2 47.1 1.2 47.1 0.5 40.3 0.5 40.3 16 47.8 16 47.8 15.2 41.1 15.2 41.1 7.9"/>
    <polygon class="a" points="57.2 7.1 50.7 7.1 50.7 0.4 49.8 0.4 49.8 15.9 50.7 15.9 50.7 7.9 57.2 7.9 57.2 15.9 58.1 15.9 58.1 0.4 57.2 0.4 57.2 7.1"/>
    <path class="a" d="M91.5.5H88.6V15.9h.9v-8h2c2.5,0,4.4-1.3,4.4-3.8S94,.5,91.5.5Zm-.3,6.6H89.5v-6h1.7c2.2,0,3.9.7,3.9,2.9S93.4,7.1,91.2,7.1Z"/>
    <polygon class="a" points="34.4 0.3 25.6 14.9 2.1 0.3 1.5 0.3 0 15.9 0.9 15.9 2.3 1.4 25.5 15.9 26 15.9 34.2 2.1 35.6 15.9 36.5 15.9 35 0.3 34.4 0.3"/>
    <polygon class="a" points="105.7 0.3 99.4 14.2 99.4 0.4 98.5 0.4 98.5 15.9 99.5 15.9 105.8 2 105.8 15.9 106.7 15.9 106.7 0.3 105.7 0.3"/>
    <path class="a" d="M77.2,0a8,8,0,0,0-8.1,8.1,8.1,8.1,0,1,0,16.2,0A8,8,0,0,0,77.2,0Zm0,15.4A7.13,7.13,0,0,1,70,8.1a7.2,7.2,0,1,1,14.4,0A7.13,7.13,0,0,1,77.2,15.4Z"/>
    <polygon class="a" points="60.4 1.1 64 1.1 64 15.9 64.9 15.9 64.9 1.1 68.5 1.1 68.5 0.4 60.4 0.4 60.4 1.1"/>
  </g>
</svg>
