<svg xmlns="http://www.w3.org/2000/svg" viewBox="0 0 98.6 32.54">
  <defs>
    <style>
      .a {
        fill: #fff;
      }
    </style>
  </defs>
  <title>logo-pro-5</title>
  <g>
    <path class="a" d="M37.4,10.9a5.08,5.08,0,0,0-2.9.6v2.6a4.79,4.79,0,0,1,2.6-.9,2.67,2.67,0,0,1,2.6,2H36.3v2h3.5a2.35,2.35,0,0,1-2.6,2.3,4.19,4.19,0,0,1-2.8-1.1l.1.1v2.8a7.68,7.68,0,0,0,2.9.6c2.6,0,5.2-1.9,5.2-5.7A5.19,5.19,0,0,0,37.4,10.9Z"/>
    <path class="a" d="M49.9,11l-3.1,4.3V11H43.9s0,10.4-.1,10.4h2.9V16.9l2.9,4.5h3.7l-4-5.3,4-5.1Z"/>
    <path class="a" d="M60.7,16a2.37,2.37,0,0,0,1.7-2.2c0-.8-.2-2.8-3.1-2.8h-5V21.7h5.2c2.5,0,3.4-1.4,3.4-2.9A2.77,2.77,0,0,0,60.7,16Zm-3.5-2.9h1.2c1,0,1.4.5,1.4,1.1,0,.3-.3.9-1.4.9H57.2Zm1.3,6.2H57.1V17.1h1.4c.4,0,1.5,0,1.5,1.1S58.9,19.3,58.5,19.3Z"/>
    <polygon class="a" points="74 21.5 74 11 71.1 11 67.1 17.3 67.1 11 64.2 11 64.2 21.5 67.1 21.5 71.1 15.2 71.1 21.5 74 21.5"/>
    <path class="a" d="M82.1,11l-1.7,4.3-2-4.3s-3.5,0-3.5-.1l4,7.5-1.4,2.9h3.1L85.2,11Z"/>
    <polygon class="a" points="96.1 11 93.2 11 91.5 17.4 89.8 11 86.9 11 84.9 21.5 87.8 21.5 88.6 15.5 90.3 21.5 92.2 21.5 93.9 15.5 94.7 21.5 97.6 21.5 96.1 11"/>
    <path class="a" d="M10.8,28.1l1.7-1.7a.71.71,0,0,0,.3-.6V23c0-.3-.1-.3-.4-.3H11c-.3,0-.5,0-.6-.3-.1-.5-.3-.7-.4-1.1-.2-.2,0-.3.1-.3.8-.1,1.6-.3,2.2-.4.4-.2.4-.2.4-.6V15.5c0-.4,0-.4-.4-.4H10.9c-.1,0-.1-.2-.1-.3v-.3c.1-1.2.3-2.5.4-3.7.2-.5,0-.6-.4-.6-1-.1-2.1-.3-3.2-.4a7.57,7.57,0,0,1-1.5-.1c-.1,0-.1,0-.1-.3a5.64,5.64,0,0,1,.4-1.2A6.61,6.61,0,0,1,9,5.1,9.29,9.29,0,0,1,14.6,4a5.58,5.58,0,0,1,2.3.6q.45.15.6,0a15.81,15.81,0,0,1,2.9-2.2c.2,0,.2-.1.3-.1.1-.2.1-.2,0-.3s-.2-.1-.3-.1a6.72,6.72,0,0,0-1.2-.6A21.09,21.09,0,0,0,14.9.1,28.1,28.1,0,0,0,12,0,16.64,16.64,0,0,0,5.7,2c-.2.2-.3.2-.3.3s.1.2,0,.3c.46.29.95.61,1.44.95A5.51,5.51,0,0,0,4.5,2.7a4.88,4.88,0,0,0-1.7-.1c-.5.2-.6.2-.6.6a12.75,12.75,0,0,0,.1,1.9A4.59,4.59,0,0,0,3.4,7.3c0,.3.3.4.6.3s.5-.1.8-.1h.1v.1c-.1,0-.3.2-.4.3a9.57,9.57,0,0,0-4.2,6A9.08,9.08,0,0,0,0,16.2c0,.8.1,1.7,0,1.6.2.2.2,0,.3-.1l.1-.1a12.44,12.44,0,0,1,3.2-2.3c.2,0,.3-.1.6-.1a.42.42,0,0,1-.4.4A15.11,15.11,0,0,0,.7,20.1a2,2,0,0,0,0,1.1c.6,1.4,1.4,2.9,2.4,4.8.2.2.3.5.6.8a.1.1,0,0,0,.1.1c.1,0,.1.1.1-.1v-.3c0-.9.1-1.7.1-2.9A13.44,13.44,0,0,1,6,18l.3-.3c.1.1,0,.3,0,.4a27,27,0,0,0-.4,2.8,15.86,15.86,0,0,0,.3,4.3,10.53,10.53,0,0,0,2.3,4.6c.3.3.3.3.6,0ZM5,6.2c-.7.3-.7.3-1.1-.3a3.88,3.88,0,0,1-.6-1.1c-.1-.3,0-.3.3-.3a11.5,11.5,0,0,1,1.7.6c.2.1.5.2.6.1.6-.2,1-.5,1.4-.6a.3.3,0,0,0,0-.4l.09-.26.51.36c.5.4.7.5-.1.8C6.7,5.6,5.9,5.8,5,6.2ZM8.2,14c-.6-.5-1.4-1.1-2-1.7-.1-.1-.1-.1,0-.4A6.47,6.47,0,0,1,7,11c.1,0,.3-.1.4,0a21.82,21.82,0,0,1,2.2,1.2c.2,0,.3.1.3.4v1.2a2,2,0,0,1-.4,1.4l-.1-.1A12,12,0,0,0,8.2,14Zm1.5,5.3a13,13,0,0,0-.8-1.7.3.3,0,0,1,0-.4A12,12,0,0,0,10,16a.3.3,0,0,1,.4,0c.5.6,1.1.9,1.7,1.5a1.49,1.49,0,0,1,.1.6c.1.3,0,.4-.2.4-.6.3-1.1.6-1.7.9S9.8,19.6,9.7,19.3Z"/>
    <path class="a" d="M17.7,28.7a28.11,28.11,0,0,0,4-5.1,19.39,19.39,0,0,0,2-5.4,5.08,5.08,0,0,0,.3-1.7c0-.1,0-.1-.2-.3,0-.1.1-.4,0-.4s-.3.2-.4.3l-12,12L9.7,29.8c-.3.3-.3.3,0,.6a8.47,8.47,0,0,0,1.9,1.4H12a17.72,17.72,0,0,0,1.7-.6A20.65,20.65,0,0,0,17.7,28.7Z"/>
    <path class="a" d="M24.1,14v-.3a7.17,7.17,0,0,0-.6-2.9,13,13,0,0,0-.8-1.7c-.2-.3-.3-.3-.6-.3l-.25,0a.26.26,0,0,1-.05-.12,10.4,10.4,0,0,0-2.9-2.6c-.2,0-.2-.1-.3-.1s-.2-.1-.3,0a17.41,17.41,0,0,0-1.4,1.2.3.3,0,0,0,0,.4l1.69,1.69c-.55.09-1.1.17-1.69.21a10.1,10.1,0,0,1-1.7.3c-.3,0-.3.1-.3.4s.1.8.1,1.2a20.61,20.61,0,0,0,.3,2.6c.1.4.1.4-.3.4H13.8a.27.27,0,0,0-.3.3v5.1c0,.1,0,.3.3.3s.2.1.3.1c.6.1,1.4.3,2,.4a.19.19,0,0,1,.1.3c-.1.5-.3.7-.4,1.1,0,.2-.1.3-.4.3H14c-.3,0-.3,0-.3.3V25c0,.1,0,.2.1.1l.1-.1,9.4-9.4.1-.1a.1.1,0,0,0,.1-.1H20.2a28.1,28.1,0,0,1-2.9-.1c-.6,0-.6,0-.6-.6V12.4c0-.3.2-.5.3-1.1.8-.5,1.7-1,2.5-1.4.3-.2.3-.2.6.1l1.7,1.7L24,13.9C24,14,24,14,24.1,14Zm-7.3,2.3.9,1.2s.1.2,0,.3c-.3.5-.6,1.1-.9,1.7,0,.2-.2.1-.3.1-.6-.3-1.4-.6-2-.9a1.08,1.08,0,0,1-.1-.6c0-.2.1-.4.3-.4a21,21,0,0,1,1.7-1.4C16.7,16.2,16.7,16,16.8,16.3Z"/>
    <path class="a" d="M24.3,9.8a1.08,1.08,0,0,0-.6-.1h-.4a.19.19,0,0,0-.1.3c.1.2.3.3.4.6a9,9,0,0,1,.9,3.2,16.11,16.11,0,0,1-.1,4.9,33.82,33.82,0,0,1-1.1,3.4,17.59,17.59,0,0,1-5.1,7.2,17.25,17.25,0,0,1-5.1,2.9c-.1,0-.3.1-.4.1s-.1.1,0,.1a2.46,2.46,0,0,0,1.2.1c.4-.2.9-.3,1.5-.6a20.42,20.42,0,0,0,8.8-7.4,14.68,14.68,0,0,0,2.6-8.9,11.44,11.44,0,0,0-1.1-4.1A21,21,0,0,0,24.3,9.8Z"/>
    <path class="a" d="M17.9,5.6c-.1.1,0,.1,0,0Z"/>
    <path class="a" d="M13.1,9.1c.3.3.3.3.6,0,.6-.4.9-.8,1.5-1.2.9-.7,1.8-1.6,2.7-2.3,0-.2-.2-.2,0-.3a10.08,10.08,0,0,0-3.4-.9,7,7,0,0,0-2.5.1A6.6,6.6,0,0,0,9.4,5.6c-.1,0-.1.2,0,.3a3.11,3.11,0,0,1,.6.4A20.64,20.64,0,0,0,13.1,9.1Z"/>
    <path class="a" d="M19.2,4.3c-.1.2-.1.2,0,.3a2.38,2.38,0,0,0,1.1.6c.2.1.3,0,.6,0,.1,0,.3-.1.4-.1a5.34,5.34,0,0,1,1.4-.6c.3,0,.3.2.3.3-.2.3-.2.5-.3.6a5.83,5.83,0,0,1-1.1,1.5c-.1,0-.1.2,0,.3a6.47,6.47,0,0,1,.9.8.3.3,0,0,0,.4,0A8.16,8.16,0,0,0,24,6.3a6,6,0,0,0,.4-2.9c0-.5,0-.5-.4-.6h-.6A6,6,0,0,0,19.5,4C19.3,4.2,19.3,4.1,19.2,4.3Z"/>
    <path class="a" d="M20.4,12.3c-.9.9-2,1.8-2.9,2.6l-.1.1c-.1,0-.1.1,0,.1h3.1a20.9,20.9,0,0,1,2.5.1h.3c.2-.2.2-.2.1-.3l-2.6-2.6C20.7,12.2,20.7,12.2,20.4,12.3Z"/>
    <path class="a" d="M8.4,6.5A6.78,6.78,0,0,0,7,8.8c0,.3-.2.5.6.6.1,0,.4,0,.4.1A11.43,11.43,0,0,1,9.5,7.8a.44.44,0,0,1,.1-.3.3.3,0,0,0,0-.4c-.2-.2-.5-.3-.8-.6C8.7,6.2,8.7,6.2,8.4,6.5Z"/>
    <path class="a" d="M35.1,26.4h-.3v-.6h.8v-.3H34.5v2.3h.6c.2,0,.5,0,.6-.1a.68.68,0,0,0,.3-.6.6.6,0,0,0-.3-.6A1.49,1.49,0,0,0,35.1,26.4Zm-.3.9v-.1h-.2v-.6h.3a.35.35,0,0,1,.4.4C35.3,27.3,35,27.3,34.8,27.3Z"/>
    <polygon class="a" points="38.4 25.6 38.1 25.6 38.1 27.9 39.6 26.2 39.5 27.7 39.9 27.7 39.9 25.4 38.4 27.1 38.4 25.6"/>
    <path class="a" d="M43.4,26.4c.2,0,.3-.1.3-.4a.6.6,0,0,0-.1-.4c-.2,0-.4-.1-.6-.1s-.5,0-.6.3l.1.1a.37.37,0,0,1,.4-.3c.1,0,.1,0,.1.3.1,0,.1-.1.1.1s-.1.3-.4.3h-.1v.3h.1c.3,0,.6,0,.6.4v.4c-.2.1-.1.1-.3.1a.51.51,0,0,1-.6-.4h-.3c.2.3.4.6.8.6s.4.1.6-.1a.71.71,0,0,0,.3-.6A.55.55,0,0,0,43.4,26.4Z"/>
    <polygon class="a" points="47.3 26.4 46.4 26.4 46.4 25.6 46 25.6 46 27.8 46.4 27.8 46.4 26.7 47.3 26.7 47.3 27.8 47.7 27.8 47.7 25.6 47.3 25.6 47.3 26.4"/>
    <polygon class="a" points="51.5 25.9 51.4 25.5 50.2 25.5 50.2 27.7 51.5 27.7 51.5 27.4 50.7 27.4 50.7 26.8 51.5 26.8 51.5 26.5 50.7 26.5 50.7 25.9 51.5 25.9"/>
    <path class="a" d="M55.4,25.4c-.2,0-.3-.1-.6-.1a1,1,0,0,0-.8.3.91.91,0,0,0-.4.8c0,.4.1.5.4.8s.7.3.8.3a3.54,3.54,0,0,0,.6-.1V27a.68.68,0,0,1-.6.3.79.79,0,0,1-.8-.8.73.73,0,0,1,.8-.8.93.93,0,0,1,.6.3h.1v-.2h-.1Z"/>
    <path class="a" d="M60.5,25.6a.91.91,0,0,0-.4.8c0,.4.2.5.4.8s.7.3.8.3a3.54,3.54,0,0,0,.6-.1V27a.68.68,0,0,1-.6.3.79.79,0,0,1-.8-.8.73.73,0,0,1,.8-.8c.2,0,.3,0,.6.3v-.6c-.2,0-.4-.1-.6-.1A1,1,0,0,0,60.5,25.6Z"/>
    <path class="a" d="M65.3,25.6a1.1,1.1,0,1,0,1.1,1.1C66.4,26,66.1,25.5,65.3,25.6Zm0,1.9c-.5,0-.8-.2-.8-.8a.86.86,0,0,1,.8-.8c.5,0,.8.2.8.8A.79.79,0,0,1,65.3,27.5Z"/>
    <path class="a" d="M69.9,25.6A1.1,1.1,0,1,0,71,26.7,1,1,0,0,0,69.9,25.6Zm0,1.9c-.5,0-.8-.2-.8-.8a.86.86,0,0,1,.8-.8c.5,0,.8.2.8.8A1,1,0,0,1,69.9,27.5Z"/>
    <path class="a" d="M74.4,26.5a1.49,1.49,0,0,0-.6-.1h-.3v-.6h.8v-.3H73.2v2.3h.6c.2,0,.5,0,.6-.1a.68.68,0,0,0,.3-.6A.6.6,0,0,0,74.4,26.5Zm-.8.8v-.1h-.2v-.6h.3a.35.35,0,0,1,.4.4C74.1,27.3,73.8,27.3,73.6,27.3Z"/>
    <polygon class="a" points="79.5 25.5 79.1 25.5 79.1 27.4 78.5 27.4 78.5 25.5 78.1 25.5 78.1 27.4 77.3 27.4 77.3 25.5 76.9 25.5 76.9 27.6 79.5 27.6 79.5 28.2 79.8 28.2 79.8 27.4 79.5 27.4 79.5 25.5"/>
    <polygon class="a" points="83.1 25.9 83.1 25.5 81.9 25.5 81.9 27.7 83.1 27.7 83.1 27.4 82.3 27.4 82.3 26.8 83.1 26.8 83.1 26.5 82.3 26.5 82.3 25.9 83.1 25.9"/>
    <path class="a" d="M87.2,25.4c-.2,0-.4-.1-.6-.1a1,1,0,0,0-.8.3.91.91,0,0,0-.4.8c0,.4.2.5.4.8s.7.3.8.3a3.54,3.54,0,0,0,.6-.1V27a.68.68,0,0,1-.6.3.79.79,0,0,1-.8-.8.73.73,0,0,1,.8-.8.93.93,0,0,1,.6.3h.1v-.2h-.1Z"/>
    <polygon class="a" points="89.1 25.9 89.7 25.9 89.7 27.8 90.1 27.8 90.1 25.9 90.5 25.9 90.5 25.6 89.1 25.6 89.1 25.9"/>
    <path class="a" d="M93.8,26.6a.6.6,0,0,0,.1-.4.85.85,0,0,0-.3-.6,1.49,1.49,0,0,0-.6-.1l-.3.2v2.2h.6c.2,0,.5,0,.6-.1a.68.68,0,0,0,.3-.6A.55.55,0,0,0,93.8,26.6Zm-.8-.8c.1,0,.4,0,.4.3s-.3.3-.4.3l-.1-.6Zm.3,1.5H93v-.6h.3c.3,0,.4.1.4.3S93.7,27.3,93.3,27.3Z"/>
    <path class="a" d="M97.5,25.6a1.1,1.1,0,1,0,1.1,1.1A1,1,0,0,0,97.5,25.6Zm0,1.9c-.5,0-.8-.2-.8-.8a.86.86,0,0,1,.8-.8c.5,0,.8.2.8.8A.79.79,0,0,1,97.5,27.5Z"/>
    <rect class="a" x="57.3" y="26.4" width="1.1" height="0.3"/>
  </g>
</svg>
