<svg xmlns="http://www.w3.org/2000/svg" viewBox="0 0 250.1 40">
  <defs>
    <style>
      .a {
        fill: #231f20;
      }
    </style>
  </defs>
  <title>logo-rf</title>
  <g>
    <path class="a" d="M159.2,16.4a3.7,3.7,0,0,0,.6-2.1,4.07,4.07,0,0,0-1.2-3,4.51,4.51,0,0,0-3-1.2,4.07,4.07,0,0,0-3,1.2,4.51,4.51,0,0,0-1.2,3V23a6.74,6.74,0,0,0,2,4.7,6.19,6.19,0,0,0,4.7,2,6.65,6.65,0,0,0,4.7-11.4A6.34,6.34,0,0,0,159.2,16.4Zm-5.6-2.1a2,2,0,0,1,.6-1.4,1.68,1.68,0,0,1,1.4-.6,2,2,0,0,1,1.4.6,1.68,1.68,0,0,1,.6,1.4,2.05,2.05,0,0,1-2,2h-2Zm7.7,11.9a4.63,4.63,0,0,1-3.2,1.3,4.45,4.45,0,0,1-3.2-1.3,4.63,4.63,0,0,1-1.3-3.2V18.5h4.5a4.82,4.82,0,0,1,3.2,1.3,4.63,4.63,0,0,1,1.3,3.2A4.45,4.45,0,0,1,161.3,26.2Z"/>
    <path class="a" d="M60.5,10.4H53.6V29.5h2.2V23.6h4.7A6.19,6.19,0,0,0,65,21.7,6.74,6.74,0,0,0,67,17a6.74,6.74,0,0,0-2-4.7A7.1,7.1,0,0,0,60.5,10.4Zm3.1,9.8a4.63,4.63,0,0,1-3.2,1.3H55.9V12.6h4.5a5.26,5.26,0,0,1,3.2,1.2A4.63,4.63,0,0,1,64.9,17,4.45,4.45,0,0,1,63.6,20.2Z"/>
    <path class="a" d="M212.6,16.2a6.65,6.65,0,0,0-4.7,11.4,6.19,6.19,0,0,0,4.7,2,6.65,6.65,0,0,0,4.7-11.4A6.34,6.34,0,0,0,212.6,16.2Zm3.2,10a4.63,4.63,0,0,1-3.2,1.3,4.45,4.45,0,0,1-3.2-1.3,4.63,4.63,0,0,1-1.3-3.2,4.45,4.45,0,0,1,1.3-3.2,4.63,4.63,0,0,1,3.2-1.3,4.82,4.82,0,0,1,3.2,1.3,4.63,4.63,0,0,1,1.3,3.2A4.45,4.45,0,0,1,215.8,26.2Z"/>
    <path class="a" d="M247.6,10.7a8.22,8.22,0,0,0-6-2.5,4.48,4.48,0,0,0-1.1.1,3.59,3.59,0,0,0-1.1.2l.6,2.1a2.35,2.35,0,0,1,.8-.2,2,2,0,0,1,.8-.1,6.15,6.15,0,0,1,6.2,6.2V18a5.55,5.55,0,0,0-4.4-1.5,6.65,6.65,0,0,0-4.7,11.4,6.19,6.19,0,0,0,4.7,2,6.83,6.83,0,0,0,6.7-6.7V16.7A8.46,8.46,0,0,0,247.6,10.7Zm-1.1,15.4a4.5,4.5,0,0,1-7.7-3.2,4.45,4.45,0,0,1,1.3-3.2,4.63,4.63,0,0,1,3.2-1.3,4.45,4.45,0,0,1,3.2,1.3,4.63,4.63,0,0,1,1.3,3.2A4.45,4.45,0,0,1,246.5,26.1Z"/>
    <path class="a" d="M233.8,26.9a2.77,2.77,0,0,1-.3-1.3V16.3h-2.2v5.5h-6.8V16.3h-2.2V29.6h2.2V24h6.8v1.5a5.38,5.38,0,0,0,.4,2.2,4.74,4.74,0,0,0,1.2,1.9l1.7-1.6A2.84,2.84,0,0,1,233.8,26.9Z"/>
    <path class="a" d="M85.8,28.5a3.53,3.53,0,0,1-.3-1.4V16.3H83.3L75.1,21v2.2a2.1,2.1,0,1,1,0,4.2H72V16.3H69.8V29.6h5.3a4.39,4.39,0,0,0,3.1-1.3,4,4,0,0,0,1.3-3,4.34,4.34,0,0,0-1.3-3l-.3-.3,5.5-3.2v8.3a5.38,5.38,0,0,0,.4,2.2A4.74,4.74,0,0,0,85,31.2l1.6-1.6A2.84,2.84,0,0,1,85.8,28.5Z"/>
    <path class="a" d="M133.8,17.8l-1.6-1.6-5.6,5.6h-1.8V16.3h-2.1V29.6h2.2V24H127a7,7,0,0,0,1.9,3.6,6.19,6.19,0,0,0,4.7,2V27.4a4.45,4.45,0,0,1-3.2-1.3,5.15,5.15,0,0,1-1.3-2.9v-.7Z"/>
    <path class="a" d="M118.8,26.7a2.77,2.77,0,0,1-.3-1.3V16.2h-2.2v1.7a7.14,7.14,0,0,0-4.5-1.7,6.74,6.74,0,0,0-4.7,2,6.34,6.34,0,0,0-2,4.7,6.74,6.74,0,0,0,2,4.7,6.19,6.19,0,0,0,4.7,2,6.74,6.74,0,0,0,4.7-2l.1-.1c0,.1.1.1.1.2a4.74,4.74,0,0,0,1.2,1.9l1.7-1.8A2.84,2.84,0,0,1,118.8,26.7Zm-3.9-.5a4.63,4.63,0,0,1-3.2,1.3,4.45,4.45,0,0,1-3.2-1.3,4.63,4.63,0,0,1-1.3-3.2,4.45,4.45,0,0,1,1.3-3.2,4.63,4.63,0,0,1,3.2-1.3,4.44,4.44,0,0,1,4.5,4.5A4.82,4.82,0,0,1,114.9,26.2Z"/>
    <path class="a" d="M142.1,16.2a6.65,6.65,0,0,0-4.7,11.4,6.19,6.19,0,0,0,4.7,2,6,6,0,0,0,4.7-2,6.34,6.34,0,0,0,2-4.7,6.74,6.74,0,0,0-2-4.7A6.34,6.34,0,0,0,142.1,16.2Zm3.2,10a4.63,4.63,0,0,1-3.2,1.3,4.45,4.45,0,0,1-3.2-1.3,4.63,4.63,0,0,1-1.3-3.2,4.45,4.45,0,0,1,1.3-3.2,4.63,4.63,0,0,1,3.2-1.3,4.45,4.45,0,0,1,3.2,1.3,4.63,4.63,0,0,1,1.3,3.2A4.45,4.45,0,0,1,145.3,26.2Z"/>
    <path class="a" d="M196.9,16.3a6.34,6.34,0,0,0-4.7,2,4.3,4.3,0,0,0-.9,1c-.3-.3-.6-.7-.9-1a6.34,6.34,0,0,0-4.7-2,6.74,6.74,0,0,0-4.7,2,6.34,6.34,0,0,0-2,4.7,6.74,6.74,0,0,0,2,4.7,6.19,6.19,0,0,0,4.7,2,6.62,6.62,0,0,0,4.5-1.7v9.4h2.2V28a7.14,7.14,0,0,0,4.5,1.7,6.65,6.65,0,0,0,4.7-11.4A6.34,6.34,0,0,0,196.9,16.3Zm-8,9.8a4.63,4.63,0,0,1-3.2,1.3,4.45,4.45,0,0,1-3.2-1.3,4.63,4.63,0,0,1-1.3-3.2,4.45,4.45,0,0,1,1.3-3.2,4.63,4.63,0,0,1,3.2-1.3,4.53,4.53,0,0,1,3.2,7.7Zm11.2,0a4.5,4.5,0,0,1-7.7-3.2,4.45,4.45,0,0,1,1.3-3.2,4.63,4.63,0,0,1,3.2-1.3,4.45,4.45,0,0,1,3.2,1.3,4.63,4.63,0,0,1,1.3,3.2A4.45,4.45,0,0,1,200.1,26.1Z"/>
    <path class="a" d="M95.8,16.3a7.06,7.06,0,0,0-4.5,1.6v-.1a4.84,4.84,0,0,1,.7-2.6,6.36,6.36,0,0,1,2-2l5.1-3L98,8.3l-5.1,3a8.33,8.33,0,0,0-2.8,2.8,7.87,7.87,0,0,0-1,3.7V23a6.74,6.74,0,0,0,2,4.7,6.34,6.34,0,0,0,4.7,2,6.65,6.65,0,0,0,4.7-11.4A6.34,6.34,0,0,0,95.8,16.3ZM99,26.1a4.5,4.5,0,0,1-7.7-3.2,4.82,4.82,0,0,1,1.3-3.2,4.59,4.59,0,0,1,6.4,0,4.63,4.63,0,0,1,1.3,3.2A4.45,4.45,0,0,1,99,26.1Z"/>
    <path class="a" d="M26.1,10.2a2.05,2.05,0,1,0,2.9,0A2.05,2.05,0,0,0,26.1,10.2Z"/>
    <path class="a" d="M40.1,18.1a19.08,19.08,0,0,0-1.8-6.6,22,22,0,0,0-4-5.6,20,20,0,0,0-28.4,0A19.93,19.93,0,0,0,0,20,20.49,20.49,0,0,0,5.8,34.2a21.65,21.65,0,0,0,6.5,4.3A19.94,19.94,0,0,0,20,40h1.8V26.5H4.8A16.4,16.4,0,0,1,3.5,20H40.3Zm-21.7,12v6.4a17.3,17.3,0,0,1-4.6-1.2,16,16,0,0,1-5.4-3.6c-.5-.5-1-1.1-1.5-1.6Zm-.1-13.6H3.9A17.09,17.09,0,0,1,8.4,8.3a17,17,0,0,1,9.9-4.7Zm3.5,0V3.6a15.88,15.88,0,0,1,10,4.7,15,15,0,0,1,3.3,4.6,25.33,25.33,0,0,1,1.2,3.6Z"/>
  </g>
</svg>
