<svg xmlns="http://www.w3.org/2000/svg" viewBox="0 0 93.44 46.72">
  <defs>
    <style>
      .a {
        fill: #fff;
      }
    </style>
  </defs>
  <title>logo-pro-3</title>
  <g>
    <path class="a" d="M48,11.3a6.07,6.07,0,0,0,1.6-4.6,5.84,5.84,0,0,0-1.7-4.5A6.26,6.26,0,0,0,43.2.5H35.5V19h4.8V12.9h3.1A6.2,6.2,0,0,0,48,11.3ZM40.3,9h-.1V4.3h1.6a2.83,2.83,0,0,1,2.1.7,2.38,2.38,0,0,1,.6,1.7,2.11,2.11,0,0,1-.6,1.7,3.29,3.29,0,0,1-2,.6Z"/>
    <path class="a" d="M56.9,12l4.6,7.1h6l-5.8-7.6a5.35,5.35,0,0,0,2.6-1.3,5.52,5.52,0,0,0,1.5-3.9,6,6,0,0,0-1.6-4.2A5.86,5.86,0,0,0,59.7.5H52.1V19.1h4.8ZM57,4.2h.9a4.53,4.53,0,0,1,2.3.6,2.27,2.27,0,0,1,.6,1.6A2.27,2.27,0,0,1,60.2,8a3.24,3.24,0,0,1-2.3.8H57Z"/>
    <path class="a" d="M77.6,19.5a10.73,10.73,0,0,0,7.3-2.8,9.16,9.16,0,0,0,2.9-6.9,9.6,9.6,0,0,0-2.9-7A10.11,10.11,0,0,0,77.6,0a10.73,10.73,0,0,0-7.3,2.8,9.6,9.6,0,0,0-2.9,7,9.54,9.54,0,0,0,2.9,6.9A10.28,10.28,0,0,0,77.6,19.5ZM73.9,6.2a5.91,5.91,0,0,1,3.7-1.6,5.3,5.3,0,0,1,3.7,1.5,5.15,5.15,0,0,1,1.5,3.6,5,5,0,0,1-1.5,3.6,5.22,5.22,0,0,1-3.7,1.4,5,5,0,0,1-3.7-1.5,4.54,4.54,0,0,1-1.5-3.4A5.08,5.08,0,0,1,73.9,6.2Z"/>
    <path class="a" d="M38.5,35.1A4.69,4.69,0,0,1,33,32.8a2.53,2.53,0,0,1-.4-1.7c0-.2,4.1-3,5.2-5a1.71,1.71,0,0,0-.6-2c-.9-.7-2.9-.8-5,1.2a5.71,5.71,0,0,0-2,4.8s0,.1,0,.15l-.31.25c-.2.1-2.6,1.8-2.7,1.9-6.4,4.3-9.1-2.4-8.3-5.5.7-2.9,1.9-5.3,5.7-9.5,1.7-1.9,4.1-3.6,1.4-4.9-2.9-1.4-5.1,3.5-6,5-.2.4-4,9.3-4.7,9.9-.2-.9.6-6.9.6-8.1s.3-3.3-.9-4.1a2.71,2.71,0,0,0-2.6.3,11.3,11.3,0,0,0-1,.7,21.81,21.81,0,0,0-1.1-4.4C9.4,9.4,7.7,7.1,5,8.8c-.5.3-5.1,3.8-3.6,5.2.8.7,1.8.2,2.7-1.4,1.1-2,1.8-3.8,3.2-3.2,1.9.9,2.7,6.5,2.9,7.6l-.3.3c-1.4,1.6-4.1,4.4-5.3,5.8C1.8,26.3-.1,29.5,0,33.9c.1,2,.7,4.2,2.6,5.2,2.5,1.3,4.5,0,6.1-1.6,3.2-3.3,3.5-8.1,3.4-12.6,0-.8-.1-1.6-.1-2.4s-.3-4-.3-4a5.85,5.85,0,0,1,2.1-1.7c1.3-.1-.1,10.3-.4,12.1s-.8,5.7,1.1,5.6c1.5-.1,1.3-4.6,3.2-8.4-.5,2.8-.7,7.2,2.2,8.7s8.18-.36,10.62-2.33A8.26,8.26,0,0,0,31.6,34.4a6,6,0,0,0,3.8,2.2c.8.3,5.5.1,4.8-1.4C39.9,34.5,39.1,34.8,38.5,35.1ZM25.1,13.8c1.2.3-4.1,6.1-4.5,6.1C20.6,19.3,23.8,13.5,25.1,13.8ZM10.4,30.7a10.72,10.72,0,0,1-2.8,6,3.42,3.42,0,0,1-5.8-2,14.1,14.1,0,0,1,1.8-7.8,50.15,50.15,0,0,1,6.8-7.2,39.84,39.84,0,0,1,.3,4.1A40.29,40.29,0,0,1,10.4,30.7ZM34.7,25c.4-.2,1.5-.2,1.2.9s-3.3,3.1-3.6,3S33,25.4,34.7,25Z"/>
    <path class="a" d="M47.3,30.9c-.2-1,.3-5.3-.1-5.8s-.6-.6-1.2-.5c-1.4.2-.8,2.5-.8,2.6a22.48,22.48,0,0,1,0,2.6c-.1.6-2.1.7-2.2.1-.2-1.1.2-5-.9-5a.91.91,0,0,0-1,.3c-.6.8-.1,5.5,0,6a14.2,14.2,0,0,0,.8,4.1c1,1.7,2,1.1,1.9,0-.1-.7-1.2-3.2-.4-3.6a1.82,1.82,0,0,1,2,0c.5.5,1.3,3.5,2.4,4.1.7.7,3.2,1.4,2.5-.3C50,34.8,47.7,33.7,47.3,30.9Z"/>
    <path class="a" d="M73.8,37.4c-1.1-.6-5,.9-6.6,1.5a24,24,0,0,0-2.3-4.2c-.6-1-1.7-2.6-1.5-3.8.3-1.9,1.1-3.6-.9-3.3-.9.1-1.1,3.1-1.4,3.8s-1.4,3.5-2.5,3.1-.5-4.8-.5-5.2-.4-1.2-.7-1.2A1.72,1.72,0,0,0,56,29.3c-.3.7-1.5,5.2-2.1,5.2-1.3,0-.9-6.6-.2-8.1.1-.3-.2-1.1-1.1-.7a2.6,2.6,0,0,0-1.4,2.1c-.4,2.5.4,8,2,8.3,1,.2,1.9-.7,2.3-1.5,1.3-2.8.9-2.9,1.4-.4.1.9.5,1.9,1.7,1.8,1.9-.1,3.5-3.4,3.9-2.6.2.4,3.8,5.6,3.1,6-1.6,1-5.4,2.6-5.5,5.3s4.8,2.9,6.2-.3c1-2.3.9-4.3,1.1-4.4a22.67,22.67,0,0,1,6.4-1.2C74.3,38.8,74.6,37.8,73.8,37.4ZM62.6,45.5c-3,.1,3.1-4.9,3-4.7C65.7,41.3,65.1,45.4,62.6,45.5Z"/>
    <path class="a" d="M93.1,33.3c-1.5-.9-3.1.3-4,.7-.5.3-2.1,1.3-3.2,0-.3-.3-.3-.7-.5-1.1a14.32,14.32,0,0,1-.7-5.1c.4-1.5-.3-1.8-1-1.8-.9,0-1.1,2.6-1.1,2.7,0,1,.3,2.1-1.3,2.1a.37.37,0,0,1-.3-.1c-.3-.3-.3-.9-.4-1.9,0-2.7,0-3.2-.8-3.2s-1.3.3-1.3.9a29.38,29.38,0,0,0,.73,6.29c-.49.93-.73,1.52-1.33,1.61a2.21,2.21,0,0,1-2.7-1.8c-.2-.6-.2-5.2-1.7-5-.9.1-1.5,5.9-3.3,6.2-1.4.3-1.7-3.3-1.4-4.3.2-.6.9-3,.2-3.1-.9-.2-1.2.9-1.3,1.1-1,3.3-.2,7.7,1.3,8.4,1.3.6,3-.9,3.4-2.3,1.7-5.7,1.1.3,1.8,1.2A2.69,2.69,0,0,0,77,36a5.08,5.08,0,0,0,2.52-1.31c.49,1.41,2.27,2,2.18.61,0-.6-1.4-3.1.3-3.2,1.9-.1,1.7,1,2.7,2.9a3.32,3.32,0,0,0,2.4.9C88.2,36,95,34.5,93.1,33.3Z"/>
  </g>
</svg>
