<svg xmlns="http://www.w3.org/2000/svg" viewBox="0 0 81.3 22">
  <defs>
    <style>
      .a {
        fill: #fff;
      }
    </style>
  </defs>
  <title>logo-pro-1</title>
  <g>
    <path class="a" d="M3.1,6.4h0A4.2,4.2,0,0,1,6.9,4.3,4.8,4.8,0,0,1,10.6,6a6.8,6.8,0,0,1,1.5,4.7,7.82,7.82,0,0,1-1.4,4.8,4.41,4.41,0,0,1-3.9,1.9,3.66,3.66,0,0,1-3.5-1.9h0V22H0V4.6H3.2V6.4Zm0,4.7a4,4,0,0,0,.8,2.6,2.66,2.66,0,0,0,2.1,1,2.43,2.43,0,0,0,2-1.1,4.53,4.53,0,0,0,.7-2.7A4.46,4.46,0,0,0,8,8.1a2.66,2.66,0,0,0-2.1-1,2.39,2.39,0,0,0-2.1,1A5.13,5.13,0,0,0,3.1,11.1Z"/>
    <path class="a" d="M24.9,17.1H21.6V9.3a2.65,2.65,0,0,0-.5-1.7A2,2,0,0,0,19.5,7a2.41,2.41,0,0,0-1.9.8,2.82,2.82,0,0,0-.7,2.1v7.2H13.6V.2h3.3v6h0a4,4,0,0,1,3.7-1.9,4.5,4.5,0,0,1,3.1,1.1,4.07,4.07,0,0,1,1.2,3Z"/>
    <path class="a" d="M30.4,3.1H27.1V0h3.3Zm0,1.5V17.1H27.1V4.6Z"/>
    <path class="a" d="M35.9,17.1H32.6V.2h3.3Z"/>
    <path class="a" d="M41.9,4.6h2V7h-2v7a.6.6,0,0,0,.3.6,2,2,0,0,0,.8.1h.9v2.4a9.72,9.72,0,0,1-1.8.1,5.06,5.06,0,0,1-2.8-.6,2.56,2.56,0,0,1-.8-2.1V6.9H36.8V4.5h1.7V1.1h3.3l.1,3.5Z"/>
    <path class="a" d="M56.2,13.4a5.5,5.5,0,0,1-2.1,3,5.68,5.68,0,0,1-3.4,1A6.28,6.28,0,0,1,46,15.7,6.39,6.39,0,0,1,44.4,11a7.54,7.54,0,0,1,1.5-4.9,5.79,5.79,0,0,1,4.6-1.9,5.64,5.64,0,0,1,4.3,1.7,7.37,7.37,0,0,1,1.6,5.2v.6H47.7a3.74,3.74,0,0,0,.9,2.3,2.86,2.86,0,0,0,2.1.8,2.3,2.3,0,0,0,1.4-.4,2,2,0,0,0,.8-1ZM53,9.6a3,3,0,0,0-.8-1.9A2.27,2.27,0,0,0,50.4,7c-1.6,0-2.5.9-2.7,2.6Z"/>
    <path class="a" d="M68.5,12.5A5.42,5.42,0,0,1,66.7,16a5.72,5.72,0,0,1-4,1.4,5.49,5.49,0,0,1-4.3-1.7,6.53,6.53,0,0,1-1.5-4.6,7.37,7.37,0,0,1,1.6-5.2,5.52,5.52,0,0,1,4.4-1.7,6.15,6.15,0,0,1,3.8,1.2A4.77,4.77,0,0,1,68.4,9H65.1a2.63,2.63,0,0,0-.7-1.5A2.39,2.39,0,0,0,63,7a2.06,2.06,0,0,0-1.9,1,5,5,0,0,0-.7,2.6,5,5,0,0,0,.7,3.2,2.32,2.32,0,0,0,1.9.9,2.45,2.45,0,0,0,1.6-.6,2.63,2.63,0,0,0,.7-1.5h3.2Z"/>
    <path class="a" d="M81.3,17.1H78V9.3a2.65,2.65,0,0,0-.5-1.7A2,2,0,0,0,75.9,7a2.41,2.41,0,0,0-1.9.8,2.82,2.82,0,0,0-.7,2.1v7.2H70V.2h3.3v6h0A4,4,0,0,1,77,4.3a4.5,4.5,0,0,1,3.1,1.1,4.07,4.07,0,0,1,1.2,3Z"/>
  </g>
</svg>
