<svg xmlns="http://www.w3.org/2000/svg" viewBox="0 0 235.7 54.2">
  <defs>
    <style>
      .a {
        fill: #ff2706;
      }
    </style>
  </defs>
  <title>logo</title>
  <g>
    <g>
      <path d="M0,35.7H12.6c.1,3,1,5.2,2.6,6.6s4,2.2,7.2,2.2a12.2,12.2,0,0,0,6.2-1.3,4.2,4.2,0,0,0,2.2-3.7,4,4,0,0,0-.6-2.2,3.2,3.2,0,0,0-1.4-1.4,34.1,34.1,0,0,0-7-2.4c-3.8-1.1-6.9-2.2-9.5-3.2a20.6,20.6,0,0,1-8.4-5.8A13.3,13.3,0,0,1,1,16,14.1,14.1,0,0,1,6.6,4.3C10.3,1.4,15.3,0,21.6,0S32.7,1.5,36.3,4.6s5.4,7.1,5.4,12.3H29.3a7.4,7.4,0,0,0-2.5-5.3,9.6,9.6,0,0,0-6.1-1.7,8.8,8.8,0,0,0-5.1,1.3,3.8,3.8,0,0,0-2,3.3c0,2.3,3.1,4.5,9.4,6.5l2.6.8.6.2c6.5,2.1,10.5,3.8,12.2,5.1a14.1,14.1,0,0,1,3.7,4.8A13.6,13.6,0,0,1,43.4,38c0,5.1-1.9,9.1-5.8,11.9s-9.5,4.3-16.5,4.3S9.3,52.7,5.8,49.6.4,41.9,0,35.7Z"/>
      <path d="M48.3,33.8c0-6.4,1.8-11.3,5.4-14.9s8.5-5.4,14.7-5.4,11.3,1.8,14.8,5.4,5.4,8.5,5.4,14.9-1.8,11.3-5.4,14.9-8.5,5.4-14.8,5.4-11.2-1.8-14.7-5.4S48.3,40.1,48.3,33.8Zm12.8,0c0,3.4.6,6.1,1.9,8a6.3,6.3,0,0,0,5.4,2.7,6.2,6.2,0,0,0,5.5-2.8c1.3-1.8,2-4.5,2-7.9s-.7-6.1-2-8a6.3,6.3,0,0,0-5.5-2.7A6.2,6.2,0,0,0,63,25.8C61.7,27.7,61.1,30.3,61.1,33.8Z"/>
      <path d="M130.3,38.7c-.6,4.8-2.5,8.6-5.8,11.3s-7.5,4-12.7,4-10.2-1.8-13.6-5.4S93,40.2,93,34.2,94.7,22.7,98.2,19s8.3-5.5,14.3-5.5,9.4,1.3,12.5,3.9a15.1,15.1,0,0,1,5.4,10.9H117.9a7.9,7.9,0,0,0-1.9-4,5.2,5.2,0,0,0-3.6-1.3,5.3,5.3,0,0,0-4.9,2.7,16.3,16.3,0,0,0-1.7,8.1c0,3.5.5,6.1,1.6,7.8a5.3,5.3,0,0,0,4.8,2.6,5.6,5.6,0,0,0,3.9-1.4,7.2,7.2,0,0,0,2-4.1Z"/>
      <path d="M136.5,52.8V14.9h11.9v6.6a14,14,0,0,1,4.9-5.7,15.5,15.5,0,0,1,7.6-1.9V26.2l-1.6-.2h-1.5a12.4,12.4,0,0,0-4.7.8,6.6,6.6,0,0,0-3,2.7,8.6,8.6,0,0,0-1,3.4,58.9,58.9,0,0,0-.3,7.1V52.8Z"/>
    </g>
    <g>
      <path d="M209.3,52.8H196.6l-.3-1.9-.3-2a17.9,17.9,0,0,1-5.6,3.8,15.4,15.4,0,0,1-6.5,1.3c-3.6,0-6.5-1-8.6-3s-3.2-4.7-3.2-8.2a11.1,11.1,0,0,1,2.5-7.6c1.6-2,4.2-3.4,7.5-4.2l7.1-1.3c4.3-.7,6.4-1.7,6.4-3.1v-.9a2.9,2.9,0,0,0-1.2-2.5,6.4,6.4,0,0,0-3.7-.8,7.3,7.3,0,0,0-4.2,1,4.8,4.8,0,0,0-1.9,3.2H173.1c.6-4.3,2.4-7.4,5.3-9.5s7.2-3.2,12.6-3.2a26,26,0,0,1,8.5,1.2,12.7,12.7,0,0,1,5.4,3.7,11.4,11.4,0,0,1,2,4.3,46.6,46.6,0,0,1,.5,7.9V45.3a14.2,14.2,0,0,0,.5,4.1,2.9,2.9,0,0,0,1.4,1.9ZM195.6,34.9a15.6,15.6,0,0,1-5,1.7l-2.6.6a6.4,6.4,0,0,0-3.2,1.6,3.6,3.6,0,0,0-.9,2.6,4.6,4.6,0,0,0,1.2,3.3,4.8,4.8,0,0,0,3.3,1.2,7.3,7.3,0,0,0,5.2-1.8,5.9,5.9,0,0,0,2-4.8Z"/>
      <path d="M211.8,22.4V14.9h5.1V4.1h12.5V14.9h6.3v7.5h-6.3V38.8c0,2.5.3,4.2.9,5S232.2,45,234,45h1.6v7.9a26.3,26.3,0,0,1-3.9.6,21.9,21.9,0,0,1-3.6.3c-4.3,0-7.2-1.1-8.8-3.2s-2.4-6.6-2.4-13.5V22.4Z"/>
    </g>
    <circle class="a" cx="161.1" cy="47.9" r="6.3"/>
  </g>
</svg>
