<svg width="55" height="55" viewBox="0 0 55 55" fill="none" xmlns="http://www.w3.org/2000/svg">
<path d="M27.4998 20.3276C28.8224 20.3276 29.8982 21.3821 29.8982 22.6785C29.8982 23.9737 28.8221 25.0282 27.4998 25.0282C26.1781 25.0282 25.1021 23.9737 25.1021 22.6785C25.1018 21.3818 26.1784 20.3276 27.4998 20.3276ZM27.4998 28.3542C30.6945 28.3542 33.2924 25.8085 33.2924 22.6785C33.2924 19.5468 30.6948 17 27.4998 17C24.3055 17 21.7072 19.5471 21.7072 22.6785C21.7072 25.8085 24.3055 28.3542 27.4998 28.3542ZM29.8433 32.9855C31.0349 32.7195 32.1721 32.258 33.2068 31.6204C33.5877 31.3855 33.8578 31.0119 33.9577 30.5818C34.0576 30.1517 33.979 29.7003 33.7394 29.3269C33.6209 29.1418 33.4663 28.9815 33.2845 28.855C33.1027 28.7286 32.8973 28.6385 32.6799 28.5899C32.4626 28.5414 32.2376 28.5353 32.0179 28.572C31.7981 28.6087 31.5879 28.6876 31.3993 28.804C29.0262 30.2664 25.9718 30.2653 23.6007 28.804C23.4121 28.6875 23.2019 28.6087 22.9822 28.5719C22.7624 28.5352 22.5375 28.5413 22.3201 28.5899C22.1028 28.6384 21.8974 28.7285 21.7156 28.855C21.5339 28.9815 21.3793 29.1418 21.2608 29.3269C21.0211 29.7002 20.9425 30.1515 21.0422 30.5816C21.1419 31.0117 21.4119 31.3854 21.7926 31.6204C22.8272 32.2577 23.9642 32.7193 25.1556 32.9855L21.9174 36.1601C21.5992 36.4722 21.4204 36.8953 21.4205 37.3365C21.4206 37.7777 21.5995 38.2008 21.9178 38.5128C22.2362 38.8247 22.6679 38.9999 23.118 38.9998C23.5681 38.9997 23.9997 38.8244 24.318 38.5123L27.4993 35.3935L30.6826 38.5126C30.84 38.6671 31.0269 38.7897 31.2326 38.8733C31.4384 38.957 31.659 39 31.8817 39C32.1045 39 32.325 38.957 32.5308 38.8733C32.7366 38.7897 32.9235 38.6671 33.0809 38.5126C33.2388 38.3584 33.364 38.1751 33.4495 37.9733C33.5349 37.7715 33.5789 37.5551 33.5789 37.3366C33.5789 37.1182 33.5349 36.9018 33.4495 36.7C33.364 36.4982 33.2388 36.3149 33.0809 36.1607L29.8433 32.9855Z" fill="#A6A6A6"/>
<circle cx="27.5" cy="27.5" r="26.5" stroke="#A6A6A6" stroke-width="2"/>
</svg>
