<svg width="22" height="19" viewBox="0 0 22 19" fill="none" xmlns="http://www.w3.org/2000/svg">
<path d="M17.7107 19C17.5388 19 17.3681 18.9509 17.2217 18.855L11.69 15.2321L8.72316 17.2934C8.49047 17.4549 8.19055 17.4956 7.92036 17.4023C7.65051 17.3088 7.44558 17.093 7.37243 16.8254L5.88271 11.3745L0.559795 9.40934C0.224697 9.28557 0.00245861 8.97604 2.02624e-05 8.62962C-0.00241809 8.28321 0.215408 7.97076 0.548881 7.84262L20.7886 0.066775C20.8804 0.0291065 20.9776 0.00735739 21.0756 0.00152775C21.1107 -0.000490206 21.1458 -0.000490144 21.1808 0.0014157C21.3838 0.013075 21.5831 0.0928963 21.7387 0.240207C21.7549 0.255454 21.7702 0.271037 21.7847 0.287292C21.9136 0.429446 21.9844 0.602766 21.9978 0.779337C22.001 0.823732 22.0008 0.868687 21.9967 0.913643C21.9939 0.945706 21.9892 0.977657 21.9824 1.00938L18.5661 18.3166C18.5112 18.5946 18.3152 18.8274 18.0444 18.9358C17.937 18.9788 17.8235 19 17.7107 19ZM12.1757 13.5182L17.1032 16.7453L19.7614 3.27835L10.1605 12.1984L12.1525 13.5031C12.1605 13.5079 12.1682 13.5131 12.1757 13.5182ZM8.07386 12.8006L8.73361 15.2143L10.155 14.2268L8.29377 13.0077C8.20727 12.9512 8.13319 12.8808 8.07386 12.8006ZM3.26694 8.60821L6.92191 9.95744C7.18374 10.0541 7.38137 10.2666 7.45289 10.5283L7.91641 12.2244C7.93766 12.0288 8.0295 11.8447 8.17871 11.706L17.327 3.2066L3.26694 8.60821Z" fill="#fff"/>
</svg>