<svg width="22" height="22" viewBox="0 0 22 22" fill="none" xmlns="http://www.w3.org/2000/svg">
<path d="M19.7756 2.4612C17.9465 0.756276 14.9893 -0.0698226 10.9847 0.00461642C6.94678 0.0801217 4.24763 0.75395 2.49037 2.12526C0.791314 3.45101 0 5.39098 0 8.23042V11.1283C0 14.4804 1.88929 18.1656 5.50015 18.7232C5.91702 18.7881 6.30972 18.5186 6.37741 18.1222C6.4451 17.726 6.1621 17.3525 5.74523 17.2881C3.00683 16.8653 1.52921 13.7988 1.52921 11.1283V8.23042C1.52921 4.15896 3.11602 1.60583 11.0147 1.45812C14.5956 1.39066 17.1801 2.07796 18.7049 3.49928C19.8931 4.60704 20.4707 6.15456 20.4707 8.23042V11.1283C20.4707 15.5165 18.399 17.452 13.0855 18.022H9.31777C9.115 18.022 8.92048 18.0985 8.77714 18.2349L6.12234 20.759C5.82373 21.0429 5.82373 21.5032 6.12234 21.7871C6.27159 21.929 6.46733 22 6.66296 22C6.8586 22 7.05434 21.9291 7.20359 21.7871L9.63452 19.4759H13.1283C13.1564 19.4759 13.1846 19.4744 13.2127 19.4714C16.2535 19.1503 18.3359 18.3978 19.7657 17.1033C21.2691 15.7421 22 13.7877 22 11.1282V8.23042C22 5.7783 21.2516 3.83726 19.7756 2.4612Z" fill="#7B519C"/>
<path d="M11.4772 4.74817C11.4773 4.74817 11.4773 4.74817 11.4775 4.74817C12.7096 4.74817 13.8679 5.2044 14.7391 6.03273C15.6105 6.86115 16.0903 7.96262 16.0902 9.13416C16.0902 9.53563 16.4325 9.8611 16.8547 9.8611C16.8548 9.8611 16.8548 9.8611 16.8548 9.8611C17.2771 9.8611 17.6194 9.53572 17.6194 9.13426C17.6195 7.57433 16.9806 6.10775 15.8205 5.00473C14.6604 3.90171 13.1182 3.29438 11.4775 3.29438C11.4774 3.29438 11.4771 3.29438 11.477 3.29438C11.0547 3.29438 10.7125 3.61985 10.7125 4.02132C10.7126 4.42269 11.0549 4.74817 11.4772 4.74817Z" fill="#7B519C"/>
<path d="M11.477 7.30449C12.5381 7.30468 13.4015 8.12545 13.4016 9.13416C13.4017 9.53563 13.7439 9.8611 14.1663 9.86101C14.5886 9.86101 14.9309 9.53543 14.9308 9.13397C14.9305 7.32378 13.3813 5.85089 11.4772 5.8506C11.0549 5.8506 10.7126 6.17598 10.7125 6.57745C10.7125 6.97892 11.0547 7.30449 11.477 7.30449Z" fill="#7B519C"/>
<path d="M8.04853 8.55009C7.69997 8.7767 7.61056 9.22905 7.84881 9.56044C8.08706 9.89183 8.56295 9.97674 8.91151 9.75022C9.18565 9.57207 9.82771 9.15471 9.78265 8.32037C9.7541 7.82101 9.28036 7.10802 8.88796 6.5978C8.314 5.85128 7.81935 5.40164 7.42084 5.26226C7.04873 5.13054 6.6596 5.12773 6.26343 5.25412C5.44286 5.51698 4.84708 5.99202 4.54063 6.62785C4.24223 7.24682 4.24885 7.95816 4.55989 8.68539C5.29453 10.3988 6.32297 11.899 7.62351 13.1505C8.93302 14.3804 10.5108 15.3582 12.3137 16.057C12.7038 16.2079 13.0898 16.2834 13.4608 16.2834C13.8166 16.2834 14.1586 16.214 14.4773 16.0751C15.1461 15.7837 15.6456 15.2173 15.9224 14.4362C16.0549 14.0604 16.052 13.6906 15.9146 13.3393C15.7669 12.9577 15.2939 12.4875 14.5088 11.9418C13.9721 11.5687 13.2221 11.1183 12.6949 11.0911C11.8191 11.0492 11.3806 11.6586 11.1932 11.9192C10.9548 12.2506 11.044 12.703 11.3926 12.9297C11.7413 13.1564 12.2169 13.0715 12.4554 12.7401C12.5386 12.6245 12.5861 12.5719 12.6133 12.549C13.0425 12.6797 14.2664 13.5346 14.4867 13.8622C14.4921 13.8831 14.4933 13.915 14.4729 13.9731C14.3765 14.2454 14.1884 14.6017 13.8402 14.7535C13.5141 14.8954 13.1435 14.8084 12.8905 14.7106C11.275 14.0844 9.86451 13.2115 8.70476 12.1224C7.55265 11.0136 6.63462 9.67268 5.97635 8.13728C5.87318 7.89613 5.78153 7.54361 5.93088 7.23383C6.09043 6.90283 6.46539 6.72391 6.75084 6.63241C6.8118 6.61302 6.84535 6.61409 6.86859 6.61942C7.21327 6.82926 8.11194 7.99218 8.24957 8.40033C8.2253 8.42583 8.17015 8.47109 8.04853 8.55009Z" fill="#7B519C"/>
</svg>
