<svg width="55" height="55" viewBox="0 0 55 55" fill="none" xmlns="http://www.w3.org/2000/svg">
<path fill-rule="evenodd" clip-rule="evenodd" d="M38.4723 23.8802C38.6323 23.3729 38.4723 23 37.7113 23H35.1951C34.5553 23 34.2605 23.3221 34.1006 23.6774C34.1006 23.6774 32.8209 26.6456 31.0081 28.5738C30.4217 29.1319 30.1551 29.3093 29.8352 29.3093C29.6753 29.3093 29.4438 29.1319 29.4438 28.6246V23.8802C29.4438 23.2713 29.2581 23 28.7248 23H24.7708C24.3711 23 24.1306 23.2826 24.1306 23.5504C24.1306 24.1278 25.0368 24.2608 25.1303 25.8845V29.4111C25.1303 30.1842 24.9836 30.3245 24.6637 30.3245C23.8107 30.3245 21.7359 27.3427 20.5051 23.931C20.2639 23.2679 20.022 23 19.3789 23H16.8627C16.1438 23 16 23.3221 16 23.6774C16 24.3116 16.8532 27.4576 19.972 31.6183C22.0515 34.4595 24.9807 36 27.6465 36C29.2461 36 29.4438 35.6579 29.4438 35.0686V32.9211C29.4438 32.2368 29.5953 32.1003 30.1016 32.1003C30.4751 32.1003 31.1147 32.2779 32.6077 33.6479C34.3137 35.2713 34.5948 36 35.5546 36H38.0708C38.7897 36 39.1492 35.6579 38.9417 34.9827C38.7149 34.3098 37.9004 33.3338 36.8195 32.1765C36.233 31.5167 35.3533 30.8063 35.0869 30.4512C34.7136 29.9945 34.8202 29.7916 35.0869 29.3859C35.0869 29.3859 38.1524 25.2759 38.4723 23.8804V23.8802Z" fill="#A6A6A6"/>
<circle cx="27.5" cy="27.5" r="26.5" stroke="#A6A6A6" stroke-width="2"/>
</svg>
