<svg width="24" height="22" viewBox="0 0 24 22" fill="none" xmlns="http://www.w3.org/2000/svg">
<path d="M11.9996 0C5.38286 0 0 4.83666 0 10.7816C0 13.1083 1.05107 15.1975 1.50307 15.9877C1.71351 16.3558 2.21631 16.5006 2.62573 16.3116C3.03527 16.1226 3.19668 15.6709 2.98624 15.3029C2.58983 14.6097 1.6676 12.7812 1.6676 10.7815C1.66748 5.66278 6.30243 1.49822 11.9996 1.49822C17.6972 1.49822 22.3325 5.66278 22.3325 10.7816C22.3325 15.9006 17.6972 20.0652 11.9996 20.0652C9.77135 20.0652 8.00082 19.372 7.34294 19.0739C7.14784 18.9854 6.92184 18.9694 6.71374 19.0292L1.46205 20.5371C1.0235 20.6631 0.781495 21.0846 0.921675 21.4787C1.03484 21.797 1.36278 22 1.71562 22C1.79977 22 1.88526 21.9885 1.96963 21.9642L6.90439 20.5473C7.93678 20.9779 9.7539 21.5634 11.9996 21.5634C18.6166 21.5634 24 16.7268 24 10.7816C24 4.83666 18.6166 0 11.9996 0Z" fill="#fff"/>
<path d="M9.63384 8.94309C9.26866 9.19509 9.20007 9.66533 9.48043 9.99354C9.7609 10.3217 10.2842 10.3834 10.6496 10.1314C10.9051 9.95499 11.584 9.48655 11.4846 8.64864C11.4234 8.15053 10.8825 7.46704 10.4395 6.98152C9.79125 6.27096 9.24254 5.85016 8.81166 5.7317C8.4079 5.61923 7.99415 5.63701 7.5815 5.78464C6.73264 6.08948 6.13357 6.59448 5.84898 7.24511C5.57185 7.87875 5.6222 8.58781 5.99494 9.29637C6.86504 10.9466 8.02794 12.3718 9.45142 13.5326C9.45697 13.5373 9.46264 13.5419 9.46831 13.5465C10.912 14.6932 12.6201 15.5766 14.5458 16.1727C14.9112 16.2855 15.2698 16.3417 15.6142 16.3417C16.0469 16.3417 16.4572 16.253 16.8304 16.0762C17.5186 15.7502 18.0111 15.1596 18.2549 14.3668C18.3722 13.9824 18.346 13.6113 18.1783 13.2657C17.9983 12.8916 17.4724 12.4482 16.6148 11.9479C16.0291 11.6061 15.214 11.1988 14.6539 11.1988C14.6543 11.1988 14.6535 11.1988 14.6539 11.1988C13.7194 11.2022 13.2745 11.8601 13.1075 12.1079C12.869 12.4618 12.9948 12.9225 13.3887 13.1368C13.7823 13.3512 14.2951 13.2382 14.5338 12.8842C14.5997 12.7863 14.6415 12.7344 14.6678 12.7072C15.1387 12.8301 16.3983 13.5704 16.6564 13.8819C16.6606 13.8985 16.6612 13.9236 16.6473 13.9692C16.5651 14.2364 16.3952 14.5889 16.0527 14.7511C15.7326 14.9025 15.351 14.8373 15.0881 14.7562C13.3747 14.2258 11.8584 13.4436 10.5811 12.4311C10.5807 12.4308 10.5803 12.4305 10.58 12.4301C9.31524 11.4005 8.27962 10.1305 7.50202 8.65573C7.38296 8.4292 7.26857 8.0957 7.40085 7.79335C7.54248 7.46954 7.91366 7.27896 8.19936 7.17639C8.24838 7.15881 8.27606 7.15611 8.29618 7.15851C8.66948 7.35477 9.62672 8.39724 9.81471 8.80426C9.78758 8.83052 9.73467 8.87347 9.63384 8.94309Z" fill="#fff"/>
</svg>
