<?xml version="1.0" standalone="no"?>
<!DOCTYPE svg PUBLIC "-//W3C//DTD SVG 1.1//EN" "http://www.w3.org/Graphics/SVG/1.1/DTD/svg11.dtd" >
<svg xmlns="http://www.w3.org/2000/svg" xmlns:xlink="http://www.w3.org/1999/xlink" version="1.1">
<metadata>
Created by FontForge 20170731 at Sat Sep  9 08:14:45 2017
 By Aleksey,,,
Copyright (c) 2015 by Kostas Bartsokas. All rights reserved.
</metadata>
<defs>
<font id="AvertaCyr-BoldItalic" horiz-adv-x="586" >
  <font-face 
    font-family="Averta Cyr Bold Italic"
    font-weight="400"
    font-style="italic"
    font-stretch="normal"
    units-per-em="1000"
    panose-1="0 0 8 0 0 0 0 0 0 0"
    ascent="783"
    descent="-217"
    x-height="489"
    cap-height="710"
    bbox="-729 -378 1387 1056"
    underline-thickness="53"
    underline-position="-142"
    slope="-7"
    unicode-range="U+000D-2E18"
  />
<missing-glyph horiz-adv-x="401" 
 />
    <glyph glyph-name=".notdef" horiz-adv-x="401" 
 />
    <glyph glyph-name="glyph1" horiz-adv-x="0" 
 />
    <glyph glyph-name="glyph2" horiz-adv-x="333" 
 />
    <glyph glyph-name="nonmarkingreturn" unicode="&#xd;" horiz-adv-x="0" 
 />
    <glyph glyph-name="space" unicode=" " horiz-adv-x="192" 
 />
    <glyph glyph-name="exclam" unicode="!" horiz-adv-x="282" 
d="M101 231l39 505h137l-84 -505h-92zM130 -9q-35 0 -56.5 22t-21.5 55q0 35 22.5 58t58.5 23q34 0 56 -22t22 -56q0 -35 -22.5 -57.5t-58.5 -22.5z" />
    <glyph glyph-name="quotedbl" unicode="&#x22;" horiz-adv-x="397" 
d="M57 451l59 259h131l-92 -259h-98zM236 451l59 259h131l-92 -259h-98z" />
    <glyph glyph-name="numbersign" unicode="#" horiz-adv-x="591" 
d="M65 -43l50 189h-92l11 94h107l36 141h-102l10 94h118l46 181h88l-47 -181h118l46 181h88l-46 -181h96l-12 -94h-111l-35 -141h105l-12 -94h-120l-49 -189h-87l49 189h-118l-49 -189h-88zM228 240h119l34 141h-117z" />
    <glyph glyph-name="dollar" unicode="$" horiz-adv-x="532" 
d="M306 401q13 -8 44 -25.5t44.5 -26t35.5 -25.5t31.5 -32t17.5 -37t8 -48q0 -94 -56.5 -149.5t-147.5 -63.5l-14 -114h-90l15 119q-112 23 -166 110l96 86q19 -40 53.5 -60.5t73.5 -20.5q43 0 70.5 21.5t27.5 52.5q0 8 -2 14.5t-7.5 13t-9.5 10.5t-15 11t-17.5 11t-22.5 13
t-26 15q-82 48 -107 70q-57 52 -57 124q0 80 52 132.5t133 64.5l15 120h89l-15 -124q91 -19 146 -94l-94 -81q-44 62 -111 62q-33 0 -55 -18.5t-21 -46.5q1 -22 18.5 -39t63.5 -45z" />
    <glyph glyph-name="percent" unicode="%" horiz-adv-x="1000" 
d="M374 -23l-95 44l370 707l96 -45zM257 319q-79 0 -131 52t-52 134q0 90 59 150.5t146 60.5q80 0 132 -50.5t52 -132.5q0 -92 -60 -153t-146 -61zM260 413q43 0 72 32t29 85q0 41 -24.5 67t-61.5 26q-41 0 -70 -33t-29 -84q0 -42 23.5 -67.5t60.5 -25.5zM746 -9
q-79 0 -130.5 52t-51.5 134q0 90 59 150.5t145 60.5q80 0 133 -51t53 -132q0 -93 -60.5 -153.5t-147.5 -60.5zM750 85q43 0 72 32t29 85q0 41 -24.5 67t-61.5 26q-41 0 -70 -33.5t-29 -83.5q0 -42 23.5 -67.5t60.5 -25.5z" />
    <glyph glyph-name="ampersand" unicode="&#x26;" horiz-adv-x="732" 
d="M227 -9q-84 0 -137.5 52t-53.5 137q0 69 37 129t104 91q-47 44 -47 107q0 93 62.5 152.5t153.5 59.5q155 0 193 -147l-111 -36q-12 72 -76 72q-42 0 -67.5 -26t-25.5 -71q0 -26 17 -44t48 -18h409l-14 -114h-147q-22 -157 -110 -250.5t-235 -93.5zM247 109q81 0 135.5 67
t69.5 159h-138q-63 0 -104.5 -44.5t-41.5 -97.5q0 -39 21.5 -61.5t57.5 -22.5z" />
    <glyph glyph-name="quotesingle" unicode="'" horiz-adv-x="218" 
d="M57 451l59 259h131l-92 -259h-98z" />
    <glyph glyph-name="parenleft" unicode="(" horiz-adv-x="299" 
d="M113 -159q-62 136 -62 318q0 160 46 315.5t131 270.5l86 -38q-70 -113 -108.5 -253t-38.5 -278q0 -155 48 -288z" />
    <glyph glyph-name="parenright" unicode=")" horiz-adv-x="299" 
d="M85 -155l-87 38q70 116 108 256t38 277q0 156 -47 286l100 47q64 -128 64 -318q0 -160 -45 -311.5t-131 -274.5z" />
    <glyph glyph-name="asterisk" unicode="*" horiz-adv-x="378" 
d="M167 384l17 104l-79 -55l-32 67l83 46l-73 49l48 67l67 -55l9 103h78l-18 -103l80 54l32 -66l-83 -48l73 -47l-47 -68l-67 56l-10 -104h-78z" />
    <glyph glyph-name="plus" unicode="+" horiz-adv-x="534" 
d="M186 41l21 180h-157l14 112h158l21 181h114l-23 -181h158l-14 -112h-158l-22 -180h-112z" />
    <glyph glyph-name="comma" unicode="," horiz-adv-x="236" 
d="M-21 -133l59 259h129l-96 -259h-92z" />
    <glyph glyph-name="hyphen" unicode="-" horiz-adv-x="373" 
d="M50 249l14 120h275l-14 -120h-275z" />
    <glyph glyph-name="period" unicode="." horiz-adv-x="269" 
d="M112 -9q-35 0 -56.5 22t-21.5 55q0 35 22.5 58t58.5 23q34 0 56 -22t22 -56q0 -35 -22.5 -57.5t-58.5 -22.5z" />
    <glyph glyph-name="slash" unicode="/" horiz-adv-x="386" 
d="M13 -112l-87 45l447 853l86 -44z" />
    <glyph glyph-name="zero" unicode="0" horiz-adv-x="585" 
d="M266 -9q-100 0 -155 69t-55 200q0 114 31.5 210.5t99.5 160.5t160 64q99 0 152.5 -69t53.5 -199q0 -115 -31.5 -212t-98 -160.5t-157.5 -63.5zM270 115q38 0 68 30t47 78t25.5 102t8.5 109q0 138 -81 138q-38 0 -68 -30.5t-46.5 -79.5t-25 -103t-8.5 -108q0 -136 80 -136
z" />
    <glyph glyph-name="one" unicode="1" horiz-adv-x="392" 
d="M258 687h105l-84 -687h-133l64 514l-102 -76l-59 101z" />
    <glyph glyph-name="two" unicode="2" horiz-adv-x="494" 
d="M10 0l8 87l213 228q33 36 52.5 60t38.5 61t19 69q0 30 -16 49t-44 19q-30 0 -62.5 -20.5t-53.5 -57.5l-92 71q32 57 92.5 93t131.5 36q75 0 126.5 -48t51.5 -128q0 -70 -34.5 -132.5t-100.5 -130.5l-130 -134v-2h223l-15 -120h-408z" />
    <glyph glyph-name="three" unicode="3" horiz-adv-x="504" 
d="M215 -9q-83 0 -136.5 43t-69.5 113l125 44q11 -80 78 -80q48 0 77 33t29 85q0 70 -79 70h-49l14 108h41q46 0 72.5 33.5t26.5 73.5q0 28 -17 44.5t-44 16.5q-62 0 -96 -63l-105 61q29 55 86 88.5t126 33.5q80 0 129.5 -41t49.5 -116q0 -122 -100 -182v-1q79 -39 79 -141
q0 -100 -67.5 -161.5t-169.5 -61.5z" />
    <glyph glyph-name="four" unicode="4" horiz-adv-x="527" 
d="M407 226h86l-15 -113h-85l-14 -113h-129l14 113h-255l10 85l339 489h105zM168 218h119l30 235z" />
    <glyph glyph-name="five" unicode="5" horiz-adv-x="514" 
d="M475 567h-226l-24 -137q45 12 78 12q75 0 119.5 -49t44.5 -134q0 -117 -71.5 -192.5t-182.5 -75.5q-137 0 -203 116l106 72q30 -67 93 -67q56 0 90.5 40t34.5 98q0 41 -20.5 62.5t-58.5 21.5q-51 0 -100 -37l-72 27l65 363h342z" />
    <glyph glyph-name="six" unicode="6" horiz-adv-x="544" 
d="M246 -9q-88 0 -143.5 58t-55.5 161q0 176 105.5 316t279.5 181l23 -109q-184 -68 -246 -203l1 -1q62 46 137 46q62 0 106.5 -46.5t44.5 -131.5q0 -118 -68.5 -194.5t-183.5 -76.5zM253 111q48 0 81.5 40t33.5 100q0 37 -19.5 57t-57.5 20q-29 0 -61.5 -17.5t-54.5 -45.5
q-2 -26 -2 -40q0 -52 22 -83t58 -31z" />
    <glyph glyph-name="seven" unicode="7" horiz-adv-x="447" 
d="M76 687h385l-10 -87l-280 -615l-133 25l260 558h-237z" />
    <glyph glyph-name="eight" unicode="8" horiz-adv-x="528" 
d="M226 -8q-89 0 -142.5 44.5t-53.5 120.5q0 70 35.5 127.5t97.5 84.5v2q-26 13 -43.5 43.5t-17.5 71.5q0 91 63 150t160 59q71 0 119.5 -39.5t48.5 -109.5q0 -56 -25.5 -102t-69.5 -69v-2q40 -14 64.5 -51.5t24.5 -92.5q0 -111 -72 -174t-189 -63zM287 425q35 0 59 27.5
t24 67.5q0 29 -16.5 47t-46.5 18q-36 0 -59.5 -27t-23.5 -66q0 -30 17.5 -48.5t45.5 -18.5zM243 105q46 0 78 34t32 85q0 39 -21.5 62t-59.5 23q-46 0 -77 -35.5t-31 -82.5q0 -39 21 -62.5t58 -23.5z" />
    <glyph glyph-name="nine" unicode="9" horiz-adv-x="539" 
d="M128 -24l-22 106q175 52 243 201l-1 1q-56 -38 -124 -38q-70 0 -114.5 45t-44.5 128q0 121 73.5 198.5t183.5 77.5q88 0 141 -59t53 -162q0 -185 -109 -326.5t-279 -171.5zM273 358q63 0 113 62q2 28 2 44q0 54 -21 83t-59 29q-50 0 -81.5 -38t-31.5 -97q0 -83 78 -83z
" />
    <glyph glyph-name="colon" unicode=":" horiz-adv-x="275" 
d="M160 338q-35 0 -56.5 22t-21.5 55q0 35 22.5 58t58.5 23q34 0 56 -22t22 -56q0 -35 -22.5 -57.5t-58.5 -22.5zM116 -9q-35 0 -56.5 22t-21.5 55q0 35 22.5 58t58.5 23q34 0 56 -22t22 -56q0 -35 -22.5 -57.5t-58.5 -22.5z" />
    <glyph glyph-name="semicolon" unicode=";" horiz-adv-x="250" 
d="M143 338q-35 0 -56.5 22t-21.5 55q0 35 22.5 58t58.5 23q34 0 56 -22t22 -56q0 -35 -22.5 -57.5t-58.5 -22.5zM-15 -133l59 259h129l-96 -259h-92z" />
    <glyph glyph-name="less" unicode="&#x3c;" horiz-adv-x="539" 
d="M450 27l-397 200l10 92l447 204l-14 -123l-271 -126l239 -127z" />
    <glyph glyph-name="equal" unicode="=" horiz-adv-x="553" 
d="M90 336l14 112h428l-13 -112h-429zM58 106l14 112h428l-13 -112h-429z" />
    <glyph glyph-name="greater" unicode="&#x3e;" horiz-adv-x="540" 
d="M38 27l13 120l272 127l-240 126l15 123l397 -204l-11 -92z" />
    <glyph glyph-name="question" unicode="?" horiz-adv-x="435" 
d="M124 230l5 46q3 26 18 53t28.5 42.5t47.5 51.5q35 37 53 66t18 66q0 32 -16 50t-45 18q-48 0 -90 -53l-81 81q34 44 88.5 69t115.5 25q73 0 121.5 -42t48.5 -119q0 -104 -107 -203q-74 -68 -81 -106l-10 -45h-114zM169 -9q-35 0 -56.5 22t-21.5 55q0 35 22.5 58t58.5 23
q34 0 56 -22t22 -56q0 -35 -22.5 -57.5t-58.5 -22.5z" />
    <glyph glyph-name="at" unicode="@" horiz-adv-x="896" 
d="M415 -147q-164 0 -266.5 100t-102.5 271q0 56 14.5 113.5t48.5 116t83 104t126.5 74t171.5 28.5q169 0 268.5 -101t99.5 -261q0 -31 -5.5 -62.5t-21 -67.5t-39.5 -64t-64.5 -46t-91.5 -18q-59 0 -94 35q-21 21 -28 50h-2q-54 -74 -142 -74q-60 0 -99.5 44.5t-39.5 123.5
q0 109 60 182t147 73q67 0 104 -37l3 1l4 29h120l-28 -229q-6 -52 -6 -58q0 -44 40 -44q39 0 63.5 55t24.5 106q0 118 -74.5 197.5t-198.5 79.5q-89 0 -159 -32.5t-110 -85t-60.5 -112t-20.5 -120.5q0 -127 79 -204.5t196 -77.5q103 0 207 51l40 -66q-110 -74 -247 -74z
M410 161q41 0 77 43t44 107l4 25q-36 28 -78 28q-43 0 -72.5 -41t-29.5 -92q0 -35 16 -52.5t39 -17.5z" />
    <glyph glyph-name="A" unicode="A" horiz-adv-x="642" 
d="M-12 0l322 710h136l149 -710h-142l-26 144h-237l-61 -144h-141zM237 261h170l-51 281h-2z" />
    <glyph glyph-name="B" unicode="B" horiz-adv-x="603" 
d="M52 0l87 710h238q189 0 189 -149q0 -54 -29.5 -105t-81.5 -76v-2q102 -36 102 -146q0 -112 -68.5 -172t-201.5 -60h-235zM238 419h83q47 0 77 29t30 81q0 32 -20.5 46t-64.5 14h-84zM201 120h91q61 0 93.5 31.5t32.5 88.5q0 67 -94 67h-100z" />
    <glyph glyph-name="C" unicode="C" horiz-adv-x="669" 
d="M348 -9q-128 0 -208 77.5t-80 221.5q0 180 104 304.5t268 124.5q157 0 246 -149l-111 -81q-53 100 -142 100q-98 0 -160.5 -89.5t-62.5 -207.5q0 -81 40 -126t113 -45q43 0 85.5 22t72.5 59l99 -89q-107 -122 -264 -122z" />
    <glyph glyph-name="D" unicode="D" horiz-adv-x="682" 
d="M52 0l87 710h217q143 0 217.5 -78t74.5 -216q0 -188 -102 -302t-277 -114h-217zM201 122h82q103 0 163 82t60 211q0 81 -41.5 127t-121.5 46h-85z" />
    <glyph glyph-name="E" unicode="E" horiz-adv-x="563" 
d="M51 0l87 710h415l-16 -122h-280l-21 -176h224l-15 -120h-224l-21 -170h299l-15 -122h-433z" />
    <glyph glyph-name="F" unicode="F" horiz-adv-x="551" 
d="M52 0l87 710h429l-15 -122h-294l-25 -194h245l-14 -121h-246l-32 -273h-135z" />
    <glyph glyph-name="G" unicode="G" horiz-adv-x="695" 
d="M350 -9q-129 0 -209.5 76.5t-80.5 221.5q0 180 104 305t264 125q164 0 243 -125l-109 -82q-50 78 -141 78q-94 0 -156 -87t-62 -209q0 -85 40 -131t114 -46q67 0 129 42l15 108h-135l15 118h268l-36 -306q-48 -40 -119 -64t-144 -24z" />
    <glyph glyph-name="H" unicode="H" horiz-adv-x="686" 
d="M52 0l87 710h136l-38 -309h251l38 309h136l-87 -710h-137l35 279h-251l-34 -279h-136z" />
    <glyph glyph-name="I" unicode="I" horiz-adv-x="310" 
d="M56 0l87 710h138l-87 -710h-138z" />
    <glyph glyph-name="J" unicode="J" horiz-adv-x="476" 
d="M174 -9q-51 0 -96.5 25t-72.5 70l92 93q31 -58 76 -58q79 0 97 144l55 445h137l-56 -452q-16 -135 -71 -201t-161 -66z" />
    <glyph glyph-name="K" unicode="K" horiz-adv-x="621" 
d="M662 710l-263 -317l181 -393h-155l-129 295l-85 -100l-24 -195h-135l87 710h135l-39 -319l3 -1l257 320h167z" />
    <glyph glyph-name="L" unicode="L" horiz-adv-x="535" 
d="M52 0l87 710h136l-72 -588h280l-15 -122h-416z" />
    <glyph glyph-name="M" unicode="M" horiz-adv-x="817" 
d="M52 0l87 710h135l144 -408h3l237 408h135l-87 -710h-135l52 432l-3 1l-178 -298h-88l-111 312l-2 -1l-54 -446h-135z" />
    <glyph glyph-name="N" unicode="N" horiz-adv-x="707" 
d="M52 0l87 710h132l216 -481l3 2l59 479h134l-88 -710h-135l-213 472h-3l-58 -472h-134z" />
    <glyph glyph-name="O" unicode="O" horiz-adv-x="754" 
d="M346 -9q-131 0 -208.5 80t-77.5 221q0 113 45.5 209.5t132 157t196.5 60.5q130 0 208.5 -79.5t78.5 -219.5q0 -180 -102 -304.5t-273 -124.5zM357 119q96 0 159 87.5t63 207.5q0 88 -42.5 133t-116.5 45q-93 0 -156 -89.5t-63 -205.5q0 -88 42 -133t114 -45z" />
    <glyph glyph-name="P" unicode="P" horiz-adv-x="585" 
d="M52 0l87 710h242q197 0 197 -193q0 -127 -73 -199.5t-209 -72.5h-80l-29 -245h-135zM231 366h78q59 0 93.5 37.5t34.5 105.5q0 38 -24.5 59t-63.5 21h-90z" />
    <glyph glyph-name="Q" unicode="Q" horiz-adv-x="768" 
d="M721 420q0 -164 -83 -281l62 -68l-83 -92l-66 73q-90 -61 -205 -61q-131 0 -208.5 80t-77.5 221q0 113 45.5 209.5t132.5 156.5t196 60q130 0 208.5 -79t78.5 -219zM357 119q57 0 104 33l-54 60l82 88l51 -55q39 76 39 169q0 88 -42.5 132.5t-116.5 44.5q-93 0 -156 -89
t-63 -205q0 -88 42 -133t114 -45z" />
    <glyph glyph-name="R" unicode="R" horiz-adv-x="617" 
d="M52 0l87 710h248q197 0 197 -193q0 -90 -39.5 -155t-115.5 -95l124 -267h-150l-106 245h-81l-29 -245h-135zM231 366h83q59 0 93.5 38.5t34.5 104.5q0 38 -24.5 59t-63.5 21h-95z" />
    <glyph glyph-name="S" unicode="S" horiz-adv-x="556" 
d="M261 -9q-76 0 -140.5 32.5t-101.5 91.5l98 88q22 -42 60 -65t79 -23q49 0 80 25t31 61q0 9 -2.5 17t-8.5 15.5t-11 12.5t-16.5 12.5t-19.5 12t-25.5 14.5t-27.5 16q-87 51 -115 75q-61 54 -61 130q0 96 68 154.5t169 58.5q62 0 119 -28t93 -78l-98 -84q-47 68 -121 68
q-40 0 -64.5 -22t-23.5 -53q1 -26 20.5 -44.5t72.5 -50.5q14 -8 47.5 -27t47.5 -27.5t37.5 -27t34 -34t19 -39.5t8.5 -52q0 -109 -69.5 -169t-178.5 -60z" />
    <glyph glyph-name="T" unicode="T" horiz-adv-x="543" 
d="M173 0l72 588h-173l14 122h485l-15 -122h-175l-72 -588h-136z" />
    <glyph glyph-name="U" unicode="U" horiz-adv-x="669" 
d="M324 -9q-132 0 -188.5 85t-38.5 233l50 401h136l-50 -405q-11 -84 12 -134.5t88 -50.5q130 0 152 175l51 415h136l-51 -416q-19 -158 -92 -230.5t-205 -72.5z" />
    <glyph glyph-name="V" unicode="V" horiz-adv-x="637" 
d="M229 0l-149 710h145l88 -516h2l211 516h150l-322 -710h-125z" />
    <glyph glyph-name="W" unicode="W" horiz-adv-x="942" 
d="M197 0l-113 710h141l64 -486h3l164 486h145l48 -473h3l175 473h147l-288 -710h-130l-56 493h-2l-173 -493h-128z" />
    <glyph glyph-name="X" unicode="X" horiz-adv-x="624" 
d="M-19 0l252 360l-155 350h149l108 -251h4l163 251h161l-246 -354l164 -356h-154l-113 254h-4l-174 -254h-155z" />
    <glyph glyph-name="Y" unicode="Y" horiz-adv-x="581" 
d="M191 0l39 312l-163 398h150l94 -269h3l160 269h157l-264 -398l-39 -312h-137z" />
    <glyph glyph-name="Z" unicode="Z" horiz-adv-x="581" 
d="M23 0l12 107l359 478l-1 3h-287l14 122h463l-12 -104l-366 -480l2 -4h304l-15 -122h-473z" />
    <glyph glyph-name="bracketleft" unicode="[" horiz-adv-x="332" 
d="M14 -148l108 881h223l-12 -95h-113l-85 -690h113l-11 -96h-223z" />
    <glyph glyph-name="backslash" unicode="\" horiz-adv-x="397" 
d="M288 -112l-237 854l99 44l238 -854z" />
    <glyph glyph-name="bracketright" unicode="]" horiz-adv-x="335" 
d="M-1 -148l12 96h116l84 690h-115l12 95h225l-108 -881h-226z" />
    <glyph glyph-name="asciicircum" unicode="^" horiz-adv-x="437" 
d="M82 500l146 210h91l97 -210h-103l-46 129l-83 -129h-102z" />
    <glyph glyph-name="underscore" unicode="_" horiz-adv-x="477" 
d="M-48 -113l10 86h486l-10 -86h-486z" />
    <glyph glyph-name="grave" unicode="`" horiz-adv-x="450" 
d="M237 536l-93 147l134 -1l82 -146h-123z" />
    <glyph glyph-name="a" unicode="a" horiz-adv-x="558" 
d="M198 -9q-80 0 -122 56t-42 143q0 125 67.5 215.5t168.5 90.5q80 0 122 -45l3 1l5 36h127l-60 -488h-127l10 82l-3 1q-64 -92 -149 -92zM231 104q49 0 93.5 61t57.5 160l2 16q-41 41 -98 41q-55 0 -89.5 -58t-34.5 -130q0 -42 18 -66t51 -24z" />
    <glyph glyph-name="b" unicode="b" horiz-adv-x="567" 
d="M249 -9q-118 0 -208 54l85 691h127l-39 -324l2 -1q64 85 153 85q78 0 120 -58t42 -147q0 -127 -73 -213.5t-209 -86.5zM241 105q75 0 118.5 55t43.5 134q0 37 -18.5 62.5t-50.5 25.5q-53 0 -97 -60.5t-57 -162.5l-6 -45q33 -9 67 -9z" />
    <glyph glyph-name="c" unicode="c" horiz-adv-x="487" 
d="M240 -8q-96 0 -150 54t-54 156q0 122 69.5 208t188.5 86q125 0 182 -85l-98 -74q-28 45 -84 45q-57 0 -93.5 -50.5t-36.5 -122.5q0 -50 23 -76t60 -26q55 0 99 50l99 -67q-82 -98 -205 -98z" />
    <glyph glyph-name="d" unicode="d" horiz-adv-x="562" 
d="M199 -9q-80 0 -122 56t-42 143q0 125 67 215.5t169 90.5q79 0 125 -45l3 1l35 284h127l-91 -736h-127l11 83l-3 1q-64 -93 -152 -93zM231 104q50 0 95 60t59 159l3 19q-37 40 -102 40q-54 0 -88.5 -58.5t-34.5 -129.5q0 -42 17.5 -66t50.5 -24z" />
    <glyph glyph-name="e" unicode="e" horiz-adv-x="478" 
d="M244 102q56 0 101 51l97 -63q-43 -50 -90.5 -74t-115.5 -24q-92 0 -146.5 54.5t-54.5 149.5q0 126 71.5 213t189.5 87q66 0 114 -35t48 -98q-1 -156 -298 -188q6 -36 29.5 -54.5t54.5 -18.5zM288 386q-39 0 -74 -31.5t-49 -90.5q167 19 168 87q0 35 -45 35z" />
    <glyph glyph-name="f" unicode="f" horiz-adv-x="317" 
d="M41 0l46 383h-44l13 106h45l11 92q20 164 154 164q65 0 114 -35l-33 -99q-32 21 -58 21q-22 0 -34.5 -16t-18.5 -60l-8 -67h89l-13 -106h-90l-47 -383h-126z" />
    <glyph glyph-name="g" unicode="g" horiz-adv-x="559" 
d="M195 -206q-95 0 -170 47l41 105q63 -40 130 -40q69 0 106.5 37.5t48.5 147.5l16 4l-17 6q-65 -94 -151 -94q-80 0 -122 55t-42 140q0 117 67.5 205.5t168.5 88.5q79 0 123 -44l2 1l4 36h127l-52 -427q-10 -79 -35.5 -133.5t-65 -83t-82.5 -40t-97 -11.5zM231 120
q47 0 91.5 55t57.5 141l4 25q-41 41 -97 41q-55 0 -89.5 -56t-34.5 -119q0 -41 18 -64t50 -23z" />
    <glyph glyph-name="h" unicode="h" horiz-adv-x="552" 
d="M35 0l91 736h126l-40 -325l2 -1q70 86 170 86q75 0 103.5 -49t14.5 -151l-40 -296h-127l38 276q7 55 -1.5 80.5t-38.5 25.5q-44 0 -91.5 -58.5t-58.5 -145.5l-21 -178h-127z" />
    <glyph glyph-name="i" unicode="i" horiz-adv-x="262" 
d="M181 557q-34 0 -56.5 22.5t-22.5 55.5q0 35 23 57.5t59 22.5q34 0 57 -22t23 -55q0 -35 -23.5 -58t-59.5 -23zM37 0l61 489h127l-60 -489h-128z" />
    <glyph glyph-name="j" unicode="j" horiz-adv-x="245" 
d="M167 557q-34 0 -56.5 22.5t-22.5 55.5q0 35 23 57.5t59 22.5q34 0 57 -22t23 -55q0 -35 -23.5 -58t-59.5 -23zM-8 -206q-52 0 -95 23l32 99q18 -14 41 -14t35 20t17 68l62 499h127l-63 -517q-23 -178 -156 -178z" />
    <glyph glyph-name="k" unicode="k" horiz-adv-x="516" 
d="M435 -7q-18 -2 -32 -2q-53 1 -80.5 35t-56.5 111l-10 27q-46 -30 -82 -45l-14 -119h-125l91 736h126l-59 -485l2 -1q130 85 174 239h130q-28 -138 -143 -250l21 -55q19 -50 38 -67.5t53 -22.5z" />
    <glyph glyph-name="l" unicode="l" horiz-adv-x="262" 
d="M40 0l90 736h127l-91 -736h-126z" />
    <glyph glyph-name="m" unicode="m" horiz-adv-x="824" 
d="M36 0l60 489h127l-9 -73l3 -1q69 81 157 81q90 0 110 -82h5q67 82 167 82q74 0 102.5 -49.5t14.5 -152.5l-40 -294h-127l38 276q14 106 -34 106q-37 0 -82 -56t-57 -141l-24 -185h-126l36 276q8 52 0.5 79t-33.5 27q-37 0 -83 -57t-56 -139l-22 -186h-127z" />
    <glyph glyph-name="n" unicode="n" horiz-adv-x="552" 
d="M35 0l61 489h126l-9 -78l2 -1q71 86 169 86q75 0 103.5 -49t14.5 -151l-40 -296h-126l37 276q7 55 -1.5 80.5t-38.5 25.5q-44 0 -91 -57.5t-58 -143.5l-22 -181h-127z" />
    <glyph glyph-name="o" unicode="o" horiz-adv-x="543" 
d="M241 -9q-94 0 -149.5 55t-55.5 153q0 123 71.5 210t191.5 87q95 0 151.5 -53.5t56.5 -150.5q0 -130 -69.5 -215.5t-196.5 -85.5zM248 106q57 0 94 51.5t37 124.5q0 55 -27 77.5t-62 22.5q-56 0 -91.5 -52.5t-35.5 -119.5q0 -47 23.5 -75.5t61.5 -28.5z" />
    <glyph glyph-name="p" unicode="p" horiz-adv-x="565" 
d="M11 -198l85 687h126l-10 -84l2 -2q62 93 160 93q75 0 116 -56.5t41 -142.5q0 -125 -68 -215.5t-171 -90.5q-77 0 -123 39l-3 -1l-28 -227h-127zM259 105q66 0 105 54t39 127q0 42 -17 69.5t-48 27.5q-52 0 -98.5 -60.5t-59.5 -157.5l-2 -19q26 -41 81 -41z" />
    <glyph glyph-name="q" unicode="q" horiz-adv-x="558" 
d="M316 -198l35 281l-3 1q-65 -93 -150 -93q-80 0 -122 56t-42 143q0 125 67.5 215.5t168.5 90.5q79 0 123 -44l2 1l5 36h127l-84 -687h-127zM231 104q48 0 93 61t57 155l3 21q-40 42 -98 42q-55 0 -89.5 -58.5t-34.5 -130.5q0 -42 18 -66t51 -24z" />
    <glyph glyph-name="r" unicode="r" horiz-adv-x="355" 
d="M36 0l60 489h127l-10 -80h2q63 87 152 87l-18 -142q-64 15 -107.5 -31.5t-56.5 -137.5l-22 -185h-127z" />
    <glyph glyph-name="s" unicode="s" horiz-adv-x="424" 
d="M190 -9q-54 0 -105 23t-79 61l77 79q46 -59 109 -59q27 0 45 10.5t18 28.5q0 15 -15 25.5t-55 29.5q-9 4 -13 6q-58 27 -89 61t-31 85q0 69 50 112t124 43q109 0 172 -73l-80 -79q-36 48 -92 50q-21 0 -35 -11t-14 -29q0 -26 75 -63q31 -15 48.5 -25.5t38.5 -28
t31.5 -39.5t10.5 -49q1 -74 -51 -116t-140 -42z" />
    <glyph glyph-name="t" unicode="t" horiz-adv-x="340" 
d="M169 -9q-61 0 -90 38.5t-21 110.5l30 243h-51l13 106h50l20 148l129 25l-21 -173h111l-13 -106h-111l-27 -223q-7 -50 28 -50q25 0 61 21l19 -105q-59 -35 -127 -35z" />
    <glyph glyph-name="u" unicode="u" horiz-adv-x="542" 
d="M192 -9q-76 0 -109 46.5t-19 149.5l43 302h126l-38 -277q-9 -59 1 -82.5t41 -23.5q39 0 82.5 50.5t52.5 116.5l26 216h127l-60 -489h-126l9 80h-2q-63 -89 -154 -89z" />
    <glyph glyph-name="v" unicode="v" horiz-adv-x="505" 
d="M224 -9q-174 0 -147 216l35 282h126l-32 -264q-9 -59 -1 -89t37 -30q38 0 77 48t55 146q15 91 0 189h128q19 -106 -1 -219q-25 -143 -100.5 -211t-176.5 -68z" />
    <glyph glyph-name="w" unicode="w" horiz-adv-x="773" 
d="M187 -9q-74 0 -106.5 53t-18.5 153l40 292h126l-36 -272q-14 -111 41 -111q33 0 68.5 41.5t46.5 131.5l26 210h125l-34 -281q-7 -55 2 -78.5t35 -23.5q36 0 73.5 48.5t52.5 145.5q15 85 1 189h129q18 -108 -2 -219q-25 -143 -99.5 -211t-171.5 -68q-56 0 -91.5 26.5
t-44.5 67.5h-2q-24 -43 -71.5 -68.5t-88.5 -25.5z" />
    <glyph glyph-name="x" unicode="x" horiz-adv-x="479" 
d="M-13 0l181 251l-117 238h142l58 -141h2l91 141h149l-180 -244l121 -245h-141l-63 144h-2l-100 -144h-141z" />
    <glyph glyph-name="y" unicode="y" horiz-adv-x="540" 
d="M385 489h125l-52 -426q-32 -269 -270 -269q-97 0 -172 47l40 103q64 -41 128 -41q63 0 99.5 34.5t49.5 131.5l1 10l-2 1q-64 -89 -157 -89q-155 0 -127 196l41 302h126l-37 -277q-7 -59 2.5 -82t40.5 -24q41 0 85.5 53t52.5 121z" />
    <glyph glyph-name="z" unicode="z" horiz-adv-x="458" 
d="M372 -28q-105 28 -365 28l10 87l241 296v1h-187l12 105h359l-9 -87l-245 -296v-2q130 -4 216 -31z" />
    <glyph glyph-name="braceleft" unicode="{" horiz-adv-x="341" 
d="M183 -147q-46 0 -74 36t-21 92l24 187q2 21 2 37.5t-16 27t-50 11.5l7 95q26 1 44 8t26.5 20.5t11.5 24.5t5 27l24 191q6 53 39 88t81 35h74l-10 -85h-21q-27 0 -41.5 -21t-17.5 -46l-24 -185q-10 -83 -59 -105v-2q24 -12 32 -33t0 -75l-21 -175q-3 -37 4.5 -52.5
t35.5 -15.5h25l-11 -85h-69z" />
    <glyph glyph-name="bar" unicode="|" horiz-adv-x="323" 
d="M65 -115l104 852h106l-104 -852h-106z" />
    <glyph glyph-name="braceright" unicode="}" horiz-adv-x="342" 
d="M-7 -147l11 85h21q29 0 42.5 18.5t18.5 54.5l21 176q6 55 18.5 74.5t42.5 30.5v2q-45 23 -34 107l22 184q7 63 -40 63h-24l10 85h68q49 0 75.5 -37.5t20.5 -91.5l-24 -190q-1 -18 -2 -34t15.5 -28t50.5 -13l-8 -95q-35 -1 -54.5 -14t-24.5 -27.5t-8 -39.5l-22 -186
q-7 -57 -41.5 -90.5t-80.5 -33.5h-74z" />
    <glyph glyph-name="asciitilde" unicode="~" horiz-adv-x="532" 
d="M349 197q-37 0 -83 23q-43 23 -60 23q-39 0 -69 -49l-86 41q25 56 61.5 90t80.5 34q12 0 22.5 -1.5t21 -5.5t15 -6t15.5 -8l11 -6q35 -19 57 -19q39 0 69 48l86 -34q-23 -58 -60.5 -94t-80.5 -36z" />
    <glyph glyph-name="uni00A0" unicode="&#xa0;" horiz-adv-x="192" 
 />
    <glyph glyph-name="exclamdown" unicode="&#xa1;" horiz-adv-x="276" 
d="M150 497q35 0 56.5 -22t21.5 -55q0 -35 -22.5 -58t-58.5 -23q-34 0 -56 22t-22 56q0 35 22.5 57.5t58.5 22.5zM179 257l-39 -505h-137l84 505h92z" />
    <glyph glyph-name="cent" unicode="&#xa2;" horiz-adv-x="498" 
d="M252 160q57 0 103 50l99 -66q-70 -81 -159 -94l-12 -98h-85l12 96q-77 11 -121 64t-44 141q0 111 61 194.5t162 99.5l11 96h85l-11 -96q90 -14 132 -79l-98 -73q-28 42 -80 42q-58 -1 -96 -52.5t-38 -125.5q0 -48 24 -73.5t55 -25.5z" />
    <glyph glyph-name="sterling" unicode="&#xa3;" horiz-adv-x="516" 
d="M15 0l15 121h56l24 197h-47l11 92h47l7 54q15 121 73 176t136 55q54 0 101 -27t74 -74l-77 -84q-16 29 -38.5 45t-44.5 16q-76 0 -91 -122l-5 -39h133l-11 -92h-132l-24 -197h251l-15 -121h-443z" />
    <glyph glyph-name="currency" unicode="&#xa4;" horiz-adv-x="470" 
d="M421 411q0 -67 -38 -122l61 -79l-64 -58l-62 78q-41 -23 -90 -23q-48 0 -84 22l-76 -76l-54 58l79 78q-13 27 -13 66q0 76 39 132l-62 77l66 58l60 -75q41 23 89 23q49 0 85 -25l77 78l54 -58l-81 -81q14 -33 14 -73zM239 294q41 0 68 31.5t27 74.5q0 38 -20.5 61
t-51.5 23q-41 0 -68 -33t-27 -80q0 -35 19.5 -56t52.5 -21z" />
    <glyph glyph-name="yen" unicode="&#xa5;" horiz-adv-x="551" 
d="M599 687l-203 -324h92l-9 -76h-130l-7 -59h130l-10 -76h-130l-19 -152h-138l19 152h-134l9 76h135l7 59h-134l9 76h97l-121 324h154l79 -266h3l141 266h160z" />
    <glyph glyph-name="brokenbar" unicode="&#xa6;" horiz-adv-x="323" 
d="M126 385l43 352h106l-43 -352h-106zM65 -114l43 352h106l-43 -352h-106z" />
    <glyph glyph-name="section" unicode="&#xa7;" horiz-adv-x="514" 
d="M321 436q81 -39 104 -59q41 -37 41 -95q0 -99 -86 -145q39 -36 39 -96q0 -86 -58.5 -140t-149.5 -54q-123 0 -196 97l80 85q24 -34 57 -50.5t62 -16.5q31 0 50.5 18.5t19.5 45.5q0 24 -19.5 39t-75.5 42q-64 31 -97.5 64t-33.5 93q0 96 85 140q-41 39 -41 101
q0 81 56.5 132t142.5 51q55 0 106.5 -22.5t80.5 -57.5l-78 -86q-51 48 -105 48q-33 0 -50 -15.5t-17 -41.5q0 -21 17 -36.5t66 -40.5zM260 205q5 -2 14 -6.5l13 -6.5q52 16 52 70q0 23 -16 37t-67 38l-23 11q-23 -6 -35.5 -25.5t-12.5 -42.5t16 -38t59 -37z" />
    <glyph glyph-name="dieresis" unicode="&#xa8;" horiz-adv-x="479" 
d="M183 537q-34 0 -56.5 22.5t-22.5 55.5q0 35 23 57.5t59 22.5q34 0 56.5 -22t22.5 -55q0 -35 -23 -58t-59 -23zM385 537q-35 0 -57.5 22.5t-22.5 55.5q0 35 23.5 57.5t59.5 22.5q34 0 56.5 -22t22.5 -55q0 -35 -23 -58t-59 -23z" />
    <glyph glyph-name="copyright" unicode="&#xa9;" horiz-adv-x="722" 
d="M359 -1q-132 0 -224.5 94t-92.5 226q0 131 93 225.5t225 94.5q133 0 225 -94t92 -226t-92.5 -226t-225.5 -94zM359 83q98 0 165.5 69t67.5 167t-67 166.5t-165 68.5q-99 0 -166 -69.5t-67 -167.5q0 -97 67 -165.5t165 -68.5zM366 153q-70 0 -117.5 43t-47.5 120
q0 70 44 117t121 47q78 0 130 -62l-55 -47q-31 37 -75 37q-37 0 -61.5 -25t-24.5 -67q0 -39 23.5 -64.5t62.5 -25.5q47 0 75 36l55 -48q-50 -61 -130 -61z" />
    <glyph glyph-name="ordfeminine" unicode="&#xaa;" horiz-adv-x="364" 
d="M158 388q-42 0 -71 31.5t-29 90.5q0 76 45 129t107 53q42 0 65 -25h2l3 20h87l-36 -294h-88l6 43h-3q-39 -48 -88 -48zM182 469q27 0 53 30.5t33 81.5l1 9q-14 20 -48 20q-31 0 -51.5 -30t-20.5 -67q0 -44 33 -44z" />
    <glyph glyph-name="guillemotleft" unicode="&#xab;" horiz-adv-x="489" 
d="M122 39l-81 208l134 211h119l-133 -211l81 -208h-120zM319 39l-82 208l135 211h118l-133 -211l80 -208h-118z" />
    <glyph glyph-name="logicalnot" unicode="&#xac;" horiz-adv-x="509" 
d="M337 148l20 161h-300l13 110h411l-33 -271h-111z" />
    <glyph glyph-name="registered" unicode="&#xae;" horiz-adv-x="722" 
d="M360 639q133 0 225 -94t92 -226t-92.5 -226t-225.5 -94q-132 0 -224.5 94t-92.5 226q0 131 93 225.5t225 94.5zM359 83q98 0 165.5 69t67.5 167t-67 166.5t-165 68.5q-99 0 -166 -69.5t-67 -167.5q0 -97 67 -165.5t165 -68.5zM485 372q0 -73 -60 -98l76 -115h-86l-67 105
h-30v-105h-72v324h125q57 0 85.5 -30.5t28.5 -80.5zM319 416v-86h35q26 0 40 11.5t14 31.5q0 19 -13.5 31t-38.5 12h-37z" />
    <glyph glyph-name="macron" unicode="&#xaf;" horiz-adv-x="399" 
d="M100 563l12 102h279l-13 -102h-278z" />
    <glyph glyph-name="degree" unicode="&#xb0;" horiz-adv-x="371" 
d="M209 441q-55 0 -86 31t-31 83q0 68 42.5 115.5t108.5 47.5q52 0 85 -33t33 -88q0 -64 -42.5 -110t-109.5 -46zM218 520q27 0 45 20t18 49q0 23 -12.5 37t-34.5 14q-27 0 -44.5 -21t-17.5 -53q0 -46 46 -46z" />
    <glyph glyph-name="plusminus" unicode="&#xb1;" horiz-adv-x="549" 
d="M212 176l21 180h-157l14 112h158l21 181h114l-23 -181h158l-14 -112h-158l-22 -180h-112zM32 -2l14 112h428l-13 -112h-429z" />
    <glyph glyph-name="uni00B2" unicode="&#xb2;" horiz-adv-x="313" 
d="M48 436l6 67l128 130q20 22 30 33.5t20 30t10 34.5q0 30 -28 30q-31 0 -59 -40l-71 58q23 34 60.5 55t82.5 21q53 0 85.5 -30t32.5 -79q0 -45 -19 -79.5t-60 -76.5l-62 -61l1 -2h118l-11 -91h-264z" />
    <glyph glyph-name="uni00B3" unicode="&#xb3;" horiz-adv-x="319" 
d="M186 429q-54 0 -91 28.5t-46 71.5l93 31q6 -43 38 -43q22 0 36 17.5t14 41.5q0 33 -39 33h-26l9 74h28q19 0 32.5 16.5t13.5 37.5q0 13 -7.5 20.5t-19.5 7.5q-33 0 -48 -37l-79 49q16 34 52.5 56t79.5 22q53 0 85.5 -27t32.5 -75q0 -69 -58 -104v-2q48 -26 48 -83
q0 -62 -42 -98.5t-106 -36.5z" />
    <glyph glyph-name="acute" unicode="&#xb4;" horiz-adv-x="447" 
d="M159 536l119 146l134 1l-129 -147h-124z" />
    <glyph glyph-name="uni00B5" unicode="&#xb5;" horiz-adv-x="563" 
d="M514 104l18 -87q-36 -26 -92 -26q-85 0 -98 82h-1q-50 -82 -121 -82q-47 0 -69 32l-2 -1q7 -67 0 -119l-13 -101h-125l84 687h126l-35 -281q-12 -102 50 -102q39 0 71.5 35.5t41.5 104.5l29 243h127l-41 -335q-5 -30 0 -41t24 -11q8 0 26 2z" />
    <glyph glyph-name="paragraph" unicode="&#xb6;" horiz-adv-x="526" 
d="M315 -152l91 740h-57l-72 -588h-79l39 303q-76 1 -123 41t-47 110q0 90 62 153t169 63h194l-101 -822h-76z" />
    <glyph glyph-name="periodcentered" unicode="&#xb7;" horiz-adv-x="278" 
d="M147 165q-35 0 -56.5 22t-21.5 55q0 35 22.5 58t58.5 23q34 0 56 -22t22 -56q0 -35 -22.5 -57.5t-58.5 -22.5z" />
    <glyph glyph-name="cedilla" unicode="&#xb8;" horiz-adv-x="294" 
d="M62 -192q-21 0 -51 6l3 58q15 -6 37 -6q56 0 56 36q0 25 -67 25l2 37l25 42h70l-25 -36l1 -1q75 -3 75 -67q0 -45 -34 -69.5t-92 -24.5z" />
    <glyph glyph-name="uni00B9" unicode="&#xb9;" horiz-adv-x="272" 
d="M212 848h78l-51 -412h-100l36 282l-57 -39l-41 77z" />
    <glyph glyph-name="ordmasculine" unicode="&#xba;" horiz-adv-x="332" 
d="M184 389q-57 0 -90.5 32.5t-33.5 92.5q0 74 43 126t119 52q55 0 89 -31t34 -92q0 -74 -41.5 -127t-119.5 -53zM190 470q26 0 45 27t19 64q0 27 -12.5 38.5t-26.5 11.5q-27 0 -45.5 -27t-18.5 -61q0 -24 11 -38.5t28 -14.5z" />
    <glyph glyph-name="guillemotright" unicode="&#xbb;" horiz-adv-x="488" 
d="M-1 39l133 208l-82 211h119l83 -211l-132 -208h-121zM198 39l132 208l-81 211h119l83 -211l-133 -208h-120z" />
    <glyph glyph-name="onequarter" unicode="&#xbc;" horiz-adv-x="748" 
d="M520 728l96 -45l-371 -706l-95 44zM228 299h-100l36 282l-57 -39l-41 77l135 92h78zM673 149h48l-10 -86h-49l-7 -63h-101l8 63h-145l6 61l203 288h79zM524 141h63l16 121z" />
    <glyph glyph-name="onehalf" unicode="&#xbd;" horiz-adv-x="784" 
d="M520 728l96 -45l-371 -706l-95 44zM228 299h-100l36 282l-57 -39l-41 77l135 92h78zM626 93l1 -2h118l-11 -91h-264l6 67l128 130q20 22 30 33.5t20 30t10 34.5q0 30 -28 30q-31 0 -59 -40l-71 58q23 34 60.5 55t82.5 21q53 0 85.5 -30t32.5 -79q0 -45 -19 -79.5
t-60 -76.5z" />
    <glyph glyph-name="threequarters" unicode="&#xbe;" horiz-adv-x="779" 
d="M549 728l96 -45l-371 -706l-95 44zM323 427q0 -62 -42 -98.5t-106 -36.5q-54 0 -91 28.5t-46 71.5l93 31q6 -43 38 -43q22 0 36 17.5t14 41.5q0 33 -39 33h-26l9 74h28q19 0 32.5 16.5t13.5 37.5q0 13 -7.5 20.5t-19.5 7.5q-33 0 -48 -37l-79 49q16 34 52.5 56t79.5 22
q53 0 85.5 -27t32.5 -75q0 -69 -58 -104v-2q48 -26 48 -83zM705 149h48l-10 -86h-49l-7 -63h-101l8 63h-145l6 61l203 288h79zM556 141h63l16 121z" />
    <glyph glyph-name="questiondown" unicode="&#xbf;" horiz-adv-x="418" 
d="M267 497q35 0 56.5 -22t21.5 -55q0 -35 -22.5 -58t-58.5 -23q-34 0 -56 22t-22 56q0 35 22.5 57.5t58.5 22.5zM312 258l-5 -46q-3 -26 -18 -53t-28.5 -42.5t-47.5 -51.5q-35 -37 -53 -66t-18 -66q0 -32 16 -50t45 -18q48 0 90 53l81 -81q-34 -44 -88.5 -69t-115.5 -25
q-73 0 -121.5 42t-48.5 119q0 104 107 203q74 68 81 106l10 45h114z" />
    <glyph glyph-name="Agrave" unicode="&#xc0;" horiz-adv-x="642" 
d="M330 769l-96 135l134 -1l83 -134h-121zM-12 0l322 710h136l149 -710h-142l-26 144h-237l-61 -144h-141zM237 261h170l-51 281h-2z" />
    <glyph glyph-name="Aacute" unicode="&#xc1;" horiz-adv-x="642" 
d="M330 769l115 134l136 1l-130 -135h-121zM-12 0l322 710h136l149 -710h-142l-26 144h-237l-61 -144h-141zM237 261h170l-51 281h-2z" />
    <glyph glyph-name="Acircumflex" unicode="&#xc2;" horiz-adv-x="642" 
d="M231 769l115 135h125l79 -135h-113l-37 66h-3l-54 -66h-112zM-12 0l322 710h136l149 -710h-142l-26 144h-237l-61 -144h-141zM237 261h170l-51 281h-2z" />
    <glyph glyph-name="Atilde" unicode="&#xc3;" horiz-adv-x="642" 
d="M472 768q-34 0 -78 31q-28 21 -45 21q-33 0 -57 -53l-75 38q51 103 121 103q8 0 15.5 -0.5t14.5 -3t11 -3.5t11 -5t8.5 -5t9.5 -6l7 -5q30 -22 45 -22q35 0 59 51l74 -29q-21 -51 -52.5 -81.5t-68.5 -30.5zM-12 0l322 710h136l149 -710h-142l-26 144h-237l-61 -144h-141z
M237 261h170l-51 281h-2z" />
    <glyph glyph-name="Adieresis" unicode="&#xc4;" horiz-adv-x="642" 
d="M296 767q-34 0 -56.5 22.5t-22.5 55.5q0 35 23 57.5t59 22.5q34 0 56.5 -22t22.5 -55q0 -35 -23 -58t-59 -23zM498 767q-35 0 -57.5 22.5t-22.5 55.5q0 35 23.5 57.5t59.5 22.5q34 0 56.5 -22t22.5 -55q0 -35 -23 -58t-59 -23zM-12 0l322 710h136l149 -710h-142l-26 144
h-237l-61 -144h-141zM237 261h170l-51 281h-2z" />
    <glyph glyph-name="Aring" unicode="&#xc5;" horiz-adv-x="642" 
d="M397 756q-44 0 -73.5 29.5t-29.5 73.5q0 46 30.5 76t76.5 30q44 0 73.5 -29t29.5 -73q0 -46 -30.5 -76.5t-76.5 -30.5zM399 823q16 0 27 11t11 27t-10.5 26.5t-26.5 10.5t-27 -11t-11 -27t10.5 -26.5t26.5 -10.5zM-12 0l322 710h136l149 -710h-142l-26 144h-237l-61 -144
h-141zM237 261h170l-51 281h-2z" />
    <glyph glyph-name="AE" unicode="&#xc6;" horiz-adv-x="872" 
d="M-26 0l400 710h488l-15 -122h-283l-23 -175h231l-15 -120h-230l-21 -171h302l-15 -122h-434l18 144h-177l-79 -144h-147zM262 261h130l36 301h-2z" />
    <glyph glyph-name="Ccedilla" unicode="&#xc7;" horiz-adv-x="669" 
d="M355 121q43 0 85.5 22t72.5 59l99 -89q-103 -118 -253 -122l-15 -21l1 -1q75 -3 75 -67q0 -45 -34 -69.5t-92 -24.5q-21 0 -51 6l3 58q15 -6 37 -6q56 0 56 36q0 25 -67 25l2 37l18 31q-106 16 -169 91.5t-63 203.5q0 180 104 304.5t268 124.5q157 0 246 -149l-111 -81
q-53 100 -142 100q-98 0 -160.5 -89.5t-62.5 -207.5q0 -81 40 -126t113 -45z" />
    <glyph glyph-name="Egrave" unicode="&#xc8;" horiz-adv-x="563" 
d="M335 768l-96 135l134 -1l83 -134h-121zM51 0l87 710h415l-16 -122h-280l-21 -176h224l-15 -120h-224l-21 -170h299l-15 -122h-433z" />
    <glyph glyph-name="Eacute" unicode="&#xc9;" horiz-adv-x="563" 
d="M256 768l115 134l136 1l-130 -135h-121zM51 0l87 710h415l-16 -122h-280l-21 -176h224l-15 -120h-224l-21 -170h299l-15 -122h-433z" />
    <glyph glyph-name="Ecircumflex" unicode="&#xca;" horiz-adv-x="563" 
d="M198 768l115 135h125l79 -135h-113l-37 66h-3l-54 -66h-112zM51 0l87 710h415l-16 -122h-280l-21 -176h224l-15 -120h-224l-21 -170h299l-15 -122h-433z" />
    <glyph glyph-name="Edieresis" unicode="&#xcb;" horiz-adv-x="563" 
d="M263 766q-34 0 -56.5 22.5t-22.5 55.5q0 35 23 57.5t59 22.5q34 0 56.5 -22t22.5 -55q0 -35 -23 -58t-59 -23zM465 766q-35 0 -57.5 22.5t-22.5 55.5q0 35 23.5 57.5t59.5 22.5q34 0 56.5 -22t22.5 -55q0 -35 -23 -58t-59 -23zM51 0l87 710h415l-16 -122h-280l-21 -176
h224l-15 -120h-224l-21 -170h299l-15 -122h-433z" />
    <glyph glyph-name="Igrave" unicode="&#xcc;" horiz-adv-x="310" 
d="M163 769l-96 135l134 -1l83 -134h-121zM56 0l87 710h138l-87 -710h-138z" />
    <glyph glyph-name="Iacute" unicode="&#xcd;" horiz-adv-x="310" 
d="M161 769l115 134l136 1l-130 -135h-121zM56 0l87 710h138l-87 -710h-138z" />
    <glyph glyph-name="Icircumflex" unicode="&#xce;" horiz-adv-x="310" 
d="M59 768l115 135h125l79 -135h-113l-37 66h-3l-54 -66h-112zM56 0l87 710h138l-87 -710h-138z" />
    <glyph glyph-name="Idieresis" unicode="&#xcf;" horiz-adv-x="310" 
d="M124 766q-34 0 -56.5 22.5t-22.5 55.5q0 35 23 57.5t59 22.5q34 0 56.5 -22t22.5 -55q0 -35 -23 -58t-59 -23zM326 766q-35 0 -57.5 22.5t-22.5 55.5q0 35 23.5 57.5t59.5 22.5q34 0 56.5 -22t22.5 -55q0 -35 -23 -58t-59 -23zM56 0l87 710h138l-87 -710h-138z" />
    <glyph glyph-name="Eth" unicode="&#xd0;" horiz-adv-x="683" 
d="M358 710q143 0 217.5 -78t74.5 -216q0 -188 -102 -302t-277 -114h-217l36 294h-53l16 115h51l37 301h217zM285 122q103 0 163 82t60 211q0 81 -41.5 127t-121.5 46h-85l-22 -179h129l-16 -115h-127l-21 -172h82z" />
    <glyph glyph-name="Ntilde" unicode="&#xd1;" horiz-adv-x="707" 
d="M507 768q-34 0 -78 31q-28 21 -45 21q-33 0 -57 -53l-75 38q51 103 121 103q8 0 15.5 -0.5t14.5 -3t11 -3.5t11 -5t8.5 -5t8.5 -6l8 -5q30 -22 45 -22q35 0 59 51l74 -29q-21 -51 -52.5 -81.5t-68.5 -30.5zM52 0l87 710h132l216 -481l3 2l59 479h134l-88 -710h-135
l-213 472h-3l-58 -472h-134z" />
    <glyph glyph-name="Ograve" unicode="&#xd2;" horiz-adv-x="754" 
d="M400 769l-96 135l134 -1l83 -134h-121zM346 -9q-131 0 -208.5 80t-77.5 221q0 113 45.5 209.5t132 157t196.5 60.5q130 0 208.5 -79.5t78.5 -219.5q0 -180 -102 -304.5t-273 -124.5zM357 119q96 0 159 87.5t63 207.5q0 88 -42.5 133t-116.5 45q-93 0 -156 -89.5
t-63 -205.5q0 -88 42 -133t114 -45z" />
    <glyph glyph-name="Oacute" unicode="&#xd3;" horiz-adv-x="754" 
d="M388 769l115 134l136 1l-130 -135h-121zM346 -9q-131 0 -208.5 80t-77.5 221q0 113 45.5 209.5t132 157t196.5 60.5q130 0 208.5 -79.5t78.5 -219.5q0 -180 -102 -304.5t-273 -124.5zM357 119q96 0 159 87.5t63 207.5q0 88 -42.5 133t-116.5 45q-93 0 -156 -89.5
t-63 -205.5q0 -88 42 -133t114 -45z" />
    <glyph glyph-name="Ocircumflex" unicode="&#xd4;" horiz-adv-x="754" 
d="M307 769l115 135h125l79 -135h-113l-37 66h-3l-54 -66h-112zM346 -9q-131 0 -208.5 80t-77.5 221q0 113 45.5 209.5t132 157t196.5 60.5q130 0 208.5 -79.5t78.5 -219.5q0 -180 -102 -304.5t-273 -124.5zM357 119q96 0 159 87.5t63 207.5q0 88 -42.5 133t-116.5 45
q-93 0 -156 -89.5t-63 -205.5q0 -88 42 -133t114 -45z" />
    <glyph glyph-name="Otilde" unicode="&#xd5;" horiz-adv-x="754" 
d="M548 768q-34 0 -78 31q-28 21 -45 21q-33 0 -57 -53l-75 38q51 103 121 103q8 0 15.5 -0.5t14.5 -3t11 -3.5t11 -5t8.5 -5t9.5 -6l7 -5q30 -22 45 -22q35 0 59 51l74 -29q-21 -51 -52.5 -81.5t-68.5 -30.5zM346 -9q-131 0 -208.5 80t-77.5 221q0 113 45.5 209.5t132 157
t196.5 60.5q130 0 208.5 -79.5t78.5 -219.5q0 -180 -102 -304.5t-273 -124.5zM357 119q96 0 159 87.5t63 207.5q0 88 -42.5 133t-116.5 45q-93 0 -156 -89.5t-63 -205.5q0 -88 42 -133t114 -45z" />
    <glyph glyph-name="Odieresis" unicode="&#xd6;" horiz-adv-x="754" 
d="M372 767q-34 0 -56.5 22.5t-22.5 55.5q0 35 23 57.5t59 22.5q34 0 56.5 -22t22.5 -55q0 -35 -23 -58t-59 -23zM574 767q-35 0 -57.5 22.5t-22.5 55.5q0 35 23.5 57.5t59.5 22.5q34 0 56.5 -22t22.5 -55q0 -35 -23 -58t-59 -23zM346 -9q-131 0 -208.5 80t-77.5 221
q0 113 45.5 209.5t132 157t196.5 60.5q130 0 208.5 -79.5t78.5 -219.5q0 -180 -102 -304.5t-273 -124.5zM357 119q96 0 159 87.5t63 207.5q0 88 -42.5 133t-116.5 45q-93 0 -156 -89.5t-63 -205.5q0 -88 42 -133t114 -45z" />
    <glyph glyph-name="multiply" unicode="&#xd7;" horiz-adv-x="494" 
d="M107 62l-72 78l137 137l-104 138l89 78l102 -137l136 137l73 -78l-138 -139l103 -137l-87 -77l-103 137z" />
    <glyph glyph-name="Oslash" unicode="&#xd8;" horiz-adv-x="756" 
d="M752 681l-76 -81q47 -74 47 -180q0 -180 -102 -304.5t-273 -124.5q-115 0 -189 62l-79 -84l-60 61l84 88q-42 73 -42 174q0 113 45.5 209.5t132 157t196.5 60.5q109 0 183 -57l73 78zM203 297q0 -34 8 -66l312 330q-38 31 -101 31q-93 0 -156 -89.5t-63 -205.5zM581 414
q0 40 -10 75l-316 -335q41 -35 104 -35q96 0 159 87.5t63 207.5z" />
    <glyph glyph-name="Ugrave" unicode="&#xd9;" horiz-adv-x="669" 
d="M362 769l-96 135l134 -1l83 -134h-121zM324 -9q-132 0 -188.5 85t-38.5 233l50 401h136l-50 -405q-11 -84 12 -134.5t88 -50.5q130 0 152 175l51 415h136l-51 -416q-19 -158 -92 -230.5t-205 -72.5z" />
    <glyph glyph-name="Uacute" unicode="&#xda;" horiz-adv-x="669" 
d="M349 769l115 134l136 1l-130 -135h-121zM324 -9q-132 0 -188.5 85t-38.5 233l50 401h136l-50 -405q-11 -84 12 -134.5t88 -50.5q130 0 152 175l51 415h136l-51 -416q-19 -158 -92 -230.5t-205 -72.5z" />
    <glyph glyph-name="Ucircumflex" unicode="&#xdb;" horiz-adv-x="669" 
d="M262 769l115 135h125l79 -135h-113l-37 66h-3l-54 -66h-112zM324 -9q-132 0 -188.5 85t-38.5 233l50 401h136l-50 -405q-11 -84 12 -134.5t88 -50.5q130 0 152 175l51 415h136l-51 -416q-19 -158 -92 -230.5t-205 -72.5z" />
    <glyph glyph-name="Udieresis" unicode="&#xdc;" horiz-adv-x="669" 
d="M327 767q-34 0 -56.5 22.5t-22.5 55.5q0 35 23 57.5t59 22.5q34 0 56.5 -22t22.5 -55q0 -35 -23 -58t-59 -23zM529 767q-35 0 -57.5 22.5t-22.5 55.5q0 35 23.5 57.5t59.5 22.5q34 0 56.5 -22t22.5 -55q0 -35 -23 -58t-59 -23zM324 -9q-132 0 -188.5 85t-38.5 233l50 401
h136l-50 -405q-11 -84 12 -134.5t88 -50.5q130 0 152 175l51 415h136l-51 -416q-19 -158 -92 -230.5t-205 -72.5z" />
    <glyph glyph-name="Yacute" unicode="&#xdd;" horiz-adv-x="581" 
d="M288 769l115 134l136 1l-130 -135h-121zM191 0l39 312l-163 398h150l94 -269h3l160 269h157l-264 -398l-39 -312h-137z" />
    <glyph glyph-name="Thorn" unicode="&#xde;" horiz-adv-x="605" 
d="M52 0l87 710h135l-16 -125h124q199 0 199 -193q0 -125 -73.5 -198t-207.5 -73h-99l-14 -121h-135zM216 242h97q58 0 92.5 38t34.5 104q0 38 -24.5 59t-63.5 21h-109z" />
    <glyph glyph-name="germandbls" unicode="&#xdf;" horiz-adv-x="625" 
d="M414 -9q-55 0 -105 22.5t-79 61.5l79 78q44 -58 103 -58q26 0 43.5 12.5t17.5 31.5q0 15 -13 26t-51 32l-3 1.5l-3 1.5t-3 2q-57 32 -86.5 63.5t-29.5 78.5q0 23 10.5 45t20.5 33.5t33 34t30 29.5q44 44 44 88q1 27 -20.5 43t-58.5 16q-102 0 -117 -116l-63 -517h-127
l65 530q13 108 76.5 161.5t159.5 53.5q102 0 158 -44.5t54 -122.5q0 -45 -20 -77t-57 -65q-3 -3 -11.5 -10t-12 -10t-10 -9t-9.5 -9.5t-7 -9t-6 -9t-3.5 -8.5t-1.5 -9q0 -25 61 -63q32 -19 41.5 -24.5t32 -22t30 -28.5t15 -31.5t7.5 -43.5q0 -76 -50.5 -117t-133.5 -41z" />
    <glyph glyph-name="agrave" unicode="&#xe0;" horiz-adv-x="558" 
d="M280 557l-93 147l134 -1l82 -146h-123zM198 -9q-80 0 -122 56t-42 143q0 125 67.5 215.5t168.5 90.5q80 0 122 -45l3 1l5 36h127l-60 -488h-127l10 82l-3 1q-64 -92 -149 -92zM231 104q49 0 93.5 61t57.5 160l2 16q-41 41 -98 41q-55 0 -89.5 -58t-34.5 -130
q0 -42 18 -66t51 -24z" />
    <glyph glyph-name="aacute" unicode="&#xe1;" horiz-adv-x="558" 
d="M249 556l119 146l134 1l-129 -147h-124zM198 -9q-80 0 -122 56t-42 143q0 125 67.5 215.5t168.5 90.5q80 0 122 -45l3 1l5 36h127l-60 -488h-127l10 82l-3 1q-64 -92 -149 -92zM231 104q49 0 93.5 61t57.5 160l2 16q-41 41 -98 41q-55 0 -89.5 -58t-34.5 -130
q0 -42 18 -66t51 -24z" />
    <glyph glyph-name="acircumflex" unicode="&#xe2;" horiz-adv-x="558" 
d="M166 554l116 149h116l85 -149h-116l-30 75h-2l-49 -75h-120zM198 -9q-80 0 -122 56t-42 143q0 125 67.5 215.5t168.5 90.5q80 0 122 -45l3 1l5 36h127l-60 -488h-127l10 82l-3 1q-64 -92 -149 -92zM231 104q49 0 93.5 61t57.5 160l2 16q-41 41 -98 41q-55 0 -89.5 -58
t-34.5 -130q0 -42 18 -66t51 -24z" />
    <glyph glyph-name="atilde" unicode="&#xe3;" horiz-adv-x="558" 
d="M407 552q-11 0 -20.5 2t-18 6t-13.5 7t-13.5 9t-10.5 7q-27 20 -45 20q-36 0 -60 -52l-75 38q48 112 123 112q11 0 21 -1.5t18 -5.5t12.5 -6.5t12.5 -8t10 -6.5q31 -22 45 -22q36 0 60 52l75 -30q-21 -57 -52.5 -89t-68.5 -32zM198 -9q-80 0 -122 56t-42 143
q0 125 67.5 215.5t168.5 90.5q80 0 122 -45l3 1l5 36h127l-60 -488h-127l10 82l-3 1q-64 -92 -149 -92zM231 104q49 0 93.5 61t57.5 160l2 16q-41 41 -98 41q-55 0 -89.5 -58t-34.5 -130q0 -42 18 -66t51 -24z" />
    <glyph glyph-name="adieresis" unicode="&#xe4;" horiz-adv-x="558" 
d="M233 557q-34 0 -56.5 22.5t-22.5 55.5q0 35 23 57.5t59 22.5q34 0 56.5 -22t22.5 -55q0 -35 -23 -58t-59 -23zM435 557q-35 0 -57.5 22.5t-22.5 55.5q0 35 23.5 57.5t59.5 22.5q34 0 56.5 -22t22.5 -55q0 -35 -23 -58t-59 -23zM198 -9q-80 0 -122 56t-42 143
q0 125 67.5 215.5t168.5 90.5q80 0 122 -45l3 1l5 36h127l-60 -488h-127l10 82l-3 1q-64 -92 -149 -92zM231 104q49 0 93.5 61t57.5 160l2 16q-41 41 -98 41q-55 0 -89.5 -58t-34.5 -130q0 -42 18 -66t51 -24z" />
    <glyph glyph-name="aring" unicode="&#xe5;" horiz-adv-x="558" 
d="M336 539q-44 0 -73.5 29.5t-29.5 73.5q0 46 30.5 76t76.5 30q44 0 73.5 -29t29.5 -73q0 -46 -30.5 -76.5t-76.5 -30.5zM338 606q16 0 27 11t11 27t-10.5 26.5t-26.5 10.5t-27 -11t-11 -27t10.5 -26.5t26.5 -10.5zM198 -9q-80 0 -122 56t-42 143q0 125 67.5 215.5
t168.5 90.5q80 0 122 -45l3 1l5 36h127l-60 -488h-127l10 82l-3 1q-64 -92 -149 -92zM231 104q49 0 93.5 61t57.5 160l2 16q-41 41 -98 41q-55 0 -89.5 -58t-34.5 -130q0 -42 18 -66t51 -24z" />
    <glyph glyph-name="ae" unicode="&#xe6;" horiz-adv-x="693" 
d="M483 103q50 0 89 50l96 -64q-74 -96 -190 -96q-128 0 -166 99q-49 -101 -143 -101q-68 0 -108.5 51t-38.5 133q2 131 73 222.5t187 91.5q72 0 121 -30q55 37 129 37q64 0 108.5 -35t44.5 -95q0 -81 -79.5 -130.5t-211.5 -61.5q7 -35 31.5 -53t57.5 -18zM519 386
q-35 0 -70.5 -34.5t-49.5 -91.5q161 23 161 96q0 12 -10.5 21t-30.5 9zM190 101q18 0 34 15.5t28.5 47.5t19.5 53.5t17 59.5q14 56 39 100q-16 3 -30 3q-66 0 -107 -62.5t-41 -147.5q0 -33 11.5 -51t28.5 -18z" />
    <glyph glyph-name="ccedilla" unicode="&#xe7;" horiz-adv-x="487" 
d="M247 107q55 0 99 50l99 -67q-78 -93 -189 -98l-16 -22l1 -1q75 -3 75 -67q0 -45 -34 -69.5t-92 -24.5q-21 0 -51 6l3 58q15 -6 37 -6q56 0 56 36q0 25 -67 25l2 37l19 32q-73 14 -113 66t-40 140q0 122 69.5 208t188.5 86q125 0 182 -85l-98 -74q-28 45 -84 45
q-57 0 -93.5 -50.5t-36.5 -122.5q0 -50 23 -76t60 -26z" />
    <glyph glyph-name="egrave" unicode="&#xe8;" horiz-adv-x="478" 
d="M380 557h-123l-93 147l134 -1zM244 102q56 0 101 51l97 -63q-43 -50 -90.5 -74t-115.5 -24q-92 0 -146.5 54.5t-54.5 149.5q0 126 71.5 213t189.5 87q66 0 114 -35t48 -98q-1 -156 -298 -188q6 -36 29.5 -54.5t54.5 -18.5zM288 386q-39 0 -74 -31.5t-49 -90.5
q167 19 168 87q0 35 -45 35z" />
    <glyph glyph-name="eacute" unicode="&#xe9;" horiz-adv-x="478" 
d="M486 703l-129 -147h-124l119 146zM458 363q-1 -156 -298 -188q6 -36 29.5 -54.5t54.5 -18.5q56 0 101 51l97 -63q-43 -50 -90.5 -74t-115.5 -24q-92 0 -146.5 54.5t-54.5 149.5q0 126 71.5 213t189.5 87q66 0 114 -35t48 -98zM165 264q167 19 168 87q0 35 -45 35
q-39 0 -74 -31.5t-49 -90.5z" />
    <glyph glyph-name="ecircumflex" unicode="&#xea;" horiz-adv-x="478" 
d="M300 629l-49 -75h-120l116 149h116l85 -149h-116l-30 75h-2zM244 102q56 0 101 51l97 -63q-43 -50 -90.5 -74t-115.5 -24q-92 0 -146.5 54.5t-54.5 149.5q0 126 71.5 213t189.5 87q66 0 114 -35t48 -98q-1 -156 -298 -188q6 -36 29.5 -54.5t54.5 -18.5zM288 386
q-39 0 -74 -31.5t-49 -90.5q167 19 168 87q0 35 -45 35z" />
    <glyph glyph-name="edieresis" unicode="&#xeb;" horiz-adv-x="478" 
d="M198 557q-34 0 -56.5 22.5t-22.5 55.5q0 35 23 57.5t59 22.5q34 0 56.5 -22t22.5 -55q0 -35 -23 -58t-59 -23zM403 715q34 0 56.5 -22t22.5 -55q0 -35 -23 -58t-59 -23q-35 0 -57.5 22.5t-22.5 55.5q0 35 23.5 57.5t59.5 22.5zM458 363q-1 -156 -298 -188
q6 -36 29.5 -54.5t54.5 -18.5q56 0 101 51l97 -63q-43 -50 -90.5 -74t-115.5 -24q-92 0 -146.5 54.5t-54.5 149.5q0 126 71.5 213t189.5 87q66 0 114 -35t48 -98zM165 264q167 19 168 87q0 35 -45 35q-39 0 -74 -31.5t-49 -90.5z" />
    <glyph glyph-name="igrave" unicode="&#xec;" horiz-adv-x="263" 
d="M106 563l-57 147l134 -1l47 -146h-124zM37 0l61 489h127l-60 -489h-128z" />
    <glyph glyph-name="iacute" unicode="&#xed;" horiz-adv-x="262" 
d="M111 556l119 146l134 1l-129 -147h-124zM37 0l61 489h127l-60 -489h-128z" />
    <glyph glyph-name="icircumflex" unicode="&#xee;" horiz-adv-x="262" 
d="M13 554l116 149h116l85 -149h-116l-30 75h-2l-49 -75h-120zM37 0l61 489h127l-60 -489h-128z" />
    <glyph glyph-name="idieresis" unicode="&#xef;" horiz-adv-x="262" 
d="M222 714q30 0 51.5 -21.5t21.5 -54.5q0 -34 -22 -57.5t-54 -23.5q-19 0 -36 9q-17 -9 -36 -9q-32 0 -53.5 22.5t-21.5 55.5q0 34 22.5 56.5t55.5 22.5q18 0 35 -9q16 9 37 9zM37 0l61 489h127l-60 -489h-128z" />
    <glyph glyph-name="eth" unicode="&#xf0;" horiz-adv-x="540" 
d="M451 547q57 -101 56 -232q-1 -89 -27 -159.5t-86.5 -117t-149.5 -46.5q-95 0 -151.5 55.5t-56.5 148.5q0 116 69.5 197.5t165.5 81.5q54 0 94 -26q-6 22 -19 47q-7 14 -15 26t-18.5 23.5t-17.5 19.5t-21.5 19t-20 16t-23.5 16t-21.5 13t-23.5 13.5t-21 12.5l56 87
q72 -30 126 -72l74 90l68 -63l-77 -91q23 -29 40 -59zM247 106q69 0 102.5 65.5t32.5 160.5v4q-33 28 -82 28q-58 0 -97.5 -46.5t-39.5 -110.5q0 -48 25 -74.5t59 -26.5z" />
    <glyph glyph-name="ntilde" unicode="&#xf1;" horiz-adv-x="552" 
d="M409 552q-11 0 -20.5 2t-18 6t-13.5 7t-13.5 9t-10.5 7q-27 20 -45 20q-36 0 -60 -52l-75 38q48 112 123 112q11 0 21 -1.5t18 -5.5t12.5 -6.5t12.5 -8t10 -6.5q31 -22 45 -22q36 0 60 52l75 -30q-21 -57 -52.5 -89t-68.5 -32zM35 0l61 489h126l-9 -78l2 -1q71 86 169 86
q75 0 103.5 -49t14.5 -151l-40 -296h-126l37 276q7 55 -1.5 80.5t-38.5 25.5q-44 0 -91 -57.5t-58 -143.5l-22 -181h-127z" />
    <glyph glyph-name="ograve" unicode="&#xf2;" horiz-adv-x="543" 
d="M257 557l-93 147l134 -1l82 -146h-123zM241 -9q-94 0 -149.5 55t-55.5 153q0 123 71.5 210t191.5 87q95 0 151.5 -53.5t56.5 -150.5q0 -130 -69.5 -215.5t-196.5 -85.5zM248 106q57 0 94 51.5t37 124.5q0 55 -27 77.5t-62 22.5q-56 0 -91.5 -52.5t-35.5 -119.5
q0 -47 23.5 -75.5t61.5 -28.5z" />
    <glyph glyph-name="oacute" unicode="&#xf3;" horiz-adv-x="543" 
d="M252 556l119 146l134 1l-129 -147h-124zM241 -9q-94 0 -149.5 55t-55.5 153q0 123 71.5 210t191.5 87q95 0 151.5 -53.5t56.5 -150.5q0 -130 -69.5 -215.5t-196.5 -85.5zM248 106q57 0 94 51.5t37 124.5q0 55 -27 77.5t-62 22.5q-56 0 -91.5 -52.5t-35.5 -119.5
q0 -47 23.5 -75.5t61.5 -28.5z" />
    <glyph glyph-name="ocircumflex" unicode="&#xf4;" horiz-adv-x="543" 
d="M157 554l116 149h116l85 -149h-116l-30 75h-2l-49 -75h-120zM241 -9q-94 0 -149.5 55t-55.5 153q0 123 71.5 210t191.5 87q95 0 151.5 -53.5t56.5 -150.5q0 -130 -69.5 -215.5t-196.5 -85.5zM248 106q57 0 94 51.5t37 124.5q0 55 -27 77.5t-62 22.5q-56 0 -91.5 -52.5
t-35.5 -119.5q0 -47 23.5 -75.5t61.5 -28.5z" />
    <glyph glyph-name="otilde" unicode="&#xf5;" horiz-adv-x="543" 
d="M398 552q-11 0 -20.5 2t-18 6t-13.5 7t-13.5 9t-10.5 7q-27 20 -45 20q-36 0 -60 -52l-75 38q48 112 123 112q11 0 21 -1.5t18 -5.5t12.5 -6.5t12.5 -8t10 -6.5q31 -22 45 -22q36 0 60 52l75 -30q-21 -57 -52.5 -89t-68.5 -32zM241 -9q-94 0 -149.5 55t-55.5 153
q0 123 71.5 210t191.5 87q95 0 151.5 -53.5t56.5 -150.5q0 -130 -69.5 -215.5t-196.5 -85.5zM248 106q57 0 94 51.5t37 124.5q0 55 -27 77.5t-62 22.5q-56 0 -91.5 -52.5t-35.5 -119.5q0 -47 23.5 -75.5t61.5 -28.5z" />
    <glyph glyph-name="odieresis" unicode="&#xf6;" horiz-adv-x="543" 
d="M224 557q-34 0 -56.5 22.5t-22.5 55.5q0 35 23 57.5t59 22.5q34 0 56.5 -22t22.5 -55q0 -35 -23 -58t-59 -23zM426 557q-35 0 -57.5 22.5t-22.5 55.5q0 35 23.5 57.5t59.5 22.5q34 0 56.5 -22t22.5 -55q0 -35 -23 -58t-59 -23zM241 -9q-94 0 -149.5 55t-55.5 153
q0 123 71.5 210t191.5 87q95 0 151.5 -53.5t56.5 -150.5q0 -130 -69.5 -215.5t-196.5 -85.5zM248 106q57 0 94 51.5t37 124.5q0 55 -27 77.5t-62 22.5q-56 0 -91.5 -52.5t-35.5 -119.5q0 -47 23.5 -75.5t61.5 -28.5z" />
    <glyph glyph-name="divide" unicode="&#xf7;" horiz-adv-x="529" 
d="M303 396q-33 0 -55 22t-22 54q0 34 22.5 56t56.5 22t56 -21.5t22 -53.5q0 -34 -23 -56.5t-57 -22.5zM62 221l14 112h428l-13 -112h-429zM256 -5q-33 0 -55 22t-22 54q0 34 22.5 56t56.5 22t56 -21.5t22 -53.5q0 -34 -23 -56.5t-57 -22.5z" />
    <glyph glyph-name="oslash" unicode="&#xf8;" horiz-adv-x="545" 
d="M529 462l-51 -54q29 -47 29 -116q0 -130 -69.5 -215.5t-196.5 -85.5q-75 0 -127 36l-49 -51l-48 48l50 53q-31 50 -31 122q0 123 71.5 210t191.5 87q80 0 133 -38l49 51zM163 210q0 -16 3 -30l178 186q-23 16 -54 16q-56 0 -91.5 -52.5t-35.5 -119.5zM379 282q0 15 -1 21
l-176 -183q20 -14 46 -14q57 0 94 51.5t37 124.5z" />
    <glyph glyph-name="ugrave" unicode="&#xf9;" horiz-adv-x="542" 
d="M267 557l-93 147l134 -1l82 -146h-123zM192 -9q-76 0 -109 46.5t-19 149.5l43 302h126l-38 -277q-9 -59 1 -82.5t41 -23.5q39 0 82.5 50.5t52.5 116.5l26 216h127l-60 -489h-126l9 80h-2q-63 -89 -154 -89z" />
    <glyph glyph-name="uacute" unicode="&#xfa;" horiz-adv-x="542" 
d="M260 556l119 146l134 1l-129 -147h-124zM192 -9q-76 0 -109 46.5t-19 149.5l43 302h126l-38 -277q-9 -59 1 -82.5t41 -23.5q39 0 82.5 50.5t52.5 116.5l26 216h127l-60 -489h-126l9 80h-2q-63 -89 -154 -89z" />
    <glyph glyph-name="ucircumflex" unicode="&#xfb;" horiz-adv-x="542" 
d="M166 554l116 149h116l85 -149h-116l-30 75h-2l-49 -75h-120zM192 -9q-76 0 -109 46.5t-19 149.5l43 302h126l-38 -277q-9 -59 1 -82.5t41 -23.5q39 0 82.5 50.5t52.5 116.5l26 216h127l-60 -489h-126l9 80h-2q-63 -89 -154 -89z" />
    <glyph glyph-name="udieresis" unicode="&#xfc;" horiz-adv-x="542" 
d="M233 557q-34 0 -56.5 22.5t-22.5 55.5q0 35 23 57.5t59 22.5q34 0 56.5 -22t22.5 -55q0 -35 -23 -58t-59 -23zM435 557q-35 0 -57.5 22.5t-22.5 55.5q0 35 23.5 57.5t59.5 22.5q34 0 56.5 -22t22.5 -55q0 -35 -23 -58t-59 -23zM192 -9q-76 0 -109 46.5t-19 149.5l43 302
h126l-38 -277q-9 -59 1 -82.5t41 -23.5q39 0 82.5 50.5t52.5 116.5l26 216h127l-60 -489h-126l9 80h-2q-63 -89 -154 -89z" />
    <glyph glyph-name="yacute" unicode="&#xfd;" horiz-adv-x="540" 
d="M489 703l-129 -147h-124l119 146zM385 489h125l-52 -426q-32 -269 -270 -269q-97 0 -172 47l40 103q64 -41 128 -41q63 0 99.5 34.5t49.5 131.5l1 10l-2 1q-64 -89 -157 -89q-155 0 -127 196l41 302h126l-37 -277q-7 -59 2.5 -82t40.5 -24q41 0 85.5 53t52.5 121z" />
    <glyph glyph-name="thorn" unicode="&#xfe;" horiz-adv-x="565" 
d="M11 -198l115 934h126l-41 -331l3 -2q62 93 160 93q75 0 116 -56.5t41 -142.5q0 -125 -68 -215.5t-171 -90.5q-77 0 -123 39l-3 -1l-28 -227h-127zM259 105q66 0 105 54t39 127q0 42 -17 69.5t-48 27.5q-52 0 -98.5 -60.5t-59.5 -157.5l-2 -19q26 -41 81 -41z" />
    <glyph glyph-name="ydieresis" unicode="&#xff;" horiz-adv-x="540" 
d="M216 557q-34 0 -56.5 22.5t-22.5 55.5q0 35 23 57.5t59 22.5q34 0 56.5 -22t22.5 -55q0 -35 -23 -58t-59 -23zM418 557q-35 0 -57.5 22.5t-22.5 55.5q0 35 23.5 57.5t59.5 22.5q34 0 56.5 -22t22.5 -55q0 -35 -23 -58t-59 -23zM385 489h125l-52 -426q-32 -269 -270 -269
q-97 0 -172 47l40 103q64 -41 128 -41q63 0 99.5 34.5t49.5 131.5l1 10l-2 1q-64 -89 -157 -89q-155 0 -127 196l41 302h126l-37 -277q-7 -59 2.5 -82t40.5 -24q41 0 85.5 53t52.5 121z" />
    <glyph glyph-name="Amacron" unicode="&#x100;" horiz-adv-x="642" 
d="M254 790l12 98h279l-13 -98h-278zM-12 0l322 710h136l149 -710h-142l-26 144h-237l-61 -144h-141zM237 261h170l-51 281h-2z" />
    <glyph glyph-name="amacron" unicode="&#x101;" horiz-adv-x="558" 
d="M190 583l12 102h279l-13 -102h-278zM198 -9q-80 0 -122 56t-42 143q0 125 67.5 215.5t168.5 90.5q80 0 122 -45l3 1l5 36h127l-60 -488h-127l10 82l-3 1q-64 -92 -149 -92zM231 104q49 0 93.5 61t57.5 160l2 16q-41 41 -98 41q-55 0 -89.5 -58t-34.5 -130q0 -42 18 -66
t51 -24z" />
    <glyph glyph-name="Abreve" unicode="&#x102;" horiz-adv-x="642" 
d="M392 762q-70 0 -104.5 37.5t-29.5 104.5h95q-3 -21 8.5 -36t36.5 -15t43.5 15.5t24.5 35.5h95q-13 -64 -57 -103t-112 -39zM-12 0l322 710h136l149 -710h-142l-26 144h-237l-61 -144h-141zM237 261h170l-51 281h-2z" />
    <glyph glyph-name="abreve" unicode="&#x103;" horiz-adv-x="558" 
d="M326 544q-69 0 -104 39.5t-29 112.5h95q-3 -25 8 -41t36 -16t44 16.5t25 40.5h95q-13 -70 -57.5 -111t-112.5 -41zM198 -9q-80 0 -122 56t-42 143q0 125 67.5 215.5t168.5 90.5q80 0 122 -45l3 1l5 36h127l-60 -488h-127l10 82l-3 1q-64 -92 -149 -92zM231 104
q49 0 93.5 61t57.5 160l2 16q-41 41 -98 41q-55 0 -89.5 -58t-34.5 -130q0 -42 18 -66t51 -24z" />
    <glyph glyph-name="Aogonek" unicode="&#x104;" horiz-adv-x="642" 
d="M582 0q-40 -6 -67.5 -32t-27.5 -54t27 -28q23 0 37 8l2 -72q-24 -11 -72 -11q-94 0 -94 76q0 65 66 114l-26 143h-237l-61 -144h-141l322 710h136l149 -710h-13zM237 261h170l-51 281h-2z" />
    <glyph glyph-name="aogonek" unicode="&#x105;" horiz-adv-x="558" 
d="M400 488h127l-60 -488h-6q-40 -6 -67.5 -32t-27.5 -54t27 -28q23 0 37 8l2 -72q-24 -11 -72 -11q-94 0 -94 76q0 34 21 66.5t54 53.5l9 75l-3 1q-64 -92 -149 -92q-80 0 -122 56t-42 143q0 125 67.5 215.5t168.5 90.5q80 0 122 -45l3 1zM231 104q49 0 93.5 61t57.5 160
l2 16q-41 41 -98 41q-55 0 -89.5 -58t-34.5 -130q0 -42 18 -66t51 -24z" />
    <glyph glyph-name="Cacute" unicode="&#x106;" horiz-adv-x="669" 
d="M370 769l115 134l136 1l-130 -135h-121zM348 -9q-128 0 -208 77.5t-80 221.5q0 180 104 304.5t268 124.5q157 0 246 -149l-111 -81q-53 100 -142 100q-98 0 -160.5 -89.5t-62.5 -207.5q0 -81 40 -126t113 -45q43 0 85.5 22t72.5 59l99 -89q-107 -122 -264 -122z" />
    <glyph glyph-name="cacute" unicode="&#x107;" horiz-adv-x="487" 
d="M239 556l119 146l134 1l-129 -147h-124zM240 -8q-96 0 -150 54t-54 156q0 122 69.5 208t188.5 86q125 0 182 -85l-98 -74q-28 45 -84 45q-57 0 -93.5 -50.5t-36.5 -122.5q0 -50 23 -76t60 -26q55 0 99 50l99 -67q-82 -98 -205 -98z" />
    <glyph glyph-name="Ccircumflex" unicode="&#x108;" horiz-adv-x="669" 
d="M297 769l115 135h125l79 -135h-113l-37 66h-3l-54 -66h-112zM348 -9q-128 0 -208 77.5t-80 221.5q0 180 104 304.5t268 124.5q157 0 246 -149l-111 -81q-53 100 -142 100q-98 0 -160.5 -89.5t-62.5 -207.5q0 -81 40 -126t113 -45q43 0 85.5 22t72.5 59l99 -89
q-107 -122 -264 -122z" />
    <glyph glyph-name="ccircumflex" unicode="&#x109;" horiz-adv-x="487" 
d="M158 554l116 149h116l85 -149h-116l-30 75h-2l-49 -75h-120zM240 -8q-96 0 -150 54t-54 156q0 122 69.5 208t188.5 86q125 0 182 -85l-98 -74q-28 45 -84 45q-57 0 -93.5 -50.5t-36.5 -122.5q0 -50 23 -76t60 -26q55 0 99 50l99 -67q-82 -98 -205 -98z" />
    <glyph glyph-name="Cdotaccent" unicode="&#x10a;" horiz-adv-x="669" 
d="M462 767q-34 0 -56.5 22.5t-22.5 55.5q0 35 23 57.5t59 22.5q34 0 57 -22t23 -55q0 -35 -23.5 -58t-59.5 -23zM348 -9q-128 0 -208 77.5t-80 221.5q0 180 104 304.5t268 124.5q157 0 246 -149l-111 -81q-53 100 -142 100q-98 0 -160.5 -89.5t-62.5 -207.5q0 -81 40 -126
t113 -45q43 0 85.5 22t72.5 59l99 -89q-107 -122 -264 -122z" />
    <glyph glyph-name="cdotaccent" unicode="&#x10b;" horiz-adv-x="487" 
d="M326 557q-34 0 -56.5 22.5t-22.5 55.5q0 35 23 57.5t59 22.5q34 0 57 -22t23 -55q0 -35 -23.5 -58t-59.5 -23zM240 -8q-96 0 -150 54t-54 156q0 122 69.5 208t188.5 86q125 0 182 -85l-98 -74q-28 45 -84 45q-57 0 -93.5 -50.5t-36.5 -122.5q0 -50 23 -76t60 -26
q55 0 99 50l99 -67q-82 -98 -205 -98z" />
    <glyph glyph-name="Ccaron" unicode="&#x10c;" horiz-adv-x="669" 
d="M393 769l-80 135h113l38 -66h2l54 66h112l-114 -135h-125zM348 -9q-128 0 -208 77.5t-80 221.5q0 180 104 304.5t268 124.5q157 0 246 -149l-111 -81q-53 100 -142 100q-98 0 -160.5 -89.5t-62.5 -207.5q0 -81 40 -126t113 -45q43 0 85.5 22t72.5 59l99 -89
q-107 -122 -264 -122z" />
    <glyph glyph-name="ccaron" unicode="&#x10d;" horiz-adv-x="487" 
d="M254 549l-75 147h112l34 -73h3l52 73h112l-113 -147h-125zM240 -8q-96 0 -150 54t-54 156q0 122 69.5 208t188.5 86q125 0 182 -85l-98 -74q-28 45 -84 45q-57 0 -93.5 -50.5t-36.5 -122.5q0 -50 23 -76t60 -26q55 0 99 50l99 -67q-82 -98 -205 -98z" />
    <glyph glyph-name="Dcaron" unicode="&#x10e;" horiz-adv-x="682" 
d="M338 768l-80 135h113l38 -66h2l54 66h112l-114 -135h-125zM52 0l87 710h217q143 0 217.5 -78t74.5 -216q0 -188 -102 -302t-277 -114h-217zM201 122h82q103 0 163 82t60 211q0 81 -41.5 127t-121.5 46h-85z" />
    <glyph glyph-name="dcaron" unicode="&#x10f;" horiz-adv-x="617" 
d="M595 580l54 206h126l-87 -206h-93zM199 -9q-80 0 -122 56t-42 143q0 125 67 215.5t169 90.5q79 0 125 -45l3 1l35 284h127l-91 -736h-127l11 83l-3 1q-64 -93 -152 -93zM231 104q50 0 95 60t59 159l3 19q-37 40 -102 40q-54 0 -88.5 -58.5t-34.5 -129.5q0 -42 17.5 -66
t50.5 -24z" />
    <glyph glyph-name="Dcroat" unicode="&#x110;" horiz-adv-x="683" 
d="M358 710q143 0 217.5 -78t74.5 -216q0 -188 -102 -302t-277 -114h-217l36 294h-53l16 115h51l37 301h217zM285 122q103 0 163 82t60 211q0 81 -41.5 127t-121.5 46h-85l-22 -179h129l-16 -115h-127l-21 -172h82z" />
    <glyph glyph-name="dcroat" unicode="&#x111;" horiz-adv-x="546" 
d="M597 637l-10 -82h-48l-69 -555h-127l11 83l-3 1q-64 -93 -152 -93q-80 0 -122 56t-42 143q0 125 67 215.5t169 90.5q79 0 125 -45l3 1l13 103h-166l10 82h166l12 99h127l-12 -99h48zM385 323l3 19q-37 40 -102 40q-54 0 -88.5 -58.5t-34.5 -129.5q0 -42 17.5 -66
t50.5 -24q50 0 95 60t59 159z" />
    <glyph glyph-name="Emacron" unicode="&#x112;" horiz-adv-x="563" 
d="M221 789l12 98h279l-13 -98h-278zM51 0l87 710h415l-16 -122h-280l-21 -176h224l-15 -120h-224l-21 -170h299l-15 -122h-433z" />
    <glyph glyph-name="emacron" unicode="&#x113;" horiz-adv-x="478" 
d="M446 685l-13 -102h-278l12 102h279zM244 102q56 0 101 51l97 -63q-43 -50 -90.5 -74t-115.5 -24q-92 0 -146.5 54.5t-54.5 149.5q0 126 71.5 213t189.5 87q66 0 114 -35t48 -98q-1 -156 -298 -188q6 -36 29.5 -54.5t54.5 -18.5zM288 386q-39 0 -74 -31.5t-49 -90.5
q167 19 168 87q0 35 -45 35z" />
    <glyph glyph-name="Ebreve" unicode="&#x114;" horiz-adv-x="563" 
d="M359 761q-70 0 -104.5 37.5t-29.5 104.5h95q-3 -21 8.5 -36t36.5 -15t43.5 15.5t24.5 35.5h95q-13 -64 -57 -103t-112 -39zM51 0l87 710h415l-16 -122h-280l-21 -176h224l-15 -120h-224l-21 -170h299l-15 -122h-433z" />
    <glyph glyph-name="ebreve" unicode="&#x115;" horiz-adv-x="478" 
d="M291 544q-69 0 -104 39.5t-29 112.5h95q-3 -25 8 -41t36 -16t44 16.5t25 40.5h95q-13 -70 -57.5 -111t-112.5 -41zM458 363q-1 -156 -298 -188q6 -36 29.5 -54.5t54.5 -18.5q56 0 101 51l97 -63q-43 -50 -90.5 -74t-115.5 -24q-92 0 -146.5 54.5t-54.5 149.5
q0 126 71.5 213t189.5 87q66 0 114 -35t48 -98zM165 264q167 19 168 87q0 35 -45 35q-39 0 -74 -31.5t-49 -90.5z" />
    <glyph glyph-name="Edotaccent" unicode="&#x116;" horiz-adv-x="563" 
d="M363 766q-34 0 -56.5 22.5t-22.5 55.5q0 35 23 57.5t59 22.5q34 0 57 -22t23 -55q0 -35 -23.5 -58t-59.5 -23zM51 0l87 710h415l-16 -122h-280l-21 -176h224l-15 -120h-224l-21 -170h299l-15 -122h-433z" />
    <glyph glyph-name="edotaccent" unicode="&#x117;" horiz-adv-x="478" 
d="M299 557q-34 0 -56.5 22.5t-22.5 55.5q0 35 23 57.5t59 22.5q34 0 57 -22t23 -55q0 -35 -23.5 -58t-59.5 -23zM244 102q56 0 101 51l97 -63q-43 -50 -90.5 -74t-115.5 -24q-92 0 -146.5 54.5t-54.5 149.5q0 126 71.5 213t189.5 87q66 0 114 -35t48 -98q-1 -156 -298 -188
q6 -36 29.5 -54.5t54.5 -18.5zM288 386q-39 0 -74 -31.5t-49 -90.5q167 19 168 87q0 35 -45 35z" />
    <glyph glyph-name="Eogonek" unicode="&#x118;" horiz-adv-x="563" 
d="M537 588h-280l-21 -176h224l-15 -120h-224l-21 -170h299l-15 -122h-2q-40 -6 -67.5 -32t-27.5 -54t27 -28q23 0 37 8l2 -72q-24 -11 -72 -11q-94 0 -94 76q0 32 18 62t47 51h-301l87 710h415z" />
    <glyph glyph-name="eogonek" unicode="&#x119;" horiz-adv-x="478" 
d="M244 102q56 0 101 51l97 -63q-61 -70 -131 -89q-38 -15 -62 -38.5t-24 -48.5q0 -28 29 -28q20 0 34 8l2 -72q-24 -11 -71 -11q-94 0 -94 76q0 60 58 108l-1 3q-69 14 -108 66t-39 132q0 126 71.5 213t189.5 87q66 0 114 -35t48 -98q-1 -156 -298 -188q6 -36 29.5 -54.5
t54.5 -18.5zM288 386q-39 0 -74 -31.5t-49 -90.5q167 19 168 87q0 35 -45 35z" />
    <glyph glyph-name="Ecaron" unicode="&#x11a;" horiz-adv-x="563" 
d="M294 768l-80 135h113l38 -66h2l54 66h112l-114 -135h-125zM51 0l87 710h415l-16 -122h-280l-21 -176h224l-15 -120h-224l-21 -170h299l-15 -122h-433z" />
    <glyph glyph-name="ecaron" unicode="&#x11b;" horiz-adv-x="478" 
d="M352 549h-125l-75 147h112l34 -73h3l52 73h112zM458 363q-1 -156 -298 -188q6 -36 29.5 -54.5t54.5 -18.5q56 0 101 51l97 -63q-43 -50 -90.5 -74t-115.5 -24q-92 0 -146.5 54.5t-54.5 149.5q0 126 71.5 213t189.5 87q66 0 114 -35t48 -98zM165 264q167 19 168 87
q0 35 -45 35q-39 0 -74 -31.5t-49 -90.5z" />
    <glyph glyph-name="Gcircumflex" unicode="&#x11c;" horiz-adv-x="695" 
d="M283 768l115 135h125l79 -135h-113l-37 66h-3l-54 -66h-112zM350 -9q-129 0 -209.5 76.5t-80.5 221.5q0 180 104 305t264 125q164 0 243 -125l-109 -82q-50 78 -141 78q-94 0 -156 -87t-62 -209q0 -85 40 -131t114 -46q67 0 129 42l15 108h-135l15 118h268l-36 -306
q-48 -40 -119 -64t-144 -24z" />
    <glyph glyph-name="gcircumflex" unicode="&#x11d;" horiz-adv-x="559" 
d="M166 554l116 149h116l85 -149h-116l-30 75h-2l-49 -75h-120zM195 -206q-95 0 -170 47l41 105q63 -40 130 -40q69 0 106.5 37.5t48.5 147.5l16 4l-17 6q-65 -94 -151 -94q-80 0 -122 55t-42 140q0 117 67.5 205.5t168.5 88.5q79 0 123 -44l2 1l4 36h127l-52 -427
q-10 -79 -35.5 -133.5t-65 -83t-82.5 -40t-97 -11.5zM231 120q47 0 91.5 55t57.5 141l4 25q-41 41 -97 41q-55 0 -89.5 -56t-34.5 -119q0 -41 18 -64t50 -23z" />
    <glyph glyph-name="Gbreve" unicode="&#x11e;" horiz-adv-x="695" 
d="M444 761q-70 0 -104.5 37.5t-29.5 104.5h95q-3 -21 8.5 -36t36.5 -15t43.5 15.5t24.5 35.5h95q-13 -64 -57 -103t-112 -39zM350 -9q-129 0 -209.5 76.5t-80.5 221.5q0 180 104 305t264 125q164 0 243 -125l-109 -82q-50 78 -141 78q-94 0 -156 -87t-62 -209
q0 -85 40 -131t114 -46q67 0 129 42l15 108h-135l15 118h268l-36 -306q-48 -40 -119 -64t-144 -24z" />
    <glyph glyph-name="gbreve" unicode="&#x11f;" horiz-adv-x="559" 
d="M326 544q-69 0 -104 39.5t-29 112.5h95q-3 -25 8 -41t36 -16t44 16.5t25 40.5h95q-13 -70 -57.5 -111t-112.5 -41zM195 -206q-95 0 -170 47l41 105q63 -40 130 -40q69 0 106.5 37.5t48.5 147.5l16 4l-17 6q-65 -94 -151 -94q-80 0 -122 55t-42 140q0 117 67.5 205.5
t168.5 88.5q79 0 123 -44l2 1l4 36h127l-52 -427q-10 -79 -35.5 -133.5t-65 -83t-82.5 -40t-97 -11.5zM231 120q47 0 91.5 55t57.5 141l4 25q-41 41 -97 41q-55 0 -89.5 -56t-34.5 -119q0 -41 18 -64t50 -23z" />
    <glyph glyph-name="Gdotaccent" unicode="&#x120;" horiz-adv-x="695" 
d="M448 766q-34 0 -56.5 22.5t-22.5 55.5q0 35 23 57.5t59 22.5q34 0 57 -22t23 -55q0 -35 -23.5 -58t-59.5 -23zM350 -9q-129 0 -209.5 76.5t-80.5 221.5q0 180 104 305t264 125q164 0 243 -125l-109 -82q-50 78 -141 78q-94 0 -156 -87t-62 -209q0 -85 40 -131t114 -46
q67 0 129 42l15 108h-135l15 118h268l-36 -306q-48 -40 -119 -64t-144 -24z" />
    <glyph glyph-name="gdotaccent" unicode="&#x121;" horiz-adv-x="559" 
d="M334 557q-34 0 -56.5 22.5t-22.5 55.5q0 35 23 57.5t59 22.5q34 0 57 -22t23 -55q0 -35 -23.5 -58t-59.5 -23zM195 -206q-95 0 -170 47l41 105q63 -40 130 -40q69 0 106.5 37.5t48.5 147.5l16 4l-17 6q-65 -94 -151 -94q-80 0 -122 55t-42 140q0 117 67.5 205.5
t168.5 88.5q79 0 123 -44l2 1l4 36h127l-52 -427q-10 -79 -35.5 -133.5t-65 -83t-82.5 -40t-97 -11.5zM231 120q47 0 91.5 55t57.5 141l4 25q-41 41 -97 41q-55 0 -89.5 -56t-34.5 -119q0 -41 18 -64t50 -23z" />
    <glyph glyph-name="Gcommaaccent" unicode="&#x122;" horiz-adv-x="695" 
d="M350 -9q-129 0 -209.5 76.5t-80.5 221.5q0 180 104 305t264 125q164 0 243 -125l-109 -82q-50 78 -141 78q-94 0 -156 -87t-62 -209q0 -85 40 -131t114 -46q67 0 129 42l15 108h-135l15 118h268l-36 -306q-48 -40 -119 -64t-144 -24zM244 -220l-15 74q32 10 44.5 25
t12.5 44q0 4 -2 24h108v-23q0 -64 -38.5 -101.5t-109.5 -42.5z" />
    <glyph glyph-name="gcommaaccent" unicode="&#x123;" horiz-adv-x="559" 
d="M426 729l15 -74q-32 -10 -44.5 -25t-12.5 -44q0 -4 2 -24h-108v23q0 64 38.5 101.5t109.5 42.5zM195 -206q-95 0 -170 47l41 105q63 -40 130 -40q69 0 106.5 37.5t48.5 147.5l16 4l-17 6q-65 -94 -151 -94q-80 0 -122 55t-42 140q0 117 67.5 205.5t168.5 88.5
q79 0 123 -44l2 1l4 36h127l-52 -427q-10 -79 -35.5 -133.5t-65 -83t-82.5 -40t-97 -11.5zM231 120q47 0 91.5 55t57.5 141l4 25q-41 41 -97 41q-55 0 -89.5 -56t-34.5 -119q0 -41 18 -64t50 -23z" />
    <glyph glyph-name="Hcircumflex" unicode="&#x124;" horiz-adv-x="686" 
d="M250 769l115 135h125l79 -135h-113l-37 66h-3l-54 -66h-112zM52 0l87 710h136l-38 -309h251l38 309h136l-87 -710h-137l35 279h-251l-34 -279h-136z" />
    <glyph glyph-name="hcircumflex" unicode="&#x125;" horiz-adv-x="552" 
d="M180 780l115 135h125l79 -135h-113l-37 66h-3l-54 -66h-112zM35 0l91 736h126l-40 -325l2 -1q70 86 170 86q75 0 103.5 -49t14.5 -151l-40 -296h-127l38 276q7 55 -1.5 80.5t-38.5 25.5q-44 0 -91.5 -58.5t-58.5 -145.5l-21 -178h-127z" />
    <glyph glyph-name="Hbar" unicode="&#x126;" horiz-adv-x="691" 
d="M694 606l-10 -90h-44l-63 -516h-137l35 279h-251l-34 -279h-136l63 516h-44l11 90h44l13 104h136l-13 -104h251l13 104h136l-13 -104h43zM490 401l14 115h-251l-14 -115h251z" />
    <glyph glyph-name="hbar" unicode="&#x127;" horiz-adv-x="552" 
d="M384 496q75 0 103.5 -49t14.5 -151l-40 -296h-127l38 276q7 55 -1.5 80.5t-38.5 25.5q-44 0 -91.5 -58.5t-58.5 -145.5l-21 -178h-127l69 555h-53l9 82h54l12 99h126l-12 -99h161l-9 -82h-162l-18 -144l2 -1q70 86 170 86z" />
    <glyph glyph-name="Itilde" unicode="&#x128;" horiz-adv-x="310" 
d="M300 767q-34 0 -78 31q-28 21 -45 21q-33 0 -57 -53l-75 38q51 103 121 103q8 0 15.5 -0.5t14.5 -3t11 -3.5t11 -5t8.5 -5t9.5 -6l7 -5q30 -22 45 -22q35 0 59 51l74 -29q-21 -51 -52.5 -81.5t-68.5 -30.5zM56 0l87 710h138l-87 -710h-138z" />
    <glyph glyph-name="itilde" unicode="&#x129;" horiz-adv-x="262" 
d="M246 550q-9 0 -17.5 2t-16 6t-11.5 7t-11.5 8.5t-9.5 7.5q-25 20 -41 20q-32 0 -56 -51l-69 36q45 104 115 104q33 0 71 -27q4 -3 11.5 -8.5t11.5 -8t9.5 -5t10.5 -2.5q30 0 54 53l70 -30q-21 -51 -53 -81.5t-68 -30.5zM37 0l61 489h127l-60 -489h-128z" />
    <glyph glyph-name="Imacron" unicode="&#x12a;" horiz-adv-x="310" 
d="M82 789l12 98h279l-13 -98h-278zM56 0l87 710h138l-87 -710h-138z" />
    <glyph glyph-name="imacron" unicode="&#x12b;" horiz-adv-x="262" 
d="M37 583l12 102h279l-13 -102h-278zM37 0l61 489h127l-60 -489h-128z" />
    <glyph glyph-name="Ibreve" unicode="&#x12c;" horiz-adv-x="310" 
d="M220 761q-70 0 -104.5 37.5t-29.5 104.5h95q-3 -21 8.5 -36t36.5 -15t43.5 15.5t24.5 35.5h95q-13 -64 -57 -103t-112 -39zM56 0l87 710h138l-87 -710h-138z" />
    <glyph glyph-name="ibreve" unicode="&#x12d;" horiz-adv-x="262" 
d="M179 550q-57 0 -91 40t-30 110h89q-4 -30 5.5 -47t30.5 -17q22 0 36 18t16 46h91q-12 -68 -50.5 -109t-96.5 -41zM37 0l61 489h127l-60 -489h-128z" />
    <glyph glyph-name="Iogonek" unicode="&#x12e;" horiz-adv-x="310" 
d="M143 710h138l-87 -710h-9q-40 -6 -67.5 -32t-27.5 -54t27 -28q23 0 37 8l2 -72q-24 -11 -72 -11q-94 0 -94 76q0 31 18.5 62t47.5 52z" />
    <glyph glyph-name="iogonek" unicode="&#x12f;" horiz-adv-x="262" 
d="M184 715q34 0 57 -22t23 -55q0 -35 -23.5 -58t-59.5 -23q-34 0 -56.5 22.5t-22.5 55.5q0 35 23 57.5t59 22.5zM38 6l60 483h127l-60 -489h-6q-40 -6 -67.5 -32t-27.5 -54t27 -28q23 0 37 8l2 -72q-24 -11 -72 -11q-94 0 -94 76q0 34 20.5 66t53.5 53z" />
    <glyph glyph-name="Idotaccent" unicode="&#x130;" horiz-adv-x="310" 
d="M224 766q-34 0 -56.5 22.5t-22.5 55.5q0 35 23 57.5t59 22.5q34 0 57 -22t23 -55q0 -35 -23.5 -58t-59.5 -23zM56 0l87 710h138l-87 -710h-138z" />
    <glyph glyph-name="dotlessi" unicode="&#x131;" horiz-adv-x="262" 
d="M37 0l61 489h127l-60 -489h-128z" />
    <glyph glyph-name="IJ" unicode="&#x132;" horiz-adv-x="786" 
d="M56 0l87 710h138l-87 -710h-138zM484 -9q-51 0 -96.5 25t-72.5 70l92 93q31 -58 76 -58q79 0 97 144l55 445h137l-56 -452q-16 -135 -71 -201t-161 -66z" />
    <glyph glyph-name="ij" unicode="&#x133;" horiz-adv-x="507" 
d="M181 557q-34 0 -56.5 22.5t-22.5 55.5q0 35 23 57.5t59 22.5q34 0 57 -22t23 -55q0 -35 -23.5 -58t-59.5 -23zM429 557q-34 0 -56.5 22.5t-22.5 55.5q0 35 23 57.5t59 22.5q34 0 57 -22t23 -55q0 -35 -23.5 -58t-59.5 -23zM37 0l61 489h127l-60 -489h-128zM254 -206
q-52 0 -95 23l32 99q18 -14 41 -14t35 20t17 68l62 499h127l-63 -517q-23 -178 -156 -178z" />
    <glyph glyph-name="Jcircumflex" unicode="&#x134;" horiz-adv-x="476" 
d="M240 769l115 135h125l79 -135h-113l-37 66h-3l-54 -66h-112zM174 -9q-51 0 -96.5 25t-72.5 70l92 93q31 -58 76 -58q79 0 97 144l55 445h137l-56 -452q-16 -135 -71 -201t-161 -66z" />
    <glyph glyph-name="jcircumflex" unicode="&#x135;" horiz-adv-x="245" 
d="M-1 554l116 149h116l85 -149h-116l-30 75h-2l-49 -75h-120zM-8 -206q-52 0 -95 23l32 99q18 -14 41 -14t35 20t17 68l62 499h127l-63 -517q-23 -178 -156 -178z" />
    <glyph glyph-name="Kcommaaccent" unicode="&#x136;" horiz-adv-x="621" 
d="M662 710l-263 -317l181 -393h-155l-129 295l-85 -100l-24 -195h-135l87 710h135l-39 -319l3 -1l257 320h167zM232 -77q0 4 -2 24h108v-23q0 -64 -38.5 -101.5t-109.5 -42.5l-15 74q32 10 44.5 25t12.5 44z" />
    <glyph glyph-name="kcommaaccent" unicode="&#x137;" horiz-adv-x="516" 
d="M435 -7q-18 -2 -32 -2q-53 1 -80.5 35t-56.5 111l-10 27q-46 -30 -82 -45l-14 -119h-125l91 736h126l-59 -485l2 -1q130 85 174 239h130q-28 -138 -143 -250l21 -55q19 -50 38 -67.5t53 -22.5zM134 -220l-15 74q32 10 44.5 25t12.5 44q0 4 -2 24h108v-23
q0 -64 -38.5 -101.5t-109.5 -42.5z" />
    <glyph glyph-name="kgreenlandic" unicode="&#x138;" horiz-adv-x="515" 
d="M434 -7q-18 -2 -32 -2q-52 1 -80 35.5t-57 110.5l-9 25q-34 -23 -81 -45l-14 -117h-126l61 489h125l-28 -231l4 -2q130 83 171 233h130q-27 -137 -142 -250l20 -55q19 -50 38 -67.5t53 -22.5z" />
    <glyph glyph-name="Lacute" unicode="&#x139;" horiz-adv-x="535" 
d="M265 769l115 134l136 1l-130 -135h-121zM52 0l87 710h136l-72 -588h280l-15 -122h-416z" />
    <glyph glyph-name="lacute" unicode="&#x13a;" horiz-adv-x="262" 
d="M143 782l115 134l136 1l-130 -135h-121zM40 0l90 736h127l-91 -736h-126z" />
    <glyph glyph-name="Lcommaaccent" unicode="&#x13b;" horiz-adv-x="535" 
d="M52 0l87 710h136l-72 -588h280l-15 -122h-416zM156 -220l-15 74q32 10 44.5 25t12.5 44q0 4 -2 24h108v-23q0 -64 -38.5 -101.5t-109.5 -42.5z" />
    <glyph glyph-name="lcommaaccent" unicode="&#x13c;" horiz-adv-x="262" 
d="M40 0l90 736h127l-91 -736h-126zM1 -220l-15 74q32 10 44.5 25t12.5 44q0 4 -2 24h108v-23q0 -64 -38.5 -101.5t-109.5 -42.5z" />
    <glyph glyph-name="Lcaron" unicode="&#x13d;" horiz-adv-x="539" 
d="M352 580l54 206h126l-87 -206h-93zM52 0l87 710h136l-72 -588h280l-15 -122h-416z" />
    <glyph glyph-name="lcaron" unicode="&#x13e;" horiz-adv-x="320" 
d="M301 580l54 206h125l-86 -206h-93zM40 0l90 736h127l-91 -736h-126z" />
    <glyph glyph-name="Ldot" unicode="&#x13f;" horiz-adv-x="536" 
d="M52 0l87 710h136l-72 -588h280l-15 -122h-416zM424 261q-35 0 -56.5 22t-21.5 55q0 35 22.5 58t58.5 23q34 0 56 -22t22 -56q0 -35 -22.5 -57.5t-58.5 -22.5z" />
    <glyph glyph-name="ldot" unicode="&#x140;" horiz-adv-x="443" 
d="M40 0l90 736h127l-91 -736h-126zM352 175q-35 0 -56.5 22t-21.5 55q0 35 22.5 58t58.5 23q34 0 56 -22t22 -56q0 -35 -22.5 -57.5t-58.5 -22.5z" />
    <glyph glyph-name="Lslash" unicode="&#x141;" horiz-adv-x="536" 
d="M204 122h280l-15 -122h-416l33 265l-73 -31l14 107l72 31l41 338h136l-34 -275l102 44l-14 -108l-101 -44z" />
    <glyph glyph-name="lslash" unicode="&#x142;" horiz-adv-x="307" 
d="M305 429l-12 -96l-69 -30l-37 -303h-126l30 244l-66 -29l12 95l65 29l49 397h127l-42 -338z" />
    <glyph glyph-name="Nacute" unicode="&#x143;" horiz-adv-x="707" 
d="M324 769l115 134l136 1l-130 -135h-121zM52 0l87 710h132l216 -481l3 2l59 479h134l-88 -710h-135l-213 472h-3l-58 -472h-134z" />
    <glyph glyph-name="nacute" unicode="&#x144;" horiz-adv-x="552" 
d="M226 556l119 146l134 1l-129 -147h-124zM35 0l61 489h126l-9 -78l2 -1q71 86 169 86q75 0 103.5 -49t14.5 -151l-40 -296h-126l37 276q7 55 -1.5 80.5t-38.5 25.5q-44 0 -91 -57.5t-58 -143.5l-22 -181h-127z" />
    <glyph glyph-name="Ncommaaccent" unicode="&#x145;" horiz-adv-x="707" 
d="M52 0l87 710h132l216 -481l3 2l59 479h134l-88 -710h-135l-213 472h-3l-58 -472h-134zM228 -220l-15 74q32 10 44.5 25t12.5 44q0 4 -2 24h108v-23q0 -64 -38.5 -101.5t-109.5 -42.5z" />
    <glyph glyph-name="ncommaaccent" unicode="&#x146;" horiz-adv-x="552" 
d="M35 0l61 489h126l-9 -78l2 -1q71 86 169 86q75 0 103.5 -49t14.5 -151l-40 -296h-126l37 276q7 55 -1.5 80.5t-38.5 25.5q-44 0 -91 -57.5t-58 -143.5l-22 -181h-127zM149 -220l-15 74q32 10 44.5 25t12.5 44q0 4 -2 24h108v-23q0 -64 -38.5 -101.5t-109.5 -42.5z" />
    <glyph glyph-name="Ncaron" unicode="&#x147;" horiz-adv-x="707" 
d="M362 769l-80 135h113l38 -66h2l54 66h112l-114 -135h-125zM52 0l87 710h132l216 -481l3 2l59 479h134l-88 -710h-135l-213 472h-3l-58 -472h-134z" />
    <glyph glyph-name="ncaron" unicode="&#x148;" horiz-adv-x="552" 
d="M264 549l-75 147h112l34 -73h3l52 73h112l-113 -147h-125zM35 0l61 489h126l-9 -78l2 -1q71 86 169 86q75 0 103.5 -49t14.5 -151l-40 -296h-126l37 276q7 55 -1.5 80.5t-38.5 25.5q-44 0 -91 -57.5t-58 -143.5l-22 -181h-127z" />
    <glyph glyph-name="napostrophe" unicode="&#x149;" horiz-adv-x="669" 
d="M13 496l54 214h125l-87 -214h-92zM152 0l61 489h126l-9 -78l2 -1q71 86 169 86q75 0 103.5 -49t14.5 -151l-40 -296h-126l37 276q7 55 -1.5 80.5t-38.5 25.5q-44 0 -91 -57.5t-58 -143.5l-22 -181h-127z" />
    <glyph glyph-name="Eng" unicode="&#x14a;" horiz-adv-x="707" 
d="M549 710h134l-88 -710q-13 -111 -71 -157.5t-154 -46.5q-33 0 -62 7l18 107q22 -5 36 -5q45 0 68 23.5t29 71.5v2l-212 470h-3l-58 -472h-134l87 710h132l216 -481l3 2z" />
    <glyph glyph-name="eng" unicode="&#x14b;" horiz-adv-x="547" 
d="M254 -205q-33 0 -61 8l22 97q12 -3 23 -3q78 0 96 126l34 253q7 55 -1.5 80.5t-38.5 25.5q-43 0 -88 -57.5t-56 -143.5l-22 -181h-127l61 489h126l-9 -78l2 -1q64 86 164 86q75 0 103.5 -49t14.5 -151l-39 -296q-13 -102 -66.5 -153.5t-137.5 -51.5z" />
    <glyph glyph-name="Omacron" unicode="&#x14c;" horiz-adv-x="754" 
d="M330 790l12 98h279l-13 -98h-278zM346 -9q-131 0 -208.5 80t-77.5 221q0 113 45.5 209.5t132 157t196.5 60.5q130 0 208.5 -79.5t78.5 -219.5q0 -180 -102 -304.5t-273 -124.5zM357 119q96 0 159 87.5t63 207.5q0 88 -42.5 133t-116.5 45q-93 0 -156 -89.5t-63 -205.5
q0 -88 42 -133t114 -45z" />
    <glyph glyph-name="omacron" unicode="&#x14d;" horiz-adv-x="543" 
d="M181 583l12 102h279l-13 -102h-278zM241 -9q-94 0 -149.5 55t-55.5 153q0 123 71.5 210t191.5 87q95 0 151.5 -53.5t56.5 -150.5q0 -130 -69.5 -215.5t-196.5 -85.5zM248 106q57 0 94 51.5t37 124.5q0 55 -27 77.5t-62 22.5q-56 0 -91.5 -52.5t-35.5 -119.5
q0 -47 23.5 -75.5t61.5 -28.5z" />
    <glyph glyph-name="Obreve" unicode="&#x14e;" horiz-adv-x="754" 
d="M468 762q-70 0 -104.5 37.5t-29.5 104.5h95q-3 -21 8.5 -36t36.5 -15t43.5 15.5t24.5 35.5h95q-13 -64 -57 -103t-112 -39zM346 -9q-131 0 -208.5 80t-77.5 221q0 113 45.5 209.5t132 157t196.5 60.5q130 0 208.5 -79.5t78.5 -219.5q0 -180 -102 -304.5t-273 -124.5z
M357 119q96 0 159 87.5t63 207.5q0 88 -42.5 133t-116.5 45q-93 0 -156 -89.5t-63 -205.5q0 -88 42 -133t114 -45z" />
    <glyph glyph-name="obreve" unicode="&#x14f;" horiz-adv-x="543" 
d="M317 544q-69 0 -104 39.5t-29 112.5h95q-3 -25 8 -41t36 -16t44 16.5t25 40.5h95q-13 -70 -57.5 -111t-112.5 -41zM241 -9q-94 0 -149.5 55t-55.5 153q0 123 71.5 210t191.5 87q95 0 151.5 -53.5t56.5 -150.5q0 -130 -69.5 -215.5t-196.5 -85.5zM248 106q57 0 94 51.5
t37 124.5q0 55 -27 77.5t-62 22.5q-56 0 -91.5 -52.5t-35.5 -119.5q0 -47 23.5 -75.5t61.5 -28.5z" />
    <glyph glyph-name="Ohungarumlaut" unicode="&#x150;" horiz-adv-x="754" 
d="M302 766l118 146l129 1l-129 -147h-118zM496 766l117 146l129 1l-129 -147h-117zM346 -9q-131 0 -208.5 80t-77.5 221q0 113 45.5 209.5t132 157t196.5 60.5q130 0 208.5 -79.5t78.5 -219.5q0 -180 -102 -304.5t-273 -124.5zM357 119q96 0 159 87.5t63 207.5
q0 88 -42.5 133t-116.5 45q-93 0 -156 -89.5t-63 -205.5q0 -88 42 -133t114 -45z" />
    <glyph glyph-name="ohungarumlaut" unicode="&#x151;" horiz-adv-x="543" 
d="M163 556l118 146l129 1l-129 -147h-118zM357 556l117 146l129 1l-129 -147h-117zM241 -9q-94 0 -149.5 55t-55.5 153q0 123 71.5 210t191.5 87q95 0 151.5 -53.5t56.5 -150.5q0 -130 -69.5 -215.5t-196.5 -85.5zM248 106q57 0 94 51.5t37 124.5q0 55 -27 77.5t-62 22.5
q-56 0 -91.5 -52.5t-35.5 -119.5q0 -47 23.5 -75.5t61.5 -28.5z" />
    <glyph glyph-name="OE" unicode="&#x152;" horiz-adv-x="882" 
d="M857 588h-276l-22 -176h220l-15 -120h-219l-21 -170h294l-15 -122h-457q-130 0 -208 78t-78 213q0 176 104.5 297.5t272.5 121.5h435zM357 127h33l56 457h-23q-95 1 -158.5 -84.5t-63.5 -201.5q0 -83 42 -127t114 -44z" />
    <glyph glyph-name="oe" unicode="&#x153;" horiz-adv-x="732" 
d="M524 102q52 0 89 51l96 -64q-72 -97 -192 -97q-103 0 -155 73h-3q-63 -73 -158 -73q-83 0 -130.5 55t-47.5 147q0 126 67.5 214t177.5 88q94 0 136 -73h4q68 73 165 73q66 0 109.5 -32t43.5 -92q0 -81 -74.5 -133.5t-203.5 -77.5q9 -29 30.5 -44t45.5 -15zM561 386
q-34 0 -68 -37.5t-45 -97.5q153 39 153 105q0 12 -10.5 21t-29.5 9zM215 107q44 0 77.5 52t33.5 129q0 45 -17.5 70t-44.5 25q-48 0 -81 -54.5t-33 -126.5q0 -49 19 -72t46 -23z" />
    <glyph glyph-name="Racute" unicode="&#x154;" horiz-adv-x="617" 
d="M271 769l115 134l136 1l-130 -135h-121zM52 0l87 710h248q197 0 197 -193q0 -90 -39.5 -155t-115.5 -95l124 -267h-150l-106 245h-81l-29 -245h-135zM231 366h83q59 0 93.5 38.5t34.5 104.5q0 38 -24.5 59t-63.5 21h-95z" />
    <glyph glyph-name="racute" unicode="&#x155;" horiz-adv-x="355" 
d="M136 556l119 146l134 1l-129 -147h-124zM36 0l60 489h127l-10 -80h2q63 87 152 87l-18 -142q-64 15 -107.5 -31.5t-56.5 -137.5l-22 -185h-127z" />
    <glyph glyph-name="Rcommaaccent" unicode="&#x156;" horiz-adv-x="617" 
d="M52 0l87 710h248q197 0 197 -193q0 -90 -39.5 -155t-115.5 -95l124 -267h-150l-106 245h-81l-29 -245h-135zM231 366h83q59 0 93.5 38.5t34.5 104.5q0 38 -24.5 59t-63.5 21h-95zM185 -220l-15 74q32 10 44.5 25t12.5 44q0 4 -2 24h108v-23q0 -64 -38.5 -101.5
t-109.5 -42.5z" />
    <glyph glyph-name="rcommaaccent" unicode="&#x157;" horiz-adv-x="355" 
d="M36 0l60 489h127l-10 -80h2q63 87 152 87l-18 -142q-64 15 -107.5 -31.5t-56.5 -137.5l-22 -185h-127zM-4 -220l-15 74q32 10 44.5 25t12.5 44q0 4 -2 24h108v-23q0 -64 -38.5 -101.5t-109.5 -42.5z" />
    <glyph glyph-name="Rcaron" unicode="&#x158;" horiz-adv-x="617" 
d="M309 769l-80 135h113l38 -66h2l54 66h112l-114 -135h-125zM52 0l87 710h248q197 0 197 -193q0 -90 -39.5 -155t-115.5 -95l124 -267h-150l-106 245h-81l-29 -245h-135zM231 366h83q59 0 93.5 38.5t34.5 104.5q0 38 -24.5 59t-63.5 21h-95z" />
    <glyph glyph-name="rcaron" unicode="&#x159;" horiz-adv-x="355" 
d="M192 549l-75 147h112l34 -73h3l52 73h112l-113 -147h-125zM36 0l60 489h127l-10 -80h2q63 87 152 87l-18 -142q-64 15 -107.5 -31.5t-56.5 -137.5l-22 -185h-127z" />
    <glyph glyph-name="Sacute" unicode="&#x15a;" horiz-adv-x="556" 
d="M271 769l115 134l136 1l-130 -135h-121zM261 -9q-76 0 -140.5 32.5t-101.5 91.5l98 88q22 -42 60 -65t79 -23q49 0 80 25t31 61q0 9 -2.5 17t-8.5 15.5t-11 12.5t-16.5 12.5t-19.5 12t-25.5 14.5t-27.5 16q-87 51 -115 75q-61 54 -61 130q0 96 68 154.5t169 58.5
q62 0 119 -28t93 -78l-98 -84q-47 68 -121 68q-40 0 -64.5 -22t-23.5 -53q1 -26 20.5 -44.5t72.5 -50.5q14 -8 47.5 -27t47.5 -27.5t37.5 -27t34 -34t19 -39.5t8.5 -52q0 -109 -69.5 -169t-178.5 -60z" />
    <glyph glyph-name="sacute" unicode="&#x15b;" horiz-adv-x="424" 
d="M168 556l119 146l134 1l-129 -147h-124zM190 -9q-54 0 -105 23t-79 61l77 79q46 -59 109 -59q27 0 45 10.5t18 28.5q0 15 -15 25.5t-55 29.5q-9 4 -13 6q-58 27 -89 61t-31 85q0 69 50 112t124 43q109 0 172 -73l-80 -79q-36 48 -92 50q-21 0 -35 -11t-14 -29
q0 -26 75 -63q31 -15 48.5 -25.5t38.5 -28t31.5 -39.5t10.5 -49q1 -74 -51 -116t-140 -42z" />
    <glyph glyph-name="Scircumflex" unicode="&#x15c;" horiz-adv-x="556" 
d="M175 769l115 135h125l79 -135h-113l-37 66h-3l-54 -66h-112zM261 -9q-76 0 -140.5 32.5t-101.5 91.5l98 88q22 -42 60 -65t79 -23q49 0 80 25t31 61q0 9 -2.5 17t-8.5 15.5t-11 12.5t-16.5 12.5t-19.5 12t-25.5 14.5t-27.5 16q-87 51 -115 75q-61 54 -61 130
q0 96 68 154.5t169 58.5q62 0 119 -28t93 -78l-98 -84q-47 68 -121 68q-40 0 -64.5 -22t-23.5 -53q1 -26 20.5 -44.5t72.5 -50.5q14 -8 47.5 -27t47.5 -27.5t37.5 -27t34 -34t19 -39.5t8.5 -52q0 -109 -69.5 -169t-178.5 -60z" />
    <glyph glyph-name="scircumflex" unicode="&#x15d;" horiz-adv-x="424" 
d="M91 554l116 149h116l85 -149h-116l-30 75h-2l-49 -75h-120zM190 -9q-54 0 -105 23t-79 61l77 79q46 -59 109 -59q27 0 45 10.5t18 28.5q0 15 -15 25.5t-55 29.5q-9 4 -13 6q-58 27 -89 61t-31 85q0 69 50 112t124 43q109 0 172 -73l-80 -79q-36 48 -92 50q-21 0 -35 -11
t-14 -29q0 -26 75 -63q31 -15 48.5 -25.5t38.5 -28t31.5 -39.5t10.5 -49q1 -74 -51 -116t-140 -42z" />
    <glyph glyph-name="Scedilla" unicode="&#x15e;" horiz-adv-x="556" 
d="M315 427q14 -8 47.5 -27t47.5 -27.5t37.5 -27t34 -34t19 -39.5t8.5 -52q0 -108 -69 -168t-177 -61l-15 -21l1 -1q75 -3 75 -67q0 -45 -34 -69.5t-92 -24.5q-21 0 -51 6l3 58q15 -6 37 -6q56 0 56 36q0 25 -67 25l2 37l20 33q-121 25 -179 118l98 88q22 -42 60 -65t79 -23
q49 0 80 25t31 61q0 9 -2.5 17t-8.5 15.5t-11 12.5t-16.5 12.5t-19.5 12t-25.5 14.5t-27.5 16q-87 51 -115 75q-61 54 -61 130q0 96 68 154.5t169 58.5q62 0 119 -28t93 -78l-98 -84q-47 68 -121 68q-40 0 -64.5 -22t-23.5 -53q1 -26 20.5 -44.5t72.5 -50.5z" />
    <glyph glyph-name="scedilla" unicode="&#x15f;" horiz-adv-x="424" 
d="M252 291q31 -15 48.5 -25.5t38.5 -28t31.5 -39.5t10.5 -49q1 -74 -51 -116t-140 -42h-2l-15 -21l1 -1q75 -3 75 -67q0 -45 -34 -69.5t-92 -24.5q-21 0 -51 6l3 58q15 -6 37 -6q56 0 56 36q0 25 -67 25l2 37l21 36q-79 21 -118 75l77 79q46 -59 109 -59q27 0 45 10.5
t18 28.5q0 15 -15 25.5t-55 29.5q-9 4 -13 6q-58 27 -89 61t-31 85q0 69 50 112t124 43q109 0 172 -73l-80 -79q-36 48 -92 50q-21 0 -35 -11t-14 -29q0 -26 75 -63z" />
    <glyph glyph-name="Scaron" unicode="&#x160;" horiz-adv-x="556" 
d="M271 769l-80 135h113l38 -66h2l54 66h112l-114 -135h-125zM261 -9q-76 0 -140.5 32.5t-101.5 91.5l98 88q22 -42 60 -65t79 -23q49 0 80 25t31 61q0 9 -2.5 17t-8.5 15.5t-11 12.5t-16.5 12.5t-19.5 12t-25.5 14.5t-27.5 16q-87 51 -115 75q-61 54 -61 130q0 96 68 154.5
t169 58.5q62 0 119 -28t93 -78l-98 -84q-47 68 -121 68q-40 0 -64.5 -22t-23.5 -53q1 -26 20.5 -44.5t72.5 -50.5q14 -8 47.5 -27t47.5 -27.5t37.5 -27t34 -34t19 -39.5t8.5 -52q0 -109 -69.5 -169t-178.5 -60z" />
    <glyph glyph-name="scaron" unicode="&#x161;" horiz-adv-x="424" 
d="M187 549l-75 147h112l34 -73h3l52 73h112l-113 -147h-125zM190 -9q-54 0 -105 23t-79 61l77 79q46 -59 109 -59q27 0 45 10.5t18 28.5q0 15 -15 25.5t-55 29.5q-9 4 -13 6q-58 27 -89 61t-31 85q0 69 50 112t124 43q109 0 172 -73l-80 -79q-36 48 -92 50q-21 0 -35 -11
t-14 -29q0 -26 75 -63q31 -15 48.5 -25.5t38.5 -28t31.5 -39.5t10.5 -49q1 -74 -51 -116t-140 -42z" />
    <glyph glyph-name="uni0162" unicode="&#x162;" horiz-adv-x="543" 
d="M86 710h485l-15 -122h-175l-72 -588h-54l-21 -30l1 -1q75 -3 75 -67q0 -45 -34 -69.5t-92 -24.5q-21 0 -51 6l3 58q15 -6 37 -6q56 0 56 36q0 25 -67 25l2 37l21 36h-12l72 588h-173z" />
    <glyph glyph-name="uni0163" unicode="&#x163;" horiz-adv-x="340" 
d="M215 383l-27 -223q-7 -50 28 -50q25 0 61 21l19 -105q-58 -33 -122 -35l-15 -21l1 -1q75 -3 75 -67q0 -45 -34 -69.5t-92 -24.5q-21 0 -51 6l3 58q15 -6 37 -6q56 0 56 36q0 25 -67 25l2 37l23 39q-66 31 -54 137l30 243h-51l13 106h50l20 148l129 25l-21 -173h111
l-13 -106h-111z" />
    <glyph glyph-name="Tcaron" unicode="&#x164;" horiz-adv-x="543" 
d="M271 769l-80 135h113l38 -66h2l54 66h112l-114 -135h-125zM173 0l72 588h-173l14 122h485l-15 -122h-175l-72 -588h-136z" />
    <glyph glyph-name="tcaron" unicode="&#x165;" horiz-adv-x="357" 
d="M291 580l54 206h124l-86 -206h-92zM169 -9q-61 0 -90 38.5t-21 110.5l30 243h-51l13 106h50l20 148l129 25l-21 -173h111l-13 -106h-111l-27 -223q-7 -50 28 -50q25 0 61 21l19 -105q-59 -35 -127 -35z" />
    <glyph glyph-name="Tbar" unicode="&#x166;" horiz-adv-x="543" 
d="M556 588h-175l-25 -206h104l-13 -99h-103l-35 -283h-136l35 283h-100l12 99h100l25 206h-173l14 122h485z" />
    <glyph glyph-name="tbar" unicode="&#x167;" horiz-adv-x="340" 
d="M326 383h-111l-10 -79h91l-11 -82h-89l-8 -62q-7 -50 28 -50q25 0 61 21l19 -105q-59 -35 -127 -35q-61 0 -90 38.5t-21 110.5l10 82h-44l10 82h44l10 79h-51l13 106h50l20 148l129 25l-21 -173h111z" />
    <glyph glyph-name="Utilde" unicode="&#x168;" horiz-adv-x="669" 
d="M503 768q-34 0 -78 31q-28 21 -45 21q-33 0 -57 -53l-75 38q51 103 121 103q8 0 15.5 -0.5t14.5 -3t11 -3.5t11 -5t8.5 -5t8.5 -6l8 -5q30 -22 45 -22q35 0 59 51l74 -29q-21 -51 -52.5 -81.5t-68.5 -30.5zM324 -9q-132 0 -188.5 85t-38.5 233l50 401h136l-50 -405
q-11 -84 12 -134.5t88 -50.5q130 0 152 175l51 415h136l-51 -416q-19 -158 -92 -230.5t-205 -72.5z" />
    <glyph glyph-name="utilde" unicode="&#x169;" horiz-adv-x="542" 
d="M407 552q-11 0 -20.5 2t-18 6t-13.5 7t-13.5 9t-10.5 7q-27 20 -45 20q-36 0 -60 -52l-75 38q48 112 123 112q11 0 21 -1.5t18 -5.5t12.5 -6.5t12.5 -8t10 -6.5q31 -22 45 -22q36 0 60 52l75 -30q-21 -57 -52.5 -89t-68.5 -32zM192 -9q-76 0 -109 46.5t-19 149.5l43 302
h126l-38 -277q-9 -59 1 -82.5t41 -23.5q39 0 82.5 50.5t52.5 116.5l26 216h127l-60 -489h-126l9 80h-2q-63 -89 -154 -89z" />
    <glyph glyph-name="Umacron" unicode="&#x16a;" horiz-adv-x="669" 
d="M285 790l12 98h279l-13 -98h-278zM324 -9q-132 0 -188.5 85t-38.5 233l50 401h136l-50 -405q-11 -84 12 -134.5t88 -50.5q130 0 152 175l51 415h136l-51 -416q-19 -158 -92 -230.5t-205 -72.5z" />
    <glyph glyph-name="umacron" unicode="&#x16b;" horiz-adv-x="542" 
d="M190 583l12 102h279l-13 -102h-278zM192 -9q-76 0 -109 46.5t-19 149.5l43 302h126l-38 -277q-9 -59 1 -82.5t41 -23.5q39 0 82.5 50.5t52.5 116.5l26 216h127l-60 -489h-126l9 80h-2q-63 -89 -154 -89z" />
    <glyph glyph-name="Ubreve" unicode="&#x16c;" horiz-adv-x="669" 
d="M423 762q-70 0 -104.5 37.5t-29.5 104.5h95q-3 -21 8.5 -36t36.5 -15t43.5 15.5t24.5 35.5h95q-13 -64 -57 -103t-112 -39zM324 -9q-132 0 -188.5 85t-38.5 233l50 401h136l-50 -405q-11 -84 12 -134.5t88 -50.5q130 0 152 175l51 415h136l-51 -416q-19 -158 -92 -230.5
t-205 -72.5z" />
    <glyph glyph-name="ubreve" unicode="&#x16d;" horiz-adv-x="542" 
d="M326 544q-69 0 -104 39.5t-29 112.5h95q-3 -25 8 -41t36 -16t44 16.5t25 40.5h95q-13 -70 -57.5 -111t-112.5 -41zM192 -9q-76 0 -109 46.5t-19 149.5l43 302h126l-38 -277q-9 -59 1 -82.5t41 -23.5q39 0 82.5 50.5t52.5 116.5l26 216h127l-60 -489h-126l9 80h-2
q-63 -89 -154 -89z" />
    <glyph glyph-name="Uring" unicode="&#x16e;" horiz-adv-x="669" 
d="M428 756q-44 0 -73.5 29.5t-29.5 73.5q0 46 30.5 76t76.5 30q44 0 73.5 -29t29.5 -73q0 -46 -30.5 -76.5t-76.5 -30.5zM430 823q16 0 27 11t11 27t-10.5 26.5t-26.5 10.5t-27 -11t-11 -27t10.5 -26.5t26.5 -10.5zM324 -9q-132 0 -188.5 85t-38.5 233l50 401h136l-50 -405
q-11 -84 12 -134.5t88 -50.5q130 0 152 175l51 415h136l-51 -416q-19 -158 -92 -230.5t-205 -72.5z" />
    <glyph glyph-name="uring" unicode="&#x16f;" horiz-adv-x="542" 
d="M336 539q-44 0 -73.5 29.5t-29.5 73.5q0 46 30.5 76t76.5 30q44 0 73.5 -29t29.5 -73q0 -46 -30.5 -76.5t-76.5 -30.5zM338 606q16 0 27 11t11 27t-10.5 26.5t-26.5 10.5t-27 -11t-11 -27t10.5 -26.5t26.5 -10.5zM192 -9q-76 0 -109 46.5t-19 149.5l43 302h126l-38 -277
q-9 -59 1 -82.5t41 -23.5q39 0 82.5 50.5t52.5 116.5l26 216h127l-60 -489h-126l9 80h-2q-63 -89 -154 -89z" />
    <glyph glyph-name="Uhungarumlaut" unicode="&#x170;" horiz-adv-x="669" 
d="M257 766l118 146l129 1l-129 -147h-118zM451 766l117 146l129 1l-129 -147h-117zM324 -9q-132 0 -188.5 85t-38.5 233l50 401h136l-50 -405q-11 -84 12 -134.5t88 -50.5q130 0 152 175l51 415h136l-51 -416q-19 -158 -92 -230.5t-205 -72.5z" />
    <glyph glyph-name="uhungarumlaut" unicode="&#x171;" horiz-adv-x="542" 
d="M172 556l118 146l129 1l-129 -147h-118zM366 556l117 146l129 1l-129 -147h-117zM192 -9q-76 0 -109 46.5t-19 149.5l43 302h126l-38 -277q-9 -59 1 -82.5t41 -23.5q39 0 82.5 50.5t52.5 116.5l26 216h127l-60 -489h-126l9 80h-2q-63 -89 -154 -89z" />
    <glyph glyph-name="Uogonek" unicode="&#x172;" horiz-adv-x="669" 
d="M534 710h136l-51 -416q-30 -249 -205 -293q-39 -14 -64.5 -38t-25.5 -49q0 -13 7.5 -20.5t18.5 -7.5q19 0 38 8l1 -72q-24 -11 -71 -11q-94 0 -94 76q0 56 55 104l-1 3q-109 14 -154 97t-29 218l50 401h136l-50 -405q-11 -84 12 -134.5t88 -50.5q130 0 152 175z" />
    <glyph glyph-name="uogonek" unicode="&#x173;" horiz-adv-x="542" 
d="M398 489h127l-60 -489h-5q-40 -6 -67.5 -32t-27.5 -54t27 -28q23 0 37 8l2 -72q-24 -11 -72 -11q-94 0 -94 76q0 34 21 66.5t54 53.5l8 73h-2q-63 -89 -154 -89q-76 0 -109 46.5t-19 149.5l43 302h126l-38 -277q-9 -59 1 -82.5t41 -23.5q39 0 82.5 50.5t52.5 116.5z" />
    <glyph glyph-name="Wcircumflex" unicode="&#x174;" horiz-adv-x="942" 
d="M375 769l115 135h125l79 -135h-113l-37 66h-3l-54 -66h-112zM197 0l-113 710h141l64 -486h3l164 486h145l48 -473h3l175 473h147l-288 -710h-130l-56 493h-2l-173 -493h-128z" />
    <glyph glyph-name="wcircumflex" unicode="&#x175;" horiz-adv-x="773" 
d="M286 554l116 149h116l85 -149h-116l-30 75h-2l-49 -75h-120zM187 -9q-74 0 -106.5 53t-18.5 153l40 292h126l-36 -272q-14 -111 41 -111q33 0 68.5 41.5t46.5 131.5l26 210h125l-34 -281q-7 -55 2 -78.5t35 -23.5q36 0 73.5 48.5t52.5 145.5q15 85 1 189h129
q18 -108 -2 -219q-25 -143 -99.5 -211t-171.5 -68q-56 0 -91.5 26.5t-44.5 67.5h-2q-24 -43 -71.5 -68.5t-88.5 -25.5z" />
    <glyph glyph-name="Ycircumflex" unicode="&#x176;" horiz-adv-x="581" 
d="M193 769l115 135h125l79 -135h-113l-37 66h-3l-54 -66h-112zM191 0l39 312l-163 398h150l94 -269h3l160 269h157l-264 -398l-39 -312h-137z" />
    <glyph glyph-name="ycircumflex" unicode="&#x177;" horiz-adv-x="540" 
d="M318 629l-49 -75h-120l116 149h116l85 -149h-116l-30 75h-2zM385 489h125l-52 -426q-32 -269 -270 -269q-97 0 -172 47l40 103q64 -41 128 -41q63 0 99.5 34.5t49.5 131.5l1 10l-2 1q-64 -89 -157 -89q-155 0 -127 196l41 302h126l-37 -277q-7 -59 2.5 -82t40.5 -24
q41 0 85.5 53t52.5 121z" />
    <glyph glyph-name="Ydieresis" unicode="&#x178;" horiz-adv-x="581" 
d="M258 767q-34 0 -56.5 22.5t-22.5 55.5q0 35 23 57.5t59 22.5q34 0 56.5 -22t22.5 -55q0 -35 -23 -58t-59 -23zM460 767q-35 0 -57.5 22.5t-22.5 55.5q0 35 23.5 57.5t59.5 22.5q34 0 56.5 -22t22.5 -55q0 -35 -23 -58t-59 -23zM191 0l39 312l-163 398h150l94 -269h3
l160 269h157l-264 -398l-39 -312h-137z" />
    <glyph glyph-name="Zacute" unicode="&#x179;" horiz-adv-x="581" 
d="M255 769l115 134l136 1l-130 -135h-121zM23 0l12 107l359 478l-1 3h-287l14 122h463l-12 -104l-366 -480l2 -4h304l-15 -122h-473z" />
    <glyph glyph-name="zacute" unicode="&#x17a;" horiz-adv-x="458" 
d="M169 556l119 146l134 1l-129 -147h-124zM372 -28q-105 28 -365 28l10 87l241 296v1h-187l12 105h359l-9 -87l-245 -296v-2q130 -4 216 -31z" />
    <glyph glyph-name="Zdotaccent" unicode="&#x17b;" horiz-adv-x="581" 
d="M362 767q-34 0 -56.5 22.5t-22.5 55.5q0 35 23 57.5t59 22.5q34 0 57 -22t23 -55q0 -35 -23.5 -58t-59.5 -23zM23 0l12 107l359 478l-1 3h-287l14 122h463l-12 -104l-366 -480l2 -4h304l-15 -122h-473z" />
    <glyph glyph-name="zdotaccent" unicode="&#x17c;" horiz-adv-x="458" 
d="M278 557q-34 0 -56.5 22.5t-22.5 55.5q0 35 23 57.5t59 22.5q34 0 57 -22t23 -55q0 -35 -23.5 -58t-59.5 -23zM372 -28q-105 28 -365 28l10 87l241 296v1h-187l12 105h359l-9 -87l-245 -296v-2q130 -4 216 -31z" />
    <glyph glyph-name="Zcaron" unicode="&#x17d;" horiz-adv-x="581" 
d="M293 769l-80 135h113l38 -66h2l54 66h112l-114 -135h-125zM23 0l12 107l359 478l-1 3h-287l14 122h463l-12 -104l-366 -480l2 -4h304l-15 -122h-473z" />
    <glyph glyph-name="zcaron" unicode="&#x17e;" horiz-adv-x="458" 
d="M206 549l-75 147h112l34 -73h3l52 73h112l-113 -147h-125zM372 -28q-105 28 -365 28l10 87l241 296v1h-187l12 105h359l-9 -87l-245 -296v-2q130 -4 216 -31z" />
    <glyph glyph-name="longs" unicode="&#x17f;" horiz-adv-x="315" 
d="M41 0l46 383h-44l13 106h45l11 92q20 164 154 164q65 0 114 -35l-33 -99q-32 21 -58 21q-22 0 -34.5 -16t-18.5 -60l-69 -556h-126z" />
    <glyph glyph-name="uni018F" unicode="&#x18f;" horiz-adv-x="713" 
d="M401 719q129 0 205.5 -79.5t76.5 -219.5q0 -117 -42 -213.5t-124.5 -156t-191.5 -59.5q-127 0 -203.5 79t-76.5 215q0 42 14 104h483q1 8 1 25q0 86 -43.5 132t-113.5 46q-84 0 -158 -62l-80 101q115 88 253 88zM333 119q61 0 109.5 41.5t75.5 111.5h-338
q4 -74 45.5 -113.5t107.5 -39.5z" />
    <glyph glyph-name="florin" unicode="&#x192;" horiz-adv-x="492" 
d="M50 -152q-55 0 -89 14t-46 31l53 84q31 -16 61 -16q35 0 55.5 20.5t31.5 69.5l73 312h-70l28 107h71l25 107q40 168 180 168q97 0 136 -45l-54 -84q-34 16 -61 16q-60 0 -79 -91l-16 -71h117l-28 -107h-118l-82 -347q-20 -86 -66 -127t-122 -41z" />
    <glyph glyph-name="uni019D" unicode="&#x19d;" horiz-adv-x="705" 
d="M8 -204q-38 0 -69 7l18 107q22 -5 34 -5q31 0 42.5 22t18.5 76l87 707h132l210 -481l3 2l63 479h134l-92 -710h-135l-207 472h-3l-61 -493q-13 -105 -56 -144t-119 -39z" />
    <glyph glyph-name="Ohorn" unicode="&#x1a0;" horiz-adv-x="804" 
d="M730 774h111l-11 -89q-19 -148 -120 -172q11 -44 11 -93q0 -180 -102 -304.5t-273 -124.5q-131 0 -208.5 80t-77.5 221q0 113 45.5 209.5t132 157t196.5 60.5q85 0 149.5 -35t100.5 -101q15 11 22 37.5t14 78.5zM357 119q96 0 159 87.5t63 207.5q0 88 -42.5 133
t-116.5 45q-93 0 -156 -89.5t-63 -205.5q0 -88 42 -133t114 -45z" />
    <glyph glyph-name="ohorn" unicode="&#x1a1;" horiz-adv-x="635" 
d="M547 565h111l-11 -89q-22 -164 -140 -175v-9q0 -130 -69.5 -215.5t-196.5 -85.5q-94 0 -149.5 55t-55.5 153q0 123 71.5 210t191.5 87q73 0 124.5 -32.5t71.5 -92.5q19 8 26.5 35t15.5 84zM248 106q57 0 94 51.5t37 124.5q0 55 -27 77.5t-62 22.5q-56 0 -91.5 -52.5
t-35.5 -119.5q0 -47 23.5 -75.5t61.5 -28.5z" />
    <glyph glyph-name="Uhorn" unicode="&#x1af;" horiz-adv-x="768" 
d="M737 774h111l-11 -89q-12 -88 -52.5 -132t-103.5 -44q-17 0 -33 3l-27 -218q-19 -158 -92 -230.5t-205 -72.5t-188.5 85t-38.5 233l50 401h136l-50 -405q-11 -84 12 -134.5t88 -50.5q130 0 152 175l51 415h136l-16 -131q10 -2 14 -2q10 0 17.5 4t13.5 13.5t9.5 17.5
t7 25.5t5 28t4.5 33.5z" />
    <glyph glyph-name="uhorn" unicode="&#x1b0;" horiz-adv-x="654" 
d="M587 565h111l-11 -89q-12 -88 -52.5 -132t-103.5 -44q-9 0 -29 2l-37 -302h-126l9 80h-2q-63 -89 -154 -89q-76 0 -109 46.5t-19 149.5l43 302h126l-38 -277q-9 -59 1 -82.5t41 -23.5q39 0 82.5 50.5t52.5 116.5l26 216h127l-15 -120q4 -1 10 -1q10 0 17.5 4t13.5 13.5
t9.5 17.5t7 25.5t5 28t4.5 33.5z" />
    <glyph glyph-name="uni01CD" unicode="&#x1cd;" horiz-adv-x="642" 
d="M327 769l-80 135h113l38 -66h2l54 66h112l-114 -135h-125zM-12 0l322 710h136l149 -710h-142l-26 144h-237l-61 -144h-141zM237 261h170l-51 281h-2z" />
    <glyph glyph-name="uni01CE" unicode="&#x1ce;" horiz-adv-x="558" 
d="M262 549l-75 147h112l34 -73h3l52 73h112l-113 -147h-125zM198 -9q-80 0 -122 56t-42 143q0 125 67.5 215.5t168.5 90.5q80 0 122 -45l3 1l5 36h127l-60 -488h-127l10 82l-3 1q-64 -92 -149 -92zM231 104q49 0 93.5 61t57.5 160l2 16q-41 41 -98 41q-55 0 -89.5 -58
t-34.5 -130q0 -42 18 -66t51 -24z" />
    <glyph glyph-name="uni01CF" unicode="&#x1cf;" horiz-adv-x="310" 
d="M155 768l-80 135h113l38 -66h2l54 66h112l-114 -135h-125zM56 0l87 710h138l-87 -710h-138z" />
    <glyph glyph-name="uni01D0" unicode="&#x1d0;" horiz-adv-x="262" 
d="M109 549l-75 147h112l34 -73h3l52 73h112l-113 -147h-125zM37 0l61 489h127l-60 -489h-128z" />
    <glyph glyph-name="uni01D1" unicode="&#x1d1;" horiz-adv-x="754" 
d="M403 769l-80 135h113l38 -66h2l54 66h112l-114 -135h-125zM346 -9q-131 0 -208.5 80t-77.5 221q0 113 45.5 209.5t132 157t196.5 60.5q130 0 208.5 -79.5t78.5 -219.5q0 -180 -102 -304.5t-273 -124.5zM357 119q96 0 159 87.5t63 207.5q0 88 -42.5 133t-116.5 45
q-93 0 -156 -89.5t-63 -205.5q0 -88 42 -133t114 -45z" />
    <glyph glyph-name="uni01D2" unicode="&#x1d2;" horiz-adv-x="543" 
d="M253 549l-75 147h112l34 -73h3l52 73h112l-113 -147h-125zM241 -9q-94 0 -149.5 55t-55.5 153q0 123 71.5 210t191.5 87q95 0 151.5 -53.5t56.5 -150.5q0 -130 -69.5 -215.5t-196.5 -85.5zM248 106q57 0 94 51.5t37 124.5q0 55 -27 77.5t-62 22.5q-56 0 -91.5 -52.5
t-35.5 -119.5q0 -47 23.5 -75.5t61.5 -28.5z" />
    <glyph glyph-name="uni01D3" unicode="&#x1d3;" horiz-adv-x="669" 
d="M358 769l-80 135h113l38 -66h2l54 66h112l-114 -135h-125zM324 -9q-132 0 -188.5 85t-38.5 233l50 401h136l-50 -405q-11 -84 12 -134.5t88 -50.5q130 0 152 175l51 415h136l-51 -416q-19 -158 -92 -230.5t-205 -72.5z" />
    <glyph glyph-name="uni01D4" unicode="&#x1d4;" horiz-adv-x="542" 
d="M262 549l-75 147h112l34 -73h3l52 73h112l-113 -147h-125zM192 -9q-76 0 -109 46.5t-19 149.5l43 302h126l-38 -277q-9 -59 1 -82.5t41 -23.5q39 0 82.5 50.5t52.5 116.5l26 216h127l-60 -489h-126l9 80h-2q-63 -89 -154 -89z" />
    <glyph glyph-name="uni01D5" unicode="&#x1d5;" horiz-adv-x="669" 
d="M295 938l10 77h279l-10 -77h-279zM326 767q-30 0 -49.5 18.5t-19.5 46.5q0 29 20.5 48.5t51.5 19.5q30 0 50 -18.5t20 -46.5q0 -29 -21 -48.5t-52 -19.5zM519 767q-30 0 -49.5 18.5t-19.5 46.5q0 29 20.5 48.5t51.5 19.5q30 0 50 -18.5t20 -46.5q0 -29 -21 -48.5
t-52 -19.5zM324 -9q-132 0 -188.5 85t-38.5 233l50 401h136l-50 -405q-11 -84 12 -134.5t88 -50.5q130 0 152 175l51 415h136l-51 -416q-19 -158 -92 -230.5t-205 -72.5z" />
    <glyph glyph-name="uni01D6" unicode="&#x1d6;" horiz-adv-x="542" 
d="M203 752l11 84h279l-11 -84h-279zM232 557q-32 0 -53.5 21t-21.5 52q0 33 22 54.5t56 21.5q32 0 53.5 -21t21.5 -52q0 -33 -22 -54.5t-56 -21.5zM424 557q-33 0 -54 21t-21 52q0 33 21.5 54.5t55.5 21.5q32 0 53.5 -21t21.5 -52q0 -33 -22 -54.5t-55 -21.5zM192 -9
q-76 0 -109 46.5t-19 149.5l43 302h126l-38 -277q-9 -59 1 -82.5t41 -23.5q39 0 82.5 50.5t52.5 116.5l26 216h127l-60 -489h-126l9 80h-2q-63 -89 -154 -89z" />
    <glyph glyph-name="uni01D7" unicode="&#x1d7;" horiz-adv-x="669" 
d="M384 913l105 131l130 1l-149 -132h-86zM326 767q-30 0 -49.5 18.5t-19.5 46.5q0 29 20.5 48.5t51.5 19.5q30 0 50 -18.5t20 -46.5q0 -29 -21 -48.5t-52 -19.5zM519 767q-30 0 -49.5 18.5t-19.5 46.5q0 29 20.5 48.5t51.5 19.5q30 0 50 -18.5t20 -46.5q0 -29 -21 -48.5
t-52 -19.5zM324 -9q-132 0 -188.5 85t-38.5 233l50 401h136l-50 -405q-11 -84 12 -134.5t88 -50.5q130 0 152 175l51 415h136l-51 -416q-19 -158 -92 -230.5t-205 -72.5z" />
    <glyph glyph-name="uni01D8" unicode="&#x1d8;" horiz-adv-x="542" 
d="M290 723l113 141h130l-149 -141h-94zM232 557q-32 0 -53.5 21t-21.5 52q0 33 22 54.5t56 21.5q32 0 53.5 -21t21.5 -52q0 -33 -22 -54.5t-56 -21.5zM424 557q-33 0 -54 21t-21 52q0 33 21.5 54.5t55.5 21.5q32 0 53.5 -21t21.5 -52q0 -33 -22 -54.5t-55 -21.5zM192 -9
q-76 0 -109 46.5t-19 149.5l43 302h126l-38 -277q-9 -59 1 -82.5t41 -23.5q39 0 82.5 50.5t52.5 116.5l26 216h127l-60 -489h-126l9 80h-2q-63 -89 -154 -89z" />
    <glyph glyph-name="uni01D9" unicode="&#x1d9;" horiz-adv-x="669" 
d="M365 919l-80 121h113l38 -59h2l54 59h112l-114 -121h-125zM326 767q-30 0 -49.5 18.5t-19.5 46.5q0 29 20.5 48.5t51.5 19.5q30 0 50 -18.5t20 -46.5q0 -29 -21 -48.5t-52 -19.5zM519 767q-30 0 -49.5 18.5t-19.5 46.5q0 29 20.5 48.5t51.5 19.5q30 0 50 -18.5t20 -46.5
q0 -29 -21 -48.5t-52 -19.5zM324 -9q-132 0 -188.5 85t-38.5 233l50 401h136l-50 -405q-11 -84 12 -134.5t88 -50.5q130 0 152 175l51 415h136l-51 -416q-19 -158 -92 -230.5t-205 -72.5z" />
    <glyph glyph-name="uni01DA" unicode="&#x1da;" horiz-adv-x="542" 
d="M279 720l-75 143h112l34 -71h3l52 71h112l-113 -143h-125zM232 557q-32 0 -53.5 21t-21.5 52q0 33 22 54.5t56 21.5q32 0 53.5 -21t21.5 -52q0 -33 -22 -54.5t-56 -21.5zM424 557q-33 0 -54 21t-21 52q0 33 21.5 54.5t55.5 21.5q32 0 53.5 -21t21.5 -52q0 -33 -22 -54.5
t-55 -21.5zM192 -9q-76 0 -109 46.5t-19 149.5l43 302h126l-38 -277q-9 -59 1 -82.5t41 -23.5q39 0 82.5 50.5t52.5 116.5l26 216h127l-60 -489h-126l9 80h-2q-63 -89 -154 -89z" />
    <glyph glyph-name="uni01DB" unicode="&#x1db;" horiz-adv-x="669" 
d="M393 913l-103 129h114l66 -129h-77zM326 767q-30 0 -49.5 18.5t-19.5 46.5q0 29 20.5 48.5t51.5 19.5q30 0 50 -18.5t20 -46.5q0 -29 -21 -48.5t-52 -19.5zM519 767q-30 0 -49.5 18.5t-19.5 46.5q0 29 20.5 48.5t51.5 19.5q30 0 50 -18.5t20 -46.5q0 -29 -21 -48.5
t-52 -19.5zM324 -9q-132 0 -188.5 85t-38.5 233l50 401h136l-50 -405q-11 -84 12 -134.5t88 -50.5q130 0 152 175l51 415h136l-51 -416q-19 -158 -92 -230.5t-205 -72.5z" />
    <glyph glyph-name="uni01DC" unicode="&#x1dc;" horiz-adv-x="542" 
d="M288 723l-103 141h128l67 -141h-92zM232 557q-32 0 -53.5 21t-21.5 52q0 33 22 54.5t56 21.5q32 0 53.5 -21t21.5 -52q0 -33 -22 -54.5t-56 -21.5zM424 557q-33 0 -54 21t-21 52q0 33 21.5 54.5t55.5 21.5q32 0 53.5 -21t21.5 -52q0 -33 -22 -54.5t-55 -21.5zM192 -9
q-76 0 -109 46.5t-19 149.5l43 302h126l-38 -277q-9 -59 1 -82.5t41 -23.5q39 0 82.5 50.5t52.5 116.5l26 216h127l-60 -489h-126l9 80h-2q-63 -89 -154 -89z" />
    <glyph glyph-name="Gcaron" unicode="&#x1e6;" horiz-adv-x="695" 
d="M379 768l-80 135h113l38 -66h2l54 66h112l-114 -135h-125zM350 -9q-129 0 -209.5 76.5t-80.5 221.5q0 180 104 305t264 125q164 0 243 -125l-109 -82q-50 78 -141 78q-94 0 -156 -87t-62 -209q0 -85 40 -131t114 -46q67 0 129 42l15 108h-135l15 118h268l-36 -306
q-48 -40 -119 -64t-144 -24z" />
    <glyph glyph-name="gcaron" unicode="&#x1e7;" horiz-adv-x="559" 
d="M262 549l-75 147h112l34 -73h3l52 73h112l-113 -147h-125zM195 -206q-95 0 -170 47l41 105q63 -40 130 -40q69 0 106.5 37.5t48.5 147.5l16 4l-17 6q-65 -94 -151 -94q-80 0 -122 55t-42 140q0 117 67.5 205.5t168.5 88.5q79 0 123 -44l2 1l4 36h127l-52 -427
q-10 -79 -35.5 -133.5t-65 -83t-82.5 -40t-97 -11.5zM231 120q47 0 91.5 55t57.5 141l4 25q-41 41 -97 41q-55 0 -89.5 -56t-34.5 -119q0 -41 18 -64t50 -23z" />
    <glyph glyph-name="uni01EA" unicode="&#x1ea;" horiz-adv-x="754" 
d="M405 -5q-33 -10 -54 -33.5t-21 -47.5q0 -28 27 -28q23 0 37 8l2 -72q-24 -11 -72 -11q-94 0 -94 76q0 60 58 108v1q-106 17 -167 94.5t-61 201.5q0 113 45.5 209.5t132 157t196.5 60.5q130 0 208.5 -79.5t78.5 -219.5q0 -163 -85 -283t-231 -142zM201 297q0 -88 42 -133
t114 -45q96 0 159 87.5t63 207.5q0 88 -42.5 133t-116.5 45q-93 0 -156 -89.5t-63 -205.5z" />
    <glyph glyph-name="uni01EB" unicode="&#x1eb;" horiz-adv-x="543" 
d="M282 -6q-31 -11 -50.5 -34t-19.5 -46q0 -28 27 -28q23 0 37 8l2 -72q-24 -11 -72 -11q-94 0 -94 76q0 63 62 111l-1 2q-65 17 -101 69t-36 130q0 123 71.5 210t191.5 87q95 0 151.5 -53.5t56.5 -150.5q0 -119 -58.5 -201.5t-166.5 -96.5zM290 382q-56 0 -91.5 -52.5
t-35.5 -119.5q0 -47 23.5 -75.5t61.5 -28.5q57 0 94 51.5t37 124.5q0 55 -27 77.5t-62 22.5z" />
    <glyph glyph-name="Aringacute" unicode="&#x1fa;" horiz-adv-x="642" 
d="M397 756q-44 0 -73.5 29.5t-29.5 73.5q0 46 30.5 76t76.5 30q42 0 73 -28l58 45h133l-161 -121q-1 -46 -31.5 -75.5t-75.5 -29.5zM400 898q-16 0 -27 -11t-11 -27t10.5 -26.5t26.5 -10.5t27 11t11 27t-10.5 26.5t-26.5 10.5zM310 710h136l149 -710h-142l-26 144h-237
l-61 -144h-141zM237 261h170l-51 281h-2z" />
    <glyph glyph-name="aringacute" unicode="&#x1fb;" horiz-adv-x="558" 
d="M336 539q-44 0 -73.5 29.5t-29.5 73.5q0 46 30.5 76t76.5 30q42 0 71 -27l57 43h136l-161 -120q-1 -46 -31.5 -75.5t-75.5 -29.5zM339 681q-16 0 -27 -11t-11 -27t10.5 -26.5t26.5 -10.5t27 11t11 27t-10.5 26.5t-26.5 10.5zM395 452l5 36h127l-60 -488h-127l10 82l-3 1
q-64 -92 -149 -92q-80 0 -122 56t-42 143q0 125 67.5 215.5t168.5 90.5q80 0 122 -45zM382 325l2 16q-41 41 -98 41q-55 0 -89.5 -58t-34.5 -130q0 -42 18 -66t51 -24q49 0 93.5 61t57.5 160z" />
    <glyph glyph-name="AEacute" unicode="&#x1fc;" horiz-adv-x="872" 
d="M413 769l115 134l136 1l-130 -135h-121zM-26 0l400 710h488l-15 -122h-283l-23 -175h231l-15 -120h-230l-21 -171h302l-15 -122h-434l18 144h-177l-79 -144h-147zM262 261h130l36 301h-2z" />
    <glyph glyph-name="aeacute" unicode="&#x1fd;" horiz-adv-x="693" 
d="M601 703l-129 -147h-124l119 146zM483 103q50 0 89 50l96 -64q-74 -96 -190 -96q-128 0 -166 99q-49 -101 -143 -101q-68 0 -108.5 51t-38.5 133q2 131 73 222.5t187 91.5q72 0 121 -30q55 37 129 37q64 0 108.5 -35t44.5 -95q0 -81 -79.5 -130.5t-211.5 -61.5
q7 -35 31.5 -53t57.5 -18zM519 386q-35 0 -70.5 -34.5t-49.5 -91.5q161 23 161 96q0 12 -10.5 21t-30.5 9zM190 101q18 0 34 15.5t28.5 47.5t19.5 53.5t17 59.5q14 56 39 100q-16 3 -30 3q-66 0 -107 -62.5t-41 -147.5q0 -33 11.5 -51t28.5 -18z" />
    <glyph glyph-name="Oslashacute" unicode="&#x1fe;" horiz-adv-x="756" 
d="M634 903l-130 -135h-121l115 134zM752 681l-76 -81q47 -74 47 -180q0 -180 -102 -304.5t-273 -124.5q-115 0 -189 62l-79 -84l-60 61l84 88q-42 73 -42 174q0 113 45.5 209.5t132 157t196.5 60.5q109 0 183 -57l73 78zM203 297q0 -34 8 -66l312 330q-38 31 -101 31
q-93 0 -156 -89.5t-63 -205.5zM581 414q0 40 -10 75l-316 -335q41 -35 104 -35q96 0 159 87.5t63 207.5z" />
    <glyph glyph-name="oslashacute" unicode="&#x1ff;" horiz-adv-x="545" 
d="M505 703l-129 -147h-124l119 146zM529 462l-51 -54q29 -47 29 -116q0 -130 -69.5 -215.5t-196.5 -85.5q-75 0 -127 36l-49 -51l-48 48l50 53q-31 50 -31 122q0 123 71.5 210t191.5 87q80 0 133 -38l49 51zM163 210q0 -16 3 -30l178 186q-23 16 -54 16q-56 0 -91.5 -52.5
t-35.5 -119.5zM379 282q0 15 -1 21l-176 -183q20 -14 46 -14q57 0 94 51.5t37 124.5z" />
    <glyph glyph-name="Scommaaccent" unicode="&#x218;" horiz-adv-x="556" 
d="M261 -9q-76 0 -140.5 32.5t-101.5 91.5l98 88q22 -42 60 -65t79 -23q49 0 80 25t31 61q0 9 -2.5 17t-8.5 15.5t-11 12.5t-16.5 12.5t-19.5 12t-25.5 14.5t-27.5 16q-87 51 -115 75q-61 54 -61 130q0 96 68 154.5t169 58.5q62 0 119 -28t93 -78l-98 -84q-47 68 -121 68
q-40 0 -64.5 -22t-23.5 -53q1 -26 20.5 -44.5t72.5 -50.5q14 -8 47.5 -27t47.5 -27.5t37.5 -27t34 -34t19 -39.5t8.5 -52q0 -109 -69.5 -169t-178.5 -60zM152 -220l-15 74q32 10 44.5 25t12.5 44q0 4 -2 24h108v-23q0 -64 -38.5 -101.5t-109.5 -42.5z" />
    <glyph glyph-name="scommaaccent" unicode="&#x219;" horiz-adv-x="424" 
d="M190 -9q-54 0 -105 23t-79 61l77 79q46 -59 109 -59q27 0 45 10.5t18 28.5q0 15 -15 25.5t-55 29.5q-9 4 -13 6q-58 27 -89 61t-31 85q0 69 50 112t124 43q109 0 172 -73l-80 -79q-36 48 -92 50q-21 0 -35 -11t-14 -29q0 -26 75 -63q31 -15 48.5 -25.5t38.5 -28
t31.5 -39.5t10.5 -49q1 -74 -51 -116t-140 -42zM77 -220l-15 74q32 10 44.5 25t12.5 44q0 4 -2 24h108v-23q0 -64 -38.5 -101.5t-109.5 -42.5z" />
    <glyph glyph-name="uni021A" unicode="&#x21a;" horiz-adv-x="543" 
d="M173 0l72 588h-173l14 122h485l-15 -122h-175l-72 -588h-136zM138 -220l-15 74q32 10 44.5 25t12.5 44q0 4 -2 24h108v-23q0 -64 -38.5 -101.5t-109.5 -42.5z" />
    <glyph glyph-name="uni021B" unicode="&#x21b;" horiz-adv-x="340" 
d="M169 -9q-61 0 -90 38.5t-21 110.5l30 243h-51l13 106h50l20 148l129 25l-21 -173h111l-13 -106h-111l-27 -223q-7 -50 28 -50q25 0 61 21l19 -105q-59 -35 -127 -35zM63 -220l-15 74q32 10 44.5 25t12.5 44q0 4 -2 24h108v-23q0 -64 -38.5 -101.5t-109.5 -42.5z" />
    <glyph glyph-name="uni0232" unicode="&#x232;" horiz-adv-x="581" 
d="M216 790l12 98h279l-13 -98h-278zM191 0l39 312l-163 398h150l94 -269h3l160 269h157l-264 -398l-39 -312h-137z" />
    <glyph glyph-name="uni0233" unicode="&#x233;" horiz-adv-x="540" 
d="M464 685l-13 -102h-278l12 102h279zM385 489h125l-52 -426q-32 -269 -270 -269q-97 0 -172 47l40 103q64 -41 128 -41q63 0 99.5 34.5t49.5 131.5l1 10l-2 1q-64 -89 -157 -89q-155 0 -127 196l41 302h126l-37 -277q-7 -59 2.5 -82t40.5 -24q41 0 85.5 53t52.5 121z" />
    <glyph glyph-name="uni0237" unicode="&#x237;" horiz-adv-x="245" 
d="M-8 -206q-52 0 -95 23l32 99q18 -14 41 -14t35 20t17 68l62 499h127l-63 -517q-23 -178 -156 -178z" />
    <glyph glyph-name="uni0251" unicode="&#x251;" horiz-adv-x="558" 
d="M198 -9q-80 0 -122 56t-42 143q0 125 67.5 215.5t168.5 90.5q80 0 122 -45l3 1l5 36h127l-60 -488h-127l10 82l-3 1q-64 -92 -149 -92zM231 104q49 0 93.5 61t57.5 160l2 16q-41 41 -98 41q-55 0 -89.5 -58t-34.5 -130q0 -42 18 -66t51 -24z" />
    <glyph glyph-name="uni0259" unicode="&#x259;" horiz-adv-x="466" 
d="M236 496q93 0 148 -56.5t55 -153.5q0 -129 -69 -211.5t-195 -82.5q-70 0 -115 36.5t-45 100.5q0 46 24.5 81.5t67.5 57.5t94 35t113 19q-14 64 -85 64q-52 0 -101 -40l-69 85q34 30 82 47.5t95 17.5zM187 103q49 0 80.5 34t43.5 92q-171 -20 -171 -90q0 -36 47 -36z" />
    <glyph glyph-name="uni0261" unicode="&#x261;" horiz-adv-x="559" 
d="M195 -206q-95 0 -170 47l41 105q63 -40 130 -40q69 0 106.5 37.5t48.5 147.5l16 4l-17 6q-65 -94 -151 -94q-80 0 -122 55t-42 140q0 117 67.5 205.5t168.5 88.5q79 0 123 -44l2 1l4 36h127l-52 -427q-10 -79 -35.5 -133.5t-65 -83t-82.5 -40t-97 -11.5zM231 120
q47 0 91.5 55t57.5 141l4 25q-41 41 -97 41q-55 0 -89.5 -56t-34.5 -119q0 -41 18 -64t50 -23z" />
    <glyph glyph-name="uni0272" unicode="&#x272;" horiz-adv-x="552" 
d="M384 496q75 0 103.5 -49t14.5 -151l-40 -296h-126l37 276q7 55 -1.5 80.5t-38.5 25.5q-42 0 -88.5 -54.5t-59.5 -137.5l-23 -190q-14 -110 -58.5 -157.5t-129.5 -47.5q-33 0 -60 8l21 97q3 0 10.5 -1.5t11.5 -1.5q36 0 53 25t26 89l9 66l50 412h127l-9 -78l2 -1
q71 86 169 86z" />
    <glyph glyph-name="uni02BB" unicode="&#x2bb;" horiz-adv-x="225" 
d="M81 410l47 261h92l-17 -261h-122z" />
    <glyph glyph-name="uni02BC" unicode="&#x2bc;" horiz-adv-x="208" 
d="M62 494l54 214h125l-87 -214h-92z" />
    <glyph glyph-name="uni02BE" unicode="&#x2be;" horiz-adv-x="236" 
d="M101 759q68 0 109 -39.5t41 -103.5q0 -81 -51 -132t-131 -51l-4 89q37 1 59 26.5t22 62.5q0 55 -61 58z" />
    <glyph glyph-name="uni02BF" unicode="&#x2bf;" horiz-adv-x="251" 
d="M237 433q-68 0 -109 39.5t-41 103.5q0 81 51 132t131 51l4 -89q-37 -1 -59 -26.5t-22 -62.5q0 -55 61 -58z" />
    <glyph glyph-name="circumflex" unicode="&#x2c6;" horiz-adv-x="419" 
d="M85 534l116 149h116l85 -149h-116l-30 75h-2l-49 -75h-120z" />
    <glyph glyph-name="caron" unicode="&#x2c7;" horiz-adv-x="419" 
d="M181 529l-75 147h112l34 -73h3l52 73h112l-113 -147h-125z" />
    <glyph glyph-name="uni02C8" unicode="&#x2c8;" horiz-adv-x="192" 
d="M66 372l31 279h95l-33 -278z" />
    <glyph glyph-name="uni02C9" unicode="&#x2c9;" horiz-adv-x="337" 
d="M71 584l12 102h279l-13 -102h-278z" />
    <glyph glyph-name="uni02CA" unicode="&#x2ca;" horiz-adv-x="307" 
d="M87 557l119 146l134 1l-129 -147h-124z" />
    <glyph glyph-name="uni02CB" unicode="&#x2cb;" horiz-adv-x="304" 
d="M177 557l-93 147l134 -1l82 -146h-123z" />
    <glyph glyph-name="uni02CC" unicode="&#x2cc;" horiz-adv-x="192" 
d="M0 -186l31 279h95l-33 -278z" />
    <glyph glyph-name="breve" unicode="&#x2d8;" horiz-adv-x="414" 
d="M248 524q-69 0 -104 39.5t-29 112.5h95q-3 -25 8 -41t36 -16t44 16.5t25 40.5h95q-13 -70 -57.5 -111t-112.5 -41z" />
    <glyph glyph-name="dotaccent" unicode="&#x2d9;" horiz-adv-x="464" 
d="M275 537q-34 0 -56.5 22.5t-22.5 55.5q0 35 23 57.5t59 22.5q34 0 57 -22t23 -55q0 -35 -23.5 -58t-59.5 -23z" />
    <glyph glyph-name="ring" unicode="&#x2da;" horiz-adv-x="430" 
d="M259 513q-44 0 -73.5 29.5t-29.5 73.5q0 46 30.5 76t76.5 30q44 0 73.5 -29t29.5 -73q0 -46 -30.5 -76.5t-76.5 -30.5zM261 580q16 0 27 11t11 27t-10.5 26.5t-26.5 10.5t-27 -11t-11 -27t10.5 -26.5t26.5 -10.5z" />
    <glyph glyph-name="ogonek" unicode="&#x2db;" horiz-adv-x="436" 
d="M196 -189q-94 0 -94 76q0 37 25 72.5t62 54.5l108 -14q-40 -6 -67.5 -32t-27.5 -54t27 -28q23 0 37 8l2 -72q-24 -11 -72 -11z" />
    <glyph glyph-name="tilde" unicode="&#x2dc;" horiz-adv-x="447" 
d="M336 532q-11 0 -20.5 2t-18 6t-13.5 7t-13.5 9t-10.5 7q-27 20 -45 20q-36 0 -60 -52l-75 38q48 112 123 112q11 0 21 -1.5t18 -5.5t12.5 -6.5t12.5 -8t10 -6.5q31 -22 45 -22q36 0 60 52l75 -30q-21 -57 -52.5 -89t-68.5 -32z" />
    <glyph glyph-name="hungarumlaut" unicode="&#x2dd;" horiz-adv-x="482" 
d="M70 536l118 146l129 1l-129 -147h-118zM264 536l117 146l129 1l-129 -147h-117z" />
    <glyph glyph-name="gravecomb" unicode="&#x300;" horiz-adv-x="0" 
d="M-486 536l-93 147l134 -1l82 -146h-123z" />
    <glyph glyph-name="acutecomb" unicode="&#x301;" horiz-adv-x="0" 
d="M-565 536l119 146l134 1l-129 -147h-124z" />
    <glyph glyph-name="uni0302" unicode="&#x302;" horiz-adv-x="0" 
d="M-624 534l116 149h116l85 -149h-116l-30 75h-2l-49 -75h-120z" />
    <glyph glyph-name="tildecomb" unicode="&#x303;" horiz-adv-x="0" 
d="M-384 532q-11 0 -20.5 2t-18 6t-13.5 7t-13.5 9t-10.5 7q-27 20 -45 20q-36 0 -60 -52l-75 38q48 112 123 112q11 0 21 -1.5t18 -5.5t12.5 -6.5t12.5 -8t10 -6.5q31 -22 45 -22q36 0 60 52l75 -30q-21 -57 -52.5 -89t-68.5 -32z" />
    <glyph glyph-name="uni0304" unicode="&#x304;" horiz-adv-x="0" 
d="M-600 563l12 102h279l-13 -102h-278z" />
    <glyph glyph-name="uni0306" unicode="&#x306;" horiz-adv-x="0" 
d="M-459 524q-69 0 -104 39.5t-29 112.5h95q-3 -25 8 -41t36 -16t44 16.5t25 40.5h95q-13 -70 -57.5 -111t-112.5 -41z" />
    <glyph glyph-name="uni0307" unicode="&#x307;" horiz-adv-x="0" 
d="M-455 537q-34 0 -56.5 22.5t-22.5 55.5q0 35 23 57.5t59 22.5q34 0 57 -22t23 -55q0 -35 -23.5 -58t-59.5 -23z" />
    <glyph glyph-name="uni0308" unicode="&#x308;" horiz-adv-x="0" 
d="M-557 537q-34 0 -56.5 22.5t-22.5 55.5q0 35 23 57.5t59 22.5q34 0 56.5 -22t22.5 -55q0 -35 -23 -58t-59 -23zM-355 537q-35 0 -57.5 22.5t-22.5 55.5q0 35 23.5 57.5t59.5 22.5q34 0 56.5 -22t22.5 -55q0 -35 -23 -58t-59 -23z" />
    <glyph glyph-name="hookabovecomb" unicode="&#x309;" horiz-adv-x="0" 
d="M-437 529l-76 1q66 49 67 86q1 8 -5 13.5t-18 5.5q-33 0 -76 -29l-18 59q59 52 137 52q36 0 57.5 -17t21.5 -49q0 -39 -27.5 -72.5t-62.5 -49.5z" />
    <glyph glyph-name="uni030A" unicode="&#x30a;" horiz-adv-x="0" 
d="M-454 519q-44 0 -73.5 29.5t-29.5 73.5q0 46 30.5 76t76.5 30q44 0 73.5 -29t29.5 -73q0 -46 -30.5 -76.5t-76.5 -30.5zM-452 586q16 0 27 11t11 27t-10.5 26.5t-26.5 10.5t-27 -11t-11 -27t10.5 -26.5t26.5 -10.5z" />
    <glyph glyph-name="uni030B" unicode="&#x30b;" horiz-adv-x="0" 
d="M-618 536l118 146l129 1l-129 -147h-118zM-424 536l117 146l129 1l-129 -147h-117z" />
    <glyph glyph-name="uni030C" unicode="&#x30c;" horiz-adv-x="0" 
d="M-528 529l-75 147h112l34 -73h3l52 73h112l-113 -147h-125z" />
    <glyph glyph-name="uni0312" unicode="&#x312;" horiz-adv-x="0" 
d="M-512 542q-1 5 -1 22q0 64 39 102t109 42l16 -73q-31 -10 -44 -25.5t-13 -44.5q0 -14 1 -23h-107z" />
    <glyph glyph-name="uni0313" unicode="&#x313;" horiz-adv-x="0" 
d="M-478 698q1 -5 1 -22q0 -64 -39 -102t-109 -42l-16 73q31 10 44 25.5t13 44.5q0 14 -1 23h107z" />
    <glyph glyph-name="uni031B" unicode="&#x31b;" horiz-adv-x="0" 
d="M-448 445q-28 0 -57 10l16 65q17 -7 30 -7q10 0 17.5 4t13.5 13.5t9.5 17.5t7 25.5t5 28t4.5 33.5l10 75h111l-11 -89q-12 -88 -52.5 -132t-103.5 -44z" />
    <glyph glyph-name="dotbelowcomb" unicode="&#x323;" horiz-adv-x="0" 
d="M-547 -71q34 0 56.5 -22.5t22.5 -55.5q0 -35 -23 -57.5t-59 -22.5q-34 0 -57 22t-23 55q0 35 23.5 58t59.5 23z" />
    <glyph glyph-name="uni0324" unicode="&#x324;" horiz-adv-x="0" 
d="M-647 -71q35 0 57.5 -22.5t22.5 -55.5q0 -35 -23.5 -57.5t-59.5 -22.5q-34 0 -56.5 22t-22.5 55q0 35 23 58t59 23zM-445 -71q34 0 56.5 -22.5t22.5 -55.5q0 -35 -23 -57.5t-59 -22.5q-34 0 -56.5 22t-22.5 55q0 35 23 58t59 23z" />
    <glyph glyph-name="uni0326" unicode="&#x326;" horiz-adv-x="0" 
d="M-636 -220l-15 74q32 10 44.5 25t12.5 44q0 4 -2 24h108v-23q0 -64 -38.5 -101.5t-109.5 -42.5z" />
    <glyph glyph-name="uni0327" unicode="&#x327;" horiz-adv-x="0" 
d="M-590 -192q-21 0 -51 6l3 58q15 -6 37 -6q56 0 56 36q0 25 -67 25l2 37l25 42h70l-25 -36l1 -1q75 -3 75 -67q0 -45 -34 -69.5t-92 -24.5z" />
    <glyph glyph-name="uni0328" unicode="&#x328;" horiz-adv-x="0" 
d="M-632 -189q-94 0 -94 76q0 37 25 72.5t62 54.5l108 -14q-40 -6 -67.5 -32t-27.5 -54t27 -28q23 0 37 8l2 -72q-24 -11 -72 -11z" />
    <glyph glyph-name="uni032E" unicode="&#x32e;" horiz-adv-x="0" 
d="M-549 -229q-69 0 -104 39.5t-29 112.5h95q-3 -25 8 -41t36 -16t44 16.5t25 40.5h95q-13 -70 -57.5 -111t-112.5 -41z" />
    <glyph glyph-name="uni0331" unicode="&#x331;" horiz-adv-x="0" 
d="M-693 -209l12 102h279l-13 -102h-278z" />
    <glyph glyph-name="uni0335" unicode="&#x335;" horiz-adv-x="0" 
d="M-630 222l9 82h262l-11 -82h-260z" />
    <glyph glyph-name="uni0400" unicode="&#x400;" horiz-adv-x="563" 
d="M335 768l-96 135l134 -1l83 -134h-121zM51 0l87 710h415l-16 -122h-280l-21 -176h224l-15 -120h-224l-21 -170h299l-15 -122h-433z" />
    <glyph glyph-name="uni0401" unicode="&#x401;" horiz-adv-x="563" 
d="M266 784q-34 0 -56.5 22.5t-22.5 55.5q0 35 23 57.5t59 22.5q34 0 56.5 -22t22.5 -55q0 -35 -23 -58t-59 -23zM468 784q-35 0 -57.5 22.5t-22.5 55.5q0 35 23.5 57.5t59.5 22.5q34 0 56.5 -22t22.5 -55q0 -35 -23 -58t-59 -23zM51 0l87 710h415l-16 -122h-280l-21 -176
h224l-15 -120h-224l-21 -170h299l-15 -122h-433z" />
    <glyph glyph-name="uni0402" unicode="&#x402;" horiz-adv-x="714" 
d="M500 455q86 0 139 -51t53 -145q0 -127 -72 -196.5t-187 -69.5q-25 0 -58 5l18 110q14 -2 23 -2q60 0 97 37.5t37 100.5q0 87 -99 87q-64 0 -115 -29l-37 -302h-136l72 588h-173l14 122h485l-15 -122h-175l-22 -178q72 45 151 45z" />
    <glyph glyph-name="uni0403" unicode="&#x403;" horiz-adv-x="528" 
d="M255 769l115 134l136 1l-130 -135h-121zM52 0l87 710h416l-15 -122h-280l-72 -588h-136z" />
    <glyph glyph-name="uni0404" unicode="&#x404;" horiz-adv-x="666" 
d="M355 118q99 0 164 76l99 -89q-106 -114 -269 -114q-130 0 -209.5 76t-79.5 223q0 183 100 306t264 123q167 0 247 -115l-106 -90q-48 77 -148 77q-72 0 -125 -48t-77 -127h279l-14 -116h-281v-8q-1 -83 40 -128.5t116 -45.5z" />
    <glyph glyph-name="uni0405" unicode="&#x405;" horiz-adv-x="556" 
d="M261 -9q-76 0 -140.5 32.5t-101.5 91.5l98 88q22 -42 60 -65t79 -23q49 0 80 25t31 61q0 9 -2.5 17t-8.5 15.5t-11 12.5t-16.5 12.5t-19.5 12t-25.5 14.5t-27.5 16q-87 51 -115 75q-61 54 -61 130q0 96 68 154.5t169 58.5q62 0 119 -28t93 -78l-98 -84q-47 68 -121 68
q-40 0 -64.5 -22t-23.5 -53q1 -26 20.5 -44.5t72.5 -50.5q14 -8 47.5 -27t47.5 -27.5t37.5 -27t34 -34t19 -39.5t8.5 -52q0 -109 -69.5 -169t-178.5 -60z" />
    <glyph glyph-name="uni0406" unicode="&#x406;" horiz-adv-x="310" 
d="M56 0l87 710h138l-87 -710h-138z" />
    <glyph glyph-name="uni0407" unicode="&#x407;" horiz-adv-x="310" 
d="M127 784q-34 0 -56.5 22.5t-22.5 55.5q0 35 23 57.5t59 22.5q34 0 56.5 -22t22.5 -55q0 -35 -23 -58t-59 -23zM329 784q-35 0 -57.5 22.5t-22.5 55.5q0 35 23.5 57.5t59.5 22.5q34 0 56.5 -22t22.5 -55q0 -35 -23 -58t-59 -23zM56 0l87 710h138l-87 -710h-138z" />
    <glyph glyph-name="uni0408" unicode="&#x408;" horiz-adv-x="476" 
d="M174 -9q-51 0 -96.5 25t-72.5 70l92 93q31 -58 76 -58q79 0 97 144l55 445h137l-56 -452q-16 -135 -71 -201t-161 -66z" />
    <glyph glyph-name="uni0409" unicode="&#x409;" horiz-adv-x="976" 
d="M744 451q53 0 92.5 -13t61.5 -33t35.5 -48t17 -53.5t3.5 -54.5q-2 -124 -73.5 -186.5t-206.5 -62.5h-232l72 588h-160q-37 -218 -62 -316q-35 -145 -86.5 -212t-145.5 -67q-44 0 -76 13l20 111q22 -4 34 -4q48 0 78.5 56.5t56.5 167.5q36 159 68 373h424l-32 -259h111z
M684 121q64 0 96.5 31.5t32.5 89.5q0 89 -93 89h-102l-23 -189l-3 -21h92z" />
    <glyph glyph-name="uni040A" unicode="&#x40a;" horiz-adv-x="968" 
d="M736 437q53 0 92.5 -13t61.5 -32.5t35.5 -47t17 -51t3.5 -50.5q-3 -120 -74 -181.5t-206 -61.5h-235l37 300h-243l-37 -300h-136l87 710h136l-35 -289h243l35 289h136l-34 -273h116zM676 121q63 0 96 31t33 84q0 81 -94 81h-106l-24 -196h95z" />
    <glyph glyph-name="uni040B" unicode="&#x40b;" horiz-adv-x="725" 
d="M537 457q90 0 123.5 -55.5t18.5 -168.5l-31 -233h-135l30 229q8 59 -6 83t-57 24q-68 0 -133 -36l-38 -300h-136l72 588h-173l14 122h485l-15 -122h-175l-21 -179q37 19 87.5 33.5t89.5 14.5z" />
    <glyph glyph-name="uni040C" unicode="&#x40c;" horiz-adv-x="621" 
d="M542 904l-130 -135h-121l115 134zM662 710l-263 -317l181 -393h-155l-129 295l-85 -100l-24 -195h-135l87 710h135l-39 -319l3 -1l257 320h167z" />
    <glyph glyph-name="uni040D" unicode="&#x40d;" horiz-adv-x="697" 
d="M395 769l-96 135l134 -1l83 -134h-121zM52 0l87 710h135l-60 -478h3l327 478h128l-86 -710h-137l57 461h-2l-326 -461h-126z" />
    <glyph glyph-name="uni040E" unicode="&#x40e;" horiz-adv-x="599" 
d="M362 764q-67 0 -103.5 33t-40.5 108l103 9q1 -32 16.5 -50t38.5 -18q24 0 48.5 19.5t40.5 52.5l91 -27q-33 -67 -85 -97t-109 -30zM495 710h152l-274 -527q-27 -52 -42 -77.5t-41 -57t-55.5 -44.5t-68.5 -13q-74 0 -116 35l42 112q34 -25 65 -25q29 0 51.5 25.5
t48.5 76.5l-191 495h150l112 -349h3z" />
    <glyph glyph-name="uni040F" unicode="&#x40f;" horiz-adv-x="659" 
d="M635 710l-87 -710h-189l-21 -137h-112l12 137h-186l87 710h136l-72 -588h223l73 588h136z" />
    <glyph glyph-name="uni0410" unicode="&#x410;" horiz-adv-x="642" 
d="M-12 0l322 710h136l149 -710h-142l-26 144h-237l-61 -144h-141zM237 261h170l-51 281h-2z" />
    <glyph glyph-name="uni0411" unicode="&#x411;" horiz-adv-x="597" 
d="M52 0l87 710h416l-15 -122h-282l-18 -147h105q66 0 111 -17t65.5 -46.5t28 -59.5t6.5 -67q-1 -126 -72.5 -188.5t-204.5 -62.5h-227zM200 120h88q62 0 94.5 31.5t32.5 89.5q0 45 -22.5 64t-71.5 19h-95z" />
    <glyph glyph-name="uni0412" unicode="&#x412;" horiz-adv-x="603" 
d="M52 0l87 710h238q189 0 189 -149q0 -54 -29.5 -105t-81.5 -76v-2q102 -36 102 -146q0 -112 -68.5 -172t-201.5 -60h-235zM238 419h83q47 0 77 29t30 81q0 32 -20.5 46t-64.5 14h-84zM201 120h91q61 0 93.5 31.5t32.5 88.5q0 67 -94 67h-100z" />
    <glyph glyph-name="uni0413" unicode="&#x413;" horiz-adv-x="528" 
d="M52 0l87 710h416l-15 -122h-280l-72 -588h-136z" />
    <glyph glyph-name="uni0414" unicode="&#x414;" horiz-adv-x="734" 
d="M701 122l-38 -259h-112l11 137h-454l-25 -137h-112l29 259h82q70 119 111 262q37 127 62 326h423l-73 -588h96zM316 331q-38 -125 -86 -209h240l58 466h-158q-20 -140 -54 -257z" />
    <glyph glyph-name="uni0415" unicode="&#x415;" horiz-adv-x="563" 
d="M51 0l87 710h415l-16 -122h-280l-21 -176h224l-15 -120h-224l-21 -170h299l-15 -122h-433z" />
    <glyph glyph-name="uni0416" unicode="&#x416;" horiz-adv-x="876" 
d="M916 710l-244 -334l170 -376h-155l-126 295l-66 -81l-25 -214h-131l26 216l-44 79l-193 -295h-154l256 379l-166 331h158l160 -338l3 1l41 337h131l-42 -336l3 -1l236 337h162z" />
    <glyph glyph-name="uni0417" unicode="&#x417;" horiz-adv-x="566" 
d="M260 -9q-83 0 -149.5 32t-102.5 89l96 91q24 -42 65.5 -64.5t92.5 -22.5q56 0 87.5 29t31.5 78q0 86 -114 86h-92l15 113h84q56 0 89 26t33 71q0 38 -25 56t-65 18q-77 0 -135 -50l-80 99q91 76 233 76q95 0 153 -43.5t58 -120.5q0 -55 -31.5 -101t-86.5 -70v-3
q50 -22 77.5 -65t27.5 -102q0 -101 -70 -161.5t-192 -60.5z" />
    <glyph glyph-name="uni0418" unicode="&#x418;" horiz-adv-x="697" 
d="M52 0l87 710h135l-60 -478h3l327 478h128l-86 -710h-137l57 461h-2l-326 -461h-126z" />
    <glyph glyph-name="uni0419" unicode="&#x419;" horiz-adv-x="697" 
d="M416 764q-67 0 -103.5 33t-40.5 108l103 9q1 -32 16.5 -50t38.5 -18q24 0 48.5 19.5t40.5 52.5l91 -27q-33 -67 -85 -97t-109 -30zM52 0l87 710h135l-60 -478h3l327 478h128l-86 -710h-137l57 461h-2l-326 -461h-126z" />
    <glyph glyph-name="uni041A" unicode="&#x41a;" horiz-adv-x="621" 
d="M662 710l-263 -317l181 -393h-155l-129 295l-85 -100l-24 -195h-135l87 710h135l-39 -319l3 -1l257 320h167z" />
    <glyph glyph-name="uni041B" unicode="&#x41b;" horiz-adv-x="689" 
d="M241 710h424l-88 -710h-135l72 588h-160q-37 -218 -62 -316q-35 -145 -86.5 -212t-145.5 -67q-44 0 -76 13l20 111q22 -4 34 -4q48 0 78.5 56.5t56.5 167.5q36 159 68 373z" />
    <glyph glyph-name="uni041C" unicode="&#x41c;" horiz-adv-x="817" 
d="M52 0l87 710h135l144 -408h3l237 408h135l-87 -710h-135l52 432l-3 1l-178 -298h-88l-111 312l-2 -1l-54 -446h-135z" />
    <glyph glyph-name="uni041D" unicode="&#x41d;" horiz-adv-x="686" 
d="M52 0l87 710h136l-38 -309h251l38 309h136l-87 -710h-137l35 279h-251l-34 -279h-136z" />
    <glyph glyph-name="uni041E" unicode="&#x41e;" horiz-adv-x="754" 
d="M346 -9q-131 0 -208.5 80t-77.5 221q0 113 45.5 209.5t132 157t196.5 60.5q130 0 208.5 -79.5t78.5 -219.5q0 -180 -102 -304.5t-273 -124.5zM357 119q96 0 159 87.5t63 207.5q0 88 -42.5 133t-116.5 45q-93 0 -156 -89.5t-63 -205.5q0 -88 42 -133t114 -45z" />
    <glyph glyph-name="uni041F" unicode="&#x41f;" horiz-adv-x="659" 
d="M52 0l87 710h496l-87 -710h-136l72 588h-224l-72 -588h-136z" />
    <glyph glyph-name="uni0420" unicode="&#x420;" horiz-adv-x="585" 
d="M52 0l87 710h242q197 0 197 -193q0 -127 -73 -199.5t-209 -72.5h-80l-29 -245h-135zM231 366h78q59 0 93.5 37.5t34.5 105.5q0 38 -24.5 59t-63.5 21h-90z" />
    <glyph glyph-name="uni0421" unicode="&#x421;" horiz-adv-x="669" 
d="M348 -9q-128 0 -208 77.5t-80 221.5q0 180 104 304.5t268 124.5q157 0 246 -149l-111 -81q-53 100 -142 100q-98 0 -160.5 -89.5t-62.5 -207.5q0 -81 40 -126t113 -45q43 0 85.5 22t72.5 59l99 -89q-107 -122 -264 -122z" />
    <glyph glyph-name="uni0422" unicode="&#x422;" horiz-adv-x="543" 
d="M173 0l72 588h-173l14 122h485l-15 -122h-175l-72 -588h-136z" />
    <glyph glyph-name="uni0423" unicode="&#x423;" horiz-adv-x="599" 
d="M495 710h152l-274 -527q-27 -52 -42 -77.5t-41 -57t-55.5 -44.5t-68.5 -13q-74 0 -116 35l42 112q34 -25 65 -25q29 0 51.5 25.5t48.5 76.5l-191 495h150l112 -349h3z" />
    <glyph glyph-name="uni0424" unicode="&#x424;" horiz-adv-x="804" 
d="M778 397q0 -140 -85.5 -230.5t-244.5 -95.5l-8 -71h-135l9 72q-119 8 -189.5 73.5t-70.5 179.5q0 88 37.5 162t114 123t180.5 54l8 63h135l-8 -65q115 -10 186 -80.5t71 -184.5zM194 335q0 -135 138 -147l45 362q-87 -8 -135 -69.5t-48 -145.5zM458 187q88 7 134 61.5
t46 140.5q0 70 -35 111t-100 49z" />
    <glyph glyph-name="uni0425" unicode="&#x425;" horiz-adv-x="624" 
d="M-19 0l252 360l-155 350h149l108 -251h4l163 251h161l-246 -354l164 -356h-154l-113 254h-4l-174 -254h-155z" />
    <glyph glyph-name="uni0426" unicode="&#x426;" horiz-adv-x="686" 
d="M653 122l-38 -259h-112l11 137h-462l87 710h136l-72 -588h217l73 588h136l-72 -588h96z" />
    <glyph glyph-name="uni0427" unicode="&#x427;" horiz-adv-x="612" 
d="M465 710h137l-88 -710h-136l33 277q-73 -42 -168 -42q-97 0 -134.5 55t-23.5 169l34 251h134l-32 -248q-7 -60 7.5 -83t63.5 -23q68 0 134 32z" />
    <glyph glyph-name="uni0428" unicode="&#x428;" horiz-adv-x="923" 
d="M763 710h136l-87 -710h-760l87 710h136l-72 -588h176l72 588h135l-72 -588h177z" />
    <glyph glyph-name="uni0429" unicode="&#x429;" horiz-adv-x="956" 
d="M923 122l-38 -259h-112l11 137h-732l87 710h136l-72 -588h176l72 588h135l-72 -588h177l72 588h136l-72 -588h96z" />
    <glyph glyph-name="uni042A" unicode="&#x42a;" horiz-adv-x="669" 
d="M437 451q53 0 92.5 -13t61.5 -33t35.5 -48t17 -53.5t3.5 -54.5q-2 -124 -73.5 -186.5t-206.5 -62.5h-232l72 588h-160l15 122h295l-31 -259h111zM377 121q64 0 96.5 31.5t32.5 89.5q0 89 -93 89h-102l-26 -210h92z" />
    <glyph glyph-name="uni042B" unicode="&#x42b;" horiz-adv-x="863" 
d="M52 0l87 710h135l-32 -259h101q53 0 92.5 -13t61.5 -33t35.5 -48t17 -53.5t3.5 -54.5q-2 -124 -73.5 -186.5t-206.5 -62.5h-221zM614 0l87 710h138l-87 -710h-138zM202 121h81q64 0 96.5 31.5t32.5 89.5q0 89 -93 89h-91z" />
    <glyph glyph-name="uni042C" unicode="&#x42c;" horiz-adv-x="585" 
d="M52 0l87 710h135l-32 -259h112q53 0 92.5 -13t61.5 -33t35.5 -48t17 -53.5t3.5 -54.5q-2 -124 -73.5 -186.5t-206.5 -62.5h-232zM202 121h92q64 0 96.5 31.5t32.5 89.5q0 89 -93 89h-102z" />
    <glyph glyph-name="uni042D" unicode="&#x42d;" horiz-adv-x="656" 
d="M339 719q138 0 212 -80.5t74 -219.5q0 -120 -40.5 -216t-124 -154t-196.5 -58q-172 0 -249 118l101 88q46 -80 150 -80q77 0 131.5 49t74.5 134h-281l14 116h282q-1 85 -43.5 131.5t-121.5 46.5q-80 0 -144 -59l-80 99q100 85 241 85z" />
    <glyph glyph-name="uni042E" unicode="&#x42e;" horiz-adv-x="989" 
d="M685 718q127 0 205 -79.5t78 -217.5q0 -116 -43.5 -212.5t-129 -156.5t-196.5 -60q-122 0 -197 78t-76 211h-108l-34 -281h-137l87 710h137l-38 -308h105q30 139 121.5 227.5t225.5 88.5zM608 119q95 0 156.5 89.5t61.5 211.5q0 82 -41.5 126.5t-106.5 44.5
q-92 0 -153.5 -87t-61.5 -204q0 -88 40.5 -134.5t104.5 -46.5z" />
    <glyph glyph-name="uni042F" unicode="&#x42f;" horiz-adv-x="617" 
d="M342 710h251l-87 -710h-135l30 244h-96l-158 -244h-152l186 280q-47 26 -72.5 70.5t-25.5 96.5q0 119 66 191t193 72zM415 364l28 225h-99q-57 0 -88.5 -34.5t-31.5 -93.5q0 -47 27 -72t74 -25h90z" />
    <glyph glyph-name="uni0430" unicode="&#x430;" horiz-adv-x="558" 
d="M198 -9q-80 0 -122 56t-42 143q0 125 67.5 215.5t168.5 90.5q80 0 122 -45l3 1l5 36h127l-60 -488h-127l10 82l-3 1q-64 -92 -149 -92zM231 104q49 0 93.5 61t57.5 160l2 16q-41 41 -98 41q-55 0 -89.5 -58t-34.5 -130q0 -42 18 -66t51 -24z" />
    <glyph glyph-name="uni0431" unicode="&#x431;" horiz-adv-x="555" 
d="M257 -9q-98 0 -151.5 67.5t-53.5 190.5q0 118 28.5 214.5t94 165.5t159.5 82q12 2 40 5.5t41 5.5t33.5 6.5t36.5 10.5t30 14l25 -101q-12 -11 -27.5 -19t-27.5 -13t-32.5 -9t-31.5 -5.5t-35.5 -4.5t-33.5 -4q-65 -9 -105 -54t-61 -129l2 -1q64 78 149 78q81 0 133 -53.5
t52 -145.5q0 -130 -69 -215.5t-196 -85.5zM264 106q56 0 92.5 49.5t36.5 120.5q0 55 -27 77.5t-62 22.5q-52 0 -89.5 -45t-37.5 -105q0 -57 25 -88.5t62 -31.5z" />
    <glyph glyph-name="uni0432" unicode="&#x432;" horiz-adv-x="509" 
d="M383 260q40 -10 61.5 -38.5t21.5 -65.5q0 -78 -64 -121.5t-156 -43.5q-105 0 -159.5 53.5t-54.5 154.5q0 122 72 209.5t196 87.5q77 0 126.5 -32t49.5 -89q0 -43 -27 -71t-66 -42v-2zM245 287q102 22 102 66q0 19 -14.5 29t-36.5 10q-43 0 -83 -34.5t-55 -90.5zM252 98
q32 0 60 15t28 45q0 36 -34.5 45t-82.5 -3l-72 -14q11 -88 101 -88z" />
    <glyph glyph-name="uni0433" unicode="&#x433;" horiz-adv-x="431" 
d="M180 -9q-79 1 -120.5 33.5t-42.5 87.5q0 52 33.5 90t100.5 72l53 28q46 23 59.5 33t12.5 27q-1 26 -45 26q-48 0 -96 -40l-68 88q30 26 81.5 43t97.5 17q64 0 111.5 -29.5t47.5 -92.5q0 -32 -10.5 -56.5t-32.5 -43.5t-39.5 -29.5t-48.5 -26.5l-63 -32q-64 -31 -64 -59
t42 -28q63 0 108 50l95 -67q-85 -91 -212 -91z" />
    <glyph glyph-name="uni0434" unicode="&#x434;" horiz-adv-x="545" 
d="M240 -8q-93 0 -149 57t-56 154q0 120 69 203t165 83q68 0 115 -40l1 1q-5 71 -29.5 110t-79.5 60q-38 14 -113 20l27 105q81 -1 141.5 -22.5t95 -54.5t55.5 -80.5t27.5 -92.5t5.5 -99q-3 -182 -72 -293t-203 -111zM244 106q61 0 98 72t44 168q-33 33 -88 33
q-58 0 -97 -48t-39 -118q0 -52 24.5 -79.5t57.5 -27.5z" />
    <glyph glyph-name="uni0435" unicode="&#x435;" horiz-adv-x="478" 
d="M244 102q56 0 101 51l97 -63q-43 -50 -90.5 -74t-115.5 -24q-92 0 -146.5 54.5t-54.5 149.5q0 126 71.5 213t189.5 87q66 0 114 -35t48 -98q-1 -156 -298 -188q6 -36 29.5 -54.5t54.5 -18.5zM288 386q-39 0 -74 -31.5t-49 -90.5q167 19 168 87q0 35 -45 35z" />
    <glyph glyph-name="uni0436" unicode="&#x436;" horiz-adv-x="720" 
d="M591 184q15 -49 35.5 -67t55.5 -23l-32 -101q-20 -2 -33 -2q-53 0 -83.5 36.5t-50.5 109.5l-10 36q-32 -17 -67 -28l-18 -145h-122l28 224l-2 1q-65 -39 -99.5 -92.5t-58.5 -132.5h-130q31 138 147 244l-19 61q-15 50 -35.5 67.5t-56.5 23.5l31 98q20 2 33 2
q55 0 87 -36.5t50 -108.5l9 -37q27 16 58 25l18 150h122l-28 -228l2 -1q69 40 106.5 96.5t58.5 132.5h130q-32 -143 -145 -247z" />
    <glyph glyph-name="uni0437" unicode="&#x437;" horiz-adv-x="446" 
d="M189 -8q-110 0 -190 50l47 106q57 -47 142 -47q39 0 63.5 16.5t24.5 44.5q0 42 -74 40l-79 -1l12 88l63 1q45 1 67.5 18t22.5 41q0 18 -16.5 28t-43.5 10q-63 0 -123 -31l-45 98q82 42 177 42q76 0 127 -33t51 -91q0 -40 -27.5 -69.5t-66.5 -43.5v-2q39 -10 60.5 -37.5
t21.5 -64.5q0 -79 -59 -121t-155 -42z" />
    <glyph glyph-name="uni0438" unicode="&#x438;" horiz-adv-x="543" 
d="M191 -9q-76 0 -109 46.5t-19 149.5l43 302h126l-38 -277q-9 -59 1 -82.5t41 -23.5q39 0 82.5 50.5t52.5 116.5l26 216h127l-60 -489h-126l9 80h-2q-63 -89 -154 -89z" />
    <glyph glyph-name="uni0439" unicode="&#x439;" horiz-adv-x="543" 
d="M322 550q-67 0 -103.5 32.5t-40.5 108.5l103 15q1 -37 16 -56t39 -19t49 21t41 57l90 -31q-33 -67 -85 -97.5t-109 -30.5zM191 -9q-76 0 -109 46.5t-19 149.5l43 302h126l-38 -277q-9 -59 1 -82.5t41 -23.5q39 0 82.5 50.5t52.5 116.5l26 216h127l-60 -489h-126l9 80h-2
q-63 -89 -154 -89z" />
    <glyph glyph-name="uni043A" unicode="&#x43a;" horiz-adv-x="514" 
d="M35 0l60 489h126l-28 -238l2 -1q130 85 174 239h130q-28 -138 -142 -249l21 -56q18 -50 37 -67.5t54 -22.5l-33 -101q-18 -2 -32 -2q-53 1 -80.5 35t-56.5 111l-10 28q-44 -29 -83 -46l-14 -119h-125z" />
    <glyph glyph-name="uni043B" unicode="&#x43b;" horiz-adv-x="536" 
d="M303 489h199l-60 -489h-126l47 381h-40q-54 0 -68 -60q-6 -23 -16.5 -69t-17.5 -73q-47 -186 -175 -186q-39 0 -66 13l25 103q13 -5 25 -5q53 0 81 130q11 46 20 104q12 69 57 110t115 41z" />
    <glyph glyph-name="uni043C" unicode="&#x43c;" horiz-adv-x="639" 
d="M31 0l61 489h129l95 -275h2l162 275h129l-60 -489h-123l35 281h-1l-120 -197h-82l-67 202h-1l-36 -286h-123z" />
    <glyph glyph-name="uni043D" unicode="&#x43d;" horiz-adv-x="550" 
d="M390 489h127l-60 -489h-127l23 187l-168 -1l-23 -186h-127l60 489h127l-24 -198l168 1z" />
    <glyph glyph-name="uni043E" unicode="&#x43e;" horiz-adv-x="543" 
d="M241 -9q-94 0 -149.5 55t-55.5 153q0 123 71.5 210t191.5 87q95 0 151.5 -53.5t56.5 -150.5q0 -130 -69.5 -215.5t-196.5 -85.5zM248 106q57 0 94 51.5t37 124.5q0 55 -27 77.5t-62 22.5q-56 0 -91.5 -52.5t-35.5 -119.5q0 -47 23.5 -75.5t61.5 -28.5z" />
    <glyph glyph-name="uni043F" unicode="&#x43f;" horiz-adv-x="552" 
d="M35 0l61 489h126l-9 -78l2 -1q71 86 169 86q75 0 103.5 -49t14.5 -151l-40 -296h-126l37 276q7 55 -1.5 80.5t-38.5 25.5q-44 0 -91 -57.5t-58 -143.5l-22 -181h-127z" />
    <glyph glyph-name="uni0440" unicode="&#x440;" horiz-adv-x="565" 
d="M11 -198l85 687h126l-10 -84l2 -2q62 93 160 93q75 0 116 -56.5t41 -142.5q0 -125 -68 -215.5t-171 -90.5q-77 0 -123 39l-3 -1l-28 -227h-127zM259 105q66 0 105 54t39 127q0 42 -17 69.5t-48 27.5q-52 0 -98.5 -60.5t-59.5 -157.5l-2 -19q26 -41 81 -41z" />
    <glyph glyph-name="uni0441" unicode="&#x441;" horiz-adv-x="487" 
d="M240 -8q-96 0 -150 54t-54 156q0 122 69.5 208t188.5 86q125 0 182 -85l-98 -74q-28 45 -84 45q-57 0 -93.5 -50.5t-36.5 -122.5q0 -50 23 -76t60 -26q55 0 99 50l99 -67q-82 -98 -205 -98z" />
    <glyph glyph-name="uni0442" unicode="&#x442;" horiz-adv-x="824" 
d="M36 0l60 489h127l-9 -73l3 -1q69 81 157 81q90 0 110 -82h5q67 82 167 82q74 0 102.5 -49.5t14.5 -152.5l-40 -294h-127l38 276q14 106 -34 106q-37 0 -82 -56t-57 -141l-24 -185h-126l36 276q8 52 0.5 79t-33.5 27q-37 0 -83 -57t-56 -139l-22 -186h-127z" />
    <glyph glyph-name="uni0443" unicode="&#x443;" horiz-adv-x="540" 
d="M385 489h125l-52 -426q-32 -269 -270 -269q-97 0 -172 47l40 103q64 -41 128 -41q63 0 99.5 34.5t49.5 131.5l1 10l-2 1q-64 -89 -157 -89q-155 0 -127 196l41 302h126l-37 -277q-7 -59 2.5 -82t40.5 -24q41 0 85.5 53t52.5 121z" />
    <glyph glyph-name="uni0444" unicode="&#x444;" horiz-adv-x="725" 
d="M246 -198l33 255l-2 1q-48 -67 -110 -67q-66 0 -103 57t-36 150q2 124 55 211t144 87q29 0 56 -12.5t41 -33.5l2 1l35 285h126l-39 -308l2 -1q45 69 112 69q65 0 102 -57t35 -150q-2 -125 -55 -211.5t-144 -86.5q-65 0 -96 47l-3 -2l-29 -234h-126zM468 105q50 0 76 53
t28 123q1 48 -13 77.5t-37 29.5q-37 0 -68.5 -64t-42.5 -157l-2 -21q26 -41 59 -41zM209 99q35 0 66.5 64t41.5 158l2 21q-25 40 -59 40q-50 0 -76 -52.5t-29 -123.5q-1 -48 14 -77.5t40 -29.5z" />
    <glyph glyph-name="uni0445" unicode="&#x445;" horiz-adv-x="479" 
d="M-13 0l181 251l-117 238h142l58 -141h2l91 141h149l-180 -244l121 -245h-141l-63 144h-2l-100 -144h-141z" />
    <glyph glyph-name="uni0446" unicode="&#x446;" horiz-adv-x="602" 
d="M545 104h56l-43 -235h-102l15 127h-1q-44 0 -68.5 26t-28.5 68q0 3 -1 5h-2q-28 -46 -72.5 -75t-92.5 -29q-156 0 -128 196l42 302h126l-38 -277q-8 -59 2 -82.5t41 -23.5q39 0 82.5 50t51.5 115l27 218h127l-39 -318q-4 -31 1.5 -46t14.5 -17.5t30 -3.5z" />
    <glyph glyph-name="uni0447" unicode="&#x447;" horiz-adv-x="514" 
d="M317 0l27 217h-2q-30 -37 -73 -57.5t-83 -20.5q-140 0 -116 161l26 189h126l-25 -178q-5 -32 4.5 -47.5t38.5 -14.5q38 1 77 38t44 72l16 129h127l-60 -488h-127z" />
    <glyph glyph-name="uni0448" unicode="&#x448;" horiz-adv-x="798" 
d="M197 -9q-149 0 -121 204l42 294h126l-38 -270q-9 -62 2 -87.5t39 -25.5q32 0 69 42t47 124l27 217h125l-35 -277q-7 -58 2.5 -82t36.5 -24q32 0 73 51.5t50 122.5l25 209h128l-60 -489h-127l10 82h-3q-24 -40 -64.5 -65.5t-83.5 -25.5q-41 0 -69.5 25.5t-36.5 68.5h-2
q-25 -42 -73 -68t-89 -26z" />
    <glyph glyph-name="uni0449" unicode="&#x449;" horiz-adv-x="857" 
d="M802 104h56l-43 -235h-102l15 127h-1q-44 0 -69 26t-28 68q0 3 -1 5h-2q-28 -45 -71.5 -74.5t-88.5 -29.5q-43 0 -70.5 25.5t-35.5 68.5h-2q-25 -42 -73 -68t-89 -26q-149 0 -121 204l42 294h126l-38 -270q-9 -62 2 -87.5t39 -25.5q32 0 69 42t47 124l27 217h125
l-35 -277q-7 -58 2.5 -82t36.5 -24q32 0 73 51.5t50 122.5l25 209h128l-39 -318q-5 -19 -1.5 -31.5t4.5 -19.5t9.5 -10.5t14.5 -4.5t19 -1z" />
    <glyph glyph-name="uni044A" unicode="&#x44a;" horiz-adv-x="525" 
d="M364 380q57 0 96.5 -41t38.5 -108q-1 -106 -62 -173t-171 -67q-104 0 -147 53.5t-28 151.5l26 185h-97l14 108h224l-27 -172l1 -1q18 26 53.5 45t78.5 19zM275 99q44 0 70 34t26 79q0 31 -18.5 45.5t-43.5 14.5q-37 0 -64.5 -26.5t-32.5 -64.5q-6 -35 10.5 -58.5
t52.5 -23.5z" />
    <glyph glyph-name="uni044B" unicode="&#x44b;" horiz-adv-x="709" 
d="M234 -9q-104 0 -147 53.5t-28 151.5l41 293h126l-27 -171l1 -1q17 24 52 43.5t75 19.5q57 0 96.5 -41t38.5 -108q-2 -106 -62 -173t-166 -67zM503 0l61 489h126l-60 -489h-127zM243 99q40 0 65.5 34.5t25.5 78.5q0 31 -18 45.5t-39 14.5q-37 0 -64.5 -26.5t-32.5 -64.5
q-6 -35 10.5 -58.5t52.5 -23.5z" />
    <glyph glyph-name="uni044C" unicode="&#x44c;" horiz-adv-x="478" 
d="M234 -9q-104 0 -147 53.5t-28 151.5l41 293h126l-27 -172l1 -1q18 26 53.5 45t78.5 19q57 0 96.5 -41t38.5 -108q-1 -106 -62 -173t-171 -67zM243 99q44 0 70 34t26 79q0 31 -18.5 45.5t-43.5 14.5q-37 0 -64.5 -26.5t-32.5 -64.5q-6 -35 10.5 -58.5t52.5 -23.5z" />
    <glyph glyph-name="uni044D" unicode="&#x44d;" horiz-adv-x="479" 
d="M232 496q98 0 154.5 -54t55.5 -157q-1 -129 -73 -211t-197 -82q-119 0 -178 69l82 85q33 -41 101 -41q45 0 78.5 26t49.5 72l-197 -2l12 91l196 2q-3 44 -27.5 67.5t-68.5 23.5q-53 0 -99 -38l-69 86q73 63 180 63z" />
    <glyph glyph-name="uni044E" unicode="&#x44e;" horiz-adv-x="745" 
d="M512 496q93 0 148.5 -54t55.5 -150q0 -130 -68 -215.5t-190 -85.5q-89 0 -142.5 52t-57.5 145l-77 -1l-23 -187h-127l60 489h127l-24 -199l75 1q23 90 87 147.5t156 57.5zM464 106q52 0 88 49.5t36 120.5q0 50 -23.5 78t-62.5 28q-52 0 -87.5 -50t-35.5 -121
q0 -49 23.5 -77t61.5 -28z" />
    <glyph glyph-name="uni044F" unicode="&#x44f;" horiz-adv-x="504" 
d="M274 488l197 1l-60 -489h-126l20 167l-45 -1h-21l-14 -29q-38 -75 -77 -110.5t-96 -35.5q-12 0 -36 3l-8 100q37 5 60 21.5t48 62.5l11 20q-68 34 -68 113q0 89 58.5 133t156.5 44zM260 260l57 1l15 120h-59q-38 0 -62.5 -18.5t-24.5 -51.5q0 -51 74 -51z" />
    <glyph glyph-name="uni0450" unicode="&#x450;" horiz-adv-x="478" 
d="M380 557h-123l-93 147l134 -1zM244 102q56 0 101 51l97 -63q-43 -50 -90.5 -74t-115.5 -24q-92 0 -146.5 54.5t-54.5 149.5q0 126 71.5 213t189.5 87q66 0 114 -35t48 -98q-1 -156 -298 -188q6 -36 29.5 -54.5t54.5 -18.5zM288 386q-39 0 -74 -31.5t-49 -90.5
q167 19 168 87q0 35 -45 35z" />
    <glyph glyph-name="uni0451" unicode="&#x451;" horiz-adv-x="478" 
d="M198 557q-34 0 -56.5 22.5t-22.5 55.5q0 35 23 57.5t59 22.5q34 0 56.5 -22t22.5 -55q0 -35 -23 -58t-59 -23zM403 715q34 0 56.5 -22t22.5 -55q0 -35 -23 -58t-59 -23q-35 0 -57.5 22.5t-22.5 55.5q0 35 23.5 57.5t59.5 22.5zM458 363q-1 -156 -298 -188
q6 -36 29.5 -54.5t54.5 -18.5q56 0 101 51l97 -63q-43 -50 -90.5 -74t-115.5 -24q-92 0 -146.5 54.5t-54.5 149.5q0 126 71.5 213t189.5 87q66 0 114 -35t48 -98zM165 264q167 19 168 87q0 35 -45 35q-39 0 -74 -31.5t-49 -90.5z" />
    <glyph glyph-name="uni0452" unicode="&#x452;" horiz-adv-x="540" 
d="M374 458q63 0 97 -39t37 -99t-8 -132q-27 -140 -104.5 -245.5t-190.5 -150.5l-54 80q87 49 142.5 136t77.5 200q29 136 -45 136q-44 0 -90 -58t-56 -147l-17 -139h-127l67 539h-62l12 96h62l12 101h125l-13 -101h166l-12 -96h-165l-21 -166l2 -2q69 87 165 87z" />
    <glyph glyph-name="uni0453" unicode="&#x453;" horiz-adv-x="431" 
d="M171 557l119 146l134 1l-129 -147h-124zM180 -9q-79 1 -120.5 33.5t-42.5 87.5q0 52 33.5 90t100.5 72l53 28q46 23 59.5 33t12.5 27q-1 26 -45 26q-48 0 -96 -40l-68 88q30 26 81.5 43t97.5 17q64 0 111.5 -29.5t47.5 -92.5q0 -32 -10.5 -56.5t-32.5 -43.5t-39.5 -29.5
t-48.5 -26.5l-63 -32q-64 -31 -64 -59t42 -28q63 0 108 50l95 -67q-85 -91 -212 -91z" />
    <glyph glyph-name="uni0454" unicode="&#x454;" horiz-adv-x="495" 
d="M260 104q60 0 100 44l98 -69q-79 -87 -206 -87q-99 0 -157.5 54.5t-57.5 156.5q1 129 72.5 211t195.5 82q127 0 185 -77l-92 -77q-35 42 -98 42q-42 0 -74.5 -24t-49.5 -67l191 1l-10 -92l-195 -2q3 -49 30.5 -72.5t67.5 -23.5z" />
    <glyph glyph-name="uni0455" unicode="&#x455;" horiz-adv-x="424" 
d="M190 -9q-54 0 -105 23t-79 61l77 79q46 -59 109 -59q27 0 45 10.5t18 28.5q0 15 -15 25.5t-55 29.5q-9 4 -13 6q-58 27 -89 61t-31 85q0 69 50 112t124 43q109 0 172 -73l-80 -79q-36 48 -92 50q-21 0 -35 -11t-14 -29q0 -26 75 -63q31 -15 48.5 -25.5t38.5 -28
t31.5 -39.5t10.5 -49q1 -74 -51 -116t-140 -42z" />
    <glyph glyph-name="uni0456" unicode="&#x456;" horiz-adv-x="262" 
d="M181 557q-34 0 -56.5 22.5t-22.5 55.5q0 35 23 57.5t59 22.5q34 0 57 -22t23 -55q0 -35 -23.5 -58t-59.5 -23zM37 0l61 489h127l-60 -489h-128z" />
    <glyph glyph-name="uni0457" unicode="&#x457;" horiz-adv-x="262" 
d="M222 714q30 0 51.5 -21.5t21.5 -54.5q0 -34 -22 -57.5t-54 -23.5q-19 0 -36 9q-17 -9 -36 -9q-32 0 -53.5 22.5t-21.5 55.5q0 34 22.5 56.5t55.5 22.5q18 0 35 -9q16 9 37 9zM37 0l61 489h127l-60 -489h-128z" />
    <glyph glyph-name="uni0458" unicode="&#x458;" horiz-adv-x="245" 
d="M167 557q-34 0 -56.5 22.5t-22.5 55.5q0 35 23 57.5t59 22.5q34 0 57 -22t23 -55q0 -35 -23.5 -58t-59.5 -23zM-8 -206q-52 0 -95 23l32 99q18 -14 41 -14t35 20t17 68l62 499h127l-63 -517q-23 -178 -156 -178z" />
    <glyph glyph-name="uni0459" unicode="&#x459;" horiz-adv-x="768" 
d="M609 380q55 0 94 -41t39 -108q-2 -106 -63 -173t-170 -67q-104 0 -147 53.5t-29 151.5l27 185h-39q-54 0 -68 -60q-4 -16 -14 -62t-18 -80q-47 -186 -175 -186q-39 0 -66 13l25 103q13 -5 25 -5q53 0 81 130q11 46 20 104q12 69 57 110t115 41h198l-28 -180l1 -1
q17 27 55.5 49.5t79.5 22.5zM517 99q44 0 70 34t26 79q0 32 -18 46t-43 14q-38 0 -65 -26t-32 -65q-6 -35 10.5 -58.5t51.5 -23.5z" />
    <glyph glyph-name="uni045A" unicode="&#x45a;" horiz-adv-x="751" 
d="M599 380q56 0 95 -41t38 -108q-1 -106 -62 -173t-171 -67q-198 0 -176 196l-145 -1l-23 -186h-127l60 489h127l-24 -198l146 1l28 197h126l-27 -180l1 -1q18 28 55.5 50t78.5 22zM508 99q44 0 70 34t26 79q0 31 -18.5 45.5t-43.5 14.5q-37 0 -64 -26t-33 -65
q-5 -36 11 -59t52 -23z" />
    <glyph glyph-name="uni045B" unicode="&#x45b;" horiz-adv-x="547" 
d="M377 458q75 0 103.5 -49t14.5 -151l-33 -258h-127l31 238q7 54 -1 80t-38 26q-45 0 -91 -58t-56 -147l-17 -139h-127l67 539h-62l12 96h62l12 101h125l-13 -101h166l-12 -96h-165l-21 -166l2 -2q69 87 168 87z" />
    <glyph glyph-name="uni045C" unicode="&#x45c;" horiz-adv-x="514" 
d="M220 556l119 146l134 1l-129 -147h-124zM35 0l60 489h126l-28 -238l2 -1q130 85 174 239h130q-28 -138 -142 -249l21 -56q18 -50 37 -67.5t54 -22.5l-33 -101q-18 -2 -32 -2q-53 1 -80.5 35t-56.5 111l-10 28q-44 -29 -83 -46l-14 -119h-125z" />
    <glyph glyph-name="uni045D" unicode="&#x45d;" horiz-adv-x="543" 
d="M267 557l-93 147l134 -1l82 -146h-123zM191 -9q-76 0 -109 46.5t-19 149.5l43 302h126l-38 -277q-9 -59 1 -82.5t41 -23.5q39 0 82.5 50.5t52.5 116.5l26 216h127l-60 -489h-126l9 80h-2q-63 -89 -154 -89z" />
    <glyph glyph-name="uni045E" unicode="&#x45e;" horiz-adv-x="540" 
d="M306 550q-67 0 -103.5 32.5t-40.5 108.5l103 15q1 -37 16 -56t39 -19t49 21t41 57l90 -31q-33 -67 -85 -97.5t-109 -30.5zM385 489h125l-52 -426q-32 -269 -270 -269q-97 0 -172 47l40 103q64 -41 128 -41q63 0 99.5 34.5t49.5 131.5l1 10l-2 1q-64 -89 -157 -89
q-155 0 -127 196l41 302h126l-37 -277q-7 -59 2.5 -82t40.5 -24q41 0 85.5 53t52.5 121z" />
    <glyph glyph-name="uni045F" unicode="&#x45f;" horiz-adv-x="543" 
d="M408 489h127l-60 -489h-126l9 80h-2q-25 -35 -52 -54l-32 -201h-103l20 166q-140 8 -115 196l43 302h126l-38 -277q-9 -59 1 -82.5t41 -23.5q39 0 82.5 50.5t52.5 116.5z" />
    <glyph glyph-name="uni0462" unicode="&#x462;" horiz-adv-x="655" 
d="M428 436q64 0 107.5 -18t63.5 -49t27 -61t7 -66q-2 -121 -71.5 -181.5t-201.5 -60.5h-242l64 521h-143l14 112h143l9 77h134l-9 -77h200l-14 -112h-200l-10 -85h122zM370 120q59 0 90 30t31 85q0 85 -87 85h-113l-24 -200h103z" />
    <glyph glyph-name="uni0463" unicode="&#x463;" horiz-adv-x="741" 
d="M489 -9q-106 0 -149.5 56.5t-23.5 161.5l11 61q22 112 -30 112q-31 0 -69.5 -58t-48.5 -143l-22 -181h-128l61 489h127l-10 -78l2 -1q63 86 144 86q63 0 91 -47t11 -137l1 -1q18 27 55 48t78 21q56 0 95 -41t38 -108q-2 -107 -62.5 -173.5t-170.5 -66.5zM498 99
q44 0 70 34t26 79q0 31 -18.5 45.5t-43.5 14.5q-37 0 -64.5 -26.5t-32.5 -64.5q-6 -35 10.5 -58.5t52.5 -23.5z" />
    <glyph glyph-name="uni0472" unicode="&#x472;" horiz-adv-x="753" 
d="M432 719q130 0 209 -79.5t79 -219.5q0 -180 -102 -304.5t-272 -124.5q-131 0 -208.5 80t-77.5 221q0 113 45 209.5t131.5 157t195.5 60.5zM419 596q-73 0 -127.5 -51t-78.5 -134h369v11q0 82 -42 128t-121 46zM356 115q76 0 131.5 49.5t79.5 134.5h-369v-8q0 -82 41 -129
t117 -47z" />
    <glyph glyph-name="uni0473" unicode="&#x473;" horiz-adv-x="531" 
d="M295 496q95 0 151 -53.5t56 -150.5q0 -130 -69 -215.5t-197 -85.5q-94 0 -150 55.5t-56 152.5q0 123 72 210t193 87zM286 386q-42 0 -73.5 -26.5t-47.5 -70.5l213 4q-2 57 -27 75t-65 18zM244 101q46 0 79 27.5t47 74.5l-216 -4q1 -98 90 -98z" />
    <glyph glyph-name="uni0474" unicode="&#x474;" horiz-adv-x="674" 
d="M224 0l-145 710h144l83 -520h2l130 372q31 90 70.5 123t104.5 33q69 0 127 -31l-42 -106q-33 15 -56 15q-29 0 -47.5 -23t-40.5 -74l-205 -499h-125z" />
    <glyph glyph-name="uni0475" unicode="&#x475;" horiz-adv-x="502" 
d="M138 0l-99 489h132l51 -346h1l79 226q24 70 58.5 98.5t89.5 28.5q56 0 92 -28l-32 -101q-27 16 -45 16q-20 0 -33 -18t-32 -63l-126 -302h-136z" />
    <glyph glyph-name="uni048A" unicode="&#x48a;" horiz-adv-x="729" 
d="M416 764q-67 0 -103.5 33t-40.5 108l103 9q1 -32 16.5 -50t38.5 -18q24 0 48.5 19.5t40.5 52.5l91 -27q-33 -67 -85 -97t-109 -30zM601 122h109l-5 -44l-109 -215h-93l48 137h-102l57 461h-2l-326 -461h-126l87 710h135l-60 -478h3l327 478h128z" />
    <glyph glyph-name="uni048B" unicode="&#x48b;" horiz-adv-x="578" 
d="M336 550q-67 0 -103.5 32.5t-40.5 108.5l103 15q1 -37 16 -56t39 -19t49 21t41 57l90 -31q-33 -67 -85 -97.5t-109 -30.5zM545 104h44l-4 -22l-106 -211h-89l49 129q-59 17 -66 90q0 3 -1 5h-2q-28 -46 -72.5 -75t-92.5 -29q-156 0 -128 196l42 302h126l-38 -277
q-8 -59 2 -82.5t41 -23.5q39 0 82.5 50t51.5 115l27 218h127l-39 -318q-4 -31 1.5 -46t14.5 -17.5t30 -3.5z" />
    <glyph glyph-name="uni048C" unicode="&#x48c;" horiz-adv-x="601" 
d="M374 436q64 0 107.5 -18t63 -49t27 -61t6.5 -66q-2 -121 -71.5 -181.5t-200.5 -60.5h-242l65 533h-92l13 99h91l10 78h134l-10 -78h137l-13 -99h-136l-12 -97h123zM316 120q59 0 89.5 30t30.5 85q0 85 -86 85h-113l-25 -200h104z" />
    <glyph glyph-name="uni048D" unicode="&#x48d;" horiz-adv-x="489" 
d="M329 364q58 0 95.5 -39t36.5 -103q-1 -100 -62.5 -165.5t-171.5 -65.5q-204 0 -175 205l27 191h-60l10 83h62l6 45h124l-6 -43h134l-10 -78h-136l-15 -101l1 -1q21 28 59.5 50t80.5 22zM332 200q1 30 -15.5 47t-46.5 17q-37 0 -63.5 -24t-32.5 -57q-6 -36 10 -60t52 -24
q41 0 67.5 30.5t28.5 70.5z" />
    <glyph glyph-name="uni048E" unicode="&#x48e;" horiz-adv-x="596" 
d="M590 517q0 -173 -130 -239l45 -120l-90 -45l-52 135q-26 -3 -55 -3h-92l-29 -245h-135l87 710h254q197 0 197 -193zM229 364h93h6l-37 101l73 38l41 -113q46 38 46 119q0 38 -24.5 59t-63.5 21h-106z" />
    <glyph glyph-name="uni048F" unicode="&#x48f;" horiz-adv-x="565" 
d="M531 297q0 -79 -29.5 -148.5t-80.5 -110.5l44 -101l-83 -44l-46 103q-23 -5 -44 -5q-77 0 -123 39l-3 -1l-28 -227h-127l85 687h126l-10 -84l2 -2q62 93 160 93q75 0 116 -56.5t41 -142.5zM259 105q21 0 39 6l-42 97l70 38l37 -89q40 54 40 129q0 42 -17 69.5t-48 27.5
q-52 0 -98.5 -60.5t-59.5 -157.5l-2 -19q26 -41 81 -41z" />
    <glyph glyph-name="uni0490" unicode="&#x490;" horiz-adv-x="528" 
d="M460 847h112l-32 -259h-280l-72 -588h-136l87 710h295z" />
    <glyph glyph-name="uni0491" unicode="&#x491;" horiz-adv-x="401" 
d="M331 612h97l-28 -231h-191l-46 -381h-128l60 489h210z" />
    <glyph glyph-name="uni0492" unicode="&#x492;" horiz-adv-x="548" 
d="M560 588h-281l-25 -205h174l-12 -98h-174l-35 -285h-136l35 285h-91l13 98h90l40 327h417z" />
    <glyph glyph-name="uni0493" unicode="&#x493;" horiz-adv-x="431" 
d="M190 99q63 0 108 48l94 -67q-83 -89 -212 -89q-79 0 -120.5 32.5t-42.5 86.5q0 83 107 129l-8 4l-13 4v1l-30 12l25 51l79 -32l5 10l22 11q43 21 58 33t14 30q-2 26 -46 26q-46 0 -95 -39l-68 86q30 26 81.5 43t97.5 17q64 0 111.5 -29t47.5 -90q0 -45 -24 -70.5
t-67 -44.5v-4h-5v2q-2 -1 -29 -13l-11 -5l38 -15l-23 -52l-55 22l-19 -9q-37 -19 -50 -33t-13 -28q0 -28 43 -28z" />
    <glyph glyph-name="uni0494" unicode="&#x494;" horiz-adv-x="613" 
d="M355 400q89 0 146 -67t57 -183q0 -151 -74.5 -252.5t-215.5 -101.5q-36 0 -60 7l18 110q22 -4 33 -4q74 0 115.5 69.5t41.5 161.5q0 65 -28 101t-82 36q-44 0 -87 -18l-32 -259h-135l87 710h416l-15 -122h-281l-26 -215q56 27 122 27z" />
    <glyph glyph-name="uni0495" unicode="&#x495;" horiz-adv-x="510" 
d="M317 269q71 0 115 -50.5t44 -135.5q0 -133 -75.5 -211t-204.5 -78q-38 0 -72 6l28 101q4 0 13 -0.5t15 -0.5q78 0 123.5 45.5t45.5 122.5q0 86 -77 86q-36 0 -65.5 -25t-33.5 -50l-12 -79h-126l60 489h318l-13 -108h-191l-21 -175h2q51 63 127 63z" />
    <glyph glyph-name="uni0496" unicode="&#x496;" horiz-adv-x="914" 
d="M672 376l115 -254h99l-38 -259h-112l11 137h-60l-126 295l-66 -81l-25 -214h-131l26 216l-44 79l-193 -295h-154l256 379l-166 331h158l160 -338l3 1l41 337h131l-42 -336l3 -1l236 337h162z" />
    <glyph glyph-name="uni0497" unicode="&#x497;" horiz-adv-x="752" 
d="M687 104h39l-43 -235h-102l15 128q-42 6 -68 41t-45 99q-1 6 -4.5 18t-5.5 18q-32 -17 -67 -28l-18 -145h-122l28 224l-2 1q-65 -39 -99.5 -92.5t-58.5 -132.5h-130q31 138 147 244l-19 62q-15 50 -35.5 67.5t-56.5 22.5l31 99q20 2 33 2q55 0 87 -36.5t50 -108.5l9 -38
q27 16 58 25l18 150h122l-28 -228l2 -1q69 40 106.5 96.5t58.5 132.5h130q-32 -145 -145 -247q8 -26 19 -58q15 -49 36.5 -64.5t59.5 -15.5z" />
    <glyph glyph-name="uni0498" unicode="&#x498;" horiz-adv-x="566" 
d="M417 380q50 -22 77.5 -65t27.5 -102q0 -98 -65.5 -158t-181.5 -64l-9 -19q67 -19 67 -68q0 -46 -34 -69.5t-92 -23.5q-34 0 -61 6l4 61q15 -5 44 -5q48 0 48 32q0 21 -56 32l22 57q-139 19 -200 118l96 91q24 -42 65.5 -64.5t92.5 -22.5q56 0 87.5 29t31.5 78
q0 86 -114 86h-92l15 113h84q56 0 89 26t33 71q0 38 -25 56t-65 18q-77 0 -135 -50l-80 99q91 76 233 76q95 0 153 -43.5t58 -120.5q0 -55 -31.5 -101t-86.5 -70v-3z" />
    <glyph glyph-name="uni0499" unicode="&#x499;" horiz-adv-x="446" 
d="M321 257q39 -10 60.5 -37.5t21.5 -64.5q0 -74 -52 -115.5t-138 -46.5l-10 -21q67 -19 67 -68q0 -46 -34 -69.5t-92 -23.5q-34 0 -61 6l4 61q15 -5 44 -5q48 0 48 32q0 21 -56 32l22 57q-81 7 -146 48l47 106q57 -47 142 -47q39 0 63.5 16.5t24.5 44.5q0 42 -74 40l-79 -1
l12 88l63 1q45 1 67.5 18t22.5 41q0 18 -16.5 28t-43.5 10q-63 0 -123 -31l-45 98q82 42 177 42q76 0 127 -33t51 -91q0 -40 -27.5 -69.5t-66.5 -43.5v-2z" />
    <glyph glyph-name="uni049A" unicode="&#x49a;" horiz-adv-x="659" 
d="M399 393l125 -271h100l-38 -259h-112l11 137h-60l-129 295l-85 -100l-24 -195h-135l87 710h135l-39 -319l3 -1l257 320h167z" />
    <glyph glyph-name="uni049B" unicode="&#x49b;" horiz-adv-x="542" 
d="M473 104h39l-43 -235h-102l15 128q-42 7 -66.5 40.5t-48.5 99.5l-9 26q-43 -27 -84 -44l-14 -119h-125l60 489h126l-28 -238l2 -1q130 85 174 239h130q-28 -139 -142 -248l21 -57q18 -49 38.5 -64.5t56.5 -15.5z" />
    <glyph glyph-name="uni049C" unicode="&#x49c;" horiz-adv-x="712" 
d="M749 710l-232 -347l155 -363h-153l-120 300h-13l-23 -181h-93l22 179l-68 -1l-36 -297h-136l87 710h136l-38 -311l68 2l24 191h93l-23 -188h6l183 306h161z" />
    <glyph glyph-name="uni049D" unicode="&#x49d;" horiz-adv-x="568" 
d="M431 184q19 -50 38 -67.5t53 -22.5l-33 -101q-18 -2 -32 -2q-54 0 -81.5 33.5t-51.5 109.5l-16 56q-1 0 -3 -1t-3 -1l-16 -130h-70l12 101l-50 -15l-18 -144h-125l60 489h125l-30 -249l2 -1q29 9 48 18l17 136h71l-11 -90q70 57 105 186h130q-28 -138 -142 -249z" />
    <glyph glyph-name="uni049E" unicode="&#x49e;" horiz-adv-x="629" 
d="M670 710l-263 -317l182 -393h-156l-128 296l-86 -101l-24 -195h-135l66 542h-87l12 99h88l8 69h136l-8 -69h61l-12 -99h-62l-18 -151l3 -1l256 320h167z" />
    <glyph glyph-name="uni049F" unicode="&#x49f;" horiz-adv-x="514" 
d="M378 184q18 -50 37 -67.5t54 -22.5l-33 -101q-18 -2 -32 -2q-53 1 -80.5 35t-56.5 111l-10 28q-44 -29 -83 -46l-14 -119h-125l69 558h-53l9 82h54l12 96h126l-12 -96h127l-10 -82h-127l-37 -307l2 -1q130 85 174 239h130q-28 -138 -142 -249z" />
    <glyph glyph-name="uni04A0" unicode="&#x4a0;" horiz-adv-x="704" 
d="M745 710l-263 -317l181 -393h-155l-129 295l-85 -100l-24 -195h-135l72 588h-160l15 122h295l-39 -319l3 -1l257 320h167z" />
    <glyph glyph-name="uni04A1" unicode="&#x4a1;" horiz-adv-x="573" 
d="M437 184q18 -50 37 -67.5t53 -22.5l-32 -101q-20 -2 -33 -2q-52 0 -80 34.5t-57 111.5l-9 28q-44 -29 -83 -46l-14 -119h-125l47 381h-121l14 108h246l-29 -238l2 -1q132 86 174 239h130q-28 -140 -142 -249z" />
    <glyph glyph-name="uni04A2" unicode="&#x4a2;" horiz-adv-x="719" 
d="M686 122l-38 -259h-112l11 137h-109l35 279h-251l-34 -279h-136l87 710h136l-38 -309h251l38 309h136l-72 -588h96z" />
    <glyph glyph-name="uni04A3" unicode="&#x4a3;" horiz-adv-x="605" 
d="M520 104h56l-43 -235h-102l15 127h-1q-119 0 -106 112l10 79l-164 -1l-23 -186h-127l60 489h127l-24 -198l163 1l24 197h128l-40 -321q-1 -12 -1.5 -21t1 -15.5t3 -11t6 -7.5t7 -5t9 -2.5t10 -1t12.5 -0.5z" />
    <glyph glyph-name="uni04A4" unicode="&#x4a4;" horiz-adv-x="812" 
d="M518 710h321l-15 -122h-185l-72 -588h-136l34 279h-243l-34 -279h-136l87 710h136l-38 -309h243z" />
    <glyph glyph-name="uni04A5" unicode="&#x4a5;" horiz-adv-x="627" 
d="M639 489l-13 -108h-135l-46 -381h-127l23 187l-156 -1l-23 -186h-127l60 489h127l-24 -198l156 1l24 197h261z" />
    <glyph glyph-name="uni04A6" unicode="&#x4a6;" horiz-adv-x="973" 
d="M715 400q89 0 146 -67t57 -183q0 -151 -74.5 -252.5t-215.5 -101.5q-36 0 -60 7l18 110q22 -4 33 -4q74 0 115.5 69.5t41.5 161.5q0 65 -28 101t-82 36q-44 0 -87 -18l-32 -259h-135l72 588h-224l-72 -588h-136l87 710h495l-41 -337q56 27 122 27z" />
    <glyph glyph-name="uni04A7" unicode="&#x4a7;" horiz-adv-x="803" 
d="M489 -206q-37 0 -72 6l28 101q4 0 13 -0.5t15 -0.5q78 0 123.5 45.5t45.5 122.5q0 86 -77 86q-36 0 -65.5 -25t-32.5 -50l-12 -79h-127l37 276q7 55 -1 80.5t-38 25.5q-39 0 -85.5 -58t-56.5 -143l-22 -181h-127l61 489h126l-9 -78l2 -1q71 86 161 86q75 0 103.5 -49
t14.5 -151l-12 -90h2q51 63 127 63q70 0 114.5 -51t44.5 -135q0 -133 -75.5 -211t-205.5 -78z" />
    <glyph glyph-name="uni04A8" unicode="&#x4a8;" horiz-adv-x="804" 
d="M784 28q-39 -36 -123 -36q-91 0 -148 44q-70 -45 -166 -45q-130 0 -212 84t-82 223q0 113 45.5 208.5t130.5 154t192 58.5q28 0 49 -4l-31 -117q-18 2 -28 2q-89 0 -152.5 -90.5t-63.5 -205.5q0 -92 48.5 -145.5t135.5 -53.5q22 0 45 5h-1l1 2q-58 80 -58 192
q0 125 63.5 221t162.5 96q84 0 127.5 -55t43.5 -147q0 -94 -42.5 -180t-112.5 -137l1 -1q20 -5 36 -5q47 0 94 33zM583 504q-41 0 -68.5 -70t-27.5 -141q0 -74 28 -135l4 -1q49 47 75.5 119t26.5 146q0 82 -38 82z" />
    <glyph glyph-name="uni04A9" unicode="&#x4a9;" horiz-adv-x="641" 
d="M631 42q-63 -50 -159 -50q-73 0 -123 27q-45 -27 -112 -27q-91 0 -149 58t-58 158q0 81 36.5 165.5t103.5 138.5l89 -64q-48 -48 -74.5 -110.5t-26.5 -122.5q0 -52 27 -86t81 -34h11q-26 48 -26 120q0 108 53 194t139 86q67 0 101.5 -40.5t34.5 -111.5q0 -74 -35 -142.5
t-94 -110.5l1 -2h6q69 0 118 52zM431 381q-28 0 -53 -62t-25 -122q0 -37 10 -61l2 -1q41 34 65.5 90.5t24.5 111.5q0 44 -24 44z" />
    <glyph glyph-name="uni04AA" unicode="&#x4aa;" horiz-adv-x="669" 
d="M355 121q43 0 85.5 22t72.5 59l99 -89q-100 -115 -247 -122l-9 -19q67 -19 67 -68q0 -46 -34 -69.5t-92 -23.5q-34 0 -61 6l4 61q15 -5 44 -5q48 0 48 32q0 21 -56 32l22 57q-108 15 -173 91t-65 205q0 180 104 304.5t268 124.5q157 0 246 -149l-111 -81
q-53 100 -142 100q-98 0 -160.5 -89.5t-62.5 -207.5q0 -81 40 -126t113 -45z" />
    <glyph glyph-name="uni04AB" unicode="&#x4ab;" horiz-adv-x="487" 
d="M247 107q55 0 99 50l99 -67q-76 -90 -183 -97l-10 -21q67 -19 67 -68q0 -46 -34 -69.5t-92 -23.5q-34 0 -61 6l4 61q15 -5 44 -5q48 0 48 32q0 21 -56 32l23 58q-76 12 -117.5 65t-41.5 142q0 122 69.5 208t188.5 86q125 0 182 -85l-98 -74q-28 45 -84 45
q-57 0 -93.5 -50.5t-36.5 -122.5q0 -50 23 -76t60 -26z" />
    <glyph glyph-name="uni04AC" unicode="&#x4ac;" horiz-adv-x="543" 
d="M556 588h-175l-57 -466h96l-38 -259h-112l11 137h-108l72 588h-173l14 122h485z" />
    <glyph glyph-name="uni04AD" unicode="&#x4ad;" horiz-adv-x="870" 
d="M787 104h56l-43 -235h-102l15 127h-1q-123 0 -104 123l24 151q17 112 -32 112q-36 0 -77.5 -55.5t-52.5 -141.5l-25 -185h-126l37 276q8 52 0.5 79t-34.5 27q-37 0 -81.5 -57t-54.5 -139l-23 -186h-127l60 489h127l-9 -73l3 -1q66 81 155 81t111 -82h4q55 82 159 82
q147 0 115 -200l-21 -135q-2 -12 -2 -21t1 -15t5.5 -10t7 -6t10 -3t11.5 -1.5t14 -0.5z" />
    <glyph glyph-name="uni04AE" unicode="&#x4ae;" horiz-adv-x="581" 
d="M191 0l39 312l-163 398h150l94 -269h3l160 269h157l-264 -398l-39 -312h-137z" />
    <glyph glyph-name="uni04AF" unicode="&#x4af;" horiz-adv-x="487" 
d="M118 -198l23 185l-99 502h132l58 -358h2q98 169 133 358h130q-29 -143 -84 -261.5t-144 -231.5l-25 -194h-126z" />
    <glyph glyph-name="uni04B0" unicode="&#x4b0;" horiz-adv-x="581" 
d="M631 710l-243 -367h121l-13 -99h-137l-31 -244h-137l31 244h-140l13 99h122l-150 367h150l94 -269h3l160 269h157z" />
    <glyph glyph-name="uni04B1" unicode="&#x4b1;" horiz-adv-x="487" 
d="M497 489q-47 -229 -173 -406h75l-10 -83h-119l-26 -198h-126l26 198h-101l10 83h75l-86 406h132l58 -358h2q98 169 133 358h130z" />
    <glyph glyph-name="uni04B2" unicode="&#x4b2;" horiz-adv-x="655" 
d="M417 356l108 -234h101l-38 -259h-112l11 137h-60l-113 254h-4l-174 -254h-155l252 360l-155 350h149l108 -251h4l163 251h161z" />
    <glyph glyph-name="uni04B3" unicode="&#x4b3;" horiz-adv-x="512" 
d="M348 177q23 -44 42 -58.5t53 -14.5h39l-43 -235h-102l15 128q-40 6 -64.5 35t-50.5 89l-9 19h-2l-98 -140h-141l181 251l-117 238h142l57 -139h2l92 139h149l-180 -244z" />
    <glyph glyph-name="uni04B4" unicode="&#x4b4;" horiz-adv-x="802" 
d="M769 122l-38 -259h-112l11 137h-462l72 588h-169l15 122h436l-15 -122h-131l-57 -466h217l73 588h136l-72 -588h96z" />
    <glyph glyph-name="uni04B5" unicode="&#x4b5;" horiz-adv-x="602" 
d="M512 685l-13 -102h-311l13 102h311zM545 104h56l-43 -235h-102l15 127h-1q-44 0 -68.5 26t-28.5 68q0 3 -1 5h-2q-28 -46 -72.5 -75t-92.5 -29q-156 0 -128 196l42 302h126l-38 -277q-8 -59 2 -82.5t41 -23.5q39 0 82.5 50t51.5 115l27 218h127l-39 -318q-4 -31 1.5 -46
t14.5 -17.5t30 -3.5z" />
    <glyph glyph-name="uni04B6" unicode="&#x4b6;" horiz-adv-x="645" 
d="M529 122h96l-38 -259h-112l11 137h-108l33 277q-73 -42 -168 -42q-97 0 -134.5 55t-23.5 169l34 251h134l-32 -248q-7 -60 7.5 -83t63.5 -23q68 0 134 32l39 322h137z" />
    <glyph glyph-name="uni04B7" unicode="&#x4b7;" horiz-adv-x="568" 
d="M506 104h56l-43 -235h-102l15 127h-1q-119 0 -106 112l14 109h-2q-29 -37 -70 -57.5t-81 -20.5q-140 0 -116 161l26 189h126l-25 -178q-5 -32 4.5 -47.5t38.5 -14.5q38 1 74.5 37.5t41.5 72.5l16 129h127l-40 -320q-2 -13 -1.5 -23t1.5 -17t5 -11.5t6.5 -7t10 -3.5
t11.5 -1.5t14 -0.5z" />
    <glyph glyph-name="uni04B8" unicode="&#x4b8;" horiz-adv-x="632" 
d="M486 710h136l-87 -710h-136l35 278q-25 -13 -62 -23l-18 -145h-93l16 127q-24 -2 -34 -2q-97 0 -134.5 55t-23.5 169l34 251h133l-32 -248q-8 -62 7 -85.5t64 -23.5l18 145h93l-17 -133q30 6 61 20z" />
    <glyph glyph-name="uni04B9" unicode="&#x4b9;" horiz-adv-x="527" 
d="M379 488h125l-60 -488h-126l28 219h-2q-22 -24 -50 -40l-14 -110h-71l10 78q-25 -7 -54 -7q-65 0 -92 41.5t-16 118.5l26 189h125l-26 -181q-5 -36 4.5 -51.5t39.5 -15.5h5l19 144h71l-14 -111q50 40 55 82z" />
    <glyph glyph-name="uni04BA" unicode="&#x4ba;" horiz-adv-x="621" 
d="M420 482q99 0 135.5 -57t22.5 -168l-34 -257h-135l31 241q8 66 -6.5 93t-62.5 27q-71 0 -142 -31l-40 -330h-137l87 710h137l-33 -270q84 42 177 42z" />
    <glyph glyph-name="uni04BB" unicode="&#x4bb;" horiz-adv-x="552" 
d="M35 0l91 736h126l-40 -325l2 -1q70 86 170 86q75 0 103.5 -49t14.5 -151l-40 -296h-127l38 276q7 55 -1.5 80.5t-38.5 25.5q-44 0 -91.5 -58.5t-58.5 -145.5l-21 -178h-127z" />
    <glyph glyph-name="uni04BC" unicode="&#x4bc;" horiz-adv-x="819" 
d="M793 316h-483v-20q0 -88 42.5 -133t118.5 -45q92 0 160 82l97 -87q-107 -122 -264 -122q-135 0 -213 79t-78 220q0 17 1 26q-72 1 -112 31.5t-40 88.5q0 71 42 115l96 -27q-25 -42 -25 -62q0 -32 53 -32h2q33 130 121.5 209.5t216.5 79.5q126 0 202.5 -79.5t76.5 -217.5
q0 -40 -14 -106zM519 591q-61 0 -110.5 -43t-75.5 -115h340q-4 77 -45.5 117.5t-108.5 40.5z" />
    <glyph glyph-name="uni04BD" unicode="&#x4bd;" horiz-adv-x="569" 
d="M549 363q0 -58 -45.5 -99.5t-108 -61t-143.5 -28.5q16 -72 83 -72q57 0 102 51l97 -63q-43 -50 -90.5 -74t-115.5 -24q-85 0 -138.5 47t-61.5 129h-3q-60 -3 -92 24t-32 75q0 44 32 94l77 -17q-19 -43 -20 -61q0 -28 42 -29q17 101 85.5 171.5t170.5 70.5q66 0 114 -35
t47 -98zM424 351q1 17 -10.5 26t-33.5 9q-41 0 -77 -35.5t-48 -91.5q168 22 169 92z" />
    <glyph glyph-name="uni04BE" unicode="&#x4be;" horiz-adv-x="819" 
d="M793 316h-483v-20q0 -88 42.5 -133t118.5 -45q92 0 160 82l97 -87q-89 -102 -215 -119l-20 -131h-112l10 135q-103 20 -160.5 96t-57.5 196q0 17 1 26q-72 1 -112 31.5t-40 88.5q0 71 42 115l96 -27q-25 -42 -25 -62q0 -32 53 -32h2q33 130 121.5 209.5t216.5 79.5
q126 0 202.5 -79.5t76.5 -217.5q0 -40 -14 -106zM519 591q-61 0 -110.5 -43t-75.5 -115h340q-4 77 -45.5 117.5t-108.5 40.5z" />
    <glyph glyph-name="uni04BF" unicode="&#x4bf;" horiz-adv-x="569" 
d="M549 363q0 -58 -45.5 -99.5t-108 -61t-143.5 -28.5q16 -72 83 -72q57 0 102 51l97 -63q-68 -80 -158 -95l-19 -126h-102l12 130q-60 15 -96 59t-43 110h-3q-60 -3 -92 24t-32 75q0 44 32 94l77 -17q-19 -43 -20 -61q0 -28 42 -29q17 101 85.5 171.5t170.5 70.5
q66 0 114 -35t47 -98zM424 351q1 17 -10.5 26t-33.5 9q-41 0 -77 -35.5t-48 -91.5q168 22 169 92z" />
    <glyph glyph-name="uni04C0" unicode="&#x4c0;" horiz-adv-x="310" 
d="M56 0l87 710h138l-87 -710h-138z" />
    <glyph glyph-name="uni04C1" unicode="&#x4c1;" horiz-adv-x="876" 
d="M497 764q-67 0 -103.5 33t-40.5 108l103 9q1 -32 16.5 -50t38.5 -18t48 19.5t41 52.5l91 -27q-33 -67 -85 -97t-109 -30zM916 710l-244 -334l170 -376h-155l-126 295l-66 -81l-25 -214h-131l26 216l-44 79l-193 -295h-154l256 379l-166 331h158l160 -338l3 1l41 337h131
l-42 -336l3 -1l236 337h162z" />
    <glyph glyph-name="uni04C2" unicode="&#x4c2;" horiz-adv-x="720" 
d="M395 550q-67 0 -103.5 32.5t-40.5 108.5l103 15q1 -37 16 -56t39 -19t49 21t41 57l90 -31q-33 -67 -85 -97.5t-109 -30.5zM591 184q15 -49 35.5 -67t55.5 -23l-32 -101q-20 -2 -33 -2q-53 0 -83.5 36.5t-50.5 109.5l-10 36q-32 -17 -67 -28l-18 -145h-122l28 224l-2 1
q-65 -39 -99.5 -92.5t-58.5 -132.5h-130q31 138 147 244l-19 61q-15 50 -35.5 67.5t-56.5 23.5l31 98q20 2 33 2q55 0 87 -36.5t50 -108.5l9 -37q27 16 58 25l18 150h122l-28 -228l2 -1q69 40 106.5 96.5t58.5 132.5h130q-32 -143 -145 -247z" />
    <glyph glyph-name="uni04C3" unicode="&#x4c3;" horiz-adv-x="640" 
d="M390 382q85 -18 135.5 -87.5t50.5 -161.5q0 -143 -74.5 -240t-215.5 -97q-35 0 -60 7l18 110q22 -4 33 -4q74 0 116 64.5t42 147.5q0 79 -48.5 116t-125.5 39q-12 1 -37 1l-37 -277h-135l87 710h135l-39 -319l3 -1l257 320h167z" />
    <glyph glyph-name="uni04C4" unicode="&#x4c4;" horiz-adv-x="519" 
d="M353 236q52 -14 84.5 -60.5t32.5 -109.5q0 -121 -76 -196.5t-204 -75.5q-38 0 -72 6l28 101q4 0 13 -0.5t15 -0.5q77 0 123 43.5t46 112.5q0 47 -25 75t-63 36q-34 -23 -80 -43l-15 -124h-125l60 489h126l-28 -238l2 -1q130 85 174 239h130q-14 -68 -53 -135t-93 -118z
" />
    <glyph glyph-name="uni04C5" unicode="&#x4c5;" horiz-adv-x="721" 
d="M592 122h109l-5 -44l-109 -215h-93l48 137h-100l72 588h-160q-37 -218 -62 -316q-35 -145 -86.5 -212t-145.5 -67q-44 0 -76 13l20 111q22 -4 34 -4q48 0 78.5 56.5t56.5 167.5q36 159 68 373h424z" />
    <glyph glyph-name="uni04C6" unicode="&#x4c6;" horiz-adv-x="566" 
d="M504 104h44l-4 -22l-106 -211h-89l49 128q-86 14 -74 109l34 273h-34q-30 0 -46 -15t-24 -45q-6 -23 -16.5 -69t-17.5 -73q-22 -90 -66 -138t-108 -48q-39 0 -66 13l25 103q13 -5 25 -5q53 0 81 130q11 46 20 104q12 69 57 110t115 41h194l-39 -321q-1 -12 -1.5 -21
t1 -15.5t3 -11t5.5 -7.5t7 -5t9.5 -2.5t10 -1t11.5 -0.5z" />
    <glyph glyph-name="uni04C7" unicode="&#x4c7;" horiz-adv-x="686" 
d="M663 710l-88 -710q-13 -111 -71.5 -157.5t-154.5 -46.5q-33 0 -62 7l18 107q23 -5 37 -5q45 0 67.5 23.5t28.5 71.5l35 279h-251l-34 -279h-136l87 710h136l-38 -309h251l38 309h137z" />
    <glyph glyph-name="uni04C8" unicode="&#x4c8;" horiz-adv-x="550" 
d="M517 489l-60 -489q-13 -102 -66.5 -153.5t-137.5 -51.5q-33 0 -60 8l21 97q14 -3 24 -3q79 0 94 126l20 164l-167 -1l-23 -186h-127l60 489h127l-24 -198l167 1l24 197h128z" />
    <glyph glyph-name="uni04C9" unicode="&#x4c9;" horiz-adv-x="718" 
d="M590 122h109l-5 -44l-109 -215h-93l48 137h-102l35 279h-251l-34 -279h-136l87 710h136l-38 -309h251l38 309h136z" />
    <glyph glyph-name="uni04CA" unicode="&#x4ca;" horiz-adv-x="581" 
d="M520 104h44l-4 -22l-106 -211h-89l49 127q-86 14 -75 110l10 79l-164 -1l-23 -186h-127l60 489h127l-24 -198l163 1l24 197h128l-40 -321q-1 -12 -1.5 -21t1 -15.5t3 -11t6 -7.5t7 -5t9 -2.5t10 -1t12.5 -0.5z" />
    <glyph glyph-name="uni04CB" unicode="&#x4cb;" horiz-adv-x="612" 
d="M465 710h137l-88 -710h-114l-25 -137h-111l28 252h100l19 162q-73 -42 -168 -42q-97 0 -134.5 55t-23.5 169l34 251h134l-32 -248q-7 -60 7.5 -83t63.5 -23q68 0 134 32z" />
    <glyph glyph-name="uni04CC" unicode="&#x4cc;" horiz-adv-x="514" 
d="M377 488h127l-60 -488h-90q-26 0 -31 -23l-19 -108h-102l16 124q9 83 79 88l30 2l17 134h-2q-30 -37 -73 -57.5t-83 -20.5q-140 0 -116 161l26 189h126l-25 -178q-5 -32 4.5 -47.5t38.5 -14.5q38 1 77 38t44 72z" />
    <glyph glyph-name="uni04CD" unicode="&#x4cd;" horiz-adv-x="849" 
d="M721 122h109l-5 -44l-109 -215h-93l48 137h-100l52 432l-3 1l-178 -298h-88l-111 312l-2 -1l-54 -446h-135l87 710h135l144 -408h3l237 408h135z" />
    <glyph glyph-name="uni04CE" unicode="&#x4ce;" horiz-adv-x="678" 
d="M616 104h44l-4 -22l-106 -211h-89l49 128q-83 14 -71 109l22 173h-1l-120 -197h-82l-67 202h-1l-36 -286h-123l61 489h129l95 -275h2l162 275h129l-39 -321q-1 -12 -1.5 -21t1 -15.5t3 -11t5.5 -7.5t7 -5t9.5 -2.5t10 -1t11.5 -0.5z" />
    <glyph glyph-name="uni04CF" unicode="&#x4cf;" horiz-adv-x="262" 
d="M40 0l90 736h127l-91 -736h-126z" />
    <glyph glyph-name="uni04D0" unicode="&#x4d0;" horiz-adv-x="642" 
d="M389 764q-67 0 -103.5 33t-40.5 108l103 9q1 -32 16.5 -50t38.5 -18q24 0 48.5 19.5t40.5 52.5l91 -27q-33 -67 -85 -97t-109 -30zM-12 0l322 710h136l149 -710h-142l-26 144h-237l-61 -144h-141zM237 261h170l-51 281h-2z" />
    <glyph glyph-name="uni04D1" unicode="&#x4d1;" horiz-adv-x="558" 
d="M323 550q-67 0 -103.5 32.5t-40.5 108.5l103 15q1 -37 16 -56t39 -19t49 21t41 57l90 -31q-33 -67 -85 -97.5t-109 -30.5zM198 -9q-80 0 -122 56t-42 143q0 125 67.5 215.5t168.5 90.5q80 0 122 -45l3 1l5 36h127l-60 -488h-127l10 82l-3 1q-64 -92 -149 -92zM231 104
q49 0 93.5 61t57.5 160l2 16q-41 41 -98 41q-55 0 -89.5 -58t-34.5 -130q0 -42 18 -66t51 -24z" />
    <glyph glyph-name="uni04D2" unicode="&#x4d2;" horiz-adv-x="642" 
d="M299 785q-34 0 -56.5 22.5t-22.5 55.5q0 35 23 57.5t59 22.5q34 0 56.5 -22t22.5 -55q0 -35 -23 -58t-59 -23zM501 785q-35 0 -57.5 22.5t-22.5 55.5q0 35 23.5 57.5t59.5 22.5q34 0 56.5 -22t22.5 -55q0 -35 -23 -58t-59 -23zM-12 0l322 710h136l149 -710h-142l-26 144
h-237l-61 -144h-141zM237 261h170l-51 281h-2z" />
    <glyph glyph-name="uni04D3" unicode="&#x4d3;" horiz-adv-x="558" 
d="M233 557q-34 0 -56.5 22.5t-22.5 55.5q0 35 23 57.5t59 22.5q34 0 56.5 -22t22.5 -55q0 -35 -23 -58t-59 -23zM435 557q-35 0 -57.5 22.5t-22.5 55.5q0 35 23.5 57.5t59.5 22.5q34 0 56.5 -22t22.5 -55q0 -35 -23 -58t-59 -23zM198 -9q-80 0 -122 56t-42 143
q0 125 67.5 215.5t168.5 90.5q80 0 122 -45l3 1l5 36h127l-60 -488h-127l10 82l-3 1q-64 -92 -149 -92zM231 104q49 0 93.5 61t57.5 160l2 16q-41 41 -98 41q-55 0 -89.5 -58t-34.5 -130q0 -42 18 -66t51 -24z" />
    <glyph glyph-name="uni04D4" unicode="&#x4d4;" horiz-adv-x="872" 
d="M-26 0l400 710h488l-15 -122h-283l-23 -175h231l-15 -120h-230l-21 -171h302l-15 -122h-434l18 144h-177l-79 -144h-147zM262 261h130l36 301h-2z" />
    <glyph glyph-name="uni04D5" unicode="&#x4d5;" horiz-adv-x="693" 
d="M483 103q50 0 89 50l96 -64q-74 -96 -190 -96q-128 0 -166 99q-49 -101 -143 -101q-68 0 -108.5 51t-38.5 133q2 131 73 222.5t187 91.5q72 0 121 -30q55 37 129 37q64 0 108.5 -35t44.5 -95q0 -81 -79.5 -130.5t-211.5 -61.5q7 -35 31.5 -53t57.5 -18zM519 386
q-35 0 -70.5 -34.5t-49.5 -91.5q161 23 161 96q0 12 -10.5 21t-30.5 9zM190 101q18 0 34 15.5t28.5 47.5t19.5 53.5t17 59.5q14 56 39 100q-16 3 -30 3q-66 0 -107 -62.5t-41 -147.5q0 -33 11.5 -51t28.5 -18z" />
    <glyph glyph-name="uni04D6" unicode="&#x4d6;" horiz-adv-x="563" 
d="M356 763q-67 0 -103.5 33t-40.5 108l103 9q1 -32 16.5 -50t38.5 -18q24 0 48.5 19.5t40.5 52.5l91 -27q-33 -67 -85 -97t-109 -30zM51 0l87 710h415l-16 -122h-280l-21 -176h224l-15 -120h-224l-21 -170h299l-15 -122h-433z" />
    <glyph glyph-name="uni04D7" unicode="&#x4d7;" horiz-adv-x="478" 
d="M288 550q-67 0 -103.5 32.5t-40.5 108.5l103 15q1 -37 16 -56t39 -19t49 21t41 57l90 -31q-33 -67 -85 -97.5t-109 -30.5zM458 363q-1 -156 -298 -188q6 -36 29.5 -54.5t54.5 -18.5q56 0 101 51l97 -63q-43 -50 -90.5 -74t-115.5 -24q-92 0 -146.5 54.5t-54.5 149.5
q0 126 71.5 213t189.5 87q66 0 114 -35t48 -98zM165 264q167 19 168 87q0 35 -45 35q-39 0 -74 -31.5t-49 -90.5z" />
    <glyph glyph-name="uni04D8" unicode="&#x4d8;" horiz-adv-x="713" 
d="M401 719q129 0 205.5 -79.5t76.5 -219.5q0 -117 -42 -213.5t-124.5 -156t-191.5 -59.5q-127 0 -203.5 79t-76.5 215q0 42 14 104h483q1 8 1 25q0 86 -43.5 132t-113.5 46q-84 0 -158 -62l-80 101q115 88 253 88zM333 119q61 0 109.5 41.5t75.5 111.5h-338
q4 -74 45.5 -113.5t107.5 -39.5z" />
    <glyph glyph-name="uni04D9" unicode="&#x4d9;" horiz-adv-x="466" 
d="M236 496q93 0 148 -56.5t55 -153.5q0 -129 -69 -211.5t-195 -82.5q-70 0 -115 36.5t-45 100.5q0 46 24.5 81.5t67.5 57.5t94 35t113 19q-14 64 -85 64q-52 0 -101 -40l-69 85q34 30 82 47.5t95 17.5zM187 103q49 0 80.5 34t43.5 92q-171 -20 -171 -90q0 -36 47 -36z" />
    <glyph glyph-name="uni04DA" unicode="&#x4da;" horiz-adv-x="713" 
d="M350 785q-34 0 -56.5 22.5t-22.5 55.5q0 35 23 57.5t59 22.5q34 0 56.5 -22t22.5 -55q0 -35 -23 -58t-59 -23zM552 785q-35 0 -57.5 22.5t-22.5 55.5q0 35 23.5 57.5t59.5 22.5q34 0 56.5 -22t22.5 -55q0 -35 -23 -58t-59 -23zM401 719q129 0 205.5 -79.5t76.5 -219.5
q0 -117 -42 -213.5t-124.5 -156t-191.5 -59.5q-127 0 -203.5 79t-76.5 215q0 42 14 104h483q1 8 1 25q0 86 -43.5 132t-113.5 46q-84 0 -158 -62l-80 101q115 88 253 88zM333 119q61 0 109.5 41.5t75.5 111.5h-338q4 -74 45.5 -113.5t107.5 -39.5z" />
    <glyph glyph-name="uni04DB" unicode="&#x4db;" horiz-adv-x="466" 
d="M181 557q-34 0 -56.5 22.5t-22.5 55.5q0 35 23 57.5t59 22.5q34 0 56.5 -22t22.5 -55q0 -35 -23 -58t-59 -23zM386 715q34 0 56.5 -22t22.5 -55q0 -35 -23 -58t-59 -23q-35 0 -57.5 22.5t-22.5 55.5q0 35 23.5 57.5t59.5 22.5zM236 496q93 0 148 -56.5t55 -153.5
q0 -129 -69 -211.5t-195 -82.5q-70 0 -115 36.5t-45 100.5q0 46 24.5 81.5t67.5 57.5t94 35t113 19q-14 64 -85 64q-52 0 -101 -40l-69 85q34 30 82 47.5t95 17.5zM187 103q49 0 80.5 34t43.5 92q-171 -20 -171 -90q0 -36 47 -36z" />
    <glyph glyph-name="uni04DC" unicode="&#x4dc;" horiz-adv-x="876" 
d="M407 785q-34 0 -56.5 22.5t-22.5 55.5q0 35 23 57.5t59 22.5q34 0 56.5 -22t22.5 -55q0 -35 -23 -58t-59 -23zM609 785q-35 0 -57.5 22.5t-22.5 55.5q0 35 23.5 57.5t59.5 22.5q34 0 56.5 -22t22.5 -55q0 -35 -23 -58t-59 -23zM916 710l-244 -334l170 -376h-155l-126 295
l-66 -81l-25 -214h-131l26 216l-44 79l-193 -295h-154l256 379l-166 331h158l160 -338l3 1l41 337h131l-42 -336l3 -1l236 337h162z" />
    <glyph glyph-name="uni04DD" unicode="&#x4dd;" horiz-adv-x="720" 
d="M305 557q-34 0 -56.5 22.5t-22.5 55.5q0 35 23 57.5t59 22.5q34 0 56.5 -22t22.5 -55q0 -35 -23 -58t-59 -23zM507 557q-35 0 -57.5 22.5t-22.5 55.5q0 35 23.5 57.5t59.5 22.5q34 0 56.5 -22t22.5 -55q0 -35 -23 -58t-59 -23zM591 184q15 -49 35.5 -67t55.5 -23
l-32 -101q-20 -2 -33 -2q-53 0 -83.5 36.5t-50.5 109.5l-10 36q-32 -17 -67 -28l-18 -145h-122l28 224l-2 1q-65 -39 -99.5 -92.5t-58.5 -132.5h-130q31 138 147 244l-19 61q-15 50 -35.5 67.5t-56.5 23.5l31 98q20 2 33 2q55 0 87 -36.5t50 -108.5l9 -37q27 16 58 25
l18 150h122l-28 -228l2 -1q69 40 106.5 96.5t58.5 132.5h130q-32 -143 -145 -247z" />
    <glyph glyph-name="uni04DE" unicode="&#x4de;" horiz-adv-x="566" 
d="M252 785q-34 0 -56.5 22.5t-22.5 55.5q0 35 23 57.5t59 22.5q34 0 56.5 -22t22.5 -55q0 -35 -23 -58t-59 -23zM454 785q-35 0 -57.5 22.5t-22.5 55.5q0 35 23.5 57.5t59.5 22.5q34 0 56.5 -22t22.5 -55q0 -35 -23 -58t-59 -23zM260 -9q-83 0 -149.5 32t-102.5 89l96 91
q24 -42 65.5 -64.5t92.5 -22.5q56 0 87.5 29t31.5 78q0 86 -114 86h-92l15 113h84q56 0 89 26t33 71q0 38 -25 56t-65 18q-77 0 -135 -50l-80 99q91 76 233 76q95 0 153 -43.5t58 -120.5q0 -55 -31.5 -101t-86.5 -70v-3q50 -22 77.5 -65t27.5 -102q0 -101 -70 -161.5
t-192 -60.5z" />
    <glyph glyph-name="uni04DF" unicode="&#x4df;" horiz-adv-x="446" 
d="M161 557q-34 0 -56.5 22.5t-22.5 55.5q0 35 23 57.5t59 22.5q34 0 56.5 -22t22.5 -55q0 -35 -23 -58t-59 -23zM363 557q-35 0 -57.5 22.5t-22.5 55.5q0 35 23.5 57.5t59.5 22.5q34 0 56.5 -22t22.5 -55q0 -35 -23 -58t-59 -23zM189 -8q-110 0 -190 50l47 106
q57 -47 142 -47q39 0 63.5 16.5t24.5 44.5q0 42 -74 40l-79 -1l12 88l63 1q45 1 67.5 18t22.5 41q0 18 -16.5 28t-43.5 10q-63 0 -123 -31l-45 98q82 42 177 42q76 0 127 -33t51 -91q0 -40 -27.5 -69.5t-66.5 -43.5v-2q39 -10 60.5 -37.5t21.5 -64.5q0 -79 -59 -121
t-155 -42z" />
    <glyph glyph-name="uni04E0" unicode="&#x4e0;" horiz-adv-x="558" 
d="M260 -9q-83 0 -149.5 32t-102.5 89l96 91q24 -42 65.5 -64.5t92.5 -22.5q55 0 87 29t32 76q0 54 -41.5 75.5t-125.5 21.5h-46l6 64l195 203l-2 3h-256l15 122h426l-11 -90l-192 -205v-1q173 -28 173 -191q0 -108 -69.5 -170t-192.5 -62z" />
    <glyph glyph-name="uni04E1" unicode="&#x4e1;" horiz-adv-x="421" 
d="M405 489l-7 -63l-175 -186q64 -5 110.5 -51.5t46.5 -127.5q0 -124 -72 -195.5t-193 -71.5q-102 0 -165 39l42 105q54 -31 121 -31q62 0 100.5 39.5t38.5 105.5q0 48 -31 75t-77 27q-31 0 -52 -7l-26 68l152 167v2h-175l13 105h349z" />
    <glyph glyph-name="uni04E2" unicode="&#x4e2;" horiz-adv-x="697" 
d="M281 790l12 98h279l-13 -98h-278zM52 0l87 710h135l-60 -478h3l327 478h128l-86 -710h-137l57 461h-2l-326 -461h-126z" />
    <glyph glyph-name="uni04E3" unicode="&#x4e3;" horiz-adv-x="543" 
d="M189 583l12 102h279l-13 -102h-278zM191 -9q-76 0 -109 46.5t-19 149.5l43 302h126l-38 -277q-9 -59 1 -82.5t41 -23.5q39 0 82.5 50.5t52.5 116.5l26 216h127l-60 -489h-126l9 80h-2q-63 -89 -154 -89z" />
    <glyph glyph-name="uni04E4" unicode="&#x4e4;" horiz-adv-x="697" 
d="M326 785q-34 0 -56.5 22.5t-22.5 55.5q0 35 23 57.5t59 22.5q34 0 56.5 -22t22.5 -55q0 -35 -23 -58t-59 -23zM528 785q-35 0 -57.5 22.5t-22.5 55.5q0 35 23.5 57.5t59.5 22.5q34 0 56.5 -22t22.5 -55q0 -35 -23 -58t-59 -23zM52 0l87 710h135l-60 -478h3l327 478h128
l-86 -710h-137l57 461h-2l-326 -461h-126z" />
    <glyph glyph-name="uni04E5" unicode="&#x4e5;" horiz-adv-x="543" 
d="M232 557q-34 0 -56.5 22.5t-22.5 55.5q0 35 23 57.5t59 22.5q34 0 56.5 -22t22.5 -55q0 -35 -23 -58t-59 -23zM434 557q-35 0 -57.5 22.5t-22.5 55.5q0 35 23.5 57.5t59.5 22.5q34 0 56.5 -22t22.5 -55q0 -35 -23 -58t-59 -23zM191 -9q-76 0 -109 46.5t-19 149.5l43 302
h126l-38 -277q-9 -59 1 -82.5t41 -23.5q39 0 82.5 50.5t52.5 116.5l26 216h127l-60 -489h-126l9 80h-2q-63 -89 -154 -89z" />
    <glyph glyph-name="uni04E6" unicode="&#x4e6;" horiz-adv-x="754" 
d="M375 785q-34 0 -56.5 22.5t-22.5 55.5q0 35 23 57.5t59 22.5q34 0 56.5 -22t22.5 -55q0 -35 -23 -58t-59 -23zM577 785q-35 0 -57.5 22.5t-22.5 55.5q0 35 23.5 57.5t59.5 22.5q34 0 56.5 -22t22.5 -55q0 -35 -23 -58t-59 -23zM346 -9q-131 0 -208.5 80t-77.5 221
q0 113 45.5 209.5t132 157t196.5 60.5q130 0 208.5 -79.5t78.5 -219.5q0 -180 -102 -304.5t-273 -124.5zM357 119q96 0 159 87.5t63 207.5q0 88 -42.5 133t-116.5 45q-93 0 -156 -89.5t-63 -205.5q0 -88 42 -133t114 -45z" />
    <glyph glyph-name="uni04E7" unicode="&#x4e7;" horiz-adv-x="543" 
d="M224 557q-34 0 -56.5 22.5t-22.5 55.5q0 35 23 57.5t59 22.5q34 0 56.5 -22t22.5 -55q0 -35 -23 -58t-59 -23zM426 557q-35 0 -57.5 22.5t-22.5 55.5q0 35 23.5 57.5t59.5 22.5q34 0 56.5 -22t22.5 -55q0 -35 -23 -58t-59 -23zM241 -9q-94 0 -149.5 55t-55.5 153
q0 123 71.5 210t191.5 87q95 0 151.5 -53.5t56.5 -150.5q0 -130 -69.5 -215.5t-196.5 -85.5zM248 106q57 0 94 51.5t37 124.5q0 55 -27 77.5t-62 22.5q-56 0 -91.5 -52.5t-35.5 -119.5q0 -47 23.5 -75.5t61.5 -28.5z" />
    <glyph glyph-name="uni04E8" unicode="&#x4e8;" horiz-adv-x="753" 
d="M432 719q130 0 209 -79.5t79 -219.5q0 -180 -102 -304.5t-272 -124.5q-131 0 -208.5 80t-77.5 221q0 113 45 209.5t131.5 157t195.5 60.5zM419 596q-73 0 -127.5 -51t-78.5 -134h369v11q0 82 -42 128t-121 46zM356 115q76 0 131.5 49.5t79.5 134.5h-369v-8q0 -82 41 -129
t117 -47z" />
    <glyph glyph-name="uni04E9" unicode="&#x4e9;" horiz-adv-x="531" 
d="M295 496q95 0 151 -53.5t56 -150.5q0 -130 -69 -215.5t-197 -85.5q-94 0 -150 55.5t-56 152.5q0 123 72 210t193 87zM286 386q-42 0 -73.5 -26.5t-47.5 -70.5l213 4q-2 57 -27 75t-65 18zM244 101q46 0 79 27.5t47 74.5l-216 -4q1 -98 90 -98z" />
    <glyph glyph-name="uni04EA" unicode="&#x4ea;" horiz-adv-x="753" 
d="M374 785q-34 0 -56.5 22.5t-22.5 55.5q0 35 23 57.5t59 22.5q34 0 56.5 -22t22.5 -55q0 -35 -23 -58t-59 -23zM576 785q-35 0 -57.5 22.5t-22.5 55.5q0 35 23.5 57.5t59.5 22.5q34 0 56.5 -22t22.5 -55q0 -35 -23 -58t-59 -23zM432 719q130 0 209 -79.5t79 -219.5
q0 -180 -102 -304.5t-272 -124.5q-131 0 -208.5 80t-77.5 221q0 113 45 209.5t131.5 157t195.5 60.5zM419 596q-73 0 -127.5 -51t-78.5 -134h369v11q0 82 -42 128t-121 46zM356 115q76 0 131.5 49.5t79.5 134.5h-369v-8q0 -82 41 -129t117 -47z" />
    <glyph glyph-name="uni04EB" unicode="&#x4eb;" horiz-adv-x="531" 
d="M219 557q-34 0 -56.5 22.5t-22.5 55.5q0 35 23 57.5t59 22.5q34 0 56.5 -22t22.5 -55q0 -35 -23 -58t-59 -23zM421 557q-35 0 -57.5 22.5t-22.5 55.5q0 35 23.5 57.5t59.5 22.5q34 0 56.5 -22t22.5 -55q0 -35 -23 -58t-59 -23zM295 496q95 0 151 -53.5t56 -150.5
q0 -130 -69 -215.5t-197 -85.5q-94 0 -150 55.5t-56 152.5q0 123 72 210t193 87zM286 386q-42 0 -73.5 -26.5t-47.5 -70.5l213 4q-2 57 -27 75t-65 18zM244 101q46 0 79 27.5t47 74.5l-216 -4q1 -98 90 -98z" />
    <glyph glyph-name="uni04EC" unicode="&#x4ec;" horiz-adv-x="656" 
d="M279 786q-34 0 -56.5 22.5t-22.5 55.5q0 35 23 57.5t59 22.5q34 0 56.5 -22t22.5 -55q0 -35 -23 -58t-59 -23zM481 786q-35 0 -57.5 22.5t-22.5 55.5q0 35 23.5 57.5t59.5 22.5q34 0 56.5 -22t22.5 -55q0 -35 -23 -58t-59 -23zM339 719q138 0 212 -80.5t74 -219.5
q0 -120 -40.5 -216t-124 -154t-196.5 -58q-172 0 -249 118l101 88q46 -80 150 -80q77 0 131.5 49t74.5 134h-281l14 116h282q-1 85 -43.5 131.5t-121.5 46.5q-80 0 -144 -59l-80 99q100 85 241 85z" />
    <glyph glyph-name="uni04ED" unicode="&#x4ed;" horiz-adv-x="479" 
d="M180 557q-34 0 -56.5 22.5t-22.5 55.5q0 35 23 57.5t59 22.5q34 0 56.5 -22t22.5 -55q0 -35 -23 -58t-59 -23zM382 557q-35 0 -57.5 22.5t-22.5 55.5q0 35 23.5 57.5t59.5 22.5q34 0 56.5 -22t22.5 -55q0 -35 -23 -58t-59 -23zM232 496q98 0 154.5 -54t55.5 -157
q-1 -129 -73 -211t-197 -82q-119 0 -178 69l82 85q33 -41 101 -41q45 0 78.5 26t49.5 72l-197 -2l12 91l196 2q-3 44 -27.5 67.5t-68.5 23.5q-53 0 -99 -38l-69 86q73 63 180 63z" />
    <glyph glyph-name="uni04EE" unicode="&#x4ee;" horiz-adv-x="599" 
d="M518 888l-13 -98h-278l12 98h279zM495 710h152l-274 -527q-27 -52 -42 -77.5t-41 -57t-55.5 -44.5t-68.5 -13q-74 0 -116 35l42 112q34 -25 65 -25q29 0 51.5 25.5t48.5 76.5l-191 495h150l112 -349h3z" />
    <glyph glyph-name="uni04EF" unicode="&#x4ef;" horiz-adv-x="540" 
d="M464 685l-13 -102h-278l12 102h279zM385 489h125l-52 -426q-32 -269 -270 -269q-97 0 -172 47l40 103q64 -41 128 -41q63 0 99.5 34.5t49.5 131.5l1 10l-2 1q-64 -89 -157 -89q-155 0 -127 196l41 302h126l-37 -277q-7 -59 2.5 -82t40.5 -24q41 0 85.5 53t52.5 121z" />
    <glyph glyph-name="uni04F0" unicode="&#x4f0;" horiz-adv-x="599" 
d="M272 785q-34 0 -56.5 22.5t-22.5 55.5q0 35 23 57.5t59 22.5q34 0 56.5 -22t22.5 -55q0 -35 -23 -58t-59 -23zM474 785q-35 0 -57.5 22.5t-22.5 55.5q0 35 23.5 57.5t59.5 22.5q34 0 56.5 -22t22.5 -55q0 -35 -23 -58t-59 -23zM495 710h152l-274 -527q-27 -52 -42 -77.5
t-41 -57t-55.5 -44.5t-68.5 -13q-74 0 -116 35l42 112q34 -25 65 -25q29 0 51.5 25.5t48.5 76.5l-191 495h150l112 -349h3z" />
    <glyph glyph-name="uni04F1" unicode="&#x4f1;" horiz-adv-x="540" 
d="M216 557q-34 0 -56.5 22.5t-22.5 55.5q0 35 23 57.5t59 22.5q34 0 56.5 -22t22.5 -55q0 -35 -23 -58t-59 -23zM418 557q-35 0 -57.5 22.5t-22.5 55.5q0 35 23.5 57.5t59.5 22.5q34 0 56.5 -22t22.5 -55q0 -35 -23 -58t-59 -23zM385 489h125l-52 -426q-32 -269 -270 -269
q-97 0 -172 47l40 103q64 -41 128 -41q63 0 99.5 34.5t49.5 131.5l1 10l-2 1q-64 -89 -157 -89q-155 0 -127 196l41 302h126l-37 -277q-7 -59 2.5 -82t40.5 -24q41 0 85.5 53t52.5 121z" />
    <glyph glyph-name="uni04F2" unicode="&#x4f2;" horiz-adv-x="599" 
d="M458 931l-129 -147h-118l118 146zM522 784h-117l117 146l129 1zM331 361l164 349h152l-274 -527q-27 -52 -42 -77.5t-41 -57t-55.5 -44.5t-68.5 -13q-74 0 -116 35l42 112q34 -25 65 -25q29 0 51.5 25.5t48.5 76.5l-191 495h150l112 -349h3z" />
    <glyph glyph-name="uni04F3" unicode="&#x4f3;" horiz-adv-x="540" 
d="M378 704l-129 -147h-118l118 146zM442 557h-117l117 146l129 1zM359 280l26 209h125l-52 -426q-32 -269 -270 -269q-97 0 -172 47l40 103q64 -41 128 -41q63 0 99.5 34.5t49.5 131.5l1 10l-2 1q-64 -89 -157 -89q-155 0 -127 196l41 302h126l-37 -277q-7 -59 2.5 -82
t40.5 -24q41 0 85.5 53t52.5 121z" />
    <glyph glyph-name="uni04F4" unicode="&#x4f4;" horiz-adv-x="612" 
d="M282 785q-34 0 -56.5 22.5t-22.5 55.5q0 35 23 57.5t59 22.5q34 0 56.5 -22t22.5 -55q0 -35 -23 -58t-59 -23zM484 785q-35 0 -57.5 22.5t-22.5 55.5q0 35 23.5 57.5t59.5 22.5q34 0 56.5 -22t22.5 -55q0 -35 -23 -58t-59 -23zM465 710h137l-88 -710h-136l33 277
q-73 -42 -168 -42q-97 0 -134.5 55t-23.5 169l34 251h134l-32 -248q-7 -60 7.5 -83t63.5 -23q68 0 134 32z" />
    <glyph glyph-name="uni04F5" unicode="&#x4f5;" horiz-adv-x="514" 
d="M221 557q-34 0 -56.5 22.5t-22.5 55.5q0 35 23 57.5t59 22.5q34 0 56.5 -22t22.5 -55q0 -35 -23 -58t-59 -23zM423 557q-35 0 -57.5 22.5t-22.5 55.5q0 35 23.5 57.5t59.5 22.5q34 0 56.5 -22t22.5 -55q0 -35 -23 -58t-59 -23zM317 0l27 217h-2q-30 -37 -73 -57.5
t-83 -20.5q-140 0 -116 161l26 189h126l-25 -178q-5 -32 4.5 -47.5t38.5 -14.5q38 1 77 38t44 72l16 129h127l-60 -488h-127z" />
    <glyph glyph-name="uni04F6" unicode="&#x4f6;" horiz-adv-x="528" 
d="M540 588h-280l-57 -466h96l-38 -259h-112l11 137h-108l87 710h416z" />
    <glyph glyph-name="uni04F7" unicode="&#x4f7;" horiz-adv-x="431" 
d="M251 -131l21 161l-2 1q-48 -38 -117 -38q-63 0 -99 32.5t-37 86.5q0 52 33.5 90t100.5 72l53 28q46 23 59.5 33t12.5 27q-1 26 -45 26q-48 0 -96 -40l-68 88q30 26 81.5 43t97.5 17q64 0 111.5 -29.5t47.5 -92.5q0 -32 -10.5 -56.5t-32.5 -43.5t-39.5 -29.5t-48.5 -26.5
l-63 -32q-64 -31 -64 -59t42 -28q64 0 108 50l95 -68l-39 -212h-102z" />
    <glyph glyph-name="uni04F8" unicode="&#x4f8;" horiz-adv-x="863" 
d="M400 785q-34 0 -56.5 22.5t-22.5 55.5q0 35 23 57.5t59 22.5q34 0 56.5 -22t22.5 -55q0 -35 -23 -58t-59 -23zM602 785q-35 0 -57.5 22.5t-22.5 55.5q0 35 23.5 57.5t59.5 22.5q34 0 56.5 -22t22.5 -55q0 -35 -23 -58t-59 -23zM52 0l87 710h135l-32 -259h101
q53 0 92.5 -13t61.5 -33t35.5 -48t17 -53.5t3.5 -54.5q-2 -124 -73.5 -186.5t-206.5 -62.5h-221zM614 0l87 710h138l-87 -710h-138zM202 121h81q64 0 96.5 31.5t32.5 89.5q0 89 -93 89h-91z" />
    <glyph glyph-name="uni04F9" unicode="&#x4f9;" horiz-adv-x="709" 
d="M305 557q-34 0 -56.5 22.5t-22.5 55.5q0 35 23 57.5t59 22.5q34 0 56.5 -22t22.5 -55q0 -35 -23 -58t-59 -23zM507 557q-35 0 -57.5 22.5t-22.5 55.5q0 35 23.5 57.5t59.5 22.5q34 0 56.5 -22t22.5 -55q0 -35 -23 -58t-59 -23zM234 -9q-104 0 -147 53.5t-28 151.5l41 293
h126l-27 -171l1 -1q17 24 52 43.5t75 19.5q57 0 96.5 -41t38.5 -108q-2 -106 -62 -173t-166 -67zM503 0l61 489h126l-60 -489h-127zM243 99q40 0 65.5 34.5t25.5 78.5q0 31 -18 45.5t-39 14.5q-37 0 -64.5 -26.5t-32.5 -64.5q-6 -35 10.5 -58.5t52.5 -23.5z" />
    <glyph glyph-name="uni04FA" unicode="&#x4fa;" horiz-adv-x="548" 
d="M560 588h-281l-25 -205h174l-12 -98h-174l-35 -285l-3 -21q-13 -105 -56.5 -144t-120.5 -39q-39 0 -71 7l19 107q22 -5 35 -5q31 0 42 21.5t18 76.5l35 282h-90l13 98h89l40 327h418z" />
    <glyph glyph-name="uni04FB" unicode="&#x4fb;" horiz-adv-x="431" 
d="M189 99q64 0 108 50l95 -68l-11 -81q-13 -102 -66.5 -153.5t-136.5 -51.5q-33 0 -61 8l22 97q13 -3 23 -3q49 0 74.5 29.5t33.5 94.5l2 12l-1 1q-55 -42 -118 -41t-99 33t-37 85q0 79 104 127l1 2l-68 24l32 77l116 -42l2 1q43 21 58 33t14 30q-2 26 -46 26
q-46 0 -95 -39l-68 86q30 26 81.5 43t97.5 17q64 0 111.5 -29t47.5 -90q0 -45 -24 -70.5t-67 -44.5v-3l76 -27l-30 -78l-126 45l-24 -11q-37 -19 -50 -33t-13 -28q0 -28 42 -28z" />
    <glyph glyph-name="uni04FC" unicode="&#x4fc;" horiz-adv-x="608" 
d="M321 -204q-31 0 -63 7l18 110q19 -4 35 -4q44 0 75 29t31 73q0 45 -48 135l-55 108h-4l-174 -254h-155l252 360l-155 350h149l108 -251h4l163 251h161l-246 -354l72 -139q69 -132 69 -200q0 -100 -67 -160.5t-170 -60.5z" />
    <glyph glyph-name="uni04FD" unicode="&#x4fd;" horiz-adv-x="474" 
d="M163 -206q-39 0 -68 6l28 101h24q67 0 105 26t38 74q0 22 -11 48.5t-20 41t-31 49.5h-2l-98 -140h-141l181 251l-117 238h142l57 -139h2l92 139h149l-183 -247q6 -9 28 -42.5t31.5 -50t24 -44.5t20.5 -52.5t6 -49.5q1 -96 -71.5 -152.5t-185.5 -56.5z" />
    <glyph glyph-name="uni04FE" unicode="&#x4fe;" horiz-adv-x="624" 
d="M549 294h-110l142 -294h-154l-112 258h-4l-175 -258h-155l214 294h-112l13 98h129l-147 318h149l109 -259h4l162 259h161l-224 -318h123z" />
    <glyph glyph-name="uni04FF" unicode="&#x4ff;" horiz-adv-x="479" 
d="M416 199h-86l104 -199h-139l-66 147h-2l-100 -147h-140l152 197h-79l11 81l91 1l-111 210h142l59 -150h1l93 150h147l-163 -210l97 1z" />
    <glyph glyph-name="uni0510" unicode="&#x510;" horiz-adv-x="561" 
d="M265 -9q-112 0 -171 51t-59 131q0 70 41 120t100 75v2q-74 59 -74 152t68.5 145t176.5 52q151 0 225 -105l-97 -92q-55 73 -133 71q-46 0 -75 -25t-29 -66q0 -36 24 -58t63 -22h91l-13 -113h-101q-52 0 -89 -33.5t-37 -77.5q0 -35 26.5 -58t79.5 -23q88 0 161 85l95 -91
q-96 -120 -273 -120z" />
    <glyph glyph-name="uni0511" unicode="&#x511;" horiz-adv-x="448" 
d="M195 -8q-80 0 -127 33t-47 96q0 47 30 83.5t75 52.5v2q-66 33 -66 100q0 64 57 100.5t142 36.5q55 0 106 -14t74 -33l-70 -93q-47 31 -110 31q-73 0 -73 -46q-1 -24 19.5 -36.5t53.5 -13.5l65 -1l-10 -88l-77 1q-38 1 -63 -11.5t-26 -39.5q-1 -24 19.5 -37.5t54.5 -13.5
q76 0 142 48l42 -105q-91 -52 -211 -52z" />
    <glyph glyph-name="uni0512" unicode="&#x512;" horiz-adv-x="689" 
d="M665 710l-88 -710q-13 -111 -71.5 -157.5t-154.5 -46.5q-33 0 -62 7l18 107q23 -5 37 -5q45 0 67.5 23.5t28.5 71.5l73 588h-159q-37 -218 -62 -316q-35 -145 -86.5 -212t-145.5 -67q-44 0 -76 13l20 111q22 -4 34 -4q48 0 78.5 56.5t56.5 167.5q36 159 68 373h424z" />
    <glyph glyph-name="uni0513" unicode="&#x513;" horiz-adv-x="536" 
d="M502 489l-60 -489q-13 -102 -66.5 -153.5t-137.5 -51.5q-33 0 -60 8l21 97q13 -3 24 -3q79 0 94 126l44 358h-38q-54 0 -68 -60q-6 -23 -16.5 -69t-17.5 -73q-47 -186 -175 -186q-39 0 -66 13l25 103q13 -5 25 -5q53 0 81 130q11 46 20 104q12 69 57 110t115 41h199z" />
    <glyph glyph-name="uni051A" unicode="&#x51a;" horiz-adv-x="768" 
d="M721 420q0 -164 -83 -281l62 -68l-83 -92l-66 73q-90 -61 -205 -61q-131 0 -208.5 80t-77.5 221q0 113 45.5 209.5t132.5 156.5t196 60q130 0 208.5 -79t78.5 -219zM357 119q57 0 104 33l-54 60l82 88l51 -55q39 76 39 169q0 88 -42.5 132.5t-116.5 44.5q-93 0 -156 -89
t-63 -205q0 -88 42 -133t114 -45z" />
    <glyph glyph-name="uni051B" unicode="&#x51b;" horiz-adv-x="558" 
d="M316 -198l35 281l-3 1q-65 -93 -150 -93q-80 0 -122 56t-42 143q0 125 67.5 215.5t168.5 90.5q79 0 123 -44l2 1l5 36h127l-84 -687h-127zM231 104q48 0 93 61t57 155l3 21q-40 42 -98 42q-55 0 -89.5 -58.5t-34.5 -130.5q0 -42 18 -66t51 -24z" />
    <glyph glyph-name="uni051C" unicode="&#x51c;" horiz-adv-x="942" 
d="M197 0l-113 710h141l64 -486h3l164 486h145l48 -473h3l175 473h147l-288 -710h-130l-56 493h-2l-173 -493h-128z" />
    <glyph glyph-name="uni051D" unicode="&#x51d;" horiz-adv-x="773" 
d="M187 -9q-74 0 -106.5 53t-18.5 153l40 292h126l-36 -272q-14 -111 41 -111q33 0 68.5 41.5t46.5 131.5l26 210h125l-34 -281q-7 -55 2 -78.5t35 -23.5q36 0 73.5 48.5t52.5 145.5q15 85 1 189h129q18 -108 -2 -219q-25 -143 -99.5 -211t-171.5 -68q-56 0 -91.5 26.5
t-44.5 67.5h-2q-24 -43 -71.5 -68.5t-88.5 -25.5z" />
    <glyph glyph-name="uni0524" unicode="&#x524;" horiz-adv-x="692" 
d="M659 122l-38 -259h-112l11 137h-108l72 588h-224l-72 -588h-136l87 710h496l-72 -588h96z" />
    <glyph glyph-name="uni0525" unicode="&#x525;" horiz-adv-x="607" 
d="M523 104h56l-43 -235h-102l15 127h-1q-124 0 -105 122l24 152q18 112 -42 112q-43 0 -86.5 -57t-54.5 -144l-22 -181h-127l61 489h126l-9 -78l2 -1q71 86 161 86q152 0 121 -200l-22 -135q-2 -12 -2 -21t1 -15t5.5 -10t7.5 -6t10.5 -3t11.5 -1.5t14 -0.5z" />
    <glyph glyph-name="uni0528" unicode="&#x528;" horiz-adv-x="686" 
d="M526 710h136l-87 -710h-137l35 279h-249l-37 -300q-13 -105 -57 -144t-121 -39q-39 0 -71 7l19 107q22 -5 35 -5q30 0 42 21.5t19 73.5h-1l87 710h138l-38 -309h249z" />
    <glyph glyph-name="uni0529" unicode="&#x529;" horiz-adv-x="550" 
d="M390 489h127l-60 -489h-127l23 187l-168 -1l-23 -186q-14 -110 -58.5 -157.5t-129.5 -47.5q-33 0 -60 8l21 97q3 0 10.5 -1.5t11.5 -1.5q36 0 53 25t26 88l59 479h127l-24 -198l168 1z" />
    <glyph glyph-name="uni052E" unicode="&#x52e;" horiz-adv-x="722" 
d="M592 122h96l-38 -259h-112l11 137h-107l72 588h-160q-37 -218 -62 -316q-35 -145 -86.5 -212t-145.5 -67q-44 0 -76 13l20 111q22 -4 34 -4q48 0 78.5 56.5t56.5 167.5q36 159 68 373h424z" />
    <glyph glyph-name="uni052F" unicode="&#x52f;" horiz-adv-x="590" 
d="M504 104h56l-43 -235h-102l15 127q-120 0 -106 112l34 273h-34q-30 0 -46 -15t-24 -45q-6 -23 -16.5 -69t-17.5 -73q-22 -90 -66 -138t-108 -48q-39 0 -66 13l25 103q13 -5 25 -5q53 0 81 130q11 46 20 104q12 69 57 110t115 41h194l-39 -321q-1 -12 -1.5 -21t1 -15.5
t3 -11t5.5 -7.5t7 -5t9.5 -2.5t10 -1t11.5 -0.5z" />
    <glyph glyph-name="uni1E0C" unicode="&#x1e0c;" horiz-adv-x="682" 
d="M52 0l87 710h217q143 0 217.5 -78t74.5 -216q0 -188 -102 -302t-277 -114h-217zM201 122h82q103 0 163 82t60 211q0 81 -41.5 127t-121.5 46h-85zM269 -71q34 0 56.5 -22.5t22.5 -55.5q0 -35 -23 -57.5t-59 -22.5q-34 0 -57 22t-23 55q0 35 23.5 58t59.5 23z" />
    <glyph glyph-name="uni1E0D" unicode="&#x1e0d;" horiz-adv-x="562" 
d="M199 -9q-80 0 -122 56t-42 143q0 125 67 215.5t169 90.5q79 0 125 -45l3 1l35 284h127l-91 -736h-127l11 83l-3 1q-64 -93 -152 -93zM231 104q50 0 95 60t59 159l3 19q-37 40 -102 40q-54 0 -88.5 -58.5t-34.5 -129.5q0 -42 17.5 -66t50.5 -24zM232 -71q34 0 56.5 -22.5
t22.5 -55.5q0 -35 -23 -57.5t-59 -22.5q-34 0 -57 22t-23 55q0 35 23.5 58t59.5 23z" />
    <glyph glyph-name="uni1E0E" unicode="&#x1e0e;" horiz-adv-x="682" 
d="M52 0l87 710h217q143 0 217.5 -78t74.5 -216q0 -188 -102 -302t-277 -114h-217zM201 122h82q103 0 163 82t60 211q0 81 -41.5 127t-121.5 46h-85zM123 -209l12 102h279l-13 -102h-278z" />
    <glyph glyph-name="uni1E0F" unicode="&#x1e0f;" horiz-adv-x="562" 
d="M199 -9q-80 0 -122 56t-42 143q0 125 67 215.5t169 90.5q79 0 125 -45l3 1l35 284h127l-91 -736h-127l11 83l-3 1q-64 -93 -152 -93zM231 104q50 0 95 60t59 159l3 19q-37 40 -102 40q-54 0 -88.5 -58.5t-34.5 -129.5q0 -42 17.5 -66t50.5 -24zM86 -209l12 102h279
l-13 -102h-278z" />
    <glyph glyph-name="uni1E20" unicode="&#x1e20;" horiz-adv-x="695" 
d="M306 789l12 98h279l-13 -98h-278zM350 -9q-129 0 -209.5 76.5t-80.5 221.5q0 180 104 305t264 125q164 0 243 -125l-109 -82q-50 78 -141 78q-94 0 -156 -87t-62 -209q0 -85 40 -131t114 -46q67 0 129 42l15 108h-135l15 118h268l-36 -306q-48 -40 -119 -64t-144 -24z
" />
    <glyph glyph-name="uni1E21" unicode="&#x1e21;" horiz-adv-x="559" 
d="M190 583l12 102h279l-13 -102h-278zM195 -206q-95 0 -170 47l41 105q63 -40 130 -40q69 0 106.5 37.5t48.5 147.5l16 4l-17 6q-65 -94 -151 -94q-80 0 -122 55t-42 140q0 117 67.5 205.5t168.5 88.5q79 0 123 -44l2 1l4 36h127l-52 -427q-10 -79 -35.5 -133.5t-65 -83
t-82.5 -40t-97 -11.5zM231 120q47 0 91.5 55t57.5 141l4 25q-41 41 -97 41q-55 0 -89.5 -56t-34.5 -119q0 -41 18 -64t50 -23z" />
    <glyph glyph-name="uni1E24" unicode="&#x1e24;" horiz-adv-x="686" 
d="M52 0l87 710h136l-38 -309h251l38 309h136l-87 -710h-137l35 279h-251l-34 -279h-136zM301 -71q34 0 56.5 -22.5t22.5 -55.5q0 -35 -23 -57.5t-59 -22.5q-34 0 -57 22t-23 55q0 35 23.5 58t59.5 23z" />
    <glyph glyph-name="uni1E25" unicode="&#x1e25;" horiz-adv-x="552" 
d="M35 0l91 736h126l-40 -325l2 -1q70 86 170 86q75 0 103.5 -49t14.5 -151l-40 -296h-127l38 276q7 55 -1.5 80.5t-38.5 25.5q-44 0 -91.5 -58.5t-58.5 -145.5l-21 -178h-127zM237 -71q34 0 56.5 -22.5t22.5 -55.5q0 -35 -23 -57.5t-59 -22.5q-34 0 -57 22t-23 55
q0 35 23.5 58t59.5 23z" />
    <glyph glyph-name="uni1E2A" unicode="&#x1e2a;" horiz-adv-x="686" 
d="M52 0l87 710h136l-38 -309h251l38 309h136l-87 -710h-137l35 279h-251l-34 -279h-136zM293 -229q-69 0 -104 39.5t-29 112.5h95q-3 -25 8 -41t36 -16t44 16.5t25 40.5h95q-13 -70 -57.5 -111t-112.5 -41z" />
    <glyph glyph-name="uni1E2B" unicode="&#x1e2b;" horiz-adv-x="552" 
d="M35 0l91 736h126l-40 -325l2 -1q70 86 170 86q75 0 103.5 -49t14.5 -151l-40 -296h-127l38 276q7 55 -1.5 80.5t-38.5 25.5q-44 0 -91.5 -58.5t-58.5 -145.5l-21 -178h-127zM229 -229q-69 0 -104 39.5t-29 112.5h95q-3 -25 8 -41t36 -16t44 16.5t25 40.5h95
q-13 -70 -57.5 -111t-112.5 -41z" />
    <glyph glyph-name="uni1E30" unicode="&#x1e30;" horiz-adv-x="621" 
d="M542 904l-130 -135h-121l115 134zM662 710l-263 -317l181 -393h-155l-129 295l-85 -100l-24 -195h-135l87 710h135l-39 -319l3 -1l257 320h167z" />
    <glyph glyph-name="uni1E31" unicode="&#x1e31;" horiz-adv-x="516" 
d="M435 -7q-18 -2 -32 -2q-53 1 -80.5 35t-56.5 111l-10 27q-46 -30 -82 -45l-14 -119h-125l91 736h126l-59 -485l2 -1q130 85 174 239h130q-28 -138 -143 -250l21 -55q19 -50 38 -67.5t53 -22.5zM265 556l119 146l134 1l-129 -147h-124z" />
    <glyph glyph-name="uni1E36" unicode="&#x1e36;" horiz-adv-x="535" 
d="M52 0l87 710h136l-72 -588h280l-15 -122h-416zM245 -71q34 0 56.5 -22.5t22.5 -55.5q0 -35 -23 -57.5t-59 -22.5q-34 0 -57 22t-23 55q0 35 23.5 58t59.5 23z" />
    <glyph glyph-name="uni1E37" unicode="&#x1e37;" horiz-adv-x="262" 
d="M40 0l90 736h127l-91 -736h-126zM90 -71q34 0 56.5 -22.5t22.5 -55.5q0 -35 -23 -57.5t-59 -22.5q-34 0 -57 22t-23 55q0 35 23.5 58t59.5 23z" />
    <glyph glyph-name="uni1E38" unicode="&#x1e38;" horiz-adv-x="535" 
d="M230 790l12 98h279l-13 -98h-278zM52 0l87 710h136l-72 -588h280l-15 -122h-416zM245 -71q34 0 56.5 -22.5t22.5 -55.5q0 -35 -23 -57.5t-59 -22.5q-34 0 -57 22t-23 55q0 35 23.5 58t59.5 23z" />
    <glyph glyph-name="uni1E39" unicode="&#x1e39;" horiz-adv-x="262" 
d="M66 803l12 98h279l-13 -98h-278zM40 0l90 736h127l-91 -736h-126zM83 -71q34 0 56.5 -22.5t22.5 -55.5q0 -35 -23 -57.5t-59 -22.5q-34 0 -57 22t-23 55q0 35 23.5 58t59.5 23z" />
    <glyph glyph-name="uni1E3A" unicode="&#x1e3a;" horiz-adv-x="535" 
d="M52 0l87 710h136l-72 -588h280l-15 -122h-416zM99 -209l12 102h279l-13 -102h-278z" />
    <glyph glyph-name="uni1E3B" unicode="&#x1e3b;" horiz-adv-x="262" 
d="M40 0l90 736h127l-91 -736h-126zM-56 -209l12 102h279l-13 -102h-278z" />
    <glyph glyph-name="uni1E42" unicode="&#x1e42;" horiz-adv-x="817" 
d="M52 0l87 710h135l144 -408h3l237 408h135l-87 -710h-135l52 432l-3 1l-178 -298h-88l-111 312l-2 -1l-54 -446h-135zM362 -71q34 0 56.5 -22.5t22.5 -55.5q0 -35 -23 -57.5t-59 -22.5q-34 0 -57 22t-23 55q0 35 23.5 58t59.5 23z" />
    <glyph glyph-name="uni1E43" unicode="&#x1e43;" horiz-adv-x="824" 
d="M36 0l60 489h127l-9 -73l3 -1q69 81 157 81q90 0 110 -82h5q67 82 167 82q74 0 102.5 -49.5t14.5 -152.5l-40 -294h-127l38 276q14 106 -34 106q-37 0 -82 -56t-57 -141l-24 -185h-126l36 276q8 52 0.5 79t-33.5 27q-37 0 -83 -57t-56 -139l-22 -186h-127zM366 -71
q34 0 56.5 -22.5t22.5 -55.5q0 -35 -23 -57.5t-59 -22.5q-34 0 -57 22t-23 55q0 35 23.5 58t59.5 23z" />
    <glyph glyph-name="uni1E44" unicode="&#x1e44;" horiz-adv-x="707" 
d="M435 785q-34 0 -56.5 22.5t-22.5 55.5q0 35 23 57.5t59 22.5q34 0 57 -22t23 -55q0 -35 -23.5 -58t-59.5 -23zM52 0l87 710h132l216 -481l3 2l59 479h134l-88 -710h-135l-213 472h-3l-58 -472h-134z" />
    <glyph glyph-name="uni1E45" unicode="&#x1e45;" horiz-adv-x="552" 
d="M336 557q-34 0 -56.5 22.5t-22.5 55.5q0 35 23 57.5t59 22.5q34 0 57 -22t23 -55q0 -35 -23.5 -58t-59.5 -23zM35 0l61 489h126l-9 -78l2 -1q71 86 169 86q75 0 103.5 -49t14.5 -151l-40 -296h-126l37 276q7 55 -1.5 80.5t-38.5 25.5q-44 0 -91 -57.5t-58 -143.5
l-22 -181h-127z" />
    <glyph glyph-name="uni1E46" unicode="&#x1e46;" horiz-adv-x="707" 
d="M52 0l87 710h132l216 -481l3 2l59 479h134l-88 -710h-135l-213 472h-3l-58 -472h-134zM317 -71q34 0 56.5 -22.5t22.5 -55.5q0 -35 -23 -57.5t-59 -22.5q-34 0 -57 22t-23 55q0 35 23.5 58t59.5 23z" />
    <glyph glyph-name="uni1E47" unicode="&#x1e47;" horiz-adv-x="552" 
d="M35 0l61 489h126l-9 -78l2 -1q71 86 169 86q75 0 103.5 -49t14.5 -151l-40 -296h-126l37 276q7 55 -1.5 80.5t-38.5 25.5q-44 0 -91 -57.5t-58 -143.5l-22 -181h-127zM238 -71q34 0 56.5 -22.5t22.5 -55.5q0 -35 -23 -57.5t-59 -22.5q-34 0 -57 22t-23 55q0 35 23.5 58
t59.5 23z" />
    <glyph glyph-name="uni1E48" unicode="&#x1e48;" horiz-adv-x="707" 
d="M52 0l87 710h132l216 -481l3 2l59 479h134l-88 -710h-135l-213 472h-3l-58 -472h-134zM171 -209l12 102h279l-13 -102h-278z" />
    <glyph glyph-name="uni1E49" unicode="&#x1e49;" horiz-adv-x="552" 
d="M35 0l61 489h126l-9 -78l2 -1q71 86 169 86q75 0 103.5 -49t14.5 -151l-40 -296h-126l37 276q7 55 -1.5 80.5t-38.5 25.5q-44 0 -91 -57.5t-58 -143.5l-22 -181h-127zM92 -209l12 102h279l-13 -102h-278z" />
    <glyph glyph-name="uni1E5A" unicode="&#x1e5a;" horiz-adv-x="617" 
d="M52 0l87 710h248q197 0 197 -193q0 -90 -39.5 -155t-115.5 -95l124 -267h-150l-106 245h-81l-29 -245h-135zM231 366h83q59 0 93.5 38.5t34.5 104.5q0 38 -24.5 59t-63.5 21h-95zM274 -71q34 0 56.5 -22.5t22.5 -55.5q0 -35 -23 -57.5t-59 -22.5q-34 0 -57 22t-23 55
q0 35 23.5 58t59.5 23z" />
    <glyph glyph-name="uni1E5B" unicode="&#x1e5b;" horiz-adv-x="355" 
d="M36 0l60 489h127l-10 -80h2q63 87 152 87l-18 -142q-64 15 -107.5 -31.5t-56.5 -137.5l-22 -185h-127zM85 -71q34 0 56.5 -22.5t22.5 -55.5q0 -35 -23 -57.5t-59 -22.5q-34 0 -57 22t-23 55q0 35 23.5 58t59.5 23z" />
    <glyph glyph-name="uni1E5C" unicode="&#x1e5c;" horiz-adv-x="617" 
d="M236 790l12 98h279l-13 -98h-278zM52 0l87 710h248q197 0 197 -193q0 -90 -39.5 -155t-115.5 -95l124 -267h-150l-106 245h-81l-29 -245h-135zM231 366h83q59 0 93.5 38.5t34.5 104.5q0 38 -24.5 59t-63.5 21h-95zM274 -71q34 0 56.5 -22.5t22.5 -55.5q0 -35 -23 -57.5
t-59 -22.5q-34 0 -57 22t-23 55q0 35 23.5 58t59.5 23z" />
    <glyph glyph-name="uni1E5D" unicode="&#x1e5d;" horiz-adv-x="355" 
d="M120 583l12 102h279l-13 -102h-278zM36 0l60 489h127l-10 -80h2q63 87 152 87l-18 -142q-64 15 -107.5 -31.5t-56.5 -137.5l-22 -185h-127zM85 -71q34 0 56.5 -22.5t22.5 -55.5q0 -35 -23 -57.5t-59 -22.5q-34 0 -57 22t-23 55q0 35 23.5 58t59.5 23z" />
    <glyph glyph-name="uni1E5E" unicode="&#x1e5e;" horiz-adv-x="617" 
d="M52 0l87 710h248q197 0 197 -193q0 -90 -39.5 -155t-115.5 -95l124 -267h-150l-106 245h-81l-29 -245h-135zM231 366h83q59 0 93.5 38.5t34.5 104.5q0 38 -24.5 59t-63.5 21h-95zM128 -209l12 102h279l-13 -102h-278z" />
    <glyph glyph-name="uni1E5F" unicode="&#x1e5f;" horiz-adv-x="355" 
d="M36 0l60 489h127l-10 -80h2q63 87 152 87l-18 -142q-64 15 -107.5 -31.5t-56.5 -137.5l-22 -185h-127zM-61 -209l12 102h279l-13 -102h-278z" />
    <glyph glyph-name="uni1E60" unicode="&#x1e60;" horiz-adv-x="556" 
d="M344 785q-34 0 -56.5 22.5t-22.5 55.5q0 35 23 57.5t59 22.5q34 0 57 -22t23 -55q0 -35 -23.5 -58t-59.5 -23zM261 -9q-76 0 -140.5 32.5t-101.5 91.5l98 88q22 -42 60 -65t79 -23q49 0 80 25t31 61q0 9 -2.5 17t-8.5 15.5t-11 12.5t-16.5 12.5t-19.5 12t-25.5 14.5
t-27.5 16q-87 51 -115 75q-61 54 -61 130q0 96 68 154.5t169 58.5q62 0 119 -28t93 -78l-98 -84q-47 68 -121 68q-40 0 -64.5 -22t-23.5 -53q1 -26 20.5 -44.5t72.5 -50.5q14 -8 47.5 -27t47.5 -27.5t37.5 -27t34 -34t19 -39.5t8.5 -52q0 -109 -69.5 -169t-178.5 -60z" />
    <glyph glyph-name="uni1E61" unicode="&#x1e61;" horiz-adv-x="424" 
d="M259 557q-34 0 -56.5 22.5t-22.5 55.5q0 35 23 57.5t59 22.5q34 0 57 -22t23 -55q0 -35 -23.5 -58t-59.5 -23zM190 -9q-54 0 -105 23t-79 61l77 79q46 -59 109 -59q27 0 45 10.5t18 28.5q0 15 -15 25.5t-55 29.5q-9 4 -13 6q-58 27 -89 61t-31 85q0 69 50 112t124 43
q109 0 172 -73l-80 -79q-36 48 -92 50q-21 0 -35 -11t-14 -29q0 -26 75 -63q31 -15 48.5 -25.5t38.5 -28t31.5 -39.5t10.5 -49q1 -74 -51 -116t-140 -42z" />
    <glyph glyph-name="uni1E62" unicode="&#x1e62;" horiz-adv-x="556" 
d="M261 -9q-76 0 -140.5 32.5t-101.5 91.5l98 88q22 -42 60 -65t79 -23q49 0 80 25t31 61q0 9 -2.5 17t-8.5 15.5t-11 12.5t-16.5 12.5t-19.5 12t-25.5 14.5t-27.5 16q-87 51 -115 75q-61 54 -61 130q0 96 68 154.5t169 58.5q62 0 119 -28t93 -78l-98 -84q-47 68 -121 68
q-40 0 -64.5 -22t-23.5 -53q1 -26 20.5 -44.5t72.5 -50.5q14 -8 47.5 -27t47.5 -27.5t37.5 -27t34 -34t19 -39.5t8.5 -52q0 -109 -69.5 -169t-178.5 -60zM241 -71q34 0 56.5 -22.5t22.5 -55.5q0 -35 -23 -57.5t-59 -22.5q-34 0 -57 22t-23 55q0 35 23.5 58t59.5 23z" />
    <glyph glyph-name="uni1E63" unicode="&#x1e63;" horiz-adv-x="424" 
d="M190 -9q-54 0 -105 23t-79 61l77 79q46 -59 109 -59q27 0 45 10.5t18 28.5q0 15 -15 25.5t-55 29.5q-9 4 -13 6q-58 27 -89 61t-31 85q0 69 50 112t124 43q109 0 172 -73l-80 -79q-36 48 -92 50q-21 0 -35 -11t-14 -29q0 -26 75 -63q31 -15 48.5 -25.5t38.5 -28
t31.5 -39.5t10.5 -49q1 -74 -51 -116t-140 -42zM166 -71q34 0 56.5 -22.5t22.5 -55.5q0 -35 -23 -57.5t-59 -22.5q-34 0 -57 22t-23 55q0 35 23.5 58t59.5 23z" />
    <glyph glyph-name="uni1E6C" unicode="&#x1e6c;" horiz-adv-x="543" 
d="M173 0l72 588h-173l14 122h485l-15 -122h-175l-72 -588h-136zM227 -71q34 0 56.5 -22.5t22.5 -55.5q0 -35 -23 -57.5t-59 -22.5q-34 0 -57 22t-23 55q0 35 23.5 58t59.5 23z" />
    <glyph glyph-name="uni1E6D" unicode="&#x1e6d;" horiz-adv-x="340" 
d="M169 -9q-61 0 -90 38.5t-21 110.5l30 243h-51l13 106h50l20 148l129 25l-21 -173h111l-13 -106h-111l-27 -223q-7 -50 28 -50q25 0 61 21l19 -105q-59 -35 -127 -35zM152 -71q34 0 56.5 -22.5t22.5 -55.5q0 -35 -23 -57.5t-59 -22.5q-34 0 -57 22t-23 55q0 35 23.5 58
t59.5 23z" />
    <glyph glyph-name="uni1E6E" unicode="&#x1e6e;" horiz-adv-x="543" 
d="M173 0l72 588h-173l14 122h485l-15 -122h-175l-72 -588h-136zM81 -209l12 102h279l-13 -102h-278z" />
    <glyph glyph-name="uni1E6F" unicode="&#x1e6f;" horiz-adv-x="340" 
d="M169 -9q-61 0 -90 38.5t-21 110.5l30 243h-51l13 106h50l20 148l129 25l-21 -173h111l-13 -106h-111l-27 -223q-7 -50 28 -50q25 0 61 21l19 -105q-59 -35 -127 -35zM6 -209l12 102h279l-13 -102h-278z" />
    <glyph glyph-name="Wgrave" unicode="&#x1e80;" horiz-adv-x="942" 
d="M474 769l-96 135l134 -1l83 -134h-121zM197 0l-113 710h141l64 -486h3l164 486h145l48 -473h3l175 473h147l-288 -710h-130l-56 493h-2l-173 -493h-128z" />
    <glyph glyph-name="wgrave" unicode="&#x1e81;" horiz-adv-x="773" 
d="M383 557l-93 147l134 -1l82 -146h-123zM187 -9q-74 0 -106.5 53t-18.5 153l40 292h126l-36 -272q-14 -111 41 -111q33 0 68.5 41.5t46.5 131.5l26 210h125l-34 -281q-7 -55 2 -78.5t35 -23.5q36 0 73.5 48.5t52.5 145.5q15 85 1 189h129q18 -108 -2 -219
q-25 -143 -99.5 -211t-171.5 -68q-56 0 -91.5 26.5t-44.5 67.5h-2q-24 -43 -71.5 -68.5t-88.5 -25.5z" />
    <glyph glyph-name="Wacute" unicode="&#x1e82;" horiz-adv-x="942" 
d="M474 769l115 134l136 1l-130 -135h-121zM197 0l-113 710h141l64 -486h3l164 486h145l48 -473h3l175 473h147l-288 -710h-130l-56 493h-2l-173 -493h-128z" />
    <glyph glyph-name="wacute" unicode="&#x1e83;" horiz-adv-x="773" 
d="M383 556l119 146l134 1l-129 -147h-124zM187 -9q-74 0 -106.5 53t-18.5 153l40 292h126l-36 -272q-14 -111 41 -111q33 0 68.5 41.5t46.5 131.5l26 210h125l-34 -281q-7 -55 2 -78.5t35 -23.5q36 0 73.5 48.5t52.5 145.5q15 85 1 189h129q18 -108 -2 -219
q-25 -143 -99.5 -211t-171.5 -68q-56 0 -91.5 26.5t-44.5 67.5h-2q-24 -43 -71.5 -68.5t-88.5 -25.5z" />
    </font>
</defs>
</svg>
