<?xml version="1.0" standalone="no"?>
<!DOCTYPE svg PUBLIC "-//W3C//DTD SVG 1.1//EN" "http://www.w3.org/Graphics/SVG/1.1/DTD/svg11.dtd" >
<svg xmlns="http://www.w3.org/2000/svg" xmlns:xlink="http://www.w3.org/1999/xlink" version="1.1">
<metadata>
Created by FontForge 20170731 at Sat Sep  9 08:14:46 2017
 By Aleksey,,,
Copyright (c) 2015 by Kostas Bartsokas. All rights reserved.
</metadata>
<defs>
<font id="AvertaCyr-ExtraThin" horiz-adv-x="586" >
  <font-face 
    font-family="Averta Cyr ExtraThin"
    font-weight="400"
    font-stretch="normal"
    units-per-em="1000"
    panose-1="0 0 2 0 0 0 0 0 0 0"
    ascent="786"
    descent="-214"
    x-height="484"
    cap-height="710"
    bbox="-660 -256 1337 1034"
    underline-thickness="18"
    underline-position="-96"
    unicode-range="U+000D-2E18"
  />
<missing-glyph horiz-adv-x="439" 
 />
    <glyph glyph-name=".notdef" horiz-adv-x="439" 
 />
    <glyph glyph-name="glyph1" horiz-adv-x="0" 
 />
    <glyph glyph-name="glyph2" horiz-adv-x="333" 
 />
    <glyph glyph-name="nonmarkingreturn" unicode="&#xd;" horiz-adv-x="0" 
 />
    <glyph glyph-name="space" unicode=" " horiz-adv-x="280" 
 />
    <glyph glyph-name="exclam" unicode="!" horiz-adv-x="190" 
d="M85 180l-4 556h26l-4 -556h-18zM95 -4q-13 0 -21 8t-8 21t8 20.5t21 7.5t21 -7.5t8 -20.5t-8 -21t-21 -8z" />
    <glyph glyph-name="quotedbl" unicode="&#x22;" horiz-adv-x="245" 
d="M50 493l35 217h26l-42 -217h-19zM133 493l35 217h27l-42 -217h-20z" />
    <glyph glyph-name="numbersign" unicode="#" horiz-adv-x="613" 
d="M145 -25l34 224h-134v22h136l29 187h-146v21h149l35 227h22l-35 -227h194l34 227h22l-35 -227h138v-21h-141l-28 -187h150v-22h-154l-34 -224h-21l34 224h-194l-34 -224h-21zM203 221h194l28 187h-194z" />
    <glyph glyph-name="dollar" unicode="$" horiz-adv-x="542" 
d="M493 165q0 -73 -53 -119.5t-148 -47.5v-123h-23v124q-119 6 -210 93l19 19q92 -90 210 -90q79 0 130 38t51 106q0 31 -11 55.5t-25.5 40t-44.5 30.5t-50.5 22.5t-61.5 20.5q-105 36 -139 58q-65 43 -65 118q0 68 49 111.5t138 43.5h10v127h23v-129q98 -14 169 -65
l-17 -19q-35 27 -89 45t-96 18q-71 0 -117 -35t-46 -97q0 -73 84 -114q27 -14 104 -40q35 -12 47 -16t41.5 -16t41 -20t31 -23t27 -30.5t14.5 -37.5t7 -48z" />
    <glyph glyph-name="percent" unicode="%" horiz-adv-x="938" 
d="M326 -7l-21 7l305 717l20 -8zM233 328q-83 0 -139 54t-56 140q0 81 54.5 136.5t140.5 55.5q82 0 139 -54t57 -138q0 -82 -54.5 -138t-141.5 -56zM233 350q77 0 125.5 49.5t48.5 122.5q0 76 -50 123t-124 47q-77 0 -125 -48.5t-48 -121.5q0 -77 49.5 -124.5t123.5 -47.5z
M695 -3q-82 0 -138.5 54t-56.5 139q0 81 54.5 136.5t140.5 55.5q83 0 139.5 -53.5t56.5 -138.5q0 -82 -54.5 -137.5t-141.5 -55.5zM695 18q77 0 125.5 49.5t48.5 122.5q0 76 -50 123t-124 47q-77 0 -125.5 -48.5t-48.5 -121.5q0 -76 50.5 -124t123.5 -48z" />
    <glyph glyph-name="ampersand" unicode="&#x26;" horiz-adv-x="619" 
d="M262 -3q-93 0 -155 54.5t-62 142.5q0 63 39.5 122.5t104.5 90.5v2l-98 108q0 90 52 143.5t142 53.5q66 0 114 -33.5t67 -89.5l-22 -9q-16 50 -57.5 79.5t-101.5 29.5q-81 0 -125 -44.5t-44 -122.5l357 -396h3q53 80 53 186h23q0 -114 -61 -203v-2l98 -109h-30l-81 90h-2
q-79 -93 -214 -93zM262 19q125 0 198 88v2l-254 281q-60 -28 -99 -82t-39 -114q0 -74 53.5 -124.5t140.5 -50.5z" />
    <glyph glyph-name="quotesingle" unicode="'" horiz-adv-x="161" 
d="M50 493l35 217h26l-42 -217h-19z" />
    <glyph glyph-name="parenleft" unicode="(" horiz-adv-x="231" 
d="M169 -136q-101 213 -101 434q0 244 107 434l18 -11q-103 -186 -103 -423q0 -215 99 -425z" />
    <glyph glyph-name="parenright" unicode=")" horiz-adv-x="231" 
d="M62 -136l-20 9q99 210 99 425q0 237 -103 423l18 11q107 -190 107 -434q0 -221 -101 -434z" />
    <glyph glyph-name="asterisk" unicode="*" horiz-adv-x="403" 
d="M190 406l4 139l-119 -74l-11 21l124 66l-125 66l12 20l119 -73l-4 139h23l-4 -139l119 74l11 -21l-124 -66l124 -66l-11 -19l-119 72l4 -139h-23z" />
    <glyph glyph-name="plus" unicode="+" horiz-adv-x="583" 
d="M280 46v219h-219v22h219v220h22v-220h219v-22h-219v-219h-22z" />
    <glyph glyph-name="comma" unicode="," horiz-adv-x="157" 
d="M36 -128l35 218h27l-42 -218h-20z" />
    <glyph glyph-name="hyphen" unicode="-" horiz-adv-x="403" 
d="M58 296v23h288v-23h-288z" />
    <glyph glyph-name="period" unicode="." horiz-adv-x="172" 
d="M86 -4q-13 0 -21 8t-8 21t8 20.5t21 7.5t21 -7.5t8 -20.5t-8 -21t-21 -8z" />
    <glyph glyph-name="slash" unicode="/" horiz-adv-x="373" 
d="M6 -115l-19 10l389 851l19 -11z" />
    <glyph glyph-name="zero" unicode="0" horiz-adv-x="608" 
d="M304 -3q-108 0 -177 90.5t-69 254.5q0 153 65 250.5t181 97.5q108 0 177 -91t69 -257q0 -151 -64.5 -248t-181.5 -97zM304 20q106 0 164 89.5t58 232.5q0 157 -62 241t-160 84q-106 0 -164 -89.5t-58 -235.5q0 -155 62 -238.5t160 -83.5z" />
    <glyph glyph-name="one" unicode="1" horiz-adv-x="320" 
d="M200 0v657l-162 -123l-14 18l176 135h23v-687h-23z" />
    <glyph glyph-name="two" unicode="2" horiz-adv-x="485" 
d="M31 0v22l261 253q56 55 87 104.5t31 108.5q0 78 -48.5 128.5t-125.5 50.5q-127 0 -178 -119l-22 12q57 130 200 130q81 0 139.5 -54.5t58.5 -146.5q0 -59 -30.5 -113t-93.5 -116l-243 -235l1 -2h376v-23h-413z" />
    <glyph glyph-name="three" unicode="3" horiz-adv-x="500" 
d="M243 -3q-80 0 -137.5 32t-84.5 87l22 11q25 -50 76 -78.5t124 -28.5q81 0 134 45.5t53 120.5q0 70 -49.5 116t-143.5 46h-66v23h75q81 0 124.5 44t43.5 101q0 69 -49.5 110t-126.5 41q-115 0 -175 -84l-21 14q68 93 196 93q86 0 143 -47t57 -127q0 -49 -31.5 -94
t-89.5 -61v-2q65 -18 101 -66t36 -112q0 -80 -60 -132t-151 -52z" />
    <glyph glyph-name="four" unicode="4" horiz-adv-x="535" 
d="M379 0v131h-357v23l358 533h22v-533h108v-23h-108v-131h-23zM50 154h329v490z" />
    <glyph glyph-name="five" unicode="5" horiz-adv-x="529" 
d="M257 427q100 0 166 -57.5t66 -158.5q0 -94 -67 -154t-165 -60q-71 0 -130.5 33.5t-86.5 87.5l22 9q27 -49 78.5 -78t116.5 -29q89 0 148.5 53.5t59.5 137.5q0 90 -58.5 141.5t-149.5 51.5q-77 0 -138 -42l-22 2l19 324h345v-23h-324l-16 -277q56 39 136 39z" />
    <glyph glyph-name="six" unicode="6" horiz-adv-x="560" 
d="M300 424q98 0 157 -57.5t59 -155.5q0 -90 -63 -152t-163 -62q-102 0 -168 70.5t-66 183.5q0 98 32 183t83 140.5t107.5 90t111.5 43.5l4 -23q-106 -19 -201.5 -123t-110.5 -263l1 -1q33 56 89.5 91t127.5 35zM290 20q90 0 146 55t56 136q0 87 -52 138.5t-140 51.5
q-83 0 -139.5 -46.5t-80.5 -113.5q3 -98 62 -159.5t148 -61.5z" />
    <glyph glyph-name="seven" unicode="7" horiz-adv-x="481" 
d="M30 687h422v-24l-309 -671l-22 8l306 664h-397v23z" />
    <glyph glyph-name="eight" unicode="8" horiz-adv-x="563" 
d="M279 -3q-103 0 -168 55.5t-65 135.5q0 69 43 119t114 64v2q-50 11 -86 50t-36 98q0 76 56 122.5t142 46.5q90 0 145 -48t55 -121q0 -59 -36.5 -98t-87.5 -50v-2q72 -13 114.5 -63.5t42.5 -119.5q0 -84 -67 -137.5t-166 -53.5zM279 382q79 0 127.5 38t48.5 101
q0 66 -49.5 106t-126.5 40q-79 0 -126.5 -41.5t-47.5 -104.5t48 -101t126 -38zM279 20q94 0 151.5 48.5t57.5 119.5q0 77 -57 124t-152 47t-152 -47t-57 -124q0 -74 60 -121t149 -47z" />
    <glyph glyph-name="nine" unicode="9" horiz-adv-x="566" 
d="M279 690q101 0 167.5 -72.5t65.5 -193.5q-1 -79 -25 -149.5t-62 -120.5t-85 -89t-92.5 -60t-86.5 -29l-3 23q36 7 77 26t83.5 53t78 77.5t60.5 104.5t30 129l-2 1q-33 -57 -92.5 -93t-138.5 -36q-91 0 -149 57t-58 149q0 93 65.5 158t166.5 65zM254 284q74 0 139 40
t95 120q-5 102 -63.5 162.5t-145.5 60.5q-94 0 -151 -57.5t-57 -141.5q0 -83 50.5 -133.5t132.5 -50.5z" />
    <glyph glyph-name="colon" unicode=":" horiz-adv-x="163" 
d="M82 431q-13 0 -21 8t-8 21t8 20.5t21 7.5t21 -7.5t8 -20.5t-8 -21t-21 -8zM82 -4q-13 0 -21 8t-8 21t8 20.5t21 7.5t21 -7.5t8 -20.5t-8 -21t-21 -8z" />
    <glyph glyph-name="semicolon" unicode=";" horiz-adv-x="174" 
d="M83 431q-13 0 -21 8t-8 21t8 20.5t21 7.5t21 -7.5t8 -20.5t-8 -21t-21 -8zM36 -128l35 218h27l-42 -218h-20z" />
    <glyph glyph-name="less" unicode="&#x3c;" horiz-adv-x="552" 
d="M489 65l-429 210v16l429 210v-24l-394 -194l394 -193v-25z" />
    <glyph glyph-name="equal" unicode="=" horiz-adv-x="556" 
d="M50 377v22h460v-22h-460zM50 153v22h460v-22h-460z" />
    <glyph glyph-name="greater" unicode="&#x3e;" horiz-adv-x="549" 
d="M73 65v25l394 193l-394 194v24l429 -210v-16z" />
    <glyph glyph-name="question" unicode="?" horiz-adv-x="417" 
d="M179 176v60q0 12 2.5 24t9 24.5t11.5 21.5t16.5 22.5t17.5 20.5t20.5 22.5t19.5 21.5q41 44 63.5 83.5t22.5 88.5q0 69 -45.5 110t-109.5 41q-49 0 -92 -22.5t-70 -65.5l-16 18q64 94 178 94q80 0 129.5 -51t49.5 -124q0 -38 -15 -75t-32.5 -59.5t-46.5 -53.5
q-4 -5 -19.5 -21t-20 -21.5t-16 -19t-15.5 -20.5t-10.5 -18.5t-8.5 -21t-2 -19.5v-60h-21zM192 -4q-13 0 -21 8t-8 21t8 20.5t21 7.5t21 -7.5t8 -20.5t-8 -21t-21 -8z" />
    <glyph glyph-name="at" unicode="@" horiz-adv-x="896" 
d="M406 -130q-151 0 -252.5 101.5t-101.5 257.5q0 53 13.5 108t46 112t80 101t123 72t167.5 28q159 0 261 -96t102 -255q0 -37 -10.5 -79t-30.5 -82t-56.5 -66.5t-82.5 -26.5q-77 0 -77 90q0 18 2 30l-2 1q-23 -52 -71.5 -81t-107.5 -29q-75 0 -128 53.5t-53 138.5
q0 82 55.5 150t159.5 68q56 0 99.5 -30.5t62.5 -83.5h1l11 111h22l-26 -286q-2 -28 -2 -35q0 -46 13.5 -60t40.5 -14q52 0 90 41.5t52.5 91.5t14.5 97q0 150 -95 240t-245 90q-85 0 -155 -25t-115.5 -66t-77.5 -94t-45.5 -107t-13.5 -107q0 -146 94.5 -241t236.5 -95
q129 0 223 53l14 -19q-102 -57 -237 -57zM411 79q48 0 86 20t59 50.5t32 63.5t11 64q0 72 -42.5 119t-111.5 47q-93 0 -143.5 -58t-50.5 -133t45 -124t115 -49z" />
    <glyph glyph-name="A" unicode="A" horiz-adv-x="640" 
d="M29 0l275 710h29l278 -710h-25l-83 211h-367l-82 -211h-25zM145 234h349l-174 448h-2z" />
    <glyph glyph-name="B" unicode="B" horiz-adv-x="610" 
d="M89 0v710h204q102 0 163.5 -40.5t61.5 -131.5q0 -59 -33.5 -104t-95.5 -62v-2q69 -10 116 -56t47 -126q0 -87 -61.5 -137.5t-183.5 -50.5h-218zM112 382h200q34 0 64 8t57.5 25t44 48.5t16.5 74.5q0 149 -202 149h-180v-305zM112 23h199q100 0 158.5 41t58.5 121
q0 83 -56.5 128.5t-160.5 45.5h-199v-336z" />
    <glyph glyph-name="C" unicode="C" horiz-adv-x="714" 
d="M408 -3q-149 0 -247.5 94.5t-98.5 260.5q0 157 91.5 259.5t254.5 102.5t271 -134l-19 -16q-100 127 -252 127t-237 -95.5t-85 -243.5q0 -157 91 -244.5t231 -87.5q152 0 252 125l19 -15q-107 -133 -271 -133z" />
    <glyph glyph-name="D" unicode="D" horiz-adv-x="706" 
d="M89 0v710h187q167 0 268 -98.5t101 -257.5t-100 -256.5t-266 -97.5h-190zM112 23h166q159 0 251 91t92 240t-94.5 241t-251.5 92h-163v-664z" />
    <glyph glyph-name="E" unicode="E" horiz-adv-x="565" 
d="M89 0v710h412v-23h-389v-320h327v-23h-327v-321h410v-23h-433z" />
    <glyph glyph-name="F" unicode="F" horiz-adv-x="548" 
d="M89 0v710h432v-23h-409v-322h353v-23h-353v-342h-23z" />
    <glyph glyph-name="G" unicode="G" horiz-adv-x="760" 
d="M409 -3q-153 0 -250 99.5t-97 257.5q0 160 97 260t250 100q156 0 258 -99l-16 -16q-96 92 -242 92q-144 0 -233.5 -93.5t-89.5 -243.5q0 -148 90 -241t233 -93q155 0 250 81v217h-269v23h292v-251q-104 -93 -273 -93z" />
    <glyph glyph-name="H" unicode="H" horiz-adv-x="692" 
d="M89 0v710h23v-364h468v364h23v-710h-23v323h-468v-323h-23z" />
    <glyph glyph-name="I" unicode="I" horiz-adv-x="215" 
d="M96 0v710h23v-710h-23z" />
    <glyph glyph-name="J" unicode="J" horiz-adv-x="467" 
d="M212 -3q-45 0 -95.5 24.5t-90.5 69.5l14 18q83 -89 172 -89q154 0 154 193v497h23v-502q0 -211 -177 -211z" />
    <glyph glyph-name="K" unicode="K" horiz-adv-x="612" 
d="M89 0v710h23v-483h2l418 483h31l-291 -336l296 -374h-30l-281 357l-145 -168v-189h-23z" />
    <glyph glyph-name="L" unicode="L" horiz-adv-x="528" 
d="M89 0v710h23v-687h394v-23h-417z" />
    <glyph glyph-name="M" unicode="M" horiz-adv-x="853" 
d="M89 0v710h24l313 -525h2l312 525h23v-710h-23v665h-1l-302 -510h-21l-303 510h-1v-665h-23z" />
    <glyph glyph-name="N" unicode="N" horiz-adv-x="728" 
d="M89 0v710h22l503 -670h1v670h23v-710h-23l-502 669h-1v-669h-23z" />
    <glyph glyph-name="O" unicode="O" horiz-adv-x="822" 
d="M413 -3q-149 0 -250 100t-101 259q0 158 101 258t250 100q146 0 246.5 -100t100.5 -258q0 -159 -100.5 -259t-246.5 -100zM413 20q136 0 229.5 94t93.5 242t-93.5 241.5t-229.5 93.5q-138 0 -232.5 -93.5t-94.5 -241.5q0 -149 94 -242.5t233 -93.5z" />
    <glyph glyph-name="P" unicode="P" horiz-adv-x="582" 
d="M89 0v710h233q112 0 165.5 -54.5t53.5 -145.5q0 -104 -63.5 -154.5t-173.5 -50.5h-192v-305h-23zM112 328h191q111 0 162.5 49.5t51.5 132.5q0 88 -51.5 132.5t-137.5 44.5h-216v-359z" />
    <glyph glyph-name="Q" unicode="Q" horiz-adv-x="830" 
d="M771 14l-15 -17l-104 93q-98 -93 -240 -93q-155 0 -252.5 103.5t-97.5 255.5q0 151 98 254.5t252 103.5q146 0 247 -100t101 -258q0 -149 -92 -249zM86 356q0 -142 91 -239t235 -97q131 0 222 86l-102 92l14 18l105 -93q85 93 85 233q0 148 -94 241.5t-230 93.5
q-144 0 -235 -97t-91 -238z" />
    <glyph glyph-name="R" unicode="R" horiz-adv-x="611" 
d="M89 0v710h233q110 0 165 -55t55 -145q0 -97 -56.5 -147.5t-156.5 -56.5l220 -306h-28l-220 305h-189v-305h-23zM112 328h192q111 0 162.5 49.5t51.5 132.5q0 88 -52 132.5t-143 44.5h-211v-359z" />
    <glyph glyph-name="S" unicode="S" horiz-adv-x="558" 
d="M282 -3q-149 0 -239 107l18 18q37 -50 96.5 -76t126.5 -26q83 0 140 40.5t57 113.5q0 20 -5 37.5t-11 30t-20.5 25.5t-24 20t-31.5 18t-32.5 15.5t-38.5 15.5t-38 15q-36 14 -51 21t-45.5 21.5t-45 27.5t-32 32.5t-25 42.5t-7.5 51q0 73 56.5 120t145.5 47q113 0 203 -74
l-16 -19q-86 70 -186 70q-72 0 -125.5 -38.5t-53.5 -105.5q0 -36 14.5 -63t47 -48.5t56.5 -32.5t71 -30q8 -3 33 -13t33.5 -13.5t30 -13t29.5 -14.5t25 -15.5t23.5 -19t17 -21t15 -25.5t8 -29.5t3.5 -34.5q0 -77 -59.5 -127t-163.5 -50z" />
    <glyph glyph-name="T" unicode="T" horiz-adv-x="542" 
d="M258 0v687h-233v23h492v-23h-236v-687h-23z" />
    <glyph glyph-name="U" unicode="U" horiz-adv-x="682" 
d="M341 -3q-117 0 -188.5 77t-71.5 209v427h23v-427q0 -123 65 -193t172 -70t172.5 70t65.5 193v427h23v-427q0 -132 -72 -209t-189 -77z" />
    <glyph glyph-name="V" unicode="V" horiz-adv-x="630" 
d="M303 0l-273 710h25l259 -674h2l259 674h25l-273 -710h-24z" />
    <glyph glyph-name="W" unicode="W" horiz-adv-x="991" 
d="M264 0l-230 710h25l219 -676h1l201 676h31l200 -676h1l220 676h25l-230 -710h-30l-201 677h-1l-202 -677h-29z" />
    <glyph glyph-name="X" unicode="X" horiz-adv-x="604" 
d="M34 0l254 354l-255 356h27l242 -335h1l240 335h29l-255 -356l254 -354h-29l-238 331h-2l-240 -331h-28z" />
    <glyph glyph-name="Y" unicode="Y" horiz-adv-x="556" 
d="M266 0v323l-248 387h28l230 -361h2l232 361h28l-249 -387v-323h-23z" />
    <glyph glyph-name="Z" unicode="Z" horiz-adv-x="588" 
d="M56 0v21l434 665l-1 1h-406v23h437v-23l-433 -663l1 -1h437v-23h-469z" />
    <glyph glyph-name="bracketleft" unicode="[" horiz-adv-x="259" 
d="M82 -140v864h141v-21h-120v-823h120v-20h-141z" />
    <glyph glyph-name="backslash" unicode="\" horiz-adv-x="373" 
d="M377 -115l-389 850l19 11l389 -851z" />
    <glyph glyph-name="bracketright" unicode="]" horiz-adv-x="259" 
d="M177 -140h-141v20h120v823h-120v21h141v-864z" />
    <glyph glyph-name="asciicircum" unicode="^" horiz-adv-x="453" 
d="M68 500l146 210h25l146 -210h-28l-131 188l-130 -188h-28z" />
    <glyph glyph-name="underscore" unicode="_" horiz-adv-x="509" 
d="M-7 -50v22h524v-22h-524z" />
    <glyph glyph-name="grave" unicode="`" horiz-adv-x="508" 
d="M285 552l-114 127h30l113 -127h-29z" />
    <glyph glyph-name="a" unicode="a" horiz-adv-x="591" 
d="M285 -3q-101 0 -170.5 67t-69.5 173t67.5 178.5t173.5 72.5q69 0 125 -38t83 -103h1v137h22v-484h-22v133h-1q-27 -62 -82 -99t-127 -37zM285 19q89 0 149.5 61t60.5 157t-58.5 162.5t-150.5 66.5t-155 -64t-63 -165q0 -92 60.5 -155t156.5 -63z" />
    <glyph glyph-name="b" unicode="b" horiz-adv-x="600" 
d="M313 -3q-72 0 -127 36.5t-82 98.5h-1v-132h-22v736h22v-388h1q28 65 83.5 102.5t124.5 37.5q106 0 173 -72.5t67 -178.5t-69 -173t-170 -67zM313 19q96 0 156 63t60 155q0 101 -62.5 165t-154.5 64q-93 0 -151 -66t-58 -163q0 -96 60.5 -157t149.5 -61z" />
    <glyph glyph-name="c" unicode="c" horiz-adv-x="499" 
d="M278 -3q-103 0 -167 68.5t-64 176.5t64.5 177t167.5 69q111 0 180 -77l-17 -17q-60 72 -163 72q-93 0 -151 -63t-58 -161q0 -99 57.5 -161t150.5 -62q48 0 93.5 18.5t74.5 51.5l15 -17q-32 -34 -80.5 -54.5t-102.5 -20.5z" />
    <glyph glyph-name="d" unicode="d" horiz-adv-x="600" 
d="M288 -3q-102 0 -171.5 67t-69.5 173t67.5 178.5t173.5 72.5q69 0 125 -38t83 -104h2v390h22v-736h-22v135h-2q-25 -62 -80.5 -100t-127.5 -38zM288 19q88 0 149 61t61 157t-59 162.5t-151 66.5t-155 -64t-63 -165q0 -92 60.5 -155t157.5 -63z" />
    <glyph glyph-name="e" unicode="e" horiz-adv-x="532" 
d="M489 243h-419v-1q0 -97 58 -160t149 -63q111 0 174 81l17 -13q-68 -90 -189 -90q-102 0 -167 69.5t-65 175.5q0 105 66 175.5t164 70.5q94 0 153 -65.5t59 -165.5v-14zM277 466q-82 0 -140 -57t-66 -144h395q-5 91 -56.5 146t-132.5 55z" />
    <glyph glyph-name="f" unicode="f" horiz-adv-x="311" 
d="M105 0v462h-68v22h68v118q0 69 31.5 103.5t85.5 34.5q48 0 95 -26l-4 -22q-45 26 -92 26q-42 0 -68 -28t-26 -88v-118h173v-22h-173v-462h-22z" />
    <glyph glyph-name="g" unicode="g" 
d="M292 -201q-106 0 -198 56l7 23q90 -57 192 -57q98 0 148 52.5t50 141.5v131h-1q-26 -62 -80 -98t-129 -36q-99 0 -166.5 66.5t-67.5 174.5q0 99 65.5 167t169.5 68q70 0 125.5 -35t82.5 -95h1v126h22v-474q0 -97 -57 -154t-164 -57zM281 34q96 0 153 62t57 157
q0 94 -59.5 153.5t-149.5 59.5q-94 0 -153 -61.5t-59 -151.5q0 -98 60.5 -158.5t150.5 -60.5z" />
    <glyph glyph-name="h" unicode="h" horiz-adv-x="548" 
d="M81 0v736h22v-381h1q25 62 79.5 97.5t127.5 35.5q77 0 122 -51.5t45 -144.5v-292h-22v281q0 95 -40 140t-105 45q-95 0 -151.5 -62.5t-56.5 -164.5v-239h-22z" />
    <glyph glyph-name="i" unicode="i" horiz-adv-x="195" 
d="M99 606q-12 0 -20 8t-8 19q0 12 8 19.5t20 7.5q27 0 27 -27q0 -11 -7.5 -19t-19.5 -8zM86 0v484h22v-484h-22z" />
    <glyph glyph-name="j" unicode="j" horiz-adv-x="176" 
d="M95 606q-12 0 -20 8t-8 19q0 12 8 19.5t20 7.5q27 0 27 -27q0 -11 -7.5 -19t-19.5 -8zM4 -201q-35 0 -63 14l3 24q27 -16 62 -16q77 0 77 94v569h22v-569q0 -116 -101 -116z" />
    <glyph glyph-name="k" unicode="k" horiz-adv-x="483" 
d="M81 0v736h22v-596l1 -1l317 345h31l-193 -210l191 -274h-28l-179 256l-140 -151v-105h-22z" />
    <glyph glyph-name="l" unicode="l" horiz-adv-x="194" 
d="M86 0v736h22v-736h-22z" />
    <glyph glyph-name="m" unicode="m" horiz-adv-x="862" 
d="M81 0v484h22v-127h1q25 61 74 96t110 35q65 0 106 -39t54 -108h1q22 68 72 107.5t113 39.5q81 0 121.5 -56.5t40.5 -154.5v-277h-22v266q0 100 -36.5 150t-103.5 50q-77 0 -129 -63.5t-52 -163.5v-239h-22v266q0 99 -38 149.5t-105 50.5q-79 0 -132 -63t-53 -164v-239
h-22z" />
    <glyph glyph-name="n" unicode="n" horiz-adv-x="543" 
d="M81 0v484h22v-128h1q26 62 79 97t123 35q77 0 122 -51.5t45 -144.5v-292h-22v281q0 95 -40 140t-105 45q-91 0 -147 -62.5t-56 -164.5v-239h-22z" />
    <glyph glyph-name="o" unicode="o" horiz-adv-x="579" 
d="M290 -3q-107 0 -175 71t-68 174q0 102 68.5 174t174.5 72q102 0 172 -69t70 -177t-70 -176.5t-172 -68.5zM290 19q93 0 156 62.5t63 160.5t-63.5 161t-155.5 63q-97 0 -158.5 -65t-61.5 -159t61 -158.5t159 -64.5z" />
    <glyph glyph-name="p" unicode="p" horiz-adv-x="600" 
d="M81 -198v682h22v-137h1q28 65 83.5 103t125.5 38q105 0 172 -72.5t67 -178.5t-69 -173t-169 -67q-72 0 -127.5 36.5t-82.5 97.5h-1v-329h-22zM314 19q95 0 155 63t60 155q0 101 -62.5 165t-153.5 64q-93 0 -151.5 -66t-58.5 -163t60.5 -157.5t150.5 -60.5z" />
    <glyph glyph-name="q" unicode="q" horiz-adv-x="601" 
d="M499 -198v329h-1q-28 -61 -83 -97.5t-126 -36.5q-101 0 -170.5 67t-69.5 173t67 178.5t174 72.5q68 0 124 -38t84 -103h1v137h22v-682h-22zM289 19q88 0 149 61t61 157t-58.5 162.5t-150.5 66.5t-155 -64t-63 -165q0 -92 60.5 -155t156.5 -63z" />
    <glyph glyph-name="r" unicode="r" horiz-adv-x="317" 
d="M81 0v484h22v-119h2q22 58 66.5 90.5t105.5 32.5q22 0 32 -1v-24q-20 2 -29 2q-80 0 -128.5 -61.5t-48.5 -161.5v-242h-22z" />
    <glyph glyph-name="s" unicode="s" horiz-adv-x="415" 
d="M211 -3q-102 0 -177 67l13 18q71 -63 164 -63q64 0 102 30t38 73q0 16 -3 28.5t-13 23t-16.5 17t-25.5 15t-26.5 12t-34 12.5t-34.5 12q-36 13 -56 22t-42.5 24.5t-32.5 36t-10 47.5q0 49 40 82.5t99 33.5q91 0 158 -58l-15 -16q-60 51 -142 51q-50 0 -83.5 -27
t-33.5 -64q0 -23 9 -40.5t29 -30.5t36 -20.5t47 -18.5q8 -3 29 -10.5l28 -10t24.5 -9t23.5 -10.5t19 -11.5t18 -13t13 -14.5t10.5 -18.5t5 -21.5t2.5 -25q-1 -52 -44.5 -87.5t-118.5 -35.5z" />
    <glyph glyph-name="t" unicode="t" horiz-adv-x="354" 
d="M204 -3q-63 0 -85.5 33t-22.5 98v334h-67v22h67v175l22 3v-178h195v-22h-195v-319q0 -64 16 -94t67 -30q54 0 102 32l6 -22q-48 -32 -105 -32z" />
    <glyph glyph-name="u" unicode="u" horiz-adv-x="532" 
d="M252 -3q-88 0 -135.5 57t-47.5 154v276h22v-265q0 -99 43 -149.5t118 -50.5q79 0 131.5 63t52.5 163v239h22v-484h-22v127h-1q-25 -61 -74 -95.5t-109 -34.5z" />
    <glyph glyph-name="v" unicode="v" horiz-adv-x="494" 
d="M237 0l-208 484h26l192 -450h2l190 450h25l-205 -484h-22z" />
    <glyph glyph-name="w" unicode="w" horiz-adv-x="752" 
d="M206 0l-172 484h24l159 -445h2l143 445h26l145 -445h2l159 445h24l-172 -484h-24l-145 451h-1l-147 -451h-23z" />
    <glyph glyph-name="x" unicode="x" horiz-adv-x="466" 
d="M33 0l186 242l-188 242h30l171 -223h2l172 223h30l-187 -241l187 -243h-30l-172 222h-1l-171 -222h-29z" />
    <glyph glyph-name="y" unicode="y" horiz-adv-x="506" 
d="M162 -198l86 203l-221 479h27l205 -450h1l190 450h27l-290 -682h-25z" />
    <glyph glyph-name="z" unicode="z" horiz-adv-x="437" 
d="M29 0v22l342 439v1h-330v22h361v-20l-343 -441v-1h349v-22h-379z" />
    <glyph glyph-name="braceleft" unicode="{" horiz-adv-x="288" 
d="M206 -140q-41 0 -68 24t-27 65v252q0 16 -1.5 25t-8 21t-23 18.5t-42.5 8.5v22q26 3 42 9.5t23 18t8.5 20.5t1.5 26v263q0 39 25.5 65t69.5 26h27v-21h-28q-32 0 -53 -19t-21 -52v-256q0 -42 -12.5 -63t-49.5 -27v-2q37 -6 49.5 -27t12.5 -63v-226q0 -48 18.5 -68
t55.5 -20h28v-20h-27z" />
    <glyph glyph-name="bar" unicode="|" horiz-adv-x="241" 
d="M109 -115v852h22v-852h-22z" />
    <glyph glyph-name="braceright" unicode="}" horiz-adv-x="288" 
d="M82 -140h-27v20h28q37 0 55.5 20t18.5 68v226q0 42 12.5 63t49.5 27v2q-37 6 -49.5 27t-12.5 63v256q0 33 -21 52t-53 19h-28v21h27q44 0 69.5 -26t25.5 -65v-263q0 -17 1.5 -26t8.5 -20.5t23 -18t42 -9.5v-22q-26 -2 -42.5 -8.5t-23 -18.5t-8 -21t-1.5 -25v-252
q0 -41 -27 -65t-68 -24z" />
    <glyph glyph-name="asciitilde" unicode="~" horiz-adv-x="540" 
d="M372 231q-12 0 -23 2t-26 8t-20 8.5l-25 12.5t-21 11q-49 26 -86 26q-58 0 -87 -61l-16 7q32 77 103 77q37 0 101 -31q5 -2 16.5 -8.5t17 -9.5t16 -7.5t18 -6.5t16.5 -4t18 -2q57 0 81 61l16 -7q-15 -38 -42 -57t-57 -19z" />
    <glyph glyph-name="uni00A0" unicode="&#xa0;" horiz-adv-x="280" 
 />
    <glyph glyph-name="exclamdown" unicode="&#xa1;" horiz-adv-x="190" 
d="M95 488q13 0 21 -8t8 -21t-8 -20.5t-21 -7.5t-21 7.5t-8 20.5t8 21t21 8zM85 304h18l4 -556h-26z" />
    <glyph glyph-name="cent" unicode="&#xa2;" horiz-adv-x="528" 
d="M496 127q-31 -32 -78.5 -52.5t-99.5 -23.5v-114h-22v114q-106 2 -171.5 70.5t-65.5 174.5t65.5 174.5t171.5 71.5v125h22v-125q108 -5 176 -77l-17 -16q-66 71 -173 71q-99 0 -160 -62.5t-61 -161.5t60.5 -160.5t159.5 -61.5q51 0 98.5 18.5t78.5 51.5z" />
    <glyph glyph-name="sterling" unicode="&#xa3;" horiz-adv-x="548" 
d="M45 0v23h94v344h-72v23h72v86q0 107 52.5 161t131.5 54q113 0 171 -99l-18 -15q-52 91 -153 91q-74 0 -117.5 -51t-43.5 -144v-83h179v-23h-179v-344h363v-23h-480z" />
    <glyph glyph-name="currency" unicode="&#xa4;" horiz-adv-x="487" 
d="M424 384q0 -69 -47 -121l78 -77l-16 -16l-77 78q-51 -46 -121 -46q-68 0 -122 46l-77 -77l-15 16l77 77q-46 51 -46 120q0 70 46 121l-77 78l15 15l77 -77q52 47 122 47t121 -46l77 77l16 -15l-77 -78q46 -51 46 -122zM241 225q66 0 113 47t46 113q0 66 -46.5 113
t-112.5 47q-65 0 -112 -47.5t-47 -112.5q1 -66 47.5 -113t111.5 -47z" />
    <glyph glyph-name="yen" unicode="&#xa5;" horiz-adv-x="516" 
d="M500 687l-207 -350h165v-23h-179l-8 -14v-80h187v-23h-187v-197h-22v197h-191v23h191v80l-8 14h-183v23h169l-207 350h27l212 -360h2l213 360h26z" />
    <glyph glyph-name="brokenbar" unicode="&#xa6;" horiz-adv-x="241" 
d="M109 386v351h23v-351h-23zM109 -114v354h23v-354h-23z" />
    <glyph glyph-name="section" unicode="&#xa7;" horiz-adv-x="504" 
d="M354 115q82 -43 82 -119q0 -64 -49 -106t-132 -42q-122 0 -196 87l16 17q31 -39 79 -59.5t99 -20.5q68 0 114 32.5t46 90.5q0 20 -5 36t-19.5 29.5t-24 21.5t-36 19.5t-36.5 15.5t-44 16q-106 38 -139 61q-55 39 -55 100q0 46 28.5 81t78.5 48q-79 46 -79 120
q0 60 45 100t118 40q44 0 91 -16.5t81 -43.5l-16 -18q-32 26 -74.5 40.5t-79.5 14.5q-57 0 -99.5 -31t-42.5 -85q0 -29 12 -51t39.5 -39t47 -25.5t60.5 -23.5q98 -35 125 -52q61 -38 61 -107q0 -95 -96 -131zM78 295q0 -23 10.5 -42t22.5 -30.5t40.5 -26t45.5 -21t57 -20.5
q62 -22 71 -26q46 12 74 41.5t28 73.5q0 14 -2.5 26t-9 22.5t-11.5 18t-18 15.5t-19.5 13t-24.5 12t-25.5 10t-29.5 10.5t-29 10.5q-44 16 -66 26q-50 -8 -82 -37.5t-32 -75.5z" />
    <glyph glyph-name="dieresis" unicode="&#xa8;" horiz-adv-x="497" 
d="M175 593q-12 0 -20 8t-8 19q0 12 8 19.5t20 7.5q27 0 27 -27q0 -11 -7.5 -19t-19.5 -8zM322 593q-12 0 -20 8t-8 19q0 12 8 19.5t20 7.5q27 0 27 -27q0 -11 -7.5 -19t-19.5 -8z" />
    <glyph glyph-name="copyright" unicode="&#xa9;" horiz-adv-x="661" 
d="M331 30q-119 0 -202.5 85t-83.5 203t83.5 203t203.5 85q119 0 201.5 -84.5t82.5 -203.5q0 -117 -83 -202.5t-202 -85.5zM331 52q109 0 186 78.5t77 187.5t-76.5 187.5t-185.5 78.5q-110 0 -187.5 -78.5t-77.5 -187.5t77 -187.5t187 -78.5zM339 154q-69 0 -114 43t-45 118
q0 72 42 118.5t117 46.5t125 -61l-18 -14q-42 53 -107 53t-101 -39.5t-36 -103.5q0 -66 38.5 -102.5t98.5 -36.5q67 0 107 53l18 -15q-48 -60 -125 -60z" />
    <glyph glyph-name="ordfeminine" unicode="&#xaa;" horiz-adv-x="409" 
d="M203 394q-63 0 -105 40.5t-42 104.5q0 63 41 106.5t106 43.5q39 0 72 -18.5t52 -52.5h1v69h23v-291h-23v66h-1q-40 -68 -124 -68zM206 416q52 0 87.5 34.5t35.5 88.5t-34.5 91t-87.5 37q-55 0 -91.5 -35.5t-36.5 -92.5q0 -52 35 -87.5t92 -35.5z" />
    <glyph glyph-name="guillemotleft" unicode="&#xab;" horiz-adv-x="414" 
d="M189 13h-22l-130 231l130 229h22l-128 -229zM340 13h-22l-131 231l130 229h23l-129 -229z" />
    <glyph glyph-name="logicalnot" unicode="&#xac;" horiz-adv-x="571" 
d="M481 187v153h-413v22h435v-175h-22z" />
    <glyph glyph-name="registered" unicode="&#xae;" horiz-adv-x="661" 
d="M332 606q119 0 201.5 -84.5t82.5 -203.5q0 -117 -83 -202.5t-202 -85.5t-202.5 85t-83.5 203t83.5 203t203.5 85zM331 52q109 0 186 78.5t77 187.5t-76.5 187.5t-185.5 78.5q-110 0 -187.5 -78.5t-77.5 -187.5t77 -187.5t187 -78.5zM443 391q0 -83 -87 -93l101 -140h-27
l-100 139h-70v-139h-22v324h105q51 0 75.5 -25t24.5 -66zM260 460v-142h77q84 0 84 73q0 33 -20 51t-55 18h-86z" />
    <glyph glyph-name="macron" unicode="&#xaf;" horiz-adv-x="481" 
d="M107 606v23h267v-23h-267z" />
    <glyph glyph-name="degree" unicode="&#xb0;" horiz-adv-x="385" 
d="M192 452q-54 0 -93.5 38.5t-39.5 92.5q0 53 40 92t93 39q54 0 94 -39.5t40 -93.5q0 -53 -39.5 -91t-94.5 -38zM192 474q46 0 79.5 32t33.5 75q0 45 -34 78t-79 33q-44 0 -77.5 -32.5t-33.5 -76.5q0 -46 32.5 -77.5t78.5 -31.5z" />
    <glyph glyph-name="plusminus" unicode="&#xb1;" horiz-adv-x="569" 
d="M273 140v219h-219v22h219v220h22v-220h219v-22h-219v-219h-22zM54 0v22h460v-22h-460z" />
    <glyph glyph-name="uni00B2" unicode="&#xb2;" horiz-adv-x="324" 
d="M22 436l1 18l165 149q37 34 56 62t19 61q0 43 -30 73t-77 30q-34 0 -65.5 -18t-47.5 -50l-18 12q17 35 53.5 56.5t77.5 21.5q52 0 90.5 -34.5t38.5 -88.5q0 -66 -79 -138l-144 -131l1 -2h228v-21h-269z" />
    <glyph glyph-name="uni00B3" unicode="&#xb3;" horiz-adv-x="327" 
d="M164 433q-106 0 -145 74l20 10q33 -62 124 -62q54 0 84.5 24t30.5 70q0 38 -32.5 64t-87.5 26h-41v22h48q48 0 76 23.5t28 57.5q0 41 -29.5 64t-80.5 23q-73 0 -107 -49l-19 12q42 59 126 59q57 0 94 -28.5t37 -78.5q0 -73 -72 -93v-2q40 -11 61 -39t21 -66
q0 -49 -37.5 -80t-98.5 -31z" />
    <glyph glyph-name="acute" unicode="&#xb4;" horiz-adv-x="508" 
d="M193 548l123 135h31l-124 -135h-30z" />
    <glyph glyph-name="uni00B5" unicode="&#xb5;" horiz-adv-x="549" 
d="M81 -198v682h22v-265q0 -99 43 -149.5t117 -50.5q79 0 131.5 63t52.5 163v239h22v-484h-20l-3 124h-2q-26 -60 -73.5 -93.5t-107.5 -33.5q-115 0 -160 99l-1 -1q0 -18 0.5 -56t0.5 -57v-180h-22z" />
    <glyph glyph-name="paragraph" unicode="&#xb6;" horiz-adv-x="356" 
d="M243 -148v754h-60v-606h-22v417q-52 0 -84 27.5t-32 77.5q0 51 30.5 79t83.5 28h106v-777h-22z" />
    <glyph glyph-name="periodcentered" unicode="&#xb7;" horiz-adv-x="153" 
d="M80 210q-13 0 -21 8t-8 21t8 20.5t21 7.5t21 -7.5t8 -20.5t-8 -21t-21 -8z" />
    <glyph glyph-name="cedilla" unicode="&#xb8;" horiz-adv-x="397" 
d="M181 -184q-27 0 -49 6v23q23 -7 45 -7q28 0 47 13t19 38q0 23 -21.5 40t-60.5 17l1 19l19 41h22l-17 -40v-1q32 -2 56 -22.5t24 -54.5q0 -30 -22.5 -51t-62.5 -21z" />
    <glyph glyph-name="uni00B9" unicode="&#xb9;" horiz-adv-x="217" 
d="M129 436v381l-102 -69l-11 18l116 81h18v-411h-21z" />
    <glyph glyph-name="ordmasculine" unicode="&#xba;" horiz-adv-x="411" 
d="M206 393q-66 0 -108 42.5t-42 105.5t42 105.5t108 42.5q63 0 106 -41.5t43 -106.5t-43 -106.5t-106 -41.5zM206 416q54 0 90.5 35t36.5 90t-37 90.5t-90 35.5q-56 0 -91.5 -36.5t-35.5 -89.5q0 -52 35.5 -88.5t91.5 -36.5z" />
    <glyph glyph-name="guillemotright" unicode="&#xbb;" horiz-adv-x="414" 
d="M74 13l129 231l-129 229h23l130 -229l-131 -231h-22zM225 13l128 231l-128 229h22l130 -229l-130 -231h-22z" />
    <glyph glyph-name="onequarter" unicode="&#xbc;" horiz-adv-x="690" 
d="M173 -7l-21 7l305 717l20 -8zM129 299v381l-102 -69l-11 18l116 81h18v-411h-21zM576 0v77h-218v20l221 314h18v-313h69v-21h-69v-77h-21zM385 98h191v272z" />
    <glyph glyph-name="onehalf" unicode="&#xbd;" horiz-adv-x="717" 
d="M173 -7l-21 7l305 717l20 -8zM129 299v381l-102 -69l-11 18l116 81h18v-411h-21zM415 0l1 18l165 149q37 34 56 62t19 61q0 43 -30 73t-77 30q-34 0 -65.5 -18t-47.5 -50l-18 12q17 35 53.5 56.5t77.5 21.5q52 0 90.5 -34.5t38.5 -88.5q0 -66 -79 -138l-144 -131l1 -2
h228v-21h-269z" />
    <glyph glyph-name="threequarters" unicode="&#xbe;" horiz-adv-x="786" 
d="M269 -7l-21 7l305 717l20 -8zM164 296q-106 0 -145 74l20 10q33 -62 124 -62q54 0 84.5 24t30.5 70q0 38 -32.5 64t-87.5 26h-41v22h48q48 0 76 23.5t28 57.5q0 41 -29.5 64t-80.5 23q-73 0 -107 -49l-19 12q42 59 126 59q57 0 94 -28.5t37 -78.5q0 -73 -72 -93v-2
q40 -11 61 -39t21 -66q0 -49 -37.5 -80t-98.5 -31zM672 0v77h-218v20l221 314h18v-313h69v-21h-69v-77h-21zM481 98h191v272z" />
    <glyph glyph-name="questiondown" unicode="&#xbf;" horiz-adv-x="373" 
d="M225 488q13 0 21 -8t8 -21t-8 -20.5t-21 -7.5t-21 7.5t-8 20.5t8 21t21 8zM238 308v-60q0 -12 -2.5 -24t-9 -24.5t-11.5 -21.5t-16.5 -22.5t-17.5 -20.5t-20.5 -22.5t-19.5 -21.5q-41 -44 -63.5 -83.5t-22.5 -88.5q0 -69 45.5 -110t109.5 -41q49 0 92 22.5t70 65.5
l16 -18q-64 -94 -178 -94q-80 0 -129.5 51t-49.5 124q0 38 15 75t32.5 59.5t46.5 53.5q4 5 19.5 21t20 21.5t16 19t15.5 20.5t10.5 18.5t8.5 21t2 19.5v60h21z" />
    <glyph glyph-name="Agrave" unicode="&#xc0;" horiz-adv-x="640" 
d="M307 795l-114 124h30l113 -124h-29zM29 0l275 710h29l278 -710h-25l-83 211h-367l-82 -211h-25zM145 234h349l-174 448h-2z" />
    <glyph glyph-name="Aacute" unicode="&#xc1;" horiz-adv-x="640" 
d="M301 795l113 124h30l-114 -124h-29zM29 0l275 710h29l278 -710h-25l-83 211h-367l-82 -211h-25zM145 234h349l-174 448h-2z" />
    <glyph glyph-name="Acircumflex" unicode="&#xc2;" horiz-adv-x="640" 
d="M184 795l125 109h25l122 -109h-30l-104 92h-2l-107 -92h-29zM29 0l275 710h29l278 -710h-25l-83 211h-367l-82 -211h-25zM145 234h349l-174 448h-2z" />
    <glyph glyph-name="Atilde" unicode="&#xc3;" horiz-adv-x="640" 
d="M398 795q-31 0 -87 41q-38 28 -64 28q-42 0 -64 -61l-21 6q26 77 84 77q28 0 78 -32q4 -3 16.5 -11.5t19.5 -13t17.5 -8.5t19.5 -4q19 0 35 15.5t25 46.5l21 -7q-11 -38 -33 -57.5t-47 -19.5zM29 0l275 710h29l278 -710h-25l-83 211h-367l-82 -211h-25zM145 234h349
l-174 448h-2z" />
    <glyph glyph-name="Adieresis" unicode="&#xc4;" horiz-adv-x="640" 
d="M247 828q-12 0 -20 8t-8 19q0 12 8 19.5t20 7.5q27 0 27 -27q0 -11 -7.5 -19t-19.5 -8zM394 828q-12 0 -20 8t-8 19q0 12 8 19.5t20 7.5q27 0 27 -27q0 -11 -7.5 -19t-19.5 -8zM29 0l275 710h29l278 -710h-25l-83 211h-367l-82 -211h-25zM145 234h349l-174 448h-2z" />
    <glyph glyph-name="Aring" unicode="&#xc5;" horiz-adv-x="640" 
d="M320 785q-29 0 -51 22t-22 51q0 30 22 51.5t51 21.5q30 0 52 -21.5t22 -51.5q0 -29 -22 -51t-52 -22zM320 808q21 0 36.5 15t15.5 35q0 21 -15.5 36t-36.5 15t-36 -15t-15 -36q0 -20 15 -35t36 -15zM29 0l275 710h29l278 -710h-25l-83 211h-367l-82 -211h-25zM145 234
h349l-174 448h-2z" />
    <glyph glyph-name="AE" unicode="&#xc6;" horiz-adv-x="900" 
d="M5 0l412 710h428v-23h-389v-321h330v-23h-330v-320h409v-23h-432v211h-277l-123 -211h-28zM169 234h264v453h-1z" />
    <glyph glyph-name="Ccedilla" unicode="&#xc7;" horiz-adv-x="714" 
d="M408 20q152 0 252 125l19 -15q-107 -133 -271 -133h-6l-13 -31v-1q32 -2 56 -22.5t24 -54.5q0 -30 -22.5 -51t-62.5 -21q-26 0 -49 6v23q23 -7 45 -7q28 0 47 13t19 38q0 23 -21.5 40t-60.5 17l1 19l15 33q-139 9 -228.5 102.5t-89.5 251.5q0 157 91.5 259.5t254.5 102.5
t271 -134l-19 -16q-100 127 -252 127t-237 -95.5t-85 -243.5q0 -157 91 -244.5t231 -87.5z" />
    <glyph glyph-name="Egrave" unicode="&#xc8;" horiz-adv-x="565" 
d="M323 795l-114 124h30l113 -124h-29zM89 0v710h412v-23h-389v-320h327v-23h-327v-321h410v-23h-433z" />
    <glyph glyph-name="Eacute" unicode="&#xc9;" horiz-adv-x="565" 
d="M216 795l113 124h30l-114 -124h-29zM89 0v710h412v-23h-389v-320h327v-23h-327v-321h410v-23h-433z" />
    <glyph glyph-name="Ecircumflex" unicode="&#xca;" horiz-adv-x="565" 
d="M150 795l125 109h25l122 -109h-30l-104 92h-2l-107 -92h-29zM89 0v710h412v-23h-389v-320h327v-23h-327v-321h410v-23h-433z" />
    <glyph glyph-name="Edieresis" unicode="&#xcb;" horiz-adv-x="565" 
d="M213 828q-12 0 -20 8t-8 19q0 12 8 19.5t20 7.5q27 0 27 -27q0 -11 -7.5 -19t-19.5 -8zM360 828q-12 0 -20 8t-8 19q0 12 8 19.5t20 7.5q27 0 27 -27q0 -11 -7.5 -19t-19.5 -8zM89 0v710h412v-23h-389v-320h327v-23h-327v-321h410v-23h-433z" />
    <glyph glyph-name="Igrave" unicode="&#xcc;" horiz-adv-x="215" 
d="M90 795l-114 124h30l113 -124h-29zM96 0v710h23v-710h-23z" />
    <glyph glyph-name="Iacute" unicode="&#xcd;" horiz-adv-x="215" 
d="M96 795l113 124h30l-114 -124h-29zM96 0v710h23v-710h-23z" />
    <glyph glyph-name="Icircumflex" unicode="&#xce;" horiz-adv-x="215" 
d="M-28 795l125 109h25l122 -109h-30l-104 92h-2l-107 -92h-29zM96 0v710h23v-710h-23z" />
    <glyph glyph-name="Idieresis" unicode="&#xcf;" horiz-adv-x="215" 
d="M35 828q-12 0 -20 8t-8 19q0 12 8 19.5t20 7.5q27 0 27 -27q0 -11 -7.5 -19t-19.5 -8zM182 828q-12 0 -20 8t-8 19q0 12 8 19.5t20 7.5q27 0 27 -27q0 -11 -7.5 -19t-19.5 -8zM96 0v710h23v-710h-23z" />
    <glyph glyph-name="Eth" unicode="&#xd0;" horiz-adv-x="706" 
d="M276 710q167 0 268 -98.5t101 -257.5t-100 -256.5t-266 -97.5h-190v346h-86v23h86v341h187zM278 23q159 0 251 91t92 240t-94.5 241t-251.5 92h-163v-318h232v-23h-232v-323h166z" />
    <glyph glyph-name="Ntilde" unicode="&#xd1;" horiz-adv-x="728" 
d="M442 795q-31 0 -87 41q-38 28 -64 28q-42 0 -64 -61l-21 6q26 77 84 77q28 0 78 -32q4 -3 16.5 -11.5t19.5 -13t17.5 -8.5t19.5 -4q19 0 35 15.5t25 46.5l21 -7q-11 -38 -33 -57.5t-47 -19.5zM89 0v710h22l503 -670h1v670h23v-710h-23l-502 669h-1v-669h-23z" />
    <glyph glyph-name="Ograve" unicode="&#xd2;" horiz-adv-x="822" 
d="M403 795l-114 124h30l113 -124h-29zM413 -3q-149 0 -250 100t-101 259q0 158 101 258t250 100q146 0 246.5 -100t100.5 -258q0 -159 -100.5 -259t-246.5 -100zM413 20q136 0 229.5 94t93.5 242t-93.5 241.5t-229.5 93.5q-138 0 -232.5 -93.5t-94.5 -241.5
q0 -149 94 -242.5t233 -93.5z" />
    <glyph glyph-name="Oacute" unicode="&#xd3;" horiz-adv-x="822" 
d="M378 795l113 124h30l-114 -124h-29zM413 -3q-149 0 -250 100t-101 259q0 158 101 258t250 100q146 0 246.5 -100t100.5 -258q0 -159 -100.5 -259t-246.5 -100zM413 20q136 0 229.5 94t93.5 242t-93.5 241.5t-229.5 93.5q-138 0 -232.5 -93.5t-94.5 -241.5
q0 -149 94 -242.5t233 -93.5z" />
    <glyph glyph-name="Ocircumflex" unicode="&#xd4;" horiz-adv-x="822" 
d="M276 795l125 109h25l122 -109h-30l-104 92h-2l-107 -92h-29zM413 -3q-149 0 -250 100t-101 259q0 158 101 258t250 100q146 0 246.5 -100t100.5 -258q0 -159 -100.5 -259t-246.5 -100zM413 20q136 0 229.5 94t93.5 242t-93.5 241.5t-229.5 93.5q-138 0 -232.5 -93.5
t-94.5 -241.5q0 -149 94 -242.5t233 -93.5z" />
    <glyph glyph-name="Otilde" unicode="&#xd5;" horiz-adv-x="822" 
d="M490 795q-31 0 -87 41q-39 28 -64 28q-42 0 -64 -61l-21 6q26 77 84 77q28 0 78 -32q4 -3 16.5 -11.5t19.5 -13t17.5 -8.5t19.5 -4q19 0 35 15.5t25 46.5l21 -7q-11 -38 -33 -57.5t-47 -19.5zM413 -3q-149 0 -250 100t-101 259q0 158 101 258t250 100q146 0 246.5 -100
t100.5 -258q0 -159 -100.5 -259t-246.5 -100zM413 20q136 0 229.5 94t93.5 242t-93.5 241.5t-229.5 93.5q-138 0 -232.5 -93.5t-94.5 -241.5q0 -149 94 -242.5t233 -93.5z" />
    <glyph glyph-name="Odieresis" unicode="&#xd6;" horiz-adv-x="822" 
d="M339 828q-12 0 -20 8t-8 19q0 12 8 19.5t20 7.5q27 0 27 -27q0 -11 -7.5 -19t-19.5 -8zM486 828q-12 0 -20 8t-8 19q0 12 8 19.5t20 7.5q27 0 27 -27q0 -11 -7.5 -19t-19.5 -8zM413 -3q-149 0 -250 100t-101 259q0 158 101 258t250 100q146 0 246.5 -100t100.5 -258
q0 -159 -100.5 -259t-246.5 -100zM413 20q136 0 229.5 94t93.5 242t-93.5 241.5t-229.5 93.5q-138 0 -232.5 -93.5t-94.5 -241.5q0 -149 94 -242.5t233 -93.5z" />
    <glyph glyph-name="multiply" unicode="&#xd7;" horiz-adv-x="479" 
d="M75 97l-16 15l164 164l-164 164l16 16l163 -164l165 164l16 -15l-165 -165l164 -164l-16 -15l-164 163z" />
    <glyph glyph-name="Oslash" unicode="&#xd8;" horiz-adv-x="822" 
d="M664 609q96 -99 96 -253q0 -159 -100.5 -259t-246.5 -100q-140 0 -238 89l-89 -96l-19 16l91 97q-96 99 -96 253q0 158 101 258t250 100q138 0 235 -89l81 86l17 -15zM86 356q0 -143 88 -236l458 488q-91 83 -219 83q-138 0 -232.5 -93.5t-94.5 -241.5zM413 20
q136 0 229.5 94t93.5 242q0 142 -88 235l-456 -488q91 -83 221 -83z" />
    <glyph glyph-name="Ugrave" unicode="&#xd9;" horiz-adv-x="682" 
d="M348 795l-114 124h30l113 -124h-29zM341 -3q-117 0 -188.5 77t-71.5 209v427h23v-427q0 -123 65 -193t172 -70t172.5 70t65.5 193v427h23v-427q0 -132 -72 -209t-189 -77z" />
    <glyph glyph-name="Uacute" unicode="&#xda;" horiz-adv-x="682" 
d="M291 795l113 124h30l-114 -124h-29zM341 -3q-117 0 -188.5 77t-71.5 209v427h23v-427q0 -123 65 -193t172 -70t172.5 70t65.5 193v427h23v-427q0 -132 -72 -209t-189 -77z" />
    <glyph glyph-name="Ucircumflex" unicode="&#xdb;" horiz-adv-x="682" 
d="M206 795l125 109h25l122 -109h-30l-104 92h-2l-107 -92h-29zM341 -3q-117 0 -188.5 77t-71.5 209v427h23v-427q0 -123 65 -193t172 -70t172.5 70t65.5 193v427h23v-427q0 -132 -72 -209t-189 -77z" />
    <glyph glyph-name="Udieresis" unicode="&#xdc;" horiz-adv-x="682" 
d="M269 828q-12 0 -20 8t-8 19q0 12 8 19.5t20 7.5q27 0 27 -27q0 -11 -7.5 -19t-19.5 -8zM416 828q-12 0 -20 8t-8 19q0 12 8 19.5t20 7.5q27 0 27 -27q0 -11 -7.5 -19t-19.5 -8zM341 -3q-117 0 -188.5 77t-71.5 209v427h23v-427q0 -123 65 -193t172 -70t172.5 70t65.5 193
v427h23v-427q0 -132 -72 -209t-189 -77z" />
    <glyph glyph-name="Yacute" unicode="&#xdd;" horiz-adv-x="556" 
d="M256 795l113 124h30l-114 -124h-29zM266 0v323l-248 387h28l230 -361h2l232 361h28l-249 -387v-323h-23z" />
    <glyph glyph-name="Thorn" unicode="&#xde;" horiz-adv-x="599" 
d="M89 0v710h23v-158h227q114 0 167 -54t53 -146q0 -104 -64 -154.5t-174 -50.5h-209v-147h-23zM112 170h214q107 0 158 50t51 133q0 88 -51 132t-139 44h-233v-359z" />
    <glyph glyph-name="germandbls" unicode="&#xdf;" 
d="M205 -3v22h116q89 0 146.5 54.5t57.5 145.5q0 83 -58.5 144t-155.5 61h-68v22h66q50 0 85.5 13.5t52 35t23 41.5t6.5 41q0 68 -47 104.5t-133 36.5q-90 0 -141.5 -53.5t-51.5 -161.5v-503h-22v503q0 118 57.5 177.5t157.5 59.5q95 0 149 -43t54 -120q0 -42 -24.5 -83
t-85.5 -58v-2q73 -23 115.5 -83t42.5 -132q0 -100 -64.5 -161t-161.5 -61h-116z" />
    <glyph glyph-name="agrave" unicode="&#xe0;" horiz-adv-x="591" 
d="M294 565l-114 127h30l113 -127h-29zM285 -3q-101 0 -170.5 67t-69.5 173t67.5 178.5t173.5 72.5q69 0 125 -38t83 -103h1v137h22v-484h-22v133h-1q-27 -62 -82 -99t-127 -37zM285 19q89 0 149.5 61t60.5 157t-58.5 162.5t-150.5 66.5t-155 -64t-63 -165q0 -92 60.5 -155
t156.5 -63z" />
    <glyph glyph-name="aacute" unicode="&#xe1;" horiz-adv-x="591" 
d="M290 561l123 135h31l-124 -135h-30zM285 -3q-101 0 -170.5 67t-69.5 173t67.5 178.5t173.5 72.5q69 0 125 -38t83 -103h1v137h22v-484h-22v133h-1q-27 -62 -82 -99t-127 -37zM285 19q89 0 149.5 61t60.5 157t-58.5 162.5t-150.5 66.5t-155 -64t-63 -165q0 -92 60.5 -155
t156.5 -63z" />
    <glyph glyph-name="acircumflex" unicode="&#xe2;" horiz-adv-x="591" 
d="M151 562l125 128h25l122 -128h-29l-104 110h-2l-108 -110h-29zM285 -3q-101 0 -170.5 67t-69.5 173t67.5 178.5t173.5 72.5q69 0 125 -38t83 -103h1v137h22v-484h-22v133h-1q-27 -62 -82 -99t-127 -37zM285 19q89 0 149.5 61t60.5 157t-58.5 162.5t-150.5 66.5t-155 -64
t-63 -165q0 -92 60.5 -155t156.5 -63z" />
    <glyph glyph-name="atilde" unicode="&#xe3;" horiz-adv-x="591" 
d="M365 581q-6 0 -12 1t-11 2.5t-12 5t-10.5 5.5t-11.5 7t-10.5 6.5t-10.5 7.5t-10 7q-38 27 -63 27q-42 0 -64 -61l-21 6q26 77 84 77q32 0 77 -31q4 -3 17 -12l19.5 -13.5t17.5 -8.5t20 -4q19 0 35 15.5t25 46.5l21 -7q-11 -38 -33 -57.5t-47 -19.5zM285 -3
q-101 0 -170.5 67t-69.5 173t67.5 178.5t173.5 72.5q69 0 125 -38t83 -103h1v137h22v-484h-22v133h-1q-27 -62 -82 -99t-127 -37zM285 19q89 0 149.5 61t60.5 157t-58.5 162.5t-150.5 66.5t-155 -64t-63 -165q0 -92 60.5 -155t156.5 -63z" />
    <glyph glyph-name="adieresis" unicode="&#xe4;" horiz-adv-x="591" 
d="M212 606q-12 0 -20 8t-8 19q0 12 8 19.5t20 7.5q27 0 27 -27q0 -11 -7.5 -19t-19.5 -8zM359 606q-12 0 -20 8t-8 19q0 12 8 19.5t20 7.5q27 0 27 -27q0 -11 -7.5 -19t-19.5 -8zM285 -3q-101 0 -170.5 67t-69.5 173t67.5 178.5t173.5 72.5q69 0 125 -38t83 -103h1v137h22
v-484h-22v133h-1q-27 -62 -82 -99t-127 -37zM285 19q89 0 149.5 61t60.5 157t-58.5 162.5t-150.5 66.5t-155 -64t-63 -165q0 -92 60.5 -155t156.5 -63z" />
    <glyph glyph-name="aring" unicode="&#xe5;" horiz-adv-x="591" 
d="M287 555q-29 0 -51 22t-22 51q0 30 22 51.5t51 21.5q30 0 52 -21.5t22 -51.5q0 -29 -22 -51t-52 -22zM287 578q21 0 36.5 15t15.5 35q0 21 -15.5 36t-36.5 15t-36 -15t-15 -36q0 -20 15 -35t36 -15zM285 -3q-101 0 -170.5 67t-69.5 173t67.5 178.5t173.5 72.5
q69 0 125 -38t83 -103h1v137h22v-484h-22v133h-1q-27 -62 -82 -99t-127 -37zM285 19q89 0 149.5 61t60.5 157t-58.5 162.5t-150.5 66.5t-155 -64t-63 -165q0 -92 60.5 -155t156.5 -63z" />
    <glyph glyph-name="ae" unicode="&#xe6;" horiz-adv-x="792" 
d="M744 255v-12h-363q3 -105 51.5 -164.5t129.5 -59.5q53 0 85 19.5t62 61.5l17 -13q-31 -45 -68.5 -67.5t-93.5 -22.5q-76 0 -122 40.5t-65 102.5h-1q-15 -66 -67.5 -104.5t-123.5 -38.5t-109.5 39.5t-38.5 97.5q0 57 43 93.5t129 36.5l151 1v24q0 97 -25.5 136.5
t-91.5 39.5q-80 0 -153 -42l-11 19q77 46 164 46q66 0 97.5 -33.5t38.5 -102.5h1q21 63 67 99.5t110 36.5q80 0 133.5 -66.5t53.5 -166.5zM382 265h339q-5 91 -49 146t-115 55q-76 0 -122 -55.5t-53 -145.5zM185 19q74 0 124.5 46t50.5 129v49l-151 -1q-65 0 -107 -28
t-42 -80q0 -48 32.5 -81.5t92.5 -33.5z" />
    <glyph glyph-name="ccedilla" unicode="&#xe7;" horiz-adv-x="499" 
d="M275 -3l-13 -31v-1q32 -2 56 -22.5t24 -54.5q0 -30 -22.5 -51t-62.5 -21q-27 0 -49 6v23q23 -7 45 -7q28 0 47 13t19 38q0 23 -21.5 40t-60.5 17l1 19l15 33q-93 8 -149.5 75.5t-56.5 168.5q0 108 64.5 177t167.5 69q111 0 180 -77l-17 -17q-60 72 -163 72
q-93 0 -151 -63t-58 -161q0 -99 57.5 -161t150.5 -62q48 0 93.5 18.5t74.5 51.5l15 -17q-32 -34 -80.5 -54.5t-102.5 -20.5h-3z" />
    <glyph glyph-name="egrave" unicode="&#xe8;" horiz-adv-x="532" 
d="M318 565h-29l-114 127h30zM489 243h-419v-1q0 -97 58 -160t149 -63q111 0 174 81l17 -13q-68 -90 -189 -90q-102 0 -167 69.5t-65 175.5q0 105 66 175.5t164 70.5q94 0 153 -65.5t59 -165.5v-14zM277 466q-82 0 -140 -57t-66 -144h395q-5 91 -56.5 146t-132.5 55z" />
    <glyph glyph-name="eacute" unicode="&#xe9;" horiz-adv-x="532" 
d="M408 696l-124 -135h-30l123 135h31zM489 243h-419v-1q0 -97 58 -160t149 -63q111 0 174 81l17 -13q-68 -90 -189 -90q-102 0 -167 69.5t-65 175.5q0 105 66 175.5t164 70.5q94 0 153 -65.5t59 -165.5v-14zM277 466q-82 0 -140 -57t-66 -144h395q-5 91 -56.5 146
t-132.5 55z" />
    <glyph glyph-name="ecircumflex" unicode="&#xea;" horiz-adv-x="532" 
d="M279 672l-108 -110h-29l125 128h25l122 -128h-29l-104 110h-2zM489 243h-419v-1q0 -97 58 -160t149 -63q111 0 174 81l17 -13q-68 -90 -189 -90q-102 0 -167 69.5t-65 175.5q0 105 66 175.5t164 70.5q94 0 153 -65.5t59 -165.5v-14zM277 466q-82 0 -140 -57t-66 -144h395
q-5 91 -56.5 146t-132.5 55z" />
    <glyph glyph-name="edieresis" unicode="&#xeb;" horiz-adv-x="532" 
d="M203 606q-12 0 -20 8t-8 19q0 12 8 19.5t20 7.5q27 0 27 -27q0 -11 -7.5 -19t-19.5 -8zM350 606q-12 0 -20 8t-8 19q0 12 8 19.5t20 7.5q27 0 27 -27q0 -11 -7.5 -19t-19.5 -8zM489 243h-419v-1q0 -97 58 -160t149 -63q111 0 174 81l17 -13q-68 -90 -189 -90
q-102 0 -167 69.5t-65 175.5q0 105 66 175.5t164 70.5q94 0 153 -65.5t59 -165.5v-14zM277 466q-82 0 -140 -57t-66 -144h395q-5 91 -56.5 146t-132.5 55z" />
    <glyph glyph-name="igrave" unicode="&#xec;" horiz-adv-x="195" 
d="M81 561l-90 135h29l88 -135h-27zM86 0v484h22v-484h-22z" />
    <glyph glyph-name="iacute" unicode="&#xed;" horiz-adv-x="195" 
d="M89 561l123 135h31l-124 -135h-30zM86 0v484h22v-484h-22z" />
    <glyph glyph-name="icircumflex" unicode="&#xee;" horiz-adv-x="195" 
d="M-38 562l125 128h25l122 -128h-29l-104 110h-2l-108 -110h-29zM86 0v484h22v-484h-22z" />
    <glyph glyph-name="idieresis" unicode="&#xef;" horiz-adv-x="195" 
d="M23 606q-12 0 -20 8t-8 19q0 12 8 19.5t20 7.5q27 0 27 -27q0 -11 -7.5 -19t-19.5 -8zM170 606q-12 0 -20 8t-8 19q0 12 8 19.5t20 7.5q27 0 27 -27q0 -11 -7.5 -19t-19.5 -8zM86 0v484h22v-484h-22z" />
    <glyph glyph-name="eth" unicode="&#xf0;" horiz-adv-x="580" 
d="M436 543q96 -131 96 -291q0 -111 -67 -183t-175 -72q-103 0 -173 68.5t-70 176.5q0 102 68.5 174t174.5 72q120 0 190 -91q1 -1 2.5 -3t3 -4.5t2.5 -3.5l2 2q-23 74 -72 144q-39 53 -93 98l-75 -83l-17 13l75 83q-69 52 -142 76l6 20q82 -27 150 -80l76 85l18 -14
l-76 -84q56 -47 96 -103zM290 19q97 0 158 66t61 167q0 91 -63.5 152t-155.5 61q-97 0 -158.5 -64.5t-61.5 -158.5q0 -99 63.5 -161t156.5 -62z" />
    <glyph glyph-name="ntilde" unicode="&#xf1;" horiz-adv-x="543" 
d="M360 581q-6 0 -12 1t-11 2.5t-12 5t-10.5 5.5t-11.5 7t-10.5 6.5t-10.5 7.5t-10 7q-38 27 -63 27q-42 0 -64 -61l-21 6q26 77 84 77q32 0 77 -31q4 -3 17 -12l19.5 -13.5t17.5 -8.5t20 -4q19 0 35 15.5t25 46.5l21 -7q-11 -38 -33 -57.5t-47 -19.5zM81 0v484h22v-128h1
q26 62 79 97t123 35q77 0 122 -51.5t45 -144.5v-292h-22v281q0 95 -40 140t-105 45q-91 0 -147 -62.5t-56 -164.5v-239h-22z" />
    <glyph glyph-name="ograve" unicode="&#xf2;" horiz-adv-x="579" 
d="M295 565l-114 127h30l113 -127h-29zM290 -3q-107 0 -175 71t-68 174q0 102 68.5 174t174.5 72q102 0 172 -69t70 -177t-70 -176.5t-172 -68.5zM290 19q93 0 156 62.5t63 160.5t-63.5 161t-155.5 63q-97 0 -158.5 -65t-61.5 -159t61 -158.5t159 -64.5z" />
    <glyph glyph-name="oacute" unicode="&#xf3;" horiz-adv-x="579" 
d="M275 561l123 135h31l-124 -135h-30zM290 -3q-107 0 -175 71t-68 174q0 102 68.5 174t174.5 72q102 0 172 -69t70 -177t-70 -176.5t-172 -68.5zM290 19q93 0 156 62.5t63 160.5t-63.5 161t-155.5 63q-97 0 -158.5 -65t-61.5 -159t61 -158.5t159 -64.5z" />
    <glyph glyph-name="ocircumflex" unicode="&#xf4;" horiz-adv-x="579" 
d="M155 562l125 128h25l122 -128h-29l-104 110h-2l-108 -110h-29zM290 -3q-107 0 -175 71t-68 174q0 102 68.5 174t174.5 72q102 0 172 -69t70 -177t-70 -176.5t-172 -68.5zM290 19q93 0 156 62.5t63 160.5t-63.5 161t-155.5 63q-97 0 -158.5 -65t-61.5 -159t61 -158.5
t159 -64.5z" />
    <glyph glyph-name="otilde" unicode="&#xf5;" horiz-adv-x="579" 
d="M369 581q-6 0 -12 1t-11 2.5t-12 5t-10.5 5.5t-11.5 7t-10.5 6.5t-10.5 7.5t-10 7q-38 27 -63 27q-42 0 -64 -61l-21 6q26 77 84 77q32 0 77 -31q4 -3 17 -12l19.5 -13.5t17.5 -8.5t20 -4q19 0 35 15.5t25 46.5l21 -7q-11 -38 -33 -57.5t-47 -19.5zM290 -3
q-107 0 -175 71t-68 174q0 102 68.5 174t174.5 72q102 0 172 -69t70 -177t-70 -176.5t-172 -68.5zM290 19q93 0 156 62.5t63 160.5t-63.5 161t-155.5 63q-97 0 -158.5 -65t-61.5 -159t61 -158.5t159 -64.5z" />
    <glyph glyph-name="odieresis" unicode="&#xf6;" horiz-adv-x="579" 
d="M216 606q-12 0 -20 8t-8 19q0 12 8 19.5t20 7.5q27 0 27 -27q0 -11 -7.5 -19t-19.5 -8zM363 606q-12 0 -20 8t-8 19q0 12 8 19.5t20 7.5q27 0 27 -27q0 -11 -7.5 -19t-19.5 -8zM290 -3q-107 0 -175 71t-68 174q0 102 68.5 174t174.5 72q102 0 172 -69t70 -177t-70 -176.5
t-172 -68.5zM290 19q93 0 156 62.5t63 160.5t-63.5 161t-155.5 63q-97 0 -158.5 -65t-61.5 -159t61 -158.5t159 -64.5z" />
    <glyph glyph-name="divide" unicode="&#xf7;" horiz-adv-x="587" 
d="M286 441q-12 0 -20 8t-8 19q0 12 8 19.5t20 7.5q27 0 27 -27q0 -11 -7.5 -19t-19.5 -8zM64 265v22h460v-22h-460zM286 57q-12 0 -20 8t-8 19q0 12 8 19.5t20 7.5q27 0 27 -27q0 -11 -7.5 -19t-19.5 -8z" />
    <glyph glyph-name="oslash" unicode="&#xf8;" horiz-adv-x="579" 
d="M532 477l-63 -66q63 -69 63 -169q0 -108 -70 -176.5t-172 -68.5q-93 0 -160 57l-61 -64l-19 16l62 65q-65 71 -65 171q0 102 68.5 174t174.5 72q94 0 163 -60l61 64zM70 242q0 -91 58 -155l309 324q-61 55 -147 55q-97 0 -158.5 -65t-61.5 -159zM509 242q0 90 -55 153
l-309 -325q59 -51 145 -51q93 0 156 62.5t63 160.5z" />
    <glyph glyph-name="ugrave" unicode="&#xf9;" horiz-adv-x="532" 
d="M285 565l-114 127h30l113 -127h-29zM252 -3q-88 0 -135.5 57t-47.5 154v276h22v-265q0 -99 43 -149.5t118 -50.5q79 0 131.5 63t52.5 163v239h22v-484h-22v127h-1q-25 -61 -74 -95.5t-109 -34.5z" />
    <glyph glyph-name="uacute" unicode="&#xfa;" horiz-adv-x="532" 
d="M239 561l123 135h31l-124 -135h-30zM252 -3q-88 0 -135.5 57t-47.5 154v276h22v-265q0 -99 43 -149.5t118 -50.5q79 0 131.5 63t52.5 163v239h22v-484h-22v127h-1q-25 -61 -74 -95.5t-109 -34.5z" />
    <glyph glyph-name="ucircumflex" unicode="&#xfb;" horiz-adv-x="532" 
d="M127 562l125 128h25l122 -128h-29l-104 110h-2l-108 -110h-29zM252 -3q-88 0 -135.5 57t-47.5 154v276h22v-265q0 -99 43 -149.5t118 -50.5q79 0 131.5 63t52.5 163v239h22v-484h-22v127h-1q-25 -61 -74 -95.5t-109 -34.5z" />
    <glyph glyph-name="udieresis" unicode="&#xfc;" horiz-adv-x="532" 
d="M188 606q-12 0 -20 8t-8 19q0 12 8 19.5t20 7.5q27 0 27 -27q0 -11 -7.5 -19t-19.5 -8zM335 606q-12 0 -20 8t-8 19q0 12 8 19.5t20 7.5q27 0 27 -27q0 -11 -7.5 -19t-19.5 -8zM252 -3q-88 0 -135.5 57t-47.5 154v276h22v-265q0 -99 43 -149.5t118 -50.5q79 0 131.5 63
t52.5 163v239h22v-484h-22v127h-1q-25 -61 -74 -95.5t-109 -34.5z" />
    <glyph glyph-name="yacute" unicode="&#xfd;" horiz-adv-x="506" 
d="M229 561l123 135h31l-124 -135h-30zM162 -198l86 203l-221 479h27l205 -450h1l190 450h27l-290 -682h-25z" />
    <glyph glyph-name="thorn" unicode="&#xfe;" horiz-adv-x="600" 
d="M81 -198v934h22v-388h1q27 65 83 102.5t125 37.5q106 0 173 -72.5t67 -178.5t-69 -173t-170 -67q-72 0 -127 36.5t-82 97.5h-1v-329h-22zM313 19q96 0 156 63t60 155q0 101 -62.5 165t-154.5 64q-93 0 -151 -66t-58 -163q0 -96 60.5 -157t149.5 -61z" />
    <glyph glyph-name="ydieresis" unicode="&#xff;" horiz-adv-x="506" 
d="M180 606q-12 0 -20 8t-8 19q0 12 8 19.5t20 7.5q27 0 27 -27q0 -11 -7.5 -19t-19.5 -8zM327 606q-12 0 -20 8t-8 19q0 12 8 19.5t20 7.5q27 0 27 -27q0 -11 -7.5 -19t-19.5 -8zM162 -198l86 203l-221 479h27l205 -450h1l190 450h27l-290 -682h-25z" />
    <glyph glyph-name="Amacron" unicode="&#x100;" horiz-adv-x="640" 
d="M187 835v23h267v-23h-267zM29 0l275 710h29l278 -710h-25l-83 211h-367l-82 -211h-25zM145 234h349l-174 448h-2z" />
    <glyph glyph-name="amacron" unicode="&#x101;" horiz-adv-x="591" 
d="M154 619v23h267v-23h-267zM285 -3q-101 0 -170.5 67t-69.5 173t67.5 178.5t173.5 72.5q69 0 125 -38t83 -103h1v137h22v-484h-22v133h-1q-27 -62 -82 -99t-127 -37zM285 19q89 0 149.5 61t60.5 157t-58.5 162.5t-150.5 66.5t-155 -64t-63 -165q0 -92 60.5 -155t156.5 -63
z" />
    <glyph glyph-name="Abreve" unicode="&#x102;" horiz-adv-x="640" 
d="M320 791q-48 0 -83 31.5t-39 81.5h21q3 -36 30.5 -63.5t70.5 -27.5t70.5 27.5t29.5 63.5h22q-4 -51 -39 -82t-83 -31zM29 0l275 710h29l278 -710h-25l-83 211h-367l-82 -211h-25zM145 234h349l-174 448h-2z" />
    <glyph glyph-name="abreve" unicode="&#x103;" horiz-adv-x="591" 
d="M287 561q-49 0 -83.5 33.5t-38.5 93.5h21q3 -46 30 -75.5t71 -29.5t71 29.5t29 75.5h22q-4 -60 -38.5 -93.5t-83.5 -33.5zM285 -3q-101 0 -170.5 67t-69.5 173t67.5 178.5t173.5 72.5q69 0 125 -38t83 -103h1v137h22v-484h-22v133h-1q-27 -62 -82 -99t-127 -37zM285 19
q89 0 149.5 61t60.5 157t-58.5 162.5t-150.5 66.5t-155 -64t-63 -165q0 -92 60.5 -155t156.5 -63z" />
    <glyph glyph-name="Aogonek" unicode="&#x104;" horiz-adv-x="640" 
d="M652 -145l4 -23q-26 -13 -63 -13q-39 0 -61.5 19.5t-22.5 56.5q0 28 19 58t55 53l-80 205h-367l-82 -211h-25l275 710h29l278 -710q-36 -19 -57.5 -47t-21.5 -57q0 -54 61 -54q33 0 59 13zM145 234h349l-174 448h-2z" />
    <glyph glyph-name="aogonek" unicode="&#x105;" horiz-adv-x="591" 
d="M558 -145l4 -23q-26 -13 -63 -13q-39 0 -61.5 19.5t-22.5 56.5q0 29 21 60t59 55v123h-1q-27 -62 -82 -99t-127 -37q-101 0 -170.5 67t-69.5 173t67.5 178.5t173.5 72.5q69 0 125 -38t83 -103h1v137h22v-484q-36 -19 -57.5 -47t-21.5 -57q0 -54 61 -54q33 0 59 13z
M285 19q89 0 149.5 61t60.5 157t-58.5 162.5t-150.5 66.5t-155 -64t-63 -165q0 -92 60.5 -155t156.5 -63z" />
    <glyph glyph-name="Cacute" unicode="&#x106;" horiz-adv-x="714" 
d="M378 795l113 124h30l-114 -124h-29zM408 -3q-149 0 -247.5 94.5t-98.5 260.5q0 157 91.5 259.5t254.5 102.5t271 -134l-19 -16q-100 127 -252 127t-237 -95.5t-85 -243.5q0 -157 91 -244.5t231 -87.5q152 0 252 125l19 -15q-107 -133 -271 -133z" />
    <glyph glyph-name="cacute" unicode="&#x107;" horiz-adv-x="499" 
d="M261 561l123 135h31l-124 -135h-30zM278 -3q-103 0 -167 68.5t-64 176.5t64.5 177t167.5 69q111 0 180 -77l-17 -17q-60 72 -163 72q-93 0 -151 -63t-58 -161q0 -99 57.5 -161t150.5 -62q48 0 93.5 18.5t74.5 51.5l15 -17q-32 -34 -80.5 -54.5t-102.5 -20.5z" />
    <glyph glyph-name="Ccircumflex" unicode="&#x108;" horiz-adv-x="714" 
d="M272 795l125 109h25l122 -109h-30l-104 92h-2l-107 -92h-29zM408 -3q-149 0 -247.5 94.5t-98.5 260.5q0 157 91.5 259.5t254.5 102.5t271 -134l-19 -16q-100 127 -252 127t-237 -95.5t-85 -243.5q0 -157 91 -244.5t231 -87.5q152 0 252 125l19 -15q-107 -133 -271 -133z
" />
    <glyph glyph-name="ccircumflex" unicode="&#x109;" horiz-adv-x="499" 
d="M137 562l125 128h25l122 -128h-29l-104 110h-2l-108 -110h-29zM278 -3q-103 0 -167 68.5t-64 176.5t64.5 177t167.5 69q111 0 180 -77l-17 -17q-60 72 -163 72q-93 0 -151 -63t-58 -161q0 -99 57.5 -161t150.5 -62q48 0 93.5 18.5t74.5 51.5l15 -17q-32 -34 -80.5 -54.5
t-102.5 -20.5z" />
    <glyph glyph-name="Cdotaccent" unicode="&#x10a;" horiz-adv-x="714" 
d="M408 828q-12 0 -20 8t-8 19q0 12 8 19.5t20 7.5q27 0 27 -27q0 -11 -7.5 -19t-19.5 -8zM408 -3q-149 0 -247.5 94.5t-98.5 260.5q0 157 91.5 259.5t254.5 102.5t271 -134l-19 -16q-100 127 -252 127t-237 -95.5t-85 -243.5q0 -157 91 -244.5t231 -87.5q152 0 252 125
l19 -15q-107 -133 -271 -133z" />
    <glyph glyph-name="cdotaccent" unicode="&#x10b;" horiz-adv-x="499" 
d="M274 606q-12 0 -20 8t-8 19q0 12 8 19.5t20 7.5q27 0 27 -27q0 -11 -7.5 -19t-19.5 -8zM278 -3q-103 0 -167 68.5t-64 176.5t64.5 177t167.5 69q111 0 180 -77l-17 -17q-60 72 -163 72q-93 0 -151 -63t-58 -161q0 -99 57.5 -161t150.5 -62q48 0 93.5 18.5t74.5 51.5
l15 -17q-32 -34 -80.5 -54.5t-102.5 -20.5z" />
    <glyph glyph-name="Ccaron" unicode="&#x10c;" horiz-adv-x="714" 
d="M394 795l-122 109h30l104 -92h2l107 92h29l-125 -109h-25zM408 -3q-149 0 -247.5 94.5t-98.5 260.5q0 157 91.5 259.5t254.5 102.5t271 -134l-19 -16q-100 127 -252 127t-237 -95.5t-85 -243.5q0 -157 91 -244.5t231 -87.5q152 0 252 125l19 -15q-107 -133 -271 -133z
" />
    <glyph glyph-name="ccaron" unicode="&#x10d;" horiz-adv-x="499" 
d="M259 562l-122 128h29l106 -110h2l106 110h29l-125 -128h-25zM278 -3q-103 0 -167 68.5t-64 176.5t64.5 177t167.5 69q111 0 180 -77l-17 -17q-60 72 -163 72q-93 0 -151 -63t-58 -161q0 -99 57.5 -161t150.5 -62q48 0 93.5 18.5t74.5 51.5l15 -17q-32 -34 -80.5 -54.5
t-102.5 -20.5z" />
    <glyph glyph-name="Dcaron" unicode="&#x10e;" horiz-adv-x="706" 
d="M308 795l-122 109h30l104 -92h2l107 92h29l-125 -109h-25zM89 0v710h187q167 0 268 -98.5t101 -257.5t-100 -256.5t-266 -97.5h-190zM112 23h166q159 0 251 91t92 240t-94.5 241t-251.5 92h-163v-664z" />
    <glyph glyph-name="dcaron" unicode="&#x10f;" horiz-adv-x="653" 
d="M612 597l25 158h27l-32 -158h-20zM288 -3q-102 0 -171.5 67t-69.5 173t67.5 178.5t173.5 72.5q69 0 125 -38t83 -104h2v390h22v-736h-22v135h-2q-25 -62 -80.5 -100t-127.5 -38zM288 19q88 0 149 61t61 157t-59 162.5t-151 66.5t-155 -64t-63 -165q0 -92 60.5 -155
t157.5 -63z" />
    <glyph glyph-name="Dcroat" unicode="&#x110;" horiz-adv-x="706" 
d="M276 710q167 0 268 -98.5t101 -257.5t-100 -256.5t-266 -97.5h-190v346h-86v23h86v341h187zM278 23q159 0 251 91t92 240t-94.5 241t-251.5 92h-163v-318h232v-23h-232v-323h166z" />
    <glyph glyph-name="dcroat" unicode="&#x111;" horiz-adv-x="598" 
d="M582 610v-22h-62v-588h-22v135h-2q-25 -62 -80.5 -100t-127.5 -38q-102 0 -171.5 67t-69.5 173t67.5 178.5t173.5 72.5q69 0 125 -38t83 -104h2v242h-244v22h244v126h22v-126h62zM288 19q88 0 149 61t61 157t-59 162.5t-151 66.5t-155 -64t-63 -165q0 -92 60.5 -155
t157.5 -63z" />
    <glyph glyph-name="Emacron" unicode="&#x112;" horiz-adv-x="565" 
d="M153 835v23h267v-23h-267zM89 0v710h412v-23h-389v-320h327v-23h-327v-321h410v-23h-433z" />
    <glyph glyph-name="emacron" unicode="&#x113;" horiz-adv-x="532" 
d="M412 642v-23h-267v23h267zM489 243h-419v-1q0 -97 58 -160t149 -63q111 0 174 81l17 -13q-68 -90 -189 -90q-102 0 -167 69.5t-65 175.5q0 105 66 175.5t164 70.5q94 0 153 -65.5t59 -165.5v-14zM277 466q-82 0 -140 -57t-66 -144h395q-5 91 -56.5 146t-132.5 55z" />
    <glyph glyph-name="Ebreve" unicode="&#x114;" horiz-adv-x="565" 
d="M286 791q-48 0 -83 31.5t-39 81.5h21q3 -36 30.5 -63.5t70.5 -27.5t70.5 27.5t29.5 63.5h22q-4 -51 -39 -82t-83 -31zM89 0v710h412v-23h-389v-320h327v-23h-327v-321h410v-23h-433z" />
    <glyph glyph-name="ebreve" unicode="&#x115;" horiz-adv-x="532" 
d="M278 561q-49 0 -83.5 33.5t-38.5 93.5h21q3 -46 30 -75.5t71 -29.5t71 29.5t29 75.5h22q-4 -60 -38.5 -93.5t-83.5 -33.5zM489 243h-419v-1q0 -97 58 -160t149 -63q111 0 174 81l17 -13q-68 -90 -189 -90q-102 0 -167 69.5t-65 175.5q0 105 66 175.5t164 70.5
q94 0 153 -65.5t59 -165.5v-14zM277 466q-82 0 -140 -57t-66 -144h395q-5 91 -56.5 146t-132.5 55z" />
    <glyph glyph-name="Edotaccent" unicode="&#x116;" horiz-adv-x="565" 
d="M286 828q-12 0 -20 8t-8 19q0 12 8 19.5t20 7.5q27 0 27 -27q0 -11 -7.5 -19t-19.5 -8zM89 0v710h412v-23h-389v-320h327v-23h-327v-321h410v-23h-433z" />
    <glyph glyph-name="edotaccent" unicode="&#x117;" horiz-adv-x="532" 
d="M279 606q-12 0 -20 8t-8 19q0 12 8 19.5t20 7.5q27 0 27 -27q0 -11 -7.5 -19t-19.5 -8zM489 243h-419v-1q0 -97 58 -160t149 -63q111 0 174 81l17 -13q-68 -90 -189 -90q-102 0 -167 69.5t-65 175.5q0 105 66 175.5t164 70.5q94 0 153 -65.5t59 -165.5v-14zM277 466
q-82 0 -140 -57t-66 -144h395q-5 91 -56.5 146t-132.5 55z" />
    <glyph glyph-name="Eogonek" unicode="&#x118;" horiz-adv-x="565" 
d="M563 -145l4 -23q-26 -13 -63 -13q-39 0 -61.5 19.5t-22.5 56.5q0 58 65 105h-396v710h412v-23h-389v-320h327v-23h-327v-321h410v-23q-36 -19 -57.5 -47t-21.5 -57q0 -54 61 -54q33 0 59 13z" />
    <glyph glyph-name="eogonek" unicode="&#x119;" horiz-adv-x="532" 
d="M489 243h-419v-1q0 -97 58 -160t149 -63q111 0 174 81l17 -13q-55 -72 -147 -87q-35 -19 -56.5 -47t-21.5 -56q0 -54 62 -54q33 0 58 13l4 -23q-24 -13 -62 -13q-39 0 -61.5 19.5t-22.5 56.5q0 54 58 100v1q-102 0 -167 69.5t-65 175.5q0 105 66 175.5t164 70.5
q94 0 153 -65.5t59 -165.5v-14zM277 466q-82 0 -140 -57t-66 -144h395q-5 91 -56.5 146t-132.5 55z" />
    <glyph glyph-name="Ecaron" unicode="&#x11a;" horiz-adv-x="565" 
d="M272 795l-122 109h30l104 -92h2l107 92h29l-125 -109h-25zM89 0v710h412v-23h-389v-320h327v-23h-327v-321h410v-23h-433z" />
    <glyph glyph-name="ecaron" unicode="&#x11b;" horiz-adv-x="532" 
d="M289 562h-25l-122 128h29l106 -110h2l106 110h29zM489 243h-419v-1q0 -97 58 -160t149 -63q111 0 174 81l17 -13q-68 -90 -189 -90q-102 0 -167 69.5t-65 175.5q0 105 66 175.5t164 70.5q94 0 153 -65.5t59 -165.5v-14zM277 466q-82 0 -140 -57t-66 -144h395
q-5 91 -56.5 146t-132.5 55z" />
    <glyph glyph-name="Gcircumflex" unicode="&#x11c;" horiz-adv-x="760" 
d="M268 795l125 109h25l122 -109h-30l-104 92h-2l-107 -92h-29zM409 -3q-153 0 -250 99.5t-97 257.5q0 160 97 260t250 100q156 0 258 -99l-16 -16q-96 92 -242 92q-144 0 -233.5 -93.5t-89.5 -243.5q0 -148 90 -241t233 -93q155 0 250 81v217h-269v23h292v-251
q-104 -93 -273 -93z" />
    <glyph glyph-name="gcircumflex" unicode="&#x11d;" 
d="M146 562l125 128h25l122 -128h-29l-104 110h-2l-108 -110h-29zM292 -201q-106 0 -198 56l7 23q90 -57 192 -57q98 0 148 52.5t50 141.5v131h-1q-26 -62 -80 -98t-129 -36q-99 0 -166.5 66.5t-67.5 174.5q0 99 65.5 167t169.5 68q70 0 125.5 -35t82.5 -95h1v126h22v-474
q0 -97 -57 -154t-164 -57zM281 34q96 0 153 62t57 157q0 94 -59.5 153.5t-149.5 59.5q-94 0 -153 -61.5t-59 -151.5q0 -98 60.5 -158.5t150.5 -60.5z" />
    <glyph glyph-name="Gbreve" unicode="&#x11e;" horiz-adv-x="760" 
d="M404 791q-48 0 -83 31.5t-39 81.5h21q3 -36 30.5 -63.5t70.5 -27.5t70.5 27.5t29.5 63.5h22q-4 -51 -39 -82t-83 -31zM409 -3q-153 0 -250 99.5t-97 257.5q0 160 97 260t250 100q156 0 258 -99l-16 -16q-96 92 -242 92q-144 0 -233.5 -93.5t-89.5 -243.5q0 -148 90 -241
t233 -93q155 0 250 81v217h-269v23h292v-251q-104 -93 -273 -93z" />
    <glyph glyph-name="gbreve" unicode="&#x11f;" 
d="M282 561q-49 0 -83.5 33.5t-38.5 93.5h21q3 -46 30 -75.5t71 -29.5t71 29.5t29 75.5h22q-4 -60 -38.5 -93.5t-83.5 -33.5zM292 -201q-106 0 -198 56l7 23q90 -57 192 -57q98 0 148 52.5t50 141.5v131h-1q-26 -62 -80 -98t-129 -36q-99 0 -166.5 66.5t-67.5 174.5
q0 99 65.5 167t169.5 68q70 0 125.5 -35t82.5 -95h1v126h22v-474q0 -97 -57 -154t-164 -57zM281 34q96 0 153 62t57 157q0 94 -59.5 153.5t-149.5 59.5q-94 0 -153 -61.5t-59 -151.5q0 -98 60.5 -158.5t150.5 -60.5z" />
    <glyph glyph-name="Gdotaccent" unicode="&#x120;" horiz-adv-x="760" 
d="M404 828q-12 0 -20 8t-8 19q0 12 8 19.5t20 7.5q27 0 27 -27q0 -11 -7.5 -19t-19.5 -8zM409 -3q-153 0 -250 99.5t-97 257.5q0 160 97 260t250 100q156 0 258 -99l-16 -16q-96 92 -242 92q-144 0 -233.5 -93.5t-89.5 -243.5q0 -148 90 -241t233 -93q155 0 250 81v217
h-269v23h292v-251q-104 -93 -273 -93z" />
    <glyph glyph-name="gdotaccent" unicode="&#x121;" 
d="M283 606q-12 0 -20 8t-8 19q0 12 8 19.5t20 7.5q27 0 27 -27q0 -11 -7.5 -19t-19.5 -8zM292 -201q-106 0 -198 56l7 23q90 -57 192 -57q98 0 148 52.5t50 141.5v131h-1q-26 -62 -80 -98t-129 -36q-99 0 -166.5 66.5t-67.5 174.5q0 99 65.5 167t169.5 68q70 0 125.5 -35
t82.5 -95h1v126h22v-474q0 -97 -57 -154t-164 -57zM281 34q96 0 153 62t57 157q0 94 -59.5 153.5t-149.5 59.5q-94 0 -153 -61.5t-59 -151.5q0 -98 60.5 -158.5t150.5 -60.5z" />
    <glyph glyph-name="Gcommaaccent" unicode="&#x122;" horiz-adv-x="760" 
d="M409 -3q-153 0 -250 99.5t-97 257.5q0 160 97 260t250 100q156 0 258 -99l-16 -16q-96 92 -242 92q-144 0 -233.5 -93.5t-89.5 -243.5q0 -148 90 -241t233 -93q155 0 250 81v217h-269v23h292v-251q-104 -93 -273 -93zM328 -199l-8 18q40 2 54 20.5t14 49.5q0 26 -5 56h22
q5 -28 5 -55q0 -84 -82 -89z" />
    <glyph glyph-name="gcommaaccent" unicode="&#x123;" 
d="M360 696l8 -18q-40 -2 -54 -20.5t-14 -49.5q0 -26 5 -56h-22q-5 28 -5 55q0 84 82 89zM292 -201q-106 0 -198 56l7 23q90 -57 192 -57q98 0 148 52.5t50 141.5v131h-1q-26 -62 -80 -98t-129 -36q-99 0 -166.5 66.5t-67.5 174.5q0 99 65.5 167t169.5 68q70 0 125.5 -35
t82.5 -95h1v126h22v-474q0 -97 -57 -154t-164 -57zM281 34q96 0 153 62t57 157q0 94 -59.5 153.5t-149.5 59.5q-94 0 -153 -61.5t-59 -151.5q0 -98 60.5 -158.5t150.5 -60.5z" />
    <glyph glyph-name="Hcircumflex" unicode="&#x124;" horiz-adv-x="692" 
d="M209 795l125 109h25l122 -109h-30l-104 92h-2l-107 -92h-29zM89 0v710h23v-364h468v364h23v-710h-23v323h-468v-323h-23z" />
    <glyph glyph-name="hcircumflex" unicode="&#x125;" horiz-adv-x="548" 
d="M81 808l125 109h25l122 -109h-30l-104 92h-2l-107 -92h-29zM81 0v736h22v-381h1q25 62 79.5 97.5t127.5 35.5q77 0 122 -51.5t45 -144.5v-292h-22v281q0 95 -40 140t-105 45q-95 0 -151.5 -62.5t-56.5 -164.5v-239h-22z" />
    <glyph glyph-name="Hbar" unicode="&#x126;" horiz-adv-x="692" 
d="M672 565v-22h-69v-543h-23v323h-468v-323h-23v543h-77v22h77v145h23v-145h468v145h23v-145h69zM580 346v197h-468v-197h468z" />
    <glyph glyph-name="hbar" unicode="&#x127;" horiz-adv-x="548" 
d="M311 488q77 0 122 -51.5t45 -144.5v-292h-22v281q0 95 -40 140t-105 45q-95 0 -151.5 -62.5t-56.5 -164.5v-239h-22v588h-77v22h77v126h22v-126h219v-22h-219v-233h1q25 62 79.5 97.5t127.5 35.5z" />
    <glyph glyph-name="Itilde" unicode="&#x128;" horiz-adv-x="215" 
d="M186 795q-31 0 -87 41q-39 28 -64 28q-42 0 -64 -61l-21 6q26 77 84 77q28 0 78 -32q4 -3 16.5 -11.5t19.5 -13t17.5 -8.5t19.5 -4q19 0 35 15.5t25 46.5l21 -7q-11 -38 -33 -57.5t-47 -19.5zM96 0v710h23v-710h-23z" />
    <glyph glyph-name="itilde" unicode="&#x129;" horiz-adv-x="195" 
d="M176 581q-6 0 -12 1t-11 2.5t-12 5t-10.5 5.5t-11.5 7t-10.5 6.5t-10.5 7.5t-10 7q-38 27 -63 27q-42 0 -64 -61l-21 6q26 77 84 77q32 0 77 -31q4 -3 17 -12l19.5 -13.5t17.5 -8.5t20 -4q19 0 35 15.5t25 46.5l21 -7q-11 -38 -33 -57.5t-47 -19.5zM86 0v484h22v-484h-22
z" />
    <glyph glyph-name="Imacron" unicode="&#x12a;" horiz-adv-x="215" 
d="M-25 835v23h267v-23h-267zM96 0v710h23v-710h-23z" />
    <glyph glyph-name="imacron" unicode="&#x12b;" horiz-adv-x="195" 
d="M-35 619v23h267v-23h-267zM86 0v484h22v-484h-22z" />
    <glyph glyph-name="Ibreve" unicode="&#x12c;" horiz-adv-x="215" 
d="M108 791q-48 0 -83 31.5t-39 81.5h21q3 -36 30.5 -63.5t70.5 -27.5t70.5 27.5t29.5 63.5h22q-4 -51 -39 -82t-83 -31zM96 0v710h23v-710h-23z" />
    <glyph glyph-name="ibreve" unicode="&#x12d;" horiz-adv-x="195" 
d="M98 561q-48 0 -79 33t-34 94h22q2 -48 24.5 -76.5t66.5 -28.5t66.5 29t23.5 76h22q-3 -61 -33.5 -94t-78.5 -33zM86 0v484h22v-484h-22z" />
    <glyph glyph-name="Iogonek" unicode="&#x12e;" horiz-adv-x="215" 
d="M160 -145l4 -23q-26 -13 -63 -13q-39 0 -61.5 19.5t-22.5 56.5q0 29 20.5 60t58.5 54v701h23v-710q-36 -19 -57.5 -47t-21.5 -57q0 -54 61 -54q33 0 59 13z" />
    <glyph glyph-name="iogonek" unicode="&#x12f;" horiz-adv-x="195" 
d="M99 606q-12 0 -20 8t-8 19q0 12 8 19.5t20 7.5q27 0 27 -27q0 -11 -7.5 -19t-19.5 -8zM149 -145l4 -23q-26 -13 -63 -13q-39 0 -61.5 19.5t-22.5 56.5q0 29 21 60t59 55v474h22v-484q-36 -19 -57.5 -47t-21.5 -57q0 -54 61 -54q33 0 59 13z" />
    <glyph glyph-name="Idotaccent" unicode="&#x130;" horiz-adv-x="215" 
d="M108 828q-12 0 -20 8t-8 19q0 12 8 19.5t20 7.5q27 0 27 -27q0 -11 -7.5 -19t-19.5 -8zM96 0v710h23v-710h-23z" />
    <glyph glyph-name="dotlessi" unicode="&#x131;" horiz-adv-x="195" 
d="M86 0v484h22v-484h-22z" />
    <glyph glyph-name="IJ" unicode="&#x132;" horiz-adv-x="682" 
d="M96 0v710h23v-710h-23zM427 -3q-45 0 -95.5 24.5t-90.5 69.5l14 18q83 -89 172 -89q154 0 154 193v497h23v-502q0 -211 -177 -211z" />
    <glyph glyph-name="ij" unicode="&#x133;" horiz-adv-x="371" 
d="M99 606q-12 0 -20 8t-8 19q0 12 8 19.5t20 7.5q27 0 27 -27q0 -11 -7.5 -19t-19.5 -8zM290 606q-12 0 -20 8t-8 19q0 12 8 19.5t20 7.5q27 0 27 -27q0 -11 -7.5 -19t-19.5 -8zM86 0v484h22v-484h-22zM199 -201q-35 0 -63 14l3 24q27 -16 62 -16q77 0 77 94v569h22v-569
q0 -116 -101 -116z" />
    <glyph glyph-name="Jcircumflex" unicode="&#x134;" horiz-adv-x="467" 
d="M243 795l125 109h25l122 -109h-30l-104 92h-2l-107 -92h-29zM212 -3q-45 0 -95.5 24.5t-90.5 69.5l14 18q83 -89 172 -89q154 0 154 193v497h23v-502q0 -211 -177 -211z" />
    <glyph glyph-name="jcircumflex" unicode="&#x135;" horiz-adv-x="176" 
d="M-42 562l125 128h25l122 -128h-29l-104 110h-2l-108 -110h-29zM4 -201q-35 0 -63 14l3 24q27 -16 62 -16q77 0 77 94v569h22v-569q0 -116 -101 -116z" />
    <glyph glyph-name="Kcommaaccent" unicode="&#x136;" horiz-adv-x="612" 
d="M89 0v710h23v-483h2l418 483h31l-291 -336l296 -374h-30l-281 357l-145 -168v-189h-23zM243 -199l-8 18q40 2 54 20.5t14 49.5q0 26 -5 56h22q5 -28 5 -55q0 -84 -82 -89z" />
    <glyph glyph-name="kcommaaccent" unicode="&#x137;" horiz-adv-x="483" 
d="M81 0v736h22v-596l1 -1l317 345h31l-193 -210l191 -274h-28l-179 256l-140 -151v-105h-22zM182 -199l-8 18q40 2 54 20.5t14 49.5q0 26 -5 56h22q5 -28 5 -55q0 -84 -82 -89z" />
    <glyph glyph-name="kgreenlandic" unicode="&#x138;" horiz-adv-x="510" 
d="M81 0v484h22v-346h1l333 346h32l-205 -213l215 -271h-30l-202 253l-144 -150v-103h-22z" />
    <glyph glyph-name="Lacute" unicode="&#x139;" horiz-adv-x="528" 
d="M185 795l113 124h30l-114 -124h-29zM89 0v710h23v-687h394v-23h-417z" />
    <glyph glyph-name="lacute" unicode="&#x13a;" horiz-adv-x="194" 
d="M82 808l113 124h30l-114 -124h-29zM86 0v736h22v-736h-22z" />
    <glyph glyph-name="Lcommaaccent" unicode="&#x13b;" horiz-adv-x="528" 
d="M89 0v710h23v-687h394v-23h-417zM220 -199l-8 18q40 2 54 20.5t14 49.5q0 26 -5 56h22q5 -28 5 -55q0 -84 -82 -89z" />
    <glyph glyph-name="lcommaaccent" unicode="&#x13c;" horiz-adv-x="194" 
d="M86 0v736h22v-736h-22zM33 -199l-8 18q40 2 54 20.5t14 49.5q0 26 -5 56h22q5 -28 5 -55q0 -84 -82 -89z" />
    <glyph glyph-name="Lcaron" unicode="&#x13d;" horiz-adv-x="528" 
d="M274 596l25 158h27l-32 -158h-20zM89 0v710h23v-687h394v-23h-417z" />
    <glyph glyph-name="lcaron" unicode="&#x13e;" horiz-adv-x="241" 
d="M200 597l25 158h27l-32 -158h-20zM86 0v736h22v-736h-22z" />
    <glyph glyph-name="Ldot" unicode="&#x13f;" horiz-adv-x="528" 
d="M89 0v710h23v-687h394v-23h-417zM372 309q-13 0 -21 8t-8 21t8 20.5t21 7.5t21 -7.5t8 -20.5t-8 -21t-21 -8z" />
    <glyph glyph-name="ldot" unicode="&#x140;" horiz-adv-x="211" 
d="M86 0v736h22v-736h-22zM204 246q-13 0 -21 8t-8 21t8 20.5t21 7.5t21 -7.5t8 -20.5t-8 -21t-21 -8z" />
    <glyph glyph-name="Lslash" unicode="&#x141;" horiz-adv-x="558" 
d="M142 23h394v-23h-417v304l-96 -41v26l96 41v380h23v-370l119 50v-25l-119 -51v-291z" />
    <glyph glyph-name="lslash" unicode="&#x142;" horiz-adv-x="210" 
d="M201 376v-24l-83 -32v-320h-22v311l-91 -35v24l91 35v401h22v-392z" />
    <glyph glyph-name="Nacute" unicode="&#x143;" horiz-adv-x="728" 
d="M294 795l113 124h30l-114 -124h-29zM89 0v710h22l503 -670h1v670h23v-710h-23l-502 669h-1v-669h-23z" />
    <glyph glyph-name="nacute" unicode="&#x144;" horiz-adv-x="543" 
d="M242 561l123 135h31l-124 -135h-30zM81 0v484h22v-128h1q26 62 79 97t123 35q77 0 122 -51.5t45 -144.5v-292h-22v281q0 95 -40 140t-105 45q-91 0 -147 -62.5t-56 -164.5v-239h-22z" />
    <glyph glyph-name="Ncommaaccent" unicode="&#x145;" horiz-adv-x="728" 
d="M89 0v710h22l503 -670h1v670h23v-710h-23l-502 669h-1v-669h-23zM299 -199l-8 18q40 2 54 20.5t14 49.5q0 26 -5 56h22q5 -28 5 -55q0 -84 -82 -89z" />
    <glyph glyph-name="ncommaaccent" unicode="&#x146;" horiz-adv-x="543" 
d="M81 0v484h22v-128h1q26 62 79 97t123 35q77 0 122 -51.5t45 -144.5v-292h-22v281q0 95 -40 140t-105 45q-91 0 -147 -62.5t-56 -164.5v-239h-22zM209 -199l-8 18q40 2 54 20.5t14 49.5q0 26 -5 56h22q5 -28 5 -55q0 -84 -82 -89z" />
    <glyph glyph-name="Ncaron" unicode="&#x147;" horiz-adv-x="728" 
d="M350 795l-122 109h30l104 -92h2l107 92h29l-125 -109h-25zM89 0v710h22l503 -670h1v670h23v-710h-23l-502 669h-1v-669h-23z" />
    <glyph glyph-name="ncaron" unicode="&#x148;" horiz-adv-x="543" 
d="M268 562l-122 128h29l106 -110h2l106 110h29l-125 -128h-25zM81 0v484h22v-128h1q26 62 79 97t123 35q77 0 122 -51.5t45 -144.5v-292h-22v281q0 95 -40 140t-105 45q-91 0 -147 -62.5t-56 -164.5v-239h-22z" />
    <glyph glyph-name="napostrophe" unicode="&#x149;" horiz-adv-x="592" 
d="M27 542l25 168h26l-31 -168h-20zM130 0v484h22v-128h1q26 62 79 97t123 35q77 0 122 -51.5t45 -144.5v-292h-22v281q0 95 -40 140t-105 45q-91 0 -147 -62.5t-56 -164.5v-239h-22z" />
    <glyph glyph-name="Eng" unicode="&#x14a;" horiz-adv-x="727" 
d="M614 710h23v-735q0 -92 -35 -134t-117 -42q-42 0 -72 14l2 23q29 -15 71 -15q62 0 95 32t33 122v26l-501 668h-1v-669h-23v710h22l501 -670l2 1v669z" />
    <glyph glyph-name="eng" unicode="&#x14b;" horiz-adv-x="543" 
d="M337 -201q-34 0 -65 14l3 22q28 -14 62 -14q60 0 87 28t27 108v324q0 95 -40 140t-105 45q-91 0 -147 -62.5t-56 -164.5v-239h-22v484h22v-128h1q26 62 79 97t123 35q77 0 122 -51.5t45 -144.5v-335q0 -82 -29.5 -120t-106.5 -38z" />
    <glyph glyph-name="Omacron" unicode="&#x14c;" horiz-adv-x="822" 
d="M279 835v23h267v-23h-267zM413 -3q-149 0 -250 100t-101 259q0 158 101 258t250 100q146 0 246.5 -100t100.5 -258q0 -159 -100.5 -259t-246.5 -100zM413 20q136 0 229.5 94t93.5 242t-93.5 241.5t-229.5 93.5q-138 0 -232.5 -93.5t-94.5 -241.5q0 -149 94 -242.5
t233 -93.5z" />
    <glyph glyph-name="omacron" unicode="&#x14d;" horiz-adv-x="579" 
d="M158 619v23h267v-23h-267zM290 -3q-107 0 -175 71t-68 174q0 102 68.5 174t174.5 72q102 0 172 -69t70 -177t-70 -176.5t-172 -68.5zM290 19q93 0 156 62.5t63 160.5t-63.5 161t-155.5 63q-97 0 -158.5 -65t-61.5 -159t61 -158.5t159 -64.5z" />
    <glyph glyph-name="Obreve" unicode="&#x14e;" horiz-adv-x="822" 
d="M412 791q-48 0 -83 31.5t-39 81.5h21q3 -36 30.5 -63.5t70.5 -27.5t70.5 27.5t29.5 63.5h22q-4 -51 -39 -82t-83 -31zM413 -3q-149 0 -250 100t-101 259q0 158 101 258t250 100q146 0 246.5 -100t100.5 -258q0 -159 -100.5 -259t-246.5 -100zM413 20q136 0 229.5 94
t93.5 242t-93.5 241.5t-229.5 93.5q-138 0 -232.5 -93.5t-94.5 -241.5q0 -149 94 -242.5t233 -93.5z" />
    <glyph glyph-name="obreve" unicode="&#x14f;" horiz-adv-x="579" 
d="M291 561q-49 0 -83.5 33.5t-38.5 93.5h21q3 -46 30 -75.5t71 -29.5t71 29.5t29 75.5h22q-4 -60 -38.5 -93.5t-83.5 -33.5zM290 -3q-107 0 -175 71t-68 174q0 102 68.5 174t174.5 72q102 0 172 -69t70 -177t-70 -176.5t-172 -68.5zM290 19q93 0 156 62.5t63 160.5
t-63.5 161t-155.5 63q-97 0 -158.5 -65t-61.5 -159t61 -158.5t159 -64.5z" />
    <glyph glyph-name="Ohungarumlaut" unicode="&#x150;" horiz-adv-x="822" 
d="M336 795l122 135h31l-124 -135h-29zM460 795l122 135h31l-125 -135h-28zM413 -3q-149 0 -250 100t-101 259q0 158 101 258t250 100q146 0 246.5 -100t100.5 -258q0 -159 -100.5 -259t-246.5 -100zM413 20q136 0 229.5 94t93.5 242t-93.5 241.5t-229.5 93.5
q-138 0 -232.5 -93.5t-94.5 -241.5q0 -149 94 -242.5t233 -93.5z" />
    <glyph glyph-name="ohungarumlaut" unicode="&#x151;" horiz-adv-x="579" 
d="M215 561l122 135h31l-124 -135h-29zM339 561l122 135h31l-125 -135h-28zM290 -3q-107 0 -175 71t-68 174q0 102 68.5 174t174.5 72q102 0 172 -69t70 -177t-70 -176.5t-172 -68.5zM290 19q93 0 156 62.5t63 160.5t-63.5 161t-155.5 63q-97 0 -158.5 -65t-61.5 -159
t61 -158.5t159 -64.5z" />
    <glyph glyph-name="OE" unicode="&#x152;" horiz-adv-x="932" 
d="M479 23h410v-23h-473q-156 0 -255 104t-99 253t99 251.5t255 101.5h453v-23h-390v-320h332v-23h-332v-321zM416 23h41v664h-41q-139 2 -234.5 -91t-95.5 -239t95.5 -240t234.5 -94z" />
    <glyph glyph-name="oe" unicode="&#x153;" horiz-adv-x="824" 
d="M791 254v-11h-362q1 -105 49.5 -164.5t129.5 -59.5q54 0 86 19.5t62 61.5l17 -13q-31 -45 -68.5 -67.5t-94.5 -22.5q-80 0 -126.5 44t-63.5 112h-2q-19 -71 -68.5 -113.5t-113.5 -42.5q-91 0 -145 69.5t-54 175.5q0 105 55.5 175.5t143.5 70.5q63 0 112.5 -42.5
t68.5 -114.5h2q19 73 66.5 115t117.5 42q81 0 134.5 -66.5t53.5 -167.5zM236 19q74 0 122.5 62t48.5 161q0 98 -49.5 161t-121.5 63q-78 0 -127 -63.5t-49 -160.5t48.5 -160t127.5 -63zM430 265h338q-5 91 -49.5 146t-115.5 55q-76 0 -122 -55.5t-51 -145.5z" />
    <glyph glyph-name="Racute" unicode="&#x154;" horiz-adv-x="611" 
d="M228 795l113 124h30l-114 -124h-29zM89 0v710h233q110 0 165 -55t55 -145q0 -97 -56.5 -147.5t-156.5 -56.5l220 -306h-28l-220 305h-189v-305h-23zM112 328h192q111 0 162.5 49.5t51.5 132.5q0 88 -52 132.5t-143 44.5h-211v-359z" />
    <glyph glyph-name="racute" unicode="&#x155;" horiz-adv-x="317" 
d="M124 561l123 135h31l-124 -135h-30zM81 0v484h22v-119h2q22 58 66.5 90.5t105.5 32.5q22 0 32 -1v-24q-20 2 -29 2q-80 0 -128.5 -61.5t-48.5 -161.5v-242h-22z" />
    <glyph glyph-name="Rcommaaccent" unicode="&#x156;" horiz-adv-x="611" 
d="M89 0v710h233q110 0 165 -55t55 -145q0 -97 -56.5 -147.5t-156.5 -56.5l220 -306h-28l-220 305h-189v-305h-23zM112 328h192q111 0 162.5 49.5t51.5 132.5q0 88 -52 132.5t-143 44.5h-211v-359zM229 -199l-8 18q40 2 54 20.5t14 49.5q0 26 -5 56h22q5 -28 5 -55
q0 -84 -82 -89z" />
    <glyph glyph-name="rcommaaccent" unicode="&#x157;" horiz-adv-x="317" 
d="M81 0v484h22v-119h2q22 58 66.5 90.5t105.5 32.5q22 0 32 -1v-24q-20 2 -29 2q-80 0 -128.5 -61.5t-48.5 -161.5v-242h-22zM29 -199l-8 18q40 2 54 20.5t14 49.5q0 26 -5 56h22q5 -28 5 -55q0 -84 -82 -89z" />
    <glyph glyph-name="Rcaron" unicode="&#x158;" horiz-adv-x="611" 
d="M284 795l-122 109h30l104 -92h2l107 92h29l-125 -109h-25zM89 0v710h233q110 0 165 -55t55 -145q0 -97 -56.5 -147.5t-156.5 -56.5l220 -306h-28l-220 305h-189v-305h-23zM112 328h192q111 0 162.5 49.5t51.5 132.5q0 88 -52 132.5t-143 44.5h-211v-359z" />
    <glyph glyph-name="rcaron" unicode="&#x159;" horiz-adv-x="317" 
d="M180 562l-122 128h29l106 -110h2l106 110h29l-125 -128h-25zM81 0v484h22v-119h2q22 58 66.5 90.5t105.5 32.5q22 0 32 -1v-24q-20 2 -29 2q-80 0 -128.5 -61.5t-48.5 -161.5v-242h-22z" />
    <glyph glyph-name="Sacute" unicode="&#x15a;" horiz-adv-x="558" 
d="M239 795l113 124h30l-114 -124h-29zM282 -3q-149 0 -239 107l18 18q37 -50 96.5 -76t126.5 -26q83 0 140 40.5t57 113.5q0 20 -5 37.5t-11 30t-20.5 25.5t-24 20t-31.5 18t-32.5 15.5t-38.5 15.5t-38 15q-36 14 -51 21t-45.5 21.5t-45 27.5t-32 32.5t-25 42.5t-7.5 51
q0 73 56.5 120t145.5 47q113 0 203 -74l-16 -19q-86 70 -186 70q-72 0 -125.5 -38.5t-53.5 -105.5q0 -36 14.5 -63t47 -48.5t56.5 -32.5t71 -30q8 -3 33 -13t33.5 -13.5t30 -13t29.5 -14.5t25 -15.5t23.5 -19t17 -21t15 -25.5t8 -29.5t3.5 -34.5q0 -77 -59.5 -127
t-163.5 -50z" />
    <glyph glyph-name="sacute" unicode="&#x15b;" horiz-adv-x="415" 
d="M198 561l123 135h31l-124 -135h-30zM211 -3q-102 0 -177 67l13 18q71 -63 164 -63q64 0 102 30t38 73q0 16 -3 28.5t-13 23t-16.5 17t-25.5 15t-26.5 12t-34 12.5t-34.5 12q-36 13 -56 22t-42.5 24.5t-32.5 36t-10 47.5q0 49 40 82.5t99 33.5q91 0 158 -58l-15 -16
q-60 51 -142 51q-50 0 -83.5 -27t-33.5 -64q0 -23 9 -40.5t29 -30.5t36 -20.5t47 -18.5q8 -3 29 -10.5l28 -10t24.5 -9t23.5 -10.5t19 -11.5t18 -13t13 -14.5t10.5 -18.5t5 -21.5t2.5 -25q-1 -52 -44.5 -87.5t-118.5 -35.5z" />
    <glyph glyph-name="Scircumflex" unicode="&#x15c;" horiz-adv-x="558" 
d="M143 795l125 109h25l122 -109h-30l-104 92h-2l-107 -92h-29zM282 -3q-149 0 -239 107l18 18q37 -50 96.5 -76t126.5 -26q83 0 140 40.5t57 113.5q0 20 -5 37.5t-11 30t-20.5 25.5t-24 20t-31.5 18t-32.5 15.5t-38.5 15.5t-38 15q-36 14 -51 21t-45.5 21.5t-45 27.5
t-32 32.5t-25 42.5t-7.5 51q0 73 56.5 120t145.5 47q113 0 203 -74l-16 -19q-86 70 -186 70q-72 0 -125.5 -38.5t-53.5 -105.5q0 -36 14.5 -63t47 -48.5t56.5 -32.5t71 -30q8 -3 33 -13t33.5 -13.5t30 -13t29.5 -14.5t25 -15.5t23.5 -19t17 -21t15 -25.5t8 -29.5t3.5 -34.5
q0 -77 -59.5 -127t-163.5 -50z" />
    <glyph glyph-name="scircumflex" unicode="&#x15d;" horiz-adv-x="415" 
d="M75 562l125 128h25l122 -128h-29l-104 110h-2l-108 -110h-29zM211 -3q-102 0 -177 67l13 18q71 -63 164 -63q64 0 102 30t38 73q0 16 -3 28.5t-13 23t-16.5 17t-25.5 15t-26.5 12t-34 12.5t-34.5 12q-36 13 -56 22t-42.5 24.5t-32.5 36t-10 47.5q0 49 40 82.5t99 33.5
q91 0 158 -58l-15 -16q-60 51 -142 51q-50 0 -83.5 -27t-33.5 -64q0 -23 9 -40.5t29 -30.5t36 -20.5t47 -18.5q8 -3 29 -10.5l28 -10t24.5 -9t23.5 -10.5t19 -11.5t18 -13t13 -14.5t10.5 -18.5t5 -21.5t2.5 -25q-1 -52 -44.5 -87.5t-118.5 -35.5z" />
    <glyph glyph-name="Scedilla" unicode="&#x15e;" horiz-adv-x="558" 
d="M286 -3l-13 -31v-1q32 -2 56 -22.5t24 -54.5q0 -30 -22.5 -51t-62.5 -21q-26 0 -49 6v23q23 -7 45 -7q28 0 47 13t19 38q0 23 -21.5 40t-60.5 17l1 19l15 32q-138 9 -221 107l18 18q37 -50 96.5 -76t126.5 -26q83 0 140 40.5t57 113.5q0 20 -5 37.5t-11 30t-20.5 25.5
t-24 20t-31.5 18t-32.5 15.5t-38.5 15.5t-38 15q-36 14 -51 21t-45.5 21.5t-45 27.5t-32 32.5t-25 42.5t-7.5 51q0 73 56.5 120t145.5 47q113 0 203 -74l-16 -19q-86 70 -186 70q-72 0 -125.5 -38.5t-53.5 -105.5q0 -36 14.5 -63t47 -48.5t56.5 -32.5t71 -30q8 -3 33 -13
t33.5 -13.5t30 -13t29.5 -14.5t25 -15.5t23.5 -19t17 -21t15 -25.5t8 -29.5t3.5 -34.5q0 -76 -58.5 -126t-160.5 -51z" />
    <glyph glyph-name="scedilla" unicode="&#x15f;" horiz-adv-x="415" 
d="M201 264q8 -3 29 -10.5l28 -10t24.5 -9t23.5 -10.5t19 -11.5t18 -13t13 -14.5t10.5 -18.5t5 -21.5t2.5 -25q-1 -52 -44.5 -87.5t-118.5 -35.5h-10l-13 -31v-1q32 -2 56 -22.5t24 -54.5q0 -30 -22.5 -51t-62.5 -21q-27 0 -49 6v23q23 -7 45 -7q28 0 47 13t19 38
q0 23 -21.5 40t-60.5 17l1 19l16 34q-81 7 -146 65l13 18q71 -63 164 -63q64 0 102 30t38 73q0 16 -3 28.5t-13 23t-16.5 17t-25.5 15t-26.5 12t-34 12.5t-34.5 12q-36 13 -56 22t-42.5 24.5t-32.5 36t-10 47.5q0 49 40 82.5t99 33.5q91 0 158 -58l-15 -16q-60 51 -142 51
q-50 0 -83.5 -27t-33.5 -64q0 -23 9 -40.5t29 -30.5t36 -20.5t47 -18.5z" />
    <glyph glyph-name="Scaron" unicode="&#x160;" horiz-adv-x="558" 
d="M265 795l-122 109h30l104 -92h2l107 92h29l-125 -109h-25zM282 -3q-149 0 -239 107l18 18q37 -50 96.5 -76t126.5 -26q83 0 140 40.5t57 113.5q0 20 -5 37.5t-11 30t-20.5 25.5t-24 20t-31.5 18t-32.5 15.5t-38.5 15.5t-38 15q-36 14 -51 21t-45.5 21.5t-45 27.5
t-32 32.5t-25 42.5t-7.5 51q0 73 56.5 120t145.5 47q113 0 203 -74l-16 -19q-86 70 -186 70q-72 0 -125.5 -38.5t-53.5 -105.5q0 -36 14.5 -63t47 -48.5t56.5 -32.5t71 -30q8 -3 33 -13t33.5 -13.5t30 -13t29.5 -14.5t25 -15.5t23.5 -19t17 -21t15 -25.5t8 -29.5t3.5 -34.5
q0 -77 -59.5 -127t-163.5 -50z" />
    <glyph glyph-name="scaron" unicode="&#x161;" horiz-adv-x="415" 
d="M197 562l-122 128h29l106 -110h2l106 110h29l-125 -128h-25zM211 -3q-102 0 -177 67l13 18q71 -63 164 -63q64 0 102 30t38 73q0 16 -3 28.5t-13 23t-16.5 17t-25.5 15t-26.5 12t-34 12.5t-34.5 12q-36 13 -56 22t-42.5 24.5t-32.5 36t-10 47.5q0 49 40 82.5t99 33.5
q91 0 158 -58l-15 -16q-60 51 -142 51q-50 0 -83.5 -27t-33.5 -64q0 -23 9 -40.5t29 -30.5t36 -20.5t47 -18.5q8 -3 29 -10.5l28 -10t24.5 -9t23.5 -10.5t19 -11.5t18 -13t13 -14.5t10.5 -18.5t5 -21.5t2.5 -25q-1 -52 -44.5 -87.5t-118.5 -35.5z" />
    <glyph glyph-name="uni0162" unicode="&#x162;" horiz-adv-x="542" 
d="M278 0l-14 -34v-1q32 -2 56 -22.5t24 -54.5q0 -30 -22.5 -51t-62.5 -21q-27 0 -49 6v23q23 -7 45 -7q28 0 47 13t19 38q0 23 -21.5 40t-60.5 17l1 19l18 39v683h-233v23h492v-23h-236v-687h-3z" />
    <glyph glyph-name="uni0163" unicode="&#x163;" horiz-adv-x="354" 
d="M313 462h-195v-319q0 -64 16 -94t67 -30q54 0 102 32l6 -22q-48 -32 -105 -32h-9l-13 -31v-1q32 -2 56 -22.5t24 -54.5q0 -30 -22.5 -51t-62.5 -21q-27 0 -49 6v23q23 -7 45 -7q28 0 47 13t19 38q0 23 -21.5 40t-60.5 17l1 19l16 34q-45 8 -61.5 40t-16.5 89v334h-67v22
h67v175l22 3v-178h195v-22z" />
    <glyph glyph-name="Tcaron" unicode="&#x164;" horiz-adv-x="542" 
d="M256 795l-122 109h30l104 -92h2l107 92h29l-125 -109h-25zM258 0v687h-233v23h492v-23h-236v-687h-23z" />
    <glyph glyph-name="tcaron" unicode="&#x165;" horiz-adv-x="354" 
d="M209 597l25 158h27l-32 -158h-20zM204 -3q-63 0 -85.5 33t-22.5 98v334h-67v22h67v175l22 3v-178h195v-22h-195v-319q0 -64 16 -94t67 -30q54 0 102 32l6 -22q-48 -32 -105 -32z" />
    <glyph glyph-name="Tbar" unicode="&#x166;" horiz-adv-x="542" 
d="M517 687h-236v-298h123v-23h-123v-366h-23v366h-121v23h121v298h-233v23h492v-23z" />
    <glyph glyph-name="tbar" unicode="&#x167;" horiz-adv-x="354" 
d="M313 462h-195v-164h175v-22h-175v-133q0 -64 16 -94t67 -30q54 0 102 32l6 -22q-48 -32 -105 -32q-63 0 -85.5 33t-22.5 98v148h-51v22h51v164h-67v22h67v175l22 3v-178h195v-22z" />
    <glyph glyph-name="Utilde" unicode="&#x168;" horiz-adv-x="682" 
d="M420 795q-31 0 -87 41q-38 28 -64 28q-42 0 -64 -61l-21 6q26 77 84 77q28 0 78 -32q4 -3 16.5 -11.5t19.5 -13t17.5 -8.5t19.5 -4q19 0 35 15.5t25 46.5l21 -7q-11 -38 -33 -57.5t-47 -19.5zM341 -3q-117 0 -188.5 77t-71.5 209v427h23v-427q0 -123 65 -193t172 -70
t172.5 70t65.5 193v427h23v-427q0 -132 -72 -209t-189 -77z" />
    <glyph glyph-name="utilde" unicode="&#x169;" horiz-adv-x="532" 
d="M341 581q-6 0 -12 1t-11 2.5t-12 5t-10.5 5.5t-11.5 7t-10.5 6.5t-10.5 7.5t-10 7q-38 27 -63 27q-42 0 -64 -61l-21 6q26 77 84 77q32 0 77 -31q4 -3 17 -12l19.5 -13.5t17.5 -8.5t20 -4q19 0 35 15.5t25 46.5l21 -7q-11 -38 -33 -57.5t-47 -19.5zM252 -3
q-88 0 -135.5 57t-47.5 154v276h22v-265q0 -99 43 -149.5t118 -50.5q79 0 131.5 63t52.5 163v239h22v-484h-22v127h-1q-25 -61 -74 -95.5t-109 -34.5z" />
    <glyph glyph-name="Umacron" unicode="&#x16a;" horiz-adv-x="682" 
d="M209 835v23h267v-23h-267zM341 -3q-117 0 -188.5 77t-71.5 209v427h23v-427q0 -123 65 -193t172 -70t172.5 70t65.5 193v427h23v-427q0 -132 -72 -209t-189 -77z" />
    <glyph glyph-name="umacron" unicode="&#x16b;" horiz-adv-x="532" 
d="M130 619v23h267v-23h-267zM252 -3q-88 0 -135.5 57t-47.5 154v276h22v-265q0 -99 43 -149.5t118 -50.5q79 0 131.5 63t52.5 163v239h22v-484h-22v127h-1q-25 -61 -74 -95.5t-109 -34.5z" />
    <glyph glyph-name="Ubreve" unicode="&#x16c;" horiz-adv-x="682" 
d="M342 791q-48 0 -83 31.5t-39 81.5h21q3 -36 30.5 -63.5t70.5 -27.5t70.5 27.5t29.5 63.5h22q-4 -51 -39 -82t-83 -31zM341 -3q-117 0 -188.5 77t-71.5 209v427h23v-427q0 -123 65 -193t172 -70t172.5 70t65.5 193v427h23v-427q0 -132 -72 -209t-189 -77z" />
    <glyph glyph-name="ubreve" unicode="&#x16d;" horiz-adv-x="532" 
d="M263 561q-49 0 -83.5 33.5t-38.5 93.5h21q3 -46 30 -75.5t71 -29.5t71 29.5t29 75.5h22q-4 -60 -38.5 -93.5t-83.5 -33.5zM252 -3q-88 0 -135.5 57t-47.5 154v276h22v-265q0 -99 43 -149.5t118 -50.5q79 0 131.5 63t52.5 163v239h22v-484h-22v127h-1q-25 -61 -74 -95.5
t-109 -34.5z" />
    <glyph glyph-name="Uring" unicode="&#x16e;" horiz-adv-x="682" 
d="M342 785q-29 0 -51 22t-22 51q0 30 22 51.5t51 21.5q30 0 52 -21.5t22 -51.5q0 -29 -22 -51t-52 -22zM342 808q21 0 36.5 15t15.5 35q0 21 -15.5 36t-36.5 15t-36 -15t-15 -36q0 -20 15 -35t36 -15zM341 -3q-117 0 -188.5 77t-71.5 209v427h23v-427q0 -123 65 -193
t172 -70t172.5 70t65.5 193v427h23v-427q0 -132 -72 -209t-189 -77z" />
    <glyph glyph-name="uring" unicode="&#x16f;" horiz-adv-x="532" 
d="M263 555q-29 0 -51 22t-22 51q0 30 22 51.5t51 21.5q30 0 52 -21.5t22 -51.5q0 -29 -22 -51t-52 -22zM263 578q21 0 36.5 15t15.5 35q0 21 -15.5 36t-36.5 15t-36 -15t-15 -36q0 -20 15 -35t36 -15zM252 -3q-88 0 -135.5 57t-47.5 154v276h22v-265q0 -99 43 -149.5
t118 -50.5q79 0 131.5 63t52.5 163v239h22v-484h-22v127h-1q-25 -61 -74 -95.5t-109 -34.5z" />
    <glyph glyph-name="Uhungarumlaut" unicode="&#x170;" horiz-adv-x="682" 
d="M266 795l122 135h31l-124 -135h-29zM390 795l122 135h31l-125 -135h-28zM341 -3q-117 0 -188.5 77t-71.5 209v427h23v-427q0 -123 65 -193t172 -70t172.5 70t65.5 193v427h23v-427q0 -132 -72 -209t-189 -77z" />
    <glyph glyph-name="uhungarumlaut" unicode="&#x171;" horiz-adv-x="532" 
d="M187 561l122 135h31l-124 -135h-29zM311 561l122 135h31l-125 -135h-28zM252 -3q-88 0 -135.5 57t-47.5 154v276h22v-265q0 -99 43 -149.5t118 -50.5q79 0 131.5 63t52.5 163v239h22v-484h-22v127h-1q-25 -61 -74 -95.5t-109 -34.5z" />
    <glyph glyph-name="Uogonek" unicode="&#x172;" horiz-adv-x="682" 
d="M579 710h23v-427q0 -119 -59 -193.5t-158 -89.5q-35 -19 -56 -47t-21 -56q0 -54 61 -54q33 0 59 13l4 -23q-26 -13 -63 -13q-39 0 -61.5 19.5t-22.5 56.5q0 54 58 100v1h-2q-117 0 -188.5 77t-71.5 209v427h23v-427q0 -123 65 -193t172 -70t172.5 70t65.5 193v427z" />
    <glyph glyph-name="uogonek" unicode="&#x173;" horiz-adv-x="532" 
d="M499 -145l4 -23q-26 -13 -63 -13q-39 0 -61.5 19.5t-22.5 56.5q0 29 21 60t59 55v117h-1q-25 -61 -74 -95.5t-109 -34.5q-88 0 -135.5 57t-47.5 154v276h22v-265q0 -99 43 -149.5t118 -50.5q79 0 131.5 63t52.5 163v239h22v-484q-36 -19 -57.5 -47t-21.5 -57
q0 -54 61 -54q33 0 59 13z" />
    <glyph glyph-name="Wcircumflex" unicode="&#x174;" horiz-adv-x="991" 
d="M359 795l125 109h25l122 -109h-30l-104 92h-2l-107 -92h-29zM264 0l-230 710h25l219 -676h1l201 676h31l200 -676h1l220 676h25l-230 -710h-30l-201 677h-1l-202 -677h-29z" />
    <glyph glyph-name="wcircumflex" unicode="&#x175;" horiz-adv-x="752" 
d="M240 562l125 128h25l122 -128h-29l-104 110h-2l-108 -110h-29zM206 0l-172 484h24l159 -445h2l143 445h26l145 -445h2l159 445h24l-172 -484h-24l-145 451h-1l-147 -451h-23z" />
    <glyph glyph-name="Ycircumflex" unicode="&#x176;" horiz-adv-x="556" 
d="M142 795l125 109h25l122 -109h-30l-104 92h-2l-107 -92h-29zM266 0v323l-248 387h28l230 -361h2l232 361h28l-249 -387v-323h-23z" />
    <glyph glyph-name="ycircumflex" unicode="&#x177;" horiz-adv-x="506" 
d="M119 562l125 128h25l122 -128h-29l-104 110h-2l-108 -110h-29zM162 -198l86 203l-221 479h27l205 -450h1l190 450h27l-290 -682h-25z" />
    <glyph glyph-name="Ydieresis" unicode="&#x178;" horiz-adv-x="556" 
d="M205 828q-12 0 -20 8t-8 19q0 12 8 19.5t20 7.5q27 0 27 -27q0 -11 -7.5 -19t-19.5 -8zM352 828q-12 0 -20 8t-8 19q0 12 8 19.5t20 7.5q27 0 27 -27q0 -11 -7.5 -19t-19.5 -8zM266 0v323l-248 387h28l230 -361h2l232 361h28l-249 -387v-323h-23z" />
    <glyph glyph-name="Zacute" unicode="&#x179;" horiz-adv-x="588" 
d="M218 795l113 124h30l-114 -124h-29zM56 0v21l434 665l-1 1h-406v23h437v-23l-433 -663l1 -1h437v-23h-469z" />
    <glyph glyph-name="zacute" unicode="&#x17a;" horiz-adv-x="437" 
d="M209 561l123 135h31l-124 -135h-30zM29 0v22l342 439v1h-330v22h361v-20l-343 -441v-1h349v-22h-379z" />
    <glyph glyph-name="Zdotaccent" unicode="&#x17b;" horiz-adv-x="588" 
d="M288 828q-12 0 -20 8t-8 19q0 12 8 19.5t20 7.5q27 0 27 -27q0 -11 -7.5 -19t-19.5 -8zM56 0v21l434 665l-1 1h-406v23h437v-23l-433 -663l1 -1h437v-23h-469z" />
    <glyph glyph-name="zdotaccent" unicode="&#x17c;" horiz-adv-x="437" 
d="M216 606q-12 0 -20 8t-8 19q0 12 8 19.5t20 7.5q27 0 27 -27q0 -11 -7.5 -19t-19.5 -8zM29 0v22l342 439v1h-330v22h361v-20l-343 -441v-1h349v-22h-379z" />
    <glyph glyph-name="Zcaron" unicode="&#x17d;" horiz-adv-x="588" 
d="M274 795l-122 109h30l104 -92h2l107 92h29l-125 -109h-25zM56 0v21l434 665l-1 1h-406v23h437v-23l-433 -663l1 -1h437v-23h-469z" />
    <glyph glyph-name="zcaron" unicode="&#x17e;" horiz-adv-x="437" 
d="M201 562l-122 128h29l106 -110h2l106 110h29l-125 -128h-25zM29 0v22l342 439v1h-330v22h361v-20l-343 -441v-1h349v-22h-379z" />
    <glyph glyph-name="longs" unicode="&#x17f;" horiz-adv-x="285" 
d="M105 0v462h-68v22h68v118q0 69 31.5 103.5t85.5 34.5q48 0 95 -26l-4 -22q-45 26 -92 26q-42 0 -68 -28t-26 -88v-602h-22z" />
    <glyph glyph-name="uni018F" unicode="&#x18f;" horiz-adv-x="765" 
d="M358 714q157 0 251.5 -102.5t94.5 -256.5q0 -155 -93 -256.5t-238 -101.5q-137 0 -232 85.5t-95 242.5v13h633v17q-1 147 -88 241.5t-233 94.5q-135 0 -245 -91l-18 17q117 97 263 97zM373 20q125 0 209 82.5t95 212.5h-608q2 -133 87.5 -214t216.5 -81z" />
    <glyph glyph-name="florin" unicode="&#x192;" horiz-adv-x="505" 
d="M79 -91q-67 0 -111 39l15 18q35 -34 97 -34q94 0 108 121l53 390h-79l3 23h79l18 132q19 142 133 142q65 0 110 -39l-14 -17q-40 33 -97 33q-94 0 -110 -121l-16 -130h168l-3 -23h-169l-53 -391q-18 -143 -132 -143z" />
    <glyph glyph-name="uni019D" unicode="&#x19d;" horiz-adv-x="728" 
d="M615 710h23v-710h-23l-502 669h-1v-754q0 -116 -102 -116q-34 0 -62 14l2 23q25 -15 62 -15q77 0 77 94v795h23v-1l502 -669h1v670z" />
    <glyph glyph-name="Ohorn" unicode="&#x1a0;" horiz-adv-x="861" 
d="M788 774h22v-77q0 -78 -25 -111.5t-75 -37.5q50 -84 50 -192q0 -159 -100.5 -259t-246.5 -100q-149 0 -250 100t-101 259q0 158 101 258t250 100q87 0 162 -38t122 -107q46 2 68.5 29t22.5 98v78zM413 20q136 0 229.5 94t93.5 242t-93.5 241.5t-229.5 93.5
q-138 0 -232.5 -93.5t-94.5 -241.5q0 -149 94 -242.5t233 -93.5z" />
    <glyph glyph-name="ohorn" unicode="&#x1a1;" horiz-adv-x="646" 
d="M593 565h22v-77q0 -78 -25 -111.5t-76 -37.5q18 -43 18 -97q0 -108 -70 -176.5t-172 -68.5q-107 0 -175 71t-68 174q0 102 68.5 174t174.5 72q70 0 127 -34.5t88 -93.5q44 2 66 29.5t22 97.5v78zM290 19q93 0 156 62.5t63 160.5t-63.5 161t-155.5 63q-97 0 -158.5 -65
t-61.5 -159t61 -158.5t159 -64.5z" />
    <glyph glyph-name="Uhorn" unicode="&#x1af;" horiz-adv-x="738" 
d="M691 774h22v-77q0 -82 -27.5 -115t-83.5 -35v-264q0 -132 -72 -209t-189 -77t-188.5 77t-71.5 209v427h23v-427q0 -123 65 -193t172 -70t172.5 70t65.5 193v427h23v-141q45 2 67 29.5t22 97.5v78z" />
    <glyph glyph-name="uhorn" unicode="&#x1b0;" horiz-adv-x="599" 
d="M546 565h22v-77q0 -81 -27 -114.5t-83 -35.5v-338h-22v127h-1q-25 -61 -74 -95.5t-109 -34.5q-88 0 -135.5 57t-47.5 154v276h22v-265q0 -99 43 -149.5t118 -50.5q79 0 131.5 63t52.5 163v239h22v-124q45 2 66.5 29.5t21.5 97.5v78z" />
    <glyph glyph-name="uni01CD" unicode="&#x1cd;" horiz-adv-x="640" 
d="M306 795l-122 109h30l104 -92h2l107 92h29l-125 -109h-25zM29 0l275 710h29l278 -710h-25l-83 211h-367l-82 -211h-25zM145 234h349l-174 448h-2z" />
    <glyph glyph-name="uni01CE" unicode="&#x1ce;" horiz-adv-x="591" 
d="M273 562l-122 128h29l106 -110h2l106 110h29l-125 -128h-25zM285 -3q-101 0 -170.5 67t-69.5 173t67.5 178.5t173.5 72.5q69 0 125 -38t83 -103h1v137h22v-484h-22v133h-1q-27 -62 -82 -99t-127 -37zM285 19q89 0 149.5 61t60.5 157t-58.5 162.5t-150.5 66.5t-155 -64
t-63 -165q0 -92 60.5 -155t156.5 -63z" />
    <glyph glyph-name="uni01CF" unicode="&#x1cf;" horiz-adv-x="215" 
d="M94 795l-122 109h30l104 -92h2l107 92h29l-125 -109h-25zM96 0v710h23v-710h-23z" />
    <glyph glyph-name="uni01D0" unicode="&#x1d0;" horiz-adv-x="195" 
d="M84 562l-122 128h29l106 -110h2l106 110h29l-125 -128h-25zM86 0v484h22v-484h-22z" />
    <glyph glyph-name="uni01D1" unicode="&#x1d1;" horiz-adv-x="822" 
d="M398 795l-122 109h30l104 -92h2l107 92h29l-125 -109h-25zM413 -3q-149 0 -250 100t-101 259q0 158 101 258t250 100q146 0 246.5 -100t100.5 -258q0 -159 -100.5 -259t-246.5 -100zM413 20q136 0 229.5 94t93.5 242t-93.5 241.5t-229.5 93.5q-138 0 -232.5 -93.5
t-94.5 -241.5q0 -149 94 -242.5t233 -93.5z" />
    <glyph glyph-name="uni01D2" unicode="&#x1d2;" horiz-adv-x="579" 
d="M277 562l-122 128h29l106 -110h2l106 110h29l-125 -128h-25zM290 -3q-107 0 -175 71t-68 174q0 102 68.5 174t174.5 72q102 0 172 -69t70 -177t-70 -176.5t-172 -68.5zM290 19q93 0 156 62.5t63 160.5t-63.5 161t-155.5 63q-97 0 -158.5 -65t-61.5 -159t61 -158.5
t159 -64.5z" />
    <glyph glyph-name="uni01D3" unicode="&#x1d3;" horiz-adv-x="682" 
d="M328 795l-122 109h30l104 -92h2l107 92h29l-125 -109h-25zM341 -3q-117 0 -188.5 77t-71.5 209v427h23v-427q0 -123 65 -193t172 -70t172.5 70t65.5 193v427h23v-427q0 -132 -72 -209t-189 -77z" />
    <glyph glyph-name="uni01D4" unicode="&#x1d4;" horiz-adv-x="532" 
d="M249 562l-122 128h29l106 -110h2l106 110h29l-125 -128h-25zM252 -3q-88 0 -135.5 57t-47.5 154v276h22v-265q0 -99 43 -149.5t118 -50.5q79 0 131.5 63t52.5 163v239h22v-484h-22v127h-1q-25 -61 -74 -95.5t-109 -34.5z" />
    <glyph glyph-name="uni01D5" unicode="&#x1d5;" horiz-adv-x="682" 
d="M209 953v23h267v-23h-267zM268 816q-12 0 -20 8t-8 19q0 12 8 19.5t20 7.5q27 0 27 -27q0 -11 -7.5 -19t-19.5 -8zM415 816q-12 0 -20 8t-8 19q0 12 8 19.5t20 7.5q27 0 27 -27q0 -11 -7.5 -19t-19.5 -8zM341 -3q-117 0 -188.5 77t-71.5 209v427h23v-427q0 -123 65 -193
t172 -70t172.5 70t65.5 193v427h23v-427q0 -132 -72 -209t-189 -77z" />
    <glyph glyph-name="uni01D6" unicode="&#x1d6;" horiz-adv-x="532" 
d="M130 758v23h267v-23h-267zM189 606q-12 0 -20 8t-8 19q0 12 8 19.5t20 7.5q27 0 27 -27q0 -11 -7.5 -19t-19.5 -8zM336 606q-12 0 -20 8t-8 19q0 12 8 19.5t20 7.5q27 0 27 -27q0 -11 -7.5 -19t-19.5 -8zM252 -3q-88 0 -135.5 57t-47.5 154v276h22v-265q0 -99 43 -149.5
t118 -50.5q79 0 131.5 63t52.5 163v239h22v-484h-22v127h-1q-25 -61 -74 -95.5t-109 -34.5z" />
    <glyph glyph-name="uni01D7" unicode="&#x1d7;" horiz-adv-x="682" 
d="M332 891l123 135h31l-125 -135h-29zM268 816q-12 0 -20 8t-8 19q0 12 8 19.5t20 7.5q27 0 27 -27q0 -11 -7.5 -19t-19.5 -8zM415 816q-12 0 -20 8t-8 19q0 12 8 19.5t20 7.5q27 0 27 -27q0 -11 -7.5 -19t-19.5 -8zM341 -3q-117 0 -188.5 77t-71.5 209v427h23v-427
q0 -123 65 -193t172 -70t172.5 70t65.5 193v427h23v-427q0 -132 -72 -209t-189 -77z" />
    <glyph glyph-name="uni01D8" unicode="&#x1d8;" horiz-adv-x="532" 
d="M245 693l123 135h31l-124 -135h-30zM189 606q-12 0 -20 8t-8 19q0 12 8 19.5t20 7.5q27 0 27 -27q0 -11 -7.5 -19t-19.5 -8zM336 606q-12 0 -20 8t-8 19q0 12 8 19.5t20 7.5q27 0 27 -27q0 -11 -7.5 -19t-19.5 -8zM252 -3q-88 0 -135.5 57t-47.5 154v276h22v-265
q0 -99 43 -149.5t118 -50.5q79 0 131.5 63t52.5 163v239h22v-484h-22v127h-1q-25 -61 -74 -95.5t-109 -34.5z" />
    <glyph glyph-name="uni01D9" unicode="&#x1d9;" horiz-adv-x="682" 
d="M335 915l-122 109h30l104 -92h2l107 92h29l-125 -109h-25zM268 816q-12 0 -20 8t-8 19q0 12 8 19.5t20 7.5q27 0 27 -27q0 -11 -7.5 -19t-19.5 -8zM415 816q-12 0 -20 8t-8 19q0 12 8 19.5t20 7.5q27 0 27 -27q0 -11 -7.5 -19t-19.5 -8zM341 -3q-117 0 -188.5 77
t-71.5 209v427h23v-427q0 -123 65 -193t172 -70t172.5 70t65.5 193v427h23v-427q0 -132 -72 -209t-189 -77z" />
    <glyph glyph-name="uni01DA" unicode="&#x1da;" horiz-adv-x="532" 
d="M249 707l-122 128h29l106 -110h2l106 110h29l-125 -128h-25zM189 606q-12 0 -20 8t-8 19q0 12 8 19.5t20 7.5q27 0 27 -27q0 -11 -7.5 -19t-19.5 -8zM336 606q-12 0 -20 8t-8 19q0 12 8 19.5t20 7.5q27 0 27 -27q0 -11 -7.5 -19t-19.5 -8zM252 -3q-88 0 -135.5 57
t-47.5 154v276h22v-265q0 -99 43 -149.5t118 -50.5q79 0 131.5 63t52.5 163v239h22v-484h-22v127h-1q-25 -61 -74 -95.5t-109 -34.5z" />
    <glyph glyph-name="uni01DB" unicode="&#x1db;" horiz-adv-x="682" 
d="M329 891l-125 135h31l123 -135h-29zM268 816q-12 0 -20 8t-8 19q0 12 8 19.5t20 7.5q27 0 27 -27q0 -11 -7.5 -19t-19.5 -8zM415 816q-12 0 -20 8t-8 19q0 12 8 19.5t20 7.5q27 0 27 -27q0 -11 -7.5 -19t-19.5 -8zM341 -3q-117 0 -188.5 77t-71.5 209v427h23v-427
q0 -123 65 -193t172 -70t172.5 70t65.5 193v427h23v-427q0 -132 -72 -209t-189 -77z" />
    <glyph glyph-name="uni01DC" unicode="&#x1dc;" horiz-adv-x="532" 
d="M287 693h-30l-124 135h31zM189 606q-12 0 -20 8t-8 19q0 12 8 19.5t20 7.5q27 0 27 -27q0 -11 -7.5 -19t-19.5 -8zM336 606q-12 0 -20 8t-8 19q0 12 8 19.5t20 7.5q27 0 27 -27q0 -11 -7.5 -19t-19.5 -8zM252 -3q-88 0 -135.5 57t-47.5 154v276h22v-265q0 -99 43 -149.5
t118 -50.5q79 0 131.5 63t52.5 163v239h22v-484h-22v127h-1q-25 -61 -74 -95.5t-109 -34.5z" />
    <glyph glyph-name="Gcaron" unicode="&#x1e6;" horiz-adv-x="760" 
d="M390 795l-122 109h30l104 -92h2l107 92h29l-125 -109h-25zM409 -3q-153 0 -250 99.5t-97 257.5q0 160 97 260t250 100q156 0 258 -99l-16 -16q-96 92 -242 92q-144 0 -233.5 -93.5t-89.5 -243.5q0 -148 90 -241t233 -93q155 0 250 81v217h-269v23h292v-251
q-104 -93 -273 -93z" />
    <glyph glyph-name="gcaron" unicode="&#x1e7;" 
d="M268 562l-122 128h29l106 -110h2l106 110h29l-125 -128h-25zM292 -201q-106 0 -198 56l7 23q90 -57 192 -57q98 0 148 52.5t50 141.5v131h-1q-26 -62 -80 -98t-129 -36q-99 0 -166.5 66.5t-67.5 174.5q0 99 65.5 167t169.5 68q70 0 125.5 -35t82.5 -95h1v126h22v-474
q0 -97 -57 -154t-164 -57zM281 34q96 0 153 62t57 157q0 94 -59.5 153.5t-149.5 59.5q-94 0 -153 -61.5t-59 -151.5q0 -98 60.5 -158.5t150.5 -60.5z" />
    <glyph glyph-name="uni01EA" unicode="&#x1ea;" horiz-adv-x="822" 
d="M441 -2q-34 -19 -54.5 -46.5t-20.5 -55.5q0 -54 61 -54q33 0 59 13l4 -23q-26 -13 -63 -13q-39 0 -61.5 19.5t-22.5 56.5q0 56 60 101v1q-145 4 -243 103.5t-98 255.5q0 158 101 258t250 100q146 0 246.5 -100t100.5 -258q0 -150 -91.5 -248.5t-227.5 -109.5zM86 356
q0 -149 94 -242.5t233 -93.5q136 0 229.5 94t93.5 242t-93.5 241.5t-229.5 93.5q-138 0 -232.5 -93.5t-94.5 -241.5z" />
    <glyph glyph-name="uni01EB" unicode="&#x1eb;" horiz-adv-x="579" 
d="M315 -2q-35 -19 -55.5 -46.5t-20.5 -55.5q0 -54 61 -54q33 0 59 13l4 -23q-26 -13 -63 -13q-39 0 -61.5 19.5t-22.5 56.5q0 56 60 101v1q-101 5 -165 75.5t-64 169.5q0 102 68.5 174t174.5 72q102 0 172 -69t70 -177q0 -101 -62 -168.5t-155 -75.5zM70 242
q0 -94 61 -158.5t159 -64.5q93 0 156 62.5t63 160.5t-63.5 161t-155.5 63q-97 0 -158.5 -65t-61.5 -159z" />
    <glyph glyph-name="Aringacute" unicode="&#x1fa;" horiz-adv-x="640" 
d="M320 785q-29 0 -51 22t-22 51q0 30 22 51.5t51 21.5q42 0 64 -37l92 58h39l-123 -79q2 -10 2 -15q0 -29 -22 -51t-52 -22zM320 909q-21 0 -36 -15t-15 -36q0 -20 15 -35t36 -15t36.5 15t15.5 35q0 21 -15.5 36t-36.5 15zM333 710l278 -710h-25l-83 211h-367l-82 -211h-25
l275 710h29zM145 234h349l-174 448h-2z" />
    <glyph glyph-name="aringacute" unicode="&#x1fb;" horiz-adv-x="591" 
d="M287 555q-29 0 -51 22t-22 51q0 30 22 51.5t51 21.5q37 0 60 -31l91 58h39l-120 -77q4 -9 4 -23q0 -29 -22 -51t-52 -22zM287 679q-21 0 -36 -15t-15 -36q0 -20 15 -35t36 -15t36.5 15t15.5 35q0 21 -15.5 36t-36.5 15zM495 484h22v-484h-22v133h-1q-27 -62 -82 -99
t-127 -37q-101 0 -170.5 67t-69.5 173t67.5 178.5t173.5 72.5q69 0 125 -38t83 -103h1v137zM285 19q89 0 149.5 61t60.5 157t-58.5 162.5t-150.5 66.5t-155 -64t-63 -165q0 -92 60.5 -155t156.5 -63z" />
    <glyph glyph-name="AEacute" unicode="&#x1fc;" horiz-adv-x="900" 
d="M432 795l113 124h30l-114 -124h-29zM5 0l412 710h428v-23h-389v-321h330v-23h-330v-320h409v-23h-432v211h-277l-123 -211h-28zM169 234h264v453h-1z" />
    <glyph glyph-name="aeacute" unicode="&#x1fd;" horiz-adv-x="792" 
d="M512 696l-124 -135h-30l123 135h31zM744 255v-12h-363q3 -105 51.5 -164.5t129.5 -59.5q53 0 85 19.5t62 61.5l17 -13q-31 -45 -68.5 -67.5t-93.5 -22.5q-76 0 -122 40.5t-65 102.5h-1q-15 -66 -67.5 -104.5t-123.5 -38.5t-109.5 39.5t-38.5 97.5q0 57 43 93.5t129 36.5
l151 1v24q0 97 -25.5 136.5t-91.5 39.5q-80 0 -153 -42l-11 19q77 46 164 46q66 0 97.5 -33.5t38.5 -102.5h1q21 63 67 99.5t110 36.5q80 0 133.5 -66.5t53.5 -166.5zM382 265h339q-5 91 -49 146t-115 55q-76 0 -122 -55.5t-53 -145.5zM185 19q74 0 124.5 46t50.5 129v49
l-151 -1q-65 0 -107 -28t-42 -80q0 -48 32.5 -81.5t92.5 -33.5z" />
    <glyph glyph-name="Oslashacute" unicode="&#x1fe;" horiz-adv-x="822" 
d="M522 919l-114 -124h-29l113 124h30zM664 609q96 -99 96 -253q0 -159 -100.5 -259t-246.5 -100q-140 0 -238 89l-89 -96l-19 16l91 97q-96 99 -96 253q0 158 101 258t250 100q138 0 235 -89l81 86l17 -15zM86 356q0 -143 88 -236l458 488q-91 83 -219 83
q-138 0 -232.5 -93.5t-94.5 -241.5zM413 20q136 0 229.5 94t93.5 242q0 142 -88 235l-456 -488q91 -83 221 -83z" />
    <glyph glyph-name="oslashacute" unicode="&#x1ff;" horiz-adv-x="579" 
d="M429 696l-124 -135h-30l123 135h31zM532 477l-63 -66q63 -69 63 -169q0 -108 -70 -176.5t-172 -68.5q-93 0 -160 57l-61 -64l-19 16l62 65q-65 71 -65 171q0 102 68.5 174t174.5 72q94 0 163 -60l61 64zM70 242q0 -91 58 -155l309 324q-61 55 -147 55q-97 0 -158.5 -65
t-61.5 -159zM509 242q0 90 -55 153l-309 -325q59 -51 145 -51q93 0 156 62.5t63 160.5z" />
    <glyph glyph-name="Scommaaccent" unicode="&#x218;" horiz-adv-x="558" 
d="M282 -3q-149 0 -239 107l18 18q37 -50 96.5 -76t126.5 -26q83 0 140 40.5t57 113.5q0 20 -5 37.5t-11 30t-20.5 25.5t-24 20t-31.5 18t-32.5 15.5t-38.5 15.5t-38 15q-36 14 -51 21t-45.5 21.5t-45 27.5t-32 32.5t-25 42.5t-7.5 51q0 73 56.5 120t145.5 47q113 0 203 -74
l-16 -19q-86 70 -186 70q-72 0 -125.5 -38.5t-53.5 -105.5q0 -36 14.5 -63t47 -48.5t56.5 -32.5t71 -30q8 -3 33 -13t33.5 -13.5t30 -13t29.5 -14.5t25 -15.5t23.5 -19t17 -21t15 -25.5t8 -29.5t3.5 -34.5q0 -77 -59.5 -127t-163.5 -50zM214 -199l-8 18q40 2 54 20.5
t14 49.5q0 26 -5 56h22q5 -28 5 -55q0 -84 -82 -89z" />
    <glyph glyph-name="scommaaccent" unicode="&#x219;" horiz-adv-x="415" 
d="M211 -3q-102 0 -177 67l13 18q71 -63 164 -63q64 0 102 30t38 73q0 16 -3 28.5t-13 23t-16.5 17t-25.5 15t-26.5 12t-34 12.5t-34.5 12q-36 13 -56 22t-42.5 24.5t-32.5 36t-10 47.5q0 49 40 82.5t99 33.5q91 0 158 -58l-15 -16q-60 51 -142 51q-50 0 -83.5 -27
t-33.5 -64q0 -23 9 -40.5t29 -30.5t36 -20.5t47 -18.5q8 -3 29 -10.5l28 -10t24.5 -9t23.5 -10.5t19 -11.5t18 -13t13 -14.5t10.5 -18.5t5 -21.5t2.5 -25q-1 -52 -44.5 -87.5t-118.5 -35.5zM129 -199l-8 18q40 2 54 20.5t14 49.5q0 26 -5 56h22q5 -28 5 -55q0 -84 -82 -89z
" />
    <glyph glyph-name="uni021A" unicode="&#x21a;" horiz-adv-x="542" 
d="M258 0v687h-233v23h492v-23h-236v-687h-23zM205 -199l-8 18q40 2 54 20.5t14 49.5q0 26 -5 56h22q5 -28 5 -55q0 -84 -82 -89z" />
    <glyph glyph-name="uni021B" unicode="&#x21b;" horiz-adv-x="354" 
d="M204 -3q-63 0 -85.5 33t-22.5 98v334h-67v22h67v175l22 3v-178h195v-22h-195v-319q0 -64 16 -94t67 -30q54 0 102 32l6 -22q-48 -32 -105 -32zM123 -199l-8 18q40 2 54 20.5t14 49.5q0 26 -5 56h22q5 -28 5 -55q0 -84 -82 -89z" />
    <glyph glyph-name="uni0232" unicode="&#x232;" horiz-adv-x="556" 
d="M145 835v23h267v-23h-267zM266 0v323l-248 387h28l230 -361h2l232 361h28l-249 -387v-323h-23z" />
    <glyph glyph-name="uni0233" unicode="&#x233;" horiz-adv-x="506" 
d="M122 619v23h267v-23h-267zM162 -198l86 203l-221 479h27l205 -450h1l190 450h27l-290 -682h-25z" />
    <glyph glyph-name="uni0237" unicode="&#x237;" horiz-adv-x="176" 
d="M4 -201q-35 0 -63 14l3 24q27 -16 62 -16q77 0 77 94v569h22v-569q0 -116 -101 -116z" />
    <glyph glyph-name="uni0251" unicode="&#x251;" horiz-adv-x="591" 
d="M285 -3q-101 0 -170.5 67t-69.5 173t67.5 178.5t173.5 72.5q69 0 125 -38t83 -103h1v137h22v-484h-22v133h-1q-27 -62 -82 -99t-127 -37zM285 19q89 0 149.5 61t60.5 157t-58.5 162.5t-150.5 66.5t-155 -64t-63 -165q0 -92 60.5 -155t156.5 -63z" />
    <glyph glyph-name="uni0259" unicode="&#x259;" horiz-adv-x="537" 
d="M255 488q103 0 169 -69.5t66 -175.5q0 -109 -60 -177.5t-166 -68.5q-98 0 -158.5 64t-61.5 163q0 10 2 18h421v1q0 97 -60 160t-152 63q-86 0 -160 -44l-11 18q80 48 171 48zM264 19q90 0 143 54.5t59 146.5h-399q2 -91 56.5 -146t140.5 -55z" />
    <glyph glyph-name="uni0261" unicode="&#x261;" 
d="M292 -201q-106 0 -198 56l7 23q90 -57 192 -57q98 0 148 52.5t50 141.5v131h-1q-26 -62 -80 -98t-129 -36q-99 0 -166.5 66.5t-67.5 174.5q0 99 65.5 167t169.5 68q70 0 125.5 -35t82.5 -95h1v126h22v-474q0 -97 -57 -154t-164 -57zM281 34q96 0 153 62t57 157
q0 94 -59.5 153.5t-149.5 59.5q-94 0 -153 -61.5t-59 -151.5q0 -98 60.5 -158.5t150.5 -60.5z" />
    <glyph glyph-name="uni0272" unicode="&#x272;" horiz-adv-x="543" 
d="M306 488q77 0 122 -51.5t45 -144.5v-292h-22v281q0 95 -40 140t-105 45q-91 0 -147 -62.5t-56 -164.5v-324q0 -116 -101 -116q-35 0 -63 14l3 22q25 -14 62 -14q77 0 77 94v569h22v-128h1q26 62 79 97t123 35z" />
    <glyph glyph-name="uni02BB" unicode="&#x2bb;" horiz-adv-x="155" 
d="M67 443l7 217h19v-217h-26z" />
    <glyph glyph-name="uni02BC" unicode="&#x2bc;" horiz-adv-x="112" 
d="M29 542l25 168h26l-31 -168h-20z" />
    <glyph glyph-name="uni02BE" unicode="&#x2be;" horiz-adv-x="192" 
d="M41 482l-3 20q46 3 76 30.5t30 71.5q0 45 -30 72t-76 29l3 21q58 -4 91 -39t33 -83q0 -49 -33 -83.5t-91 -38.5z" />
    <glyph glyph-name="uni02BF" unicode="&#x2bf;" horiz-adv-x="213" 
d="M172 482q-58 4 -91 38.5t-33 83.5q0 48 33 83t91 39l3 -21q-46 -2 -76 -29t-30 -72q0 -44 30 -71.5t76 -30.5z" />
    <glyph glyph-name="circumflex" unicode="&#x2c6;" horiz-adv-x="530" 
d="M129 549l125 128h25l122 -128h-29l-104 110h-2l-108 -110h-29z" />
    <glyph glyph-name="caron" unicode="&#x2c7;" horiz-adv-x="530" 
d="M251 549l-122 128h29l106 -110h2l106 110h29l-125 -128h-25z" />
    <glyph glyph-name="uni02C8" unicode="&#x2c8;" horiz-adv-x="155" 
d="M66 674h23v-267h-23v267z" />
    <glyph glyph-name="uni02C9" unicode="&#x2c9;" horiz-adv-x="403" 
d="M68 619v23h267v-23h-267z" />
    <glyph glyph-name="uni02CA" unicode="&#x2ca;" horiz-adv-x="284" 
d="M80 561l123 135h31l-124 -135h-30z" />
    <glyph glyph-name="uni02CB" unicode="&#x2cb;" horiz-adv-x="283" 
d="M174 565l-114 127h30l113 -127h-29z" />
    <glyph glyph-name="uni02CC" unicode="&#x2cc;" horiz-adv-x="155" 
d="M66 129h23v-267h-23v267z" />
    <glyph glyph-name="breve" unicode="&#x2d8;" horiz-adv-x="478" 
d="M239 548q-49 0 -83.5 33.5t-38.5 93.5h21q3 -46 30 -75.5t71 -29.5t71 29.5t29 75.5h22q-4 -60 -38.5 -93.5t-83.5 -33.5z" />
    <glyph glyph-name="dotaccent" unicode="&#x2d9;" horiz-adv-x="481" 
d="M241 593q-12 0 -20 8t-8 19q0 12 8 19.5t20 7.5q27 0 27 -27q0 -11 -7.5 -19t-19.5 -8z" />
    <glyph glyph-name="ring" unicode="&#x2da;" horiz-adv-x="433" 
d="M216 542q-29 0 -51 22t-22 51q0 30 22 51.5t51 21.5q30 0 52 -21.5t22 -51.5q0 -29 -22 -51t-52 -22zM216 565q21 0 36.5 15t15.5 35q0 21 -15.5 36t-36.5 15t-36 -15t-15 -36q0 -20 15 -35t36 -15z" />
    <glyph glyph-name="ogonek" unicode="&#x2db;" horiz-adv-x="467" 
d="M270 -181q-39 0 -61.5 19.5t-22.5 56.5q0 31 22.5 63t64.5 56l15 -14q-36 -19 -57.5 -47t-21.5 -57q0 -54 61 -54q33 0 59 13l4 -23q-26 -13 -63 -13z" />
    <glyph glyph-name="tilde" unicode="&#x2dc;" horiz-adv-x="528" 
d="M342 568q-6 0 -12 1t-11 2.5t-12 5t-10.5 5.5t-11.5 7t-10.5 6.5t-10.5 7.5t-10 7q-38 27 -63 27q-42 0 -64 -61l-21 6q26 77 84 77q32 0 77 -31q4 -3 17 -12l19.5 -13.5t17.5 -8.5t20 -4q19 0 35 15.5t25 46.5l21 -7q-11 -38 -33 -57.5t-47 -19.5z" />
    <glyph glyph-name="hungarumlaut" unicode="&#x2dd;" horiz-adv-x="519" 
d="M120 548l122 135h31l-124 -135h-29zM244 548l122 135h31l-125 -135h-28z" />
    <glyph glyph-name="gravecomb" unicode="&#x300;" horiz-adv-x="0" 
d="M-463 552l-114 127h30l113 -127h-29z" />
    <glyph glyph-name="acutecomb" unicode="&#x301;" horiz-adv-x="0" 
d="M-569 548l123 135h31l-124 -135h-30z" />
    <glyph glyph-name="uni0302" unicode="&#x302;" horiz-adv-x="0" 
d="M-636 549l125 128h25l122 -128h-29l-104 110h-2l-108 -110h-29z" />
    <glyph glyph-name="tildecomb" unicode="&#x303;" horiz-adv-x="0" 
d="M-422 568q-6 0 -12 1t-11 2.5t-12 5t-10.5 5.5t-11.5 7t-10.5 6.5t-10.5 7.5t-10 7q-38 27 -63 27q-42 0 -64 -61l-21 6q26 77 84 77q32 0 77 -31q4 -3 17 -12l19.5 -13.5t17.5 -8.5t20 -4q19 0 35 15.5t25 46.5l21 -7q-11 -38 -33 -57.5t-47 -19.5z" />
    <glyph glyph-name="uni0304" unicode="&#x304;" horiz-adv-x="0" 
d="M-633 606v23h267v-23h-267z" />
    <glyph glyph-name="uni0306" unicode="&#x306;" horiz-adv-x="0" 
d="M-500 548q-49 0 -83.5 33.5t-38.5 93.5h21q3 -46 30 -75.5t71 -29.5t71 29.5t29 75.5h22q-4 -60 -38.5 -93.5t-83.5 -33.5z" />
    <glyph glyph-name="uni0307" unicode="&#x307;" horiz-adv-x="0" 
d="M-499 593q-12 0 -20 8t-8 19q0 12 8 19.5t20 7.5q27 0 27 -27q0 -11 -7.5 -19t-19.5 -8z" />
    <glyph glyph-name="uni0308" unicode="&#x308;" horiz-adv-x="0" 
d="M-575 593q-12 0 -20 8t-8 19q0 12 8 19.5t20 7.5q27 0 27 -27q0 -11 -7.5 -19t-19.5 -8zM-428 593q-12 0 -20 8t-8 19q0 12 8 19.5t20 7.5q27 0 27 -27q0 -11 -7.5 -19t-19.5 -8z" />
    <glyph glyph-name="hookabovecomb" unicode="&#x309;" horiz-adv-x="0" 
d="M-523 542q3 2 14.5 10t15.5 11t14.5 10.5t15.5 12t13 11.5t12 12.5t8.5 12.5t6.5 13.5t2 13.5q0 44 -60 44q-26 0 -51.5 -9t-38.5 -22l-6 24q45 29 96 29q37 0 59.5 -16.5t22.5 -51.5q0 -9 -3 -18.5t-10 -19t-12 -16t-16.5 -16t-16 -13t-17.5 -12.5t-14 -10h-35z" />
    <glyph glyph-name="uni030A" unicode="&#x30a;" horiz-adv-x="0" 
d="M-500 542q-29 0 -51 22t-22 51q0 30 22 51.5t51 21.5q30 0 52 -21.5t22 -51.5q0 -29 -22 -51t-52 -22zM-500 565q21 0 36.5 15t15.5 35q0 21 -15.5 36t-36.5 15t-36 -15t-15 -36q0 -20 15 -35t36 -15z" />
    <glyph glyph-name="uni030B" unicode="&#x30b;" horiz-adv-x="0" 
d="M-576 548l122 135h31l-124 -135h-29zM-452 548l122 135h31l-125 -135h-28z" />
    <glyph glyph-name="uni030C" unicode="&#x30c;" horiz-adv-x="0" 
d="M-514 549l-122 128h29l106 -110h2l106 110h29l-125 -128h-25z" />
    <glyph glyph-name="uni0312" unicode="&#x312;" horiz-adv-x="0" 
d="M-498 539q-5 28 -5 55q0 84 82 89l8 -18q-40 -2 -54 -20.5t-14 -49.5q0 -26 5 -56h-22z" />
    <glyph glyph-name="uni0313" unicode="&#x313;" horiz-adv-x="0" 
d="M-479 683q5 -28 5 -55q0 -84 -82 -89l-8 18q40 2 54 20.5t14 49.5q0 26 -5 56h22z" />
    <glyph glyph-name="uni031B" unicode="&#x31b;" horiz-adv-x="0" 
d="M-498 483v22q50 0 73.5 26.5t23.5 100.5v78h22v-77q0 -84 -29.5 -117t-89.5 -33z" />
    <glyph glyph-name="dotbelowcomb" unicode="&#x323;" horiz-adv-x="0" 
d="M-500 -124q12 0 20 -8t8 -19q0 -12 -8 -19.5t-20 -7.5q-27 0 -27 27q0 11 7.5 19t19.5 8z" />
    <glyph glyph-name="uni0324" unicode="&#x324;" horiz-adv-x="0" 
d="M-574 -124q12 0 20 -8t8 -19q0 -12 -8 -19.5t-20 -7.5q-27 0 -27 27q0 11 7.5 19t19.5 8zM-427 -124q12 0 20 -8t8 -19q0 -12 -8 -19.5t-20 -7.5q-27 0 -27 27q0 11 7.5 19t19.5 8z" />
    <glyph glyph-name="uni0326" unicode="&#x326;" horiz-adv-x="0" 
d="M-579 -199l-8 18q40 2 54 20.5t14 49.5q0 26 -5 56h22q5 -28 5 -55q0 -84 -82 -89z" />
    <glyph glyph-name="uni0327" unicode="&#x327;" horiz-adv-x="0" 
d="M-525 -184q-27 0 -49 6v23q23 -7 45 -7q28 0 47 13t19 38q0 23 -21.5 40t-60.5 17l1 19l19 41h22l-17 -40v-1q32 -2 56 -22.5t24 -54.5q0 -30 -22.5 -51t-62.5 -21z" />
    <glyph glyph-name="uni0328" unicode="&#x328;" horiz-adv-x="0" 
d="M-518 -181q-39 0 -61.5 19.5t-22.5 56.5q0 31 22.5 63t64.5 56l15 -14q-36 -19 -57.5 -47t-21.5 -57q0 -54 61 -54q33 0 59 13l4 -23q-26 -13 -63 -13z" />
    <glyph glyph-name="uni032E" unicode="&#x32e;" horiz-adv-x="0" 
d="M-500 -207q-49 0 -83.5 33.5t-38.5 93.5h22q2 -46 29 -75.5t71 -29.5t71 29.5t30 75.5h21q-4 -60 -38.5 -93.5t-83.5 -33.5z" />
    <glyph glyph-name="uni0331" unicode="&#x331;" horiz-adv-x="0" 
d="M-366 -170h-267v23h267v-23z" />
    <glyph glyph-name="uni0335" unicode="&#x335;" horiz-adv-x="0" 
d="M-621 276v22h248v-22h-248z" />
    <glyph glyph-name="uni0400" unicode="&#x400;" horiz-adv-x="565" 
d="M323 795l-114 124h30l113 -124h-29zM89 0v710h412v-23h-389v-320h327v-23h-327v-321h410v-23h-433z" />
    <glyph glyph-name="uni0401" unicode="&#x401;" horiz-adv-x="565" 
d="M211 846q-12 0 -20 8t-8 19q0 12 8 19.5t20 7.5q27 0 27 -27q0 -11 -7.5 -19t-19.5 -8zM358 846q-12 0 -20 8t-8 19q0 12 8 19.5t20 7.5q27 0 27 -27q0 -11 -7.5 -19t-19.5 -8zM89 0v710h412v-23h-389v-320h327v-23h-327v-321h410v-23h-433z" />
    <glyph glyph-name="uni0402" unicode="&#x402;" horiz-adv-x="793" 
d="M492 425q122 0 186 -57t64 -160q0 -100 -61.5 -156t-168.5 -56q-52 0 -103 7l2 23q48 -7 101 -7q96 0 151 50t55 139q0 93 -58 143.5t-168 50.5q-121 0 -221 -49v-353h-23v687h-233v23h492v-23h-236v-309q105 47 221 47z" />
    <glyph glyph-name="uni0403" unicode="&#x403;" horiz-adv-x="520" 
d="M216 795l113 124h30l-114 -124h-29zM89 0v710h412v-23h-389v-687h-23z" />
    <glyph glyph-name="uni0404" unicode="&#x404;" horiz-adv-x="714" 
d="M660 136l19 -15q-106 -124 -271 -124q-149 0 -247.5 94.5t-98.5 260.5q0 157 91.5 259.5t253.5 102.5q156 0 262 -115l-19 -16q-97 108 -243 108q-148 0 -232 -90.5t-89 -233.5h444v-23h-444q3 -153 93.5 -238.5t228.5 -85.5q154 0 252 116z" />
    <glyph glyph-name="uni0405" unicode="&#x405;" horiz-adv-x="558" 
d="M282 -3q-149 0 -239 107l18 18q37 -50 96.5 -76t126.5 -26q83 0 140 40.5t57 113.5q0 20 -5 37.5t-11 30t-20.5 25.5t-24 20t-31.5 18t-32.5 15.5t-38.5 15.5t-38 15q-36 14 -51 21t-45.5 21.5t-45 27.5t-32 32.5t-25 42.5t-7.5 51q0 73 56.5 120t145.5 47q113 0 203 -74
l-16 -19q-86 70 -186 70q-72 0 -125.5 -38.5t-53.5 -105.5q0 -36 14.5 -63t47 -48.5t56.5 -32.5t71 -30q8 -3 33 -13t33.5 -13.5t30 -13t29.5 -14.5t25 -15.5t23.5 -19t17 -21t15 -25.5t8 -29.5t3.5 -34.5q0 -77 -59.5 -127t-163.5 -50z" />
    <glyph glyph-name="uni0406" unicode="&#x406;" horiz-adv-x="215" 
d="M96 0v710h23v-710h-23z" />
    <glyph glyph-name="uni0407" unicode="&#x407;" horiz-adv-x="215" 
d="M33 846q-12 0 -20 8t-8 19q0 12 8 19.5t20 7.5q27 0 27 -27q0 -11 -7.5 -19t-19.5 -8zM180 846q-12 0 -20 8t-8 19q0 12 8 19.5t20 7.5q27 0 27 -27q0 -11 -7.5 -19t-19.5 -8zM96 0v710h23v-710h-23z" />
    <glyph glyph-name="uni0408" unicode="&#x408;" horiz-adv-x="467" 
d="M212 -3q-45 0 -95.5 24.5t-90.5 69.5l14 18q83 -89 172 -89q154 0 154 193v497h23v-502q0 -211 -177 -211z" />
    <glyph glyph-name="uni0409" unicode="&#x409;" horiz-adv-x="1099" 
d="M814 403q108 0 171 -49t63 -153q0 -103 -63 -152t-171 -49h-229v687h-340q-22 -307 -33 -393q-20 -160 -61 -228t-106 -68q-18 0 -30 4l2 22q11 -3 28 -3q53 0 88 59.5t55 207.5q18 133 34 422h386v-307h206zM814 23q109 0 159.5 48t50.5 130q0 83 -50.5 131t-159.5 48
h-206v-357h206z" />
    <glyph glyph-name="uni040A" unicode="&#x40a;" horiz-adv-x="1085" 
d="M807 379q106 0 166.5 -46t60.5 -139q0 -99 -61.5 -146.5t-168.5 -47.5h-240v356h-452v-356h-23v710h23v-331h452v331h23v-331h220zM804 23q108 0 157 46.5t49 124.5q0 72 -48 117t-155 45h-220v-333h217z" />
    <glyph glyph-name="uni040B" unicode="&#x40b;" horiz-adv-x="767" 
d="M496 425q109 0 156 -55t47 -172v-198h-23v196q0 111 -41.5 158.5t-138.5 47.5q-114 0 -225 -61v-341h-23v687h-233v23h492v-23h-236v-321q112 59 225 59z" />
    <glyph glyph-name="uni040C" unicode="&#x40c;" horiz-adv-x="612" 
d="M251 795l113 124h30l-114 -124h-29zM89 0v710h23v-483h2l418 483h31l-291 -336l296 -374h-30l-281 357l-145 -168v-189h-23z" />
    <glyph glyph-name="uni040D" unicode="&#x40d;" horiz-adv-x="709" 
d="M392 795l-114 124h30l113 -124h-29zM89 0v710h23v-670h1l485 670h22v-710h-23v669h-1l-484 -669h-23z" />
    <glyph glyph-name="uni040E" unicode="&#x40e;" horiz-adv-x="638" 
d="M320 790q-56 0 -94 31t-43 84l22 4q5 -41 34.5 -69.5t80.5 -28.5t80.5 28.5t33.5 69.5l23 -4q-6 -53 -43.5 -84t-93.5 -31zM583 710h25l-244 -541q-3 -7 -9 -20q-18 -41 -28.5 -61t-30 -45.5t-44.5 -36t-58 -10.5q-70 0 -109 43l9 22q38 -42 100 -42q48 0 77 32t64 110
l-305 549h25l291 -520h2q0 1 2 5z" />
    <glyph glyph-name="uni040F" unicode="&#x40f;" horiz-adv-x="672" 
d="M583 710v-710h-236l-1 -147h-20l-1 147h-236v710h23v-687h448v687h23z" />
    <glyph glyph-name="uni0410" unicode="&#x410;" horiz-adv-x="640" 
d="M29 0l275 710h29l278 -710h-25l-83 211h-367l-82 -211h-25zM145 234h349l-174 448h-2z" />
    <glyph glyph-name="uni0411" unicode="&#x411;" horiz-adv-x="597" 
d="M89 0v710h394v-23h-371v-285h196q108 0 171 -49t63 -152t-63 -152t-171 -49h-219zM112 23h196q109 0 159.5 48t50.5 130t-50.5 130t-159.5 48h-196v-356z" />
    <glyph glyph-name="uni0412" unicode="&#x412;" horiz-adv-x="610" 
d="M89 0v710h204q102 0 163.5 -40.5t61.5 -131.5q0 -59 -33.5 -104t-95.5 -62v-2q69 -10 116 -56t47 -126q0 -87 -61.5 -137.5t-183.5 -50.5h-218zM112 382h200q34 0 64 8t57.5 25t44 48.5t16.5 74.5q0 149 -202 149h-180v-305zM112 23h199q100 0 158.5 41t58.5 121
q0 83 -56.5 128.5t-160.5 45.5h-199v-336z" />
    <glyph glyph-name="uni0413" unicode="&#x413;" horiz-adv-x="520" 
d="M89 0v710h412v-23h-389v-687h-23z" />
    <glyph glyph-name="uni0414" unicode="&#x414;" horiz-adv-x="783" 
d="M740 23v-170h-20l-2 147h-673l-2 -147h-20v170h85q79 105 116 311q26 144 29 376h389v-687h98zM246 330q-35 -202 -112 -307h485v664h-344q-4 -219 -29 -357z" />
    <glyph glyph-name="uni0415" unicode="&#x415;" horiz-adv-x="565" 
d="M89 0v710h412v-23h-389v-320h327v-23h-327v-321h410v-23h-433z" />
    <glyph glyph-name="uni0416" unicode="&#x416;" horiz-adv-x="918" 
d="M36 0l266 373l-268 337h30l381 -482h1v482h23v-484h1l375 484h30l-262 -337l271 -373h-29l-257 355l-129 -165v-190h-23v191l-129 164l-252 -355h-29z" />
    <glyph glyph-name="uni0417" unicode="&#x417;" horiz-adv-x="593" 
d="M300 -3q-161 0 -251 104l16 19q36 -46 98.5 -73t137.5 -27q94 0 153 46.5t59 125.5q0 78 -57 122.5t-161 44.5h-132v23h133q72 0 127.5 40t55.5 118q0 71 -50 111t-137 40q-115 0 -198 -64l-16 17q36 31 95 50.5t120 19.5q94 0 152 -48t58 -126q0 -58 -33.5 -104
t-98.5 -64v-1q71 -10 118.5 -54t47.5 -122q0 -85 -62 -141.5t-175 -56.5z" />
    <glyph glyph-name="uni0418" unicode="&#x418;" horiz-adv-x="709" 
d="M89 0v710h23v-670h1l485 670h22v-710h-23v669h-1l-484 -669h-23z" />
    <glyph glyph-name="uni0419" unicode="&#x419;" horiz-adv-x="709" 
d="M355 790q-56 0 -94 31t-43 84l22 4q5 -41 34.5 -69.5t80.5 -28.5t80.5 28.5t33.5 69.5l23 -4q-6 -53 -43.5 -84t-93.5 -31zM89 0v710h23v-670h1l485 670h22v-710h-23v669h-1l-484 -669h-23z" />
    <glyph glyph-name="uni041A" unicode="&#x41a;" horiz-adv-x="612" 
d="M89 0v710h23v-483h2l418 483h31l-291 -336l296 -374h-30l-281 357l-145 -168v-189h-23z" />
    <glyph glyph-name="uni041B" unicode="&#x41b;" horiz-adv-x="697" 
d="M222 710h386v-710h-23v687h-340q-22 -307 -33 -393q-20 -160 -61 -228t-106 -68q-18 0 -30 4l2 22q11 -3 28 -3q53 0 88 59.5t55 207.5q18 133 34 422z" />
    <glyph glyph-name="uni041C" unicode="&#x41c;" horiz-adv-x="853" 
d="M89 0v710h24l313 -525h2l312 525h23v-710h-23v665h-1l-302 -510h-21l-303 510h-1v-665h-23z" />
    <glyph glyph-name="uni041D" unicode="&#x41d;" horiz-adv-x="692" 
d="M89 0v710h23v-364h468v364h23v-710h-23v323h-468v-323h-23z" />
    <glyph glyph-name="uni041E" unicode="&#x41e;" horiz-adv-x="822" 
d="M413 -3q-149 0 -250 100t-101 259q0 158 101 258t250 100q146 0 246.5 -100t100.5 -258q0 -159 -100.5 -259t-246.5 -100zM413 20q136 0 229.5 94t93.5 242t-93.5 241.5t-229.5 93.5q-138 0 -232.5 -93.5t-94.5 -241.5q0 -149 94 -242.5t233 -93.5z" />
    <glyph glyph-name="uni041F" unicode="&#x41f;" horiz-adv-x="672" 
d="M89 0v710h494v-710h-23v687h-448v-687h-23z" />
    <glyph glyph-name="uni0420" unicode="&#x420;" horiz-adv-x="582" 
d="M89 0v710h233q112 0 165.5 -54.5t53.5 -145.5q0 -104 -63.5 -154.5t-173.5 -50.5h-192v-305h-23zM112 328h191q111 0 162.5 49.5t51.5 132.5q0 88 -51.5 132.5t-137.5 44.5h-216v-359z" />
    <glyph glyph-name="uni0421" unicode="&#x421;" horiz-adv-x="714" 
d="M408 -3q-149 0 -247.5 94.5t-98.5 260.5q0 157 91.5 259.5t254.5 102.5t271 -134l-19 -16q-100 127 -252 127t-237 -95.5t-85 -243.5q0 -157 91 -244.5t231 -87.5q152 0 252 125l19 -15q-107 -133 -271 -133z" />
    <glyph glyph-name="uni0422" unicode="&#x422;" horiz-adv-x="542" 
d="M258 0v687h-233v23h492v-23h-236v-687h-23z" />
    <glyph glyph-name="uni0423" unicode="&#x423;" horiz-adv-x="638" 
d="M583 710h25l-244 -541q-3 -7 -9 -20q-18 -41 -28.5 -61t-30 -45.5t-44.5 -36t-58 -10.5q-70 0 -109 43l9 22q38 -42 100 -42q48 0 77 32t64 110l-305 549h25l291 -520h2q0 1 2 5z" />
    <glyph glyph-name="uni0424" unicode="&#x424;" horiz-adv-x="838" 
d="M435 664q156 0 251 -82t95 -222q0 -129 -95.5 -208.5t-249.5 -79.5h-6v-72h-23v72h-5q-156 1 -250.5 79.5t-94.5 208.5q0 140 94 222t250 82h6v64h23v-64h5zM81 360q0 -118 87 -191t234 -74h5v546h-6q-150 0 -235 -76.5t-85 -204.5zM436 95q146 0 233.5 73.5t87.5 191.5
q0 127 -86 203.5t-236 77.5h-5v-546h6z" />
    <glyph glyph-name="uni0425" unicode="&#x425;" horiz-adv-x="604" 
d="M34 0l254 354l-255 356h27l242 -335h1l240 335h29l-255 -356l254 -354h-29l-238 331h-2l-240 -331h-28z" />
    <glyph glyph-name="uni0426" unicode="&#x426;" horiz-adv-x="711" 
d="M667 23v-170h-20l-2 147h-556v710h23v-687h434v687h23v-687h98z" />
    <glyph glyph-name="uni0427" unicode="&#x427;" horiz-adv-x="617" 
d="M505 710h23v-710h-23v314q-53 -30 -118.5 -43.5t-112.5 -13.5q-111 0 -158.5 55t-47.5 172v226h23v-224q0 -112 42 -159t141 -47q47 0 113 14.5t118 46.5v369z" />
    <glyph glyph-name="uni0428" unicode="&#x428;" horiz-adv-x="952" 
d="M840 710h23v-710h-774v710h23v-687h353v687h23v-687h352v687z" />
    <glyph glyph-name="uni0429" unicode="&#x429;" horiz-adv-x="1005" 
d="M961 23v-170h-20l-2 147h-850v710h23v-687h353v687h23v-687h352v687h23v-687h98z" />
    <glyph glyph-name="uni042A" unicode="&#x42a;" horiz-adv-x="726" 
d="M441 403q108 0 171 -49t63 -153q0 -103 -63 -152t-171 -49h-229v687h-207v23h230v-307h206zM441 23q109 0 159.5 48t50.5 130q0 83 -50.5 131t-159.5 48h-206v-357h206z" />
    <glyph glyph-name="uni042B" unicode="&#x42b;" horiz-adv-x="781" 
d="M89 0v710h23v-307h186q108 0 171 -49t63 -153q0 -103 -63 -152t-171 -49h-209zM669 0v710h23v-710h-23zM112 23h186q109 0 159.5 48t50.5 130q0 83 -50.5 131t-159.5 48h-186v-357z" />
    <glyph glyph-name="uni042C" unicode="&#x42c;" horiz-adv-x="603" 
d="M89 0v710h23v-307h206q108 0 171 -49t63 -153q0 -103 -63 -152t-171 -49h-229zM112 23h206q109 0 159.5 48t50.5 130q0 83 -50.5 131t-159.5 48h-206v-357z" />
    <glyph glyph-name="uni042D" unicode="&#x42d;" horiz-adv-x="725" 
d="M318 714q157 0 251.5 -103t94.5 -259q0 -159 -96.5 -257t-250.5 -98q-164 0 -269 120l18 15q39 -49 103.5 -80.5t148.5 -31.5q141 0 230 89t92 235h-456v23h456q-5 143 -92 233.5t-230 90.5q-131 0 -240 -96l-18 17q115 102 258 102z" />
    <glyph glyph-name="uni042E" unicode="&#x42e;" horiz-adv-x="1015" 
d="M619 714q149 0 244 -100.5t95 -257.5t-95 -258t-244 -101q-139 0 -231.5 91t-103.5 235h-172v-323h-23v710h23v-364h171v10q0 157 94 257.5t242 100.5zM619 20q139 0 227 94.5t88 241.5q0 146 -88 240.5t-227 94.5q-138 0 -225 -94t-87 -241q0 -146 87 -241t225 -95z" />
    <glyph glyph-name="uni042F" unicode="&#x42f;" horiz-adv-x="622" 
d="M57 0l200 303q-88 11 -139 62t-51 145q0 90 56 145t167 55h243v-710h-23v300h-227l-198 -300h-28zM308 323h202v364h-221q-92 0 -145 -44.5t-53 -132.5q0 -86 52.5 -136.5t164.5 -50.5z" />
    <glyph glyph-name="uni0430" unicode="&#x430;" horiz-adv-x="591" 
d="M285 -3q-101 0 -170.5 67t-69.5 173t67.5 178.5t173.5 72.5q69 0 125 -38t83 -103h1v137h22v-484h-22v133h-1q-27 -62 -82 -99t-127 -37zM285 19q89 0 149.5 61t60.5 157t-58.5 162.5t-150.5 66.5t-155 -64t-63 -165q0 -92 60.5 -155t156.5 -63z" />
    <glyph glyph-name="uni0431" unicode="&#x431;" horiz-adv-x="592" 
d="M312 -3q-118 0 -184.5 80t-65.5 225q0 50 1.5 83.5t7 76t15.5 71t28.5 60t44 52t63.5 37.5t87 25l186 32l6 -22l-188 -32q-58 -10 -99 -32.5t-65.5 -51t-38.5 -73t-19 -87.5t-7 -106h1q24 67 82 110t139 43q102 0 172 -69t70 -177q0 -106 -71.5 -175.5t-164.5 -69.5z
M314 19q85 0 148 65.5t63 157.5q0 97 -62.5 160.5t-156.5 63.5q-90 0 -153.5 -61t-63.5 -154q0 -26 6 -54t22 -60.5t40 -58t65 -42.5t92 -17z" />
    <glyph glyph-name="uni0432" unicode="&#x432;" horiz-adv-x="525" 
d="M81 0v484h215q74 0 114.5 -30t40.5 -87q0 -43 -22 -73t-59 -41v-1q44 -7 74.5 -38t30.5 -85q0 -62 -44 -95.5t-132 -33.5h-218zM103 262h202q56 0 89.5 27.5t33.5 76.5q0 96 -135 96h-190v-200zM103 22h194q155 0 155 106q0 55 -38 83.5t-110 28.5h-201v-218z" />
    <glyph glyph-name="uni0433" unicode="&#x433;" horiz-adv-x="442" 
d="M81 0v484h333v-22h-311v-462h-22z" />
    <glyph glyph-name="uni0434" unicode="&#x434;" 
d="M556 22v-165h-19l-2 143h-494l-2 -143h-19v165h66q65 85 90 221q17 95 19 241h284v-462h77zM113 22h344v440h-241q-2 -140 -17 -223q-24 -132 -86 -217z" />
    <glyph glyph-name="uni0435" unicode="&#x435;" horiz-adv-x="532" 
d="M489 243h-419v-1q0 -97 58 -160t149 -63q111 0 174 81l17 -13q-68 -90 -189 -90q-102 0 -167 69.5t-65 175.5q0 105 66 175.5t164 70.5q94 0 153 -65.5t59 -165.5v-14zM277 466q-82 0 -140 -57t-66 -144h395q-5 91 -56.5 146t-132.5 55z" />
    <glyph glyph-name="uni0436" unicode="&#x436;" horiz-adv-x="760" 
d="M31 0l197 277l-196 207h31l302 -317h1v317h22v-317h1l294 317h31l-191 -205l206 -279h-29l-193 262l-119 -128v-134h-22v134l-122 126l-187 -260h-26z" />
    <glyph glyph-name="uni0437" unicode="&#x437;" horiz-adv-x="488" 
d="M240 -3q-112 0 -198 55l7 23q83 -56 191 -56q83 0 129 31.5t46 83.5q0 49 -38.5 77.5t-109.5 28.5h-117v22h117q57 0 90.5 27t33.5 74q0 48 -40 75.5t-109 27.5q-96 0 -169 -44l-10 20q75 46 180 46q78 0 124.5 -33.5t46.5 -90.5q0 -42 -22 -70.5t-60 -40.5v-1
q44 -8 75 -37.5t31 -79.5q0 -62 -50.5 -100t-147.5 -38z" />
    <glyph glyph-name="uni0438" unicode="&#x438;" horiz-adv-x="575" 
d="M81 0v484h22v-448h2l368 448h21v-484h-22v447h-2l-367 -447h-22z" />
    <glyph glyph-name="uni0439" unicode="&#x439;" horiz-adv-x="575" 
d="M289 561q-57 0 -94.5 33t-42.5 92l22 4q5 -48 34 -78t81 -30t81 30t33 78l23 -4q-6 -60 -43 -92.5t-94 -32.5zM81 0v484h22v-448h2l368 448h21v-484h-22v447h-2l-367 -447h-22z" />
    <glyph glyph-name="uni043A" unicode="&#x43a;" horiz-adv-x="511" 
d="M81 0v484h22v-332l2 -1l332 333h32l-208 -209l218 -275h-30l-205 258l-141 -141v-117h-22z" />
    <glyph glyph-name="uni043B" unicode="&#x43b;" horiz-adv-x="541" 
d="M168 484h292v-484h-22v462h-248q-7 -172 -19 -270q-12 -111 -46.5 -152t-84.5 -41q-15 0 -21 3l2 22q9 -3 21 -3q88 0 107 174q10 96 19 289z" />
    <glyph glyph-name="uni043C" unicode="&#x43c;" horiz-adv-x="654" 
d="M81 0v484h22l223 -366h2l224 366h21v-484h-22v439h-1l-213 -347h-21l-212 347h-1v-439h-22z" />
    <glyph glyph-name="uni043D" unicode="&#x43d;" horiz-adv-x="564" 
d="M81 0v484h22v-238h358v238h22v-484h-22v224h-358v-224h-22z" />
    <glyph glyph-name="uni043E" unicode="&#x43e;" horiz-adv-x="579" 
d="M290 -3q-107 0 -175 71t-68 174q0 102 68.5 174t174.5 72q102 0 172 -69t70 -177t-70 -176.5t-172 -68.5zM290 19q93 0 156 62.5t63 160.5t-63.5 161t-155.5 63q-97 0 -158.5 -65t-61.5 -159t61 -158.5t159 -64.5z" />
    <glyph glyph-name="uni043F" unicode="&#x43f;" horiz-adv-x="557" 
d="M81 0v484h395v-484h-22v462h-351v-462h-22z" />
    <glyph glyph-name="uni0440" unicode="&#x440;" horiz-adv-x="600" 
d="M81 -198v682h22v-137h1q28 65 83.5 103t125.5 38q105 0 172 -72.5t67 -178.5t-69 -173t-169 -67q-72 0 -127.5 36.5t-82.5 97.5h-1v-329h-22zM314 19q95 0 155 63t60 155q0 101 -62.5 165t-153.5 64q-93 0 -151.5 -66t-58.5 -163t60.5 -157.5t150.5 -60.5z" />
    <glyph glyph-name="uni0441" unicode="&#x441;" horiz-adv-x="499" 
d="M278 -3q-103 0 -167 68.5t-64 176.5t64.5 177t167.5 69q111 0 180 -77l-17 -17q-60 72 -163 72q-93 0 -151 -63t-58 -161q0 -99 57.5 -161t150.5 -62q48 0 93.5 18.5t74.5 51.5l15 -17q-32 -34 -80.5 -54.5t-102.5 -20.5z" />
    <glyph glyph-name="uni0442" unicode="&#x442;" horiz-adv-x="428" 
d="M203 0v462h-184v22h390v-22h-184v-462h-22z" />
    <glyph glyph-name="uni0443" unicode="&#x443;" horiz-adv-x="506" 
d="M162 -198l86 203l-221 479h27l205 -450h1l190 450h27l-290 -682h-25z" />
    <glyph glyph-name="uni0444" unicode="&#x444;" horiz-adv-x="664" 
d="M343 488q131 0 206.5 -68.5t75.5 -177.5t-76.5 -177t-204.5 -68h-1v-195h-22v195h-1q-128 0 -204.5 68t-76.5 177t75.5 177.5t206.5 68.5v248h22v-248zM62 242q0 -100 70 -161.5t188 -61.5h1v447q-121 0 -190 -62t-69 -162zM344 19q118 0 188 61.5t70 161.5t-69 162
t-190 62v-447h1z" />
    <glyph glyph-name="uni0445" unicode="&#x445;" horiz-adv-x="466" 
d="M33 0l186 242l-188 242h30l171 -223h2l172 223h30l-187 -241l187 -243h-30l-172 222h-1l-171 -222h-29z" />
    <glyph glyph-name="uni0446" unicode="&#x446;" horiz-adv-x="570" 
d="M540 22v-165h-19l-2 143h-438v484h22v-462h338v462h22v-462h77z" />
    <glyph glyph-name="uni0447" unicode="&#x447;" horiz-adv-x="515" 
d="M412 484h22v-484h-22v204q-92 -37 -180 -37q-98 0 -139.5 44.5t-41.5 151.5v121h22v-118q0 -102 36 -139.5t123 -37.5q92 0 180 38v257z" />
    <glyph glyph-name="uni0448" unicode="&#x448;" horiz-adv-x="808" 
d="M81 0v484h22v-462h290v462h22v-462h290v462h22v-484h-646z" />
    <glyph glyph-name="uni0449" unicode="&#x449;" horiz-adv-x="834" 
d="M804 22v-165h-19l-2 143h-702v484h22v-462h290v462h22v-462h290v462h22v-462h77z" />
    <glyph glyph-name="uni044A" unicode="&#x44a;" horiz-adv-x="572" 
d="M378 298q161 0 161 -149q0 -72 -43 -110.5t-129 -38.5h-187v462h-164v22h186v-186h176zM367 22q149 0 149 127t-139 127h-175v-254h165z" />
    <glyph glyph-name="uni044B" unicode="&#x44b;" horiz-adv-x="646" 
d="M81 0v484h22v-185h168q161 0 161 -150q0 -72 -43 -110.5t-129 -38.5h-179zM543 0v484h22v-484h-22zM103 22h157q149 0 149 127q0 128 -139 128h-167v-255z" />
    <glyph glyph-name="uni044C" unicode="&#x44c;" horiz-adv-x="473" 
d="M81 0v484h22v-186h176q161 0 161 -149q0 -72 -43 -110.5t-129 -38.5h-187zM103 22h165q149 0 149 127t-139 127h-175v-254z" />
    <glyph glyph-name="uni044D" unicode="&#x44d;" horiz-adv-x="516" 
d="M230 488q103 0 171 -69t68 -177q0 -106 -65 -175.5t-173 -69.5q-118 0 -189 60l13 18q67 -56 176 -56q97 0 154.5 60.5t60.5 153.5h-317v22h317q-4 94 -65 152.5t-152 58.5q-87 0 -160 -44l-10 20q75 46 171 46z" />
    <glyph glyph-name="uni044E" unicode="&#x44e;" horiz-adv-x="765" 
d="M482 488q96 0 166 -69.5t70 -176.5t-69.5 -176t-166.5 -69q-104 0 -168.5 64.5t-69.5 162.5h-141v-224h-22v484h22v-238h140q2 102 67 172t172 70zM482 19q88 0 150.5 63t62.5 160t-63 160.5t-150 63.5q-99 0 -157.5 -64.5t-58.5 -159.5t58 -159t158 -64z" />
    <glyph glyph-name="uni044F" unicode="&#x44f;" horiz-adv-x="521" 
d="M229 484h211v-484h-22v193h-200h-6l-140 -193h-26l142 194q-131 15 -131 141q0 72 43 110.5t129 38.5zM418 215v247h-189q-149 0 -149 -127q0 -120 139 -120h199z" />
    <glyph glyph-name="uni0450" unicode="&#x450;" horiz-adv-x="532" 
d="M318 565h-29l-114 127h30zM489 243h-419v-1q0 -97 58 -160t149 -63q111 0 174 81l17 -13q-68 -90 -189 -90q-102 0 -167 69.5t-65 175.5q0 105 66 175.5t164 70.5q94 0 153 -65.5t59 -165.5v-14zM277 466q-82 0 -140 -57t-66 -144h395q-5 91 -56.5 146t-132.5 55z" />
    <glyph glyph-name="uni0451" unicode="&#x451;" horiz-adv-x="532" 
d="M203 606q-12 0 -20 8t-8 19q0 12 8 19.5t20 7.5q27 0 27 -27q0 -11 -7.5 -19t-19.5 -8zM350 606q-12 0 -20 8t-8 19q0 12 8 19.5t20 7.5q27 0 27 -27q0 -11 -7.5 -19t-19.5 -8zM489 243h-419v-1q0 -97 58 -160t149 -63q111 0 174 81l17 -13q-68 -90 -189 -90
q-102 0 -167 69.5t-65 175.5q0 105 66 175.5t164 70.5q94 0 153 -65.5t59 -165.5v-14zM277 466q-82 0 -140 -57t-66 -144h395q-5 91 -56.5 146t-132.5 55z" />
    <glyph glyph-name="uni0452" unicode="&#x452;" horiz-adv-x="539" 
d="M311 456q76 0 120.5 -51.5t44.5 -144.5v-303q0 -82 -29.5 -120t-106.5 -38q-34 0 -65 14l3 22q28 -14 62 -14q60 0 87 28t27 108v292q0 95 -40 140t-103 45q-96 0 -152.5 -62t-56.5 -165v-207h-22v573h-78v22h78v141h22v-141h228v-22h-228v-250h1q25 62 79.5 97.5
t128.5 35.5z" />
    <glyph glyph-name="uni0453" unicode="&#x453;" horiz-adv-x="442" 
d="M177 561l123 135h31l-124 -135h-30zM81 0v484h333v-22h-311v-462h-22z" />
    <glyph glyph-name="uni0454" unicode="&#x454;" horiz-adv-x="512" 
d="M460 83l14 -16q-65 -70 -189 -70q-108 0 -173 69.5t-65 175.5q0 108 68 177t171 69q105 0 171 -56l-15 -16q-61 50 -155 50q-91 0 -152 -58.5t-65 -152.5h317v-22h-317q3 -93 60.5 -153.5t154.5 -60.5q114 0 175 64z" />
    <glyph glyph-name="uni0455" unicode="&#x455;" horiz-adv-x="415" 
d="M211 -3q-102 0 -177 67l13 18q71 -63 164 -63q64 0 102 30t38 73q0 16 -3 28.5t-13 23t-16.5 17t-25.5 15t-26.5 12t-34 12.5t-34.5 12q-36 13 -56 22t-42.5 24.5t-32.5 36t-10 47.5q0 49 40 82.5t99 33.5q91 0 158 -58l-15 -16q-60 51 -142 51q-50 0 -83.5 -27
t-33.5 -64q0 -23 9 -40.5t29 -30.5t36 -20.5t47 -18.5q8 -3 29 -10.5l28 -10t24.5 -9t23.5 -10.5t19 -11.5t18 -13t13 -14.5t10.5 -18.5t5 -21.5t2.5 -25q-1 -52 -44.5 -87.5t-118.5 -35.5z" />
    <glyph glyph-name="uni0456" unicode="&#x456;" horiz-adv-x="195" 
d="M99 606q-12 0 -20 8t-8 19q0 12 8 19.5t20 7.5q27 0 27 -27q0 -11 -7.5 -19t-19.5 -8zM86 0v484h22v-484h-22z" />
    <glyph glyph-name="uni0457" unicode="&#x457;" horiz-adv-x="195" 
d="M23 606q-12 0 -20 8t-8 19q0 12 8 19.5t20 7.5q27 0 27 -27q0 -11 -7.5 -19t-19.5 -8zM170 606q-12 0 -20 8t-8 19q0 12 8 19.5t20 7.5q27 0 27 -27q0 -11 -7.5 -19t-19.5 -8zM86 0v484h22v-484h-22z" />
    <glyph glyph-name="uni0458" unicode="&#x458;" horiz-adv-x="176" 
d="M95 606q-12 0 -20 8t-8 19q0 12 8 19.5t20 7.5q27 0 27 -27q0 -11 -7.5 -19t-19.5 -8zM4 -201q-35 0 -63 14l3 24q27 -16 62 -16q77 0 77 94v569h22v-569q0 -116 -101 -116z" />
    <glyph glyph-name="uni0459" unicode="&#x459;" horiz-adv-x="824" 
d="M630 298q161 0 161 -149q0 -72 -43 -110.5t-129 -38.5h-187v462h-242q-7 -172 -19 -270q-12 -111 -46.5 -152t-84.5 -41q-15 0 -21 3l2 22q9 -3 21 -3q40 0 69 41t38 133q10 96 19 289h286v-186h176zM619 22q149 0 149 127t-139 127h-175v-254h165z" />
    <glyph glyph-name="uni045A" unicode="&#x45a;" horiz-adv-x="858" 
d="M675 279q150 0 150 -140q0 -67 -40.5 -103t-120.5 -36h-213v252h-348v-252h-22v484h22v-210h348v210h22v-205h202zM664 22q138 0 138 117q0 118 -128 118h-201v-235h191z" />
    <glyph glyph-name="uni045B" unicode="&#x45b;" horiz-adv-x="539" 
d="M311 456q76 0 120.5 -51.5t44.5 -144.5v-260h-22v249q0 95 -40 140t-103 45q-96 0 -152.5 -62t-56.5 -165v-207h-22v573h-78v22h78v141h22v-141h228v-22h-228v-250h1q25 62 79.5 97.5t128.5 35.5z" />
    <glyph glyph-name="uni045C" unicode="&#x45c;" horiz-adv-x="511" 
d="M190 561l123 135h31l-124 -135h-30zM81 0v484h22v-332l2 -1l332 333h32l-208 -209l218 -275h-30l-205 258l-141 -141v-117h-22z" />
    <glyph glyph-name="uni045D" unicode="&#x45d;" horiz-adv-x="575" 
d="M306 565l-114 127h30l113 -127h-29zM81 0v484h22v-448h2l368 448h21v-484h-22v447h-2l-367 -447h-22z" />
    <glyph glyph-name="uni045E" unicode="&#x45e;" horiz-adv-x="506" 
d="M255 561q-57 0 -94.5 33t-42.5 92l22 4q5 -48 34 -78t81 -30t81 30t33 78l23 -4q-6 -60 -43 -92.5t-94 -32.5zM162 -198l86 203l-221 479h27l205 -450h1l190 450h27l-290 -682h-25z" />
    <glyph glyph-name="uni045F" unicode="&#x45f;" horiz-adv-x="544" 
d="M463 484v-484h-179l-1 -143h-19l-1 143h-182v484h22v-462h338v462h22z" />
    <glyph glyph-name="uni0462" unicode="&#x462;" horiz-adv-x="716" 
d="M431 403q108 0 171 -49t63 -153q0 -103 -63 -152t-171 -49h-229v579h-192v22h192v109h23v-109h272v-22h-272v-176h206zM431 23q109 0 159.5 48t50.5 130q0 83 -50.5 131t-159.5 48h-206v-357h206z" />
    <glyph glyph-name="uni0463" unicode="&#x463;" horiz-adv-x="559" 
d="M365 298q161 0 161 -149q0 -72 -43 -110.5t-129 -38.5h-188v462h-164v22h164v252h22v-252h196v-22h-196v-164h177zM354 22q149 0 149 127t-139 127h-176v-254h166z" />
    <glyph glyph-name="uni0472" unicode="&#x472;" horiz-adv-x="822" 
d="M412 714q146 0 247 -100t101 -258q0 -159 -100.5 -259t-247.5 -100q-155 0 -252.5 103.5t-97.5 255.5q0 151 98 254.5t252 103.5zM412 691q-141 0 -231.5 -93t-94.5 -231h650q-4 144 -97 234t-227 90zM412 20q134 0 227 90t97 234h-650q5 -138 95 -231t231 -93z" />
    <glyph glyph-name="uni0473" unicode="&#x473;" horiz-adv-x="579" 
d="M290 488q102 0 172 -69t70 -177t-70 -176.5t-172 -68.5q-107 0 -175 71t-68 174q0 102 68.5 174t174.5 72zM290 466q-95 0 -156 -62t-64 -153h439q-3 95 -66 155t-153 60zM290 19q90 0 152.5 58.5t66.5 151.5h-439q5 -89 65.5 -149.5t154.5 -60.5z" />
    <glyph glyph-name="uni0474" unicode="&#x474;" horiz-adv-x="693" 
d="M303 0l-273 710h25l259 -674h2l193 561q22 65 47 91t73 26q23 0 44 -8t29 -17l-6 -23q-8 9 -28 17t-40 8q-39 0 -59 -23.5t-38 -75.5l-204 -592h-24z" />
    <glyph glyph-name="uni0475" unicode="&#x475;" horiz-adv-x="536" 
d="M237 0l-208 484h26l192 -450h2l142 362q19 50 36 70t49 20q36 0 63 -18l-6 -23q-30 18 -53 18q-24 0 -37 -16t-30 -59l-154 -388h-22z" />
    <glyph glyph-name="uni048A" unicode="&#x48a;" horiz-adv-x="718" 
d="M355 790q-56 0 -94 31t-43 84l22 4q5 -41 34.5 -69.5t80.5 -28.5t80.5 28.5t33.5 69.5l23 -4q-6 -53 -43.5 -84t-93.5 -31zM620 23h38v-4l-59 -166h-20l48 147h-30v669h-1l-484 -669h-23v710h23v-670h1l485 670h22v-687z" />
    <glyph glyph-name="uni048B" unicode="&#x48b;" horiz-adv-x="577" 
d="M289 561q-57 0 -94.5 33t-42.5 92l22 4q5 -48 34 -78t81 -30t81 30t33 78l23 -4q-6 -60 -43 -92.5t-94 -32.5zM494 22h35v-4l-54 -161h-19l47 143h-31v447h-2l-367 -447h-22v484h22v-448h2l368 448h21v-462z" />
    <glyph glyph-name="uni048C" unicode="&#x48c;" horiz-adv-x="625" 
d="M340 403q108 0 171 -49t63 -153q0 -103 -63 -152t-171 -49h-229v574h-105v23h105v113h23v-113h186v-23h-186v-171h206zM340 23q109 0 159.5 48t50.5 130q0 83 -50.5 131t-159.5 48h-206v-357h206z" />
    <glyph glyph-name="uni048D" unicode="&#x48d;" horiz-adv-x="474" 
d="M280 298q161 0 161 -149q0 -72 -43 -110.5t-129 -38.5h-188v423h-77v22h77v63h22v-63h207v-22h-207v-125h177zM269 22q149 0 149 127t-139 127h-176v-254h166z" />
    <glyph glyph-name="uni048E" unicode="&#x48e;" horiz-adv-x="582" 
d="M541 510q0 -155 -144 -194l84 -154l-21 -10l-87 159q-31 -6 -69 -6h-192v-305h-23v710h233q112 0 165.5 -54.5t53.5 -145.5zM386 337q131 33 131 173q0 88 -51.5 132.5t-137.5 44.5h-216v-359h191q35 0 58 4l-80 148l21 10z" />
    <glyph glyph-name="uni048F" unicode="&#x48f;" horiz-adv-x="600" 
d="M552 237q0 -73 -34 -129t-92 -85l71 -126l-19 -11l-72 128q-45 -17 -92 -17q-72 0 -127.5 36.5t-82.5 97.5h-1v-329h-22v682h22v-137h1q28 65 83.5 103t125.5 38q105 0 172 -72.5t67 -178.5zM103 237q0 -97 60.5 -157.5t150.5 -60.5q42 0 81 14l-78 138l19 11l79 -140
q53 27 83.5 79t30.5 116q0 101 -62.5 165t-153.5 64q-93 0 -151.5 -66t-58.5 -163z" />
    <glyph glyph-name="uni0490" unicode="&#x490;" horiz-adv-x="520" 
d="M481 857h20v-170h-389v-687h-23v710h390z" />
    <glyph glyph-name="uni0491" unicode="&#x491;" horiz-adv-x="442" 
d="M395 627h19v-165h-311v-462h-22v484h312z" />
    <glyph glyph-name="uni0492" unicode="&#x492;" horiz-adv-x="547" 
d="M528 687h-389v-331h212v-23h-212v-333h-23v333h-106v23h106v354h412v-23z" />
    <glyph glyph-name="uni0493" unicode="&#x493;" horiz-adv-x="442" 
d="M414 462h-311v-211h229v-22h-229v-229h-22v229h-77v22h77v233h333v-22z" />
    <glyph glyph-name="uni0494" unicode="&#x494;" horiz-adv-x="629" 
d="M305 383q123 0 196 -71t73 -215q0 -147 -77 -222.5t-195 -75.5q-48 0 -94 10l2 23q50 -10 92 -10q111 0 179.5 70.5t68.5 204.5t-67 198.5t-178 64.5q-96 0 -193 -36v-324h-23v710h412v-23h-389v-338q102 34 193 34z" />
    <glyph glyph-name="uni0495" unicode="&#x495;" horiz-adv-x="507" 
d="M265 248q102 0 163.5 -56.5t61.5 -164.5q0 -106 -66.5 -167t-168.5 -61q-36 0 -78 8l2 22q39 -8 76 -8q95 0 153.5 56t58.5 150q0 95 -53 147t-149 52q-82 0 -162 -28v-198h-22v484h333v-22h-311v-241q83 27 162 27z" />
    <glyph glyph-name="uni0496" unicode="&#x496;" horiz-adv-x="940" 
d="M893 23v-170h-20l-2 147h-16l-257 355l-129 -165v-190h-23v191l-129 164l-252 -355h-29l266 373l-268 337h30l381 -482h1v482h23v-484h1l375 484h30l-262 -337l254 -350h26z" />
    <glyph glyph-name="uni0497" unicode="&#x497;" horiz-adv-x="770" 
d="M739 22v-165h-19l-2 143h-18l-193 262l-119 -128v-134h-22v134l-122 126l-187 -260h-26l197 277l-196 207h31l302 -317h1v317h22v-317h1l294 317h31l-191 -205l190 -257h26z" />
    <glyph glyph-name="uni0498" unicode="&#x498;" horiz-adv-x="593" 
d="M537 195q0 -85 -61.5 -141t-173.5 -57l-10 -41q88 -8 88 -70q0 -32 -22.5 -49t-55.5 -19q-42 -2 -73 10v25q25 -13 63 -13q33 0 49.5 13t15.5 37t-26.5 36t-66.5 12l16 59q-147 8 -231 104l16 19q36 -46 98.5 -73t137.5 -27q94 0 153 46.5t59 125.5q0 78 -57 122.5
t-161 44.5h-132v23h133q72 0 127.5 40t55.5 118q0 71 -50 111t-137 40q-115 0 -198 -64l-16 17q36 31 95 50.5t120 19.5q94 0 152 -48t58 -126q0 -58 -33.5 -104t-98.5 -64v-1q71 -10 118.5 -54t47.5 -122z" />
    <glyph glyph-name="uni0499" unicode="&#x499;" horiz-adv-x="488" 
d="M438 135q0 -60 -47 -97.5t-137 -40.5l-10 -41q88 -8 88 -70q0 -32 -22.5 -49t-55.5 -19q-42 -2 -73 10v25q25 -13 63 -13q33 0 49.5 13t15.5 37t-26.5 36t-66.5 12l16 59q-106 2 -190 55l7 23q83 -56 191 -56q83 0 129 31.5t46 83.5q0 49 -38.5 77.5t-109.5 28.5h-117v22
h117q57 0 90.5 27t33.5 74q0 48 -40 75.5t-109 27.5q-96 0 -169 -44l-10 20q75 46 180 46q78 0 124.5 -33.5t46.5 -90.5q0 -42 -22 -70.5t-60 -40.5v-1q44 -8 75 -37.5t31 -79.5z" />
    <glyph glyph-name="uni049A" unicode="&#x49a;" horiz-adv-x="634" 
d="M576 23v-170h-20l-2 147h-16l-281 357l-145 -168v-189h-23v710h23v-483h2l418 483h31l-291 -336l278 -351h26z" />
    <glyph glyph-name="uni049B" unicode="&#x49b;" horiz-adv-x="521" 
d="M489 22v-165h-19l-2 143h-19l-205 258l-141 -141v-117h-22v484h22v-332l2 -1l332 333h32l-208 -209l201 -253h27z" />
    <glyph glyph-name="uni049C" unicode="&#x49c;" horiz-adv-x="641" 
d="M567 0l-271 335h-38v-217h-23v217h-123v-335h-23v710h23v-352h123v218h23v-218h40l265 352h29l-275 -364l280 -346h-30z" />
    <glyph glyph-name="uni049D" unicode="&#x49d;" horiz-adv-x="520" 
d="M459 0l-174 232h-47v-144h-22v144h-113v-232h-22v484h22v-230h113v140h22v-140h48l159 230h28l-168 -240l183 -244h-29z" />
    <glyph glyph-name="uni049E" unicode="&#x49e;" horiz-adv-x="622" 
d="M282 374l296 -374h-30l-281 357l-145 -168v-189h-23v579h-98v22h98v109h23v-109h176v-22h-176v-352h2l418 483h31z" />
    <glyph glyph-name="uni049F" unicode="&#x49f;" horiz-adv-x="511" 
d="M261 275l218 -275h-30l-205 258l-141 -141v-117h-22v601h-77v22h77v113h22v-113h217v-22h-217v-449l2 -1l332 333h32z" />
    <glyph glyph-name="uni04A0" unicode="&#x4a0;" horiz-adv-x="735" 
d="M395 374l296 -374h-30l-281 357l-145 -168v-189h-23v687h-207v23h230v-483h2l418 483h31z" />
    <glyph glyph-name="uni04A1" unicode="&#x4a1;" horiz-adv-x="605" 
d="M355 275l218 -275h-30l-205 258l-141 -141v-117h-22v462h-164v22h186v-332l2 -1l332 333h32z" />
    <glyph glyph-name="uni04A2" unicode="&#x4a2;" horiz-adv-x="745" 
d="M701 23v-170h-20l-2 147h-99v323h-468v-323h-23v710h23v-364h468v364h23v-687h98z" />
    <glyph glyph-name="uni04A3" unicode="&#x4a3;" horiz-adv-x="590" 
d="M560 22v-165h-19l-2 143h-78v224h-358v-224h-22v484h22v-238h358v238h22v-462h77z" />
    <glyph glyph-name="uni04A4" unicode="&#x4a4;" horiz-adv-x="830" 
d="M811 710v-23h-213v-687h-23v323h-463v-323h-23v710h23v-364h463v364h236z" />
    <glyph glyph-name="uni04A5" unicode="&#x4a5;" horiz-adv-x="665" 
d="M642 484v-22h-166v-462h-22v224h-351v-224h-22v484h22v-238h351v238h188z" />
    <glyph glyph-name="uni04A6" unicode="&#x4a6;" horiz-adv-x="1094" 
d="M770 383q123 0 196 -71t73 -215q0 -147 -77 -222.5t-195 -75.5q-48 0 -94 10l2 23q50 -10 92 -10q111 0 179.5 70.5t68.5 204.5t-67 198.5t-178 64.5q-96 0 -193 -36v-324h-23v687h-442v-687h-23v710h488v-361q102 34 193 34z" />
    <glyph glyph-name="uni04A7" unicode="&#x4a7;" horiz-adv-x="876" 
d="M634 248q102 0 163.5 -56.5t61.5 -164.5q0 -106 -66.5 -167t-168.5 -61q-36 0 -78 8l2 22q39 -8 76 -8q95 0 153.5 56t58.5 150q0 95 -53 147t-149 52q-82 0 -162 -28v-198h-22v462h-347v-462h-22v484h391v-263q83 27 162 27z" />
    <glyph glyph-name="uni04A8" unicode="&#x4a8;" horiz-adv-x="857" 
d="M854 22q-40 -26 -105 -26q-83 0 -157 37q-76 -37 -178 -37q-168 0 -266 102t-98 258q0 158 99 258t259 100q67 0 124 -21l-12 -21q-51 19 -112 19q-145 0 -239.5 -91.5t-94.5 -243.5q0 -150 92.5 -243.5t247.5 -93.5q87 0 151 28v1q-72 47 -112.5 128.5t-41.5 181.5
q-1 115 54.5 188t137.5 73q79 0 130.5 -73t51.5 -187q0 -105 -45.5 -185t-121.5 -126v-2q62 -27 131 -27q58 0 99 26zM435 358q1 -99 42.5 -178t114.5 -120h1q77 42 122.5 120t45.5 179q0 103 -44.5 170t-113.5 67q-73 0 -121 -67.5t-47 -170.5z" />
    <glyph glyph-name="uni04A9" unicode="&#x4a9;" horiz-adv-x="589" 
d="M578 4q-22 -8 -61 -8q-49 0 -101 29q-58 -29 -125 -29q-112 0 -183.5 71.5t-72.5 176.5q-1 103 62.5 173.5t160.5 70.5q25 0 40 -3l-7 -21q-16 2 -33 2q-88 0 -144.5 -64t-55.5 -158q1 -98 66.5 -162t166.5 -64q54 0 100 20v2q-54 36 -86 94.5t-32 125.5q0 77 40 131
t101 54q59 0 97.5 -54.5t38.5 -133.5q0 -64 -30 -123t-81 -95l1 -2q38 -19 77 -19q37 0 53 7zM296 260q0 -65 32.5 -121t86.5 -89q50 33 81 87.5t31 119.5q0 71 -32.5 118.5t-80.5 47.5q-50 0 -84 -47t-34 -116z" />
    <glyph glyph-name="uni04AA" unicode="&#x4aa;" horiz-adv-x="714" 
d="M408 20q152 0 252 125l19 -15q-107 -133 -271 -133h-11l-10 -41q88 -8 88 -70q0 -32 -22.5 -49t-55.5 -19q-42 -2 -73 10v25q25 -13 63 -13q33 0 49.5 13t15.5 37t-26.5 36t-66.5 12l16 60q-137 11 -225 104t-88 250t91.5 259.5t254.5 102.5t271 -134l-19 -16
q-100 127 -252 127t-237 -95.5t-85 -243.5q0 -157 91 -244.5t231 -87.5z" />
    <glyph glyph-name="uni04AB" unicode="&#x4ab;" horiz-adv-x="499" 
d="M461 72q-70 -73 -181 -75l-10 -41q88 -8 88 -70q0 -32 -22.5 -49t-55.5 -19q-42 -2 -73 10v25q25 -13 63 -13q33 0 49.5 13t15.5 37t-26.5 36t-66.5 12l16 60q-95 7 -153 74t-58 170q0 108 64.5 177t167.5 69q111 0 180 -77l-17 -17q-60 72 -163 72q-93 0 -151 -63
t-58 -161q0 -99 57.5 -161t150.5 -62q48 0 93.5 18.5t74.5 51.5z" />
    <glyph glyph-name="uni04AC" unicode="&#x4ac;" horiz-adv-x="542" 
d="M517 687h-236v-664h98v-170h-20l-2 147h-99v687h-233v23h492v-23z" />
    <glyph glyph-name="uni04AD" unicode="&#x4ad;" horiz-adv-x="428" 
d="M409 462h-184v-440h77v-165h-19l-2 143h-78v462h-184v22h390v-22z" />
    <glyph glyph-name="uni04AE" unicode="&#x4ae;" horiz-adv-x="556" 
d="M266 0v323l-248 387h28l230 -361h2l232 361h28l-249 -387v-323h-23z" />
    <glyph glyph-name="uni04AF" unicode="&#x4af;" horiz-adv-x="494" 
d="M439 484h25l-205 -494v-188h-22v188l-208 494h26l192 -460h2z" />
    <glyph glyph-name="uni04B0" unicode="&#x4b0;" horiz-adv-x="556" 
d="M538 710l-239 -371h152v-23h-162v-316h-23v316h-167v23h157l-238 371h28l230 -361h2l232 361h28z" />
    <glyph glyph-name="uni04B1" unicode="&#x4b1;" horiz-adv-x="494" 
d="M464 484l-192 -462h129v-22h-138l-4 -10v-188h-22v188l-4 10h-140v22h131l-195 462h26l192 -460h2l190 460h25z" />
    <glyph glyph-name="uni04B2" unicode="&#x4b2;" horiz-adv-x="626" 
d="M581 23v-170h-20l-2 147h-17l-238 331h-2l-240 -331h-28l254 354l-255 356h27l242 -335h1l240 335h29l-255 -356l237 -331h27z" />
    <glyph glyph-name="uni04B3" unicode="&#x4b3;" horiz-adv-x="476" 
d="M445 22v-165h-19l-2 143h-18l-172 222h-1l-171 -222h-29l186 242l-188 242h30l171 -223h2l172 223h30l-187 -241l170 -221h26z" />
    <glyph glyph-name="uni04B4" unicode="&#x4b4;" horiz-adv-x="870" 
d="M826 23v-170h-20l-2 147h-556v687h-233v23h492v-23h-236v-664h434v687h23v-687h98z" />
    <glyph glyph-name="uni04B5" unicode="&#x4b5;" horiz-adv-x="683" 
d="M653 22v-165h-19l-2 143h-438v462h-184v22h390v-22h-184v-440h338v462h22v-462h77z" />
    <glyph glyph-name="uni04B6" unicode="&#x4b6;" horiz-adv-x="670" 
d="M626 23v-170h-20l-2 147h-99v314q-53 -30 -118.5 -43.5t-112.5 -13.5q-111 0 -158.5 55t-47.5 172v226h23v-224q0 -112 42 -159t141 -47q47 0 113 14.5t118 46.5v369h23v-687h98z" />
    <glyph glyph-name="uni04B7" unicode="&#x4b7;" horiz-adv-x="541" 
d="M511 22v-165h-19l-2 143h-78v204q-92 -37 -180 -37q-98 0 -139.5 44.5t-41.5 151.5v121h22v-118q0 -102 36 -139.5t123 -37.5q92 0 180 38v257h22v-462h77z" />
    <glyph glyph-name="uni04B8" unicode="&#x4b8;" horiz-adv-x="617" 
d="M505 710h23v-710h-23v314q-74 -42 -184 -54v-154h-23v152q-9 -1 -24 -1q-111 0 -158.5 55t-47.5 172v226h23v-224q0 -112 42 -159t141 -47q15 0 24 1v180h23v-178q111 13 184 58v369z" />
    <glyph glyph-name="uni04B9" unicode="&#x4b9;" horiz-adv-x="515" 
d="M412 484h22v-484h-22v204q-73 -30 -143 -35v-109h-22v107h-15q-98 0 -139.5 44.5t-41.5 151.5v121h22v-118q0 -102 36 -139.5t123 -37.5h15v161h22v-159q71 5 143 36v257z" />
    <glyph glyph-name="uni04BA" unicode="&#x4ba;" horiz-adv-x="620" 
d="M346 455q111 0 158.5 -55t47.5 -172v-228h-23v226q0 112 -42 159t-141 47q-47 0 -114 -15t-120 -46v-371h-23v710h23v-313q54 29 120.5 43.5t113.5 14.5z" />
    <glyph glyph-name="uni04BB" unicode="&#x4bb;" horiz-adv-x="548" 
d="M81 0v736h22v-381h1q25 62 79.5 97.5t127.5 35.5q77 0 122 -51.5t45 -144.5v-292h-22v281q0 95 -40 140t-105 45q-95 0 -151.5 -62.5t-56.5 -164.5v-239h-22z" />
    <glyph glyph-name="uni04BC" unicode="&#x4bc;" horiz-adv-x="865" 
d="M813 373h-632q-1 -8 -1 -23q2 -148 86 -239t231 -91q83 0 158 30.5t113 89.5l19 -14q-42 -62 -121.5 -95.5t-168.5 -33.5q-159 0 -250.5 99t-91.5 254q0 15 1 22h-16q-140 0 -140 105q0 31 13 64l23 -5q-13 -32 -13 -59q0 -41 27 -61.5t90 -20.5h17q15 139 109 229
t237 90q59 0 113.5 -20.5t99 -60t71 -103.5t26.5 -144v-13zM503 691q-134 0 -220.5 -82.5t-100.5 -212.5h608q-2 131 -85 213t-202 82z" />
    <glyph glyph-name="uni04BD" unicode="&#x4bd;" horiz-adv-x="624" 
d="M581 243h-419v-1q0 -97 58 -160t149 -63q111 0 174 81l17 -13q-68 -90 -189 -90q-102 0 -167 69.5t-65 175.5v1h-6q-136 0 -136 102q0 30 13 62l22 -5q-13 -30 -13 -57q0 -41 26 -60.5t88 -19.5h7q8 97 72.5 160t156.5 63q94 0 153 -65.5t59 -165.5v-14zM369 466
q-82 0 -140 -57t-66 -144h395q-5 91 -56.5 146t-132.5 55z" />
    <glyph glyph-name="uni04BE" unicode="&#x4be;" horiz-adv-x="865" 
d="M813 373h-632q-1 -8 -1 -23q2 -148 86 -239t231 -91q83 0 158 30.5t113 89.5l19 -14q-41 -62 -119.5 -95t-165.5 -34l-1 -144h-20l-1 144q-152 6 -238.5 104t-86.5 249q0 15 1 22h-16q-140 0 -140 105q0 31 13 64l23 -5q-13 -32 -13 -59q0 -41 27 -61.5t90 -20.5h17
q15 139 109 229t237 90q59 0 113.5 -20.5t99 -60t71 -103.5t26.5 -144v-13zM503 691q-134 0 -220.5 -82.5t-100.5 -212.5h608q-2 131 -85 213t-202 82z" />
    <glyph glyph-name="uni04BF" unicode="&#x4bf;" horiz-adv-x="624" 
d="M581 243h-419v-1q0 -97 58 -160t149 -63q111 0 174 81l17 -13q-63 -86 -178 -90l-1 -140h-19l-1 140q-98 4 -160 72.5t-62 172.5v1h-6q-136 0 -136 102q0 30 13 62l22 -5q-13 -30 -13 -57q0 -41 26 -60.5t88 -19.5h7q8 97 72.5 160t156.5 63q94 0 153 -65.5t59 -165.5
v-14zM369 466q-82 0 -140 -57t-66 -144h395q-5 91 -56.5 146t-132.5 55z" />
    <glyph glyph-name="uni04C0" unicode="&#x4c0;" horiz-adv-x="215" 
d="M96 0v710h23v-710h-23z" />
    <glyph glyph-name="uni04C1" unicode="&#x4c1;" horiz-adv-x="918" 
d="M458 790q-56 0 -94 31t-43 84l22 4q5 -41 34.5 -69.5t80.5 -28.5t80.5 28.5t33.5 69.5l23 -4q-6 -53 -43.5 -84t-93.5 -31zM36 0l266 373l-268 337h30l381 -482h1v482h23v-484h1l375 484h30l-262 -337l271 -373h-29l-257 355l-129 -165v-190h-23v191l-129 164l-252 -355
h-29z" />
    <glyph glyph-name="uni04C2" unicode="&#x4c2;" horiz-adv-x="760" 
d="M377 561q-57 0 -94.5 33t-42.5 92l22 4q5 -48 34 -78t81 -30t81 30t33 78l23 -4q-6 -60 -43 -92.5t-94 -32.5zM31 0l197 277l-196 207h31l302 -317h1v317h22v-317h1l294 317h31l-191 -205l206 -279h-29l-193 262l-119 -128v-134h-22v134l-122 126l-187 -260h-26z" />
    <glyph glyph-name="uni04C3" unicode="&#x4c3;" horiz-adv-x="641" 
d="M305 379q116 0 192.5 -71t76.5 -211q0 -147 -77 -222.5t-195 -75.5q-48 0 -94 10l2 23q50 -10 92 -10q111 0 179.5 70.5t68.5 204.5q0 130 -70 194.5t-175 64.5q-25 0 -51 -3l-142 -164v-189h-23v710h23v-483h2l418 483h31l-287 -332q9 1 29 1z" />
    <glyph glyph-name="uni04C4" unicode="&#x4c4;" horiz-adv-x="520" 
d="M265 248q96 0 159.5 -57.5t63.5 -163.5t-66.5 -167t-166.5 -61q-36 0 -78 8l2 22q39 -8 76 -8q94 0 152 56t58 150t-55.5 146.5t-144.5 52.5q-23 0 -55 -2l-107 -107v-117h-22v484h22v-332l2 -1l332 333h32l-236 -237q10 1 32 1z" />
    <glyph glyph-name="uni04C5" unicode="&#x4c5;" horiz-adv-x="706" 
d="M608 23h38v-4l-59 -166h-20l48 147h-30v687h-340q-22 -307 -33 -393q-20 -160 -61 -228t-106 -68q-18 0 -30 4l2 22q11 -3 28 -3q53 0 88 59.5t55 207.5q18 133 34 422h386v-687z" />
    <glyph glyph-name="uni04C6" unicode="&#x4c6;" horiz-adv-x="543" 
d="M460 22h35v-4l-54 -161h-19l47 143h-31v462h-248q-7 -172 -19 -270q-12 -111 -46.5 -152t-84.5 -41q-15 0 -21 3l2 22q9 -3 21 -3q88 0 107 174q10 96 19 289h292v-462z" />
    <glyph glyph-name="uni04C7" unicode="&#x4c7;" horiz-adv-x="692" 
d="M580 710h23v-735q0 -92 -35 -134t-117 -42q-42 0 -72 14l2 23q29 -15 71 -15q62 0 95 32t33 122v348h-468v-323h-23v710h23v-364h468v364z" />
    <glyph glyph-name="uni04C8" unicode="&#x4c8;" horiz-adv-x="564" 
d="M461 484h22v-527q0 -82 -29.5 -120t-106.5 -38q-34 0 -65 14l3 22q28 -14 62 -14q60 0 87 28t27 108v267h-358v-224h-22v484h22v-238h358v238z" />
    <glyph glyph-name="uni04C9" unicode="&#x4c9;" horiz-adv-x="701" 
d="M603 23h38v-4l-59 -166h-20l48 147h-30v323h-468v-323h-23v710h23v-364h468v364h23v-687z" />
    <glyph glyph-name="uni04CA" unicode="&#x4ca;" horiz-adv-x="566" 
d="M483 22h35v-4l-54 -161h-19l47 143h-31v224h-358v-224h-22v484h22v-238h358v238h22v-462z" />
    <glyph glyph-name="uni04CB" unicode="&#x4cb;" horiz-adv-x="617" 
d="M505 710h23v-710h-99l-2 -147h-20v170h98v291q-53 -30 -118.5 -43.5t-112.5 -13.5q-111 0 -158.5 55t-47.5 172v226h23v-224q0 -112 42 -159t141 -47q47 0 113 14.5t118 46.5v369z" />
    <glyph glyph-name="uni04CC" unicode="&#x4cc;" horiz-adv-x="515" 
d="M412 484h22v-484h-78l-2 -143h-19v165h77v182q-92 -37 -180 -37q-98 0 -139.5 44.5t-41.5 151.5v121h22v-118q0 -102 36 -139.5t123 -37.5q92 0 180 38v257z" />
    <glyph glyph-name="uni04CD" unicode="&#x4cd;" horiz-adv-x="862" 
d="M763 23h38v-4l-59 -166h-20l48 147h-30v665h-1l-302 -510h-21l-303 510h-1v-665h-23v710h24l313 -525h2l312 525h23v-687z" />
    <glyph glyph-name="uni04CE" unicode="&#x4ce;" horiz-adv-x="656" 
d="M573 22h35v-4l-54 -161h-19l47 143h-31v439h-1l-213 -347h-21l-212 347h-1v-439h-22v484h22l223 -366h2l224 366h21v-462z" />
    <glyph glyph-name="uni04CF" unicode="&#x4cf;" horiz-adv-x="194" 
d="M86 0v736h22v-736h-22z" />
    <glyph glyph-name="uni04D0" unicode="&#x4d0;" horiz-adv-x="640" 
d="M320 790q-56 0 -94 31t-43 84l22 4q5 -41 34.5 -69.5t80.5 -28.5t80.5 28.5t33.5 69.5l23 -4q-6 -53 -43.5 -84t-93.5 -31zM29 0l275 710h29l278 -710h-25l-83 211h-367l-82 -211h-25zM145 234h349l-174 448h-2z" />
    <glyph glyph-name="uni04D1" unicode="&#x4d1;" horiz-adv-x="591" 
d="M287 561q-57 0 -94.5 33t-42.5 92l22 4q5 -48 34 -78t81 -30t81 30t33 78l23 -4q-6 -60 -43 -92.5t-94 -32.5zM285 -3q-101 0 -170.5 67t-69.5 173t67.5 178.5t173.5 72.5q69 0 125 -38t83 -103h1v137h22v-484h-22v133h-1q-27 -62 -82 -99t-127 -37zM285 19
q89 0 149.5 61t60.5 157t-58.5 162.5t-150.5 66.5t-155 -64t-63 -165q0 -92 60.5 -155t156.5 -63z" />
    <glyph glyph-name="uni04D2" unicode="&#x4d2;" horiz-adv-x="640" 
d="M245 846q-12 0 -20 8t-8 19q0 12 8 19.5t20 7.5q27 0 27 -27q0 -11 -7.5 -19t-19.5 -8zM392 846q-12 0 -20 8t-8 19q0 12 8 19.5t20 7.5q27 0 27 -27q0 -11 -7.5 -19t-19.5 -8zM29 0l275 710h29l278 -710h-25l-83 211h-367l-82 -211h-25zM145 234h349l-174 448h-2z" />
    <glyph glyph-name="uni04D3" unicode="&#x4d3;" horiz-adv-x="591" 
d="M212 606q-12 0 -20 8t-8 19q0 12 8 19.5t20 7.5q27 0 27 -27q0 -11 -7.5 -19t-19.5 -8zM359 606q-12 0 -20 8t-8 19q0 12 8 19.5t20 7.5q27 0 27 -27q0 -11 -7.5 -19t-19.5 -8zM285 -3q-101 0 -170.5 67t-69.5 173t67.5 178.5t173.5 72.5q69 0 125 -38t83 -103h1v137h22
v-484h-22v133h-1q-27 -62 -82 -99t-127 -37zM285 19q89 0 149.5 61t60.5 157t-58.5 162.5t-150.5 66.5t-155 -64t-63 -165q0 -92 60.5 -155t156.5 -63z" />
    <glyph glyph-name="uni04D4" unicode="&#x4d4;" horiz-adv-x="900" 
d="M5 0l412 710h428v-23h-389v-321h330v-23h-330v-320h409v-23h-432v211h-277l-123 -211h-28zM169 234h264v453h-1z" />
    <glyph glyph-name="uni04D5" unicode="&#x4d5;" horiz-adv-x="776" 
d="M738 255v-12h-363q3 -105 51.5 -164.5t129.5 -59.5q53 0 85 19.5t62 61.5l17 -13q-31 -45 -68.5 -67.5t-93.5 -22.5q-76 0 -122 40.5t-65 102.5h-1q-15 -66 -67.5 -104.5t-123.5 -38.5t-109.5 39.5t-38.5 97.5q0 57 43 93.5t129 36.5l151 1v24q0 97 -25.5 136.5
t-91.5 39.5q-80 0 -153 -42l-11 19q77 46 164 46q66 0 97.5 -33.5t38.5 -102.5h1q21 63 67 99.5t110 36.5q80 0 133.5 -66.5t53.5 -166.5zM376 265h339q-5 91 -49 146t-115 55q-76 0 -122 -55.5t-53 -145.5zM179 19q74 0 124.5 46t50.5 129v49l-151 -1q-65 0 -107 -28
t-42 -80q0 -48 32.5 -81.5t92.5 -33.5z" />
    <glyph glyph-name="uni04D6" unicode="&#x4d6;" horiz-adv-x="565" 
d="M286 790q-56 0 -94 31t-43 84l22 4q5 -41 34.5 -69.5t80.5 -28.5t80.5 28.5t33.5 69.5l23 -4q-6 -53 -43.5 -84t-93.5 -31zM89 0v710h412v-23h-389v-320h327v-23h-327v-321h410v-23h-433z" />
    <glyph glyph-name="uni04D7" unicode="&#x4d7;" horiz-adv-x="532" 
d="M278 561q-57 0 -94.5 33t-42.5 92l22 4q5 -48 34 -78t81 -30t81 30t33 78l23 -4q-6 -60 -43 -92.5t-94 -32.5zM489 243h-419v-1q0 -97 58 -160t149 -63q111 0 174 81l17 -13q-68 -90 -189 -90q-102 0 -167 69.5t-65 175.5q0 105 66 175.5t164 70.5q94 0 153 -65.5
t59 -165.5v-14zM277 466q-82 0 -140 -57t-66 -144h395q-5 91 -56.5 146t-132.5 55z" />
    <glyph glyph-name="uni04D8" unicode="&#x4d8;" horiz-adv-x="784" 
d="M376 714q157 0 251.5 -102.5t94.5 -256.5q0 -155 -93 -256.5t-238 -101.5q-137 0 -232 85.5t-95 242.5v13h633v17q-1 147 -88 241.5t-233 94.5q-135 0 -245 -91l-18 17q117 97 263 97zM391 20q125 0 209 82.5t95 212.5h-608q2 -133 87.5 -214t216.5 -81z" />
    <glyph glyph-name="uni04D9" unicode="&#x4d9;" horiz-adv-x="537" 
d="M255 488q103 0 169 -69.5t66 -175.5q0 -109 -60 -177.5t-166 -68.5q-98 0 -158.5 64t-61.5 163q0 10 2 18h421v1q0 97 -60 160t-152 63q-86 0 -160 -44l-11 18q80 48 171 48zM264 19q90 0 143 54.5t59 146.5h-399q2 -91 56.5 -146t140.5 -55z" />
    <glyph glyph-name="uni04DA" unicode="&#x4da;" horiz-adv-x="784" 
d="M322 846q-12 0 -20 8t-8 19q0 12 8 19.5t20 7.5q27 0 27 -27q0 -11 -7.5 -19t-19.5 -8zM469 846q-12 0 -20 8t-8 19q0 12 8 19.5t20 7.5q27 0 27 -27q0 -11 -7.5 -19t-19.5 -8zM376 714q157 0 251.5 -102.5t94.5 -256.5q0 -155 -93 -256.5t-238 -101.5q-137 0 -232 85.5
t-95 242.5v13h633v17q-1 147 -88 241.5t-233 94.5q-135 0 -245 -91l-18 17q117 97 263 97zM391 20q125 0 209 82.5t95 212.5h-608q2 -133 87.5 -214t216.5 -81z" />
    <glyph glyph-name="uni04DB" unicode="&#x4db;" horiz-adv-x="537" 
d="M203 606q-12 0 -20 8t-8 19q0 12 8 19.5t20 7.5q27 0 27 -27q0 -11 -7.5 -19t-19.5 -8zM350 606q-12 0 -20 8t-8 19q0 12 8 19.5t20 7.5q27 0 27 -27q0 -11 -7.5 -19t-19.5 -8zM255 488q103 0 169 -69.5t66 -175.5q0 -109 -60 -177.5t-166 -68.5q-98 0 -158.5 64
t-61.5 163q0 10 2 18h421v1q0 97 -60 160t-152 63q-86 0 -160 -44l-11 18q80 48 171 48zM264 19q90 0 143 54.5t59 146.5h-399q2 -91 56.5 -146t140.5 -55z" />
    <glyph glyph-name="uni04DC" unicode="&#x4dc;" horiz-adv-x="918" 
d="M383 846q-12 0 -20 8t-8 19q0 12 8 19.5t20 7.5q27 0 27 -27q0 -11 -7.5 -19t-19.5 -8zM530 846q-12 0 -20 8t-8 19q0 12 8 19.5t20 7.5q27 0 27 -27q0 -11 -7.5 -19t-19.5 -8zM36 0l266 373l-268 337h30l381 -482h1v482h23v-484h1l375 484h30l-262 -337l271 -373h-29
l-257 355l-129 -165v-190h-23v191l-129 164l-252 -355h-29z" />
    <glyph glyph-name="uni04DD" unicode="&#x4dd;" horiz-adv-x="760" 
d="M302 606q-12 0 -20 8t-8 19q0 12 8 19.5t20 7.5q27 0 27 -27q0 -11 -7.5 -19t-19.5 -8zM449 606q-12 0 -20 8t-8 19q0 12 8 19.5t20 7.5q27 0 27 -27q0 -11 -7.5 -19t-19.5 -8zM31 0l197 277l-196 207h31l302 -317h1v317h22v-317h1l294 317h31l-191 -205l206 -279h-29
l-193 262l-119 -128v-134h-22v134l-122 126l-187 -260h-26z" />
    <glyph glyph-name="uni04DE" unicode="&#x4de;" horiz-adv-x="593" 
d="M215 846q-12 0 -20 8t-8 19q0 12 8 19.5t20 7.5q27 0 27 -27q0 -11 -7.5 -19t-19.5 -8zM362 846q-12 0 -20 8t-8 19q0 12 8 19.5t20 7.5q27 0 27 -27q0 -11 -7.5 -19t-19.5 -8zM300 -3q-161 0 -251 104l16 19q36 -46 98.5 -73t137.5 -27q94 0 153 46.5t59 125.5
q0 78 -57 122.5t-161 44.5h-132v23h133q72 0 127.5 40t55.5 118q0 71 -50 111t-137 40q-115 0 -198 -64l-16 17q36 31 95 50.5t120 19.5q94 0 152 -48t58 -126q0 -58 -33.5 -104t-98.5 -64v-1q71 -10 118.5 -54t47.5 -122q0 -85 -62 -141.5t-175 -56.5z" />
    <glyph glyph-name="uni04DF" unicode="&#x4df;" horiz-adv-x="488" 
d="M179 606q-12 0 -20 8t-8 19q0 12 8 19.5t20 7.5q27 0 27 -27q0 -11 -7.5 -19t-19.5 -8zM326 606q-12 0 -20 8t-8 19q0 12 8 19.5t20 7.5q27 0 27 -27q0 -11 -7.5 -19t-19.5 -8zM240 -3q-112 0 -198 55l7 23q83 -56 191 -56q83 0 129 31.5t46 83.5q0 49 -38.5 77.5
t-109.5 28.5h-117v22h117q57 0 90.5 27t33.5 74q0 48 -40 75.5t-109 27.5q-96 0 -169 -44l-10 20q75 46 180 46q78 0 124.5 -33.5t46.5 -90.5q0 -42 -22 -70.5t-60 -40.5v-1q44 -8 75 -37.5t31 -79.5q0 -62 -50.5 -100t-147.5 -38z" />
    <glyph glyph-name="uni04E0" unicode="&#x4e0;" horiz-adv-x="583" 
d="M214 402q169 0 245.5 -51t76.5 -161q0 -83 -61 -138t-171 -55q-165 0 -255 104l16 19q36 -46 99 -73t141 -27q91 0 149.5 45t58.5 125q0 100 -70.5 144.5t-228.5 44.5h-34v20l298 287l-1 1h-411v23h444v-23z" />
    <glyph glyph-name="uni04E1" unicode="&#x4e1;" horiz-adv-x="453" 
d="M202 -201q-103 0 -188 56l6 23q46 -31 87 -44t95 -13q95 0 142.5 49t47.5 126q0 90 -74 135.5t-198 45.5h-17v19l260 265v1h-333v22h364v-20l-259 -265v-1q120 -2 200 -51t80 -151q0 -88 -55 -142.5t-158 -54.5z" />
    <glyph glyph-name="uni04E2" unicode="&#x4e2;" horiz-adv-x="709" 
d="M222 835v23h267v-23h-267zM89 0v710h23v-670h1l485 670h22v-710h-23v669h-1l-484 -669h-23z" />
    <glyph glyph-name="uni04E3" unicode="&#x4e3;" horiz-adv-x="575" 
d="M156 619v23h267v-23h-267zM81 0v484h22v-448h2l368 448h21v-484h-22v447h-2l-367 -447h-22z" />
    <glyph glyph-name="uni04E4" unicode="&#x4e4;" horiz-adv-x="709" 
d="M280 846q-12 0 -20 8t-8 19q0 12 8 19.5t20 7.5q27 0 27 -27q0 -11 -7.5 -19t-19.5 -8zM427 846q-12 0 -20 8t-8 19q0 12 8 19.5t20 7.5q27 0 27 -27q0 -11 -7.5 -19t-19.5 -8zM89 0v710h23v-670h1l485 670h22v-710h-23v669h-1l-484 -669h-23z" />
    <glyph glyph-name="uni04E5" unicode="&#x4e5;" horiz-adv-x="575" 
d="M214 606q-12 0 -20 8t-8 19q0 12 8 19.5t20 7.5q27 0 27 -27q0 -11 -7.5 -19t-19.5 -8zM361 606q-12 0 -20 8t-8 19q0 12 8 19.5t20 7.5q27 0 27 -27q0 -11 -7.5 -19t-19.5 -8zM81 0v484h22v-448h2l368 448h21v-484h-22v447h-2l-367 -447h-22z" />
    <glyph glyph-name="uni04E6" unicode="&#x4e6;" horiz-adv-x="822" 
d="M337 846q-12 0 -20 8t-8 19q0 12 8 19.5t20 7.5q27 0 27 -27q0 -11 -7.5 -19t-19.5 -8zM484 846q-12 0 -20 8t-8 19q0 12 8 19.5t20 7.5q27 0 27 -27q0 -11 -7.5 -19t-19.5 -8zM413 -3q-149 0 -250 100t-101 259q0 158 101 258t250 100q146 0 246.5 -100t100.5 -258
q0 -159 -100.5 -259t-246.5 -100zM413 20q136 0 229.5 94t93.5 242t-93.5 241.5t-229.5 93.5q-138 0 -232.5 -93.5t-94.5 -241.5q0 -149 94 -242.5t233 -93.5z" />
    <glyph glyph-name="uni04E7" unicode="&#x4e7;" horiz-adv-x="579" 
d="M216 606q-12 0 -20 8t-8 19q0 12 8 19.5t20 7.5q27 0 27 -27q0 -11 -7.5 -19t-19.5 -8zM363 606q-12 0 -20 8t-8 19q0 12 8 19.5t20 7.5q27 0 27 -27q0 -11 -7.5 -19t-19.5 -8zM290 -3q-107 0 -175 71t-68 174q0 102 68.5 174t174.5 72q102 0 172 -69t70 -177t-70 -176.5
t-172 -68.5zM290 19q93 0 156 62.5t63 160.5t-63.5 161t-155.5 63q-97 0 -158.5 -65t-61.5 -159t61 -158.5t159 -64.5z" />
    <glyph glyph-name="uni04E8" unicode="&#x4e8;" horiz-adv-x="822" 
d="M412 714q146 0 247 -100t101 -258q0 -159 -100.5 -259t-247.5 -100q-155 0 -252.5 103.5t-97.5 255.5q0 151 98 254.5t252 103.5zM412 691q-141 0 -231.5 -93t-94.5 -231h650q-4 144 -97 234t-227 90zM412 20q134 0 227 90t97 234h-650q5 -138 95 -231t231 -93z" />
    <glyph glyph-name="uni04E9" unicode="&#x4e9;" horiz-adv-x="579" 
d="M290 488q102 0 172 -69t70 -177t-70 -176.5t-172 -68.5q-107 0 -175 71t-68 174q0 102 68.5 174t174.5 72zM290 466q-95 0 -156 -62t-64 -153h439q-3 95 -66 155t-153 60zM290 19q90 0 152.5 58.5t66.5 151.5h-439q5 -89 65.5 -149.5t154.5 -60.5z" />
    <glyph glyph-name="uni04EA" unicode="&#x4ea;" horiz-adv-x="822" 
d="M339 846q-12 0 -20 8t-8 19q0 12 8 19.5t20 7.5q27 0 27 -27q0 -11 -7.5 -19t-19.5 -8zM486 846q-12 0 -20 8t-8 19q0 12 8 19.5t20 7.5q27 0 27 -27q0 -11 -7.5 -19t-19.5 -8zM412 714q146 0 247 -100t101 -258q0 -159 -100.5 -259t-247.5 -100q-155 0 -252.5 103.5
t-97.5 255.5q0 151 98 254.5t252 103.5zM412 691q-141 0 -231.5 -93t-94.5 -231h650q-4 144 -97 234t-227 90zM412 20q134 0 227 90t97 234h-650q5 -138 95 -231t231 -93z" />
    <glyph glyph-name="uni04EB" unicode="&#x4eb;" horiz-adv-x="579" 
d="M216 606q-12 0 -20 8t-8 19q0 12 8 19.5t20 7.5q27 0 27 -27q0 -11 -7.5 -19t-19.5 -8zM363 606q-12 0 -20 8t-8 19q0 12 8 19.5t20 7.5q27 0 27 -27q0 -11 -7.5 -19t-19.5 -8zM290 488q102 0 172 -69t70 -177t-70 -176.5t-172 -68.5q-107 0 -175 71t-68 174
q0 102 68.5 174t174.5 72zM290 466q-95 0 -156 -62t-64 -153h439q-3 95 -66 155t-153 60zM290 19q90 0 152.5 58.5t66.5 151.5h-439q5 -89 65.5 -149.5t154.5 -60.5z" />
    <glyph glyph-name="uni04EC" unicode="&#x4ec;" horiz-adv-x="725" 
d="M266 846q-12 0 -20 8t-8 19q0 12 8 19.5t20 7.5q27 0 27 -27q0 -11 -7.5 -19t-19.5 -8zM413 846q-12 0 -20 8t-8 19q0 12 8 19.5t20 7.5q27 0 27 -27q0 -11 -7.5 -19t-19.5 -8zM318 714q157 0 251.5 -103t94.5 -259q0 -159 -96.5 -257t-250.5 -98q-164 0 -269 120l18 15
q39 -49 103.5 -80.5t148.5 -31.5q141 0 230 89t92 235h-456v23h456q-5 143 -92 233.5t-230 90.5q-131 0 -240 -96l-18 17q115 102 258 102z" />
    <glyph glyph-name="uni04ED" unicode="&#x4ed;" horiz-adv-x="516" 
d="M177 606q-12 0 -20 8t-8 19q0 12 8 19.5t20 7.5q27 0 27 -27q0 -11 -7.5 -19t-19.5 -8zM324 606q-12 0 -20 8t-8 19q0 12 8 19.5t20 7.5q27 0 27 -27q0 -11 -7.5 -19t-19.5 -8zM230 488q103 0 171 -69t68 -177q0 -106 -65 -175.5t-173 -69.5q-118 0 -189 60l13 18
q67 -56 176 -56q97 0 154.5 60.5t60.5 153.5h-317v22h317q-4 94 -65 152.5t-152 58.5q-87 0 -160 -44l-10 20q75 46 171 46z" />
    <glyph glyph-name="uni04EE" unicode="&#x4ee;" horiz-adv-x="638" 
d="M454 858v-23h-267v23h267zM583 710h25l-244 -541q-3 -7 -9 -20q-18 -41 -28.5 -61t-30 -45.5t-44.5 -36t-58 -10.5q-70 0 -109 43l9 22q38 -42 100 -42q48 0 77 32t64 110l-305 549h25l291 -520h2q0 1 2 5z" />
    <glyph glyph-name="uni04EF" unicode="&#x4ef;" horiz-adv-x="506" 
d="M122 619v23h267v-23h-267zM162 -198l86 203l-221 479h27l205 -450h1l190 450h27l-290 -682h-25z" />
    <glyph glyph-name="uni04F0" unicode="&#x4f0;" horiz-adv-x="638" 
d="M245 846q-12 0 -20 8t-8 19q0 12 8 19.5t20 7.5q27 0 27 -27q0 -11 -7.5 -19t-19.5 -8zM392 846q-12 0 -20 8t-8 19q0 12 8 19.5t20 7.5q27 0 27 -27q0 -11 -7.5 -19t-19.5 -8zM583 710h25l-244 -541q-3 -7 -9 -20q-18 -41 -28.5 -61t-30 -45.5t-44.5 -36t-58 -10.5
q-70 0 -109 43l9 22q38 -42 100 -42q48 0 77 32t64 110l-305 549h25l291 -520h2q0 1 2 5z" />
    <glyph glyph-name="uni04F1" unicode="&#x4f1;" horiz-adv-x="506" 
d="M180 606q-12 0 -20 8t-8 19q0 12 8 19.5t20 7.5q27 0 27 -27q0 -11 -7.5 -19t-19.5 -8zM327 606q-12 0 -20 8t-8 19q0 12 8 19.5t20 7.5q27 0 27 -27q0 -11 -7.5 -19t-19.5 -8zM162 -198l86 203l-221 479h27l205 -450h1l190 450h27l-290 -682h-25z" />
    <glyph glyph-name="uni04F2" unicode="&#x4f2;" horiz-adv-x="638" 
d="M397 936l-124 -135h-29l122 135h31zM396 801h-28l122 135h31zM583 710h25l-244 -541q-3 -7 -9 -20q-18 -41 -28.5 -61t-30 -45.5t-44.5 -36t-58 -10.5q-70 0 -109 43l9 22q38 -42 100 -42q48 0 77 32t64 110l-305 549h25l291 -520h2q0 1 2 5z" />
    <glyph glyph-name="uni04F3" unicode="&#x4f3;" horiz-adv-x="506" 
d="M159 561l122 135h31l-124 -135h-29zM283 561l122 135h31l-125 -135h-28zM162 -198l86 203l-221 479h27l205 -450h1l190 450h27l-290 -682h-25z" />
    <glyph glyph-name="uni04F4" unicode="&#x4f4;" horiz-adv-x="617" 
d="M234 846q-12 0 -20 8t-8 19q0 12 8 19.5t20 7.5q27 0 27 -27q0 -11 -7.5 -19t-19.5 -8zM381 846q-12 0 -20 8t-8 19q0 12 8 19.5t20 7.5q27 0 27 -27q0 -11 -7.5 -19t-19.5 -8zM505 710h23v-710h-23v314q-53 -30 -118.5 -43.5t-112.5 -13.5q-111 0 -158.5 55t-47.5 172
v226h23v-224q0 -112 42 -159t141 -47q47 0 113 14.5t118 46.5v369z" />
    <glyph glyph-name="uni04F5" unicode="&#x4f5;" horiz-adv-x="515" 
d="M170 606q-12 0 -20 8t-8 19q0 12 8 19.5t20 7.5q27 0 27 -27q0 -11 -7.5 -19t-19.5 -8zM317 606q-12 0 -20 8t-8 19q0 12 8 19.5t20 7.5q27 0 27 -27q0 -11 -7.5 -19t-19.5 -8zM412 484h22v-484h-22v204q-92 -37 -180 -37q-98 0 -139.5 44.5t-41.5 151.5v121h22v-118
q0 -102 36 -139.5t123 -37.5q92 0 180 38v257z" />
    <glyph glyph-name="uni04F6" unicode="&#x4f6;" horiz-adv-x="520" 
d="M501 687h-389v-664h98v-170h-20l-2 147h-99v710h412v-23z" />
    <glyph glyph-name="uni04F7" unicode="&#x4f7;" horiz-adv-x="442" 
d="M414 462h-311v-440h77v-165h-19l-2 143h-78v484h333v-22z" />
    <glyph glyph-name="uni04F8" unicode="&#x4f8;" horiz-adv-x="781" 
d="M316 846q-12 0 -20 8t-8 19q0 12 8 19.5t20 7.5q27 0 27 -27q0 -11 -7.5 -19t-19.5 -8zM463 846q-12 0 -20 8t-8 19q0 12 8 19.5t20 7.5q27 0 27 -27q0 -11 -7.5 -19t-19.5 -8zM89 0v710h23v-307h186q108 0 171 -49t63 -153q0 -103 -63 -152t-171 -49h-209zM669 0v710h23
v-710h-23zM112 23h186q109 0 159.5 48t50.5 130q0 83 -50.5 131t-159.5 48h-186v-357z" />
    <glyph glyph-name="uni04F9" unicode="&#x4f9;" horiz-adv-x="646" 
d="M245 606q-12 0 -20 8t-8 19q0 12 8 19.5t20 7.5q27 0 27 -27q0 -11 -7.5 -19t-19.5 -8zM392 606q-12 0 -20 8t-8 19q0 12 8 19.5t20 7.5q27 0 27 -27q0 -11 -7.5 -19t-19.5 -8zM81 0v484h22v-185h168q161 0 161 -150q0 -72 -43 -110.5t-129 -38.5h-179zM543 0v484h22
v-484h-22zM103 22h157q149 0 149 127q0 128 -139 128h-167v-255z" />
    <glyph glyph-name="uni04FA" unicode="&#x4fa;" horiz-adv-x="547" 
d="M528 687h-389v-331h212v-23h-212v-418q0 -116 -102 -116q-34 0 -62 14l2 23q25 -15 62 -15q77 0 77 94v418h-106v23h106v354h412v-23z" />
    <glyph glyph-name="uni04FB" unicode="&#x4fb;" horiz-adv-x="442" 
d="M103 462v-211h229v-22h-229v-314q0 -116 -101 -116q-35 0 -63 14l3 22q25 -14 62 -14q77 0 77 94v314h-77v22h77v233h333v-22h-311z" />
    <glyph glyph-name="uni04FC" unicode="&#x4fc;" horiz-adv-x="604" 
d="M413 -201q-42 0 -72 14l2 23q29 -15 70 -15q129 0 129 126q0 31 -16 68.5t-31.5 60.5t-45.5 63l-145 192h-2l-240 -331h-28l254 354l-255 356h27l242 -335h1l240 335h29l-255 -356l150 -201q31 -41 47 -65t33.5 -65t17.5 -76q0 -68 -36.5 -108t-115.5 -40z" />
    <glyph glyph-name="uni04FD" unicode="&#x4fd;" horiz-adv-x="466" 
d="M302 -201q-41 0 -72 14l3 22q28 -14 69 -14q114 1 114 112q0 65 -80 163l-102 126h-1l-171 -222h-29l186 242l-188 242h30l171 -223h2l172 223h30l-187 -241l105 -133q85 -106 85 -178q0 -60 -34 -96.5t-103 -36.5z" />
    <glyph glyph-name="uni04FE" unicode="&#x4fe;" horiz-adv-x="604" 
d="M514 341h-188l245 -341h-29l-238 331h-2l-240 -331h-28l245 341h-187v23h189l-248 346h27l242 -335h1l240 335h29l-248 -346h190v-23z" />
    <glyph glyph-name="uni04FF" unicode="&#x4ff;" horiz-adv-x="466" 
d="M398 229h-138l176 -229h-30l-172 222h-1l-171 -222h-29l176 229h-139v22h142l-181 233h30l171 -223h2l172 223h30l-181 -233h143v-22z" />
    <glyph glyph-name="uni0510" unicode="&#x510;" horiz-adv-x="590" 
d="M295 -3q-118 0 -178 53t-60 137q0 79 49 126t113 57v1q-65 18 -97.5 64t-32.5 105q0 79 57 126.5t150 47.5q61 0 119 -21t93 -57l-16 -17q-76 72 -194 72q-85 0 -135 -40.5t-50 -112.5q1 -77 55 -116.5t126 -39.5h133v-23h-132q-96 0 -155 -47.5t-59 -125.5t58 -122
t155 -44q78 0 140 29t96 82l18 -17q-82 -117 -253 -117z" />
    <glyph glyph-name="uni0511" unicode="&#x511;" horiz-adv-x="480" 
d="M244 -3q-97 0 -146 37t-49 99q0 46 33 78.5t70 40.5v1q-38 12 -61.5 40t-23.5 67q0 59 46.5 93.5t124.5 34.5q97 0 179 -48l-10 -20q-79 46 -168 46q-69 0 -109 -28t-40 -79q0 -45 35 -71t92 -26h117v-22h-117q-64 0 -104.5 -31t-40.5 -77q0 -52 44.5 -82.5t127.5 -30.5
q106 0 185 58l9 -23q-82 -57 -194 -57z" />
    <glyph glyph-name="uni0512" unicode="&#x512;" horiz-adv-x="697" 
d="M608 710v-735q0 -92 -35 -134t-117 -42q-42 0 -72 14l2 23q28 -15 71 -15q62 0 95 32t33 122v712h-340q-22 -307 -33 -393q-20 -160 -61 -228t-106 -68q-18 0 -30 4l2 22q11 -3 28 -3q53 0 88 59.5t55 207.5q18 133 34 422h386z" />
    <glyph glyph-name="uni0513" unicode="&#x513;" horiz-adv-x="541" 
d="M460 484v-527q0 -82 -29.5 -120t-106.5 -38q-34 0 -65 14l3 22q28 -14 62 -14q60 0 87 28t27 108v505h-248q-7 -172 -19 -270q-12 -111 -46.5 -152t-84.5 -41q-15 0 -21 3l2 22q9 -3 21 -3q88 0 107 174q10 96 19 289h292z" />
    <glyph glyph-name="uni051A" unicode="&#x51a;" horiz-adv-x="830" 
d="M771 14l-15 -17l-104 93q-98 -93 -240 -93q-155 0 -252.5 103.5t-97.5 255.5q0 151 98 254.5t252 103.5q146 0 247 -100t101 -258q0 -149 -92 -249zM86 356q0 -142 91 -239t235 -97q131 0 222 86l-102 92l14 18l105 -93q85 93 85 233q0 148 -94 241.5t-230 93.5
q-144 0 -235 -97t-91 -238z" />
    <glyph glyph-name="uni051B" unicode="&#x51b;" horiz-adv-x="601" 
d="M499 -198v329h-1q-28 -61 -83 -97.5t-126 -36.5q-101 0 -170.5 67t-69.5 173t67 178.5t174 72.5q68 0 124 -38t84 -103h1v137h22v-682h-22zM289 19q88 0 149 61t61 157t-58.5 162.5t-150.5 66.5t-155 -64t-63 -165q0 -92 60.5 -155t156.5 -63z" />
    <glyph glyph-name="uni051C" unicode="&#x51c;" horiz-adv-x="991" 
d="M264 0l-230 710h25l219 -676h1l201 676h31l200 -676h1l220 676h25l-230 -710h-30l-201 677h-1l-202 -677h-29z" />
    <glyph glyph-name="uni051D" unicode="&#x51d;" horiz-adv-x="752" 
d="M206 0l-172 484h24l159 -445h2l143 445h26l145 -445h2l159 445h24l-172 -484h-24l-145 451h-1l-147 -451h-23z" />
    <glyph glyph-name="uni0524" unicode="&#x524;" horiz-adv-x="725" 
d="M681 23v-170h-20l-2 147h-99v687h-448v-687h-23v710h494v-687h98z" />
    <glyph glyph-name="uni0525" unicode="&#x525;" horiz-adv-x="583" 
d="M553 22v-165h-19l-2 143h-78v462h-351v-462h-22v484h395v-462h77z" />
    <glyph glyph-name="uni0528" unicode="&#x528;" horiz-adv-x="692" 
d="M580 710h23v-710h-23v323h-468v-408q0 -116 -102 -116q-34 0 -62 14l2 23q25 -15 62 -15q77 0 77 94v795h23v-364h468v364z" />
    <glyph glyph-name="uni0529" unicode="&#x529;" horiz-adv-x="564" 
d="M461 484h22v-484h-22v224h-358v-309q0 -116 -101 -116q-35 0 -63 14l3 22q25 -14 62 -14q77 0 77 94v569h22v-238h358v238z" />
    <glyph glyph-name="uni052E" unicode="&#x52e;" horiz-adv-x="750" 
d="M706 23v-170h-20l-2 147h-99v687h-340q-22 -307 -33 -393q-20 -160 -61 -228t-106 -68q-18 0 -30 4l2 22q11 -3 28 -3q53 0 88 59.5t55 207.5q18 133 34 422h386v-687h98z" />
    <glyph glyph-name="uni052F" unicode="&#x52f;" horiz-adv-x="567" 
d="M537 22v-165h-19l-2 143h-78v462h-248q-7 -172 -19 -270q-12 -111 -46.5 -152t-84.5 -41q-15 0 -21 3l2 22q9 -3 21 -3q88 0 107 174q10 96 19 289h292v-462h77z" />
    <glyph glyph-name="uni1E0C" unicode="&#x1e0c;" horiz-adv-x="706" 
d="M89 0v710h187q167 0 268 -98.5t101 -257.5t-100 -256.5t-266 -97.5h-190zM112 23h166q159 0 251 91t92 240t-94.5 241t-251.5 92h-163v-664zM322 -124q12 0 20 -8t8 -19q0 -12 -8 -19.5t-20 -7.5q-27 0 -27 27q0 11 7.5 19t19.5 8z" />
    <glyph glyph-name="uni1E0D" unicode="&#x1e0d;" horiz-adv-x="600" 
d="M288 -3q-102 0 -171.5 67t-69.5 173t67.5 178.5t173.5 72.5q69 0 125 -38t83 -104h2v390h22v-736h-22v135h-2q-25 -62 -80.5 -100t-127.5 -38zM288 19q88 0 149 61t61 157t-59 162.5t-151 66.5t-155 -64t-63 -165q0 -92 60.5 -155t157.5 -63zM300 -124q12 0 20 -8t8 -19
q0 -12 -8 -19.5t-20 -7.5q-27 0 -27 27q0 11 7.5 19t19.5 8z" />
    <glyph glyph-name="uni1E0E" unicode="&#x1e0e;" horiz-adv-x="706" 
d="M89 0v710h187q167 0 268 -98.5t101 -257.5t-100 -256.5t-266 -97.5h-190zM112 23h166q159 0 251 91t92 240t-94.5 241t-251.5 92h-163v-664zM456 -170h-267v23h267v-23z" />
    <glyph glyph-name="uni1E0F" unicode="&#x1e0f;" horiz-adv-x="600" 
d="M288 -3q-102 0 -171.5 67t-69.5 173t67.5 178.5t173.5 72.5q69 0 125 -38t83 -104h2v390h22v-736h-22v135h-2q-25 -62 -80.5 -100t-127.5 -38zM288 19q88 0 149 61t61 157t-59 162.5t-151 66.5t-155 -64t-63 -165q0 -92 60.5 -155t157.5 -63zM434 -170h-267v23h267v-23z
" />
    <glyph glyph-name="uni1E20" unicode="&#x1e20;" horiz-adv-x="760" 
d="M271 835v23h267v-23h-267zM409 -3q-153 0 -250 99.5t-97 257.5q0 160 97 260t250 100q156 0 258 -99l-16 -16q-96 92 -242 92q-144 0 -233.5 -93.5t-89.5 -243.5q0 -148 90 -241t233 -93q155 0 250 81v217h-269v23h292v-251q-104 -93 -273 -93z" />
    <glyph glyph-name="uni1E21" unicode="&#x1e21;" 
d="M149 619v23h267v-23h-267zM292 -201q-106 0 -198 56l7 23q90 -57 192 -57q98 0 148 52.5t50 141.5v131h-1q-26 -62 -80 -98t-129 -36q-99 0 -166.5 66.5t-67.5 174.5q0 99 65.5 167t169.5 68q70 0 125.5 -35t82.5 -95h1v126h22v-474q0 -97 -57 -154t-164 -57zM281 34
q96 0 153 62t57 157q0 94 -59.5 153.5t-149.5 59.5q-94 0 -153 -61.5t-59 -151.5q0 -98 60.5 -158.5t150.5 -60.5z" />
    <glyph glyph-name="uni1E24" unicode="&#x1e24;" horiz-adv-x="692" 
d="M89 0v710h23v-364h468v364h23v-710h-23v323h-468v-323h-23zM345 -124q12 0 20 -8t8 -19q0 -12 -8 -19.5t-20 -7.5q-27 0 -27 27q0 11 7.5 19t19.5 8z" />
    <glyph glyph-name="uni1E25" unicode="&#x1e25;" horiz-adv-x="548" 
d="M81 0v736h22v-381h1q25 62 79.5 97.5t127.5 35.5q77 0 122 -51.5t45 -144.5v-292h-22v281q0 95 -40 140t-105 45q-95 0 -151.5 -62.5t-56.5 -164.5v-239h-22zM280 -124q12 0 20 -8t8 -19q0 -12 -8 -19.5t-20 -7.5q-27 0 -27 27q0 11 7.5 19t19.5 8z" />
    <glyph glyph-name="uni1E2A" unicode="&#x1e2a;" horiz-adv-x="692" 
d="M89 0v710h23v-364h468v364h23v-710h-23v323h-468v-323h-23zM345 -207q-49 0 -83.5 33.5t-38.5 93.5h22q2 -46 29 -75.5t71 -29.5t71 29.5t30 75.5h21q-4 -60 -38.5 -93.5t-83.5 -33.5z" />
    <glyph glyph-name="uni1E2B" unicode="&#x1e2b;" horiz-adv-x="548" 
d="M81 0v736h22v-381h1q25 62 79.5 97.5t127.5 35.5q77 0 122 -51.5t45 -144.5v-292h-22v281q0 95 -40 140t-105 45q-95 0 -151.5 -62.5t-56.5 -164.5v-239h-22zM280 -207q-49 0 -83.5 33.5t-38.5 93.5h22q2 -46 29 -75.5t71 -29.5t71 29.5t30 75.5h21q-4 -60 -38.5 -93.5
t-83.5 -33.5z" />
    <glyph glyph-name="uni1E30" unicode="&#x1e30;" horiz-adv-x="612" 
d="M251 795l113 124h30l-114 -124h-29zM89 0v710h23v-483h2l418 483h31l-291 -336l296 -374h-30l-281 357l-145 -168v-189h-23z" />
    <glyph glyph-name="uni1E31" unicode="&#x1e31;" horiz-adv-x="483" 
d="M81 0v736h22v-596l1 -1l317 345h31l-193 -210l191 -274h-28l-179 256l-140 -151v-105h-22zM201 561l123 135h31l-124 -135h-30z" />
    <glyph glyph-name="uni1E36" unicode="&#x1e36;" horiz-adv-x="528" 
d="M89 0v710h23v-687h394v-23h-417zM298 -124q12 0 20 -8t8 -19q0 -12 -8 -19.5t-20 -7.5q-27 0 -27 27q0 11 7.5 19t19.5 8z" />
    <glyph glyph-name="uni1E37" unicode="&#x1e37;" horiz-adv-x="194" 
d="M86 0v736h22v-736h-22zM94 -124q12 0 20 -8t8 -19q0 -12 -8 -19.5t-20 -7.5q-27 0 -27 27q0 11 7.5 19t19.5 8z" />
    <glyph glyph-name="uni1E38" unicode="&#x1e38;" horiz-adv-x="528" 
d="M122 835v23h267v-23h-267zM89 0v710h23v-687h394v-23h-417zM298 -124q12 0 20 -8t8 -19q0 -12 -8 -19.5t-20 -7.5q-27 0 -27 27q0 11 7.5 19t19.5 8z" />
    <glyph glyph-name="uni1E39" unicode="&#x1e39;" horiz-adv-x="194" 
d="M-35 848v23h267v-23h-267zM86 0v736h22v-736h-22zM95 -124q12 0 20 -8t8 -19q0 -12 -8 -19.5t-20 -7.5q-27 0 -27 27q0 11 7.5 19t19.5 8z" />
    <glyph glyph-name="uni1E3A" unicode="&#x1e3a;" horiz-adv-x="528" 
d="M89 0v710h23v-687h394v-23h-417zM432 -170h-267v23h267v-23z" />
    <glyph glyph-name="uni1E3B" unicode="&#x1e3b;" horiz-adv-x="194" 
d="M86 0v736h22v-736h-22zM232 -170h-267v23h267v-23z" />
    <glyph glyph-name="uni1E42" unicode="&#x1e42;" horiz-adv-x="853" 
d="M89 0v710h24l313 -525h2l312 525h23v-710h-23v665h-1l-302 -510h-21l-303 510h-1v-665h-23zM424 -124q12 0 20 -8t8 -19q0 -12 -8 -19.5t-20 -7.5q-27 0 -27 27q0 11 7.5 19t19.5 8z" />
    <glyph glyph-name="uni1E43" unicode="&#x1e43;" horiz-adv-x="862" 
d="M81 0v484h22v-127h1q25 61 74 96t110 35q65 0 106 -39t54 -108h1q22 68 72 107.5t113 39.5q81 0 121.5 -56.5t40.5 -154.5v-277h-22v266q0 100 -36.5 150t-103.5 50q-77 0 -129 -63.5t-52 -163.5v-239h-22v266q0 99 -38 149.5t-105 50.5q-79 0 -132 -63t-53 -164v-239
h-22zM443 -124q12 0 20 -8t8 -19q0 -12 -8 -19.5t-20 -7.5q-27 0 -27 27q0 11 7.5 19t19.5 8z" />
    <glyph glyph-name="uni1E44" unicode="&#x1e44;" horiz-adv-x="728" 
d="M364 828q-12 0 -20 8t-8 19q0 12 8 19.5t20 7.5q27 0 27 -27q0 -11 -7.5 -19t-19.5 -8zM89 0v710h22l503 -670h1v670h23v-710h-23l-502 669h-1v-669h-23z" />
    <glyph glyph-name="uni1E45" unicode="&#x1e45;" horiz-adv-x="543" 
d="M283 606q-12 0 -20 8t-8 19q0 12 8 19.5t20 7.5q27 0 27 -27q0 -11 -7.5 -19t-19.5 -8zM81 0v484h22v-128h1q26 62 79 97t123 35q77 0 122 -51.5t45 -144.5v-292h-22v281q0 95 -40 140t-105 45q-91 0 -147 -62.5t-56 -164.5v-239h-22z" />
    <glyph glyph-name="uni1E46" unicode="&#x1e46;" horiz-adv-x="728" 
d="M89 0v710h22l503 -670h1v670h23v-710h-23l-502 669h-1v-669h-23zM377 -124q12 0 20 -8t8 -19q0 -12 -8 -19.5t-20 -7.5q-27 0 -27 27q0 11 7.5 19t19.5 8z" />
    <glyph glyph-name="uni1E47" unicode="&#x1e47;" horiz-adv-x="543" 
d="M81 0v484h22v-128h1q26 62 79 97t123 35q77 0 122 -51.5t45 -144.5v-292h-22v281q0 95 -40 140t-105 45q-91 0 -147 -62.5t-56 -164.5v-239h-22zM287 -124q12 0 20 -8t8 -19q0 -12 -8 -19.5t-20 -7.5q-27 0 -27 27q0 11 7.5 19t19.5 8z" />
    <glyph glyph-name="uni1E48" unicode="&#x1e48;" horiz-adv-x="728" 
d="M89 0v710h22l503 -670h1v670h23v-710h-23l-502 669h-1v-669h-23zM511 -170h-267v23h267v-23z" />
    <glyph glyph-name="uni1E49" unicode="&#x1e49;" horiz-adv-x="543" 
d="M81 0v484h22v-128h1q26 62 79 97t123 35q77 0 122 -51.5t45 -144.5v-292h-22v281q0 95 -40 140t-105 45q-91 0 -147 -62.5t-56 -164.5v-239h-22zM421 -170h-267v23h267v-23z" />
    <glyph glyph-name="uni1E5A" unicode="&#x1e5a;" horiz-adv-x="611" 
d="M89 0v710h233q110 0 165 -55t55 -145q0 -97 -56.5 -147.5t-156.5 -56.5l220 -306h-28l-220 305h-189v-305h-23zM112 328h192q111 0 162.5 49.5t51.5 132.5q0 88 -52 132.5t-143 44.5h-211v-359zM307 -124q12 0 20 -8t8 -19q0 -12 -8 -19.5t-20 -7.5q-27 0 -27 27
q0 11 7.5 19t19.5 8z" />
    <glyph glyph-name="uni1E5B" unicode="&#x1e5b;" horiz-adv-x="317" 
d="M81 0v484h22v-119h2q22 58 66.5 90.5t105.5 32.5q22 0 32 -1v-24q-20 2 -29 2q-80 0 -128.5 -61.5t-48.5 -161.5v-242h-22zM107 -124q12 0 20 -8t8 -19q0 -12 -8 -19.5t-20 -7.5q-27 0 -27 27q0 11 7.5 19t19.5 8z" />
    <glyph glyph-name="uni1E5C" unicode="&#x1e5c;" horiz-adv-x="611" 
d="M165 835v23h267v-23h-267zM89 0v710h233q110 0 165 -55t55 -145q0 -97 -56.5 -147.5t-156.5 -56.5l220 -306h-28l-220 305h-189v-305h-23zM112 328h192q111 0 162.5 49.5t51.5 132.5q0 88 -52 132.5t-143 44.5h-211v-359zM307 -124q12 0 20 -8t8 -19q0 -12 -8 -19.5
t-20 -7.5q-27 0 -27 27q0 11 7.5 19t19.5 8z" />
    <glyph glyph-name="uni1E5D" unicode="&#x1e5d;" horiz-adv-x="317" 
d="M61 619v23h267v-23h-267zM81 0v484h22v-119h2q22 58 66.5 90.5t105.5 32.5q22 0 32 -1v-24q-20 2 -29 2q-80 0 -128.5 -61.5t-48.5 -161.5v-242h-22zM107 -124q12 0 20 -8t8 -19q0 -12 -8 -19.5t-20 -7.5q-27 0 -27 27q0 11 7.5 19t19.5 8z" />
    <glyph glyph-name="uni1E5E" unicode="&#x1e5e;" horiz-adv-x="611" 
d="M89 0v710h233q110 0 165 -55t55 -145q0 -97 -56.5 -147.5t-156.5 -56.5l220 -306h-28l-220 305h-189v-305h-23zM112 328h192q111 0 162.5 49.5t51.5 132.5q0 88 -52 132.5t-143 44.5h-211v-359zM441 -170h-267v23h267v-23z" />
    <glyph glyph-name="uni1E5F" unicode="&#x1e5f;" horiz-adv-x="317" 
d="M81 0v484h22v-119h2q22 58 66.5 90.5t105.5 32.5q22 0 32 -1v-24q-20 2 -29 2q-80 0 -128.5 -61.5t-48.5 -161.5v-242h-22zM241 -170h-267v23h267v-23z" />
    <glyph glyph-name="uni1E60" unicode="&#x1e60;" horiz-adv-x="558" 
d="M279 828q-12 0 -20 8t-8 19q0 12 8 19.5t20 7.5q27 0 27 -27q0 -11 -7.5 -19t-19.5 -8zM282 -3q-149 0 -239 107l18 18q37 -50 96.5 -76t126.5 -26q83 0 140 40.5t57 113.5q0 20 -5 37.5t-11 30t-20.5 25.5t-24 20t-31.5 18t-32.5 15.5t-38.5 15.5t-38 15q-36 14 -51 21
t-45.5 21.5t-45 27.5t-32 32.5t-25 42.5t-7.5 51q0 73 56.5 120t145.5 47q113 0 203 -74l-16 -19q-86 70 -186 70q-72 0 -125.5 -38.5t-53.5 -105.5q0 -36 14.5 -63t47 -48.5t56.5 -32.5t71 -30q8 -3 33 -13t33.5 -13.5t30 -13t29.5 -14.5t25 -15.5t23.5 -19t17 -21
t15 -25.5t8 -29.5t3.5 -34.5q0 -77 -59.5 -127t-163.5 -50z" />
    <glyph glyph-name="uni1E61" unicode="&#x1e61;" horiz-adv-x="415" 
d="M212 606q-12 0 -20 8t-8 19q0 12 8 19.5t20 7.5q27 0 27 -27q0 -11 -7.5 -19t-19.5 -8zM211 -3q-102 0 -177 67l13 18q71 -63 164 -63q64 0 102 30t38 73q0 16 -3 28.5t-13 23t-16.5 17t-25.5 15t-26.5 12t-34 12.5t-34.5 12q-36 13 -56 22t-42.5 24.5t-32.5 36t-10 47.5
q0 49 40 82.5t99 33.5q91 0 158 -58l-15 -16q-60 51 -142 51q-50 0 -83.5 -27t-33.5 -64q0 -23 9 -40.5t29 -30.5t36 -20.5t47 -18.5q8 -3 29 -10.5l28 -10t24.5 -9t23.5 -10.5t19 -11.5t18 -13t13 -14.5t10.5 -18.5t5 -21.5t2.5 -25q-1 -52 -44.5 -87.5t-118.5 -35.5z" />
    <glyph glyph-name="uni1E62" unicode="&#x1e62;" horiz-adv-x="558" 
d="M282 -3q-149 0 -239 107l18 18q37 -50 96.5 -76t126.5 -26q83 0 140 40.5t57 113.5q0 20 -5 37.5t-11 30t-20.5 25.5t-24 20t-31.5 18t-32.5 15.5t-38.5 15.5t-38 15q-36 14 -51 21t-45.5 21.5t-45 27.5t-32 32.5t-25 42.5t-7.5 51q0 73 56.5 120t145.5 47q113 0 203 -74
l-16 -19q-86 70 -186 70q-72 0 -125.5 -38.5t-53.5 -105.5q0 -36 14.5 -63t47 -48.5t56.5 -32.5t71 -30q8 -3 33 -13t33.5 -13.5t30 -13t29.5 -14.5t25 -15.5t23.5 -19t17 -21t15 -25.5t8 -29.5t3.5 -34.5q0 -77 -59.5 -127t-163.5 -50zM292 -124q12 0 20 -8t8 -19
q0 -12 -8 -19.5t-20 -7.5q-27 0 -27 27q0 11 7.5 19t19.5 8z" />
    <glyph glyph-name="uni1E63" unicode="&#x1e63;" horiz-adv-x="415" 
d="M211 -3q-102 0 -177 67l13 18q71 -63 164 -63q64 0 102 30t38 73q0 16 -3 28.5t-13 23t-16.5 17t-25.5 15t-26.5 12t-34 12.5t-34.5 12q-36 13 -56 22t-42.5 24.5t-32.5 36t-10 47.5q0 49 40 82.5t99 33.5q91 0 158 -58l-15 -16q-60 51 -142 51q-50 0 -83.5 -27
t-33.5 -64q0 -23 9 -40.5t29 -30.5t36 -20.5t47 -18.5q8 -3 29 -10.5l28 -10t24.5 -9t23.5 -10.5t19 -11.5t18 -13t13 -14.5t10.5 -18.5t5 -21.5t2.5 -25q-1 -52 -44.5 -87.5t-118.5 -35.5zM207 -124q12 0 20 -8t8 -19q0 -12 -8 -19.5t-20 -7.5q-27 0 -27 27q0 11 7.5 19
t19.5 8z" />
    <glyph glyph-name="uni1E6C" unicode="&#x1e6c;" horiz-adv-x="542" 
d="M258 0v687h-233v23h492v-23h-236v-687h-23zM270 -124q12 0 20 -8t8 -19q0 -12 -8 -19.5t-20 -7.5q-27 0 -27 27q0 11 7.5 19t19.5 8z" />
    <glyph glyph-name="uni1E6D" unicode="&#x1e6d;" horiz-adv-x="354" 
d="M204 -3q-63 0 -85.5 33t-22.5 98v334h-67v22h67v175l22 3v-178h195v-22h-195v-319q0 -64 16 -94t67 -30q54 0 102 32l6 -22q-48 -32 -105 -32zM201 -124q12 0 20 -8t8 -19q0 -12 -8 -19.5t-20 -7.5q-27 0 -27 27q0 11 7.5 19t19.5 8z" />
    <glyph glyph-name="uni1E6E" unicode="&#x1e6e;" horiz-adv-x="542" 
d="M258 0v687h-233v23h492v-23h-236v-687h-23zM402 -170h-267v23h267v-23z" />
    <glyph glyph-name="uni1E6F" unicode="&#x1e6f;" horiz-adv-x="354" 
d="M204 -3q-63 0 -85.5 33t-22.5 98v334h-67v22h67v175l22 3v-178h195v-22h-195v-319q0 -64 16 -94t67 -30q54 0 102 32l6 -22q-48 -32 -105 -32zM335 -170h-267v23h267v-23z" />
    <glyph glyph-name="Wgrave" unicode="&#x1e80;" horiz-adv-x="991" 
d="M483 795l-114 124h30l113 -124h-29zM264 0l-230 710h25l219 -676h1l201 676h31l200 -676h1l220 676h25l-230 -710h-30l-201 677h-1l-202 -677h-29z" />
    <glyph glyph-name="wgrave" unicode="&#x1e81;" horiz-adv-x="752" 
d="M359 565l-114 127h30l113 -127h-29zM206 0l-172 484h24l159 -445h2l143 445h26l145 -445h2l159 445h24l-172 -484h-24l-145 451h-1l-147 -451h-23z" />
    <glyph glyph-name="Wacute" unicode="&#x1e82;" horiz-adv-x="991" 
d="M477 795l113 124h30l-114 -124h-29zM264 0l-230 710h25l219 -676h1l201 676h31l200 -676h1l220 676h25l-230 -710h-30l-201 677h-1l-202 -677h-29z" />
    <glyph glyph-name="wacute" unicode="&#x1e83;" horiz-adv-x="752" 
d="M359 561l123 135h31l-124 -135h-30zM206 0l-172 484h24l159 -445h2l143 445h26l145 -445h2l159 445h24l-172 -484h-24l-145 451h-1l-147 -451h-23z" />
    <glyph glyph-name="Wdieresis" unicode="&#x1e84;" horiz-adv-x="991" 
d="M422 828q-12 0 -20 8t-8 19q0 12 8 19.5t20 7.5q27 0 27 -27q0 -11 -7.5 -19t-19.5 -8zM569 828q-12 0 -20 8t-8 19q0 12 8 19.5t20 7.5q27 0 27 -27q0 -11 -7.5 -19t-19.5 -8zM264 0l-230 710h25l219 -676h1l201 676h31l200 -676h1l220 676h25l-230 -710h-30l-201 677
h-1l-202 -677h-29z" />
    <glyph glyph-name="wdieresis" unicode="&#x1e85;" horiz-adv-x="752" 
d="M301 606q-12 0 -20 8t-8 19q0 12 8 19.5t20 7.5q27 0 27 -27q0 -11 -7.5 -19t-19.5 -8zM448 606q-12 0 -20 8t-8 19q0 12 8 19.5t20 7.5q27 0 27 -27q0 -11 -7.5 -19t-19.5 -8zM206 0l-172 484h24l159 -445h2l143 445h26l145 -445h2l159 445h24l-172 -484h-24l-145 451
h-1l-147 -451h-23z" />
    <glyph glyph-name="uni1E8E" unicode="&#x1e8e;" horiz-adv-x="556" 
d="M278 828q-12 0 -20 8t-8 19q0 12 8 19.5t20 7.5q27 0 27 -27q0 -11 -7.5 -19t-19.5 -8zM266 0v323l-248 387h28l230 -361h2l232 361h28l-249 -387v-323h-23z" />
    <glyph glyph-name="uni1E8F" unicode="&#x1e8f;" horiz-adv-x="506" 
d="M256 606q-12 0 -20 8t-8 19q0 12 8 19.5t20 7.5q27 0 27 -27q0 -11 -7.5 -19t-19.5 -8zM162 -198l86 203l-221 479h27l205 -450h1l190 450h27l-290 -682h-25z" />
    <glyph glyph-name="uni1E92" unicode="&#x1e92;" horiz-adv-x="588" 
d="M56 0v21l434 665l-1 1h-406v23h437v-23l-433 -663l1 -1h437v-23h-469zM288 -124q12 0 20 -8t8 -19q0 -12 -8 -19.5t-20 -7.5q-27 0 -27 27q0 11 7.5 19t19.5 8z" />
    <glyph glyph-name="uni1E93" unicode="&#x1e93;" horiz-adv-x="437" 
d="M29 0v22l342 439v1h-330v22h361v-20l-343 -441v-1h349v-22h-379zM215 -124q12 0 20 -8t8 -19q0 -12 -8 -19.5t-20 -7.5q-27 0 -27 27q0 11 7.5 19t19.5 8z" />
    <glyph glyph-name="uni1E97" unicode="&#x1e97;" horiz-adv-x="354" 
d="M67 749q-12 0 -20 8t-8 19q0 12 8 19.5t20 7.5q27 0 27 -27q0 -11 -7.5 -19t-19.5 -8zM214 749q-12 0 -20 8t-8 19q0 12 8 19.5t20 7.5q27 0 27 -27q0 -11 -7.5 -19t-19.5 -8zM204 -3q-63 0 -85.5 33t-22.5 98v334h-67v22h67v175l22 3v-178h195v-22h-195v-319
q0 -64 16 -94t67 -30q54 0 102 32l6 -22q-48 -32 -105 -32z" />
    <glyph glyph-name="uni1E9E" unicode="&#x1e9e;" horiz-adv-x="695" 
d="M435 373q108 -42 138 -60q81 -50 81 -139q0 -77 -60 -127t-163 -50q-143 0 -233 100l13 23q38 -49 97 -74.5t125 -25.5q82 0 139.5 40.5t57.5 113.5q0 20 -5 37.5t-11 30t-21 25.5t-23.5 20t-32 18.5t-32.5 15.5t-38.5 15.5t-37.5 14.5q-59 24 -85 37l153 277l-1 2
q-99 24 -212 24q-105 0 -153 -43t-48 -134v-514h-23v517q0 100 54 148.5t167 48.5q120 0 251 -32l-155 -285q50 -21 58 -24z" />
    <glyph glyph-name="uni1EA0" unicode="&#x1ea0;" horiz-adv-x="640" 
d="M29 0l275 710h29l278 -710h-25l-83 211h-367l-82 -211h-25zM145 234h349l-174 448h-2zM319 -124q12 0 20 -8t8 -19q0 -12 -8 -19.5t-20 -7.5q-27 0 -27 27q0 11 7.5 19t19.5 8z" />
    <glyph glyph-name="uni1EA1" unicode="&#x1ea1;" horiz-adv-x="591" 
d="M285 -3q-101 0 -170.5 67t-69.5 173t67.5 178.5t173.5 72.5q69 0 125 -38t83 -103h1v137h22v-484h-22v133h-1q-27 -62 -82 -99t-127 -37zM285 19q89 0 149.5 61t60.5 157t-58.5 162.5t-150.5 66.5t-155 -64t-63 -165q0 -92 60.5 -155t156.5 -63zM289 -124q12 0 20 -8
t8 -19q0 -12 -8 -19.5t-20 -7.5q-27 0 -27 27q0 11 7.5 19t19.5 8z" />
    <glyph glyph-name="uni1EA2" unicode="&#x1ea2;" horiz-adv-x="640" 
d="M304 784q6 4 25 17t27 19t20 17t17 20.5t5 19.5q0 44 -60 44q-26 0 -51.5 -9t-38.5 -22l-6 24q45 29 96 29q37 0 59.5 -16.5t22.5 -51.5q0 -11 -5 -22t-15.5 -21.5t-18.5 -17t-23 -17t-19 -13.5h-35zM29 0l275 710h29l278 -710h-25l-83 211h-367l-82 -211h-25zM145 234
h349l-174 448h-2z" />
    <glyph glyph-name="uni1EA3" unicode="&#x1ea3;" horiz-adv-x="591" 
d="M264 555q3 2 14.5 10t15.5 11t14.5 10.5t15.5 12t13 11.5t12 12.5t8.5 12.5t6.5 13.5t2 13.5q0 44 -60 44q-26 0 -51.5 -9t-38.5 -22l-6 24q45 29 96 29q37 0 59.5 -16.5t22.5 -51.5q0 -9 -3 -18.5t-10 -19t-12 -16t-16.5 -16t-16 -13t-17.5 -12.5t-14 -10h-35zM285 -3
q-101 0 -170.5 67t-69.5 173t67.5 178.5t173.5 72.5q69 0 125 -38t83 -103h1v137h22v-484h-22v133h-1q-27 -62 -82 -99t-127 -37zM285 19q89 0 149.5 61t60.5 157t-58.5 162.5t-150.5 66.5t-155 -64t-63 -165q0 -92 60.5 -155t156.5 -63z" />
    <glyph glyph-name="uni1EA4" unicode="&#x1ea4;" horiz-adv-x="640" 
d="M447 856l123 135h31l-125 -135h-29zM184 795l125 109h25l122 -109h-30l-104 92h-2l-107 -92h-29zM29 0l275 710h29l278 -710h-25l-83 211h-367l-82 -211h-25zM145 234h349l-174 448h-2z" />
    <glyph glyph-name="uni1EA5" unicode="&#x1ea5;" horiz-adv-x="591" 
d="M384 641l123 135h31l-125 -135h-29zM153 563l125 128h25l122 -128h-29l-104 110h-2l-108 -110h-29zM285 -3q-101 0 -170.5 67t-69.5 173t67.5 178.5t173.5 72.5q69 0 125 -38t83 -103h1v137h22v-484h-22v133h-1q-27 -62 -82 -99t-127 -37zM285 19q89 0 149.5 61t60.5 157
t-58.5 162.5t-150.5 66.5t-155 -64t-63 -165q0 -92 60.5 -155t156.5 -63z" />
    <glyph glyph-name="uni1EA6" unicode="&#x1ea6;" horiz-adv-x="640" 
d="M478 855l-125 134h31l123 -134h-29zM184 795l125 109h25l122 -109h-30l-104 92h-2l-107 -92h-29zM29 0l275 710h29l278 -710h-25l-83 211h-367l-82 -211h-25zM145 234h349l-174 448h-2z" />
    <glyph glyph-name="uni1EA7" unicode="&#x1ea7;" horiz-adv-x="591" 
d="M452 641l-125 135h31l123 -135h-29zM149 564l125 128h25l122 -128h-29l-104 110h-2l-108 -110h-29zM285 -3q-101 0 -170.5 67t-69.5 173t67.5 178.5t173.5 72.5q69 0 125 -38t83 -103h1v137h22v-484h-22v133h-1q-27 -62 -82 -99t-127 -37zM285 19q89 0 149.5 61t60.5 157
t-58.5 162.5t-150.5 66.5t-155 -64t-63 -165q0 -92 60.5 -155t156.5 -63z" />
    <glyph glyph-name="uni1EA8" unicode="&#x1ea8;" horiz-adv-x="640" 
d="M440 856q4 3 23.5 15.5t26 18t19 16t17 20t4.5 18.5q0 41 -58 41q-24 0 -49 -8t-37 -21l-6 22q44 28 92 28q35 0 57 -15.5t22 -48.5q0 -11 -5 -21t-15 -20t-18 -16t-22 -16t-18 -13h-33zM184 795l125 109h25l122 -109h-30l-104 92h-2l-107 -92h-29zM29 0l275 710h29
l278 -710h-25l-83 211h-367l-82 -211h-25zM145 234h349l-174 448h-2z" />
    <glyph glyph-name="uni1EA9" unicode="&#x1ea9;" horiz-adv-x="591" 
d="M402 634q3 2 13.5 9.5t15 10.5t14.5 10t15 11.5t12.5 11.5t11.5 12.5t8 12t6 13t2 12.5q0 42 -58 42q-24 0 -49 -8t-37 -21l-6 23q43 27 92 27q35 0 57 -16t22 -49q0 -9 -3 -18t-9.5 -18t-12 -15.5t-15.5 -15t-15.5 -12.5l-16.5 -12t-13 -10h-34zM150 562l125 128h25
l122 -128h-29l-104 110h-2l-108 -110h-29zM285 -3q-101 0 -170.5 67t-69.5 173t67.5 178.5t173.5 72.5q69 0 125 -38t83 -103h1v137h22v-484h-22v133h-1q-27 -62 -82 -99t-127 -37zM285 19q89 0 149.5 61t60.5 157t-58.5 162.5t-150.5 66.5t-155 -64t-63 -165
q0 -92 60.5 -155t156.5 -63z" />
    <glyph glyph-name="uni1EAA" unicode="&#x1eaa;" horiz-adv-x="640" 
d="M405 923q-31 0 -87 41q-39 28 -64 28q-42 0 -64 -61l-21 6q26 77 84 77q28 0 78 -32q4 -3 16.5 -11.5t19.5 -13t17.5 -8.5t19.5 -4q19 0 35 15.5t25 46.5l21 -7q-11 -38 -33 -57.5t-47 -19.5zM184 795l125 109h25l122 -109h-30l-104 92h-2l-107 -92h-29zM29 0l275 710h29
l278 -710h-25l-83 211h-367l-82 -211h-25zM145 234h349l-174 448h-2z" />
    <glyph glyph-name="uni1EAB" unicode="&#x1eab;" horiz-adv-x="591" 
d="M148 765l-21 6q26 77 84 77q32 0 75 -30q4 -2 14 -9.5t15.5 -11t14 -8t16.5 -6.5t15 -2q24 0 38 15t23 47l21 -7q-22 -77 -82 -77q-30 0 -88 41q-36 26 -61 26q-42 0 -64 -61zM152 562l125 128h25l122 -128h-29l-104 110h-2l-108 -110h-29zM285 -3q-101 0 -170.5 67
t-69.5 173t67.5 178.5t173.5 72.5q69 0 125 -38t83 -103h1v137h22v-484h-22v133h-1q-27 -62 -82 -99t-127 -37zM285 19q89 0 149.5 61t60.5 157t-58.5 162.5t-150.5 66.5t-155 -64t-63 -165q0 -92 60.5 -155t156.5 -63z" />
    <glyph glyph-name="uni1EAC" unicode="&#x1eac;" horiz-adv-x="640" 
d="M184 795l125 109h25l122 -109h-30l-104 92h-2l-107 -92h-29zM29 0l275 710h29l278 -710h-25l-83 211h-367l-82 -211h-25zM145 234h349l-174 448h-2zM319 -124q12 0 20 -8t8 -19q0 -12 -8 -19.5t-20 -7.5q-27 0 -27 27q0 11 7.5 19t19.5 8z" />
    <glyph glyph-name="uni1EAD" unicode="&#x1ead;" horiz-adv-x="591" 
d="M151 562l125 128h25l122 -128h-29l-104 110h-2l-108 -110h-29zM285 -3q-101 0 -170.5 67t-69.5 173t67.5 178.5t173.5 72.5q69 0 125 -38t83 -103h1v137h22v-484h-22v133h-1q-27 -62 -82 -99t-127 -37zM285 19q89 0 149.5 61t60.5 157t-58.5 162.5t-150.5 66.5t-155 -64
t-63 -165q0 -92 60.5 -155t156.5 -63zM289 -124q12 0 20 -8t8 -19q0 -12 -8 -19.5t-20 -7.5q-27 0 -27 27q0 11 7.5 19t19.5 8z" />
    <glyph glyph-name="uni1EAE" unicode="&#x1eae;" horiz-adv-x="640" 
d="M303 886l123 134h31l-125 -134h-29zM321 787q-51 0 -88 28.5t-41 73.5h22q3 -33 32 -57.5t75 -24.5t75 24.5t31 57.5h23q-4 -46 -41 -74t-88 -28zM29 0l275 710h29l278 -710h-25l-83 211h-367l-82 -211h-25zM145 234h349l-174 448h-2z" />
    <glyph glyph-name="uni1EAF" unicode="&#x1eaf;" horiz-adv-x="591" 
d="M264 691l123 135h31l-125 -135h-29zM287 561q-49 0 -83.5 33.5t-38.5 93.5h21q3 -46 30 -75.5t71 -29.5t71 29.5t29 75.5h22q-4 -60 -38.5 -93.5t-83.5 -33.5zM285 -3q-101 0 -170.5 67t-69.5 173t67.5 178.5t173.5 72.5q69 0 125 -38t83 -103h1v137h22v-484h-22v133h-1
q-27 -62 -82 -99t-127 -37zM285 19q89 0 149.5 61t60.5 157t-58.5 162.5t-150.5 66.5t-155 -64t-63 -165q0 -92 60.5 -155t156.5 -63z" />
    <glyph glyph-name="uni1EB0" unicode="&#x1eb0;" horiz-adv-x="640" 
d="M311 886l-125 134h31l123 -134h-29zM320 787q-51 0 -88 28.5t-41 73.5h22q3 -33 32 -57.5t75 -24.5t75 24.5t31 57.5h23q-4 -46 -41 -74t-88 -28zM29 0l275 710h29l278 -710h-25l-83 211h-367l-82 -211h-25zM145 234h349l-174 448h-2z" />
    <glyph glyph-name="uni1EB1" unicode="&#x1eb1;" horiz-adv-x="591" 
d="M292 691l-125 135h31l123 -135h-29zM287 561q-49 0 -83.5 33.5t-38.5 93.5h21q3 -46 30 -75.5t71 -29.5t71 29.5t29 75.5h22q-4 -60 -38.5 -93.5t-83.5 -33.5zM285 -3q-101 0 -170.5 67t-69.5 173t67.5 178.5t173.5 72.5q69 0 125 -38t83 -103h1v137h22v-484h-22v133h-1
q-27 -62 -82 -99t-127 -37zM285 19q89 0 149.5 61t60.5 157t-58.5 162.5t-150.5 66.5t-155 -64t-63 -165q0 -92 60.5 -155t156.5 -63z" />
    <glyph glyph-name="uni1EB2" unicode="&#x1eb2;" horiz-adv-x="640" 
d="M294 891q6 4 22 15t24 17t18.5 15.5t15 18.5t4.5 18q0 39 -54 39q-53 0 -81 -28l-5 22q41 26 86 26q74 0 74 -61q0 -10 -4.5 -20t-14 -19t-17 -15.5t-20.5 -15.5t-17 -12h-31zM320 787q-51 0 -88 28.5t-41 73.5h22q3 -33 32 -57.5t75 -24.5t75 24.5t31 57.5h23
q-4 -46 -41 -74t-88 -28zM29 0l275 710h29l278 -710h-25l-83 211h-367l-82 -211h-25zM145 234h349l-174 448h-2z" />
    <glyph glyph-name="uni1EB3" unicode="&#x1eb3;" horiz-adv-x="591" 
d="M261 674q3 2 13.5 9.5t15 10.5t14.5 10t15 11.5t12.5 11.5t11.5 12.5t8 12t6 13t2 12.5q0 42 -58 42q-24 0 -49 -8t-37 -21l-6 23q43 27 92 27q35 0 57 -16t22 -49q0 -9 -3 -18t-9.5 -18t-12 -15.5t-15.5 -15t-15.5 -12.5l-16.5 -12t-13 -10h-34zM286 561
q-49 0 -83.5 33.5t-38.5 93.5h21q3 -46 30 -75.5t71 -29.5t71 29.5t29 75.5h22q-4 -60 -38.5 -93.5t-83.5 -33.5zM285 -3q-101 0 -170.5 67t-69.5 173t67.5 178.5t173.5 72.5q69 0 125 -38t83 -103h1v137h22v-484h-22v133h-1q-27 -62 -82 -99t-127 -37zM285 19
q89 0 149.5 61t60.5 157t-58.5 162.5t-150.5 66.5t-155 -64t-63 -165q0 -92 60.5 -155t156.5 -63z" />
    <glyph glyph-name="uni1EB4" unicode="&#x1eb4;" horiz-adv-x="640" 
d="M402 910q-31 0 -87 41q-39 28 -64 28q-42 0 -64 -61l-21 6q26 77 84 77q28 0 78 -32q4 -3 16.5 -11.5t19.5 -13t17.5 -8.5t19.5 -4q19 0 35 15.5t25 46.5l21 -7q-11 -38 -33 -57.5t-47 -19.5zM320 787q-51 0 -88 28.5t-41 73.5h22q3 -33 32 -57.5t75 -24.5t75 24.5
t31 57.5h23q-4 -46 -41 -74t-88 -28zM29 0l275 710h29l278 -710h-25l-83 211h-367l-82 -211h-25zM145 234h349l-174 448h-2z" />
    <glyph glyph-name="uni1EB5" unicode="&#x1eb5;" horiz-adv-x="591" 
d="M149 748l-21 6q26 77 84 77q32 0 75 -30q4 -2 14 -9.5t15.5 -11t14 -8t16.5 -6.5t15 -2q24 0 38 15t23 47l21 -7q-22 -77 -82 -77q-30 0 -88 41q-36 26 -61 26q-42 0 -64 -61zM287 561q-49 0 -83.5 33.5t-38.5 93.5h21q3 -46 30 -75.5t71 -29.5t71 29.5t29 75.5h22
q-4 -60 -38.5 -93.5t-83.5 -33.5zM285 -3q-101 0 -170.5 67t-69.5 173t67.5 178.5t173.5 72.5q69 0 125 -38t83 -103h1v137h22v-484h-22v133h-1q-27 -62 -82 -99t-127 -37zM285 19q89 0 149.5 61t60.5 157t-58.5 162.5t-150.5 66.5t-155 -64t-63 -165q0 -92 60.5 -155
t156.5 -63z" />
    <glyph glyph-name="uni1EB6" unicode="&#x1eb6;" horiz-adv-x="640" 
d="M320 791q-48 0 -83 31.5t-39 81.5h21q3 -36 30.5 -63.5t70.5 -27.5t70.5 27.5t29.5 63.5h22q-4 -51 -39 -82t-83 -31zM29 0l275 710h29l278 -710h-25l-83 211h-367l-82 -211h-25zM145 234h349l-174 448h-2zM319 -124q12 0 20 -8t8 -19q0 -12 -8 -19.5t-20 -7.5
q-27 0 -27 27q0 11 7.5 19t19.5 8z" />
    <glyph glyph-name="uni1EB7" unicode="&#x1eb7;" horiz-adv-x="591" 
d="M287 561q-49 0 -83.5 33.5t-38.5 93.5h21q3 -46 30 -75.5t71 -29.5t71 29.5t29 75.5h22q-4 -60 -38.5 -93.5t-83.5 -33.5zM285 -3q-101 0 -170.5 67t-69.5 173t67.5 178.5t173.5 72.5q69 0 125 -38t83 -103h1v137h22v-484h-22v133h-1q-27 -62 -82 -99t-127 -37zM285 19
q89 0 149.5 61t60.5 157t-58.5 162.5t-150.5 66.5t-155 -64t-63 -165q0 -92 60.5 -155t156.5 -63zM289 -124q12 0 20 -8t8 -19q0 -12 -8 -19.5t-20 -7.5q-27 0 -27 27q0 11 7.5 19t19.5 8z" />
    <glyph glyph-name="uni1EB8" unicode="&#x1eb8;" horiz-adv-x="565" 
d="M89 0v710h412v-23h-389v-320h327v-23h-327v-321h410v-23h-433zM300 -124q12 0 20 -8t8 -19q0 -12 -8 -19.5t-20 -7.5q-27 0 -27 27q0 11 7.5 19t19.5 8z" />
    <glyph glyph-name="uni1EB9" unicode="&#x1eb9;" horiz-adv-x="532" 
d="M489 243h-419v-1q0 -97 58 -160t149 -63q111 0 174 81l17 -13q-68 -90 -189 -90q-102 0 -167 69.5t-65 175.5q0 105 66 175.5t164 70.5q94 0 153 -65.5t59 -165.5v-14zM277 466q-82 0 -140 -57t-66 -144h395q-5 91 -56.5 146t-132.5 55zM283 -124q12 0 20 -8t8 -19
q0 -12 -8 -19.5t-20 -7.5q-27 0 -27 27q0 11 7.5 19t19.5 8z" />
    <glyph glyph-name="uni1EBA" unicode="&#x1eba;" horiz-adv-x="565" 
d="M270 784q6 4 25 17t27 19t20 17t17 20.5t5 19.5q0 44 -60 44q-26 0 -51.5 -9t-38.5 -22l-6 24q45 29 96 29q37 0 59.5 -16.5t22.5 -51.5q0 -11 -5 -22t-15.5 -21.5t-18.5 -17t-23 -17t-19 -13.5h-35zM89 0v710h412v-23h-389v-320h327v-23h-327v-321h410v-23h-433z" />
    <glyph glyph-name="uni1EBB" unicode="&#x1ebb;" horiz-adv-x="532" 
d="M297 706q-26 0 -51.5 -9t-38.5 -22l-6 24q45 29 96 29q37 0 59.5 -16.5t22.5 -51.5q0 -9 -3 -18.5t-10 -19t-12 -16t-16.5 -16t-16 -13t-17.5 -12.5t-14 -10h-35q3 2 14.5 10t15.5 11t14.5 10.5t15.5 12t13 11.5t12 12.5t8.5 12.5t6.5 13.5t2 13.5q0 44 -60 44zM489 243
h-419v-1q0 -97 58 -160t149 -63q111 0 174 81l17 -13q-68 -90 -189 -90q-102 0 -167 69.5t-65 175.5q0 105 66 175.5t164 70.5q94 0 153 -65.5t59 -165.5v-14zM277 466q-82 0 -140 -57t-66 -144h395q-5 91 -56.5 146t-132.5 55z" />
    <glyph glyph-name="uni1EBC" unicode="&#x1ebc;" horiz-adv-x="565" 
d="M364 795q-31 0 -87 41q-38 28 -64 28q-42 0 -64 -61l-21 6q26 77 84 77q28 0 78 -32q4 -3 16.5 -11.5t19.5 -13t17.5 -8.5t19.5 -4q19 0 35 15.5t25 46.5l21 -7q-11 -38 -33 -57.5t-47 -19.5zM89 0v710h412v-23h-389v-320h327v-23h-327v-321h410v-23h-433z" />
    <glyph glyph-name="uni1EBD" unicode="&#x1ebd;" horiz-adv-x="532" 
d="M205 650q-42 0 -64 -61l-21 6q26 77 84 77q32 0 77 -31q4 -3 17 -12l19.5 -13.5t17.5 -8.5t20 -4q19 0 35 15.5t25 46.5l21 -7q-11 -38 -33 -57.5t-47 -19.5q-6 0 -12 1t-11 2.5t-12 5t-10.5 5.5t-11.5 7t-10.5 6.5t-10.5 7.5t-10 7q-38 27 -63 27zM489 243h-419v-1
q0 -97 58 -160t149 -63q111 0 174 81l17 -13q-68 -90 -189 -90q-102 0 -167 69.5t-65 175.5q0 105 66 175.5t164 70.5q94 0 153 -65.5t59 -165.5v-14zM277 466q-82 0 -140 -57t-66 -144h395q-5 91 -56.5 146t-132.5 55z" />
    <glyph glyph-name="uni1EBE" unicode="&#x1ebe;" horiz-adv-x="565" 
d="M413 856l123 135h31l-125 -135h-29zM150 795l125 109h25l122 -109h-30l-104 92h-2l-107 -92h-29zM89 0v710h412v-23h-389v-320h327v-23h-327v-321h410v-23h-433z" />
    <glyph glyph-name="uni1EBF" unicode="&#x1ebf;" horiz-adv-x="532" 
d="M529 776l-125 -135h-29l123 135h31zM281 673l-108 -110h-29l125 128h25l122 -128h-29l-104 110h-2zM277 488q94 0 153 -65.5t59 -165.5v-14h-419v-1q0 -97 58 -160t149 -63q111 0 174 81l17 -13q-68 -90 -189 -90q-102 0 -167 69.5t-65 175.5q0 105 66 175.5t164 70.5z
M277 466q-82 0 -140 -57t-66 -144h395q-5 91 -56.5 146t-132.5 55z" />
    <glyph glyph-name="uni1EC0" unicode="&#x1ec0;" horiz-adv-x="565" 
d="M444 855l-125 134h31l123 -134h-29zM150 795l125 109h25l122 -109h-30l-104 92h-2l-107 -92h-29zM89 0v710h412v-23h-389v-320h327v-23h-327v-321h410v-23h-433z" />
    <glyph glyph-name="uni1EC1" unicode="&#x1ec1;" horiz-adv-x="532" 
d="M472 641h-29l-125 135h31zM277 674l-108 -110h-29l125 128h25l122 -128h-29l-104 110h-2zM489 243h-419v-1q0 -97 58 -160t149 -63q111 0 174 81l17 -13q-68 -90 -189 -90q-102 0 -167 69.5t-65 175.5q0 105 66 175.5t164 70.5q94 0 153 -65.5t59 -165.5v-14zM277 466
q-82 0 -140 -57t-66 -144h395q-5 91 -56.5 146t-132.5 55z" />
    <glyph glyph-name="uni1EC2" unicode="&#x1ec2;" horiz-adv-x="565" 
d="M406 856q4 3 23.5 15.5t26 18t19 16t17 20t4.5 18.5q0 41 -58 41q-24 0 -49 -8t-37 -21l-6 22q44 28 92 28q35 0 57 -15.5t22 -48.5q0 -11 -5 -21t-15 -20t-18 -16t-22 -16t-18 -13h-33zM150 795l125 109h25l122 -109h-30l-104 92h-2l-107 -92h-29zM89 0v710h412v-23
h-389v-320h327v-23h-327v-321h410v-23h-433z" />
    <glyph glyph-name="uni1EC3" unicode="&#x1ec3;" horiz-adv-x="532" 
d="M433 779q-24 0 -49 -8t-37 -21l-6 23q43 27 92 27q35 0 57 -16t22 -49q0 -9 -3 -18t-9.5 -18t-12 -15.5t-15.5 -15t-15.5 -12.5l-16.5 -12t-13 -10h-34q3 2 13.5 9.5t15 10.5t14.5 10t15 11.5t12.5 11.5t11.5 12.5t8 12t6 13t2 12.5q0 42 -58 42zM278 672l-108 -110h-29
l125 128h25l122 -128h-29l-104 110h-2zM277 488q94 0 153 -65.5t59 -165.5v-14h-419v-1q0 -97 58 -160t149 -63q111 0 174 81l17 -13q-68 -90 -189 -90q-102 0 -167 69.5t-65 175.5q0 105 66 175.5t164 70.5zM277 466q-82 0 -140 -57t-66 -144h395q-5 91 -56.5 146
t-132.5 55z" />
    <glyph glyph-name="uni1EC4" unicode="&#x1ec4;" horiz-adv-x="565" 
d="M371 923q-31 0 -87 41q-39 28 -64 28q-42 0 -64 -61l-21 6q26 77 84 77q28 0 78 -32q4 -3 16.5 -11.5t19.5 -13t17.5 -8.5t19.5 -4q19 0 35 15.5t25 46.5l21 -7q-11 -38 -33 -57.5t-47 -19.5zM150 795l125 109h25l122 -109h-30l-104 92h-2l-107 -92h-29zM89 0v710h412
v-23h-389v-320h327v-23h-327v-321h410v-23h-433z" />
    </font>
</defs>
</svg>
