<?xml version="1.0" standalone="no"?>
<!DOCTYPE svg PUBLIC "-//W3C//DTD SVG 1.1//EN" "http://www.w3.org/Graphics/SVG/1.1/DTD/svg11.dtd" >
<svg xmlns="http://www.w3.org/2000/svg" xmlns:xlink="http://www.w3.org/1999/xlink" version="1.1">
<metadata>
Created by FontForge 20170731 at Sat Sep  9 08:14:46 2017
 By Aleksey,,,
Copyright (c) 2015 by Kostas Bartsokas. All rights reserved.
</metadata>
<defs>
<font id="AvertaCyr-ExtraBoldItalic" horiz-adv-x="586" >
  <font-face 
    font-family="Averta Cyr ExtraBold Italic"
    font-weight="400"
    font-style="italic"
    font-stretch="normal"
    units-per-em="1000"
    panose-1="0 0 9 0 0 0 0 0 0 0"
    ascent="783"
    descent="-217"
    x-height="489"
    cap-height="710"
    bbox="-747 -389 1386 1062"
    underline-thickness="58"
    underline-position="-155"
    slope="-7"
    unicode-range="U+000D-2E18"
  />
<missing-glyph horiz-adv-x="396" 
 />
    <glyph glyph-name=".notdef" horiz-adv-x="396" 
 />
    <glyph glyph-name="glyph1" horiz-adv-x="0" 
 />
    <glyph glyph-name="glyph2" horiz-adv-x="333" 
 />
    <glyph glyph-name="nonmarkingreturn" unicode="&#xd;" horiz-adv-x="0" 
 />
    <glyph glyph-name="space" unicode=" " horiz-adv-x="178" 
 />
    <glyph glyph-name="exclam" unicode="!" horiz-adv-x="292" 
d="M102 242l35 494h159l-87 -494h-107zM135 -11q-39 0 -62.5 24.5t-23.5 62.5q0 39 24.5 63.5t64.5 24.5t63.5 -24t23.5 -61q0 -40 -24.5 -65t-65.5 -25z" />
    <glyph glyph-name="quotedbl" unicode="&#x22;" horiz-adv-x="424" 
d="M54 443l59 267h149l-96 -267h-112zM251 443l59 267h150l-97 -267h-112z" />
    <glyph glyph-name="numbersign" unicode="#" horiz-adv-x="590" 
d="M53 -47l48 182h-86l14 109h102l34 131h-96l13 110h113l43 171h102l-44 -171h106l44 171h101l-44 -171h91l-14 -110h-107l-33 -131h100l-15 -109h-116l-47 -182h-101l47 182h-105l-48 -182h-102zM232 244h107l32 131h-105z" />
    <glyph glyph-name="dollar" unicode="$" horiz-adv-x="525" 
d="M306 407q13 -8 39.5 -23t38.5 -23t32.5 -22t30 -25t20 -27t15 -34.5t4.5 -40.5q0 -93 -54.5 -150t-147.5 -67l-15 -112h-98l15 116q-113 23 -170 113l110 97q22 -37 55 -56.5t67 -19.5q36 0 56.5 16t20.5 39q0 18 -14 30t-57 37q-3 2 -5 3t-5 3t-5 3q-82 48 -108 73
q-54 52 -54 126q0 82 52 137t134 67l14 115h99l-15 -118q94 -21 146 -97l-109 -92q-43 56 -100 56q-26 0 -43 -14.5t-17 -36.5q1 -18 15.5 -34t52.5 -39z" />
    <glyph glyph-name="percent" unicode="%" horiz-adv-x="989" 
d="M375 -25l-107 49l371 704l107 -49zM247 319q-79 0 -131.5 52.5t-52.5 134.5q0 89 60 150t146 61q80 0 132.5 -52t52.5 -134q0 -90 -60.5 -151t-146.5 -61zM251 421q38 0 64.5 30.5t26.5 76.5q0 39 -22 62.5t-56 23.5q-37 0 -63 -30.5t-26 -75.5q0 -40 21.5 -63.5
t54.5 -23.5zM746 -9q-80 0 -132 52.5t-52 134.5q0 89 60 150t146 61q80 0 132.5 -52t52.5 -134q0 -91 -60.5 -151.5t-146.5 -60.5zM750 93q38 0 64.5 30.5t26.5 76.5q0 39 -22 62.5t-56 23.5q-36 0 -62.5 -30.5t-26.5 -75.5q0 -40 21.5 -63.5t54.5 -23.5z" />
    <glyph glyph-name="ampersand" unicode="&#x26;" horiz-adv-x="719" 
d="M216 -9q-85 0 -139.5 52t-54.5 139q0 67 36.5 127t101.5 90q-44 44 -44 107q0 92 63 152.5t158 60.5q51 0 88.5 -13.5t59 -37.5t33 -48.5t18.5 -55.5l-124 -39q-9 67 -68 68q-35 0 -57 -23.5t-22 -60.5q0 -23 15.5 -37.5t40.5 -14.5h406l-16 -134h-142
q-24 -154 -114 -243t-239 -89zM241 125q71 0 122.5 58.5t68.5 139.5h-130q-56 0 -93.5 -39.5t-37.5 -86.5q0 -34 19.5 -53t50.5 -19z" />
    <glyph glyph-name="quotesingle" unicode="'" horiz-adv-x="227" 
d="M54 443l59 267h149l-96 -267h-112z" />
    <glyph glyph-name="parenleft" unicode="(" horiz-adv-x="301" 
d="M109 -163q-65 136 -65 320q0 160 47 317.5t134 273.5l99 -44q-69 -112 -107.5 -251.5t-38.5 -276.5q0 -153 48 -285z" />
    <glyph glyph-name="parenright" unicode=")" horiz-adv-x="301" 
d="M90 -158l-100 43q70 115 107.5 253.5t37.5 275.5q0 158 -47 285l116 53q66 -128 66 -319q0 -161 -46 -316.5t-134 -274.5z" />
    <glyph glyph-name="asterisk" unicode="*" horiz-adv-x="366" 
d="M156 380l17 97l-73 -52l-37 76l77 43l-67 45l53 76l63 -52l8 97h86l-16 -97l74 51l36 -75l-78 -44l68 -44l-53 -76l-61 52l-10 -97h-87z" />
    <glyph glyph-name="plus" unicode="+" horiz-adv-x="531" 
d="M176 40l21 174h-151l16 126h151l22 176h128l-22 -176h152l-16 -126h-152l-21 -174h-128z" />
    <glyph glyph-name="comma" unicode="," horiz-adv-x="238" 
d="M-27 -133l59 267h148l-101 -267h-106z" />
    <glyph glyph-name="hyphen" unicode="-" horiz-adv-x="359" 
d="M40 240l17 137h277l-17 -137h-277z" />
    <glyph glyph-name="period" unicode="." horiz-adv-x="267" 
d="M111 -11q-39 0 -62.5 24.5t-23.5 62.5q0 39 24.5 63.5t64.5 24.5t63.5 -24t23.5 -61q0 -40 -24.5 -65t-65.5 -25z" />
    <glyph glyph-name="slash" unicode="/" horiz-adv-x="395" 
d="M26 -111l-102 49l447 854l99 -50z" />
    <glyph glyph-name="zero" unicode="0" horiz-adv-x="576" 
d="M262 -9q-103 0 -158.5 69.5t-55.5 201.5q0 114 31 210t99 159.5t162 63.5q102 0 157.5 -70t55.5 -201q0 -114 -31.5 -210t-99.5 -159.5t-160 -63.5zM270 137q33 0 58 29t38.5 75t20 94.5t6.5 96.5q0 118 -63 118q-32 0 -57 -29.5t-39 -76.5t-20.5 -96.5t-6.5 -96.5
q0 -114 63 -114z" />
    <glyph glyph-name="one" unicode="1" horiz-adv-x="400" 
d="M256 687h125l-84 -687h-157l60 487l-94 -70l-64 119z" />
    <glyph glyph-name="two" unicode="2" horiz-adv-x="485" 
d="M4 0l9 101l204 222q100 107 100 176q0 53 -48 53q-24 0 -52 -18t-48 -50l-104 84q35 57 95 92.5t134 35.5q77 0 129.5 -48t52.5 -128q0 -73 -33.5 -134t-99.5 -130l-110 -113v-2h202l-18 -141h-413z" />
    <glyph glyph-name="three" unicode="3" horiz-adv-x="489" 
d="M208 -9q-85 0 -140 44.5t-70 115.5l142 50q7 -72 66 -72q38 0 61 29.5t23 73.5q0 58 -62 58h-46l14 123h40q38 0 60 27.5t22 64.5q0 24 -13.5 38t-34.5 14q-50 0 -80 -59l-118 71q28 59 86 92.5t127 33.5q84 0 133.5 -41t49.5 -117q0 -58 -25.5 -105.5t-71.5 -76.5v-1
q77 -41 77 -139q0 -101 -68 -162.5t-172 -61.5z" />
    <glyph glyph-name="four" unicode="4" horiz-adv-x="516" 
d="M410 239h80l-17 -130h-78l-14 -109h-151l13 109h-244l11 94l333 484h122zM175 224h98l27 208z" />
    <glyph glyph-name="five" unicode="5" horiz-adv-x="496" 
d="M463 546h-215l-19 -111q36 10 68 10q74 0 117.5 -48.5t43.5 -135.5q0 -120 -72 -195t-185 -75q-140 0 -206 112l119 86q27 -58 81 -58q50 0 78 35t28 86q0 35 -16.5 53t-44.5 18q-47 0 -93 -36l-80 32l65 368h348z" />
    <glyph glyph-name="six" unicode="6" horiz-adv-x="533" 
d="M240 -9q-89 0 -144.5 58.5t-55.5 163.5q0 116 46.5 219t135.5 177t205 99l25 -125q-162 -63 -223 -175l1 -1q57 35 115 35q65 0 108.5 -45.5t43.5 -129.5q0 -122 -69.5 -199t-187.5 -77zM252 128q39 0 67 35.5t28 84.5q0 71 -67 71q-50 0 -93 -48q-3 -21 -3 -41
q0 -45 18 -73.5t50 -28.5z" />
    <glyph glyph-name="seven" unicode="7" horiz-adv-x="434" 
d="M71 687h387l-12 -101l-267 -602l-154 28l244 535h-215z" />
    <glyph glyph-name="eight" unicode="8" horiz-adv-x="518" 
d="M222 -9q-90 0 -145.5 44.5t-55.5 121.5q0 68 35 126t95 86v2q-24 13 -40.5 42.5t-16.5 70.5q0 92 63.5 151.5t163.5 59.5q72 0 120 -38.5t48 -109.5q0 -54 -25.5 -102.5t-66.5 -69.5v-1q87 -37 87 -145q0 -112 -72 -175t-190 -63zM283 431q27 0 46 25.5t19 58.5
q0 57 -49 57q-27 0 -45.5 -25t-18.5 -57q0 -27 13 -43t35 -16zM240 121q36 0 61.5 31t25.5 74q0 33 -16 54t-46 21q-37 0 -62 -32.5t-25 -72.5q0 -35 16.5 -55t45.5 -20z" />
    <glyph glyph-name="nine" unicode="9" horiz-adv-x="531" 
d="M122 -25l-25 121q156 48 223 175l-1 1q-49 -29 -105 -29q-68 0 -113 45t-45 128q0 121 74.5 200t188.5 79q88 0 141.5 -59.5t53.5 -164.5q0 -188 -110.5 -331t-281.5 -165zM277 366q48 0 87 46q3 24 3 50q0 48 -17.5 72t-47.5 24q-41 0 -68.5 -33t-27.5 -84q0 -75 71 -75
z" />
    <glyph glyph-name="colon" unicode=":" horiz-adv-x="273" 
d="M156 323q-39 0 -62.5 24.5t-23.5 62.5q0 39 24.5 63.5t64.5 24.5t63.5 -24t23.5 -61q0 -40 -24.5 -65t-65.5 -25zM114 -11q-39 0 -62.5 24.5t-23.5 62.5q0 39 24.5 63.5t64.5 24.5t63.5 -24t23.5 -61q0 -40 -24.5 -65t-65.5 -25z" />
    <glyph glyph-name="semicolon" unicode=";" horiz-adv-x="250" 
d="M140 323q-39 0 -62.5 24.5t-23.5 62.5q0 39 24.5 63.5t64.5 24.5t63.5 -24t23.5 -61q0 -40 -24.5 -65t-65.5 -25zM-24 -133l59 267h148l-101 -267h-106z" />
    <glyph glyph-name="less" unicode="&#x3c;" horiz-adv-x="533" 
d="M448 21l-402 198l11 105l452 203l-16 -140l-255 -114l225 -116z" />
    <glyph glyph-name="equal" unicode="=" horiz-adv-x="547" 
d="M82 329l16 126h430l-15 -126h-431zM50 99l16 126h430l-15 -126h-431z" />
    <glyph glyph-name="greater" unicode="&#x3e;" horiz-adv-x="534" 
d="M32 21l16 136l255 116l-226 114l16 140l403 -203l-12 -105z" />
    <glyph glyph-name="question" unicode="?" horiz-adv-x="432" 
d="M113 239l5 43q3 36 24 66.5t69 80.5q32 33 49 60t17 60q0 57 -50 57q-40 0 -80 -46l-91 91q32 42 88 68t118 26q77 0 127.5 -42.5t50.5 -120.5q0 -102 -106 -199q-37 -33 -55.5 -55t-23.5 -45l-9 -44h-133zM170 -11q-39 0 -62.5 24.5t-23.5 62.5q0 39 24.5 63.5
t64.5 24.5t63.5 -24t23.5 -61q0 -40 -24.5 -65t-65.5 -25z" />
    <glyph glyph-name="at" unicode="@" horiz-adv-x="888" 
d="M413 -151q-161 0 -266 102.5t-105 271.5q0 55 14 112t47.5 116.5t83 105.5t127.5 75.5t174 29.5q172 0 271 -103t99 -263q0 -31 -5.5 -62.5t-21.5 -67.5t-40.5 -63.5t-67 -45.5t-96.5 -18q-59 0 -92 26q-29 18 -38 58h-2q-52 -75 -131 -75q-58 0 -96.5 44.5t-38.5 124.5
q0 113 58.5 186t142.5 73q67 0 99 -37l3 1l4 28h138l-34 -273q-2 -16 -2 -25q0 -39 37 -39q30 0 52.5 31.5t32 67.5t9.5 66q0 122 -73.5 201t-207.5 79q-76 0 -138 -23.5t-101 -60t-66 -84.5t-38 -94t-11 -91q0 -130 80.5 -208t198.5 -78q107 0 206 57l45 -68
q-113 -77 -251 -77zM416 173q38 0 68 38t39 97l3 20q-30 23 -67 23q-39 0 -65 -36.5t-26 -82.5q0 -27 14 -43t34 -16z" />
    <glyph glyph-name="A" unicode="A" horiz-adv-x="635" 
d="M-23 0l320 710h154l146 -710h-166l-22 131h-213l-51 -131h-168zM247 266h141l-42 249h-2z" />
    <glyph glyph-name="B" unicode="B" horiz-adv-x="590" 
d="M38 0l87 710h250q188 0 188 -147q0 -54 -29 -104.5t-80 -76.5v-2q100 -39 100 -149q0 -231 -274 -231h-242zM246 424h62q41 0 67 26t26 68q0 51 -66 51h-70zM212 139h76q53 0 78.5 28t25.5 75q0 58 -76 58h-84z" />
    <glyph glyph-name="C" unicode="C" horiz-adv-x="656" 
d="M340 -9q-129 0 -209.5 77.5t-80.5 221.5q0 181 105 305t272 124q70 0 135 -35t111 -113l-127 -96q-50 91 -128 91q-88 0 -143.5 -82t-55.5 -188q0 -72 35 -111.5t97 -39.5q85 0 146 72l112 -104q-105 -122 -269 -122z" />
    <glyph glyph-name="D" unicode="D" horiz-adv-x="666" 
d="M38 0l87 710h224q144 0 218.5 -78t74.5 -217q0 -187 -103 -301t-281 -114h-220zM212 143h64q95 0 147.5 76t52.5 193q0 155 -145 155h-67z" />
    <glyph glyph-name="E" unicode="E" horiz-adv-x="547" 
d="M37 0l87 710h422l-18 -143h-265l-18 -145h209l-16 -138h-209l-18 -141h284l-18 -143h-440z" />
    <glyph glyph-name="F" unicode="F" horiz-adv-x="536" 
d="M38 0l87 710h436l-18 -143h-278l-21 -167h229l-16 -141h-231l-31 -259h-157z" />
    <glyph glyph-name="G" unicode="G" horiz-adv-x="680" 
d="M341 -9q-129 0 -210 76t-81 221q0 182 104.5 306.5t269.5 124.5q76 0 141 -33t102 -95l-124 -94q-47 72 -128 72q-86 0 -141.5 -81.5t-55.5 -190.5q0 -77 35.5 -117.5t98.5 -40.5q57 0 110 34l13 88h-118l17 134h271l-37 -318q-49 -38 -121 -62t-146 -24z" />
    <glyph glyph-name="H" unicode="H" horiz-adv-x="670" 
d="M38 0l87 710h161l-36 -297h211l36 297h162l-88 -710h-161l33 270h-211l-33 -270h-161z" />
    <glyph glyph-name="I" unicode="I" horiz-adv-x="308" 
d="M43 0l87 710h162l-87 -710h-162z" />
    <glyph glyph-name="J" unicode="J" horiz-adv-x="464" 
d="M169 -9q-54 0 -101 25t-74 72l106 108q24 -52 67 -52q30 0 50 27t28 96l55 443h160l-55 -450q-17 -139 -72.5 -204t-163.5 -65z" />
    <glyph glyph-name="K" unicode="K" horiz-adv-x="618" 
d="M665 710l-256 -319l176 -391h-182l-115 278l-67 -79l-24 -199h-159l87 710h159l-35 -290l3 -1l221 291h192z" />
    <glyph glyph-name="L" unicode="L" horiz-adv-x="521" 
d="M38 0l87 710h161l-70 -567h262l-17 -143h-423z" />
    <glyph glyph-name="M" unicode="M" horiz-adv-x="798" 
d="M38 0l87 710h157l131 -386h3l214 386h157l-87 -710h-157l47 388l-2 1l-150 -257h-97l-95 266l-2 -1l-49 -397h-157z" />
    <glyph glyph-name="N" unicode="N" horiz-adv-x="686" 
d="M38 0l87 710h150l188 -440l3 1l54 439h156l-88 -710h-155l-183 429h-3l-54 -429h-155z" />
    <glyph glyph-name="O" unicode="O" horiz-adv-x="739" 
d="M339 -9q-132 0 -210.5 79.5t-78.5 221.5q0 114 45.5 210.5t132.5 156.5t198 60q132 0 211 -79.5t79 -219.5q0 -118 -43.5 -214.5t-130.5 -155.5t-203 -59zM351 141q86 0 142 78t56 192q0 79 -37.5 119t-100.5 40q-82 0 -138 -81t-56 -187q0 -79 36.5 -120t97.5 -41z" />
    <glyph glyph-name="P" unicode="P" horiz-adv-x="570" 
d="M38 0l87 710h248q102 0 151 -53t49 -143q0 -128 -74.5 -205t-208.5 -77h-67l-28 -232h-157zM241 373h57q50 0 79.5 34t29.5 89q0 36 -21 54.5t-54 18.5h-67z" />
    <glyph glyph-name="Q" unicode="Q" horiz-adv-x="747" 
d="M716 420q0 -161 -78 -276l58 -63l-93 -104l-63 70q-88 -56 -201 -56q-132 0 -210.5 79.5t-78.5 221.5q0 114 45.5 210.5t133 156.5t198.5 60q131 0 210 -79.5t79 -219.5zM351 141q46 0 85 24l-48 53l91 99l43 -47q27 65 27 141q0 79 -37.5 119t-100.5 40
q-81 0 -137.5 -81t-56.5 -187q0 -79 36.5 -120t97.5 -41z" />
    <glyph glyph-name="R" unicode="R" horiz-adv-x="605" 
d="M38 0l87 710h253q102 0 151.5 -53t49.5 -143q0 -89 -37 -154t-107 -99l119 -261h-173l-97 232h-61l-28 -232h-157zM241 373h62q50 0 80 34.5t30 88.5q0 36 -21.5 54.5t-53.5 18.5h-73z" />
    <glyph glyph-name="S" unicode="S" horiz-adv-x="545" 
d="M253 -9q-74 0 -140 31.5t-107 95.5l114 100q24 -40 60.5 -62t72.5 -22q41 0 65 19.5t24 47.5q0 22 -17.5 37t-63.5 42q-10 5 -15 8q-87 50 -116 78q-59 55 -59 133q0 99 69.5 159.5t173.5 60.5q65 0 123.5 -28t94.5 -81l-114 -95q-47 63 -110 63q-31 0 -51 -17.5
t-19 -43.5q1 -21 17.5 -39.5t59.5 -43.5q14 -8 42.5 -24t42 -24.5t35 -23t32 -27t22.5 -29.5t16.5 -37t4.5 -44q0 -110 -71 -172t-186 -62z" />
    <glyph glyph-name="T" unicode="T" horiz-adv-x="539" 
d="M159 0l70 567h-166l18 143h491l-18 -143h-165l-70 -567h-160z" />
    <glyph glyph-name="U" unicode="U" horiz-adv-x="653" 
d="M318 -9q-139 0 -194.5 85.5t-36.5 241.5l49 392h160l-50 -405q-20 -164 85 -164q53 0 85.5 36t42.5 120l51 413h160l-51 -417q-20 -161 -93.5 -231.5t-207.5 -70.5z" />
    <glyph glyph-name="V" unicode="V" horiz-adv-x="630" 
d="M216 0l-147 710h171l73 -470h2l187 470h176l-320 -710h-142z" />
    <glyph glyph-name="W" unicode="W" horiz-adv-x="932" 
d="M186 0l-112 710h166l52 -447h3l150 447h162l39 -435h3l154 435h171l-287 -710h-146l-48 459h-2l-163 -459h-142z" />
    <glyph glyph-name="X" unicode="X" horiz-adv-x="629" 
d="M-26 0l248 360l-151 350h172l95 -232h5l145 232h185l-242 -354l161 -356h-176l-101 236h-4l-158 -236h-179z" />
    <glyph glyph-name="Y" unicode="Y" horiz-adv-x="581" 
d="M179 0l39 310l-159 400h176l79 -250h3l138 250h183l-259 -400l-38 -310h-162z" />
    <glyph glyph-name="Z" unicode="Z" horiz-adv-x="570" 
d="M13 0l15 125l335 439l-2 3h-269l17 143h474l-14 -122l-342 -441l2 -4h284l-17 -143h-483z" />
    <glyph glyph-name="bracketleft" unicode="[" horiz-adv-x="342" 
d="M13 -149l109 884h240l-13 -110h-114l-82 -664h114l-13 -110h-241z" />
    <glyph glyph-name="backslash" unicode="\" horiz-adv-x="399" 
d="M284 -111l-236 853l110 50l237 -855z" />
    <glyph glyph-name="bracketright" unicode="]" horiz-adv-x="342" 
d="M-8 -149l13 110h114l82 664h-114l13 110h241l-108 -884h-241z" />
    <glyph glyph-name="asciicircum" unicode="^" horiz-adv-x="428" 
d="M73 500l145 210h102l95 -210h-115l-39 119l-74 -119h-114z" />
    <glyph glyph-name="underscore" unicode="_" horiz-adv-x="474" 
d="M-52 -127l12 100h488l-12 -100h-488z" />
    <glyph glyph-name="grave" unicode="`" horiz-adv-x="440" 
d="M223 533l-93 150l150 -1l80 -149h-137z" />
    <glyph glyph-name="a" unicode="a" horiz-adv-x="553" 
d="M186 -9q-76 0 -117.5 56t-41.5 144q0 130 67 218.5t164 88.5q74 0 115 -43h3l4 34h151l-60 -489h-151l9 72l-3 1q-57 -82 -140 -82zM234 124q42 0 79.5 51.5t49.5 139.5l2 14q-33 35 -81 35q-47 0 -76.5 -51t-29.5 -111q0 -35 15.5 -56.5t40.5 -21.5z" />
    <glyph glyph-name="b" unicode="b" horiz-adv-x="558" 
d="M244 -10q-118 0 -214 51l86 695h150l-38 -317l2 -1q58 80 142 80q75 0 117 -57t42 -146q0 -138 -73.5 -221.5t-213.5 -83.5zM241 124q65 0 101.5 47t36.5 116q0 33 -15.5 55t-40.5 22q-44 0 -82 -54t-50 -147l-4 -32q28 -7 54 -7z" />
    <glyph glyph-name="c" unicode="c" horiz-adv-x="480" 
d="M235 -9q-97 0 -152 55t-55 158q0 120 69.5 207t190.5 87q126 0 188 -90l-115 -86q-22 43 -69 43q-49 0 -81 -46t-32 -109q0 -40 18 -62.5t49 -22.5q46 0 85 47l116 -74q-78 -107 -212 -107z" />
    <glyph glyph-name="d" unicode="d" horiz-adv-x="548" 
d="M187 -9q-77 0 -118.5 56t-41.5 144q0 130 67 218.5t164 88.5q72 0 117 -43h3l34 281h151l-91 -736h-150l9 72l-3 1q-58 -82 -141 -82zM234 124q42 0 80 51.5t51 139.5l2 14q-32 35 -83 35q-47 0 -76.5 -51t-29.5 -111q0 -35 15.5 -56.5t40.5 -21.5z" />
    <glyph glyph-name="e" unicode="e" horiz-adv-x="476" 
d="M464 363q-3 -156 -289 -186q6 -31 26 -46.5t44 -15.5q52 0 89 49l112 -66q-78 -107 -213 -107q-93 0 -149 55.5t-55 149.5q0 128 73.5 215t194.5 87q66 0 117 -35.5t50 -99.5zM320 342q1 15 -9 23t-27 8q-33 0 -62.5 -28.5t-41.5 -77.5q139 15 140 75z" />
    <glyph glyph-name="f" unicode="f" horiz-adv-x="327" 
d="M33 0l45 368h-41l15 121h41l10 82q21 174 168 174q69 0 116 -37l-37 -110q-26 18 -51 18q-21 0 -32 -15.5t-17 -61.5l-6 -50h78l-15 -121h-79l-44 -368h-151z" />
    <glyph glyph-name="g" unicode="g" horiz-adv-x="551" 
d="M378 489h150l-52 -426q-33 -270 -284 -270q-100 0 -178 48l47 117q62 -38 125 -38q62 0 96 34t47 133l-3 1q-58 -82 -139 -82q-76 0 -117.5 54.5t-41.5 135.5q0 127 67 214.5t163 87.5q75 0 114 -41l3 1zM361 315l2 16q-33 33 -79 33t-75.5 -49.5t-29.5 -103.5
q0 -35 14.5 -53.5t40.5 -18.5q41 0 78 49t49 127z" />
    <glyph glyph-name="h" unicode="h" horiz-adv-x="547" 
d="M25 0l91 736h149l-39 -315l2 -1q67 78 163 78q70 0 98 -48.5t15 -150.5l-39 -299h-150l36 265q7 51 0.5 75t-29.5 24q-39 0 -77.5 -50.5t-48.5 -137.5l-21 -176h-150z" />
    <glyph glyph-name="i" unicode="i" horiz-adv-x="268" 
d="M182 552q-39 0 -64.5 24.5t-25.5 61.5q0 38 26 63t67 25q40 0 65 -24t25 -61q0 -39 -26 -64t-67 -25zM29 0l60 489h150l-60 -489h-150z" />
    <glyph glyph-name="j" unicode="j" horiz-adv-x="251" 
d="M170 552q-39 0 -64.5 24.5t-25.5 61.5q0 38 26 63t67 25q40 0 65 -24t25 -61q0 -39 -26 -64t-67 -25zM-3 -206q-59 0 -103 23l37 115q14 -12 38 -12q22 0 32 18.5t15 65.5l60 485h151l-63 -506q-22 -189 -167 -189z" />
    <glyph glyph-name="k" unicode="k" horiz-adv-x="514" 
d="M438 -7q-20 -2 -44 -2q-53 0 -84.5 36t-54.5 104l-9 30q-28 -18 -59 -31l-15 -130h-147l91 736h149l-56 -455l2 -1q105 74 139 209h155q-27 -142 -139 -247l14 -42q16 -49 36 -66t56 -19z" />
    <glyph glyph-name="l" unicode="l" horiz-adv-x="268" 
d="M30 0l90 736h151l-91 -736h-150z" />
    <glyph glyph-name="m" unicode="m" horiz-adv-x="813" 
d="M26 0l60 489h150l-8 -61l4 -1q63 71 149 71t106 -74h5q63 74 164 74q73 0 100.5 -49.5t13.5 -155.5l-39 -293h-149l35 265q7 51 1.5 75t-28.5 24q-31 0 -67 -49.5t-47 -134.5l-24 -180h-149l35 265q8 51 2.5 75t-29.5 24q-30 0 -66 -47.5t-46 -125.5l-23 -191h-150z" />
    <glyph glyph-name="n" unicode="n" horiz-adv-x="547" 
d="M25 0l61 489h149l-8 -68l2 -1q67 78 162 78q70 0 98 -48.5t15 -150.5l-39 -299h-149l35 265q7 51 0.5 75t-29.5 24q-38 0 -76 -49t-49 -134l-22 -181h-150z" />
    <glyph glyph-name="o" unicode="o" horiz-adv-x="535" 
d="M235 -9q-94 0 -150.5 55.5t-56.5 154.5q0 124 73 210.5t197 86.5q96 0 152.5 -55.5t56.5 -153.5q0 -128 -69.5 -213t-202.5 -85zM246 125q48 0 78.5 46t30.5 108q0 47 -21 66t-48 19q-47 0 -76.5 -47.5t-29.5 -107.5q0 -41 19.5 -62.5t46.5 -21.5z" />
    <glyph glyph-name="p" unicode="p" horiz-adv-x="558" 
d="M1 -198l85 687h150l-9 -73l1 -2q58 84 147 84q74 0 114.5 -56.5t40.5 -143.5q0 -130 -67.5 -218.5t-166.5 -88.5q-71 0 -114 33l-4 -1l-27 -221h-150zM256 124q58 0 91 47t33 112q0 36 -15 59t-40 23q-44 0 -82.5 -53t-51.5 -145l-1 -13q22 -30 66 -30z" />
    <glyph glyph-name="q" unicode="q" horiz-adv-x="554" 
d="M296 -198l34 270l-3 2q-57 -83 -141 -83q-76 0 -117.5 56t-41.5 144q0 130 67 218.5t164 88.5q75 0 116 -43l2 1l4 33h151l-84 -687h-151zM234 124q41 0 79 51.5t50 137.5l2 16q-34 36 -81 36t-76.5 -51.5t-29.5 -111.5q0 -35 15.5 -56.5t40.5 -21.5z" />
    <glyph glyph-name="r" unicode="r" horiz-adv-x="353" 
d="M26 0l60 489h150l-9 -67h2q58 76 140 76l-21 -166q-54 20 -95.5 -19t-54.5 -125l-22 -188h-150z" />
    <glyph glyph-name="s" unicode="s" horiz-adv-x="420" 
d="M188 -9q-54 0 -107 22.5t-84 61.5l84 87q22 -26 52.5 -42t58.5 -16q45 0 45 27q0 11 -10.5 19t-48.5 27q-11 6 -17 9q-60 30 -89.5 64t-29.5 85q0 72 52 117.5t129 45.5q111 0 176 -78l-91 -86q-35 48 -84 50q-16 0 -27.5 -8t-11.5 -22q0 -20 69 -54q66 -33 97 -65
t31 -85q0 -72 -52.5 -115.5t-141.5 -43.5z" />
    <glyph glyph-name="t" unicode="t" horiz-adv-x="342" 
d="M170 -9q-61 0 -94 38t-23 118l26 221h-48l15 121h48l19 143l153 30l-21 -173h101l-15 -121h-101l-24 -201q-6 -41 22 -41q19 0 49 16l24 -117q-62 -34 -131 -34z" />
    <glyph glyph-name="u" unicode="u" horiz-adv-x="539" 
d="M195 -9q-153 0 -125 194l42 304h149l-37 -259q-8 -59 -1 -82t33 -23q32 0 67.5 43.5t42.5 96.5l27 224h150l-60 -489h-147l6 72h-2q-60 -81 -145 -81z" />
    <glyph glyph-name="v" unicode="v" horiz-adv-x="503" 
d="M203 -9q-92 0 -129 57t-25 157l36 284h148l-31 -253q-8 -53 -2.5 -82t29.5 -29q33 0 67 46t48 147q12 78 -1 171h150q17 -95 1 -201q-12 -80 -40 -139.5t-68.5 -93t-85.5 -49t-97 -15.5z" />
    <glyph glyph-name="w" unicode="w" horiz-adv-x="759" 
d="M177 -9q-76 0 -109 55t-21 147l42 296h148l-36 -261q-14 -103 30 -103q27 0 56.5 38t39.5 118l26 208h145l-33 -267q-7 -53 0 -75t28 -22q30 0 61.5 45.5t44.5 147.5q11 81 0 171h151q17 -97 0 -201q-22 -155 -99 -226t-183 -71q-110 0 -134 89h-2q-25 -42 -68 -65.5
t-87 -23.5z" />
    <glyph glyph-name="x" unicode="x" horiz-adv-x="477" 
d="M-21 0l178 254l-114 235h166l45 -118h1l73 118h170l-177 -243l118 -246h-160l-52 123h-2l-84 -123h-162z" />
    <glyph glyph-name="y" unicode="y" horiz-adv-x="534" 
d="M363 489h149l-52 -423q-32 -273 -276 -273q-99 0 -177 48l47 113q58 -38 122 -38q57 0 89.5 31.5t45.5 121.5v1l-3 1q-59 -80 -145 -80q-153 0 -125 194l42 304h149l-36 -259q-8 -59 -1.5 -82t33.5 -23q33 0 68.5 44.5t41.5 96.5z" />
    <glyph glyph-name="z" unicode="z" horiz-adv-x="447" 
d="M367 -28q-117 28 -366 28l11 100l217 267v3h-165l14 119h365l-11 -100l-222 -267v-2q111 -5 192 -30z" />
    <glyph glyph-name="braceleft" unicode="{" horiz-adv-x="335" 
d="M177 -147q-47 0 -75.5 37.5t-21.5 96.5l22 175q2 21 2 37.5t-15.5 27t-50.5 11.5l8 109q27 1 44.5 8t26 20.5t12 24.5t4.5 27l23 178q7 56 41.5 93t82.5 37h83l-12 -97h-18q-48 0 -57 -67l-22 -171q-11 -85 -59 -108v-2q23 -13 31.5 -34t0.5 -77l-20 -165q-4 -36 2 -50.5
t35 -14.5h23l-13 -96h-77z" />
    <glyph glyph-name="bar" unicode="|" horiz-adv-x="321" 
d="M57 -115l104 852h120l-104 -852h-120z" />
    <glyph glyph-name="braceright" unicode="}" horiz-adv-x="336" 
d="M-15 -147l12 96h17q30 0 42.5 17.5t16.5 52.5l20 166q7 57 19 76.5t40 32.5v2q-42 27 -32 109l21 172q6 61 -37 61h-22l11 97h77q49 0 77 -40t21 -96l-22 -176q-1 -18 -2 -34.5t15 -28.5t51 -13l-9 -109q-50 -1 -66.5 -21.5t-21.5 -59.5l-21 -175q-7 -59 -42.5 -94
t-82.5 -35h-82z" />
    <glyph glyph-name="asciitilde" unicode="~" horiz-adv-x="528" 
d="M345 191q-12 0 -22 1.5t-19.5 4.5t-14 4.5t-14.5 6.5t-11 6q-38 20 -58 20q-36 0 -65 -47l-98 46q25 60 63.5 96t85.5 36q13 0 27 -3t21.5 -6t20.5 -9t15 -7q32 -17 53 -17q38 0 67 45l97 -38q-25 -62 -63.5 -100.5t-84.5 -38.5z" />
    <glyph glyph-name="uni00A0" unicode="&#xa0;" horiz-adv-x="178" 
 />
    <glyph glyph-name="exclamdown" unicode="&#xa1;" horiz-adv-x="287" 
d="M160 500q39 0 62.5 -24.5t23.5 -62.5q0 -39 -24.5 -63.5t-64.5 -24.5t-63.5 24t-23.5 61q0 40 24.5 65t65.5 25zM193 247l-35 -494h-159l87 494h107z" />
    <glyph glyph-name="cent" unicode="&#xa2;" horiz-adv-x="488" 
d="M253 178q47 0 87 48l116 -74q-64 -88 -163 -104l-12 -95h-95l11 95q-75 13 -117.5 67t-42.5 141q0 108 60 190.5t160 100.5l10 93h96l-11 -92q87 -14 132 -80l-115 -85q-23 36 -69 36q-47 -1 -79.5 -47.5t-32.5 -110.5q0 -43 20.5 -63t44.5 -20z" />
    <glyph glyph-name="sterling" unicode="&#xa3;" horiz-adv-x="517" 
d="M11 0l17 142h52l20 163h-45l13 108h44l6 44q15 125 75.5 181.5t144.5 56.5q55 0 103 -26t77 -73l-87 -96q-16 25 -37.5 39.5t-39.5 14.5q-65 0 -77 -110l-4 -31h126l-12 -108h-126l-20 -163h238l-17 -142h-451z" />
    <glyph glyph-name="currency" unicode="&#xa4;" horiz-adv-x="466" 
d="M419 412q0 -64 -34 -117l62 -80l-72 -67l-64 79q-38 -20 -85 -20q-44 0 -79 19l-76 -77l-61 67l79 78q-11 28 -11 61q0 73 37 128l-63 77l74 67l62 -77q37 20 82 20t81 -22l79 80l60 -67l-82 -82q11 -31 11 -67zM239 308q34 0 57 26.5t23 63.5q0 33 -17.5 52.5
t-43.5 19.5q-34 0 -57 -28t-23 -68q0 -30 16.5 -48t44.5 -18z" />
    <glyph glyph-name="yen" unicode="&#xa5;" horiz-adv-x="557" 
d="M612 687l-198 -323h82l-10 -80h-121l-7 -51h121l-9 -80h-122l-19 -153h-163l19 153h-126l10 80h126l7 51h-127l10 80h88l-117 323h181l64 -245h2l121 245h188z" />
    <glyph glyph-name="brokenbar" unicode="&#xa6;" horiz-adv-x="321" 
d="M118 384l43 353h120l-43 -353h-120zM57 -114l43 351h120l-43 -351h-120z" />
    <glyph glyph-name="section" unicode="&#xa7;" horiz-adv-x="505" 
d="M327 440q34 -16 46 -22.5t36 -22t33 -28.5t17.5 -33.5t8.5 -45.5q0 -97 -83 -147q35 -35 35 -93q0 -92 -59.5 -147t-153.5 -55q-129 0 -200 100l93 96q45 -63 110 -63q28 0 42 14.5t14 34.5q0 18 -19 33.5t-68 39.5q-40 20 -63.5 36t-44 48t-20.5 73q0 98 79 143
q-36 39 -36 97q0 87 57 138.5t147 51.5q58 0 110.5 -23t81.5 -60l-90 -99q-52 47 -100 47q-51 0 -51 -44q0 -16 16 -31t62 -38zM193 282q0 -37 67 -67q8 -4 22 -10q41 14 41 55q0 20 -14.5 34t-60.5 35q-3 1 -8.5 3.5t-7.5 3.5q-39 -10 -39 -54z" />
    <glyph glyph-name="dieresis" unicode="&#xa8;" horiz-adv-x="482" 
d="M177 528q-39 0 -64.5 24.5t-25.5 61.5q0 38 26 63t67 25q40 0 65 -24t25 -61q0 -39 -26 -64t-67 -25zM394 528q-39 0 -64.5 24.5t-25.5 61.5q0 39 26 63.5t68 24.5q39 0 64 -24t25 -61q0 -39 -26 -64t-67 -25z" />
    <glyph glyph-name="copyright" unicode="&#xa9;" horiz-adv-x="724" 
d="M361 -6q-135 0 -229 95.5t-94 229.5t94.5 230t229.5 96q136 0 229.5 -96t93.5 -230q0 -133 -94.5 -229t-229.5 -96zM361 89q96 0 161.5 67.5t65.5 162.5q0 97 -65 163.5t-161 66.5q-97 0 -162.5 -67.5t-65.5 -163.5t65 -162.5t162 -66.5zM368 154q-71 0 -118.5 43
t-47.5 120q0 70 44 116.5t122 46.5q79 0 130 -62l-61 -52q-30 34 -69 34q-33 0 -55 -22.5t-22 -60.5q0 -36 21 -59.5t56 -23.5q42 0 69 34l61 -54q-51 -60 -130 -60z" />
    <glyph glyph-name="ordfeminine" unicode="&#xaa;" horiz-adv-x="348" 
d="M148 387q-40 0 -68 31.5t-28 89.5q0 79 43.5 132t103.5 53q38 0 61 -25h1l3 19h101l-36 -294h-102l5 40h-2q-36 -46 -82 -46zM185 479q21 0 41 25.5t26 68.5l2 11q-14 15 -39 15q-24 0 -41 -25t-17 -58q0 -37 28 -37z" />
    <glyph glyph-name="guillemotleft" unicode="&#xab;" horiz-adv-x="495" 
d="M110 46l-77 201l129 205h137l-128 -205l77 -201h-138zM317 46l-78 201l130 205h137l-129 -205l77 -201h-137z" />
    <glyph glyph-name="logicalnot" unicode="&#xac;" horiz-adv-x="502" 
d="M318 140l20 164h-287l15 125h414l-35 -289h-127z" />
    <glyph glyph-name="registered" unicode="&#xae;" horiz-adv-x="724" 
d="M362 645q136 0 229.5 -96t93.5 -230q0 -133 -94.5 -229t-229.5 -96t-229 95.5t-94 229.5t94.5 230t229.5 96zM361 89q96 0 161.5 67.5t65.5 162.5q0 97 -65 163.5t-161 66.5q-97 0 -162.5 -67.5t-65.5 -163.5t65 -162.5t162 -66.5zM489 369q0 -71 -56 -97l72 -113h-96
l-61 100h-22v-100h-82v324h129q58 0 87 -31t29 -83zM326 408v-75h28q22 0 35 10t13 28q0 16 -12.5 26.5t-35.5 10.5h-28z" />
    <glyph glyph-name="macron" unicode="&#xaf;" horiz-adv-x="393" 
d="M92 558l15 115h285l-14 -115h-286z" />
    <glyph glyph-name="degree" unicode="&#xb0;" horiz-adv-x="360" 
d="M203 440q-55 0 -86 31.5t-31 82.5q0 69 42.5 116.5t108.5 47.5q53 0 86 -32.5t33 -88.5q0 -64 -42.5 -110.5t-110.5 -46.5zM213 525q23 0 39 18.5t16 44.5q0 20 -11 33t-29 13q-23 0 -39 -19t-16 -49q0 -18 11 -29.5t29 -11.5z" />
    <glyph glyph-name="plusminus" unicode="&#xb1;" horiz-adv-x="543" 
d="M202 183l21 174h-151l16 126h151l22 176h128l-22 -176h152l-16 -126h-152l-21 -174h-128zM28 0l16 126h430l-15 -126h-431z" />
    <glyph glyph-name="uni00B2" unicode="&#xb2;" horiz-adv-x="305" 
d="M42 435l7 75l122 127q57 61 57 91q0 22 -21 22q-26 0 -52 -35l-78 63q52 76 145 76q54 0 87 -29.5t33 -79.5q0 -46 -18.5 -80t-59.5 -77l-49 -50l1 -2h105l-12 -101h-267z" />
    <glyph glyph-name="uni00B3" unicode="&#xb3;" horiz-adv-x="311" 
d="M182 427q-55 0 -93 30t-47 74l102 34q3 -40 31 -40q18 0 29.5 15t11.5 37q0 26 -32 26h-24l10 82h26q15 0 26.5 15t11.5 33q0 23 -20 23q-27 0 -39 -36l-89 54q17 35 54.5 57.5t80.5 22.5q54 0 87 -26.5t33 -75.5q0 -68 -57 -105v-1q47 -28 47 -83q0 -62 -42.5 -99
t-106.5 -37z" />
    <glyph glyph-name="acute" unicode="&#xb4;" horiz-adv-x="438" 
d="M148 533l117 149l152 1l-129 -150h-140z" />
    <glyph glyph-name="uni00B5" unicode="&#xb5;" horiz-adv-x="569" 
d="M522 120l18 -102q-38 -27 -95 -27q-95 0 -108 84h-2q-48 -84 -116 -84q-40 0 -61 26l-3 -1q12 -70 4 -129l-10 -85h-148l84 687h149l-34 -271q-12 -93 41 -93q31 0 57.5 31t34.5 93l29 240h150l-40 -324q-3 -28 2 -38t21 -10q13 0 27 3z" />
    <glyph glyph-name="paragraph" unicode="&#xb6;" horiz-adv-x="487" 
d="M308 680h168l-83 -680h-185l35 282q-88 2 -139.5 47.5t-47.5 126.5q3 95 71 159.5t181 64.5z" />
    <glyph glyph-name="periodcentered" unicode="&#xb7;" horiz-adv-x="278" 
d="M151 154q-39 0 -62.5 24.5t-23.5 62.5q0 39 24.5 63.5t64.5 24.5t63.5 -24t23.5 -61q0 -40 -24.5 -65t-65.5 -25z" />
    <glyph glyph-name="cedilla" unicode="&#xb8;" horiz-adv-x="286" 
d="M59 -192q-33 0 -54 6l2 61q17 -6 39 -6q53 0 53 33q0 25 -65 25l1 38l26 41h77l-26 -36l1 -1q75 -3 75 -66q0 -47 -34.5 -71t-94.5 -24z" />
    <glyph glyph-name="uni00B9" unicode="&#xb9;" horiz-adv-x="270" 
d="M207 847h87l-51 -412h-111l34 267l-51 -34l-46 85z" />
    <glyph glyph-name="ordmasculine" unicode="&#xba;" horiz-adv-x="326" 
d="M179 388q-57 0 -90.5 33.5t-33.5 93.5q0 74 43.5 126t122.5 52q56 0 89 -32.5t33 -93.5q0 -75 -41.5 -127t-122.5 -52zM188 481q22 0 38 22.5t16 53.5q0 43 -32 43q-23 0 -38.5 -23.5t-15.5 -53.5q0 -21 9.5 -31.5t22.5 -10.5z" />
    <glyph glyph-name="guillemotright" unicode="&#xbb;" horiz-adv-x="497" 
d="M-10 46l128 201l-79 205h139l78 -205l-126 -201h-140zM200 46l128 201l-79 205h138l79 -205l-127 -201h-139z" />
    <glyph glyph-name="onequarter" unicode="&#xbc;" horiz-adv-x="754" 
d="M521 728l106 -49l-372 -704l-105 49zM231 298h-111l34 267l-51 -34l-46 85l138 94h87zM689 157h46l-12 -96h-46l-7 -61h-112l7 61h-138l7 67l198 284h88zM538 146h56l15 113z" />
    <glyph glyph-name="onehalf" unicode="&#xbd;" horiz-adv-x="791" 
d="M521 728l106 -49l-372 -704l-105 49zM231 298h-111l34 267l-51 -34l-46 85l138 94h87zM652 103l1 -2h105l-12 -101h-267l7 75l122 127q57 61 57 91q0 22 -21 22q-26 0 -52 -35l-78 63q52 76 145 76q54 0 87 -29.5t33 -79.5q0 -46 -18.5 -80t-59.5 -77z" />
    <glyph glyph-name="threequarters" unicode="&#xbe;" horiz-adv-x="776" 
d="M540 728l106 -49l-372 -704l-105 49zM320 426q0 -62 -42.5 -99t-106.5 -37q-55 0 -93 30t-47 74l102 34q3 -40 31 -40q18 0 29.5 15t11.5 37q0 26 -32 26h-24l10 82h26q15 0 26.5 15t11.5 33q0 23 -20 23q-27 0 -39 -36l-89 54q17 35 54.5 57.5t80.5 22.5q54 0 87 -26.5
t33 -75.5q0 -68 -57 -105v-1q47 -28 47 -83zM711 157h46l-12 -96h-46l-7 -61h-112l7 61h-138l7 67l198 284h88zM560 146h56l15 113z" />
    <glyph glyph-name="questiondown" unicode="&#xbf;" horiz-adv-x="415" 
d="M267 499q39 0 62.5 -24.5t23.5 -62.5q0 -39 -24.5 -63.5t-64.5 -24.5t-63.5 24t-23.5 61q0 40 24.5 65t65.5 25zM324 249l-5 -43q-3 -36 -24 -66.5t-69 -80.5q-32 -33 -49 -60t-17 -60q0 -57 50 -57q40 0 80 46l91 -91q-32 -42 -88 -68t-118 -26q-77 0 -127.5 42.5
t-50.5 120.5q0 102 106 199q37 33 55.5 55t23.5 45l9 44h133z" />
    <glyph glyph-name="Agrave" unicode="&#xc0;" horiz-adv-x="635" 
d="M316 761l-94 140l150 -1l81 -139h-137zM-23 0l320 710h154l146 -710h-166l-22 131h-213l-51 -131h-168zM247 266h141l-42 249h-2z" />
    <glyph glyph-name="Aacute" unicode="&#xc1;" horiz-adv-x="635" 
d="M315 761l115 139l151 1l-131 -140h-135zM-23 0l320 710h154l146 -710h-166l-22 131h-213l-51 -131h-168zM247 266h141l-42 249h-2z" />
    <glyph glyph-name="Acircumflex" unicode="&#xc2;" horiz-adv-x="635" 
d="M220 761l108 140h150l73 -140h-126l-32 64h-1l-48 -64h-124zM-23 0l320 710h154l146 -710h-166l-22 131h-213l-51 -131h-168zM247 266h141l-42 249h-2z" />
    <glyph glyph-name="Atilde" unicode="&#xc3;" horiz-adv-x="635" 
d="M469 762q-32 0 -77 30q-26 18 -44 18q-32 0 -57 -50l-84 41q53 110 128 110q37 0 76 -26q30 -20 44 -20q34 0 58 48l84 -32q-52 -119 -128 -119zM-23 0l320 710h154l146 -710h-166l-22 131h-213l-51 -131h-168zM247 266h141l-42 249h-2z" />
    <glyph glyph-name="Adieresis" unicode="&#xc4;" horiz-adv-x="635" 
d="M284 757q-39 0 -64.5 24.5t-25.5 61.5q0 38 26 63t67 25q40 0 65 -24t25 -61q0 -39 -26 -64t-67 -25zM501 757q-39 0 -64.5 24.5t-25.5 61.5q0 39 26 63.5t68 24.5q39 0 64 -24t25 -61q0 -39 -26 -64t-67 -25zM-23 0l320 710h154l146 -710h-166l-22 131h-213l-51 -131
h-168zM247 266h141l-42 249h-2z" />
    <glyph glyph-name="Aring" unicode="&#xc5;" horiz-adv-x="635" 
d="M389 747q-45 0 -75 30.5t-30 74.5q0 45 31 75.5t77 30.5q45 0 74.5 -29.5t29.5 -73.5q0 -46 -30.5 -77t-76.5 -31zM391 817q15 0 25.5 10.5t10.5 26.5q0 14 -10.5 24.5t-24.5 10.5q-16 0 -27 -10.5t-11 -25.5q0 -16 10.5 -26t26.5 -10zM-23 0l320 710h154l146 -710h-166
l-22 131h-213l-51 -131h-168zM247 266h141l-42 249h-2z" />
    <glyph glyph-name="AE" unicode="&#xc6;" horiz-adv-x="866" 
d="M-30 0l390 710h505l-18 -143h-267l-18 -145h215l-18 -139h-214l-17 -140h286l-18 -143h-441l17 131h-162l-69 -131h-171zM280 267h109l32 264h-2z" />
    <glyph glyph-name="Ccedilla" unicode="&#xc7;" horiz-adv-x="656" 
d="M351 145q85 0 146 72l112 -104q-97 -114 -252 -122l-15 -21l1 -1q75 -3 75 -66q0 -47 -34.5 -71t-94.5 -24q-33 0 -54 6l2 61q17 -6 39 -6q53 0 53 33q0 25 -65 25l1 38l19 30q-106 16 -170 92t-64 203q0 181 105 305t272 124q70 0 135 -35t111 -113l-127 -96
q-50 91 -128 91q-88 0 -143.5 -82t-55.5 -188q0 -72 35 -111.5t97 -39.5z" />
    <glyph glyph-name="Egrave" unicode="&#xc8;" horiz-adv-x="547" 
d="M313 760l-94 140l150 -1l81 -139h-137zM37 0l87 710h422l-18 -143h-265l-18 -145h209l-16 -138h-209l-18 -141h284l-18 -143h-440z" />
    <glyph glyph-name="Eacute" unicode="&#xc9;" horiz-adv-x="547" 
d="M238 760l115 139l151 1l-131 -140h-135zM37 0l87 710h422l-18 -143h-265l-18 -145h209l-16 -138h-209l-18 -141h284l-18 -143h-440z" />
    <glyph glyph-name="Ecircumflex" unicode="&#xca;" horiz-adv-x="547" 
d="M181 760l108 140h150l73 -140h-126l-32 64h-1l-48 -64h-124zM37 0l87 710h422l-18 -143h-265l-18 -145h209l-16 -138h-209l-18 -141h284l-18 -143h-440z" />
    <glyph glyph-name="Edieresis" unicode="&#xcb;" horiz-adv-x="547" 
d="M245 756q-39 0 -64.5 24.5t-25.5 61.5q0 38 26 63t67 25q40 0 65 -24t25 -61q0 -39 -26 -64t-67 -25zM462 756q-39 0 -64.5 24.5t-25.5 61.5q0 39 26 63.5t68 24.5q39 0 64 -24t25 -61q0 -39 -26 -64t-67 -25zM37 0l87 710h422l-18 -143h-265l-18 -145h209l-16 -138h-209
l-18 -141h284l-18 -143h-440z" />
    <glyph glyph-name="Igrave" unicode="&#xcc;" horiz-adv-x="308" 
d="M153 759l-94 140l150 -1l81 -139h-137zM43 0l87 710h162l-87 -710h-162z" />
    <glyph glyph-name="Iacute" unicode="&#xcd;" horiz-adv-x="308" 
d="M147 761l115 139l151 1l-131 -140h-135zM43 0l87 710h162l-87 -710h-162z" />
    <glyph glyph-name="Icircumflex" unicode="&#xce;" horiz-adv-x="308" 
d="M50 760l108 140h150l73 -140h-126l-32 64h-1l-48 -64h-124zM43 0l87 710h162l-87 -710h-162z" />
    <glyph glyph-name="Idieresis" unicode="&#xcf;" horiz-adv-x="308" 
d="M114 756q-39 0 -64.5 24.5t-25.5 61.5q0 38 26 63t67 25q40 0 65 -24t25 -61q0 -39 -26 -64t-67 -25zM331 756q-39 0 -64.5 24.5t-25.5 61.5q0 39 26 63.5t68 24.5q39 0 64 -24t25 -61q0 -39 -26 -64t-67 -25zM43 0l87 710h162l-87 -710h-162z" />
    <glyph glyph-name="Eth" unicode="&#xd0;" horiz-adv-x="668" 
d="M350 710q144 0 218.5 -78t74.5 -217q0 -187 -103 -301t-281 -114h-220l34 281h-46l19 135h44l36 294h224zM277 143q95 0 147.5 76t52.5 193q0 155 -145 155h-67l-19 -151h113l-19 -135h-110l-17 -138h64z" />
    <glyph glyph-name="Ntilde" unicode="&#xd1;" horiz-adv-x="686" 
d="M497 762q-32 0 -77 30q-26 18 -44 18q-32 0 -57 -50l-84 41q53 110 128 110q37 0 76 -26q30 -20 44 -20q34 0 58 48l84 -32q-52 -119 -128 -119zM38 0l87 710h150l188 -440l3 1l54 439h156l-88 -710h-155l-183 429h-3l-54 -429h-155z" />
    <glyph glyph-name="Ograve" unicode="&#xd2;" horiz-adv-x="739" 
d="M387 761l-94 140l150 -1l81 -139h-137zM339 -9q-132 0 -210.5 79.5t-78.5 221.5q0 114 45.5 210.5t132.5 156.5t198 60q132 0 211 -79.5t79 -219.5q0 -118 -43.5 -214.5t-130.5 -155.5t-203 -59zM351 141q86 0 142 78t56 192q0 79 -37.5 119t-100.5 40q-82 0 -138 -81
t-56 -187q0 -79 36.5 -120t97.5 -41z" />
    <glyph glyph-name="Oacute" unicode="&#xd3;" horiz-adv-x="739" 
d="M369 761l115 139l151 1l-131 -140h-135zM339 -9q-132 0 -210.5 79.5t-78.5 221.5q0 114 45.5 210.5t132.5 156.5t198 60q132 0 211 -79.5t79 -219.5q0 -118 -43.5 -214.5t-130.5 -155.5t-203 -59zM351 141q86 0 142 78t56 192q0 79 -37.5 119t-100.5 40q-82 0 -138 -81
t-56 -187q0 -79 36.5 -120t97.5 -41z" />
    <glyph glyph-name="Ocircumflex" unicode="&#xd4;" horiz-adv-x="739" 
d="M295 761l108 140h150l73 -140h-126l-32 64h-1l-48 -64h-124zM339 -9q-132 0 -210.5 79.5t-78.5 221.5q0 114 45.5 210.5t132.5 156.5t198 60q132 0 211 -79.5t79 -219.5q0 -118 -43.5 -214.5t-130.5 -155.5t-203 -59zM351 141q86 0 142 78t56 192q0 79 -37.5 119
t-100.5 40q-82 0 -138 -81t-56 -187q0 -79 36.5 -120t97.5 -41z" />
    <glyph glyph-name="Otilde" unicode="&#xd5;" horiz-adv-x="739" 
d="M544 762q-32 0 -77 30q-26 18 -44 18q-32 0 -57 -50l-84 41q53 110 128 110q37 0 76 -26q30 -20 44 -20q34 0 58 48l84 -32q-52 -119 -128 -119zM339 -9q-132 0 -210.5 79.5t-78.5 221.5q0 114 45.5 210.5t132.5 156.5t198 60q132 0 211 -79.5t79 -219.5
q0 -118 -43.5 -214.5t-130.5 -155.5t-203 -59zM351 141q86 0 142 78t56 192q0 79 -37.5 119t-100.5 40q-82 0 -138 -81t-56 -187q0 -79 36.5 -120t97.5 -41z" />
    <glyph glyph-name="Odieresis" unicode="&#xd6;" horiz-adv-x="739" 
d="M359 757q-39 0 -64.5 24.5t-25.5 61.5q0 38 26 63t67 25q40 0 65 -24t25 -61q0 -39 -26 -64t-67 -25zM576 757q-39 0 -64.5 24.5t-25.5 61.5q0 39 26 63.5t68 24.5q39 0 64 -24t25 -61q0 -39 -26 -64t-67 -25zM339 -9q-132 0 -210.5 79.5t-78.5 221.5q0 114 45.5 210.5
t132.5 156.5t198 60q132 0 211 -79.5t79 -219.5q0 -118 -43.5 -214.5t-130.5 -155.5t-203 -59zM351 141q86 0 142 78t56 192q0 79 -37.5 119t-100.5 40q-82 0 -138 -81t-56 -187q0 -79 36.5 -120t97.5 -41z" />
    <glyph glyph-name="multiply" unicode="&#xd7;" horiz-adv-x="491" 
d="M109 56l-81 89l132 133l-99 132l99 89l98 -132l132 133l82 -90l-133 -133l99 -133l-98 -89l-100 133z" />
    <glyph glyph-name="Oslash" unicode="&#xd8;" horiz-adv-x="741" 
d="M746 679l-75 -80q47 -74 47 -179q0 -118 -43.5 -214.5t-130.5 -155.5t-203 -59q-114 0 -188 59l-79 -84l-62 62l83 88q-43 72 -43 176q0 114 45.5 210.5t132.5 156.5t198 60t184 -56l72 76zM219 302q0 -25 5 -50l275 291q-35 27 -86 27q-82 0 -138 -81t-56 -187zM551 411
q0 31 -6 55l-278 -295q35 -30 86 -30q86 0 142 78t56 192z" />
    <glyph glyph-name="Ugrave" unicode="&#xd9;" horiz-adv-x="653" 
d="M345 761l-94 140l150 -1l81 -139h-137zM318 -9q-139 0 -194.5 85.5t-36.5 241.5l49 392h160l-50 -405q-20 -164 85 -164q53 0 85.5 36t42.5 120l51 413h160l-51 -417q-20 -161 -93.5 -231.5t-207.5 -70.5z" />
    <glyph glyph-name="Uacute" unicode="&#xda;" horiz-adv-x="653" 
d="M332 761l115 139l151 1l-131 -140h-135zM318 -9q-139 0 -194.5 85.5t-36.5 241.5l49 392h160l-50 -405q-20 -164 85 -164q53 0 85.5 36t42.5 120l51 413h160l-51 -417q-20 -161 -93.5 -231.5t-207.5 -70.5z" />
    <glyph glyph-name="Ucircumflex" unicode="&#xdb;" horiz-adv-x="653" 
d="M246 761l108 140h150l73 -140h-126l-32 64h-1l-48 -64h-124zM318 -9q-139 0 -194.5 85.5t-36.5 241.5l49 392h160l-50 -405q-20 -164 85 -164q53 0 85.5 36t42.5 120l51 413h160l-51 -417q-20 -161 -93.5 -231.5t-207.5 -70.5z" />
    <glyph glyph-name="Udieresis" unicode="&#xdc;" horiz-adv-x="653" 
d="M310 757q-39 0 -64.5 24.5t-25.5 61.5q0 38 26 63t67 25q40 0 65 -24t25 -61q0 -39 -26 -64t-67 -25zM527 757q-39 0 -64.5 24.5t-25.5 61.5q0 39 26 63.5t68 24.5q39 0 64 -24t25 -61q0 -39 -26 -64t-67 -25zM318 -9q-139 0 -194.5 85.5t-36.5 241.5l49 392h160
l-50 -405q-20 -164 85 -164q53 0 85.5 36t42.5 120l51 413h160l-51 -417q-20 -161 -93.5 -231.5t-207.5 -70.5z" />
    <glyph glyph-name="Yacute" unicode="&#xdd;" horiz-adv-x="581" 
d="M282 761l115 139l151 1l-131 -140h-135zM179 0l39 310l-159 400h176l79 -250h3l138 250h183l-259 -400l-38 -310h-162z" />
    <glyph glyph-name="Thorn" unicode="&#xde;" horiz-adv-x="593" 
d="M38 0l87 710h157l-14 -117h108q102 0 152 -53.5t50 -143.5q0 -127 -75 -204t-208 -77h-86l-14 -115h-157zM227 256h76q49 0 79 34t30 88q0 36 -21.5 54.5t-53.5 18.5h-86z" />
    <glyph glyph-name="germandbls" unicode="&#xdf;" horiz-adv-x="634" 
d="M426 -9q-53 0 -103 22t-82 62l85 86q48 -56 97 -56q19 0 31.5 8.5t12.5 22.5q0 13 -12.5 23t-54.5 33q-113 61 -113 142q0 15 4 29.5t8.5 24.5t15 24t16.5 20.5t20 21t18 19.5q45 48 47 90q1 26 -19.5 40.5t-56.5 14.5q-41 0 -67.5 -26t-33.5 -78l-63 -514h-150l64 527
q14 114 79.5 166t165.5 52q108 0 170 -45t60 -130q-2 -71 -66 -133q-7 -6 -18.5 -17t-17.5 -17t-13.5 -14.5t-10.5 -15.5t-3 -14q0 -25 49 -55q39 -23 53 -32t36 -28.5t29.5 -40t7.5 -49.5q0 -79 -51.5 -121t-133.5 -42z" />
    <glyph glyph-name="agrave" unicode="&#xe0;" horiz-adv-x="553" 
d="M273 557l-93 150l150 -1l80 -149h-137zM186 -9q-76 0 -117.5 56t-41.5 144q0 130 67 218.5t164 88.5q74 0 115 -43h3l4 34h151l-60 -489h-151l9 72l-3 1q-57 -82 -140 -82zM234 124q42 0 79.5 51.5t49.5 139.5l2 14q-33 35 -81 35q-47 0 -76.5 -51t-29.5 -111
q0 -35 15.5 -56.5t40.5 -21.5z" />
    <glyph glyph-name="aacute" unicode="&#xe1;" horiz-adv-x="553" 
d="M238 556l117 149l152 1l-129 -150h-140zM186 -9q-76 0 -117.5 56t-41.5 144q0 130 67 218.5t164 88.5q74 0 115 -43h3l4 34h151l-60 -489h-151l9 72l-3 1q-57 -82 -140 -82zM234 124q42 0 79.5 51.5t49.5 139.5l2 14q-33 35 -81 35q-47 0 -76.5 -51t-29.5 -111
q0 -35 15.5 -56.5t40.5 -21.5z" />
    <glyph glyph-name="acircumflex" unicode="&#xe2;" horiz-adv-x="553" 
d="M154 555l115 152h131l84 -152h-130l-24 74h-1l-42 -74h-133zM186 -9q-76 0 -117.5 56t-41.5 144q0 130 67 218.5t164 88.5q74 0 115 -43h3l4 34h151l-60 -489h-151l9 72l-3 1q-57 -82 -140 -82zM234 124q42 0 79.5 51.5t49.5 139.5l2 14q-33 35 -81 35q-47 0 -76.5 -51
t-29.5 -111q0 -35 15.5 -56.5t40.5 -21.5z" />
    <glyph glyph-name="atilde" unicode="&#xe3;" horiz-adv-x="553" 
d="M403 551q-33 0 -76 30q-24 18 -44 18q-33 0 -58 -51l-84 42q50 120 129 120q8 0 15.5 -1t14.5 -3t11.5 -3.5t10.5 -5t8.5 -5t8 -5t6.5 -4.5q27 -19 42 -19q35 0 60 49l84 -34q-23 -59 -55.5 -93.5t-72.5 -34.5zM186 -9q-76 0 -117.5 56t-41.5 144q0 130 67 218.5
t164 88.5q74 0 115 -43h3l4 34h151l-60 -489h-151l9 72l-3 1q-57 -82 -140 -82zM234 124q42 0 79.5 51.5t49.5 139.5l2 14q-33 35 -81 35q-47 0 -76.5 -51t-29.5 -111q0 -35 15.5 -56.5t40.5 -21.5z" />
    <glyph glyph-name="adieresis" unicode="&#xe4;" horiz-adv-x="553" 
d="M221 552q-39 0 -64.5 24.5t-25.5 61.5q0 38 26 63t67 25q40 0 65 -24t25 -61q0 -39 -26 -64t-67 -25zM438 552q-39 0 -64.5 24.5t-25.5 61.5q0 39 26 63.5t68 24.5q39 0 64 -24t25 -61q0 -39 -26 -64t-67 -25zM186 -9q-76 0 -117.5 56t-41.5 144q0 130 67 218.5t164 88.5
q74 0 115 -43h3l4 34h151l-60 -489h-151l9 72l-3 1q-57 -82 -140 -82zM234 124q42 0 79.5 51.5t49.5 139.5l2 14q-33 35 -81 35q-47 0 -76.5 -51t-29.5 -111q0 -35 15.5 -56.5t40.5 -21.5z" />
    <glyph glyph-name="aring" unicode="&#xe5;" horiz-adv-x="553" 
d="M332 538q-45 0 -75 30.5t-30 74.5q0 45 31 75.5t77 30.5q45 0 74.5 -29.5t29.5 -73.5q0 -46 -30.5 -77t-76.5 -31zM334 608q15 0 25.5 10.5t10.5 26.5q0 14 -10.5 24.5t-24.5 10.5q-16 0 -27 -10.5t-11 -25.5q0 -16 10.5 -26t26.5 -10zM186 -9q-76 0 -117.5 56t-41.5 144
q0 130 67 218.5t164 88.5q74 0 115 -43h3l4 34h151l-60 -489h-151l9 72l-3 1q-57 -82 -140 -82zM234 124q42 0 79.5 51.5t49.5 139.5l2 14q-33 35 -81 35q-47 0 -76.5 -51t-29.5 -111q0 -35 15.5 -56.5t40.5 -21.5z" />
    <glyph glyph-name="ae" unicode="&#xe6;" horiz-adv-x="688" 
d="M476 115q45 0 79 48l111 -66q-73 -106 -197 -106q-120 0 -160 87q-51 -88 -140 -88q-69 0 -112 49.5t-42 134.5q1 137 73 227t195 90q69 0 118 -25q54 32 122 32q67 0 115 -35t48 -100q0 -78 -80.5 -127t-202.5 -61q6 -30 27 -45t46 -15zM510 373q-31 0 -60 -30t-42 -78
q134 21 134 83q0 25 -32 25zM200 118q49 0 84 162q11 51 31 89h-10q-61 0 -100.5 -55t-39.5 -134q0 -29 10 -45.5t25 -16.5z" />
    <glyph glyph-name="ccedilla" unicode="&#xe7;" horiz-adv-x="480" 
d="M246 125q46 0 85 47l116 -74q-73 -100 -195 -107l-15 -21l1 -1q75 -3 75 -66q0 -47 -34.5 -71t-94.5 -24q-33 0 -54 6l2 61q16 -6 39 -6q53 0 53 33q0 25 -65 25l1 38l20 31q-72 14 -112 67.5t-40 140.5q0 120 69.5 207t190.5 87q126 0 188 -90l-115 -86q-22 43 -69 43
q-49 0 -81 -46t-32 -109q0 -40 18 -62.5t49 -22.5z" />
    <glyph glyph-name="egrave" unicode="&#xe8;" horiz-adv-x="476" 
d="M385 557h-137l-93 150l150 -1zM464 363q-3 -156 -289 -186q6 -31 26 -46.5t44 -15.5q52 0 89 49l112 -66q-78 -107 -213 -107q-93 0 -149 55.5t-55 149.5q0 128 73.5 215t194.5 87q66 0 117 -35.5t50 -99.5zM320 342q1 15 -9 23t-27 8q-33 0 -62.5 -28.5t-41.5 -77.5
q139 15 140 75z" />
    <glyph glyph-name="eacute" unicode="&#xe9;" horiz-adv-x="476" 
d="M494 706l-129 -150h-140l117 149zM297 498q66 0 117 -35.5t50 -99.5q-3 -156 -289 -186q6 -31 26 -46.5t44 -15.5q52 0 89 49l112 -66q-78 -107 -213 -107q-93 0 -149 55.5t-55 149.5q0 128 73.5 215t194.5 87zM320 342q1 15 -9 23t-27 8q-33 0 -62.5 -28.5t-41.5 -77.5
q139 15 140 75z" />
    <glyph glyph-name="ecircumflex" unicode="&#xea;" horiz-adv-x="476" 
d="M302 629l-42 -74h-133l115 152h131l84 -152h-130l-24 74h-1zM464 363q-3 -156 -289 -186q6 -31 26 -46.5t44 -15.5q52 0 89 49l112 -66q-78 -107 -213 -107q-93 0 -149 55.5t-55 149.5q0 128 73.5 215t194.5 87q66 0 117 -35.5t50 -99.5zM320 342q1 15 -9 23t-27 8
q-33 0 -62.5 -28.5t-41.5 -77.5q139 15 140 75z" />
    <glyph glyph-name="edieresis" unicode="&#xeb;" horiz-adv-x="476" 
d="M194 552q-39 0 -64.5 24.5t-25.5 61.5q0 38 26 63t67 25q40 0 65 -24t25 -61q0 -39 -26 -64t-67 -25zM415 726q39 0 64 -24t25 -61q0 -39 -26 -64t-67 -25q-39 0 -64.5 24.5t-25.5 61.5q0 39 26 63.5t68 24.5zM297 498q66 0 117 -35.5t50 -99.5q-3 -156 -289 -186
q6 -31 26 -46.5t44 -15.5q52 0 89 49l112 -66q-78 -107 -213 -107q-93 0 -149 55.5t-55 149.5q0 128 73.5 215t194.5 87zM320 342q1 15 -9 23t-27 8q-33 0 -62.5 -28.5t-41.5 -77.5q139 15 140 75z" />
    <glyph glyph-name="igrave" unicode="&#xec;" horiz-adv-x="268" 
d="M98 560l-56 150l151 -1l43 -149h-138zM28 0l60 489h150l-60 -489h-150z" />
    <glyph glyph-name="iacute" unicode="&#xed;" horiz-adv-x="268" 
d="M104 556l117 149l152 1l-129 -150h-140zM29 0l60 489h150l-60 -489h-150z" />
    <glyph glyph-name="icircumflex" unicode="&#xee;" horiz-adv-x="268" 
d="M8 555l115 152h131l84 -152h-130l-24 74h-1l-42 -74h-133zM29 0l60 489h150l-60 -489h-150z" />
    <glyph glyph-name="idieresis" unicode="&#xef;" horiz-adv-x="268" 
d="M223 726q35 0 58 -24t23 -61t-24.5 -62.5t-59.5 -25.5q-17 0 -35 8q-16 -8 -35 -8q-35 0 -58.5 24.5t-23.5 60.5q0 37 24.5 62.5t60.5 25.5q16 0 34 -7q19 7 36 7zM29 0l60 489h150l-60 -489h-150z" />
    <glyph glyph-name="eth" unicode="&#xf0;" horiz-adv-x="532" 
d="M453 543q55 -97 54 -224q-2 -144 -68 -236t-199 -92q-99 0 -155 57.5t-56 154.5q0 114 68.5 193.5t161.5 79.5q45 0 79 -19q-5 15 -10 25q-13 27 -31 49t-46 43.5t-45 32.5t-56 35l62 103q75 -33 131 -76l80 98l80 -72l-85 -100q22 -29 35 -52zM246 124q54 0 83 56.5
t29 144.5q-30 24 -67 24q-47 0 -79.5 -43.5t-32.5 -95.5q0 -43 20 -64.5t47 -21.5z" />
    <glyph glyph-name="ntilde" unicode="&#xf1;" horiz-adv-x="547" 
d="M409 551q-33 0 -76 30q-24 18 -44 18q-33 0 -58 -51l-84 42q50 120 129 120q8 0 15.5 -1t14.5 -3t11.5 -3.5t10.5 -5t8.5 -5t8 -5t6.5 -4.5q27 -19 42 -19q35 0 60 49l84 -34q-23 -59 -55.5 -93.5t-72.5 -34.5zM25 0l61 489h149l-8 -68l2 -1q67 78 162 78q70 0 98 -48.5
t15 -150.5l-39 -299h-149l35 265q7 51 0.5 75t-29.5 24q-38 0 -76 -49t-49 -134l-22 -181h-150z" />
    <glyph glyph-name="ograve" unicode="&#xf2;" horiz-adv-x="535" 
d="M248 557l-93 150l150 -1l80 -149h-137zM235 -9q-94 0 -150.5 55.5t-56.5 154.5q0 124 73 210.5t197 86.5q96 0 152.5 -55.5t56.5 -153.5q0 -128 -69.5 -213t-202.5 -85zM246 125q48 0 78.5 46t30.5 108q0 47 -21 66t-48 19q-47 0 -76.5 -47.5t-29.5 -107.5
q0 -41 19.5 -62.5t46.5 -21.5z" />
    <glyph glyph-name="oacute" unicode="&#xf3;" horiz-adv-x="535" 
d="M242 556l117 149l152 1l-129 -150h-140zM235 -9q-94 0 -150.5 55.5t-56.5 154.5q0 124 73 210.5t197 86.5q96 0 152.5 -55.5t56.5 -153.5q0 -128 -69.5 -213t-202.5 -85zM246 125q48 0 78.5 46t30.5 108q0 47 -21 66t-48 19q-47 0 -76.5 -47.5t-29.5 -107.5
q0 -41 19.5 -62.5t46.5 -21.5z" />
    <glyph glyph-name="ocircumflex" unicode="&#xf4;" horiz-adv-x="535" 
d="M147 555l115 152h131l84 -152h-130l-24 74h-1l-42 -74h-133zM235 -9q-94 0 -150.5 55.5t-56.5 154.5q0 124 73 210.5t197 86.5q96 0 152.5 -55.5t56.5 -153.5q0 -128 -69.5 -213t-202.5 -85zM246 125q48 0 78.5 46t30.5 108q0 47 -21 66t-48 19q-47 0 -76.5 -47.5
t-29.5 -107.5q0 -41 19.5 -62.5t46.5 -21.5z" />
    <glyph glyph-name="otilde" unicode="&#xf5;" horiz-adv-x="535" 
d="M396 551q-34 0 -76 30q-24 18 -44 18q-33 0 -58 -51l-84 42q50 120 129 120q35 0 75 -27q27 -19 42 -19q36 0 60 49l84 -34q-23 -59 -55.5 -93.5t-72.5 -34.5zM235 -9q-94 0 -150.5 55.5t-56.5 154.5q0 124 73 210.5t197 86.5q96 0 152.5 -55.5t56.5 -153.5
q0 -128 -69.5 -213t-202.5 -85zM246 125q48 0 78.5 46t30.5 108q0 47 -21 66t-48 19q-47 0 -76.5 -47.5t-29.5 -107.5q0 -41 19.5 -62.5t46.5 -21.5z" />
    <glyph glyph-name="odieresis" unicode="&#xf6;" horiz-adv-x="535" 
d="M214 552q-39 0 -64.5 24.5t-25.5 61.5q0 38 26 63t67 25q40 0 65 -24t25 -61q0 -39 -26 -64t-67 -25zM431 552q-39 0 -64.5 24.5t-25.5 61.5q0 39 26 63.5t68 24.5q39 0 64 -24t25 -61q0 -39 -26 -64t-67 -25zM235 -9q-94 0 -150.5 55.5t-56.5 154.5q0 124 73 210.5
t197 86.5q96 0 152.5 -55.5t56.5 -153.5q0 -128 -69.5 -213t-202.5 -85zM246 125q48 0 78.5 46t30.5 108q0 47 -21 66t-48 19q-47 0 -76.5 -47.5t-29.5 -107.5q0 -41 19.5 -62.5t46.5 -21.5z" />
    <glyph glyph-name="divide" unicode="&#xf7;" horiz-adv-x="520" 
d="M292 396q-37 0 -61 22.5t-24 57.5q0 36 24.5 59.5t63.5 23.5q37 0 60.5 -22.5t23.5 -57.5q0 -36 -24.5 -59.5t-62.5 -23.5zM52 214l16 126h430l-15 -126h-431zM248 -8q-37 0 -61 22.5t-24 57.5q0 36 24.5 59.5t63.5 23.5q37 0 60.5 -22.5t23.5 -57.5q0 -36 -24.5 -59.5
t-62.5 -23.5z" />
    <glyph glyph-name="oslash" unicode="&#xf8;" horiz-adv-x="536" 
d="M525 464l-50 -52q32 -50 32 -123q0 -128 -69.5 -213t-202.5 -85q-74 0 -126 35l-48 -50l-46 46l48 50q-35 52 -35 129q0 124 73 210.5t197 86.5q82 0 133 -39l48 50zM180 209q0 -9 1 -13l147 154q-18 14 -42 14q-47 0 -76.5 -47.5t-29.5 -107.5zM355 279v6l-143 -150
q16 -10 34 -10q48 0 78.5 46t30.5 108z" />
    <glyph glyph-name="ugrave" unicode="&#xf9;" horiz-adv-x="539" 
d="M268 557l-93 150l150 -1l80 -149h-137zM195 -9q-153 0 -125 194l42 304h149l-37 -259q-8 -59 -1 -82t33 -23q32 0 67.5 43.5t42.5 96.5l27 224h150l-60 -489h-147l6 72h-2q-60 -81 -145 -81z" />
    <glyph glyph-name="uacute" unicode="&#xfa;" horiz-adv-x="539" 
d="M270 556l117 149l152 1l-129 -150h-140zM195 -9q-153 0 -125 194l42 304h149l-37 -259q-8 -59 -1 -82t33 -23q32 0 67.5 43.5t42.5 96.5l27 224h150l-60 -489h-147l6 72h-2q-60 -81 -145 -81z" />
    <glyph glyph-name="ucircumflex" unicode="&#xfb;" horiz-adv-x="539" 
d="M172 555l115 152h131l84 -152h-130l-24 74h-1l-42 -74h-133zM195 -9q-153 0 -125 194l42 304h149l-37 -259q-8 -59 -1 -82t33 -23q32 0 67.5 43.5t42.5 96.5l27 224h150l-60 -489h-147l6 72h-2q-60 -81 -145 -81z" />
    <glyph glyph-name="udieresis" unicode="&#xfc;" horiz-adv-x="539" 
d="M239 552q-39 0 -64.5 24.5t-25.5 61.5q0 38 26 63t67 25q40 0 65 -24t25 -61q0 -39 -26 -64t-67 -25zM456 552q-39 0 -64.5 24.5t-25.5 61.5q0 39 26 63.5t68 24.5q39 0 64 -24t25 -61q0 -39 -26 -64t-67 -25zM195 -9q-153 0 -125 194l42 304h149l-37 -259q-8 -59 -1 -82
t33 -23q32 0 67.5 43.5t42.5 96.5l27 224h150l-60 -489h-147l6 72h-2q-60 -81 -145 -81z" />
    <glyph glyph-name="yacute" unicode="&#xfd;" horiz-adv-x="534" 
d="M496 706l-129 -150h-140l117 149zM363 489h149l-52 -423q-32 -273 -276 -273q-99 0 -177 48l47 113q58 -38 122 -38q57 0 89.5 31.5t45.5 121.5v1l-3 1q-59 -80 -145 -80q-153 0 -125 194l42 304h149l-36 -259q-8 -59 -1.5 -82t33.5 -23q33 0 68.5 44.5t41.5 96.5z" />
    <glyph glyph-name="thorn" unicode="&#xfe;" horiz-adv-x="558" 
d="M1 -198l115 934h150l-39 -320l1 -2q58 84 147 84q74 0 114.5 -56.5t40.5 -143.5q0 -130 -67.5 -218.5t-166.5 -88.5q-71 0 -114 33l-4 -1l-27 -221h-150zM256 124q58 0 91 47t33 112q0 36 -15 59t-40 23q-44 0 -82.5 -53t-51.5 -145l-1 -13q22 -30 66 -30z" />
    <glyph glyph-name="ydieresis" unicode="&#xff;" horiz-adv-x="534" 
d="M202 552q-39 0 -64.5 24.5t-25.5 61.5q0 38 26 63t67 25q40 0 65 -24t25 -61q0 -39 -26 -64t-67 -25zM419 552q-39 0 -64.5 24.5t-25.5 61.5q0 39 26 63.5t68 24.5q39 0 64 -24t25 -61q0 -39 -26 -64t-67 -25zM335 266l28 223h149l-52 -423q-32 -273 -276 -273
q-99 0 -177 48l47 113q58 -38 122 -38q57 0 89.5 31.5t45.5 121.5v1l-3 1q-59 -80 -145 -80q-153 0 -125 194l42 304h149l-36 -259q-8 -59 -1.5 -82t33.5 -23q33 0 68.5 44.5t41.5 96.5z" />
    <glyph glyph-name="Amacron" unicode="&#x100;" horiz-adv-x="635" 
d="M245 784l15 110h285l-14 -110h-286zM-23 0l320 710h154l146 -710h-166l-22 131h-213l-51 -131h-168zM247 266h141l-42 249h-2z" />
    <glyph glyph-name="amacron" unicode="&#x101;" horiz-adv-x="553" 
d="M182 582l15 115h285l-14 -115h-286zM186 -9q-76 0 -117.5 56t-41.5 144q0 130 67 218.5t164 88.5q74 0 115 -43h3l4 34h151l-60 -489h-151l9 72l-3 1q-57 -82 -140 -82zM234 124q42 0 79.5 51.5t49.5 139.5l2 14q-33 35 -81 35q-47 0 -76.5 -51t-29.5 -111
q0 -35 15.5 -56.5t40.5 -21.5z" />
    <glyph glyph-name="Abreve" unicode="&#x102;" horiz-adv-x="635" 
d="M384 754q-72 0 -107 39t-30 108h107q-2 -19 8 -32t31 -13q23 0 39.5 13.5t22.5 31.5h109q-14 -66 -59 -106.5t-121 -40.5zM-23 0l320 710h154l146 -710h-166l-22 131h-213l-51 -131h-168zM247 266h141l-42 249h-2z" />
    <glyph glyph-name="abreve" unicode="&#x103;" horiz-adv-x="553" 
d="M317 540q-69 0 -105 41t-32 115h108q-2 -21 8 -34.5t31 -13.5q22 0 39 14t23 34h108q-13 -71 -60 -113.5t-120 -42.5zM186 -9q-76 0 -117.5 56t-41.5 144q0 130 67 218.5t164 88.5q74 0 115 -43h3l4 34h151l-60 -489h-151l9 72l-3 1q-57 -82 -140 -82zM234 124
q42 0 79.5 51.5t49.5 139.5l2 14q-33 35 -81 35q-47 0 -76.5 -51t-29.5 -111q0 -35 15.5 -56.5t40.5 -21.5z" />
    <glyph glyph-name="Aogonek" unicode="&#x104;" horiz-adv-x="635" 
d="M575 0q-39 -3 -68 -29.5t-29 -56.5q0 -24 25 -24q21 0 33 7l2 -77q-27 -11 -74 -11q-97 0 -97 79q0 63 64 113l-22 130h-213l-51 -131h-168l320 710h154l146 -710h-22zM247 266h141l-42 249h-2z" />
    <glyph glyph-name="aogonek" unicode="&#x105;" horiz-adv-x="553" 
d="M380 489h151l-60 -489h-12q-39 -3 -68 -29.5t-29 -56.5q0 -24 25 -24q21 0 33 7l2 -77q-28 -11 -74 -11q-97 0 -97 79q0 32 19.5 64t50.5 53l8 67l-3 1q-57 -82 -140 -82q-76 0 -117.5 56t-41.5 144q0 130 67 218.5t164 88.5q74 0 115 -43h3zM234 124q42 0 79.5 51.5
t49.5 139.5l2 14q-33 35 -81 35q-47 0 -76.5 -51t-29.5 -111q0 -35 15.5 -56.5t40.5 -21.5z" />
    <glyph glyph-name="Cacute" unicode="&#x106;" horiz-adv-x="656" 
d="M352 761l115 139l151 1l-131 -140h-135zM340 -9q-129 0 -209.5 77.5t-80.5 221.5q0 181 105 305t272 124q70 0 135 -35t111 -113l-127 -96q-50 91 -128 91q-88 0 -143.5 -82t-55.5 -188q0 -72 35 -111.5t97 -39.5q85 0 146 72l112 -104q-105 -122 -269 -122z" />
    <glyph glyph-name="cacute" unicode="&#x107;" horiz-adv-x="480" 
d="M231 556l117 149l152 1l-129 -150h-140zM235 -9q-97 0 -152 55t-55 158q0 120 69.5 207t190.5 87q126 0 188 -90l-115 -86q-22 43 -69 43q-49 0 -81 -46t-32 -109q0 -40 18 -62.5t49 -22.5q46 0 85 47l116 -74q-78 -107 -212 -107z" />
    <glyph glyph-name="Ccircumflex" unicode="&#x108;" horiz-adv-x="656" 
d="M284 761l108 140h150l73 -140h-126l-32 64h-1l-48 -64h-124zM340 -9q-129 0 -209.5 77.5t-80.5 221.5q0 181 105 305t272 124q70 0 135 -35t111 -113l-127 -96q-50 91 -128 91q-88 0 -143.5 -82t-55.5 -188q0 -72 35 -111.5t97 -39.5q85 0 146 72l112 -104
q-105 -122 -269 -122z" />
    <glyph glyph-name="ccircumflex" unicode="&#x109;" horiz-adv-x="480" 
d="M144 555l115 152h131l84 -152h-130l-24 74h-1l-42 -74h-133zM235 -9q-97 0 -152 55t-55 158q0 120 69.5 207t190.5 87q126 0 188 -90l-115 -86q-22 43 -69 43q-49 0 -81 -46t-32 -109q0 -40 18 -62.5t49 -22.5q46 0 85 47l116 -74q-78 -107 -212 -107z" />
    <glyph glyph-name="Cdotaccent" unicode="&#x10a;" horiz-adv-x="656" 
d="M456 757q-39 0 -64.5 24.5t-25.5 61.5q0 38 26 63t67 25q40 0 65 -24t25 -61q0 -39 -26 -64t-67 -25zM340 -9q-129 0 -209.5 77.5t-80.5 221.5q0 181 105 305t272 124q70 0 135 -35t111 -113l-127 -96q-50 91 -128 91q-88 0 -143.5 -82t-55.5 -188q0 -72 35 -111.5
t97 -39.5q85 0 146 72l112 -104q-105 -122 -269 -122z" />
    <glyph glyph-name="cdotaccent" unicode="&#x10b;" horiz-adv-x="480" 
d="M318 552q-39 0 -64.5 24.5t-25.5 61.5q0 38 26 63t67 25q40 0 65 -24t25 -61q0 -39 -26 -64t-67 -25zM235 -9q-97 0 -152 55t-55 158q0 120 69.5 207t190.5 87q126 0 188 -90l-115 -86q-22 43 -69 43q-49 0 -81 -46t-32 -109q0 -40 18 -62.5t49 -22.5q46 0 85 47l116 -74
q-78 -107 -212 -107z" />
    <glyph glyph-name="Ccaron" unicode="&#x10c;" horiz-adv-x="656" 
d="M375 761l-74 140h127l31 -63h2l47 63h124l-107 -140h-150zM340 -9q-129 0 -209.5 77.5t-80.5 221.5q0 181 105 305t272 124q70 0 135 -35t111 -113l-127 -96q-50 91 -128 91q-88 0 -143.5 -82t-55.5 -188q0 -72 35 -111.5t97 -39.5q85 0 146 72l112 -104
q-105 -122 -269 -122z" />
    <glyph glyph-name="ccaron" unicode="&#x10d;" horiz-adv-x="480" 
d="M237 547l-71 149h126l29 -71h2l46 71h125l-107 -149h-150zM235 -9q-97 0 -152 55t-55 158q0 120 69.5 207t190.5 87q126 0 188 -90l-115 -86q-22 43 -69 43q-49 0 -81 -46t-32 -109q0 -40 18 -62.5t49 -22.5q46 0 85 47l116 -74q-78 -107 -212 -107z" />
    <glyph glyph-name="Dcaron" unicode="&#x10e;" horiz-adv-x="666" 
d="M313 760l-74 140h127l31 -63h2l47 63h124l-107 -140h-150zM38 0l87 710h224q144 0 218.5 -78t74.5 -217q0 -187 -103 -301t-281 -114h-220zM212 143h64q95 0 147.5 76t52.5 193q0 155 -145 155h-67z" />
    <glyph glyph-name="dcaron" unicode="&#x10f;" horiz-adv-x="605" 
d="M590 577l57 215h142l-94 -215h-105zM187 -9q-77 0 -118.5 56t-41.5 144q0 130 67 218.5t164 88.5q72 0 117 -43h3l34 281h151l-91 -736h-150l9 72l-3 1q-58 -82 -141 -82zM234 124q42 0 80 51.5t51 139.5l2 14q-32 35 -83 35q-47 0 -76.5 -51t-29.5 -111
q0 -35 15.5 -56.5t40.5 -21.5z" />
    <glyph glyph-name="Dcroat" unicode="&#x110;" horiz-adv-x="668" 
d="M350 710q144 0 218.5 -78t74.5 -217q0 -187 -103 -301t-281 -114h-220l34 281h-46l19 135h44l36 294h224zM277 143q95 0 147.5 76t52.5 193q0 155 -145 155h-67l-19 -151h113l-19 -135h-110l-17 -138h64z" />
    <glyph glyph-name="dcroat" unicode="&#x111;" horiz-adv-x="539" 
d="M592 637l-11 -90h-41l-68 -547h-150l9 72l-3 1q-58 -82 -141 -82q-77 0 -118.5 56t-41.5 144q0 130 67 218.5t164 88.5q72 0 117 -43h3l11 92h-158l11 90h158l12 99h151l-12 -99h41zM365 315l2 14q-32 35 -83 35q-47 0 -76.5 -51t-29.5 -111q0 -35 15.5 -56.5t40.5 -21.5
q42 0 80 51.5t51 139.5z" />
    <glyph glyph-name="Emacron" unicode="&#x112;" horiz-adv-x="547" 
d="M206 783l15 110h285l-14 -110h-286zM37 0l87 710h422l-18 -143h-265l-18 -145h209l-16 -138h-209l-18 -141h284l-18 -143h-440z" />
    <glyph glyph-name="emacron" unicode="&#x113;" horiz-adv-x="476" 
d="M455 697l-14 -115h-286l15 115h285zM464 363q-3 -156 -289 -186q6 -31 26 -46.5t44 -15.5q52 0 89 49l112 -66q-78 -107 -213 -107q-93 0 -149 55.5t-55 149.5q0 128 73.5 215t194.5 87q66 0 117 -35.5t50 -99.5zM320 342q1 15 -9 23t-27 8q-33 0 -62.5 -28.5
t-41.5 -77.5q139 15 140 75z" />
    <glyph glyph-name="Ebreve" unicode="&#x114;" horiz-adv-x="547" 
d="M345 753q-72 0 -107 39t-30 108h107q-2 -19 8 -32t31 -13q23 0 39.5 13.5t22.5 31.5h109q-14 -66 -59 -106.5t-121 -40.5zM37 0l87 710h422l-18 -143h-265l-18 -145h209l-16 -138h-209l-18 -141h284l-18 -143h-440z" />
    <glyph glyph-name="ebreve" unicode="&#x115;" horiz-adv-x="476" 
d="M290 540q-69 0 -105 41t-32 115h108q-2 -21 8 -34.5t31 -13.5q22 0 39 14t23 34h108q-13 -71 -60 -113.5t-120 -42.5zM297 498q66 0 117 -35.5t50 -99.5q-3 -156 -289 -186q6 -31 26 -46.5t44 -15.5q52 0 89 49l112 -66q-78 -107 -213 -107q-93 0 -149 55.5t-55 149.5
q0 128 73.5 215t194.5 87zM320 342q1 15 -9 23t-27 8q-33 0 -62.5 -28.5t-41.5 -77.5q139 15 140 75z" />
    <glyph glyph-name="Edotaccent" unicode="&#x116;" horiz-adv-x="547" 
d="M353 756q-39 0 -64.5 24.5t-25.5 61.5q0 38 26 63t67 25q40 0 65 -24t25 -61q0 -39 -26 -64t-67 -25zM37 0l87 710h422l-18 -143h-265l-18 -145h209l-16 -138h-209l-18 -141h284l-18 -143h-440z" />
    <glyph glyph-name="edotaccent" unicode="&#x117;" horiz-adv-x="476" 
d="M301 552q-39 0 -64.5 24.5t-25.5 61.5q0 38 26 63t67 25q40 0 65 -24t25 -61q0 -39 -26 -64t-67 -25zM464 363q-3 -156 -289 -186q6 -31 26 -46.5t44 -15.5q52 0 89 49l112 -66q-78 -107 -213 -107q-93 0 -149 55.5t-55 149.5q0 128 73.5 215t194.5 87q66 0 117 -35.5
t50 -99.5zM320 342q1 15 -9 23t-27 8q-33 0 -62.5 -28.5t-41.5 -77.5q139 15 140 75z" />
    <glyph glyph-name="Eogonek" unicode="&#x118;" horiz-adv-x="547" 
d="M528 567h-265l-18 -145h209l-16 -138h-209l-18 -141h284l-18 -143h-2q-39 -3 -68 -29.5t-29 -56.5q0 -24 25 -24q21 0 33 7l2 -77q-27 -11 -74 -11q-97 0 -97 79q0 63 63 112h-293l87 710h422z" />
    <glyph glyph-name="eogonek" unicode="&#x119;" horiz-adv-x="476" 
d="M464 363q-3 -156 -289 -186q6 -31 26 -46.5t44 -15.5q52 0 89 49l112 -66q-53 -73 -129 -96q-38 -14 -64.5 -38t-26.5 -50q0 -24 27 -24q17 0 31 7l2 -77q-27 -11 -73 -11q-98 0 -98 79q0 59 56 107v3q-67 17 -105 69t-37 129q0 128 73.5 215t194.5 87q66 0 117 -35.5
t50 -99.5zM320 342q1 15 -9 23t-27 8q-33 0 -62.5 -28.5t-41.5 -77.5q139 15 140 75z" />
    <glyph glyph-name="Ecaron" unicode="&#x11a;" horiz-adv-x="547" 
d="M272 760l-74 140h127l31 -63h2l47 63h124l-107 -140h-150zM37 0l87 710h422l-18 -143h-265l-18 -145h209l-16 -138h-209l-18 -141h284l-18 -143h-440z" />
    <glyph glyph-name="ecaron" unicode="&#x11b;" horiz-adv-x="476" 
d="M370 547h-150l-71 149h126l29 -71h2l46 71h125zM297 498q66 0 117 -35.5t50 -99.5q-3 -156 -289 -186q6 -31 26 -46.5t44 -15.5q52 0 89 49l112 -66q-78 -107 -213 -107q-93 0 -149 55.5t-55 149.5q0 128 73.5 215t194.5 87zM320 342q1 15 -9 23t-27 8q-33 0 -62.5 -28.5
t-41.5 -77.5q139 15 140 75z" />
    <glyph glyph-name="Gcircumflex" unicode="&#x11c;" horiz-adv-x="680" 
d="M268 760l108 140h150l73 -140h-126l-32 64h-1l-48 -64h-124zM341 -9q-129 0 -210 76t-81 221q0 182 104.5 306.5t269.5 124.5q76 0 141 -33t102 -95l-124 -94q-47 72 -128 72q-86 0 -141.5 -81.5t-55.5 -190.5q0 -77 35.5 -117.5t98.5 -40.5q57 0 110 34l13 88h-118
l17 134h271l-37 -318q-49 -38 -121 -62t-146 -24z" />
    <glyph glyph-name="gcircumflex" unicode="&#x11d;" horiz-adv-x="551" 
d="M330 629l-42 -74h-133l115 152h131l84 -152h-130l-24 74h-1zM378 489h150l-52 -426q-33 -270 -284 -270q-100 0 -178 48l47 117q62 -38 125 -38q62 0 96 34t47 133l-3 1q-58 -82 -139 -82q-76 0 -117.5 54.5t-41.5 135.5q0 127 67 214.5t163 87.5q75 0 114 -41l3 1z
M361 315l2 16q-33 33 -79 33t-75.5 -49.5t-29.5 -103.5q0 -35 14.5 -53.5t40.5 -18.5q41 0 78 49t49 127z" />
    <glyph glyph-name="Gbreve" unicode="&#x11e;" horiz-adv-x="680" 
d="M432 753q-72 0 -107 39t-30 108h107q-2 -19 8 -32t31 -13q23 0 39.5 13.5t22.5 31.5h109q-14 -66 -59 -106.5t-121 -40.5zM341 -9q-129 0 -210 76t-81 221q0 182 104.5 306.5t269.5 124.5q76 0 141 -33t102 -95l-124 -94q-47 72 -128 72q-86 0 -141.5 -81.5t-55.5 -190.5
q0 -77 35.5 -117.5t98.5 -40.5q57 0 110 34l13 88h-118l17 134h271l-37 -318q-49 -38 -121 -62t-146 -24z" />
    <glyph glyph-name="gbreve" unicode="&#x11f;" horiz-adv-x="551" 
d="M318 540q-69 0 -105 41t-32 115h108q-2 -21 8 -34.5t31 -13.5q22 0 39 14t23 34h108q-13 -71 -60 -113.5t-120 -42.5zM378 489h150l-52 -426q-33 -270 -284 -270q-100 0 -178 48l47 117q62 -38 125 -38q62 0 96 34t47 133l-3 1q-58 -82 -139 -82q-76 0 -117.5 54.5
t-41.5 135.5q0 127 67 214.5t163 87.5q75 0 114 -41l3 1zM361 315l2 16q-33 33 -79 33t-75.5 -49.5t-29.5 -103.5q0 -35 14.5 -53.5t40.5 -18.5q41 0 78 49t49 127z" />
    <glyph glyph-name="Gdotaccent" unicode="&#x120;" horiz-adv-x="680" 
d="M440 756q-39 0 -64.5 24.5t-25.5 61.5q0 38 26 63t67 25q40 0 65 -24t25 -61q0 -39 -26 -64t-67 -25zM341 -9q-129 0 -210 76t-81 221q0 182 104.5 306.5t269.5 124.5q76 0 141 -33t102 -95l-124 -94q-47 72 -128 72q-86 0 -141.5 -81.5t-55.5 -190.5q0 -77 35.5 -117.5
t98.5 -40.5q57 0 110 34l13 88h-118l17 134h271l-37 -318q-49 -38 -121 -62t-146 -24z" />
    <glyph glyph-name="gdotaccent" unicode="&#x121;" horiz-adv-x="551" 
d="M329 552q-39 0 -64.5 24.5t-25.5 61.5q0 38 26 63t67 25q40 0 65 -24t25 -61q0 -39 -26 -64t-67 -25zM378 489h150l-52 -426q-33 -270 -284 -270q-100 0 -178 48l47 117q62 -38 125 -38q62 0 96 34t47 133l-3 1q-58 -82 -139 -82q-76 0 -117.5 54.5t-41.5 135.5
q0 127 67 214.5t163 87.5q75 0 114 -41l3 1zM361 315l2 16q-33 33 -79 33t-75.5 -49.5t-29.5 -103.5q0 -35 14.5 -53.5t40.5 -18.5q41 0 78 49t49 127z" />
    <glyph glyph-name="Gcommaaccent" unicode="&#x122;" horiz-adv-x="680" 
d="M341 -9q-129 0 -210 76t-81 221q0 182 104.5 306.5t269.5 124.5q76 0 141 -33t102 -95l-124 -94q-47 72 -128 72q-86 0 -141.5 -81.5t-55.5 -190.5q0 -77 35.5 -117.5t98.5 -40.5q57 0 110 34l13 88h-118l17 134h271l-37 -318q-49 -38 -121 -62t-146 -24zM232 -221
l-15 85q31 7 43.5 19.5t12.5 38.5q0 5 -2 25h120q2 -14 2 -23q0 -68 -42.5 -105.5t-118.5 -39.5z" />
    <glyph glyph-name="gcommaaccent" unicode="&#x123;" horiz-adv-x="551" 
d="M389 566h-120q-2 14 -2 23q0 68 42.5 105.5t118.5 39.5l15 -85q-31 -7 -43.5 -19.5t-12.5 -38.5q0 -5 2 -25zM378 489h150l-52 -426q-33 -270 -284 -270q-100 0 -178 48l47 117q62 -38 125 -38q62 0 96 34t47 133l-3 1q-58 -82 -139 -82q-76 0 -117.5 54.5t-41.5 135.5
q0 127 67 214.5t163 87.5q75 0 114 -41l3 1zM361 315l2 16q-33 33 -79 33t-75.5 -49.5t-29.5 -103.5q0 -35 14.5 -53.5t40.5 -18.5q41 0 78 49t49 127z" />
    <glyph glyph-name="Hcircumflex" unicode="&#x124;" horiz-adv-x="670" 
d="M233 761l108 140h150l73 -140h-126l-32 64h-1l-48 -64h-124zM38 0l87 710h161l-36 -297h211l36 297h162l-88 -710h-161l33 270h-211l-33 -270h-161z" />
    <glyph glyph-name="hcircumflex" unicode="&#x125;" horiz-adv-x="547" 
d="M176 773l108 140h150l73 -140h-126l-32 64h-1l-48 -64h-124zM25 0l91 736h149l-39 -315l2 -1q67 78 163 78q70 0 98 -48.5t15 -150.5l-39 -299h-150l36 265q7 51 0.5 75t-29.5 24q-39 0 -77.5 -50.5t-48.5 -137.5l-21 -176h-150z" />
    <glyph glyph-name="Hbar" unicode="&#x126;" horiz-adv-x="672" 
d="M689 617l-13 -103h-40l-64 -514h-161l33 270h-211l-33 -270h-161l63 514h-40l13 103h40l11 93h161l-11 -93h211l11 93h162l-12 -93h41zM462 413l12 101h-211l-12 -101h211z" />
    <glyph glyph-name="hbar" unicode="&#x127;" horiz-adv-x="547" 
d="M391 498q70 0 98 -48.5t15 -150.5l-39 -299h-150l36 265q7 51 0.5 75t-29.5 24q-39 0 -77.5 -50.5t-48.5 -137.5l-21 -176h-150l68 547h-47l10 90h48l12 99h149l-12 -99h154l-10 -90h-155l-16 -126l2 -1q67 78 163 78z" />
    <glyph glyph-name="Itilde" unicode="&#x128;" horiz-adv-x="308" 
d="M299 761q-32 0 -77 30q-26 18 -44 18q-32 0 -57 -50l-84 41q53 110 128 110q37 0 76 -26q30 -20 44 -20q34 0 58 48l84 -32q-52 -119 -128 -119zM43 0l87 710h162l-87 -710h-162z" />
    <glyph glyph-name="itilde" unicode="&#x129;" horiz-adv-x="268" 
d="M250 543q-9 0 -17 1.5t-15.5 6t-11.5 6.5t-12 8.5t-9 7.5q-23 18 -40 18q-30 0 -55 -49l-79 40q50 108 122 108q33 0 69 -23q4 -3 11.5 -8.5t12 -8t10.5 -5t11 -2.5q29 0 53 51l79 -34q-22 -52 -55.5 -84.5t-73.5 -32.5zM29 0l60 489h150l-60 -489h-150z" />
    <glyph glyph-name="Imacron" unicode="&#x12a;" horiz-adv-x="308" 
d="M75 783l15 110h285l-14 -110h-286zM43 0l87 710h162l-87 -710h-162z" />
    <glyph glyph-name="imacron" unicode="&#x12b;" horiz-adv-x="268" 
d="M36 582l15 115h285l-14 -115h-286zM29 0l60 489h150l-60 -489h-150z" />
    <glyph glyph-name="Ibreve" unicode="&#x12c;" horiz-adv-x="308" 
d="M214 753q-72 0 -107 39t-30 108h107q-2 -19 8 -32t31 -13q23 0 39.5 13.5t22.5 31.5h109q-14 -66 -59 -106.5t-121 -40.5zM43 0l87 710h162l-87 -710h-162z" />
    <glyph glyph-name="ibreve" unicode="&#x12d;" horiz-adv-x="268" 
d="M181 550q-59 0 -95 41.5t-32 113.5h99q-5 -58 33 -58q19 0 32.5 16t16.5 42h99q-12 -69 -52.5 -112t-100.5 -43zM29 0l60 489h150l-60 -489h-150z" />
    <glyph glyph-name="Iogonek" unicode="&#x12e;" horiz-adv-x="308" 
d="M130 710h162l-87 -710h-18q-39 -3 -68 -29.5t-29 -56.5q0 -24 25 -24q21 0 33 7l2 -77q-28 -11 -74 -11q-97 0 -97 79q0 31 17.5 61t46.5 52z" />
    <glyph glyph-name="iogonek" unicode="&#x12f;" horiz-adv-x="268" 
d="M185 726q40 0 65 -24t25 -61q0 -39 -26 -64t-67 -25q-39 0 -64.5 24.5t-25.5 61.5q0 38 26 63t67 25zM30 5l59 484h150l-60 -489h-10q-39 -3 -68 -29.5t-29 -56.5q0 -24 25 -24q21 0 33 7l2 -77q-27 -11 -74 -11q-97 0 -97 79q0 32 19 63.5t50 53.5z" />
    <glyph glyph-name="Idotaccent" unicode="&#x130;" horiz-adv-x="308" 
d="M222 756q-39 0 -64.5 24.5t-25.5 61.5q0 38 26 63t67 25q40 0 65 -24t25 -61q0 -39 -26 -64t-67 -25zM43 0l87 710h162l-87 -710h-162z" />
    <glyph glyph-name="dotlessi" unicode="&#x131;" horiz-adv-x="268" 
d="M29 0l60 489h150l-60 -489h-150z" />
    <glyph glyph-name="IJ" unicode="&#x132;" horiz-adv-x="772" 
d="M43 0l87 710h162l-87 -710h-162zM477 -9q-54 0 -101 25t-74 72l106 108q24 -52 67 -52q30 0 50 27t28 96l55 443h160l-55 -450q-17 -139 -72.5 -204t-163.5 -65z" />
    <glyph glyph-name="ij" unicode="&#x133;" horiz-adv-x="519" 
d="M182 552q-39 0 -64.5 24.5t-25.5 61.5q0 38 26 63t67 25q40 0 65 -24t25 -61q0 -39 -26 -64t-67 -25zM438 552q-39 0 -64.5 24.5t-25.5 61.5q0 38 26 63t67 25q40 0 65 -24t25 -61q0 -39 -26 -64t-67 -25zM29 0l60 489h150l-60 -489h-150zM265 -206q-59 0 -103 23l37 115
q14 -12 38 -12q22 0 32 18.5t15 65.5l60 485h151l-63 -506q-22 -189 -167 -189z" />
    <glyph glyph-name="Jcircumflex" unicode="&#x134;" horiz-adv-x="464" 
d="M219 761l108 140h150l73 -140h-126l-32 64h-1l-48 -64h-124zM169 -9q-54 0 -101 25t-74 72l106 108q24 -52 67 -52q30 0 50 27t28 96l55 443h160l-55 -450q-17 -139 -72.5 -204t-163.5 -65z" />
    <glyph glyph-name="jcircumflex" unicode="&#x135;" horiz-adv-x="251" 
d="M-4 555l115 152h131l84 -152h-130l-24 74h-1l-42 -74h-133zM-3 -206q-59 0 -103 23l37 115q14 -12 38 -12q22 0 32 18.5t15 65.5l60 485h151l-63 -506q-22 -189 -167 -189z" />
    <glyph glyph-name="Kcommaaccent" unicode="&#x136;" horiz-adv-x="618" 
d="M665 710l-256 -319l176 -391h-182l-115 278l-67 -79l-24 -199h-159l87 710h159l-35 -290l3 -1l221 291h192zM219 -53h120q2 -14 2 -23q0 -68 -42.5 -105.5t-118.5 -39.5l-15 85q31 7 43.5 19.5t12.5 38.5q0 5 -2 25z" />
    <glyph glyph-name="kcommaaccent" unicode="&#x137;" horiz-adv-x="514" 
d="M438 -7q-20 -2 -44 -2q-53 0 -84.5 36t-54.5 104l-9 30q-28 -18 -59 -31l-15 -130h-147l91 736h149l-56 -455l2 -1q105 74 139 209h155q-27 -142 -139 -247l14 -42q16 -49 36 -66t56 -19zM126 -221l-15 85q31 7 43.5 19.5t12.5 38.5q0 5 -2 25h120q2 -14 2 -23
q0 -68 -42.5 -105.5t-118.5 -39.5z" />
    <glyph glyph-name="kgreenlandic" unicode="&#x138;" horiz-adv-x="512" 
d="M436 -7q-20 -2 -44 -2q-53 0 -84.5 36t-54.5 104l-7 25q-27 -16 -57 -30l-14 -126h-150l61 489h149l-24 -195l4 -2q100 69 133 197h155q-27 -141 -139 -248l14 -41q16 -50 36 -66.5t56 -18.5z" />
    <glyph glyph-name="Lacute" unicode="&#x139;" horiz-adv-x="521" 
d="M254 761l115 139l151 1l-131 -140h-135zM38 0l87 710h161l-70 -567h262l-17 -143h-423z" />
    <glyph glyph-name="lacute" unicode="&#x13a;" horiz-adv-x="268" 
d="M135 774l115 139l151 1l-131 -140h-135zM30 0l90 736h151l-91 -736h-150z" />
    <glyph glyph-name="Lcommaaccent" unicode="&#x13b;" horiz-adv-x="521" 
d="M38 0l87 710h161l-70 -567h262l-17 -143h-423zM141 -221l-15 85q31 7 43.5 19.5t12.5 38.5q0 5 -2 25h120q2 -14 2 -23q0 -68 -42.5 -105.5t-118.5 -39.5z" />
    <glyph glyph-name="lcommaaccent" unicode="&#x13c;" horiz-adv-x="268" 
d="M30 0l90 736h151l-91 -736h-150zM-2 -221l-15 85q31 7 43.5 19.5t12.5 38.5q0 5 -2 25h120q2 -14 2 -23q0 -68 -42.5 -105.5t-118.5 -39.5z" />
    <glyph glyph-name="Lcaron" unicode="&#x13d;" horiz-adv-x="531" 
d="M353 577l56 215h142l-93 -215h-105zM38 0l87 710h161l-70 -567h262l-17 -143h-423z" />
    <glyph glyph-name="lcaron" unicode="&#x13e;" horiz-adv-x="319" 
d="M305 577l56 215h142l-94 -215h-104zM30 0l90 736h151l-91 -736h-150z" />
    <glyph glyph-name="Ldot" unicode="&#x13f;" horiz-adv-x="522" 
d="M38 0l87 710h161l-70 -567h262l-17 -143h-423zM417 253q-39 0 -62.5 24.5t-23.5 62.5q0 39 24.5 63.5t64.5 24.5t63.5 -24t23.5 -61q0 -40 -24.5 -65t-65.5 -25z" />
    <glyph glyph-name="ldot" unicode="&#x140;" horiz-adv-x="454" 
d="M30 0l90 736h151l-91 -736h-150zM359 178q-39 0 -62.5 24.5t-23.5 62.5q0 39 24.5 63.5t64.5 24.5t63.5 -24t23.5 -61q0 -40 -24.5 -65t-65.5 -25z" />
    <glyph glyph-name="Lslash" unicode="&#x141;" horiz-adv-x="522" 
d="M217 143h262l-17 -143h-423l32 257l-67 -29l15 121l66 29l41 332h161l-32 -257l97 43l-15 -122l-97 -42z" />
    <glyph glyph-name="lslash" unicode="&#x142;" horiz-adv-x="307" 
d="M314 445l-13 -106l-63 -28l-38 -311h-150l29 238l-62 -28l13 105l62 28l48 393h151l-40 -320z" />
    <glyph glyph-name="Nacute" unicode="&#x143;" horiz-adv-x="686" 
d="M305 761l115 139l151 1l-131 -140h-135zM38 0l87 710h150l188 -440l3 1l54 439h156l-88 -710h-155l-183 429h-3l-54 -429h-155z" />
    <glyph glyph-name="nacute" unicode="&#x144;" horiz-adv-x="547" 
d="M222 556l117 149l152 1l-129 -150h-140zM25 0l61 489h149l-8 -68l2 -1q67 78 162 78q70 0 98 -48.5t15 -150.5l-39 -299h-149l35 265q7 51 0.5 75t-29.5 24q-38 0 -76 -49t-49 -134l-22 -181h-150z" />
    <glyph glyph-name="Ncommaaccent" unicode="&#x145;" horiz-adv-x="686" 
d="M38 0l87 710h150l188 -440l3 1l54 439h156l-88 -710h-155l-183 429h-3l-54 -429h-155zM213 -221l-15 85q31 7 43.5 19.5t12.5 38.5q0 5 -2 25h120q2 -14 2 -23q0 -68 -42.5 -105.5t-118.5 -39.5z" />
    <glyph glyph-name="ncommaaccent" unicode="&#x146;" horiz-adv-x="547" 
d="M25 0l61 489h149l-8 -68l2 -1q67 78 162 78q70 0 98 -48.5t15 -150.5l-39 -299h-149l35 265q7 51 0.5 75t-29.5 24q-38 0 -76 -49t-49 -134l-22 -181h-150zM139 -221l-15 85q31 7 43.5 19.5t12.5 38.5q0 5 -2 25h120q2 -14 2 -23q0 -68 -42.5 -105.5t-118.5 -39.5z" />
    <glyph glyph-name="Ncaron" unicode="&#x147;" horiz-adv-x="686" 
d="M339 761l-74 140h127l31 -63h2l47 63h124l-107 -140h-150zM38 0l87 710h150l188 -440l3 1l54 439h156l-88 -710h-155l-183 429h-3l-54 -429h-155z" />
    <glyph glyph-name="ncaron" unicode="&#x148;" horiz-adv-x="547" 
d="M253 547l-71 149h126l29 -71h2l46 71h125l-107 -149h-150zM25 0l61 489h149l-8 -68l2 -1q67 78 162 78q70 0 98 -48.5t15 -150.5l-39 -299h-149l35 265q7 51 0.5 75t-29.5 24q-38 0 -76 -49t-49 -134l-22 -181h-150z" />
    <glyph glyph-name="napostrophe" unicode="&#x149;" horiz-adv-x="671" 
d="M1 486l56 224h143l-94 -224h-105zM150 0l61 489h149l-8 -68l2 -1q67 78 162 78q70 0 98 -48.5t15 -150.5l-39 -299h-149l35 265q7 51 0.5 75t-29.5 24q-38 0 -76 -49t-49 -134l-22 -181h-150z" />
    <glyph glyph-name="Eng" unicode="&#x14a;" horiz-adv-x="686" 
d="M520 710h156l-88 -710q-14 -111 -72 -157.5t-161 -46.5q-40 0 -65 6l21 122q18 -3 32 -3q76 0 87 79l1 7l-181 422h-3l-54 -429h-155l87 710h150l188 -440l3 1z" />
    <glyph glyph-name="eng" unicode="&#x14b;" horiz-adv-x="542" 
d="M248 -205q-39 0 -72 8l26 114q15 -3 27 -3q69 0 85 112l32 239q7 51 0.5 75t-29.5 24q-37 0 -73 -48.5t-47 -134.5l-22 -181h-150l61 489h149l-8 -68l2 -1q60 78 157 78q70 0 98 -48.5t15 -150.5l-38 -299q-13 -100 -69.5 -152.5t-143.5 -52.5z" />
    <glyph glyph-name="Omacron" unicode="&#x14c;" horiz-adv-x="739" 
d="M320 784l15 110h285l-14 -110h-286zM339 -9q-132 0 -210.5 79.5t-78.5 221.5q0 114 45.5 210.5t132.5 156.5t198 60q132 0 211 -79.5t79 -219.5q0 -118 -43.5 -214.5t-130.5 -155.5t-203 -59zM351 141q86 0 142 78t56 192q0 79 -37.5 119t-100.5 40q-82 0 -138 -81
t-56 -187q0 -79 36.5 -120t97.5 -41z" />
    <glyph glyph-name="omacron" unicode="&#x14d;" horiz-adv-x="535" 
d="M175 582l15 115h285l-14 -115h-286zM235 -9q-94 0 -150.5 55.5t-56.5 154.5q0 124 73 210.5t197 86.5q96 0 152.5 -55.5t56.5 -153.5q0 -128 -69.5 -213t-202.5 -85zM246 125q48 0 78.5 46t30.5 108q0 47 -21 66t-48 19q-47 0 -76.5 -47.5t-29.5 -107.5q0 -41 19.5 -62.5
t46.5 -21.5z" />
    <glyph glyph-name="Obreve" unicode="&#x14e;" horiz-adv-x="739" 
d="M459 754q-72 0 -107 39t-30 108h107q-2 -19 8 -32t31 -13q23 0 39.5 13.5t22.5 31.5h109q-14 -66 -59 -106.5t-121 -40.5zM339 -9q-132 0 -210.5 79.5t-78.5 221.5q0 114 45.5 210.5t132.5 156.5t198 60q132 0 211 -79.5t79 -219.5q0 -118 -43.5 -214.5t-130.5 -155.5
t-203 -59zM351 141q86 0 142 78t56 192q0 79 -37.5 119t-100.5 40q-82 0 -138 -81t-56 -187q0 -79 36.5 -120t97.5 -41z" />
    <glyph glyph-name="obreve" unicode="&#x14f;" horiz-adv-x="535" 
d="M310 540q-69 0 -105 41t-32 115h108q-2 -21 8 -34.5t31 -13.5q22 0 39 14t23 34h108q-13 -71 -60 -113.5t-120 -42.5zM235 -9q-94 0 -150.5 55.5t-56.5 154.5q0 124 73 210.5t197 86.5q96 0 152.5 -55.5t56.5 -153.5q0 -128 -69.5 -213t-202.5 -85zM246 125q48 0 78.5 46
t30.5 108q0 47 -21 66t-48 19q-47 0 -76.5 -47.5t-29.5 -107.5q0 -41 19.5 -62.5t46.5 -21.5z" />
    <glyph glyph-name="Ohungarumlaut" unicode="&#x150;" horiz-adv-x="739" 
d="M277 759l117 149l148 1l-130 -150h-135zM484 759l116 149l148 1l-129 -150h-135zM339 -9q-132 0 -210.5 79.5t-78.5 221.5q0 114 45.5 210.5t132.5 156.5t198 60q132 0 211 -79.5t79 -219.5q0 -118 -43.5 -214.5t-130.5 -155.5t-203 -59zM351 141q86 0 142 78t56 192
q0 79 -37.5 119t-100.5 40q-82 0 -138 -81t-56 -187q0 -79 36.5 -120t97.5 -41z" />
    <glyph glyph-name="ohungarumlaut" unicode="&#x151;" horiz-adv-x="535" 
d="M146 557l117 149l148 1l-130 -150h-135zM353 557l116 149l148 1l-129 -150h-135zM235 -9q-94 0 -150.5 55.5t-56.5 154.5q0 124 73 210.5t197 86.5q96 0 152.5 -55.5t56.5 -153.5q0 -128 -69.5 -213t-202.5 -85zM246 125q48 0 78.5 46t30.5 108q0 47 -21 66t-48 19
q-47 0 -76.5 -47.5t-29.5 -107.5q0 -41 19.5 -62.5t46.5 -21.5z" />
    <glyph glyph-name="OE" unicode="&#x152;" horiz-adv-x="869" 
d="M851 567h-261l-18 -145h204l-17 -140h-204l-17 -139h279l-18 -143h-461q-131 0 -209.5 78t-78.5 213q0 177 104.5 298t272.5 121h441zM351 149h30l52 412h-20q-83 0 -139.5 -76.5t-56.5 -181.5q0 -75 37 -114.5t97 -39.5z" />
    <glyph glyph-name="oe" unicode="&#x153;" horiz-adv-x="731" 
d="M519 115q47 0 80 48l111 -66q-74 -106 -203 -106q-98 0 -149 68h-4q-60 -68 -153 -68q-83 0 -133 56t-50 151q0 127 68.5 213.5t177.5 86.5q91 0 135 -67h5q65 67 163 67q67 0 115 -33.5t48 -98.5q0 -142 -275 -205q18 -46 64 -46zM553 373q-30 0 -59 -32.5t-40 -84.5
q132 36 132 92q0 10 -8.5 17.5t-24.5 7.5zM218 125q37 0 65.5 45.5t28.5 114.5q0 41 -15 60.5t-38 19.5q-38 0 -65 -47.5t-27 -111.5q0 -44 15 -62.5t36 -18.5z" />
    <glyph glyph-name="Racute" unicode="&#x154;" horiz-adv-x="605" 
d="M253 761l115 139l151 1l-131 -140h-135zM38 0l87 710h253q102 0 151.5 -53t49.5 -143q0 -89 -37 -154t-107 -99l119 -261h-173l-97 232h-61l-28 -232h-157zM241 373h62q50 0 80 34.5t30 88.5q0 36 -21.5 54.5t-53.5 18.5h-73z" />
    <glyph glyph-name="racute" unicode="&#x155;" horiz-adv-x="353" 
d="M118 556l117 149l152 1l-129 -150h-140zM26 0l60 489h150l-9 -67h2q58 76 140 76l-21 -166q-54 20 -95.5 -19t-54.5 -125l-22 -188h-150z" />
    <glyph glyph-name="Rcommaaccent" unicode="&#x156;" horiz-adv-x="605" 
d="M38 0l87 710h253q102 0 151.5 -53t49.5 -143q0 -89 -37 -154t-107 -99l119 -261h-173l-97 232h-61l-28 -232h-157zM241 373h62q50 0 80 34.5t30 88.5q0 36 -21.5 54.5t-53.5 18.5h-73zM173 -221l-15 85q31 7 43.5 19.5t12.5 38.5q0 5 -2 25h120q2 -14 2 -23
q0 -68 -42.5 -105.5t-118.5 -39.5z" />
    <glyph glyph-name="rcommaaccent" unicode="&#x157;" horiz-adv-x="353" 
d="M26 0l60 489h150l-9 -67h2q58 76 140 76l-21 -166q-54 20 -95.5 -19t-54.5 -125l-22 -188h-150zM-8 -221l-15 85q31 7 43.5 19.5t12.5 38.5q0 5 -2 25h120q2 -14 2 -23q0 -68 -42.5 -105.5t-118.5 -39.5z" />
    <glyph glyph-name="Rcaron" unicode="&#x158;" horiz-adv-x="605" 
d="M287 761l-74 140h127l31 -63h2l47 63h124l-107 -140h-150zM38 0l87 710h253q102 0 151.5 -53t49.5 -143q0 -89 -37 -154t-107 -99l119 -261h-173l-97 232h-61l-28 -232h-157zM241 373h62q50 0 80 34.5t30 88.5q0 36 -21.5 54.5t-53.5 18.5h-73z" />
    <glyph glyph-name="rcaron" unicode="&#x159;" horiz-adv-x="353" 
d="M181 547l-71 149h126l29 -71h2l46 71h125l-107 -149h-150zM26 0l60 489h150l-9 -67h2q58 76 140 76l-21 -166q-54 20 -95.5 -19t-54.5 -125l-22 -188h-150z" />
    <glyph glyph-name="Sacute" unicode="&#x15a;" horiz-adv-x="545" 
d="M254 761l115 139l151 1l-131 -140h-135zM253 -9q-74 0 -140 31.5t-107 95.5l114 100q24 -40 60.5 -62t72.5 -22q41 0 65 19.5t24 47.5q0 22 -17.5 37t-63.5 42q-10 5 -15 8q-87 50 -116 78q-59 55 -59 133q0 99 69.5 159.5t173.5 60.5q65 0 123.5 -28t94.5 -81l-114 -95
q-47 63 -110 63q-31 0 -51 -17.5t-19 -43.5q1 -21 17.5 -39.5t59.5 -43.5q14 -8 42.5 -24t42 -24.5t35 -23t32 -27t22.5 -29.5t16.5 -37t4.5 -44q0 -110 -71 -172t-186 -62z" />
    <glyph glyph-name="sacute" unicode="&#x15b;" horiz-adv-x="420" 
d="M153 556l117 149l152 1l-129 -150h-140zM188 -9q-54 0 -107 22.5t-84 61.5l84 87q22 -26 52.5 -42t58.5 -16q45 0 45 27q0 11 -10.5 19t-48.5 27q-11 6 -17 9q-60 30 -89.5 64t-29.5 85q0 72 52 117.5t129 45.5q111 0 176 -78l-91 -86q-35 48 -84 50q-16 0 -27.5 -8
t-11.5 -22q0 -20 69 -54q66 -33 97 -65t31 -85q0 -72 -52.5 -115.5t-141.5 -43.5z" />
    <glyph glyph-name="Scircumflex" unicode="&#x15c;" horiz-adv-x="545" 
d="M165 761l108 140h150l73 -140h-126l-32 64h-1l-48 -64h-124zM253 -9q-74 0 -140 31.5t-107 95.5l114 100q24 -40 60.5 -62t72.5 -22q41 0 65 19.5t24 47.5q0 22 -17.5 37t-63.5 42q-10 5 -15 8q-87 50 -116 78q-59 55 -59 133q0 99 69.5 159.5t173.5 60.5q65 0 123.5 -28
t94.5 -81l-114 -95q-47 63 -110 63q-31 0 -51 -17.5t-19 -43.5q1 -21 17.5 -39.5t59.5 -43.5q14 -8 42.5 -24t42 -24.5t35 -23t32 -27t22.5 -29.5t16.5 -37t4.5 -44q0 -110 -71 -172t-186 -62z" />
    <glyph glyph-name="scircumflex" unicode="&#x15d;" horiz-adv-x="420" 
d="M78 555l115 152h131l84 -152h-130l-24 74h-1l-42 -74h-133zM188 -9q-54 0 -107 22.5t-84 61.5l84 87q22 -26 52.5 -42t58.5 -16q45 0 45 27q0 11 -10.5 19t-48.5 27q-11 6 -17 9q-60 30 -89.5 64t-29.5 85q0 72 52 117.5t129 45.5q111 0 176 -78l-91 -86q-35 48 -84 50
q-16 0 -27.5 -8t-11.5 -22q0 -20 69 -54q66 -33 97 -65t31 -85q0 -72 -52.5 -115.5t-141.5 -43.5z" />
    <glyph glyph-name="Scedilla" unicode="&#x15e;" horiz-adv-x="545" 
d="M315 434q14 -8 42.5 -24t42 -24.5t35 -23t32 -27t22.5 -29.5t16.5 -37t4.5 -44q0 -109 -69.5 -170.5t-182.5 -63.5l-15 -21l1 -1q75 -3 75 -66q0 -47 -34.5 -71t-94.5 -24q-33 0 -54 6l2 61q16 -6 39 -6q53 0 53 33q0 25 -65 25l1 38l21 33q-120 24 -181 120l114 100
q24 -40 60.5 -62t72.5 -22q41 0 65 19.5t24 47.5q0 22 -17.5 37t-63.5 42q-10 5 -15 8q-87 50 -116 78q-59 55 -59 133q0 99 69.5 159.5t173.5 60.5q65 0 123.5 -28t94.5 -81l-114 -95q-47 63 -110 63q-31 0 -51 -17.5t-19 -43.5q1 -21 17.5 -39.5t59.5 -43.5z" />
    <glyph glyph-name="scedilla" unicode="&#x15f;" horiz-adv-x="420" 
d="M254 300q66 -33 97 -65t31 -85q0 -72 -52.5 -115.5t-141.5 -43.5h-2l-15 -21l1 -1q75 -3 75 -66q0 -47 -34.5 -71t-94.5 -24q-33 0 -54 6l2 61q16 -6 39 -6q53 0 53 33q0 25 -65 25l1 38l23 36q-78 21 -120 74l84 87q22 -26 52.5 -42t58.5 -16q45 0 45 27q0 11 -10.5 19
t-48.5 27q-11 6 -17 9q-60 30 -89.5 64t-29.5 85q0 72 52 117.5t129 45.5q111 0 176 -78l-91 -86q-35 48 -84 50q-16 0 -27.5 -8t-11.5 -22q0 -20 69 -54z" />
    <glyph glyph-name="Scaron" unicode="&#x160;" horiz-adv-x="545" 
d="M256 761l-74 140h127l31 -63h2l47 63h124l-107 -140h-150zM253 -9q-74 0 -140 31.5t-107 95.5l114 100q24 -40 60.5 -62t72.5 -22q41 0 65 19.5t24 47.5q0 22 -17.5 37t-63.5 42q-10 5 -15 8q-87 50 -116 78q-59 55 -59 133q0 99 69.5 159.5t173.5 60.5q65 0 123.5 -28
t94.5 -81l-114 -95q-47 63 -110 63q-31 0 -51 -17.5t-19 -43.5q1 -21 17.5 -39.5t59.5 -43.5q14 -8 42.5 -24t42 -24.5t35 -23t32 -27t22.5 -29.5t16.5 -37t4.5 -44q0 -110 -71 -172t-186 -62z" />
    <glyph glyph-name="scaron" unicode="&#x161;" horiz-adv-x="420" 
d="M171 547l-71 149h126l29 -71h2l46 71h125l-107 -149h-150zM188 -9q-54 0 -107 22.5t-84 61.5l84 87q22 -26 52.5 -42t58.5 -16q45 0 45 27q0 11 -10.5 19t-48.5 27q-11 6 -17 9q-60 30 -89.5 64t-29.5 85q0 72 52 117.5t129 45.5q111 0 176 -78l-91 -86q-35 48 -84 50
q-16 0 -27.5 -8t-11.5 -22q0 -20 69 -54q66 -33 97 -65t31 -85q0 -72 -52.5 -115.5t-141.5 -43.5z" />
    <glyph glyph-name="uni0162" unicode="&#x162;" horiz-adv-x="539" 
d="M81 710h491l-18 -143h-165l-70 -567h-64l-22 -30l1 -1q75 -3 75 -66q0 -47 -34.5 -71t-94.5 -24q-33 0 -54 6l2 61q16 -6 39 -6q53 0 53 33q0 25 -65 25l1 38l22 35h-19l70 567h-166z" />
    <glyph glyph-name="uni0163" unicode="&#x163;" horiz-adv-x="342" 
d="M230 368l-24 -201q-6 -41 22 -41q19 0 49 16l24 -117q-58 -32 -123 -34l-15 -21l1 -1q75 -3 75 -66q0 -47 -34.5 -71t-94.5 -24q-33 0 -54 6l2 61q16 -6 39 -6q53 0 53 33q0 25 -65 25l1 38l24 38q-71 32 -57 144l26 221h-48l15 121h48l19 143l153 30l-21 -173h101
l-15 -121h-101z" />
    <glyph glyph-name="Tcaron" unicode="&#x164;" horiz-adv-x="539" 
d="M255 761l-74 140h127l31 -63h2l47 63h124l-107 -140h-150zM159 0l70 567h-166l18 143h491l-18 -143h-165l-70 -567h-160z" />
    <glyph glyph-name="tcaron" unicode="&#x165;" horiz-adv-x="363" 
d="M302 577l57 215h140l-92 -215h-105zM170 -9q-61 0 -94 38t-23 118l26 221h-48l15 121h48l19 143l153 30l-21 -173h101l-15 -121h-101l-24 -201q-6 -41 22 -41q19 0 49 16l24 -117q-62 -34 -131 -34z" />
    <glyph glyph-name="Tbar" unicode="&#x166;" horiz-adv-x="539" 
d="M554 567h-165l-23 -183h101l-13 -112h-101l-34 -272h-160l34 272h-98l15 112h96l23 183h-166l18 143h491z" />
    <glyph glyph-name="tbar" unicode="&#x167;" horiz-adv-x="342" 
d="M331 368h-101l-8 -63h79l-11 -90h-78l-6 -48q-6 -41 22 -41q19 0 49 16l24 -117q-62 -34 -131 -34q-61 0 -94 38t-23 118l8 68h-41l11 90h41l7 63h-48l15 121h48l19 143l153 30l-21 -173h101z" />
    <glyph glyph-name="Utilde" unicode="&#x168;" horiz-adv-x="653" 
d="M495 762q-32 0 -77 30q-26 18 -44 18q-32 0 -57 -50l-84 41q53 110 128 110q37 0 76 -26q30 -20 44 -20q34 0 58 48l84 -32q-52 -119 -128 -119zM318 -9q-139 0 -194.5 85.5t-36.5 241.5l49 392h160l-50 -405q-20 -164 85 -164q53 0 85.5 36t42.5 120l51 413h160
l-51 -417q-20 -161 -93.5 -231.5t-207.5 -70.5z" />
    <glyph glyph-name="utilde" unicode="&#x169;" horiz-adv-x="539" 
d="M421 551q-33 0 -76 30q-24 18 -44 18q-33 0 -58 -51l-84 42q50 120 129 120q8 0 15.5 -1t14.5 -3t11.5 -3.5t10.5 -5t8.5 -5t8 -5t6.5 -4.5q27 -19 42 -19q35 0 60 49l84 -34q-23 -59 -55.5 -93.5t-72.5 -34.5zM195 -9q-153 0 -125 194l42 304h149l-37 -259
q-8 -59 -1 -82t33 -23q32 0 67.5 43.5t42.5 96.5l27 224h150l-60 -489h-147l6 72h-2q-60 -81 -145 -81z" />
    <glyph glyph-name="Umacron" unicode="&#x16a;" horiz-adv-x="653" 
d="M271 784l15 110h285l-14 -110h-286zM318 -9q-139 0 -194.5 85.5t-36.5 241.5l49 392h160l-50 -405q-20 -164 85 -164q53 0 85.5 36t42.5 120l51 413h160l-51 -417q-20 -161 -93.5 -231.5t-207.5 -70.5z" />
    <glyph glyph-name="umacron" unicode="&#x16b;" horiz-adv-x="539" 
d="M200 582l15 115h285l-14 -115h-286zM195 -9q-153 0 -125 194l42 304h149l-37 -259q-8 -59 -1 -82t33 -23q32 0 67.5 43.5t42.5 96.5l27 224h150l-60 -489h-147l6 72h-2q-60 -81 -145 -81z" />
    <glyph glyph-name="Ubreve" unicode="&#x16c;" horiz-adv-x="653" 
d="M410 754q-72 0 -107 39t-30 108h107q-2 -19 8 -32t31 -13q23 0 39.5 13.5t22.5 31.5h109q-14 -66 -59 -106.5t-121 -40.5zM318 -9q-139 0 -194.5 85.5t-36.5 241.5l49 392h160l-50 -405q-20 -164 85 -164q53 0 85.5 36t42.5 120l51 413h160l-51 -417
q-20 -161 -93.5 -231.5t-207.5 -70.5z" />
    <glyph glyph-name="ubreve" unicode="&#x16d;" horiz-adv-x="539" 
d="M335 540q-69 0 -105 41t-32 115h108q-2 -21 8 -34.5t31 -13.5q22 0 39 14t23 34h108q-13 -71 -60 -113.5t-120 -42.5zM195 -9q-153 0 -125 194l42 304h149l-37 -259q-8 -59 -1 -82t33 -23q32 0 67.5 43.5t42.5 96.5l27 224h150l-60 -489h-147l6 72h-2q-60 -81 -145 -81z
" />
    <glyph glyph-name="Uring" unicode="&#x16e;" horiz-adv-x="653" 
d="M415 747q-45 0 -75 30.5t-30 74.5q0 45 31 75.5t77 30.5q45 0 74.5 -29.5t29.5 -73.5q0 -46 -30.5 -77t-76.5 -31zM417 817q15 0 25.5 10.5t10.5 26.5q0 14 -10.5 24.5t-24.5 10.5q-16 0 -27 -10.5t-11 -25.5q0 -16 10.5 -26t26.5 -10zM318 -9q-139 0 -194.5 85.5
t-36.5 241.5l49 392h160l-50 -405q-20 -164 85 -164q53 0 85.5 36t42.5 120l51 413h160l-51 -417q-20 -161 -93.5 -231.5t-207.5 -70.5z" />
    <glyph glyph-name="uring" unicode="&#x16f;" horiz-adv-x="539" 
d="M350 538q-45 0 -75 30.5t-30 74.5q0 45 31 75.5t77 30.5q45 0 74.5 -29.5t29.5 -73.5q0 -46 -30.5 -77t-76.5 -31zM352 608q15 0 25.5 10.5t10.5 26.5q0 14 -10.5 24.5t-24.5 10.5q-16 0 -27 -10.5t-11 -25.5q0 -16 10.5 -26t26.5 -10zM195 -9q-153 0 -125 194l42 304
h149l-37 -259q-8 -59 -1 -82t33 -23q32 0 67.5 43.5t42.5 96.5l27 224h150l-60 -489h-147l6 72h-2q-60 -81 -145 -81z" />
    <glyph glyph-name="Uhungarumlaut" unicode="&#x170;" horiz-adv-x="653" 
d="M228 759l117 149l148 1l-130 -150h-135zM435 759l116 149l148 1l-129 -150h-135zM318 -9q-139 0 -194.5 85.5t-36.5 241.5l49 392h160l-50 -405q-20 -164 85 -164q53 0 85.5 36t42.5 120l51 413h160l-51 -417q-20 -161 -93.5 -231.5t-207.5 -70.5z" />
    <glyph glyph-name="uhungarumlaut" unicode="&#x171;" horiz-adv-x="539" 
d="M171 557l117 149l148 1l-130 -150h-135zM378 557l116 149l148 1l-129 -150h-135zM195 -9q-153 0 -125 194l42 304h149l-37 -259q-8 -59 -1 -82t33 -23q32 0 67.5 43.5t42.5 96.5l27 224h150l-60 -489h-147l6 72h-2q-60 -81 -145 -81z" />
    <glyph glyph-name="Uogonek" unicode="&#x172;" horiz-adv-x="653" 
d="M528 710h160l-51 -417q-29 -238 -189 -287h1q-43 -13 -73 -38.5t-30 -53.5q0 -24 24 -24q17 0 34 7l2 -77q-29 -11 -74 -11q-98 0 -98 79q0 55 56 102l-1 4q-221 29 -184 324l49 392h160l-50 -405q-20 -164 85 -164q53 0 85.5 36t42.5 120z" />
    <glyph glyph-name="uogonek" unicode="&#x173;" horiz-adv-x="539" 
d="M393 489h150l-60 -489h-10q-39 -3 -68 -29.5t-29 -56.5q0 -24 25 -24q21 0 33 7l2 -77q-27 -11 -74 -11q-97 0 -97 79q0 32 20 64.5t52 54.5l5 65h-2q-60 -81 -145 -81q-153 0 -125 194l42 304h149l-37 -259q-8 -59 -1 -82t33 -23q32 0 67.5 43.5t42.5 96.5z" />
    <glyph glyph-name="Wcircumflex" unicode="&#x174;" horiz-adv-x="932" 
d="M360 761l108 140h150l73 -140h-126l-32 64h-1l-48 -64h-124zM186 0l-112 710h166l52 -447h3l150 447h162l39 -435h3l154 435h171l-287 -710h-146l-48 459h-2l-163 -459h-142z" />
    <glyph glyph-name="wcircumflex" unicode="&#x175;" horiz-adv-x="759" 
d="M266 555l115 152h131l84 -152h-130l-24 74h-1l-42 -74h-133zM177 -9q-76 0 -109 55t-21 147l42 296h148l-36 -261q-14 -103 30 -103q27 0 56.5 38t39.5 118l26 208h145l-33 -267q-7 -53 0 -75t28 -22q30 0 61.5 45.5t44.5 147.5q11 81 0 171h151q17 -97 0 -201
q-22 -155 -99 -226t-183 -71q-110 0 -134 89h-2q-25 -42 -68 -65.5t-87 -23.5z" />
    <glyph glyph-name="Ycircumflex" unicode="&#x176;" horiz-adv-x="581" 
d="M188 761l108 140h150l73 -140h-126l-32 64h-1l-48 -64h-124zM179 0l39 310l-159 400h176l79 -250h3l138 250h183l-259 -400l-38 -310h-162z" />
    <glyph glyph-name="ycircumflex" unicode="&#x177;" horiz-adv-x="534" 
d="M310 629l-42 -74h-133l115 152h131l84 -152h-130l-24 74h-1zM363 489h149l-52 -423q-32 -273 -276 -273q-99 0 -177 48l47 113q58 -38 122 -38q57 0 89.5 31.5t45.5 121.5v1l-3 1q-59 -80 -145 -80q-153 0 -125 194l42 304h149l-36 -259q-8 -59 -1.5 -82t33.5 -23
q33 0 68.5 44.5t41.5 96.5z" />
    <glyph glyph-name="Ydieresis" unicode="&#x178;" horiz-adv-x="581" 
d="M252 757q-39 0 -64.5 24.5t-25.5 61.5q0 38 26 63t67 25q40 0 65 -24t25 -61q0 -39 -26 -64t-67 -25zM469 757q-39 0 -64.5 24.5t-25.5 61.5q0 39 26 63.5t68 24.5q39 0 64 -24t25 -61q0 -39 -26 -64t-67 -25zM179 0l39 310l-159 400h176l79 -250h3l138 250h183
l-259 -400l-38 -310h-162z" />
    <glyph glyph-name="Zacute" unicode="&#x179;" horiz-adv-x="570" 
d="M245 761l115 139l151 1l-131 -140h-135zM13 0l15 125l335 439l-2 3h-269l17 143h474l-14 -122l-342 -441l2 -4h284l-17 -143h-483z" />
    <glyph glyph-name="zacute" unicode="&#x17a;" horiz-adv-x="447" 
d="M159 557l117 149l152 1l-129 -150h-140zM367 -28q-117 28 -366 28l11 100l217 267v3h-165l14 119h365l-11 -100l-222 -267v-2q111 -5 192 -30z" />
    <glyph glyph-name="Zdotaccent" unicode="&#x17b;" horiz-adv-x="570" 
d="M360 757q-39 0 -64.5 24.5t-25.5 61.5q0 38 26 63t67 25q40 0 65 -24t25 -61q0 -39 -26 -64t-67 -25zM13 0l15 125l335 439l-2 3h-269l17 143h474l-14 -122l-342 -441l2 -4h284l-17 -143h-483z" />
    <glyph glyph-name="zdotaccent" unicode="&#x17c;" horiz-adv-x="447" 
d="M273 552q-39 0 -64.5 24.5t-25.5 61.5q0 38 26 63t67 25q40 0 65 -24t25 -61q0 -39 -26 -64t-67 -25zM367 -28q-117 28 -366 28l11 100l217 267v3h-165l14 119h365l-11 -100l-222 -267v-2q111 -5 192 -30z" />
    <glyph glyph-name="Zcaron" unicode="&#x17d;" horiz-adv-x="570" 
d="M279 761l-74 140h127l31 -63h2l47 63h124l-107 -140h-150zM13 0l15 125l335 439l-2 3h-269l17 143h474l-14 -122l-342 -441l2 -4h284l-17 -143h-483z" />
    <glyph glyph-name="zcaron" unicode="&#x17e;" horiz-adv-x="447" 
d="M192 547l-71 149h126l29 -71h2l46 71h125l-107 -149h-150zM367 -28q-117 28 -366 28l11 100l217 267v3h-165l14 119h365l-11 -100l-222 -267v-2q111 -5 192 -30z" />
    <glyph glyph-name="longs" unicode="&#x17f;" horiz-adv-x="326" 
d="M33 0l45 368h-41l15 121h41l10 82q21 174 168 174q69 0 116 -37l-37 -110q-26 18 -51 18q-21 0 -32 -15.5t-17 -61.5l-66 -539h-151z" />
    <glyph glyph-name="uni018F" unicode="&#x18f;" horiz-adv-x="704" 
d="M391 719q133 0 212 -79.5t79 -219.5q0 -181 -98.5 -305t-261.5 -124q-131 0 -207 79t-76 219q0 50 17 112h463v10q0 77 -39 118.5t-101 41.5q-77 0 -141 -59l-95 119q49 40 115.5 64t132.5 24zM330 134q117 0 163 131h-297q1 -63 39 -97t95 -34z" />
    <glyph glyph-name="florin" unicode="&#x192;" horiz-adv-x="485" 
d="M40 -165q-58 0 -93.5 15t-46.5 31l59 96q31 -12 57 -12q31 0 50 19.5t29 65.5l70 297h-69l32 123h69l24 102q41 173 192 173q57 0 93 -15t48 -30l-60 -97q-32 12 -58 12q-53 0 -72 -85l-12 -60h108l-33 -123h-109l-79 -339q-21 -87 -69.5 -130t-129.5 -43z" />
    <glyph glyph-name="uni019D" unicode="&#x19d;" horiz-adv-x="683" 
d="M1 -205q-42 0 -71 7l22 122q17 -3 28 -3q29 0 41 18.5t18 67.5l86 703h150l182 -440l3 1l57 439h156l-91 -710h-155l-177 429h-3l-55 -439q-14 -113 -61 -154t-130 -41z" />
    <glyph glyph-name="Ohorn" unicode="&#x1a0;" horiz-adv-x="796" 
d="M720 774h122l-10 -86q-20 -156 -126 -176q10 -47 10 -92q0 -118 -43.5 -214.5t-130.5 -155.5t-203 -59q-132 0 -210.5 79.5t-78.5 221.5q0 114 45.5 210.5t132.5 156.5t198 60q85 0 150 -34.5t101 -99.5q22 18 33 111zM351 141q86 0 142 78t56 192q0 79 -37.5 119
t-100.5 40q-82 0 -138 -81t-56 -187q0 -79 36.5 -120t97.5 -41z" />
    <glyph glyph-name="ohorn" unicode="&#x1a1;" horiz-adv-x="633" 
d="M538 565h122l-10 -86q-11 -85 -48.5 -129.5t-94.5 -49.5v-11q0 -128 -69.5 -213t-202.5 -85q-94 0 -150.5 55.5t-56.5 154.5q0 124 73 210.5t197 86.5q72 0 123 -32t72 -91q24 16 35 112zM246 125q48 0 78.5 46t30.5 108q0 47 -21 66t-48 19q-47 0 -76.5 -47.5
t-29.5 -107.5q0 -41 19.5 -62.5t46.5 -21.5z" />
    <glyph glyph-name="Uhorn" unicode="&#x1af;" horiz-adv-x="770" 
d="M731 774h122l-10 -86q-12 -90 -53 -134.5t-103 -44.5q-19 0 -41 5l-27 -221q-20 -161 -93.5 -231.5t-207.5 -70.5q-139 0 -194.5 85.5t-36.5 241.5l49 392h160l-50 -405q-20 -164 85 -164q53 0 85.5 36t42.5 120l51 413h160l-16 -130q10 -2 13 -2q14 0 23.5 8.5t15 27
t8.5 35.5t7 47z" />
    <glyph glyph-name="uhorn" unicode="&#x1b0;" horiz-adv-x="661" 
d="M602 565h122l-10 -86q-12 -90 -53 -134.5t-103 -44.5q-21 0 -38 4l-37 -304h-147l6 72h-2q-60 -81 -145 -81q-153 0 -125 194l42 304h149l-37 -259q-8 -59 -1 -82t33 -23q32 0 67.5 43.5t42.5 96.5l27 224h150l-15 -119q4 -1 10 -1q14 0 23.5 8.5t15 27t8.5 35.5t7 47z
" />
    <glyph glyph-name="uni01CD" unicode="&#x1cd;" horiz-adv-x="635" 
d="M311 761l-74 140h127l31 -63h2l47 63h124l-107 -140h-150zM-23 0l320 710h154l146 -710h-166l-22 131h-213l-51 -131h-168zM247 266h141l-42 249h-2z" />
    <glyph glyph-name="uni01CE" unicode="&#x1ce;" horiz-adv-x="553" 
d="M247 547l-71 149h126l29 -71h2l46 71h125l-107 -149h-150zM186 -9q-76 0 -117.5 56t-41.5 144q0 130 67 218.5t164 88.5q74 0 115 -43h3l4 34h151l-60 -489h-151l9 72l-3 1q-57 -82 -140 -82zM234 124q42 0 79.5 51.5t49.5 139.5l2 14q-33 35 -81 35q-47 0 -76.5 -51
t-29.5 -111q0 -35 15.5 -56.5t40.5 -21.5z" />
    <glyph glyph-name="uni01CF" unicode="&#x1cf;" horiz-adv-x="308" 
d="M141 760l-74 140h127l31 -63h2l47 63h124l-107 -140h-150zM43 0l87 710h162l-87 -710h-162z" />
    <glyph glyph-name="uni01D0" unicode="&#x1d0;" horiz-adv-x="268" 
d="M101 547l-71 149h126l29 -71h2l46 71h125l-107 -149h-150zM29 0l60 489h150l-60 -489h-150z" />
    <glyph glyph-name="uni01D1" unicode="&#x1d1;" horiz-adv-x="739" 
d="M386 761l-74 140h127l31 -63h2l47 63h124l-107 -140h-150zM339 -9q-132 0 -210.5 79.5t-78.5 221.5q0 114 45.5 210.5t132.5 156.5t198 60q132 0 211 -79.5t79 -219.5q0 -118 -43.5 -214.5t-130.5 -155.5t-203 -59zM351 141q86 0 142 78t56 192q0 79 -37.5 119t-100.5 40
q-82 0 -138 -81t-56 -187q0 -79 36.5 -120t97.5 -41z" />
    <glyph glyph-name="uni01D2" unicode="&#x1d2;" horiz-adv-x="535" 
d="M240 547l-71 149h126l29 -71h2l46 71h125l-107 -149h-150zM235 -9q-94 0 -150.5 55.5t-56.5 154.5q0 124 73 210.5t197 86.5q96 0 152.5 -55.5t56.5 -153.5q0 -128 -69.5 -213t-202.5 -85zM246 125q48 0 78.5 46t30.5 108q0 47 -21 66t-48 19q-47 0 -76.5 -47.5
t-29.5 -107.5q0 -41 19.5 -62.5t46.5 -21.5z" />
    <glyph glyph-name="uni01D3" unicode="&#x1d3;" horiz-adv-x="653" 
d="M337 761l-74 140h127l31 -63h2l47 63h124l-107 -140h-150zM318 -9q-139 0 -194.5 85.5t-36.5 241.5l49 392h160l-50 -405q-20 -164 85 -164q53 0 85.5 36t42.5 120l51 413h160l-51 -417q-20 -161 -93.5 -231.5t-207.5 -70.5z" />
    <glyph glyph-name="uni01D4" unicode="&#x1d4;" horiz-adv-x="539" 
d="M265 547l-71 149h126l29 -71h2l46 71h125l-107 -149h-150zM195 -9q-153 0 -125 194l42 304h149l-37 -259q-8 -59 -1 -82t33 -23q32 0 67.5 43.5t42.5 96.5l27 224h150l-60 -489h-147l6 72h-2q-60 -81 -145 -81z" />
    <glyph glyph-name="uni01D5" unicode="&#x1d5;" horiz-adv-x="653" 
d="M284 932l10 80h285l-10 -80h-285zM309 757q-33 0 -54 20t-21 50q0 32 22 52.5t56 20.5q33 0 54 -20t21 -50q0 -32 -22 -52.5t-56 -20.5zM521 757q-33 0 -54 20t-21 50q0 32 22 52.5t56 20.5q33 0 54 -20t21 -50q0 -32 -22 -52.5t-56 -20.5zM318 -9q-139 0 -194.5 85.5
t-36.5 241.5l49 392h160l-50 -405q-20 -164 85 -164q53 0 85.5 36t42.5 120l51 413h160l-51 -417q-20 -161 -93.5 -231.5t-207.5 -70.5z" />
    <glyph glyph-name="uni01D6" unicode="&#x1d6;" horiz-adv-x="539" 
d="M211 744l11 86h285l-11 -86h-285zM242 547q-35 0 -58.5 22.5t-23.5 56.5t23.5 56.5t59.5 22.5t59.5 -22t23.5 -56q0 -35 -23.5 -57.5t-60.5 -22.5zM441 547q-36 0 -59 22.5t-23 56.5t23.5 56.5t59.5 22.5t59.5 -22t23.5 -56t-24 -57t-60 -23zM195 -9q-153 0 -125 194
l42 304h149l-37 -259q-8 -59 -1 -82t33 -23q32 0 67.5 43.5t42.5 96.5l27 224h150l-60 -489h-147l6 72h-2q-60 -81 -145 -81z" />
    <glyph glyph-name="uni01D7" unicode="&#x1d7;" horiz-adv-x="653" 
d="M372 909l101 133l143 1l-151 -134h-93zM309 757q-33 0 -54 20t-21 50q0 32 22 52.5t56 20.5q33 0 54 -20t21 -50q0 -32 -22 -52.5t-56 -20.5zM521 757q-33 0 -54 20t-21 50q0 32 22 52.5t56 20.5q33 0 54 -20t21 -50q0 -32 -22 -52.5t-56 -20.5zM318 -9
q-139 0 -194.5 85.5t-36.5 241.5l49 392h160l-50 -405q-20 -164 85 -164q53 0 85.5 36t42.5 120l51 413h160l-51 -417q-20 -161 -93.5 -231.5t-207.5 -70.5z" />
    <glyph glyph-name="uni01D8" unicode="&#x1d8;" horiz-adv-x="539" 
d="M295 723l111 137l144 1l-144 -138h-111zM242 547q-35 0 -58.5 22.5t-23.5 56.5t23.5 56.5t59.5 22.5t59.5 -22t23.5 -56q0 -35 -23.5 -57.5t-60.5 -22.5zM441 547q-36 0 -59 22.5t-23 56.5t23.5 56.5t59.5 22.5t59.5 -22t23.5 -56t-24 -57t-60 -23zM195 -9
q-153 0 -125 194l42 304h149l-37 -259q-8 -59 -1 -82t33 -23q32 0 67.5 43.5t42.5 96.5l27 224h150l-60 -489h-147l6 72h-2q-60 -81 -145 -81z" />
    <glyph glyph-name="uni01D9" unicode="&#x1d9;" horiz-adv-x="653" 
d="M345 916l-74 126h127l31 -57h2l47 57h124l-107 -126h-150zM309 757q-33 0 -54 20t-21 50q0 32 22 52.5t56 20.5q33 0 54 -20t21 -50q0 -32 -22 -52.5t-56 -20.5zM521 757q-33 0 -54 20t-21 50q0 32 22 52.5t56 20.5q33 0 54 -20t21 -50q0 -32 -22 -52.5t-56 -20.5z
M318 -9q-139 0 -194.5 85.5t-36.5 241.5l49 392h160l-50 -405q-20 -164 85 -164q53 0 85.5 36t42.5 120l51 413h160l-51 -417q-20 -161 -93.5 -231.5t-207.5 -70.5z" />
    <glyph glyph-name="uni01DA" unicode="&#x1da;" horiz-adv-x="539" 
d="M277 719l-71 139h126l29 -66h2l46 66h125l-107 -139h-150zM242 547q-35 0 -58.5 22.5t-23.5 56.5t23.5 56.5t59.5 22.5t59.5 -22t23.5 -56q0 -35 -23.5 -57.5t-60.5 -22.5zM441 547q-36 0 -59 22.5t-23 56.5t23.5 56.5t59.5 22.5t59.5 -22t23.5 -56t-24 -57t-60 -23z
M195 -9q-153 0 -125 194l42 304h149l-37 -259q-8 -59 -1 -82t33 -23q32 0 67.5 43.5t42.5 96.5l27 224h150l-60 -489h-147l6 72h-2q-60 -81 -145 -81z" />
    <glyph glyph-name="uni01DB" unicode="&#x1db;" horiz-adv-x="653" 
d="M374 909l-116 132h119l77 -132h-80zM309 757q-33 0 -54 20t-21 50q0 32 22 52.5t56 20.5q33 0 54 -20t21 -50q0 -32 -22 -52.5t-56 -20.5zM521 757q-33 0 -54 20t-21 50q0 32 22 52.5t56 20.5q33 0 54 -20t21 -50q0 -32 -22 -52.5t-56 -20.5zM318 -9q-139 0 -194.5 85.5
t-36.5 241.5l49 392h160l-50 -405q-20 -164 85 -164q53 0 85.5 36t42.5 120l51 413h160l-51 -417q-20 -161 -93.5 -231.5t-207.5 -70.5z" />
    <glyph glyph-name="uni01DC" unicode="&#x1dc;" horiz-adv-x="539" 
d="M293 724l-99 137l138 -1l67 -136h-106zM242 547q-35 0 -58.5 22.5t-23.5 56.5t23.5 56.5t59.5 22.5t59.5 -22t23.5 -56q0 -35 -23.5 -57.5t-60.5 -22.5zM441 547q-36 0 -59 22.5t-23 56.5t23.5 56.5t59.5 22.5t59.5 -22t23.5 -56t-24 -57t-60 -23zM195 -9
q-153 0 -125 194l42 304h149l-37 -259q-8 -59 -1 -82t33 -23q32 0 67.5 43.5t42.5 96.5l27 224h150l-60 -489h-147l6 72h-2q-60 -81 -145 -81z" />
    <glyph glyph-name="Gcaron" unicode="&#x1e6;" horiz-adv-x="680" 
d="M359 760l-74 140h127l31 -63h2l47 63h124l-107 -140h-150zM341 -9q-129 0 -210 76t-81 221q0 182 104.5 306.5t269.5 124.5q76 0 141 -33t102 -95l-124 -94q-47 72 -128 72q-86 0 -141.5 -81.5t-55.5 -190.5q0 -77 35.5 -117.5t98.5 -40.5q57 0 110 34l13 88h-118l17 134
h271l-37 -318q-49 -38 -121 -62t-146 -24z" />
    <glyph glyph-name="gcaron" unicode="&#x1e7;" horiz-adv-x="551" 
d="M398 547h-150l-71 149h126l29 -71h2l46 71h125zM378 489h150l-52 -426q-33 -270 -284 -270q-100 0 -178 48l47 117q62 -38 125 -38q62 0 96 34t47 133l-3 1q-58 -82 -139 -82q-76 0 -117.5 54.5t-41.5 135.5q0 127 67 214.5t163 87.5q75 0 114 -41l3 1zM361 315l2 16
q-33 33 -79 33t-75.5 -49.5t-29.5 -103.5q0 -35 14.5 -53.5t40.5 -18.5q41 0 78 49t49 127z" />
    <glyph glyph-name="uni01EA" unicode="&#x1ea;" horiz-adv-x="739" 
d="M393 -6q-30 -10 -50 -33t-20 -47t25 -24q21 0 33 7l2 -77q-27 -11 -74 -11q-97 0 -97 79q0 58 56 107l-1 3q-101 21 -159 97.5t-58 196.5q0 114 45.5 210.5t132.5 156.5t198 60q132 0 211 -79.5t79 -219.5q0 -167 -86.5 -286.5t-236.5 -139.5zM217 302q0 -79 36.5 -120
t97.5 -41q86 0 142 78t56 192q0 79 -37.5 119t-100.5 40q-82 0 -138 -81t-56 -187z" />
    <glyph glyph-name="uni01EB" unicode="&#x1eb;" horiz-adv-x="535" 
d="M280 -6q-29 -11 -48.5 -33.5t-19.5 -46.5t25 -24q21 0 33 7l2 -77q-27 -11 -74 -11q-97 0 -97 79q0 63 61 110l-1 3q-63 19 -98 70.5t-35 129.5q0 124 73 210.5t197 86.5q96 0 152.5 -55.5t56.5 -153.5q0 -116 -57.5 -198t-169.5 -97zM286 364q-47 0 -76.5 -47.5
t-29.5 -107.5q0 -41 19.5 -62.5t46.5 -21.5q48 0 78.5 46t30.5 108q0 47 -21 66t-48 19z" />
    <glyph glyph-name="Aringacute" unicode="&#x1fa;" horiz-adv-x="635" 
d="M389 747q-45 0 -75 30.5t-30 74.5q0 45 31 75.5t77 30.5q40 0 69 -24l61 47h146l-172 -130q-2 -44 -32 -74t-75 -30zM392 889q-16 0 -27 -10.5t-11 -25.5q0 -16 10.5 -26t26.5 -10q15 0 25.5 10.5t10.5 26.5q0 14 -10.5 24.5t-24.5 10.5zM297 710h154l146 -710h-166
l-22 131h-213l-51 -131h-168zM247 266h141l-42 249h-2z" />
    <glyph glyph-name="aringacute" unicode="&#x1fb;" horiz-adv-x="553" 
d="M332 538q-45 0 -75 30.5t-30 74.5q0 45 31 75.5t77 30.5q39 0 68 -24l60 46h152l-176 -135q-4 -42 -34 -70t-73 -28zM335 680q-16 0 -27 -10.5t-11 -25.5q0 -16 10.5 -26t26.5 -10q15 0 25.5 10.5t10.5 26.5q0 14 -10.5 24.5t-24.5 10.5zM376 455l4 34h151l-60 -489h-151
l9 72l-3 1q-57 -82 -140 -82q-76 0 -117.5 56t-41.5 144q0 130 67 218.5t164 88.5q74 0 115 -43h3zM363 315l2 14q-33 35 -81 35q-47 0 -76.5 -51t-29.5 -111q0 -35 15.5 -56.5t40.5 -21.5q42 0 79.5 51.5t49.5 139.5z" />
    <glyph glyph-name="AEacute" unicode="&#x1fc;" horiz-adv-x="866" 
d="M396 761l115 139l151 1l-131 -140h-135zM-30 0l390 710h505l-18 -143h-267l-18 -145h215l-18 -139h-214l-17 -140h286l-18 -143h-441l17 131h-162l-69 -131h-171zM280 267h109l32 264h-2z" />
    <glyph glyph-name="aeacute" unicode="&#x1fd;" horiz-adv-x="688" 
d="M607 707l-129 -150h-140l117 149zM476 115q45 0 79 48l111 -66q-73 -106 -197 -106q-120 0 -160 87q-51 -88 -140 -88q-69 0 -112 49.5t-42 134.5q1 137 73 227t195 90q69 0 118 -25q54 32 122 32q67 0 115 -35t48 -100q0 -78 -80.5 -127t-202.5 -61q6 -30 27 -45t46 -15
zM510 373q-31 0 -60 -30t-42 -78q134 21 134 83q0 25 -32 25zM200 118q49 0 84 162q11 51 31 89h-10q-61 0 -100.5 -55t-39.5 -134q0 -29 10 -45.5t25 -16.5z" />
    <glyph glyph-name="Oslashacute" unicode="&#x1fe;" horiz-adv-x="741" 
d="M627 900l-131 -140h-135l115 139zM746 679l-75 -80q47 -74 47 -179q0 -118 -43.5 -214.5t-130.5 -155.5t-203 -59q-114 0 -188 59l-79 -84l-62 62l83 88q-43 72 -43 176q0 114 45.5 210.5t132.5 156.5t198 60t184 -56l72 76zM219 302q0 -25 5 -50l275 291q-35 27 -86 27
q-82 0 -138 -81t-56 -187zM551 411q0 31 -6 55l-278 -295q35 -30 86 -30q86 0 142 78t56 192z" />
    <glyph glyph-name="oslashacute" unicode="&#x1ff;" horiz-adv-x="536" 
d="M511 706l-129 -150h-140l117 149zM525 464l-50 -52q32 -50 32 -123q0 -128 -69.5 -213t-202.5 -85q-74 0 -126 35l-48 -50l-46 46l48 50q-35 52 -35 129q0 124 73 210.5t197 86.5q82 0 133 -39l48 50zM180 209q0 -9 1 -13l147 154q-18 14 -42 14q-47 0 -76.5 -47.5
t-29.5 -107.5zM355 279v6l-143 -150q16 -10 34 -10q48 0 78.5 46t30.5 108z" />
    <glyph glyph-name="Scommaaccent" unicode="&#x218;" horiz-adv-x="545" 
d="M253 -9q-74 0 -140 31.5t-107 95.5l114 100q24 -40 60.5 -62t72.5 -22q41 0 65 19.5t24 47.5q0 22 -17.5 37t-63.5 42q-10 5 -15 8q-87 50 -116 78q-59 55 -59 133q0 99 69.5 159.5t173.5 60.5q65 0 123.5 -28t94.5 -81l-114 -95q-47 63 -110 63q-31 0 -51 -17.5
t-19 -43.5q1 -21 17.5 -39.5t59.5 -43.5q14 -8 42.5 -24t42 -24.5t35 -23t32 -27t22.5 -29.5t16.5 -37t4.5 -44q0 -110 -71 -172t-186 -62zM139 -221l-15 85q31 7 43.5 19.5t12.5 38.5q0 5 -2 25h120q2 -14 2 -23q0 -68 -42.5 -105.5t-118.5 -39.5z" />
    <glyph glyph-name="scommaaccent" unicode="&#x219;" horiz-adv-x="420" 
d="M188 -9q-54 0 -107 22.5t-84 61.5l84 87q22 -26 52.5 -42t58.5 -16q45 0 45 27q0 11 -10.5 19t-48.5 27q-11 6 -17 9q-60 30 -89.5 64t-29.5 85q0 72 52 117.5t129 45.5q111 0 176 -78l-91 -86q-35 48 -84 50q-16 0 -27.5 -8t-11.5 -22q0 -20 69 -54q66 -33 97 -65
t31 -85q0 -72 -52.5 -115.5t-141.5 -43.5zM67 -221l-15 85q31 7 43.5 19.5t12.5 38.5q0 5 -2 25h120q2 -14 2 -23q0 -68 -42.5 -105.5t-118.5 -39.5z" />
    <glyph glyph-name="uni021A" unicode="&#x21a;" horiz-adv-x="539" 
d="M159 0l70 567h-166l18 143h491l-18 -143h-165l-70 -567h-160zM129 -221l-15 85q31 7 43.5 19.5t12.5 38.5q0 5 -2 25h120q2 -14 2 -23q0 -68 -42.5 -105.5t-118.5 -39.5z" />
    <glyph glyph-name="uni021B" unicode="&#x21b;" horiz-adv-x="342" 
d="M170 -9q-61 0 -94 38t-23 118l26 221h-48l15 121h48l19 143l153 30l-21 -173h101l-15 -121h-101l-24 -201q-6 -41 22 -41q19 0 49 16l24 -117q-62 -34 -131 -34zM59 -221l-15 85q31 7 43.5 19.5t12.5 38.5q0 5 -2 25h120q2 -14 2 -23q0 -68 -42.5 -105.5t-118.5 -39.5z
" />
    <glyph glyph-name="uni0232" unicode="&#x232;" horiz-adv-x="581" 
d="M213 784l15 110h285l-14 -110h-286zM179 0l39 310l-159 400h176l79 -250h3l138 250h183l-259 -400l-38 -310h-162z" />
    <glyph glyph-name="uni0233" unicode="&#x233;" horiz-adv-x="534" 
d="M463 697l-14 -115h-286l15 115h285zM363 489h149l-52 -423q-32 -273 -276 -273q-99 0 -177 48l47 113q58 -38 122 -38q57 0 89.5 31.5t45.5 121.5v1l-3 1q-59 -80 -145 -80q-153 0 -125 194l42 304h149l-36 -259q-8 -59 -1.5 -82t33.5 -23q33 0 68.5 44.5t41.5 96.5z" />
    <glyph glyph-name="uni0237" unicode="&#x237;" horiz-adv-x="251" 
d="M-3 -206q-59 0 -103 23l37 115q14 -12 38 -12q22 0 32 18.5t15 65.5l60 485h151l-63 -506q-22 -189 -167 -189z" />
    <glyph glyph-name="uni0251" unicode="&#x251;" horiz-adv-x="553" 
d="M186 -9q-76 0 -117.5 56t-41.5 144q0 130 67 218.5t164 88.5q74 0 115 -43h3l4 34h151l-60 -489h-151l9 72l-3 1q-57 -82 -140 -82zM234 124q42 0 79.5 51.5t49.5 139.5l2 14q-33 35 -81 35q-47 0 -76.5 -51t-29.5 -111q0 -35 15.5 -56.5t40.5 -21.5z" />
    <glyph glyph-name="uni0259" unicode="&#x259;" horiz-adv-x="468" 
d="M239 498q96 0 151.5 -56t55.5 -154q0 -128 -72 -212.5t-200 -84.5q-70 0 -117 36t-47 101q0 58 42.5 100t104.5 63t142 30q-13 54 -73 54q-45 0 -92 -40l-79 96q33 29 83.5 48t100.5 19zM190 116q40 0 67.5 30t39.5 81q-143 -22 -143 -82q0 -29 36 -29z" />
    <glyph glyph-name="uni0261" unicode="&#x261;" horiz-adv-x="551" 
d="M378 489h150l-52 -426q-33 -270 -284 -270q-100 0 -178 48l47 117q62 -38 125 -38q62 0 96 34t47 133l-3 1q-58 -82 -139 -82q-76 0 -117.5 54.5t-41.5 135.5q0 127 67 214.5t163 87.5q75 0 114 -41l3 1zM361 315l2 16q-33 33 -79 33t-75.5 -49.5t-29.5 -103.5
q0 -35 14.5 -53.5t40.5 -18.5q41 0 78 49t49 127z" />
    <glyph glyph-name="uni0272" unicode="&#x272;" horiz-adv-x="547" 
d="M391 498q70 0 98 -48.5t15 -150.5l-39 -299h-149l35 265q7 51 0.5 75t-29.5 24q-37 0 -74 -46.5t-50 -126.5l-23 -191q-14 -109 -58.5 -157t-134.5 -48q-39 0 -72 8l26 114q12 -3 23 -3q33 0 47 26t22 86l57 463h150l-8 -68l2 -1q67 78 162 78z" />
    <glyph glyph-name="uni02BB" unicode="&#x2bb;" horiz-adv-x="232" 
d="M73 410l52 269h105l-16 -269h-141z" />
    <glyph glyph-name="uni02BC" unicode="&#x2bc;" horiz-adv-x="228" 
d="M67 483l56 224h143l-94 -224h-105z" />
    <glyph glyph-name="uni02BE" unicode="&#x2be;" horiz-adv-x="236" 
d="M95 769q77 0 121 -40t44 -110q0 -88 -54 -141t-144 -53l-3 102q36 1 57.5 25t21.5 60q0 51 -60 54z" />
    <glyph glyph-name="uni02BF" unicode="&#x2bf;" horiz-adv-x="256" 
d="M248 425q-77 0 -121 40t-44 110q0 88 54 141t144 53l3 -102q-36 -1 -57.5 -25t-21.5 -60q0 -51 60 -54z" />
    <glyph glyph-name="circumflex" unicode="&#x2c6;" horiz-adv-x="407" 
d="M72 531l115 152h131l84 -152h-130l-24 74h-1l-42 -74h-133z" />
    <glyph glyph-name="caron" unicode="&#x2c7;" horiz-adv-x="406" 
d="M164 523l-71 149h126l29 -71h2l46 71h125l-107 -149h-150z" />
    <glyph glyph-name="uni02C8" unicode="&#x2c8;" horiz-adv-x="201" 
d="M65 370l32 285h103l-34 -284z" />
    <glyph glyph-name="uni02C9" unicode="&#x2c9;" horiz-adv-x="329" 
d="M63 582l15 115h285l-14 -115h-286z" />
    <glyph glyph-name="uni02CA" unicode="&#x2ca;" horiz-adv-x="300" 
d="M69 557l117 149l152 1l-129 -150h-140z" />
    <glyph glyph-name="uni02CB" unicode="&#x2cb;" horiz-adv-x="295" 
d="M170 557l-93 150l150 -1l80 -149h-137z" />
    <glyph glyph-name="uni02CC" unicode="&#x2cc;" horiz-adv-x="201" 
d="M-1 -192l32 285h103l-34 -284z" />
    <glyph glyph-name="breve" unicode="&#x2d8;" horiz-adv-x="409" 
d="M240 516q-69 0 -105 41t-32 115h108q-2 -21 8 -34.5t31 -13.5q22 0 39 14t23 34h108q-13 -71 -60 -113.5t-120 -42.5z" />
    <glyph glyph-name="dotaccent" unicode="&#x2d9;" horiz-adv-x="463" 
d="M272 528q-39 0 -64.5 24.5t-25.5 61.5q0 38 26 63t67 25q40 0 65 -24t25 -61q0 -39 -26 -64t-67 -25z" />
    <glyph glyph-name="ring" unicode="&#x2da;" horiz-adv-x="417" 
d="M253 512q-45 0 -75 30.5t-30 74.5q0 45 31 75.5t77 30.5q45 0 74.5 -29.5t29.5 -73.5q0 -46 -30.5 -77t-76.5 -31zM255 582q15 0 25.5 10.5t10.5 26.5q0 14 -10.5 24.5t-24.5 10.5q-16 0 -27 -10.5t-11 -25.5q0 -16 10.5 -26t26.5 -10z" />
    <glyph glyph-name="ogonek" unicode="&#x2db;" horiz-adv-x="435" 
d="M193 -191q-97 0 -97 79q0 36 24 71t61 56l123 -15q-39 -3 -68 -29.5t-29 -56.5q0 -24 25 -24q21 0 33 7l2 -77q-27 -11 -74 -11z" />
    <glyph glyph-name="tilde" unicode="&#x2dc;" horiz-adv-x="444" 
d="M334 527q-34 0 -76 30q-24 18 -44 18q-33 0 -58 -51l-84 42q50 120 129 120q35 0 75 -27q27 -19 42 -19q36 0 60 49l84 -34q-23 -59 -55.5 -93.5t-72.5 -34.5z" />
    <glyph glyph-name="hungarumlaut" unicode="&#x2dd;" horiz-adv-x="491" 
d="M60 533l117 149l148 1l-130 -150h-135zM267 533l116 149l148 1l-129 -150h-135z" />
    <glyph glyph-name="gravecomb" unicode="&#x300;" horiz-adv-x="0" 
d="M-497 533l-93 150l150 -1l80 -149h-137z" />
    <glyph glyph-name="acutecomb" unicode="&#x301;" horiz-adv-x="0" 
d="M-571 533l117 149l152 1l-129 -150h-140z" />
    <glyph glyph-name="uni0302" unicode="&#x302;" horiz-adv-x="0" 
d="M-631 531l115 152h131l84 -152h-130l-24 74h-1l-42 -74h-133z" />
    <glyph glyph-name="tildecomb" unicode="&#x303;" horiz-adv-x="0" 
d="M-383 527q-33 0 -76 30q-24 18 -44 18q-33 0 -58 -51l-84 42q50 120 129 120q8 0 15.5 -1t14.5 -3t11.5 -3.5t10.5 -5t8.5 -5t8 -5t6.5 -4.5q27 -19 42 -19q35 0 60 49l84 -34q-23 -59 -55.5 -93.5t-72.5 -34.5z" />
    <glyph glyph-name="uni0304" unicode="&#x304;" horiz-adv-x="0" 
d="M-605 558l15 115h285l-14 -115h-286z" />
    <glyph glyph-name="uni0306" unicode="&#x306;" horiz-adv-x="0" 
d="M-465 516q-69 0 -105 41t-32 115h108q-2 -21 8 -34.5t31 -13.5q22 0 39 14t23 34h108q-13 -71 -60 -113.5t-120 -42.5z" />
    <glyph glyph-name="uni0307" unicode="&#x307;" horiz-adv-x="0" 
d="M-458 528q-39 0 -64.5 24.5t-25.5 61.5q0 38 26 63t67 25q40 0 65 -24t25 -61q0 -39 -26 -64t-67 -25z" />
    <glyph glyph-name="uni0308" unicode="&#x308;" horiz-adv-x="0" 
d="M-565 528q-39 0 -64.5 24.5t-25.5 61.5q0 38 26 63t67 25q40 0 65 -24t25 -61q0 -39 -26 -64t-67 -25zM-348 528q-39 0 -64.5 24.5t-25.5 61.5q0 39 26 63.5t68 24.5q39 0 64 -24t25 -61q0 -39 -26 -64t-67 -25z" />
    <glyph glyph-name="hookabovecomb" unicode="&#x309;" horiz-adv-x="0" 
d="M-438 522l-81 1q56 42 59 77q3 22 -23 22q-30 0 -65 -23l-18 63q23 22 61 38t77 16q40 0 63 -18t23 -51q0 -38 -27.5 -72t-68.5 -53z" />
    <glyph glyph-name="uni030A" unicode="&#x30a;" horiz-adv-x="0" 
d="M-454 515q-45 0 -75 30.5t-30 74.5q0 45 31 75.5t77 30.5q45 0 74.5 -29.5t29.5 -73.5q0 -46 -30.5 -77t-76.5 -31zM-452 585q15 0 25.5 10.5t10.5 26.5q0 14 -10.5 24.5t-24.5 10.5q-16 0 -27 -10.5t-11 -25.5q0 -16 10.5 -26t26.5 -10z" />
    <glyph glyph-name="uni030B" unicode="&#x30b;" horiz-adv-x="0" 
d="M-633 533l117 149l148 1l-130 -150h-135zM-426 533l116 149l148 1l-129 -150h-135z" />
    <glyph glyph-name="uni030C" unicode="&#x30c;" horiz-adv-x="0" 
d="M-539 523l-71 149h126l29 -71h2l46 71h125l-107 -149h-150z" />
    <glyph glyph-name="uni0312" unicode="&#x312;" horiz-adv-x="0" 
d="M-518 542q-2 14 -2 23q0 68 42.5 105.5t117.5 39.5l16 -85q-31 -7 -43.5 -19.5t-12.5 -38.5q0 -5 2 -25h-120z" />
    <glyph glyph-name="uni0313" unicode="&#x313;" horiz-adv-x="0" 
d="M-474 701q2 -14 2 -23q0 -68 -42.5 -105.5t-117.5 -39.5l-16 85q31 7 43.5 19.5t12.5 38.5q0 5 -2 25h120z" />
    <glyph glyph-name="uni031B" unicode="&#x31b;" horiz-adv-x="0" 
d="M-437 445q-32 0 -65 13l17 64q18 -8 28 -8q14 0 23.5 8.5t15 27t8.5 35.5t7 47l10 78h122l-10 -86q-12 -90 -53 -134.5t-103 -44.5z" />
    <glyph glyph-name="dotbelowcomb" unicode="&#x323;" horiz-adv-x="0" 
d="M-545 -60q39 0 64.5 -24.5t25.5 -61.5q0 -38 -26 -63t-67 -25q-40 0 -65 24t-25 61q0 39 26 64t67 25z" />
    <glyph glyph-name="uni0324" unicode="&#x324;" horiz-adv-x="0" 
d="M-654 -60q39 0 64.5 -24.5t25.5 -61.5q0 -39 -26 -63.5t-68 -24.5q-39 0 -64 24t-25 61q0 39 26 64t67 25zM-437 -60q39 0 64.5 -24.5t25.5 -61.5q0 -38 -26 -63t-67 -25q-40 0 -65 24t-25 61q0 39 26 64t67 25z" />
    <glyph glyph-name="uni0326" unicode="&#x326;" horiz-adv-x="0" 
d="M-641 -221l-15 85q31 7 43.5 19.5t12.5 38.5q0 5 -2 25h120q2 -14 2 -23q0 -68 -42.5 -105.5t-118.5 -39.5z" />
    <glyph glyph-name="uni0327" unicode="&#x327;" horiz-adv-x="0" 
d="M-590 -192q-33 0 -54 6l2 61q16 -6 39 -6q53 0 53 33q0 25 -65 25l1 38l26 41h77l-26 -36l1 -1q75 -3 75 -66q0 -47 -34.5 -71t-94.5 -24z" />
    <glyph glyph-name="uni0328" unicode="&#x328;" horiz-adv-x="0" 
d="M-643 -191q-97 0 -97 79q0 36 24 71t61 56l123 -15q-39 -3 -68 -29.5t-29 -56.5q0 -24 25 -24q21 0 33 7l2 -77q-27 -11 -74 -11z" />
    <glyph glyph-name="uni032E" unicode="&#x32e;" horiz-adv-x="0" 
d="M-554 -233q-69 0 -105 41t-32 115h108q-2 -21 8 -34.5t31 -13.5q22 0 39 14t23 34h108q-13 -71 -60 -113.5t-120 -42.5z" />
    <glyph glyph-name="uni0331" unicode="&#x331;" horiz-adv-x="0" 
d="M-697 -212l15 115h285l-14 -115h-286z" />
    <glyph glyph-name="uni0335" unicode="&#x335;" horiz-adv-x="0" 
d="M-635 215l11 90h270l-11 -90h-270z" />
    <glyph glyph-name="uni0400" unicode="&#x400;" horiz-adv-x="547" 
d="M313 760l-94 140l150 -1l81 -139h-137zM37 0l87 710h422l-18 -143h-265l-18 -145h209l-16 -138h-209l-18 -141h284l-18 -143h-440z" />
    <glyph glyph-name="uni0401" unicode="&#x401;" horiz-adv-x="547" 
d="M248 775q-39 0 -64.5 24.5t-25.5 61.5q0 38 26 63t67 25q40 0 65 -24t25 -61q0 -39 -26 -64t-67 -25zM465 775q-39 0 -64.5 24.5t-25.5 61.5q0 39 26 63.5t68 24.5q39 0 64 -24t25 -61q0 -39 -26 -64t-67 -25zM37 0l87 710h422l-18 -143h-265l-18 -145h209l-16 -138h-209
l-18 -141h284l-18 -143h-440z" />
    <glyph glyph-name="uni0402" unicode="&#x402;" horiz-adv-x="708" 
d="M506 457q84 0 134.5 -51.5t50.5 -138.5q0 -129 -70.5 -202.5t-185.5 -73.5q-27 0 -62 5l21 127h17q51 0 82 33t31 85q0 73 -81 73q-55 0 -98 -23l-36 -291h-160l70 567h-166l18 143h491l-18 -143h-165l-19 -151q69 41 146 41z" />
    <glyph glyph-name="uni0403" unicode="&#x403;" horiz-adv-x="517" 
d="M237 761l115 139l151 1l-131 -140h-135zM38 0l87 710h426l-17 -143h-265l-70 -567h-161z" />
    <glyph glyph-name="uni0404" unicode="&#x404;" horiz-adv-x="657" 
d="M355 138q86 0 150 67l112 -106q-102 -108 -270 -108q-135 0 -216 76.5t-81 223.5q0 185 100.5 306.5t267.5 121.5q169 0 248 -117l-122 -103q-43 71 -136 71q-62 0 -109.5 -40.5t-69.5 -107.5h262l-16 -131h-262q-1 -75 36.5 -114t105.5 -39z" />
    <glyph glyph-name="uni0405" unicode="&#x405;" horiz-adv-x="545" 
d="M253 -9q-74 0 -140 31.5t-107 95.5l114 100q24 -40 60.5 -62t72.5 -22q41 0 65 19.5t24 47.5q0 22 -17.5 37t-63.5 42q-10 5 -15 8q-87 50 -116 78q-59 55 -59 133q0 99 69.5 159.5t173.5 60.5q65 0 123.5 -28t94.5 -81l-114 -95q-47 63 -110 63q-31 0 -51 -17.5
t-19 -43.5q1 -21 17.5 -39.5t59.5 -43.5q14 -8 42.5 -24t42 -24.5t35 -23t32 -27t22.5 -29.5t16.5 -37t4.5 -44q0 -110 -71 -172t-186 -62z" />
    <glyph glyph-name="uni0406" unicode="&#x406;" horiz-adv-x="308" 
d="M43 0l87 710h162l-87 -710h-162z" />
    <glyph glyph-name="uni0407" unicode="&#x407;" horiz-adv-x="308" 
d="M117 775q-39 0 -64.5 24.5t-25.5 61.5q0 38 26 63t67 25q40 0 65 -24t25 -61q0 -39 -26 -64t-67 -25zM334 775q-39 0 -64.5 24.5t-25.5 61.5q0 39 26 63.5t68 24.5q39 0 64 -24t25 -61q0 -39 -26 -64t-67 -25zM43 0l87 710h162l-87 -710h-162z" />
    <glyph glyph-name="uni0408" unicode="&#x408;" horiz-adv-x="464" 
d="M169 -9q-54 0 -101 25t-74 72l106 108q24 -52 67 -52q30 0 50 27t28 96l55 443h160l-55 -450q-17 -139 -72.5 -204t-163.5 -65z" />
    <glyph glyph-name="uni0409" unicode="&#x409;" horiz-adv-x="969" 
d="M744 458q60 0 103 -17.5t64.5 -48t30.5 -63.5t9 -72q-1 -132 -72.5 -194.5t-216.5 -62.5h-237l69 567h-131q-45 -254 -70 -337q-34 -122 -85 -179.5t-144 -57.5q-45 0 -84 13l24 131q20 -5 33 -5q41 0 70.5 48.5t52.5 140.5q31 119 74 389h436l-31 -252h105zM673 141
q112 0 112 105q0 34 -18.5 53.5t-56.5 19.5h-88l-22 -178h73z" />
    <glyph glyph-name="uni040A" unicode="&#x40a;" horiz-adv-x="953" 
d="M727 445q60 0 103 -17.5t65 -48t31 -62.5t9 -70q-3 -247 -289 -247h-242l35 286h-205l-35 -286h-161l87 710h161l-34 -281h205l34 281h158l-33 -265h111zM657 141q57 0 84.5 27.5t27.5 69.5q0 68 -77 68h-93l-20 -165h78z" />
    <glyph glyph-name="uni040B" unicode="&#x40b;" horiz-adv-x="720" 
d="M544 459q169 0 139 -220l-32 -239h-159l30 223q7 54 -5 75t-48 21q-60 0 -114 -29l-36 -290h-160l70 567h-166l18 143h491l-18 -143h-165l-19 -154q92 46 174 46z" />
    <glyph glyph-name="uni040C" unicode="&#x40c;" horiz-adv-x="618" 
d="M540 901l-131 -140h-135l115 139zM665 710l-256 -319l176 -391h-182l-115 278l-67 -79l-24 -199h-159l87 710h159l-35 -290l3 -1l221 291h192z" />
    <glyph glyph-name="uni040D" unicode="&#x40d;" horiz-adv-x="680" 
d="M374 761l-94 140l150 -1l81 -139h-137zM38 0l87 710h159l-56 -443l3 -1l283 444h155l-87 -710h-160l52 423l-3 1l-280 -424h-153z" />
    <glyph glyph-name="uni040E" unicode="&#x40e;" horiz-adv-x="605" 
d="M364 757q-75 0 -111 33t-43 111l117 10q3 -31 18 -48.5t35 -17.5q45 0 81 70l106 -34q-68 -124 -203 -124zM479 710h180l-273 -527q-50 -99 -94.5 -145.5t-116.5 -46.5q-82 0 -129 33l51 134q32 -24 65 -24q49 0 90 81l-191 495h176l96 -317h5z" />
    <glyph glyph-name="uni040F" unicode="&#x40f;" horiz-adv-x="640" 
d="M630 710l-87 -710h-183l-22 -137h-130l11 137h-181l87 710h161l-70 -567h183l70 567h161z" />
    <glyph glyph-name="uni0410" unicode="&#x410;" horiz-adv-x="635" 
d="M-23 0l320 710h154l146 -710h-166l-22 131h-213l-51 -131h-168zM247 266h141l-42 249h-2z" />
    <glyph glyph-name="uni0411" unicode="&#x411;" horiz-adv-x="584" 
d="M38 0l87 710h426l-18 -143h-270l-14 -122h99q117 0 162.5 -51t45.5 -135q-1 -134 -73.5 -196.5t-219.5 -62.5h-225zM210 139h73q106 0 106 105q0 35 -18 50.5t-57 15.5h-82z" />
    <glyph glyph-name="uni0412" unicode="&#x412;" horiz-adv-x="590" 
d="M38 0l87 710h250q188 0 188 -147q0 -54 -29 -104.5t-80 -76.5v-2q100 -39 100 -149q0 -231 -274 -231h-242zM246 424h62q41 0 67 26t26 68q0 51 -66 51h-70zM212 139h76q53 0 78.5 28t25.5 75q0 58 -76 58h-84z" />
    <glyph glyph-name="uni0413" unicode="&#x413;" horiz-adv-x="517" 
d="M38 0l87 710h426l-17 -143h-265l-70 -567h-161z" />
    <glyph glyph-name="uni0414" unicode="&#x414;" horiz-adv-x="744" 
d="M719 143l-44 -280h-129l11 137h-431l-25 -137h-131l32 280h80q71 121 109 256q35 120 59 311h438l-70 -567h101zM385 566q-20 -129 -53 -234q-30 -101 -76 -189h204l52 423h-127z" />
    <glyph glyph-name="uni0415" unicode="&#x415;" horiz-adv-x="547" 
d="M37 0l87 710h422l-18 -143h-265l-18 -145h209l-16 -138h-209l-18 -141h284l-18 -143h-440z" />
    <glyph glyph-name="uni0416" unicode="&#x416;" horiz-adv-x="894" 
d="M937 710l-237 -333l164 -377h-183l-113 284l-52 -63l-27 -221h-154l26 218l-39 66l-173 -284h-180l244 379l-155 331h188l134 -320l3 1l38 319h156l-40 -315l3 -1l208 316h189z" />
    <glyph glyph-name="uni0417" unicode="&#x417;" horiz-adv-x="556" 
d="M255 -9q-180 0 -255 120l110 106q49 -80 146 -80q49 0 75 26.5t26 65.5q0 69 -93 69h-96l17 129h82q49 0 79 22t30 61q0 62 -80 62q-71 0 -127 -45l-89 112q94 79 238 79q101 0 160.5 -43.5t59.5 -120.5q0 -54 -30.5 -100t-85.5 -71v-2q45 -22 73 -65t28 -101
q0 -101 -69.5 -162.5t-198.5 -61.5z" />
    <glyph glyph-name="uni0418" unicode="&#x418;" horiz-adv-x="680" 
d="M38 0l87 710h159l-56 -443l3 -1l283 444h155l-87 -710h-160l52 423l-3 1l-280 -424h-153z" />
    <glyph glyph-name="uni0419" unicode="&#x419;" horiz-adv-x="680" 
d="M409 757q-75 0 -111 33t-43 111l117 10q3 -31 18 -48.5t35 -17.5q45 0 81 70l106 -34q-68 -124 -203 -124zM38 0l87 710h159l-56 -443l3 -1l283 444h155l-87 -710h-160l52 423l-3 1l-280 -424h-153z" />
    <glyph glyph-name="uni041A" unicode="&#x41a;" horiz-adv-x="618" 
d="M665 710l-256 -319l176 -391h-182l-115 278l-67 -79l-24 -199h-159l87 710h159l-35 -290l3 -1l221 291h192z" />
    <glyph glyph-name="uni041B" unicode="&#x41b;" horiz-adv-x="685" 
d="M234 710h441l-88 -710h-160l70 567h-131q-45 -254 -70 -337q-35 -122 -87 -179.5t-145 -57.5q-45 0 -84 13l24 131q20 -5 33 -5q41 0 70.5 48.5t52.5 140.5q31 119 74 389z" />
    <glyph glyph-name="uni041C" unicode="&#x41c;" horiz-adv-x="798" 
d="M38 0l87 710h157l131 -386h3l214 386h157l-87 -710h-157l47 388l-2 1l-150 -257h-97l-95 266l-2 -1l-49 -397h-157z" />
    <glyph glyph-name="uni041D" unicode="&#x41d;" horiz-adv-x="670" 
d="M38 0l87 710h161l-36 -297h211l36 297h162l-88 -710h-161l33 270h-211l-33 -270h-161z" />
    <glyph glyph-name="uni041E" unicode="&#x41e;" horiz-adv-x="739" 
d="M339 -9q-132 0 -210.5 79.5t-78.5 221.5q0 114 45.5 210.5t132.5 156.5t198 60q132 0 211 -79.5t79 -219.5q0 -118 -43.5 -214.5t-130.5 -155.5t-203 -59zM351 141q86 0 142 78t56 192q0 79 -37.5 119t-100.5 40q-82 0 -138 -81t-56 -187q0 -79 36.5 -120t97.5 -41z" />
    <glyph glyph-name="uni041F" unicode="&#x41f;" horiz-adv-x="641" 
d="M38 0l87 710h505l-87 -710h-160l70 567h-184l-70 -567h-161z" />
    <glyph glyph-name="uni0420" unicode="&#x420;" horiz-adv-x="570" 
d="M38 0l87 710h248q102 0 151 -53t49 -143q0 -128 -74.5 -205t-208.5 -77h-67l-28 -232h-157zM241 373h57q50 0 79.5 34t29.5 89q0 36 -21 54.5t-54 18.5h-67z" />
    <glyph glyph-name="uni0421" unicode="&#x421;" horiz-adv-x="656" 
d="M340 -9q-129 0 -209.5 77.5t-80.5 221.5q0 181 105 305t272 124q70 0 135 -35t111 -113l-127 -96q-50 91 -128 91q-88 0 -143.5 -82t-55.5 -188q0 -72 35 -111.5t97 -39.5q85 0 146 72l112 -104q-105 -122 -269 -122z" />
    <glyph glyph-name="uni0422" unicode="&#x422;" horiz-adv-x="539" 
d="M159 0l70 567h-166l18 143h491l-18 -143h-165l-70 -567h-160z" />
    <glyph glyph-name="uni0423" unicode="&#x423;" horiz-adv-x="605" 
d="M479 710h180l-273 -527q-50 -99 -94.5 -145.5t-116.5 -46.5q-82 0 -129 33l51 134q32 -24 65 -24q49 0 90 81l-191 495h176l96 -317h5z" />
    <glyph glyph-name="uni0424" unicode="&#x424;" horiz-adv-x="807" 
d="M789 400q0 -140 -83.5 -232.5t-242.5 -98.5l-9 -69h-159l9 69q-117 6 -187.5 73t-70.5 179q0 88 36.5 163.5t113.5 126t181 53.5l7 60h159l-7 -61q113 -8 183 -78.5t70 -184.5zM208 338q0 -125 118 -137l41 332q-74 -6 -116.5 -62.5t-42.5 -132.5zM472 202q75 8 115 57.5
t40 127.5q0 61 -30 99t-84 46z" />
    <glyph glyph-name="uni0425" unicode="&#x425;" horiz-adv-x="629" 
d="M-26 0l248 360l-151 350h172l95 -232h5l145 232h185l-242 -354l161 -356h-176l-101 236h-4l-158 -236h-179z" />
    <glyph glyph-name="uni0426" unicode="&#x426;" horiz-adv-x="683" 
d="M657 143l-43 -280h-130l11 137h-457l87 710h161l-70 -567h180l70 567h160l-69 -567h100z" />
    <glyph glyph-name="uni0427" unicode="&#x427;" horiz-adv-x="604" 
d="M461 710h162l-88 -710h-161l32 265q-69 -41 -164 -41q-181 0 -152 220l36 266h159l-33 -251q-8 -55 5 -75.5t55 -20.5q59 0 110 30z" />
    <glyph glyph-name="uni0428" unicode="&#x428;" horiz-adv-x="921" 
d="M750 710h160l-87 -710h-785l87 710h161l-70 -567h152l70 567h158l-69 -567h153z" />
    <glyph glyph-name="uni0429" unicode="&#x429;" horiz-adv-x="967" 
d="M941 143l-43 -280h-130l11 137h-741l87 710h161l-70 -567h152l70 567h158l-69 -567h153l70 567h160l-69 -567h100z" />
    <glyph glyph-name="uni042A" unicode="&#x42a;" horiz-adv-x="678" 
d="M453 458q60 0 103 -17.5t64.5 -48t30.5 -63.5t9 -72q-1 -132 -72.5 -194.5t-216.5 -62.5h-237l69 567h-160l18 143h318l-31 -252h105zM382 141q112 0 112 105q0 34 -18.5 53.5t-56.5 19.5h-88l-22 -178h73z" />
    <glyph glyph-name="uni042B" unicode="&#x42b;" horiz-adv-x="867" 
d="M38 0l87 710h158l-31 -252h98q60 0 103 -17.5t65 -48t31 -63.5t9 -72q-1 -132 -73 -194.5t-216 -62.5h-231zM607 0l87 710h162l-87 -710h-162zM213 141h67q112 0 112 105q0 34 -19 53.5t-57 19.5h-81z" />
    <glyph glyph-name="uni042C" unicode="&#x42c;" horiz-adv-x="582" 
d="M38 0l87 710h158l-31 -252h105q60 0 103 -17.5t64.5 -48t30.5 -63.5t9 -72q-1 -132 -72.5 -194.5t-216.5 -62.5h-237zM213 141h73q112 0 112 105q0 34 -18.5 53.5t-56.5 19.5h-88z" />
    <glyph glyph-name="uni042D" unicode="&#x42d;" horiz-adv-x="647" 
d="M333 720q140 0 215.5 -82t75.5 -221q0 -187 -95.5 -306.5t-267.5 -119.5q-181 0 -258 119l114 101q44 -73 143 -73q75 0 122.5 41.5t66.5 111.5h-262l16 131h263q-3 73 -43 112t-111 39q-75 0 -139 -53l-89 115q105 85 249 85z" />
    <glyph glyph-name="uni042E" unicode="&#x42e;" horiz-adv-x="992" 
d="M688 718q131 0 210 -79.5t79 -218.5q0 -180 -101.5 -304.5t-271.5 -124.5q-121 0 -196 78t-79 203h-100l-33 -272h-162l87 710h162l-36 -295h98q32 134 122.5 218.5t220.5 84.5zM618 141q82 0 136.5 80.5t54.5 194.5q0 75 -36.5 114t-94.5 39q-79 0 -134 -78t-55 -185
q0 -82 36 -123.5t93 -41.5z" />
    <glyph glyph-name="uni042F" unicode="&#x42f;" horiz-adv-x="607" 
d="M336 710h260l-87 -710h-157l28 232h-77l-144 -232h-176l178 276q-88 59 -88 166q0 122 68 195t195 73zM396 370l25 199h-81q-48 0 -74 -31.5t-26 -79.5q0 -40 22.5 -64t61.5 -24h72z" />
    <glyph glyph-name="uni0430" unicode="&#x430;" horiz-adv-x="553" 
d="M186 -9q-76 0 -117.5 56t-41.5 144q0 130 67 218.5t164 88.5q74 0 115 -43h3l4 34h151l-60 -489h-151l9 72l-3 1q-57 -82 -140 -82zM234 124q42 0 79.5 51.5t49.5 139.5l2 14q-33 35 -81 35q-47 0 -76.5 -51t-29.5 -111q0 -35 15.5 -56.5t40.5 -21.5z" />
    <glyph glyph-name="uni0431" unicode="&#x431;" horiz-adv-x="544" 
d="M247 -9q-101 0 -154 70.5t-53 189.5t29.5 214.5t95 161.5t160.5 82q3 1 34 5.5t41.5 6.5t34 7t40 11t31.5 14l26 -124q-17 -12 -34 -20t-38.5 -13.5t-34 -8t-41.5 -6.5t-39 -6q-63 -10 -100 -50t-55 -118l2 -1q61 79 146 79q79 0 129.5 -53.5t50.5 -142.5
q0 -128 -69 -213t-202 -85zM259 125q46 0 76.5 41t30.5 99q0 48 -22.5 66.5t-49.5 18.5q-45 0 -74.5 -37.5t-29.5 -89.5q0 -49 20 -73.5t49 -24.5z" />
    <glyph glyph-name="uni0432" unicode="&#x432;" horiz-adv-x="510" 
d="M392 259q39 -12 60.5 -41t21.5 -65q0 -76 -65.5 -119t-161.5 -43q-221 0 -221 205q0 128 73 215t203 87q77 0 130 -33t53 -94q0 -78 -93 -110v-2zM243 286q86 20 86 58q0 16 -12 26t-31 10q-35 0 -67.5 -30t-45.5 -79zM254 111q27 0 49.5 12t22.5 39q0 55 -99 37l-59 -10
q9 -78 86 -78z" />
    <glyph glyph-name="uni0433" unicode="&#x433;" horiz-adv-x="420" 
d="M177 -9q-81 0 -125 31.5t-45 88.5q-1 54 33 92.5t102 73.5l57 30q33 16 43.5 25t10.5 23q0 20 -34 20q-39 0 -85 -40l-79 103q30 25 82.5 42.5t99.5 17.5q71 0 118.5 -31.5t47.5 -92.5q0 -56 -31.5 -90.5t-89.5 -64.5l-72 -38q-29 -15 -40 -25t-11 -21q0 -23 32 -23
q51 0 93 50l110 -81q-80 -90 -217 -90z" />
    <glyph glyph-name="uni0434" unicode="&#x434;" horiz-adv-x="532" 
d="M237 -9q-98 0 -154 58.5t-56 157.5q0 117 68.5 197t162.5 80q61 0 104 -35l1 2q-5 70 -30 105t-80 51q-33 10 -95 14l29 125q332 -4 328 -353q-2 -182 -73 -292t-205 -110zM244 124q46 0 77.5 57.5t39.5 147.5q-28 28 -71 28q-48 0 -80 -44t-32 -100q0 -45 20 -67t46 -22
z" />
    <glyph glyph-name="uni0435" unicode="&#x435;" horiz-adv-x="476" 
d="M464 363q-3 -156 -289 -186q6 -31 26 -46.5t44 -15.5q52 0 89 49l112 -66q-78 -107 -213 -107q-93 0 -149 55.5t-55 149.5q0 128 73.5 215t194.5 87q66 0 117 -35.5t50 -99.5zM320 342q1 15 -9 23t-27 8q-33 0 -62.5 -28.5t-41.5 -77.5q139 15 140 75z" />
    <glyph glyph-name="uni0436" unicode="&#x436;" horiz-adv-x="723" 
d="M602 200q14 -49 35 -65.5t58 -19.5l-34 -122q-22 -2 -44 -2q-103 0 -136 140l-9 38q-17 -8 -53 -20l-18 -149h-143l25 203l-1 1q-94 -61 -131 -204h-155q28 143 141 243l-14 47q-13 49 -34 65.5t-59 19.5l33 121q22 2 45 2q106 0 137 -140l9 -39q22 11 45 18l19 152h142
l-25 -206l1 -1q103 63 137 207h155q-28 -145 -140 -244z" />
    <glyph glyph-name="uni0437" unicode="&#x437;" horiz-adv-x="442" 
d="M187 -9q-117 0 -196 48l52 121q57 -45 135 -45q37 0 59.5 12.5t22.5 36.5q0 35 -62 35l-78 -1l12 95l63 1q38 1 57.5 14t19.5 32q0 33 -55 33t-115 -28l-55 109q30 17 82 30.5t98 13.5q83 0 138 -33t55 -95q0 -40 -26.5 -68.5t-66.5 -41.5v-2q39 -13 60 -41t21 -65
q0 -77 -60.5 -119t-160.5 -42z" />
    <glyph glyph-name="uni0438" unicode="&#x438;" horiz-adv-x="539" 
d="M194 -9q-153 0 -125 194l42 304h149l-37 -259q-8 -59 -1 -82t33 -23q32 0 67.5 43.5t42.5 96.5l27 224h150l-60 -489h-147l6 72h-2q-60 -81 -145 -81z" />
    <glyph glyph-name="uni0439" unicode="&#x439;" horiz-adv-x="539" 
d="M339 550q-75 0 -111.5 33t-43.5 111l118 15q2 -35 16 -53t35 -18q22 0 44.5 20t38.5 56l106 -40q-69 -124 -203 -124zM194 -9q-153 0 -125 194l42 304h149l-37 -259q-8 -59 -1 -82t33 -23q32 0 67.5 43.5t42.5 96.5l27 224h150l-60 -489h-147l6 72h-2q-60 -81 -145 -81z
" />
    <glyph glyph-name="uni043A" unicode="&#x43a;" horiz-adv-x="511" 
d="M25 0l60 489h150l-26 -209l2 -1q105 75 139 210h155q-27 -140 -138 -246l15 -43q16 -49 36 -66t56 -19l-34 -122q-22 -2 -45 -2q-53 0 -84.5 36t-53.5 104l-10 31q-31 -20 -60 -32l-15 -130h-147z" />
    <glyph glyph-name="uni043B" unicode="&#x43b;" horiz-adv-x="538" 
d="M298 489h215l-60 -489h-149l45 365h-22q-27 0 -40 -12t-19 -38q-5 -19 -17 -69t-20 -81q-44 -172 -185 -172q-41 0 -67 11l24 122q12 -4 25 -4q49 0 76 119q17 77 21 102q29 146 173 146z" />
    <glyph glyph-name="uni043C" unicode="&#x43c;" horiz-adv-x="642" 
d="M24 0l60 489h155l82 -264h2l141 264h155l-61 -489h-145l33 255h-2l-94 -170h-97l-51 173h-2l-32 -258h-144z" />
    <glyph glyph-name="uni043D" unicode="&#x43d;" horiz-adv-x="545" 
d="M371 489h150l-60 -489h-150l22 178l-136 -1l-22 -177h-150l60 489h150l-23 -190l136 1z" />
    <glyph glyph-name="uni043E" unicode="&#x43e;" horiz-adv-x="535" 
d="M235 -9q-94 0 -150.5 55.5t-56.5 154.5q0 124 73 210.5t197 86.5q96 0 152.5 -55.5t56.5 -153.5q0 -128 -69.5 -213t-202.5 -85zM246 125q48 0 78.5 46t30.5 108q0 47 -21 66t-48 19q-47 0 -76.5 -47.5t-29.5 -107.5q0 -41 19.5 -62.5t46.5 -21.5z" />
    <glyph glyph-name="uni043F" unicode="&#x43f;" horiz-adv-x="547" 
d="M25 0l61 489h149l-8 -68l2 -1q67 78 162 78q70 0 98 -48.5t15 -150.5l-39 -299h-149l35 265q7 51 0.5 75t-29.5 24q-38 0 -76 -49t-49 -134l-22 -181h-150z" />
    <glyph glyph-name="uni0440" unicode="&#x440;" horiz-adv-x="558" 
d="M1 -198l85 687h150l-9 -73l1 -2q58 84 147 84q74 0 114.5 -56.5t40.5 -143.5q0 -130 -67.5 -218.5t-166.5 -88.5q-71 0 -114 33l-4 -1l-27 -221h-150zM256 124q58 0 91 47t33 112q0 36 -15 59t-40 23q-44 0 -82.5 -53t-51.5 -145l-1 -13q22 -30 66 -30z" />
    <glyph glyph-name="uni0441" unicode="&#x441;" horiz-adv-x="480" 
d="M235 -9q-97 0 -152 55t-55 158q0 120 69.5 207t190.5 87q126 0 188 -90l-115 -86q-22 43 -69 43q-49 0 -81 -46t-32 -109q0 -40 18 -62.5t49 -22.5q46 0 85 47l116 -74q-78 -107 -212 -107z" />
    <glyph glyph-name="uni0442" unicode="&#x442;" horiz-adv-x="813" 
d="M26 0l60 489h150l-8 -61l4 -1q63 71 149 71t106 -74h5q63 74 164 74q73 0 100.5 -49.5t13.5 -155.5l-39 -293h-149l35 265q7 51 1.5 75t-28.5 24q-31 0 -67 -49.5t-47 -134.5l-24 -180h-149l35 265q8 51 2.5 75t-29.5 24q-30 0 -66 -47.5t-46 -125.5l-23 -191h-150z" />
    <glyph glyph-name="uni0443" unicode="&#x443;" horiz-adv-x="534" 
d="M363 489h149l-52 -423q-32 -273 -276 -273q-99 0 -177 48l47 113q58 -38 122 -38q57 0 89.5 31.5t45.5 121.5v1l-3 1q-59 -80 -145 -80q-153 0 -125 194l42 304h149l-36 -259q-8 -59 -1.5 -82t33.5 -23q33 0 68.5 44.5t41.5 96.5z" />
    <glyph glyph-name="uni0444" unicode="&#x444;" horiz-adv-x="723" 
d="M233 -198l32 253l-2 1q-42 -66 -102 -66q-66 0 -103 57t-36 149q1 131 56.5 216.5t138.5 85.5q59 0 94 -37l3 1l34 274h150l-38 -304l2 -1q20 33 48 50t55 17q65 0 102 -57t36 -149q-1 -130 -56.5 -215.5t-138.5 -85.5q-60 0 -94 37l-3 -2l-28 -224h-150zM468 124
q29 0 49.5 26t28.5 60t8 72q1 40 -11 66t-33 26q-28 0 -54.5 -57.5t-34.5 -144.5l-1 -18q19 -30 48 -30zM217 114q27 0 53 58t34 145l2 17q-21 30 -49 30q-42 0 -63.5 -48t-22.5 -109q-1 -41 11.5 -67t34.5 -26z" />
    <glyph glyph-name="uni0445" unicode="&#x445;" horiz-adv-x="477" 
d="M-21 0l178 254l-114 235h166l45 -118h1l73 118h170l-177 -243l118 -246h-160l-52 123h-2l-84 -123h-162z" />
    <glyph glyph-name="uni0446" unicode="&#x446;" horiz-adv-x="603" 
d="M543 119h66l-49 -247h-116l15 121q-84 3 -102 87q-2 6 -2 10h-3q-28 -45 -70 -72t-88 -27q-153 0 -126 194l43 304h149l-37 -259q-9 -59 -2 -82t33 -23q32 0 67.5 43.5t42.5 93.5l28 227h150l-39 -316q-4 -32 5.5 -42.5t34.5 -11.5z" />
    <glyph glyph-name="uni0447" unicode="&#x447;" horiz-adv-x="516" 
d="M307 0l25 198h-3q-27 -31 -70 -49.5t-80 -18.5q-138 0 -113 173l26 186h149l-25 -171q-5 -30 3 -45t34 -15q32 0 62 26.5t33 50.5l19 154h149l-60 -489h-149z" />
    <glyph glyph-name="uni0448" unicode="&#x448;" horiz-adv-x="781" 
d="M186 -9q-150 0 -123 198l43 300h149l-37 -256q-6 -40 -4.5 -64t10 -34t25.5 -10q27 0 57 38.5t38 99.5l28 226h144l-32 -259q-8 -59 -1.5 -82t31.5 -23q26 0 58.5 44t39.5 103l27 217h150l-60 -489h-149l8 73h-3q-54 -82 -136 -82q-38 0 -65.5 23.5t-37.5 66.5h-3
q-27 -42 -71 -66t-86 -24z" />
    <glyph glyph-name="uni0449" unicode="&#x449;" horiz-adv-x="845" 
d="M791 119h65l-49 -247h-116l15 121q-87 3 -102 87q-1 1 -1 5t-1 5h-3q-26 -45 -67 -72t-83 -27q-82 0 -103 90h-3q-27 -42 -71 -66t-86 -24q-150 0 -123 198l43 300h149l-37 -256q-6 -40 -4.5 -64t10 -34t25.5 -10q27 0 57 38.5t38 99.5l28 226h144l-32 -259
q-8 -59 -1.5 -82t31.5 -23q26 0 58 44t40 103l27 217h150l-39 -316q-4 -32 6 -42.5t35 -11.5z" />
    <glyph glyph-name="uni044A" unicode="&#x44a;" horiz-adv-x="528" 
d="M372 391q59 0 98.5 -44t38.5 -115q-2 -111 -67 -176.5t-177 -65.5q-111 0 -156 54.5t-29 165.5l22 155h-84l15 124h236l-25 -161l2 -1q18 28 52 46t74 18zM275 114q37 0 60 30t23 69q0 29 -16.5 41.5t-36.5 12.5q-32 0 -55.5 -23.5t-28.5 -58.5q-4 -31 9.5 -51t44.5 -20z
" />
    <glyph glyph-name="uni044B" unicode="&#x44b;" horiz-adv-x="723" 
d="M236 -10q-111 0 -156 54.5t-29 165.5l40 279h149l-25 -161l2 -1q19 28 52.5 46t70.5 18q59 0 98.5 -44t38.5 -115q-2 -111 -66.5 -176.5t-174.5 -65.5zM505 0l60 489h150l-60 -489h-150zM246 114q35 0 57.5 30t22.5 69q0 29 -15.5 41.5t-34.5 12.5q-32 0 -55.5 -23.5
t-28.5 -58.5q-4 -31 9.5 -51t44.5 -20z" />
    <glyph glyph-name="uni044C" unicode="&#x44c;" horiz-adv-x="483" 
d="M236 -10q-111 0 -156 54.5t-29 165.5l40 279h149l-25 -161l2 -1q18 28 52 46t74 18q59 0 98.5 -44t38.5 -115q-2 -111 -67 -176.5t-177 -65.5zM246 114q37 0 60 30t23 69q0 29 -16.5 41.5t-36.5 12.5q-32 0 -55.5 -23.5t-28.5 -58.5q-4 -31 9.5 -51t44.5 -20z" />
    <glyph glyph-name="uni044D" unicode="&#x44d;" horiz-adv-x="472" 
d="M233 498q98 0 154.5 -55.5t55.5 -158.5q-2 -131 -74 -212t-200 -81q-122 0 -182 69l92 94q30 -37 92 -37q90 0 118 84l-182 -2l12 95l179 2q-4 79 -83 79q-47 0 -91 -39l-78 96q33 29 83 47.5t104 18.5z" />
    <glyph glyph-name="uni044E" unicode="&#x44e;" horiz-adv-x="746" 
d="M517 498q93 0 149 -55.5t56 -153.5q0 -128 -68 -213t-198 -85q-87 0 -140 50t-59 140l-64 -1l-22 -180h-150l60 489h150l-24 -193l61 1q24 89 88.5 145t160.5 56zM464 125q46 0 76 45t30 106q0 45 -19.5 66.5t-48.5 21.5q-46 0 -75.5 -46.5t-29.5 -108.5q0 -41 20 -62.5
t47 -21.5z" />
    <glyph glyph-name="uni044F" unicode="&#x44f;" horiz-adv-x="506" 
d="M271 489h210l-60 -489h-148l20 159h-36h-15l-13 -28q-36 -72 -73 -106t-94 -34q-31 0 -51 2l-3 122q33 2 53.5 18t47.5 63l1 2q-31 19 -46 50t-15 62q0 89 60 133.5t162 45.5zM262 257l43 1l13 109h-43q-34 0 -55.5 -15.5t-21.5 -45.5q0 -49 64 -49z" />
    <glyph glyph-name="uni0450" unicode="&#x450;" horiz-adv-x="476" 
d="M385 557h-137l-93 150l150 -1zM464 363q-3 -156 -289 -186q6 -31 26 -46.5t44 -15.5q52 0 89 49l112 -66q-78 -107 -213 -107q-93 0 -149 55.5t-55 149.5q0 128 73.5 215t194.5 87q66 0 117 -35.5t50 -99.5zM320 342q1 15 -9 23t-27 8q-33 0 -62.5 -28.5t-41.5 -77.5
q139 15 140 75z" />
    <glyph glyph-name="uni0451" unicode="&#x451;" horiz-adv-x="476" 
d="M194 552q-39 0 -64.5 24.5t-25.5 61.5q0 38 26 63t67 25q40 0 65 -24t25 -61q0 -39 -26 -64t-67 -25zM415 726q39 0 64 -24t25 -61q0 -39 -26 -64t-67 -25q-39 0 -64.5 24.5t-25.5 61.5q0 39 26 63.5t68 24.5zM297 498q66 0 117 -35.5t50 -99.5q-3 -156 -289 -186
q6 -31 26 -46.5t44 -15.5q52 0 89 49l112 -66q-78 -107 -213 -107q-93 0 -149 55.5t-55 149.5q0 128 73.5 215t194.5 87zM320 342q1 15 -9 23t-27 8q-33 0 -62.5 -28.5t-41.5 -77.5q139 15 140 75z" />
    <glyph glyph-name="uni0452" unicode="&#x452;" horiz-adv-x="529" 
d="M376 457q61 0 95 -36.5t37.5 -93.5t-7.5 -126q-28 -149 -101 -253.5t-177 -158.5l-78 86q83 58 135 149.5t69 195.5q20 103 -35 103q-39 0 -76 -50t-47 -138l-16 -135h-149l65 528h-53l13 107h54l12 101h146l-12 -101h161l-13 -107h-162l-18 -148l2 -1q64 78 155 78z" />
    <glyph glyph-name="uni0453" unicode="&#x453;" horiz-adv-x="420" 
d="M161 557l117 149l152 1l-129 -150h-140zM177 -9q-81 0 -125 31.5t-45 88.5q-1 54 33 92.5t102 73.5l57 30q33 16 43.5 25t10.5 23q0 20 -34 20q-39 0 -85 -40l-79 103q30 25 82.5 42.5t99.5 17.5q71 0 118.5 -31.5t47.5 -92.5q0 -56 -31.5 -90.5t-89.5 -64.5l-72 -38
q-29 -15 -40 -25t-11 -21q0 -23 32 -23q51 0 93 50l110 -81q-80 -90 -217 -90z" />
    <glyph glyph-name="uni0454" unicode="&#x454;" horiz-adv-x="488" 
d="M260 115q52 0 88 44l113 -76q-76 -92 -213 -92q-101 0 -160 55.5t-58 158.5q2 130 73 211.5t197 81.5t189 -77l-99 -89q-33 40 -91 40q-81 0 -111 -78l174 2l-12 -95l-174 -2q1 -44 25 -64t59 -20z" />
    <glyph glyph-name="uni0455" unicode="&#x455;" horiz-adv-x="420" 
d="M188 -9q-54 0 -107 22.5t-84 61.5l84 87q22 -26 52.5 -42t58.5 -16q45 0 45 27q0 11 -10.5 19t-48.5 27q-11 6 -17 9q-60 30 -89.5 64t-29.5 85q0 72 52 117.5t129 45.5q111 0 176 -78l-91 -86q-35 48 -84 50q-16 0 -27.5 -8t-11.5 -22q0 -20 69 -54q66 -33 97 -65
t31 -85q0 -72 -52.5 -115.5t-141.5 -43.5z" />
    <glyph glyph-name="uni0456" unicode="&#x456;" horiz-adv-x="268" 
d="M182 552q-39 0 -64.5 24.5t-25.5 61.5q0 38 26 63t67 25q40 0 65 -24t25 -61q0 -39 -26 -64t-67 -25zM29 0l60 489h150l-60 -489h-150z" />
    <glyph glyph-name="uni0457" unicode="&#x457;" horiz-adv-x="268" 
d="M223 726q35 0 58 -24t23 -61t-24.5 -62.5t-59.5 -25.5q-17 0 -35 8q-16 -8 -35 -8q-35 0 -58.5 24.5t-23.5 60.5q0 37 24.5 62.5t60.5 25.5q16 0 34 -7q19 7 36 7zM29 0l60 489h150l-60 -489h-150z" />
    <glyph glyph-name="uni0458" unicode="&#x458;" horiz-adv-x="251" 
d="M170 552q-39 0 -64.5 24.5t-25.5 61.5q0 38 26 63t67 25q40 0 65 -24t25 -61q0 -39 -26 -64t-67 -25zM-3 -206q-59 0 -103 23l37 115q14 -12 38 -12q22 0 32 18.5t15 65.5l60 485h151l-63 -506q-22 -189 -167 -189z" />
    <glyph glyph-name="uni0459" unicode="&#x459;" horiz-adv-x="775" 
d="M620 391q58 0 97.5 -44t38.5 -115q-3 -111 -68 -176.5t-176 -65.5t-156 54.5t-29 165.5l22 155h-23q-48 0 -59 -50q-33 -139 -36 -150q-44 -172 -185 -172q-41 0 -67 11l24 122q12 -4 25 -4q49 0 76 119q17 77 21 102q29 146 173 146h218l-25 -165l1 -1q53 68 128 68z
M522 114q37 0 60 30t23 69q0 29 -16.5 41.5t-36.5 12.5q-32 0 -55.5 -23.5t-28.5 -58.5q-4 -31 9.5 -51t44.5 -20z" />
    <glyph glyph-name="uni045A" unicode="&#x45a;" horiz-adv-x="748" 
d="M599 391q58 0 97.5 -44t38.5 -115q-3 -111 -68 -176.5t-176 -65.5q-103 0 -149 46.5t-39 141.5l-113 -1l-22 -177h-150l60 489h150l-23 -190l114 1l27 189h149l-25 -165l1 -1q53 68 128 68zM501 114q37 0 60 30t23 69q0 29 -16.5 41.5t-36.5 12.5q-32 0 -55.5 -23.5
t-28.5 -58.5q-4 -31 9.5 -51t44.5 -20z" />
    <glyph glyph-name="uni045B" unicode="&#x45b;" horiz-adv-x="542" 
d="M383 457q72 0 99.5 -48.5t14.5 -150.5l-33 -258h-149l29 224q7 51 0.5 75t-30.5 24q-39 0 -76 -50t-47 -138l-16 -135h-149l65 528h-53l13 107h54l12 101h146l-12 -101h161l-13 -107h-162l-18 -148l2 -1q64 78 162 78z" />
    <glyph glyph-name="uni045C" unicode="&#x45c;" horiz-adv-x="511" 
d="M218 557l117 149l152 1l-129 -150h-140zM25 0l60 489h150l-26 -209l2 -1q105 75 139 210h155q-27 -140 -138 -246l15 -43q16 -49 36 -66t56 -19l-34 -122q-22 -2 -45 -2q-53 0 -84.5 36t-53.5 104l-10 31q-31 -20 -60 -32l-15 -130h-147z" />
    <glyph glyph-name="uni045D" unicode="&#x45d;" horiz-adv-x="539" 
d="M268 557l-93 150l150 -1l80 -149h-137zM194 -9q-153 0 -125 194l42 304h149l-37 -259q-8 -59 -1 -82t33 -23q32 0 67.5 43.5t42.5 96.5l27 224h150l-60 -489h-147l6 72h-2q-60 -81 -145 -81z" />
    <glyph glyph-name="uni045E" unicode="&#x45e;" horiz-adv-x="534" 
d="M303 550q-75 0 -111.5 33t-43.5 111l118 15q2 -35 16 -53t35 -18q22 0 44.5 20t38.5 56l106 -40q-69 -124 -203 -124zM363 489h149l-52 -423q-32 -273 -276 -273q-99 0 -177 48l47 113q58 -38 122 -38q57 0 89.5 31.5t45.5 121.5v1l-3 1q-59 -80 -145 -80
q-153 0 -125 194l42 304h149l-36 -259q-8 -59 -1.5 -82t33.5 -23q33 0 68.5 44.5t41.5 96.5z" />
    <glyph glyph-name="uni045F" unicode="&#x45f;" horiz-adv-x="539" 
d="M194 -9q-153 0 -125 194l42 304h149l-37 -259q-8 -59 -1 -82t33 -23q32 0 67.5 43.5t42.5 96.5l27 224h150l-60 -489h-147l6 72h-2q-60 -81 -145 -81zM164 -185l16 148h127l-24 -148h-119z" />
    <glyph glyph-name="uni0462" unicode="&#x462;" horiz-adv-x="654" 
d="M436 435q58 0 99 -16.5t62 -45t29.5 -59.5t8.5 -68q-1 -246 -278 -246h-244l63 513h-139l16 127h138l9 70h155l-9 -70h188l-16 -127h-187l-10 -78h115zM368 139q100 0 100 96q0 69 -69 69h-94l-20 -165h83z" />
    <glyph glyph-name="uni0463" unicode="&#x463;" horiz-adv-x="750" 
d="M490 -10q-226 0 -184 226l8 46q20 102 -24 102q-28 0 -57.5 -49t-39.5 -134l-22 -181h-150l60 489h150l-9 -68l3 -1q57 78 136 78q63 0 91.5 -44t13.5 -131l2 -1q56 69 130 69q58 0 97.5 -44t38.5 -115q-3 -111 -68 -176.5t-176 -65.5zM500 114q37 0 60 30t23 69
q0 29 -16.5 41.5t-36.5 12.5q-32 0 -55.5 -23.5t-28.5 -58.5q-4 -31 9.5 -51t44.5 -20z" />
    <glyph glyph-name="uni0472" unicode="&#x472;" horiz-adv-x="739" 
d="M426 720q131 0 210 -80t79 -220q0 -118 -43.5 -215t-130 -156t-201.5 -59q-133 0 -211.5 80t-78.5 223q0 113 45.5 210t132.5 157t198 60zM412 575q-66 0 -114 -41.5t-70 -113.5h325v4q0 74 -38 112.5t-103 38.5zM352 136q66 0 114 40.5t70 113.5h-324v-1
q0 -74 37.5 -113.5t102.5 -39.5z" />
    <glyph glyph-name="uni0473" unicode="&#x473;" horiz-adv-x="524" 
d="M293 498q96 0 152 -54.5t56 -154.5q0 -129 -70.5 -214t-201.5 -85q-95 0 -150.5 56t-55.5 155q0 124 73 210.5t197 86.5zM282 375q-37 0 -64 -22.5t-40 -60.5l180 3q-3 80 -76 80zM241 114q38 0 66 23t40 63l-182 -3q1 -44 22 -63.5t54 -19.5z" />
    <glyph glyph-name="uni0474" unicode="&#x474;" horiz-adv-x="672" 
d="M214 0l-146 710h172l69 -482h2l107 325q31 94 70.5 129.5t111.5 35.5q78 0 142 -32l-51 -132q-33 15 -55 15q-30 0 -48 -25.5t-44 -87.5l-189 -456h-141z" />
    <glyph glyph-name="uni0475" unicode="&#x475;" horiz-adv-x="508" 
d="M132 0l-96 489h155l39 -322h2l62 196q23 77 61 106t92 29q53 0 100 -25l-37 -117q-24 11 -35 11q-22 0 -38.5 -22t-38.5 -73l-113 -272h-153z" />
    <glyph glyph-name="uni048A" unicode="&#x48a;" horiz-adv-x="727" 
d="M409 757q-75 0 -111 33t-43 111l117 10q3 -31 18 -48.5t35 -17.5q45 0 81 70l106 -34q-68 -124 -203 -124zM600 143h112l-5 -41l-115 -239h-109l47 137h-108l52 423l-3 1l-280 -424h-153l87 710h159l-56 -443l3 -1l283 444h155z" />
    <glyph glyph-name="uni048B" unicode="&#x48b;" horiz-adv-x="578" 
d="M338 550q-75 0 -111.5 33t-43.5 111l118 15q2 -35 16 -53t35 -18q22 0 44.5 20t38.5 56l106 -40q-69 -124 -203 -124zM543 119h51l-4 -23l-108 -223h-105l46 126q-54 19 -66 81q-2 6 -2 10h-3q-28 -45 -70 -72t-88 -27q-153 0 -126 194l43 304h149l-37 -259
q-9 -59 -2 -82t33 -23q32 0 67.5 43.5t42.5 93.5l28 227h150l-39 -316q-4 -32 5.5 -42.5t34.5 -11.5z" />
    <glyph glyph-name="uni048C" unicode="&#x48c;" horiz-adv-x="603" 
d="M385 435q58 0 99 -16.5t62 -45t29.5 -59.5t8.5 -68q-1 -246 -278 -246h-244l65 527h-94l14 111h93l9 72h155l-9 -72h140l-14 -111h-139l-12 -92h115zM317 139q100 0 100 96q0 69 -69 69h-94l-20 -165h83z" />
    <glyph glyph-name="uni048D" unicode="&#x48d;" horiz-adv-x="497" 
d="M342 364q64 0 100 -39.5t35 -101.5q-3 -105 -68.5 -169t-178.5 -64q-112 0 -156.5 54.5t-28.5 165.5l24 167h-59l11 91h61l6 45h147l-6 -41h124l-11 -84h-126l-13 -90l2 -1q58 67 137 67zM322 195q3 29 -11.5 44.5t-40.5 15.5q-32 0 -54.5 -18.5t-28.5 -47.5
q-6 -32 7.5 -54t45.5 -22q34 0 57 24.5t25 57.5z" />
    <glyph glyph-name="uni048E" unicode="&#x48e;" horiz-adv-x="587" 
d="M590 514q0 -172 -124 -244l43 -111l-101 -54l-51 130q-24 -3 -50 -3h-84l-28 -232h-157l87 710h265q102 0 151 -53t49 -143zM237 367h83l-34 92l73 39l37 -101q35 37 35 99q0 36 -21.5 54.5t-53.5 18.5h-94z" />
    <glyph glyph-name="uni048F" unicode="&#x48f;" horiz-adv-x="558" 
d="M530 298q0 -82 -28.5 -150t-77.5 -109l44 -97l-92 -52l-47 104q-17 -3 -33 -3q-71 0 -114 33l-4 -1l-27 -221h-150l85 687h150l-9 -73l1 -2q58 84 147 84q74 0 114.5 -56.5t40.5 -143.5zM190 154q22 -30 66 -30q14 0 28 3l-36 84l72 41l32 -74q28 45 28 105q0 36 -15 59
t-40 23q-44 0 -82.5 -53t-51.5 -145z" />
    <glyph glyph-name="uni0490" unicode="&#x490;" horiz-adv-x="517" 
d="M440 848h129l-35 -281h-265l-70 -567h-161l87 710h287z" />
    <glyph glyph-name="uni0491" unicode="&#x491;" horiz-adv-x="399" 
d="M319 609h112l-30 -244h-181l-44 -365h-151l60 489h208z" />
    <glyph glyph-name="uni0492" unicode="&#x492;" horiz-adv-x="550" 
d="M566 567h-266l-22 -180h174l-14 -111h-174l-34 -276h-159l34 276h-93l14 111h92l40 323h426z" />
    <glyph glyph-name="uni0493" unicode="&#x493;" horiz-adv-x="420" 
d="M193 112q56 0 92 46l109 -81q-76 -86 -217 -86q-81 0 -125 31t-45 88q-1 82 103 126l-47 14l20 59l87 -25l3 9l26 13q32 16 43 25.5t11 23.5q0 21 -35 21q-40 0 -84 -36l-79 98q30 25 82.5 42.5t99.5 17.5q71 0 118.5 -30.5t47.5 -87.5q0 -74 -86 -115v-4h-5v2l-28 -12
h-1l22 -7l-21 -60l-44 13l-30 -15q-29 -15 -40 -25t-11 -22q0 -23 34 -23z" />
    <glyph glyph-name="uni0494" unicode="&#x494;" horiz-adv-x="601" 
d="M362 399q90 0 143 -65t53 -180q0 -155 -74 -256.5t-215 -101.5q-33 0 -60 6l20 125q8 -2 24 -2q45 0 77.5 34t46.5 82t14 101q0 116 -89 116q-40 0 -76 -17l-30 -241h-158l87 710h426l-17 -143h-268l-24 -195q56 27 120 27z" />
    <glyph glyph-name="uni0495" unicode="&#x495;" horiz-adv-x="515" 
d="M327 269q67 0 112 -50t45 -136q0 -135 -78.5 -212t-210.5 -77q-43 0 -73 5l30 118q5 -1 23 -1q73 0 115 40t42 109q0 71 -63 71q-29 0 -54.5 -18.5t-28.5 -38.5l-12 -79h-149l60 489h331l-15 -124h-181l-19 -156h3q53 60 123 60z" />
    <glyph glyph-name="uni0496" unicode="&#x496;" horiz-adv-x="942" 
d="M700 377l102 -234h116l-43 -280h-130l11 137h-75l-113 284l-52 -63l-27 -221h-154l26 218l-39 66l-173 -284h-180l244 379l-155 331h188l134 -320l3 1l38 319h156l-40 -315l3 -1l208 316h189z" />
    <glyph glyph-name="uni0497" unicode="&#x497;" horiz-adv-x="762" 
d="M697 119h47l-49 -247h-116l15 123q-83 14 -113 136q-8 33 -9 38q-17 -8 -53 -20l-18 -149h-143l25 203l-1 1q-94 -61 -131 -204h-155q28 143 141 243l-14 47q-13 49 -34.5 65.5t-58.5 19.5l33 122q22 2 45 2q105 0 137 -141l9 -39q22 11 45 18l19 152h142l-25 -206l1 -1
q103 63 137 207h155q-28 -145 -140 -244q3 -8 7.5 -23t6.5 -22q14 -49 35.5 -64.5t59.5 -16.5z" />
    <glyph glyph-name="uni0498" unicode="&#x498;" horiz-adv-x="556" 
d="M422 381q45 -22 73 -65t28 -101q0 -97 -64 -158t-184 -66l-8 -18q71 -16 71 -69q0 -48 -37 -71.5t-101 -23.5q-32 0 -59 6l4 65q14 -5 41 -5q48 0 48 31q0 23 -55 30l26 58q-142 17 -205 117l110 106q49 -80 146 -80q49 0 75 26.5t26 65.5q0 69 -93 69h-96l17 129h82
q49 0 79 22t30 61q0 62 -80 62q-71 0 -127 -45l-89 112q94 79 238 79q101 0 160.5 -43.5t59.5 -120.5q0 -54 -30.5 -100t-85.5 -71v-2z" />
    <glyph glyph-name="uni0499" unicode="&#x499;" horiz-adv-x="442" 
d="M327 258q39 -13 60 -41t21 -65q0 -73 -54 -114t-145 -46l-8 -19q71 -16 71 -69q0 -48 -37 -71.5t-101 -23.5q-32 0 -59 6l4 65q14 -5 41 -5q48 0 48 31q0 23 -55 30l25 57q-82 7 -147 46l52 121q57 -45 135 -45q37 0 59.5 12.5t22.5 36.5q0 35 -62 35l-78 -1l12 95l63 1
q38 1 57.5 14t19.5 32q0 33 -55 33t-115 -28l-55 109q30 17 82 30.5t98 13.5q83 0 138 -33t55 -95q0 -40 -26.5 -68.5t-66.5 -41.5v-2z" />
    <glyph glyph-name="uni049A" unicode="&#x49a;" horiz-adv-x="666" 
d="M409 391l112 -248h119l-43 -280h-130l11 137h-75l-115 278l-67 -79l-24 -199h-159l87 710h159l-35 -290l3 -1l221 291h192z" />
    <glyph glyph-name="uni049B" unicode="&#x49b;" horiz-adv-x="543" 
d="M476 119h47l-49 -247h-116l15 123q-43 7 -69.5 41.5t-46.5 94.5q-5 17 -8 29q-28 -16 -62 -30l-15 -130h-147l60 489h150l-26 -209l2 -1q105 75 139 210h155q-27 -142 -138 -245q3 -8 7.5 -23t6.5 -21q15 -48 36.5 -64t58.5 -17z" />
    <glyph glyph-name="uni049C" unicode="&#x49c;" horiz-adv-x="726" 
d="M768 710l-218 -347l143 -363h-180l-104 290h-10l-22 -173h-102l22 172h-64l-35 -289h-160l87 710h160l-38 -310l64 3l24 194h102l-24 -190h6l161 303h188z" />
    <glyph glyph-name="uni049D" unicode="&#x49d;" horiz-adv-x="574" 
d="M445 200q16 -50 36 -66.5t56 -18.5l-34 -122q-22 -2 -44 -2q-55 0 -84 31t-47 101l-15 66l-5 -2l-16 -131h-72l13 107q-30 -8 -43 -11l-18 -152h-147l60 489h147l-28 -225l2 -1q15 2 40 10l16 127h75l-11 -83q27 24 45.5 57t25.5 55.5t16 59.5h155q-27 -140 -138 -246z
" />
    <glyph glyph-name="uni049E" unicode="&#x49e;" horiz-adv-x="626" 
d="M674 710l-255 -330l175 -380h-183l-114 268l-70 -94l-22 -174h-158l65 534h-78l14 111h78l8 65h159l-8 -65h60l-13 -111h-61l-17 -135l2 -1l226 312h192z" />
    <glyph glyph-name="uni049F" unicode="&#x49f;" horiz-adv-x="511" 
d="M382 200q16 -49 36 -66t56 -19l-34 -122q-22 -2 -45 -2q-53 0 -84.5 36t-53.5 104l-10 31q-31 -20 -60 -32l-15 -130h-147l68 553h-47l11 91h48l11 92h149l-11 -92h119l-11 -91h-119l-34 -273l2 -1q105 75 139 210h155q-27 -140 -138 -246z" />
    <glyph glyph-name="uni04A0" unicode="&#x4a0;" horiz-adv-x="713" 
d="M760 710l-256 -319l176 -391h-182l-115 278l-67 -79l-24 -199h-159l69 567h-159l18 143h318l-35 -290l3 -1l221 291h192z" />
    <glyph glyph-name="uni04A1" unicode="&#x4a1;" horiz-adv-x="572" 
d="M443 200q16 -49 36 -66t56 -19l-34 -122q-22 -2 -45 -2q-53 0 -84.5 36t-53.5 104l-10 31q-31 -20 -60 -32l-15 -130h-147l45 365h-113l15 124h263l-26 -209l2 -1q105 75 139 210h155q-27 -140 -138 -246z" />
    <glyph glyph-name="uni04A2" unicode="&#x4a2;" horiz-adv-x="716" 
d="M689 143l-43 -280h-130l11 137h-117l33 270h-211l-33 -270h-161l87 710h161l-36 -297h211l36 297h162l-70 -567h100z" />
    <glyph glyph-name="uni04A3" unicode="&#x4a3;" horiz-adv-x="607" 
d="M520 119h66l-49 -247h-116l15 121q-128 2 -114 115l9 70l-134 -1l-22 -177h-150l60 489h150l-23 -190l134 1l23 189h150l-41 -323q-3 -30 6.5 -38t35.5 -9z" />
    <glyph glyph-name="uni04A4" unicode="&#x4a4;" horiz-adv-x="796" 
d="M491 710h339l-18 -143h-178l-70 -567h-160l33 270h-205l-33 -270h-161l87 710h161l-36 -297h205z" />
    <glyph glyph-name="uni04A5" unicode="&#x4a5;" horiz-adv-x="628" 
d="M645 489l-15 -124h-136l-44 -365h-148l22 178l-127 -1l-22 -177h-150l60 489h150l-23 -190l127 1l23 189h283z" />
    <glyph glyph-name="uni04A6" unicode="&#x4a6;" horiz-adv-x="944" 
d="M705 399q90 0 143 -65t53 -180q0 -155 -74 -256.5t-215 -101.5q-33 0 -60 6l20 125q8 -2 24 -2q45 0 77.5 34t46.5 82t14 101q0 116 -89 116q-37 0 -74 -16l-30 -242h-158l70 567h-184l-70 -567h-161l87 710h503l-41 -337q57 26 118 26z" />
    <glyph glyph-name="uni04A7" unicode="&#x4a7;" horiz-adv-x="799" 
d="M479 -206q-43 0 -73 5l30 118q5 -1 23 -1q74 0 115.5 39.5t41.5 109.5q0 71 -63 71q-29 0 -54.5 -18.5t-28.5 -38.5l-12 -79h-149l35 265q5 34 4 56t-8.5 32.5t-23.5 10.5q-34 0 -71.5 -49.5t-47.5 -133.5l-22 -181h-150l61 489h149l-8 -68l2 -1q67 78 156 78
q70 0 98 -48.5t15 -150.5l-13 -90h3q53 60 123 60q67 0 112 -50t45 -136q0 -135 -78.5 -212t-210.5 -77z" />
    <glyph glyph-name="uni04A8" unicode="&#x4a8;" horiz-adv-x="808" 
d="M795 32q-44 -41 -134 -41q-97 0 -149 44q-67 -44 -169 -44q-134 0 -217 82t-83 222q0 114 45.5 210t131.5 155t196 59q13 0 39 -2l-34 -140q-6 1 -18 1q-81 0 -137.5 -83.5t-56.5 -189.5q0 -85 45 -134t125 -49q9 0 27 2l1 3q-51 77 -51 175q0 82 27.5 154t81 118
t121.5 46q90 0 136 -56.5t46 -150.5q0 -88 -39 -167t-106 -130v-2q17 -3 32 -3q43 0 85 30zM572 483q-34 0 -57 -68t-23 -132q0 -57 20 -109l4 -1q41 45 63 111t22 130q0 69 -29 69z" />
    <glyph glyph-name="uni04A9" unicode="&#x4a9;" horiz-adv-x="643" 
d="M637 39q-59 -48 -158 -48q-79 0 -131 31q-47 -31 -116 -31q-95 0 -151.5 58t-56.5 157q0 82 36 167t104 139l106 -69q-42 -42 -69 -106.5t-27 -117.5q0 -50 23.5 -80t71.5 -31q-20 46 -20 109q0 108 54 193t142 85q67 0 103.5 -40.5t36.5 -113.5q0 -72 -34.5 -136.5
t-91.5 -103.5l1 -1q66 0 112 46zM421 362q-24 0 -44.5 -56t-20.5 -109q0 -31 7 -51l2 -1q35 32 55 84t20 98q0 35 -19 35z" />
    <glyph glyph-name="uni04AA" unicode="&#x4aa;" horiz-adv-x="656" 
d="M351 145q85 0 146 72l112 -104q-95 -110 -241 -121l-9 -19q71 -16 71 -69q0 -48 -37 -71.5t-101 -23.5q-32 0 -59 6l4 65q14 -5 41 -5q48 0 48 31q0 23 -55 30l26 57q-112 13 -179.5 89.5t-67.5 207.5q0 181 105 305t272 124q70 0 135 -35t111 -113l-127 -96
q-50 91 -128 91q-88 0 -143.5 -82t-55.5 -188q0 -72 35 -111.5t97 -39.5z" />
    <glyph glyph-name="uni04AB" unicode="&#x4ab;" horiz-adv-x="480" 
d="M246 125q46 0 85 47l116 -74q-70 -96 -184 -106l-9 -19q71 -16 71 -69q0 -48 -37 -71.5t-101 -23.5q-32 0 -59 6l4 65q14 -5 41 -5q48 0 48 31q0 23 -55 30l26 58q-78 11 -121 65t-43 145q0 120 69.5 207t190.5 87q126 0 188 -90l-115 -86q-22 43 -69 43q-49 0 -81 -46
t-32 -109q0 -40 18 -62.5t49 -22.5z" />
    <glyph glyph-name="uni04AC" unicode="&#x4ac;" horiz-adv-x="539" 
d="M554 567h-165l-52 -424h100l-43 -280h-130l11 137h-116l70 567h-166l18 143h491z" />
    <glyph glyph-name="uni04AD" unicode="&#x4ad;" horiz-adv-x="867" 
d="M782 119h66l-49 -247h-116l15 121q-134 2 -113 125l23 144q18 102 -26 102q-30 0 -63 -49.5t-44 -134.5l-24 -180h-149l35 265q8 51 2.5 75t-29.5 24q-30 0 -65.5 -47.5t-45.5 -125.5l-23 -191h-150l60 489h150l-8 -61l4 -1q62 71 148 71q84 0 106 -74h5q53 74 157 74
q72 0 100.5 -51.5t13.5 -147.5l-22 -136q-4 -28 6 -35.5t36 -8.5z" />
    <glyph glyph-name="uni04AE" unicode="&#x4ae;" horiz-adv-x="581" 
d="M179 0l39 310l-159 400h176l79 -250h3l138 250h183l-259 -400l-38 -310h-162z" />
    <glyph glyph-name="uni04AF" unicode="&#x4af;" horiz-adv-x="491" 
d="M108 -198l25 189l-97 498h157l46 -339h2q80 148 112 339h154q-49 -276 -224 -493l-26 -194h-149z" />
    <glyph glyph-name="uni04B0" unicode="&#x4b0;" horiz-adv-x="581" 
d="M638 710l-232 -358h114l-14 -111h-135l-30 -241h-162l30 241h-135l14 111h113l-142 358h176l79 -250h3l138 250h183z" />
    <glyph glyph-name="uni04B1" unicode="&#x4b1;" horiz-adv-x="491" 
d="M507 489q-41 -228 -164 -398h66l-12 -91h-113l-27 -198h-149l26 198h-93l11 91h68l-84 398h157l46 -339h2q80 148 112 339h154z" />
    <glyph glyph-name="uni04B2" unicode="&#x4b2;" horiz-adv-x="673" 
d="M431 356l96 -213h122l-43 -280h-130l11 137h-71l-101 236h-4l-158 -236h-179l248 360l-151 350h172l95 -232h5l145 232h185z" />
    <glyph glyph-name="uni04B3" unicode="&#x4b3;" horiz-adv-x="512" 
d="M348 193q22 -45 42 -59t56 -15h46l-49 -247h-116l15 123q-37 5 -62.5 32t-47.5 81l-6 13h-2l-83 -121h-162l178 254l-114 235h166l44 -117h2l72 117h171l-176 -243z" />
    <glyph glyph-name="uni04B4" unicode="&#x4b4;" horiz-adv-x="799" 
d="M773 143l-43 -280h-130l11 137h-457l69 567h-160l18 143h433l-18 -143h-112l-52 -424h180l70 567h160l-69 -567h100z" />
    <glyph glyph-name="uni04B5" unicode="&#x4b5;" horiz-adv-x="603" 
d="M519 696l-14 -115h-326l15 115h325zM543 119h66l-49 -247h-116l15 121q-84 3 -102 87q-2 6 -2 10h-3q-28 -45 -70 -72t-88 -27q-153 0 -126 194l43 304h149l-37 -259q-9 -59 -2 -82t33 -23q32 0 67.5 43.5t42.5 93.5l28 227h150l-39 -316q-4 -32 5.5 -42.5t34.5 -11.5z
" />
    <glyph glyph-name="uni04B6" unicode="&#x4b6;" horiz-adv-x="650" 
d="M553 143h100l-43 -280h-130l11 137h-117l32 265q-69 -41 -164 -41q-181 0 -152 220l36 266h159l-33 -251q-8 -55 5 -75.5t55 -20.5q59 0 110 30l39 317h162z" />
    <glyph glyph-name="uni04B7" unicode="&#x4b7;" horiz-adv-x="575" 
d="M513 119h66l-49 -247h-116l15 121q-128 2 -114 115l12 90h-3q-24 -31 -66 -49.5t-79 -18.5q-138 0 -113 173l26 186h149l-25 -171q-5 -30 3 -45t34 -15q32 0 59.5 26t30.5 51l19 154h149l-40 -323q-3 -30 6.5 -38t35.5 -9z" />
    <glyph glyph-name="uni04B8" unicode="&#x4b8;" horiz-adv-x="640" 
d="M498 710h160l-88 -710h-159l33 267q-19 -9 -51 -19l-17 -135h-102l14 114q-25 -3 -46 -3q-181 0 -152 220l36 266h155l-32 -251q-7 -59 4.5 -80.5t50.5 -22.5l18 144h102l-16 -132q26 6 50 18z" />
    <glyph glyph-name="uni04B9" unicode="&#x4b9;" horiz-adv-x="541" 
d="M396 489h145l-60 -489h-146l26 204h-3q-15 -14 -41 -30l-14 -107h-74l10 74q-38 -11 -64 -11q-134 0 -109 173l26 186h145l-26 -177q-5 -36 3 -50.5t37 -14.5h1l18 138h75l-15 -114q42 27 46 58z" />
    <glyph glyph-name="uni04BA" unicode="&#x4ba;" horiz-adv-x="613" 
d="M430 490q94 0 129.5 -56t20.5 -166l-36 -268h-158l32 247q7 57 -5.5 80t-54.5 23q-63 0 -119 -28l-39 -322h-162l88 710h161l-32 -261q80 41 175 41z" />
    <glyph glyph-name="uni04BB" unicode="&#x4bb;" horiz-adv-x="547" 
d="M25 0l91 736h149l-39 -315l2 -1q67 78 163 78q70 0 98 -48.5t15 -150.5l-39 -299h-150l36 265q7 51 0.5 75t-29.5 24q-39 0 -77.5 -50.5t-48.5 -137.5l-21 -176h-150z" />
    <glyph glyph-name="uni04BC" unicode="&#x4bc;" horiz-adv-x="821" 
d="M327 308v-9q-3 -78 37.5 -119t117.5 -41q87 0 147 75l110 -101q-105 -122 -269 -122q-138 0 -220.5 79.5t-82.5 219.5v18q-73 1 -112 33t-39 89q0 68 40 116l106 -28q-23 -36 -23 -55q0 -28 41 -28h6q34 128 123.5 206t216.5 78q131 0 207 -79.5t76 -220.5
q0 -49 -17 -111h-465zM519 576q-56 0 -98 -35.5t-66 -96.5h298q-2 64 -39.5 98t-94.5 34z" />
    <glyph glyph-name="uni04BD" unicode="&#x4bd;" horiz-adv-x="569" 
d="M556 363q-1 -44 -25.5 -78.5t-66.5 -56t-90.5 -34.5t-106.5 -19q7 -30 26.5 -45t44.5 -15q51 0 89 49l111 -66q-77 -107 -212 -107q-87 0 -142 48.5t-62 132.5h-2q-60 -1 -91.5 25t-30.5 73q2 42 28 89l81 -17q-16 -39 -16 -53q-1 -13 7 -19t29 -7q20 102 90 168.5
t172 66.5q66 0 117 -35.5t50 -99.5zM412 342q1 15 -8.5 23t-26.5 8q-35 0 -64.5 -30t-41.5 -80q140 17 141 79z" />
    <glyph glyph-name="uni04BE" unicode="&#x4be;" horiz-adv-x="821" 
d="M327 308v-9q-3 -78 37.5 -119t117.5 -41q87 0 147 75l110 -101q-87 -103 -221 -119l-20 -131h-130l11 138q-99 24 -155.5 99.5t-56.5 189.5v18q-73 1 -112 33t-39 89q0 68 40 116l106 -28q-23 -36 -23 -55q0 -28 41 -28h6q34 128 123.5 206t216.5 78q131 0 207 -79.5
t76 -220.5q0 -49 -17 -111h-465zM519 576q-56 0 -98 -35.5t-66 -96.5h298q-2 64 -39.5 98t-94.5 34z" />
    <glyph glyph-name="uni04BF" unicode="&#x4bf;" horiz-adv-x="569" 
d="M556 363q-1 -44 -25.5 -78.5t-66.5 -56t-90.5 -34.5t-106.5 -19q7 -30 26.5 -45t44.5 -15q51 0 89 49l111 -66q-62 -86 -159 -103l-20 -123h-116l11 129q-58 17 -92.5 61.5t-39.5 109.5h-2q-60 -1 -91.5 25t-30.5 73q2 42 28 89l81 -17q-16 -39 -16 -53q-1 -13 7 -19
t29 -7q20 102 90 168.5t172 66.5q66 0 117 -35.5t50 -99.5zM412 342q1 15 -8.5 23t-26.5 8q-35 0 -64.5 -30t-41.5 -80q140 17 141 79z" />
    <glyph glyph-name="uni04C0" unicode="&#x4c0;" horiz-adv-x="308" 
d="M43 0l87 710h162l-87 -710h-162z" />
    <glyph glyph-name="uni04C1" unicode="&#x4c1;" horiz-adv-x="894" 
d="M507 757q-75 0 -111 33t-43 111l117 10q3 -31 18 -48.5t35 -17.5q45 0 81 70l106 -34q-68 -124 -203 -124zM937 710l-237 -333l164 -377h-183l-113 284l-52 -63l-27 -221h-154l26 218l-39 66l-173 -284h-180l244 379l-155 331h188l134 -320l3 1l38 319h156l-40 -315l3 -1
l208 316h189z" />
    <glyph glyph-name="uni04C2" unicode="&#x4c2;" horiz-adv-x="723" 
d="M401 550q-75 0 -111.5 33t-43.5 111l118 15q2 -35 16 -53t35 -18q22 0 44.5 20t38.5 56l106 -40q-69 -124 -203 -124zM602 200q14 -49 35 -65.5t58 -19.5l-34 -122q-22 -2 -44 -2q-103 0 -136 140l-9 38q-17 -8 -53 -20l-18 -149h-143l25 203l-1 1q-94 -61 -131 -204
h-155q28 143 141 243l-14 47q-13 49 -34 65.5t-59 19.5l33 121q22 2 45 2q106 0 137 -140l9 -39q22 11 45 18l19 152h142l-25 -206l1 -1q103 63 137 207h155q-28 -145 -140 -244z" />
    <glyph glyph-name="uni04C3" unicode="&#x4c3;" horiz-adv-x="630" 
d="M407 388q77 -21 123 -89t46 -158q0 -147 -74.5 -246t-215.5 -99q-33 0 -60 6l21 125q8 -2 23 -2q46 0 78.5 32.5t46.5 76t14 89.5q0 70 -38 105.5t-99 39.5q-26 2 -40 2l-35 -270h-159l87 710h159l-35 -290l3 -1l221 291h192z" />
    <glyph glyph-name="uni04C4" unicode="&#x4c4;" horiz-adv-x="516" 
d="M361 236q50 -11 82 -55.5t32 -105.5q0 -129 -78.5 -205t-209.5 -76q-43 0 -74 5l31 118q5 -1 23 -1q73 0 115 38.5t42 103.5q0 80 -79 101q-36 -18 -57 -27l-16 -132h-147l60 489h150l-26 -209l2 -1q105 75 139 210h155q-14 -70 -53.5 -138.5t-90.5 -114.5z" />
    <glyph glyph-name="uni04C5" unicode="&#x4c5;" horiz-adv-x="732" 
d="M605 143h112l-5 -41l-115 -239h-109l47 137h-108l70 567h-131q-45 -254 -70 -337q-35 -122 -87 -179.5t-145 -57.5q-45 0 -84 13l24 131q20 -5 33 -5q41 0 70.5 48.5t52.5 140.5q31 119 74 389h441z" />
    <glyph glyph-name="uni04C6" unicode="&#x4c6;" horiz-adv-x="573" 
d="M512 119h50l-4 -23l-108 -223h-105l44 123q-88 18 -76 112l32 257h-18q-27 0 -40.5 -12t-19.5 -38q-5 -19 -17 -69t-20 -81q-44 -172 -184 -172q-41 0 -67 11l24 122q12 -4 25 -4q49 0 76 119q17 77 21 102q29 146 173 146h211l-39 -323q-3 -30 6 -38t36 -9z" />
    <glyph glyph-name="uni04C7" unicode="&#x4c7;" horiz-adv-x="670" 
d="M659 710l-88 -710q-14 -111 -74 -157.5t-163 -46.5q-40 0 -64 6l20 122q18 -3 32 -3q40 0 61 19t26 60l33 270h-210l-33 -270h-161l87 710h161l-36 -297h210l36 297h163z" />
    <glyph glyph-name="uni04C8" unicode="&#x4c8;" horiz-adv-x="545" 
d="M371 489h150l-60 -489q-12 -100 -68 -152.5t-143 -52.5q-39 0 -72 8l26 114q15 -3 27 -3q70 0 83 112l19 152l-136 -1l-22 -177h-150l60 489h150l-23 -190l136 1z" />
    <glyph glyph-name="uni04C9" unicode="&#x4c9;" horiz-adv-x="717" 
d="M589 143h112l-5 -41l-115 -239h-109l47 137h-109l33 270h-211l-33 -270h-161l87 710h161l-36 -297h211l36 297h162z" />
    <glyph glyph-name="uni04CA" unicode="&#x4ca;" horiz-adv-x="582" 
d="M520 119h51l-4 -23l-108 -223h-105l44 123q-88 18 -76 112l9 70l-134 -1l-22 -177h-150l60 489h150l-23 -190l134 1l23 189h150l-41 -323q-3 -30 6.5 -38t35.5 -9z" />
    <glyph glyph-name="uni04CB" unicode="&#x4cb;" horiz-adv-x="604" 
d="M461 710h162l-88 -710h-122l-26 -137h-128l29 265h102l16 137q-69 -41 -164 -41q-181 0 -152 220l36 266h159l-33 -251q-8 -55 5 -75.5t55 -20.5q59 0 110 30z" />
    <glyph glyph-name="uni04CC" unicode="&#x4cc;" horiz-adv-x="516" 
d="M367 489h149l-60 -489h-92q-27 0 -32 -23l-20 -105h-116l16 129q5 43 25.5 61t57.5 20l23 2l14 114h-3q-27 -31 -70 -49.5t-80 -18.5q-138 0 -113 173l26 186h149l-25 -171q-5 -30 3 -45t34 -15q32 0 62 26.5t33 50.5z" />
    <glyph glyph-name="uni04CD" unicode="&#x4cd;" horiz-adv-x="845" 
d="M718 143h112l-5 -41l-115 -239h-109l47 137h-105l47 388l-2 1l-150 -257h-97l-95 266l-2 -1l-49 -397h-157l87 710h157l131 -386h3l214 386h157z" />
    <glyph glyph-name="uni04CE" unicode="&#x4ce;" horiz-adv-x="682" 
d="M621 119h50l-4 -23l-108 -223h-105l45 124q-84 17 -72 111l19 147h-2l-94 -170h-97l-51 173h-2l-32 -258h-144l60 489h155l82 -264h2l141 264h155l-40 -323q-3 -30 6 -38t36 -9z" />
    <glyph glyph-name="uni04CF" unicode="&#x4cf;" horiz-adv-x="268" 
d="M30 0l90 736h151l-91 -736h-150z" />
    <glyph glyph-name="uni04D0" unicode="&#x4d0;" horiz-adv-x="635" 
d="M387 757q-75 0 -111 33t-43 111l117 10q3 -31 18 -48.5t35 -17.5q45 0 81 70l106 -34q-68 -124 -203 -124zM-23 0l320 710h154l146 -710h-166l-22 131h-213l-51 -131h-168zM247 266h141l-42 249h-2z" />
    <glyph glyph-name="uni04D1" unicode="&#x4d1;" horiz-adv-x="553" 
d="M322 550q-75 0 -111.5 33t-43.5 111l118 15q2 -35 16 -53t35 -18q22 0 44.5 20t38.5 56l106 -40q-69 -124 -203 -124zM186 -9q-76 0 -117.5 56t-41.5 144q0 130 67 218.5t164 88.5q74 0 115 -43h3l4 34h151l-60 -489h-151l9 72l-3 1q-57 -82 -140 -82zM234 124
q42 0 79.5 51.5t49.5 139.5l2 14q-33 35 -81 35q-47 0 -76.5 -51t-29.5 -111q0 -35 15.5 -56.5t40.5 -21.5z" />
    <glyph glyph-name="uni04D2" unicode="&#x4d2;" horiz-adv-x="635" 
d="M287 776q-39 0 -64.5 24.5t-25.5 61.5q0 38 26 63t67 25q40 0 65 -24t25 -61q0 -39 -26 -64t-67 -25zM504 776q-39 0 -64.5 24.5t-25.5 61.5q0 39 26 63.5t68 24.5q39 0 64 -24t25 -61q0 -39 -26 -64t-67 -25zM-23 0l320 710h154l146 -710h-166l-22 131h-213l-51 -131
h-168zM247 266h141l-42 249h-2z" />
    <glyph glyph-name="uni04D3" unicode="&#x4d3;" horiz-adv-x="553" 
d="M221 552q-39 0 -64.5 24.5t-25.5 61.5q0 38 26 63t67 25q40 0 65 -24t25 -61q0 -39 -26 -64t-67 -25zM438 552q-39 0 -64.5 24.5t-25.5 61.5q0 39 26 63.5t68 24.5q39 0 64 -24t25 -61q0 -39 -26 -64t-67 -25zM186 -9q-76 0 -117.5 56t-41.5 144q0 130 67 218.5t164 88.5
q74 0 115 -43h3l4 34h151l-60 -489h-151l9 72l-3 1q-57 -82 -140 -82zM234 124q42 0 79.5 51.5t49.5 139.5l2 14q-33 35 -81 35q-47 0 -76.5 -51t-29.5 -111q0 -35 15.5 -56.5t40.5 -21.5z" />
    <glyph glyph-name="uni04D4" unicode="&#x4d4;" horiz-adv-x="866" 
d="M-30 0l390 710h505l-18 -143h-267l-18 -145h215l-18 -139h-214l-17 -140h286l-18 -143h-441l17 131h-162l-69 -131h-171zM280 267h109l32 264h-2z" />
    <glyph glyph-name="uni04D5" unicode="&#x4d5;" horiz-adv-x="688" 
d="M476 115q45 0 79 48l111 -66q-73 -106 -197 -106q-120 0 -160 87q-51 -88 -140 -88q-69 0 -112 49.5t-42 134.5q1 137 73 227t195 90q69 0 118 -25q54 32 122 32q67 0 115 -35t48 -100q0 -78 -80.5 -127t-202.5 -61q6 -30 27 -45t46 -15zM510 373q-31 0 -60 -30t-42 -78
q134 21 134 83q0 25 -32 25zM200 118q49 0 84 162q11 51 31 89h-10q-61 0 -100.5 -55t-39.5 -134q0 -29 10 -45.5t25 -16.5z" />
    <glyph glyph-name="uni04D6" unicode="&#x4d6;" horiz-adv-x="547" 
d="M348 756q-75 0 -111 33t-43 111l117 10q3 -31 18 -48.5t35 -17.5q45 0 81 70l106 -34q-68 -124 -203 -124zM37 0l87 710h422l-18 -143h-265l-18 -145h209l-16 -138h-209l-18 -141h284l-18 -143h-440z" />
    <glyph glyph-name="uni04D7" unicode="&#x4d7;" horiz-adv-x="476" 
d="M295 550q-75 0 -111.5 33t-43.5 111l118 15q2 -35 16 -53t35 -18q22 0 44.5 20t38.5 56l106 -40q-69 -124 -203 -124zM297 498q66 0 117 -35.5t50 -99.5q-3 -156 -289 -186q6 -31 26 -46.5t44 -15.5q52 0 89 49l112 -66q-78 -107 -213 -107q-93 0 -149 55.5t-55 149.5
q0 128 73.5 215t194.5 87zM320 342q1 15 -9 23t-27 8q-33 0 -62.5 -28.5t-41.5 -77.5q139 15 140 75z" />
    <glyph glyph-name="uni04D8" unicode="&#x4d8;" horiz-adv-x="704" 
d="M391 719q133 0 212 -79.5t79 -219.5q0 -181 -98.5 -305t-261.5 -124q-131 0 -207 79t-76 219q0 50 17 112h463v10q0 77 -39 118.5t-101 41.5q-77 0 -141 -59l-95 119q49 40 115.5 64t132.5 24zM330 134q117 0 163 131h-297q1 -63 39 -97t95 -34z" />
    <glyph glyph-name="uni04D9" unicode="&#x4d9;" horiz-adv-x="468" 
d="M239 498q96 0 151.5 -56t55.5 -154q0 -128 -72 -212.5t-200 -84.5q-70 0 -117 36t-47 101q0 58 42.5 100t104.5 63t142 30q-13 54 -73 54q-45 0 -92 -40l-79 96q33 29 83.5 48t100.5 19zM190 116q40 0 67.5 30t39.5 81q-143 -22 -143 -82q0 -29 36 -29z" />
    <glyph glyph-name="uni04DA" unicode="&#x4da;" horiz-adv-x="704" 
d="M328 776q-39 0 -64.5 24.5t-25.5 61.5q0 38 26 63t67 25q40 0 65 -24t25 -61q0 -39 -26 -64t-67 -25zM545 776q-39 0 -64.5 24.5t-25.5 61.5q0 39 26 63.5t68 24.5q39 0 64 -24t25 -61q0 -39 -26 -64t-67 -25zM391 719q133 0 212 -79.5t79 -219.5q0 -181 -98.5 -305
t-261.5 -124q-131 0 -207 79t-76 219q0 50 17 112h463v10q0 77 -39 118.5t-101 41.5q-77 0 -141 -59l-95 119q49 40 115.5 64t132.5 24zM330 134q117 0 163 131h-297q1 -63 39 -97t95 -34z" />
    <glyph glyph-name="uni04DB" unicode="&#x4db;" horiz-adv-x="468" 
d="M178 552q-39 0 -64.5 24.5t-25.5 61.5q0 38 26 63t67 25q40 0 65 -24t25 -61q0 -39 -26 -64t-67 -25zM399 726q39 0 64 -24t25 -61q0 -39 -26 -64t-67 -25q-39 0 -64.5 24.5t-25.5 61.5q0 39 26 63.5t68 24.5zM239 498q96 0 151.5 -56t55.5 -154q0 -128 -72 -212.5
t-200 -84.5q-70 0 -117 36t-47 101q0 58 42.5 100t104.5 63t142 30q-13 54 -73 54q-45 0 -92 -40l-79 96q33 29 83.5 48t100.5 19zM190 116q40 0 67.5 30t39.5 81q-143 -22 -143 -82q0 -29 36 -29z" />
    <glyph glyph-name="uni04DC" unicode="&#x4dc;" horiz-adv-x="894" 
d="M407 776q-39 0 -64.5 24.5t-25.5 61.5q0 38 26 63t67 25q40 0 65 -24t25 -61q0 -39 -26 -64t-67 -25zM624 776q-39 0 -64.5 24.5t-25.5 61.5q0 39 26 63.5t68 24.5q39 0 64 -24t25 -61q0 -39 -26 -64t-67 -25zM937 710l-237 -333l164 -377h-183l-113 284l-52 -63
l-27 -221h-154l26 218l-39 66l-173 -284h-180l244 379l-155 331h188l134 -320l3 1l38 319h156l-40 -315l3 -1l208 316h189z" />
    <glyph glyph-name="uni04DD" unicode="&#x4dd;" horiz-adv-x="723" 
d="M300 552q-39 0 -64.5 24.5t-25.5 61.5q0 38 26 63t67 25q40 0 65 -24t25 -61q0 -39 -26 -64t-67 -25zM517 552q-39 0 -64.5 24.5t-25.5 61.5q0 39 26 63.5t68 24.5q39 0 64 -24t25 -61q0 -39 -26 -64t-67 -25zM602 200q14 -49 35 -65.5t58 -19.5l-34 -122q-22 -2 -44 -2
q-103 0 -136 140l-9 38q-17 -8 -53 -20l-18 -149h-143l25 203l-1 1q-94 -61 -131 -204h-155q28 143 141 243l-14 47q-13 49 -34 65.5t-59 19.5l33 121q22 2 45 2q106 0 137 -140l9 -39q22 11 45 18l19 152h142l-25 -206l1 -1q103 63 137 207h155q-28 -145 -140 -244z" />
    <glyph glyph-name="uni04DE" unicode="&#x4de;" horiz-adv-x="556" 
d="M242 776q-39 0 -64.5 24.5t-25.5 61.5q0 38 26 63t67 25q40 0 65 -24t25 -61q0 -39 -26 -64t-67 -25zM459 776q-39 0 -64.5 24.5t-25.5 61.5q0 39 26 63.5t68 24.5q39 0 64 -24t25 -61q0 -39 -26 -64t-67 -25zM255 -9q-180 0 -255 120l110 106q49 -80 146 -80
q49 0 75 26.5t26 65.5q0 69 -93 69h-96l17 129h82q49 0 79 22t30 61q0 62 -80 62q-71 0 -127 -45l-89 112q94 79 238 79q101 0 160.5 -43.5t59.5 -120.5q0 -54 -30.5 -100t-85.5 -71v-2q45 -22 73 -65t28 -101q0 -101 -69.5 -162.5t-198.5 -61.5z" />
    <glyph glyph-name="uni04DF" unicode="&#x4df;" horiz-adv-x="442" 
d="M147 552q-39 0 -64.5 24.5t-25.5 61.5q0 38 26 63t67 25q40 0 65 -24t25 -61q0 -39 -26 -64t-67 -25zM364 552q-39 0 -64.5 24.5t-25.5 61.5q0 39 26 63.5t68 24.5q39 0 64 -24t25 -61q0 -39 -26 -64t-67 -25zM187 -9q-117 0 -196 48l52 121q57 -45 135 -45
q37 0 59.5 12.5t22.5 36.5q0 35 -62 35l-78 -1l12 95l63 1q38 1 57.5 14t19.5 32q0 33 -55 33t-115 -28l-55 109q30 17 82 30.5t98 13.5q83 0 138 -33t55 -95q0 -40 -26.5 -68.5t-66.5 -41.5v-2q39 -13 60 -41t21 -65q0 -77 -60.5 -119t-160.5 -42z" />
    <glyph glyph-name="uni04E0" unicode="&#x4e0;" horiz-adv-x="546" 
d="M255 -9q-180 0 -255 120l110 106q49 -80 146 -80q49 0 75 26t26 62q0 45 -36 63.5t-113 18.5h-44l7 76l172 181l-2 3h-236l17 143h430l-13 -101l-178 -190v-2q162 -34 162 -192q0 -108 -69 -171t-199 -63z" />
    <glyph glyph-name="uni04E1" unicode="&#x4e1;" horiz-adv-x="418" 
d="M402 489l-9 -76l-160 -165q62 -10 105.5 -59t43.5 -127q0 -126 -71 -197.5t-196 -71.5q-107 0 -172 42l47 119q55 -31 116 -31q57 0 90.5 34.5t33.5 94.5q0 45 -27 70.5t-69 25.5q-25 0 -45 -7l-30 81l132 145v3h-159l14 119h356z" />
    <glyph glyph-name="uni04E2" unicode="&#x4e2;" horiz-adv-x="680" 
d="M267 784l15 110h285l-14 -110h-286zM38 0l87 710h159l-56 -443l3 -1l283 444h155l-87 -710h-160l52 423l-3 1l-280 -424h-153z" />
    <glyph glyph-name="uni04E3" unicode="&#x4e3;" horiz-adv-x="539" 
d="M199 582l15 115h285l-14 -115h-286zM194 -9q-153 0 -125 194l42 304h149l-37 -259q-8 -59 -1 -82t33 -23q32 0 67.5 43.5t42.5 96.5l27 224h150l-60 -489h-147l6 72h-2q-60 -81 -145 -81z" />
    <glyph glyph-name="uni04E4" unicode="&#x4e4;" horiz-adv-x="680" 
d="M309 776q-39 0 -64.5 24.5t-25.5 61.5q0 38 26 63t67 25q40 0 65 -24t25 -61q0 -39 -26 -64t-67 -25zM526 776q-39 0 -64.5 24.5t-25.5 61.5q0 39 26 63.5t68 24.5q39 0 64 -24t25 -61q0 -39 -26 -64t-67 -25zM38 0l87 710h159l-56 -443l3 -1l283 444h155l-87 -710h-160
l52 423l-3 1l-280 -424h-153z" />
    <glyph glyph-name="uni04E5" unicode="&#x4e5;" horiz-adv-x="539" 
d="M238 552q-39 0 -64.5 24.5t-25.5 61.5q0 38 26 63t67 25q40 0 65 -24t25 -61q0 -39 -26 -64t-67 -25zM455 552q-39 0 -64.5 24.5t-25.5 61.5q0 39 26 63.5t68 24.5q39 0 64 -24t25 -61q0 -39 -26 -64t-67 -25zM194 -9q-153 0 -125 194l42 304h149l-37 -259q-8 -59 -1 -82
t33 -23q32 0 67.5 43.5t42.5 96.5l27 224h150l-60 -489h-147l6 72h-2q-60 -81 -145 -81z" />
    <glyph glyph-name="uni04E6" unicode="&#x4e6;" horiz-adv-x="739" 
d="M362 776q-39 0 -64.5 24.5t-25.5 61.5q0 38 26 63t67 25q40 0 65 -24t25 -61q0 -39 -26 -64t-67 -25zM579 776q-39 0 -64.5 24.5t-25.5 61.5q0 39 26 63.5t68 24.5q39 0 64 -24t25 -61q0 -39 -26 -64t-67 -25zM339 -9q-132 0 -210.5 79.5t-78.5 221.5q0 114 45.5 210.5
t132.5 156.5t198 60q132 0 211 -79.5t79 -219.5q0 -118 -43.5 -214.5t-130.5 -155.5t-203 -59zM351 141q86 0 142 78t56 192q0 79 -37.5 119t-100.5 40q-82 0 -138 -81t-56 -187q0 -79 36.5 -120t97.5 -41z" />
    <glyph glyph-name="uni04E7" unicode="&#x4e7;" horiz-adv-x="535" 
d="M214 552q-39 0 -64.5 24.5t-25.5 61.5q0 38 26 63t67 25q40 0 65 -24t25 -61q0 -39 -26 -64t-67 -25zM431 552q-39 0 -64.5 24.5t-25.5 61.5q0 39 26 63.5t68 24.5q39 0 64 -24t25 -61q0 -39 -26 -64t-67 -25zM235 -9q-94 0 -150.5 55.5t-56.5 154.5q0 124 73 210.5
t197 86.5q96 0 152.5 -55.5t56.5 -153.5q0 -128 -69.5 -213t-202.5 -85zM246 125q48 0 78.5 46t30.5 108q0 47 -21 66t-48 19q-47 0 -76.5 -47.5t-29.5 -107.5q0 -41 19.5 -62.5t46.5 -21.5z" />
    <glyph glyph-name="uni04E8" unicode="&#x4e8;" horiz-adv-x="739" 
d="M426 720q131 0 210 -80t79 -220q0 -118 -43.5 -215t-130 -156t-201.5 -59q-133 0 -211.5 80t-78.5 223q0 113 45.5 210t132.5 157t198 60zM412 575q-66 0 -114 -41.5t-70 -113.5h325v4q0 74 -38 112.5t-103 38.5zM352 136q66 0 114 40.5t70 113.5h-324v-1
q0 -74 37.5 -113.5t102.5 -39.5z" />
    <glyph glyph-name="uni04E9" unicode="&#x4e9;" horiz-adv-x="524" 
d="M293 498q96 0 152 -54.5t56 -154.5q0 -129 -70.5 -214t-201.5 -85q-95 0 -150.5 56t-55.5 155q0 124 73 210.5t197 86.5zM282 375q-37 0 -64 -22.5t-40 -60.5l180 3q-3 80 -76 80zM241 114q38 0 66 23t40 63l-182 -3q1 -44 22 -63.5t54 -19.5z" />
    <glyph glyph-name="uni04EA" unicode="&#x4ea;" horiz-adv-x="739" 
d="M362 776q-39 0 -64.5 24.5t-25.5 61.5q0 38 26 63t67 25q40 0 65 -24t25 -61q0 -39 -26 -64t-67 -25zM579 776q-39 0 -64.5 24.5t-25.5 61.5q0 39 26 63.5t68 24.5q39 0 64 -24t25 -61q0 -39 -26 -64t-67 -25zM426 720q131 0 210 -80t79 -220q0 -118 -43.5 -215
t-130 -156t-201.5 -59q-133 0 -211.5 80t-78.5 223q0 113 45.5 210t132.5 157t198 60zM412 575q-66 0 -114 -41.5t-70 -113.5h325v4q0 74 -38 112.5t-103 38.5zM352 136q66 0 114 40.5t70 113.5h-324v-1q0 -74 37.5 -113.5t102.5 -39.5z" />
    <glyph glyph-name="uni04EB" unicode="&#x4eb;" horiz-adv-x="524" 
d="M209 552q-39 0 -64.5 24.5t-25.5 61.5q0 38 26 63t67 25q40 0 65 -24t25 -61q0 -39 -26 -64t-67 -25zM426 552q-39 0 -64.5 24.5t-25.5 61.5q0 39 26 63.5t68 24.5q39 0 64 -24t25 -61q0 -39 -26 -64t-67 -25zM293 498q96 0 152 -54.5t56 -154.5q0 -129 -70.5 -214
t-201.5 -85q-95 0 -150.5 56t-55.5 155q0 124 73 210.5t197 86.5zM282 375q-37 0 -64 -22.5t-40 -60.5l180 3q-3 80 -76 80zM241 114q38 0 66 23t40 63l-182 -3q1 -44 22 -63.5t54 -19.5z" />
    <glyph glyph-name="uni04EC" unicode="&#x4ec;" horiz-adv-x="647" 
d="M270 776q-39 0 -64.5 24.5t-25.5 61.5q0 38 26 63t67 25q40 0 65 -24t25 -61q0 -39 -26 -64t-67 -25zM487 776q-39 0 -64.5 24.5t-25.5 61.5q0 39 26 63.5t68 24.5q39 0 64 -24t25 -61q0 -39 -26 -64t-67 -25zM333 720q140 0 215.5 -82t75.5 -221q0 -187 -95.5 -306.5
t-267.5 -119.5q-181 0 -258 119l114 101q44 -73 143 -73q75 0 122.5 41.5t66.5 111.5h-262l16 131h263q-3 73 -43 112t-111 39q-75 0 -139 -53l-89 115q105 85 249 85z" />
    <glyph glyph-name="uni04ED" unicode="&#x4ed;" horiz-adv-x="472" 
d="M160 552q-39 0 -64.5 24.5t-25.5 61.5q0 38 26 63t67 25q40 0 65 -24t25 -61q0 -39 -26 -64t-67 -25zM381 726q39 0 64 -24t25 -61q0 -39 -26 -64t-67 -25q-39 0 -64.5 24.5t-25.5 61.5q0 39 26 63.5t68 24.5zM233 498q98 0 154.5 -55.5t55.5 -158.5q-2 -131 -74 -212
t-200 -81q-122 0 -182 69l92 94q30 -37 92 -37q90 0 118 84l-182 -2l12 95l179 2q-4 79 -83 79q-47 0 -91 -39l-78 96q33 29 83 47.5t104 18.5z" />
    <glyph glyph-name="uni04EE" unicode="&#x4ee;" horiz-adv-x="605" 
d="M522 894l-14 -110h-286l15 110h285zM479 710h180l-273 -527q-50 -99 -94.5 -145.5t-116.5 -46.5q-82 0 -129 33l51 134q32 -24 65 -24q49 0 90 81l-191 495h176l96 -317h5z" />
    <glyph glyph-name="uni04EF" unicode="&#x4ef;" horiz-adv-x="534" 
d="M463 697l-14 -115h-286l15 115h285zM363 489h149l-52 -423q-32 -273 -276 -273q-99 0 -177 48l47 113q58 -38 122 -38q57 0 89.5 31.5t45.5 121.5v1l-3 1q-59 -80 -145 -80q-153 0 -125 194l42 304h149l-36 -259q-8 -59 -1.5 -82t33.5 -23q33 0 68.5 44.5t41.5 96.5z" />
    <glyph glyph-name="uni04F0" unicode="&#x4f0;" horiz-adv-x="605" 
d="M264 776q-39 0 -64.5 24.5t-25.5 61.5q0 38 26 63t67 25q40 0 65 -24t25 -61q0 -39 -26 -64t-67 -25zM481 776q-39 0 -64.5 24.5t-25.5 61.5q0 39 26 63.5t68 24.5q39 0 64 -24t25 -61q0 -39 -26 -64t-67 -25zM479 710h180l-273 -527q-50 -99 -94.5 -145.5t-116.5 -46.5
q-82 0 -129 33l51 134q32 -24 65 -24q49 0 90 81l-191 495h176l96 -317h5z" />
    <glyph glyph-name="uni04F1" unicode="&#x4f1;" horiz-adv-x="534" 
d="M202 552q-39 0 -64.5 24.5t-25.5 61.5q0 38 26 63t67 25q40 0 65 -24t25 -61q0 -39 -26 -64t-67 -25zM419 552q-39 0 -64.5 24.5t-25.5 61.5q0 39 26 63.5t68 24.5q39 0 64 -24t25 -61q0 -39 -26 -64t-67 -25zM335 266l28 223h149l-52 -423q-32 -273 -276 -273
q-99 0 -177 48l47 113q58 -38 122 -38q57 0 89.5 31.5t45.5 121.5v1l-3 1q-59 -80 -145 -80q-153 0 -125 194l42 304h149l-36 -259q-8 -59 -1.5 -82t33.5 -23q33 0 68.5 44.5t41.5 96.5z" />
    <glyph glyph-name="uni04F2" unicode="&#x4f2;" horiz-adv-x="605" 
d="M461 931l-130 -150h-135l117 149zM538 781h-135l116 149l148 1zM338 393l141 317h180l-273 -527q-50 -99 -94.5 -145.5t-116.5 -46.5q-82 0 -129 33l51 134q32 -24 65 -24q49 0 90 81l-191 495h176l96 -317h5z" />
    <glyph glyph-name="uni04F3" unicode="&#x4f3;" horiz-adv-x="534" 
d="M382 707l-130 -150h-135l117 149zM459 557h-135l116 149l148 1zM335 266l28 223h149l-52 -423q-32 -273 -276 -273q-99 0 -177 48l47 113q58 -38 122 -38q57 0 89.5 31.5t45.5 121.5v1l-3 1q-59 -80 -145 -80q-153 0 -125 194l42 304h149l-36 -259q-8 -59 -1.5 -82
t33.5 -23q33 0 68.5 44.5t41.5 96.5z" />
    <glyph glyph-name="uni04F4" unicode="&#x4f4;" horiz-adv-x="604" 
d="M286 776q-39 0 -64.5 24.5t-25.5 61.5q0 38 26 63t67 25q40 0 65 -24t25 -61q0 -39 -26 -64t-67 -25zM503 776q-39 0 -64.5 24.5t-25.5 61.5q0 39 26 63.5t68 24.5q39 0 64 -24t25 -61q0 -39 -26 -64t-67 -25zM461 710h162l-88 -710h-161l32 265q-69 -41 -164 -41
q-181 0 -152 220l36 266h159l-33 -251q-8 -55 5 -75.5t55 -20.5q59 0 110 30z" />
    <glyph glyph-name="uni04F5" unicode="&#x4f5;" horiz-adv-x="516" 
d="M215 552q-39 0 -64.5 24.5t-25.5 61.5q0 38 26 63t67 25q40 0 65 -24t25 -61q0 -39 -26 -64t-67 -25zM432 552q-39 0 -64.5 24.5t-25.5 61.5q0 39 26 63.5t68 24.5q39 0 64 -24t25 -61q0 -39 -26 -64t-67 -25zM307 0l25 198h-3q-27 -31 -70 -49.5t-80 -18.5
q-138 0 -113 173l26 186h149l-25 -171q-5 -30 3 -45t34 -15q32 0 62 26.5t33 50.5l19 154h149l-60 -489h-149z" />
    <glyph glyph-name="uni04F6" unicode="&#x4f6;" horiz-adv-x="517" 
d="M534 567h-265l-52 -424h100l-43 -280h-130l11 137h-117l87 710h426z" />
    <glyph glyph-name="uni04F7" unicode="&#x4f7;" horiz-adv-x="420" 
d="M236 -128l22 160l-2 1q-49 -42 -115 -42q-61 0 -97 32t-37 88q-1 54 33 92.5t102 73.5l57 30q33 16 43.5 25t10.5 23q0 20 -34 20q-39 0 -85 -40l-79 103q30 25 82.5 42.5t99.5 17.5q71 0 118.5 -31.5t47.5 -92.5q0 -56 -31.5 -90.5t-89.5 -64.5l-72 -38q-29 -15 -40 -25
t-11 -21q0 -23 32 -23q54 0 93 50l110 -81l-42 -209h-116z" />
    <glyph glyph-name="uni04F8" unicode="&#x4f8;" horiz-adv-x="867" 
d="M395 776q-39 0 -64.5 24.5t-25.5 61.5q0 38 26 63t67 25q40 0 65 -24t25 -61q0 -39 -26 -64t-67 -25zM612 776q-39 0 -64.5 24.5t-25.5 61.5q0 39 26 63.5t68 24.5q39 0 64 -24t25 -61q0 -39 -26 -64t-67 -25zM38 0l87 710h158l-31 -252h98q60 0 103 -17.5t65 -48
t31 -63.5t9 -72q-1 -132 -73 -194.5t-216 -62.5h-231zM607 0l87 710h162l-87 -710h-162zM213 141h67q112 0 112 105q0 34 -19 53.5t-57 19.5h-81z" />
    <glyph glyph-name="uni04F9" unicode="&#x4f9;" horiz-adv-x="723" 
d="M306 552q-39 0 -64.5 24.5t-25.5 61.5q0 38 26 63t67 25q40 0 65 -24t25 -61q0 -39 -26 -64t-67 -25zM523 552q-39 0 -64.5 24.5t-25.5 61.5q0 39 26 63.5t68 24.5q39 0 64 -24t25 -61q0 -39 -26 -64t-67 -25zM236 -10q-111 0 -156 54.5t-29 165.5l40 279h149l-25 -161
l2 -1q19 28 52.5 46t70.5 18q59 0 98.5 -44t38.5 -115q-2 -111 -66.5 -176.5t-174.5 -65.5zM505 0l60 489h150l-60 -489h-150zM246 114q35 0 57.5 30t22.5 69q0 29 -15.5 41.5t-34.5 12.5q-32 0 -55.5 -23.5t-28.5 -58.5q-4 -31 9.5 -51t44.5 -20z" />
    <glyph glyph-name="uni04FA" unicode="&#x4fa;" horiz-adv-x="550" 
d="M566 567h-266l-22 -180h174l-14 -111h-174l-34 -276h-1l-1 -10q-14 -113 -62.5 -154t-131.5 -41q-43 0 -71 7l22 122q15 -3 28 -3q28 0 40 18.5t18 67.5l33 269h-92l14 111h91l39 323h428z" />
    <glyph glyph-name="uni04FB" unicode="&#x4fb;" horiz-adv-x="420" 
d="M191 112q54 0 93 50l110 -81l-11 -81q-14 -100 -69.5 -152.5t-142.5 -52.5q-39 0 -72 8l26 113q15 -3 27 -3q47 0 69 27t31 83l1 8l-1 1q-51 -42 -111 -41q-61 1 -97 32.5t-37 87.5q-1 80 100 124l1 2l-67 21l29 83l122 -39l7 4q32 16 43 25.5t11 23.5q0 21 -35 21
q-40 0 -84 -36l-79 98q30 25 82.5 42.5t99.5 17.5q71 0 118.5 -30.5t47.5 -87.5q0 -74 -86 -115v-2l72 -23l-29 -84l-124 40l-26 -14q-29 -15 -40 -25t-11 -22q0 -23 32 -23z" />
    <glyph glyph-name="uni04FC" unicode="&#x4fc;" horiz-adv-x="613" 
d="M321 -204q-31 0 -64 6l21 125q10 -2 27 -2q43 0 69.5 25t26.5 66q0 40 -33 106l-53 114h-4l-158 -236h-179l248 360l-151 350h172l95 -232h5l145 232h185l-242 -354l74 -144q60 -124 60 -191q0 -103 -68 -164t-176 -61z" />
    <glyph glyph-name="uni04FD" unicode="&#x4fd;" horiz-adv-x="472" 
d="M167 -206q-41 0 -75 5l30 118q11 -1 23 -1q61 0 94 24.5t33 63.5q-1 42 -46 117h-2l-83 -121h-162l178 254l-114 235h166l44 -117h2l72 117h171l-178 -244q8 -14 33 -54.5t36.5 -62.5t23.5 -56.5t12 -64.5q1 -96 -69 -154.5t-189 -58.5z" />
    <glyph glyph-name="uni04FE" unicode="&#x4fe;" horiz-adv-x="629" 
d="M562 284h-106l136 -284h-176l-101 240h-4l-158 -240h-179l205 284h-104l14 111h126l-144 315h172l96 -242h5l144 242h185l-218 -315h121z" />
    <glyph glyph-name="uni04FF" unicode="&#x4ff;" horiz-adv-x="477" 
d="M423 195h-84l100 -195h-159l-54 127h-2l-84 -127h-161l148 193h-76l11 90h87l-106 206h165l46 -131h1l74 131h169l-159 -205l96 1z" />
    <glyph glyph-name="uni0510" unicode="&#x510;" horiz-adv-x="556" 
d="M255 -9q-115 0 -173.5 50t-58.5 128q0 70 40 122t99 77v2q-72 59 -72 149q0 96 69.5 148.5t179.5 52.5q165 0 237 -108l-110 -106q-48 67 -126 67q-38 1 -63.5 -20.5t-25.5 -57.5q0 -29 19.5 -48.5t52.5 -19.5h88l-16 -129h-99q-46 0 -76.5 -27t-30.5 -63q0 -31 23 -50.5
t70 -19.5q81 0 147 74l108 -105q-96 -116 -282 -116z" />
    <glyph glyph-name="uni0511" unicode="&#x511;" horiz-adv-x="446" 
d="M192 -9q-82 0 -131 33.5t-49 96.5q0 45 29.5 82t74.5 54v2q-67 31 -67 98q0 66 59.5 103.5t152.5 37.5q53 0 107.5 -14t80.5 -32l-83 -108q-47 29 -108 29t-62 -37q-1 -19 15.5 -30t44.5 -11l68 -1l-11 -96l-74 1q-75 2 -78 -40q-3 -43 68 -43q68 0 135 45l49 -119
q-96 -51 -221 -51z" />
    <glyph glyph-name="uni0512" unicode="&#x512;" horiz-adv-x="685" 
d="M675 710l-88 -710q-14 -111 -74 -157.5t-163 -46.5q-40 0 -64 6l20 122q18 -3 32 -3q40 0 61 19t26 60l69 567h-128q-45 -254 -70 -337q-35 -122 -87 -179.5t-145 -57.5q-45 0 -84 13l24 131q20 -5 33 -5q41 0 70.5 48.5t52.5 140.5q31 119 74 389h441z" />
    <glyph glyph-name="uni0513" unicode="&#x513;" horiz-adv-x="538" 
d="M513 489l-60 -489q-12 -100 -68 -152.5t-143 -52.5q-39 0 -72 8l26 114q15 -3 27 -3q70 0 83 112l42 339h-21q-27 0 -40 -12t-19 -38q-5 -19 -17 -69t-20 -81q-44 -172 -185 -172q-41 0 -67 11l24 122q12 -4 25 -4q49 0 76 119q17 77 21 102q29 146 173 146h215z" />
    <glyph glyph-name="uni051A" unicode="&#x51a;" horiz-adv-x="747" 
d="M716 420q0 -161 -78 -276l58 -63l-93 -104l-63 70q-88 -56 -201 -56q-132 0 -210.5 79.5t-78.5 221.5q0 114 45.5 210.5t133 156.5t198.5 60q131 0 210 -79.5t79 -219.5zM351 141q46 0 85 24l-48 53l91 99l43 -47q27 65 27 141q0 79 -37.5 119t-100.5 40
q-81 0 -137.5 -81t-56.5 -187q0 -79 36.5 -120t97.5 -41z" />
    <glyph glyph-name="uni051B" unicode="&#x51b;" horiz-adv-x="554" 
d="M296 -198l34 270l-3 2q-57 -83 -141 -83q-76 0 -117.5 56t-41.5 144q0 130 67 218.5t164 88.5q75 0 116 -43l2 1l4 33h151l-84 -687h-151zM234 124q41 0 79 51.5t50 137.5l2 16q-34 36 -81 36t-76.5 -51.5t-29.5 -111.5q0 -35 15.5 -56.5t40.5 -21.5z" />
    <glyph glyph-name="uni051C" unicode="&#x51c;" horiz-adv-x="932" 
d="M186 0l-112 710h166l52 -447h3l150 447h162l39 -435h3l154 435h171l-287 -710h-146l-48 459h-2l-163 -459h-142z" />
    <glyph glyph-name="uni051D" unicode="&#x51d;" horiz-adv-x="759" 
d="M177 -9q-76 0 -109 55t-21 147l42 296h148l-36 -261q-14 -103 30 -103q27 0 56.5 38t39.5 118l26 208h145l-33 -267q-7 -53 0 -75t28 -22q30 0 61.5 45.5t44.5 147.5q11 81 0 171h151q17 -97 0 -201q-22 -155 -99 -226t-183 -71q-110 0 -134 89h-2q-25 -42 -68 -65.5
t-87 -23.5z" />
    <glyph glyph-name="uni0524" unicode="&#x524;" horiz-adv-x="687" 
d="M661 143l-43 -280h-130l11 137h-116l70 567h-184l-70 -567h-161l87 710h505l-69 -567h100z" />
    <glyph glyph-name="uni0525" unicode="&#x525;" horiz-adv-x="606" 
d="M521 119h65l-49 -247h-116l15 121q-133 2 -113 124l24 145q16 102 -33 102q-37 0 -71.5 -48.5t-45.5 -134.5l-22 -181h-150l61 489h149l-8 -68l2 -1q67 78 154 78q149 0 117 -199l-22 -136q-4 -28 6 -35.5t37 -8.5z" />
    <glyph glyph-name="uni0528" unicode="&#x528;" horiz-adv-x="670" 
d="M497 710h162l-88 -710h-161l33 270h-210l-35 -280q-14 -113 -63 -154t-134 -41q-43 0 -72 7l23 122q15 -3 28 -3q28 0 40 17t18 62l87 710h162l-37 -297h211z" />
    <glyph glyph-name="uni0529" unicode="&#x529;" horiz-adv-x="545" 
d="M371 489h150l-60 -489h-150l22 178l-136 -1l-22 -177q-14 -109 -58.5 -157t-134.5 -48q-39 0 -72 8l26 114q12 -3 23 -3q33 0 47 26t22 86l57 463h150l-23 -190l136 1z" />
    <glyph glyph-name="uni052E" unicode="&#x52e;" horiz-adv-x="731" 
d="M605 143h100l-43 -280h-130l11 137h-116l70 567h-131q-45 -254 -70 -337q-35 -122 -87 -179.5t-145 -57.5q-45 0 -84 13l24 131q20 -5 33 -5q41 0 70.5 48.5t52.5 140.5q31 119 74 389h441z" />
    <glyph glyph-name="uni052F" unicode="&#x52f;" horiz-adv-x="598" 
d="M512 119h65l-49 -247h-116l15 121q-128 2 -114 115l32 257h-18q-27 0 -40.5 -12t-19.5 -38q-5 -19 -17 -69t-20 -81q-44 -172 -184 -172q-41 0 -67 11l24 122q12 -4 25 -4q49 0 76 119q17 77 21 102q29 146 173 146h211l-39 -323q-3 -30 6 -38t36 -9z" />
    <glyph glyph-name="uni1E0C" unicode="&#x1e0c;" horiz-adv-x="666" 
d="M38 0l87 710h224q144 0 218.5 -78t74.5 -217q0 -187 -103 -301t-281 -114h-220zM212 143h64q95 0 147.5 76t52.5 193q0 155 -145 155h-67zM263 -60q39 0 64.5 -24.5t25.5 -61.5q0 -38 -26 -63t-67 -25q-40 0 -65 24t-25 61q0 39 26 64t67 25z" />
    <glyph glyph-name="uni1E0D" unicode="&#x1e0d;" horiz-adv-x="548" 
d="M187 -9q-77 0 -118.5 56t-41.5 144q0 130 67 218.5t164 88.5q72 0 117 -43h3l34 281h151l-91 -736h-150l9 72l-3 1q-58 -82 -141 -82zM234 124q42 0 80 51.5t51 139.5l2 14q-32 35 -83 35q-47 0 -76.5 -51t-29.5 -111q0 -35 15.5 -56.5t40.5 -21.5zM230 -60
q39 0 64.5 -24.5t25.5 -61.5q0 -38 -26 -63t-67 -25q-40 0 -65 24t-25 61q0 39 26 64t67 25z" />
    <glyph glyph-name="uni1E0E" unicode="&#x1e0e;" horiz-adv-x="666" 
d="M38 0l87 710h224q144 0 218.5 -78t74.5 -217q0 -187 -103 -301t-281 -114h-220zM212 143h64q95 0 147.5 76t52.5 193q0 155 -145 155h-67zM111 -212l15 115h285l-14 -115h-286z" />
    <glyph glyph-name="uni1E0F" unicode="&#x1e0f;" horiz-adv-x="548" 
d="M187 -9q-77 0 -118.5 56t-41.5 144q0 130 67 218.5t164 88.5q72 0 117 -43h3l34 281h151l-91 -736h-150l9 72l-3 1q-58 -82 -141 -82zM234 124q42 0 80 51.5t51 139.5l2 14q-32 35 -83 35q-47 0 -76.5 -51t-29.5 -111q0 -35 15.5 -56.5t40.5 -21.5zM78 -212l15 115h285
l-14 -115h-286z" />
    <glyph glyph-name="uni1E20" unicode="&#x1e20;" horiz-adv-x="680" 
d="M293 783l15 110h285l-14 -110h-286zM341 -9q-129 0 -210 76t-81 221q0 182 104.5 306.5t269.5 124.5q76 0 141 -33t102 -95l-124 -94q-47 72 -128 72q-86 0 -141.5 -81.5t-55.5 -190.5q0 -77 35.5 -117.5t98.5 -40.5q57 0 110 34l13 88h-118l17 134h271l-37 -318
q-49 -38 -121 -62t-146 -24z" />
    <glyph glyph-name="uni1E21" unicode="&#x1e21;" horiz-adv-x="551" 
d="M483 697l-14 -115h-286l15 115h285zM378 489h150l-52 -426q-33 -270 -284 -270q-100 0 -178 48l47 117q62 -38 125 -38q62 0 96 34t47 133l-3 1q-58 -82 -139 -82q-76 0 -117.5 54.5t-41.5 135.5q0 127 67 214.5t163 87.5q75 0 114 -41l3 1zM361 315l2 16q-33 33 -79 33
t-75.5 -49.5t-29.5 -103.5q0 -35 14.5 -53.5t40.5 -18.5q41 0 78 49t49 127z" />
    <glyph glyph-name="uni1E24" unicode="&#x1e24;" horiz-adv-x="670" 
d="M38 0l87 710h161l-36 -297h211l36 297h162l-88 -710h-161l33 270h-211l-33 -270h-161zM292 -60q39 0 64.5 -24.5t25.5 -61.5q0 -38 -26 -63t-67 -25q-40 0 -65 24t-25 61q0 39 26 64t67 25z" />
    <glyph glyph-name="uni1E25" unicode="&#x1e25;" horiz-adv-x="547" 
d="M25 0l91 736h149l-39 -315l2 -1q67 78 163 78q70 0 98 -48.5t15 -150.5l-39 -299h-150l36 265q7 51 0.5 75t-29.5 24q-39 0 -77.5 -50.5t-48.5 -137.5l-21 -176h-150zM235 -60q39 0 64.5 -24.5t25.5 -61.5q0 -38 -26 -63t-67 -25q-40 0 -65 24t-25 61q0 39 26 64t67 25z
" />
    <glyph glyph-name="uni1E2A" unicode="&#x1e2a;" horiz-adv-x="670" 
d="M38 0l87 710h161l-36 -297h211l36 297h162l-88 -710h-161l33 270h-211l-33 -270h-161zM279 -233q-69 0 -105 41t-32 115h108q-2 -21 8 -34.5t31 -13.5q22 0 39 14t23 34h108q-13 -71 -60 -113.5t-120 -42.5z" />
    <glyph glyph-name="uni1E2B" unicode="&#x1e2b;" horiz-adv-x="547" 
d="M25 0l91 736h149l-39 -315l2 -1q67 78 163 78q70 0 98 -48.5t15 -150.5l-39 -299h-150l36 265q7 51 0.5 75t-29.5 24q-39 0 -77.5 -50.5t-48.5 -137.5l-21 -176h-150zM222 -233q-69 0 -105 41t-32 115h108q-2 -21 8 -34.5t31 -13.5q22 0 39 14t23 34h108
q-13 -71 -60 -113.5t-120 -42.5z" />
    <glyph glyph-name="uni1E30" unicode="&#x1e30;" horiz-adv-x="618" 
d="M540 901l-131 -140h-135l115 139zM665 710l-256 -319l176 -391h-182l-115 278l-67 -79l-24 -199h-159l87 710h159l-35 -290l3 -1l221 291h192z" />
    <glyph glyph-name="uni1E31" unicode="&#x1e31;" horiz-adv-x="514" 
d="M438 -7q-20 -2 -44 -2q-53 0 -84.5 36t-54.5 104l-9 30q-28 -18 -59 -31l-15 -130h-147l91 736h149l-56 -455l2 -1q105 74 139 209h155q-27 -142 -139 -247l14 -42q16 -49 36 -66t56 -19zM267 556l117 149l152 1l-129 -150h-140z" />
    <glyph glyph-name="uni1E36" unicode="&#x1e36;" horiz-adv-x="521" 
d="M38 0l87 710h161l-70 -567h262l-17 -143h-423zM237 -60q39 0 64.5 -24.5t25.5 -61.5q0 -38 -26 -63t-67 -25q-40 0 -65 24t-25 61q0 39 26 64t67 25z" />
    <glyph glyph-name="uni1E37" unicode="&#x1e37;" horiz-adv-x="268" 
d="M30 0l90 736h151l-91 -736h-150zM94 -60q39 0 64.5 -24.5t25.5 -61.5q0 -38 -26 -63t-67 -25q-40 0 -65 24t-25 61q0 39 26 64t67 25z" />
    <glyph glyph-name="uni1E38" unicode="&#x1e38;" horiz-adv-x="521" 
d="M222 784l15 110h285l-14 -110h-286zM38 0l87 710h161l-70 -567h262l-17 -143h-423zM237 -60q39 0 64.5 -24.5t25.5 -61.5q0 -38 -26 -63t-67 -25q-40 0 -65 24t-25 61q0 39 26 64t67 25z" />
    <glyph glyph-name="uni1E39" unicode="&#x1e39;" horiz-adv-x="268" 
d="M62 797l15 110h285l-14 -110h-286zM30 0l90 736h151l-91 -736h-150zM86 -60q39 0 64.5 -24.5t25.5 -61.5q0 -38 -26 -63t-67 -25q-40 0 -65 24t-25 61q0 39 26 64t67 25z" />
    <glyph glyph-name="uni1E3A" unicode="&#x1e3a;" horiz-adv-x="521" 
d="M38 0l87 710h161l-70 -567h262l-17 -143h-423zM85 -212l15 115h285l-14 -115h-286z" />
    <glyph glyph-name="uni1E3B" unicode="&#x1e3b;" horiz-adv-x="268" 
d="M30 0l90 736h151l-91 -736h-150zM-58 -212l15 115h285l-14 -115h-286z" />
    <glyph glyph-name="uni1E42" unicode="&#x1e42;" horiz-adv-x="798" 
d="M38 0l87 710h157l131 -386h3l214 386h157l-87 -710h-157l47 388l-2 1l-150 -257h-97l-95 266l-2 -1l-49 -397h-157zM358 -60q39 0 64.5 -24.5t25.5 -61.5q0 -38 -26 -63t-67 -25q-40 0 -65 24t-25 61q0 39 26 64t67 25z" />
    <glyph glyph-name="uni1E43" unicode="&#x1e43;" horiz-adv-x="813" 
d="M26 0l60 489h150l-8 -61l4 -1q63 71 149 71t106 -74h5q63 74 164 74q73 0 100.5 -49.5t13.5 -155.5l-39 -293h-149l35 265q7 51 1.5 75t-28.5 24q-31 0 -67 -49.5t-47 -134.5l-24 -180h-149l35 265q8 51 2.5 75t-29.5 24q-30 0 -66 -47.5t-46 -125.5l-23 -191h-150z
M359 -60q39 0 64.5 -24.5t25.5 -61.5q0 -38 -26 -63t-67 -25q-40 0 -65 24t-25 61q0 39 26 64t67 25z" />
    <glyph glyph-name="uni1E44" unicode="&#x1e44;" horiz-adv-x="686" 
d="M422 776q-39 0 -64.5 24.5t-25.5 61.5q0 38 26 63t67 25q40 0 65 -24t25 -61q0 -39 -26 -64t-67 -25zM38 0l87 710h150l188 -440l3 1l54 439h156l-88 -710h-155l-183 429h-3l-54 -429h-155z" />
    <glyph glyph-name="uni1E45" unicode="&#x1e45;" horiz-adv-x="547" 
d="M334 552q-39 0 -64.5 24.5t-25.5 61.5q0 38 26 63t67 25q40 0 65 -24t25 -61q0 -39 -26 -64t-67 -25zM25 0l61 489h149l-8 -68l2 -1q67 78 162 78q70 0 98 -48.5t15 -150.5l-39 -299h-149l35 265q7 51 0.5 75t-29.5 24q-38 0 -76 -49t-49 -134l-22 -181h-150z" />
    <glyph glyph-name="uni1E46" unicode="&#x1e46;" horiz-adv-x="686" 
d="M38 0l87 710h150l188 -440l3 1l54 439h156l-88 -710h-155l-183 429h-3l-54 -429h-155zM309 -60q39 0 64.5 -24.5t25.5 -61.5q0 -38 -26 -63t-67 -25q-40 0 -65 24t-25 61q0 39 26 64t67 25z" />
    <glyph glyph-name="uni1E47" unicode="&#x1e47;" horiz-adv-x="547" 
d="M25 0l61 489h149l-8 -68l2 -1q67 78 162 78q70 0 98 -48.5t15 -150.5l-39 -299h-149l35 265q7 51 0.5 75t-29.5 24q-38 0 -76 -49t-49 -134l-22 -181h-150zM235 -60q39 0 64.5 -24.5t25.5 -61.5q0 -38 -26 -63t-67 -25q-40 0 -65 24t-25 61q0 39 26 64t67 25z" />
    <glyph glyph-name="uni1E48" unicode="&#x1e48;" horiz-adv-x="686" 
d="M38 0l87 710h150l188 -440l3 1l54 439h156l-88 -710h-155l-183 429h-3l-54 -429h-155zM157 -212l15 115h285l-14 -115h-286z" />
    <glyph glyph-name="uni1E49" unicode="&#x1e49;" horiz-adv-x="547" 
d="M25 0l61 489h149l-8 -68l2 -1q67 78 162 78q70 0 98 -48.5t15 -150.5l-39 -299h-149l35 265q7 51 0.5 75t-29.5 24q-38 0 -76 -49t-49 -134l-22 -181h-150zM83 -212l15 115h285l-14 -115h-286z" />
    <glyph glyph-name="uni1E5A" unicode="&#x1e5a;" horiz-adv-x="605" 
d="M38 0l87 710h253q102 0 151.5 -53t49.5 -143q0 -89 -37 -154t-107 -99l119 -261h-173l-97 232h-61l-28 -232h-157zM241 373h62q50 0 80 34.5t30 88.5q0 36 -21.5 54.5t-53.5 18.5h-73zM269 -60q39 0 64.5 -24.5t25.5 -61.5q0 -38 -26 -63t-67 -25q-40 0 -65 24t-25 61
q0 39 26 64t67 25z" />
    <glyph glyph-name="uni1E5B" unicode="&#x1e5b;" horiz-adv-x="353" 
d="M26 0l60 489h150l-9 -67h2q58 76 140 76l-21 -166q-54 20 -95.5 -19t-54.5 -125l-22 -188h-150zM88 -60q39 0 64.5 -24.5t25.5 -61.5q0 -38 -26 -63t-67 -25q-40 0 -65 24t-25 61q0 39 26 64t67 25z" />
    <glyph glyph-name="uni1E5C" unicode="&#x1e5c;" horiz-adv-x="605" 
d="M221 784l15 110h285l-14 -110h-286zM38 0l87 710h253q102 0 151.5 -53t49.5 -143q0 -89 -37 -154t-107 -99l119 -261h-173l-97 232h-61l-28 -232h-157zM241 373h62q50 0 80 34.5t30 88.5q0 36 -21.5 54.5t-53.5 18.5h-73zM269 -60q39 0 64.5 -24.5t25.5 -61.5
q0 -38 -26 -63t-67 -25q-40 0 -65 24t-25 61q0 39 26 64t67 25z" />
    <glyph glyph-name="uni1E5D" unicode="&#x1e5d;" horiz-adv-x="353" 
d="M116 582l15 115h285l-14 -115h-286zM26 0l60 489h150l-9 -67h2q58 76 140 76l-21 -166q-54 20 -95.5 -19t-54.5 -125l-22 -188h-150zM88 -60q39 0 64.5 -24.5t25.5 -61.5q0 -38 -26 -63t-67 -25q-40 0 -65 24t-25 61q0 39 26 64t67 25z" />
    <glyph glyph-name="uni1E5E" unicode="&#x1e5e;" horiz-adv-x="605" 
d="M38 0l87 710h253q102 0 151.5 -53t49.5 -143q0 -89 -37 -154t-107 -99l119 -261h-173l-97 232h-61l-28 -232h-157zM241 373h62q50 0 80 34.5t30 88.5q0 36 -21.5 54.5t-53.5 18.5h-73zM117 -212l15 115h285l-14 -115h-286z" />
    <glyph glyph-name="uni1E5F" unicode="&#x1e5f;" horiz-adv-x="353" 
d="M26 0l60 489h150l-9 -67h2q58 76 140 76l-21 -166q-54 20 -95.5 -19t-54.5 -125l-22 -188h-150zM-64 -212l15 115h285l-14 -115h-286z" />
    <glyph glyph-name="uni1E60" unicode="&#x1e60;" horiz-adv-x="545" 
d="M339 776q-39 0 -64.5 24.5t-25.5 61.5q0 38 26 63t67 25q40 0 65 -24t25 -61q0 -39 -26 -64t-67 -25zM253 -9q-74 0 -140 31.5t-107 95.5l114 100q24 -40 60.5 -62t72.5 -22q41 0 65 19.5t24 47.5q0 22 -17.5 37t-63.5 42q-10 5 -15 8q-87 50 -116 78q-59 55 -59 133
q0 99 69.5 159.5t173.5 60.5q65 0 123.5 -28t94.5 -81l-114 -95q-47 63 -110 63q-31 0 -51 -17.5t-19 -43.5q1 -21 17.5 -39.5t59.5 -43.5q14 -8 42.5 -24t42 -24.5t35 -23t32 -27t22.5 -29.5t16.5 -37t4.5 -44q0 -110 -71 -172t-186 -62z" />
    <glyph glyph-name="uni1E61" unicode="&#x1e61;" horiz-adv-x="420" 
d="M252 552q-39 0 -64.5 24.5t-25.5 61.5q0 38 26 63t67 25q40 0 65 -24t25 -61q0 -39 -26 -64t-67 -25zM188 -9q-54 0 -107 22.5t-84 61.5l84 87q22 -26 52.5 -42t58.5 -16q45 0 45 27q0 11 -10.5 19t-48.5 27q-11 6 -17 9q-60 30 -89.5 64t-29.5 85q0 72 52 117.5
t129 45.5q111 0 176 -78l-91 -86q-35 48 -84 50q-16 0 -27.5 -8t-11.5 -22q0 -20 69 -54q66 -33 97 -65t31 -85q0 -72 -52.5 -115.5t-141.5 -43.5z" />
    <glyph glyph-name="uni1E62" unicode="&#x1e62;" horiz-adv-x="545" 
d="M253 -9q-74 0 -140 31.5t-107 95.5l114 100q24 -40 60.5 -62t72.5 -22q41 0 65 19.5t24 47.5q0 22 -17.5 37t-63.5 42q-10 5 -15 8q-87 50 -116 78q-59 55 -59 133q0 99 69.5 159.5t173.5 60.5q65 0 123.5 -28t94.5 -81l-114 -95q-47 63 -110 63q-31 0 -51 -17.5
t-19 -43.5q1 -21 17.5 -39.5t59.5 -43.5q14 -8 42.5 -24t42 -24.5t35 -23t32 -27t22.5 -29.5t16.5 -37t4.5 -44q0 -110 -71 -172t-186 -62zM235 -60q39 0 64.5 -24.5t25.5 -61.5q0 -38 -26 -63t-67 -25q-40 0 -65 24t-25 61q0 39 26 64t67 25z" />
    <glyph glyph-name="uni1E63" unicode="&#x1e63;" horiz-adv-x="420" 
d="M188 -9q-54 0 -107 22.5t-84 61.5l84 87q22 -26 52.5 -42t58.5 -16q45 0 45 27q0 11 -10.5 19t-48.5 27q-11 6 -17 9q-60 30 -89.5 64t-29.5 85q0 72 52 117.5t129 45.5q111 0 176 -78l-91 -86q-35 48 -84 50q-16 0 -27.5 -8t-11.5 -22q0 -20 69 -54q66 -33 97 -65
t31 -85q0 -72 -52.5 -115.5t-141.5 -43.5zM163 -60q39 0 64.5 -24.5t25.5 -61.5q0 -38 -26 -63t-67 -25q-40 0 -65 24t-25 61q0 39 26 64t67 25z" />
    <glyph glyph-name="uni1E6C" unicode="&#x1e6c;" horiz-adv-x="539" 
d="M159 0l70 567h-166l18 143h491l-18 -143h-165l-70 -567h-160zM225 -60q39 0 64.5 -24.5t25.5 -61.5q0 -38 -26 -63t-67 -25q-40 0 -65 24t-25 61q0 39 26 64t67 25z" />
    <glyph glyph-name="uni1E6D" unicode="&#x1e6d;" horiz-adv-x="342" 
d="M170 -9q-61 0 -94 38t-23 118l26 221h-48l15 121h48l19 143l153 30l-21 -173h101l-15 -121h-101l-24 -201q-6 -41 22 -41q19 0 49 16l24 -117q-62 -34 -131 -34zM155 -60q39 0 64.5 -24.5t25.5 -61.5q0 -38 -26 -63t-67 -25q-40 0 -65 24t-25 61q0 39 26 64t67 25z" />
    <glyph glyph-name="uni1E6E" unicode="&#x1e6e;" horiz-adv-x="539" 
d="M159 0l70 567h-166l18 143h491l-18 -143h-165l-70 -567h-160zM73 -212l15 115h285l-14 -115h-286z" />
    <glyph glyph-name="uni1E6F" unicode="&#x1e6f;" horiz-adv-x="342" 
d="M170 -9q-61 0 -94 38t-23 118l26 221h-48l15 121h48l19 143l153 30l-21 -173h101l-15 -121h-101l-24 -201q-6 -41 22 -41q19 0 49 16l24 -117q-62 -34 -131 -34zM3 -212l15 115h285l-14 -115h-286z" />
    <glyph glyph-name="Wgrave" unicode="&#x1e80;" horiz-adv-x="932" 
d="M464 761l-94 140l150 -1l81 -139h-137zM186 0l-112 710h166l52 -447h3l150 447h162l39 -435h3l154 435h171l-287 -710h-146l-48 459h-2l-163 -459h-142z" />
    <glyph glyph-name="wgrave" unicode="&#x1e81;" horiz-adv-x="759" 
d="M365 557l-93 150l150 -1l80 -149h-137zM177 -9q-76 0 -109 55t-21 147l42 296h148l-36 -261q-14 -103 30 -103q27 0 56.5 38t39.5 118l26 208h145l-33 -267q-7 -53 0 -75t28 -22q30 0 61.5 45.5t44.5 147.5q11 81 0 171h151q17 -97 0 -201q-22 -155 -99 -226t-183 -71
q-110 0 -134 89h-2q-25 -42 -68 -65.5t-87 -23.5z" />
    <glyph glyph-name="Wacute" unicode="&#x1e82;" horiz-adv-x="932" 
d="M460 761l115 139l151 1l-131 -140h-135zM186 0l-112 710h166l52 -447h3l150 447h162l39 -435h3l154 435h171l-287 -710h-146l-48 459h-2l-163 -459h-142z" />
    <glyph glyph-name="wacute" unicode="&#x1e83;" horiz-adv-x="759" 
d="M362 556l117 149l152 1l-129 -150h-140zM177 -9q-76 0 -109 55t-21 147l42 296h148l-36 -261q-14 -103 30 -103q27 0 56.5 38t39.5 118l26 208h145l-33 -267q-7 -53 0 -75t28 -22q30 0 61.5 45.5t44.5 147.5q11 81 0 171h151q17 -97 0 -201q-22 -155 -99 -226t-183 -71
q-110 0 -134 89h-2q-25 -42 -68 -65.5t-87 -23.5z" />
    <glyph glyph-name="Wdieresis" unicode="&#x1e84;" horiz-adv-x="932" 
d="M424 757q-39 0 -64.5 24.5t-25.5 61.5q0 38 26 63t67 25q40 0 65 -24t25 -61q0 -39 -26 -64t-67 -25zM641 757q-39 0 -64.5 24.5t-25.5 61.5q0 39 26 63.5t68 24.5q39 0 64 -24t25 -61q0 -39 -26 -64t-67 -25zM186 0l-112 710h166l52 -447h3l150 447h162l39 -435h3
l154 435h171l-287 -710h-146l-48 459h-2l-163 -459h-142z" />
    <glyph glyph-name="wdieresis" unicode="&#x1e85;" horiz-adv-x="759" 
d="M333 552q-39 0 -64.5 24.5t-25.5 61.5q0 38 26 63t67 25q40 0 65 -24t25 -61q0 -39 -26 -64t-67 -25zM550 552q-39 0 -64.5 24.5t-25.5 61.5q0 39 26 63.5t68 24.5q39 0 64 -24t25 -61q0 -39 -26 -64t-67 -25zM177 -9q-76 0 -109 55t-21 147l42 296h148l-36 -261
q-14 -103 30 -103q27 0 56.5 38t39.5 118l26 208h145l-33 -267q-7 -53 0 -75t28 -22q30 0 61.5 45.5t44.5 147.5q11 81 0 171h151q17 -97 0 -201q-22 -155 -99 -226t-183 -71q-110 0 -134 89h-2q-25 -42 -68 -65.5t-87 -23.5z" />
    <glyph glyph-name="uni1E8E" unicode="&#x1e8e;" horiz-adv-x="581" 
d="M362 776q-39 0 -64.5 24.5t-25.5 61.5q0 38 26 63t67 25q40 0 65 -24t25 -61q0 -39 -26 -64t-67 -25zM179 0l39 310l-159 400h176l79 -250h3l138 250h183l-259 -400l-38 -310h-162z" />
    <glyph glyph-name="uni1E8F" unicode="&#x1e8f;" horiz-adv-x="534" 
d="M309 552q-39 0 -64.5 24.5t-25.5 61.5q0 38 26 63t67 25q40 0 65 -24t25 -61q0 -39 -26 -64t-67 -25zM363 489h149l-52 -423q-32 -273 -276 -273q-99 0 -177 48l47 113q58 -38 122 -38q57 0 89.5 31.5t45.5 121.5v1l-3 1q-59 -80 -145 -80q-153 0 -125 194l42 304h149
l-36 -259q-8 -59 -1.5 -82t33.5 -23q33 0 68.5 44.5t41.5 96.5z" />
    <glyph glyph-name="uni1E92" unicode="&#x1e92;" horiz-adv-x="570" 
d="M13 0l15 125l335 439l-2 3h-269l17 143h474l-14 -122l-342 -441l2 -4h284l-17 -143h-483zM249 -60q39 0 64.5 -24.5t25.5 -61.5q0 -38 -26 -63t-67 -25q-40 0 -65 24t-25 61q0 39 26 64t67 25z" />
    <glyph glyph-name="uni1E93" unicode="&#x1e93;" horiz-adv-x="447" 
d="M367 -28q-117 28 -366 28l11 100l217 267v3h-165l14 119h365l-11 -100l-222 -267v-2q111 -5 192 -30zM179 -60q39 0 64.5 -24.5t25.5 -61.5q0 -38 -26 -63t-67 -25q-40 0 -65 24t-25 61q0 39 26 64t67 25z" />
    <glyph glyph-name="uni1E97" unicode="&#x1e97;" horiz-adv-x="342" 
d="M124 698q-39 0 -64.5 24.5t-25.5 61.5q0 38 26 63t67 25q40 0 65 -24t25 -61q0 -39 -26 -64t-67 -25zM341 698q-39 0 -64.5 24.5t-25.5 61.5q0 39 26 63.5t68 24.5q39 0 64 -24t25 -61q0 -39 -26 -64t-67 -25zM170 -9q-61 0 -94 38t-23 118l26 221h-48l15 121h48l19 143
l153 30l-21 -173h101l-15 -121h-101l-24 -201q-6 -41 22 -41q19 0 49 16l24 -117q-62 -34 -131 -34z" />
    <glyph glyph-name="uni1E9E" unicode="&#x1e9e;" horiz-adv-x="756" 
d="M553 426q11 -7 40.5 -24t40.5 -23.5t33 -22t31 -27t20.5 -28.5t16 -36t4.5 -42q0 -108 -69 -170t-178 -62q-131 0 -214 86l83 137q24 -40 60 -61t73 -21t57.5 20t20.5 49q0 24 -18.5 39.5t-73.5 45.5q-89 49 -119 81l129 205l-1 5q-57 7 -102 7q-126 0 -141 -129
l-57 -455h-156l57 461q17 139 95.5 199t208.5 60q141 0 313 -48z" />
    <glyph glyph-name="uni1EA0" unicode="&#x1ea0;" horiz-adv-x="635" 
d="M-23 0l320 710h154l146 -710h-166l-22 131h-213l-51 -131h-168zM247 266h141l-42 249h-2zM277 -60q39 0 64.5 -24.5t25.5 -61.5q0 -38 -26 -63t-67 -25q-40 0 -65 24t-25 61q0 39 26 64t67 25z" />
    <glyph glyph-name="uni1EA1" unicode="&#x1ea1;" horiz-adv-x="553" 
d="M186 -9q-76 0 -117.5 56t-41.5 144q0 130 67 218.5t164 88.5q74 0 115 -43h3l4 34h151l-60 -489h-151l9 72l-3 1q-57 -82 -140 -82zM234 124q42 0 79.5 51.5t49.5 139.5l2 14q-33 35 -81 35q-47 0 -76.5 -51t-29.5 -111q0 -35 15.5 -56.5t40.5 -21.5zM230 -60
q39 0 64.5 -24.5t25.5 -61.5q0 -38 -26 -63t-67 -25q-40 0 -65 24t-25 61q0 39 26 64t67 25z" />
    <glyph glyph-name="uni1EA2" unicode="&#x1ea2;" horiz-adv-x="635" 
d="M415 770l-81 1q56 42 59 77q3 22 -23 22q-30 0 -65 -23l-18 63q23 22 61 38t77 16q40 0 63 -18t23 -51q0 -38 -27.5 -72t-68.5 -53zM-23 0l320 710h154l146 -710h-166l-22 131h-213l-51 -131h-168zM247 266h141l-42 249h-2z" />
    <glyph glyph-name="uni1EA3" unicode="&#x1ea3;" horiz-adv-x="553" 
d="M349 546l-81 1q56 42 59 77q3 22 -23 22q-30 0 -65 -23l-18 63q23 22 61 38t77 16q40 0 63 -18t23 -51q0 -38 -27.5 -72t-68.5 -53zM186 -9q-76 0 -117.5 56t-41.5 144q0 130 67 218.5t164 88.5q74 0 115 -43h3l4 34h151l-60 -489h-151l9 72l-3 1q-57 -82 -140 -82z
M234 124q42 0 79.5 51.5t49.5 139.5l2 14q-33 35 -81 35q-47 0 -76.5 -51t-29.5 -111q0 -35 15.5 -56.5t40.5 -21.5z" />
    </font>
</defs>
</svg>
