<?xml version="1.0" standalone="no"?>
<!DOCTYPE svg PUBLIC "-//W3C//DTD SVG 1.1//EN" "http://www.w3.org/Graphics/SVG/1.1/DTD/svg11.dtd" >
<svg xmlns="http://www.w3.org/2000/svg" xmlns:xlink="http://www.w3.org/1999/xlink" version="1.1">
<metadata>
Created by FontForge 20170731 at Sat Sep  9 08:14:46 2017
 By Aleksey,,,
Copyright (c) 2015 by Kostas Bartsokas. All rights reserved.
</metadata>
<defs>
<font id="AvertaCyr-Italic" horiz-adv-x="586" >
  <font-face 
    font-family="Averta Cyr Italic"
    font-weight="400"
    font-style="italic"
    font-stretch="normal"
    units-per-em="1000"
    panose-1="0 0 5 0 0 0 0 0 0 0"
    ascent="785"
    descent="-215"
    x-height="487"
    cap-height="710"
    bbox="-689 -349 1352 1039"
    underline-thickness="38"
    underline-position="-121"
    slope="-7"
    unicode-range="U+000D-2E18"
  />
<missing-glyph horiz-adv-x="401" 
 />
    <glyph glyph-name=".notdef" horiz-adv-x="401" 
 />
    <glyph glyph-name="glyph1" horiz-adv-x="0" 
 />
    <glyph glyph-name="glyph2" horiz-adv-x="333" 
 />
    <glyph glyph-name="nonmarkingreturn" unicode="&#xd;" horiz-adv-x="0" 
 />
    <glyph glyph-name="space" unicode=" " horiz-adv-x="215" 
 />
    <glyph glyph-name="exclam" unicode="!" horiz-adv-x="248" 
d="M96 208l50 528h88l-80 -528h-58zM110 -7q-24 0 -39.5 16t-15.5 40q0 25 16.5 42t41.5 17q24 0 40 -16t16 -40q0 -26 -16.5 -42.5t-42.5 -16.5z" />
    <glyph glyph-name="quotedbl" unicode="&#x22;" horiz-adv-x="330" 
d="M68 470l59 240h86l-81 -240h-64zM203 470l59 240h86l-81 -240h-64z" />
    <glyph glyph-name="numbersign" unicode="#" horiz-adv-x="581" 
d="M84 -35l53 205h-104l7 61h114l42 162h-115l7 62h125l52 201h58l-52 -201h143l51 201h58l-52 -201h109l-8 -62h-118l-41 -162h118l-8 -61h-128l-53 -205h-58l54 205h-143l-53 -205h-58zM212 231h143l41 162h-142z" />
    <glyph glyph-name="dollar" unicode="$" horiz-adv-x="529" 
d="M298 380l36 -20t37.5 -21.5t31 -21t30 -25t21 -26.5t16 -33.5t4.5 -38.5q0 -91 -57.5 -144t-148.5 -56l-14 -117h-61l15 121q-113 20 -168 108l62 57q24 -45 64 -68t86 -23q59 0 97 31.5t38 79.5q0 11 -3 21t-10.5 19t-13.5 15.5t-20 15t-22.5 14t-27.5 16t-29 16.5
q-84 47 -111 73q-51 48 -51 112q0 76 52.5 126t133.5 56l15 124h61l-15 -126q90 -16 147 -88l-60 -53q-50 67 -132 67q-49 0 -82 -27.5t-32 -69.5q1 -33 24.5 -55t75.5 -53q7 -4 11 -6z" />
    <glyph glyph-name="percent" unicode="%" horiz-adv-x="974" 
d="M347 -16l-64 29l366 711l65 -30zM259 323q-78 0 -129 51t-51 131q0 89 58.5 149.5t143.5 60.5q79 0 130.5 -50t51.5 -130q0 -92 -59.5 -152t-144.5 -60zM261 387q56 0 94.5 40.5t38.5 105.5q0 53 -32.5 85.5t-82.5 32.5q-55 0 -93 -41.5t-38 -103.5q0 -53 32 -86t81 -33z
M715 -6q-78 0 -129 51t-51 131q0 88 58.5 148.5t142.5 60.5q80 0 132 -50t52 -130q0 -92 -59.5 -151.5t-145.5 -59.5zM717 58q56 0 94.5 40.5t38.5 104.5q0 53 -32.5 85.5t-83.5 32.5q-54 0 -92 -41.5t-38 -103.5q0 -53 32 -85.5t81 -32.5z" />
    <glyph glyph-name="ampersand" unicode="&#x26;" horiz-adv-x="731" 
d="M226 -6q-81 0 -131.5 49.5t-50.5 131.5q0 74 39.5 135t107.5 91q-57 41 -57 111q0 89 60.5 147t147.5 58q79 0 121 -39t54 -97l-73 -23q-6 38 -30 62t-68 24q-60 0 -94.5 -35.5t-34.5 -94.5q0 -33 20.5 -57t56.5 -24h431l-9 -72h-160q-17 -164 -100 -265.5t-230 -101.5z
M238 70q101 0 165 83.5t75 207.5h-180q-70 0 -119 -55.5t-49 -123.5q0 -50 29 -81t79 -31z" />
    <glyph glyph-name="quotesingle" unicode="'" horiz-adv-x="195" 
d="M68 470l59 240h86l-81 -240h-64z" />
    <glyph glyph-name="parenleft" unicode="(" horiz-adv-x="274" 
d="M116 -149q-55 140 -55 311q0 155 43.5 307.5t124.5 269.5l57 -26q-72 -115 -111 -256.5t-39 -283.5q0 -148 46 -291z" />
    <glyph glyph-name="parenright" unicode=")" horiz-adv-x="274" 
d="M60 -146l-57 25q147 255 147 540q0 159 -48 292l65 31q59 -132 59 -314q0 -314 -166 -574z" />
    <glyph glyph-name="asterisk" unicode="*" horiz-adv-x="386" 
d="M184 394l19 119l-95 -64l-21 48l97 54l-85 57l33 46l80 -63l11 119h54l-19 -119l95 63l21 -46l-98 -56l86 -55l-33 -47l-79 63l-12 -119h-54z" />
    <glyph glyph-name="plus" unicode="+" horiz-adv-x="539" 
d="M208 43l24 197h-174l9 73h174l24 198h75l-25 -198h174l-9 -73h-174l-24 -197h-74z" />
    <glyph glyph-name="comma" unicode="," horiz-adv-x="209" 
d="M-14 -131l59 241h86l-85 -241h-60z" />
    <glyph glyph-name="hyphen" unicode="-" horiz-adv-x="383" 
d="M60 269l10 78h268l-9 -78h-269z" />
    <glyph glyph-name="period" unicode="." horiz-adv-x="239" 
d="M94 -7q-24 0 -39.5 16t-15.5 40q0 25 16.5 42t41.5 17q24 0 40 -16t16 -40q0 -26 -16.5 -42.5t-42.5 -16.5z" />
    <glyph glyph-name="slash" unicode="/" horiz-adv-x="364" 
d="M-15 -113l-56 30l450 853l55 -31z" />
    <glyph glyph-name="zero" unicode="0" horiz-adv-x="582" 
d="M262 -6q-91 0 -144.5 67t-53.5 196q0 112 30.5 209t97 162t156.5 65q91 0 143 -67t52 -196q0 -113 -30.5 -210t-96 -161.5t-154.5 -64.5zM263 71q50 0 88.5 32.5t61.5 86.5t34.5 116t11.5 128q0 182 -116 182q-65 0 -111 -58t-65.5 -137.5t-19.5 -167.5
q0 -89 31.5 -135.5t84.5 -46.5z" />
    <glyph glyph-name="one" unicode="1" horiz-adv-x="359" 
d="M252 687h67l-84 -687h-83l71 575l-125 -94l-40 64z" />
    <glyph glyph-name="two" unicode="2" horiz-adv-x="482" 
d="M11 0l5 57l230 235q60 61 94 114t34 111q0 42 -23 70t-64 28q-42 0 -83.5 -26t-64.5 -72l-61 45q31 58 89.5 94.5t125.5 36.5q71 0 118 -46.5t47 -123.5q0 -126 -143 -271l-174 -174v-2h272l-10 -76h-392z" />
    <glyph glyph-name="three" unicode="3" horiz-adv-x="496" 
d="M210 -6q-79 0 -129.5 39t-65.5 103l80 30q17 -95 112 -95q67 0 107 42t40 110q0 97 -111 97h-55l9 71h51q60 0 96 41.5t36 96.5q0 41 -25.5 64t-67.5 23q-79 0 -132 -74l-68 40q32 50 85.5 80.5t119.5 30.5q76 0 123 -39.5t47 -112.5q0 -63 -29.5 -111t-81.5 -72v-1
q87 -37 87 -144q0 -98 -64.5 -158.5t-163.5 -60.5z" />
    <glyph glyph-name="four" unicode="4" horiz-adv-x="519" 
d="M388 195h92l-9 -74h-92l-15 -121h-82l15 121h-282l7 59l358 507h68zM121 193h189l42 334z" />
    <glyph glyph-name="five" unicode="5" horiz-adv-x="514" 
d="M481 611h-254l-34 -193q54 18 100 18q79 0 125 -47.5t46 -133.5q0 -114 -70 -187.5t-178 -73.5q-67 0 -116.5 31.5t-75.5 88.5l70 44q34 -88 121 -88q72 0 118.5 51.5t46.5 127.5q0 56 -29.5 85.5t-84.5 29.5q-66 0 -115 -40l-51 16l62 347h329z" />
    <glyph glyph-name="six" unicode="6" horiz-adv-x="542" 
d="M246 -6q-86 0 -139 56.5t-53 155.5q0 172 105 316.5t270 184.5l15 -72q-106 -31 -180 -104.5t-105 -170.5l2 -1q68 74 173 74q66 0 111 -47.5t45 -129.5q0 -113 -68 -187.5t-176 -74.5zM249 71q65 0 111.5 51.5t46.5 129.5q0 48 -28 76.5t-78 28.5q-48 0 -93.5 -28
t-70.5 -73q-1 -13 -1 -40q0 -67 30.5 -106t82.5 -39z" />
    <glyph glyph-name="seven" unicode="7" horiz-adv-x="452" 
d="M82 687h382l-6 -58l-315 -641l-84 18l302 605h-289z" />
    <glyph glyph-name="eight" unicode="8" horiz-adv-x="530" 
d="M227 -6q-87 0 -138.5 44.5t-51.5 119.5q0 72 39 130t108 82v1q-32 13 -53.5 43.5t-21.5 75.5q0 88 61 145.5t154 57.5q72 0 118 -39.5t46 -106.5q0 -60 -29 -106.5t-79 -66.5v-1q46 -13 73 -51.5t27 -95.5q0 -106 -70.5 -169t-182.5 -63zM286 407q51 0 87 35t36 89
q0 41 -25.5 64.5t-71.5 23.5q-53 0 -88.5 -35.5t-35.5 -88.5q0 -41 26.5 -64.5t71.5 -23.5zM240 69q66 0 110.5 43t44.5 109q0 52 -31.5 81t-85.5 29q-68 0 -112 -44.5t-44 -106.5q0 -52 32 -81.5t86 -29.5z" />
    <glyph glyph-name="nine" unicode="9" horiz-adv-x="538" 
d="M130 -23l-13 69q102 28 177.5 104t107.5 175l-1 1q-74 -74 -170 -74q-71 0 -115 46t-44 126q0 116 71.5 192.5t179.5 76.5q85 0 136 -57t51 -158q0 -177 -108.5 -322t-271.5 -179zM257 328q48 0 92.5 27t75.5 76q2 28 2 41q-1 70 -30.5 107t-82.5 37q-68 0 -113 -50.5
t-45 -125.5q0 -53 25.5 -82.5t75.5 -29.5z" />
    <glyph glyph-name="colon" unicode=":" horiz-adv-x="240" 
d="M144 378q-24 0 -39.5 16t-15.5 40q0 25 16.5 42t41.5 17q24 0 40 -16t16 -40q0 -25 -16.5 -42t-42.5 -17zM96 -7q-24 0 -39.5 16t-15.5 40q0 25 16.5 42t41.5 17q24 0 40 -16t16 -40q0 -26 -16.5 -42.5t-42.5 -16.5z" />
    <glyph glyph-name="semicolon" unicode=";" horiz-adv-x="225" 
d="M136 378q-24 0 -39.5 16t-15.5 40q0 25 16.5 42t41.5 17q24 0 40 -16t16 -40q0 -25 -16.5 -42t-42.5 -17zM-6 -131l59 241h86l-85 -241h-60z" />
    <glyph glyph-name="less" unicode="&#x3c;" horiz-adv-x="535" 
d="M440 43l-382 204l7 60l433 206l-10 -80l-315 -155l276 -155z" />
    <glyph glyph-name="equal" unicode="=" horiz-adv-x="545" 
d="M91 353l9 73h422l-9 -73h-422zM62 127l9 73h422l-9 -73h-422z" />
    <glyph glyph-name="greater" unicode="&#x3e;" horiz-adv-x="534" 
d="M46 43l9 80l316 155l-277 155l9 80l383 -206l-7 -60z" />
    <glyph glyph-name="question" unicode="?" horiz-adv-x="419" 
d="M141 207l6 52q1 11 4.5 22t6.5 19.5t10.5 20t11.5 17.5t15 18t15 17t17.5 19t17.5 18q42 45 62.5 80t20.5 80t-23 69t-63 24q-70 0 -118 -67l-52 53q33 44 84.5 69t106.5 25q68 0 112 -41.5t44 -116.5q0 -101 -107 -206q-31 -29 -44 -42.5t-28 -36t-18 -42.5l-8 -51h-73z
M163 -7q-24 0 -39.5 16t-15.5 40q0 25 16.5 42t41.5 17q24 0 40 -16t16 -40q0 -26 -17 -42.5t-42 -16.5z" />
    <glyph glyph-name="at" unicode="@" horiz-adv-x="900" 
d="M411 -140q-158 0 -259 100.5t-101 266.5q0 55 14.5 111.5t48 114t82.5 102.5t126 73t170 28q164 0 263.5 -99t99.5 -258q0 -40 -10 -81t-31 -82.5t-62 -67.5t-95 -26q-75 0 -97 70q-12 21 -16 40h-2q-59 -98 -160 -98q-64 0 -104 43.5t-40 122.5q0 105 60 177.5t154 72.5
q79 0 119 -42l3 1l4 36h80l-27 -222q-3 -25 -7 -64q-2 -72 54 -72q53 0 83 63t30 128q0 132 -82 215.5t-217 83.5q-96 0 -171.5 -34.5t-119 -90.5t-65.5 -118.5t-22 -126.5q0 -137 85 -221.5t212 -84.5q119 0 216 52l29 -46q-106 -67 -245 -67zM404 127q52 0 99 52.5
t56 126.5l7 52q-41 38 -104 38t-102.5 -51t-39.5 -118q0 -49 22.5 -74.5t61.5 -25.5z" />
    <glyph glyph-name="A" unicode="A" horiz-adv-x="626" 
d="M-3 0l328 710h90l155 -710h-89l-36 174h-281l-78 -174h-89zM197 249h233l-73 354h-2z" />
    <glyph glyph-name="B" unicode="B" horiz-adv-x="600" 
d="M63 0l87 710h220q181 0 181 -146q0 -57 -32.5 -109.5t-89.5 -76.5v-1q112 -31 112 -146q0 -111 -69.5 -171t-195.5 -60h-213zM198 405h126q62 0 100.5 39t38.5 105q0 44 -27.5 64t-86.5 20h-123zM158 77h121q81 0 127.5 40t46.5 116q0 97 -130 97h-134z" />
    <glyph glyph-name="C" unicode="C" horiz-adv-x="676" 
d="M349 -6q-125 0 -202 78.5t-77 219.5q0 114 45 210.5t129 155.5t190 59q153 0 244 -150l-72 -50q-65 118 -175 118q-79 0 -142.5 -49.5t-96.5 -127t-33 -166.5q0 -102 51 -159.5t143 -57.5q51 0 102 25t88 69l64 -56q-50 -55 -117 -87t-141 -32z" />
    <glyph glyph-name="D" unicode="D" horiz-adv-x="681" 
d="M63 0l87 710h200q140 0 214 -77.5t74 -213.5q0 -188 -103 -303.5t-274 -115.5h-198zM158 77h111q126 0 203 95.5t77 245.5q0 100 -53 157.5t-152 57.5h-118z" />
    <glyph glyph-name="E" unicode="E" horiz-adv-x="559" 
d="M63 0l87 710h396l-10 -77h-311l-29 -241h255l-10 -77h-255l-29 -238h330l-9 -77h-415z" />
    <glyph glyph-name="F" unicode="F" horiz-adv-x="545" 
d="M63 0l87 710h412l-10 -77h-326l-31 -252h277l-10 -78h-277l-37 -303h-85z" />
    <glyph glyph-name="G" unicode="G" horiz-adv-x="706" 
d="M354 -6q-129 0 -206.5 78t-77.5 219q0 175 102.5 300.5t258.5 125.5q152 0 237 -118l-70 -53q-64 89 -170 89q-116 0 -192.5 -100.5t-76.5 -241.5q0 -103 52 -162t147 -59t173 60l20 156h-180l11 77h264l-33 -282q-50 -42 -119 -65.5t-140 -23.5z" />
    <glyph glyph-name="H" unicode="H" horiz-adv-x="683" 
d="M63 0l87 710h85l-41 -334h327l41 334h85l-86 -710h-86l37 299h-327l-37 -299h-85z" />
    <glyph glyph-name="I" unicode="I" horiz-adv-x="282" 
d="M68 0l87 710h86l-87 -710h-86z" />
    <glyph glyph-name="J" unicode="J" horiz-adv-x="468" 
d="M171 -6q-46 0 -89 24t-70 68l59 61q42 -72 101 -72q108 0 130 169l57 466h86l-58 -470q-15 -123 -67.5 -184.5t-148.5 -61.5z" />
    <glyph glyph-name="K" unicode="K" horiz-adv-x="604" 
d="M631 710l-277 -319l195 -391h-98l-160 328l-119 -136l-24 -192h-85l87 710h85l-48 -387l3 -1l334 388h107z" />
    <glyph glyph-name="L" unicode="L" horiz-adv-x="526" 
d="M63 0l87 710h85l-77 -633h313l-9 -77h-399z" />
    <glyph glyph-name="M" unicode="M" horiz-adv-x="820" 
d="M63 0l87 710h86l175 -459h2l286 459h85l-87 -710h-85l64 531l-3 1l-245 -389h-59l-152 401l-2 -1l-67 -543h-85z" />
    <glyph glyph-name="N" unicode="N" horiz-adv-x="709" 
d="M63 0l87 710h85l281 -565l3 1l69 564h86l-88 -710h-86l-281 560h-2l-69 -560h-85z" />
    <glyph glyph-name="O" unicode="O" horiz-adv-x="760" 
d="M350 -6q-128 0 -204.5 79t-76.5 218q0 112 45 209t130 157t192 60q128 0 205 -78.5t77 -218.5q0 -178 -101 -302t-267 -124zM356 74q79 0 143 48.5t97.5 126.5t33.5 168q0 108 -53.5 164t-149.5 56q-116 0 -192.5 -103.5t-76.5 -240.5q0 -106 53 -162.5t145 -56.5z" />
    <glyph glyph-name="P" unicode="P" horiz-adv-x="578" 
d="M63 0l87 710h229q187 0 187 -182q0 -119 -69 -187.5t-196 -68.5h-120l-33 -272h-85zM191 350h121q78 0 121.5 46.5t43.5 131.5q0 50 -31.5 77.5t-84.5 27.5h-135z" />
    <glyph glyph-name="Q" unicode="Q" horiz-adv-x="777" 
d="M719 420q0 -176 -96 -295l71 -78l-56 -61l-72 81q-92 -73 -215 -73q-128 0 -204.5 79t-76.5 218q0 112 45 208.5t130 156.5t192 60q128 0 205 -78.5t77 -217.5zM357 74q85 0 152 56l-67 75l55 58l67 -73q67 97 67 227q0 107 -53.5 163t-149.5 56q-116 0 -192.5 -103
t-76.5 -240q0 -106 53 -162.5t145 -56.5z" />
    <glyph glyph-name="R" unicode="R" horiz-adv-x="609" 
d="M63 0l87 710h232q187 0 187 -182q0 -95 -46.5 -159t-132.5 -85l137 -284h-96l-127 272h-123l-33 -272h-85zM191 350h124q77 0 121.5 47.5t44.5 130.5q0 50 -32 77.5t-85 27.5h-138z" />
    <glyph glyph-name="S" unicode="S" horiz-adv-x="551" 
d="M260 -6q-71 0 -133.5 31t-98.5 86l64 58q27 -47 71 -71.5t93 -24.5q65 0 106 34.5t41 88.5q0 13 -3 23.5t-12 21t-14.5 17t-22 17.5t-24 15.5t-30.5 17t-31 17.5q-5 3 -14 8q-39 22 -59.5 35.5t-48 37.5t-40 52.5t-12.5 63.5q0 87 63 141t159 54q122 0 200 -95l-63 -55
q-53 72 -143 72q-56 0 -92 -30.5t-35 -76.5q0 -21 8 -37.5t28.5 -33t35.5 -26.5t50 -30q7 -4 39 -21.5t41 -23t33 -21.5t32.5 -27t21.5 -28t17.5 -36t4.5 -41q0 -100 -65 -156.5t-167 -56.5z" />
    <glyph glyph-name="T" unicode="T" horiz-adv-x="529" 
d="M192 0l77 633h-190l9 77h467l-9 -77h-192l-77 -633h-85z" />
    <glyph glyph-name="U" unicode="U" horiz-adv-x="666" 
d="M321 -6q-125 0 -178.5 81t-35.5 221l51 414h85l-51 -413q-13 -101 19 -161.5t114 -60.5q172 0 197 214l52 421h85l-52 -422q-35 -294 -286 -294z" />
    <glyph glyph-name="V" unicode="V" horiz-adv-x="620" 
d="M242 0l-153 710h90l116 -592h2l258 592h95l-327 -710h-81z" />
    <glyph glyph-name="W" unicode="W" horiz-adv-x="933" 
d="M208 0l-116 710h89l86 -569h3l205 569h95l72 -559h2l221 559h92l-291 -710h-86l-74 571h-2l-210 -571h-86z" />
    <glyph glyph-name="X" unicode="X" horiz-adv-x="598" 
d="M-6 0l260 357l-168 353h96l137 -289h3l204 289h103l-258 -356l173 -354h-99l-139 289h-3l-210 -289h-99z" />
    <glyph glyph-name="Y" unicode="Y" horiz-adv-x="555" 
d="M204 0l39 317l-169 393h94l125 -310h3l202 310h99l-268 -393l-40 -317h-85z" />
    <glyph glyph-name="Z" unicode="Z" horiz-adv-x="576" 
d="M30 0l8 68l409 562l-1 3h-322l9 77h433l-7 -68l-414 -561l2 -4h344l-10 -77h-451z" />
    <glyph glyph-name="bracketleft" unicode="[" horiz-adv-x="300" 
d="M23 -145l107 874h182l-8 -63h-111l-91 -748h110l-8 -63h-181z" />
    <glyph glyph-name="backslash" unicode="\" horiz-adv-x="374" 
d="M292 -113l-241 852l66 30l242 -852z" />
    <glyph glyph-name="bracketright" unicode="]" horiz-adv-x="302" 
d="M0 -145l8 63h113l92 748h-113l7 63h185l-107 -874h-185z" />
    <glyph glyph-name="asciicircum" unicode="^" horiz-adv-x="440" 
d="M93 500l151 210h63l101 -210h-71l-66 154l-107 -154h-71z" />
    <glyph glyph-name="underscore" unicode="_" horiz-adv-x="471" 
d="M-44 -85l6 58h480l-6 -58h-480z" />
    <glyph glyph-name="grave" unicode="`" horiz-adv-x="463" 
d="M266 541l-94 142l90 -1l87 -141h-83z" />
    <glyph glyph-name="a" unicode="a" horiz-adv-x="551" 
d="M209 -6q-81 0 -124 55t-43 141q0 123 68.5 213t175.5 90q89 0 138 -52l2 1l6 44h79l-60 -486h-79l14 111l-3 1q-33 -56 -78.5 -87t-95.5 -31zM224 65q65 0 119.5 72t67.5 179l6 50q-22 26 -58 39.5t-68 13.5q-75 0 -122 -69.5t-47 -161.5q0 -56 26.5 -89.5t75.5 -33.5z
" />
    <glyph glyph-name="b" unicode="b" horiz-adv-x="563" 
d="M248 -6q-113 0 -195 53l85 689h79l-43 -356l2 -1q73 114 177 114q81 0 124 -57.5t43 -148.5q0 -76 -29.5 -141t-93 -108.5t-149.5 -43.5zM241 66q91 0 144.5 67t53.5 163q0 54 -26 88.5t-76 34.5q-69 0 -122 -70.5t-67 -178.5l-11 -84q45 -20 104 -20z" />
    <glyph glyph-name="c" unicode="c" horiz-adv-x="486" 
d="M236 -6q-86 0 -139.5 53t-53.5 151q0 123 70 209t187 86q114 0 170 -81l-63 -47q-36 54 -109 54q-78 0 -126 -62.5t-48 -153.5q0 -65 33 -100.5t84 -35.5q76 0 131 61l62 -45q-81 -89 -198 -89z" />
    <glyph glyph-name="d" unicode="d" horiz-adv-x="562" 
d="M210 -6q-81 0 -124 55t-43 141q0 122 68 212.5t176 90.5q89 0 141 -53l2 1l36 295h80l-91 -736h-79l14 113l-3 1q-70 -120 -177 -120zM224 65q67 0 122 72t68 179l7 50q-40 53 -129 53q-75 0 -122 -69.5t-47 -161.5q0 -56 26.5 -89.5t74.5 -33.5z" />
    <glyph glyph-name="e" unicode="e" horiz-adv-x="472" 
d="M240 67q69 0 125 61l63 -45q-42 -45 -86 -67t-105 -22q-89 0 -141.5 54t-52.5 148q0 124 70 210.5t184 86.5q59 0 104.5 -32.5t45.5 -94.5q0 -154 -325 -184q4 -54 37 -84.5t81 -30.5zM293 420q-59 0 -107 -46t-61 -126q241 21 241 114q0 30 -21.5 44t-51.5 14z" />
    <glyph glyph-name="f" unicode="f" horiz-adv-x="299" 
d="M53 0l51 418h-51l8 69h52l13 105q18 151 137 151q58 0 102 -30l-22 -68q-33 24 -69 24q-60 0 -71 -93l-10 -89h116l-8 -69h-118l-51 -418h-79z" />
    <glyph glyph-name="g" unicode="g" horiz-adv-x="554" 
d="M190 -204q-88 0 -161 44l26 70q67 -41 139 -41q80 0 126 42t61 158l8 61l-2 1q-35 -57 -80.5 -89.5t-96.5 -32.5q-81 0 -124 55t-43 141q0 113 68.5 200.5t175.5 87.5q89 0 139 -52l1 1l6 45h79l-52 -424q-10 -79 -34.5 -133t-61.5 -82.5t-78.5 -40t-95.5 -11.5zM224 81
q63 0 117.5 65.5t67.5 157.5l8 62q-22 26 -57.5 39.5t-67.5 13.5q-75 0 -122 -66.5t-47 -148.5q0 -56 26.5 -89.5t74.5 -33.5z" />
    <glyph glyph-name="h" unicode="h" horiz-adv-x="548" 
d="M47 0l90 736h79l-44 -361h2q37 56 88 87t105 31q74 0 103.5 -49t16.5 -151l-39 -293h-80l39 287q10 70 -6.5 101.5t-58.5 31.5q-60 0 -120.5 -68.5t-71.5 -161.5l-24 -190h-79z" />
    <glyph glyph-name="i" unicode="i" horiz-adv-x="240" 
d="M170 577q-24 0 -40 16t-16 40q0 25 16.5 41.5t41.5 16.5q24 0 40 -16t16 -40q0 -25 -16.5 -41.5t-41.5 -16.5zM50 0l60 487h80l-60 -487h-80z" />
    <glyph glyph-name="j" unicode="j" horiz-adv-x="213" 
d="M152 577q-24 0 -40 16t-16 40q0 25 16.5 41.5t41.5 16.5q24 0 40 -16t16 -40q0 -25 -16.5 -41.5t-41.5 -16.5zM-29 -204q-43 0 -77 21l20 64q20 -15 46 -15q28 0 44.5 21.5t22.5 76.5l64 523h80l-66 -533q-19 -158 -134 -158z" />
    <glyph glyph-name="k" unicode="k" horiz-adv-x="498" 
d="M420 -5q-12 -2 -23 0q-18 2 -32.5 10.5t-23 16t-20.5 30.5t-17 34t-19 45l-24 55q-58 -46 -123 -77l-12 -109h-79l90 736h79l-66 -539l2 -1q92 54 155 131.5t88 159.5h81q-32 -134 -153 -250l35 -83q22 -54 39 -72.5t46 -24.5z" />
    <glyph glyph-name="l" unicode="l" horiz-adv-x="236" 
d="M52 0l90 736h79l-90 -736h-79z" />
    <glyph glyph-name="m" unicode="m" horiz-adv-x="825" 
d="M47 0l61 487h79l-13 -106l2 -1q36 54 81.5 83.5t92.5 29.5q104 0 117 -111h3q73 111 179 111q143 0 117 -200l-39 -293h-80l39 287q17 133 -59 133q-50 0 -106 -65t-69 -160l-26 -195h-79l38 287q18 133 -58 133q-51 0 -108 -68.5t-68 -159.5l-24 -192h-80z" />
    <glyph glyph-name="n" unicode="n" horiz-adv-x="548" 
d="M47 0l60 487h79l-13 -110l2 -1q38 56 88 86.5t104 30.5q74 0 103.5 -49t16.5 -151l-39 -293h-79l38 287q10 70 -6.5 101.5t-58.5 31.5q-59 0 -120 -67.5t-72 -160.5l-24 -192h-79z" />
    <glyph glyph-name="o" unicode="o" horiz-adv-x="544" 
d="M244 -6q-93 0 -147 54t-54 150q0 122 70.5 208.5t185.5 86.5q92 0 147 -52.5t55 -147.5q0 -130 -69 -214.5t-188 -84.5zM246 67q77 0 125.5 62t48.5 157q0 69 -36 101t-89 32q-75 0 -123.5 -62.5t-48.5 -149.5q0 -64 33 -102t90 -38z" />
    <glyph glyph-name="p" unicode="p" horiz-adv-x="562" 
d="M23 -198l84 685h79l-14 -113l2 -1q72 120 184 120q77 0 119.5 -56t42.5 -141q0 -122 -69 -212t-178 -90q-91 0 -139 49l-2 -1l-30 -240h-79zM255 66q83 0 134 66.5t51 158.5q0 56 -26 93t-73 37q-68 0 -123.5 -71t-69.5 -175l-7 -53q17 -29 49 -42.5t65 -13.5z" />
    <glyph glyph-name="q" unicode="q" horiz-adv-x="552" 
d="M348 -198l39 311l-3 1q-33 -57 -79 -88.5t-95 -31.5q-81 0 -124.5 55t-43.5 141q0 123 68.5 213t175.5 90q88 0 138 -50l2 1l6 43h79l-84 -685h-79zM224 65q65 0 119.5 72.5t67.5 176.5l6 52q-22 27 -57.5 40.5t-68.5 13.5q-75 0 -121.5 -69.5t-46.5 -162.5
q0 -56 26.5 -89.5t74.5 -33.5z" />
    <glyph glyph-name="r" unicode="r" horiz-adv-x="327" 
d="M47 0l61 487h79l-14 -109h2q65 103 165 115l-10 -93q-72 4 -119.5 -53.5t-59.5 -153.5l-24 -193h-80z" />
    <glyph glyph-name="s" unicode="s" horiz-adv-x="415" 
d="M185 -6q-53 0 -98.5 20.5t-73.5 57.5l53 53q50 -61 119 -61q43 0 70.5 18.5t27.5 50.5q0 18 -14 33t-27 21.5t-49 22.5q-9 4 -13 6q-56 24 -87.5 56t-31.5 81q0 62 47 101t114 39q99 0 157 -66l-53 -54q-42 50 -106 50q-34 0 -56 -18t-22 -48q0 -24 22 -42t65 -38
q75 -35 99 -57q35 -33 36 -78q0 -71 -49.5 -109.5t-129.5 -38.5z" />
    <glyph glyph-name="t" unicode="t" horiz-adv-x="335" 
d="M163 -6q-57 0 -80.5 37t-15.5 102l35 285h-54l7 69h55l21 160l80 15l-21 -175h137l-7 -69h-138l-34 -272q-9 -76 41 -76q37 0 80 29l11 -71q-53 -34 -117 -34z" />
    <glyph glyph-name="u" unicode="u" horiz-adv-x="534" 
d="M216 -6q-156 0 -129 196l41 297h79l-39 -290q-9 -72 9.5 -101t61.5 -29q53 0 108.5 61t66.5 146l26 213h80l-60 -487h-79l13 110h-2q-30 -53 -76 -84.5t-100 -31.5z" />
    <glyph glyph-name="v" unicode="v" horiz-adv-x="494" 
d="M222 -6q-160 0 -133 212l35 281h80l-35 -274q-9 -79 6 -112.5t55 -33.5q50 0 99.5 55t70.5 152q20 99 3 213h81q20 -122 -5 -236q-29 -128 -100.5 -192.5t-156.5 -64.5z" />
    <glyph glyph-name="w" unicode="w" horiz-adv-x="777" 
d="M209 -6q-148 0 -121 204l38 289h79l-36 -284q-18 -136 66 -136q44 0 92 54.5t60 153.5l26 212h80l-36 -287q-17 -133 61 -133q47 0 96 55.5t69 151.5q20 99 3 213h81q20 -122 -5 -236q-28 -128 -99.5 -192.5t-152.5 -64.5q-58 0 -92 31t-38 85h-2q-26 -51 -76.5 -83.5
t-92.5 -32.5z" />
    <glyph glyph-name="x" unicode="x" horiz-adv-x="463" 
d="M-3 0l188 247l-127 240h92l88 -179h2l131 179h97l-188 -244l128 -243h-91l-90 181h-2l-136 -181h-92z" />
    <glyph glyph-name="y" unicode="y" horiz-adv-x="533" 
d="M414 487h78l-51 -424q-10 -79 -34.5 -133.5t-61 -82.5t-75 -39.5t-86.5 -11.5q-86 0 -161 44l26 70q69 -41 136 -41q73 0 118.5 42.5t59.5 157.5l5 40l-2 1q-69 -116 -179 -116q-77 0 -110 47t-19 149l40 297h79l-38 -290q-9 -72 9 -101t62 -29q56 0 112.5 64.5
t66.5 151.5z" />
    <glyph glyph-name="z" unicode="z" horiz-adv-x="446" 
d="M363 -26q-41 13 -103.5 19t-105.5 6.5t-145 0.5l6 58l294 359v1h-235l8 69h344l-6 -57l-296 -359v-2q183 -4 261 -29z" />
    <glyph glyph-name="braceleft" unicode="{" horiz-adv-x="321" 
d="M173 -144q-43 0 -68.5 31t-18.5 81l27 215q1 20 1 35.5t-15 26t-48 12.5l5 63q33 2 52 15.5t23.5 27t7.5 35.5l27 222q6 47 36 78t75 31h53l-7 -57h-24q-28 0 -45.5 -20.5t-20.5 -48.5l-27 -216q-5 -43 -18.5 -66t-43.5 -32v-2q27 -9 35.5 -30t2.5 -70l-24 -198
q-5 -41 5.5 -58.5t39.5 -17.5h27l-8 -57h-49z" />
    <glyph glyph-name="bar" unicode="|" horiz-adv-x="300" 
d="M71 -115l104 852h70l-104 -852h-70z" />
    <glyph glyph-name="braceright" unicode="}" horiz-adv-x="322" 
d="M3 -144l8 57h24q31 0 46.5 19t20.5 60l24 198q6 49 19 69t44 30v2q-49 17 -37 99l25 216q3 29 -8 47.5t-39 18.5h-26l7 57h50q45 0 68.5 -32.5t18.5 -79.5l-28 -222q-1 -18 -1.5 -34t15 -27.5t48.5 -13.5l-5 -63q-26 -1 -42.5 -7.5t-24.5 -19t-11 -23t-5 -28.5l-26 -214
q-7 -51 -38 -80t-73 -29h-54z" />
    <glyph glyph-name="asciitilde" unicode="~" horiz-adv-x="526" 
d="M350 212q-38 0 -87 28q-44 27 -69 27q-43 0 -76 -54l-56 26q47 104 125 104q10 0 19.5 -1.5t16.5 -3t15 -5.5l12 -6t12 -6.5t10 -5.5q47 -28 70 -28q45 0 73 54l57 -23q-21 -50 -53.5 -78t-68.5 -28z" />
    <glyph glyph-name="uni00A0" unicode="&#xa0;" horiz-adv-x="215" 
 />
    <glyph glyph-name="exclamdown" unicode="&#xa1;" horiz-adv-x="242" 
d="M136 494q24 0 39.5 -16t15.5 -40q0 -25 -16.5 -42t-41.5 -17q-24 0 -40 16t-16 40q0 25 16.5 42t42.5 17zM150 279l-50 -528h-88l80 528h58z" />
    <glyph glyph-name="cent" unicode="&#xa2;" horiz-adv-x="497" 
d="M249 121q78 0 135 61l62 -45q-65 -74 -159 -87l-13 -103h-57l13 102q-78 5 -126 58t-48 142q0 117 63.5 201.5t168.5 95.5l13 107h57l-13 -108q93 -10 137 -78l-63 -47q-34 54 -104 54q-79 0 -128.5 -63t-49.5 -157q0 -60 33 -96.5t79 -36.5z" />
    <glyph glyph-name="sterling" unicode="&#xa3;" horiz-adv-x="511" 
d="M18 0l10 77h67l33 267h-55l8 61h54l8 63q15 119 70 171.5t129 52.5q53 0 95.5 -26.5t66.5 -73.5l-53 -55q-34 75 -101 75q-106 0 -123 -157l-7 -50h146l-8 -61h-145l-33 -267h283l-10 -77h-435z" />
    <glyph glyph-name="currency" unicode="&#xa4;" horiz-adv-x="464" 
d="M419 410q0 -78 -49 -136l59 -75l-43 -39l-60 75q-45 -29 -101 -29q-55 0 -95 29l-75 -74l-37 39l78 76q-18 33 -18 78q0 82 47 142l-61 77l44 38l59 -74q48 32 103 32q56 0 94 -32l75 75l37 -38l-78 -78q21 -34 21 -86zM136 363q0 -45 26 -72t70 -27q55 0 91.5 41
t36.5 99q0 48 -27 77.5t-69 29.5q-54 0 -91 -43t-37 -105z" />
    <glyph glyph-name="yen" unicode="&#xa5;" horiz-adv-x="520" 
d="M562 687l-214 -334h116l-7 -55h-145l-3 -5l-9 -70h147l-7 -55h-147l-21 -168h-85l21 168h-151l7 55h150l9 70l-2 5h-148l7 55h120l-131 334h98l109 -309h2l183 309h101z" />
    <glyph glyph-name="brokenbar" unicode="&#xa6;" horiz-adv-x="300" 
d="M205 410l-1 -8l-23 -189l-19 -155h-70l62 508h70z" />
    <glyph glyph-name="section" unicode="&#xa7;" horiz-adv-x="502" 
d="M298 423q83 -38 107 -58q42 -35 42 -92q0 -99 -98 -145q52 -37 52 -102q0 -80 -54.5 -129.5t-141.5 -49.5q-118 0 -184 93l52 56q23 -37 60 -55t74 -18q47 0 77 26t30 69q0 18 -5.5 31t-24 26t-32 20t-49.5 24t-54.5 28t-41.5 29.5t-33 41.5t-10 53q0 48 25.5 84.5
t70.5 56.5q-49 39 -49 103q0 75 52.5 123t130.5 48q51 0 97.5 -20t74.5 -52l-51 -56q-48 51 -117 51q-45 0 -72.5 -24t-27.5 -65q0 -32 22 -51t78 -46zM286 165q36 11 57.5 37t21.5 61q0 32 -22 49.5t-84 44.5q-6 3 -18 8.5t-18 8.5q-35 -8 -56 -35t-21 -60q0 -31 22 -49
t80 -47q18 -10 38 -18z" />
    <glyph glyph-name="dieresis" unicode="&#xa8;" horiz-adv-x="471" 
d="M195 561q-24 0 -40 16t-16 40q0 25 17 41.5t42 16.5q23 0 39 -16t16 -40q0 -25 -16.5 -41.5t-41.5 -16.5zM366 561q-25 0 -41 16t-16 40q0 25 17 41.5t42 16.5q23 0 39 -16t16 -40q0 -25 -16.5 -41.5t-40.5 -16.5z" />
    <glyph glyph-name="copyright" unicode="&#xa9;" horiz-adv-x="702" 
d="M349 12q-126 0 -214.5 90.5t-88.5 215.5t88.5 215.5t215.5 90.5q128 0 215.5 -90t87.5 -216q0 -125 -88 -215.5t-216 -90.5zM349 69q103 0 174.5 73.5t71.5 175.5q0 103 -71 176t-174 73t-174.5 -73.5t-71.5 -176.5q0 -102 71 -175t174 -73zM357 153q-70 0 -116.5 43
t-46.5 120q0 71 43 117.5t120 46.5q78 0 127 -62l-39 -33q-35 45 -88 45q-50 0 -79 -31.5t-29 -82.5q0 -52 29.5 -82t78.5 -30q55 0 88 43l39 -33q-50 -61 -127 -61z" />
    <glyph glyph-name="ordfeminine" unicode="&#xaa;" horiz-adv-x="371" 
d="M173 391q-45 0 -74 31.5t-29 89.5q0 74 45 126.5t111 52.5q47 0 77 -27h2l4 23h57l-36 -292h-58l7 57h-2q-43 -61 -104 -61zM183 447q37 0 70.5 36t41.5 94l3 29q-8 14 -27 22t-39 8q-45 0 -73.5 -37.5t-28.5 -86.5q0 -31 14 -48t39 -17z" />
    <glyph glyph-name="guillemotleft" unicode="&#xab;" horiz-adv-x="444" 
d="M131 26l-87 219l141 221h77l-139 -221l85 -219h-77zM300 26l-87 219l142 221h76l-139 -221l84 -219h-76z" />
    <glyph glyph-name="logicalnot" unicode="&#xac;" horiz-adv-x="522" 
d="M381 165l19 157h-331l8 73h404l-28 -230h-72z" />
    <glyph glyph-name="registered" unicode="&#xae;" horiz-adv-x="702" 
d="M350 624q128 0 215.5 -90t87.5 -216q0 -125 -88 -215.5t-216 -90.5q-126 0 -214.5 90.5t-88.5 215.5t88.5 215.5t215.5 90.5zM349 69q103 0 174.5 73.5t71.5 175.5q0 103 -71 176t-174 73t-174.5 -73.5t-71.5 -176.5q0 -102 71 -175t174 -73zM469 380q0 -77 -70 -97
l86 -125h-61l-82 120h-47v-120h-50v324h116q54 0 81 -28t27 -74zM296 434v-109h53q67 0 67 56q0 24 -16.5 38.5t-45.5 14.5h-58z" />
    <glyph glyph-name="macron" unicode="&#xaf;" horiz-adv-x="417" 
d="M119 580l8 69h262l-8 -69h-262z" />
    <glyph glyph-name="degree" unicode="&#xb0;" horiz-adv-x="377" 
d="M212 445q-53 0 -83 30.5t-30 80.5q0 67 41.5 113.5t104.5 46.5q51 0 83 -32t32 -86q0 -62 -41.5 -107.5t-106.5 -45.5zM218 502q37 0 61.5 26.5t24.5 64.5q0 30 -17 49t-47 19q-37 0 -61 -28t-24 -70q0 -29 16.5 -45t46.5 -16z" />
    <glyph glyph-name="plusminus" unicode="&#xb1;" horiz-adv-x="544" 
d="M228 159l24 197h-174l9 73h174l24 198h75l-25 -198h174l-9 -73h-174l-24 -197h-74zM33 -1l9 73h422l-9 -73h-422z" />
    <glyph glyph-name="uni00B2" unicode="&#xb2;" horiz-adv-x="313" 
d="M51 436l5 47l143 138q70 66 70 115q0 24 -13 38.5t-36 14.5q-50 0 -82 -53l-48 40q22 35 58.5 56t78.5 21q49 0 80 -29t31 -79q0 -44 -20.5 -80t-62.5 -75l-97 -91l1 -1h154l-7 -62h-255z" />
    <glyph glyph-name="uni00B3" unicode="&#xb3;" horiz-adv-x="317" 
d="M184 430q-51 0 -85.5 25.5t-44.5 64.5l63 22q12 -51 64 -51q35 0 56 22.5t21 56.5q0 23 -16.5 37t-45.5 14h-31l6 53h35q29 0 49 21t20 50q0 23 -14 35t-36 12q-46 0 -72 -42l-54 34q19 31 52.5 50t74.5 19q51 0 82.5 -25.5t31.5 -71.5q0 -72 -65 -105v-3q53 -23 53 -84
t-41 -97.5t-103 -36.5z" />
    <glyph glyph-name="acute" unicode="&#xb4;" horiz-adv-x="460" 
d="M186 541l121 141l90 1l-128 -142h-83z" />
    <glyph glyph-name="uni00B5" unicode="&#xb5;" horiz-adv-x="549" 
d="M501 69l14 -57q-30 -18 -73 -18q-44 0 -64 26.5t-18 70.5q-54 -97 -147 -97q-66 0 -89 53l-2 -1q2 -61 -5 -107l-18 -137h-78l84 685h79l-36 -291q-8 -67 14 -98t59 -31q55 0 99.5 47t55.5 133l30 240h79l-44 -351q-5 -39 1 -54.5t32 -15.5q12 0 27 3z" />
    <glyph glyph-name="paragraph" unicode="&#xb6;" horiz-adv-x="459" 
d="M262 -150l92 746h-57l-73 -596h-54l45 353q-61 0 -99 32.5t-38 89.5q0 74 50 125.5t134 51.5h151l-98 -802h-53z" />
    <glyph glyph-name="periodcentered" unicode="&#xb7;" horiz-adv-x="238" 
d="M123 185q-24 0 -39.5 16t-15.5 40q0 25 16.5 42t41.5 17q24 0 40 -16t16 -40q0 -26 -17 -42.5t-42 -16.5z" />
    <glyph glyph-name="cedilla" unicode="&#xb8;" horiz-adv-x="307" 
d="M72 -188q-22 0 -44 6l3 43q15 -6 35 -6q28 0 46 12.5t18 34.5q0 31 -69 32l2 30l24 42h50l-24 -39l1 -1q72 -5 72 -64q0 -42 -31.5 -66t-82.5 -24z" />
    <glyph glyph-name="uni00B9" unicode="&#xb9;" horiz-adv-x="251" 
d="M209 848h53l-51 -412h-67l40 323l-74 -52l-28 53z" />
    <glyph glyph-name="ordmasculine" unicode="&#xba;" horiz-adv-x="344" 
d="M192 392q-55 0 -88 32t-33 91q0 72 42 124t114 52q54 0 87 -30.5t33 -89.5q0 -74 -41.5 -126.5t-113.5 -52.5zM194 447q38 0 64 34t26 85q0 36 -17.5 53t-43.5 17q-38 0 -64 -34t-26 -81q0 -33 16.5 -53.5t44.5 -20.5z" />
    <glyph glyph-name="guillemotright" unicode="&#xbb;" horiz-adv-x="442" 
d="M14 26l139 219l-86 221h77l87 -221l-140 -219h-77zM184 26l139 219l-86 221h77l87 -221l-140 -219h-77z" />
    <glyph glyph-name="onequarter" unicode="&#xbc;" horiz-adv-x="692" 
d="M510 724l64 -30l-367 -710l-64 29zM194 299h-67l40 323l-74 -52l-28 53l127 88h53zM601 128h54l-8 -60h-54l-8 -68h-68l9 68h-166l5 45l217 299h54zM440 124h101l22 176z" />
    <glyph glyph-name="onehalf" unicode="&#xbd;" horiz-adv-x="727" 
d="M510 724l64 -30l-367 -710l-64 29zM194 299h-67l40 323l-74 -52l-28 53l127 88h53zM518 63l1 -1h154l-7 -62h-255l5 47l143 138q70 66 70 115q0 24 -13 38.5t-36 14.5q-50 0 -82 -53l-48 40q22 35 58.5 56t78.5 21q49 0 80 -29t31 -79q0 -44 -20.5 -80t-62.5 -75z" />
    <glyph glyph-name="threequarters" unicode="&#xbe;" horiz-adv-x="740" 
d="M558 724l64 -30l-367 -710l-64 29zM311 427q0 -61 -41 -97.5t-103 -36.5q-51 0 -85.5 25.5t-44.5 64.5l63 22q12 -51 64 -51q35 0 56 22.5t21 56.5q0 23 -16.5 37t-45.5 14h-31l6 53h35q29 0 49 21t20 50q0 23 -14 35t-36 12q-46 0 -72 -42l-54 34q19 31 52.5 50t74.5 19
q51 0 82.5 -25.5t31.5 -71.5q0 -73 -65 -105v-3q53 -23 53 -84zM649 128h54l-8 -60h-54l-8 -68h-68l9 68h-166l5 45l217 299h54zM488 124h101l22 176z" />
    <glyph glyph-name="questiondown" unicode="&#xbf;" horiz-adv-x="396" 
d="M259 493q24 0 39.5 -16t15.5 -40q0 -25 -16.5 -42t-41.5 -17q-24 0 -40 16t-16 40q0 26 17 42.5t42 16.5zM281 279l-6 -52q-1 -11 -4.5 -22t-6.5 -19.5t-10.5 -20t-11.5 -17.5t-15 -18t-15 -17t-17.5 -19t-17.5 -18q-42 -45 -62.5 -80t-20.5 -80t23 -69t63 -24
q70 0 118 67l52 -53q-33 -44 -84.5 -69t-106.5 -25q-68 0 -112 41.5t-44 116.5q0 101 107 206q31 29 44 42.5t28 36t18 42.5l8 51h73z" />
    <glyph glyph-name="Agrave" unicode="&#xc0;" horiz-adv-x="626" 
d="M343 782l-98 129h89l90 -129h-81zM-3 0l328 710h90l155 -710h-89l-36 174h-281l-78 -174h-89zM197 249h233l-73 354h-2z" />
    <glyph glyph-name="Aacute" unicode="&#xc1;" horiz-adv-x="626" 
d="M344 782l119 129h92l-130 -129h-81zM-3 0l328 710h90l155 -710h-89l-36 174h-281l-78 -174h-89zM197 249h233l-73 354h-2z" />
    <glyph glyph-name="Acircumflex" unicode="&#xc2;" horiz-adv-x="626" 
d="M237 782l123 124h77l88 -124h-77l-55 75h-2l-76 -75h-78zM-3 0l328 710h90l155 -710h-89l-36 174h-281l-78 -174h-89zM197 249h233l-73 354h-2z" />
    <glyph glyph-name="Atilde" unicode="&#xc3;" horiz-adv-x="626" 
d="M461 781q-33 0 -78 35q-30 24 -48 24q-36 0 -60 -57l-51 26q42 90 105 90q10 0 18.5 -1.5t17.5 -6t12.5 -6t14.5 -9.5l10 -7q34 -28 52 -28q35 0 59 56l51 -20q-19 -45 -46 -70.5t-57 -25.5zM-3 0l328 710h90l155 -710h-89l-36 174h-281l-78 -174h-89zM197 249h233
l-73 354h-2z" />
    <glyph glyph-name="Adieresis" unicode="&#xc4;" horiz-adv-x="626" 
d="M304 793q-24 0 -40 16t-16 40q0 25 17 41.5t42 16.5q23 0 39 -16t16 -40q0 -25 -16.5 -41.5t-41.5 -16.5zM475 793q-25 0 -41 16t-16 40q0 25 17 41.5t42 16.5q23 0 39 -16t16 -40q0 -25 -16.5 -41.5t-40.5 -16.5zM-3 0l328 710h90l155 -710h-89l-36 174h-281l-78 -174
h-89zM197 249h233l-73 354h-2z" />
    <glyph glyph-name="Aring" unicode="&#xc5;" horiz-adv-x="626" 
d="M389 770q-39 0 -65.5 26.5t-26.5 66.5t27.5 67t68.5 27q39 0 65.5 -26.5t26.5 -65.5q0 -41 -27.5 -68t-68.5 -27zM390 822q19 0 31.5 12t12.5 31q0 17 -12 29t-30 12q-19 0 -31.5 -12.5t-12.5 -30.5t12 -29.5t30 -11.5zM-3 0l328 710h90l155 -710h-89l-36 174h-281
l-78 -174h-89zM197 249h233l-73 354h-2z" />
    <glyph glyph-name="AE" unicode="&#xc6;" horiz-adv-x="858" 
d="M-23 0l424 710h444l-10 -77h-313l-30 -241h261l-10 -77h-260l-29 -238h331l-9 -77h-415l22 174h-209l-104 -174h-93zM216 249h176l45 370h-2z" />
    <glyph glyph-name="Ccedilla" unicode="&#xc7;" horiz-adv-x="676" 
d="M353 75q51 0 102 25t88 69l64 -56q-106 -116 -252 -119l-17 -27l1 -1q72 -5 72 -64q0 -42 -31.5 -66t-82.5 -24q-21 0 -44 6l3 43q15 -6 35 -6q28 0 46 12.5t18 34.5q0 31 -69 32l2 30l19 33q-108 13 -172.5 89.5t-64.5 205.5q0 114 45 210.5t129 155.5t190 59
q153 0 244 -150l-72 -50q-65 118 -175 118q-79 0 -142.5 -49.5t-96.5 -127t-33 -166.5q0 -102 51 -159.5t143 -57.5z" />
    <glyph glyph-name="Egrave" unicode="&#xc8;" horiz-adv-x="559" 
d="M366 783l-98 129h89l90 -129h-81zM63 0l87 710h396l-10 -77h-311l-29 -241h255l-10 -77h-255l-29 -238h330l-9 -77h-415z" />
    <glyph glyph-name="Eacute" unicode="&#xc9;" horiz-adv-x="559" 
d="M277 783l119 129h92l-130 -129h-81zM63 0l87 710h396l-10 -77h-311l-29 -241h255l-10 -77h-255l-29 -238h330l-9 -77h-415z" />
    <glyph glyph-name="Ecircumflex" unicode="&#xca;" horiz-adv-x="559" 
d="M218 783l123 124h77l88 -124h-77l-55 75h-2l-76 -75h-78zM63 0l87 710h396l-10 -77h-311l-29 -241h255l-10 -77h-255l-29 -238h330l-9 -77h-415z" />
    <glyph glyph-name="Edieresis" unicode="&#xcb;" horiz-adv-x="559" 
d="M285 794q-24 0 -40 16t-16 40q0 25 17 41.5t42 16.5q23 0 39 -16t16 -40q0 -25 -16.5 -41.5t-41.5 -16.5zM456 794q-25 0 -41 16t-16 40q0 25 17 41.5t42 16.5q23 0 39 -16t16 -40q0 -25 -16.5 -41.5t-40.5 -16.5zM63 0l87 710h396l-10 -77h-311l-29 -241h255l-10 -77
h-255l-29 -238h330l-9 -77h-415z" />
    <glyph glyph-name="Igrave" unicode="&#xcc;" horiz-adv-x="282" 
d="M169 782l-98 129h89l90 -129h-81zM68 0l87 710h86l-87 -710h-86z" />
    <glyph glyph-name="Iacute" unicode="&#xcd;" horiz-adv-x="282" 
d="M172 782l119 129h92l-130 -129h-81zM68 0l87 710h86l-87 -710h-86z" />
    <glyph glyph-name="Icircumflex" unicode="&#xce;" horiz-adv-x="282" 
d="M62 782l123 124h77l88 -124h-77l-55 75h-2l-76 -75h-78zM68 0l87 710h86l-87 -710h-86z" />
    <glyph glyph-name="Idieresis" unicode="&#xcf;" horiz-adv-x="282" 
d="M129 793q-24 0 -40 16t-16 40q0 25 17 41.5t42 16.5q23 0 39 -16t16 -40q0 -25 -16.5 -41.5t-41.5 -16.5zM300 793q-25 0 -41 16t-16 40q0 25 17 41.5t42 16.5q23 0 39 -16t16 -40q0 -25 -16.5 -41.5t-40.5 -16.5zM68 0l87 710h86l-87 -710h-86z" />
    <glyph glyph-name="Eth" unicode="&#xd0;" horiz-adv-x="683" 
d="M350 710q140 0 214 -77.5t74 -213.5q0 -188 -103 -303.5t-274 -115.5h-198l39 317h-66l12 75h63l39 318h200zM269 77q126 0 203 95.5t77 245.5q0 100 -53 157.5t-152 57.5h-118l-29 -241h160l-11 -75h-159l-29 -240h111z" />
    <glyph glyph-name="Ntilde" unicode="&#xd1;" horiz-adv-x="709" 
d="M505 781q-33 0 -78 35q-30 24 -48 24q-36 0 -60 -57l-51 26q42 90 105 90q10 0 18.5 -1.5t17.5 -6t12.5 -6t14.5 -9.5l10 -7q34 -28 52 -28q35 0 59 56l51 -20q-19 -45 -46 -70.5t-57 -25.5zM63 0l87 710h85l281 -565l3 1l69 564h86l-88 -710h-86l-281 560h-2l-69 -560
h-85z" />
    <glyph glyph-name="Ograve" unicode="&#xd2;" horiz-adv-x="760" 
d="M427 782l-98 129h89l90 -129h-81zM350 -6q-128 0 -204.5 79t-76.5 218q0 112 45 209t130 157t192 60q128 0 205 -78.5t77 -218.5q0 -178 -101 -302t-267 -124zM356 74q79 0 143 48.5t97.5 126.5t33.5 168q0 108 -53.5 164t-149.5 56q-116 0 -192.5 -103.5t-76.5 -240.5
q0 -106 53 -162.5t145 -56.5z" />
    <glyph glyph-name="Oacute" unicode="&#xd3;" horiz-adv-x="760" 
d="M417 782l119 129h92l-130 -129h-81zM350 -6q-128 0 -204.5 79t-76.5 218q0 112 45 209t130 157t192 60q128 0 205 -78.5t77 -218.5q0 -178 -101 -302t-267 -124zM356 74q79 0 143 48.5t97.5 126.5t33.5 168q0 108 -53.5 164t-149.5 56q-116 0 -192.5 -103.5t-76.5 -240.5
q0 -106 53 -162.5t145 -56.5z" />
    <glyph glyph-name="Ocircumflex" unicode="&#xd4;" horiz-adv-x="760" 
d="M322 782l123 124h77l88 -124h-77l-55 75h-2l-76 -75h-78zM350 -6q-128 0 -204.5 79t-76.5 218q0 112 45 209t130 157t192 60q128 0 205 -78.5t77 -218.5q0 -178 -101 -302t-267 -124zM356 74q79 0 143 48.5t97.5 126.5t33.5 168q0 108 -53.5 164t-149.5 56
q-116 0 -192.5 -103.5t-76.5 -240.5q0 -106 53 -162.5t145 -56.5z" />
    <glyph glyph-name="Otilde" unicode="&#xd5;" horiz-adv-x="760" 
d="M546 781q-33 0 -78 35q-30 24 -48 24q-36 0 -60 -57l-51 26q42 90 105 90q10 0 18.5 -1.5t17.5 -6t12.5 -6t13.5 -9.5l11 -7q34 -28 52 -28q35 0 59 56l51 -20q-19 -45 -46 -70.5t-57 -25.5zM350 -6q-128 0 -204.5 79t-76.5 218q0 112 45 209t130 157t192 60
q128 0 205 -78.5t77 -218.5q0 -178 -101 -302t-267 -124zM356 74q79 0 143 48.5t97.5 126.5t33.5 168q0 108 -53.5 164t-149.5 56q-116 0 -192.5 -103.5t-76.5 -240.5q0 -106 53 -162.5t145 -56.5z" />
    <glyph glyph-name="Odieresis" unicode="&#xd6;" horiz-adv-x="760" 
d="M389 793q-24 0 -40 16t-16 40q0 25 17 41.5t42 16.5q23 0 39 -16t16 -40q0 -25 -16.5 -41.5t-41.5 -16.5zM560 793q-25 0 -41 16t-16 40q0 25 17 41.5t42 16.5q23 0 39 -16t16 -40q0 -25 -16.5 -41.5t-40.5 -16.5zM350 -6q-128 0 -204.5 79t-76.5 218q0 112 45 209
t130 157t192 60q128 0 205 -78.5t77 -218.5q0 -178 -101 -302t-267 -124zM356 74q79 0 143 48.5t97.5 126.5t33.5 168q0 108 -53.5 164t-149.5 56q-116 0 -192.5 -103.5t-76.5 -240.5q0 -106 53 -162.5t145 -56.5z" />
    <glyph glyph-name="multiply" unicode="&#xd7;" horiz-adv-x="480" 
d="M90 77l-48 51l150 149l-114 149l59 51l112 -149l150 149l48 -51l-151 -150l113 -149l-57 -50l-113 148z" />
    <glyph glyph-name="Oslash" unicode="&#xd8;" horiz-adv-x="764" 
d="M745 687l-75 -81q50 -75 50 -186q0 -178 -101 -302t-267 -124q-115 0 -190 64l-74 -80l-44 44l77 83q-50 75 -50 186q0 112 45 209t130 157t192 60q117 0 191 -65l73 78zM160 293q0 -69 24 -120l387 416q-52 48 -142 48q-116 0 -192.5 -103.5t-76.5 -240.5zM632 417
q0 71 -25 121l-386 -416q51 -48 137 -48q79 0 143 48.5t97.5 126.5t33.5 168z" />
    <glyph glyph-name="Ugrave" unicode="&#xd9;" horiz-adv-x="666" 
d="M385 781l-98 129h89l90 -129h-81zM321 -6q-125 0 -178.5 81t-35.5 221l51 414h85l-51 -413q-13 -101 19 -161.5t114 -60.5q172 0 197 214l52 421h85l-52 -422q-35 -294 -286 -294z" />
    <glyph glyph-name="Uacute" unicode="&#xda;" horiz-adv-x="666" 
d="M367 782l119 129h92l-130 -129h-81zM321 -6q-125 0 -178.5 81t-35.5 221l51 414h85l-51 -413q-13 -101 19 -161.5t114 -60.5q172 0 197 214l52 421h85l-52 -422q-35 -294 -286 -294z" />
    <glyph glyph-name="Ucircumflex" unicode="&#xdb;" horiz-adv-x="666" 
d="M276 782l123 124h77l88 -124h-77l-55 75h-2l-76 -75h-78zM321 -6q-125 0 -178.5 81t-35.5 221l51 414h85l-51 -413q-13 -101 19 -161.5t114 -60.5q172 0 197 214l52 421h85l-52 -422q-35 -294 -286 -294z" />
    <glyph glyph-name="Udieresis" unicode="&#xdc;" horiz-adv-x="666" 
d="M343 793q-24 0 -40 16t-16 40q0 25 17 41.5t42 16.5q23 0 39 -16t16 -40q0 -25 -16.5 -41.5t-41.5 -16.5zM514 793q-25 0 -41 16t-16 40q0 25 17 41.5t42 16.5q23 0 39 -16t16 -40q0 -25 -16.5 -41.5t-40.5 -16.5zM321 -6q-125 0 -178.5 81t-35.5 221l51 414h85l-51 -413
q-13 -101 19 -161.5t114 -60.5q172 0 197 214l52 421h85l-52 -422q-35 -294 -286 -294z" />
    <glyph glyph-name="Yacute" unicode="&#xdd;" horiz-adv-x="555" 
d="M294 782l119 129h92l-130 -129h-81zM204 0l39 317l-169 393h94l125 -310h3l202 310h99l-268 -393l-40 -317h-85z" />
    <glyph glyph-name="Thorn" unicode="&#xde;" horiz-adv-x="595" 
d="M63 0l87 710h85l-17 -139h158q96 0 143 -47.5t47 -134.5q0 -118 -69.5 -187t-195.5 -69h-137l-16 -133h-85zM174 210h138q77 0 121 48t44 131q0 50 -32 77t-85 27h-151z" />
    <glyph glyph-name="germandbls" unicode="&#xdf;" horiz-adv-x="598" 
d="M393 -6q-57 0 -103 21t-73 57l54 52q48 -60 122 -60q41 0 67 20t27 53q0 19 -13 34.5t-26.5 23.5t-50.5 29q-41 23 -63 38.5t-39 42t-16 58.5q0 19 6.5 35.5t20.5 31.5t24.5 24t31.5 25t30 23q56 45 56 94q0 33 -28.5 53.5t-77.5 20.5q-57 0 -98.5 -32.5t-51.5 -105.5
l-65 -532h-80l68 543q11 97 73 148.5t149 51.5q91 0 141 -39.5t50 -105.5q0 -45 -23 -78t-67 -65q-56 -39 -68 -55q-10 -14 -11 -28q-1 -22 16.5 -39.5t63.5 -44.5q33 -19 41.5 -24t32 -22t31 -28.5t15.5 -31t8 -42.5q0 -70 -48 -108t-126 -38z" />
    <glyph glyph-name="agrave" unicode="&#xe0;" horiz-adv-x="551" 
d="M301 557l-94 142l90 -1l87 -141h-83zM209 -6q-81 0 -124 55t-43 141q0 123 68.5 213t175.5 90q89 0 138 -52l2 1l6 44h79l-60 -486h-79l14 111l-3 1q-33 -56 -78.5 -87t-95.5 -31zM224 65q65 0 119.5 72t67.5 179l6 50q-22 26 -58 39.5t-68 13.5q-75 0 -122 -69.5
t-47 -161.5q0 -56 26.5 -89.5t75.5 -33.5z" />
    <glyph glyph-name="aacute" unicode="&#xe1;" horiz-adv-x="551" 
d="M269 557l121 141l90 1l-128 -142h-83zM209 -6q-81 0 -124 55t-43 141q0 123 68.5 213t175.5 90q89 0 138 -52l2 1l6 44h79l-60 -486h-79l14 111l-3 1q-33 -56 -78.5 -87t-95.5 -31zM224 65q65 0 119.5 72t67.5 179l6 50q-22 26 -58 39.5t-68 13.5q-75 0 -122 -69.5
t-47 -161.5q0 -56 26.5 -89.5t75.5 -33.5z" />
    <glyph glyph-name="acircumflex" unicode="&#xe2;" horiz-adv-x="551" 
d="M188 556l121 143h76l90 -143h-79l-51 90h-2l-73 -90h-82zM209 -6q-81 0 -124 55t-43 141q0 123 68.5 213t175.5 90q89 0 138 -52l2 1l6 44h79l-60 -486h-79l14 111l-3 1q-33 -56 -78.5 -87t-95.5 -31zM224 65q65 0 119.5 72t67.5 179l6 50q-22 26 -58 39.5t-68 13.5
q-75 0 -122 -69.5t-47 -161.5q0 -56 26.5 -89.5t75.5 -33.5z" />
    <glyph glyph-name="atilde" unicode="&#xe3;" horiz-adv-x="551" 
d="M410 563q-8 0 -16.5 2t-14.5 4t-13.5 6.5t-11 7.5t-11 8.5t-9.5 6.5q-29 24 -48 24q-38 0 -62 -57l-51 26q41 96 106 96q8 0 16 -1.5t13.5 -3t12 -5.5t9.5 -6t10 -7.5t9 -6.5q3 -2 10.5 -7.5t11 -8t9.5 -6t11 -5t10 -1.5q37 0 61 56l51 -20q-39 -102 -103 -102zM209 -6
q-81 0 -124 55t-43 141q0 123 68.5 213t175.5 90q89 0 138 -52l2 1l6 44h79l-60 -486h-79l14 111l-3 1q-33 -56 -78.5 -87t-95.5 -31zM224 65q65 0 119.5 72t67.5 179l6 50q-22 26 -58 39.5t-68 13.5q-75 0 -122 -69.5t-47 -161.5q0 -56 26.5 -89.5t75.5 -33.5z" />
    <glyph glyph-name="adieresis" unicode="&#xe4;" horiz-adv-x="551" 
d="M255 577q-24 0 -40 16t-16 40q0 25 17 41.5t42 16.5q23 0 39 -16t16 -40q0 -25 -16.5 -41.5t-41.5 -16.5zM426 577q-25 0 -41 16t-16 40q0 25 17 41.5t42 16.5q23 0 39 -16t16 -40q0 -25 -16.5 -41.5t-40.5 -16.5zM209 -6q-81 0 -124 55t-43 141q0 123 68.5 213t175.5 90
q89 0 138 -52l2 1l6 44h79l-60 -486h-79l14 111l-3 1q-33 -56 -78.5 -87t-95.5 -31zM224 65q65 0 119.5 72t67.5 179l6 50q-22 26 -58 39.5t-68 13.5q-75 0 -122 -69.5t-47 -161.5q0 -56 26.5 -89.5t75.5 -33.5z" />
    <glyph glyph-name="aring" unicode="&#xe5;" horiz-adv-x="551" 
d="M341 546q-39 0 -65.5 26.5t-26.5 66.5t27.5 67t68.5 27q39 0 65.5 -26.5t26.5 -65.5q0 -41 -27.5 -68t-68.5 -27zM342 598q19 0 31.5 12t12.5 31q0 17 -12 29t-30 12q-19 0 -31.5 -12.5t-12.5 -30.5t12 -29.5t30 -11.5zM209 -6q-81 0 -124 55t-43 141q0 123 68.5 213
t175.5 90q89 0 138 -52l2 1l6 44h79l-60 -486h-79l14 111l-3 1q-33 -56 -78.5 -87t-95.5 -31zM224 65q65 0 119.5 72t67.5 179l6 50q-22 26 -58 39.5t-68 13.5q-75 0 -122 -69.5t-47 -161.5q0 -56 26.5 -89.5t75.5 -33.5z" />
    <glyph glyph-name="ae" unicode="&#xe6;" horiz-adv-x="693" 
d="M488 68q65 0 111 60l63 -45q-71 -88 -177 -88q-67 0 -111.5 32t-60.5 91q-23 -58 -62.5 -91.5t-87.5 -33.5q-63 0 -100.5 51t-35.5 130q2 126 73.5 219.5t185.5 93.5q75 0 123 -36q58 42 136 42q60 0 98.5 -33t38.5 -86q0 -82 -86.5 -131.5t-227.5 -60.5q4 -55 36 -84.5
t84 -29.5zM537 420q-60 0 -107 -49t-59 -127q104 11 167 44t63 83q0 24 -18.5 36.5t-45.5 12.5zM173 65q71 0 119 164q16 104 66 172q-26 13 -65 13q-85 0 -135 -76t-50 -172q0 -47 18.5 -74t46.5 -27z" />
    <glyph glyph-name="ccedilla" unicode="&#xe7;" horiz-adv-x="486" 
d="M241 67q76 0 131 61l62 -45q-77 -84 -182 -89l-17 -27l1 -1q72 -5 72 -64q0 -42 -31.5 -66t-82.5 -24q-22 0 -44 6l3 43q15 -6 35 -6q28 0 46 12.5t18 34.5q0 31 -69 32l2 30l18 32q-73 10 -116.5 62t-43.5 140q0 123 70 209t187 86q114 0 170 -81l-63 -47
q-36 54 -109 54q-78 0 -126 -62.5t-48 -153.5q0 -65 33 -100.5t84 -35.5z" />
    <glyph glyph-name="egrave" unicode="&#xe8;" horiz-adv-x="472" 
d="M366 557h-83l-94 142l90 -1zM240 67q69 0 125 61l63 -45q-42 -45 -86 -67t-105 -22q-89 0 -141.5 54t-52.5 148q0 124 70 210.5t184 86.5q59 0 104.5 -32.5t45.5 -94.5q0 -154 -325 -184q4 -54 37 -84.5t81 -30.5zM293 420q-59 0 -107 -46t-61 -126q241 21 241 114
q0 30 -21.5 44t-51.5 14z" />
    <glyph glyph-name="eacute" unicode="&#xe9;" horiz-adv-x="472" 
d="M469 699l-128 -142h-83l121 141zM447 366q0 -154 -325 -184q4 -54 37 -84.5t81 -30.5q69 0 125 61l63 -45q-42 -45 -86 -67t-105 -22q-89 0 -141.5 54t-52.5 148q0 124 70 210.5t184 86.5q59 0 104.5 -32.5t45.5 -94.5zM125 248q241 21 241 114q0 30 -21.5 44t-51.5 14
q-59 0 -107 -46t-61 -126z" />
    <glyph glyph-name="ecircumflex" unicode="&#xea;" horiz-adv-x="472" 
d="M301 646l-73 -90h-82l121 143h76l90 -143h-79l-51 90h-2zM240 67q69 0 125 61l63 -45q-42 -45 -86 -67t-105 -22q-89 0 -141.5 54t-52.5 148q0 124 70 210.5t184 86.5q59 0 104.5 -32.5t45.5 -94.5q0 -154 -325 -184q4 -54 37 -84.5t81 -30.5zM293 420q-59 0 -107 -46
t-61 -126q241 21 241 114q0 30 -21.5 44t-51.5 14z" />
    <glyph glyph-name="edieresis" unicode="&#xeb;" horiz-adv-x="472" 
d="M213 577q-24 0 -40 16t-16 40q0 25 17 41.5t42 16.5q23 0 39 -16t16 -40q0 -25 -16.5 -41.5t-41.5 -16.5zM384 577q-25 0 -41 16t-16 40q0 25 17 41.5t42 16.5q23 0 39 -16t16 -40q0 -25 -16.5 -41.5t-40.5 -16.5zM240 67q69 0 125 61l63 -45q-42 -45 -86 -67t-105 -22
q-89 0 -141.5 54t-52.5 148q0 124 70 210.5t184 86.5q59 0 104.5 -32.5t45.5 -94.5q0 -154 -325 -184q4 -54 37 -84.5t81 -30.5zM293 420q-59 0 -107 -46t-61 -126q241 21 241 114q0 30 -21.5 44t-51.5 14z" />
    <glyph glyph-name="igrave" unicode="&#xec;" horiz-adv-x="241" 
d="M115 564l-61 142l89 -1l55 -141h-83zM50 0l60 487h80l-60 -487h-80z" />
    <glyph glyph-name="iacute" unicode="&#xed;" horiz-adv-x="240" 
d="M124 557l121 141l90 1l-128 -142h-83zM50 0l60 487h80l-60 -487h-80z" />
    <glyph glyph-name="icircumflex" unicode="&#xee;" horiz-adv-x="240" 
d="M15 556l121 143h76l90 -143h-79l-51 90h-2l-73 -90h-82zM50 0l60 487h80l-60 -487h-80z" />
    <glyph glyph-name="idieresis" unicode="&#xef;" horiz-adv-x="240" 
d="M88 577q-23 0 -39 16t-16 40q0 25 16.5 41.5t40.5 16.5q22 0 37.5 -16t15.5 -40q0 -25 -16 -41.5t-39 -16.5zM250 577q-23 0 -39 16t-16 40q0 25 16.5 41.5t40.5 16.5q22 0 37.5 -16t15.5 -40q0 -25 -16 -41.5t-39 -16.5zM50 0l60 487h80l-60 -487h-80z" />
    <glyph glyph-name="eth" unicode="&#xf0;" horiz-adv-x="543" 
d="M446 548q56 -104 56 -234q0 -135 -67.5 -227.5t-191.5 -92.5q-90 0 -145.5 54.5t-55.5 144.5q0 118 70.5 202t173.5 84q74 0 125 -43q-13 46 -31 80q-17 32 -46 65l-54 -60l-45 39l55 61q-41 33 -102 62l37 57q61 -24 113 -65l72 81l46 -38l-74 -83q39 -42 64 -87z
M245 67q89 0 134.5 77.5t44.5 184.5q0 19 -1 28q-44 50 -119 50q-78 0 -130 -59.5t-52 -145.5q0 -63 34.5 -99t88.5 -36z" />
    <glyph glyph-name="ntilde" unicode="&#xf1;" horiz-adv-x="548" 
d="M405 563q-8 0 -16.5 2t-14.5 4t-13.5 6.5t-11 7.5t-11 8.5t-9.5 6.5q-29 24 -48 24q-38 0 -62 -57l-51 26q41 96 106 96q8 0 16 -1.5t13.5 -3t12 -5.5t9.5 -6t10 -7.5t9 -6.5q3 -2 10.5 -7.5t11 -8t9.5 -6t11 -5t10 -1.5q37 0 61 56l51 -20q-39 -102 -103 -102zM47 0
l60 487h79l-13 -110l2 -1q38 56 88 86.5t104 30.5q74 0 103.5 -49t16.5 -151l-39 -293h-79l38 287q10 70 -6.5 101.5t-58.5 31.5q-59 0 -120 -67.5t-72 -160.5l-24 -192h-79z" />
    <glyph glyph-name="ograve" unicode="&#xf2;" horiz-adv-x="544" 
d="M285 557l-94 142l90 -1l87 -141h-83zM244 -6q-93 0 -147 54t-54 150q0 122 70.5 208.5t185.5 86.5q92 0 147 -52.5t55 -147.5q0 -130 -69 -214.5t-188 -84.5zM246 67q77 0 125.5 62t48.5 157q0 69 -36 101t-89 32q-75 0 -123.5 -62.5t-48.5 -149.5q0 -64 33 -102t90 -38z
" />
    <glyph glyph-name="oacute" unicode="&#xf3;" horiz-adv-x="544" 
d="M276 557l121 141l90 1l-128 -142h-83zM244 -6q-93 0 -147 54t-54 150q0 122 70.5 208.5t185.5 86.5q92 0 147 -52.5t55 -147.5q0 -130 -69 -214.5t-188 -84.5zM246 67q77 0 125.5 62t48.5 157q0 69 -36 101t-89 32q-75 0 -123.5 -62.5t-48.5 -149.5q0 -64 33 -102t90 -38
z" />
    <glyph glyph-name="ocircumflex" unicode="&#xf4;" horiz-adv-x="544" 
d="M172 556l121 143h76l90 -143h-79l-51 90h-2l-73 -90h-82zM244 -6q-93 0 -147 54t-54 150q0 122 70.5 208.5t185.5 86.5q92 0 147 -52.5t55 -147.5q0 -130 -69 -214.5t-188 -84.5zM246 67q77 0 125.5 62t48.5 157q0 69 -36 101t-89 32q-75 0 -123.5 -62.5t-48.5 -149.5
q0 -64 33 -102t90 -38z" />
    <glyph glyph-name="otilde" unicode="&#xf5;" horiz-adv-x="544" 
d="M394 563q-8 0 -16.5 2t-14.5 4t-13.5 6.5t-11 7.5t-11 8.5t-9.5 6.5q-29 24 -48 24q-38 0 -62 -57l-51 26q41 96 106 96q8 0 16 -1.5t13.5 -3t12 -5.5t9.5 -6t10 -7.5t9 -6.5q3 -2 10.5 -7.5t11 -8t9.5 -6t11 -5t10 -1.5q37 0 61 56l51 -20q-39 -102 -103 -102zM244 -6
q-93 0 -147 54t-54 150q0 122 70.5 208.5t185.5 86.5q92 0 147 -52.5t55 -147.5q0 -130 -69 -214.5t-188 -84.5zM246 67q77 0 125.5 62t48.5 157q0 69 -36 101t-89 32q-75 0 -123.5 -62.5t-48.5 -149.5q0 -64 33 -102t90 -38z" />
    <glyph glyph-name="odieresis" unicode="&#xf6;" horiz-adv-x="544" 
d="M239 577q-24 0 -40 16t-16 40q0 25 17 41.5t42 16.5q23 0 39 -16t16 -40q0 -25 -16.5 -41.5t-41.5 -16.5zM410 577q-25 0 -41 16t-16 40q0 25 17 41.5t42 16.5q23 0 39 -16t16 -40q0 -25 -16.5 -41.5t-40.5 -16.5zM244 -6q-93 0 -147 54t-54 150q0 122 70.5 208.5
t185.5 86.5q92 0 147 -52.5t55 -147.5q0 -130 -69 -214.5t-188 -84.5zM246 67q77 0 125.5 62t48.5 157q0 69 -36 101t-89 32q-75 0 -123.5 -62.5t-48.5 -149.5q0 -64 33 -102t90 -38z" />
    <glyph glyph-name="divide" unicode="&#xf7;" horiz-adv-x="541" 
d="M310 413q-24 0 -40 16t-16 40q0 25 16.5 41.5t41.5 16.5q24 0 40 -16t16 -40q0 -25 -16.5 -41.5t-41.5 -16.5zM74 240l9 73h422l-9 -73h-422zM264 19q-24 0 -40 16t-16 40q0 25 16.5 41.5t41.5 16.5q24 0 40 -16t16 -40q0 -25 -16.5 -41.5t-41.5 -16.5z" />
    <glyph glyph-name="oslash" unicode="&#xf8;" horiz-adv-x="546" 
d="M525 466l-54 -56q30 -49 30 -117q0 -130 -69 -214.5t-188 -84.5q-82 0 -133 42l-54 -56l-38 37l56 58q-32 49 -32 123q0 122 70.5 208.5t185.5 86.5q84 0 137 -44l52 54zM123 207q0 -40 13 -69l244 253q-32 28 -85 28q-75 0 -123.5 -62.5t-48.5 -149.5zM420 286
q0 33 -10 61l-243 -253q32 -27 79 -27q77 0 125.5 62t48.5 157z" />
    <glyph glyph-name="ugrave" unicode="&#xf9;" horiz-adv-x="534" 
d="M301 557l-94 142l90 -1l87 -141h-83zM216 -6q-156 0 -129 196l41 297h79l-39 -290q-9 -72 9.5 -101t61.5 -29q53 0 108.5 61t66.5 146l26 213h80l-60 -487h-79l13 110h-2q-30 -53 -76 -84.5t-100 -31.5z" />
    <glyph glyph-name="uacute" unicode="&#xfa;" horiz-adv-x="534" 
d="M284 557l121 141l90 1l-128 -142h-83zM216 -6q-156 0 -129 196l41 297h79l-39 -290q-9 -72 9.5 -101t61.5 -29q53 0 108.5 61t66.5 146l26 213h80l-60 -487h-79l13 110h-2q-30 -53 -76 -84.5t-100 -31.5z" />
    <glyph glyph-name="ucircumflex" unicode="&#xfb;" horiz-adv-x="534" 
d="M187 556l121 143h76l90 -143h-79l-51 90h-2l-73 -90h-82zM216 -6q-156 0 -129 196l41 297h79l-39 -290q-9 -72 9.5 -101t61.5 -29q53 0 108.5 61t66.5 146l26 213h80l-60 -487h-79l13 110h-2q-30 -53 -76 -84.5t-100 -31.5z" />
    <glyph glyph-name="udieresis" unicode="&#xfc;" horiz-adv-x="534" 
d="M254 577q-24 0 -40 16t-16 40q0 25 17 41.5t42 16.5q23 0 39 -16t16 -40q0 -25 -16.5 -41.5t-41.5 -16.5zM425 577q-25 0 -41 16t-16 40q0 25 17 41.5t42 16.5q23 0 39 -16t16 -40q0 -25 -16.5 -41.5t-40.5 -16.5zM216 -6q-156 0 -129 196l41 297h79l-39 -290
q-9 -72 9.5 -101t61.5 -29q53 0 108.5 61t66.5 146l26 213h80l-60 -487h-79l13 110h-2q-30 -53 -76 -84.5t-100 -31.5z" />
    <glyph glyph-name="yacute" unicode="&#xfd;" horiz-adv-x="533" 
d="M467 699l-128 -142h-83l121 141zM414 487h78l-51 -424q-10 -79 -34.5 -133.5t-61 -82.5t-75 -39.5t-86.5 -11.5q-86 0 -161 44l26 70q69 -41 136 -41q73 0 118.5 42.5t59.5 157.5l5 40l-2 1q-69 -116 -179 -116q-77 0 -110 47t-19 149l40 297h79l-38 -290q-9 -72 9 -101
t62 -29q56 0 112.5 64.5t66.5 151.5z" />
    <glyph glyph-name="thorn" unicode="&#xfe;" horiz-adv-x="562" 
d="M23 -198l114 934h79l-44 -362l2 -1q72 120 184 120q77 0 119.5 -56t42.5 -141q0 -122 -69 -212t-178 -90q-91 0 -139 49l-2 -1l-30 -240h-79zM255 66q83 0 134 66.5t51 158.5q0 56 -25.5 92.5t-73.5 36.5q-68 0 -123.5 -70.5t-69.5 -174.5l-7 -53q17 -29 49 -42.5
t65 -13.5z" />
    <glyph glyph-name="ydieresis" unicode="&#xff;" horiz-adv-x="533" 
d="M226 577q-24 0 -40 16t-16 40q0 25 17 41.5t42 16.5q23 0 39 -16t16 -40q0 -25 -16.5 -41.5t-41.5 -16.5zM397 577q-25 0 -41 16t-16 40q0 25 17 41.5t42 16.5q23 0 39 -16t16 -40q0 -25 -16.5 -41.5t-40.5 -16.5zM414 487h78l-51 -424q-10 -79 -34.5 -133.5t-61 -82.5
t-75 -39.5t-86.5 -11.5q-86 0 -161 44l26 70q69 -41 136 -41q73 0 118.5 42.5t59.5 157.5l5 40l-2 1q-69 -116 -179 -116q-77 0 -110 47t-19 149l40 297h79l-38 -290q-9 -72 9 -101t62 -29q56 0 112.5 64.5t66.5 151.5z" />
    <glyph glyph-name="Amacron" unicode="&#x100;" horiz-adv-x="626" 
d="M256 809l8 67h262l-8 -67h-262zM-3 0l328 710h90l155 -710h-89l-36 174h-281l-78 -174h-89zM197 249h233l-73 354h-2z" />
    <glyph glyph-name="amacron" unicode="&#x101;" horiz-adv-x="551" 
d="M206 596l8 69h262l-8 -69h-262zM209 -6q-81 0 -124 55t-43 141q0 123 68.5 213t175.5 90q89 0 138 -52l2 1l6 44h79l-60 -486h-79l14 111l-3 1q-33 -56 -78.5 -87t-95.5 -31zM224 65q65 0 119.5 72t67.5 179l6 50q-22 26 -58 39.5t-68 13.5q-75 0 -122 -69.5t-47 -161.5
q0 -56 26.5 -89.5t75.5 -33.5z" />
    <glyph glyph-name="Abreve" unicode="&#x102;" horiz-adv-x="626" 
d="M383 776q-61 0 -91.5 34.5t-25.5 95.5h63q-3 -28 11 -48t46 -20t55 20.5t30 47.5h63q-12 -59 -53 -94.5t-98 -35.5zM-3 0l328 710h90l155 -710h-89l-36 174h-281l-78 -174h-89zM197 249h233l-73 354h-2z" />
    <glyph glyph-name="abreve" unicode="&#x103;" horiz-adv-x="551" 
d="M333 553q-62 0 -92 36.5t-25 104.5l63 -1q-7 -78 56 -78q33 0 56 22.5t30 56.5l63 -1q-12 -65 -52.5 -102.5t-98.5 -37.5zM209 -6q-81 0 -124 55t-43 141q0 123 68.5 213t175.5 90q89 0 138 -52l2 1l6 44h79l-60 -486h-79l14 111l-3 1q-33 -56 -78.5 -87t-95.5 -31z
M224 65q65 0 119.5 72t67.5 179l6 50q-22 26 -58 39.5t-68 13.5q-75 0 -122 -69.5t-47 -161.5q0 -56 26.5 -89.5t75.5 -33.5z" />
    <glyph glyph-name="Aogonek" unicode="&#x104;" horiz-adv-x="626" 
d="M566 0q-39 -16 -63.5 -42.5t-26.5 -53.5q0 -35 35 -35q28 0 45 10l2 -53q-23 -12 -65 -12q-41 0 -62.5 19t-20.5 54q1 62 71 114l-36 173h-281l-78 -174h-89l328 710h90l155 -710h-4zM197 249h233l-73 354h-2z" />
    <glyph glyph-name="aogonek" unicode="&#x105;" horiz-adv-x="551" 
d="M432 486h79l-60 -486h-2q-39 -16 -63.5 -42.5t-26.5 -53.5q0 -35 35 -35q28 0 45 10l2 -53q-23 -12 -65 -12q-41 0 -62.5 19t-20.5 54q1 33 23 65t57 56l13 103l-3 1q-33 -56 -78.5 -87t-95.5 -31q-81 0 -124 55t-43 141q0 123 68.5 213t175.5 90q89 0 138 -52l2 1z
M224 65q65 0 119.5 72t67.5 179l6 50q-22 26 -58 39.5t-68 13.5q-75 0 -122 -69.5t-47 -161.5q0 -56 26.5 -89.5t75.5 -33.5z" />
    <glyph glyph-name="Cacute" unicode="&#x106;" horiz-adv-x="676" 
d="M402 782l119 129h92l-130 -129h-81zM349 -6q-125 0 -202 78.5t-77 219.5q0 114 45 210.5t129 155.5t190 59q153 0 244 -150l-72 -50q-65 118 -175 118q-79 0 -142.5 -49.5t-96.5 -127t-33 -166.5q0 -102 51 -159.5t143 -57.5q51 0 102 25t88 69l64 -56q-50 -55 -117 -87
t-141 -32z" />
    <glyph glyph-name="cacute" unicode="&#x107;" horiz-adv-x="486" 
d="M265 557l121 141l90 1l-128 -142h-83zM236 -6q-86 0 -139.5 53t-53.5 151q0 123 70 209t187 86q114 0 170 -81l-63 -47q-36 54 -109 54q-78 0 -126 -62.5t-48 -153.5q0 -65 33 -100.5t84 -35.5q76 0 131 61l62 -45q-81 -89 -198 -89z" />
    <glyph glyph-name="Ccircumflex" unicode="&#x108;" horiz-adv-x="676" 
d="M317 782l123 124h77l88 -124h-77l-55 75h-2l-76 -75h-78zM349 -6q-125 0 -202 78.5t-77 219.5q0 114 45 210.5t129 155.5t190 59q153 0 244 -150l-72 -50q-65 118 -175 118q-79 0 -142.5 -49.5t-96.5 -127t-33 -166.5q0 -102 51 -159.5t143 -57.5q51 0 102 25t88 69
l64 -56q-50 -55 -117 -87t-141 -32z" />
    <glyph glyph-name="ccircumflex" unicode="&#x109;" horiz-adv-x="486" 
d="M175 556l121 143h76l90 -143h-79l-51 90h-2l-73 -90h-82zM236 -6q-86 0 -139.5 53t-53.5 151q0 123 70 209t187 86q114 0 170 -81l-63 -47q-36 54 -109 54q-78 0 -126 -62.5t-48 -153.5q0 -65 33 -100.5t84 -35.5q76 0 131 61l62 -45q-81 -89 -198 -89z" />
    <glyph glyph-name="Cdotaccent" unicode="&#x10a;" horiz-adv-x="676" 
d="M470 793q-24 0 -40 16t-16 40q0 25 16.5 41.5t41.5 16.5q24 0 40 -16t16 -40q0 -25 -16.5 -41.5t-41.5 -16.5zM349 -6q-125 0 -202 78.5t-77 219.5q0 114 45 210.5t129 155.5t190 59q153 0 244 -150l-72 -50q-65 118 -175 118q-79 0 -142.5 -49.5t-96.5 -127t-33 -166.5
q0 -102 51 -159.5t143 -57.5q51 0 102 25t88 69l64 -56q-50 -55 -117 -87t-141 -32z" />
    <glyph glyph-name="cdotaccent" unicode="&#x10b;" horiz-adv-x="486" 
d="M330 577q-24 0 -40 16t-16 40q0 25 16.5 41.5t41.5 16.5q24 0 40 -16t16 -40q0 -25 -16.5 -41.5t-41.5 -16.5zM236 -6q-86 0 -139.5 53t-53.5 151q0 123 70 209t187 86q114 0 170 -81l-63 -47q-36 54 -109 54q-78 0 -126 -62.5t-48 -153.5q0 -65 33 -100.5t84 -35.5
q76 0 131 61l62 -45q-81 -89 -198 -89z" />
    <glyph glyph-name="Ccaron" unicode="&#x10c;" horiz-adv-x="676" 
d="M422 782l-87 124h77l54 -75h3l76 75h78l-123 -124h-78zM349 -6q-125 0 -202 78.5t-77 219.5q0 114 45 210.5t129 155.5t190 59q153 0 244 -150l-72 -50q-65 118 -175 118q-79 0 -142.5 -49.5t-96.5 -127t-33 -166.5q0 -102 51 -159.5t143 -57.5q51 0 102 25t88 69l64 -56
q-50 -55 -117 -87t-141 -32z" />
    <glyph glyph-name="ccaron" unicode="&#x10d;" horiz-adv-x="486" 
d="M278 555l-84 139h76l52 -86h3l75 86h77l-121 -139h-78zM236 -6q-86 0 -139.5 53t-53.5 151q0 123 70 209t187 86q114 0 170 -81l-63 -47q-36 54 -109 54q-78 0 -126 -62.5t-48 -153.5q0 -65 33 -100.5t84 -35.5q76 0 131 61l62 -45q-81 -89 -198 -89z" />
    <glyph glyph-name="Dcaron" unicode="&#x10e;" horiz-adv-x="681" 
d="M366 782l-87 124h77l54 -75h3l76 75h78l-123 -124h-78zM63 0l87 710h200q140 0 214 -77.5t74 -213.5q0 -188 -103 -303.5t-274 -115.5h-198zM158 77h111q126 0 203 95.5t77 245.5q0 100 -53 157.5t-152 57.5h-118z" />
    <glyph glyph-name="dcaron" unicode="&#x10f;" horiz-adv-x="608" 
d="M591 588l48 184h83l-70 -184h-61zM210 -6q-81 0 -124 55t-43 141q0 122 68 212.5t176 90.5q89 0 141 -53l2 1l36 295h80l-91 -736h-79l14 113l-3 1q-70 -120 -177 -120zM224 65q67 0 122 72t68 179l7 50q-40 53 -129 53q-75 0 -122 -69.5t-47 -161.5q0 -56 26.5 -89.5
t74.5 -33.5z" />
    <glyph glyph-name="Dcroat" unicode="&#x110;" horiz-adv-x="683" 
d="M350 710q140 0 214 -77.5t74 -213.5q0 -188 -103 -303.5t-274 -115.5h-198l39 317h-66l12 75h63l39 318h200zM269 77q126 0 203 95.5t77 245.5q0 100 -53 157.5t-152 57.5h-118l-29 -241h160l-11 -75h-159l-29 -240h111z" />
    <glyph glyph-name="dcroat" unicode="&#x111;" horiz-adv-x="546" 
d="M588 628l-8 -57h-54l-71 -571h-79l14 113l-3 1q-70 -120 -177 -120q-81 0 -124 55t-43 141q0 122 68 212.5t176 90.5q89 0 141 -53l2 1l16 130h-187l7 57h187l13 108h80l-13 -108h55zM414 316l7 50q-40 53 -129 53q-75 0 -122 -69.5t-47 -161.5q0 -56 26.5 -89.5
t74.5 -33.5q67 0 122 72t68 179z" />
    <glyph glyph-name="Emacron" unicode="&#x112;" horiz-adv-x="559" 
d="M237 810l8 67h262l-8 -67h-262zM63 0l87 710h396l-10 -77h-311l-29 -241h255l-10 -77h-255l-29 -238h330l-9 -77h-415z" />
    <glyph glyph-name="emacron" unicode="&#x113;" horiz-adv-x="472" 
d="M434 665l-8 -69h-262l8 69h262zM240 67q69 0 125 61l63 -45q-42 -45 -86 -67t-105 -22q-89 0 -141.5 54t-52.5 148q0 124 70 210.5t184 86.5q59 0 104.5 -32.5t45.5 -94.5q0 -154 -325 -184q4 -54 37 -84.5t81 -30.5zM293 420q-59 0 -107 -46t-61 -126q241 21 241 114
q0 30 -21.5 44t-51.5 14z" />
    <glyph glyph-name="Ebreve" unicode="&#x114;" horiz-adv-x="559" 
d="M364 777q-61 0 -91.5 34.5t-25.5 95.5h63q-3 -28 11 -48t46 -20t55 20.5t30 47.5h63q-12 -59 -53 -94.5t-98 -35.5zM63 0l87 710h396l-10 -77h-311l-29 -241h255l-10 -77h-255l-29 -238h330l-9 -77h-415z" />
    <glyph glyph-name="ebreve" unicode="&#x115;" horiz-adv-x="472" 
d="M291 553q-62 0 -92 36.5t-25 104.5l63 -1q-7 -78 56 -78q33 0 56 22.5t30 56.5l63 -1q-12 -65 -52.5 -102.5t-98.5 -37.5zM240 67q69 0 125 61l63 -45q-42 -45 -86 -67t-105 -22q-89 0 -141.5 54t-52.5 148q0 124 70 210.5t184 86.5q59 0 104.5 -32.5t45.5 -94.5
q0 -154 -325 -184q4 -54 37 -84.5t81 -30.5zM293 420q-59 0 -107 -46t-61 -126q241 21 241 114q0 30 -21.5 44t-51.5 14z" />
    <glyph glyph-name="Edotaccent" unicode="&#x116;" horiz-adv-x="559" 
d="M371 794q-24 0 -40 16t-16 40q0 25 16.5 41.5t41.5 16.5q24 0 40 -16t16 -40q0 -25 -16.5 -41.5t-41.5 -16.5zM63 0l87 710h396l-10 -77h-311l-29 -241h255l-10 -77h-255l-29 -238h330l-9 -77h-415z" />
    <glyph glyph-name="edotaccent" unicode="&#x117;" horiz-adv-x="472" 
d="M301 577q-24 0 -40 16t-16 40q0 25 16.5 41.5t41.5 16.5q24 0 40 -16t16 -40q0 -25 -16.5 -41.5t-41.5 -16.5zM240 67q69 0 125 61l63 -45q-42 -45 -86 -67t-105 -22q-89 0 -141.5 54t-52.5 148q0 124 70 210.5t184 86.5q59 0 104.5 -32.5t45.5 -94.5q0 -154 -325 -184
q4 -54 37 -84.5t81 -30.5zM293 420q-59 0 -107 -46t-61 -126q241 21 241 114q0 30 -21.5 44t-51.5 14z" />
    <glyph glyph-name="Eogonek" unicode="&#x118;" horiz-adv-x="559" 
d="M536 633h-311l-29 -241h255l-10 -77h-255l-29 -238h330l-9 -77h-2q-39 -16 -63.5 -42.5t-26.5 -53.5q0 -35 35 -35q28 0 45 10l2 -53q-23 -12 -65 -12q-41 0 -62.5 19t-20.5 54q1 61 69 113h-326l87 710h396z" />
    <glyph glyph-name="eogonek" unicode="&#x119;" horiz-adv-x="472" 
d="M240 67q69 0 125 61l63 -45q-58 -63 -120 -80q-42 -15 -69.5 -43t-27.5 -57q0 -34 37 -34q25 0 42 10l2 -53q-24 -12 -65 -12q-83 0 -83 71q0 63 64 110l-1 1q-76 8 -120 61t-44 139q0 124 70 210.5t184 86.5q59 0 104.5 -32.5t45.5 -94.5q0 -154 -325 -184
q4 -54 37 -84.5t81 -30.5zM293 420q-59 0 -107 -46t-61 -126q241 21 241 114q0 30 -21.5 44t-51.5 14z" />
    <glyph glyph-name="Ecaron" unicode="&#x11a;" horiz-adv-x="559" 
d="M323 783l-87 124h77l54 -75h3l76 75h78l-123 -124h-78zM63 0l87 710h396l-10 -77h-311l-29 -241h255l-10 -77h-255l-29 -238h330l-9 -77h-415z" />
    <glyph glyph-name="ecaron" unicode="&#x11b;" horiz-adv-x="472" 
d="M327 555h-78l-84 139h76l52 -86h3l75 86h77zM447 366q0 -154 -325 -184q4 -54 37 -84.5t81 -30.5q69 0 125 61l63 -45q-42 -45 -86 -67t-105 -22q-89 0 -141.5 54t-52.5 148q0 124 70 210.5t184 86.5q59 0 104.5 -32.5t45.5 -94.5zM125 248q241 21 241 114q0 30 -21.5 44
t-51.5 14q-59 0 -107 -46t-61 -126z" />
    <glyph glyph-name="Gcircumflex" unicode="&#x11c;" horiz-adv-x="706" 
d="M302 782l123 124h77l88 -124h-77l-55 75h-2l-76 -75h-78zM354 -6q-129 0 -206.5 78t-77.5 219q0 175 102.5 300.5t258.5 125.5q152 0 237 -118l-70 -53q-64 89 -170 89q-116 0 -192.5 -100.5t-76.5 -241.5q0 -103 52 -162t147 -59t173 60l20 156h-180l11 77h264l-33 -282
q-50 -42 -119 -65.5t-140 -23.5z" />
    <glyph glyph-name="gcircumflex" unicode="&#x11d;" horiz-adv-x="554" 
d="M181 556l121 143h76l90 -143h-79l-51 90h-2l-73 -90h-82zM190 -204q-88 0 -161 44l26 70q67 -41 139 -41q80 0 126 42t61 158l8 61l-2 1q-35 -57 -80.5 -89.5t-96.5 -32.5q-81 0 -124 55t-43 141q0 113 68.5 200.5t175.5 87.5q89 0 139 -52l1 1l6 45h79l-52 -424
q-10 -79 -34.5 -133t-61.5 -82.5t-78.5 -40t-95.5 -11.5zM224 81q63 0 117.5 65.5t67.5 157.5l8 62q-22 26 -57.5 39.5t-67.5 13.5q-75 0 -122 -66.5t-47 -148.5q0 -56 26.5 -89.5t74.5 -33.5z" />
    <glyph glyph-name="Gbreve" unicode="&#x11e;" horiz-adv-x="706" 
d="M448 776q-61 0 -91.5 34.5t-25.5 95.5h63q-3 -28 11 -48t46 -20t55 20.5t30 47.5h63q-12 -59 -53 -94.5t-98 -35.5zM354 -6q-129 0 -206.5 78t-77.5 219q0 175 102.5 300.5t258.5 125.5q152 0 237 -118l-70 -53q-64 89 -170 89q-116 0 -192.5 -100.5t-76.5 -241.5
q0 -103 52 -162t147 -59t173 60l20 156h-180l11 77h264l-33 -282q-50 -42 -119 -65.5t-140 -23.5z" />
    <glyph glyph-name="gbreve" unicode="&#x11f;" horiz-adv-x="554" 
d="M326 553q-62 0 -92 36.5t-25 104.5l63 -1q-7 -78 56 -78q33 0 56 22.5t30 56.5l63 -1q-12 -65 -52.5 -102.5t-98.5 -37.5zM190 -204q-88 0 -161 44l26 70q67 -41 139 -41q80 0 126 42t61 158l8 61l-2 1q-35 -57 -80.5 -89.5t-96.5 -32.5q-81 0 -124 55t-43 141
q0 113 68.5 200.5t175.5 87.5q89 0 139 -52l1 1l6 45h79l-52 -424q-10 -79 -34.5 -133t-61.5 -82.5t-78.5 -40t-95.5 -11.5zM224 81q63 0 117.5 65.5t67.5 157.5l8 62q-22 26 -57.5 39.5t-67.5 13.5q-75 0 -122 -66.5t-47 -148.5q0 -56 26.5 -89.5t74.5 -33.5z" />
    <glyph glyph-name="Gdotaccent" unicode="&#x120;" horiz-adv-x="706" 
d="M455 793q-24 0 -40 16t-16 40q0 25 16.5 41.5t41.5 16.5q24 0 40 -16t16 -40q0 -25 -16.5 -41.5t-41.5 -16.5zM354 -6q-129 0 -206.5 78t-77.5 219q0 175 102.5 300.5t258.5 125.5q152 0 237 -118l-70 -53q-64 89 -170 89q-116 0 -192.5 -100.5t-76.5 -241.5
q0 -103 52 -162t147 -59t173 60l20 156h-180l11 77h264l-33 -282q-50 -42 -119 -65.5t-140 -23.5z" />
    <glyph glyph-name="gdotaccent" unicode="&#x121;" horiz-adv-x="554" 
d="M336 577q-24 0 -40 16t-16 40q0 25 16.5 41.5t41.5 16.5q24 0 40 -16t16 -40q0 -25 -16.5 -41.5t-41.5 -16.5zM190 -204q-88 0 -161 44l26 70q67 -41 139 -41q80 0 126 42t61 158l8 61l-2 1q-35 -57 -80.5 -89.5t-96.5 -32.5q-81 0 -124 55t-43 141q0 113 68.5 200.5
t175.5 87.5q89 0 139 -52l1 1l6 45h79l-52 -424q-10 -79 -34.5 -133t-61.5 -82.5t-78.5 -40t-95.5 -11.5zM224 81q63 0 117.5 65.5t67.5 157.5l8 62q-22 26 -57.5 39.5t-67.5 13.5q-75 0 -122 -66.5t-47 -148.5q0 -56 26.5 -89.5t74.5 -33.5z" />
    <glyph glyph-name="Gcommaaccent" unicode="&#x122;" horiz-adv-x="706" 
d="M354 -6q-129 0 -206.5 78t-77.5 219q0 175 102.5 300.5t258.5 125.5q152 0 237 -118l-70 -53q-64 89 -170 89q-116 0 -192.5 -100.5t-76.5 -241.5q0 -103 52 -162t147 -59t173 60l20 156h-180l11 77h264l-33 -282q-50 -42 -119 -65.5t-140 -23.5zM254 -212l-12 49
q34 8 49 28t15 59q0 4 -0.5 11t-0.5 11h71v-21q0 -60 -30.5 -96t-91.5 -41z" />
    <glyph glyph-name="gcommaaccent" unicode="&#x123;" horiz-adv-x="554" 
d="M419 715l12 -49q-34 -8 -49 -28t-15 -59q0 -4 0.5 -11t0.5 -11h-71v21q0 60 30.5 96t91.5 41zM190 -204q-88 0 -161 44l26 70q67 -41 139 -41q80 0 126 42t61 158l8 61l-2 1q-35 -57 -80.5 -89.5t-96.5 -32.5q-81 0 -124 55t-43 141q0 113 68.5 200.5t175.5 87.5
q89 0 139 -52l1 1l6 45h79l-52 -424q-10 -79 -34.5 -133t-61.5 -82.5t-78.5 -40t-95.5 -11.5zM224 81q63 0 117.5 65.5t67.5 157.5l8 62q-22 26 -57.5 39.5t-67.5 13.5q-75 0 -122 -66.5t-47 -148.5q0 -56 26.5 -89.5t74.5 -33.5z" />
    <glyph glyph-name="Hcircumflex" unicode="&#x124;" horiz-adv-x="683" 
d="M265 782l123 124h77l88 -124h-77l-55 75h-2l-76 -75h-78zM63 0l87 710h85l-41 -334h327l41 334h85l-86 -710h-86l37 299h-327l-37 -299h-85z" />
    <glyph glyph-name="hcircumflex" unicode="&#x125;" horiz-adv-x="548" 
d="M171 793l123 124h77l88 -124h-77l-55 75h-2l-76 -75h-78zM47 0l90 736h79l-44 -361h2q37 56 88 87t105 31q74 0 103.5 -49t16.5 -151l-39 -293h-80l39 287q10 70 -6.5 101.5t-58.5 31.5q-60 0 -120.5 -68.5t-71.5 -161.5l-24 -190h-79z" />
    <glyph glyph-name="Hbar" unicode="&#x126;" horiz-adv-x="685" 
d="M684 587l-7 -61h-50l-64 -526h-86l37 299h-327l-37 -299h-85l64 526h-54l8 61h54l15 123h85l-15 -123h327l15 123h85l-15 -123h50zM523 376l18 150h-327l-18 -150h327z" />
    <glyph glyph-name="hbar" unicode="&#x127;" horiz-adv-x="548" 
d="M367 493q74 0 103.5 -49t16.5 -151l-39 -293h-80l39 287q10 70 -6.5 101.5t-58.5 31.5q-60 0 -120.5 -68.5t-71.5 -161.5l-24 -190h-79l70 571h-67l7 57h67l13 108h79l-13 -108h180l-7 -57h-180l-24 -196h2q37 56 88 87t105 31z" />
    <glyph glyph-name="Itilde" unicode="&#x128;" horiz-adv-x="282" 
d="M286 781q-33 0 -78 35q-30 24 -48 24q-36 0 -60 -57l-51 26q42 90 105 90q10 0 18.5 -1.5t17.5 -6t12.5 -6t13.5 -9.5l11 -7q34 -28 52 -28q35 0 59 56l51 -20q-19 -45 -46 -70.5t-57 -25.5zM68 0l87 710h86l-87 -710h-86z" />
    <glyph glyph-name="itilde" unicode="&#x129;" horiz-adv-x="240" 
d="M231 565q-8 0 -15.5 2t-12.5 3.5t-12 6.5t-9.5 7l-10 8t-8.5 7q-29 25 -47 25q-33 0 -59 -57l-47 25q40 92 101 92q7 0 13.5 -0.5t13 -3t10 -3.5t10 -5.5t8 -5.5t8 -6t7.5 -6q3 -2 9.5 -7.5t10.5 -8t9 -6t10 -5t10 -1.5q34 0 57 56l48 -20q-19 -46 -46.5 -71.5
t-57.5 -25.5zM50 0l60 487h80l-60 -487h-80z" />
    <glyph glyph-name="Imacron" unicode="&#x12a;" horiz-adv-x="282" 
d="M81 809l8 67h262l-8 -67h-262zM68 0l87 710h86l-87 -710h-86z" />
    <glyph glyph-name="imacron" unicode="&#x12b;" horiz-adv-x="240" 
d="M33 596l8 69h262l-8 -69h-262zM50 0l60 487h80l-60 -487h-80z" />
    <glyph glyph-name="Ibreve" unicode="&#x12c;" horiz-adv-x="282" 
d="M208 776q-61 0 -91.5 34.5t-25.5 95.5h63q-3 -28 11 -48t46 -20t55 20.5t30 47.5h63q-12 -59 -53 -94.5t-98 -35.5zM68 0l87 710h86l-87 -710h-86z" />
    <glyph glyph-name="ibreve" unicode="&#x12d;" horiz-adv-x="240" 
d="M164 554q-52 0 -82 37t-25 103l60 -1q-4 -37 8.5 -59t40.5 -22q29 0 47.5 23t20.5 59l64 -1q-11 -65 -47 -102t-87 -37zM50 0l60 487h80l-60 -487h-80z" />
    <glyph glyph-name="Iogonek" unicode="&#x12e;" horiz-adv-x="282" 
d="M156 710h86l-87 -710h-1q-39 -16 -63.5 -42.5t-26.5 -53.5q0 -35 35 -35q28 0 45 10l2 -53q-23 -12 -65 -12q-41 0 -62.5 19t-20.5 54q1 62 71 114z" />
    <glyph glyph-name="iogonek" unicode="&#x12f;" horiz-adv-x="240" 
d="M173 691q24 0 40 -16t16 -40q0 -25 -16.5 -41.5t-41.5 -16.5q-24 0 -40 16t-16 40q0 25 16.5 41.5t41.5 16.5zM52 7l59 480h80l-60 -487h-2q-39 -16 -63.5 -42.5t-26.5 -53.5q0 -35 35 -35q28 0 45 10l2 -53q-23 -12 -65 -12q-41 0 -62.5 19t-20.5 54q1 66 79 120z" />
    <glyph glyph-name="Idotaccent" unicode="&#x130;" horiz-adv-x="282" 
d="M215 793q-24 0 -40 16t-16 40q0 25 16.5 41.5t41.5 16.5q24 0 40 -16t16 -40q0 -25 -16.5 -41.5t-41.5 -16.5zM68 0l87 710h86l-87 -710h-86z" />
    <glyph glyph-name="dotlessi" unicode="&#x131;" horiz-adv-x="240" 
d="M50 0l60 487h80l-60 -487h-80z" />
    <glyph glyph-name="IJ" unicode="&#x132;" horiz-adv-x="750" 
d="M68 0l87 710h86l-87 -710h-86zM453 -6q-46 0 -89 24t-70 68l59 61q42 -72 101 -72q108 0 130 169l57 466h86l-58 -470q-15 -123 -67.5 -184.5t-148.5 -61.5z" />
    <glyph glyph-name="ij" unicode="&#x133;" horiz-adv-x="453" 
d="M170 577q-24 0 -40 16t-16 40q0 25 16.5 41.5t41.5 16.5q24 0 40 -16t16 -40q0 -25 -16.5 -41.5t-41.5 -16.5zM392 577q-24 0 -40 16t-16 40q0 25 16.5 41.5t41.5 16.5q24 0 40 -16t16 -40q0 -25 -16.5 -41.5t-41.5 -16.5zM50 0l60 487h80l-60 -487h-80zM211 -204
q-43 0 -77 21l20 64q20 -15 46 -15q28 0 44.5 21.5t22.5 76.5l64 523h80l-66 -533q-19 -158 -134 -158z" />
    <glyph glyph-name="Jcircumflex" unicode="&#x134;" horiz-adv-x="468" 
d="M265 782l123 124h77l88 -124h-77l-55 75h-2l-76 -75h-78zM171 -6q-46 0 -89 24t-70 68l59 61q42 -72 101 -72q108 0 130 169l57 466h86l-58 -470q-15 -123 -67.5 -184.5t-148.5 -61.5z" />
    <glyph glyph-name="jcircumflex" unicode="&#x135;" horiz-adv-x="213" 
d="M-3 556l121 143h76l90 -143h-79l-51 90h-2l-73 -90h-82zM-29 -204q-43 0 -77 21l20 64q20 -15 46 -15q28 0 44.5 21.5t22.5 76.5l64 523h80l-66 -533q-19 -158 -134 -158z" />
    <glyph glyph-name="Kcommaaccent" unicode="&#x136;" horiz-adv-x="604" 
d="M631 710l-277 -319l195 -391h-98l-160 328l-119 -136l-24 -192h-85l87 710h85l-48 -387l3 -1l334 388h107zM239 -76q0 4 -0.5 11t-0.5 11h71v-21q0 -60 -30.5 -96t-91.5 -41l-12 49q34 8 49 28t15 59z" />
    <glyph glyph-name="kcommaaccent" unicode="&#x137;" horiz-adv-x="498" 
d="M420 -5q-12 -2 -23 0q-18 2 -32.5 10.5t-23 16t-20.5 30.5t-17 34t-19 45l-24 55q-58 -46 -123 -77l-12 -109h-79l90 736h79l-66 -539l2 -1q92 54 155 131.5t88 159.5h81q-32 -134 -153 -250l35 -83q22 -54 39 -72.5t46 -24.5zM130 -212l-12 49q34 8 49 28t15 59
q0 4 -0.5 11t-0.5 11h71v-21q0 -60 -30.5 -96t-91.5 -41z" />
    <glyph glyph-name="kgreenlandic" unicode="&#x138;" horiz-adv-x="498" 
d="M420 -5q-12 -2 -23 0q-18 2 -32.5 10.5t-23 16t-20.5 30.5t-17 34t-19 45l-24 55q-58 -46 -123 -77l-12 -109h-79l60 487h78l-35 -288l3 -2q91 54 154 131.5t88 158.5h81q-32 -134 -153 -250l35 -83q22 -54 39 -72.5t46 -24.5z" />
    <glyph glyph-name="Lacute" unicode="&#x139;" horiz-adv-x="526" 
d="M260 782l119 129h92l-130 -129h-81zM63 0l87 710h85l-77 -633h313l-9 -77h-399z" />
    <glyph glyph-name="lacute" unicode="&#x13a;" horiz-adv-x="236" 
d="M153 795l119 129h92l-130 -129h-81zM52 0l90 736h79l-90 -736h-79z" />
    <glyph glyph-name="Lcommaaccent" unicode="&#x13b;" horiz-adv-x="526" 
d="M63 0l87 710h85l-77 -633h313l-9 -77h-399zM165 -212l-12 49q34 8 49 28t15 59q0 4 -0.5 11t-0.5 11h71v-21q0 -60 -30.5 -96t-91.5 -41z" />
    <glyph glyph-name="lcommaaccent" unicode="&#x13c;" horiz-adv-x="236" 
d="M52 0l90 736h79l-90 -736h-79zM-2 -212l-12 49q34 8 49 28t15 59q0 4 -0.5 11t-0.5 11h71v-21q0 -60 -30.5 -96t-91.5 -41z" />
    <glyph glyph-name="Lcaron" unicode="&#x13d;" horiz-adv-x="526" 
d="M319 588l48 184h83l-70 -184h-61zM63 0l87 710h85l-77 -633h313l-9 -77h-399z" />
    <glyph glyph-name="lcaron" unicode="&#x13e;" horiz-adv-x="289" 
d="M274 588l49 184h82l-69 -184h-62zM52 0l90 736h79l-90 -736h-79z" />
    <glyph glyph-name="Ldot" unicode="&#x13f;" horiz-adv-x="526" 
d="M63 0l87 710h85l-77 -633h313l-9 -77h-399zM398 281q-24 0 -39.5 16t-15.5 40q0 25 16.5 42t41.5 17q24 0 40 -16t16 -40q0 -26 -16.5 -42.5t-42.5 -16.5z" />
    <glyph glyph-name="ldot" unicode="&#x140;" horiz-adv-x="359" 
d="M52 0l90 736h79l-90 -736h-79zM299 197q-24 0 -39.5 16t-15.5 40q0 25 16.5 42t41.5 17q24 0 40 -16t16 -40q0 -26 -17 -42.5t-42 -16.5z" />
    <glyph glyph-name="Lslash" unicode="&#x141;" horiz-adv-x="532" 
d="M164 77h313l-9 -77h-399l35 283l-84 -36l10 73l83 36l43 354h85l-38 -315l105 45l-9 -72l-105 -46z" />
    <glyph glyph-name="lslash" unicode="&#x142;" horiz-adv-x="273" 
d="M270 403l-8 -66l-77 -32l-37 -305h-79l33 270l-74 -31l8 66l74 31l49 400h79l-45 -365z" />
    <glyph glyph-name="Nacute" unicode="&#x143;" horiz-adv-x="709" 
d="M340 782l119 129h92l-130 -129h-81zM63 0l87 710h85l281 -565l3 1l69 564h86l-88 -710h-86l-281 560h-2l-69 -560h-85z" />
    <glyph glyph-name="nacute" unicode="&#x144;" horiz-adv-x="548" 
d="M253 557l121 141l90 1l-128 -142h-83zM47 0l60 487h79l-13 -110l2 -1q38 56 88 86.5t104 30.5q74 0 103.5 -49t16.5 -151l-39 -293h-79l38 287q10 70 -6.5 101.5t-58.5 31.5q-59 0 -120 -67.5t-72 -160.5l-24 -192h-79z" />
    <glyph glyph-name="Ncommaaccent" unicode="&#x145;" horiz-adv-x="709" 
d="M63 0l87 710h85l281 -565l3 1l69 564h86l-88 -710h-86l-281 560h-2l-69 -560h-85zM232 -212l-12 49q34 8 49 28t15 59q0 4 -0.5 11t-0.5 11h71v-21q0 -60 -30.5 -96t-91.5 -41z" />
    <glyph glyph-name="ncommaaccent" unicode="&#x146;" horiz-adv-x="548" 
d="M47 0l60 487h79l-13 -110l2 -1q38 56 88 86.5t104 30.5q74 0 103.5 -49t16.5 -151l-39 -293h-79l38 287q10 70 -6.5 101.5t-58.5 31.5q-59 0 -120 -67.5t-72 -160.5l-24 -192h-79zM153 -212l-12 49q34 8 49 28t15 59q0 4 -0.5 11t-0.5 11h71v-21q0 -60 -30.5 -96
t-91.5 -41z" />
    <glyph glyph-name="Ncaron" unicode="&#x147;" horiz-adv-x="709" 
d="M386 782l-87 124h77l54 -75h3l76 75h78l-123 -124h-78zM63 0l87 710h85l281 -565l3 1l69 564h86l-88 -710h-86l-281 560h-2l-69 -560h-85z" />
    <glyph glyph-name="ncaron" unicode="&#x148;" horiz-adv-x="548" 
d="M286 555l-84 139h76l52 -86h3l75 86h77l-121 -139h-78zM47 0l60 487h79l-13 -110l2 -1q38 56 88 86.5t104 30.5q74 0 103.5 -49t16.5 -151l-39 -293h-79l38 287q10 70 -6.5 101.5t-58.5 31.5q-59 0 -120 -67.5t-72 -160.5l-24 -192h-79z" />
    <glyph glyph-name="napostrophe" unicode="&#x149;" horiz-adv-x="654" 
d="M37 516l48 194h83l-70 -194h-61zM153 0l60 487h79l-13 -110l2 -1q38 56 88 86.5t104 30.5q74 0 103.5 -49t16.5 -151l-39 -293h-79l38 287q10 70 -6.5 101.5t-58.5 31.5q-59 0 -120 -67.5t-72 -160.5l-24 -192h-79z" />
    <glyph glyph-name="Eng" unicode="&#x14a;" horiz-adv-x="709" 
d="M588 710h86l-89 -719q-13 -104 -63.5 -148.5t-134.5 -44.5q-37 0 -62 8l12 70q26 -7 47 -7q52 0 79.5 28.5t35.5 93.5l1 7l-281 562h-2l-69 -560h-85l87 710h85l281 -565l3 1z" />
    <glyph glyph-name="eng" unicode="&#x14b;" horiz-adv-x="543" 
d="M259 -204q-27 0 -50 8l13 63q15 -4 30 -4q47 0 75.5 33.5t39.5 116.5l36 274q17 133 -65 133q-59 0 -117.5 -67t-70.5 -160l-23 -193h-80l60 487h79l-13 -110h2q35 55 84 85.5t103 30.5q147 0 121 -200l-39 -293q-27 -204 -185 -204z" />
    <glyph glyph-name="Omacron" unicode="&#x14c;" horiz-adv-x="760" 
d="M341 809l8 67h262l-8 -67h-262zM350 -6q-128 0 -204.5 79t-76.5 218q0 112 45 209t130 157t192 60q128 0 205 -78.5t77 -218.5q0 -178 -101 -302t-267 -124zM356 74q79 0 143 48.5t97.5 126.5t33.5 168q0 108 -53.5 164t-149.5 56q-116 0 -192.5 -103.5t-76.5 -240.5
q0 -106 53 -162.5t145 -56.5z" />
    <glyph glyph-name="omacron" unicode="&#x14d;" horiz-adv-x="544" 
d="M190 596l8 69h262l-8 -69h-262zM244 -6q-93 0 -147 54t-54 150q0 122 70.5 208.5t185.5 86.5q92 0 147 -52.5t55 -147.5q0 -130 -69 -214.5t-188 -84.5zM246 67q77 0 125.5 62t48.5 157q0 69 -36 101t-89 32q-75 0 -123.5 -62.5t-48.5 -149.5q0 -64 33 -102t90 -38z" />
    <glyph glyph-name="Obreve" unicode="&#x14e;" horiz-adv-x="760" 
d="M468 776q-61 0 -91.5 34.5t-25.5 95.5h63q-3 -28 11 -48t46 -20t55 20.5t30 47.5h63q-12 -59 -53 -94.5t-98 -35.5zM350 -6q-128 0 -204.5 79t-76.5 218q0 112 45 209t130 157t192 60q128 0 205 -78.5t77 -218.5q0 -178 -101 -302t-267 -124zM356 74q79 0 143 48.5
t97.5 126.5t33.5 168q0 108 -53.5 164t-149.5 56q-116 0 -192.5 -103.5t-76.5 -240.5q0 -106 53 -162.5t145 -56.5z" />
    <glyph glyph-name="obreve" unicode="&#x14f;" horiz-adv-x="544" 
d="M317 553q-62 0 -92 36.5t-25 104.5l63 -1q-7 -78 56 -78q33 0 56 22.5t30 56.5l63 -1q-12 -65 -52.5 -102.5t-98.5 -37.5zM244 -6q-93 0 -147 54t-54 150q0 122 70.5 208.5t185.5 86.5q92 0 147 -52.5t55 -147.5q0 -130 -69 -214.5t-188 -84.5zM246 67q77 0 125.5 62
t48.5 157q0 69 -36 101t-89 32q-75 0 -123.5 -62.5t-48.5 -149.5q0 -64 33 -102t90 -38z" />
    <glyph glyph-name="Ohungarumlaut" unicode="&#x150;" horiz-adv-x="760" 
d="M344 777l122 141l86 1l-129 -142h-79zM504 777l121 141l86 1l-129 -142h-78zM350 -6q-128 0 -204.5 79t-76.5 218q0 112 45 209t130 157t192 60q128 0 205 -78.5t77 -218.5q0 -178 -101 -302t-267 -124zM356 74q79 0 143 48.5t97.5 126.5t33.5 168q0 108 -53.5 164
t-149.5 56q-116 0 -192.5 -103.5t-76.5 -240.5q0 -106 53 -162.5t145 -56.5z" />
    <glyph glyph-name="ohungarumlaut" unicode="&#x151;" horiz-adv-x="544" 
d="M198 557l122 141l86 1l-129 -142h-79zM358 557l121 141l86 1l-129 -142h-78zM244 -6q-93 0 -147 54t-54 150q0 122 70.5 208.5t185.5 86.5q92 0 147 -52.5t55 -147.5q0 -130 -69 -214.5t-188 -84.5zM246 67q77 0 125.5 62t48.5 157q0 69 -36 101t-89 32
q-75 0 -123.5 -62.5t-48.5 -149.5q0 -64 33 -102t90 -38z" />
    <glyph glyph-name="OE" unicode="&#x152;" horiz-adv-x="878" 
d="M855 633h-308l-30 -241h252l-9 -77h-252l-29 -238h327l-10 -77h-447q-128 0 -204 78.5t-76 214.5q0 174 103 295.5t265 121.5h428zM355 80h39l67 550l-33 1q-118 0 -194 -99.5t-76 -236.5q0 -103 52.5 -159t144.5 -56z" />
    <glyph glyph-name="oe" unicode="&#x153;" horiz-adv-x="734" 
d="M533 67q25 0 55.5 15t54.5 46l62 -45q-71 -89 -174 -89q-56 0 -97.5 27t-62.5 77h-3q-63 -104 -169 -104q-78 0 -123.5 53.5t-45.5 143.5q0 126 65.5 214t170.5 88q49 0 85.5 -26.5t53.5 -76.5h4q68 103 181 103q60 0 97.5 -30.5t37.5 -82.5q0 -83 -81 -135t-216 -76
q7 -49 36 -75.5t69 -26.5zM352 281q2 64 -22 101.5t-66 37.5q-64 0 -108.5 -66.5t-44.5 -156.5q0 -63 27 -96.5t67 -33.5q58 0 101.5 61.5t45.5 152.5zM582 420q-55 0 -100 -51t-54 -134q217 44 217 136q0 24 -18 36.5t-45 12.5z" />
    <glyph glyph-name="Racute" unicode="&#x154;" horiz-adv-x="609" 
d="M282 782l119 129h92l-130 -129h-81zM63 0l87 710h232q187 0 187 -182q0 -95 -46.5 -159t-132.5 -85l137 -284h-96l-127 272h-123l-33 -272h-85zM191 350h124q77 0 121.5 47.5t44.5 130.5q0 50 -32 77.5t-85 27.5h-138z" />
    <glyph glyph-name="racute" unicode="&#x155;" horiz-adv-x="327" 
d="M154 557l121 141l90 1l-128 -142h-83zM47 0l61 487h79l-14 -109h2q65 103 165 115l-10 -93q-72 4 -119.5 -53.5t-59.5 -153.5l-24 -193h-80z" />
    <glyph glyph-name="Rcommaaccent" unicode="&#x156;" horiz-adv-x="609" 
d="M63 0l87 710h232q187 0 187 -182q0 -95 -46.5 -159t-132.5 -85l137 -284h-96l-127 272h-123l-33 -272h-85zM191 350h124q77 0 121.5 47.5t44.5 130.5q0 50 -32 77.5t-85 27.5h-138zM181 -212l-12 49q34 8 49 28t15 59q0 4 -0.5 11t-0.5 11h71v-21q0 -60 -30.5 -96
t-91.5 -41z" />
    <glyph glyph-name="rcommaaccent" unicode="&#x157;" horiz-adv-x="327" 
d="M47 0l61 487h79l-14 -109h2q65 103 165 115l-10 -93q-72 4 -119.5 -53.5t-59.5 -153.5l-24 -193h-80zM-7 -212l-12 49q34 8 49 28t15 59q0 4 -0.5 11t-0.5 11h71v-21q0 -60 -30.5 -96t-91.5 -41z" />
    <glyph glyph-name="Rcaron" unicode="&#x158;" horiz-adv-x="609" 
d="M328 782l-87 124h77l54 -75h3l76 75h78l-123 -124h-78zM63 0l87 710h232q187 0 187 -182q0 -95 -46.5 -159t-132.5 -85l137 -284h-96l-127 272h-123l-33 -272h-85zM191 350h124q77 0 121.5 47.5t44.5 130.5q0 50 -32 77.5t-85 27.5h-138z" />
    <glyph glyph-name="rcaron" unicode="&#x159;" horiz-adv-x="327" 
d="M202 555l-84 139h76l52 -86h3l75 86h77l-121 -139h-78zM47 0l61 487h79l-14 -109h2q65 103 165 115l-10 -93q-72 4 -119.5 -53.5t-59.5 -153.5l-24 -193h-80z" />
    <glyph glyph-name="Sacute" unicode="&#x15a;" horiz-adv-x="551" 
d="M299 782l119 129h92l-130 -129h-81zM260 -6q-71 0 -133.5 31t-98.5 86l64 58q27 -47 71 -71.5t93 -24.5q65 0 106 34.5t41 88.5q0 13 -3 23.5t-12 21t-14.5 17t-22 17.5t-24 15.5t-30.5 17t-31 17.5q-5 3 -14 8q-39 22 -59.5 35.5t-48 37.5t-40 52.5t-12.5 63.5
q0 87 63 141t159 54q122 0 200 -95l-63 -55q-53 72 -143 72q-56 0 -92 -30.5t-35 -76.5q0 -21 8 -37.5t28.5 -33t35.5 -26.5t50 -30q7 -4 39 -21.5t41 -23t33 -21.5t32.5 -27t21.5 -28t17.5 -36t4.5 -41q0 -100 -65 -156.5t-167 -56.5z" />
    <glyph glyph-name="sacute" unicode="&#x15b;" horiz-adv-x="415" 
d="M196 557l121 141l90 1l-128 -142h-83zM185 -6q-53 0 -98.5 20.5t-73.5 57.5l53 53q50 -61 119 -61q43 0 70.5 18.5t27.5 50.5q0 18 -14 33t-27 21.5t-49 22.5q-9 4 -13 6q-56 24 -87.5 56t-31.5 81q0 62 47 101t114 39q99 0 157 -66l-53 -54q-42 50 -106 50
q-34 0 -56 -18t-22 -48q0 -24 22 -42t65 -38q75 -35 99 -57q35 -33 36 -78q0 -71 -49.5 -109.5t-129.5 -38.5z" />
    <glyph glyph-name="Scircumflex" unicode="&#x15c;" horiz-adv-x="551" 
d="M186 782l123 124h77l88 -124h-77l-55 75h-2l-76 -75h-78zM260 -6q-71 0 -133.5 31t-98.5 86l64 58q27 -47 71 -71.5t93 -24.5q65 0 106 34.5t41 88.5q0 13 -3 23.5t-12 21t-14.5 17t-22 17.5t-24 15.5t-30.5 17t-31 17.5q-5 3 -14 8q-39 22 -59.5 35.5t-48 37.5t-40 52.5
t-12.5 63.5q0 87 63 141t159 54q122 0 200 -95l-63 -55q-53 72 -143 72q-56 0 -92 -30.5t-35 -76.5q0 -21 8 -37.5t28.5 -33t35.5 -26.5t50 -30q7 -4 39 -21.5t41 -23t33 -21.5t32.5 -27t21.5 -28t17.5 -36t4.5 -41q0 -100 -65 -156.5t-167 -56.5z" />
    <glyph glyph-name="scircumflex" unicode="&#x15d;" horiz-adv-x="415" 
d="M102 556l121 143h76l90 -143h-79l-51 90h-2l-73 -90h-82zM185 -6q-53 0 -98.5 20.5t-73.5 57.5l53 53q50 -61 119 -61q43 0 70.5 18.5t27.5 50.5q0 18 -14 33t-27 21.5t-49 22.5q-9 4 -13 6q-56 24 -87.5 56t-31.5 81q0 62 47 101t114 39q99 0 157 -66l-53 -54
q-42 50 -106 50q-34 0 -56 -18t-22 -48q0 -24 22 -42t65 -38q75 -35 99 -57q35 -33 36 -78q0 -71 -49.5 -109.5t-129.5 -38.5z" />
    <glyph glyph-name="Scedilla" unicode="&#x15e;" horiz-adv-x="551" 
d="M303 405q7 -4 39 -21.5t41 -23t33 -21.5t32.5 -27t21.5 -28t17.5 -36t4.5 -41q0 -100 -65 -156.5t-166 -56.5l-17 -27l1 -1q72 -5 72 -64q0 -42 -31.5 -66t-82.5 -24q-21 0 -44 6l3 43q15 -6 35 -6q28 0 46 12.5t18 34.5q0 31 -69 32l2 30l19 34q-58 8 -106.5 37.5
t-78.5 75.5l64 58q27 -47 71 -71.5t93 -24.5q65 0 106 34.5t41 88.5q0 13 -3 23.5t-12 21t-14.5 17t-22 17.5t-24 15.5t-30.5 17t-31 17.5q-5 3 -14 8q-39 22 -59.5 35.5t-48 37.5t-40 52.5t-12.5 63.5q0 87 63 141t159 54q122 0 200 -95l-63 -55q-53 72 -143 72
q-56 0 -92 -30.5t-35 -76.5q0 -21 8 -37.5t28.5 -33t35.5 -26.5t50 -30z" />
    <glyph glyph-name="scedilla" unicode="&#x15f;" horiz-adv-x="415" 
d="M229 277q75 -35 99 -57q35 -33 36 -78q0 -71 -49.5 -109.5t-129.5 -38.5h-2l-17 -27l1 -1q72 -5 72 -64q0 -42 -31.5 -66t-82.5 -24q-21 0 -44 6l3 43q15 -6 35 -6q28 0 46 12.5t18 34.5q0 31 -69 32l2 30l20 35q-80 16 -123 73l53 53q50 -61 119 -61q43 0 70.5 18.5
t27.5 50.5q0 18 -14 33t-27 21.5t-49 22.5q-9 4 -13 6q-56 24 -87.5 56t-31.5 81q0 62 47 101t114 39q99 0 157 -66l-53 -54q-42 50 -106 50q-34 0 -56 -18t-22 -48q0 -24 22 -42t65 -38z" />
    <glyph glyph-name="Scaron" unicode="&#x160;" horiz-adv-x="551" 
d="M291 782l-87 124h77l54 -75h3l76 75h78l-123 -124h-78zM260 -6q-71 0 -133.5 31t-98.5 86l64 58q27 -47 71 -71.5t93 -24.5q65 0 106 34.5t41 88.5q0 13 -3 23.5t-12 21t-14.5 17t-22 17.5t-24 15.5t-30.5 17t-31 17.5q-5 3 -14 8q-39 22 -59.5 35.5t-48 37.5t-40 52.5
t-12.5 63.5q0 87 63 141t159 54q122 0 200 -95l-63 -55q-53 72 -143 72q-56 0 -92 -30.5t-35 -76.5q0 -21 8 -37.5t28.5 -33t35.5 -26.5t50 -30q7 -4 39 -21.5t41 -23t33 -21.5t32.5 -27t21.5 -28t17.5 -36t4.5 -41q0 -100 -65 -156.5t-167 -56.5z" />
    <glyph glyph-name="scaron" unicode="&#x161;" horiz-adv-x="415" 
d="M205 555l-84 139h76l52 -86h3l75 86h77l-121 -139h-78zM185 -6q-53 0 -98.5 20.5t-73.5 57.5l53 53q50 -61 119 -61q43 0 70.5 18.5t27.5 50.5q0 18 -14 33t-27 21.5t-49 22.5q-9 4 -13 6q-56 24 -87.5 56t-31.5 81q0 62 47 101t114 39q99 0 157 -66l-53 -54
q-42 50 -106 50q-34 0 -56 -18t-22 -48q0 -24 22 -42t65 -38q75 -35 99 -57q35 -33 36 -78q0 -71 -49.5 -109.5t-129.5 -38.5z" />
    <glyph glyph-name="uni0162" unicode="&#x162;" horiz-adv-x="529" 
d="M88 710h467l-9 -77h-192l-77 -633h-31l-20 -33l1 -1q72 -5 72 -64q0 -42 -31.5 -66t-82.5 -24q-21 0 -44 6l3 43q15 -6 35 -6q28 0 46 12.5t18 34.5q0 31 -69 32l2 30l21 36h-5l77 633h-190z" />
    <glyph glyph-name="uni0163" unicode="&#x163;" horiz-adv-x="335" 
d="M182 418l-34 -272q-9 -76 41 -76q37 0 80 29l11 -71q-53 -34 -116 -34l-17 -27l1 -1q72 -5 72 -64q0 -42 -31.5 -66t-82.5 -24q-22 0 -44 6l3 43q15 -6 35 -6q28 0 46 12.5t18 34.5q0 31 -69 32l2 30l22 38q-65 26 -52 131l35 285h-54l7 69h55l21 160l80 15l-21 -175h137
l-7 -69h-138z" />
    <glyph glyph-name="Tcaron" unicode="&#x164;" horiz-adv-x="529" 
d="M290 782l-87 124h77l54 -75h3l76 75h78l-123 -124h-78zM192 0l77 633h-190l9 77h467l-9 -77h-192l-77 -633h-85z" />
    <glyph glyph-name="tcaron" unicode="&#x165;" horiz-adv-x="344" 
d="M271 588l48 184h82l-69 -184h-61zM163 -6q-57 0 -80.5 37t-15.5 102l35 285h-54l7 69h55l21 160l80 15l-21 -175h137l-7 -69h-138l-34 -272q-9 -76 41 -76q37 0 80 29l11 -71q-53 -34 -117 -34z" />
    <glyph glyph-name="Tbar" unicode="&#x166;" horiz-adv-x="529" 
d="M546 633h-192l-30 -250h106l-7 -66h-107l-39 -317h-85l39 317h-103l7 66h104l30 250h-190l9 77h467z" />
    <glyph glyph-name="tbar" unicode="&#x167;" horiz-adv-x="335" 
d="M320 418h-138l-15 -117h117l-7 -56h-117l-12 -99q-9 -76 41 -76q37 0 80 29l11 -71q-53 -34 -117 -34q-57 0 -80.5 37t-15.5 102l14 112h-48l7 56h48l14 117h-54l7 69h55l21 160l80 15l-21 -175h137z" />
    <glyph glyph-name="Utilde" unicode="&#x168;" horiz-adv-x="666" 
d="M500 781q-33 0 -78 35q-30 24 -48 24q-36 0 -60 -57l-51 26q42 90 105 90q10 0 18.5 -1.5t17.5 -6t12.5 -6t13.5 -9.5l11 -7q34 -28 52 -28q35 0 59 56l51 -20q-19 -45 -46 -70.5t-57 -25.5zM321 -6q-125 0 -178.5 81t-35.5 221l51 414h85l-51 -413q-13 -101 19 -161.5
t114 -60.5q172 0 197 214l52 421h85l-52 -422q-35 -294 -286 -294z" />
    <glyph glyph-name="utilde" unicode="&#x169;" horiz-adv-x="534" 
d="M409 563q-8 0 -16.5 2t-14.5 4t-13.5 6.5t-11 7.5t-11 8.5t-9.5 6.5q-29 24 -48 24q-38 0 -62 -57l-51 26q41 96 106 96q8 0 16 -1.5t13.5 -3t12 -5.5t9.5 -6t10 -7.5t9 -6.5q3 -2 10.5 -7.5t11 -8t9.5 -6t11 -5t10 -1.5q37 0 61 56l51 -20q-39 -102 -103 -102zM216 -6
q-156 0 -129 196l41 297h79l-39 -290q-9 -72 9.5 -101t61.5 -29q53 0 108.5 61t66.5 146l26 213h80l-60 -487h-79l13 110h-2q-30 -53 -76 -84.5t-100 -31.5z" />
    <glyph glyph-name="Umacron" unicode="&#x16a;" horiz-adv-x="666" 
d="M295 809l8 67h262l-8 -67h-262zM321 -6q-125 0 -178.5 81t-35.5 221l51 414h85l-51 -413q-13 -101 19 -161.5t114 -60.5q172 0 197 214l52 421h85l-52 -422q-35 -294 -286 -294z" />
    <glyph glyph-name="umacron" unicode="&#x16b;" horiz-adv-x="534" 
d="M205 596l8 69h262l-8 -69h-262zM216 -6q-156 0 -129 196l41 297h79l-39 -290q-9 -72 9.5 -101t61.5 -29q53 0 108.5 61t66.5 146l26 213h80l-60 -487h-79l13 110h-2q-30 -53 -76 -84.5t-100 -31.5z" />
    <glyph glyph-name="Ubreve" unicode="&#x16c;" horiz-adv-x="666" 
d="M422 776q-61 0 -91.5 34.5t-25.5 95.5h63q-3 -28 11 -48t46 -20t55 20.5t30 47.5h63q-12 -59 -53 -94.5t-98 -35.5zM321 -6q-125 0 -178.5 81t-35.5 221l51 414h85l-51 -413q-13 -101 19 -161.5t114 -60.5q172 0 197 214l52 421h85l-52 -422q-35 -294 -286 -294z" />
    <glyph glyph-name="ubreve" unicode="&#x16d;" horiz-adv-x="534" 
d="M332 553q-62 0 -92 36.5t-25 104.5l63 -1q-7 -78 56 -78q33 0 56 22.5t30 56.5l63 -1q-12 -65 -52.5 -102.5t-98.5 -37.5zM216 -6q-156 0 -129 196l41 297h79l-39 -290q-9 -72 9.5 -101t61.5 -29q53 0 108.5 61t66.5 146l26 213h80l-60 -487h-79l13 110h-2
q-30 -53 -76 -84.5t-100 -31.5z" />
    <glyph glyph-name="Uring" unicode="&#x16e;" horiz-adv-x="666" 
d="M428 770q-39 0 -65.5 26.5t-26.5 66.5t27.5 67t68.5 27q39 0 65.5 -26.5t26.5 -65.5q0 -41 -27.5 -68t-68.5 -27zM429 822q19 0 31.5 12t12.5 31q0 17 -12 29t-30 12q-19 0 -31.5 -12.5t-12.5 -30.5t12 -29.5t30 -11.5zM321 -6q-125 0 -178.5 81t-35.5 221l51 414h85
l-51 -413q-13 -101 19 -161.5t114 -60.5q172 0 197 214l52 421h85l-52 -422q-35 -294 -286 -294z" />
    <glyph glyph-name="uring" unicode="&#x16f;" horiz-adv-x="534" 
d="M340 546q-39 0 -65.5 26.5t-26.5 66.5t27.5 67t68.5 27q39 0 65.5 -26.5t26.5 -65.5q0 -41 -27.5 -68t-68.5 -27zM341 598q19 0 31.5 12t12.5 31q0 17 -12 29t-30 12q-19 0 -31.5 -12.5t-12.5 -30.5t12 -29.5t30 -11.5zM216 -6q-156 0 -129 196l41 297h79l-39 -290
q-9 -72 9.5 -101t61.5 -29q53 0 108.5 61t66.5 146l26 213h80l-60 -487h-79l13 110h-2q-30 -53 -76 -84.5t-100 -31.5z" />
    <glyph glyph-name="Uhungarumlaut" unicode="&#x170;" horiz-adv-x="666" 
d="M298 777l122 141l86 1l-129 -142h-79zM458 777l121 141l86 1l-129 -142h-78zM321 -6q-125 0 -178.5 81t-35.5 221l51 414h85l-51 -413q-13 -101 19 -161.5t114 -60.5q172 0 197 214l52 421h85l-52 -422q-35 -294 -286 -294z" />
    <glyph glyph-name="uhungarumlaut" unicode="&#x171;" horiz-adv-x="534" 
d="M213 557l122 141l86 1l-129 -142h-79zM373 557l121 141l86 1l-129 -142h-78zM216 -6q-156 0 -129 196l41 297h79l-39 -290q-9 -72 9.5 -101t61.5 -29q53 0 108.5 61t66.5 146l26 213h80l-60 -487h-79l13 110h-2q-30 -53 -76 -84.5t-100 -31.5z" />
    <glyph glyph-name="Uogonek" unicode="&#x172;" horiz-adv-x="666" 
d="M573 710h85l-52 -422q-29 -245 -208 -286q-42 -18 -69.5 -45t-28.5 -53q-1 -16 8.5 -25.5t25.5 -9.5q24 0 45 10l2 -53q-24 -12 -65 -12q-42 0 -63 20t-20 53q0 58 64 105l-1 3q-112 8 -159.5 88.5t-30.5 212.5l51 414h85l-51 -413q-13 -101 19 -161.5t114 -60.5
q172 0 197 214z" />
    <glyph glyph-name="uogonek" unicode="&#x173;" horiz-adv-x="534" 
d="M440 487h80l-60 -487h-2q-39 -16 -63.5 -42.5t-26.5 -53.5q0 -35 35 -35q28 0 45 10l2 -53q-23 -12 -65 -12q-41 0 -62.5 19t-20.5 54q1 33 23 65t57 56l12 102h-2q-30 -53 -76 -84.5t-100 -31.5q-156 0 -129 196l41 297h79l-39 -290q-9 -72 9.5 -101t61.5 -29
q53 0 108.5 61t66.5 146z" />
    <glyph glyph-name="Wcircumflex" unicode="&#x174;" horiz-adv-x="933" 
d="M389 782l123 124h77l88 -124h-77l-55 75h-2l-76 -75h-78zM208 0l-116 710h89l86 -569h3l205 569h95l72 -559h2l221 559h92l-291 -710h-86l-74 571h-2l-210 -571h-86z" />
    <glyph glyph-name="wcircumflex" unicode="&#x175;" horiz-adv-x="777" 
d="M318 556l121 143h76l90 -143h-79l-51 90h-2l-73 -90h-82zM209 -6q-148 0 -121 204l38 289h79l-36 -284q-18 -136 66 -136q44 0 92 54.5t60 153.5l26 212h80l-36 -287q-17 -133 61 -133q47 0 96 55.5t69 151.5q20 99 3 213h81q20 -122 -5 -236q-28 -128 -99.5 -192.5
t-152.5 -64.5q-58 0 -92 31t-38 85h-2q-26 -51 -76.5 -83.5t-92.5 -32.5z" />
    <glyph glyph-name="Ycircumflex" unicode="&#x176;" horiz-adv-x="555" 
d="M195 782l123 124h77l88 -124h-77l-55 75h-2l-76 -75h-78zM204 0l39 317l-169 393h94l125 -310h3l202 310h99l-268 -393l-40 -317h-85z" />
    <glyph glyph-name="ycircumflex" unicode="&#x177;" horiz-adv-x="533" 
d="M314 646l-73 -90h-82l121 143h76l90 -143h-79l-51 90h-2zM414 487h78l-51 -424q-10 -79 -34.5 -133.5t-61 -82.5t-75 -39.5t-86.5 -11.5q-86 0 -161 44l26 70q69 -41 136 -41q73 0 118.5 42.5t59.5 157.5l5 40l-2 1q-69 -116 -179 -116q-77 0 -110 47t-19 149l40 297h79
l-38 -290q-9 -72 9 -101t62 -29q56 0 112.5 64.5t66.5 151.5z" />
    <glyph glyph-name="Ydieresis" unicode="&#x178;" horiz-adv-x="555" 
d="M262 793q-24 0 -40 16t-16 40q0 25 17 41.5t42 16.5q23 0 39 -16t16 -40q0 -25 -16.5 -41.5t-41.5 -16.5zM433 793q-25 0 -41 16t-16 40q0 25 17 41.5t42 16.5q23 0 39 -16t16 -40q0 -25 -16.5 -41.5t-40.5 -16.5zM204 0l39 317l-169 393h94l125 -310h3l202 310h99
l-268 -393l-40 -317h-85z" />
    <glyph glyph-name="Zacute" unicode="&#x179;" horiz-adv-x="576" 
d="M267 782l119 129h92l-130 -129h-81zM30 0l8 68l409 562l-1 3h-322l9 77h433l-7 -68l-414 -561l2 -4h344l-10 -77h-451z" />
    <glyph glyph-name="zacute" unicode="&#x17a;" horiz-adv-x="446" 
d="M188 557l121 141l90 1l-128 -142h-83zM363 -26q-41 13 -103.5 19t-105.5 6.5t-145 0.5l6 58l294 359v1h-235l8 69h344l-6 -57l-296 -359v-2q183 -4 261 -29z" />
    <glyph glyph-name="Zdotaccent" unicode="&#x17b;" horiz-adv-x="576" 
d="M361 793q-24 0 -40 16t-16 40q0 25 16.5 41.5t41.5 16.5q24 0 40 -16t16 -40q0 -25 -16.5 -41.5t-41.5 -16.5zM30 0l8 68l409 562l-1 3h-322l9 77h433l-7 -68l-414 -561l2 -4h344l-10 -77h-451z" />
    <glyph glyph-name="zdotaccent" unicode="&#x17c;" horiz-adv-x="446" 
d="M272 577q-24 0 -40 16t-16 40q0 25 16.5 41.5t41.5 16.5q24 0 40 -16t16 -40q0 -25 -16.5 -41.5t-41.5 -16.5zM363 -26q-41 13 -103.5 19t-105.5 6.5t-145 0.5l6 58l294 359v1h-235l8 69h344l-6 -57l-296 -359v-2q183 -4 261 -29z" />
    <glyph glyph-name="Zcaron" unicode="&#x17d;" horiz-adv-x="576" 
d="M313 782l-87 124h77l54 -75h3l76 75h78l-123 -124h-78zM30 0l8 68l409 562l-1 3h-322l9 77h433l-7 -68l-414 -561l2 -4h344l-10 -77h-451z" />
    <glyph glyph-name="zcaron" unicode="&#x17e;" horiz-adv-x="446" 
d="M220 555l-84 139h76l52 -86h3l75 86h77l-121 -139h-78zM363 -26q-41 13 -103.5 19t-105.5 6.5t-145 0.5l6 58l294 359v1h-235l8 69h344l-6 -57l-296 -359v-2q183 -4 261 -29z" />
    <glyph glyph-name="longs" unicode="&#x17f;" horiz-adv-x="287" 
d="M53 0l51 418h-51l8 69h52l13 105q18 151 137 151q58 0 102 -30l-22 -68q-33 24 -69 24q-60 0 -71 -93l-71 -576h-79z" />
    <glyph glyph-name="uni018F" unicode="&#x18f;" horiz-adv-x="718" 
d="M400 717q127 0 202 -78.5t75 -218.5q0 -115 -42 -211t-123.5 -155.5t-188.5 -59.5q-124 0 -199 78t-75 213q0 25 9 81h527q3 26 3 51q0 107 -53 163.5t-144 56.5q-104 0 -189 -70l-50 64q108 86 248 86zM328 74q86 0 150 60t92 156h-435v-3q0 -101 52.5 -157t140.5 -56z
" />
    <glyph glyph-name="florin" unicode="&#x192;" horiz-adv-x="482" 
d="M47 -124q-85 0 -119 42l37 54q30 -23 70 -23q38 0 62.5 24t37.5 80l83 345h-72l18 70h73l28 119q38 156 159 156q80 0 119 -43l-37 -55q-30 24 -71 24q-70 0 -94 -103l-22 -98h133l-18 -70h-134l-88 -366q-19 -81 -59.5 -118.5t-105.5 -37.5z" />
    <glyph glyph-name="uni019D" unicode="&#x19d;" horiz-adv-x="706" 
d="M0 -202q-34 0 -65 7l12 71q19 -7 43 -7q33 0 48 25t22 84l90 732h85l276 -565l3 1l72 564h85l-90 -710h-87l-275 560h-2l-74 -602q-11 -86 -45.5 -123t-97.5 -37z" />
    <glyph glyph-name="Ohorn" unicode="&#x1a0;" horiz-adv-x="808" 
d="M755 774h76l-12 -95q-19 -141 -114 -156q13 -45 13 -103q0 -178 -101 -302t-267 -124q-128 0 -204.5 79t-76.5 218q0 112 45 209t130 157t192 60q87 0 151.5 -37t98.5 -107q26 3 38.5 31t19.5 87zM356 74q79 0 143 48.5t97.5 126.5t33.5 168q0 108 -53.5 164t-149.5 56
q-116 0 -192.5 -103.5t-76.5 -240.5q0 -106 53 -162.5t145 -56.5z" />
    <glyph glyph-name="ohorn" unicode="&#x1a1;" horiz-adv-x="625" 
d="M565 565h76l-12 -95q-20 -153 -129 -158q1 -6 1 -19q0 -130 -69 -214.5t-188 -84.5q-93 0 -147 54t-54 150q0 122 70.5 208.5t185.5 86.5q72 0 122.5 -33.5t69.5 -95.5q29 1 42.5 29t20.5 89zM246 67q77 0 125.5 62t48.5 157q0 69 -36 101t-89 32q-75 0 -123.5 -62.5
t-48.5 -149.5q0 -64 33 -102t90 -38z" />
    <glyph glyph-name="Uhorn" unicode="&#x1af;" horiz-adv-x="739" 
d="M734 774h76l-12 -95q-21 -158 -136 -158q-11 0 -26 3l-29 -236q-35 -294 -286 -294q-125 0 -178.5 81t-35.5 221l51 414h85l-51 -413q-13 -101 19 -161.5t114 -60.5q172 0 197 214l52 421h85l-17 -135q6 -2 17 -2q30 0 43.5 28t20.5 90z" />
    <glyph glyph-name="uhorn" unicode="&#x1b0;" horiz-adv-x="619" 
d="M594 565h76l-12 -95q-21 -158 -136 -158q-7 0 -23 2l-39 -314h-79l13 110h-2q-30 -53 -76 -84.5t-100 -31.5q-156 0 -129 196l41 297h79l-39 -290q-9 -72 9.5 -101t61.5 -29q53 0 108.5 61t66.5 146l26 213h80l-15 -122q5 -1 14 -1q30 0 43.5 28t20.5 90z" />
    <glyph glyph-name="uni01CD" unicode="&#x1cd;" horiz-adv-x="626" 
d="M342 782l-87 124h77l54 -75h3l76 75h78l-123 -124h-78zM-3 0l328 710h90l155 -710h-89l-36 174h-281l-78 -174h-89zM197 249h233l-73 354h-2z" />
    <glyph glyph-name="uni01CE" unicode="&#x1ce;" horiz-adv-x="551" 
d="M291 555l-84 139h76l52 -86h3l75 86h77l-121 -139h-78zM209 -6q-81 0 -124 55t-43 141q0 123 68.5 213t175.5 90q89 0 138 -52l2 1l6 44h79l-60 -486h-79l14 111l-3 1q-33 -56 -78.5 -87t-95.5 -31zM224 65q65 0 119.5 72t67.5 179l6 50q-22 26 -58 39.5t-68 13.5
q-75 0 -122 -69.5t-47 -161.5q0 -56 26.5 -89.5t75.5 -33.5z" />
    <glyph glyph-name="uni01CF" unicode="&#x1cf;" horiz-adv-x="282" 
d="M167 782l-87 124h77l54 -75h3l76 75h78l-123 -124h-78zM68 0l87 710h86l-87 -710h-86z" />
    <glyph glyph-name="uni01D0" unicode="&#x1d0;" horiz-adv-x="240" 
d="M118 555l-84 139h76l52 -86h3l75 86h77l-121 -139h-78zM50 0l60 487h80l-60 -487h-80z" />
    <glyph glyph-name="uni01D1" unicode="&#x1d1;" horiz-adv-x="760" 
d="M427 782l-87 124h77l54 -75h3l76 75h78l-123 -124h-78zM350 -6q-128 0 -204.5 79t-76.5 218q0 112 45 209t130 157t192 60q128 0 205 -78.5t77 -218.5q0 -178 -101 -302t-267 -124zM356 74q79 0 143 48.5t97.5 126.5t33.5 168q0 108 -53.5 164t-149.5 56
q-116 0 -192.5 -103.5t-76.5 -240.5q0 -106 53 -162.5t145 -56.5z" />
    <glyph glyph-name="uni01D2" unicode="&#x1d2;" horiz-adv-x="544" 
d="M275 555l-84 139h76l52 -86h3l75 86h77l-121 -139h-78zM244 -6q-93 0 -147 54t-54 150q0 122 70.5 208.5t185.5 86.5q92 0 147 -52.5t55 -147.5q0 -130 -69 -214.5t-188 -84.5zM246 67q77 0 125.5 62t48.5 157q0 69 -36 101t-89 32q-75 0 -123.5 -62.5t-48.5 -149.5
q0 -64 33 -102t90 -38z" />
    <glyph glyph-name="uni01D3" unicode="&#x1d3;" horiz-adv-x="666" 
d="M381 782l-87 124h77l54 -75h3l76 75h78l-123 -124h-78zM321 -6q-125 0 -178.5 81t-35.5 221l51 414h85l-51 -413q-13 -101 19 -161.5t114 -60.5q172 0 197 214l52 421h85l-52 -422q-35 -294 -286 -294z" />
    <glyph glyph-name="uni01D4" unicode="&#x1d4;" horiz-adv-x="534" 
d="M290 555l-84 139h76l52 -86h3l75 86h77l-121 -139h-78zM216 -6q-156 0 -129 196l41 297h79l-39 -290q-9 -72 9.5 -101t61.5 -29q53 0 108.5 61t66.5 146l26 213h80l-60 -487h-79l13 110h-2q-30 -53 -76 -84.5t-100 -31.5z" />
    <glyph glyph-name="uni01D5" unicode="&#x1d5;" horiz-adv-x="666" 
d="M303 946l8 57h262l-8 -57h-262zM338 788q-23 0 -37.5 14t-14.5 36q0 23 15.5 38t38.5 15q22 0 37 -14.5t15 -36.5t-15.5 -37t-38.5 -15zM505 788q-23 0 -37.5 14t-14.5 36q0 23 15.5 38t38.5 15q22 0 37 -14.5t15 -36.5t-15.5 -37t-38.5 -15zM321 -6q-125 0 -178.5 81
t-35.5 221l51 414h85l-51 -413q-13 -101 19 -161.5t114 -60.5q172 0 197 214l52 421h85l-52 -422q-35 -294 -286 -294z" />
    <glyph glyph-name="uni01D6" unicode="&#x1d6;" horiz-adv-x="534" 
d="M222 758l9 62h262l-9 -62h-262zM253 579q-24 0 -39.5 16t-15.5 39q0 25 16 41t41 16q23 0 38.5 -15.5t15.5 -39.5t-16 -40.5t-40 -16.5zM420 579q-24 0 -39.5 16t-15.5 39q0 25 16.5 41t41.5 16q23 0 38.5 -15.5t15.5 -39.5t-16.5 -40.5t-40.5 -16.5zM216 -6
q-156 0 -129 196l41 297h79l-39 -290q-9 -72 9.5 -101t61.5 -29q53 0 108.5 61t66.5 146l26 213h80l-60 -487h-79l13 110h-2q-30 -53 -76 -84.5t-100 -31.5z" />
    <glyph glyph-name="uni01D7" unicode="&#x1d7;" horiz-adv-x="666" 
d="M395 908l115 128l89 1l-141 -129h-63zM338 788q-23 0 -37.5 14t-14.5 36q0 23 15.5 38t38.5 15q22 0 37 -14.5t15 -36.5t-15.5 -37t-38.5 -15zM505 788q-23 0 -37.5 14t-14.5 36q0 23 15.5 38t38.5 15q22 0 37 -14.5t15 -36.5t-15.5 -37t-38.5 -15zM321 -6
q-125 0 -178.5 81t-35.5 221l51 414h85l-51 -413q-13 -101 19 -161.5t114 -60.5q172 0 197 214l52 421h85l-52 -422q-35 -294 -286 -294z" />
    <glyph glyph-name="uni01D8" unicode="&#x1d8;" horiz-adv-x="534" 
d="M313 712l118 142h89l-144 -142h-63zM253 579q-24 0 -39.5 16t-15.5 39q0 25 16 41t41 16q23 0 38.5 -15.5t15.5 -39.5t-16 -40.5t-40 -16.5zM420 579q-24 0 -39.5 16t-15.5 39q0 25 16.5 41t41.5 16q23 0 38.5 -15.5t15.5 -39.5t-16.5 -40.5t-40.5 -16.5zM216 -6
q-156 0 -129 196l41 297h79l-39 -290q-9 -72 9.5 -101t61.5 -29q53 0 108.5 61t66.5 146l26 213h80l-60 -487h-79l13 110h-2q-30 -53 -76 -84.5t-100 -31.5z" />
    <glyph glyph-name="uni01D9" unicode="&#x1d9;" horiz-adv-x="666" 
d="M387 919l-87 111h77l54 -67h3l76 67h78l-123 -111h-78zM338 788q-23 0 -37.5 14t-14.5 36q0 23 15.5 38t38.5 15q22 0 37 -14.5t15 -36.5t-15.5 -37t-38.5 -15zM505 788q-23 0 -37.5 14t-14.5 36q0 23 15.5 38t38.5 15q22 0 37 -14.5t15 -36.5t-15.5 -37t-38.5 -15z
M321 -6q-125 0 -178.5 81t-35.5 221l51 414h85l-51 -413q-13 -101 19 -161.5t114 -60.5q172 0 197 214l52 421h85l-52 -422q-35 -294 -286 -294z" />
    <glyph glyph-name="uni01DA" unicode="&#x1da;" horiz-adv-x="534" 
d="M311 716l-84 139h76l52 -86h3l75 86h77l-121 -139h-78zM253 579q-24 0 -39.5 16t-15.5 39q0 25 16 41t41 16q23 0 38.5 -15.5t15.5 -39.5t-16 -40.5t-40 -16.5zM420 579q-24 0 -39.5 16t-15.5 39q0 25 16.5 41t41.5 16q23 0 38.5 -15.5t15.5 -39.5t-16.5 -40.5
t-40.5 -16.5zM216 -6q-156 0 -129 196l41 297h79l-39 -290q-9 -72 9.5 -101t61.5 -29q53 0 108.5 61t66.5 146l26 213h80l-60 -487h-79l13 110h-2q-30 -53 -76 -84.5t-100 -31.5z" />
    <glyph glyph-name="uni01DB" unicode="&#x1db;" horiz-adv-x="666" 
d="M408 908l-97 127h83l72 -127h-58zM338 788q-23 0 -37.5 14t-14.5 36q0 23 15.5 38t38.5 15q22 0 37 -14.5t15 -36.5t-15.5 -37t-38.5 -15zM505 788q-23 0 -37.5 14t-14.5 36q0 23 15.5 38t38.5 15q22 0 37 -14.5t15 -36.5t-15.5 -37t-38.5 -15zM321 -6q-125 0 -178.5 81
t-35.5 221l51 414h85l-51 -413q-13 -101 19 -161.5t114 -60.5q172 0 197 214l52 421h85l-52 -422q-35 -294 -286 -294z" />
    <glyph glyph-name="uni01DC" unicode="&#x1dc;" horiz-adv-x="534" 
d="M312 712l-107 142h89l81 -142h-63zM253 579q-24 0 -39.5 16t-15.5 39q0 25 16 41t41 16q23 0 38.5 -15.5t15.5 -39.5t-16 -40.5t-40 -16.5zM420 579q-24 0 -39.5 16t-15.5 39q0 25 16.5 41t41.5 16q23 0 38.5 -15.5t15.5 -39.5t-16.5 -40.5t-40.5 -16.5zM216 -6
q-156 0 -129 196l41 297h79l-39 -290q-9 -72 9.5 -101t61.5 -29q53 0 108.5 61t66.5 146l26 213h80l-60 -487h-79l13 110h-2q-30 -53 -76 -84.5t-100 -31.5z" />
    <glyph glyph-name="Gcaron" unicode="&#x1e6;" horiz-adv-x="706" 
d="M407 782l-87 124h77l54 -75h3l76 75h78l-123 -124h-78zM354 -6q-129 0 -206.5 78t-77.5 219q0 175 102.5 300.5t258.5 125.5q152 0 237 -118l-70 -53q-64 89 -170 89q-116 0 -192.5 -100.5t-76.5 -241.5q0 -103 52 -162t147 -59t173 60l20 156h-180l11 77h264l-33 -282
q-50 -42 -119 -65.5t-140 -23.5z" />
    <glyph glyph-name="gcaron" unicode="&#x1e7;" horiz-adv-x="554" 
d="M284 555l-84 139h76l52 -86h3l75 86h77l-121 -139h-78zM190 -204q-88 0 -161 44l26 70q67 -41 139 -41q80 0 126 42t61 158l8 61l-2 1q-35 -57 -80.5 -89.5t-96.5 -32.5q-81 0 -124 55t-43 141q0 113 68.5 200.5t175.5 87.5q89 0 139 -52l1 1l6 45h79l-52 -424
q-10 -79 -34.5 -133t-61.5 -82.5t-78.5 -40t-95.5 -11.5zM224 81q63 0 117.5 65.5t67.5 157.5l8 62q-22 26 -57.5 39.5t-67.5 13.5q-75 0 -122 -66.5t-47 -148.5q0 -56 26.5 -89.5t74.5 -33.5z" />
    <glyph glyph-name="uni01EA" unicode="&#x1ea;" horiz-adv-x="760" 
d="M404 -2q-37 -16 -60 -42t-25 -52q0 -35 35 -35q28 0 45 10l2 -53q-23 -12 -65 -12q-41 0 -62.5 19t-20.5 54q1 59 62 107v2q-113 11 -179.5 88.5t-66.5 206.5q0 112 45 209t130 157t192 60q128 0 205 -78.5t77 -218.5q0 -162 -85 -282t-229 -140zM158 293
q0 -106 53 -162.5t145 -56.5q79 0 143 48.5t97.5 126.5t33.5 168q0 108 -53.5 164t-149.5 56q-116 0 -192.5 -103.5t-76.5 -240.5z" />
    <glyph glyph-name="uni01EB" unicode="&#x1eb;" horiz-adv-x="544" 
d="M279 -4q-36 -16 -57.5 -41t-23.5 -51q0 -35 35 -35q28 0 45 10l2 -53q-23 -12 -65 -12q-41 0 -62.5 19t-20.5 54q1 60 65 110v1q-72 13 -113 65t-41 135q0 122 70.5 208.5t185.5 86.5q92 0 147 -52.5t55 -147.5q0 -120 -59 -202.5t-163 -94.5zM123 207q0 -64 33 -102
t90 -38q77 0 125.5 62t48.5 157q0 69 -36 101t-89 32q-75 0 -123.5 -62.5t-48.5 -149.5z" />
    <glyph glyph-name="Aringacute" unicode="&#x1fa;" horiz-adv-x="626" 
d="M389 770q-39 0 -65.5 26.5t-26.5 66.5t27.5 67t68.5 27q42 0 70 -31l67 49h93l-138 -101v-9q0 -41 -27.5 -68t-68.5 -27zM392 906q-19 0 -31.5 -12.5t-12.5 -30.5t12 -29.5t30 -11.5q19 0 31.5 12t12.5 31q0 17 -12 29t-30 12zM325 710h90l155 -710h-89l-36 174h-281
l-78 -174h-89zM197 249h233l-73 354h-2z" />
    <glyph glyph-name="aringacute" unicode="&#x1fb;" horiz-adv-x="551" 
d="M341 546q-39 0 -65.5 26.5t-26.5 66.5t27.5 67t68.5 27q42 0 69 -30l64 45h94l-136 -96q1 -3 1 -11q0 -41 -27.5 -68t-68.5 -27zM344 682q-19 0 -31.5 -12.5t-12.5 -30.5t12 -29.5t30 -11.5q19 0 31.5 12t12.5 31q0 17 -12 29t-30 12zM426 442l6 44h79l-60 -486h-79
l14 111l-3 1q-33 -56 -78.5 -87t-95.5 -31q-81 0 -124 55t-43 141q0 123 68.5 213t175.5 90q89 0 138 -52zM411 316l6 50q-22 26 -58 39.5t-68 13.5q-75 0 -122 -69.5t-47 -161.5q0 -56 26.5 -89.5t75.5 -33.5q65 0 119.5 72t67.5 179z" />
    <glyph glyph-name="AEacute" unicode="&#x1fc;" horiz-adv-x="858" 
d="M442 782l119 129h92l-130 -129h-81zM-23 0l424 710h444l-10 -77h-313l-30 -241h261l-10 -77h-260l-29 -238h331l-9 -77h-415l22 174h-209l-104 -174h-93zM216 249h176l45 370h-2z" />
    <glyph glyph-name="aeacute" unicode="&#x1fd;" horiz-adv-x="693" 
d="M584 699l-128 -142h-83l121 141zM488 68q65 0 111 60l63 -45q-71 -88 -177 -88q-67 0 -111.5 32t-60.5 91q-23 -58 -62.5 -91.5t-87.5 -33.5q-63 0 -100.5 51t-35.5 130q2 126 73.5 219.5t185.5 93.5q75 0 123 -36q58 42 136 42q60 0 98.5 -33t38.5 -86
q0 -82 -86.5 -131.5t-227.5 -60.5q4 -55 36 -84.5t84 -29.5zM537 420q-60 0 -107 -49t-59 -127q104 11 167 44t63 83q0 24 -18.5 36.5t-45.5 12.5zM173 65q71 0 119 164q16 104 66 172q-26 13 -65 13q-85 0 -135 -76t-50 -172q0 -47 18.5 -74t46.5 -27z" />
    <glyph glyph-name="Oslashacute" unicode="&#x1fe;" horiz-adv-x="764" 
d="M621 911l-130 -129h-81l119 129h92zM745 687l-75 -81q50 -75 50 -186q0 -178 -101 -302t-267 -124q-115 0 -190 64l-74 -80l-44 44l77 83q-50 75 -50 186q0 112 45 209t130 157t192 60q117 0 191 -65l73 78zM160 293q0 -69 24 -120l387 416q-52 48 -142 48
q-116 0 -192.5 -103.5t-76.5 -240.5zM632 417q0 71 -25 121l-386 -416q51 -48 137 -48q79 0 143 48.5t97.5 126.5t33.5 168z" />
    <glyph glyph-name="oslashacute" unicode="&#x1ff;" horiz-adv-x="546" 
d="M487 699l-128 -142h-83l121 141zM525 466l-54 -56q30 -49 30 -117q0 -130 -69 -214.5t-188 -84.5q-82 0 -133 42l-54 -56l-38 37l56 58q-32 49 -32 123q0 122 70.5 208.5t185.5 86.5q84 0 137 -44l52 54zM123 207q0 -40 13 -69l244 253q-32 28 -85 28q-75 0 -123.5 -62.5
t-48.5 -149.5zM420 286q0 33 -10 61l-243 -253q32 -27 79 -27q77 0 125.5 62t48.5 157z" />
    <glyph glyph-name="Scommaaccent" unicode="&#x218;" horiz-adv-x="551" 
d="M260 -6q-71 0 -133.5 31t-98.5 86l64 58q27 -47 71 -71.5t93 -24.5q65 0 106 34.5t41 88.5q0 13 -3 23.5t-12 21t-14.5 17t-22 17.5t-24 15.5t-30.5 17t-31 17.5q-5 3 -14 8q-39 22 -59.5 35.5t-48 37.5t-40 52.5t-12.5 63.5q0 87 63 141t159 54q122 0 200 -95l-63 -55
q-53 72 -143 72q-56 0 -92 -30.5t-35 -76.5q0 -21 8 -37.5t28.5 -33t35.5 -26.5t50 -30q7 -4 39 -21.5t41 -23t33 -21.5t32.5 -27t21.5 -28t17.5 -36t4.5 -41q0 -100 -65 -156.5t-167 -56.5zM158 -212l-12 49q34 8 49 28t15 59q0 4 -0.5 11t-0.5 11h71v-21q0 -60 -30.5 -96
t-91.5 -41z" />
    <glyph glyph-name="scommaaccent" unicode="&#x219;" horiz-adv-x="415" 
d="M185 -6q-53 0 -98.5 20.5t-73.5 57.5l53 53q50 -61 119 -61q43 0 70.5 18.5t27.5 50.5q0 18 -14 33t-27 21.5t-49 22.5q-9 4 -13 6q-56 24 -87.5 56t-31.5 81q0 62 47 101t114 39q99 0 157 -66l-53 -54q-42 50 -106 50q-34 0 -56 -18t-22 -48q0 -24 22 -42t65 -38
q75 -35 99 -57q35 -33 36 -78q0 -71 -49.5 -109.5t-129.5 -38.5zM80 -212l-12 49q34 8 49 28t15 59q0 4 -0.5 11t-0.5 11h71v-21q0 -60 -30.5 -96t-91.5 -41z" />
    <glyph glyph-name="uni021A" unicode="&#x21a;" horiz-adv-x="529" 
d="M192 0l77 633h-190l9 77h467l-9 -77h-192l-77 -633h-85zM140 -212l-12 49q34 8 49 28t15 59q0 4 -0.5 11t-0.5 11h71v-21q0 -60 -30.5 -96t-91.5 -41z" />
    <glyph glyph-name="uni021B" unicode="&#x21b;" horiz-adv-x="335" 
d="M163 -6q-57 0 -80.5 37t-15.5 102l35 285h-54l7 69h55l21 160l80 15l-21 -175h137l-7 -69h-138l-34 -272q-9 -76 41 -76q37 0 80 29l11 -71q-53 -34 -117 -34zM61 -212l-12 49q34 8 49 28t15 59q0 4 -0.5 11t-0.5 11h71v-21q0 -60 -30.5 -96t-91.5 -41z" />
    <glyph glyph-name="uni0232" unicode="&#x232;" horiz-adv-x="555" 
d="M214 809l8 67h262l-8 -67h-262zM204 0l39 317l-169 393h94l125 -310h3l202 310h99l-268 -393l-40 -317h-85z" />
    <glyph glyph-name="uni0233" unicode="&#x233;" horiz-adv-x="533" 
d="M447 665l-8 -69h-262l8 69h262zM414 487h78l-51 -424q-10 -79 -34.5 -133.5t-61 -82.5t-75 -39.5t-86.5 -11.5q-86 0 -161 44l26 70q69 -41 136 -41q73 0 118.5 42.5t59.5 157.5l5 40l-2 1q-69 -116 -179 -116q-77 0 -110 47t-19 149l40 297h79l-38 -290q-9 -72 9 -101
t62 -29q56 0 112.5 64.5t66.5 151.5z" />
    <glyph glyph-name="uni0237" unicode="&#x237;" horiz-adv-x="213" 
d="M-29 -204q-43 0 -77 21l20 64q20 -15 46 -15q28 0 44.5 21.5t22.5 76.5l64 523h80l-66 -533q-19 -158 -134 -158z" />
    <glyph glyph-name="uni0251" unicode="&#x251;" horiz-adv-x="551" 
d="M209 -6q-81 0 -124 55t-43 141q0 123 68.5 213t175.5 90q89 0 138 -52l2 1l6 44h79l-60 -486h-79l14 111l-3 1q-33 -56 -78.5 -87t-95.5 -31zM224 65q65 0 119.5 72t67.5 179l6 50q-22 26 -58 39.5t-68 13.5q-75 0 -122 -69.5t-47 -161.5q0 -56 26.5 -89.5t75.5 -33.5z
" />
    <glyph glyph-name="uni0259" unicode="&#x259;" horiz-adv-x="460" 
d="M232 493q86 0 139.5 -56.5t53.5 -152.5q0 -127 -68.5 -208.5t-189.5 -81.5q-66 0 -106.5 35.5t-40.5 92.5q0 49 28 85.5t77.5 58t103.5 33.5t118 16q-6 48 -37 76t-80 28q-65 0 -119 -45l-45 57q72 62 166 62zM173 67q73 0 117.5 50t54.5 131q-109 -9 -177 -39t-68 -84
q0 -27 20 -42.5t53 -15.5z" />
    <glyph glyph-name="uni0261" unicode="&#x261;" horiz-adv-x="554" 
d="M190 -204q-88 0 -161 44l26 70q67 -41 139 -41q80 0 126 42t61 158l8 61l-2 1q-35 -57 -80.5 -89.5t-96.5 -32.5q-81 0 -124 55t-43 141q0 113 68.5 200.5t175.5 87.5q89 0 139 -52l1 1l6 45h79l-52 -424q-10 -79 -34.5 -133t-61.5 -82.5t-78.5 -40t-95.5 -11.5zM224 81
q63 0 117.5 65.5t67.5 157.5l8 62q-22 26 -57.5 39.5t-67.5 13.5q-75 0 -122 -66.5t-47 -148.5q0 -56 26.5 -89.5t74.5 -33.5z" />
    <glyph glyph-name="uni0272" unicode="&#x272;" horiz-adv-x="548" 
d="M367 493q74 0 103.5 -49t16.5 -151l-39 -293h-79l38 287q10 70 -6.5 101.5t-58.5 31.5q-56 0 -114 -61t-75 -148l-26 -211q-14 -109 -52 -156.5t-113 -47.5q-27 0 -50 8l13 63q15 -4 30 -4q42 0 62 29t30 108l60 487h80l-14 -110l2 -1q38 56 88 86.5t104 30.5z" />
    <glyph glyph-name="uni02BB" unicode="&#x2bb;" horiz-adv-x="191" 
d="M86 422l39 241h61l-20 -241h-80z" />
    <glyph glyph-name="uni02BC" unicode="&#x2bc;" horiz-adv-x="165" 
d="M61 516l48 193h83l-70 -193h-61z" />
    <glyph glyph-name="uni02BE" unicode="&#x2be;" horiz-adv-x="224" 
d="M105 742q59 -1 94.5 -36.5t35.5 -90.5q0 -68 -45 -114t-114 -47l-4 59q42 1 68.5 29t26.5 70q0 31 -18.5 50t-54.5 20z" />
    <glyph glyph-name="uni02BF" unicode="&#x2bf;" horiz-adv-x="231" 
d="M214 454q-59 1 -94.5 36.5t-35.5 90.5q0 68 45 114t114 47l4 -59q-42 -1 -68.5 -29t-26.5 -70q0 -31 18.5 -50t54.5 -20z" />
    <glyph glyph-name="circumflex" unicode="&#x2c6;" horiz-adv-x="448" 
d="M116 540l121 143h76l90 -143h-79l-51 90h-2l-73 -90h-82z" />
    <glyph glyph-name="caron" unicode="&#x2c7;" horiz-adv-x="449" 
d="M219 539l-84 139h76l52 -86h3l75 86h77l-121 -139h-78z" />
    <glyph glyph-name="uni02C8" unicode="&#x2c8;" horiz-adv-x="175" 
d="M72 380l29 262h65l-30 -261z" />
    <glyph glyph-name="uni02C9" unicode="&#x2c9;" horiz-adv-x="349" 
d="M87 596l8 69h262l-8 -69h-262z" />
    <glyph glyph-name="uni02CA" unicode="&#x2ca;" horiz-adv-x="294" 
d="M108 557l121 141l90 1l-128 -142h-83z" />
    <glyph glyph-name="uni02CB" unicode="&#x2cb;" horiz-adv-x="294" 
d="M188 557l-94 142l90 -1l87 -141h-83z" />
    <glyph glyph-name="uni02CC" unicode="&#x2cc;" horiz-adv-x="175" 
d="M8 -172l29 262h65l-30 -261z" />
    <glyph glyph-name="breve" unicode="&#x2d8;" horiz-adv-x="425" 
d="M254 537q-62 0 -92 36.5t-25 104.5l63 -1q-7 -78 56 -78q33 0 56 22.5t30 56.5l63 -1q-12 -65 -52.5 -102.5t-98.5 -37.5z" />
    <glyph glyph-name="dotaccent" unicode="&#x2d9;" horiz-adv-x="461" 
d="M276 561q-24 0 -40 16t-16 40q0 25 16.5 41.5t41.5 16.5q24 0 40 -16t16 -40q0 -25 -16.5 -41.5t-41.5 -16.5z" />
    <glyph glyph-name="ring" unicode="&#x2da;" horiz-adv-x="432" 
d="M260 523q-39 0 -65.5 26.5t-26.5 66.5t27.5 67t68.5 27q39 0 65.5 -26.5t26.5 -65.5q0 -41 -27.5 -68t-68.5 -27zM261 575q19 0 31.5 12t12.5 31q0 17 -12 29t-30 12q-19 0 -31.5 -12.5t-12.5 -30.5t12 -29.5t30 -11.5z" />
    <glyph glyph-name="ogonek" unicode="&#x2db;" horiz-adv-x="435" 
d="M200 -186q-41 0 -62.5 19t-20.5 54q1 36 26.5 70t63.5 57l66 -14q-39 -16 -63.5 -42.5t-26.5 -53.5q0 -35 35 -35q28 0 45 10l2 -53q-23 -12 -65 -12z" />
    <glyph glyph-name="tilde" unicode="&#x2dc;" horiz-adv-x="461" 
d="M343 547q-8 0 -16.5 2t-14.5 4t-13.5 6.5t-11 7.5t-11 8.5t-9.5 6.5q-29 24 -48 24q-38 0 -62 -57l-51 26q41 96 106 96q8 0 16 -1.5t13.5 -3t12 -5.5t9.5 -6t10 -7.5t9 -6.5q3 -2 10.5 -7.5t11 -8t9.5 -6t11 -5t10 -1.5q37 0 61 56l51 -20q-39 -102 -103 -102z" />
    <glyph glyph-name="hungarumlaut" unicode="&#x2dd;" horiz-adv-x="475" 
d="M101 541l122 141l86 1l-129 -142h-79zM261 541l121 141l86 1l-129 -142h-78z" />
    <glyph glyph-name="gravecomb" unicode="&#x300;" horiz-adv-x="0" 
d="M-460 541l-94 142l90 -1l87 -141h-83z" />
    <glyph glyph-name="acutecomb" unicode="&#x301;" horiz-adv-x="0" 
d="M-550 541l121 141l90 1l-128 -142h-83z" />
    <glyph glyph-name="uni0302" unicode="&#x302;" horiz-adv-x="0" 
d="M-608 540l121 143h76l90 -143h-79l-51 90h-2l-73 -90h-82z" />
    <glyph glyph-name="tildecomb" unicode="&#x303;" horiz-adv-x="0" 
d="M-387 547q-8 0 -16.5 2t-14.5 4t-13.5 6.5t-11 7.5t-11 8.5t-9.5 6.5q-29 24 -48 24q-38 0 -62 -57l-51 26q41 96 106 96q8 0 16 -1.5t13.5 -3t12 -5.5t9.5 -6t10 -7.5t9 -6.5q3 -2 10.5 -7.5t11 -8t9.5 -6t11 -5t10 -1.5q37 0 61 56l51 -20q-39 -102 -103 -102z" />
    <glyph glyph-name="uni0304" unicode="&#x304;" horiz-adv-x="0" 
d="M-590 580l8 69h262l-8 -69h-262z" />
    <glyph glyph-name="uni0306" unicode="&#x306;" horiz-adv-x="0" 
d="M-459 537q-62 0 -92 36.5t-25 104.5l63 -1q-7 -78 56 -78q33 0 56 22.5t30 56.5l63 -1q-12 -65 -52.5 -102.5t-98.5 -37.5z" />
    <glyph glyph-name="uni0307" unicode="&#x307;" horiz-adv-x="0" 
d="M-453 561q-24 0 -40 16t-16 40q0 25 16.5 41.5t41.5 16.5q24 0 40 -16t16 -40q0 -25 -16.5 -41.5t-41.5 -16.5z" />
    <glyph glyph-name="uni0308" unicode="&#x308;" horiz-adv-x="0" 
d="M-541 561q-24 0 -40 16t-16 40q0 25 17 41.5t42 16.5q23 0 39 -16t16 -40q0 -25 -16.5 -41.5t-41.5 -16.5zM-370 561q-25 0 -41 16t-16 40q0 25 17 41.5t42 16.5q23 0 39 -16t16 -40q0 -25 -16.5 -41.5t-40.5 -16.5z" />
    <glyph glyph-name="hookabovecomb" unicode="&#x309;" horiz-adv-x="0" 
d="M-443 537l-58 1q85 61 85 100q0 24 -33 24q-40 0 -84 -33l-12 44q52 44 120 44q32 0 52 -15.5t20 -45.5q0 -36 -28.5 -68t-61.5 -51z" />
    <glyph glyph-name="uni030A" unicode="&#x30a;" horiz-adv-x="0" 
d="M-455 530q-39 0 -65.5 26.5t-26.5 66.5t27.5 67t68.5 27q39 0 65.5 -26.5t26.5 -65.5q0 -41 -27.5 -68t-68.5 -27zM-454 582q19 0 31.5 12t12.5 31q0 17 -12 29t-30 12q-19 0 -31.5 -12.5t-12.5 -30.5t12 -29.5t30 -11.5z" />
    <glyph glyph-name="uni030B" unicode="&#x30b;" horiz-adv-x="0" 
d="M-582 541l122 141l86 1l-129 -142h-79zM-422 541l121 141l86 1l-129 -142h-78z" />
    <glyph glyph-name="uni030C" unicode="&#x30c;" horiz-adv-x="0" 
d="M-505 539l-84 139h76l52 -86h3l75 86h77l-121 -139h-78z" />
    <glyph glyph-name="uni0312" unicode="&#x312;" horiz-adv-x="0" 
d="M-490 540q-1 4 -1 22q0 60 31 95.5t91 41.5l12 -49q-34 -8 -48.5 -28t-14.5 -60q0 -13 1 -22h-71z" />
    <glyph glyph-name="uni0313" unicode="&#x313;" horiz-adv-x="0" 
d="M-494 692q1 -4 1 -22q0 -60 -31 -95.5t-91 -41.5l-12 49q34 8 48.5 28t14.5 60q0 13 -1 22h71z" />
    <glyph glyph-name="uni031B" unicode="&#x31b;" horiz-adv-x="0" 
d="M-450 457q-20 0 -45 7l13 50q14 -5 29 -5q30 0 43.5 28t20.5 90l11 83h76l-12 -95q-21 -158 -136 -158z" />
    <glyph glyph-name="dotbelowcomb" unicode="&#x323;" horiz-adv-x="0" 
d="M-549 -95q24 0 40 -16t16 -40q0 -25 -16.5 -41.5t-41.5 -16.5q-24 0 -40 16t-16 40q0 25 16.5 41.5t41.5 16.5z" />
    <glyph glyph-name="uni0324" unicode="&#x324;" horiz-adv-x="0" 
d="M-632 -95q25 0 41 -16t16 -40q0 -25 -17 -41.5t-42 -16.5q-23 0 -39 16t-16 40q0 25 16.5 41.5t40.5 16.5zM-461 -95q24 0 40 -16t16 -40q0 -25 -17 -41.5t-42 -16.5q-23 0 -39 16t-16 40q0 25 16.5 41.5t41.5 16.5z" />
    <glyph glyph-name="uni0326" unicode="&#x326;" horiz-adv-x="0" 
d="M-630 -212l-12 49q34 8 49 28t15 59q0 4 -0.5 11t-0.5 11h71v-21q0 -60 -30.5 -96t-91.5 -41z" />
    <glyph glyph-name="uni0327" unicode="&#x327;" horiz-adv-x="0" 
d="M-585 -188q-21 0 -44 6l3 43q15 -6 35 -6q28 0 46 12.5t18 34.5q0 31 -69 32l2 30l24 42h50l-24 -39l1 -1q72 -5 72 -64q0 -42 -31.5 -66t-82.5 -24z" />
    <glyph glyph-name="uni0328" unicode="&#x328;" horiz-adv-x="0" 
d="M-604 -186q-41 0 -62.5 19t-20.5 54q1 36 26.5 70t63.5 57l66 -14q-39 -16 -63.5 -42.5t-26.5 -53.5q0 -35 35 -35q28 0 45 10l2 -53q-23 -12 -65 -12z" />
    <glyph glyph-name="uni032E" unicode="&#x32e;" horiz-adv-x="0" 
d="M-549 -219q-62 0 -92 36.5t-25 104.5l63 -1q-7 -78 56 -78q33 0 56 22.5t30 56.5l63 -1q-12 -65 -52.5 -102.5t-98.5 -37.5z" />
    <glyph glyph-name="uni0331" unicode="&#x331;" horiz-adv-x="0" 
d="M-684 -194l8 69h262l-8 -69h-262z" />
    <glyph glyph-name="uni0335" unicode="&#x335;" horiz-adv-x="0" 
d="M-619 245l7 56h244l-8 -56h-243z" />
    <glyph glyph-name="uni0400" unicode="&#x400;" horiz-adv-x="559" 
d="M366 783l-98 129h89l90 -129h-81zM63 0l87 710h396l-10 -77h-311l-29 -241h255l-10 -77h-255l-29 -238h330l-9 -77h-415z" />
    <glyph glyph-name="uni0401" unicode="&#x401;" horiz-adv-x="559" 
d="M287 812q-24 0 -40 16t-16 40q0 25 17 41.5t42 16.5q23 0 39 -16t16 -40q0 -25 -16.5 -41.5t-41.5 -16.5zM458 812q-25 0 -41 16t-16 40q0 25 17 41.5t42 16.5q23 0 39 -16t16 -40q0 -25 -16.5 -41.5t-40.5 -16.5zM63 0l87 710h396l-10 -77h-311l-29 -241h255l-10 -77
h-255l-29 -238h330l-9 -77h-415z" />
    <glyph glyph-name="uni0402" unicode="&#x402;" horiz-adv-x="718" 
d="M483 444q89 0 145.5 -49.5t56.5 -145.5q0 -123 -74 -188.5t-191 -65.5q-32 0 -57 4l12 72q17 -3 37 -3q84 0 134 47t50 129q0 61 -37 91t-102 30q-80 0 -151 -41l-39 -324h-85l77 633h-190l9 77h467l-9 -77h-192l-29 -236q81 47 168 47z" />
    <glyph glyph-name="uni0403" unicode="&#x403;" horiz-adv-x="519" 
d="M272 782l119 129h92l-130 -129h-81zM63 0l87 710h397l-10 -77h-311l-78 -633h-85z" />
    <glyph glyph-name="uni0404" unicode="&#x404;" horiz-adv-x="664" 
d="M352 74q54 0 105.5 23t88.5 67l64 -56q-49 -53 -117 -83.5t-145 -30.5q-126 0 -202 76.5t-76 221.5q0 114 44 210.5t127 155.5t188 59q155 0 237 -116l-68 -57q-61 92 -173 92q-95 0 -163 -67.5t-92 -172.5h330l-9 -76h-333q-1 -10 -1 -28q0 -102 51.5 -160t143.5 -58z
" />
    <glyph glyph-name="uni0405" unicode="&#x405;" horiz-adv-x="551" 
d="M260 -6q-71 0 -133.5 31t-98.5 86l64 58q27 -47 71 -71.5t93 -24.5q65 0 106 34.5t41 88.5q0 13 -3 23.5t-12 21t-14.5 17t-22 17.5t-24 15.5t-30.5 17t-31 17.5q-5 3 -14 8q-39 22 -59.5 35.5t-48 37.5t-40 52.5t-12.5 63.5q0 87 63 141t159 54q122 0 200 -95l-63 -55
q-53 72 -143 72q-56 0 -92 -30.5t-35 -76.5q0 -21 8 -37.5t28.5 -33t35.5 -26.5t50 -30q7 -4 39 -21.5t41 -23t33 -21.5t32.5 -27t21.5 -28t17.5 -36t4.5 -41q0 -100 -65 -156.5t-167 -56.5z" />
    <glyph glyph-name="uni0406" unicode="&#x406;" horiz-adv-x="282" 
d="M68 0l87 710h86l-87 -710h-86z" />
    <glyph glyph-name="uni0407" unicode="&#x407;" horiz-adv-x="282" 
d="M131 811q-24 0 -40 16t-16 40q0 25 17 41.5t42 16.5q23 0 39 -16t16 -40q0 -25 -16.5 -41.5t-41.5 -16.5zM302 811q-25 0 -41 16t-16 40q0 25 17 41.5t42 16.5q23 0 39 -16t16 -40q0 -25 -16.5 -41.5t-40.5 -16.5zM68 0l87 710h86l-87 -710h-86z" />
    <glyph glyph-name="uni0408" unicode="&#x408;" horiz-adv-x="468" 
d="M171 -6q-46 0 -89 24t-70 68l59 61q42 -72 101 -72q108 0 130 169l57 466h86l-58 -470q-15 -123 -67.5 -184.5t-148.5 -61.5z" />
    <glyph glyph-name="uni0409" unicode="&#x409;" horiz-adv-x="987" 
d="M748 431q64 0 107.5 -17t63.5 -47t28 -60.5t7 -68.5q-3 -116 -73.5 -177t-196.5 -61h-211l77 633h-217q-27 -170 -63 -333q-38 -165 -89.5 -235t-136.5 -70q-33 0 -56 9l13 71q12 -3 30 -3q55 0 92 62t69 197q40 173 69 379h385l-34 -279h136zM866 235q1 63 -30.5 90.5
t-99.5 27.5h-134l-34 -276h123q82 0 128 40.5t47 117.5z" />
    <glyph glyph-name="uni040A" unicode="&#x40a;" horiz-adv-x="984" 
d="M745 413q63 0 107 -16.5t64 -45t28 -56.5t7 -61q-4 -113 -74 -173.5t-196 -60.5h-216l40 326h-317l-40 -326h-85l87 710h85l-38 -307h318l38 307h85l-37 -297h144zM862 230q1 55 -30.5 80.5t-99.5 25.5h-140l-32 -259h128q81 0 127 39.5t47 113.5z" />
    <glyph glyph-name="uni040B" unicode="&#x40b;" horiz-adv-x="721" 
d="M514 445q96 0 130 -54t19 -170l-28 -221h-85l28 224q10 79 -10.5 111t-81.5 32q-84 0 -170 -47l-39 -320h-85l77 633h-190l9 77h467l-9 -77h-192l-29 -240q41 21 95 36.5t94 15.5z" />
    <glyph glyph-name="uni040C" unicode="&#x40c;" horiz-adv-x="604" 
d="M509 911l-130 -129h-81l119 129h92zM631 710l-277 -319l195 -391h-98l-160 328l-119 -136l-24 -192h-85l87 710h85l-48 -387l3 -1l334 388h107z" />
    <glyph glyph-name="uni040D" unicode="&#x40d;" horiz-adv-x="696" 
d="M418 782l-98 129h89l90 -129h-81zM63 0l87 710h85l-69 -560h2l413 560h78l-86 -710h-85l67 549h-2l-412 -549h-78z" />
    <glyph glyph-name="uni040E" unicode="&#x40e;" horiz-adv-x="591" 
d="M361 778q-57 0 -91 31.5t-35 98.5l68 7q-1 -36 17 -58t50 -22q33 0 60.5 23t43.5 59l59 -16q-26 -63 -73 -93t-99 -30zM534 710h95l-279 -531q-53 -101 -79 -131q-47 -55 -114 -55q-28 0 -58 10.5t-45 26.5l27 71q31 -30 72 -30q34 0 59 29.5t61 97.5l-196 512h94
l148 -424h3z" />
    <glyph glyph-name="uni040F" unicode="&#x40f;" horiz-adv-x="659" 
d="M624 710l-88 -710h-199l-20 -140h-72l14 140h-196l88 710h85l-78 -633h303l78 633h85z" />
    <glyph glyph-name="uni0410" unicode="&#x410;" horiz-adv-x="626" 
d="M-3 0l328 710h90l155 -710h-89l-36 174h-281l-78 -174h-89zM197 249h233l-73 354h-2z" />
    <glyph glyph-name="uni0411" unicode="&#x411;" horiz-adv-x="588" 
d="M63 0l87 710h391l-9 -77h-306l-25 -207h129q51 0 89.5 -11.5t61 -29t35.5 -43t17.5 -50.5t3.5 -54q-3 -116 -73 -177t-193 -61h-208zM158 77h116q81 0 127 40.5t47 117.5q1 62 -30.5 88.5t-100.5 26.5h-126z" />
    <glyph glyph-name="uni0412" unicode="&#x412;" horiz-adv-x="600" 
d="M63 0l87 710h220q181 0 181 -146q0 -57 -32.5 -109.5t-89.5 -76.5v-1q112 -31 112 -146q0 -111 -69.5 -171t-195.5 -60h-213zM198 405h126q62 0 100.5 39t38.5 105q0 44 -27.5 64t-86.5 20h-123zM158 77h121q81 0 127.5 40t46.5 116q0 97 -130 97h-134z" />
    <glyph glyph-name="uni0413" unicode="&#x413;" horiz-adv-x="519" 
d="M63 0l87 710h397l-10 -77h-311l-78 -633h-85z" />
    <glyph glyph-name="uni0414" unicode="&#x414;" horiz-adv-x="716" 
d="M672 77l-30 -217h-71l12 140h-515l-25 -140h-71l26 217h81q78 122 123 279q40 142 67 354h390l-78 -633h91zM281 327q-46 -157 -107 -250h322l68 556h-222q-25 -179 -61 -306z" />
    <glyph glyph-name="uni0415" unicode="&#x415;" horiz-adv-x="559" 
d="M63 0l87 710h396l-10 -77h-311l-29 -241h255l-10 -77h-255l-29 -238h330l-9 -77h-415z" />
    <glyph glyph-name="uni0416" unicode="&#x416;" horiz-adv-x="851" 
d="M884 710l-263 -337l185 -373h-97l-155 319l-95 -116l-25 -203h-82l26 207l-63 111l-232 -318h-98l275 376l-184 334h98l215 -395l2 1l48 394h82l-49 -394l3 -1l306 395h103z" />
    <glyph glyph-name="uni0417" unicode="&#x417;" horiz-adv-x="568" 
d="M265 -6q-79 0 -142.5 31t-98.5 84l63 57q28 -45 75 -69.5t105 -24.5q73 0 115.5 38t42.5 106q0 117 -145 117h-99l10 74h91q70 0 112 36.5t42 94.5q0 49 -31 74t-87 25q-85 0 -154 -54l-52 64q90 70 216 70q87 0 141.5 -42t54.5 -118q0 -58 -33 -105.5t-92 -71.5v-1
q54 -19 84.5 -61.5t30.5 -105.5q0 -101 -67.5 -159.5t-181.5 -58.5z" />
    <glyph glyph-name="uni0418" unicode="&#x418;" horiz-adv-x="696" 
d="M63 0l87 710h85l-69 -560h2l413 560h78l-86 -710h-85l67 549h-2l-412 -549h-78z" />
    <glyph glyph-name="uni0419" unicode="&#x419;" horiz-adv-x="696" 
d="M414 778q-57 0 -91 31.5t-35 98.5l68 7q-1 -36 17 -58t50 -22q33 0 60.5 23t43.5 59l59 -16q-26 -63 -73 -93t-99 -30zM63 0l87 710h85l-69 -560h2l413 560h78l-86 -710h-85l67 549h-2l-412 -549h-78z" />
    <glyph glyph-name="uni041A" unicode="&#x41a;" horiz-adv-x="604" 
d="M631 710l-277 -319l195 -391h-98l-160 328l-119 -136l-24 -192h-85l87 710h85l-48 -387l3 -1l334 388h107z" />
    <glyph glyph-name="uni041B" unicode="&#x41b;" horiz-adv-x="681" 
d="M261 710h385l-88 -710h-85l77 633h-217q-27 -170 -63 -333q-38 -165 -89.5 -235t-136.5 -70q-33 0 -56 9l13 71q12 -3 30 -3q55 0 92 62t69 197q40 173 69 379z" />
    <glyph glyph-name="uni041C" unicode="&#x41c;" horiz-adv-x="820" 
d="M63 0l87 710h86l175 -459h2l286 459h85l-87 -710h-85l64 531l-3 1l-245 -389h-59l-152 401l-2 -1l-67 -543h-85z" />
    <glyph glyph-name="uni041D" unicode="&#x41d;" horiz-adv-x="683" 
d="M63 0l87 710h85l-41 -334h327l41 334h85l-86 -710h-86l37 299h-327l-37 -299h-85z" />
    <glyph glyph-name="uni041E" unicode="&#x41e;" horiz-adv-x="760" 
d="M350 -6q-128 0 -204.5 79t-76.5 218q0 112 45 209t130 157t192 60q128 0 205 -78.5t77 -218.5q0 -178 -101 -302t-267 -124zM356 74q79 0 143 48.5t97.5 126.5t33.5 168q0 108 -53.5 164t-149.5 56q-116 0 -192.5 -103.5t-76.5 -240.5q0 -106 53 -162.5t145 -56.5z" />
    <glyph glyph-name="uni041F" unicode="&#x41f;" horiz-adv-x="660" 
d="M63 0l87 710h475l-88 -710h-85l78 633h-304l-78 -633h-85z" />
    <glyph glyph-name="uni0420" unicode="&#x420;" horiz-adv-x="578" 
d="M63 0l87 710h229q187 0 187 -182q0 -119 -69 -187.5t-196 -68.5h-120l-33 -272h-85zM191 350h121q78 0 121.5 46.5t43.5 131.5q0 50 -31.5 77.5t-84.5 27.5h-135z" />
    <glyph glyph-name="uni0421" unicode="&#x421;" horiz-adv-x="676" 
d="M349 -6q-125 0 -202 78.5t-77 219.5q0 114 45 210.5t129 155.5t190 59q153 0 244 -150l-72 -50q-65 118 -175 118q-79 0 -142.5 -49.5t-96.5 -127t-33 -166.5q0 -102 51 -159.5t143 -57.5q51 0 102 25t88 69l64 -56q-50 -55 -117 -87t-141 -32z" />
    <glyph glyph-name="uni0422" unicode="&#x422;" horiz-adv-x="529" 
d="M192 0l77 633h-190l9 77h467l-9 -77h-192l-77 -633h-85z" />
    <glyph glyph-name="uni0423" unicode="&#x423;" horiz-adv-x="591" 
d="M534 710h95l-279 -531q-53 -101 -79 -131q-47 -55 -114 -55q-28 0 -58 10.5t-45 26.5l27 71q31 -30 72 -30q34 0 59 29.5t61 97.5l-196 512h94l148 -424h3z" />
    <glyph glyph-name="uni0424" unicode="&#x424;" horiz-adv-x="791" 
d="M755 398q0 -139 -89.5 -231t-249.5 -96l-8 -71h-86l9 72q-122 7 -194.5 73t-72.5 182q0 136 92 233t248 104l7 61h86l-7 -62q119 -8 192 -78t73 -187zM153 330q0 -85 49.5 -131.5t139.5 -51.5l55 443q-112 -7 -178 -81t-66 -179zM423 146q115 5 179 74t64 175
q0 88 -49 138.5t-139 56.5z" />
    <glyph glyph-name="uni0425" unicode="&#x425;" horiz-adv-x="598" 
d="M-6 0l260 357l-168 353h96l137 -289h3l204 289h103l-258 -356l173 -354h-99l-139 289h-3l-210 -289h-99z" />
    <glyph glyph-name="uni0426" unicode="&#x426;" horiz-adv-x="673" 
d="M629 77l-30 -217h-72l13 140h-477l88 710h85l-78 -633h294l78 633h85l-78 -633h92z" />
    <glyph glyph-name="uni0427" unicode="&#x427;" horiz-adv-x="602" 
d="M497 710h85l-87 -710h-86l37 296q-38 -22 -90 -35t-97 -13q-101 0 -138.5 53.5t-22.5 169.5l31 239h84l-30 -242q-10 -79 11 -110.5t86 -31.5q89 0 175 43z" />
    <glyph glyph-name="uni0428" unicode="&#x428;" horiz-adv-x="912" 
d="M792 710h85l-87 -710h-727l88 710h85l-78 -633h235l78 633h85l-78 -633h236z" />
    <glyph glyph-name="uni0429" unicode="&#x429;" horiz-adv-x="935" 
d="M892 77l-31 -217h-71l12 140h-739l88 710h85l-78 -633h235l78 633h85l-78 -633h236l78 633h85l-78 -633h93z" />
    <glyph glyph-name="uni042A" unicode="&#x42a;" horiz-adv-x="662" 
d="M423 431q64 0 107.5 -17t63.5 -47t28 -60.5t7 -68.5q-3 -116 -73.5 -177t-196.5 -61h-211l78 633h-173l10 77h257l-34 -279h137zM366 77q81 0 127.5 40.5t47.5 117.5q0 63 -31.5 90.5t-99.5 27.5h-133l-34 -276h123z" />
    <glyph glyph-name="uni042B" unicode="&#x42b;" horiz-adv-x="820" 
d="M63 0l87 710h86l-34 -279h122q64 0 107.5 -17t63.5 -47t28 -60.5t7 -68.5q-3 -116 -73.5 -177t-196.5 -61h-197zM612 0l87 710h86l-87 -710h-86zM158 77h109q81 0 127.5 40.5t46.5 117.5q1 63 -30.5 90.5t-99.5 27.5h-119z" />
    <glyph glyph-name="uni042C" unicode="&#x42c;" horiz-adv-x="577" 
d="M63 0l87 710h86l-34 -279h136q64 0 107.5 -17t63.5 -47t28 -60.5t7 -68.5q-3 -116 -73.5 -177t-196.5 -61h-211zM158 77h123q82 0 128 40.5t47 117.5q1 63 -30.5 90.5t-99.5 27.5h-134z" />
    <glyph glyph-name="uni042D" unicode="&#x42d;" horiz-adv-x="664" 
d="M346 717q131 0 204 -80.5t73 -217.5q0 -180 -97 -302.5t-261 -122.5t-240 118l67 55q54 -94 176 -94q96 0 165 68t91 179h-333l9 76h334v18q0 105 -52 164t-146 59q-93 0 -170 -69l-53 63q100 86 233 86z" />
    <glyph glyph-name="uni042E" unicode="&#x42e;" horiz-adv-x="971" 
d="M664 716q122 0 198.5 -79t76.5 -216q0 -115 -43.5 -212t-127 -156.5t-191.5 -59.5q-120 0 -194 78.5t-74 214.5v14h-128l-37 -300h-85l87 710h85l-41 -333h127q24 146 117 242.5t230 96.5zM581 73q118 0 193.5 104t75.5 245q0 102 -52.5 158.5t-137.5 56.5
q-114 0 -189.5 -103.5t-75.5 -241.5q0 -104 51.5 -161.5t134.5 -57.5z" />
    <glyph glyph-name="uni042F" unicode="&#x42f;" horiz-adv-x="606" 
d="M335 710h236l-87 -710h-85l33 270h-138h-2l-186 -270h-97l201 289q-60 21 -90 67.5t-30 102.5q0 113 63 182t182 69zM441 347l36 286h-142q-73 0 -114.5 -44.5t-41.5 -121.5q0 -58 34.5 -89t94.5 -31h133z" />
    <glyph glyph-name="uni0430" unicode="&#x430;" horiz-adv-x="551" 
d="M209 -6q-81 0 -124 55t-43 141q0 123 68.5 213t175.5 90q89 0 138 -52l2 1l6 44h79l-60 -486h-79l14 111l-3 1q-33 -56 -78.5 -87t-95.5 -31zM224 65q65 0 119.5 72t67.5 179l6 50q-22 26 -58 39.5t-68 13.5q-75 0 -122 -69.5t-47 -161.5q0 -56 26.5 -89.5t75.5 -33.5z
" />
    <glyph glyph-name="uni0431" unicode="&#x431;" horiz-adv-x="557" 
d="M262 -6q-93 0 -147 64.5t-54 186.5q0 116 27.5 213.5t91 168t155.5 83.5q15 2 52 6.5t52 7.5t38.5 10t41.5 17l16 -63q-13 -11 -29 -19.5t-39.5 -13.5t-35.5 -7.5t-44 -6t-40 -4.5q-149 -22 -196 -242l2 -1q31 45 76.5 72t97.5 27q82 0 136 -53.5t54 -146.5
q0 -129 -68.5 -214t-186.5 -85zM264 67q75 0 123.5 62.5t48.5 156.5q0 69 -36.5 101t-88.5 32q-71 0 -121.5 -57t-50.5 -131q0 -76 35 -120t90 -44z" />
    <glyph glyph-name="uni0432" unicode="&#x432;" horiz-adv-x="501" 
d="M360 261q42 -9 65.5 -38t23.5 -67q0 -76 -59 -119t-145 -43q-97 0 -151 52t-54 151q0 119 71.5 207.5t190.5 88.5q67 0 112 -29t45 -84q0 -82 -99 -118v-1zM305 423q-63 0 -115.5 -47t-68.5 -121l132 25q127 24 127 87q0 30 -22 43t-53 13zM249 64q48 0 84 24t36 65
q0 84 -139 61l-115 -21q2 -61 34.5 -95t99.5 -34z" />
    <glyph glyph-name="uni0433" unicode="&#x433;" horiz-adv-x="428" 
d="M180 -7q-75 1 -114 32t-39 82q0 48 32 84t96 69l71 36q52 27 70 43t17 39q-2 43 -71 43q-62 0 -117 -44l-44 56q30 26 77 42.5t92 16.5q59 0 102 -26.5t43 -83.5q0 -28 -9 -50.5t-29 -39.5t-38.5 -28t-49.5 -26l-76 -39q-84 -41 -84 -85q0 -25 21 -37t54 -12q77 0 132 59
l61 -42q-83 -89 -197 -89z" />
    <glyph glyph-name="uni0434" unicode="&#x434;" horiz-adv-x="547" 
d="M241 -6q-90 0 -145 55.5t-55 149.5q0 123 70.5 207.5t174.5 84.5q83 0 138 -55l1 1q-6 94 -40.5 147t-107.5 74q-34 12 -104 18l19 67q78 -1 136.5 -22.5t92 -54.5t53.5 -80.5t26 -92t6 -98.5q-2 -180 -67.5 -290.5t-197.5 -110.5zM243 67q84 0 132 87t51 211
q-43 54 -123 54q-79 0 -130.5 -60t-51.5 -151q0 -67 34 -104t88 -37z" />
    <glyph glyph-name="uni0435" unicode="&#x435;" horiz-adv-x="472" 
d="M240 67q69 0 125 61l63 -45q-42 -45 -86 -67t-105 -22q-89 0 -141.5 54t-52.5 148q0 124 70 210.5t184 86.5q59 0 104.5 -32.5t45.5 -94.5q0 -154 -325 -184q4 -54 37 -84.5t81 -30.5zM293 420q-59 0 -107 -46t-61 -126q241 21 241 114q0 30 -21.5 44t-51.5 14z" />
    <glyph glyph-name="uni0436" unicode="&#x436;" horiz-adv-x="709" 
d="M575 154q21 -53 38.5 -72t46.5 -25l-23 -62q-12 -2 -22 0q-41 3 -64.5 35.5t-47.5 100.5l-22 59q-48 -33 -105 -54l-17 -136h-77l32 264l-1 1q-158 -76 -219 -265h-81q36 133 153 242l-31 91q-18 54 -36.5 72.5t-49.5 24.5l22 61q13 2 23 0q44 -4 70 -37t44 -98l20 -64
q49 33 96 49l17 146h78l-34 -275l2 -1q170 87 228 276h81q-38 -141 -154 -249z" />
    <glyph glyph-name="uni0437" unicode="&#x437;" horiz-adv-x="441" 
d="M190 -6q-106 0 -184 53l31 70q59 -51 156 -51q52 0 84.5 25t32.5 65q0 30 -25 46t-69 15l-90 -1l9 62h68q52 1 85.5 25t33.5 61q0 29 -24.5 43t-58.5 14q-75 0 -139 -37l-28 65q79 44 173 44q64 0 110.5 -30t46.5 -87q0 -42 -28 -72.5t-69 -45.5v-1q41 -9 63.5 -36.5
t22.5 -66.5q0 -76 -56 -118t-145 -42z" />
    <glyph glyph-name="uni0438" unicode="&#x438;" horiz-adv-x="533" 
d="M213 -6q-156 0 -129 196l41 297h79l-39 -290q-9 -72 9.5 -101t61.5 -29q53 0 108.5 61t66.5 146l26 213h80l-60 -487h-79l13 110h-2q-30 -53 -76 -84.5t-100 -31.5z" />
    <glyph glyph-name="uni0439" unicode="&#x439;" horiz-adv-x="533" 
d="M326 554q-57 0 -91 33t-35 102l68 10q-1 -41 17 -64.5t51 -23.5t60.5 24.5t42.5 65.5l59 -19q-26 -66 -73 -97t-99 -31zM213 -6q-156 0 -129 196l41 297h79l-39 -290q-9 -72 9.5 -101t61.5 -29q53 0 108.5 61t66.5 146l26 213h80l-60 -487h-79l13 110h-2
q-30 -53 -76 -84.5t-100 -31.5z" />
    <glyph glyph-name="uni043A" unicode="&#x43a;" horiz-adv-x="502" 
d="M47 0l60 487h79l-35 -290l2 -1q93 54 156.5 131.5t89.5 159.5h80q-30 -130 -151 -247l36 -86q22 -54 39 -72.5t46 -24.5l-23 -62q-12 -2 -23 0q-29 3 -50 23t-31.5 41.5t-30.5 71.5l-25 57q-62 -49 -127 -79l-13 -109h-79z" />
    <glyph glyph-name="uni043B" unicode="&#x43b;" horiz-adv-x="519" 
d="M305 487h171l-60 -487h-79l51 416h-75q-72 0 -91 -79l-32 -146q-45 -197 -158 -197q-28 0 -50 11l19 65q12 -4 22 -4q64 0 96 151q10 43 24 126q11 65 54.5 104.5t107.5 39.5z" />
    <glyph glyph-name="uni043C" unicode="&#x43c;" horiz-adv-x="627" 
d="M44 0l60 487h80l121 -312h2l201 312h80l-60 -487h-78l43 348h-1l-171 -262h-52l-103 267h-1l-44 -353h-77z" />
    <glyph glyph-name="uni043D" unicode="&#x43d;" horiz-adv-x="544" 
d="M422 487h80l-60 -487h-80l25 204l-236 -2l-25 -202h-79l60 487h79l-27 -216l237 1z" />
    <glyph glyph-name="uni043E" unicode="&#x43e;" horiz-adv-x="544" 
d="M244 -6q-93 0 -147 54t-54 150q0 122 70.5 208.5t185.5 86.5q92 0 147 -52.5t55 -147.5q0 -130 -69 -214.5t-188 -84.5zM246 67q77 0 125.5 62t48.5 157q0 69 -36 101t-89 32q-75 0 -123.5 -62.5t-48.5 -149.5q0 -64 33 -102t90 -38z" />
    <glyph glyph-name="uni043F" unicode="&#x43f;" horiz-adv-x="548" 
d="M47 0l60 487h79l-13 -110l2 -1q38 56 88 86.5t104 30.5q74 0 103.5 -49t16.5 -151l-39 -293h-79l38 287q10 70 -6.5 101.5t-58.5 31.5q-59 0 -120 -67.5t-72 -160.5l-24 -192h-79z" />
    <glyph glyph-name="uni0440" unicode="&#x440;" horiz-adv-x="562" 
d="M23 -198l84 685h79l-14 -113l2 -1q72 120 184 120q77 0 119.5 -56t42.5 -141q0 -122 -69 -212t-178 -90q-91 0 -139 49l-2 -1l-30 -240h-79zM255 66q83 0 134 66.5t51 158.5q0 56 -26 93t-73 37q-68 0 -123.5 -71t-69.5 -175l-7 -53q17 -29 49 -42.5t65 -13.5z" />
    <glyph glyph-name="uni0441" unicode="&#x441;" horiz-adv-x="486" 
d="M236 -6q-86 0 -139.5 53t-53.5 151q0 123 70 209t187 86q114 0 170 -81l-63 -47q-36 54 -109 54q-78 0 -126 -62.5t-48 -153.5q0 -65 33 -100.5t84 -35.5q76 0 131 61l62 -45q-81 -89 -198 -89z" />
    <glyph glyph-name="uni0442" unicode="&#x442;" horiz-adv-x="825" 
d="M47 0l61 487h79l-13 -106l2 -1q36 54 81.5 83.5t92.5 29.5q104 0 117 -111h3q73 111 179 111q143 0 117 -200l-39 -293h-80l39 287q17 133 -59 133q-50 0 -106 -65t-69 -160l-26 -195h-79l38 287q18 133 -58 133q-51 0 -108 -68.5t-68 -159.5l-24 -192h-80z" />
    <glyph glyph-name="uni0443" unicode="&#x443;" horiz-adv-x="533" 
d="M414 487h78l-51 -424q-10 -79 -34.5 -133.5t-61 -82.5t-75 -39.5t-86.5 -11.5q-86 0 -161 44l26 70q69 -41 136 -41q73 0 118.5 42.5t59.5 157.5l5 40l-2 1q-69 -116 -179 -116q-77 0 -110 47t-19 149l40 297h79l-38 -290q-9 -72 9 -101t62 -29q56 0 112.5 64.5
t66.5 151.5z" />
    <glyph glyph-name="uni0444" unicode="&#x444;" horiz-adv-x="719" 
d="M266 -198l35 271l-2 1q-23 -37 -56 -58.5t-67 -21.5q-68 0 -104 55t-35 148q2 121 54.5 208.5t145.5 87.5q32 0 62 -15.5t44 -40.5l2 1l36 298h79l-41 -325h2q22 37 56.5 59.5t69.5 22.5q66 0 102.5 -55.5t34.5 -147.5q-2 -122 -54.5 -209t-146.5 -87q-32 0 -61.5 15
t-43.5 40l-2 -1l-31 -246h-79zM466 66q64 0 100 65t37 155q1 62 -19.5 98.5t-56.5 36.5q-48 0 -86.5 -64.5t-49.5 -157.5l-9 -77q30 -56 84 -56zM198 64q45 0 83 64.5t49 158.5l10 77q-16 28 -39.5 42t-45.5 14q-64 0 -99.5 -65t-37.5 -155q-2 -62 19.5 -99t60.5 -37z" />
    <glyph glyph-name="uni0445" unicode="&#x445;" horiz-adv-x="463" 
d="M-3 0l188 247l-127 240h92l88 -179h2l131 179h97l-188 -244l128 -243h-91l-90 181h-2l-136 -181h-92z" />
    <glyph glyph-name="uni0446" unicode="&#x446;" horiz-adv-x="579" 
d="M518 68h35l-34 -204h-66l17 135q-48 0 -68.5 29t-18.5 75q0 2 0.5 7.5t1.5 7.5h-2q-31 -55 -79.5 -89.5t-102.5 -34.5q-77 0 -110 47t-19 149l41 297h79l-39 -290q-10 -72 8.5 -101t61.5 -29q53 0 108.5 61t66.5 144l26 215h80l-40 -330q-7 -54 4.5 -71t49.5 -18z" />
    <glyph glyph-name="uni0447" unicode="&#x447;" horiz-adv-x="500" 
d="M328 0l32 256h-2q-33 -48 -81 -75.5t-95 -27.5q-69 0 -99 40t-19 118l25 176h79l-24 -171q-7 -49 9 -71t56 -22q52 1 105 52.5t61 109.5l13 101h80l-60 -486h-80z" />
    <glyph glyph-name="uni0448" unicode="&#x448;" horiz-adv-x="799" 
d="M192 -6q-70 0 -101.5 50.5t-16.5 153.5l40 289h79l-38 -284q-18 -136 63 -136q45 0 94.5 54.5t61.5 153.5l26 212h79l-35 -290q-17 -130 62 -130q45 0 97 63.5t63 149.5l26 207h79l-59 -487h-80l14 111h-2q-27 -52 -73 -84.5t-93 -32.5q-50 0 -80 30.5t-32 85.5h-2
q-27 -51 -78 -83.5t-94 -32.5z" />
    <glyph glyph-name="uni0449" unicode="&#x449;" horiz-adv-x="845" 
d="M785 68h36l-34 -204h-66l17 135h-1q-48 0 -68.5 29t-18.5 75q2 14 2 15h-2q-30 -55 -77 -89.5t-95 -34.5q-50 0 -80 30.5t-32 85.5h-2q-27 -51 -78 -83.5t-94 -32.5q-70 0 -101.5 50.5t-16.5 153.5l40 289h79l-38 -284q-18 -136 63 -136q45 0 94.5 54.5t61.5 153.5
l26 212h79l-35 -290q-17 -130 62 -130q45 0 97 63.5t63 149.5l26 207h79l-40 -330q-7 -54 5 -71t49 -18z" />
    <glyph glyph-name="uni044A" unicode="&#x44a;" horiz-adv-x="520" 
d="M350 372q57 0 96.5 -38t39.5 -104q0 -101 -57 -169t-159 -68q-93 0 -133 52t-27 140l31 231h-113l9 71h193l-28 -191l1 -1q20 31 59.5 54t87.5 23zM275 64q59 0 94.5 44.5t35.5 109.5q0 40 -24.5 62t-62.5 22q-47 0 -85.5 -35t-45.5 -87q-7 -53 15.5 -84.5t72.5 -31.5z
" />
    <glyph glyph-name="uni044B" unicode="&#x44b;" horiz-adv-x="660" 
d="M222 -7q-93 0 -133 52t-27 140l41 302h79l-28 -190l1 -1q17 29 57.5 52.5t85.5 23.5q55 0 94 -38.5t39 -103.5q0 -101 -56 -169t-153 -68zM491 0l59 487h80l-60 -487h-79zM227 64q55 0 89 45t34 109q0 39 -23.5 61.5t-56.5 22.5q-47 0 -85.5 -35t-45.5 -87
q-7 -53 15.5 -84.5t72.5 -31.5z" />
    <glyph glyph-name="uni044C" unicode="&#x44c;" horiz-adv-x="459" 
d="M222 -7q-93 0 -133 52t-27 140l41 302h79l-28 -191l1 -1q20 31 59.5 54t87.5 23q57 0 96.5 -38t39.5 -104q0 -101 -57 -169t-159 -68zM227 64q59 0 94.5 44.5t35.5 109.5q0 40 -24.5 62t-62.5 22q-47 0 -85.5 -35t-45.5 -87q-7 -53 15.5 -84.5t72.5 -31.5z" />
    <glyph glyph-name="uni044D" unicode="&#x44d;" horiz-adv-x="479" 
d="M232 493q94 0 149 -53t55 -152q0 -127 -71 -210.5t-190 -83.5q-111 0 -169 69l53 54q41 -50 120 -50q63 0 109 40t62 109l-241 -3l8 65l240 2v2q0 67 -33.5 102t-95.5 35q-70 0 -122 -43l-45 57q73 60 171 60z" />
    <glyph glyph-name="uni044E" unicode="&#x44e;" horiz-adv-x="733" 
d="M499 493q88 0 142 -53t54 -147q0 -130 -67 -214.5t-181 -84.5q-90 0 -143 55t-53 151v3l-102 -1l-25 -202h-80l60 487h80l-27 -216l101 1q20 96 84 158.5t157 62.5zM450 67q70 0 117.5 60.5t47.5 153.5q0 65 -32.5 102t-87.5 36q-70 0 -118.5 -60.5t-48.5 -151.5
q0 -64 32.5 -102t89.5 -38z" />
    <glyph glyph-name="uni044F" unicode="&#x44f;" horiz-adv-x="490" 
d="M265 487h183l-60 -487h-79l22 181l-85 -1h-21l-38 -58q-23 -35 -35 -51.5t-32.5 -37.5t-43.5 -29.5t-52 -8.5h-12l-7 62q32 6 53 22t47 58l39 60q-80 33 -80 118q0 84 55.5 128t145.5 44zM244 251l96 1l20 164h-97q-53 0 -85.5 -26.5t-32.5 -72.5q0 -33 25.5 -50
t73.5 -16z" />
    <glyph glyph-name="uni0450" unicode="&#x450;" horiz-adv-x="472" 
d="M366 557h-83l-94 142l90 -1zM240 67q69 0 125 61l63 -45q-42 -45 -86 -67t-105 -22q-89 0 -141.5 54t-52.5 148q0 124 70 210.5t184 86.5q59 0 104.5 -32.5t45.5 -94.5q0 -154 -325 -184q4 -54 37 -84.5t81 -30.5zM293 420q-59 0 -107 -46t-61 -126q241 21 241 114
q0 30 -21.5 44t-51.5 14z" />
    <glyph glyph-name="uni0451" unicode="&#x451;" horiz-adv-x="472" 
d="M213 577q-24 0 -40 16t-16 40q0 25 17 41.5t42 16.5q23 0 39 -16t16 -40q0 -25 -16.5 -41.5t-41.5 -16.5zM384 577q-25 0 -41 16t-16 40q0 25 17 41.5t42 16.5q23 0 39 -16t16 -40q0 -25 -16.5 -41.5t-40.5 -16.5zM240 67q69 0 125 61l63 -45q-42 -45 -86 -67t-105 -22
q-89 0 -141.5 54t-52.5 148q0 124 70 210.5t184 86.5q59 0 104.5 -32.5t45.5 -94.5q0 -154 -325 -184q4 -54 37 -84.5t81 -30.5zM293 420q-59 0 -107 -46t-61 -126q241 21 241 114q0 30 -21.5 44t-51.5 14z" />
    <glyph glyph-name="uni0452" unicode="&#x452;" horiz-adv-x="537" 
d="M362 459q60 0 94 -37t37.5 -94t-5.5 -125q-21 -137 -98.5 -249t-194.5 -158l-27 56q96 47 158 144.5t81 220.5q28 170 -71 170q-60 0 -118.5 -68t-70.5 -162l-19 -157h-80l69 556h-71l8 66h71l14 114h78l-14 -114h183l-8 -66h-183l-26 -213l2 -1q76 117 191 117z" />
    <glyph glyph-name="uni0453" unicode="&#x453;" horiz-adv-x="428" 
d="M196 557l121 141l90 1l-128 -142h-83zM180 -7q-75 1 -114 32t-39 82q0 48 32 84t96 69l71 36q52 27 70 43t17 39q-2 43 -71 43q-62 0 -117 -44l-44 56q30 26 77 42.5t92 16.5q59 0 102 -26.5t43 -83.5q0 -28 -9 -50.5t-29 -39.5t-38.5 -28t-49.5 -26l-76 -39
q-84 -41 -84 -85q0 -25 21 -37t54 -12q77 0 132 59l61 -42q-83 -89 -197 -89z" />
    <glyph glyph-name="uni0454" unicode="&#x454;" horiz-adv-x="492" 
d="M251 67q77 0 129 57l62 -46q-75 -84 -195 -84q-91 0 -147 53t-56 152q0 126 71.5 210t191.5 84q49 0 95.5 -18.5t72.5 -54.5l-63 -47q-39 46 -110 46q-63 0 -107.5 -38.5t-62.5 -102.5l236 3l-7 -65l-239 -3v-10q0 -66 36 -101t93 -35z" />
    <glyph glyph-name="uni0455" unicode="&#x455;" horiz-adv-x="415" 
d="M185 -6q-53 0 -98.5 20.5t-73.5 57.5l53 53q50 -61 119 -61q43 0 70.5 18.5t27.5 50.5q0 18 -14 33t-27 21.5t-49 22.5q-9 4 -13 6q-56 24 -87.5 56t-31.5 81q0 62 47 101t114 39q99 0 157 -66l-53 -54q-42 50 -106 50q-34 0 -56 -18t-22 -48q0 -24 22 -42t65 -38
q75 -35 99 -57q35 -33 36 -78q0 -71 -49.5 -109.5t-129.5 -38.5z" />
    <glyph glyph-name="uni0456" unicode="&#x456;" horiz-adv-x="240" 
d="M170 577q-24 0 -40 16t-16 40q0 25 16.5 41.5t41.5 16.5q24 0 40 -16t16 -40q0 -25 -16.5 -41.5t-41.5 -16.5zM50 0l60 487h80l-60 -487h-80z" />
    <glyph glyph-name="uni0457" unicode="&#x457;" horiz-adv-x="240" 
d="M82 577q-24 0 -40 16t-16 40q0 25 17 41.5t42 16.5q23 0 39 -16t16 -40q0 -25 -16.5 -41.5t-41.5 -16.5zM253 577q-25 0 -41 16t-16 40q0 25 17 41.5t42 16.5q23 0 39 -16t16 -40q0 -25 -16.5 -41.5t-40.5 -16.5zM50 0l60 487h80l-60 -487h-80z" />
    <glyph glyph-name="uni0458" unicode="&#x458;" horiz-adv-x="213" 
d="M152 577q-24 0 -40 16t-16 40q0 25 16.5 41.5t41.5 16.5q24 0 40 -16t16 -40q0 -25 -16.5 -41.5t-41.5 -16.5zM-29 -204q-43 0 -77 21l20 64q20 -15 46 -15q28 0 44.5 21.5t22.5 76.5l64 523h80l-66 -533q-19 -158 -134 -158z" />
    <glyph glyph-name="uni0459" unicode="&#x459;" horiz-adv-x="761" 
d="M593 372q55 0 94.5 -38.5t39.5 -103.5q0 -101 -57 -169t-159 -68q-93 0 -133 52t-28 140l32 231h-70q-74 0 -91 -79q-6 -24 -15.5 -70.5t-15.5 -75.5q-45 -197 -158 -197q-28 0 -50 11l19 65q12 -4 22 -4q64 0 96 151q10 43 24 126q11 65 54.5 104.5t107.5 39.5h166
l-29 -198l1 -1q17 32 60 58t90 26zM516 64q59 0 94.5 44.5t35.5 109.5q0 40 -24.5 62t-62.5 22q-47 0 -85.5 -35t-45.5 -87q-8 -53 15 -84.5t73 -31.5z" />
    <glyph glyph-name="uni045A" unicode="&#x45a;" horiz-adv-x="753" 
d="M593 372q55 0 94.5 -38.5t39.5 -103.5q0 -101 -57 -169t-159 -68q-93 0 -133 52t-28 140l3 19l-210 -2l-25 -202h-79l60 487h79l-27 -216l211 1l30 215h79l-29 -198l1 -1q17 32 60 58t90 26zM516 64q59 0 94.5 44.5t35.5 109.5q0 40 -24.5 62t-62.5 22q-47 0 -85.5 -35
t-45.5 -87q-8 -53 15 -84.5t73 -31.5z" />
    <glyph glyph-name="uni045B" unicode="&#x45b;" horiz-adv-x="540" 
d="M361 459q146 0 120 -199l-34 -260h-80l33 254q9 70 -7 101.5t-57 31.5q-60 0 -118.5 -68t-70.5 -162l-19 -157h-80l69 556h-71l8 66h71l14 114h78l-14 -114h183l-8 -66h-183l-26 -213l2 -1q76 117 190 117z" />
    <glyph glyph-name="uni045C" unicode="&#x45c;" horiz-adv-x="502" 
d="M223 557l121 141l90 1l-128 -142h-83zM47 0l60 487h79l-35 -290l2 -1q93 54 156.5 131.5t89.5 159.5h80q-30 -130 -151 -247l36 -86q22 -54 39 -72.5t46 -24.5l-23 -62q-12 -2 -23 0q-29 3 -50 23t-31.5 41.5t-30.5 71.5l-25 57q-62 -49 -127 -79l-13 -109h-79z" />
    <glyph glyph-name="uni045D" unicode="&#x45d;" horiz-adv-x="533" 
d="M301 557l-94 142l90 -1l87 -141h-83zM213 -6q-156 0 -129 196l41 297h79l-39 -290q-9 -72 9.5 -101t61.5 -29q53 0 108.5 61t66.5 146l26 213h80l-60 -487h-79l13 110h-2q-30 -53 -76 -84.5t-100 -31.5z" />
    <glyph glyph-name="uni045E" unicode="&#x45e;" horiz-adv-x="533" 
d="M301 554q-57 0 -91 33t-35 102l68 10q-1 -41 17 -64.5t51 -23.5t60.5 24.5t42.5 65.5l59 -19q-26 -66 -73 -97t-99 -31zM414 487h78l-51 -424q-10 -79 -34.5 -133.5t-61 -82.5t-75 -39.5t-86.5 -11.5q-86 0 -161 44l26 70q69 -41 136 -41q73 0 118.5 42.5t59.5 157.5
l5 40l-2 1q-69 -116 -179 -116q-77 0 -110 47t-19 149l40 297h79l-38 -290q-9 -72 9 -101t62 -29q56 0 112.5 64.5t66.5 151.5z" />
    <glyph glyph-name="uni045F" unicode="&#x45f;" horiz-adv-x="533" 
d="M437 487h80l-60 -487h-79l13 110h-2q-37 -64 -94 -96l-30 -184h-65l20 164h-7q-156 0 -129 196l41 297h79l-39 -290q-9 -72 9.5 -101t61.5 -29q53 0 108.5 61t66.5 146z" />
    <glyph glyph-name="uni0462" unicode="&#x462;" horiz-adv-x="653" 
d="M419 425q116 0 161 -56t39 -142q-6 -113 -73 -170t-184 -57h-229l67 546h-157l9 72h157l11 92h86l-11 -92h221l-9 -72h-221l-15 -121h148zM530 224q6 124 -122 124h-147l-33 -271h141q75 0 116.5 39t44.5 108z" />
    <glyph glyph-name="uni0463" unicode="&#x463;" horiz-adv-x="731" 
d="M489 -7q-94 0 -134.5 55t-23.5 151l14 75q26 146 -43 146q-43 0 -95.5 -68t-63.5 -159l-24 -193h-79l60 487h79l-13 -110h2q32 53 75.5 84.5t87.5 31.5q133 0 92 -201l2 -1q17 31 58.5 56t88.5 25q55 0 94 -38.5t39 -103.5q0 -101 -56.5 -169t-159.5 -68zM495 64
q59 0 94.5 44.5t35.5 109.5q0 40 -25 62t-62 22q-47 0 -85 -35t-46 -85q-8 -54 15 -86t73 -32z" />
    <glyph glyph-name="uni0472" unicode="&#x472;" horiz-adv-x="759" 
d="M435 717q128 0 205 -78.5t77 -218.5q0 -115 -43.5 -211t-129 -155.5t-195.5 -59.5q-128 0 -204 79t-76 218q0 112 45 209t129.5 157t191.5 60zM426 639q-95 0 -164.5 -69.5t-94.5 -177.5h463q1 9 1 28q0 103 -53 161t-152 58zM355 72q99 0 170 68.5t95 178.5h-463
q-1 -9 -1 -26q0 -103 51.5 -162t147.5 -59z" />
    <glyph glyph-name="uni0473" unicode="&#x473;" horiz-adv-x="536" 
d="M297 493q92 0 146.5 -53t54.5 -147q0 -130 -69 -214.5t-188 -84.5q-93 0 -147.5 54t-54.5 150q0 122 70.5 208.5t187.5 86.5zM292 423q-61 0 -105.5 -42t-61.5 -109l294 6v4q0 74 -36.5 107.5t-90.5 33.5zM243 64q62 0 106.5 41t61.5 108l-294 -5v-4q0 -64 33.5 -102
t92.5 -38z" />
    <glyph glyph-name="uni0474" unicode="&#x474;" horiz-adv-x="658" 
d="M237 0l-149 710h89l112 -592h2l179 460q30 79 65 108.5t89 29.5q26 0 55 -8.5t44 -19.5l-26 -65q-29 19 -57 19q-31 0 -51 -21.5t-39 -68.5l-232 -552h-81z" />
    <glyph glyph-name="uni0475" unicode="&#x475;" horiz-adv-x="488" 
d="M153 0l-105 487h83l75 -396h1l116 290q23 60 51 85.5t75 25.5t75 -29l-23 -65q-29 21 -48 21q-20 0 -32.5 -16.5t-29.5 -56.5l-149 -346h-89z" />
    <glyph glyph-name="uni048A" unicode="&#x48a;" horiz-adv-x="713" 
d="M414 778q-57 0 -91 31.5t-35 98.5l68 7q-1 -36 17 -58t50 -22q33 0 60.5 23t43.5 59l59 -16q-26 -63 -73 -93t-99 -30zM582 77h83l-4 -30l-95 -187h-59l54 140h-73l67 549h-2l-412 -549h-78l87 710h85l-69 -560h2l413 560h78z" />
    <glyph glyph-name="uni048B" unicode="&#x48b;" horiz-adv-x="555" 
d="M313 554q-57 0 -91 33t-35 102l68 10q-1 -41 17 -64.5t51 -23.5t60.5 24.5t42.5 65.5l59 -19q-26 -66 -73 -97t-99 -31zM504 68h31l-3 -15l-93 -187h-57l55 135q-58 12 -56 88q0 2 1 9t2 12.5t1 7.5h-2q-31 -55 -79.5 -89.5t-102.5 -34.5q-77 0 -110 47t-19 149l41 297
h79l-39 -290q-10 -72 8.5 -101t61.5 -29q53 0 108.5 61t66.5 144l26 215h80l-42 -348q-6 -45 4 -57.5t38 -13.5z" />
    <glyph glyph-name="uni048C" unicode="&#x48c;" horiz-adv-x="588" 
d="M354 425q116 0 161 -56t39 -142q-6 -113 -73 -170t-184 -57h-229l67 550h-92l9 66h91l12 94h86l-12 -94h146l-9 -66h-145l-15 -125h148zM465 224q6 124 -122 124h-147l-33 -271h141q76 0 117.5 39t43.5 108z" />
    <glyph glyph-name="uni048D" unicode="&#x48d;" horiz-adv-x="472" 
d="M303 364q56 0 95 -38t39 -104q0 -96 -57 -162.5t-159 -66.5q-93 0 -133 52t-27 140l30 222h-63l7 58h64l7 48h77l-7 -48h157l-7 -55h-157l-18 -129l1 -1q18 32 61 58t90 26zM226 64q57 0 94 43t37 104q0 39 -23.5 62.5t-63.5 23.5q-48 0 -86 -34.5t-46 -82.5
q-7 -53 16 -84.5t72 -31.5z" />
    <glyph glyph-name="uni048E" unicode="&#x48e;" horiz-adv-x="583" 
d="M571 528q0 -84 -36 -144.5t-104 -88.5l49 -136l-61 -29l-54 146q-24 -4 -59 -4h-125l-33 -272h-85l87 710h234q187 0 187 -182zM399 368q83 41 83 160q0 50 -32 77.5t-85 27.5h-139l-35 -283h125q17 0 24 1l-44 122l55 28z" />
    <glyph glyph-name="uni048F" unicode="&#x48f;" horiz-adv-x="562" 
d="M520 296q0 -82 -33 -153.5t-91 -110.5l46 -112l-57 -29l-46 113q-30 -10 -66 -10q-91 0 -139 49l-2 -1l-30 -240h-79l84 685h79l-14 -113l2 -1q72 120 184 120q77 0 119.5 -56t42.5 -141zM255 66q29 0 59 10l-47 117l52 27l45 -114q36 31 56 80t20 105t-26 93t-73 37
q-68 0 -123.5 -71t-69.5 -175l-7 -53q17 -29 49 -42.5t65 -13.5z" />
    <glyph glyph-name="uni0490" unicode="&#x490;" horiz-adv-x="519" 
d="M565 851l-18 -141l-10 -77h-311l-78 -633h-85l87 710h318l25 141h72z" />
    <glyph glyph-name="uni0491" unicode="&#x491;" horiz-adv-x="405" 
d="M365 619h63l-25 -203h-226l-50 -416h-80l60 487h235z" />
    <glyph glyph-name="uni0492" unicode="&#x492;" horiz-adv-x="529" 
d="M548 633h-311l-32 -260h180l-9 -66h-179l-38 -307h-85l38 307h-93l9 66h92l41 337h397z" />
    <glyph glyph-name="uni0493" unicode="&#x493;" horiz-adv-x="428" 
d="M184 65q77 0 132 59l61 -42q-83 -89 -197 -89q-75 0 -114 31.5t-39 81.5q0 83 119 137v1l-77 30l25 54l112 -43l20 10q51 26 69.5 43t17.5 40q-2 43 -71 43q-62 0 -117 -44l-44 56q30 26 77 42.5t92 16.5q59 0 102 -26.5t43 -82.5q0 -25 -8 -44t-27 -34t-33.5 -23.5
t-43.5 -22.5v-3l90 -35l-23 -55l-129 49l-29 -14q-83 -43 -83 -87q0 -25 21 -37t54 -12z" />
    <glyph glyph-name="uni0494" unicode="&#x494;" horiz-adv-x="609" 
d="M335 394q91 0 150 -64.5t59 -178.5q0 -151 -75.5 -252t-213.5 -101q-40 0 -68 8l12 73q28 -7 54 -7q94 0 148 80t54 193q0 82 -38.5 126t-109.5 44q-60 0 -123 -26l-36 -289h-85l87 710h397l-10 -77h-311l-33 -268q65 29 142 29z" />
    <glyph glyph-name="uni0495" unicode="&#x495;" horiz-adv-x="497" 
d="M296 260q73 0 118.5 -48.5t45.5 -134.5q0 -127 -73 -204t-195 -77q-47 0 -79 9l18 66q24 -6 53 -6q88 0 142 56t54 147q0 61 -30 89.5t-78 28.5q-53 0 -91 -33.5t-43 -67.5l-12 -85h-79l60 487h304l-8 -71h-226l-27 -227h2q56 71 144 71z" />
    <glyph glyph-name="uni0496" unicode="&#x496;" horiz-adv-x="879" 
d="M768 77h66l-30 -217h-72l12 140h-35l-155 319l-95 -116l-25 -203h-82l26 207l-63 111l-232 -318h-98l275 376l-184 334h98l215 -395l2 1l48 394h82l-49 -394l3 -1l306 395h103l-263 -337z" />
    <glyph glyph-name="uni0497" unicode="&#x497;" horiz-adv-x="732" 
d="M671 68h28l-34 -204h-66l17 135q-37 4 -59.5 29.5t-40.5 75.5q-3 7 -7 17l-12 30t-16 39q-48 -33 -105 -54l-17 -136h-77l32 264l-1 1q-158 -76 -219 -265h-81q36 133 153 242l-31 92q-18 53 -36.5 71.5t-49.5 25.5l22 61h8h8.5h6.5q44 -4 70 -37t44 -99l20 -64
q49 33 96 49l17 146h78l-34 -275l2 -1q170 87 228 276h81q-38 -141 -153 -248q38 -92 44 -109q14 -37 33 -49.5t51 -12.5z" />
    <glyph glyph-name="uni0498" unicode="&#x498;" horiz-adv-x="568" 
d="M399 379q54 -19 84.5 -61.5t30.5 -105.5q0 -99 -66 -157.5t-177 -60.5l-12 -27q66 -17 66 -64q0 -43 -29.5 -65.5t-79.5 -22.5q-31 0 -58 6l4 45q19 -6 44 -6q26 0 42 11t16 32q0 28 -63 35l21 59q-65 7 -116.5 36.5t-81.5 75.5l63 57q28 -45 75 -69.5t105 -24.5
q73 0 115.5 38t42.5 106q0 117 -145 117h-99l10 74h91q70 0 112 36.5t42 94.5q0 49 -31 74t-87 25q-85 0 -154 -54l-52 64q90 70 216 70q87 0 141.5 -42t54.5 -118q0 -58 -33 -105.5t-92 -71.5v-1z" />
    <glyph glyph-name="uni0499" unicode="&#x499;" horiz-adv-x="441" 
d="M305 257q41 -9 63.5 -36.5t22.5 -66.5q0 -72 -51 -114t-134 -46l-12 -27q66 -17 66 -64q0 -43 -29.5 -65.5t-79.5 -22.5q-31 0 -58 6l4 45q19 -6 44 -6q26 0 42 11t16 32q0 28 -63 35l21 57q-85 7 -151 52l31 70q59 -51 156 -51q52 0 84.5 25t32.5 65q0 30 -25 46t-69 15
l-90 -1l9 62h68q52 1 85.5 25t33.5 61q0 29 -24.5 43t-58.5 14q-75 0 -139 -37l-28 65q79 44 173 44q64 0 110.5 -30t46.5 -87q0 -42 -28 -72.5t-69 -45.5v-1z" />
    <glyph glyph-name="uni049A" unicode="&#x49a;" horiz-adv-x="627" 
d="M511 77h67l-30 -217h-72l12 140h-37l-160 328l-119 -136l-24 -192h-85l87 710h85l-48 -387l3 -1l334 388h107l-277 -319z" />
    <glyph glyph-name="uni049B" unicode="&#x49b;" horiz-adv-x="524" 
d="M459 68h28l-34 -204h-66l17 135q-37 3 -59 28.5t-42 76.5q-6 15 -36 83q-61 -47 -128 -78l-13 -109h-79l60 487h79l-35 -290l2 -1q93 54 156.5 131.5t89.5 159.5h80q-31 -130 -150 -246q9 -22 20 -48t16.5 -39.5t10.5 -23.5q15 -36 33.5 -49t49.5 -13z" />
    <glyph glyph-name="uni049C" unicode="&#x49c;" horiz-adv-x="665" 
d="M691 710l-259 -353l178 -357h-96l-155 313h-29l-24 -194h-65l24 195h-79l-38 -314h-85l87 710h85l-40 -326l79 2l25 198h65l-25 -197l21 1l229 322h102z" />
    <glyph glyph-name="uni049D" unicode="&#x49d;" horiz-adv-x="532" 
d="M394 154q23 -54 40 -72.5t45 -24.5l-23 -62q-12 -2 -23 0q-41 3 -63.5 34t-48.5 102l-28 73q-1 -1 -6.5 -4.5t-9.5 -5.5l-16 -131h-51l12 100q-25 -12 -81 -35l-15 -128h-79l60 487h79l-36 -294l2 -1q37 15 79 42l18 150h52l-14 -111q99 79 142 214h80
q-30 -130 -151 -247z" />
    <glyph glyph-name="uni049E" unicode="&#x49e;" horiz-adv-x="614" 
d="M641 710l-278 -319l196 -391h-98l-161 328l-119 -136l-23 -192h-86l68 559h-98l9 66h98l10 85h86l-11 -85h114l-8 -66h-114l-29 -236l2 -1l334 388h108z" />
    <glyph glyph-name="uni049F" unicode="&#x49f;" horiz-adv-x="501" 
d="M364 154q22 -54 39 -72.5t45 -24.5l-23 -62q-12 -2 -22 0q-22 2 -37.5 11t-30 31.5t-22 38.5t-23.5 55l-24 57q-60 -48 -128 -79l-12 -109h-79l70 575h-66l7 57h66l13 104h79l-13 -104h147l-7 -57h-147l-46 -378l2 -1q93 54 157 131.5t89 159.5h81q-32 -129 -151 -247z
" />
    <glyph glyph-name="uni04A0" unicode="&#x4a0;" horiz-adv-x="689" 
d="M716 710l-277 -319l195 -391h-98l-160 328l-119 -136l-24 -192h-85l78 633h-173l10 77h257l-48 -387l3 -1l334 388h107z" />
    <glyph glyph-name="uni04A1" unicode="&#x4a1;" horiz-adv-x="558" 
d="M420 154q22 -54 39 -72.5t46 -24.5l-23 -62q-12 -2 -23 0q-22 2 -37.5 10.5t-29.5 31t-21.5 39t-23.5 55.5l-25 57q-62 -49 -127 -79l-13 -109h-79l51 416h-126l9 71h205l-35 -290l2 -1q93 54 156.5 131.5t88.5 159.5h81q-30 -130 -151 -247z" />
    <glyph glyph-name="uni04A2" unicode="&#x4a2;" horiz-adv-x="706" 
d="M663 77l-31 -217h-71l12 140h-98l37 299h-327l-37 -299h-85l87 710h85l-41 -334h327l41 334h85l-77 -633h93z" />
    <glyph glyph-name="uni04A3" unicode="&#x4a3;" 
d="M511 68h36l-34 -204h-66l17 135h-1q-104 0 -91 111l11 94l-232 -2l-25 -202h-79l60 487h79l-27 -216l233 1l26 215h79l-40 -330q-7 -54 5 -71t49 -18z" />
    <glyph glyph-name="uni04A4" unicode="&#x4a4;" horiz-adv-x="810" 
d="M556 710h282l-9 -77h-198l-78 -633h-85l37 299h-320l-37 -299h-85l87 710h85l-41 -334h321z" />
    <glyph glyph-name="uni04A5" unicode="&#x4a5;" horiz-adv-x="623" 
d="M629 487l-8 -71h-141l-50 -416h-80l25 204l-224 -2l-25 -202h-79l60 487h79l-27 -216l225 1l26 215h219z" />
    <glyph glyph-name="uni04A6" unicode="&#x4a6;" horiz-adv-x="998" 
d="M725 394q91 0 150 -64.5t59 -178.5q0 -151 -75.5 -252t-213.5 -101q-40 0 -68 8l12 73q28 -7 54 -7q94 0 148 80t54 193q0 82 -38.5 126t-109.5 44q-59 0 -124 -26l-36 -289h-85l78 633h-304l-78 -633h-85l87 710h475l-43 -346q65 30 143 30z" />
    <glyph glyph-name="uni04A7" unicode="&#x4a7;" horiz-adv-x="810" 
d="M505 -204q-47 0 -79 9l19 66q23 -6 52 -6q88 0 142 56t54 147q0 61 -30 89.5t-78 28.5q-53 0 -91 -34t-42 -67l-12 -85h-80l38 286q17 134 -62 134q-55 0 -115 -67.5t-71 -159.5l-23 -193h-80l60 487h79l-13 -110h2q37 55 86.5 85.5t99.5 30.5q144 0 118 -201l-14 -103h2
q21 29 58.5 50t83.5 21q73 0 118.5 -48.5t45.5 -134.5q0 -127 -73 -204t-195 -77z" />
    <glyph glyph-name="uni04A8" unicode="&#x4a8;" horiz-adv-x="798" 
d="M775 34q-41 -41 -121 -41q-83 0 -139 43q-72 -43 -164 -43q-127 0 -208 83.5t-81 220.5q0 112 44.5 207.5t128.5 154t189 58.5q29 0 61 -5l-20 -74q-20 4 -46 4q-75 0 -137.5 -49.5t-96.5 -127.5t-34 -166q0 -107 59 -169.5t161 -62.5q46 0 84 15q-76 81 -76 221
q0 80 25.5 151.5t76.5 119t116 47.5q73 0 113 -54.5t40 -146.5q0 -103 -47 -197.5t-126 -146.5l1 -2h-2q30 -12 63 -12q61 0 105 39zM592 546q-39 0 -70 -39.5t-46.5 -95t-15.5 -111.5q0 -116 54 -185l2 1l5 -1q66 49 103 133t37 176q0 57 -18 89.5t-51 32.5z" />
    <glyph glyph-name="uni04A9" unicode="&#x4a9;" horiz-adv-x="631" 
d="M582 122l38 -64q-61 -64 -164 -64q-64 0 -110 24q-45 -24 -109 -24q-89 0 -145.5 57t-56.5 155q0 84 36.5 165t99.5 134l55 -44q-110 -110 -110 -253q0 -64 34.5 -105t99.5 -41q21 0 43 5q-46 52 -46 148q0 109 51.5 193t133.5 84q63 0 94 -41.5t31 -109.5
q0 -82 -38 -157t-102 -121v-1l-3 -1q17 -3 35 -3q80 0 133 64zM429 418q-42 0 -75.5 -68.5t-33.5 -144.5q0 -68 31 -108l3 1l3 -1q55 37 87.5 104t32.5 139q0 78 -48 78z" />
    <glyph glyph-name="uni04AA" unicode="&#x4aa;" horiz-adv-x="676" 
d="M353 75q51 0 102 25t88 69l64 -56q-49 -54 -115 -86t-139 -33l-12 -27q66 -17 66 -64q0 -43 -29.5 -65.5t-79.5 -22.5q-31 0 -58 6l4 45q20 -6 44 -6q26 0 42 11t16 32q0 28 -63 35l21 59q-107 14 -170.5 90.5t-63.5 204.5q0 114 45 210.5t129 155.5t190 59
q153 0 244 -150l-72 -50q-65 118 -175 118q-79 0 -142.5 -49.5t-96.5 -127t-33 -166.5q0 -102 51 -159.5t143 -57.5z" />
    <glyph glyph-name="uni04AB" unicode="&#x4ab;" horiz-adv-x="486" 
d="M241 67q76 0 131 61l62 -45q-76 -84 -184 -89l-12 -27q66 -17 66 -64q0 -43 -29.5 -65.5t-79.5 -22.5q-31 0 -58 6l4 45q19 -6 44 -6q26 0 42 11t16 32q0 28 -63 35l21 58q-72 11 -115 63t-43 139q0 123 70 209t187 86q114 0 170 -81l-63 -47q-36 54 -109 54
q-78 0 -126 -62.5t-48 -153.5q0 -65 33 -100.5t84 -35.5z" />
    <glyph glyph-name="uni04AC" unicode="&#x4ac;" horiz-adv-x="529" 
d="M546 633h-192l-68 -556h92l-30 -217h-72l13 140h-97l77 633h-190l9 77h467z" />
    <glyph glyph-name="uni04AD" unicode="&#x4ad;" horiz-adv-x="859" 
d="M787 68h36l-34 -204h-66l17 135h-1q-108 0 -91 119l25 163q21 139 -57 139q-48 0 -100.5 -65t-65.5 -160l-26 -195h-79l38 287q18 133 -58 133q-50 0 -106.5 -68.5t-67.5 -159.5l-24 -192h-80l61 487h79l-13 -106l2 -1q35 54 80.5 83.5t91.5 29.5q104 0 117 -111h3
q30 52 75 81.5t95 29.5q147 0 116 -200l-22 -142q-7 -50 5 -66t50 -17z" />
    <glyph glyph-name="uni04AE" unicode="&#x4ae;" horiz-adv-x="555" 
d="M204 0l39 317l-169 393h94l125 -310h3l202 310h99l-268 -393l-40 -317h-85z" />
    <glyph glyph-name="uni04AF" unicode="&#x4af;" horiz-adv-x="477" 
d="M137 -198l22 186l-108 499h82l83 -403h2q140 199 179 403h83q-57 -259 -241 -494l-23 -191h-79z" />
    <glyph glyph-name="uni04B0" unicode="&#x4b0;" horiz-adv-x="555" 
d="M597 710l-254 -373h134l-9 -66h-145l-34 -271h-85l33 271h-147l9 66h135l-160 373h94l125 -310h3l202 310h99z" />
    <glyph glyph-name="uni04B1" unicode="&#x4b1;" horiz-adv-x="477" 
d="M480 487q-51 -234 -200 -429h92l-7 -58h-126l-23 -198h-79l24 198h-113l7 58h94l-98 429h82l83 -403h2q140 199 179 403h83z" />
    <glyph glyph-name="uni04B2" unicode="&#x4b2;" horiz-adv-x="617" 
d="M506 77h67l-30 -217h-72l12 140h-38l-139 289h-3l-210 -289h-99l260 357l-168 353h96l137 -289h3l204 289h103l-258 -356z" />
    <glyph glyph-name="uni04B3" unicode="&#x4b3;" horiz-adv-x="493" 
d="M341 132q21 -39 38.5 -51.5t47.5 -12.5h29l-34 -204h-66l17 135q-37 3 -60 27.5t-48 76.5l-40 75h-2l-134 -178h-92l188 247l-127 240h92l87 -177h3l131 177h97l-188 -244z" />
    <glyph glyph-name="uni04B4" unicode="&#x4b4;" horiz-adv-x="797" 
d="M753 77l-30 -217h-72l13 140h-477l78 633h-186l9 77h439l-9 -77h-167l-69 -556h294l78 633h85l-78 -633h92z" />
    <glyph glyph-name="uni04B5" unicode="&#x4b5;" horiz-adv-x="579" 
d="M480 665l-8 -69h-298l9 69h297zM518 68h35l-34 -204h-66l17 135q-48 0 -68.5 29t-18.5 75q0 2 0.5 7.5t1.5 7.5h-2q-31 -55 -79.5 -89.5t-102.5 -34.5q-77 0 -110 47t-19 149l41 297h79l-39 -290q-10 -72 8.5 -101t61.5 -29q53 0 108.5 61t66.5 144l26 215h80l-40 -330
q-7 -54 4.5 -71t49.5 -18z" />
    <glyph glyph-name="uni04B6" unicode="&#x4b6;" horiz-adv-x="625" 
d="M597 77l-31 -217h-71l12 140h-98l37 296q-38 -22 -90 -35t-97 -13q-101 0 -138.5 53.5t-22.5 169.5l31 239h84l-30 -242q-10 -79 11 -110.5t86 -31.5q89 0 175 43l42 341h85l-78 -633h93z" />
    <glyph glyph-name="uni04B7" unicode="&#x4b7;" horiz-adv-x="539" 
d="M475 68h36l-34 -204h-66l17 135h-1q-103 0 -90 111l17 146h-2q-32 -48 -78.5 -75.5t-91.5 -27.5q-69 0 -99 40t-19 118l25 176h79l-24 -171q-7 -49 9 -71t56 -22q51 1 102 52.5t59 109.5l13 101h80l-42 -329q-7 -53 5 -70.5t49 -18.5z" />
    <glyph glyph-name="uni04B8" unicode="&#x4b8;" horiz-adv-x="609" 
d="M503 710h86l-88 -710h-85l36 296q-44 -24 -104 -37l-19 -152h-64l18 142q-9 -1 -24 -1q-101 0 -138.5 53.5t-22.5 169.5l31 239h84l-30 -242q-10 -79 11 -110.5t86 -31.5h12l20 159h64l-19 -151q57 12 104 35z" />
    <glyph glyph-name="uni04B9" unicode="&#x4b9;" horiz-adv-x="503" 
d="M390 486h81l-60 -486h-81l32 256h-2q-34 -47 -86 -77l-14 -108h-52l11 88q-25 -5 -44 -5q-64 0 -93 39.5t-18 117.5l25 176h79l-24 -171q-7 -52 9 -74.5t55 -21.5q5 0 19 2l19 155h53l-17 -130q37 25 64 63t32 75z" />
    <glyph glyph-name="uni04BA" unicode="&#x4ba;" horiz-adv-x="611" 
d="M395 471q103 0 139.5 -56.5t21.5 -171.5l-31 -243h-85l29 234q11 87 -9.5 123t-85.5 36q-87 0 -182 -43l-43 -350h-86l87 710h86l-36 -288q40 21 95.5 35t99.5 14z" />
    <glyph glyph-name="uni04BB" unicode="&#x4bb;" horiz-adv-x="548" 
d="M47 0l90 736h79l-44 -361h2q37 56 88 87t105 31q74 0 103.5 -49t16.5 -151l-39 -293h-80l39 287q10 70 -6.5 101.5t-58.5 31.5q-60 0 -120.5 -68.5t-71.5 -161.5l-24 -190h-79z" />
    <glyph glyph-name="uni04BC" unicode="&#x4bc;" horiz-adv-x="817" 
d="M785 340h-527q-2 -30 -2 -47q0 -106 53.5 -162.5t144.5 -56.5q108 0 190 95l64 -56q-50 -55 -117 -87t-141 -32q-130 0 -205 78t-75 219q0 17 2 49h-1q-69 0 -105.5 27t-36.5 79q0 67 38 105l64 -20q-25 -43 -25 -70q0 -45 73 -45h5q31 133 119.5 217t218.5 84
q123 0 197.5 -79t74.5 -216q0 -33 -9 -82zM516 637q-87 0 -151.5 -61.5t-91.5 -159.5h437v4q0 103 -53 160t-141 57z" />
    <glyph glyph-name="uni04BD" unicode="&#x4bd;" horiz-adv-x="560" 
d="M328 67q70 0 126 61l62 -45q-41 -45 -85 -67t-105 -22q-84 0 -135.5 48.5t-57.5 133.5q-59 -2 -91 23.5t-31 72.5q0 50 34 92l55 -15q-25 -40 -25 -69q2 -41 60 -42q13 104 81 179.5t170 75.5q58 0 104 -32.5t46 -94.5q0 -45 -29 -80t-78 -56t-103 -33t-116 -17
q6 -54 38.5 -83.5t79.5 -29.5zM382 420q-61 0 -110 -50.5t-60 -128.5q44 4 84.5 12.5t77.5 22.5t59 36t22 50q0 30 -21.5 44t-51.5 14z" />
    <glyph glyph-name="uni04BE" unicode="&#x4be;" horiz-adv-x="817" 
d="M785 340h-527q-2 -30 -2 -47q0 -106 53.5 -162.5t144.5 -56.5q108 0 190 95l64 -56q-96 -104 -225 -117l-19 -136h-72l12 137q-110 13 -172 89.5t-62 204.5q0 17 2 49h-1q-69 0 -105.5 27t-36.5 79q0 67 38 105l64 -20q-25 -43 -25 -70q0 -45 73 -45h5q31 133 119.5 217
t218.5 84q123 0 197.5 -79t74.5 -216q0 -33 -9 -82zM516 637q-87 0 -151.5 -61.5t-91.5 -159.5h437v4q0 103 -53 160t-141 57z" />
    <glyph glyph-name="uni04BF" unicode="&#x4bf;" horiz-adv-x="560" 
d="M328 67q70 0 126 61l62 -45q-70 -78 -157 -87l-19 -132h-66l14 133q-68 11 -109 57.5t-46 121.5q-59 -2 -91 23.5t-31 72.5q0 50 34 92l55 -15q-25 -40 -25 -69q2 -41 60 -42q13 104 81 179.5t170 75.5q58 0 104 -32.5t46 -94.5q0 -45 -29 -80t-78 -56t-103 -33t-116 -17
q6 -54 38.5 -83.5t79.5 -29.5zM382 420q-61 0 -110 -50.5t-60 -128.5q44 4 84.5 12.5t77.5 22.5t59 36t22 50q0 30 -21.5 44t-51.5 14z" />
    <glyph glyph-name="uni04C0" unicode="&#x4c0;" horiz-adv-x="282" 
d="M68 0l87 710h86l-87 -710h-86z" />
    <glyph glyph-name="uni04C1" unicode="&#x4c1;" horiz-adv-x="851" 
d="M487 778q-57 0 -91 31.5t-35 98.5l68 7q-1 -36 17 -58t50 -22q33 0 60.5 23t43.5 59l59 -16q-26 -63 -73 -93t-99 -30zM884 710l-263 -337l185 -373h-97l-155 319l-95 -116l-25 -203h-82l26 207l-63 111l-232 -318h-98l275 376l-184 334h98l215 -395l2 1l48 394h82
l-49 -394l3 -1l306 395h103z" />
    <glyph glyph-name="uni04C2" unicode="&#x4c2;" horiz-adv-x="709" 
d="M387 554q-57 0 -91 33t-35 102l68 10q-1 -41 17 -64.5t51 -23.5t60.5 24.5t42.5 65.5l59 -19q-26 -66 -73 -97t-99 -31zM575 154q21 -53 38.5 -72t46.5 -25l-23 -62q-12 -2 -22 0q-41 3 -64.5 35.5t-47.5 100.5l-22 59q-48 -33 -105 -54l-17 -136h-77l32 264l-1 1
q-158 -76 -219 -265h-81q36 133 153 242l-31 91q-18 54 -36.5 72.5t-49.5 24.5l22 61q13 2 23 0q44 -4 70 -37t44 -98l20 -64q49 33 96 49l17 146h78l-34 -275l2 -1q170 87 228 276h81q-38 -141 -154 -249z" />
    <glyph glyph-name="uni04C3" unicode="&#x4c3;" horiz-adv-x="622" 
d="M339 374q95 -5 156 -72.5t61 -170.5q0 -91 -31 -165t-98 -121t-160 -47q-40 0 -68 8l12 73q28 -7 54 -7q94 0 148 75.5t54 179.5q0 89 -54 133.5t-146 46.5l-93 -104l-26 -203h-85l87 710h85l-48 -387l3 -1l334 388h107z" />
    <glyph glyph-name="uni04C4" unicode="&#x4c4;" horiz-adv-x="508" 
d="M326 239q56 -12 92.5 -61.5t36.5 -119.5q0 -116 -73.5 -189t-194.5 -73q-47 0 -79 9l19 66q23 -6 52 -6q87 0 141.5 53t54.5 137q0 61 -33.5 95t-78.5 40q-60 -46 -124 -76l-13 -114h-79l60 487h79l-35 -290l2 -1q93 54 156.5 131.5t89.5 159.5h80q-30 -130 -153 -248z
" />
    <glyph glyph-name="uni04C5" unicode="&#x4c5;" horiz-adv-x="698" 
d="M568 77h82l-4 -30l-95 -187h-59l54 140h-73l77 633h-217q-27 -170 -63 -333q-38 -165 -89.5 -235t-136.5 -70q-33 0 -56 9l13 71q12 -3 30 -3q55 0 92 62t69 197q40 173 69 379h385z" />
    <glyph glyph-name="uni04C6" unicode="&#x4c6;" horiz-adv-x="535" 
d="M470 68h32l-3 -15l-93 -187h-57l55 134q-71 10 -61 97l39 319h-68q-73 0 -92 -79q-7 -27 -17.5 -76.5t-14.5 -69.5q-45 -197 -158 -197q-28 0 -50 11l19 65q12 -4 22 -4q64 0 96 151q10 43 24 126q11 65 54.5 104.5t107.5 39.5h165l-42 -348q-5 -45 4.5 -57.5t37.5 -13.5
z" />
    <glyph glyph-name="uni04C7" unicode="&#x4c7;" horiz-adv-x="683" 
d="M562 710h85l-87 -719q-13 -104 -63.5 -148.5t-135.5 -44.5q-36 0 -61 8l12 70q26 -7 47 -7q52 0 79.5 28.5t35.5 93.5l1 9l9 75l28 224h-327l-37 -299h-85l87 710h85l-41 -334h327z" />
    <glyph glyph-name="uni04C8" unicode="&#x4c8;" horiz-adv-x="544" 
d="M502 487l-60 -487q-25 -204 -184 -204q-27 0 -50 8l13 63q15 -4 29 -4q45 0 73 31t39 106l25 204l-236 -2l-25 -202h-79l60 487h79l-27 -216l237 1l26 215h80z" />
    <glyph glyph-name="uni04C9" unicode="&#x4c9;" horiz-adv-x="700" 
d="M570 77h83l-4 -30l-95 -187h-59l54 140h-74l37 299h-327l-37 -299h-85l87 710h85l-41 -334h327l41 334h85z" />
    <glyph glyph-name="uni04CA" unicode="&#x4ca;" horiz-adv-x="561" 
d="M497 68h32l-3 -15l-93 -187h-57l55 134q-71 10 -61 97l13 107l-232 -2l-25 -202h-79l60 487h79l-27 -216l233 1l26 215h79l-42 -348q-5 -45 4.5 -57.5t37.5 -13.5z" />
    <glyph glyph-name="uni04CB" unicode="&#x4cb;" horiz-adv-x="602" 
d="M497 710h85l-87 -710h-101l-24 -140h-72l26 217h95l27 219q-38 -22 -90 -35t-97 -13q-101 0 -138.5 53.5t-22.5 169.5l31 239h84l-30 -242q-10 -79 11 -110.5t86 -31.5q89 0 175 43z" />
    <glyph glyph-name="uni04CC" unicode="&#x4cc;" horiz-adv-x="500" 
d="M388 486h80l-60 -486h-72q-31 -2 -36 -28l-17 -108h-67l15 115q9 77 75 81l30 2l24 194h-2q-33 -48 -81 -75.5t-95 -27.5q-69 0 -99 40t-19 118l25 176h79l-24 -171q-7 -49 9 -71t56 -22q52 1 105 52.5t61 109.5z" />
    <glyph glyph-name="uni04CD" unicode="&#x4cd;" horiz-adv-x="837" 
d="M706 77h83l-4 -30l-95 -187h-59l54 140h-73l64 531l-3 1l-245 -389h-59l-152 401l-2 -1l-67 -543h-85l87 710h86l175 -459h2l286 459h85z" />
    <glyph glyph-name="uni04CE" unicode="&#x4ce;" horiz-adv-x="653" 
d="M587 68h32l-3 -15l-93 -187h-57l55 134q-69 11 -59 97l31 251h-1l-171 -262h-52l-103 267h-1l-44 -353h-77l60 487h80l121 -312h2l201 312h80l-43 -348q-5 -45 4.5 -57.5t37.5 -13.5z" />
    <glyph glyph-name="uni04CF" unicode="&#x4cf;" horiz-adv-x="236" 
d="M52 0l90 736h79l-90 -736h-79z" />
    <glyph glyph-name="uni04D0" unicode="&#x4d0;" horiz-adv-x="626" 
d="M381 778q-57 0 -91 31.5t-35 98.5l68 7q-1 -36 17 -58t50 -22q33 0 60.5 23t43.5 59l59 -16q-26 -63 -73 -93t-99 -30zM-3 0l328 710h90l155 -710h-89l-36 174h-281l-78 -174h-89zM197 249h233l-73 354h-2z" />
    <glyph glyph-name="uni04D1" unicode="&#x4d1;" horiz-adv-x="551" 
d="M330 554q-57 0 -91 33t-35 102l68 10q-1 -41 17 -64.5t51 -23.5t60.5 24.5t42.5 65.5l59 -19q-26 -66 -73 -97t-99 -31zM209 -6q-81 0 -124 55t-43 141q0 123 68.5 213t175.5 90q89 0 138 -52l2 1l6 44h79l-60 -486h-79l14 111l-3 1q-33 -56 -78.5 -87t-95.5 -31zM224 65
q65 0 119.5 72t67.5 179l6 50q-22 26 -58 39.5t-68 13.5q-75 0 -122 -69.5t-47 -161.5q0 -56 26.5 -89.5t75.5 -33.5z" />
    <glyph glyph-name="uni04D2" unicode="&#x4d2;" horiz-adv-x="626" 
d="M306 811q-24 0 -40 16t-16 40q0 25 17 41.5t42 16.5q23 0 39 -16t16 -40q0 -25 -16.5 -41.5t-41.5 -16.5zM477 811q-25 0 -41 16t-16 40q0 25 17 41.5t42 16.5q23 0 39 -16t16 -40q0 -25 -16.5 -41.5t-40.5 -16.5zM-3 0l328 710h90l155 -710h-89l-36 174h-281l-78 -174
h-89zM197 249h233l-73 354h-2z" />
    <glyph glyph-name="uni04D3" unicode="&#x4d3;" horiz-adv-x="551" 
d="M255 577q-24 0 -40 16t-16 40q0 25 17 41.5t42 16.5q23 0 39 -16t16 -40q0 -25 -16.5 -41.5t-41.5 -16.5zM426 577q-25 0 -41 16t-16 40q0 25 17 41.5t42 16.5q23 0 39 -16t16 -40q0 -25 -16.5 -41.5t-40.5 -16.5zM209 -6q-81 0 -124 55t-43 141q0 123 68.5 213t175.5 90
q89 0 138 -52l2 1l6 44h79l-60 -486h-79l14 111l-3 1q-33 -56 -78.5 -87t-95.5 -31zM224 65q65 0 119.5 72t67.5 179l6 50q-22 26 -58 39.5t-68 13.5q-75 0 -122 -69.5t-47 -161.5q0 -56 26.5 -89.5t75.5 -33.5z" />
    <glyph glyph-name="uni04D4" unicode="&#x4d4;" horiz-adv-x="858" 
d="M-23 0l424 710h444l-10 -77h-313l-30 -241h261l-10 -77h-260l-29 -238h331l-9 -77h-415l22 174h-209l-104 -174h-93zM216 249h176l45 370h-2z" />
    <glyph glyph-name="uni04D5" unicode="&#x4d5;" horiz-adv-x="693" 
d="M488 68q65 0 111 60l63 -45q-71 -88 -177 -88q-67 0 -111.5 32t-60.5 91q-23 -58 -62.5 -91.5t-87.5 -33.5q-63 0 -100.5 51t-35.5 130q2 126 73.5 219.5t185.5 93.5q75 0 123 -36q58 42 136 42q60 0 98.5 -33t38.5 -86q0 -82 -86.5 -131.5t-227.5 -60.5q4 -55 36 -84.5
t84 -29.5zM537 420q-60 0 -107 -49t-59 -127q104 11 167 44t63 83q0 24 -18.5 36.5t-45.5 12.5zM173 65q71 0 119 164q16 104 66 172q-26 13 -65 13q-85 0 -135 -76t-50 -172q0 -47 18.5 -74t46.5 -27z" />
    <glyph glyph-name="uni04D6" unicode="&#x4d6;" horiz-adv-x="559" 
d="M362 779q-57 0 -91 31.5t-35 98.5l68 7q-1 -36 17 -58t50 -22q33 0 60.5 23t43.5 59l59 -16q-26 -63 -73 -93t-99 -30zM63 0l87 710h396l-10 -77h-311l-29 -241h255l-10 -77h-255l-29 -238h330l-9 -77h-415z" />
    <glyph glyph-name="uni04D7" unicode="&#x4d7;" horiz-adv-x="472" 
d="M288 554q-57 0 -91 33t-35 102l68 10q-1 -41 17 -64.5t51 -23.5t60.5 24.5t42.5 65.5l59 -19q-26 -66 -73 -97t-99 -31zM447 366q0 -154 -325 -184q4 -54 37 -84.5t81 -30.5q69 0 125 61l63 -45q-42 -45 -86 -67t-105 -22q-89 0 -141.5 54t-52.5 148q0 124 70 210.5
t184 86.5q59 0 104.5 -32.5t45.5 -94.5zM125 248q241 21 241 114q0 30 -21.5 44t-51.5 14q-59 0 -107 -46t-61 -126z" />
    <glyph glyph-name="uni04D8" unicode="&#x4d8;" horiz-adv-x="718" 
d="M403 717q127 0 202 -78.5t75 -218.5q0 -115 -42 -211t-123.5 -155.5t-188.5 -59.5q-124 0 -199 78t-75 213q0 25 9 81h527q3 26 3 51q0 107 -53 163.5t-144 56.5q-104 0 -189 -70l-50 64q108 86 248 86zM331 74q86 0 150 60t92 156h-435v-3q0 -101 52.5 -157t140.5 -56z
" />
    <glyph glyph-name="uni04D9" unicode="&#x4d9;" horiz-adv-x="460" 
d="M232 493q86 0 139.5 -56.5t53.5 -152.5q0 -127 -68.5 -208.5t-189.5 -81.5q-66 0 -106.5 35.5t-40.5 92.5q0 49 28 85.5t77.5 58t103.5 33.5t118 16q-6 48 -37 76t-80 28q-65 0 -119 -45l-45 57q72 62 166 62zM173 67q73 0 117.5 50t54.5 131q-109 -9 -177 -39t-68 -84
q0 -27 20 -42.5t53 -15.5z" />
    <glyph glyph-name="uni04DA" unicode="&#x4da;" horiz-adv-x="718" 
d="M359 812q-24 0 -40 16t-16 40q0 25 17 41.5t42 16.5q23 0 39 -16t16 -40q0 -25 -16.5 -41.5t-41.5 -16.5zM530 812q-25 0 -41 16t-16 40q0 25 17 41.5t42 16.5q23 0 39 -16t16 -40q0 -25 -16.5 -41.5t-40.5 -16.5zM403 717q127 0 202 -78.5t75 -218.5q0 -115 -42 -211
t-123.5 -155.5t-188.5 -59.5q-124 0 -199 78t-75 213q0 25 9 81h527q3 26 3 51q0 107 -53 163.5t-144 56.5q-104 0 -189 -70l-50 64q108 86 248 86zM331 74q86 0 150 60t92 156h-435v-3q0 -101 52.5 -157t140.5 -56z" />
    <glyph glyph-name="uni04DB" unicode="&#x4db;" horiz-adv-x="460" 
d="M191 577q-24 0 -40 16t-16 40q0 25 17 41.5t42 16.5q23 0 39 -16t16 -40q0 -25 -16.5 -41.5t-41.5 -16.5zM362 577q-25 0 -41 16t-16 40q0 25 17 41.5t42 16.5q23 0 39 -16t16 -40q0 -25 -16.5 -41.5t-40.5 -16.5zM232 493q86 0 139.5 -56.5t53.5 -152.5
q0 -127 -68.5 -208.5t-189.5 -81.5q-66 0 -106.5 35.5t-40.5 92.5q0 49 28 85.5t77.5 58t103.5 33.5t118 16q-6 48 -37 76t-80 28q-65 0 -119 -45l-45 57q72 62 166 62zM173 67q73 0 117.5 50t54.5 131q-109 -9 -177 -39t-68 -84q0 -27 20 -42.5t53 -15.5z" />
    <glyph glyph-name="uni04DC" unicode="&#x4dc;" horiz-adv-x="851" 
d="M412 811q-24 0 -40 16t-16 40q0 25 17 41.5t42 16.5q23 0 39 -16t16 -40q0 -25 -16.5 -41.5t-41.5 -16.5zM583 811q-25 0 -41 16t-16 40q0 25 17 41.5t42 16.5q23 0 39 -16t16 -40q0 -25 -16.5 -41.5t-40.5 -16.5zM884 710l-263 -337l185 -373h-97l-155 319l-95 -116
l-25 -203h-82l26 207l-63 111l-232 -318h-98l275 376l-184 334h98l215 -395l2 1l48 394h82l-49 -394l3 -1l306 395h103z" />
    <glyph glyph-name="uni04DD" unicode="&#x4dd;" horiz-adv-x="709" 
d="M312 577q-24 0 -40 16t-16 40q0 25 17 41.5t42 16.5q23 0 39 -16t16 -40q0 -25 -16.5 -41.5t-41.5 -16.5zM483 577q-25 0 -41 16t-16 40q0 25 17 41.5t42 16.5q23 0 39 -16t16 -40q0 -25 -16.5 -41.5t-40.5 -16.5zM575 154q21 -53 38.5 -72t46.5 -25l-23 -62
q-12 -2 -22 0q-41 3 -64.5 35.5t-47.5 100.5l-22 59q-48 -33 -105 -54l-17 -136h-77l32 264l-1 1q-158 -76 -219 -265h-81q36 133 153 242l-31 91q-18 54 -36.5 72.5t-49.5 24.5l22 61q13 2 23 0q44 -4 70 -37t44 -98l20 -64q49 33 96 49l17 146h78l-34 -275l2 -1
q170 87 228 276h81q-38 -141 -154 -249z" />
    <glyph glyph-name="uni04DE" unicode="&#x4de;" horiz-adv-x="568" 
d="M271 811q-24 0 -40 16t-16 40q0 25 17 41.5t42 16.5q23 0 39 -16t16 -40q0 -25 -16.5 -41.5t-41.5 -16.5zM442 811q-25 0 -41 16t-16 40q0 25 17 41.5t42 16.5q23 0 39 -16t16 -40q0 -25 -16.5 -41.5t-40.5 -16.5zM265 -6q-79 0 -142.5 31t-98.5 84l63 57
q28 -45 75 -69.5t105 -24.5q73 0 115.5 38t42.5 106q0 117 -145 117h-99l10 74h91q70 0 112 36.5t42 94.5q0 49 -31 74t-87 25q-85 0 -154 -54l-52 64q90 70 216 70q87 0 141.5 -42t54.5 -118q0 -58 -33 -105.5t-92 -71.5v-1q54 -19 84.5 -61.5t30.5 -105.5
q0 -101 -67.5 -159.5t-181.5 -58.5z" />
    <glyph glyph-name="uni04DF" unicode="&#x4df;" horiz-adv-x="441" 
d="M179 577q-24 0 -40 16t-16 40q0 25 17 41.5t42 16.5q23 0 39 -16t16 -40q0 -25 -16.5 -41.5t-41.5 -16.5zM350 577q-25 0 -41 16t-16 40q0 25 17 41.5t42 16.5q23 0 39 -16t16 -40q0 -25 -16.5 -41.5t-40.5 -16.5zM190 -6q-106 0 -184 53l31 70q59 -51 156 -51
q52 0 84.5 25t32.5 65q0 30 -25 46t-69 15l-90 -1l9 62h68q52 1 85.5 25t33.5 61q0 29 -24.5 43t-58.5 14q-75 0 -139 -37l-28 65q79 44 173 44q64 0 110.5 -30t46.5 -87q0 -42 -28 -72.5t-69 -45.5v-1q41 -9 63.5 -36.5t22.5 -66.5q0 -76 -56 -118t-145 -42z" />
    <glyph glyph-name="uni04E0" unicode="&#x4e0;" horiz-adv-x="560" 
d="M266 -6q-79 0 -143 31t-99 84l63 57q58 -94 181 -94q72 0 114.5 37.5t42.5 102.5q0 71 -53 101.5t-155 30.5h-37l5 43l243 243l-1 3h-305l10 77h415l-8 -61l-235 -241v-1q99 -8 154.5 -56t55.5 -136q0 -103 -67 -162t-181 -59z" />
    <glyph glyph-name="uni04E1" unicode="&#x4e1;" horiz-adv-x="412" 
d="M390 487l-5 -41l-202 -217h2q75 0 127.5 -46t52.5 -132q0 -116 -70.5 -185.5t-184.5 -69.5q-96 0 -155 37l27 71q54 -35 130 -35t124.5 48.5t48.5 128.5q0 62 -39.5 94t-98.5 32q-35 0 -55 -7l-17 44l193 207l-1 2h-215l8 69h330z" />
    <glyph glyph-name="uni04E2" unicode="&#x4e2;" horiz-adv-x="696" 
d="M289 809l8 67h262l-8 -67h-262zM63 0l87 710h85l-69 -560h2l413 560h78l-86 -710h-85l67 549h-2l-412 -549h-78z" />
    <glyph glyph-name="uni04E3" unicode="&#x4e3;" horiz-adv-x="533" 
d="M202 596l8 69h262l-8 -69h-262zM213 -6q-156 0 -129 196l41 297h79l-39 -290q-9 -72 9.5 -101t61.5 -29q53 0 108.5 61t66.5 146l26 213h80l-60 -487h-79l13 110h-2q-30 -53 -76 -84.5t-100 -31.5z" />
    <glyph glyph-name="uni04E4" unicode="&#x4e4;" horiz-adv-x="696" 
d="M339 811q-24 0 -40 16t-16 40q0 25 17 41.5t42 16.5q23 0 39 -16t16 -40q0 -25 -16.5 -41.5t-41.5 -16.5zM510 811q-25 0 -41 16t-16 40q0 25 17 41.5t42 16.5q23 0 39 -16t16 -40q0 -25 -16.5 -41.5t-40.5 -16.5zM63 0l87 710h85l-69 -560h2l413 560h78l-86 -710h-85
l67 549h-2l-412 -549h-78z" />
    <glyph glyph-name="uni04E5" unicode="&#x4e5;" horiz-adv-x="533" 
d="M251 577q-24 0 -40 16t-16 40q0 25 17 41.5t42 16.5q23 0 39 -16t16 -40q0 -25 -16.5 -41.5t-41.5 -16.5zM422 577q-25 0 -41 16t-16 40q0 25 17 41.5t42 16.5q23 0 39 -16t16 -40q0 -25 -16.5 -41.5t-40.5 -16.5zM213 -6q-156 0 -129 196l41 297h79l-39 -290
q-9 -72 9.5 -101t61.5 -29q53 0 108.5 61t66.5 146l26 213h80l-60 -487h-79l13 110h-2q-30 -53 -76 -84.5t-100 -31.5z" />
    <glyph glyph-name="uni04E6" unicode="&#x4e6;" horiz-adv-x="760" 
d="M391 811q-24 0 -40 16t-16 40q0 25 17 41.5t42 16.5q23 0 39 -16t16 -40q0 -25 -16.5 -41.5t-41.5 -16.5zM562 811q-25 0 -41 16t-16 40q0 25 17 41.5t42 16.5q23 0 39 -16t16 -40q0 -25 -16.5 -41.5t-40.5 -16.5zM350 -6q-128 0 -204.5 79t-76.5 218q0 112 45 209
t130 157t192 60q128 0 205 -78.5t77 -218.5q0 -178 -101 -302t-267 -124zM356 74q79 0 143 48.5t97.5 126.5t33.5 168q0 108 -53.5 164t-149.5 56q-116 0 -192.5 -103.5t-76.5 -240.5q0 -106 53 -162.5t145 -56.5z" />
    <glyph glyph-name="uni04E7" unicode="&#x4e7;" horiz-adv-x="544" 
d="M239 577q-24 0 -40 16t-16 40q0 25 17 41.5t42 16.5q23 0 39 -16t16 -40q0 -25 -16.5 -41.5t-41.5 -16.5zM410 577q-25 0 -41 16t-16 40q0 25 17 41.5t42 16.5q23 0 39 -16t16 -40q0 -25 -16.5 -41.5t-40.5 -16.5zM244 -6q-93 0 -147 54t-54 150q0 122 70.5 208.5
t185.5 86.5q92 0 147 -52.5t55 -147.5q0 -130 -69 -214.5t-188 -84.5zM246 67q77 0 125.5 62t48.5 157q0 69 -36 101t-89 32q-75 0 -123.5 -62.5t-48.5 -149.5q0 -64 33 -102t90 -38z" />
    <glyph glyph-name="uni04E8" unicode="&#x4e8;" horiz-adv-x="759" 
d="M435 717q128 0 205 -78.5t77 -218.5q0 -115 -43.5 -211t-129 -155.5t-195.5 -59.5q-128 0 -204 79t-76 218q0 112 45 209t129.5 157t191.5 60zM426 639q-95 0 -164.5 -69.5t-94.5 -177.5h463q1 9 1 28q0 103 -53 161t-152 58zM355 72q99 0 170 68.5t95 178.5h-463
q-1 -9 -1 -26q0 -103 51.5 -162t147.5 -59z" />
    <glyph glyph-name="uni04E9" unicode="&#x4e9;" horiz-adv-x="536" 
d="M297 493q92 0 146.5 -53t54.5 -147q0 -130 -69 -214.5t-188 -84.5q-93 0 -147.5 54t-54.5 150q0 122 70.5 208.5t187.5 86.5zM292 423q-61 0 -105.5 -42t-61.5 -109l294 6v4q0 74 -36.5 107.5t-90.5 33.5zM243 64q62 0 106.5 41t61.5 108l-294 -5v-4q0 -64 33.5 -102
t92.5 -38z" />
    <glyph glyph-name="uni04EA" unicode="&#x4ea;" horiz-adv-x="759" 
d="M390 811q-24 0 -40 16t-16 40q0 25 17 41.5t42 16.5q23 0 39 -16t16 -40q0 -25 -16.5 -41.5t-41.5 -16.5zM561 811q-25 0 -41 16t-16 40q0 25 17 41.5t42 16.5q23 0 39 -16t16 -40q0 -25 -16.5 -41.5t-40.5 -16.5zM435 717q128 0 205 -78.5t77 -218.5q0 -115 -43.5 -211
t-129 -155.5t-195.5 -59.5q-128 0 -204 79t-76 218q0 112 45 209t129.5 157t191.5 60zM426 639q-95 0 -164.5 -69.5t-94.5 -177.5h463q1 9 1 28q0 103 -53 161t-152 58zM355 72q99 0 170 68.5t95 178.5h-463q-1 -9 -1 -26q0 -103 51.5 -162t147.5 -59z" />
    <glyph glyph-name="uni04EB" unicode="&#x4eb;" horiz-adv-x="536" 
d="M236 577q-24 0 -40 16t-16 40q0 25 17 41.5t42 16.5q23 0 39 -16t16 -40q0 -25 -16.5 -41.5t-41.5 -16.5zM407 577q-25 0 -41 16t-16 40q0 25 17 41.5t42 16.5q23 0 39 -16t16 -40q0 -25 -16.5 -41.5t-40.5 -16.5zM297 493q92 0 146.5 -53t54.5 -147q0 -130 -69 -214.5
t-188 -84.5q-93 0 -147.5 54t-54.5 150q0 122 70.5 208.5t187.5 86.5zM292 423q-61 0 -105.5 -42t-61.5 -109l294 6v4q0 74 -36.5 107.5t-90.5 33.5zM243 64q62 0 106.5 41t61.5 108l-294 -5v-4q0 -64 33.5 -102t92.5 -38z" />
    <glyph glyph-name="uni04EC" unicode="&#x4ec;" horiz-adv-x="664" 
d="M295 812q-24 0 -40 16t-16 40q0 25 17 41.5t42 16.5q23 0 39 -16t16 -40q0 -25 -16.5 -41.5t-41.5 -16.5zM466 812q-25 0 -41 16t-16 40q0 25 17 41.5t42 16.5q23 0 39 -16t16 -40q0 -25 -16.5 -41.5t-40.5 -16.5zM346 717q131 0 204 -80.5t73 -217.5q0 -180 -97 -302.5
t-261 -122.5t-240 118l67 55q54 -94 176 -94q96 0 165 68t91 179h-333l9 76h334v18q0 105 -52 164t-146 59q-93 0 -170 -69l-53 63q100 86 233 86z" />
    <glyph glyph-name="uni04ED" unicode="&#x4ed;" horiz-adv-x="479" 
d="M193 577q-24 0 -40 16t-16 40q0 25 17 41.5t42 16.5q23 0 39 -16t16 -40q0 -25 -16.5 -41.5t-41.5 -16.5zM364 577q-25 0 -41 16t-16 40q0 25 17 41.5t42 16.5q23 0 39 -16t16 -40q0 -25 -16.5 -41.5t-40.5 -16.5zM232 493q94 0 149 -53t55 -152q0 -127 -71 -210.5
t-190 -83.5q-111 0 -169 69l53 54q41 -50 120 -50q63 0 109 40t62 109l-241 -3l8 65l240 2v2q0 67 -33.5 102t-95.5 35q-70 0 -122 -43l-45 57q73 60 171 60z" />
    <glyph glyph-name="uni04EE" unicode="&#x4ee;" horiz-adv-x="591" 
d="M506 876l-8 -67h-262l8 67h262zM534 710h95l-279 -531q-53 -101 -79 -131q-47 -55 -114 -55q-28 0 -58 10.5t-45 26.5l27 71q31 -30 72 -30q34 0 59 29.5t61 97.5l-196 512h94l148 -424h3z" />
    <glyph glyph-name="uni04EF" unicode="&#x4ef;" horiz-adv-x="533" 
d="M447 665l-8 -69h-262l8 69h262zM414 487h78l-51 -424q-10 -79 -34.5 -133.5t-61 -82.5t-75 -39.5t-86.5 -11.5q-86 0 -161 44l26 70q69 -41 136 -41q73 0 118.5 42.5t59.5 157.5l5 40l-2 1q-69 -116 -179 -116q-77 0 -110 47t-19 149l40 297h79l-38 -290q-9 -72 9 -101
t62 -29q56 0 112.5 64.5t66.5 151.5z" />
    <glyph glyph-name="uni04F0" unicode="&#x4f0;" horiz-adv-x="591" 
d="M286 811q-24 0 -40 16t-16 40q0 25 17 41.5t42 16.5q23 0 39 -16t16 -40q0 -25 -16.5 -41.5t-41.5 -16.5zM457 811q-25 0 -41 16t-16 40q0 25 17 41.5t42 16.5q23 0 39 -16t16 -40q0 -25 -16.5 -41.5t-40.5 -16.5zM534 710h95l-279 -531q-53 -101 -79 -131
q-47 -55 -114 -55q-28 0 -58 10.5t-45 26.5l27 71q31 -30 72 -30q34 0 59 29.5t61 97.5l-196 512h94l148 -424h3z" />
    <glyph glyph-name="uni04F1" unicode="&#x4f1;" horiz-adv-x="533" 
d="M226 577q-24 0 -40 16t-16 40q0 25 17 41.5t42 16.5q23 0 39 -16t16 -40q0 -25 -16.5 -41.5t-41.5 -16.5zM397 577q-25 0 -41 16t-16 40q0 25 17 41.5t42 16.5q23 0 39 -16t16 -40q0 -25 -16.5 -41.5t-40.5 -16.5zM414 487h78l-51 -424q-10 -79 -34.5 -133.5t-61 -82.5
t-75 -39.5t-86.5 -11.5q-86 0 -161 44l26 70q69 -41 136 -41q73 0 118.5 42.5t59.5 157.5l5 40l-2 1q-69 -116 -179 -116q-77 0 -110 47t-19 149l40 297h79l-38 -290q-9 -72 9 -101t62 -29q56 0 112.5 64.5t66.5 151.5z" />
    <glyph glyph-name="uni04F2" unicode="&#x4f2;" horiz-adv-x="591" 
d="M453 933l-129 -142h-79l122 141zM483 791h-78l121 141l86 1zM534 710h95l-279 -531q-53 -101 -79 -131q-47 -55 -114 -55q-28 0 -58 10.5t-45 26.5l27 71q31 -30 72 -30q34 0 59 29.5t61 97.5l-196 512h94l148 -424h3z" />
    <glyph glyph-name="uni04F3" unicode="&#x4f3;" horiz-adv-x="533" 
d="M370 699l-129 -142h-79l122 141zM400 557h-78l121 141l86 1zM389 283l25 204h78l-51 -424q-10 -79 -34.5 -133.5t-61 -82.5t-75 -39.5t-86.5 -11.5q-86 0 -161 44l26 70q69 -41 136 -41q73 0 118.5 42.5t59.5 157.5l5 40l-2 1q-69 -116 -179 -116q-77 0 -110 47t-19 149
l40 297h79l-38 -290q-9 -72 9 -101t62 -29q56 0 112.5 64.5t66.5 151.5z" />
    <glyph glyph-name="uni04F4" unicode="&#x4f4;" horiz-adv-x="602" 
d="M296 811q-24 0 -40 16t-16 40q0 25 17 41.5t42 16.5q23 0 39 -16t16 -40q0 -25 -16.5 -41.5t-41.5 -16.5zM467 811q-25 0 -41 16t-16 40q0 25 17 41.5t42 16.5q23 0 39 -16t16 -40q0 -25 -16.5 -41.5t-40.5 -16.5zM497 710h85l-87 -710h-86l37 296q-38 -22 -90 -35
t-97 -13q-101 0 -138.5 53.5t-22.5 169.5l31 239h84l-30 -242q-10 -79 11 -110.5t86 -31.5q89 0 175 43z" />
    <glyph glyph-name="uni04F5" unicode="&#x4f5;" horiz-adv-x="500" 
d="M211 577q-24 0 -40 16t-16 40q0 25 17 41.5t42 16.5q23 0 39 -16t16 -40q0 -25 -16.5 -41.5t-41.5 -16.5zM382 577q-25 0 -41 16t-16 40q0 25 17 41.5t42 16.5q23 0 39 -16t16 -40q0 -25 -16.5 -41.5t-40.5 -16.5zM328 0l32 256h-2q-33 -48 -81 -75.5t-95 -27.5
q-69 0 -99 40t-19 118l25 176h79l-24 -171q-7 -49 9 -71t56 -22q52 1 105 52.5t61 109.5l13 101h80l-60 -486h-80z" />
    <glyph glyph-name="uni04F6" unicode="&#x4f6;" horiz-adv-x="519" 
d="M537 633h-311l-69 -556h92l-30 -217h-72l13 140h-97l87 710h397z" />
    <glyph glyph-name="uni04F7" unicode="&#x4f7;" horiz-adv-x="428" 
d="M274 -136l23 171l-1 1q-53 -41 -129 -41q-67 0 -103.5 31t-36.5 81q0 48 32 84t96 69l71 36q52 27 70 43t17 39q-2 43 -71 43q-62 0 -117 -44l-44 56q30 26 77 42.5t92 16.5q59 0 102 -26.5t43 -83.5q0 -28 -9 -50.5t-29 -39.5t-38.5 -28t-49.5 -26l-76 -39
q-84 -41 -84 -85q0 -49 76 -49q79 0 131 56l60 -42l-35 -215h-67z" />
    <glyph glyph-name="uni04F8" unicode="&#x4f8;" horiz-adv-x="820" 
d="M395 811q-24 0 -40 16t-16 40q0 25 17 41.5t42 16.5q23 0 39 -16t16 -40q0 -25 -16.5 -41.5t-41.5 -16.5zM566 811q-25 0 -41 16t-16 40q0 25 17 41.5t42 16.5q23 0 39 -16t16 -40q0 -25 -16.5 -41.5t-40.5 -16.5zM63 0l87 710h86l-34 -279h122q64 0 107.5 -17t63.5 -47
t28 -60.5t7 -68.5q-3 -116 -73.5 -177t-196.5 -61h-197zM612 0l87 710h86l-87 -710h-86zM158 77h109q81 0 127.5 40.5t46.5 117.5q1 63 -30.5 90.5t-99.5 27.5h-119z" />
    <glyph glyph-name="uni04F9" unicode="&#x4f9;" horiz-adv-x="660" 
d="M293 577q-24 0 -40 16t-16 40q0 25 17 41.5t42 16.5q23 0 39 -16t16 -40q0 -25 -16.5 -41.5t-41.5 -16.5zM464 577q-25 0 -41 16t-16 40q0 25 17 41.5t42 16.5q23 0 39 -16t16 -40q0 -25 -16.5 -41.5t-40.5 -16.5zM222 -7q-93 0 -133 52t-27 140l41 302h79l-28 -190l1 -1
q17 29 57.5 52.5t85.5 23.5q55 0 94 -38.5t39 -103.5q0 -101 -56 -169t-153 -68zM491 0l59 487h80l-60 -487h-79zM227 64q55 0 89 45t34 109q0 39 -23.5 61.5t-56.5 22.5q-47 0 -85.5 -35t-45.5 -87q-7 -53 15.5 -84.5t72.5 -31.5z" />
    <glyph glyph-name="uni04FA" unicode="&#x4fa;" horiz-adv-x="529" 
d="M548 633h-311l-32 -260h180l-9 -66h-179l-19 -150l-24 -199q-11 -87 -45.5 -123.5t-98.5 -36.5q-36 0 -65 7l12 71q18 -7 44 -7q33 0 48 25t22 84l40 329h-92l9 66h92l41 337h397z" />
    <glyph glyph-name="uni04FB" unicode="&#x4fb;" horiz-adv-x="428" 
d="M185 65q79 0 131 56l60 -42l-9 -79q-25 -204 -185 -204q-27 0 -50 8l13 63q15 -4 30 -4q52 0 81.5 33t39.5 117l3 25l-1 1q-58 -45 -131 -44q-67 0 -103.5 31t-36.5 81q0 82 119 136v1l-77 30l25 54l112 -43l20 10q51 26 69.5 43t17.5 40q-2 43 -71 43q-62 0 -117 -44
l-44 56q30 26 77 42.5t92 16.5q59 0 102 -26.5t43 -82.5q0 -25 -8 -44t-27 -34t-33.5 -23.5t-43.5 -22.5v-3l90 -35l-23 -55l-129 49l-29 -14q-83 -43 -83 -87q0 -49 76 -49z" />
    <glyph glyph-name="uni04FC" unicode="&#x4fc;" horiz-adv-x="584" 
d="M318 -202q-34 0 -66 8l11 73q26 -7 52 -7q53 0 89.5 37.5t36.5 87.5q0 31 -13.5 66.5t-49.5 99.5l-72 126h-3l-210 -289h-99l260 357l-168 353h96l137 -289h3l204 289h103l-258 -356l85 -148q74 -132 74 -204q0 -88 -59.5 -146t-152.5 -58z" />
    <glyph glyph-name="uni04FD" unicode="&#x4fd;" horiz-adv-x="458" 
d="M155 -204q-40 0 -73 9l19 66q17 -5 46 -5q77 0 124 33t46 98q-1 36 -21 76t-68 106h-2l-137 -179h-92l191 248l-130 239h92l90 -176h2l129 176h97l-187 -245q44 -64 63 -93t37 -72t18 -80q1 -90 -67.5 -145.5t-176.5 -55.5z" />
    <glyph glyph-name="uni04FE" unicode="&#x4fe;" horiz-adv-x="598" 
d="M520 315h-133l157 -315h-99l-139 291h-3l-210 -291h-99l233 315h-134l9 66h144l-160 329h96l137 -293h4l203 293h103l-241 -329h141z" />
    <glyph glyph-name="uni04FF" unicode="&#x4ff;" horiz-adv-x="463" 
d="M395 212l-101 -1l115 -211h-91l-92 182h-2l-136 -182h-91l165 211l-95 -1l8 55l106 1l-123 221h92l88 -183h3l131 183h96l-175 -221l109 1z" />
    <glyph glyph-name="uni0510" unicode="&#x510;" horiz-adv-x="554" 
d="M263 -6q-106 0 -162.5 50t-56.5 128q0 77 45.5 127t105.5 71v2q-39 24 -60.5 63.5t-21.5 86.5q0 89 65 142t167 53q138 0 209 -100l-63 -58q-60 78 -151 78q-64 -1 -102.5 -35.5t-38.5 -90.5q0 -49 31 -76.5t78 -27.5h106l-8 -74h-108q-69 0 -117 -44t-48 -108
q0 -47 35.5 -77t100.5 -30q112 0 188 99l62 -59q-94 -120 -256 -120z" />
    <glyph glyph-name="uni0511" unicode="&#x511;" horiz-adv-x="441" 
d="M195 -6q-75 0 -120 32.5t-45 93.5q0 48 31 85t78 51v2q-28 13 -47 39.5t-19 60.5q0 63 53.5 99t128.5 36q113 0 169 -48l-44 -60q-50 36 -123 36q-47 0 -75.5 -19.5t-28.5 -53.5q0 -33 27 -50.5t65 -18.5l74 -1l-6 -61l-89 1q-46 0 -79.5 -22t-33.5 -59q0 -34 25.5 -52.5
t70.5 -18.5q90 0 159 52l27 -70q-89 -54 -198 -54z" />
    <glyph glyph-name="uni0512" unicode="&#x512;" horiz-adv-x="681" 
d="M646 710l-84 -680l-5 -39q-13 -104 -63.5 -148.5t-135.5 -44.5q-36 0 -61 8l12 70q26 -7 47 -7q52 0 79.5 28.5t35.5 93.5l79 642h-217q-27 -170 -63 -333q-38 -165 -89.5 -235t-136.5 -70q-33 0 -56 9l13 71q12 -3 30 -3q55 0 92 62t69 197q40 173 69 379h385z" />
    <glyph glyph-name="uni0513" unicode="&#x513;" horiz-adv-x="519" 
d="M476 487l-60 -487q-25 -204 -184 -204q-27 0 -50 8l13 63q15 -4 29 -4q47 0 75.5 33.5t38.5 116.5l50 403h-75q-72 0 -91 -79l-32 -146q-45 -197 -158 -197q-28 0 -50 11l19 65q12 -4 22 -4q64 0 96 151q10 43 24 126q11 65 54.5 104.5t107.5 39.5h171z" />
    <glyph glyph-name="uni051A" unicode="&#x51a;" horiz-adv-x="777" 
d="M719 420q0 -176 -96 -295l71 -78l-56 -61l-72 81q-92 -73 -215 -73q-128 0 -204.5 79t-76.5 218q0 112 45 208.5t130 156.5t192 60q128 0 205 -78.5t77 -217.5zM357 74q85 0 152 56l-67 75l55 58l67 -73q67 97 67 227q0 107 -53.5 163t-149.5 56q-116 0 -192.5 -103
t-76.5 -240q0 -106 53 -162.5t145 -56.5z" />
    <glyph glyph-name="uni051B" unicode="&#x51b;" horiz-adv-x="552" 
d="M348 -198l39 311l-3 1q-33 -57 -79 -88.5t-95 -31.5q-81 0 -124.5 55t-43.5 141q0 123 68.5 213t175.5 90q88 0 138 -50l2 1l6 43h79l-84 -685h-79zM224 65q65 0 119.5 72.5t67.5 176.5l6 52q-22 27 -57.5 40.5t-68.5 13.5q-75 0 -121.5 -69.5t-46.5 -162.5
q0 -56 26.5 -89.5t74.5 -33.5z" />
    <glyph glyph-name="uni051C" unicode="&#x51c;" horiz-adv-x="933" 
d="M208 0l-116 710h89l86 -569h3l205 569h95l72 -559h2l221 559h92l-291 -710h-86l-74 571h-2l-210 -571h-86z" />
    <glyph glyph-name="uni051D" unicode="&#x51d;" horiz-adv-x="777" 
d="M209 -6q-148 0 -121 204l38 289h79l-36 -284q-18 -136 66 -136q44 0 92 54.5t60 153.5l26 212h80l-36 -287q-17 -133 61 -133q47 0 96 55.5t69 151.5q20 99 3 213h81q20 -122 -5 -236q-28 -128 -99.5 -192.5t-152.5 -64.5q-58 0 -92 31t-38 85h-2q-26 -51 -76.5 -83.5
t-92.5 -32.5z" />
    <glyph glyph-name="uni0524" unicode="&#x524;" horiz-adv-x="683" 
d="M639 77l-31 -217h-71l12 140h-97l78 633h-304l-78 -633h-85l87 710h475l-78 -633h92z" />
    <glyph glyph-name="uni0525" unicode="&#x525;" horiz-adv-x="588" 
d="M515 68h36l-34 -204h-66l17 135h-1q-108 0 -91 118l25 164q19 139 -67 139q-57 0 -114.5 -67t-69.5 -160l-23 -193h-80l60 487h79l-13 -110h2q79 116 184 116q154 0 123 -200l-22 -142q-7 -50 5 -66t50 -17z" />
    <glyph glyph-name="uni0528" unicode="&#x528;" horiz-adv-x="683" 
d="M562 710h85l-86 -710h-86l37 299h-327l-25 -201l-17 -140q-11 -87 -45.5 -123.5t-98.5 -36.5q-36 0 -65 7l12 71q18 -7 44 -7q33 0 48 25t22 84l90 732h85l-41 -334h327z" />
    <glyph glyph-name="uni0529" unicode="&#x529;" horiz-adv-x="544" 
d="M422 487h80l-60 -487h-80l25 204l-235 -2l-25 -202q-14 -109 -52 -156.5t-113 -47.5q-27 0 -50 8l13 63q15 -4 30 -4q42 0 62 29t30 108l60 487h80l-27 -216l236 1z" />
    <glyph glyph-name="uni052E" unicode="&#x52e;" horiz-adv-x="704" 
d="M660 77l-31 -217h-71l12 140h-97l77 633h-217q-27 -170 -63 -333q-38 -165 -89.5 -235t-136.5 -70q-33 0 -56 9l13 71q12 -3 30 -3q55 0 92 62t69 197q40 173 69 379h385l-78 -633h92z" />
    <glyph glyph-name="uni052F" unicode="&#x52f;" horiz-adv-x="559" 
d="M484 68h36l-34 -204h-66l17 135h-1q-104 0 -91 111l37 306h-68q-73 0 -92 -79q-7 -27 -17.5 -76.5t-14.5 -69.5q-45 -197 -158 -197q-28 0 -50 11l19 65q12 -4 22 -4q64 0 96 151q10 43 24 126q11 65 54.5 104.5t107.5 39.5h165l-40 -330q-7 -54 5 -71t49 -18z" />
    <glyph glyph-name="uni1E0C" unicode="&#x1e0c;" horiz-adv-x="681" 
d="M63 0l87 710h200q140 0 214 -77.5t74 -213.5q0 -188 -103 -303.5t-274 -115.5h-198zM158 77h111q126 0 203 95.5t77 245.5q0 100 -53 157.5t-152 57.5h-118zM265 -95q24 0 40 -16t16 -40q0 -25 -16.5 -41.5t-41.5 -16.5q-24 0 -40 16t-16 40q0 25 16.5 41.5t41.5 16.5z
" />
    <glyph glyph-name="uni1E0D" unicode="&#x1e0d;" horiz-adv-x="562" 
d="M210 -6q-81 0 -124 55t-43 141q0 122 68 212.5t176 90.5q89 0 141 -53l2 1l36 295h80l-91 -736h-79l14 113l-3 1q-70 -120 -177 -120zM224 65q67 0 122 72t68 179l7 50q-40 53 -129 53q-75 0 -122 -69.5t-47 -161.5q0 -56 26.5 -89.5t74.5 -33.5zM231 -95q24 0 40 -16
t16 -40q0 -25 -16.5 -41.5t-41.5 -16.5q-24 0 -40 16t-16 40q0 25 16.5 41.5t41.5 16.5z" />
    <glyph glyph-name="uni1E0E" unicode="&#x1e0e;" horiz-adv-x="681" 
d="M63 0l87 710h200q140 0 214 -77.5t74 -213.5q0 -188 -103 -303.5t-274 -115.5h-198zM158 77h111q126 0 203 95.5t77 245.5q0 100 -53 157.5t-152 57.5h-118zM130 -194l8 69h262l-8 -69h-262z" />
    <glyph glyph-name="uni1E0F" unicode="&#x1e0f;" horiz-adv-x="562" 
d="M210 -6q-81 0 -124 55t-43 141q0 122 68 212.5t176 90.5q89 0 141 -53l2 1l36 295h80l-91 -736h-79l14 113l-3 1q-70 -120 -177 -120zM224 65q67 0 122 72t68 179l7 50q-40 53 -129 53q-75 0 -122 -69.5t-47 -161.5q0 -56 26.5 -89.5t74.5 -33.5zM96 -194l8 69h262
l-8 -69h-262z" />
    <glyph glyph-name="uni1E20" unicode="&#x1e20;" horiz-adv-x="706" 
d="M321 809l8 67h262l-8 -67h-262zM354 -6q-129 0 -206.5 78t-77.5 219q0 175 102.5 300.5t258.5 125.5q152 0 237 -118l-70 -53q-64 89 -170 89q-116 0 -192.5 -100.5t-76.5 -241.5q0 -103 52 -162t147 -59t173 60l20 156h-180l11 77h264l-33 -282q-50 -42 -119 -65.5
t-140 -23.5z" />
    <glyph glyph-name="uni1E21" unicode="&#x1e21;" horiz-adv-x="554" 
d="M199 596l8 69h262l-8 -69h-262zM190 -204q-88 0 -161 44l26 70q67 -41 139 -41q80 0 126 42t61 158l8 61l-2 1q-35 -57 -80.5 -89.5t-96.5 -32.5q-81 0 -124 55t-43 141q0 113 68.5 200.5t175.5 87.5q89 0 139 -52l1 1l6 45h79l-52 -424q-10 -79 -34.5 -133t-61.5 -82.5
t-78.5 -40t-95.5 -11.5zM224 81q63 0 117.5 65.5t67.5 157.5l8 62q-22 26 -57.5 39.5t-67.5 13.5q-75 0 -122 -66.5t-47 -148.5q0 -56 26.5 -89.5t74.5 -33.5z" />
    <glyph glyph-name="uni1E24" unicode="&#x1e24;" horiz-adv-x="683" 
d="M63 0l87 710h85l-41 -334h327l41 334h85l-86 -710h-86l37 299h-327l-37 -299h-85zM297 -95q24 0 40 -16t16 -40q0 -25 -16.5 -41.5t-41.5 -16.5q-24 0 -40 16t-16 40q0 25 16.5 41.5t41.5 16.5z" />
    <glyph glyph-name="uni1E25" unicode="&#x1e25;" horiz-adv-x="548" 
d="M47 0l90 736h79l-44 -361h2q37 56 88 87t105 31q74 0 103.5 -49t16.5 -151l-39 -293h-80l39 287q10 70 -6.5 101.5t-58.5 31.5q-60 0 -120.5 -68.5t-71.5 -161.5l-24 -190h-79zM233 -95q24 0 40 -16t16 -40q0 -25 -16.5 -41.5t-41.5 -16.5q-24 0 -40 16t-16 40
q0 25 16.5 41.5t41.5 16.5z" />
    <glyph glyph-name="uni1E2A" unicode="&#x1e2a;" horiz-adv-x="683" 
d="M63 0l87 710h85l-41 -334h327l41 334h85l-86 -710h-86l37 299h-327l-37 -299h-85zM292 -219q-62 0 -92 36.5t-25 104.5l63 -1q-7 -78 56 -78q33 0 56 22.5t30 56.5l63 -1q-12 -65 -52.5 -102.5t-98.5 -37.5z" />
    <glyph glyph-name="uni1E2B" unicode="&#x1e2b;" horiz-adv-x="548" 
d="M47 0l90 736h79l-44 -361h2q37 56 88 87t105 31q74 0 103.5 -49t16.5 -151l-39 -293h-80l39 287q10 70 -6.5 101.5t-58.5 31.5q-60 0 -120.5 -68.5t-71.5 -161.5l-24 -190h-79zM228 -219q-62 0 -92 36.5t-25 104.5l63 -1q-7 -78 56 -78q33 0 56 22.5t30 56.5l63 -1
q-12 -65 -52.5 -102.5t-98.5 -37.5z" />
    <glyph glyph-name="uni1E30" unicode="&#x1e30;" horiz-adv-x="604" 
d="M509 911l-130 -129h-81l119 129h92zM631 710l-277 -319l195 -391h-98l-160 328l-119 -136l-24 -192h-85l87 710h85l-48 -387l3 -1l334 388h107z" />
    <glyph glyph-name="uni1E31" unicode="&#x1e31;" horiz-adv-x="498" 
d="M420 -5q-12 -2 -23 0q-18 2 -32.5 10.5t-23 16t-20.5 30.5t-17 34t-19 45l-24 55q-58 -46 -123 -77l-12 -109h-79l90 736h79l-66 -539l2 -1q92 54 155 131.5t88 159.5h81q-32 -134 -153 -250l35 -83q22 -54 39 -72.5t46 -24.5zM252 557l121 141l90 1l-128 -142h-83z" />
    <glyph glyph-name="uni1E36" unicode="&#x1e36;" horiz-adv-x="526" 
d="M63 0l87 710h85l-77 -633h313l-9 -77h-399zM246 -95q24 0 40 -16t16 -40q0 -25 -16.5 -41.5t-41.5 -16.5q-24 0 -40 16t-16 40q0 25 16.5 41.5t41.5 16.5z" />
    <glyph glyph-name="uni1E37" unicode="&#x1e37;" horiz-adv-x="236" 
d="M52 0l90 736h79l-90 -736h-79zM77 -95q24 0 40 -16t16 -40q0 -25 -16.5 -41.5t-41.5 -16.5q-24 0 -40 16t-16 40q0 25 16.5 41.5t41.5 16.5z" />
    <glyph glyph-name="uni1E38" unicode="&#x1e38;" horiz-adv-x="526" 
d="M220 809l8 67h262l-8 -67h-262zM63 0l87 710h85l-77 -633h313l-9 -77h-399zM246 -95q24 0 40 -16t16 -40q0 -25 -16.5 -41.5t-41.5 -16.5q-24 0 -40 16t-16 40q0 25 16.5 41.5t41.5 16.5z" />
    <glyph glyph-name="uni1E39" unicode="&#x1e39;" horiz-adv-x="236" 
d="M63 822l8 67h262l-8 -67h-262zM52 0l90 736h79l-90 -736h-79zM71 -95q24 0 40 -16t16 -40q0 -25 -16.5 -41.5t-41.5 -16.5q-24 0 -40 16t-16 40q0 25 16.5 41.5t41.5 16.5z" />
    <glyph glyph-name="uni1E3A" unicode="&#x1e3a;" horiz-adv-x="526" 
d="M63 0l87 710h85l-77 -633h313l-9 -77h-399zM111 -194l8 69h262l-8 -69h-262z" />
    <glyph glyph-name="uni1E3B" unicode="&#x1e3b;" horiz-adv-x="236" 
d="M52 0l90 736h79l-90 -736h-79zM-58 -194l8 69h262l-8 -69h-262z" />
    <glyph glyph-name="uni1E42" unicode="&#x1e42;" horiz-adv-x="820" 
d="M63 0l87 710h86l175 -459h2l286 459h85l-87 -710h-85l64 531l-3 1l-245 -389h-59l-152 401l-2 -1l-67 -543h-85zM360 -95q24 0 40 -16t16 -40q0 -25 -16.5 -41.5t-41.5 -16.5q-24 0 -40 16t-16 40q0 25 16.5 41.5t41.5 16.5z" />
    <glyph glyph-name="uni1E43" unicode="&#x1e43;" horiz-adv-x="825" 
d="M47 0l61 487h79l-13 -106l2 -1q36 54 81.5 83.5t92.5 29.5q104 0 117 -111h3q73 111 179 111q143 0 117 -200l-39 -293h-80l39 287q17 133 -59 133q-50 0 -106 -65t-69 -160l-26 -195h-79l38 287q18 133 -58 133q-51 0 -108 -68.5t-68 -159.5l-24 -192h-80zM368 -95
q24 0 40 -16t16 -40q0 -25 -16.5 -41.5t-41.5 -16.5q-24 0 -40 16t-16 40q0 25 16.5 41.5t41.5 16.5z" />
    <glyph glyph-name="uni1E44" unicode="&#x1e44;" horiz-adv-x="709" 
d="M438 811q-24 0 -40 16t-16 40q0 25 16.5 41.5t41.5 16.5q24 0 40 -16t16 -40q0 -25 -16.5 -41.5t-41.5 -16.5zM63 0l87 710h85l281 -565l3 1l69 564h86l-88 -710h-86l-281 560h-2l-69 -560h-85z" />
    <glyph glyph-name="uni1E45" unicode="&#x1e45;" horiz-adv-x="548" 
d="M338 577q-24 0 -40 16t-16 40q0 25 16.5 41.5t41.5 16.5q24 0 40 -16t16 -40q0 -25 -16.5 -41.5t-41.5 -16.5zM47 0l60 487h79l-13 -110l2 -1q38 56 88 86.5t104 30.5q74 0 103.5 -49t16.5 -151l-39 -293h-79l38 287q10 70 -6.5 101.5t-58.5 31.5q-59 0 -120 -67.5
t-72 -160.5l-24 -192h-79z" />
    <glyph glyph-name="uni1E46" unicode="&#x1e46;" horiz-adv-x="709" 
d="M63 0l87 710h85l281 -565l3 1l69 564h86l-88 -710h-86l-281 560h-2l-69 -560h-85zM313 -95q24 0 40 -16t16 -40q0 -25 -16.5 -41.5t-41.5 -16.5q-24 0 -40 16t-16 40q0 25 16.5 41.5t41.5 16.5z" />
    <glyph glyph-name="uni1E47" unicode="&#x1e47;" horiz-adv-x="548" 
d="M47 0l60 487h79l-13 -110l2 -1q38 56 88 86.5t104 30.5q74 0 103.5 -49t16.5 -151l-39 -293h-79l38 287q10 70 -6.5 101.5t-58.5 31.5q-59 0 -120 -67.5t-72 -160.5l-24 -192h-79zM234 -95q24 0 40 -16t16 -40q0 -25 -16.5 -41.5t-41.5 -16.5q-24 0 -40 16t-16 40
q0 25 16.5 41.5t41.5 16.5z" />
    <glyph glyph-name="uni1E48" unicode="&#x1e48;" horiz-adv-x="709" 
d="M63 0l87 710h85l281 -565l3 1l69 564h86l-88 -710h-86l-281 560h-2l-69 -560h-85zM178 -194l8 69h262l-8 -69h-262z" />
    <glyph glyph-name="uni1E49" unicode="&#x1e49;" horiz-adv-x="548" 
d="M47 0l60 487h79l-13 -110l2 -1q38 56 88 86.5t104 30.5q74 0 103.5 -49t16.5 -151l-39 -293h-79l38 287q10 70 -6.5 101.5t-58.5 31.5q-59 0 -120 -67.5t-72 -160.5l-24 -192h-79zM99 -194l8 69h262l-8 -69h-262z" />
    <glyph glyph-name="uni1E5A" unicode="&#x1e5a;" horiz-adv-x="609" 
d="M63 0l87 710h232q187 0 187 -182q0 -95 -46.5 -159t-132.5 -85l137 -284h-96l-127 272h-123l-33 -272h-85zM191 350h124q77 0 121.5 47.5t44.5 130.5q0 50 -32 77.5t-85 27.5h-138zM262 -95q24 0 40 -16t16 -40q0 -25 -16.5 -41.5t-41.5 -16.5q-24 0 -40 16t-16 40
q0 25 16.5 41.5t41.5 16.5z" />
    <glyph glyph-name="uni1E5B" unicode="&#x1e5b;" horiz-adv-x="327" 
d="M47 0l61 487h79l-14 -109h2q65 103 165 115l-10 -93q-72 4 -119.5 -53.5t-59.5 -153.5l-24 -193h-80zM74 -95q24 0 40 -16t16 -40q0 -25 -16.5 -41.5t-41.5 -16.5q-24 0 -40 16t-16 40q0 25 16.5 41.5t41.5 16.5z" />
    <glyph glyph-name="uni1E5C" unicode="&#x1e5c;" horiz-adv-x="609" 
d="M242 809l8 67h262l-8 -67h-262zM63 0l87 710h232q187 0 187 -182q0 -95 -46.5 -159t-132.5 -85l137 -284h-96l-127 272h-123l-33 -272h-85zM191 350h124q77 0 121.5 47.5t44.5 130.5q0 50 -32 77.5t-85 27.5h-138zM262 -95q24 0 40 -16t16 -40q0 -25 -16.5 -41.5
t-41.5 -16.5q-24 0 -40 16t-16 40q0 25 16.5 41.5t41.5 16.5z" />
    <glyph glyph-name="uni1E5D" unicode="&#x1e5d;" horiz-adv-x="327" 
d="M117 596l8 69h262l-8 -69h-262zM47 0l61 487h79l-14 -109h2q65 103 165 115l-10 -93q-72 4 -119.5 -53.5t-59.5 -153.5l-24 -193h-80zM74 -95q24 0 40 -16t16 -40q0 -25 -16.5 -41.5t-41.5 -16.5q-24 0 -40 16t-16 40q0 25 16.5 41.5t41.5 16.5z" />
    <glyph glyph-name="uni1E5E" unicode="&#x1e5e;" horiz-adv-x="609" 
d="M63 0l87 710h232q187 0 187 -182q0 -95 -46.5 -159t-132.5 -85l137 -284h-96l-127 272h-123l-33 -272h-85zM191 350h124q77 0 121.5 47.5t44.5 130.5q0 50 -32 77.5t-85 27.5h-138zM127 -194l8 69h262l-8 -69h-262z" />
    <glyph glyph-name="uni1E5F" unicode="&#x1e5f;" horiz-adv-x="327" 
d="M47 0l61 487h79l-14 -109h2q65 103 165 115l-10 -93q-72 4 -119.5 -53.5t-59.5 -153.5l-24 -193h-80zM-61 -194l8 69h262l-8 -69h-262z" />
    <glyph glyph-name="uni1E60" unicode="&#x1e60;" horiz-adv-x="551" 
d="M343 811q-24 0 -40 16t-16 40q0 25 16.5 41.5t41.5 16.5q24 0 40 -16t16 -40q0 -25 -16.5 -41.5t-41.5 -16.5zM260 -6q-71 0 -133.5 31t-98.5 86l64 58q27 -47 71 -71.5t93 -24.5q65 0 106 34.5t41 88.5q0 13 -3 23.5t-12 21t-14.5 17t-22 17.5t-24 15.5t-30.5 17
t-31 17.5q-5 3 -14 8q-39 22 -59.5 35.5t-48 37.5t-40 52.5t-12.5 63.5q0 87 63 141t159 54q122 0 200 -95l-63 -55q-53 72 -143 72q-56 0 -92 -30.5t-35 -76.5q0 -21 8 -37.5t28.5 -33t35.5 -26.5t50 -30q7 -4 39 -21.5t41 -23t33 -21.5t32.5 -27t21.5 -28t17.5 -36
t4.5 -41q0 -100 -65 -156.5t-167 -56.5z" />
    <glyph glyph-name="uni1E61" unicode="&#x1e61;" horiz-adv-x="415" 
d="M257 577q-24 0 -40 16t-16 40q0 25 16.5 41.5t41.5 16.5q24 0 40 -16t16 -40q0 -25 -16.5 -41.5t-41.5 -16.5zM185 -6q-53 0 -98.5 20.5t-73.5 57.5l53 53q50 -61 119 -61q43 0 70.5 18.5t27.5 50.5q0 18 -14 33t-27 21.5t-49 22.5q-9 4 -13 6q-56 24 -87.5 56t-31.5 81
q0 62 47 101t114 39q99 0 157 -66l-53 -54q-42 50 -106 50q-34 0 -56 -18t-22 -48q0 -24 22 -42t65 -38q75 -35 99 -57q35 -33 36 -78q0 -71 -49.5 -109.5t-129.5 -38.5z" />
    <glyph glyph-name="uni1E62" unicode="&#x1e62;" horiz-adv-x="551" 
d="M260 -6q-71 0 -133.5 31t-98.5 86l64 58q27 -47 71 -71.5t93 -24.5q65 0 106 34.5t41 88.5q0 13 -3 23.5t-12 21t-14.5 17t-22 17.5t-24 15.5t-30.5 17t-31 17.5q-5 3 -14 8q-39 22 -59.5 35.5t-48 37.5t-40 52.5t-12.5 63.5q0 87 63 141t159 54q122 0 200 -95l-63 -55
q-53 72 -143 72q-56 0 -92 -30.5t-35 -76.5q0 -21 8 -37.5t28.5 -33t35.5 -26.5t50 -30q7 -4 39 -21.5t41 -23t33 -21.5t32.5 -27t21.5 -28t17.5 -36t4.5 -41q0 -100 -65 -156.5t-167 -56.5zM239 -95q24 0 40 -16t16 -40q0 -25 -16.5 -41.5t-41.5 -16.5q-24 0 -40 16t-16 40
q0 25 16.5 41.5t41.5 16.5z" />
    <glyph glyph-name="uni1E63" unicode="&#x1e63;" horiz-adv-x="415" 
d="M185 -6q-53 0 -98.5 20.5t-73.5 57.5l53 53q50 -61 119 -61q43 0 70.5 18.5t27.5 50.5q0 18 -14 33t-27 21.5t-49 22.5q-9 4 -13 6q-56 24 -87.5 56t-31.5 81q0 62 47 101t114 39q99 0 157 -66l-53 -54q-42 50 -106 50q-34 0 -56 -18t-22 -48q0 -24 22 -42t65 -38
q75 -35 99 -57q35 -33 36 -78q0 -71 -49.5 -109.5t-129.5 -38.5zM161 -95q24 0 40 -16t16 -40q0 -25 -16.5 -41.5t-41.5 -16.5q-24 0 -40 16t-16 40q0 25 16.5 41.5t41.5 16.5z" />
    <glyph glyph-name="uni1E6C" unicode="&#x1e6c;" horiz-adv-x="529" 
d="M192 0l77 633h-190l9 77h467l-9 -77h-192l-77 -633h-85zM218 -95q24 0 40 -16t16 -40q0 -25 -16.5 -41.5t-41.5 -16.5q-24 0 -40 16t-16 40q0 25 16.5 41.5t41.5 16.5z" />
    <glyph glyph-name="uni1E6D" unicode="&#x1e6d;" horiz-adv-x="335" 
d="M163 -6q-57 0 -80.5 37t-15.5 102l35 285h-54l7 69h55l21 160l80 15l-21 -175h137l-7 -69h-138l-34 -272q-9 -76 41 -76q37 0 80 29l11 -71q-53 -34 -117 -34zM142 -95q24 0 40 -16t16 -40q0 -25 -16.5 -41.5t-41.5 -16.5q-24 0 -40 16t-16 40q0 25 16.5 41.5t41.5 16.5z
" />
    <glyph glyph-name="uni1E6E" unicode="&#x1e6e;" horiz-adv-x="529" 
d="M192 0l77 633h-190l9 77h467l-9 -77h-192l-77 -633h-85zM82 -194l8 69h262l-8 -69h-262z" />
    <glyph glyph-name="uni1E6F" unicode="&#x1e6f;" horiz-adv-x="335" 
d="M163 -6q-57 0 -80.5 37t-15.5 102l35 285h-54l7 69h55l21 160l80 15l-21 -175h137l-7 -69h-138l-34 -272q-9 -76 41 -76q37 0 80 29l11 -71q-53 -34 -117 -34zM7 -194l8 69h262l-8 -69h-262z" />
    </font>
</defs>
</svg>
