<svg xmlns="http://www.w3.org/2000/svg" viewBox="0 0 462.7 202.1">
  <defs>
    <style>
      .a {
        fill: #919191;
      }

      .b {
        fill: #ecc23a;
      }

      .c {
        fill: #2691e1;
      }

      .d {
        fill: #fc595c;
      }

      .e {
        fill: #7ed35a;
      }

      .f {
        fill: #b1b9c4;
      }

      .g {
        fill: #7693d7;
      }

      .h {
        fill: #fff;
      }

      .i {
        fill: none;
        stroke: #919191;
        stroke-miterlimit: 10;
      }
    </style>
  </defs>
  <title>dg-1</title>
  <g>
    <g>
      <path class="a" d="M.6,49.9v-.7l.9-.8c2.1-2.1,3.1-3.2,3.1-4.5A1.5,1.5,0,0,0,3,42.3a2.7,2.7,0,0,0-1.8.7l-.4-.8a3.7,3.7,0,0,1,2.4-.9,2.4,2.4,0,0,1,2.6,2.5c0,1.6-1.2,2.8-2.9,4.5l-.7.7H6v.9Z"/>
      <path class="a" d="M12.3,42.4H9.1l-.4,2.2h.7a4.1,4.1,0,0,1,1.9.4,2.6,2.6,0,0,1,1.2,2.2,3,3,0,0,1-3.2,2.9,4.9,4.9,0,0,1-2.1-.5l.3-.9a3.9,3.9,0,0,0,1.8.5,1.9,1.9,0,0,0,2-1.9c0-1.1-.7-1.8-2.4-1.8H7.7l.6-4h4Z"/>
      <path class="a" d="M17.5,49.9V47.6h-4v-.7l3.8-5.4h1.2v5.2h1.2v.9H18.5v2.3Zm0-3.2V42.6h0l-.7,1.2-2.1,2.9h2.8Z"/>
      <path class="a" d="M26.2,40.9a8.4,8.4,0,0,0-1.6,5.3,9,9,0,0,0,1.6,5.3h-.9a8.5,8.5,0,0,1-1.7-5.3,8.7,8.7,0,0,1,1.7-5.3Z"/>
      <path class="a" d="M27,49.9v-.7l.9-.8c2.2-2.1,3.2-3.2,3.2-4.5a1.5,1.5,0,0,0-1.7-1.6,3,3,0,0,0-1.8.7l-.4-.8a3.9,3.9,0,0,1,2.4-.9,2.4,2.4,0,0,1,2.6,2.5c0,1.6-1.1,2.8-2.9,4.5l-.7.7h3.8v.9Z"/>
      <path class="a" d="M39.2,41.5v.7l-3.7,7.7H34.3L38,42.5H33.9v-.9Z"/>
      <path class="a" d="M44.2,43.9c0,1.7-.9,2.6-2,2.6s-2-.8-2-2.5.9-2.7,2-2.7S44.2,42.3,44.2,43.9Zm-3.1,0c0,1.1.4,1.9,1.1,1.9s1.1-.8,1.1-1.9S43,42,42.2,42,41.1,42.9,41.1,43.9Zm1,6.2L47,41.3h.8l-5,8.8Zm7.6-2.7c0,1.7-1,2.6-2,2.6s-2-.8-2-2.5.9-2.7,2-2.7S49.7,45.7,49.7,47.4Zm-3.1,0c0,1.1.4,1.9,1.1,1.9s1.1-.8,1.1-1.9-.3-1.9-1.1-1.9S46.6,46.4,46.6,47.4Z"/>
      <path class="a" d="M50.3,51.5A8.4,8.4,0,0,0,52,46.2a8.4,8.4,0,0,0-1.7-5.3h.9a7.9,7.9,0,0,1,1.7,5.3,7.9,7.9,0,0,1-1.7,5.3Z"/>
    </g>
    <g>
      <path class="a" d="M.6,186.4v-.7l.9-.9c2.1-2,3.1-3.1,3.1-4.4A1.5,1.5,0,0,0,3,178.7a2.4,2.4,0,0,0-1.8.8l-.4-.9a4.3,4.3,0,0,1,2.4-.8,2.4,2.4,0,0,1,2.6,2.4c0,1.6-1.2,2.9-2.9,4.6l-.7.6H6v1Z"/>
      <path class="a" d="M7.5,185.1a4.3,4.3,0,0,0,1.9.5c1.5,0,1.9-.9,1.9-1.6s-1.1-1.7-2.2-1.7H8.5v-.9h.6c.9,0,1.9-.4,1.9-1.4s-.4-1.3-1.5-1.3a3.2,3.2,0,0,0-1.7.6l-.3-.9a4.5,4.5,0,0,1,2.3-.6,2.1,2.1,0,0,1,2.4,2,2.2,2.2,0,0,1-1.6,2h0a2.3,2.3,0,0,1,1.9,2.2c0,1.3-1.1,2.5-3.1,2.5a5.5,5.5,0,0,1-2.2-.5Z"/>
      <path class="a" d="M17.5,186.4v-2.3h-4v-.8l3.8-5.4h1.2v5.3h1.2v.9H18.5v2.3Zm0-3.2V179h0l-.7,1.3-2.1,2.9h2.8Z"/>
      <path class="a" d="M26.2,177.4a8,8,0,0,0-1.6,5.3,9,9,0,0,0,1.6,5.3h-.9a8.7,8.7,0,0,1-1.7-5.3,8.5,8.5,0,0,1,1.7-5.3Z"/>
      <path class="a" d="M27,186.4v-.7l.9-.9c2.2-2,3.2-3.1,3.2-4.4a1.5,1.5,0,0,0-1.7-1.7,2.5,2.5,0,0,0-1.8.8l-.4-.9a4.6,4.6,0,0,1,2.4-.8,2.3,2.3,0,0,1,2.6,2.4c0,1.6-1.1,2.9-2.9,4.6l-.7.6h3.8v1Z"/>
      <path class="a" d="M38.8,178.9H35.5l-.3,2.2h.7a3.7,3.7,0,0,1,1.8.5,2.2,2.2,0,0,1,1.2,2.1,2.9,2.9,0,0,1-3.1,2.9,3.8,3.8,0,0,1-2.1-.5l.3-.9a3.5,3.5,0,0,0,1.8.5,1.9,1.9,0,0,0,2-1.8c0-1.1-.8-1.9-2.5-1.9H34.2l.5-4.1h4.1Z"/>
      <path class="a" d="M44.2,180.3c0,1.8-.9,2.7-2,2.7s-2-.9-2-2.6.9-2.6,2-2.6S44.2,178.7,44.2,180.3Zm-3.1.1c0,1.1.4,1.9,1.1,1.9s1.1-.8,1.1-1.9-.3-1.9-1.1-1.9S41.1,179.3,41.1,180.4Zm1,6.1,4.9-8.7h.8l-5,8.7Zm7.6-2.7c0,1.8-1,2.7-2,2.7s-2-.9-2-2.6.9-2.6,2-2.6S49.7,182.2,49.7,183.8Zm-3.1.1c0,1.1.4,1.9,1.1,1.9s1.1-.8,1.1-1.9-.3-1.9-1.1-1.9S46.6,182.8,46.6,183.9Z"/>
      <path class="a" d="M50.3,188a8.5,8.5,0,0,0,1.7-5.4,7.9,7.9,0,0,0-1.7-5.2h.9a7.7,7.7,0,0,1,1.7,5.3,8.1,8.1,0,0,1-1.7,5.3Z"/>
    </g>
    <g>
      <path class="a" d="M412.8,179h0l-1.5.8-.2-.9,1.8-1h1v8.5h-1.1Z"/>
      <path class="a" d="M422,178.9h-3.2l-.3,2.2h.7a3.7,3.7,0,0,1,1.8.5,2.4,2.4,0,0,1,1.2,2.1,2.9,2.9,0,0,1-3.2,2.9,3.8,3.8,0,0,1-2.1-.5l.3-.9a4.3,4.3,0,0,0,1.8.5,1.8,1.8,0,0,0,2-1.8c0-1.1-.7-1.9-2.4-1.9h-1.2l.6-4.1h4Z"/>
      <path class="a" d="M423.5,184.2a2.4,2.4,0,0,1,1.7-2.2h0a2,2,0,0,1-1.3-1.9,2.3,2.3,0,0,1,2.6-2.2,2.1,2.1,0,0,1,2.4,2.1,1.9,1.9,0,0,1-1.4,1.9h0a2.3,2.3,0,0,1,1.8,2.2,2.6,2.6,0,0,1-2.9,2.4C424.6,186.5,423.5,185.5,423.5,184.2Zm4.6,0c0-1-.7-1.5-1.9-1.9a1.9,1.9,0,0,0-1.5,1.8,1.6,1.6,0,0,0,1.7,1.6A1.5,1.5,0,0,0,428.1,184.2Zm-3.2-4.2c0,.8.7,1.3,1.7,1.5a1.5,1.5,0,0,0,1.2-1.5,1.3,1.3,0,0,0-1.4-1.4A1.4,1.4,0,0,0,424.9,180Z"/>
      <path class="a" d="M435.9,177.4a8.6,8.6,0,0,0-1.6,5.3,9,9,0,0,0,1.6,5.3H435a8.7,8.7,0,0,1-1.7-5.3,8.5,8.5,0,0,1,1.7-5.3Z"/>
      <path class="a" d="M439.2,179h0l-1.4.8-.3-.9,1.9-1h1v8.5h-1.2Z"/>
      <path class="a" d="M448.9,177.9v.8l-3.7,7.7h-1.1l3.6-7.5h-4.1v-1Z"/>
      <path class="a" d="M453.9,180.3c0,1.8-.9,2.7-2,2.7s-2-.9-2-2.6.9-2.6,2-2.6S453.9,178.7,453.9,180.3Zm-3.1.1c0,1.1.4,1.9,1.1,1.9s1.1-.8,1.1-1.9-.3-1.9-1.1-1.9S450.8,179.3,450.8,180.4Zm1,6.1,5-8.7h.7l-5,8.7Zm7.6-2.7c0,1.8-.9,2.7-2,2.7s-2-.9-2-2.6.9-2.6,2.1-2.6S459.4,182.2,459.4,183.8Zm-3.1.1c0,1.1.4,1.9,1.1,1.9s1.1-.8,1.1-1.9-.3-1.9-1.1-1.9S456.3,182.8,456.3,183.9Z"/>
      <path class="a" d="M460.1,188a9.1,9.1,0,0,0,1.6-5.4,8.5,8.5,0,0,0-1.6-5.2h.9a8.3,8.3,0,0,1,1.7,5.3A8.7,8.7,0,0,1,461,188Z"/>
    </g>
    <g>
      <path class="a" d="M412.8,108.5h0l-1.5.8-.2-.9,1.8-.9h1v8.4h-1.1Z"/>
      <path class="a" d="M417,115.9v-.7l.9-.9c2.1-2,3.1-3.1,3.1-4.4a1.5,1.5,0,0,0-1.7-1.6,2.7,2.7,0,0,0-1.7.7l-.4-.8a3.7,3.7,0,0,1,2.4-.9,2.4,2.4,0,0,1,2.6,2.5c0,1.5-1.2,2.8-2.9,4.5l-.7.6h3.8v.9Z"/>
      <path class="a" d="M429.1,107.5v.7l-3.6,7.7h-1.2l3.6-7.5h-4.1v-.9Z"/>
      <path class="a" d="M435.9,106.9a9.6,9.6,0,0,0,0,10.6H435a8.7,8.7,0,0,1-1.7-5.3,8.5,8.5,0,0,1,1.7-5.3Z"/>
      <path class="a" d="M439.2,108.5h0l-1.4.8-.3-.9,1.9-.9h1v8.4h-1.2Z"/>
      <path class="a" d="M447,115.9v-2.3h-4v-.7l3.8-5.4H448v5.2h1.2v.9H448v2.3Zm0-3.2v-4.1h0l-.7,1.2-2.1,2.9H447Z"/>
      <path class="a" d="M453.9,109.8c0,1.8-.9,2.7-2,2.7s-2-.8-2-2.5.9-2.7,2-2.7S453.9,108.2,453.9,109.8Zm-3.1.1c0,1.1.4,1.9,1.1,1.9s1.1-.8,1.1-1.9-.3-1.9-1.1-1.9S450.8,108.9,450.8,109.9Zm1,6.2,5-8.8h.7l-5,8.8Zm7.6-2.8c0,1.8-.9,2.7-2,2.7s-2-.8-2-2.5.9-2.7,2.1-2.7S459.4,111.7,459.4,113.3Zm-3.1.1c0,1.1.4,1.9,1.1,1.9s1.1-.8,1.1-1.9-.3-1.9-1.1-1.9S456.3,112.3,456.3,113.4Z"/>
      <path class="a" d="M460.1,117.5a9,9,0,0,0,1.6-5.3,8.8,8.8,0,0,0-1.6-5.3h.9a8.5,8.5,0,0,1,1.7,5.3,8.7,8.7,0,0,1-1.7,5.3Z"/>
    </g>
    <g>
      <path class="a" d="M412.8,49.9h0l-1.5.8-.2-.9,1.8-1h1v8.5h-1.1Z"/>
      <path class="a" d="M417,57.3v-.7l.9-.9c2.1-2.1,3.1-3.2,3.1-4.4a1.5,1.5,0,0,0-1.7-1.7,2.7,2.7,0,0,0-1.7.7l-.4-.8a3.6,3.6,0,0,1,2.4-.8,2.4,2.4,0,0,1,2.6,2.4c0,1.6-1.2,2.8-2.9,4.6l-.7.6h3.8v1Z"/>
      <path class="a" d="M428.7,49.8h-3.2l-.4,2.1h.7a4.1,4.1,0,0,1,1.9.4,2.7,2.7,0,0,1,1.2,2.2,3,3,0,0,1-3.2,2.9,4.9,4.9,0,0,1-2.1-.5l.3-.9a3.5,3.5,0,0,0,1.8.5,1.9,1.9,0,0,0,2-1.9c0-1-.7-1.8-2.4-1.8h-1.2l.6-4.1h4Z"/>
      <path class="a" d="M435.9,48.2a9.1,9.1,0,0,0-1.6,5.4,8.7,8.7,0,0,0,1.6,5.2H435a8.2,8.2,0,0,1-1.7-5.2,8.8,8.8,0,0,1,1.7-5.4Z"/>
      <path class="a" d="M439.2,49.9h0l-1.4.8-.3-.9,1.9-1h1v8.5h-1.2Z"/>
      <path class="a" d="M447,57.3V55h-4v-.8l3.8-5.4H448v5.3h1.2V55H448v2.3Zm0-3.2V49.9h0l-.7,1.3L444.2,54H447Z"/>
      <path class="a" d="M453.9,51.2c0,1.8-.9,2.7-2,2.7s-2-.9-2-2.6.9-2.6,2-2.6S453.9,49.6,453.9,51.2Zm-3.1.1c0,1,.4,1.9,1.1,1.9s1.1-.8,1.1-2-.3-1.8-1.1-1.8S450.8,50.2,450.8,51.3Zm1,6.1,5-8.7h.7l-5,8.7Zm7.6-2.7c0,1.8-.9,2.7-2,2.7s-2-.9-2-2.6.9-2.6,2.1-2.6S459.4,53.1,459.4,54.7Zm-3.1.1c0,1,.4,1.9,1.1,1.9s1.1-.8,1.1-2-.3-1.8-1.1-1.8S456.3,53.7,456.3,54.8Z"/>
      <path class="a" d="M460.1,58.8a8.8,8.8,0,0,0,1.6-5.3,9,9,0,0,0-1.6-5.3h.9a8.7,8.7,0,0,1,1.7,5.3,8.5,8.5,0,0,1-1.7,5.3Z"/>
    </g>
    <g>
      <path class="a" d="M423.6,17.9v-.7l.9-.9c2.2-2,3.2-3.1,3.2-4.4a1.5,1.5,0,0,0-1.7-1.6,3,3,0,0,0-1.8.7l-.3-.8a3.4,3.4,0,0,1,2.3-.9,2.4,2.4,0,0,1,2.6,2.5c0,1.5-1.1,2.8-2.9,4.5l-.7.6H429v.9Z"/>
      <path class="a" d="M435.1,10.3h-.8a3.5,3.5,0,0,0-3,3h.1a2.5,2.5,0,0,1,2-.9,2.5,2.5,0,0,1,2.6,2.7,2.9,2.9,0,0,1-2.8,3c-1.8,0-3-1.4-3-3.6a5.3,5.3,0,0,1,1.4-3.8,4.3,4.3,0,0,1,2.7-1.3h.8Zm-.3,4.9c0-1.3-.7-2-1.7-2a1.8,1.8,0,0,0-1.7,1.1,4.3,4.3,0,0,0-.1.5c0,1.4.7,2.4,1.9,2.4S434.8,16.4,434.8,15.2Z"/>
      <path class="a" d="M442.6,8.9a8.4,8.4,0,0,0-1.6,5.3,9,9,0,0,0,1.6,5.3h-.9a8.5,8.5,0,0,1-1.7-5.3,8.7,8.7,0,0,1,1.7-5.3Z"/>
      <path class="a" d="M443.7,16.6a4,4,0,0,0,1.9.5,1.7,1.7,0,0,0,1.9-1.6c0-1.2-1.1-1.7-2.2-1.7h-.6V13h.6c.8,0,1.9-.5,1.9-1.5s-.4-1.2-1.5-1.2a3.8,3.8,0,0,0-1.7.5l-.3-.8a4.4,4.4,0,0,1,2.2-.7c1.7,0,2.4,1,2.4,2a2,2,0,0,1-1.5,2h0a2.2,2.2,0,0,1,1.9,2.1c0,1.4-1.1,2.6-3.1,2.6a3.9,3.9,0,0,1-2.2-.6Z"/>
      <path class="a" d="M453.9,11.9c0,1.7-.9,2.6-2,2.6s-2-.8-2-2.5.9-2.7,2-2.7S453.9,10.2,453.9,11.9Zm-3.1,0c0,1.1.4,1.9,1.1,1.9s1.1-.8,1.1-1.9-.3-1.9-1.1-1.9S450.8,10.9,450.8,11.9Zm1,6.2,5-8.8h.7l-5,8.8Zm7.6-2.8c0,1.8-.9,2.7-2,2.7s-2-.8-2-2.5.9-2.7,2.1-2.7S459.4,13.7,459.4,15.3Zm-3.1.1c0,1.1.4,1.9,1.1,1.9s1.1-.8,1.1-1.9-.3-1.9-1.1-1.9S456.3,14.4,456.3,15.4Z"/>
      <path class="a" d="M460.1,19.5a9,9,0,0,0,1.6-5.3,9,9,0,0,0-1.6-5.3h.9a8.5,8.5,0,0,1,1.7,5.3,8.7,8.7,0,0,1-1.7,5.3Z"/>
    </g>
    <g>
      <g>
        <path class="b" d="M254.4,38l-4.7,17.9a66.4,66.4,0,0,1,8.6,2.8l6.2-17.4A91.6,91.6,0,0,0,254.4,38Z"/>
        <path class="c" d="M263.7,61.1a64.6,64.6,0,0,1,30.7,33.6l17.5-6.1a84.3,84.3,0,0,0-41.9-45Z"/>
        <path class="d" d="M299.1,118.8a65.2,65.2,0,0,1-8.1,31.4l16,9.1a82.8,82.8,0,0,0,10.5-40.5,83.9,83.9,0,0,0-3.7-24.7l-17.5,6.2A63.3,63.3,0,0,1,299.1,118.8Z"/>
        <path class="e" d="M287.9,155.2a64.7,64.7,0,0,1-52.4,28.4v18.5A83,83,0,0,0,304,164.4Z"/>
        <path class="f" d="M169.5,115.9A65,65,0,0,1,234.3,54a61.2,61.2,0,0,1,9.6.8l4.7-18a84.5,84.5,0,0,0-14.3-1.2A83.4,83.4,0,0,0,151,115.9Z"/>
        <path class="g" d="M229.6,183.5a64.9,64.9,0,0,1-60.1-61.7H151A83.3,83.3,0,0,0,229.6,202Z"/>
      </g>
      <circle class="h" cx="257.1" cy="48.3" r="2.5"/>
      <circle class="h" cx="287.8" cy="68.6" r="2.5"/>
      <circle class="h" cx="306.8" cy="129" r="2.5"/>
      <circle class="h" cx="269.8" cy="183.9" r="2.5"/>
      <circle class="h" cx="177.4" cy="167.4" r="2.5"/>
      <circle class="h" cx="182.4" cy="65.8" r="2.5"/>
    </g>
    <line class="i" x1="182.4" y1="65.8" x2="147.3" y2="30.8"/>
    <line class="i" x1="147.3" y1="30.8" y2="30.8"/>
    <line class="i" x1="177.4" y1="167.4" x2="145" y2="199.7"/>
    <line class="i" x1="145" y1="199.7" y2="199.7"/>
    <line class="i" x1="270.3" y1="183.9" x2="287.5" y2="201.1"/>
    <line class="i" x1="287.5" y1="201.1" x2="459.5" y2="201.1"/>
    <line class="i" x1="306.8" y1="129" x2="459.5" y2="129"/>
    <line class="i" x1="287.8" y1="68.6" x2="319.3" y2="37.1"/>
    <line class="i" x1="319.3" y1="37.1" x2="459.5" y2="37.1"/>
    <line class="i" x1="257.6" y1="48.3" x2="305.5" y2="0.5"/>
    <line class="i" x1="305.5" y1="0.5" x2="459.5" y2="0.5"/>
  </g>
</svg>
