<svg xmlns="http://www.w3.org/2000/svg" viewBox="0 0 225.8 170.9">
  <defs>
    <style>
      .a {
        fill: #ce1922;
      }

      .b {
        fill: #3e20d3;
      }

      .c {
        fill: #1379b7;
      }

      .d {
        fill: #bf8e02;
      }

      .e {
        fill: #529366;
      }

      .f {
        isolation: isolate;
      }

      .g {
        fill: #fc595c;
      }

      .h {
        fill: #754fff;
      }

      .i {
        fill: #33a9ff;
      }

      .j {
        fill: #ecc23a;
      }

      .k {
        fill: #82d15c;
      }
    </style>
  </defs>
  <title>dg-2</title>
  <g>
    <g>
      <path class="a" d="M193.3,35.1,134.8,67.9V78.6a17.4,17.4,0,0,1,6,11.9c.1,5.4-11,5.4-11,5.4v10.7l41.6,53c33.3-14.2,55.2-40.2,54.3-69.9-.6-21.2-12.9-40.5-32.4-54.6"/>
      <path class="b" d="M110.5,10.7c-9.1-3.4-25.1-8.5-25.1-8.5V12.9l23.7,58.3,3.2-.2a36.6,36.6,0,0,1,16.6,3.7l58.6-43.6c-1.6-1,0-10.7,0-10.7s-49.9-9.9-77-9.7"/>
      <path class="c" d="M77.7,14.5c-9.4,2.1-21.7-4-29.8-.3-1.2.6,1.1,10.2,0,10.7L99.4,73.4l2-.7V62L77.7,14.5"/>
      <path class="d" d="M122.9,109.3a41,41,0,0,1-9.4,1.3h-3.4L89.4,158.3V169a157.1,157.1,0,0,0,25.9,1.9,148.8,148.8,0,0,0,49.2-8.6V151.6l-41.6-42.3"/>
      <path class="e" d="M41.5,28.3C15.6,43.2-.7,66.2,0,91.8c1.1,36,35.4,66.1,81.7,75.8L102.3,109V98.3S85.2,97.6,85,91.1s2.9-10.7,8-14.3V66.1L41.5,28.3"/>
    </g>
    <g class="f">
      <g>
        <path class="g" d="M193.3,24.4,134.8,67.9a17.4,17.4,0,0,1,6,11.9c.2,6.6-4.2,12.4-11,16.1l41.6,53c33.3-14.2,55.2-40.2,54.3-69.9-.6-21.2-12.9-40.5-32.4-54.6"/>
        <path class="h" d="M110.5,0A168.6,168.6,0,0,0,85.4,2.2l23.7,58.3,3.2-.2A36.6,36.6,0,0,1,128.9,64l58.6-43.6C167,7.5,140-.3,110.5,0"/>
        <path class="i" d="M77.7,3.8A134.2,134.2,0,0,0,47.9,14.2L99.4,62.7l2-.7L77.7,3.8"/>
        <path class="j" d="M122.9,98.6a41,41,0,0,1-9.4,1.3h-3.4L89.4,158.3a157.1,157.1,0,0,0,25.9,1.9,148.8,148.8,0,0,0,49.2-8.6l-41.6-53"/>
        <path class="k" d="M41.5,17.6C15.6,32.5-.7,55.5,0,81.1c1.1,36,35.4,66.1,81.7,75.8l20.6-58.6c-9.9-2.9-17-9.8-17.3-17.9-.2-5.6,2.9-10.7,8-14.3L41.5,17.6"/>
      </g>
    </g>
  </g>
</svg>
