<svg xmlns="http://www.w3.org/2000/svg" viewBox="0 0 300.2 243.1">
  <defs>
    <style>
      .a, .b {
        fill: none;
        stroke-linecap: round;
        stroke-linejoin: round;
      }

      .a {
        stroke: #b5b5b5;
      }

      .b {
        stroke: #005ff9;
        stroke-width: 2px;
      }

      .c {
        fill: #005ff9;
      }

      .d {
        fill: #919191;
      }
    </style>
  </defs>
  <title>dg-3</title>
  <g>
    <g>
      <g>
        <line class="a" x1="55.2" y1="45.5" x2="285.9" y2="45.5"/>
        <line class="a" x1="55.2" y1="101.5" x2="285.9" y2="101.5"/>
        <line class="a" x1="55.2" y1="158.3" x2="285.9" y2="158.3"/>
        <line class="a" x1="55.2" y1="183.8" x2="285.9" y2="183.8"/>
        <line class="a" x1="112.9" y1="7" x2="112.9" y2="227"/>
        <line class="a" x1="170.6" y1="7" x2="170.6" y2="227"/>
        <line class="a" x1="228.2" y1="7" x2="228.2" y2="227"/>
        <line class="a" x1="285.9" y1="7" x2="285.9" y2="227"/>
        <line class="a" x1="55.2" y1="6.5" x2="285.9" y2="6.5"/>
        <g>
          <line class="b" x1="55.2" y1="1" x2="55.2" y2="227"/>
          <line class="b" x1="55.2" y1="227" x2="294.2" y2="227"/>
        </g>
      </g>
      <circle class="c" cx="55.2" cy="183.8" r="5"/>
      <circle class="c" cx="112.9" cy="158.3" r="5"/>
      <circle class="c" cx="170.6" cy="101.5" r="5"/>
      <circle class="c" cx="228.2" cy="45.5" r="5"/>
      <circle class="c" cx="285.9" cy="6.5" r="5"/>
      <line class="b" x1="55.2" y1="183.8" x2="112.9" y2="158.3"/>
      <line class="b" x1="112.9" y1="158.3" x2="170.6" y2="101.5"/>
      <line class="b" x1="170.6" y1="101.5" x2="228.2" y2="45.5"/>
      <line class="b" x1="228.2" y1="45.5" x2="285.9" y2="7"/>
    </g>
    <g>
      <g>
        <path class="d" d="M42.5,243.4v-.7l.9-.9c2.1-2,3.1-3.1,3.1-4.4s-.4-1.6-1.7-1.6a2.7,2.7,0,0,0-1.8.7l-.3-.8a3.7,3.7,0,0,1,2.4-.9,2.4,2.4,0,0,1,2.6,2.5c0,1.5-1.2,2.8-3,4.5l-.6.6h3.8v.9Z" transform="translate(-0.5 -0.4)"/>
        <path class="d" d="M54.7,239.1c0,2.9-1,4.4-2.9,4.4S49,242,49,239.2s1.2-4.4,3-4.4S54.7,236.4,54.7,239.1Zm-4.5.1c0,2.2.6,3.5,1.7,3.5s1.7-1.4,1.7-3.6-.5-3.4-1.7-3.4S50.2,236.9,50.2,239.2Z" transform="translate(-0.5 -0.4)"/>
        <path class="d" d="M58.3,236h0l-1.5.8-.2-.9,1.8-.9h1v8.4H58.3Z" transform="translate(-0.5 -0.4)"/>
        <path class="d" d="M62.7,242.1a4.3,4.3,0,0,0,1.9.5c1.5,0,1.9-.9,1.9-1.6s-1.1-1.7-2.2-1.7h-.6v-.9h.6c.9,0,1.9-.4,1.9-1.4s-.4-1.3-1.5-1.3a2.6,2.6,0,0,0-1.6.6l-.3-.8a3.4,3.4,0,0,1,2.2-.7,2.1,2.1,0,0,1,2.4,2,2.1,2.1,0,0,1-1.6,2h0a2.2,2.2,0,0,1,1.9,2.2c0,1.4-1,2.5-3.1,2.5a5.5,5.5,0,0,1-2.2-.5Z" transform="translate(-0.5 -0.4)"/>
      </g>
      <g>
        <path class="d" d="M3.1,180.2H3l-1.4.8-.2-.9,1.8-.9h1v8.4H3.1Z" transform="translate(-0.5 -0.4)"/>
        <path class="d" d="M7.3,187.6v-.7l.9-.9c2.1-2,3.1-3.1,3.1-4.4A1.5,1.5,0,0,0,9.6,180a3.3,3.3,0,0,0-1.8.7l-.3-.8a3.5,3.5,0,0,1,2.4-.9,2.4,2.4,0,0,1,2.5,2.5c0,1.5-1.1,2.8-2.9,4.5l-.6.6h3.7v.9Z" transform="translate(-0.5 -0.4)"/>
        <path class="d" d="M19.5,183.3c0,2.9-1,4.5-2.9,4.5s-2.8-1.6-2.8-4.4S15,179,16.7,179,19.5,180.6,19.5,183.3Zm-4.5.1c0,2.2.6,3.5,1.7,3.5s1.7-1.4,1.7-3.6-.5-3.4-1.7-3.4S15,181.1,15,183.4Z" transform="translate(-0.5 -0.4)"/>
        <path class="d" d="M26.2,183.3c0,2.9-1.1,4.5-2.9,4.5s-2.8-1.6-2.8-4.4,1.2-4.4,2.9-4.4S26.2,180.6,26.2,183.3Zm-4.6.1c0,2.2.7,3.5,1.7,3.5s1.8-1.4,1.8-3.6-.6-3.4-1.8-3.4S21.6,181.1,21.6,183.4Z" transform="translate(-0.5 -0.4)"/>
        <path class="d" d="M32.9,183.3c0,2.9-1.1,4.5-3,4.5s-2.7-1.6-2.8-4.4,1.3-4.4,3-4.4S32.9,180.6,32.9,183.3Zm-4.6.1c0,2.2.7,3.5,1.7,3.5s1.7-1.4,1.7-3.6-.5-3.4-1.7-3.4S28.3,181.1,28.3,183.4Z" transform="translate(-0.5 -0.4)"/>
        <path class="d" d="M34.3,183.4a13.4,13.4,0,0,0-.1-2.1h1.1v1.1h0a2.6,2.6,0,0,1,2.3-1.2c1.5,0,2.6,1.3,2.6,3.2s-1.3,3.4-2.8,3.4a2.1,2.1,0,0,1-1.9-1h-.1v3.4H34.3Zm1.1,1.6a4.3,4.3,0,0,0,.1.5,1.8,1.8,0,0,0,1.7,1.4c1.2,0,1.9-1,1.9-2.5a2.1,2.1,0,0,0-1.9-2.3,1.8,1.8,0,0,0-1.7,1.4,4.3,4.3,0,0,0-.1.5Z" transform="translate(-0.5 -0.4)"/>
        <path class="d" d="M41.4,186.9a.8.8,0,0,1,1.6,0,.8.8,0,1,1-1.6,0Z" transform="translate(-0.5 -0.4)"/>
      </g>
      <g>
        <path class="d" d="M3.1,153.2H3l-1.4.8-.2-.9,1.8-1h1v8.5H3.1Z" transform="translate(-0.5 -0.4)"/>
        <path class="d" d="M10.8,160.6v-2.3H6.9v-.8l3.7-5.4h1.3v5.3h1.2v.9H11.9v2.3Zm0-3.2v-4.2h0l-.7,1.3L8,157.4h2.8Z" transform="translate(-0.5 -0.4)"/>
        <path class="d" d="M19.5,156.3c0,2.8-1,4.4-2.9,4.4s-2.8-1.5-2.8-4.3S15,152,16.7,152,19.5,153.6,19.5,156.3Zm-4.5.1c0,2.2.6,3.4,1.7,3.4s1.7-1.3,1.7-3.5-.5-3.4-1.7-3.4S15,154.1,15,156.4Z" transform="translate(-0.5 -0.4)"/>
        <path class="d" d="M26.2,156.3c0,2.8-1.1,4.4-2.9,4.4s-2.8-1.5-2.8-4.3,1.2-4.4,2.9-4.4S26.2,153.6,26.2,156.3Zm-4.6.1c0,2.2.7,3.4,1.7,3.4s1.8-1.3,1.8-3.5-.6-3.4-1.8-3.4S21.6,154.1,21.6,156.4Z" transform="translate(-0.5 -0.4)"/>
        <path class="d" d="M32.9,156.3c0,2.8-1.1,4.4-3,4.4s-2.7-1.5-2.8-4.3,1.3-4.4,3-4.4S32.9,153.6,32.9,156.3Zm-4.6.1c0,2.2.7,3.4,1.7,3.4s1.7-1.3,1.7-3.5-.5-3.4-1.7-3.4S28.3,154.1,28.3,156.4Z" transform="translate(-0.5 -0.4)"/>
        <path class="d" d="M34.3,156.4a12.8,12.8,0,0,0-.1-2.1h1.1v1.1h0a2.6,2.6,0,0,1,2.3-1.2c1.5,0,2.6,1.2,2.6,3.2s-1.3,3.3-2.8,3.3a2,2,0,0,1-1.9-1h-.1v3.5H34.3Zm1.1,1.6a4.3,4.3,0,0,0,.1.5,1.7,1.7,0,0,0,1.7,1.3c1.2,0,1.9-1,1.9-2.4s-.7-2.3-1.9-2.3a1.8,1.8,0,0,0-1.7,1.4V158Z" transform="translate(-0.5 -0.4)"/>
        <path class="d" d="M41.4,159.9a.8.8,0,1,1,.8.8A.7.7,0,0,1,41.4,159.9Z" transform="translate(-0.5 -0.4)"/>
      </g>
      <g>
        <path class="d" d="M3.1,96.9H3l-1.4.8-.2-.9,1.8-1h1v8.5H3.1Z" transform="translate(-0.5 -0.4)"/>
        <path class="d" d="M7.2,102.1a2.3,2.3,0,0,1,1.6-2.2h0a2,2,0,0,1-1.3-1.9,2.3,2.3,0,0,1,2.6-2.2,2.1,2.1,0,0,1,1.1,4.1h0a2.3,2.3,0,0,1,1.7,2.2,2.6,2.6,0,0,1-2.9,2.4C8.2,104.4,7.2,103.4,7.2,102.1Zm4.5,0c0-1-.7-1.5-1.9-1.9A2,2,0,0,0,8.3,102a1.6,1.6,0,0,0,1.7,1.6A1.5,1.5,0,0,0,11.7,102.1ZM8.6,97.9c0,.8.6,1.3,1.6,1.5a1.6,1.6,0,0,0,1.3-1.5A1.4,1.4,0,0,0,10,96.5,1.3,1.3,0,0,0,8.6,97.9Z" transform="translate(-0.5 -0.4)"/>
        <path class="d" d="M19.5,100c0,2.8-1,4.4-2.9,4.4s-2.8-1.5-2.8-4.3,1.2-4.4,2.9-4.4S19.5,97.3,19.5,100Zm-4.5.1c0,2.2.6,3.4,1.7,3.4s1.7-1.3,1.7-3.5-.5-3.4-1.7-3.4S15,97.8,15,100.1Z" transform="translate(-0.5 -0.4)"/>
        <path class="d" d="M26.2,100c0,2.8-1.1,4.4-2.9,4.4s-2.8-1.5-2.8-4.3,1.2-4.4,2.9-4.4S26.2,97.3,26.2,100Zm-4.6.1c0,2.2.7,3.4,1.7,3.4s1.8-1.3,1.8-3.5-.6-3.4-1.8-3.4S21.6,97.8,21.6,100.1Z" transform="translate(-0.5 -0.4)"/>
        <path class="d" d="M32.9,100c0,2.8-1.1,4.4-3,4.4s-2.7-1.5-2.8-4.3,1.3-4.4,3-4.4S32.9,97.3,32.9,100Zm-4.6.1c0,2.2.7,3.4,1.7,3.4s1.7-1.3,1.7-3.5-.5-3.4-1.7-3.4S28.3,97.8,28.3,100.1Z" transform="translate(-0.5 -0.4)"/>
        <path class="d" d="M34.3,100.1a12.8,12.8,0,0,0-.1-2.1h1.1v1.1h0a2.6,2.6,0,0,1,2.3-1.2c1.5,0,2.6,1.2,2.6,3.2s-1.3,3.3-2.8,3.3a2,2,0,0,1-1.9-1h-.1v3.5H34.3Zm1.1,1.6a4.3,4.3,0,0,0,.1.5,1.7,1.7,0,0,0,1.7,1.3c1.2,0,1.9-1,1.9-2.4s-.7-2.3-1.9-2.3a1.8,1.8,0,0,0-1.7,1.4v1.5Z" transform="translate(-0.5 -0.4)"/>
        <path class="d" d="M41.4,103.6a.8.8,0,1,1,.8.8A.7.7,0,0,1,41.4,103.6Z" transform="translate(-0.5 -0.4)"/>
      </g>
      <g>
        <path class="d" d="M.6,47.3v-.7l.9-.9c2.1-2,3.1-3.1,3.1-4.4A1.5,1.5,0,0,0,3,39.6a2.4,2.4,0,0,0-1.8.8l-.4-.8a3.7,3.7,0,0,1,2.4-.9,2.4,2.4,0,0,1,2.6,2.5c0,1.5-1.2,2.8-2.9,4.5l-.7.6H6v1Z" transform="translate(-0.5 -0.4)"/>
        <path class="d" d="M10.8,47.3V45H6.9v-.8l3.7-5.4h1.3v5.3h1.2V45H11.9v2.3Zm0-3.2V39.9h0l-.7,1.3L8,44.1h2.8Z" transform="translate(-0.5 -0.4)"/>
        <path class="d" d="M19.5,43c0,2.8-1,4.4-2.9,4.4s-2.8-1.5-2.8-4.3,1.2-4.4,2.9-4.4S19.5,40.3,19.5,43Zm-4.5.1c0,2.2.6,3.4,1.7,3.4s1.7-1.3,1.7-3.5-.5-3.4-1.7-3.4S15,40.8,15,43.1Z" transform="translate(-0.5 -0.4)"/>
        <path class="d" d="M26.2,43c0,2.8-1.1,4.4-2.9,4.4s-2.8-1.5-2.8-4.3,1.2-4.4,2.9-4.4S26.2,40.3,26.2,43Zm-4.6.1c0,2.2.7,3.4,1.7,3.4s1.8-1.3,1.8-3.5-.6-3.4-1.8-3.4S21.6,40.8,21.6,43.1Z" transform="translate(-0.5 -0.4)"/>
        <path class="d" d="M32.9,43c0,2.8-1.1,4.4-3,4.4s-2.7-1.5-2.8-4.3,1.3-4.4,3-4.4S32.9,40.3,32.9,43Zm-4.6.1c0,2.2.7,3.4,1.7,3.4s1.7-1.3,1.7-3.5-.5-3.4-1.7-3.4S28.3,40.8,28.3,43.1Z" transform="translate(-0.5 -0.4)"/>
        <path class="d" d="M34.3,43.1a12.8,12.8,0,0,0-.1-2.1h1.1v1.1h0a2.6,2.6,0,0,1,2.3-1.2c1.5,0,2.6,1.2,2.6,3.2s-1.3,3.3-2.8,3.3a2,2,0,0,1-1.9-1h-.1v3.5H34.3Zm1.1,1.6a4.3,4.3,0,0,0,.1.5,1.7,1.7,0,0,0,1.7,1.3c1.2,0,1.9-1,1.9-2.4s-.7-2.3-1.9-2.3a1.8,1.8,0,0,0-1.7,1.4c0,.1-.1.3-.1.4Z" transform="translate(-0.5 -0.4)"/>
        <path class="d" d="M41.4,46.6a.8.8,0,1,1,.8.8A.7.7,0,0,1,41.4,46.6Z" transform="translate(-0.5 -0.4)"/>
      </g>
      <g>
        <path class="d" d="M.9,9.6a3.5,3.5,0,0,0,1.8.5c1.5,0,2-.9,1.9-1.6s-1-1.7-2.1-1.7H1.8V5.9h.7c.8,0,1.8-.4,1.8-1.4A1.2,1.2,0,0,0,2.9,3.2a2.6,2.6,0,0,0-1.7.6L.9,2.9a4.1,4.1,0,0,1,2.2-.6,2.1,2.1,0,0,1,2.4,2,2.1,2.1,0,0,1-1.6,2h0A2.2,2.2,0,0,1,5.8,8.5c0,1.3-1,2.5-3.1,2.5a6,6,0,0,1-2.2-.5Z" transform="translate(-0.5 -0.4)"/>
        <path class="d" d="M12.9,6.6c0,2.8-1.1,4.4-3,4.4S7.2,9.5,7.1,6.7s1.3-4.4,3-4.4S12.9,3.9,12.9,6.6Zm-4.6.1c0,2.2.7,3.4,1.7,3.4s1.7-1.3,1.7-3.5S11.2,3.2,10,3.2,8.3,4.4,8.3,6.7Z" transform="translate(-0.5 -0.4)"/>
        <path class="d" d="M19.5,6.6c0,2.8-1,4.4-2.9,4.4s-2.8-1.5-2.8-4.3S15,2.3,16.7,2.3,19.5,3.9,19.5,6.6ZM15,6.7c0,2.2.6,3.4,1.7,3.4s1.7-1.3,1.7-3.5-.5-3.4-1.7-3.4S15,4.4,15,6.7Z" transform="translate(-0.5 -0.4)"/>
        <path class="d" d="M26.2,6.6c0,2.8-1.1,4.4-2.9,4.4s-2.8-1.5-2.8-4.3,1.2-4.4,2.9-4.4S26.2,3.9,26.2,6.6Zm-4.6.1c0,2.2.7,3.4,1.7,3.4s1.8-1.3,1.8-3.5-.6-3.4-1.8-3.4S21.6,4.4,21.6,6.7Z" transform="translate(-0.5 -0.4)"/>
        <path class="d" d="M32.9,6.6c0,2.8-1.1,4.4-3,4.4s-2.7-1.5-2.8-4.3,1.3-4.4,3-4.4S32.9,3.9,32.9,6.6Zm-4.6.1c0,2.2.7,3.4,1.7,3.4s1.7-1.3,1.7-3.5S31.2,3.2,30,3.2,28.3,4.4,28.3,6.7Z" transform="translate(-0.5 -0.4)"/>
        <path class="d" d="M34.3,6.6a12.1,12.1,0,0,0-.1-2h1.1V5.7h0a2.6,2.6,0,0,1,2.3-1.3c1.5,0,2.6,1.3,2.6,3.2S38.9,11,37.4,11a2,2,0,0,1-1.9-1h-.1v3.5H34.3Zm1.1,1.7c0,.2.1.3.1.5a1.7,1.7,0,0,0,1.7,1.3c1.2,0,1.9-1,1.9-2.4s-.7-2.3-1.9-2.3a1.8,1.8,0,0,0-1.7,1.4c0,.1-.1.3-.1.4Z" transform="translate(-0.5 -0.4)"/>
        <path class="d" d="M41.4,10.2a.8.8,0,1,1,1.6,0,.8.8,0,0,1-1.6,0Z" transform="translate(-0.5 -0.4)"/>
      </g>
      <g>
        <path class="d" d="M100.7,243.4v-.7l.9-.9c2.1-2,3.1-3.1,3.1-4.4s-.4-1.6-1.7-1.6a2.7,2.7,0,0,0-1.8.7l-.3-.8a3.5,3.5,0,0,1,2.4-.9,2.4,2.4,0,0,1,2.5,2.5c0,1.5-1.1,2.8-2.9,4.5l-.6.6h3.8v.9Z" transform="translate(-0.5 -0.4)"/>
        <path class="d" d="M112.9,239.1c0,2.9-1,4.4-2.9,4.4s-2.8-1.5-2.8-4.3,1.2-4.4,2.9-4.4S112.9,236.4,112.9,239.1Zm-4.5.1c0,2.2.6,3.5,1.7,3.5s1.7-1.4,1.7-3.6-.5-3.4-1.7-3.4S108.4,236.9,108.4,239.2Z" transform="translate(-0.5 -0.4)"/>
        <path class="d" d="M116.5,236h0l-1.5.8-.2-.9,1.8-.9h1v8.4h-1.1Z" transform="translate(-0.5 -0.4)"/>
        <path class="d" d="M124.2,243.4v-2.3h-3.9v-.8L124,235h1.3v5.2h1.2v.9h-1.2v2.3Zm0-3.2v-4.1h0a7.5,7.5,0,0,0-.7,1.2l-2.1,2.9h2.8Z" transform="translate(-0.5 -0.4)"/>
      </g>
      <g>
        <path class="d" d="M158.9,243.4v-.7l.8-.9c2.2-2,3.2-3.1,3.2-4.4s-.4-1.6-1.7-1.6a2.5,2.5,0,0,0-1.8.7l-.3-.8a3.5,3.5,0,0,1,2.4-.9,2.4,2.4,0,0,1,2.5,2.5c0,1.5-1.1,2.8-2.9,4.5l-.7.6h3.8v.9Z" transform="translate(-0.5 -0.4)"/>
        <path class="d" d="M171.1,239.1c0,2.9-1,4.4-2.9,4.4s-2.8-1.5-2.8-4.3,1.2-4.4,2.9-4.4S171.1,236.4,171.1,239.1Zm-4.6.1c0,2.2.7,3.5,1.8,3.5s1.7-1.4,1.7-3.6-.5-3.4-1.7-3.4S166.5,236.9,166.5,239.2Z" transform="translate(-0.5 -0.4)"/>
        <path class="d" d="M174.7,236h-.1l-1.4.8-.2-.9,1.8-.9h1v8.4h-1.1Z" transform="translate(-0.5 -0.4)"/>
        <path class="d" d="M183.9,235.9h-3.2l-.3,2.2h.6a4.1,4.1,0,0,1,1.9.5,2.6,2.6,0,0,1,1.2,2.2,2.9,2.9,0,0,1-3.2,2.8,3.8,3.8,0,0,1-2.1-.5l.3-.8a4,4,0,0,0,1.8.4,1.8,1.8,0,0,0,2-1.8c0-1.1-.7-1.9-2.4-1.9h-1.2l.6-4h4Z" transform="translate(-0.5 -0.4)"/>
      </g>
      <g>
        <path class="d" d="M217,243.4v-.7l.9-.9c2.2-2,3.2-3.1,3.2-4.4s-.4-1.6-1.7-1.6a2.5,2.5,0,0,0-1.8.7l-.3-.8a3.4,3.4,0,0,1,2.3-.9,2.4,2.4,0,0,1,2.6,2.5c0,1.5-1.1,2.8-2.9,4.5l-.7.6h3.8v.9Z" transform="translate(-0.5 -0.4)"/>
        <path class="d" d="M229.3,239.1c0,2.9-1,4.4-2.9,4.4s-2.8-1.5-2.8-4.3,1.2-4.4,2.9-4.4S229.3,236.4,229.3,239.1Zm-4.6.1c0,2.2.7,3.5,1.8,3.5s1.7-1.4,1.7-3.6-.5-3.4-1.7-3.4S224.7,236.9,224.7,239.2Z" transform="translate(-0.5 -0.4)"/>
        <path class="d" d="M232.9,236h-.1l-1.4.8-.3-.9,1.9-.9h1v8.4h-1.1Z" transform="translate(-0.5 -0.4)"/>
        <path class="d" d="M241.9,235.8a2.7,2.7,0,0,0-.9,0,3.4,3.4,0,0,0-2.9,3h0a2.6,2.6,0,0,1,2.1-1,2.5,2.5,0,0,1,2.5,2.8,2.8,2.8,0,0,1-2.8,2.9c-1.8,0-3-1.4-3-3.6a5.7,5.7,0,0,1,1.4-3.8,4.5,4.5,0,0,1,2.7-1.2h.9Zm-.4,4.8c0-1.2-.6-1.9-1.7-1.9a1.8,1.8,0,0,0-1.6,1c-.1.2-.2.3-.2.5s.7,2.5,1.9,2.5S241.5,241.8,241.5,240.6Z" transform="translate(-0.5 -0.4)"/>
      </g>
      <g>
        <path class="d" d="M275.2,243.4v-.7l.9-.9c2.2-2,3.2-3.1,3.2-4.4s-.4-1.6-1.7-1.6a2.5,2.5,0,0,0-1.8.7l-.4-.8a3.9,3.9,0,0,1,2.4-.9,2.4,2.4,0,0,1,2.6,2.5c0,1.5-1.1,2.8-2.9,4.5l-.7.6h3.8v.9Z" transform="translate(-0.5 -0.4)"/>
        <path class="d" d="M287.5,239.1c0,2.9-1,4.4-2.9,4.4s-2.8-1.5-2.8-4.3,1.2-4.4,2.9-4.4S287.5,236.4,287.5,239.1Zm-4.6.1c0,2.2.7,3.5,1.7,3.5s1.8-1.4,1.8-3.6-.6-3.4-1.7-3.4S282.9,236.9,282.9,239.2Z" transform="translate(-0.5 -0.4)"/>
        <path class="d" d="M291.1,236H291l-1.4.8-.3-.9,1.9-.9h1v8.4h-1.1Z" transform="translate(-0.5 -0.4)"/>
        <path class="d" d="M300.7,235v.7l-3.6,7.7h-1.2l3.6-7.5h-4.1V235Z" transform="translate(-0.5 -0.4)"/>
      </g>
    </g>
  </g>
</svg>
