<svg xmlns="http://www.w3.org/2000/svg" viewBox="0 0 269.3 269.3">
  <defs>
    <style>
      .a {
        fill: #82d15c;
      }

      .b {
        fill: #2691e3;
      }

      .c {
        fill: #ecc23a;
      }

      .d {
        fill: #fc595c;
      }

      .e {
        fill: #33a9ff;
      }
    </style>
  </defs>
  <title>dg-4</title>
  <g>
    <path class="a" d="M133.4,129.3,205.3,20A134.7,134.7,0,0,0,20.8,62.8Z"/>
    <path class="b" d="M128.9,135.9,16.7,69.7A134.7,134.7,0,0,0,53.5,242.1Z"/>
    <path class="c" d="M142.1,130.7H269.3A134.8,134.8,0,0,0,212,24.4Z"/>
    <path class="d" d="M133.8,142.8,60,246.8a134.7,134.7,0,0,0,74.7,22.5,133,133,0,0,0,49-9.2Z"/>
    <path class="e" d="M140.7,138.7,191,257a134.8,134.8,0,0,0,78.3-118.3Z"/>
  </g>
</svg>
