<svg xmlns="http://www.w3.org/2000/svg" viewBox="0 0 288 288">
  <defs>
    <style>
      .a {
        fill: #c01b2b;
      }

      .b {
        fill: #f45828;
      }

      .c {
        fill: #189949;
      }

      .d {
        fill: #1d1a13;
      }

      .e {
        fill: #f9921c;
      }

      .f {
        fill: #7d4090;
      }

      .g {
        fill: #d6df22;
      }

      .h {
        fill: #2a668b;
      }

      .i {
        fill: #283991;
      }

      .j {
        fill: #0d6638;
      }

      .k {
        fill: #11a79b;
      }

      .l {
        fill: #2ab571;
      }

      .m {
        fill: #1fabdc;
      }

      .n {
        fill: #0b76be;
      }
    </style>
  </defs>
  <title>dg-5</title>
  <g>
    <path class="a" d="M102.9,129.1,9.7,92.1a103.2,103.2,0,0,0-4.5,13.6l96.9,25.7A20.9,20.9,0,0,1,102.9,129.1Z"/>
    <path class="b" d="M100.5,139.8a37.5,37.5,0,0,1,.9-5.7l-97-25.7a146.5,146.5,0,0,0-4,25Z"/>
    <path class="c" d="M103.9,126.5c.3-.7.7-1.4,1-2.2L16.8,76.5a118.6,118.6,0,0,0-6.1,13Z"/>
    <path class="d" d="M29.3,56.9l80.5,59.9c0-.1.1-.1.1-.2L33.8,51.3C32.2,53.2,30.7,55,29.3,56.9Z"/>
    <path class="e" d="M100.3,144v-1.4L.2,136.2c-.1,2.6-.2,5.2-.2,7.8a141.3,141.3,0,0,0,6.4,42.4l95.5-30.5A42.7,42.7,0,0,1,100.3,144Z"/>
    <path class="f" d="M106.3,121.9a17.5,17.5,0,0,1,1.8-2.9L27.6,59.2A162,162,0,0,0,18.1,74Z"/>
    <path class="g" d="M111.8,173.6a44.8,44.8,0,0,1-9-15L7.2,189.1a145.6,145.6,0,0,0,33.1,54.8Z"/>
    <path class="h" d="M111.7,114.5a43.4,43.4,0,0,1,30.9-14.2V0a143.7,143.7,0,0,0-107,49.2Z"/>
    <path class="i" d="M145.4,100.3a43.8,43.8,0,0,1,31.8,15.2l78-63A143.7,143.7,0,0,0,145.4,0Z"/>
    <path class="j" d="M129.9,185.4a42.9,42.9,0,0,1-16.1-9.8L42.3,245.9a143.1,143.1,0,0,0,58.3,35.4Z"/>
    <path class="k" d="M177.4,172.3a44.7,44.7,0,0,1-20,13.3L185,282.1a144.6,144.6,0,0,0,70.9-47.5Z"/>
    <path class="l" d="M154.7,186.4a41.8,41.8,0,0,1-10.7,1.3,42.4,42.4,0,0,1-11.4-1.5l-29.3,95.9A144.1,144.1,0,0,0,144,288a142.2,142.2,0,0,0,38.3-5.2Z"/>
    <path class="m" d="M288,145.4H187.7a43.6,43.6,0,0,1-8.6,24.7l78.5,62.3A142.8,142.8,0,0,0,288,145.4Z"/>
    <path class="n" d="M178.9,117.6a43.5,43.5,0,0,1,8.8,25H288a143.6,143.6,0,0,0-31-87.9Z"/>
  </g>
</svg>
