<svg xmlns="http://www.w3.org/2000/svg" viewBox="0 0 55.1 66.1">
  <title>doc</title>
  <g>
    <g>
      <path d="M55.1,35.7V63.9c0,1.8-.4,2.2-2.2,2.2H6c-1-.1-1.6-.6-1.6-1.6s-.1-2.3-.1-3.4-.2-.9-.9-.8H1.5A1.5,1.5,0,0,1,0,58.7v-46a3.7,3.7,0,0,1,1-2.6L9.1.8A2,2,0,0,1,10.8,0H46.6c1.7,0,2,.4,2.1,2.1V4.5c0,.5.2.6.7.6h3.9c1.2,0,1.8.5,1.8,1.7V35.7ZM3,13.5V56.3c0,.7.2,1,.9,1H44.7c.8,0,1-.3,1-1V3.9c0-.8-.3-1-1-1-10.6.1-21.3.1-31.9,0-.7,0-1,.2-1,1-.1,2.5-.3,5-.4,7.5s-.6,2.8-3,2.6ZM52.1,35.7V10.3c0-2.2,0-2.2-2.1-2.1S48.7,8,48.7,9.6V58.7a1.6,1.6,0,0,1-1.5,1.6H9.2c-1.9,0-1.7-.4-1.8,1.7s-.1,1.1,1,1.1H51.1c1,0,1-.1,1-1.1ZM4.6,10.6l3.8.3.2-4.7H8.4Z" transform="translate(0)"/>
      <path d="M24.6,23.3H7.5a.4.4,0,0,1-.4-.4.9.9,0,0,1,.3-.5H41.8a.7.7,0,0,1,.4.5c0,.1-.2.4-.4.4H24.6Z" transform="translate(0)"/>
      <path d="M24.7,33.5H41.1c.2,0,.4-.1.6,0s.3.4.5.6l-.5.4c-.2.1-.4,0-.6,0H8.2c-.2,0-.4.1-.5,0l-.6-.4c.2-.2.4-.5.6-.6s.4,0,.6,0Z" transform="translate(0)"/>
      <path d="M24.7,36.3H41.8a.4.4,0,0,1,.4.4.7.7,0,0,1-.4.5c-.2.1-.4,0-.7,0H8.2c-.2,0-.4.1-.5,0l-.6-.5.6-.5h17Z" transform="translate(0)"/>
      <path d="M24.6,43H7.5a.8.8,0,0,1-.4-.4.7.7,0,0,1,.4-.5c.2-.1.4,0,.6,0H41.2c.2,0,.4-.1.5,0a1.2,1.2,0,0,1,.5.5.8.8,0,0,1-.4.4H24.6Z" transform="translate(0)"/>
      <path d="M24.6,54.2H7.5c-.1-.1-.4-.3-.4-.4a.8.8,0,0,1,.4-.6H41.7l.5.6-.5.4H24.6Z" transform="translate(0)"/>
      <path d="M24.7,15H39.6a.8.8,0,0,1,.4.6.9.9,0,0,1-.4.5H10.7c-.5,0-1.3.3-1.3-.6s.8-.6,1.2-.6Z" transform="translate(0)"/>
      <path d="M24.6,28.9H8.2c-.2,0-.5.1-.7,0a.7.7,0,0,1-.4-.5l.4-.4H41.7l.5.4-.5.5a5.7,5.7,0,0,1-1.3,0Z" transform="translate(0)"/>
      <path d="M24.6,31.7H8.3c-.3,0-.5.1-.7,0a1.2,1.2,0,0,1-.5-.5l.4-.4c.2-.1.5,0,.7,0H41.1c.2,0,.4-.1.6,0l.5.4c-.2.2-.3.4-.6.5s-.4,0-.6,0Z" transform="translate(0)"/>
      <path d="M24.6,48.6H8.2c-.2,0-.5.1-.7,0a.7.7,0,0,1-.4-.5c0-.1.2-.3.4-.4H41.8a.7.7,0,0,1,.4.5l-.4.4H24.6Z" transform="translate(0)"/>
      <path d="M24.6,51.4H8.2c-.3,0-.5.1-.7,0s-.4-.3-.4-.4a.9.9,0,0,1,.3-.5,2.2,2.2,0,0,1,.8,0H41.1c.4,0,1.1-.3,1.1.5s-.7.4-1.1.4Z" transform="translate(0)"/>
      <path d="M24.6,20.5H7.4a.4.4,0,0,1-.3-.4c0-.1.2-.3.3-.4s.5,0,.7,0H41.2c.2,0,.4-.1.6,0s.4.3.4.4a.4.4,0,0,1-.4.4H24.6Z" transform="translate(0)"/>
      <path d="M24.6,26.1H7.5c-.1-.1-.4-.3-.4-.5s.2-.3.4-.4h34l.7.5c-.2.2-.5.5-.7.5Z" transform="translate(0)"/>
      <path d="M24.7,39.3H41.8c.1,0,.3.3.4.4l-.5.5H7.5a.7.7,0,0,1-.4-.5.8.8,0,0,1,.4-.4H24.7Z" transform="translate(0)"/>
      <path d="M24.6,45.8H7.5c-.1-.1-.4-.3-.4-.5l.4-.4h34l.7.5c-.2.2-.5.5-.8.5Z" transform="translate(0)"/>
    </g>
    <g>
      <path d="M16.7,11.8l-.8-2h-.8v2h-.8v-5h2.5l.4.3.3.5c.1.1.1.3.1.6a1.9,1.9,0,0,1-.2.8,1.8,1.8,0,0,1-.7.5l.9,2.2Zm.1-3.5a.8.8,0,0,0-.2-.6H15.1V9h1l.5-.2A.8.8,0,0,0,16.8,8.3Z" transform="translate(0)"/>
      <path d="M18.4,11.8v-5h3.1v.8H19.2V8.9h1.9v.8H19.2V11h2.3v.8Z" transform="translate(0)"/>
      <path d="M25.5,8.4a1.3,1.3,0,0,1-.1.6l-.3.4a1,1,0,0,1-.5.4H22.9v1.9h-.8v-5h2.4l.5.3a1,1,0,0,1,.4.5A1.5,1.5,0,0,1,25.5,8.4Zm-.8,0a.8.8,0,0,0-.2-.6l-.6-.2h-1V9.1h1l.6-.2C24.6,8.7,24.7,8.6,24.7,8.4Z" transform="translate(0)"/>
      <path d="M27.6,6.8h.7l.5.4.4.6a2.2,2.2,0,0,1,.1.8V10a2.2,2.2,0,0,1-.1.8,1,1,0,0,1-.4.5,1,1,0,0,1-.5.4l-.7.2-.8-.2a1,1,0,0,1-.5-.4.9.9,0,0,1-.3-.6,1.7,1.7,0,0,1-.1-.7V8.7A1.5,1.5,0,0,1,26,8a.6.6,0,0,1,.3-.6,1.2,1.2,0,0,1,.5-.5Zm0,.8h-.4l-.3.2-.2.4v2.1l.2.3.3.3H28c.1-.1.2-.2.2-.3l.2-.3a.6.6,0,0,0,.1-.4V8.6a.8.8,0,0,0-.1-.4l-.2-.3a.2.2,0,0,0-.2-.2Z" transform="translate(0)"/>
      <path d="M32.6,11.8l-.9-2h-.8v2h-.8v-5h2.5l.5.3.3.5a3.5,3.5,0,0,1,.1.6,1.1,1.1,0,0,1-.3.8,1.3,1.3,0,0,1-.7.5l1,2.2Zm0-3.5c0-.3,0-.5-.2-.6H30.9V9h1l.5-.2C32.6,8.7,32.6,8.5,32.6,8.3Z" transform="translate(0)"/>
      <path d="M35.9,7.6v4.2h-.8V7.6H33.8V6.8h3.3v.8Z" transform="translate(0)"/>
    </g>
  </g>
</svg>
