<svg xmlns="http://www.w3.org/2000/svg" xmlns:xlink="http://www.w3.org/1999/xlink" viewBox="0 0 54 73">
  <defs>
    <style>
      .a {
        fill: #343951;
      }

      .b {
        fill: #fff;
      }

      .c {
        fill: url(#a);
      }

      .d {
        fill: url(#b);
      }

      .e {
        fill: url(#c);
      }

      .f {
        fill: url(#d);
      }
    </style>
    <linearGradient id="a" x1="22.07" y1="164.92" x2="33.38" y2="162.33" gradientTransform="matrix(1, 0, 0, -1, 0, 200.78)" gradientUnits="userSpaceOnUse">
      <stop offset="0" stop-color="#343951"/>
      <stop offset="1" stop-color="#67a5fb"/>
    </linearGradient>
    <linearGradient id="b" x1="27.6" y1="150.91" x2="34.48" y2="150.1" gradientTransform="matrix(1, 0, 0, -1, 0, 200.78)" gradientUnits="userSpaceOnUse">
      <stop offset="0" stop-color="#343951"/>
      <stop offset="1" stop-color="#c10f19"/>
    </linearGradient>
    <linearGradient id="c" x1="85.75" y1="147" x2="88.14" y2="146.89" xlink:href="#b"/>
    <linearGradient id="d" x1="12.63" y1="173.95" x2="23.59" y2="174.3" gradientTransform="matrix(1, 0, 0, -1, 0, 200.78)" gradientUnits="userSpaceOnUse">
      <stop offset="0" stop-color="#888d9d"/>
      <stop offset="1" stop-color="#fff"/>
    </linearGradient>
  </defs>
  <title>logo-2</title>
  <g>
    <path class="a" d="M16,16.7a1.3,1.3,0,0,1,.1-.6v-.3A24.3,24.3,0,0,1,24.4,1.3,99.9,99.9,0,0,1,0,9.4V28.8A47.6,47.6,0,0,0,4.5,48.9,47,47,0,0,0,17.3,65.1L27,73l4.9-3.9C23.8,59.1,12.5,39.8,16,16.7Z"/>
    <path class="a" d="M27.4.2a34.3,34.3,0,0,1,2.4,3.3,24.3,24.3,0,0,1,3.1,14.2,23.8,23.8,0,0,1-5.5,13.5c-4.9,6.3-5.9,13.1-4.4,17.9A72.5,72.5,0,0,0,33.5,67.7l3.2-2.6A47,47,0,0,0,49.5,48.9,47.6,47.6,0,0,0,54,28.8V9.4A101.1,101.1,0,0,1,27.4.2Z"/>
    <path class="b" d="M24.4,1.3a24.1,24.1,0,0,0-8.3,14.4h0v.4c0,.1-.1.4-.1.6C12.5,39.8,23.8,59,31.9,69l1.7-1.3A72.9,72.9,0,0,1,23,49.1c-1.5-4.8-.5-11.6,4.4-17.9a23.8,23.8,0,0,0,5.5-13.5A24.3,24.3,0,0,0,29.8,3.5,25.2,25.2,0,0,0,27.4.2L27,0Z"/>
    <path class="c" d="M27.4,31.2c-4.9,6.3-5.9,13.1-4.4,17.9a58,58,0,0,0,2.7,6.2c-.2-3.7,3.9-7.7,3.9-7.7a24,24,0,0,0,6.9-12.9,24.3,24.3,0,0,0-1.8-14.6,25.6,25.6,0,0,1-4.4,6.8,29.5,29.5,0,0,1-2.9,4.3Z"/>
    <path class="d" d="M32.8,43.7a30.9,30.9,0,0,1-3.3,3.9h0s-4,4-3.8,7.7l-1.4-2.9a72.4,72.4,0,0,0,3.8,7.3,24.7,24.7,0,0,0,5.8-8.5A25.3,25.3,0,0,0,35.7,41a24.4,24.4,0,0,1-2.9,2.7Z"/>
    <path class="e" d="M24.3,52.2A28.8,28.8,0,0,1,23,49.1,28.8,28.8,0,0,0,24.3,52.2Z"/>
    <path class="f" d="M22.4,48.3C18,34,16.2,18.1,24.9,4.6c0,0,6.4,6.9,4.2,15.5C25.2,33.8,19.1,35.3,22.4,48.3Z"/>
  </g>
</svg>
