<svg xmlns="http://www.w3.org/2000/svg" viewBox="0 0 72.3 72.3">
  <title>logo-a</title>
  <g>
    <path d="M19.2,39l-1.6,4.9H15.5l5.3-15.5h2.4l5.3,15.5H26.3L24.7,39Zm5-1.5L22.7,33c-.3-1-.5-1.9-.8-2.8h0c-.3.9-.5,1.8-.8,2.8l-1.5,4.5Z"/>
    <path d="M37.9,27.8v1.3c3.3.2,6.5,2.2,6.5,7s-3.2,6.8-6.5,7v1.4H36V43.1c-3.3-.2-6.6-2-6.6-6.9S33,29.3,36,29.1V27.8ZM36,30.6c-2,.1-4.5,1.5-4.5,5.5s2.2,5.3,4.5,5.5Zm1.9,11c2.2-.1,4.5-1.6,4.5-5.5s-2.3-5.4-4.5-5.5Z"/>
    <path d="M47,28.4,50.1,35l1.2,2.7h0l1-2.8,2.4-6.5h2.1l-3.2,7.9a36.1,36.1,0,0,1-2.9,5.9,4.5,4.5,0,0,1-3.6,1.9H46l.2-1.6H47c1.6,0,2.5-1.5,3-2.6a1.2,1.2,0,0,0-.1-1L44.8,28.4Z"/>
    <path d="M72.3,72.3H0V0H72.3ZM4.4,67.9H67.9V4.4H4.4Z"/>
  </g>
</svg>
