<svg xmlns="http://www.w3.org/2000/svg" viewBox="0 0 72.3 72.3">
  <title>logo-a</title>
  <g>
    <path d="M9.2,44.5l7.4-16.4h1.7l7.5,16.4h-2l-1.9-4.3H13l-1.9,4.3Zm4.5-6h7.5l-3.7-8.3Z"/>
    <path d="M35.7,45.1V43.3a9,9,0,0,1-6-1.9,6.4,6.4,0,0,1-2.2-5.1,6.1,6.1,0,0,1,2.2-5.1c1.4-1.3,3.4-1.9,6-1.9V27.7h1.8v1.6c2.6,0,4.7.6,6.1,1.9a6.4,6.4,0,0,1,2.2,5.1,6.7,6.7,0,0,1-2.2,5.1,9.3,9.3,0,0,1-6.1,1.9v1.8Zm0-3.5V30.9A7.3,7.3,0,0,0,31,32.3a4.9,4.9,0,0,0-1.6,4A4.7,4.7,0,0,0,31,40.2,6.8,6.8,0,0,0,35.7,41.6Zm1.8,0a6.6,6.6,0,0,0,4.7-1.4,4.8,4.8,0,0,0,1.7-3.9,5,5,0,0,0-1.7-4,7.1,7.1,0,0,0-4.7-1.4Z"/>
    <path d="M51.1,44.7a6.7,6.7,0,0,1-2.8-.6l.7-1.5a4.6,4.6,0,0,0,2.1.5q1.9,0,3.3-2.4L47.2,28.2h2.1l6,10.6,5.2-10.6h2L56,41.1C54.8,43.5,53.1,44.7,51.1,44.7Z"/>
    <path d="M72.3,72.3H0V0H72.3ZM4.4,67.9H67.9V4.4H4.4Z"/>
  </g>
</svg>
