<svg xmlns="http://www.w3.org/2000/svg" xmlns:xlink="http://www.w3.org/1999/xlink" viewBox="0 0 49 51">
  <defs>
    <style>
      .a {
        fill: url(#a);
      }

      .b {
        fill: url(#b);
      }

      .c {
        fill: url(#c);
      }

      .d {
        fill: #fff;
      }
    </style>
    <linearGradient id="a" data-name="Безымянный градиент 5" x1="21.6" y1="64.61" x2="21.6" y2="17" gradientTransform="matrix(1, 0, 0, -1, 0, 67.97)" gradientUnits="userSpaceOnUse">
      <stop offset="0.15" stop-color="#3f64b4"/>
      <stop offset="1" stop-color="#00a6e0"/>
    </linearGradient>
    <linearGradient id="b" data-name="Безымянный градиент 2" x1="27.4" y1="67.97" x2="27.4" y2="20.36" gradientTransform="matrix(1, 0, 0, -1, 0, 67.97)" gradientUnits="userSpaceOnUse">
      <stop offset="0" stop-color="#761f87"/>
      <stop offset="0.35" stop-color="#742189"/>
      <stop offset="0.53" stop-color="#6e298e"/>
      <stop offset="0.68" stop-color="#633797"/>
      <stop offset="0.81" stop-color="#544aa3"/>
      <stop offset="0.92" stop-color="#4063b3"/>
      <stop offset="0.93" stop-color="#3f64b4"/>
    </linearGradient>
    <linearGradient id="c" data-name="Безымянный градиент 3" x1="24.5" y1="64.61" x2="24.5" y2="20.36" gradientTransform="matrix(1, 0, 0, -1, 0, 67.97)" gradientUnits="userSpaceOnUse">
      <stop offset="0.15" stop-color="#2c0041"/>
      <stop offset="1" stop-color="#0068c2"/>
    </linearGradient>
  </defs>
  <title>logo-1</title>
  <g>
    <path class="a" d="M4.1,12.2,17.5,4.5a8,8,0,0,1,8.2,0l13.4,7.7a8.4,8.4,0,0,1,4.1,7.2V35.1A8.2,8.2,0,0,1,39,42.2L25.7,49.9a8.5,8.5,0,0,1-8.2,0L4.1,42.2A8.4,8.4,0,0,1,0,35.1V19.4A8.4,8.4,0,0,1,4.1,12.2Z"/>
    <path class="b" d="M9.9,8.8,23.3,1.1a8,8,0,0,1,8.2,0L44.8,8.8A8.3,8.3,0,0,1,49,16V31.7a8.1,8.1,0,0,1-4.2,7.1L31.5,46.5a8.2,8.2,0,0,1-8.3,0L9.9,38.8a8.4,8.4,0,0,1-4.1-7.1V16A8.4,8.4,0,0,1,9.9,8.8Z"/>
    <path class="c" d="M39.1,12.2,25.7,4.5a8,8,0,0,0-8.2,0L9.1,9.3A8.4,8.4,0,0,0,5.8,16V31.7a8.4,8.4,0,0,0,4.1,7.1l13.3,7.7a8.2,8.2,0,0,0,8.3,0l8.4-4.8a8.2,8.2,0,0,0,3.3-6.6V19.4A8.4,8.4,0,0,0,39.1,12.2Z"/>
    <g>
      <path class="d" d="M37.5,28.4c0-8.7-7-12.1-13.7-12.1H17.6V37.4h2.6V28h.1L34.8,44.6l1.9-1.1-4.5-5.3A11.1,11.1,0,0,0,37.5,28.4Zm-14.4-.7,5.2-7.6H25.4l-5.2,7.3V18.6h3.5c5.3,0,11,2.9,11,9.8a9.3,9.3,0,0,1-4.2,7.9Z"/>
      <path class="d" d="M24.2,38.2H15.5V10H35.3L30.5,7.2H12.7V40.4H24.4a16.1,16.1,0,0,0,4.4-.6l-1.7-1.9A14.3,14.3,0,0,1,24.2,38.2Z"/>
    </g>
  </g>
</svg>
