<svg xmlns="http://www.w3.org/2000/svg" viewBox="0 0 24 24"><defs><style>.cls-1{fill-rule:evenodd;}</style></defs><title>icon-black-phone</title><g id="Слой_2" data-name="Слой 2"><g id="Слой_1-2" data-name="Слой 1"><path class="cls-1" d="M1,0A1,1,0,0,0,0,1V23a1,1,0,0,0,1,1H23a1,1,0,0,0,1-1V1a1,1,0,0,0-1-1ZM17.54,19.19l-.48.15a5.15,5.15,0,0,1-1.86-.13,16.4,16.4,0,0,1-4-1.73,14.64,14.64,0,0,1-4.68-5.12A9.32,9.32,0,0,1,5.25,8.6a4.06,4.06,0,0,1,1.13-3,2.41,2.41,0,0,1,2-.65.6.6,0,0,1,.39.27,10,10,0,0,1,.6,1l1,1.79a.61.61,0,0,1-.1.9c-.3.3-.64.57-1,.84-.76.64-.76.76-.29,1.62a11,11,0,0,0,4.51,4.44c.63.34.79.33,1.27-.21.32-.37.64-.75,1-1.11s.54-.37,1-.12c.88.51,1.75,1,2.63,1.51a.75.75,0,0,1,.4.82,2.75,2.75,0,0,1-2.22,2.53"/></g></g></svg>