<svg xmlns="http://www.w3.org/2000/svg" viewBox="0 0 24 24"><defs><style>.cls-1{fill:#fff;fill-rule:evenodd;}</style></defs><title>icom-mail</title><g id="Слой_2" data-name="Слой 2"><g id="Слой_1-2" data-name="Слой 1"><path class="cls-1" d="M1,0A1,1,0,0,0,0,1V23a1,1,0,0,0,1,1H23a1,1,0,0,0,1-1V1a1,1,0,0,0-1-1ZM12.43,9.55a1.73,1.73,0,0,0-1.54.78,5.25,5.25,0,0,0-.7,2.38,3.13,3.13,0,0,0,.17,1.57.89.89,0,0,0,.85.53,1.2,1.2,0,0,0,.7-.21l.27-.14c.14-.36.24-.66.24-.68v0h0c.13,0,.3-.49.37-1l.26-2.06c.07-.54,0-1-.1-1.06l-.14,0a2.34,2.34,0,0,0-.38,0m7,2.38A5,5,0,0,1,18.26,15,4.05,4.05,0,0,1,15,16.26a2.27,2.27,0,0,1-1.23-.35l-.24-.15a.63.63,0,0,0-1.1-.11l-.4.26a2.65,2.65,0,0,1-1.41.33,2.27,2.27,0,0,1-2-1,3.58,3.58,0,0,1-.51-2.56,5.89,5.89,0,0,1,1.32-3.3,3.34,3.34,0,0,1,2.62-1.24,5.68,5.68,0,0,1,1.71.21,5.34,5.34,0,0,1,.51.18l.89.44h0s0,.45-.08,1l-.27,2.69c-.05.55-.1,1.39-.1,1.88l.13.18a.61.61,0,0,0,.52.3,2,2,0,0,0,1.69-.89,4.16,4.16,0,0,0,.71-2.24,6.08,6.08,0,0,0-1.25-4.47,5.42,5.42,0,0,0-4.31-1.61A5.87,5.87,0,0,0,7.8,7.57,7,7,0,0,0,6,12.21a6.09,6.09,0,0,0,1.34,4.55,5.45,5.45,0,0,0,4.29,1.66,8.19,8.19,0,0,0,1.6-.16l.55-.11c.48-.16,1,0,1.05.3s-.24.78-.75,1l-.64.13a9.15,9.15,0,0,1-1.85.19,7.4,7.4,0,0,1-5.58-2,7.14,7.14,0,0,1-1.81-5.54A7.88,7.88,0,0,1,6.55,6.66a7.89,7.89,0,0,1,5.72-2.08,7.13,7.13,0,0,1,5.42,2,7,7,0,0,1,1.74,5.38"/></g></g></svg>