<svg xmlns="http://www.w3.org/2000/svg" viewBox="0 0 24 24"><defs><style>.cls-1{fill:#fff;fill-rule:evenodd;}</style></defs><title>icon-vk</title><g id="Слой_2" data-name="Слой 2"><g id="Слой_1-2" data-name="Слой 1"><path class="cls-1" d="M1,0A1,1,0,0,0,0,1V23a1,1,0,0,0,1,1H23a1,1,0,0,0,1-1V1a1,1,0,0,0-1-1ZM14,12.35a8,8,0,0,0-2-.3H11.6a1,1,0,0,0-1,1v2a1,1,0,0,0,1,1h.21a14.57,14.57,0,0,0,2-.18,1.85,1.85,0,0,0,.64-.32A1.51,1.51,0,0,0,15,14.29a2.36,2.36,0,0,0-.47-1.56,1.77,1.77,0,0,0-.55-.38M16.38,17a8.35,8.35,0,0,1-2.59.88,14.56,14.56,0,0,1-2,.17H8.6a1,1,0,0,1-1-1v-10a1,1,0,0,1,1-1h2.58c.55,0,1.45,0,2,.06a7.46,7.46,0,0,1,2.66.66,2.6,2.6,0,0,1,1.32,2.38,2.29,2.29,0,0,1-.49,1.45,1.67,1.67,0,0,1-.52.52c-.5.24-.47.58.05.76a2,2,0,0,1,.85.65,2.89,2.89,0,0,1,.59,1.81A3.1,3.1,0,0,1,16.38,17m-2.47-6.46a1.35,1.35,0,0,0,.58-1.19,1.1,1.1,0,0,0-.58-1.06A1.45,1.45,0,0,0,13.18,8l-1.79,0a.92.92,0,0,0-.79,1v1a.93.93,0,0,0,.84,1,12.26,12.26,0,0,0,1.81-.19,2.08,2.08,0,0,0,.66-.32"/></g></g></svg>