<svg xmlns="http://www.w3.org/2000/svg" viewBox="0 0 24 24"><defs><style>.cls-1{fill:#fff;fill-rule:evenodd;}</style></defs><title>icon-point</title><g id="Слой_2" data-name="Слой 2"><g id="Слой_2-2" data-name="Слой 2"><path class="cls-1" d="M1,0A1,1,0,0,0,0,1V23a1,1,0,0,0,1,1H23a1,1,0,0,0,1-1V1a1,1,0,0,0-1-1ZM15.51,4.64a5.93,5.93,0,0,1,1.57,1.92,6,6,0,0,1,.47,3.06A12.57,12.57,0,0,1,16.74,13a20.75,20.75,0,0,1-1.31,2.83c-.41.73-.84,1.45-1.3,2.14S13,19.53,12.45,20.31l0,0s-.2-.07-.35-.26l-.13-.17a32.22,32.22,0,0,1-2-2.93A26.1,26.1,0,0,1,8.28,13.8a14.39,14.39,0,0,1-1.07-3.51,6.84,6.84,0,0,1,0-2.43A4.76,4.76,0,0,1,7.86,6.2,5,5,0,0,1,9.4,4.57a5.16,5.16,0,0,1,3-1.1A5.26,5.26,0,0,1,15.51,4.64ZM12.35,5.75a3.15,3.15,0,1,0,3.14,3.16A3.16,3.16,0,0,0,12.35,5.75Z"/></g></g></svg>