<svg xmlns="http://www.w3.org/2000/svg" viewBox="0 0 137.36 23.27"><defs><style>.cls-1{fill:#fff;}</style></defs><title>Ресурс 1</title><g id="Слой_2" data-name="Слой 2"><g id="Слой_2-2" data-name="Слой 2"><path class="cls-1" d="M17.15,20.16s-2.28,3.11-7.75,3.11a9.28,9.28,0,0,1-6.66-2.53A9.34,9.34,0,0,1,0,13.9,9,9,0,0,1,2.77,7.23,9.89,9.89,0,0,1,9.66,4.6,9.77,9.77,0,0,1,17.33,8l-2.81,2.78A6,6,0,0,0,9.66,8.49,4.9,4.9,0,0,0,5.91,10,5.26,5.26,0,0,0,4.36,13.9a5.52,5.52,0,0,0,1.51,4,4.93,4.93,0,0,0,3.71,1.52,6.06,6.06,0,0,0,3.25-.91V16.25H8.54V12.47h8.61Z"/><path class="cls-1" d="M35.36,7.41A9,9,0,0,1,38,13.93a9.12,9.12,0,0,1-2.81,6.74,9.55,9.55,0,0,1-6.74,2.6,9.6,9.6,0,0,1-6.88-2.67,9.43,9.43,0,0,1-2.74-6.67,9.28,9.28,0,0,1,3-6.77A9.45,9.45,0,0,1,28.44,4.6,9.6,9.6,0,0,1,35.36,7.41ZM24.7,17.83a5.22,5.22,0,0,0,7.38.1,5.3,5.3,0,0,0,1.55-4,5.39,5.39,0,0,0-1.55-4,5.23,5.23,0,0,0-3.64-1.44A5.07,5.07,0,0,0,24.66,10a5.28,5.28,0,0,0-1.48,3.89A5.07,5.07,0,0,0,24.7,17.83Z"/><path class="cls-1" d="M55.74,7.41a9.07,9.07,0,0,1,2.63,6.52,9.16,9.16,0,0,1-2.81,6.74,10.13,10.13,0,0,1-13.63-.07,9.43,9.43,0,0,1-2.74-6.67,9.28,9.28,0,0,1,3-6.77A9.48,9.48,0,0,1,48.82,4.6,9.64,9.64,0,0,1,55.74,7.41ZM45.07,17.83a5.23,5.23,0,0,0,7.39.1,5.3,5.3,0,0,0,1.55-4,5.39,5.39,0,0,0-1.55-4,5.26,5.26,0,0,0-3.64-1.44A5.09,5.09,0,0,0,45,10a5.27,5.27,0,0,0-1.47,3.89A5.1,5.1,0,0,0,45.07,17.83Z"/><path class="cls-1" d="M68.5,4.93a9.5,9.5,0,0,1,7,2.59,8.93,8.93,0,0,1,2.56,6.41,9,9,0,0,1-2.56,6.45,9.61,9.61,0,0,1-7,2.56H60.74v-18ZM65.07,8.82V19.09h3.29a5,5,0,0,0,4.07-1.55,4.9,4.9,0,0,0,1.3-3.61,5.19,5.19,0,0,0-1.34-3.67,5.26,5.26,0,0,0-4-1.44Z"/><path class="cls-1" d="M94.93,16.49a7.28,7.28,0,0,1-5.16,1.88h-5.1v4.57H80.35v-18h9.42a7.39,7.39,0,0,1,5.45,2.23,6.59,6.59,0,0,1,1.72,4.5A6.36,6.36,0,0,1,94.93,16.49Zm-3-2.88a2.9,2.9,0,0,0,.68-1.95,2.9,2.9,0,0,0-.54-1.8,2.75,2.75,0,0,0-2.49-1.08H84.67v5.73h5.1A2.76,2.76,0,0,0,91.94,13.61Z"/><path class="cls-1" d="M103.43,4.93v18H99v-18Z"/><path class="cls-1" d="M111.35,17.75a5.31,5.31,0,0,0,3.89,1.63,6.92,6.92,0,0,0,5.05-2.24L123,20a10.15,10.15,0,0,1-7.71,3.32A9.68,9.68,0,0,1,107.57,20a9.43,9.43,0,0,1-2.1-6.09A9,9,0,0,1,108.58,7a10.27,10.27,0,0,1,6.66-2.38A10,10,0,0,1,123,7.92l-2.74,2.77a6.22,6.22,0,0,0-5-2.2A5.39,5.39,0,0,0,111.31,10a5.51,5.51,0,0,0-1.44,3.93A5.33,5.33,0,0,0,111.35,17.75Z"/><polygon class="cls-1" points="131.4 0 125.43 5.96 137.36 5.96 131.4 0"/></g></g></svg>