<svg xmlns="http://www.w3.org/2000/svg" viewBox="0 0 56.91 9.49"><defs><style>.cls-1{fill:#fff;}</style></defs><title>logo-sm</title><g id="Слой_2" data-name="Слой 2"><g id="Слой_1-2" data-name="Слой 1"><path class="cls-1" d="M7.11,8.2A4,4,0,0,1,3.9,9.49,3.9,3.9,0,0,1,1.13,8.44,3.87,3.87,0,0,1,0,5.61,3.76,3.76,0,0,1,1.15,2.84,4.09,4.09,0,0,1,4,1.75,4.05,4.05,0,0,1,7.18,3.14L6,4.29a2.5,2.5,0,0,0-2-.92A2,2,0,0,0,2.45,4a2.18,2.18,0,0,0-.64,1.62,2.29,2.29,0,0,0,.62,1.64A2,2,0,0,0,4,7.88,2.46,2.46,0,0,0,5.31,7.5V6.58H3.54V5H7.11Z"/><path class="cls-1" d="M14.65,2.92a3.75,3.75,0,0,1,1.09,2.7,3.76,3.76,0,0,1-1.16,2.79,4,4,0,0,1-2.8,1.08A4,4,0,0,1,8.93,8.38,3.89,3.89,0,0,1,9,2.81a4.11,4.11,0,0,1,5.63.11M10.23,7.23a2.16,2.16,0,0,0,3.06,0,2.21,2.21,0,0,0,.64-1.66A2.22,2.22,0,0,0,13.29,4a2.14,2.14,0,0,0-1.51-.6A2.05,2.05,0,0,0,10.22,4,2.16,2.16,0,0,0,9.6,5.62a2.11,2.11,0,0,0,.63,1.61"/><path class="cls-1" d="M23.09,2.92a3.75,3.75,0,0,1,1.09,2.7A3.76,3.76,0,0,1,23,8.41a4,4,0,0,1-2.79,1.08,4,4,0,0,1-2.86-1.11,3.89,3.89,0,0,1,.09-5.57,4.11,4.11,0,0,1,5.63.11M18.67,7.23a2.16,2.16,0,0,0,3.06,0,2.21,2.21,0,0,0,.64-1.66A2.22,2.22,0,0,0,21.73,4a2.13,2.13,0,0,0-1.5-.6A2.06,2.06,0,0,0,18.66,4a2.15,2.15,0,0,0-.61,1.61,2.1,2.1,0,0,0,.62,1.61"/><path class="cls-1" d="M28.38,1.89A3.94,3.94,0,0,1,31.28,3a3.75,3.75,0,0,1,1.06,2.66,3.74,3.74,0,0,1-1.06,2.67,4,4,0,0,1-2.9,1.06H25.17V1.89ZM27,3.5V7.75h1.36A2,2,0,0,0,30,7.11a2,2,0,0,0,.54-1.49A2.13,2.13,0,0,0,30,4.1a2.16,2.16,0,0,0-1.67-.6Z"/><path class="cls-1" d="M39.33,6.68a3,3,0,0,1-2.14.78H35.08V9.35H33.29V1.89h3.9a3.06,3.06,0,0,1,2.26.92,2.76,2.76,0,0,1,.72,1.87,2.65,2.65,0,0,1-.84,2m-1.24-1.2a1.18,1.18,0,0,0,.28-.8,1.21,1.21,0,0,0-.22-.75,1.14,1.14,0,0,0-1-.45h-2V5.86h2.11a1.12,1.12,0,0,0,.9-.38"/><rect class="cls-1" x="41.03" y="1.89" width="1.82" height="7.47"/><path class="cls-1" d="M46.13,7.2a2.2,2.2,0,0,0,1.62.68A2.89,2.89,0,0,0,49.84,7l1.1,1.16a4.2,4.2,0,0,1-3.19,1.38,4,4,0,0,1-3.18-1.36,3.9,3.9,0,0,1-.87-2.52A3.73,3.73,0,0,1,45,2.74a4.27,4.27,0,0,1,2.77-1,4.15,4.15,0,0,1,3.19,1.38L49.81,4.28a2.59,2.59,0,0,0-2.06-.91A2.18,2.18,0,0,0,46.12,4a2.29,2.29,0,0,0-.6,1.63,2.21,2.21,0,0,0,.61,1.59"/><polygon class="cls-1" points="54.44 0 51.97 2.47 56.91 2.47 54.44 0"/></g></g></svg>