<svg xmlns="http://www.w3.org/2000/svg" viewBox="0 0 612.91 148.2"><defs><style>.cls-1{fill:#fff;}.cls-2{fill:#ba1e2d;}</style></defs><title>Ресурс 1</title><g id="Слой_2" data-name="Слой 2"><g id="Слой_2-2" data-name="Слой 2"><path class="cls-1" d="M7.35,137.8c0,.53-.06,1.11-.06,2V144c0,1.67-.33,2.69-1,3.32a3.82,3.82,0,0,1-2.63.87,4.72,4.72,0,0,1-2.42-.6l.33-1a4.09,4.09,0,0,0,2.13.57c1.35,0,2.34-.7,2.34-2.53v-.81H6A2.6,2.6,0,0,1,3.66,145a3.25,3.25,0,0,1-3.09-3.54c0-2.46,1.6-3.85,3.27-3.85A2.4,2.4,0,0,1,6.1,138.9h0l.06-1.1ZM6,140.67a1.87,1.87,0,0,0-.07-.6,1.91,1.91,0,0,0-1.85-1.4c-1.26,0-2.15,1.07-2.15,2.75,0,1.42.71,2.61,2.14,2.61a1.93,1.93,0,0,0,1.83-1.35A2.18,2.18,0,0,0,6,142Z"/><path class="cls-1" d="M40.05,141.37a3.55,3.55,0,0,1-3.62,3.86A3.45,3.45,0,0,1,33,141.49a3.53,3.53,0,0,1,3.59-3.85A3.43,3.43,0,0,1,40.05,141.37Zm-5.76.08c0,1.59.92,2.79,2.2,2.79s2.21-1.19,2.21-2.82c0-1.23-.62-2.79-2.18-2.79S34.29,140.07,34.29,141.45Z"/><path class="cls-1" d="M72,134.41v8.78c0,.64,0,1.38.06,1.87H70.86l-.06-1.26h0a2.69,2.69,0,0,1-2.48,1.43c-1.75,0-3.1-1.49-3.1-3.69,0-2.42,1.48-3.9,3.26-3.9a2.41,2.41,0,0,1,2.18,1.11h0v-4.34Zm-1.32,6.35a2.14,2.14,0,0,0-.06-.56,1.93,1.93,0,0,0-1.9-1.53c-1.37,0-2.17,1.2-2.17,2.81s.72,2.68,2.14,2.68a2,2,0,0,0,1.93-1.57,2.08,2.08,0,0,0,.06-.57Z"/><path class="cls-1" d="M126.82,135.76a.77.77,0,0,1-.84.81.78.78,0,0,1-.79-.81.8.8,0,0,1,.82-.82A.78.78,0,0,1,126.82,135.76Zm-1.47,9.3V137.8h1.32v7.26Z"/><path class="cls-1" d="M152.68,143.71a3.41,3.41,0,0,0,1.74.53c1,0,1.41-.48,1.41-1.08s-.37-1-1.35-1.34c-1.3-.46-1.92-1.18-1.92-2a2.24,2.24,0,0,1,2.51-2.13,3.6,3.6,0,0,1,1.78.45l-.33,1a2.81,2.81,0,0,0-1.48-.42c-.78,0-1.22.45-1.22,1s.44.87,1.38,1.23c1.26.48,1.91,1.11,1.91,2.19,0,1.27-1,2.17-2.72,2.17a4.15,4.15,0,0,1-2-.49Z"/><path class="cls-1" d="M216.24,137.8c0,.53-.06,1.11-.06,2V144c0,1.67-.33,2.69-1,3.32a3.83,3.83,0,0,1-2.64.87,4.65,4.65,0,0,1-2.41-.6l.33-1a4.09,4.09,0,0,0,2.13.57c1.35,0,2.34-.7,2.34-2.53v-.81h0a2.61,2.61,0,0,1-2.31,1.21,3.25,3.25,0,0,1-3.09-3.54c0-2.46,1.6-3.85,3.27-3.85A2.4,2.4,0,0,1,215,138.9h0l.06-1.1Zm-1.37,2.87a1.87,1.87,0,0,0-.07-.6,1.91,1.91,0,0,0-1.85-1.4c-1.26,0-2.16,1.07-2.16,2.75,0,1.42.72,2.61,2.15,2.61a1.93,1.93,0,0,0,1.83-1.35,2.48,2.48,0,0,0,.1-.71Z"/><path class="cls-1" d="M248.94,141.37a3.55,3.55,0,0,1-3.62,3.86,3.46,3.46,0,0,1-3.48-3.74,3.54,3.54,0,0,1,3.6-3.85A3.43,3.43,0,0,1,248.94,141.37Zm-5.76.08c0,1.59.91,2.79,2.2,2.79s2.21-1.19,2.21-2.82c0-1.23-.62-2.79-2.18-2.79S243.18,140.07,243.18,141.45Z"/><path class="cls-1" d="M281.17,141.37a3.55,3.55,0,0,1-3.61,3.86,3.45,3.45,0,0,1-3.48-3.74,3.54,3.54,0,0,1,3.6-3.85A3.43,3.43,0,0,1,281.17,141.37Zm-5.76.08c0,1.59.92,2.79,2.21,2.79s2.2-1.19,2.2-2.82c0-1.23-.61-2.79-2.17-2.79S275.41,140.07,275.41,141.45Z"/><path class="cls-1" d="M313.11,134.41v8.78c0,.64,0,1.38.06,1.87H312l-.06-1.26h0a2.68,2.68,0,0,1-2.47,1.43c-1.76,0-3.11-1.49-3.11-3.69,0-2.42,1.49-3.9,3.26-3.9a2.42,2.42,0,0,1,2.19,1.11h0v-4.34Zm-1.32,6.35a2.67,2.67,0,0,0-.06-.56,2,2,0,0,0-1.91-1.53c-1.36,0-2.17,1.2-2.17,2.81s.72,2.68,2.14,2.68a2,2,0,0,0,1.94-1.57,2.56,2.56,0,0,0,.06-.57Z"/><path class="cls-1" d="M372.75,134.41v8.78c0,.64,0,1.38.06,1.87h-1.19l-.06-1.26h0a2.68,2.68,0,0,1-2.47,1.43c-1.76,0-3.11-1.49-3.11-3.69,0-2.42,1.49-3.9,3.26-3.9a2.42,2.42,0,0,1,2.19,1.11h0v-4.34Zm-1.32,6.35a2.67,2.67,0,0,0-.06-.56,2,2,0,0,0-1.91-1.53c-1.36,0-2.17,1.2-2.17,2.81s.72,2.68,2.14,2.68a2,2,0,0,0,1.94-1.57,2.56,2.56,0,0,0,.06-.57Z"/><path class="cls-1" d="M399.67,141.67a2.32,2.32,0,0,0,2.49,2.52,4.75,4.75,0,0,0,2-.37l.23.94a5.91,5.91,0,0,1-2.42.45,3.37,3.37,0,0,1-3.57-3.66c0-2.19,1.29-3.91,3.41-3.91,2.37,0,3,2.08,3,3.42a3.87,3.87,0,0,1-.05.61Zm3.87-.94a1.88,1.88,0,0,0-1.83-2.15,2.18,2.18,0,0,0-2,2.15Z"/><path class="cls-1" d="M430.27,143.71a3.41,3.41,0,0,0,1.74.53c1,0,1.41-.48,1.41-1.08s-.37-1-1.35-1.34c-1.3-.46-1.92-1.18-1.92-2a2.24,2.24,0,0,1,2.51-2.13,3.6,3.6,0,0,1,1.78.45l-.33,1a2.81,2.81,0,0,0-1.48-.42c-.78,0-1.22.45-1.22,1s.44.87,1.38,1.23c1.26.48,1.91,1.11,1.91,2.19,0,1.27-1,2.17-2.72,2.17a4.15,4.15,0,0,1-2-.49Z"/><path class="cls-1" d="M461.86,135.76a.77.77,0,0,1-.84.81.78.78,0,0,1-.79-.81.8.8,0,0,1,.82-.82A.78.78,0,0,1,461.86,135.76Zm-1.47,9.3V137.8h1.32v7.26Z"/><path class="cls-1" d="M494.16,137.8c0,.53-.06,1.11-.06,2V144c0,1.67-.33,2.69-1,3.32a3.83,3.83,0,0,1-2.64.87,4.65,4.65,0,0,1-2.41-.6l.33-1a4.09,4.09,0,0,0,2.13.57c1.35,0,2.34-.7,2.34-2.53v-.81h0a2.61,2.61,0,0,1-2.31,1.21,3.25,3.25,0,0,1-3.09-3.54c0-2.46,1.6-3.85,3.27-3.85a2.4,2.4,0,0,1,2.26,1.26h0l.06-1.1Zm-1.37,2.87a1.87,1.87,0,0,0-.07-.6,1.91,1.91,0,0,0-1.85-1.4c-1.26,0-2.16,1.07-2.16,2.75,0,1.42.72,2.61,2.15,2.61a1.93,1.93,0,0,0,1.83-1.35,2.48,2.48,0,0,0,.1-.71Z"/><path class="cls-1" d="M520.2,139.77c0-.75,0-1.37-.06-2h1.17l.07,1.2h0a2.67,2.67,0,0,1,2.4-1.36c1,0,2.57.6,2.57,3.09v4.33h-1.32v-4.18c0-1.17-.44-2.15-1.68-2.15a1.88,1.88,0,0,0-1.77,1.35,1.93,1.93,0,0,0-.09.62v4.36H520.2Z"/><path class="cls-1" d="M76.53,89.79S66.35,103.66,42,103.66c-12.22,0-22.19-4-29.74-11.27C4.34,84.84,0,73.9,0,61.84c0-11.42,4.17-22,12.38-29.74,7.56-7.24,18.33-11.74,30.71-11.74,13.5,0,24.12,4.18,34.25,15L64.79,47.69c-7.71-7.88-13.33-10-21.7-10-6.91,0-12.54,2.24-16.73,6.76-4.34,4-6.9,10.29-6.9,17.36,0,7.56,2.73,13.67,6.74,17.68a22,22,0,0,0,16.57,6.77,27.35,27.35,0,0,0,14.47-4V72.35l-19.13,0V55.47H76.53Z"/><path class="cls-1" d="M157.79,32.9A40.39,40.39,0,0,1,169.53,62,40.81,40.81,0,0,1,157,92.08c-7.56,7.23-17.86,11.58-30.07,11.58-12.37,0-23.15-4.35-30.7-11.91A42,42,0,0,1,84,62,41.44,41.44,0,0,1,97.17,31.77c7.56-7.07,17.53-11.41,29.75-11.41A42.91,42.91,0,0,1,157.79,32.9ZM110.2,79.37a23.31,23.31,0,0,0,33,.48c4.51-4,6.9-10.61,6.9-17.85,0-7.55-2.39-13.67-6.9-18a23.36,23.36,0,0,0-16.24-6.43A22.57,22.57,0,0,0,110,44.63c-4,3.86-6.58,9.82-6.58,17.37S105.85,75.35,110.2,79.37Z"/><path class="cls-1" d="M248.7,32.9A40.4,40.4,0,0,1,260.45,62a40.79,40.79,0,0,1-12.56,30.08c-7.56,7.23-17.85,11.58-30.07,11.58-12.38,0-23.15-4.35-30.71-11.91A42,42,0,0,1,174.89,62a41.45,41.45,0,0,1,13.19-30.23c7.56-7.07,17.53-11.41,29.74-11.41A42.93,42.93,0,0,1,248.7,32.9ZM201.1,79.37a23.32,23.32,0,0,0,33,.48c4.5-4,6.92-10.61,6.92-17.85,0-7.55-2.42-13.67-6.92-18a23.38,23.38,0,0,0-16.25-6.43A22.5,22.5,0,0,0,201,44.63c-4,3.86-6.59,9.82-6.59,17.37S196.76,75.35,201.1,79.37Z"/><path class="cls-1" d="M305.65,21.8c13.68,0,24,4.35,31.21,11.58A39.92,39.92,0,0,1,348.26,62c0,11.58-4.33,21.71-11.4,28.78-7.25,7.08-17.53,11.43-31.21,11.43H271V21.8ZM290.34,39.17V85H305c9,0,14.31-2.57,18.16-6.91C327,74.23,329,68.91,329,62s-2.25-12.54-6-16.4c-3.86-4-9.49-6.43-18-6.43Z"/><path class="cls-1" d="M423.58,73.42c-5.63,5.31-13.35,8.36-23,8.36H377.8v20.43H358.52V21.8h42.06c9.81,0,18.34,3.7,24.29,10a29.38,29.38,0,0,1,7.71,20.1C432.58,60.87,429.21,68.27,423.58,73.42ZM410.23,60.55a12.74,12.74,0,0,0,3.06-8.68,13,13,0,0,0-2.41-8c-2.09-3-5.47-4.82-11.1-4.82h-22V64.57h22.78A12.26,12.26,0,0,0,410.23,60.55Z"/><path class="cls-1" d="M461.54,21.8v80.41H441.92V21.8Z"/><path class="cls-1" d="M496.85,79a23.76,23.76,0,0,0,17.36,7.25c8.38,0,14.63-2.75,22.52-10l11.9,12.54c-10.77,10.29-20.27,14.8-34.42,14.8-14.78,0-26.52-5.48-34.24-14.65a42.09,42.09,0,0,1-9.33-27.17A40.23,40.23,0,0,1,484.47,31a45.92,45.92,0,0,1,29.74-10.6c13.51,0,23.65,4,34.42,14.79L536.41,47.53c-7.57-7.72-13.82-9.81-22.2-9.81-6.9,0-13.49,2.24-17.52,6.59s-6.44,10-6.44,17.53S493,75.19,496.85,79Z"/><polygon class="cls-2" points="586.3 0 559.69 26.61 612.91 26.61 586.3 0"/></g></g></svg>