<svg width="66" height="71" viewBox="0 0 66 71" fill="none" xmlns="http://www.w3.org/2000/svg"><path fill-rule="evenodd" clip-rule="evenodd" d="M64.9965 59.5703c1.6-2.08-4.3-29.56-9.35-28-3-3.87-4-5-3-5l-42.96004 1.13c-3.43 0-2.59 31.59.89004 31.87 18.02 1.44 54.42.31 54.42 0z" fill="#2196F3"/><path fill-rule="evenodd" clip-rule="evenodd" d="M26.297 22.171c-.55-.55-2.79-2.22-3.88-3.32-1.45-1.45-2.21-2.59-2.21-3.87 0-1.66 1.4-3.57 3-2 1.59-2.62 3.43-5.22998 4.25-8.12998v-.06c1.3638 1.60663 3.2323 2.70306 5.3 3.11 2.1126.42785 4.2648.62899 6.42.6l.68 2.74998c.1279.8618.472 1.6771 1 2.37.6372.721 1.6637.9544 2.55.58.52-2.62 3.71-1.12 3.35 1.27-.26 1.75-3.92 4.32-5 5.53-.8173.7135-1.7553 1.2757-2.77 1.66" fill="#F5AD89"/><path fill-rule="evenodd" clip-rule="evenodd" d="M31.6179 11.8807a18.5906 18.5906 0 00-.47 7.91c.11.52.91.3.8-.22-.379-2.4916-.2187-5.0356.47-7.46.12-.52-.68-.74-.8-.22v-.01z" fill="#151557"/><path fill-rule="evenodd" clip-rule="evenodd" d="M43.797 12.0803c0 1.01.17 2.33-1 2.71-3.0837.9977-3.6173-3.8944-3.7869-6.20841-.8125.25207-1.6694.36226-2.5331.31842-3.2387.0433-6.7549-.55831-8.5484-3.22701-.3856 1.66127-1.7688 4.18361-4.1497 7.567-.0732.091-.2819.5-.6419.3-2.7363-1.5202-1.82-3.56999-.88-6.08999.69-1.73 1.54-4.03 3.69-4.17.5774-.03864.259-1.23 2.88-2.04 2.6211-.809997 3.5873-.289997 5.67-.499997 1.2592-.12697 3.8582-1.07032 6-.618881 1.7698.37303 2.2.618881 3 2.618878.8 2-1.89 3.30785.3 9.33999z" fill="#151557"/><path fill-rule="evenodd" clip-rule="evenodd" d="M28.4961 15.2402c.2761 0 .5-.6715.5-1.5 0-.8284-.2239-1.5-.5-1.5s-.5.6716-.5 1.5c0 .8285.2239 1.5.5 1.5zM35.4961 15.2402c.2761 0 .5-.6715.5-1.5 0-.8284-.2239-1.5-.5-1.5s-.5.6716-.5 1.5c0 .8285.2239 1.5.5 1.5z" fill="#151557"/><rect x="7.47656" y="19.4707" width="49.81" height="47.12" rx="2" fill="#F2F5FA"/><path fill-rule="evenodd" clip-rule="evenodd" d="M23.5057 38.1112c-.1546 0-.28-.1253-.28-.28v-1.19a20.88408 20.88408 0 010-2.65c.0074-.0738.0448-.1413.1034-.1866.0586-.0454.1333-.0647.2066-.0534.1511.0208.2578.1586.24.31-.053.8525-.053 1.7075 0 2.56v1.21c.0001.1508-.1193.2746-.27.28z" fill="#151557"/><path fill-rule="evenodd" clip-rule="evenodd" d="M25.2762 34.1613h-1.68c-.1507-.0054-.2701-.1292-.27-.28.0054-.1507.1292-.2701.28-.27h1.68c.1319.0253.2273.1407.2273.275 0 .1344-.0954.2498-.2273.275h-.01zM23.6453 35.9396c-.1319-.0253-.2273-.1407-.2273-.275 0-.1343.0954-.2497.2273-.275l1.54-.09c.0733-.0055.1457.0191.2004.0682s.0871.1183.0896.1918c.0058.151-.1093.2793-.26.29l-1.54.09h-.03zM28.1749 37.7012c-.0998.0102-.2003.0102-.3 0-.4032-.1071-.7567-.3511-1-.69-.6349-.785-.6835-1.8923-.12-2.73.4743-.6005 1.2652-.8536 2-.64.6713.455 1.0984 1.1914 1.16 2 .0746.6932-.2171 1.3752-.77 1.8-.2898.1824-.6279.273-.97.26zm-1-3.12c-.415.6376-.3705 1.4702.11 2.06.1685.2405.4163.414.7.49.3034.0523.6148-.0238.86-.21.396-.3.605-.7862.55-1.28-.07-.54-.41-1.39-.82-1.55-.5222-.1227-1.0683.0684-1.4.49zM30.9965 38.1113c-.1507-.0106-.2657-.139-.26-.29.05-1.07 0-3 0-3.93-.0057-.1509.1093-.2793.26-.29.074-.0085.1481.015.2036.0647.0555.0497.0869.1209.0864.1953 0 1 .05 2.9 0 4-.0156.1468-.1425.2562-.29.25z" fill="#151557"/><path fill-rule="evenodd" clip-rule="evenodd" d="M33.876 38.1105a.279354.279354 0 01-.16 0l-.44-.31c-.5743-.4324-1.183-.817-1.82-1.15-.0846-.0397-.1438-.1189-.1578-.2113-.0141-.0923.0189-.1856.0878-.2487.2427-.199.5001-.3795.77-.54.29-.18.68-.42.71-.56.0404-.3258-.1388-.6394-.44-.77-.43-.21-1.05-.34-1.28-.17-.0787.0787-.1965.1033-.3001.0628-.1037-.0406-.1734-.1387-.1777-.2499-.0043-.1112.0576-.2144.1578-.2629.6007-.2625 1.2919-.2139 1.85.13.493.2267.7896.7396.74 1.28-.08.37-.48.63-1 .92l-.37.23c.5.28 1 .67 1.51 1l.43.3c.0921.0723.1295.1942.0938.3057-.0356.1114-.1369.189-.2538.1943l.05.05zM36.9163 38.0113h-.11c-.1391-.0597-.2055-.2191-.15-.36.3808-.7895.8221-1.5485 1.32-2.27.39-.61.76-1.18 1-1.62.0487-.0928.1452-.1507.25-.15.1049-.0007.2013.0572.25.15.3808.6585.8016 1.293 1.26 1.9.4797.6375.9173 1.3056 1.31 2 .0691.0891.0781.2109.0228.3091-.0552.0982-.164.1537-.276.1408-.112-.0129-.2053-.0917-.2368-.1999-.3808-.6584-.8016-1.2929-1.26-1.9-.4-.56-.78-1.09-1.06-1.53-.22.37-.49.79-.77 1.23-.4817.6964-.9096 1.4286-1.28 2.19-.0623.0844-.1665.1268-.27.11z" fill="#151557"/><path fill-rule="evenodd" clip-rule="evenodd" d="M39.9855 37.1113h-2.35c-.1319-.0253-.2273-.1407-.2273-.275 0-.1343.0954-.2497.2273-.275h3.3c.0733-.0055.1457.0191.2004.0682s.0871.1183.0896.1918c.0058.151-.1093.2793-.26.29h-.98zM14.7766 31.1102c-.2924.0004-.5341-.228-.55-.52-.06-1-.06-1.78-.06-2.58s0-1.59-.06-2.51c-.0125-.1965.0808-.3848.2447-.4938.1639-.1091.3736-.1225.55-.035.1764.0874.2928.2623.3053.4588.06 1 .06 1.78.06 2.58v2h2.37c.3065-.0138.5662.2235.58.53.0138.3065-.2235.5662-.53.58h-2.92l.01-.01zM21.2366 31.3587h-.43c-1.4249 0-2.58-1.1551-2.58-2.58v-1.56c0-1.4249 1.1551-2.58 2.58-2.58h.44c1.4249 0 2.58 1.1551 2.58 2.58v1.56c0 .686-.2732 1.3437-.7592 1.8279-.486.4841-1.1448.7547-1.8308.7521zm-.44-5.61c-.8119 0-1.47.6581-1.47 1.47v1.56c0 .8118.6581 1.47 1.47 1.47h.44c.8118 0 1.47-.6582 1.47-1.47v-1.56c0-.8119-.6582-1.47-1.47-1.47h-.44zM27.1659 31.3587h-.06c-.7346 0-1.4392-.2919-1.9586-.8113-.5195-.5195-.8114-1.2241-.8114-1.9587v-1.18c0-1.5299 1.2402-2.77 2.77-2.77h.06c1.5299 0 2.77 1.2401 2.77 2.77v1.18c0 .7346-.2918 1.4392-.8113 1.9587-.5195.5194-1.224.8113-1.9587.8113zm-.06-5.61c-.9168 0-1.66.7432-1.66 1.66v1.18c0 .9168.7432 1.66 1.66 1.66h.06c.9168 0 1.66-.7432 1.66-1.66v-1.18c0-.9168-.7432-1.66-1.66-1.66h-.06zM31.1165 30.8502c-.3038 0-.55-.2462-.55-.55v-5c-.0027-.1476.0541-.29.1575-.3954.1034-.1053.2449-.1646.3925-.1646.3038 0 .55.2463.55.55v5c.0027.1476-.0541.2901-.1575.3954-.1035.1053-.2449.1647-.3925.1646z" fill="#151557"/><path fill-rule="evenodd" clip-rule="evenodd" d="M34.4259 30.8002c-.11.0017-.218-.0297-.31-.09-1.0709-.6249-2.0445-1.4032-2.89-2.31-.1069-.1036-.1673-.2461-.1673-.395s.0604-.2914.1673-.395c.42-.41.86-.9 1.28-1.36.42-.46.88-1 1.32-1.41.2181-.2126.5673-.2082.78.01.2126.2181.2081.5674-.01.78-.42.41-.86.9-1.28 1.36-.42.46-.62.68-.93 1 .6981.6925 1.4809 1.294 2.33 1.79.1953.1372.2798.3848.2091.6129-.0707.228-.2804.3844-.5191.3871l.02.02zM36.716 30.7495c-.3037 0-.55-.2462-.55-.55v-2.49-2.51c0-.3065.2485-.555.555-.555.3065 0 .555.2485.555.555v5c0 .1476-.0593.2891-.1646.3925-.1053.1035-.2478.1602-.3954.1575zM39.6574 30.8497c-.3037 0-.55-.2463-.55-.55v-5c-.0006-.1461.057-.2864.16-.39l.19-.19c.1036-.103.2439-.1606.39-.16.1461-.0006.2864.057.39.16.774.8283 1.4796 1.7178 2.11 2.66.39.55.78 1.1 1.19 1.61v-3.88c0-.3065.2485-.555.555-.555.3065 0 .555.2485.555.555v4.81c.0001.0869-.0205.1726-.06.25l-.14.28c-.0788.1611-.2313.2737-.4085.3016-.1773.0279-.357-.0325-.4815-.1616a21.00838 21.00838 0 01-2.12-2.66c-.4-.57-.81-1.14-1.24-1.67v4c.0111.1509-.0406.2997-.1428.4114a.55031.55031 0 01-.3972.1786zM48.7756 31.1095h-.27c-.8455-.0534-1.6438-.4082-2.25-1-.7518-.764-1.0872-1.8447-.9-2.9.1836-1.0311.823-1.9241 1.74-2.43.8969-.4793 1.956-.552 2.91-.2.2258.0291.4103.1942.4641.4154.0539.2211-.0341.4526-.2212.5822-.1871.1296-.4348.1305-.6229.0024-.6545-.2451-1.3827-.1978-2 .13-.6197.3464-1.0525.9515-1.18 1.65-.1232.6958.0921 1.4088.58 1.92.4234.3934.9727.6237 1.55.65.4225.0431.8487-.0331 1.23-.22.3471-.1767.6072-.4873.72-.86.0528-.1247.0528-.2654 0-.39a.999377.999377 0 00-.29 0h-1.54c-.3065 0-.555-.2485-.555-.555 0-.3065.2485-.555.555-.555h1.51c.3022-.0209.604.0451.87.19.5026.3682.7089 1.0195.51 1.61-.1909.67-.6506 1.2311-1.27 1.55-.4718.2612-1.0007.402-1.54.41zM24.8859 58.7595c-.6131 0-1.11-.497-1.11-1.11v-15h-5.65c-.5697-.0543-1.0048-.5328-1.0048-1.105 0-.5723.4351-1.0508 1.0048-1.105h6.76c.613 0 1.11.4969 1.11 1.11v16.1c0 .613-.497 1.11-1.11 1.11z" fill="#151557"/><path fill-rule="evenodd" clip-rule="evenodd" d="M21.6265 60.7099c-.8763.0079-1.7412-.1981-2.52-.6-1.2175-.6258-2.0801-1.776-2.34-3.12-.0534-.5761.3447-1.0966.9147-1.1959.5699-.0994 1.1206.2557 1.2653.8159.1583.653.5977 1.2022 1.2 1.5.6888.3363 1.4707.4313 2.22.27.3936-.0578.7656-.2162 1.08-.46.1963-.1565.3163-.3893.33-.64-.0554-.4126.1249-.8216.4668-1.0592.3419-.2375.7881-.2638 1.1555-.0679.3674.1958.5943.5808.5877.9971.0305.9426-.3754 1.8465-1.1 2.45-.6023.5144-1.3305.8595-2.11 1-.379.0726-.7641.1094-1.15.11zM32.6459 60.91c-3.3975-.022-6.1401-2.7824-6.14-6.18v-8.68c0-3.4104 2.7646-6.175 6.175-6.175 3.4103 0 6.175 2.7646 6.175 6.175v8.68c0 1.6442-.6552 3.2207-1.8207 4.3806-1.1655 1.1598-2.7451 1.8074-4.3893 1.7994zm0-18.82c-2.2092 0-4 1.7909-4 4v8.68c.2808 1.9712 1.9688 3.4357 3.96 3.4357 1.9911 0 3.6791-1.4645 3.96-3.4357v-8.72c-.0319-2.1549-1.7653-3.8971-3.92-3.94v-.02zM41.066 60.1105h-.08c-.5697-.0542-1.0048-.5327-1.0048-1.105 0-.5722.4351-1.0507 1.0048-1.105h.08c3.63 0 5.33-1.76 5.37-3.41.04-1.65-1.53-3.38-5.08-3.68h-.35c-.5773-.0779-.9962-.5888-.9594-1.1702.0369-.5814.5169-1.0354 1.0994-1.0398h.34c1.4045.1556 2.7806-.4747 3.58-1.64.5488-.8888.5488-2.0112 0-2.9-.72-1.14-2.3-1.69-4.36-1.49-.5723.0001-1.0508-.4348-1.1052-1.0045-.0544-.5697.3332-1.0873.8952-1.1955 2.92-.27 5.27.65 6.44 2.52.9844 1.6044.9844 3.6257 0 5.23-.3687.604-.855 1.1277-1.43 1.54 1.893.8722 3.1151 2.7559 3.14 4.84-.06 2.78-2.69 5.61-7.58 5.61z" fill="#151557"/><path fill-rule="evenodd" clip-rule="evenodd" d="M40.5065 60.0291c-.6131 0-1.11-.4969-1.11-1.11v-17.43c.0542-.5697.5327-1.0047 1.105-1.0047s1.0507.435 1.105 1.0047v17.43c0 .6092-.4909 1.1045-1.1 1.11z" fill="#151557"/><path fill-rule="evenodd" clip-rule="evenodd" d="M7.77506 35.2803c.19259-1.3814.27951-2.7755.26-4.17a14.58945 14.58945 0 01.13-2.81c.24471-.9324.62188-1.8248 1.12-2.65 1.16004-2.38 1.06004-4.36 4.56004-4 1.06.09 1.06-1.57 0-1.66-2.68-.24-4.41004.67-5.43004 3.12a28.792256 28.792256 0 00-1.74 3.94c-.63 2.55-.09 5.23-.49 7.82-.16 1 1.44 1.5 1.6.44l-.01-.03z" fill="#F5AD89"/><path fill-rule="evenodd" clip-rule="evenodd" d="M6.74594 35.3504c.07-5.09.83-16.42 8.52996-14.87 1 .21 1.49-1.39.44-1.6-1.8586-.3566-3.7814-.1476-5.52.6-1.28996.59-1.49996 1.75-2.16996 2.91-2.39 4.15-2.87 8.21-2.94 13 0 .4584.3716.83.83.83.45839 0 .83-.3716.83-.83v-.04z" fill="#F5AD89"/><path fill-rule="evenodd" clip-rule="evenodd" d="M5.81587 36.2809c.28-3.29.74-6.59 1.28-9.84.16267-1.3962.49858-2.7668 1-4.08.91-2 2.00003-2.34 4.00003-2.2 1.14.08 2.26.26 3.4.36 1.14.1 1.06-1.57 0-1.66-2.16-.18-5-1-7.06003.11-1.79 1-2.21 3.48-2.63 5.32-.833 3.956-1.38439 7.966-1.65 12-.09 1.06 1.57 1.06 1.66 0v-.01z" fill="#F5AD89"/><path fill-rule="evenodd" clip-rule="evenodd" d="M6.42561 25.3802c.26128 1.3187.41512 2.6564.46 4a3.669984 3.669984 0 010 1.5c-.19.39-.84.84-1.11 1.17-1.35 1.64 1 4 2.35 2.35 1.17-1.41 2.12999-2.16 2.13999-4.15-.0007-1.9394-.2052-3.8733-.60999-5.77-.44-2.09-3.64-1.21-3.2.88l-.03.02z" fill="#F5AD89"/><path fill-rule="evenodd" clip-rule="evenodd" d="M.186576 52.1105c-1.759996 11.7 9.500004 13.74 9.940024 6.32.3713-7.3391-.14915-14.6962-1.55002-21.91-.25-1.32-2.29-2.29-4.22-1.08-.66.45-3.520004 12.37-4.170004 16.67z" fill="#2196F3"/><path fill-rule="evenodd" clip-rule="evenodd" d="M38.8183 67.1096c-2.6.1-5.18 1.17-7.77 1-1.2918-.1452-2.5175-.6473-3.54-1.45-2.5648-1.7139-5.6079-2.5684-8.69-2.44-1.06.09-1.07 1.75 0 1.66 3.47-.3 6 1.24 8.77 3 3.38 2.11 7.66 0 11.23-.08 1.07 0 1.07-1.7 0-1.66v-.03z" fill="#F5AD89"/><path fill-rule="evenodd" clip-rule="evenodd" d="M39.0875 68.1095c-4.56.82-8.29 1.06-12.7-.48-2.69-.95-5.22-2.14-8.12-2.29-1.07-.06-1.06 1.6 0 1.66 3.63.19 6.68 2.24 10.13 3.12 3.66.93 7.48.26 11.13-.4 1-.19.61-1.79-.44-1.6v-.01z" fill="#F5AD89"/><path fill-rule="evenodd" clip-rule="evenodd" d="M26.7272 69.1092c1.6548-.428 3.3613-.6232 5.07-.58 2.15-.13 4.15-.67 6.23.17 2.08.84 2.84-2.41.88-3.2-2.41-1-4.63-.45-7.12-.29-1.95.12-4.1 0-6 .7-1.9.7-1.13 3.93.88 3.2h.06z" fill="#F5AD89"/><path fill-rule="evenodd" clip-rule="evenodd" d="M37.8772 65.39c-.66-1.71-1.16-2.51-3.15-2.43-1.2337 0-2.45-.2913-3.55-.85-.768-.3746-1.6868-.2439-2.32.33-.51.4778-.6067 1.2514-.23 1.84.52.76 1.5.49 2.17 1 .9.69 1.09 1.38 2.36 1.61.7143.2503 1.5063.1264 2.11-.33.2129-.2112 2.99-.12 2.59-1.12l.02-.05z" fill="#F5AD89"/><path fill-rule="evenodd" clip-rule="evenodd" d="M56.7973 68.6195c11.71-1.85 10.42-13.32 3.25-10.79-6.78 2.4-14.76 4.26-21 7.51-1.19.62-.59 3.6 1.11 5 .55.45 12.35-1.03 16.64-1.72z" fill="#2196F3"/></svg>