<svg xmlns="http://www.w3.org/2000/svg" xmlns:xlink="http://www.w3.org/1999/xlink" width="18" height="19" viewBox="0 0 18 19">
  <metadata><?xpacket begin="﻿" id="W5M0MpCehiHzreSzNTczkc9d"?>
<x:xmpmeta xmlns:x="adobe:ns:meta/" x:xmptk="Adobe XMP Core 5.6-c140 79.160451, 2017/05/06-01:08:21        ">
   <rdf:RDF xmlns:rdf="http://www.w3.org/1999/02/22-rdf-syntax-ns#">
      <rdf:Description rdf:about=""/>
   </rdf:RDF>
</x:xmpmeta>
                                                                                                    
                                                                                                    
                                                                                                    
                                                                                                    
                                                                                                    
                                                                                                    
                                                                                                    
                                                                                                    
                                                                                                    
                                                                                                    
                                                                                                    
                                                                                                    
                                                                                                    
                                                                                                    
                                                                                                    
                                                                                                    
                                                                                                    
                                                                                                    
                                                                                                    
                                                                                                    
                           
<?xpacket end="w"?></metadata>
<defs>
    <style>
      .cls-1 {
        fill-rule: evenodd;
        fill: url(#linear-gradient);
      }
    </style>
    <linearGradient id="linear-gradient" x1="911" y1="472.5" x2="929" y2="454.5" gradientUnits="userSpaceOnUse">
      <stop offset="0" stop-color="#08aeea"/>
      <stop offset="1" stop-color="#2af598"/>
    </linearGradient>
  </defs>
  <path id="Forma_1" data-name="Forma 1" class="cls-1" d="M917.5,464.481a0.424,0.424,0,0,0-.418-0.43h-1.458a0.424,0.424,0,0,0-.418.43v1.5a0.425,0.425,0,0,0,.418.432h1.458a0.425,0.425,0,0,0,.418-0.432v-1.5h0Zm3.644,0a0.424,0.424,0,0,0-.418-0.43h-1.458a0.424,0.424,0,0,0-.418.43v1.5a0.425,0.425,0,0,0,.418.432h1.458a0.425,0.425,0,0,0,.418-0.432v-1.5Zm3.644,0a0.424,0.424,0,0,0-.418-0.43h-1.458a0.424,0.424,0,0,0-.418.43v1.5a0.425,0.425,0,0,0,.418.432h1.458a0.425,0.425,0,0,0,.418-0.432v-1.5Zm-7.288,3.762a0.425,0.425,0,0,0-.418-0.431h-1.458a0.425,0.425,0,0,0-.418.431v1.5a0.425,0.425,0,0,0,.418.432h1.458a0.425,0.425,0,0,0,.418-0.432v-1.5h0Zm3.644,0a0.425,0.425,0,0,0-.418-0.431h-1.458a0.425,0.425,0,0,0-.418.431v1.5a0.425,0.425,0,0,0,.418.432h1.458a0.425,0.425,0,0,0,.418-0.432v-1.5Zm3.644,0a0.425,0.425,0,0,0-.418-0.431h-1.458a0.425,0.425,0,0,0-.418.431v1.5a0.425,0.425,0,0,0,.418.432h1.458a0.425,0.425,0,0,0,.418-0.432v-1.5h0Zm2.607-12.128v2.3a1.849,1.849,0,0,1-1.823,1.876h-1.15a1.858,1.858,0,0,1-1.834-1.876v-2.306h-5.182v2.306a1.858,1.858,0,0,1-1.834,1.876h-1.15a1.849,1.849,0,0,1-1.823-1.876v-2.3a1.688,1.688,0,0,0-1.6,1.7v13.47A1.686,1.686,0,0,0,912.65,473h14.7a1.687,1.687,0,0,0,1.65-1.712v-13.47A1.688,1.688,0,0,0,927.4,456.115Zm-0.534,14.333a0.726,0.726,0,0,1-.714.736H913.818a0.725,0.725,0,0,1-.713-0.736V463.49a0.724,0.724,0,0,1,.713-0.736H926.15a0.725,0.725,0,0,1,.714.736v6.958h0Zm-12.443-11.391h1.137a0.634,0.634,0,0,0,.625-0.645v-3.767a0.634,0.634,0,0,0-.625-0.645h-1.137a0.635,0.635,0,0,0-.625.645v3.767A0.635,0.635,0,0,0,914.421,459.057Zm9.989,0h1.138a0.635,0.635,0,0,0,.625-0.645v-3.767a0.635,0.635,0,0,0-.625-0.645H924.41a0.635,0.635,0,0,0-.625.645v3.767A0.635,0.635,0,0,0,924.41,459.057Z" transform="translate(-911 -454)"/>
</svg>
