<svg xmlns="http://www.w3.org/2000/svg" viewBox="0 0 215.3 49.9">
  <title>logo</title>
  <g>
    <path d="M0,11.2v27L21.4,49.9,42.8,38.2v-27L21.4,0ZM41.4,37.3,22.8,47.5V24L41.4,13.6Zm-20-15.7L3,11.2,21.4,1.6l18.5,9.6Z"/>
    <path d="M75.6,15A11.7,11.7,0,0,0,68,12.7H57.3V37.8h6.9V30.6h3.5a15.4,15.4,0,0,0,5.5-1A8.3,8.3,0,0,0,77,26.5a8.2,8.2,0,0,0,1.5-5A8.1,8.1,0,0,0,75.6,15Zm-5.1,9.3a4.7,4.7,0,0,1-3,.9H64.2V18.5h3.3a5.3,5.3,0,0,1,3,.8,3,3,0,0,1,1,2.5A3.2,3.2,0,0,1,70.5,24.3Z"/>
    <rect x="81.2" y="18.4" width="6.8" height="19.38"/>
    <rect x="81" y="11.6" width="7.1" height="5.02"/>
    <path d="M103.4,32a3,3,0,0,1-1.9.5,3.5,3.5,0,0,1-2.8-1.2,5,5,0,0,1-1.1-3.2A4.7,4.7,0,0,1,98.7,25a3.5,3.5,0,0,1,2.9-1.3,4.3,4.3,0,0,1,3.5,1.9l4.5-3.3c-1.8-2.9-4.5-4.3-8.2-4.3A10.9,10.9,0,0,0,96,19.4a8.8,8.8,0,0,0-3.7,3.7,9.7,9.7,0,0,0-1.4,5,10.3,10.3,0,0,0,1.4,5.1,9.8,9.8,0,0,0,3.6,3.7,10.3,10.3,0,0,0,5.2,1.3,9.7,9.7,0,0,0,8.7-4.4l-4.7-3.3A4.7,4.7,0,0,1,103.4,32Z"/>
    <polygon points="131.9 18.4 124.2 18.4 118.9 24.9 118.9 11.6 112.1 11.6 112.1 37.8 118.9 37.8 118.9 33.2 120.7 31.2 124.6 37.8 132.1 37.8 125.1 26.2 131.9 18.4"/>
    <path d="M141.9,18.1a20.9,20.9,0,0,0-7.9,1.5l1.4,4.8a14.9,14.9,0,0,1,5.4-1.1c2.6,0,3.9,1.1,3.9,3.2v.3a14.1,14.1,0,0,0-4.7-.7,9.3,9.3,0,0,0-5.6,1.5,5.6,5.6,0,0,0-2,4.5,5.7,5.7,0,0,0,1.8,4.5,6.7,6.7,0,0,0,4.7,1.6,7.5,7.5,0,0,0,5.7-2.4v2h6.8V26.6c0-2.7-.7-4.8-2.1-6.1S145.2,18.1,141.9,18.1Zm2.8,12.7a3.2,3.2,0,0,1-.9,2.3,3.4,3.4,0,0,1-2.5.8,2.5,2.5,0,0,1-1.7-.5,2.2,2.2,0,0,1-.7-1.6,2.3,2.3,0,0,1,.9-1.8,3.7,3.7,0,0,1,2.3-.6,5.8,5.8,0,0,1,2.6.5Z"/>
    <polygon points="154.4 23.8 163.1 23.8 154.1 33.3 154.1 37.8 172.1 37.8 172.1 32.4 163.1 32.4 172.1 22.9 172.1 18.4 154.4 18.4 154.4 23.8"/>
    <polygon points="174.6 23.8 183.3 23.8 174.3 33.3 174.3 37.8 192.3 37.8 192.3 32.4 183.3 32.4 192.3 22.9 192.3 18.4 174.6 18.4 174.6 23.8"/>
    <path d="M213.9,23a10.4,10.4,0,0,0-3.8-3.7,11.4,11.4,0,0,0-5.5-1.3,10.3,10.3,0,0,0-4.3.8,9.1,9.1,0,0,0-3.5,2.2,12.1,12.1,0,0,0-2.2,3.2,9.9,9.9,0,0,0,0,7.8,11.2,11.2,0,0,0,2.2,3.3,10.8,10.8,0,0,0,3.4,2.1,10.6,10.6,0,0,0,4.3.8,10,10,0,0,0,4.3-.8,9.1,9.1,0,0,0,3.5-2.2,10.7,10.7,0,0,0,2.2-3.2,10.1,10.1,0,0,0,.8-3.9A10.3,10.3,0,0,0,213.9,23Zm-6.4,8.2a3.5,3.5,0,0,1-2.9,1.3,4.2,4.2,0,0,1-3-1.3,4.9,4.9,0,0,1-1.1-3.1,4.2,4.2,0,0,1,1.1-3.1,3.8,3.8,0,0,1,2.9-1.3,4.2,4.2,0,0,1,3,1.3,4.9,4.9,0,0,1,1.1,3.1A4.2,4.2,0,0,1,207.5,31.2Z"/>
  </g>
</svg>
