<svg xmlns="http://www.w3.org/2000/svg" xmlns:xlink="http://www.w3.org/1999/xlink" viewBox="0 0 220.8 51">
  <defs>
    <style>
      .a {
        fill: url(#a);
      }

      .b {
        fill: url(#b);
      }

      .c {
        fill: url(#c);
      }

      .d {
        fill: #fff;
      }

      .e {
        fill: #2c0142;
      }
    </style>
    <linearGradient id="a" x1="21.6" y1="3.38" x2="21.6" y2="51.01" gradientUnits="userSpaceOnUse">
      <stop offset="0.15" stop-color="#3f64b4"/>
      <stop offset="1" stop-color="#00a6e0"/>
    </linearGradient>
    <linearGradient id="b" x1="27.37" x2="27.37" y2="47.64" gradientUnits="userSpaceOnUse">
      <stop offset="0" stop-color="#761f87"/>
      <stop offset="0.35" stop-color="#742189"/>
      <stop offset="0.53" stop-color="#6e298e"/>
      <stop offset="0.68" stop-color="#633797"/>
      <stop offset="0.81" stop-color="#544aa3"/>
      <stop offset="0.92" stop-color="#4063b3"/>
      <stop offset="0.93" stop-color="#3f64b4"/>
    </linearGradient>
    <linearGradient id="c" x1="24.49" y1="3.38" x2="24.49" y2="47.64" gradientUnits="userSpaceOnUse">
      <stop offset="0.15" stop-color="#2c0041"/>
      <stop offset="1" stop-color="#0068c2"/>
    </linearGradient>
  </defs>
  <title>logo</title>
  <g>
    <g>
      <path class="a" d="M4.1,12.2,17.5,4.5a8,8,0,0,1,8.2,0l13.4,7.7a8.4,8.4,0,0,1,4.1,7.2V35.1A8.2,8.2,0,0,1,39,42.2L25.7,49.9a8.3,8.3,0,0,1-8.2,0L4.1,42.2A8.2,8.2,0,0,1,0,35.1V19.4A8.4,8.4,0,0,1,4.1,12.2Z"/>
      <path class="b" d="M9.9,8.8,23.3,1.1a8.3,8.3,0,0,1,8.2,0L44.8,8.8A8.3,8.3,0,0,1,49,16V31.7a8.1,8.1,0,0,1-4.2,7.1L31.5,46.5a8.2,8.2,0,0,1-8.3,0L9.9,38.8a8.2,8.2,0,0,1-4.1-7.1V16A8.4,8.4,0,0,1,9.9,8.8Z"/>
      <path class="c" d="M39.1,12.2,25.7,4.5a8,8,0,0,0-8.2,0L9.1,9.3A8.3,8.3,0,0,0,5.8,16V31.7a8.2,8.2,0,0,0,4.1,7.1l13.3,7.7a8.2,8.2,0,0,0,8.3,0l8.4-4.8a8.4,8.4,0,0,0,3.3-6.6V19.4A8.4,8.4,0,0,0,39.1,12.2Z"/>
      <g>
        <path class="d" d="M37.5,28.4c0-8.7-7-12.1-13.7-12.1H17.6V37.4h2.6V28h.1L34.8,44.6l1.9-1.1-4.5-5.3A11.3,11.3,0,0,0,37.5,28.4Zm-14.4-.7,5.2-7.6H25.4l-5.2,7.3V18.6h3.5c5.3,0,11,2.9,11,9.8a9.3,9.3,0,0,1-4.2,7.9l-7.4-8.6Z"/>
        <path class="d" d="M24.2,38.2H15.5V10H35.3L30.5,7.2H12.7V40.4H24.4a16.1,16.1,0,0,0,4.4-.6l-1.7-1.9A14.3,14.3,0,0,1,24.2,38.2Z"/>
      </g>
      <rect class="e" x="59.7" y="7.4" width="0.9" height="37.23"/>
    </g>
    <g>
      <path d="M72,31.3h1.9c1.6-3.5,2.3-7,2.3-14V14.9H91.1V31.3h2.4L93,39.6H89.2V35.4H76.4l-.3,4.2H72ZM80.5,19v2a26.8,26.8,0,0,1-1.8,10.3h7.9V19Z"/>
      <path d="M95.5,27.6a8.5,8.5,0,1,1,8.4,8.1A8.2,8.2,0,0,1,95.5,27.6Zm12.6,0a4.2,4.2,0,0,0-4.2-4.4c-2.5,0-4,2-4,4.4a4.1,4.1,0,1,0,8.2,0Z"/>
      <path d="M129.6,19.7V35.4h-4.5V23.5h-4c0,10.4-1.7,12-5.7,12l-2.2-.2.3-3.6h.9c1.7,0,2.6-1,2.6-12.1Z"/>
      <path d="M138,23.5V35.4h-4.5V19.7H145v3.8Z"/>
      <path d="M162,35.4h-4.3V26.2l-6.1,9.2h-4.2V19.7h4.3v9.1l6.1-9.1H162Z"/>
      <path d="M166,31.4h3.9v4H166Z"/>
      <path d="M174.4,20.2h2.3v6.6h8.7V20.2h2.2V35.4h-2.2V28.8h-8.7v6.6h-2.3Z"/>
      <path d="M191.7,27.8c0-4.4,3.1-7.9,7.3-7.9s7,3.6,7,8v.8H194a5.3,5.3,0,0,0,5.3,5.1,6.3,6.3,0,0,0,4.8-2.2l1.4,1.3a7.8,7.8,0,0,1-6.2,2.8A7.5,7.5,0,0,1,191.7,27.8Zm12.1-.9c-.3-2.7-1.9-5.1-4.9-5.1s-4.6,2.2-4.9,5.1Z"/>
      <path d="M213.1,22.2h-5.5v-2h13.2v2h-5.5V35.4h-2.2Z"/>
    </g>
  </g>
</svg>
