<svg xmlns="http://www.w3.org/2000/svg" xmlns:xlink="http://www.w3.org/1999/xlink" viewBox="0 0 512 512.06882">
  <defs>
    <style>
      .a {
        fill: url(#a);
      }

      .b {
        fill: url(#b);
      }

      .c {
        fill: url(#c);
      }

      .d {
        fill: url(#d);
      }

      .e {
        fill: url(#e);
      }
    </style>
    <linearGradient id="a" data-name="Безымянный градиент 4" x1="259.12486" y1="6.01714" x2="255.12486" y2="502.01714" gradientUnits="userSpaceOnUse">
      <stop offset="0" stop-color="#48a7c3"/>
      <stop offset="1" stop-color="#966baa"/>
    </linearGradient>
    <linearGradient id="b" x1="259.74896" y1="6.02217" x2="255.74896" y2="502.02217" xlink:href="#a"/>
    <linearGradient id="c" x1="256.28764" y1="5.99426" x2="252.28764" y2="501.99426" xlink:href="#a"/>
    <linearGradient id="d" x1="305.81843" y1="6.3937" x2="301.81843" y2="502.3937" xlink:href="#a"/>
    <linearGradient id="e" x1="206.67096" y1="5.59412" x2="202.67096" y2="501.59412" xlink:href="#a"/>
  </defs>
  <title>icon-7</title>
  <g>
    <path class="a" d="M456.13141,201.74506c-11.96918-13.42743-23.89417-26.90052-36.166-40.04786a56.63858,56.63858,0,0,0-12.48779-9.63409c-2.882-1.71478-2.65314-3.80487-2.65363-6.2312-.00647-33.97992.07593-67.96-.03833-101.93951-.05975-17.77735-7.38543-31.51612-23.61328-39.673C377.3689,2.30762,373.07062,1.38025,369,0H143c-9.129,2.33826-17.64661,5.80072-24.27081,12.88623-8.30213,8.88037-11.54431,19.59186-11.54633,31.4967-.0058,33.80848-.05871,67.61719.08161,101.425.01452,3.503-.9972,5.42047-4.22364,6.78015a18.12672,18.12672,0,0,0-6.55743,4.41425c-19.665,22.58344-40.51691,44.29706-58.40656,68.22107C15.84119,254.95935,4.94611,289.742,1.0683,326.64746.84436,328.77887.36206,330.88312,0,333V454c5.74213,17.85089,11.58124,35.67163,17.143,53.57855,1.08764,3.50189,2.72863,4.51514,6.31335,4.48981,23.49872-.16583,46.99915-.08539,70.499-.08539h4.53144c2.84991-20.34259-4.33643-41.68042,8.69354-60.561,0,1.83728-.11023,3.68231.01886,5.51049.59546,8.43451.06573,17.17084,2.13928,25.23316,4.58167,17.81366,20.19434,29.26263,38.66321,29.75915,7.66125.206,15.33221.057,22.99872.05719q95.24954.00266,190.49908-.012c17.54657-.009,31.13916-7.35962,38.66156-23.357,2.93555-6.24274,3.61023-13.69336,4.51972-20.69715.69476-5.35058.13806-10.86371.62591-16.38806,5.8465,6.93958,7.46118,15.219,7.58893,23.851.17731,11.97516.04456,23.9549.04456,36.23639,1.55993.13965,2.83209.35181,4.10443.35285,23.99987.01989,48.00018-.05109,71.9992.09332,3.2157.01929,4.66718-.9444,5.63117-4.01569C500.34039,489.99591,506.20349,472.00842,512,454V333c-1.8194-11.14209-3.11389-22.40057-5.55408-33.405A214.86823,214.86823,0,0,0,456.13141,201.74506ZM124.1369,39.416c.699-12.447,10.6883-21.8786,23.15216-22.587,1.33-.07562,2.66352-.1225,3.99542-.12262q104.72727-.0087,209.45459.01135c17.4375.00995,27.27088,9.89911,27.31476,27.21332.01807,7.14209.003,14.28424.003,21.76355H124.04388C124.04388,56.697,123.653,48.03186,124.1369,39.416ZM386.10419,479.05731c-2.2583,10.00861-10.61347,15.27918-21.14087,16.08972-1.65875.12775-3.329.14649-4.994.14661-69.3183.0069-138.63678.07953-207.95441-.14a38.98265,38.98265,0,0,1-15.77069-3.44227,20.3375,20.3375,0,0,1-11.8493-17.41552c-.68708-9.22834-.1623-18.54688-.1623-28.0766H388.71069C387.96613,457.17975,388.49786,468.44855,386.10419,479.05731ZM247.94012,266.00867a27.16778,27.16778,0,0,1-.01287-6.98548c.98553-7.74225-.45533-13.67889-8.13861-18.10791-6.16944-3.55633-8.2096-10.74011-8.4419-17.80731A136.57515,136.57515,0,0,1,231.756,203.66c1.37616-12.433,11.08-21.36627,22.82288-21.739,12.48077-.39618,23.57184,7.8562,25.19769,20.29138a113.35512,113.35512,0,0,1-.00525,26.33448c-.74493,7.07769-5.67175,12.38079-11.89227,15.8081-3.16052,1.74133-3.9704,3.87335-3.82013,7.18182.22656,4.989.24524,10.00538-.009,14.99176-.1565,3.06922.95916,4.38141,3.87536,5.16669,11.23554,3.02551,22.42273,6.2345,33.6015,9.46655,15.51093,4.48468,23.91571,17.74842,20.26429,33.39734-1.23316,5.28473-4.759,10.08387-7.59052,14.897-.46332.78753-2.76391.6701-4.216.6734q-26.99616.06143-53.99249.02673c-17.99756,0-35.99543-.059-53.99225.05725-3.04541.01972-5.072-.40069-5.638-3.9068a10.99931,10.99931,0,0,0-2.31043-4.92633c-6.27356-7.71289-4.95721-16.197-2.19983-24.50824,2.92517-8.81714,9.95685-13.35107,18.62836-15.7445,11.05646-3.0517,22.04816-6.34192,33.13116-9.29108C246.9046,270.96021,248.41656,269.54163,247.94012,266.00867Zm63.90082,1.23706c-8.65-3.34638-17.79077-5.423-26.70666-8.08454-1.40473-.41931-2.78876-.908-5.01966-1.63885,1.437-1.65149,2.35541-2.90631,3.46845-3.95441,8.377-7.88824,13.35522-17.4176,13.52722-29.03827.18384-12.42315,1.31421-24.9132-4.81146-36.65551-8.574-16.43549-26.33008-25.44837-44.10883-21.79725-18.65863,3.83185-32.09924,18.85254-33.11981,37.43476-.40124,7.3056-.35095,14.65515-.11493,21.9721.35657,11.05127,5.1565,20.173,13.11676,27.65937,1.165,1.0957,2.92865,1.555,4.41535,2.30877q-.622,1.00562-1.244,2.01117a38.34715,38.34715,0,0,1-3.838,1.57459c-7.9732,2.33948-16.04431,4.37433-23.93322,6.966-17.28223,5.67755-27.38636,17.51239-29.73511,35.71881-.16742,1.29755-.44556,2.58075-.64984,3.74335-5.57245.40772-10.50128.76831-15.77124,1.15393V116.08215H354.78918V306.6275c-5.11-.37286-10.1452-.74023-15.873-1.15814-.19739-1.2121-.509-2.94464-.75842-4.6861C335.832,284.54156,327.03955,273.12555,311.84094,267.24573ZM187.94666,361.2135c2.22979-2.44745,5.06481-4.98621,5.86969-7.95746,1.76709-6.52344,6.11663-6.42077,11.36755-6.39966q52.45248.211,104.906-.00634c3.60651-.01361,5.50794.82513,7.13422,4.34893a45.41349,45.41349,0,0,0,7.71216,10.91694c10.00037,11.11529,20.23773,22.01745,31.09033,33.76525H156.2453c1.50781-1.76641,2.50647-3.01861,3.58991-4.19268C169.2077,381.53186,178.6394,371.42938,187.94666,361.2135Zm180.54089,51.79871a6.82889,6.82889,0,0,1,4.45654,1.398c4.442,4.44476,8.60773,9.16559,13.66016,14.63983H125.37762c5.21247-5.60327,9.7052-10.581,14.41553-15.34345.74182-.75,2.46869-.72314,3.74018-.72369Q256.01044,412.93557,368.48755,413.01221Zm126.66156,29.70147a82.40915,82.40915,0,0,1-3.29944,20.52356c-2.62793,9.60364-6.11859,18.97748-9.44867,28.37586-.5047,1.42438-2.11554,3.49078-3.23926,3.50647-16.29467.22784-32.59356.15619-49.65564.15619,0-5.34912-.1936-10.28412.03388-15.19965.92389-19.96332-6.1734-36.43915-19.93408-50.91681-24.9104-26.20837-49.241-52.9704-73.60541-79.69116a23.23557,23.23557,0,0,1-5.28552-10.35468,13.91509,13.91509,0,0,1,8.10327-15.60723c5.87921-2.70881,12.0653-1.57776,16.79535,3.65252,8.26953,9.14435,16.29834,18.50641,24.4262,27.77887,6.26081,7.14234,12.43427,14.36334,18.796,21.41455,12.063,13.3703,27.57849,15.34064,42.5896,5.49817,5.68377-3.72668,11.2973-7.56055,17.39227-11.647-3.12946-4.68408-6.04846-9.05316-9.19251-13.759-5.83911,3.85461-11.327,7.47735-17.46295,11.52783,1.71936-9.16529,4.09064-17.41547,4.65289-25.78711.94715-14.10291.85743-28.282.98761-42.431.08112-8.82233-.00225-17.65967-.43347-26.46967-.50189-10.25457-5.22278-18.74871-11.95746-26.2763-5.88848-6.58167-11.88128-13.08747-17.42572-19.95166-2.59558-3.21338-5.32812-4.51477-9.34777-4.12769-3.2793.3158-6.61322.06427-10.52253.06427V338.91809c-5.88342-6.75445-10.90075-12.2157-15.49231-18.01422-1.0368-1.30939-.797-3.7926-.798-5.73566q-.05328-104.74117-.02985-209.48242c-.00006-1.97156,0-3.943,0-6.27539H140.20435v5.99439q0,104.49123.0769,208.98236c.00629,4.0866-.86121,7.27673-3.79462,10.2481-4.0719,4.1247-7.71106,8.67664-12.32263,13.94489V182.08533H107.18036c0,6.27533.02649,12.54809-.00684,18.82055-.03979,7.494,1.74622,15.69208-.7276,22.28321-2.47155,6.58508-9.21051,11.57727-14.11126,17.23962C85.48,248.34863,77.856,255.81787,75.74207,266.67554a71.26452,71.26452,0,0,0-1.51484,12.8435c-.16729,17.66364-.67834,35.35816.14612,52.98481.53986,11.54248,3.15381,22.988,4.92005,35.03094-5.5456-3.62006-10.99164-7.17511-16.93189-11.05286-3.03747,4.53308-5.95288,8.884-9.40741,14.03955,8.68866,5.30292,16.59332,11.2829,25.40863,15.22809,12.25134,5.483,25.00519,1.59906,34.63294-9.23529,14.05578-15.81732,27.9342-31.79272,41.82422-47.75641,3.96209-4.55359,8.571-7.54193,14.81317-6.35962,11.65832,2.20838,16.05175,16.21161,7.95105,25.48517-5.36975,6.14716-11.058,12.01587-16.59674,18.01557-19.21643,20.81561-38.06293,41.98944-57.76587,62.3338-14.55176,15.02539-21.93634,32.20794-20.76905,53.10382.23163,4.1463-.06183,8.32257-.14221,12.48443-.00561.29041-.254.57612-.54175,1.18726-1.28949.08942-2.74279.27539-4.19635.27765-14.1654.022-28.33166-.06329-42.49579.07367-3.08831.02991-4.75451-.70276-5.75286-3.92749-3.19422-10.31763-7.03449-20.43958-10.07434-30.79877a57.37593,57.37593,0,0,1-2.43372-15.67761c-.15179-34.32861-.54242-68.67078.208-102.98529,1.03839-47.47937,17.50274-89.42883,48.25952-125.57483,13.06232-15.35114,26.623-30.29877,40.46808-44.947,3.02759-3.20325,8.16717-4.49988,12.4696-6.36151,1.56384-.67664,3.52295-.43988,5.7544-.66565V83.02722H387.81036v123.118h17.04493v-35.088q.72243-.50463,1.44482-1.00922a26.841,26.841,0,0,0,2.30542,3.65265c15.15436,17.28711,31.12488,33.92548,45.3623,51.93476,23.35956,29.548,36.23505,63.6994,40.09235,101.16046.817,7.93414,1.15076,15.94806,1.18536,23.92749C495.37866,381.3869,495.49573,412.05353,495.14911,442.71368ZM404.81964,255.928c0-1.79389.00006-3.58783.00006-6.65393,8.39752,8.84906,16.49848,16.20978,16.31824,28.74981-.26794,18.63379.5896,37.30628-.31415,55.9-.55133,11.34277-3.50818,22.56866-5.60608,35.17846-6.13519-5.99853-10.79266-10.2937-10.63244-18.82574C405.17554,318.83667,404.81964,287.379,404.81964,255.928ZM90.70685,282.91705c-.80969-14.27551,6.16754-23.80847,16.20611-33.24475.109,2.37476.25647,4.10144.25721,5.82813.01385,31.62311-.34967,63.25305.24737,94.86487.16193,8.575-4.72711,12.70306-10.62054,18.98114-2.10388-12.91437-4.98383-24.40748-5.62879-36.02466C90.23779,316.56323,91.65729,299.6734,90.70685,282.91705Z"/>
    <path class="b" d="M280.613,462.55975H231.39233V478.561H280.613Z"/>
    <path class="c" d="M280.61212,33.44318h-49.2207V49.441h49.2207Z"/>
    <path class="d" d="M313.62854,33.282H297.44446V49.4248h16.18408Z"/>
    <path class="e" d="M214.488,33.36566H198.27716V49.34253H214.488Z"/>
  </g>
</svg>
