<svg xmlns="http://www.w3.org/2000/svg" xmlns:xlink="http://www.w3.org/1999/xlink" viewBox="0 0 215.37109 81.26466">
  <defs>
    <style>
      .a {
        fill: url(#a);
      }

      .b {
        fill: url(#b);
      }

      .c {
        fill: url(#c);
      }

      .d {
        fill: url(#d);
      }

      .e {
        fill: url(#e);
      }

      .f {
        fill: url(#f);
      }

      .g {
        fill: url(#g);
      }

      .h {
        fill: url(#h);
      }

      .i {
        fill: url(#i);
      }

      .j {
        fill: url(#j);
      }

      .k {
        fill: url(#k);
      }

      .l {
        fill: url(#l);
      }
    </style>
    <linearGradient id="a" data-name="Безымянный градиент 13" x1="-27.3312" y1="36.70201" x2="219.33546" y2="110.70201" gradientUnits="userSpaceOnUse">
      <stop offset="0" stop-color="#db1475"/>
      <stop offset="0.49299" stop-color="#e34046"/>
      <stop offset="1" stop-color="#eb6d16"/>
    </linearGradient>
    <linearGradient id="b" x1="-26.46978" y1="33.8306" x2="220.19689" y2="107.8306" xlink:href="#a"/>
    <linearGradient id="c" x1="-25.25291" y1="29.77435" x2="221.41376" y2="103.77435" xlink:href="#a"/>
    <linearGradient id="d" x1="-23.61019" y1="24.29864" x2="223.05647" y2="98.29864" xlink:href="#a"/>
    <linearGradient id="e" x1="-21.69841" y1="17.92604" x2="224.96825" y2="91.92604" xlink:href="#a"/>
    <linearGradient id="f" x1="-20.59651" y1="14.25304" x2="226.07015" y2="88.25304" xlink:href="#a"/>
    <linearGradient id="g" x1="-20.30944" y1="13.29615" x2="226.35722" y2="87.29615" xlink:href="#a"/>
    <linearGradient id="h" x1="-19.29597" y1="9.9179" x2="227.3707" y2="83.9179" xlink:href="#a"/>
    <linearGradient id="i" x1="-18.07918" y1="5.86192" x2="228.58749" y2="79.86192" xlink:href="#a"/>
    <linearGradient id="j" x1="-16.44207" y1="0.40489" x2="230.2246" y2="74.40489" xlink:href="#a"/>
    <linearGradient id="k" x1="-15.09649" y1="-4.08037" x2="231.57018" y2="69.91963" xlink:href="#a"/>
    <linearGradient id="l" x1="-23.65095" y1="24.4345" x2="223.01572" y2="98.4345" xlink:href="#a"/>
  </defs>
  <title>logo</title>
  <g>
    <path class="a" d="M85.00586,59.27248a12.458,12.458,0,0,1,2.60449.252,5.62039,5.62039,0,0,1,2.01563.82617A3.84651,3.84651,0,0,1,90.92773,61.876a5.35613,5.35613,0,0,1,.46192,2.35254,4.37968,4.37968,0,0,1-.68555,2.51953,4.98176,4.98176,0,0,1-2.03027,1.65235,4.80171,4.80171,0,0,1,2.75781,1.8623,6.10964,6.10964,0,0,1,.32227,5.82324,5.09882,5.09882,0,0,1-1.582,1.80664,7.01952,7.01952,0,0,1-2.26758,1.03614,10.24461,10.24461,0,0,1-2.61817.33593H75.59766V59.27248Zm-.55957,8.09179a3.16053,3.16053,0,0,0,1.93164-.55957,2.1158,2.1158,0,0,0,.75586-1.82031,2.326,2.326,0,0,0-.252-1.14844,1.86517,1.86517,0,0,0-.67188-.69922,2.835,2.835,0,0,0-.96582-.35058,6.49677,6.49677,0,0,0-1.13379-.09766H79.99414v4.67578Zm.25195,8.48438a5.86346,5.86346,0,0,0,1.23145-.126,3.03379,3.03379,0,0,0,1.03613-.41992,2.1175,2.1175,0,0,0,.71387-.79785,2.7465,2.7465,0,0,0,.2666-1.28809,2.58713,2.58713,0,0,0-.86817-2.19824,3.70575,3.70575,0,0,0-2.29589-.6582H79.99414v5.48828Z"/>
    <path class="b" d="M98.44531,75.792a4.078,4.078,0,0,0,4.64844.2666,2.502,2.502,0,0,0,1.06445-1.27441h3.5a6.64928,6.64928,0,0,1-2.57617,3.7246,7.58989,7.58989,0,0,1-4.20019,1.11915,8.261,8.261,0,0,1-3.08008-.5459,6.39449,6.39449,0,0,1-2.32422-1.55371,6.98033,6.98033,0,0,1-1.46973-2.40821A8.80266,8.80266,0,0,1,93.48926,72.04a8.44719,8.44719,0,0,1,.53222-3.02343,7.00472,7.00472,0,0,1,3.85059-4.03223,7.502,7.502,0,0,1,3.00977-.58789,6.88981,6.88981,0,0,1,3.21972.71387,6.42529,6.42529,0,0,1,2.25391,1.918,7.89494,7.89494,0,0,1,1.27441,2.74414,10.24742,10.24742,0,0,1,.28028,3.21972H97.46582A4.01467,4.01467,0,0,0,98.44531,75.792Zm4.49414-7.61524a2.7923,2.7923,0,0,0-2.16992-.78418,3.45622,3.45622,0,0,0-1.582.32227,3.0126,3.0126,0,0,0-1.00781.79785,2.92339,2.92339,0,0,0-.53223,1.00781,4.55817,4.55817,0,0,0-.18164.95215h6.46777A4.5887,4.5887,0,0,0,102.93945,68.17677Z"/>
    <path class="c" d="M112.9082,75.666a2.31338,2.31338,0,0,0,.68555.75684,2.9515,2.9515,0,0,0,.96582.43359,4.5305,4.5305,0,0,0,1.13379.13965,4.25472,4.25472,0,0,0,.88281-.09766,3.01719,3.01719,0,0,0,.83985-.30761,1.91738,1.91738,0,0,0,.62988-.56055,1.47147,1.47147,0,0,0,.25195-.88184q0-.89648-1.19043-1.34375a23.75571,23.75571,0,0,0-3.31738-.89648q-.86865-.19482-1.69434-.46192a5.73232,5.73232,0,0,1-1.46972-.70019,3.39274,3.39274,0,0,1-1.03614-1.0918,3.08871,3.08871,0,0,1-.3916-1.61035,4.35512,4.35512,0,0,1,.5459-2.2959,4.02321,4.02321,0,0,1,1.44141-1.41406,6.33039,6.33039,0,0,1,2.0166-.72754,12.45584,12.45584,0,0,1,2.2959-.21,11.54417,11.54417,0,0,1,2.28222.22363,6.09636,6.09636,0,0,1,1.97364.75586A4.54941,4.54941,0,0,1,121.19629,66.79a4.76529,4.76529,0,0,1,.68555,2.22657h-3.78028a1.73823,1.73823,0,0,0-.86816-1.55371,3.96876,3.96876,0,0,0-1.84766-.40625,6.76792,6.76792,0,0,0-.72754.042,2.431,2.431,0,0,0-.71484.18164,1.4701,1.4701,0,0,0-.5459.40625,1.072,1.072,0,0,0-.22363.71387,1.09021,1.09021,0,0,0,.3916.86816,3.02917,3.02917,0,0,0,1.02246.5459,12.8844,12.8844,0,0,0,1.44238.37793q.81153.16845,1.65137.36426a16.93985,16.93985,0,0,1,1.69434.47558,5.59716,5.59716,0,0,1,1.46972.74219,3.57955,3.57955,0,0,1,1.03614,1.14844,3.37247,3.37247,0,0,1,.3916,1.69336,4.39337,4.39337,0,0,1-2.07129,3.94824,6.1452,6.1452,0,0,1-2.11426.82617,12.35824,12.35824,0,0,1-2.42187.23731,11.99082,11.99082,0,0,1-2.46387-.252,6.48986,6.48986,0,0,1-2.14258-.83984,4.8078,4.8078,0,0,1-1.54-1.55371,4.87308,4.87308,0,0,1-.6582-2.42188h3.78027A2.17274,2.17274,0,0,0,112.9082,75.666Z"/>
    <path class="d" d="M131.84863,64.7881v2.66016h-2.91211v7.168a1.34723,1.34723,0,0,0,1.68067,1.68066c.22363,0,.4375-.00976.64355-.02832a5.60012,5.60012,0,0,0,.58789-.084v3.08007a9.52586,9.52586,0,0,1-1.12011.11133q-.61524.02784-1.20411.02832a11.61845,11.61845,0,0,1-1.75-.126,4.11585,4.11585,0,0,1-1.45605-.49024,2.58507,2.58507,0,0,1-.99316-1.03613,3.68805,3.68805,0,0,1-.36426-1.76367v-8.54h-2.40821V64.7881h2.40821V60.44826h3.97558V64.7881Z"/>
    <path class="e" d="M152.40137,79.11037a7.37063,7.37063,0,0,1-2.88477.60254,10.2485,10.2485,0,0,1-4.12988-.79883,8.83252,8.83252,0,0,1-3.09375-2.19727,9.72444,9.72444,0,0,1-1.93164-3.29,12.07273,12.07273,0,0,1-.67188-4.07422,12.49021,12.49021,0,0,1,.67188-4.1582,9.9807,9.9807,0,0,1,1.93164-3.3457,8.83839,8.83839,0,0,1,3.09375-2.24024,10.10384,10.10384,0,0,1,4.12988-.81152,9.70268,9.70268,0,0,1,2.98242.46191,8.45278,8.45278,0,0,1,2.60352,1.35743,7.33664,7.33664,0,0,1,2.84277,5.23632h-4.20019a4.21325,4.21325,0,0,0-1.51172-2.5205,4.40221,4.40221,0,0,0-2.7168-.83985,5.12789,5.12789,0,0,0-2.51953.57422,4.75945,4.75945,0,0,0-1.67969,1.54,6.74522,6.74522,0,0,0-.93847,2.19824,10.92511,10.92511,0,0,0-.29395,2.54785,10.16869,10.16869,0,0,0,.29395,2.4502,6.623,6.623,0,0,0,.93847,2.1416,4.8046,4.8046,0,0,0,1.67969,1.52637,5.12787,5.12787,0,0,0,2.51953.57324,4.29,4.29,0,0,0,4.76074-4.31152h-4.4248V68.45607h8.40039V79.26466h-2.79981l-.44824-2.26855A6.58849,6.58849,0,0,1,152.40137,79.11037Z"/>
    <path class="f" d="M160.80078,62.54884V59.27248h3.97559v3.27636Zm3.97559,2.23926V79.26466h-3.97559V64.7881Z"/>
    <path class="g" d="M170.7959,79.26466,165.83984,64.7881h4.17188l3.05273,9.88477h.05567l3.05176-9.88477h3.94824l-4.90039,14.47656Z"/>
    <path class="h" d="M185.32812,75.792a4.078,4.078,0,0,0,4.64844.2666A2.502,2.502,0,0,0,191.041,74.7842h3.5a6.64934,6.64934,0,0,1-2.57618,3.7246,7.58986,7.58986,0,0,1-4.20019,1.11915,8.26108,8.26108,0,0,1-3.08008-.5459,6.39457,6.39457,0,0,1-2.32422-1.55371,6.98049,6.98049,0,0,1-1.46973-2.40821,8.80266,8.80266,0,0,1-.51855-3.08008,8.447,8.447,0,0,1,.53223-3.02343,7.00466,7.00466,0,0,1,3.85058-4.03223,7.50211,7.50211,0,0,1,3.00977-.58789,6.88985,6.88985,0,0,1,3.21973.71387,6.42525,6.42525,0,0,1,2.2539,1.918,7.895,7.895,0,0,1,1.27442,2.74414,10.24743,10.24743,0,0,1,.28027,3.21972H184.34863A4.01471,4.01471,0,0,0,185.32812,75.792Zm4.49415-7.61524a2.79232,2.79232,0,0,0-2.16993-.78418,3.45622,3.45622,0,0,0-1.582.32227,3.0126,3.0126,0,0,0-1.00781.79785,2.92356,2.92356,0,0,0-.53223,1.00781,4.55817,4.55817,0,0,0-.18164.95215h6.46778A4.58888,4.58888,0,0,0,189.82227,68.17677Z"/>
    <path class="i" d="M199.79,75.666a2.31327,2.31327,0,0,0,.68555.75684,2.95141,2.95141,0,0,0,.96582.43359,4.53038,4.53038,0,0,0,1.13379.13965,4.25479,4.25479,0,0,0,.88281-.09766,3.01712,3.01712,0,0,0,.83984-.30761,1.91728,1.91728,0,0,0,.62988-.56055,1.47147,1.47147,0,0,0,.252-.88184q0-.89648-1.19043-1.34375a23.7561,23.7561,0,0,0-3.31738-.89648q-.86866-.19482-1.69434-.46192a5.73239,5.73239,0,0,1-1.46973-.70019,3.3926,3.3926,0,0,1-1.03613-1.0918,3.08871,3.08871,0,0,1-.3916-1.61035,4.35512,4.35512,0,0,1,.5459-2.2959,4.02326,4.02326,0,0,1,1.4414-1.41406,6.33048,6.33048,0,0,1,2.0166-.72754,12.45592,12.45592,0,0,1,2.2959-.21,11.54427,11.54427,0,0,1,2.28223.22363,6.09622,6.09622,0,0,1,1.97363.75586A4.54931,4.54931,0,0,1,208.07812,66.79a4.76506,4.76506,0,0,1,.68555,2.22657H204.9834a1.73824,1.73824,0,0,0-.86817-1.55371,3.96874,3.96874,0,0,0-1.84765-.40625,6.76778,6.76778,0,0,0-.72754.042,2.431,2.431,0,0,0-.71484.18164,1.46994,1.46994,0,0,0-.5459.40625,1.07194,1.07194,0,0,0-.22364.71387,1.09022,1.09022,0,0,0,.39161.86816,3.029,3.029,0,0,0,1.02246.5459,12.8844,12.8844,0,0,0,1.44238.37793q.81152.16845,1.65137.36426a16.94041,16.94041,0,0,1,1.69433.47558,5.59722,5.59722,0,0,1,1.46973.74219,3.57952,3.57952,0,0,1,1.03613,1.14844,3.37247,3.37247,0,0,1,.3916,1.69336,4.39337,4.39337,0,0,1-2.07129,3.94824,6.14515,6.14515,0,0,1-2.11425.82617,12.35834,12.35834,0,0,1-2.42188.23731,11.9909,11.9909,0,0,1-2.46387-.252,6.48989,6.48989,0,0,1-2.14257-.83984,4.8077,4.8077,0,0,1-1.54-1.55371,4.87319,4.87319,0,0,1-.65821-2.42188h3.78028A2.17264,2.17264,0,0,0,199.79,75.666Z"/>
    <path class="j" d="M215.37109,74.95216v4.3125h-4.3955v-4.3125Zm-1.23144-1.67968h-1.98828l-1.06348-8.624v-5.376h4.14356v5.376Z"/>
    <path class="k" d="M92.44928,37.72126a.89609.89609,0,0,1,.21951-.64921c8.747-9.98151,7.54025-22.40748,1.04739-36.13158A1.3082,1.3082,0,0,0,91.84307.13658C77.42228,4.88517,67.58416,12.571,66.37519,25.78761a.89605.89605,0,0,1-.31935.60637,35.00892,35.00892,0,0,0-9.81,12.14292.9041.9041,0,0,0,.59944,1.23913l8.57759,2.305a.90708.90708,0,0,1,.6666.78024l.42649,4.01553a.907.907,0,0,0,.54328.73734L76.37692,51.613a.907.907,0,0,0,.90872-.11418l3.20442-2.45725a.90707.90707,0,0,1,1.02479-.05435l7.58,4.62938a.90408.90408,0,0,0,1.31113-.41917A35.00891,35.00891,0,0,0,92.44928,37.72126ZM81.87183,25.95452a5,5,0,1,1,6.56665-2.62281A5,5,0,0,1,81.87183,25.95452Z"/>
    <path class="l" d="M60.8125,45.88966c-6.6875-.4375-10.125-1.375-10.6709-6.625H37.25v6c0,3.625,2.625,6.125,5.25,6.125l12.5.5c-2.32312,9.17566-8.129,15.5224-20.04169,15.37189-12.13171-2.21594-17.875-9.99689-17.875-23.91357,0-15.25,7.16669-25.41663,16.79169-25.33332,5.375,0,8-1.17974,14.41669,7.16669,6.25,5,16-1.58331,13.20831-8.82287-2.82593-6.91132-9.69342-11.932-25.125-12.34382C13.127,5.29817,0,19.098,0,42.01466c0,22.41667,18.08333,39.25,35.125,39.25,10.54167,0,17.82452-4.08606,22-10.25-.0625,7.72919,3.5625,9.75,12.79169,8.875V54.69386C64.375,53.38966,61.125,51.01466,60.8125,45.88966Z"/>
  </g>
</svg>
