<svg xmlns="http://www.w3.org/2000/svg" viewBox="0 0 141.75079 108.07417">
  <defs>
    <style>
      .a {
        fill: #E7E7E7;
      }
    </style>
  </defs>
  <title>logo-gray</title>
  <g>
    <path class="a" d="M94.47186,78.33979A6.29072,6.29072,0,0,0,94.14,72.344a4.94391,4.94391,0,0,0-2.83947-1.91742,5.1292,5.1292,0,0,0,2.09039-1.70129,4.50939,4.50939,0,0,0,.70587-2.59418,5.5157,5.5157,0,0,0-.47558-2.42224,3.96159,3.96159,0,0,0-1.34034-1.57056,5.78617,5.78617,0,0,0-2.07531-.85064,12.82506,12.82506,0,0,0-2.68164-.2594H77.837V81.61262H87.8125a10.54627,10.54627,0,0,0,2.69568-.34589A7.227,7.227,0,0,0,92.843,80.1999,5.24968,5.24968,0,0,0,94.47186,78.33979ZM82.36371,64.54548h4.23816a6.691,6.691,0,0,1,1.16736.10052,2.91977,2.91977,0,0,1,.99444.361,1.92034,1.92034,0,0,1,.69177.71991,2.39447,2.39447,0,0,1,.2594,1.18249,2.17842,2.17842,0,0,1-.77826,1.87421,3.254,3.254,0,0,1-1.98883.57617h-4.584Zm7.91321,12.16638a2.18047,2.18047,0,0,1-.735.82153,3.12411,3.12411,0,0,1-1.06683.43232,6.03723,6.03723,0,0,1-1.26795.1297H82.36371V72.44459h4.92993a3.81586,3.81586,0,0,1,2.36389.67767,2.66376,2.66376,0,0,1,.89392,2.26337A2.827,2.827,0,0,1,90.27692,76.71186Z"/>
    <path class="a" d="M98.36407,68.56739A7.29121,7.29121,0,0,0,96.80658,71.061a8.6974,8.6974,0,0,0-.548,3.113,9.06437,9.06437,0,0,0,.53387,3.17132,7.18782,7.18782,0,0,0,1.51331,2.47956,6.58453,6.58453,0,0,0,2.39306,1.59973,8.5052,8.5052,0,0,0,3.17133.56207,7.8147,7.8147,0,0,0,4.32458-1.15228,6.84625,6.84625,0,0,0,2.65247-3.835h-3.60364a2.57606,2.57606,0,0,1-1.096,1.31213,4.19883,4.19883,0,0,1-4.78613-.27447,4.13365,4.13365,0,0,1-1.00848-2.88275h10.75372a10.55184,10.55184,0,0,0-.28857-3.31507,8.12851,8.12851,0,0,0-1.3122-2.82544,6.61532,6.61532,0,0,0-2.32068-1.97479,7.09382,7.09382,0,0,0-3.31506-.73505,7.72423,7.72423,0,0,0-3.09894.60535A7.29765,7.29765,0,0,0,98.36407,68.56739Zm3.76154,1.15332a3.55889,3.55889,0,0,1,1.62891-.33179,2.87511,2.87511,0,0,1,2.23419.80738,4.72521,4.72521,0,0,1,1.02362,2.36389H100.353a4.6914,4.6914,0,0,1,.187-.98035,3.01059,3.01059,0,0,1,.548-1.03766A3.1014,3.1014,0,0,1,102.12561,69.72071Z"/>
    <path class="a" d="M120.8941,78.85963a3.10775,3.10775,0,0,1-.86474.31671,4.37928,4.37928,0,0,1-.90894.10052,4.666,4.666,0,0,1-1.16736-.14373,3.03841,3.03841,0,0,1-.99444-.44648,2.38147,2.38147,0,0,1-.70587-.77923,2.23713,2.23713,0,0,1-.27448-1.13825H112.086a5.018,5.018,0,0,0,.67773,2.49366,4.95,4.95,0,0,0,1.58564,1.59973,6.68176,6.68176,0,0,0,2.20605.86468,12.34357,12.34357,0,0,0,2.53687.25946,12.72323,12.72323,0,0,0,2.49359-.24438,6.32617,6.32617,0,0,0,2.17688-.85059,4.52367,4.52367,0,0,0,2.13263-4.06525,3.47176,3.47176,0,0,0-.4032-1.74346,3.68526,3.68526,0,0,0-1.06677-1.1825,5.76331,5.76331,0,0,0-1.51331-.76416,17.43532,17.43532,0,0,0-1.74451-.48968q-.86425-.20207-1.70031-.37507a13.25821,13.25821,0,0,1-1.48511-.38909,3.11892,3.11892,0,0,1-1.05274-.56208,1.12247,1.12247,0,0,1-.40319-.89386,1.10362,1.10362,0,0,1,.23028-.735,1.51349,1.51349,0,0,1,.56207-.41828,2.5026,2.5026,0,0,1,.736-.187,6.964,6.964,0,0,1,.74908-.04321,4.08558,4.08558,0,0,1,1.90234.41827A1.78967,1.78967,0,0,1,121.6,71.061h3.89221a4.90639,4.90639,0,0,0-.70581-2.29254,4.68464,4.68464,0,0,0-1.48511-1.45593,6.27657,6.27657,0,0,0-2.0321-.77826,11.8864,11.8864,0,0,0-2.34986-.23029,12.829,12.829,0,0,0-2.36389.21619,6.51891,6.51891,0,0,0-2.07636.74908,4.1423,4.1423,0,0,0-1.48406,1.456,4.4838,4.4838,0,0,0-.56208,2.36389,3.18032,3.18032,0,0,0,.4032,1.65808,3.49274,3.49274,0,0,0,1.06683,1.12409,5.90255,5.90255,0,0,0,1.51325.72094q.85062.27448,1.74451.47559a24.45987,24.45987,0,0,1,3.41564.923q1.22626.46161,1.22571,1.38361a1.51534,1.51534,0,0,1-.2594.908A1.97537,1.97537,0,0,1,120.8941,78.85963Z"/>
    <path class="a" d="M132.75586,62.23884h-4.09332v4.46844H126.183v2.739h2.47956v8.793a3.79723,3.79723,0,0,0,.37506,1.81592,2.661,2.661,0,0,0,1.02258,1.06684,4.23787,4.23787,0,0,0,1.49915.50476,11.96146,11.96146,0,0,0,1.80188.1297q.60626,0,1.23974-.02918a9.812,9.812,0,0,0,1.15332-.11462V78.44135a5.76982,5.76982,0,0,1-.60534.08643c-.21216.0191-.43238.02917-.6626.02917a1.38713,1.38713,0,0,1-1.73047-1.73047V69.44624h2.99841v-2.739h-2.99841Z"/>
    <path class="a" d="M58.52917,40.95429l8.83167,2.37323a.934.934,0,0,1,.68634.80335l.43915,4.13452a.93381.93381,0,0,0,.55932.75915l9.59369,4.11731a.93388.93388,0,0,0,.93567-.11755l3.29932-2.53a.934.934,0,0,1,1.05517-.056L91.734,55.20484a.93087.93087,0,0,0,1.35-.43158,36.04592,36.04592,0,0,0,2.10383-15.93463.92282.92282,0,0,1,.226-.66846C104.41992,27.893,103.17743,15.099,96.49225.96833a1.347,1.347,0,0,0-1.92859-.8277c-14.848,4.88929-24.97754,12.8028-26.22229,26.41089a.92276.92276,0,0,1-.3288.62433A36.04677,36.04677,0,0,0,57.91193,39.67841.93094.93094,0,0,0,58.52917,40.95429ZM81.59656,19.96217a5.14811,5.14811,0,1,1,2.7005,6.76117A5.14807,5.14807,0,0,1,81.59656,19.96217Z"/>
    <path class="a" d="M71.98773,82.25617V56.314c-5.70581-1.34283-9.05206-3.7882-9.37384-9.065-6.88562-.4505-10.42493-1.41577-10.987-6.82129H38.35339v6.17774c0,3.73242,2.70276,6.30645,5.40552,6.30645l12.8703.51484C54.2373,62.87421,48.2594,69.40894,35.99384,69.254,23.50275,66.97236,17.58936,58.961,17.58936,44.632c0-15.70172,7.379-26.1695,17.28912-26.08374,5.53418,0,8.23694-1.21466,14.84369,7.379,6.43518,5.14814,16.47394-1.63018,13.59961-9.08422C60.41211,9.727,53.34119,4.55762,37.45251,4.13361,13.51587,5.45515,0,19.6637,0,43.25922,0,66.33991,18.619,83.67188,36.16547,83.67188c10.85394,0,18.35254-4.20709,22.65167-10.55365C58.75281,81.07642,62.48517,83.15705,71.98773,82.25617Z"/>
    <path class="a" d="M74.29144,99.85731h4.55591a4.417,4.417,0,0,1-4.90179,4.43921,5.27973,5.27973,0,0,1-2.59418-.59021,4.94708,4.94708,0,0,1-1.72943-1.5716,6.81921,6.81921,0,0,1-.96625-2.205,10.46774,10.46774,0,0,1-.30267-2.52277,11.24653,11.24653,0,0,1,.30267-2.62335,6.946,6.946,0,0,1,.96625-2.26337,4.90047,4.90047,0,0,1,1.72943-1.58563,5.27964,5.27964,0,0,1,2.59418-.59125,4.5325,4.5325,0,0,1,2.7973.86475,4.33808,4.33808,0,0,1,1.55646,2.59515H82.624a7.55354,7.55354,0,0,0-2.927-5.39142,8.70221,8.70221,0,0,0-2.6806-1.39764,9.98988,9.98988,0,0,0-3.0708-.47559,10.40271,10.40271,0,0,0-4.2522.83557,9.10042,9.10042,0,0,0-3.18543,2.30658,10.27675,10.27675,0,0,0-1.98883,3.44483,12.8595,12.8595,0,0,0-.69177,4.28137,12.42987,12.42987,0,0,0,.69177,4.19488,10.01365,10.01365,0,0,0,1.98883,3.38752,9.0946,9.0946,0,0,0,3.18543,2.26233,10.55129,10.55129,0,0,0,4.2522.82251,7.58858,7.58858,0,0,0,2.97021-.62043,6.783,6.783,0,0,0,2.68067-2.17688l.46148,2.33576h2.88275V96.48389H74.29144Z"/>
    <rect class="a" x="85.56403" y="87.02827" width="4.09332" height="3.37341"/>
    <rect class="a" x="85.56403" y="92.70728" width="4.09332" height="14.90533"/>
    <polygon class="a" points="98.248 102.885 98.191 102.885 95.048 92.707 90.752 92.707 95.855 107.613 100.41 107.613 105.456 92.707 101.39 92.707 98.248 102.885"/>
    <path class="a" d="M118.96234,95.01386a6.61556,6.61556,0,0,0-2.32062-1.97479,7.09407,7.09407,0,0,0-3.31512-.73505,7.72444,7.72444,0,0,0-3.09894.60535A7.21237,7.21237,0,0,0,106.263,97.061a8.6974,8.6974,0,0,0-.548,3.113,9.06322,9.06322,0,0,0,.53393,3.17132,7.18678,7.18678,0,0,0,1.51325,2.47956,6.58453,6.58453,0,0,0,2.39306,1.59973,8.50546,8.50546,0,0,0,3.17133.56207,7.8147,7.8147,0,0,0,4.32458-1.15228,6.84632,6.84632,0,0,0,2.65253-3.835H116.7a2.57576,2.57576,0,0,1-1.096,1.31213,4.19882,4.19882,0,0,1-4.78613-.27447,4.13365,4.13365,0,0,1-1.00848-2.88275h10.75372a10.55184,10.55184,0,0,0-.28857-3.31507A8.12743,8.12743,0,0,0,118.96234,95.01386Zm-9.153,3.54633a4.6914,4.6914,0,0,1,.187-.98035,3.01059,3.01059,0,0,1,.548-1.03766,3.10224,3.10224,0,0,1,1.03772-.82147,3.55845,3.55845,0,0,1,1.62885-.33179,2.87515,2.87515,0,0,1,2.23425.80738,4.72519,4.72519,0,0,1,1.02356,2.36389Z"/>
    <path class="a" d="M133.8808,99.90052a5.76184,5.76184,0,0,0-1.51325-.76416,17.43963,17.43963,0,0,0-1.7445-.48968q-.86426-.20207-1.70032-.37507a13.25936,13.25936,0,0,1-1.48511-.38909,3.11887,3.11887,0,0,1-1.05273-.56208,1.12248,1.12248,0,0,1-.4032-.89386,1.10362,1.10362,0,0,1,.23029-.735,1.51341,1.51341,0,0,1,.56207-.41828,2.50213,2.50213,0,0,1,.736-.187,6.966,6.966,0,0,1,.74915-.04321,4.08558,4.08558,0,0,1,1.90234.41827,1.78966,1.78966,0,0,1,.89392,1.59973h3.89221a4.90616,4.90616,0,0,0-.70581-2.29254,4.68444,4.68444,0,0,0-1.48511-1.45593,6.277,6.277,0,0,0-2.0321-.77826,11.8863,11.8863,0,0,0-2.34985-.23029,12.82851,12.82851,0,0,0-2.3639.21619,6.51894,6.51894,0,0,0-2.07635.74908,4.14225,4.14225,0,0,0-1.48407,1.456,4.48389,4.48389,0,0,0-.56207,2.36389,3.18031,3.18031,0,0,0,.40319,1.65808,3.49277,3.49277,0,0,0,1.06684,1.12409,5.90248,5.90248,0,0,0,1.51324.72094q.85062.27448,1.74451.47559a24.46046,24.46046,0,0,1,3.41565.923q1.22616.46161,1.22571,1.38361a1.51541,1.51541,0,0,1-.2594.908,1.97547,1.97547,0,0,1-.64856.57715,3.10781,3.10781,0,0,1-.86475.31671,4.37926,4.37926,0,0,1-.90893.10052,4.666,4.666,0,0,1-1.16736-.14373,3.03847,3.03847,0,0,1-.99445-.44648,2.38169,2.38169,0,0,1-.70587-.77923,2.23723,2.23723,0,0,1-.27447-1.13825h-3.89228a5.01807,5.01807,0,0,0,.67774,2.49366,4.95009,4.95009,0,0,0,1.58563,1.59973,6.68184,6.68184,0,0,0,2.206.86468,12.34357,12.34357,0,0,0,2.53687.25946,12.72315,12.72315,0,0,0,2.49359-.24438,6.32609,6.32609,0,0,0,2.17688-.85059,4.52367,4.52367,0,0,0,2.13263-4.06525,3.47166,3.47166,0,0,0-.4032-1.74346A3.68476,3.68476,0,0,0,133.8808,99.90052Z"/>
    <polygon class="a" points="140.483 101.443 141.607 92.563 141.607 87.028 137.341 87.028 137.341 92.563 138.436 101.443 140.483 101.443"/>
    <rect class="a" x="137.2251" y="103.17237" width="4.5257" height="4.44025"/>
  </g>
</svg>
