<svg width="156" height="30" viewBox="0 0 156 30" fill="none" xmlns="http://www.w3.org/2000/svg">
<path fill-rule="evenodd" clip-rule="evenodd" d="M36.595 10.7423L38.8877 23.1404C38.9637 23.4542 39.0014 23.7756 39 24.0981V25.65C38.9974 26.8049 38.5256 27.9117 37.688 28.7273C36.8505 29.5428 35.7156 30.0006 34.5327 30H34.4559C33.7571 29.9997 33.069 29.833 32.4511 29.5143C31.8333 29.1956 31.3045 28.7345 30.9104 28.1711L23.8491 21.525C23.6874 21.2924 23.4698 21.1019 23.2154 20.9701C22.961 20.8384 22.6775 20.7694 22.3895 20.7692H16.6104C16.3223 20.7688 16.0386 20.8375 15.784 20.9692C15.5295 21.101 15.3121 21.2919 15.1509 21.525L8.13681 28.1019C7.72653 28.6884 7.17549 29.1681 6.53174 29.4989C5.888 29.8298 5.17112 30.0018 4.44363 30H4.37273C3.21343 29.9986 2.10202 29.5484 1.28228 28.7481C0.462533 27.9477 0.00139112 26.8626 1.22648e-06 25.7308V24.0981C-0.000260611 23.7579 0.0414025 23.4189 0.124093 23.0885L2.405 10.7423C2.56038 9.67021 2.8979 8.63094 3.40364 7.6673C3.89899 6.73027 4.54542 5.87708 5.31818 5.14038C5.33538 3.7733 5.90288 2.46773 6.89803 1.50585C7.89317 0.543977 9.23603 0.00305532 10.6364 0H11.8182C12.2879 0.00133788 12.738 0.184116 13.0702 0.508408C13.4023 0.832701 13.5895 1.27215 13.5909 1.73077V2.30769H25.4091V1.73077C25.4104 1.27215 25.5976 0.832701 25.9298 0.508408C26.262 0.184116 26.7121 0.00133788 27.1818 0H28.3636C29.7642 0.00207332 31.1077 0.542678 32.103 1.50476C33.0984 2.46685 33.6656 3.77299 33.6818 5.14038C35.2604 6.64194 36.2849 8.61193 36.595 10.7423ZM10.6364 1.15385C9.73571 1.1531 8.8597 1.4409 8.14272 1.97308C7.4388 2.49526 6.92345 3.2227 6.67136 4.05C8.33813 2.91776 10.3195 2.30985 12.35 2.30769H12.4091V1.73077C12.4086 1.5779 12.3462 1.43142 12.2355 1.32333C12.1248 1.21523 11.9747 1.1543 11.8182 1.15385H10.6364ZM12.4091 12.6923H14.1818C14.3384 12.6918 14.4884 12.6309 14.5991 12.5228C14.7098 12.4147 14.7722 12.2682 14.7727 12.1154V9.80769C14.7722 9.65482 14.7098 9.50834 14.5991 9.40025C14.4884 9.29215 14.3384 9.23122 14.1818 9.23077H12.4091V7.5C12.4086 7.34713 12.3462 7.20065 12.2355 7.09256C12.1248 6.98446 11.9747 6.92353 11.8182 6.92307H9.45454C9.29796 6.92353 9.14793 6.98446 9.03722 7.09256C8.9265 7.20065 8.8641 7.34713 8.86363 7.5V9.23077H7.0909C6.93433 9.23122 6.7843 9.29215 6.67358 9.40025C6.56287 9.50834 6.50046 9.65482 6.5 9.80769V12.1154C6.50046 12.2682 6.56287 12.4147 6.67358 12.5228C6.7843 12.6309 6.93433 12.6918 7.0909 12.6923H8.86363V14.4231C8.8641 14.5759 8.9265 14.7224 9.03722 14.8305C9.14793 14.9386 9.29796 14.9995 9.45454 15H11.8182C11.9747 14.9995 12.1248 14.9386 12.2355 14.8305C12.3462 14.7224 12.4086 14.5759 12.4091 14.4231V12.6923ZM15.3636 17.8846H16.5454C16.7022 17.8846 16.8525 17.8238 16.9633 17.7156C17.0741 17.6074 17.1363 17.4607 17.1363 17.3077C17.1363 17.1547 17.0741 17.0079 16.9633 16.8997C16.8525 16.7915 16.7022 16.7308 16.5454 16.7308H15.3636C15.2069 16.7308 15.0566 16.7915 14.9458 16.8997C14.835 17.0079 14.7727 17.1547 14.7727 17.3077C14.7727 17.4607 14.835 17.6074 14.9458 17.7156C15.0566 17.8238 15.2069 17.8846 15.3636 17.8846ZM22.4545 17.8846H23.6363C23.7931 17.8846 23.9434 17.8238 24.0542 17.7156C24.165 17.6074 24.2273 17.4607 24.2273 17.3077C24.2273 17.1547 24.165 17.0079 24.0542 16.8997C23.9434 16.7915 23.7931 16.7308 23.6363 16.7308H22.4545C22.2978 16.7308 22.1475 16.7915 22.0367 16.8997C21.9259 17.0079 21.8636 17.1547 21.8636 17.3077C21.8636 17.4607 21.9259 17.6074 22.0367 17.7156C22.1475 17.8238 22.2978 17.8846 22.4545 17.8846ZM22.6515 12.4006C22.943 12.5908 23.2857 12.6923 23.6363 12.6923C24.1061 12.691 24.5562 12.5082 24.8883 12.1839C25.2205 11.8596 25.4077 11.4201 25.4091 10.9615C25.4091 10.6192 25.3051 10.2846 25.1103 9.99997C24.9155 9.71535 24.6387 9.49351 24.3147 9.36251C23.9908 9.23151 23.6344 9.19724 23.2905 9.26402C22.9466 9.3308 22.6308 9.49564 22.3828 9.7377C22.1349 9.97975 21.9661 10.2881 21.8977 10.6239C21.8293 10.9596 21.8644 11.3076 21.9986 11.6239C22.1327 11.9401 22.3599 12.2104 22.6515 12.4006ZM26.7878 16.4391C27.0794 16.6293 27.4221 16.7308 27.7727 16.7308C28.2424 16.7294 28.6925 16.5466 29.0247 16.2223C29.3568 15.8981 29.5441 15.4586 29.5454 15C29.5454 14.6577 29.4415 14.3231 29.2467 14.0384C29.0519 13.7538 28.775 13.532 28.4511 13.401C28.1272 13.27 27.7707 13.2357 27.4269 13.3025C27.083 13.3693 26.7671 13.5341 26.5192 13.7762C26.2713 14.0182 26.1024 14.3266 26.034 14.6623C25.9656 14.9981 26.0007 15.3461 26.1349 15.6623C26.2691 15.9786 26.4963 16.2489 26.7878 16.4391ZM26.7878 8.36216C27.0794 8.55233 27.4221 8.65384 27.7727 8.65384C28.2424 8.6525 28.6925 8.46972 29.0247 8.14543C29.3568 7.82114 29.5441 7.38169 29.5454 6.92307C29.5454 6.58076 29.4415 6.24613 29.2467 5.96151C29.0519 5.67689 28.775 5.45505 28.4511 5.32405C28.1272 5.19305 27.7707 5.15878 27.4269 5.22556C27.083 5.29234 26.7671 5.45718 26.5192 5.69924C26.2713 5.94129 26.1024 6.24968 26.034 6.58542C25.9656 6.92115 26.0007 7.26915 26.1349 7.58541C26.2691 7.90167 26.4963 8.17198 26.7878 8.36216ZM26.5909 2.30769H26.65C28.6808 2.30797 30.6627 2.91605 32.3286 4.05C32.0752 3.21477 31.5525 2.48172 30.8381 1.9599C30.1237 1.43808 29.2558 1.15538 28.3636 1.15385H27.1818C27.0252 1.1543 26.8752 1.21523 26.7645 1.32333C26.6538 1.43142 26.5914 1.5779 26.5909 1.73077V2.30769ZM30.9242 12.4006C31.2157 12.5908 31.5584 12.6923 31.9091 12.6923C32.3788 12.691 32.8289 12.5082 33.161 12.1839C33.4932 11.8596 33.6804 11.4201 33.6818 10.9615C33.6818 10.6192 33.5778 10.2846 33.383 9.99997C33.1882 9.71535 32.9114 9.49351 32.5875 9.36251C32.2635 9.23151 31.9071 9.19724 31.5632 9.26402C31.2193 9.3308 30.9035 9.49564 30.6556 9.7377C30.4076 9.97975 30.2388 10.2881 30.1704 10.6239C30.102 10.9596 30.1371 11.3076 30.2713 11.6239C30.4055 11.9401 30.6327 12.2104 30.9242 12.4006ZM151.085 10.9999C151.512 11.2666 151.765 11.6532 151.845 12.1599H155.025C154.945 11.3999 154.759 10.7466 154.465 10.1999C154.185 9.63991 153.819 9.17324 153.365 8.79991C152.912 8.42658 152.385 8.15324 151.785 7.97991C151.199 7.79325 150.559 7.68658 149.865 7.65991C149.225 7.65991 148.572 7.72658 147.905 7.85991C147.239 7.97991 146.632 8.20658 146.085 8.53991C145.552 8.85991 145.112 9.29991 144.765 9.85991C144.419 10.4199 144.245 11.1266 144.245 11.9799C144.245 12.8332 144.412 13.5199 144.745 14.0399C145.092 14.5599 145.559 14.9799 146.145 15.2999C146.745 15.6199 147.439 15.8799 148.225 16.0799C149.012 16.2799 149.859 16.4799 150.765 16.6799C151.139 16.7732 151.445 16.9132 151.685 17.0999C151.939 17.2732 152.065 17.5332 152.065 17.8799C152.065 18.1199 151.999 18.3266 151.865 18.4999C151.745 18.6599 151.592 18.7932 151.405 18.8999C151.219 18.9932 151.005 19.0599 150.765 19.0999C150.525 19.1399 150.299 19.1599 150.085 19.1599C149.739 19.1599 149.399 19.1332 149.065 19.0799C148.745 19.0132 148.452 18.9132 148.185 18.7799C147.932 18.6466 147.712 18.4732 147.525 18.2599C147.339 18.0332 147.205 17.7532 147.125 17.4199H143.825C143.892 18.2866 144.105 19.0199 144.465 19.6199C144.825 20.2199 145.285 20.7132 145.845 21.0999C146.405 21.4732 147.032 21.7466 147.725 21.9199C148.419 22.0799 149.132 22.1599 149.865 22.1599C150.599 22.1599 151.299 22.0732 151.965 21.8999C152.632 21.7266 153.212 21.4599 153.705 21.0999C154.212 20.7399 154.612 20.2799 154.905 19.7199C155.199 19.1466 155.345 18.4666 155.345 17.6799C155.319 16.7999 155.139 16.1132 154.805 15.6199C154.485 15.1266 154.059 14.7399 153.525 14.4599C153.005 14.1799 152.412 13.9666 151.745 13.8199C151.079 13.6732 150.399 13.5066 149.705 13.3199C149.359 13.2266 149.045 13.1399 148.765 13.0599C148.499 12.9799 148.265 12.8866 148.065 12.7799C147.879 12.6732 147.732 12.5466 147.625 12.3999C147.532 12.2532 147.485 12.0666 147.485 11.8399C147.485 11.6266 147.539 11.4399 147.645 11.2799C147.765 11.1199 147.919 10.9932 148.105 10.8999C148.292 10.7932 148.499 10.7199 148.725 10.6799C148.965 10.6266 149.205 10.5999 149.445 10.5999C150.125 10.5999 150.672 10.7332 151.085 10.9999ZM138.693 8.10009C138.013 7.92675 137.26 7.84009 136.433 7.84009H130.753V22.0001H134.013V17.9201H136.473C137.26 17.9201 137.993 17.8134 138.673 17.6001C139.353 17.3868 139.94 17.0668 140.433 16.6401C140.94 16.2001 141.333 15.6601 141.613 15.0201C141.893 14.3801 142.033 13.6268 142.033 12.7601C142.033 11.8534 141.893 11.0868 141.613 10.4601C141.347 9.83342 140.967 9.32675 140.473 8.94009C139.98 8.55342 139.387 8.27342 138.693 8.10009ZM138.133 14.5001C137.693 14.8601 137.113 15.0401 136.393 15.0401H134.013V10.8201H136.373C137.187 10.8201 137.8 10.9868 138.213 11.3201C138.627 11.6401 138.833 12.1801 138.833 12.9401C138.807 13.6201 138.573 14.1401 138.133 14.5001ZM128.057 17.52H121.157V14.76H128.057V17.52ZM115.936 20.64L115.956 22H118.876V16.32C118.876 15.64 118.803 14.9867 118.656 14.36C118.523 13.7333 118.269 13.1933 117.896 12.74C117.536 12.2733 117.049 11.9067 116.436 11.64C115.823 11.3733 115.043 11.24 114.096 11.24C113.509 11.24 112.943 11.3067 112.396 11.44C111.863 11.56 111.369 11.7667 110.916 12.06C110.476 12.34 110.109 12.7133 109.816 13.18C109.523 13.6333 109.336 14.18 109.256 14.82H112.456C112.523 14.5 112.723 14.2667 113.056 14.12C113.389 13.9733 113.749 13.9067 114.136 13.92C114.696 13.92 115.116 14.0733 115.396 14.38C115.689 14.6867 115.836 15.0867 115.836 15.58H113.956C113.316 15.58 112.703 15.6267 112.116 15.72C111.543 15.8 111.029 15.96 110.576 16.2C110.123 16.44 109.756 16.7933 109.476 17.26C109.196 17.7133 109.056 18.24 109.056 18.84C109.056 19.4 109.149 19.8867 109.336 20.3C109.536 20.7133 109.803 21.0667 110.136 21.36C110.469 21.64 110.836 21.8467 111.236 21.98C111.649 22.1 112.089 22.16 112.556 22.16C113.129 22.16 113.609 22.1 113.996 21.98C114.396 21.86 114.756 21.6933 115.076 21.48C115.409 21.2533 115.696 20.9733 115.936 20.64ZM114.016 17.54H115.856C115.856 17.9 115.796 18.22 115.676 18.5C115.556 18.7667 115.383 18.9933 115.156 19.18C114.943 19.3667 114.696 19.5067 114.416 19.6C114.149 19.68 113.869 19.72 113.576 19.72C113.163 19.72 112.829 19.6267 112.576 19.44C112.336 19.2533 112.216 18.9867 112.216 18.64C112.216 18.28 112.369 18.0067 112.676 17.82C112.996 17.6333 113.443 17.54 114.016 17.54ZM104.264 22.0001L104.184 20.8601C103.771 21.3134 103.317 21.6401 102.824 21.8401C102.331 22.0268 101.711 22.1334 100.964 22.1601C100.177 22.1601 99.4906 22.0268 98.904 21.7601C98.3173 21.4801 97.8173 21.1001 97.404 20.6201C97.004 20.1268 96.6973 19.5534 96.484 18.9001C96.284 18.2334 96.184 17.5201 96.184 16.7601C96.184 15.9601 96.2973 15.2268 96.524 14.5601C96.764 13.8801 97.0973 13.2934 97.524 12.8001C97.9506 12.3068 98.464 11.9268 99.064 11.6601C99.6773 11.3801 100.384 11.2401 101.184 11.2401C101.771 11.2401 102.311 11.3201 102.804 11.4801C103.297 11.6401 103.731 11.8868 104.104 12.2201V7.84009H107.264V22.0001H104.264ZM101.724 19.3401C102.124 19.3268 102.471 19.2468 102.764 19.1001C103.071 18.9534 103.324 18.7668 103.524 18.5401C103.724 18.3001 103.871 18.0268 103.964 17.7201C104.057 17.4134 104.104 17.0801 104.104 16.7201C104.104 16.3734 104.057 16.0468 103.964 15.7401C103.871 15.4334 103.724 15.1601 103.524 14.9201C103.337 14.6801 103.091 14.4934 102.784 14.3601C102.477 14.2268 102.124 14.1601 101.724 14.1601C101.297 14.1601 100.931 14.2334 100.624 14.3801C100.331 14.5134 100.084 14.7068 99.884 14.9601C99.6973 15.2001 99.5573 15.4801 99.464 15.8001C99.384 16.1068 99.344 16.4268 99.344 16.7601C99.344 17.1201 99.3906 17.4534 99.484 17.7601C99.5773 18.0668 99.7173 18.3334 99.904 18.5601C100.104 18.7868 100.351 18.9734 100.644 19.1201C100.951 19.2668 101.311 19.3401 101.724 19.3401ZM88.8606 11.56C88.3139 11.76 87.8073 12.1133 87.3406 12.62L87.1806 11.46H84.2406V22H87.3806V16.68C87.3806 16.3867 87.4073 16.0933 87.4606 15.8C87.5273 15.5067 87.6339 15.24 87.7806 15C87.9273 14.7467 88.1339 14.54 88.4006 14.38C88.6673 14.22 89.0006 14.1333 89.4006 14.12C89.7739 14.12 90.0873 14.1867 90.3406 14.32C90.5939 14.44 90.7939 14.6133 90.9406 14.84C91.0873 15.0667 91.1873 15.32 91.2406 15.6C91.2939 15.88 91.3206 16.1667 91.3206 16.46V22H94.4806V16.2C94.4806 15.44 94.4073 14.7467 94.2606 14.12C94.1139 13.4933 93.8473 12.9467 93.4606 12.48C93.1139 12.0933 92.6873 11.7933 92.1806 11.58C91.6873 11.3533 91.1073 11.24 90.4406 11.24C89.9339 11.2533 89.4073 11.36 88.8606 11.56ZM77.5001 19.54C77.9134 19.54 78.2601 19.4733 78.5401 19.34C78.8201 19.1933 79.0267 18.9933 79.16 18.74H82.3601C82.2134 19.3533 81.9867 19.8733 81.6801 20.3C81.3734 20.7267 81.0001 21.08 80.5601 21.36C80.1201 21.64 79.6334 21.8467 79.1001 21.98C78.5801 22.1 78.0334 22.16 77.4601 22.16C75.7934 22.16 74.4934 21.6867 73.5601 20.74C72.6401 19.78 72.1801 18.4267 72.1801 16.68C72.1801 15.9067 72.3001 15.1867 72.5401 14.52C72.7934 13.8533 73.1401 13.28 73.5801 12.8C74.0334 12.3067 74.5801 11.9267 75.2201 11.66C75.8734 11.38 76.6067 11.24 77.4201 11.24C78.2334 11.24 78.9534 11.3667 79.5801 11.62C80.2067 11.8733 80.7334 12.2333 81.16 12.7C81.5867 13.1667 81.9067 13.72 82.1201 14.36C82.3467 15 82.4601 15.6933 82.4601 16.44C82.4601 16.6533 82.4467 16.86 82.4201 17.06C82.4067 17.2467 82.3801 17.4533 82.3401 17.68H75.3401C75.3934 18.1867 75.5867 18.62 75.9201 18.98C76.2667 19.34 76.7934 19.5267 77.5001 19.54ZM79.4401 15.56C79.4401 15.0667 79.2601 14.66 78.9001 14.34C78.5534 14.02 78.0734 13.86 77.4601 13.86C76.7801 13.86 76.2734 14.0333 75.9401 14.38C75.6067 14.7133 75.4201 15.1067 75.3801 15.56H79.4401ZM69.0893 11.54C68.596 11.7133 68.1427 12.0733 67.7294 12.62L67.5294 11.46H64.7094V22H67.8493V17.24C67.8493 16.6267 67.9227 16.1133 68.0694 15.7C68.2294 15.2733 68.5094 14.9333 68.9093 14.68C69.0827 14.5733 69.2827 14.5 69.5094 14.46C69.7494 14.4067 69.9893 14.3733 70.2294 14.36C70.4827 14.3333 70.7293 14.3267 70.9694 14.34H71.6094V11.32C71.516 11.2933 71.3827 11.28 71.2094 11.28C71.0493 11.2667 70.8827 11.26 70.7094 11.26C70.136 11.26 69.596 11.3533 69.0893 11.54ZM53.38 19.6601L52.52 22.0001H49L54.58 7.84009H58.06L63.56 22.0001H60.02L59.18 19.6601H53.38ZM54.38 16.7401H58.18C57.8733 15.8468 57.56 14.9601 57.24 14.0801C56.9333 13.1868 56.62 12.2934 56.3 11.4001L54.38 16.7401Z" fill="#8569FF"/>
<path fill-rule="evenodd" clip-rule="evenodd" d="M36.595 10.7423L38.8877 23.1404C38.9637 23.4542 39.0014 23.7756 39 24.0981V25.65C38.9974 26.8049 38.5256 27.9117 37.688 28.7273C36.8505 29.5428 35.7156 30.0006 34.5327 30H34.4559C33.7571 29.9997 33.069 29.833 32.4511 29.5143C31.8333 29.1956 31.3045 28.7345 30.9104 28.1711L23.8491 21.525C23.6874 21.2924 23.4698 21.1019 23.2154 20.9701C22.961 20.8384 22.6775 20.7694 22.3895 20.7692H16.6104C16.3223 20.7688 16.0386 20.8375 15.784 20.9692C15.5295 21.101 15.3121 21.2919 15.1509 21.525L8.13681 28.1019C7.72653 28.6884 7.17549 29.1681 6.53174 29.4989C5.888 29.8298 5.17112 30.0018 4.44363 30H4.37273C3.21343 29.9986 2.10202 29.5484 1.28228 28.7481C0.462533 27.9477 0.00139112 26.8626 1.22648e-06 25.7308V24.0981C-0.000260611 23.7579 0.0414025 23.4189 0.124093 23.0885L2.405 10.7423C2.56038 9.67021 2.8979 8.63094 3.40364 7.6673C3.89899 6.73027 4.54542 5.87708 5.31818 5.14038C5.33538 3.7733 5.90288 2.46773 6.89803 1.50585C7.89317 0.543977 9.23603 0.00305532 10.6364 0H11.8182C12.2879 0.00133788 12.738 0.184116 13.0702 0.508408C13.4023 0.832701 13.5895 1.27215 13.5909 1.73077V2.30769H25.4091V1.73077C25.4104 1.27215 25.5976 0.832701 25.9298 0.508408C26.262 0.184116 26.7121 0.00133788 27.1818 0H28.3636C29.7642 0.00207332 31.1077 0.542678 32.103 1.50476C33.0984 2.46685 33.6656 3.77299 33.6818 5.14038C35.2604 6.64194 36.2849 8.61193 36.595 10.7423ZM10.6364 1.15385C9.73571 1.1531 8.8597 1.4409 8.14272 1.97308C7.4388 2.49526 6.92345 3.2227 6.67136 4.05C8.33813 2.91776 10.3195 2.30985 12.35 2.30769H12.4091V1.73077C12.4086 1.5779 12.3462 1.43142 12.2355 1.32333C12.1248 1.21523 11.9747 1.1543 11.8182 1.15385H10.6364ZM12.4091 12.6923H14.1818C14.3384 12.6918 14.4884 12.6309 14.5991 12.5228C14.7098 12.4147 14.7722 12.2682 14.7727 12.1154V9.80769C14.7722 9.65482 14.7098 9.50834 14.5991 9.40025C14.4884 9.29215 14.3384 9.23122 14.1818 9.23077H12.4091V7.5C12.4086 7.34713 12.3462 7.20065 12.2355 7.09256C12.1248 6.98446 11.9747 6.92353 11.8182 6.92307H9.45454C9.29796 6.92353 9.14793 6.98446 9.03722 7.09256C8.9265 7.20065 8.8641 7.34713 8.86363 7.5V9.23077H7.0909C6.93433 9.23122 6.7843 9.29215 6.67358 9.40025C6.56287 9.50834 6.50046 9.65482 6.5 9.80769V12.1154C6.50046 12.2682 6.56287 12.4147 6.67358 12.5228C6.7843 12.6309 6.93433 12.6918 7.0909 12.6923H8.86363V14.4231C8.8641 14.5759 8.9265 14.7224 9.03722 14.8305C9.14793 14.9386 9.29796 14.9995 9.45454 15H11.8182C11.9747 14.9995 12.1248 14.9386 12.2355 14.8305C12.3462 14.7224 12.4086 14.5759 12.4091 14.4231V12.6923ZM15.3636 17.8846H16.5454C16.7022 17.8846 16.8525 17.8238 16.9633 17.7156C17.0741 17.6074 17.1363 17.4607 17.1363 17.3077C17.1363 17.1547 17.0741 17.0079 16.9633 16.8997C16.8525 16.7915 16.7022 16.7308 16.5454 16.7308H15.3636C15.2069 16.7308 15.0566 16.7915 14.9458 16.8997C14.835 17.0079 14.7727 17.1547 14.7727 17.3077C14.7727 17.4607 14.835 17.6074 14.9458 17.7156C15.0566 17.8238 15.2069 17.8846 15.3636 17.8846ZM22.4545 17.8846H23.6363C23.7931 17.8846 23.9434 17.8238 24.0542 17.7156C24.165 17.6074 24.2273 17.4607 24.2273 17.3077C24.2273 17.1547 24.165 17.0079 24.0542 16.8997C23.9434 16.7915 23.7931 16.7308 23.6363 16.7308H22.4545C22.2978 16.7308 22.1475 16.7915 22.0367 16.8997C21.9259 17.0079 21.8636 17.1547 21.8636 17.3077C21.8636 17.4607 21.9259 17.6074 22.0367 17.7156C22.1475 17.8238 22.2978 17.8846 22.4545 17.8846ZM22.6515 12.4006C22.943 12.5908 23.2857 12.6923 23.6363 12.6923C24.1061 12.691 24.5562 12.5082 24.8883 12.1839C25.2205 11.8596 25.4077 11.4201 25.4091 10.9615C25.4091 10.6192 25.3051 10.2846 25.1103 9.99997C24.9155 9.71535 24.6387 9.49351 24.3147 9.36251C23.9908 9.23151 23.6344 9.19724 23.2905 9.26402C22.9466 9.3308 22.6308 9.49564 22.3828 9.7377C22.1349 9.97975 21.9661 10.2881 21.8977 10.6239C21.8293 10.9596 21.8644 11.3076 21.9986 11.6239C22.1327 11.9401 22.3599 12.2104 22.6515 12.4006ZM26.7878 16.4391C27.0794 16.6293 27.4221 16.7308 27.7727 16.7308C28.2424 16.7294 28.6925 16.5466 29.0247 16.2223C29.3568 15.8981 29.5441 15.4586 29.5454 15C29.5454 14.6577 29.4415 14.3231 29.2467 14.0384C29.0519 13.7538 28.775 13.532 28.4511 13.401C28.1272 13.27 27.7707 13.2357 27.4269 13.3025C27.083 13.3693 26.7671 13.5341 26.5192 13.7762C26.2713 14.0182 26.1024 14.3266 26.034 14.6623C25.9656 14.9981 26.0007 15.3461 26.1349 15.6623C26.2691 15.9786 26.4963 16.2489 26.7878 16.4391ZM26.7878 8.36216C27.0794 8.55233 27.4221 8.65384 27.7727 8.65384C28.2424 8.6525 28.6925 8.46972 29.0247 8.14543C29.3568 7.82114 29.5441 7.38169 29.5454 6.92307C29.5454 6.58076 29.4415 6.24613 29.2467 5.96151C29.0519 5.67689 28.775 5.45505 28.4511 5.32405C28.1272 5.19305 27.7707 5.15878 27.4269 5.22556C27.083 5.29234 26.7671 5.45718 26.5192 5.69924C26.2713 5.94129 26.1024 6.24968 26.034 6.58542C25.9656 6.92115 26.0007 7.26915 26.1349 7.58541C26.2691 7.90167 26.4963 8.17198 26.7878 8.36216ZM26.5909 2.30769H26.65C28.6808 2.30797 30.6627 2.91605 32.3286 4.05C32.0752 3.21477 31.5525 2.48172 30.8381 1.9599C30.1237 1.43808 29.2558 1.15538 28.3636 1.15385H27.1818C27.0252 1.1543 26.8752 1.21523 26.7645 1.32333C26.6538 1.43142 26.5914 1.5779 26.5909 1.73077V2.30769ZM30.9242 12.4006C31.2157 12.5908 31.5584 12.6923 31.9091 12.6923C32.3788 12.691 32.8289 12.5082 33.161 12.1839C33.4932 11.8596 33.6804 11.4201 33.6818 10.9615C33.6818 10.6192 33.5778 10.2846 33.383 9.99997C33.1882 9.71535 32.9114 9.49351 32.5875 9.36251C32.2635 9.23151 31.9071 9.19724 31.5632 9.26402C31.2193 9.3308 30.9035 9.49564 30.6556 9.7377C30.4076 9.97975 30.2388 10.2881 30.1704 10.6239C30.102 10.9596 30.1371 11.3076 30.2713 11.6239C30.4055 11.9401 30.6327 12.2104 30.9242 12.4006ZM151.085 10.9999C151.512 11.2666 151.765 11.6532 151.845 12.1599H155.025C154.945 11.3999 154.759 10.7466 154.465 10.1999C154.185 9.63991 153.819 9.17324 153.365 8.79991C152.912 8.42658 152.385 8.15324 151.785 7.97991C151.199 7.79325 150.559 7.68658 149.865 7.65991C149.225 7.65991 148.572 7.72658 147.905 7.85991C147.239 7.97991 146.632 8.20658 146.085 8.53991C145.552 8.85991 145.112 9.29991 144.765 9.85991C144.419 10.4199 144.245 11.1266 144.245 11.9799C144.245 12.8332 144.412 13.5199 144.745 14.0399C145.092 14.5599 145.559 14.9799 146.145 15.2999C146.745 15.6199 147.439 15.8799 148.225 16.0799C149.012 16.2799 149.859 16.4799 150.765 16.6799C151.139 16.7732 151.445 16.9132 151.685 17.0999C151.939 17.2732 152.065 17.5332 152.065 17.8799C152.065 18.1199 151.999 18.3266 151.865 18.4999C151.745 18.6599 151.592 18.7932 151.405 18.8999C151.219 18.9932 151.005 19.0599 150.765 19.0999C150.525 19.1399 150.299 19.1599 150.085 19.1599C149.739 19.1599 149.399 19.1332 149.065 19.0799C148.745 19.0132 148.452 18.9132 148.185 18.7799C147.932 18.6466 147.712 18.4732 147.525 18.2599C147.339 18.0332 147.205 17.7532 147.125 17.4199H143.825C143.892 18.2866 144.105 19.0199 144.465 19.6199C144.825 20.2199 145.285 20.7132 145.845 21.0999C146.405 21.4732 147.032 21.7466 147.725 21.9199C148.419 22.0799 149.132 22.1599 149.865 22.1599C150.599 22.1599 151.299 22.0732 151.965 21.8999C152.632 21.7266 153.212 21.4599 153.705 21.0999C154.212 20.7399 154.612 20.2799 154.905 19.7199C155.199 19.1466 155.345 18.4666 155.345 17.6799C155.319 16.7999 155.139 16.1132 154.805 15.6199C154.485 15.1266 154.059 14.7399 153.525 14.4599C153.005 14.1799 152.412 13.9666 151.745 13.8199C151.079 13.6732 150.399 13.5066 149.705 13.3199C149.359 13.2266 149.045 13.1399 148.765 13.0599C148.499 12.9799 148.265 12.8866 148.065 12.7799C147.879 12.6732 147.732 12.5466 147.625 12.3999C147.532 12.2532 147.485 12.0666 147.485 11.8399C147.485 11.6266 147.539 11.4399 147.645 11.2799C147.765 11.1199 147.919 10.9932 148.105 10.8999C148.292 10.7932 148.499 10.7199 148.725 10.6799C148.965 10.6266 149.205 10.5999 149.445 10.5999C150.125 10.5999 150.672 10.7332 151.085 10.9999ZM138.693 8.10009C138.013 7.92675 137.26 7.84009 136.433 7.84009H130.753V22.0001H134.013V17.9201H136.473C137.26 17.9201 137.993 17.8134 138.673 17.6001C139.353 17.3868 139.94 17.0668 140.433 16.6401C140.94 16.2001 141.333 15.6601 141.613 15.0201C141.893 14.3801 142.033 13.6268 142.033 12.7601C142.033 11.8534 141.893 11.0868 141.613 10.4601C141.347 9.83342 140.967 9.32675 140.473 8.94009C139.98 8.55342 139.387 8.27342 138.693 8.10009ZM138.133 14.5001C137.693 14.8601 137.113 15.0401 136.393 15.0401H134.013V10.8201H136.373C137.187 10.8201 137.8 10.9868 138.213 11.3201C138.627 11.6401 138.833 12.1801 138.833 12.9401C138.807 13.6201 138.573 14.1401 138.133 14.5001ZM128.057 17.52H121.157V14.76H128.057V17.52ZM115.936 20.64L115.956 22H118.876V16.32C118.876 15.64 118.803 14.9867 118.656 14.36C118.523 13.7333 118.269 13.1933 117.896 12.74C117.536 12.2733 117.049 11.9067 116.436 11.64C115.823 11.3733 115.043 11.24 114.096 11.24C113.509 11.24 112.943 11.3067 112.396 11.44C111.863 11.56 111.369 11.7667 110.916 12.06C110.476 12.34 110.109 12.7133 109.816 13.18C109.523 13.6333 109.336 14.18 109.256 14.82H112.456C112.523 14.5 112.723 14.2667 113.056 14.12C113.389 13.9733 113.749 13.9067 114.136 13.92C114.696 13.92 115.116 14.0733 115.396 14.38C115.689 14.6867 115.836 15.0867 115.836 15.58H113.956C113.316 15.58 112.703 15.6267 112.116 15.72C111.543 15.8 111.029 15.96 110.576 16.2C110.123 16.44 109.756 16.7933 109.476 17.26C109.196 17.7133 109.056 18.24 109.056 18.84C109.056 19.4 109.149 19.8867 109.336 20.3C109.536 20.7133 109.803 21.0667 110.136 21.36C110.469 21.64 110.836 21.8467 111.236 21.98C111.649 22.1 112.089 22.16 112.556 22.16C113.129 22.16 113.609 22.1 113.996 21.98C114.396 21.86 114.756 21.6933 115.076 21.48C115.409 21.2533 115.696 20.9733 115.936 20.64ZM114.016 17.54H115.856C115.856 17.9 115.796 18.22 115.676 18.5C115.556 18.7667 115.383 18.9933 115.156 19.18C114.943 19.3667 114.696 19.5067 114.416 19.6C114.149 19.68 113.869 19.72 113.576 19.72C113.163 19.72 112.829 19.6267 112.576 19.44C112.336 19.2533 112.216 18.9867 112.216 18.64C112.216 18.28 112.369 18.0067 112.676 17.82C112.996 17.6333 113.443 17.54 114.016 17.54ZM104.264 22.0001L104.184 20.8601C103.771 21.3134 103.317 21.6401 102.824 21.8401C102.331 22.0268 101.711 22.1334 100.964 22.1601C100.177 22.1601 99.4906 22.0268 98.904 21.7601C98.3173 21.4801 97.8173 21.1001 97.404 20.6201C97.004 20.1268 96.6973 19.5534 96.484 18.9001C96.284 18.2334 96.184 17.5201 96.184 16.7601C96.184 15.9601 96.2973 15.2268 96.524 14.5601C96.764 13.8801 97.0973 13.2934 97.524 12.8001C97.9506 12.3068 98.464 11.9268 99.064 11.6601C99.6773 11.3801 100.384 11.2401 101.184 11.2401C101.771 11.2401 102.311 11.3201 102.804 11.4801C103.297 11.6401 103.731 11.8868 104.104 12.2201V7.84009H107.264V22.0001H104.264ZM101.724 19.3401C102.124 19.3268 102.471 19.2468 102.764 19.1001C103.071 18.9534 103.324 18.7668 103.524 18.5401C103.724 18.3001 103.871 18.0268 103.964 17.7201C104.057 17.4134 104.104 17.0801 104.104 16.7201C104.104 16.3734 104.057 16.0468 103.964 15.7401C103.871 15.4334 103.724 15.1601 103.524 14.9201C103.337 14.6801 103.091 14.4934 102.784 14.3601C102.477 14.2268 102.124 14.1601 101.724 14.1601C101.297 14.1601 100.931 14.2334 100.624 14.3801C100.331 14.5134 100.084 14.7068 99.884 14.9601C99.6973 15.2001 99.5573 15.4801 99.464 15.8001C99.384 16.1068 99.344 16.4268 99.344 16.7601C99.344 17.1201 99.3906 17.4534 99.484 17.7601C99.5773 18.0668 99.7173 18.3334 99.904 18.5601C100.104 18.7868 100.351 18.9734 100.644 19.1201C100.951 19.2668 101.311 19.3401 101.724 19.3401ZM88.8606 11.56C88.3139 11.76 87.8073 12.1133 87.3406 12.62L87.1806 11.46H84.2406V22H87.3806V16.68C87.3806 16.3867 87.4073 16.0933 87.4606 15.8C87.5273 15.5067 87.6339 15.24 87.7806 15C87.9273 14.7467 88.1339 14.54 88.4006 14.38C88.6673 14.22 89.0006 14.1333 89.4006 14.12C89.7739 14.12 90.0873 14.1867 90.3406 14.32C90.5939 14.44 90.7939 14.6133 90.9406 14.84C91.0873 15.0667 91.1873 15.32 91.2406 15.6C91.2939 15.88 91.3206 16.1667 91.3206 16.46V22H94.4806V16.2C94.4806 15.44 94.4073 14.7467 94.2606 14.12C94.1139 13.4933 93.8473 12.9467 93.4606 12.48C93.1139 12.0933 92.6873 11.7933 92.1806 11.58C91.6873 11.3533 91.1073 11.24 90.4406 11.24C89.9339 11.2533 89.4073 11.36 88.8606 11.56ZM77.5001 19.54C77.9134 19.54 78.2601 19.4733 78.5401 19.34C78.8201 19.1933 79.0267 18.9933 79.16 18.74H82.3601C82.2134 19.3533 81.9867 19.8733 81.6801 20.3C81.3734 20.7267 81.0001 21.08 80.5601 21.36C80.1201 21.64 79.6334 21.8467 79.1001 21.98C78.5801 22.1 78.0334 22.16 77.4601 22.16C75.7934 22.16 74.4934 21.6867 73.5601 20.74C72.6401 19.78 72.1801 18.4267 72.1801 16.68C72.1801 15.9067 72.3001 15.1867 72.5401 14.52C72.7934 13.8533 73.1401 13.28 73.5801 12.8C74.0334 12.3067 74.5801 11.9267 75.2201 11.66C75.8734 11.38 76.6067 11.24 77.4201 11.24C78.2334 11.24 78.9534 11.3667 79.5801 11.62C80.2067 11.8733 80.7334 12.2333 81.16 12.7C81.5867 13.1667 81.9067 13.72 82.1201 14.36C82.3467 15 82.4601 15.6933 82.4601 16.44C82.4601 16.6533 82.4467 16.86 82.4201 17.06C82.4067 17.2467 82.3801 17.4533 82.3401 17.68H75.3401C75.3934 18.1867 75.5867 18.62 75.9201 18.98C76.2667 19.34 76.7934 19.5267 77.5001 19.54ZM79.4401 15.56C79.4401 15.0667 79.2601 14.66 78.9001 14.34C78.5534 14.02 78.0734 13.86 77.4601 13.86C76.7801 13.86 76.2734 14.0333 75.9401 14.38C75.6067 14.7133 75.4201 15.1067 75.3801 15.56H79.4401ZM69.0893 11.54C68.596 11.7133 68.1427 12.0733 67.7294 12.62L67.5294 11.46H64.7094V22H67.8493V17.24C67.8493 16.6267 67.9227 16.1133 68.0694 15.7C68.2294 15.2733 68.5094 14.9333 68.9093 14.68C69.0827 14.5733 69.2827 14.5 69.5094 14.46C69.7494 14.4067 69.9893 14.3733 70.2294 14.36C70.4827 14.3333 70.7293 14.3267 70.9694 14.34H71.6094V11.32C71.516 11.2933 71.3827 11.28 71.2094 11.28C71.0493 11.2667 70.8827 11.26 70.7094 11.26C70.136 11.26 69.596 11.3533 69.0893 11.54ZM53.38 19.6601L52.52 22.0001H49L54.58 7.84009H58.06L63.56 22.0001H60.02L59.18 19.6601H53.38ZM54.38 16.7401H58.18C57.8733 15.8468 57.56 14.9601 57.24 14.0801C56.9333 13.1868 56.62 12.2934 56.3 11.4001L54.38 16.7401Z" fill="url(#paint0_linear_1959_4475)" fill-opacity="0.6"/>
<defs>
<linearGradient id="paint0_linear_1959_4475" x1="0" y1="0" x2="141.823" y2="61.2896" gradientUnits="userSpaceOnUse">
<stop stop-color="white" stop-opacity="0"/>
<stop offset="0.511474" stop-color="white"/>
<stop offset="1" stop-color="white" stop-opacity="0"/>
</linearGradient>
</defs>
</svg>
