<svg xmlns="http://www.w3.org/2000/svg" viewBox="0 0 393.75916 644.41931">
  <defs>
    <style>
      .a {
        fill: #fff;
      }

      .b {
        fill: none;
      }
    </style>
  </defs>
  <title>logo</title>
  <g>
    <polygon class="a" points="198.115 11.448 7.64 321.781 197.64 633.448 387.64 322.194 198.115 11.448"/>
    <path class="b" d="M189.94836,334.18823c6.56794,1.26172,13.21.78791,19.80469-.12066a41.29594,41.29594,0,0,0,12.6803-4.16919c1.0177-.50391,2.14764-.97187,2.5896-2.202A12.9987,12.9987,0,0,0,213.86,326.364c-1.50812.5083-3.0929.78479-4.63141,1.208a39.26548,39.26548,0,0,1-23.34388-.72418,3.55907,3.55907,0,0,0-1.84277-.31445,21.01534,21.01534,0,0,0-6.83954,2.83233,13.717,13.717,0,0,0,2.50006,1.61536A78.40867,78.40867,0,0,0,189.94836,334.18823Z"/>
    <path class="b" d="M173.9458,332.0979a49.6819,49.6819,0,0,0,11.75891,5.0058c5.47711,1.48,11.04431,1.36847,16.64649,1.03338a58.333,58.333,0,0,0,21.88025-5.58142,27.81163,27.81163,0,0,0,3.88012-2.35034c.67169-.46917,1.45447-1.03357,1.16535-2.16467a2.31366,2.31366,0,0,0-2.94062.85333,6.47709,6.47709,0,0,1-2.0188,1.63794,49.04428,49.04428,0,0,1-33.59594,5.17395c-4.059-.76562-7.99713-2.16363-12.00244-3.22778-1.51624-.40289-3.06617-.679-4.60071-1.01282Z"/>
    <path class="b" d="M244.11493,323.49078c1.66,6.174,1.04718,11.10059-3.74274,15.26606-4.9126,4.27221-10.75384,6.661-16.73108,8.56738a79.7034,79.7034,0,0,1-33.63775,3.16113,74.60685,74.60685,0,0,1-30.50641-9.94421,32.70031,32.70031,0,0,1-5.56177-4.13849c-4.47479-4.22522-4.887-8.6499-1.4408-13.72028,1.032-1.51825,2.26709-2.89764,3.31727-4.40472a22.99082,22.99082,0,0,0,1.39422-2.67877,4.82923,4.82923,0,0,0-1.01587-.30378,3.6378,3.6378,0,0,0-1.18512.14454c-3.95593,1.42981-7.69769,3.27411-10.33056,6.6748a10.78021,10.78021,0,0,0-2.162,9.70752,15.22421,15.22421,0,0,0,7.34662,9.36237A83.32651,83.32651,0,0,0,181.97,352.42523c6.56091.8468,13.22595.95215,19.85126,1.20581a67.16388,67.16388,0,0,0,9.09845-.372,92.968,92.968,0,0,0,24.96435-6.42773,43.95281,43.95281,0,0,0,12.45636-7.01367,16.12092,16.12092,0,0,0,5.30207-8.07691,9.08912,9.08912,0,0,0-1.69318-8.81854,43.25541,43.25541,0,0,0-6.1087-5.70374,7.85146,7.85146,0,0,0-3.78907-1.25079,44.53167,44.53167,0,0,0-5.25647-.0509l-.24719.57947c1.7782,1.43457,3.6015,2.81793,5.31586,4.32513C242.73816,321.59015,243.83984,322.46771,244.11493,323.49078Z"/>
    <path class="b" d="M206.48077,386.41852a151.36048,151.36048,0,0,1-44.45983-4.38129c-5.62763-1.46741-11.1742-3.31146-16.64368-5.29767a34.72508,34.72508,0,0,1-11.37634-6.53174c-1.17511-1.04364-2.49122-2.07421-4.7724-.94427a14.7944,14.7944,0,0,0,1.96081,2.30981,35.25614,35.25614,0,0,0,5.51892,3.78565,107.18885,107.18885,0,0,0,22.41529,8.3175,181.71336,181.71336,0,0,0,34.78552,5.19477,81.43465,81.43465,0,0,0,22.87225-1.826,3.84609,3.84609,0,0,0,2.8877-1.597c-1.92585.09345-3.50049.12982-5.06812.25489C211.89215,385.91925,209.19257,386.31061,206.48077,386.41852Z"/>
    <path class="b" d="M254.40216,322.869c4.33588,4.02453,6.20374,12.83264,1.17017,19.0332A27.1434,27.1434,0,0,1,243.25,350.68823c.80548-.49682,1.62219-.97656,2.41425-1.494,1.699-1.10986,3.38537-2.23913,5.09747-3.37408-2.18665-2.54181-3.71027-2.96655-6.23975-1.90857-1.91406.8006-3.825,1.60944-5.72589,2.44067a99.82964,99.82964,0,0,1-34.99731,8.21051,111.82488,111.82488,0,0,1-16.25318-.75378,91.72468,91.72468,0,0,1-30.62719-8.076c-.557-.26123-1.3122-.62079-1.78882-.44092a33.445,33.445,0,0,0-6.11548,3.04267c1.134.64148,1.80682.991,2.44714,1.39233.791.49585,1.55493,1.03491,2.33057,1.55536a55.88658,55.88658,0,0,1-11.78931-6.34857,13.679,13.679,0,0,1-5.68158-8.85944c-1.18847-7.34906,1.35034-13.26532,7.29358-17.56524a36.3364,36.3364,0,0,1,8.20709-4.38947c4.76252-1.82922,9.68555-3.24158,14.54425-4.81915,2.9607-.96131,5.93769-1.87348,8.88624-2.87018.99115-.335,2.18316-.53412,2.54187-2.129a22.5269,22.5269,0,0,0-2.74006.21851c-4.61358.95385-9.2362,1.8761-13.81958,2.96185a82.326,82.326,0,0,0-21.67266,8.17114,29.13183,29.13183,0,0,0-11.30884,10.79505c-3.56867,6.16986-1.16046,15.00866,3.24139,18.40674,1.89765,1.4649,3.60816,3.17224,5.40369,4.76947-3.34973-1.08118-5.2486-4.31165-8.73395-5.63184-.2616,3.52161-.41815,6.70581-.75061,9.87158a15.38494,15.38494,0,0,0,5.96979,14.39093,52.6937,52.6937,0,0,0,8.22345,5.32166,77.53329,77.53329,0,0,0,17.56372,6.25152,219.33212,219.33212,0,0,0,32.79407,5.65375,43.678,43.678,0,0,0,13.616-.39667c4.456-.97918,7.45124-3.4884,8.61084-8.00061.45722-1.779.90534-3.56152,1.41553-5.32568a11.40178,11.40178,0,0,1,7.36676-7.93945c1.27075-.4657,2.58423-.824,3.89362-1.17353,3.2362-.86395,6.53259-1.53674,9.71325-2.56848,8.96814-2.90906,17.36621-6.94433,24.47553-13.28045a37.17925,37.17925,0,0,0,4.77405-5.03315c4.36615-5.68567,4.42474-11.57916.35974-17.5166a31.31813,31.31813,0,0,0-6.69922-6.82037c-5.05908-3.974-10.915-4.2937-17.50781-3.8136,1.06677.70752,1.69494,1.14075,2.33917,1.54864A68.87977,68.87977,0,0,1,254.40216,322.869ZM142.72461,352.96271q6.61752,2.91457,13.23505,5.82922C151.10858,357.8609,146.86975,355.51959,142.72461,352.96271Zm77.17035,5.024a101.98357,101.98357,0,0,1-24.46423,2.39221,109.362,109.362,0,0,1-37.78608-7.48969c1.62439.38013,3.28156.65674,4.86737,1.15863a135.1989,135.1989,0,0,0,20.02973,4.64563,95.45476,95.45476,0,0,0,27.4574.26441,140.05532,140.05532,0,0,0,18.55273-3.5434,8.22311,8.22311,0,0,1,1.4267-.13953C226.61957,356.189,223.293,357.25323,219.895,357.98676Z"/>
    <path class="b" d="M239.29077,322.64258c2.58557,3.001,2.93427,6.27154,1.15186,9.31317-2.221,3.78992-5.66815,6.10883-9.63019,7.74652a21.4738,21.4738,0,0,1,2.19073-1.58807,31.4276,31.4276,0,0,0,4.14533-3.22461,7.86589,7.86589,0,0,0,1.90021-8.00049,4.61267,4.61267,0,0,0-4.29035-3.28284c-1.84289-.04754-2.24408,1.52045-2.95971,2.71808a3.7311,3.7311,0,0,0-.37409.88171,11.61176,11.61176,0,0,1-6.08942,7.0777,40.26145,40.26145,0,0,1-6.11608,2.71424,66.12551,66.12551,0,0,1-21.74018,3.05273,56.41773,56.41773,0,0,1-25.56488-6.3974c-2.67254-1.35443-4.76446-3.16186-5.43231-6.28809a3.5667,3.5667,0,0,0-2.3703-2.8095,7.09513,7.09513,0,0,0-4.70691-.0832,3.40721,3.40721,0,0,0-2.57715,3.58612,7.65627,7.65627,0,0,0,1.72479,4.63654,17.34127,17.34127,0,0,0,5.99933,5.064c2.22718,1.21063,4.48157,2.37115,6.73157,3.5603a34.66871,34.66871,0,0,1-10.80139-5.44269,14.907,14.907,0,0,1-2.55866-2.50836,7.53121,7.53121,0,0,1-1.71435-6.50971,35.60363,35.60363,0,0,1,2.07312-6.09155,6.45407,6.45407,0,0,1,3.55585-3.38586c3.79583-1.67572,7.53692-3.47528,11.33093-5.15552a1.79,1.79,0,0,0,1.32733-1.84625,4.97536,4.97536,0,0,0-.93213.11261,56.82577,56.82577,0,0,0-16.83966,8.43341,8.691,8.691,0,0,0-2.53723,3.38855,11.10227,11.10227,0,0,0,1.20849,11.56933,17.93914,17.93914,0,0,0,5.96924,5.4513,45.85121,45.85121,0,0,0,5.026,2.241c1.6258.64014,3.33252,1.664,4.95307,1.577,1.96332-.10541,3.36816,1.28729,5.18384,1.17981a1.50079,1.50079,0,0,0,.47937-.17535q-2.89866-1.4589-5.80884-2.92377c.913.27661,1.839.51636,2.73675.83569a72.83546,72.83546,0,0,0,19.36286,4.245c3.413.23907,6.83465.35327,10.2868.52569-1.90851.81409-4.17438-.41992-5.941,1.17322a15.13918,15.13918,0,0,0,4.48071.449,53.77855,53.77855,0,0,0,6.17286-.80414,104.35721,104.35721,0,0,0,24.2738-7.22657,26.36412,26.36412,0,0,0,8.14294-5.4121c4.34809-4.46027,4.28-9.9787-.36828-14.12677a40.13166,40.13166,0,0,0-13.10163-7.82056,21.37831,21.37831,0,0,0-2.36547-.57611l-.21076.61975c1.41425.66034,2.8078,1.37,4.24658,1.9718A27.64428,27.64428,0,0,1,239.29077,322.64258Zm-31.79181,23.845h-1.343l.00116-.12726h1.34308Z"/>
    <path class="b" d="M193.03955,390.03369c-.18066.00141-.36017.16248-.54.27942l.03009.00122-.00024.00012c-.02588.01416-.05084.03107-.07648.046q5.08044,0,10.16083-.00012l-.10346-.04773.0019.0008-.0019-.00086.02539-.003c-.17767-.11725-.3551-.27637-.53356-.27759Q197.52093,390.00068,193.03955,390.03369Z"/>
    <path class="b" d="M195.76,21.87256Q104.70551,170.87116,13.61279,319.8465a3.81022,3.81022,0,0,0-.0061,4.68615q21.3586,34.734,42.56372,69.56238,69.78991,114.20389,139.58331,228.4057c.48658.79615,1.00244,1.5744,1.68665,2.64612L382.56586,322.19263Q289.99579,170.70453,197.441,19.24139C196.76276,20.30121,196.246,21.07745,195.76,21.87256Zm20.44232,475.795a20.97152,20.97152,0,0,1-4.766,1.52027,78.532,78.532,0,0,1-27.62811.014,21.46667,21.46667,0,0,1-4.98676-1.60315c-1.85419-.83416-2.21466-1.64721-1.64557-3.64764,1.287-4.52368,2.68561-9.01617,4.07941-13.50879.797-2.56909,1.67371-5.11346,2.49353-7.60516,4.72119.84308,9.24963,2.27972,13.77948,2.28424,4.53625.00451,9.074-1.42121,13.71051-2.23755.01.00757.21008.078.248.19916,2.167,6.92456,4.35711,13.8424,6.45324,20.78851C218.56256,495.93439,218.15448,496.80292,216.20233,497.6676ZM190.058,464.48773a32.79575,32.79575,0,0,0,14.95075-.01587,15.15187,15.15187,0,0,1,1.8753-.38434c1.782-.183,2.43055.59723,3.32648,3.90394.55432,2.04583.41943,2.52868-1.28369,3.23883a31.33871,31.33871,0,0,1-11.442,2.2478,31.9241,31.9241,0,0,1-10.997-2.08441c-2.12494-.83307-2.275-1.22827-1.66266-3.44751.04254-.15393.071-.31189.11761-.46442C186.01593,463.96649,186.493,463.67487,190.058,464.48773Zm-3.10559-5.74542a12.70946,12.70946,0,0,1,.53449-1.58551c.60309-1.44568,1.0047-1.69946,2.56415-1.4953,1.10418.14441,2.19885.37183,3.291.59509a25.80822,25.80822,0,0,0,10.21582-.29638c.62494-.12189,1.24628-.27961,1.87714-.34949a1.67537,1.67537,0,0,1,1.90893,1.09308c.08985.22192.19257.43853.2807.66107,1.23005,3.10547.9184,3.91235-2.3366,4.76031-2.5307.65918-5.14264,1.00635-7.71851,1.49219a34.14175,34.14175,0,0,1-9.17377-1.949C186.67554,461.02081,186.47406,460.51819,186.95245,458.74231Zm21.8993-327.7273c6.64416,14.38636,9.76519,29.6905,11.94885,45.23322a290.88623,290.88623,0,0,1,2.21,51.47345,305.89853,305.89853,0,0,1-6.33844,49.66205c-1.5481,7.59265-3.27374,15.14911-4.90961,22.72394-.13257.61395-.19287,1.24353-.33154,2.16241,2.30151.25031,4.47266.48645,6.71362.73023a6.303,6.303,0,0,0,.4914-.87714c4.48895-12.65149,9.048-25.283,12.03161-38.40436a166.5266,166.5266,0,0,0,3.94941-49.556A201.6915,201.6915,0,0,0,220.674,155.12329c-1.28766-3.27087-2.51239-6.56671-3.7428-9.85974-.21173-.56665-.30554-1.17737-.60241-2.35944a39.45382,39.45382,0,0,1,4.32293,2.35553c1.74085,1.2663,3.32154,2.75147,4.986,4.12445,1.84729,1.52387,3.7116,3.0271,5.57006,4.53736a5.5834,5.5834,0,0,1,.74982.59033c4.12854,4.77978,8.423,9.42944,12.33136,14.38348a85.65786,85.65786,0,0,1,17.51825,38.70465,88.81866,88.81866,0,0,1,.42981,27.95173c-2.48688,17.57635-8.55792,34.053-15.77741,50.13861-2.78027,6.19458-5.94976,12.21435-8.93731,18.3161-.37329.76251-.7182,1.53888-1.18305,2.53839,1.54346.45276,2.81379.82532,3.975,1.166.28216-.20587.44977-.27227.53155-.39563,8.29053-12.49951,15.71772-25.4386,20.09839-39.90326a87.82984,87.82984,0,0,0,3.60419-20.257c.42541-7.103.65656-14.2176.97614-21.327.01373-.30524.06158-.60889.09436-.92127.2221,0,.46746-.05841.50842.00843,1.45349,2.3717,3.32123,4.60009,4.2395,7.16742,2.28442,6.38672,4.33191,12.87506,6.11328,19.42089a52.377,52.377,0,0,1-.04809,28.65876,16.64732,16.64732,0,0,0-.82929,3.49225c-.17828,2.98089-1.612,5.45727-2.82263,8.06482a87.57743,87.57743,0,0,1-14.05841,21.081c-.262.29663-.49017.62311-.84992,1.084.55091.38941,1.02167.7818,1.545,1.08271,4.93756,2.83911,8.85418,6.58093,10.62475,12.1629.3393,1.06952,1.10712,1.19073,1.96552,1.43726A33.80186,33.80186,0,0,1,289.33459,340.017a28.68659,28.68659,0,0,1,6.87482,18.62286c.52881.14691,1.031.28638,1.59546.44318a2.29414,2.29414,0,0,1,.0448.65808,145.748,145.748,0,0,0-3.64941,30.66016,88.76465,88.76465,0,0,0,9.87756,40.85962c.32245.64306.66492,1.27618.98,1.92272a2.776,2.776,0,0,1,.09686.63965c-.93676.72193-1.92315,1.52259-2.95092,2.266-2.3974,1.7342-4.81427,3.44129-7.22419,5.15815-.39025.278-.777.77252-1.17919.78729-2.20484.08063-3.252,1.80664-4.61139,3.08862-.91828.866-1.67713,1.86029-3.15363,1.97083-.54175.04059-1.16974.80237-1.50549,1.38171a12.187,12.187,0,0,1-4.97412,4.69171,7.15389,7.15389,0,0,0-1.94294,1.98389c-.99292,1.257-1.85711,2.67017-3.95037,1.85059-.32209,2.10217-1.80811,3.09765-3.26178,4.27349-2.45551,1.98633-4.66785,4.27356-6.97956,6.43738-.40814.382-.77545.81183-1.207,1.16413q-10.59512,8.64981-21.2063,17.28c-.35864.29175-.76458.52539-1.362.931.89679-4.47509.324-8.62487-.37359-12.801-.62927-3.76709-1.52252-7.54389-.735-11.41944.76221-3.75091,1.42133-7.52429,2.264-11.25653a12.49713,12.49713,0,0,1,1.58246-3.96624,43.52124,43.52124,0,0,1,5.20227-7.16285c6.4303-6.51831,9.3277-14.54089,10.75238-23.32672.45911-2.83142,1.15881-5.63183,1.89362-8.408a14.3784,14.3784,0,0,1,3.37866-6.28271,17.34082,17.34082,0,0,0,3.82843-7.35694c.87848-2.98492,1.81494-5.96441,2.95752-8.85479a9.4661,9.4661,0,0,1,2.49756-3.73364c5.28-4.394,6.92724-10.54944,8.48034-16.77619a24.48574,24.48574,0,0,0,.45606-3.07892,10.73823,10.73823,0,0,0-.06519-1.47589c-4.11688.63562-8.09418,1.24964-12.121,1.87134-1.56561,5.90234-5.92786,9.36072-10.71326,12.156a16.75008,16.75008,0,0,0-7.32147,7.81762,13.7172,13.7172,0,0,1-2.37585,3.58386,47.08436,47.08436,0,0,0-8.3761,13.62354c-1.18817,2.7948-2.38831,5.58453-3.56269,8.38513a21.97084,21.97084,0,0,1-6.89038,9.05329c-2.33441,1.813-4.55792,3.77673-6.74762,5.76495a21.98728,21.98728,0,0,0-3.22973,3.53332A7.98379,7.98379,0,0,1,216.056,430.138c-2.42462.73169-4.86676,1.4054-7.566,2.17993a312.1355,312.1355,0,0,1,1.17932-43.16748,4.20219,4.20219,0,0,0-3.98034.58179c-.75788.57739-2.07892.41559-3.15339.57733.02118.01392.04236.02893.06354.04126,2.91919,1.24878,2.8064,1.28668,2.75873,4.86169-.17682,13.26-.30182,26.52381.889,39.7519.47235,5.24688,1.10827,10.479,1.66852,15.718.21081,1.97132.12121,2.24042-1.765,2.70508a35.5669,35.5669,0,0,1-17.30353-.00854c-1.87213-.465-2.01953-.76435-1.73547-2.71356,2.53137-17.36933,2.75836-34.855,2.66113-52.35682-.00842-1.51648-.10876-3.03308-.19049-4.54834-.118-2.18835-.00885-2.34509,2.11853-3.00085a3.787,3.787,0,0,0,.75226-.39893h-.02673l.05169-.02307-.05175.02307c.02447-.01361.049-.03143.07342-.04736-1.38055-.0885-2.7514.18384-3.94665-1.11267-.527-.57159-1.92694-.3385-3.30841-.52057a313.01864,313.01864,0,0,1,1.1289,45.42889c-5.03283-.05047-9.5246,1.58851-14.3147,2.82331-.30322-.56317-.6698-1.1546-.95306-1.78357a176.10052,176.10052,0,0,0-11.724-21.17316,95.24383,95.24383,0,0,1-4.75336-8.84894c-1.2622-2.58148-2.25006-5.29565-3.4447-7.912a48.40478,48.40478,0,0,0-7.11511-11.0506,46.99729,46.99729,0,0,1-4.4505-7.08338,5.3382,5.3382,0,0,0-2.677-2.57965,20.00746,20.00746,0,0,1-2.34137-1.209c-4.65167-2.61139-8.11389-6.2013-9.46655-11.86926-1.54175-.24817-3.16211-.509-5.02564-.809a5.49831,5.49831,0,0,0,.02521,1.71307,35.079,35.079,0,0,0,2.6936,6.347,84.4917,84.4917,0,0,1,5.067,8.93323c1.86065,3.87744,4.34448,7.45172,6.47784,11.20319a113.91985,113.91985,0,0,1,11.14984,26.17657,39.35544,39.35544,0,0,1,1.40546,10.1839,30.03937,30.03937,0,0,0,1.57312,9.89813,10.00366,10.00366,0,0,1,.646,3.5066,12.07909,12.07909,0,0,0,1.40734,5.74914c1.12171,2.29736,2.15754,4.63648,3.25354,6.9466a46.98292,46.98292,0,0,1,4.19471,14.43011c1.019,8.1402,3.91284,15.7959,6.41723,23.54572.43512,1.34637.90869,2.68029,1.5326,4.51379-1.0105-.74-1.63208-1.17316-2.23017-1.6366-9.9953-7.74469-19.58978-15.96515-28.90875-24.50549a9.414,9.414,0,0,1-2.476-3.42664,9.70605,9.70605,0,0,0-5.59894-5.81683c-1.2439-.52972-2.36212-1.34821-3.58954-1.92456a4.50555,4.50555,0,0,1-2.78351-3.0575c-.645-2.76428-2.47418-4.10919-5.17438-4.46289a5.47852,5.47852,0,0,1-4.0653-2.64032c-.3003-.46844-.73859-.848-1.04328-1.31421a15.42154,15.42154,0,0,0-9.30243-7.01318,3.62238,3.62238,0,0,1-1.29333-.60742c-2.41168-1.84906-4.80182-3.72614-7.19-5.60553-.55744-.43872-1.08008-.92163-1.67969-1.43652.36871-.78894.701-1.50641,1.03857-2.22138a89.624,89.624,0,0,0,8.8675-42.76452,155.797,155.797,0,0,0-3.27631-25.65516c-.1153-.54254-.18286-1.09521-.29828-1.79968.71314-.15228,1.36981-.29254,2.02618-.4328-.16461-17.01044,13.43561-28.73694,27.20423-31.19543,2.53772-5.76429,7.052-9.87519,12.47723-13.56446-.64642-.76861-1.22821-1.47393-1.82428-2.167A100.33,100.33,0,0,1,123.169,292.33258a55.901,55.901,0,0,1-5.61652-22.87811c-.565-11.97223,2.23462-23.32538,6.44006-34.39826a32.69284,32.69284,0,0,1,2.74793-5.309,24.4967,24.4967,0,0,1,2.679-3.01758c.13788,1.262.24988,1.9289.278,2.59931a195.147,195.147,0,0,0,2.11218,23.39361,117.6374,117.6374,0,0,0,12.45252,36.85016c3.01928,5.63275,6.37329,11.08625,9.58837,16.61353.31617.54352.721,1.03546,1.15229,1.64709,1.48175-.36895,2.92041-.72717,4.56372-1.13641-.53961-1.14313-.96887-2.07568-1.41736-2.9989-5.90289-12.15131-11.77246-24.31818-16.47833-37.00165a147.02432,147.02432,0,0,1-8.39386-31.925c-1.96918-14.946-.86438-29.51648,5.353-43.45868,1.33112-2.98511,2.42444-6.09143,3.94526-8.97412,7.30773-13.85156,18.3717-24.48163,30.02117-34.577,1.7284-1.49781,3.66962-2.74988,5.51239-4.11567l.47126.299c-.253,1.61138-.47791,3.22778-.76361,4.83337-1.75647,9.872-4.86023,19.35986-8.20429,28.78113a139.139,139.139,0,0,0-7.17309,28.048,190.91672,190.91672,0,0,0-1.42658,27.28693c.14935,15.35113,3.53864,30.123,8.09235,44.66314,2.50677,8.00415,5.30963,15.91559,7.98742,23.866.17493.51929.42218,1.01416.72382,1.72913,1.98279-.23627,3.93927-.46936,6.20563-.73944-.207-.94873-.32965-1.77637-.5694-2.56855-2.47662-8.18206-5.03839-16.33892-7.44366-24.54168a190.543,190.543,0,0,1-5.80616-24.71692,81.83272,81.83272,0,0,1-.47888-20.33856q1.09771-11.334,2.70508-22.61615c.53113-3.7016,1.64819-7.318,2.47662-10.97827a406.87756,406.87756,0,0,0,7.40161-42.24909c1.12543-9.55945,1.3852-19.1355-.26947-28.68774a44.70552,44.70552,0,0,0-7.08612-17.66931c-2.73767-4.03461-5.69049-7.92292-8.52734-11.89075q-2.8602-4.0004-5.655-8.04724a19.35225,19.35225,0,0,1-1.07-1.99762l.33692-.471c1.02978.24231,2.08844.40027,3.08459.74084a81.19834,81.19834,0,0,1,15.9292,7.722,58.1519,58.1519,0,0,1,18.27967,17.4013c2.67114,3.98255,5.06933,8.1493,7.77441,12.1073A49.14788,49.14788,0,0,1,208.85175,131.015Z"/>
    <path class="b" d="M194.98212,303.68719q2.04336-.35852,4.08673-.7171c-1.21106,1.22321-2.68256.64087-4.06647.7201l-.02026-.003.01257.002a12.29976,12.29976,0,0,0-2.10217-.22382c-1.508.08948-3.0094.29138-4.513.45154-1.74768.1861-3.50281.32324-5.2403.579a6.20942,6.20942,0,0,0-5.05255,3.1933,13.94584,13.94584,0,0,1-1.55737,1.81006,19.78791,19.78791,0,0,0-1.94965,2.71289c-1.65149,3.08026-.989,5.37274,2.14075,6.95636a21.1306,21.1306,0,0,0,4.74048,1.60614c5.1253,1.192,10.36975,1.91382,15.19958,4.20648a7.94114,7.94114,0,0,0,2.8086.52881c1.16967.08136,2.43414.27814,2.95013-1.32172.10419-.32312.75421-.57452,1.19318-.66766,2.181-.46283,4.36682-.91986,6.57019-1.25073a4.02538,4.02538,0,0,1,2.32824.28045,3.05028,3.05028,0,0,0,2.93268-.08294,9.03319,9.03319,0,0,0,3.50879-2.79419,13.92685,13.92685,0,0,1,3.12671-2.89093c1.64923-1.09821,1.7204-.99128,1.31744-3.211a7.786,7.786,0,0,0-5.55194.58313c-2.235,1.16388-4.46063,2.09076-6.99078,1.74139-.13507.66242-.22742,1.115-.23395,1.147-1.78058.43256-3.30475.80292-4.99017,1.21241-.06879-.58747-.14447-1.23444-.25446-2.17389-1.855.20929-3.55969.40167-5.2608.59363-.22638,1.17645-.39575,2.05658-.56378,2.92956-1.861-1.66974-1.82166-2.84723.22534-4.04761a10.04515,10.04515,0,0,1,5.99274-1.30963c.48651.038.97851.00556,1.468.00556-.25073-.52735-.56707-.76728-.89239-.78034-1.19763-.04779-2.399-.04815-3.59747-.01385a6.17613,6.17613,0,0,0-3.78077,1.0896c-.94128.68243-2.58087.506-3.91058.51178-.88824.00384-1.95154.01049-2.44244-1.17017.43786-.54211.86566-1.07172,1.14843-1.42187-.9248-.92957-1.70477-1.75727-2.53509-2.53083a10.38286,10.38286,0,0,0-1.51923-1.14026c-.5852-.37164-1.21356-.67541-2.1485-1.18658.91028-.52033,1.47889-.91754,2.10218-1.18909a19.41449,19.41449,0,0,1,8.62811-1.68292c3.0343.12518,6.062.41425,9.0965.5307,2.29364.08807,4.59338.01746,7.07263.01746-.33832-.23529-.5069-.43537-.71045-.48151-2.79181-.63263-5.61548-1.14392-8.37616-1.88946a30.101,30.101,0,0,0-8.05365-.98694A2.04393,2.04393,0,0,0,194.98212,303.68719Zm15.02343,15.457c-1.9422,2.34381-5.26635,2.743-8.9071,1.12506C204.37128,320.69147,207.10529,320.77155,210.00555,319.14417Z"/>
    <path d="M392.87872,319.601Q295.87165,161.01376,198.96545,2.36475C198.51727,1.63135,198.025.925,197.41809,0c-.55994.82428-1.02423,1.4494-1.42859,2.11108q-89.12136,145.83647-178.23413,291.678Q9.75063,306.88922,1.7265,319.97736c-.4176.67822-.54687,1.76269-1.7265,1.72357v.96a4.93516,4.93516,0,0,1,1.2204.92645c.77221,1.116,1.43933,2.30463,2.14807,3.46448q96.24838,157.506,192.49963,315.01044c.44635.73022.93524,1.43445,1.53925,2.357.577-.887,1.01874-1.53082,1.42535-2.19623Q295.83584,483.4917,392.87683,324.78369A4.25016,4.25016,0,0,0,392.87872,319.601ZM197.44037,625.14685c-.68421-1.07172-1.20007-1.85-1.68665-2.64612Q125.95979,508.29913,56.17041,394.095,34.9083,359.30171,13.60669,324.53265a3.81022,3.81022,0,0,1,.0061-4.68615Q104.73578,170.88974,195.76,21.87256c.486-.79511,1.00275-1.57135,1.681-2.63117Q290.1471,170.95216,382.56586,322.19263Z"/>
    <path d="M179.04968,94.10309a81.19834,81.19834,0,0,0-15.9292-7.722c-.99615-.34057-2.05481-.49853-3.08459-.74084l-.33692.471a19.35225,19.35225,0,0,0,1.07,1.99762q2.79337,4.04727,5.655,8.04724c2.83685,3.96783,5.78967,7.85614,8.52734,11.89075a44.70552,44.70552,0,0,1,7.08612,17.66931c1.65467,9.55224,1.3949,19.12829.26947,28.68774a406.87756,406.87756,0,0,1-7.40161,42.24909c-.82843,3.66027-1.94549,7.27667-2.47662,10.97827q-1.61709,11.271-2.70508,22.61615a81.83272,81.83272,0,0,0,.47888,20.33856,190.543,190.543,0,0,0,5.80616,24.71692c2.40527,8.20276,4.967,16.35962,7.44366,24.54168.23975.79218.36237,1.61982.5694,2.56855-2.26636.27008-4.22284.50317-6.20563.73944-.30164-.715-.54889-1.20984-.72382-1.72913-2.67779-7.95044-5.48065-15.86188-7.98742-23.866-4.55371-14.54016-7.943-29.312-8.09235-44.66314a190.91672,190.91672,0,0,1,1.42658-27.28693,139.139,139.139,0,0,1,7.17309-28.048c3.34406-9.42127,6.44782-18.90912,8.20429-28.78113.2857-1.60559.51062-3.222.76361-4.83337l-.47126-.299c-1.84277,1.36579-3.784,2.61786-5.51239,4.11567-11.64947,10.09533-22.71344,20.7254-30.02117,34.577-1.52082,2.88269-2.61414,5.989-3.94526,8.97412-6.21734,13.9422-7.32214,28.51264-5.353,43.45868a147.02432,147.02432,0,0,0,8.39386,31.92505c4.70587,12.68347,10.57544,24.85034,16.47833,37.00165.44849.92322.87775,1.85577,1.41736,2.9989-1.64331.40924-3.082.76746-4.56372,1.13641-.43128-.61163-.83612-1.10357-1.15229-1.64709-3.21508-5.52728-6.56909-10.98078-9.58837-16.61353a117.6374,117.6374,0,0,1-12.45252-36.85016,195.147,195.147,0,0,1-2.11218-23.39361c-.02808-.67041-.14008-1.33734-.278-2.59931a24.4967,24.4967,0,0,0-2.679,3.01758,32.69284,32.69284,0,0,0-2.74793,5.309c-4.20544,11.07288-7.00506,22.426-6.44006,34.39826a55.901,55.901,0,0,0,5.61652,22.87811,100.33,100.33,0,0,0,13.66131,20.17987c.59607.69306,1.17786,1.39838,1.82428,2.167-5.42523,3.68927-9.93951,7.80017-12.47723,13.56446-13.76862,2.45849-27.36884,14.185-27.20423,31.19543-.65637.14026-1.313.28052-2.02618.4328.11542.70447.183,1.25714.29828,1.79968a155.797,155.797,0,0,1,3.27631,25.65516,89.624,89.624,0,0,1-8.8675,42.76452c-.33752.715-.66986,1.43244-1.03857,2.22138.59961.51489,1.12225.9978,1.67969,1.43652,2.38818,1.87939,4.77832,3.75647,7.19,5.60553a3.62238,3.62238,0,0,0,1.29333.60742,15.42154,15.42154,0,0,1,9.30243,7.01318c.30469.46625.743.84577,1.04328,1.31421a5.47852,5.47852,0,0,0,4.0653,2.64032c2.7002.3537,4.52942,1.69861,5.17438,4.46289a4.50555,4.50555,0,0,0,2.78351,3.0575c1.22742.57635,2.34564,1.39484,3.58954,1.92456a9.70605,9.70605,0,0,1,5.59894,5.81683,9.414,9.414,0,0,0,2.476,3.42664c9.319,8.54034,18.91345,16.7608,28.90875,24.50549.59809.46344,1.21967.89655,2.23017,1.6366-.62391-1.8335-1.09748-3.16742-1.5326-4.51379-2.50439-7.74982-5.39825-15.40552-6.41723-23.54572a46.98292,46.98292,0,0,0-4.19471-14.43011c-1.096-2.31012-2.13183-4.64924-3.25354-6.9466a12.07909,12.07909,0,0,1-1.40734-5.74914,10.00366,10.00366,0,0,0-.646-3.5066,30.03937,30.03937,0,0,1-1.57312-9.89813,39.35544,39.35544,0,0,0-1.40546-10.1839A113.91985,113.91985,0,0,0,134.371,390.81c-2.13336-3.75147-4.61719-7.32575-6.47784-11.20319a84.4917,84.4917,0,0,0-5.067-8.93323,35.079,35.079,0,0,1-2.6936-6.347,5.49831,5.49831,0,0,1-.02521-1.71307c1.86353.3,3.48389.56079,5.02564.809,1.35266,5.668,4.81488,9.25787,9.46655,11.86926a20.00746,20.00746,0,0,0,2.34137,1.209,5.3382,5.3382,0,0,1,2.677,2.57965,46.99729,46.99729,0,0,0,4.4505,7.08338,48.40478,48.40478,0,0,1,7.11511,11.0506c1.19464,2.61633,2.1825,5.3305,3.4447,7.912a95.24383,95.24383,0,0,0,4.75336,8.84894,176.10052,176.10052,0,0,1,11.724,21.17316c.28326.629.64984,1.2204.95306,1.78357,4.7901-1.2348,9.28187-2.87378,14.3147-2.82331a313.01864,313.01864,0,0,0-1.1289-45.42889c1.38147.18207,2.78143-.051,3.30841.52057,1.19525,1.29651,2.5661,1.02417,3.94665,1.11267.17987-.11694.35938-.278.54-.27942q4.48115-.03287,8.96253-.00171c.17846.00122.35589.16034.53356.27759,1.07447-.16174,2.39551.00006,3.15339-.57733a4.20219,4.20219,0,0,1,3.98034-.58179,312.1355,312.1355,0,0,0-1.17932,43.16748c2.69922-.77453,5.14136-1.44824,7.566-2.17993a7.98379,7.98379,0,0,0,4.37128-3.16077,21.98728,21.98728,0,0,1,3.22973-3.53332c2.1897-1.98822,4.41321-3.952,6.74762-5.76495a21.97084,21.97084,0,0,0,6.89038-9.05329c1.17438-2.8006,2.37452-5.59033,3.56269-8.38513a47.08436,47.08436,0,0,1,8.3761-13.62354,13.7172,13.7172,0,0,0,2.37585-3.58386,16.75008,16.75008,0,0,1,7.32147-7.81762c4.7854-2.79529,9.14765-6.25367,10.71326-12.156,4.02685-.6217,8.00415-1.23572,12.121-1.87134a10.73823,10.73823,0,0,1,.06519,1.47589,24.48574,24.48574,0,0,1-.45606,3.07892c-1.5531,6.22675-3.20038,12.3822-8.48034,16.77619a9.4661,9.4661,0,0,0-2.49756,3.73364c-1.14258,2.89038-2.079,5.86987-2.95752,8.85479a17.34082,17.34082,0,0,1-3.82843,7.35694,14.3784,14.3784,0,0,0-3.37866,6.28271c-.73481,2.77619-1.43451,5.5766-1.89362,8.408-1.42468,8.78583-4.32208,16.80841-10.75238,23.32672a43.52124,43.52124,0,0,0-5.20227,7.16285,12.49713,12.49713,0,0,0-1.58246,3.96624c-.84271,3.73224-1.50183,7.50562-2.264,11.25653-.78753,3.87555.10572,7.65235.735,11.41944.69757,4.17615,1.27038,8.32593.37359,12.801.59742-.40564,1.00336-.63928,1.362-.931q10.61006-8.63149,21.2063-17.28c.43152-.3523.79883-.78211,1.207-1.16413,2.31171-2.16382,4.52405-4.451,6.97956-6.43738,1.45367-1.17584,2.93969-2.17132,3.26178-4.27349,2.09326.81958,2.95745-.59363,3.95037-1.85059a7.15389,7.15389,0,0,1,1.94294-1.98389,12.187,12.187,0,0,0,4.97412-4.69171c.33575-.57934.96374-1.34112,1.50549-1.38171,1.4765-.11054,2.23535-1.10486,3.15363-1.97083,1.35937-1.282,2.40655-3.008,4.61139-3.08862.40222-.01477.78894-.50928,1.17919-.78729,2.40992-1.71686,4.82679-3.42395,7.22419-5.15815,1.02777-.7434,2.01416-1.54406,2.95092-2.266a2.776,2.776,0,0,0-.09686-.63965c-.31512-.64654-.65759-1.27966-.98-1.92272a88.76465,88.76465,0,0,1-9.87756-40.85962,145.748,145.748,0,0,1,3.64941-30.66016,2.29414,2.29414,0,0,0-.0448-.65808c-.56451-.1568-1.06665-.29627-1.59546-.44318a28.68659,28.68659,0,0,0-6.87482-18.62286A33.80186,33.80186,0,0,0,272.007,328.567c-.8584-.24653-1.62622-.36774-1.96552-1.43726-1.77057-5.582-5.68719-9.32379-10.62475-12.1629-.52332-.30091-.99408-.6933-1.545-1.08271.35975-.46093.588-.78741.84992-1.084a87.57743,87.57743,0,0,0,14.05841-21.081c1.21063-2.60755,2.64435-5.08393,2.82263-8.06482a16.64732,16.64732,0,0,1,.82929-3.49225,52.377,52.377,0,0,0,.04809-28.65876c-1.78137-6.54583-3.82886-13.03417-6.11328-19.42089-.91827-2.56733-2.786-4.79572-4.2395-7.16742-.041-.06684-.28632-.00843-.50842-.00843-.03278.31238-.08063.616-.09436.92127-.31958,7.10943-.55073,14.224-.97614,21.327a87.82984,87.82984,0,0,1-3.60419,20.257c-4.38067,14.46466-11.80786,27.40375-20.09839,39.90326-.08178.12336-.24939.18976-.53155.39563-1.16119-.34063-2.43152-.71319-3.975-1.166.46485-.99951.80976-1.77588,1.18305-2.53839,2.98755-6.10175,6.157-12.12152,8.93731-18.3161,7.21949-16.08564,13.29053-32.56226,15.77741-50.13861a88.81866,88.81866,0,0,0-.42981-27.95173,85.65786,85.65786,0,0,0-17.51825-38.70465c-3.90839-4.954-8.20282-9.6037-12.33136-14.38348a5.5834,5.5834,0,0,0-.74982-.59033c-1.85846-1.51026-3.72277-3.01349-5.57006-4.53736-1.66449-1.373-3.24518-2.85815-4.986-4.12445a39.45382,39.45382,0,0,0-4.32293-2.35553c.29687,1.18207.39068,1.79279.60241,2.35944,1.23041,3.293,2.45514,6.58887,3.7428,9.85974a201.6915,201.6915,0,0,1,13.94312,59.03955,166.5266,166.5266,0,0,1-3.94941,49.556c-2.98358,13.12134-7.54266,25.75287-12.03161,38.40436a6.303,6.303,0,0,1-.4914.87714c-2.241-.24378-4.41211-.47992-6.71362-.73023.13867-.91888.199-1.54846.33154-2.16241,1.63587-7.57483,3.36151-15.13129,4.90961-22.72394a305.89853,305.89853,0,0,0,6.33844-49.66205,290.88623,290.88623,0,0,0-2.21-51.47345c-2.18366-15.54272-5.30469-30.84686-11.94885-45.23322a49.14788,49.14788,0,0,0-3.748-7.40332c-2.70508-3.958-5.10327-8.12475-7.77441-12.1073A58.1519,58.1519,0,0,0,179.04968,94.10309Zm37.73163,292.9422a81.43465,81.43465,0,0,1-22.87225,1.826,181.71336,181.71336,0,0,1-34.78552-5.19477,107.18885,107.18885,0,0,1-22.41529-8.3175,35.25614,35.25614,0,0,1-5.51892-3.78565,14.7944,14.7944,0,0,1-1.96081-2.30981c2.28118-1.12994,3.59729-.09937,4.7724.94427a34.72508,34.72508,0,0,0,11.37634,6.53174c5.46948,1.98621,11.01605,3.83026,16.64368,5.29767a151.36048,151.36048,0,0,0,44.45983,4.38129c2.7118-.10791,5.41138-.49927,8.12012-.71533,1.56763-.12507,3.14227-.16144,5.06812-.25489A3.84609,3.84609,0,0,1,216.78131,387.04529Zm42.70917-69.61853a31.31813,31.31813,0,0,1,6.69922,6.82037c4.065,5.93744,4.00641,11.83093-.35974,17.5166a37.17925,37.17925,0,0,1-4.77405,5.03315c-7.10932,6.33612-15.50739,10.37139-24.47553,13.28045-3.18066,1.03174-6.477,1.70453-9.71325,2.56848-1.30939.34955-2.62287.70783-3.89362,1.17353a11.40178,11.40178,0,0,0-7.36676,7.93945c-.51019,1.76416-.95831,3.54663-1.41553,5.32568-1.1596,4.51221-4.15484,7.02143-8.61084,8.00061a43.678,43.678,0,0,1-13.616.39667,219.33212,219.33212,0,0,1-32.79407-5.65375,77.53329,77.53329,0,0,1-17.56372-6.25152,52.6937,52.6937,0,0,1-8.22345-5.32166,15.38494,15.38494,0,0,1-5.96979-14.39093c.33246-3.16577.489-6.35.75061-9.87158,3.48535,1.32019,5.38422,4.55066,8.73395,5.63184-1.79553-1.59723-3.506-3.30457-5.40369-4.76947-4.40185-3.39808-6.81006-12.23688-3.24139-18.40674a29.13183,29.13183,0,0,1,11.30884-10.79505,82.326,82.326,0,0,1,21.67266-8.17114c4.58338-1.08575,9.206-2.008,13.81958-2.96185a22.5269,22.5269,0,0,1,2.74006-.21851c-.35871,1.59485-1.55072,1.79395-2.54187,2.129-2.94855.9967-5.92554,1.90887-8.88624,2.87018-4.8587,1.57757-9.78173,2.98993-14.54425,4.81915a36.3364,36.3364,0,0,0-8.20709,4.38947c-5.94324,4.29992-8.482,10.21618-7.29358,17.56524a13.679,13.679,0,0,0,5.68158,8.85944,55.88658,55.88658,0,0,0,11.78931,6.34857c-.77564-.52045-1.53955-1.05951-2.33057-1.55536-.64032-.40137-1.31317-.75085-2.44714-1.39233a33.445,33.445,0,0,1,6.11548-3.04267c.47662-.17987,1.23187.17969,1.78882.44092a91.72468,91.72468,0,0,0,30.62719,8.076,111.82488,111.82488,0,0,0,16.25318.75378,99.82964,99.82964,0,0,0,34.99731-8.21051c1.90094-.83123,3.81183-1.64007,5.72589-2.44067,2.52948-1.058,4.0531-.63324,6.23975,1.90857-1.7121,1.135-3.39844,2.26422-5.09747,3.37408-.79206.51746-1.60877.9972-2.41425,1.494a27.1434,27.1434,0,0,0,12.32233-8.78607c5.03357-6.20056,3.16571-15.00867-1.17017-19.0332a68.87977,68.87977,0,0,0-10.08032-7.70716c-.64423-.40789-1.2724-.84112-2.33917-1.54864C248.57544,313.13306,254.4314,313.45276,259.49048,317.42676Zm-22.69538-1.51a44.53167,44.53167,0,0,1,5.25647.0509,7.85146,7.85146,0,0,1,3.78907,1.25079,43.25541,43.25541,0,0,1,6.1087,5.70374,9.08912,9.08912,0,0,1,1.69318,8.81854,16.12092,16.12092,0,0,1-5.30207,8.07691,43.95281,43.95281,0,0,1-12.45636,7.01367,92.968,92.968,0,0,1-24.96435,6.42773,67.16388,67.16388,0,0,1-9.09845.372c-6.62531-.25366-13.29035-.359-19.85126-1.20581a83.32651,83.32651,0,0,1-32.11114-11.2409,15.22421,15.22421,0,0,1-7.34662-9.36237,10.78021,10.78021,0,0,1,2.162-9.70752c2.63287-3.40069,6.37463-5.245,10.33056-6.6748a3.6378,3.6378,0,0,1,1.18512-.14454,4.82923,4.82923,0,0,1,1.01587.30378,22.99082,22.99082,0,0,1-1.39422,2.67877c-1.05018,1.50708-2.28528,2.88647-3.31727,4.40472-3.44622,5.07038-3.034,9.49506,1.4408,13.72028a32.70031,32.70031,0,0,0,5.56177,4.13849,74.60685,74.60685,0,0,0,30.50641,9.94421,79.7034,79.7034,0,0,0,33.63775-3.16113c5.97724-1.90643,11.81848-4.29517,16.73108-8.56738,4.78992-4.16547,5.40271-9.09211,3.74274-15.26606-.27509-1.02307-1.37677-1.90063-2.25116-2.66943-1.71436-1.5072-3.53766-2.89056-5.31586-4.32513Zm-11.9168-3.421a21.37831,21.37831,0,0,1,2.36547.57611,40.13166,40.13166,0,0,1,13.10163,7.82056c4.64831,4.14807,4.71637,9.6665.36828,14.12677a26.36412,26.36412,0,0,1-8.14294,5.4121,104.35721,104.35721,0,0,1-24.2738,7.22657,53.77855,53.77855,0,0,1-6.17286.80414,15.13918,15.13918,0,0,1-4.48071-.449c1.76666-1.59314,4.03253-.35913,5.941-1.17322-3.45215-.17242-6.87384-.28662-10.2868-.52569a72.83546,72.83546,0,0,1-19.36286-4.245c-.89776-.31933-1.82379-.55908-2.73675-.83569q2.90725,1.46337,5.80884,2.92377a1.50079,1.50079,0,0,1-.47937.17535c-1.81568.10748-3.22052-1.28522-5.18384-1.17981-1.62055.087-3.32727-.93683-4.95307-1.577a45.85121,45.85121,0,0,1-5.026-2.241,17.93914,17.93914,0,0,1-5.96924-5.4513,11.10227,11.10227,0,0,1-1.20849-11.56933,8.691,8.691,0,0,1,2.53723-3.38855,56.82577,56.82577,0,0,1,16.83966-8.43341,4.97536,4.97536,0,0,1,.93213-.11261,1.79,1.79,0,0,1-1.32733,1.84625c-3.794,1.68024-7.5351,3.4798-11.33093,5.15552a6.45407,6.45407,0,0,0-3.55585,3.38586,35.60363,35.60363,0,0,0-2.07312,6.09155,7.53121,7.53121,0,0,0,1.71435,6.50971,14.907,14.907,0,0,0,2.55866,2.50836,34.66871,34.66871,0,0,0,10.80139,5.44269c-2.25-1.18915-4.50439-2.34967-6.73157-3.5603a17.34127,17.34127,0,0,1-5.99933-5.064,7.65627,7.65627,0,0,1-1.72479-4.63654,3.40721,3.40721,0,0,1,2.57715-3.58612,7.09513,7.09513,0,0,1,4.70691.0832,3.5667,3.5667,0,0,1,2.3703,2.8095c.66785,3.12623,2.75977,4.93366,5.43231,6.28809a56.41773,56.41773,0,0,0,25.56488,6.3974,66.12551,66.12551,0,0,0,21.74018-3.05273,40.26145,40.26145,0,0,0,6.11608-2.71424,11.61176,11.61176,0,0,0,6.08942-7.0777,3.7311,3.7311,0,0,1,.37409-.88171c.71563-1.19763,1.11682-2.76562,2.95971-2.71808a4.61267,4.61267,0,0,1,4.29035,3.28284,7.86589,7.86589,0,0,1-1.90021,8.00049,31.4276,31.4276,0,0,1-4.14533,3.22461,21.4738,21.4738,0,0,0-2.19073,1.58807c3.962-1.63769,7.40924-3.9566,9.63019-7.74652,1.78241-3.04163,1.43371-6.31213-1.15186-9.31317a27.64428,27.64428,0,0,0-10.37665-7.5553c-1.43878-.60181-2.83233-1.31146-4.24658-1.9718Zm-46.15918,19.98236c4.00531,1.06415,7.94342,2.46216,12.00244,3.22778a49.04428,49.04428,0,0,0,33.59594-5.17395,6.47709,6.47709,0,0,0,2.0188-1.63794,2.31366,2.31366,0,0,1,2.94062-.85333c.28912,1.1311-.49366,1.6955-1.16535,2.16467a27.81163,27.81163,0,0,1-3.88012,2.35034,58.333,58.333,0,0,1-21.88025,5.58142c-5.60218.33509-11.16938.44666-16.64649-1.03338a49.6819,49.6819,0,0,1-11.75891-5.0058l.17261-.63263C175.653,331.79913,177.20288,332.0752,178.71912,332.47809Zm-1.51673-3.11243a21.01534,21.01534,0,0,1,6.83954-2.83233,3.55907,3.55907,0,0,1,1.84277.31445,39.26548,39.26548,0,0,0,23.34388.72418c1.53851-.42322,3.12329-.69971,4.63141-1.208a12.9987,12.9987,0,0,1,11.163,1.33246c-.442,1.2301-1.5719,1.69806-2.5896,2.202a41.29594,41.29594,0,0,1-12.6803,4.16919c-6.59472.90857-13.23675,1.38238-19.80469.12066a78.40867,78.40867,0,0,1-10.24591-3.20721A13.717,13.717,0,0,1,177.20239,329.36566Zm28.169-26.45025c2.76068.74554,5.58435,1.25683,8.37616,1.88946.20355.04614.37213.24622.71045.48151-2.47925,0-4.779.07061-7.07263-.01746-3.03449-.11645-6.0622-.40552-9.0965-.5307a19.41449,19.41449,0,0,0-8.62811,1.68292c-.62329.27155-1.1919.66876-2.10218,1.18909.93494.51117,1.5633.81494,2.1485,1.18658a10.38286,10.38286,0,0,1,1.51923,1.14026c.83032.77356,1.61029,1.60126,2.53509,2.53083-.28277.35015-.71057.87976-1.14843,1.42187.4909,1.18066,1.5542,1.174,2.44244,1.17017,1.32971-.00574,2.9693.17065,3.91058-.51178a6.17613,6.17613,0,0,1,3.78077-1.0896c1.19848-.0343,2.39984-.03394,3.59747.01385.32532.01306.64166.253.89239.78034-.4895,0-.9815.03247-1.468-.00556a10.04515,10.04515,0,0,0-5.99274,1.30963c-2.047,1.20038-2.08637,2.37787-.22534,4.04761.168-.873.3374-1.75311.56378-2.92956,1.70111-.192,3.40576-.38434,5.2608-.59363.11.93945.18567,1.58642.25446,2.17389,1.68542-.40949,3.20959-.77985,4.99017-1.21241.00653-.03192.09888-.48455.23395-1.147,2.53015.34937,4.7558-.57751,6.99078-1.74139a7.786,7.786,0,0,1,5.55194-.58313c.403,2.21972.33179,2.11279-1.31744,3.211a13.92685,13.92685,0,0,0-3.12671,2.89093,9.03319,9.03319,0,0,1-3.50879,2.79419,3.05028,3.05028,0,0,1-2.93268.08294,4.02538,4.02538,0,0,0-2.32824-.28045c-2.20337.33087-4.38923.7879-6.57019,1.25073-.439.09314-1.089.34454-1.19318.66766-.516,1.59986-1.78046,1.40308-2.95013,1.32172a7.94114,7.94114,0,0,1-2.8086-.52881c-4.82983-2.29266-10.07428-3.01447-15.19958-4.20648a21.1306,21.1306,0,0,1-4.74048-1.60614c-3.12976-1.58362-3.79224-3.8761-2.14075-6.95636a19.78791,19.78791,0,0,1,1.94965-2.71289,13.94584,13.94584,0,0,0,1.55737-1.81006,6.20942,6.20942,0,0,1,5.05255-3.1933c1.73749-.25574,3.49262-.39288,5.2403-.579,1.5036-.16016,3.005-.36206,4.513-.45154a12.29976,12.29976,0,0,1,2.10217.22382l-.01257-.002a2.04393,2.04393,0,0,1,2.33563-1.75872A30.101,30.101,0,0,1,205.3714,302.91541Z"/>
    <path d="M192.5296,390.31433l-.03009-.00122c-.02447.01593-.04895.03375-.07342.04736l.05175-.02307-.05169.02307h.02673c.02564-.01495.0506-.03186.07648-.046Z"/>
    <path d="M202.51215,390.31342l-.0019-.0008.10346.04773q-5.08035.00009-10.16083.00012a3.787,3.787,0,0,1-.75226.39893c-2.12738.65576-2.23657.8125-2.11853,3.00085.08173,1.51526.18207,3.03186.19049,4.54834.09723,17.50183-.12976,34.98749-2.66113,52.35682-.28406,1.94921-.13666,2.24859,1.73547,2.71356a35.5669,35.5669,0,0,0,17.30353.00854c1.88623-.46466,1.97583-.73376,1.765-2.70508-.56025-5.239-1.19617-10.47113-1.66852-15.718-1.19086-13.22809-1.06586-26.492-.889-39.7519.04767-3.575.16046-3.61291-2.75873-4.86169-.02118-.01233-.04236-.02734-.06354-.04126l-.02539.003Z"/>
    <path d="M211.48676,473.083c-.03791-.12116-.238-.19159-.248-.19916-4.63654.81634-9.17426,2.24206-13.71051,2.23755-4.52985-.00452-9.05829-1.44116-13.77948-2.28424-.81982,2.4917-1.69653,5.03607-2.49353,7.60516-1.3938,4.49262-2.79236,8.98511-4.07941,13.50879-.56909,2.00043-.20862,2.81348,1.64557,3.64764a21.46667,21.46667,0,0,0,4.98676,1.60315,78.532,78.532,0,0,0,27.62811-.014,20.97152,20.97152,0,0,0,4.766-1.52027c1.95215-.86468,2.36023-1.73321,1.73767-3.79614C215.84387,486.92535,213.65381,480.00751,211.48676,473.083Z"/>
    <path d="M184.94287,467.48175c-.04657.15253-.07507.31049-.11761.46442-.61237,2.21924-.46228,2.61444,1.66266,3.44751a31.9241,31.9241,0,0,0,10.997,2.08441,31.33871,31.33871,0,0,0,11.442-2.2478c1.70312-.71015,1.838-1.193,1.28369-3.23883-.89593-3.30671-1.54449-4.087-3.32648-3.90394a15.15187,15.15187,0,0,0-1.8753.38434,32.79575,32.79575,0,0,1-14.95075.01587C186.493,463.67487,186.01593,463.96649,184.94287,467.48175Z"/>
    <path d="M197.56958,463.61737c2.57587-.48584,5.18781-.833,7.71851-1.49219,3.255-.848,3.56665-1.65484,2.3366-4.76031-.08813-.22254-.19085-.43915-.2807-.66107a1.67537,1.67537,0,0,0-1.90893-1.09308c-.63086.06988-1.2522.2276-1.87714.34949a25.80822,25.80822,0,0,1-10.21582.29638c-1.09216-.22326-2.18683-.45068-3.291-.59509-1.55945-.20416-1.96106.04962-2.56415,1.4953a12.70946,12.70946,0,0,0-.53449,1.58551c-.47839,1.77588-.27691,2.2785,1.44336,2.92609A34.14175,34.14175,0,0,0,197.56958,463.61737Z"/>
    <path d="M209.99915,358.958a95.45476,95.45476,0,0,1-27.4574-.26441,135.1989,135.1989,0,0,1-20.02973-4.64563c-1.58581-.50189-3.243-.7785-4.86737-1.15863a109.362,109.362,0,0,0,37.78608,7.48969,101.98357,101.98357,0,0,0,24.46423-2.39221c3.398-.73353,6.72461-1.7978,10.08362-2.71174a8.22311,8.22311,0,0,0-1.4267.13953A140.05532,140.05532,0,0,1,209.99915,358.958Z"/>
    <path d="M155.95966,358.79193q-6.61754-2.91457-13.235-5.82922C146.86975,355.51959,151.10858,357.8609,155.95966,358.79193Z"/>
    <path d="M206.15594,346.48761h1.343l.00122-.12726H206.1571Z"/>
    <path d="M210.00555,319.14417c-2.90026,1.62738-5.63427,1.5473-8.9071,1.12506C204.7392,321.88715,208.06335,321.488,210.00555,319.14417Z"/>
    <path d="M199.06885,302.97009q-2.04337.35853-4.08673.7171l.02026.003C196.38629,303.611,197.85779,304.1933,199.06885,302.97009Z"/>
  </g>
</svg>
