<svg xmlns="http://www.w3.org/2000/svg" viewBox="0 0 24 24"><defs><style>.cls-1,.cls-2{fill:#fff;}.cls-2{fill-rule:evenodd;}</style></defs><title>icon-inst_1</title><g id="Слой_2" data-name="Слой 2"><g id="Слой_2-2" data-name="Слой 2"><circle class="cls-1" cx="12.55" cy="12.35" r="5"/><path class="cls-2" d="M1,0A1,1,0,0,0,0,1V23a1,1,0,0,0,1,1H23a1,1,0,0,0,1-1V1a1,1,0,0,0-1-1ZM12.55,20.05a7.7,7.7,0,1,1,7.7-7.7A7.71,7.71,0,0,1,12.55,20.05Zm8.29-14.2a1.79,1.79,0,1,1,1.78-1.78A1.79,1.79,0,0,1,20.84,5.85Z"/></g></g></svg>