<svg xmlns="http://www.w3.org/2000/svg" viewBox="0 0 136.7 153">
  <defs>
    <style>
      .a {
        fill: #f5ec00;
      }
    </style>
  </defs>
  <title>logo</title>
  <g>
    <path class="a" d="M114,153H0V0H114ZM15,138H99V15H15Z"/>
    <g>
      <path d="M30.1,36.1a11.5,11.5,0,0,0,.4,3.3,9.9,9.9,0,0,0,1.3,2.5,7,7,0,0,0,2,1.5,5.8,5.8,0,0,0,2.6.6,4.8,4.8,0,0,0,2.2-.5,4.2,4.2,0,0,0,1.7-1.1,6.6,6.6,0,0,0,1.2-1.7,6.4,6.4,0,0,0,.6-1.8h2.4a5.5,5.5,0,0,1-.3,1.7,13,13,0,0,1-.8,1.7l-1.1,1.5-1.6,1.3-1.9.8a8.8,8.8,0,0,1-2.4.3H34.6l-2-.7a5.2,5.2,0,0,1-1.9-1.1A7.3,7.3,0,0,1,29,42.5a13.8,13.8,0,0,1-1.1-2.7,11.8,11.8,0,0,1-.4-3.4,12,12,0,0,1,.4-3.5,8.5,8.5,0,0,1,1-2.7,7.5,7.5,0,0,1,1.5-2l1.9-1.3,2.1-.7,2.1-.2a8.8,8.8,0,0,1,2.4.3,6.8,6.8,0,0,1,2,.7l1.5,1.1a6.4,6.4,0,0,1,1,1.3,3.7,3.7,0,0,1,.7,1.4,3.5,3.5,0,0,1,.3,1.4H41.9a8.7,8.7,0,0,0-.7-1.7L40,29.3a4.8,4.8,0,0,0-1.6-.8,5.2,5.2,0,0,0-1.8-.3,6,6,0,0,0-2.7.6,5.3,5.3,0,0,0-2,1.6,6.3,6.3,0,0,0-1.4,2.4A11.5,11.5,0,0,0,30.1,36.1Z"/>
      <path d="M47.6,31.7h2.5V37h4.2a6.4,6.4,0,0,1,2,.3,4.2,4.2,0,0,1,1.6.9,3.4,3.4,0,0,1,.9,1.4,4.3,4.3,0,0,1,0,3.6,3.6,3.6,0,0,1-2.5,2.3,6.4,6.4,0,0,1-2,.3H47.6Zm2.5,12.1H55a2.5,2.5,0,0,0,.9-.4,1.6,1.6,0,0,0,.6-.8,2,2,0,0,0,.3-1.1,1.8,1.8,0,0,0-.3-1.1,1.6,1.6,0,0,0-.6-.8l-1-.4-1.3-.2H50.1Zm11-12.1h2.4V45.8H61.1Z"/>
      <path d="M67.1,31.7h2.4v5.7H76V31.7h2.5V45.8H76V39.5H69.5v6.3H67.1Z"/>
      <path d="M28.2,58.7h3.5l3.8,11.5h0l3.8-11.5h3.3V72.8H40.3V61.4h0L36.6,72.8H34.3L30.5,61.4h0V72.8H28.2Z"/>
      <path d="M46.1,62.9a5.1,5.1,0,0,1,.5-2.2,5.3,5.3,0,0,1,1.2-1.4,4.9,4.9,0,0,1,1.8-.8l2.3-.2a6.8,6.8,0,0,1,2,.2,3.6,3.6,0,0,1,1.7.7,3.2,3.2,0,0,1,1.6,3v8.1a.8.8,0,0,0,.2.6.6.6,0,0,0,.6.3h.8v1.6l-.6.2H56.4a.9.9,0,0,1-.7-.3l-.5-.6a3,3,0,0,1-.2-1l-1,.9a4.1,4.1,0,0,1-1.1.7l-1.4.5-1.7.2a4.5,4.5,0,0,1-1.6-.3,3.7,3.7,0,0,1-1.4-.7,3.8,3.8,0,0,1-.9-1.3,4.3,4.3,0,0,1,0-3.6,3.4,3.4,0,0,1,.9-1.4l1.4-.8,1.5-.4,4-.5a1.2,1.2,0,0,0,.9-.4,1.7,1.7,0,0,0,.3-1.2,1.9,1.9,0,0,0-.9-1.8,3.8,3.8,0,0,0-2.4-.6,3.2,3.2,0,0,0-2.3.7,2.3,2.3,0,0,0-.9,2Zm8.7,2.7-.7.4-.9.2-1.1.2H50.9a5.3,5.3,0,0,0-1.2.3,2.5,2.5,0,0,0-.9.4,2.3,2.3,0,0,0-.7.7,2,2,0,0,0-.2.9,3,3,0,0,0,.2,1,1.6,1.6,0,0,0,.5.8l.8.5,1.1.2h.8l.9-.3,1-.4a2.7,2.7,0,0,0,.8-.7,1.6,1.6,0,0,0,.6-.8,4.3,4.3,0,0,0,.2-1.1Z"/>
      <path d="M61.1,58.7h3.5l3.7,11.5h.1l3.7-11.5h3.3V72.8H73.2V61.4h-.1L69.4,72.8H67.1L63.4,61.4h-.1V72.8H61.1Z"/>
      <path d="M79,58.7h2.4V69.5h.1l6.9-10.8h2.7V72.8H88.7V62h-.1L81.8,72.8H79Z"/>
      <path d="M94.7,58.7h2.4v5.7h6.6V58.7h2.4V72.8h-2.4V66.5H97.1v6.3H94.7Z"/>
      <path d="M121.9,65.7a9.6,9.6,0,0,1-.5,3.1,6.1,6.1,0,0,1-3.3,3.9,8.2,8.2,0,0,1-2.8.5,7.6,7.6,0,0,1-2.7-.5,8,8,0,0,1-2.1-1.5,7.8,7.8,0,0,1-1.3-2.4,9.7,9.7,0,0,1-.4-3.1,10.1,10.1,0,0,1,.4-3.1,7.3,7.3,0,0,1,1.3-2.3,5.1,5.1,0,0,1,2.1-1.5,5.9,5.9,0,0,1,2.7-.5,6.4,6.4,0,0,1,2.8.5,4.3,4.3,0,0,1,2,1.5,5.8,5.8,0,0,1,1.3,2.3A10.1,10.1,0,0,1,121.9,65.7Zm-2.5,0a6.8,6.8,0,0,0-.2-2.1,6.7,6.7,0,0,0-.8-1.7,3.3,3.3,0,0,0-1.3-1.1,3.4,3.4,0,0,0-1.8-.4,3.7,3.7,0,0,0-1.8.4,2.5,2.5,0,0,0-1.2,1.1,3.4,3.4,0,0,0-.8,1.7,6.6,6.6,0,0,0-.3,2.1,7.8,7.8,0,0,0,.3,2.2,3.8,3.8,0,0,0,.8,1.7,3.2,3.2,0,0,0,1.2,1.1,3.7,3.7,0,0,0,1.8.4,3.4,3.4,0,0,0,1.8-.4,4.5,4.5,0,0,0,1.3-1.1,8.9,8.9,0,0,0,.8-1.7A7.8,7.8,0,0,0,119.4,65.7Z"/>
      <path d="M124.6,58.7H127V69.5h0l6.9-10.8h2.8V72.8h-2.4V62h-.1l-6.9,10.8h-2.7Zm3.8-5.5a2.1,2.1,0,0,0,2.3,1.9,2.5,2.5,0,0,0,1.6-.5,2.6,2.6,0,0,0,.7-1.4h2.2a3.7,3.7,0,0,1-.3,1.5,5.2,5.2,0,0,1-1,1.1,4.5,4.5,0,0,1-1.4.6,5.2,5.2,0,0,1-1.8.3,5.8,5.8,0,0,1-1.9-.3,3.5,3.5,0,0,1-1.4-.6,3.1,3.1,0,0,1-.9-1.1,3.3,3.3,0,0,1-.4-1.5Z"/>
      <path d="M37.2,87.8H30.6v12H28.2V85.7H39.6V99.8H37.2Z"/>
      <path d="M55.4,92.7a9.7,9.7,0,0,1-.4,3.1,7.8,7.8,0,0,1-1.3,2.4,8,8,0,0,1-2.1,1.5,7.6,7.6,0,0,1-2.7.5,8.2,8.2,0,0,1-2.8-.5,6.1,6.1,0,0,1-3.3-3.9,9.7,9.7,0,0,1-.4-3.1,10.1,10.1,0,0,1,.4-3.1,5.8,5.8,0,0,1,1.3-2.3,4.3,4.3,0,0,1,2-1.5,6.4,6.4,0,0,1,2.8-.5,5.9,5.9,0,0,1,2.7.5,5.1,5.1,0,0,1,2.1,1.5A7.3,7.3,0,0,1,55,89.6,10.1,10.1,0,0,1,55.4,92.7Zm-2.4,0a6.6,6.6,0,0,0-.3-2.1,3.4,3.4,0,0,0-.8-1.7,2.5,2.5,0,0,0-1.2-1.1,3.7,3.7,0,0,0-1.8-.4,3.4,3.4,0,0,0-1.8.4,3.3,3.3,0,0,0-1.3,1.1,6.7,6.7,0,0,0-.8,1.7,12.5,12.5,0,0,0-.2,2.1,15,15,0,0,0,.2,2.2,8.9,8.9,0,0,0,.8,1.7,4.5,4.5,0,0,0,1.3,1.1,3.4,3.4,0,0,0,1.8.4,3.7,3.7,0,0,0,1.8-.4,3.2,3.2,0,0,0,1.2-1.1,3.8,3.8,0,0,0,.8-1.7A7.8,7.8,0,0,0,53,92.7Z"/>
      <path d="M69.9,99.8H59v3.4H56.7V97.7h1.9a16.1,16.1,0,0,0,.9-2.9c.2-1,.4-2,.5-3l.3-3V85.7h9.8v12h2v5.5H69.9Zm-2.2-2.1V87.8H62.6a22.9,22.9,0,0,1-.2,2.5,22.9,22.9,0,0,1-.2,2.5,22.1,22.1,0,0,1-.5,2.5,10.9,10.9,0,0,1-.7,2.4Z"/>
      <path d="M74.3,85.7h2.4v1.9h.1a2.4,2.4,0,0,1,.6-.9,2.7,2.7,0,0,1,.8-.7,2.6,2.6,0,0,1,1.2-.5,3.4,3.4,0,0,1,1.5-.2,5.4,5.4,0,0,1,2.2.4A4.6,4.6,0,0,1,84.9,87a6.7,6.7,0,0,1,1.3,2.2,9,9,0,0,1,.5,3,12.7,12.7,0,0,1-.5,3.7A8.3,8.3,0,0,1,85,98.4a5.6,5.6,0,0,1-2,1.4,6.6,6.6,0,0,1-2.5.4l-1.3-.2-1.1-.5-.8-.6a2.3,2.3,0,0,1-.5-.7h-.1v7.1H74.3Zm2.4,7.1a6.8,6.8,0,0,0,.2,2.1,4.4,4.4,0,0,0,.7,1.7,3.8,3.8,0,0,0,1.1,1.1,3.3,3.3,0,0,0,1.7.4,3.1,3.1,0,0,0,1.7-.4,3.2,3.2,0,0,0,1.2-1.1,4.4,4.4,0,0,0,.7-1.7,6.8,6.8,0,0,0,.2-2.1,7.8,7.8,0,0,0-.2-2.2,4.4,4.4,0,0,0-.7-1.7,2.5,2.5,0,0,0-1.2-1.1,3.1,3.1,0,0,0-1.7-.4,3.3,3.3,0,0,0-1.7.4,2.9,2.9,0,0,0-1.1,1.1,4.4,4.4,0,0,0-.7,1.7A7.8,7.8,0,0,0,76.7,92.8Z"/>
      <path d="M87.9,85.7h2.7l3.7,11.5h0l3.8-11.5h2.6l-5.3,14.6-.8,1.9a9.8,9.8,0,0,1-.6,1.4l-.7,1-.7.5-.9.3H89.2v-2.2l.6.2h.8a1.5,1.5,0,0,0,1.1-.4,1.5,1.5,0,0,0,.6-.9l.8-2Z"/>
      <path d="M102.8,85.7h8.7v2.1h-6.3v12h-2.4Z"/>
      <path d="M113.6,85.7h2.5V96.5h0L123,85.7h2.8V99.8h-2.4V89h-.1l-6.9,10.8h-2.8Z"/>
    </g>
  </g>
</svg>
