<svg xmlns="http://www.w3.org/2000/svg" viewBox="0 0 140.8 153">
  <defs>
    <style>
      .a {
        fill: #f5ec00;
      }
    </style>
  </defs>
  <title>logo-bold</title>
  <g>
    <path class="a" d="M114,153H0V0H114ZM15,138H99V15H15Z"/>
    <g>
      <path d="M41.5,45.3a13.2,13.2,0,0,1-4.6.7c-6.3,0-9.5-3.9-9.5-9s4.4-9.7,9.9-9.7a10.6,10.6,0,0,1,4.5.9l-.9,3.2a9.6,9.6,0,0,0-3.4-.7c-3.3,0-5.8,2-5.8,6s2.2,5.9,5.8,5.9a11.1,11.1,0,0,0,3.4-.5Z"/>
      <path d="M48.2,32.6v3.9h2.1c2.9,0,5.9,1.2,5.9,4.5a3.8,3.8,0,0,1-1.8,3.5,10.5,10.5,0,0,1-6,1.5l-4.3-.2V32.6Zm-.1,10.5h1.3c1.3,0,2.7-.6,2.7-2.1s-1.3-2-2.5-2l-1.5.2ZM61.7,32.6V45.8H57.6V32.6Z"/>
      <path d="M69,32.6v4.8h4.2V32.6h4.1V45.8H73.2V40.5H69v5.3H65V32.6Z"/>
      <path d="M28.6,59.6h5.2l1.4,5,.9,3.3h0l1.1-3.6,1.4-4.7h5.2l.8,13.2H40.8l-.2-5.3c0-1.1-.1-3-.1-4.6h-.1c-.5,1.7-.6,2.2-1.3,4.3l-1.7,5.3h-3l-1.6-5.2-1-4.3h-.2c0,1.6,0,3.5-.1,4.6l-.2,5.2H27.6Z"/>
      <path d="M54.9,72.8l-.3-1.4h0a4.9,4.9,0,0,1-3.8,1.7A4.1,4.1,0,0,1,46.5,69c0-3.4,3.1-5,7.8-5v-.2c0-.7-.4-1.7-2.4-1.7a8.1,8.1,0,0,0-3.7,1l-.7-2.6a10.8,10.8,0,0,1,5.1-1.2c4.4,0,5.8,2.6,5.8,5.7v4.6a15.2,15.2,0,0,0,.2,3.2Zm-.5-6.2c-2.2-.1-3.8.4-3.8,2a1.5,1.5,0,0,0,1.6,1.6,2.3,2.3,0,0,0,2.1-1.5,1.7,1.7,0,0,0,.1-.7Z"/>
      <path d="M62.1,59.6h5.2l1.4,5,.9,3.3h0l1.1-3.6,1.4-4.7h5.2l.8,13.2H74.3l-.2-5.3c0-1.1-.1-3-.1-4.6h-.1c-.5,1.7-.6,2.2-1.3,4.3l-1.7,5.3h-3l-1.6-5.2L65.2,63h-.1c0,1.6,0,3.5-.1,4.6l-.2,5.2H61.1Z"/>
      <path d="M84.7,59.6v4c0,2.1-.1,3.6-.2,5.4h.1l1.5-3.7,2.6-5.7h5V72.8H89.8v-4c0-2.1.1-2.9.3-5.7H90l-1.4,3.5c-.9,1.8-1.8,4.1-2.8,6.2H80.9V59.6Z"/>
      <path d="M101,59.6v4.8h4.1V59.6h4.2V72.8h-4.2V67.5H101v5.3H96.9V59.6Z"/>
      <path d="M125.5,66c0,4.9-3.4,7.1-6.9,7.1a6.5,6.5,0,0,1-6.8-6.8c0-4.3,2.7-7,7-7A6.4,6.4,0,0,1,125.5,66Zm-9.5.2c0,2.2.9,3.9,2.7,3.9s2.6-1.6,2.6-3.9-.8-4-2.6-4S116,64.2,116,66.2Z"/>
      <path d="M131.9,59.6v4a45,45,0,0,1-.3,5.4h.2c.6-1.5.9-2.5,1.5-3.7l2.5-5.7h5V72.8h-3.9v-4c0-2.1.1-2.9.3-5.7h-.1c-.5,1.4-.9,2.3-1.4,3.5L133,72.8h-5V59.6Zm1.2-5.4c0,1.2.5,1.9,1.3,1.9s1.2-.8,1.3-1.9h2.6a3.7,3.7,0,0,1-4,3.8c-2.5,0-3.7-1.5-3.8-3.8Z"/>
      <path d="M40.3,86.6V99.8H36.2V89.7h-4V99.8H28.1V86.6Z"/>
      <path d="M56.6,93c0,4.9-3.4,7.1-7,7.1a6.5,6.5,0,0,1-6.8-6.8c0-4.3,2.8-7,7-7A6.4,6.4,0,0,1,56.6,93Zm-9.5.2c0,2.2.9,3.9,2.6,3.9s2.6-1.6,2.6-3.9-.7-4-2.6-4S47.1,91.2,47.1,93.2Z"/>
      <path d="M70.9,86.6V96.9h1.5l-.2,7.1H69.1V99.8H60.7l-.2,4.2H57.4V97h1.2a7.2,7.2,0,0,0,1.3-2.8,14.9,14.9,0,0,0,.6-4.3V86.6ZM64,91.1a13.3,13.3,0,0,1-.5,3.4,9.2,9.2,0,0,1-.9,2.3h4.3V89.6H64Z"/>
      <path d="M74.5,91c0-1.7,0-3.2-.1-4.4H78l.2,1.8h0a5.1,5.1,0,0,1,4.4-2.1c2.9,0,5.5,2.5,5.5,6.7s-3.1,7.1-6,7.1a4.2,4.2,0,0,1-3.4-1.5h-.1v6.5H74.5Zm4.1,3.1c0,.3.1.6.1.9a2.5,2.5,0,0,0,2.4,1.9c1.8,0,2.8-1.5,2.8-3.7s-.9-3.7-2.7-3.7a2.7,2.7,0,0,0-2.5,2.1c0,.2-.1.5-.1.7Z"/>
      <path d="M93.2,86.6l2,6.5a21,21,0,0,1,.6,2.4h.1c.2-.7.4-1.7.6-2.4l1.6-6.5h4.4l-3.1,8.7c-1.9,5.2-3.1,7.3-4.6,8.6a7.3,7.3,0,0,1-4,1.8l-.8-3.5a5.1,5.1,0,0,0,3.4-2.3.9.9,0,0,0,.3-.6l-.2-.7-4.8-12Z"/>
      <path d="M113.4,86.6v3.2h-5.1v10h-4.1V86.6Z"/>
      <path d="M119.1,86.6v4c0,2.1-.1,3.6-.2,5.4h.1l1.5-3.7,2.5-5.7h5V99.8h-3.8v-4c0-2.1.1-2.9.2-5.7h-.1a28.3,28.3,0,0,1-1.4,3.5l-2.7,6.2h-5V86.6Z"/>
    </g>
  </g>
</svg>
