<svg xmlns="http://www.w3.org/2000/svg" viewBox="0 0 50.28 48.69"><defs><style>.cls-1{fill:#fd8338;}</style></defs><g id="Слой_2" data-name="Слой 2"><g id="Слой_1-2" data-name="Слой 1"><path class="cls-1" d="M24.42,7.89a16.46,16.46,0,0,0,0,32.91h0A16.47,16.47,0,0,0,40.87,24.35h0A16.47,16.47,0,0,0,24.42,7.89ZM25.23,39V36.37a.89.89,0,0,0-1.77,0V39A14.8,14.8,0,0,1,9.59,25.16h2.66a.89.89,0,0,0,0-1.77H9.59A14.8,14.8,0,0,1,23.46,9.52v2.65a.89.89,0,1,0,1.77,0V9.52A14.8,14.8,0,0,1,39.1,23.39H36.45a.89.89,0,1,0,0,1.77H39.1A14.62,14.62,0,0,1,25.23,39Z"/><path class="cls-1" d="M24.42,14.09a.86.86,0,0,0-.89.89v9.07l-3.32,4a.84.84,0,0,0,.15,1.18,1,1,0,0,0,.59.22,1.12,1.12,0,0,0,.67-.3l3.54-4.2a.83.83,0,0,0,.22-.59V15A1.09,1.09,0,0,0,24.42,14.09Z"/><path class="cls-1" d="M24.42,48.69A24.37,24.37,0,0,0,48.77,24.35a23.68,23.68,0,0,0-3-11.66l3.47,1a.73.73,0,0,1,.22.08.85.85,0,0,0,.81-.67.91.91,0,0,0-.59-1.1L44,10.4h-.36a.72.72,0,0,0-.23.08.07.07,0,0,0-.07.07c-.07.07-.15.07-.22.15l-.07.07a1,1,0,0,0-.15.22l-1.48,4.95a.89.89,0,0,0,1.7.51l1-3.24a22.07,22.07,0,0,1,2.88,11.06A22.65,22.65,0,1,1,24.35,1.77a22.22,22.22,0,0,1,10.84,2.8.89.89,0,0,0,1.18-.29.9.9,0,0,0-.29-1.18A24.22,24.22,0,0,0,0,24.35,24.48,24.48,0,0,0,24.42,48.69Z"/></g></g></svg>