<svg xmlns="http://www.w3.org/2000/svg" viewBox="0 0 50 50"><defs><style>.cls-1{fill:#fd8338;}</style></defs><g id="Слой_2" data-name="Слой 2"><g id="Слой_1-2" data-name="Слой 1"><path class="cls-1" d="M50,25A25,25,0,1,1,25,0,25,25,0,0,1,50,25Zm-2.17,0A22.83,22.83,0,1,0,25,47.83,22.83,22.83,0,0,0,47.83,25Z"/><path class="cls-1" d="M8.56,38C8,36.86,7.3,35.76,6.76,34.6A2,2,0,0,1,7.38,32a.77.77,0,0,0,.22-.5c0-1.79,0-3.58,0-5.37a.91.91,0,0,0-.31-.61c-.75-.57-1.53-1.1-2.29-1.65-.94-.68-.86-1.63.19-2.09l19.13-8.51a1.56,1.56,0,0,1,1.35,0l19.12,8.51c1.1.48,1.19,1.41.22,2.11l-6.54,4.67a.75.75,0,0,0-.42.79c0,.18,0,.36,0,.54.09,1.14-.22,1.86-1.69,2.45a18,18,0,0,1-5,1.06,56.47,56.47,0,0,1-11.77.09c-1.72-.17-3.42-.53-5.13-.85a5.19,5.19,0,0,1-1.35-.53,1.82,1.82,0,0,1-1.17-2,1.77,1.77,0,0,0-1.05-2.05,11.15,11.15,0,0,1-1.14-.78c0,1.53,0,2.95,0,4.38,0,.13.18.28.31.4a1.88,1.88,0,0,1,.63,2.2c-.56,1.27-1.25,2.5-1.89,3.75Zm33.8-14.93L42,22.85,25.34,15.48a.92.92,0,0,0-.69,0q-8.26,3.65-16.5,7.32l-.51.25L12,26.14c0-.34,0-.56,0-.77a2,2,0,0,1,1.3-2.12,5.24,5.24,0,0,1,1.41-.53c1.71-.3,3.42-.64,5.14-.78a58.39,58.39,0,0,1,13.6.36,17.11,17.11,0,0,1,3.27.92,2,2,0,0,1,1.38,2.16c0,.23,0,.45,0,.77Zm-6.49,5.21c0-.82,0-1.68,0-2.52,0-.46-.15-.69-.56-.76-1.5-.29-3-.68-4.52-.83a60.8,60.8,0,0,0-12.58.1,32.94,32.94,0,0,0-3.65.78c-.17,0-.41.25-.42.39,0,1,0,1.94,0,2.84A53.08,53.08,0,0,1,35.87,28.27Zm-1.06,2.24c-3.91-1.63-17.32-1.39-19.58,0A48.54,48.54,0,0,0,34.81,30.51Z"/></g></g></svg>