<svg xmlns="http://www.w3.org/2000/svg" viewBox="0 0 57.56 58.06"><g id="Слой_2" data-name="Слой 2"><g id="Слой_1-2" data-name="Слой 1"><path d="M33.32,58.06h-9c0-.15,0-.27,0-.38,0-5.13-.05-10.25,0-15.37A18.07,18.07,0,0,1,38.74,24.79a35.71,35.71,0,0,1,4-.39l.32,0c0-.17,0-.34,0-.5,0-1.43,0-2.86,0-4.29,0-.22.07-.55.22-.63s.46,0,.64.17l13.16,9.19c.57.4.57.79,0,1.19Q50.54,34.11,44,38.71c-.17.12-.48.24-.61.16s-.21-.39-.22-.6c0-1.43,0-2.86,0-4.29,0-.41-.1-.55-.54-.55a9.13,9.13,0,0,0-9.26,9.18c0,5,0,9.9,0,14.86Z"/><path d="M28.79,27.69a22.43,22.43,0,0,0-4.28-3c-.27-.14-.26-.34-.26-.57v-9.7H21.93c-.79,0-1.57,0-2.36,0-.2,0-.51-.08-.58-.23s0-.43.15-.6q3.8-5.47,7.62-10.93L28.31.46c.43-.61.84-.61,1.26,0L38.7,13.53a3.28,3.28,0,0,1,.2.31c.16.33.06.53-.3.59a3.38,3.38,0,0,1-.55,0H33.32v7c0,1,0,2,0,2.94a.37.37,0,0,1-.16.28A20.52,20.52,0,0,0,28.79,27.69Z"/><path d="M22.85,37.7a9.24,9.24,0,0,0-8-4.27c-.32,0-.42.11-.42.43,0,1.46,0,2.92,0,4.38,0,.22-.08.57-.23.63s-.46-.06-.65-.19L.48,29.55c-.64-.45-.64-.83,0-1.28l13-9.12L13.7,19c.48-.29.73-.17.75.39s0,1,0,1.52c0,1,0,2,0,2.95,0,.15,0,.3,0,.5a18.24,18.24,0,0,1,12.91,4.76A20.39,20.39,0,0,0,22.85,37.7Z"/></g></g></svg>