<svg xmlns="http://www.w3.org/2000/svg" viewBox="0 0 24.04 18.88"><defs><style>.cls-1{fill:#a8abb3;}</style></defs><g id="Слой_2" data-name="Слой 2"><g id="Слой_1-2" data-name="Слой 1"><path class="cls-1" d="M24,6.12V16.93L24,17a2.15,2.15,0,0,1-2.15,1.84H2.18A2.13,2.13,0,0,1,.13,17.43,4.94,4.94,0,0,1,0,16.91V6.12l.09,0A8.87,8.87,0,0,0,1.7,7.48l6,4.15a20.76,20.76,0,0,0,2.21,1.48,4.51,4.51,0,0,0,1.93.61,4.34,4.34,0,0,0,2.33-.6,19.43,19.43,0,0,0,2-1.3C18.05,10.46,20,9.09,22,7.74a11.29,11.29,0,0,0,2-1.59S24,6.13,24,6.12Z"/><path class="cls-1" d="M0,2.56V2.24c0-.16.05-.32.08-.48a2.19,2.19,0,0,1,1-1.49A2.27,2.27,0,0,1,2.24,0H21.86A2.15,2.15,0,0,1,24,1.65c0,.1.05.2.07.3v.43l0,.11a3.61,3.61,0,0,1-.4,1.28,5.86,5.86,0,0,1-1.89,2.07L14.4,11a8.53,8.53,0,0,1-1.49.87,2.15,2.15,0,0,1-1.67,0,7.76,7.76,0,0,1-1.63-.94L2.77,6.14a8.11,8.11,0,0,1-1.7-1.45,4.81,4.81,0,0,1-1-1.63C.06,2.9,0,2.73,0,2.56Z"/></g></g></svg>