<svg xmlns="http://www.w3.org/2000/svg" viewBox="0 0 17.65 25.99"><defs><style>.cls-1{fill:#a8abb3;}</style></defs><g id="Слой_2" data-name="Слой 2"><g id="Слой_1-2" data-name="Слой 1"><path class="cls-1" d="M2.35,26a6.42,6.42,0,0,1-.63-.15A2.45,2.45,0,0,1,0,23.36,12.54,12.54,0,0,1,.19,22l.63-3.76c.18-1.07.33-2.15.54-3.22a3.59,3.59,0,0,1,1.83-2.46A7.7,7.7,0,0,1,4,12.19a.21.21,0,0,1,.24,0A6.81,6.81,0,0,0,8,13.87a6.9,6.9,0,0,0,5.4-1.63.23.23,0,0,1,.26-.05A3.72,3.72,0,0,1,16.28,15c.17.76.26,1.54.39,2.32.23,1.36.46,2.72.68,4.08.1.56.21,1.12.28,1.69a2.51,2.51,0,0,1-2.07,2.85l-.26,0Z"/><path class="cls-1" d="M9.2,0c.23,0,.47.05.69.1a5.72,5.72,0,0,1,4.37,3.56,5.82,5.82,0,0,1-1.44,6.52,5.79,5.79,0,0,1-3.28,1.53A5.88,5.88,0,0,1,7.07.27,11,11,0,0,1,8.34,0l.1,0Z"/></g></g></svg>