<svg xmlns="http://www.w3.org/2000/svg" viewBox="0 0 27.2 27.1">
  <defs>
    <style>
      .a {
        fill: #536eb2;
      }

      .b {
        fill: #f4ca76;
      }
    </style>
  </defs>
  <title>book</title>
  <g>
    <path class="a" d="M15.4,12.8l.4.2H16a28.7,28.7,0,0,1,4-1.8c.2-.1.4-.3.3-.5a.4.4,0,0,0-.6-.3,30,30,0,0,0-4.1,1.8A.4.4,0,0,0,15.4,12.8Z" transform="translate(0 0)"/>
    <path class="a" d="M15.8,7.6c.1.1.1.1.2,0l4-1.7c.2-.1.4-.4.3-.6a.5.5,0,0,0-.6-.3h0a30,30,0,0,0-4.1,1.8.5.5,0,0,0-.2.6h0Z" transform="translate(0 0)"/>
    <path class="b" d="M26.6,6.7a.5.5,0,0,0-.4.5h0V24.8a1.3,1.3,0,0,1-1.4,1.3H14v-1a14.2,14.2,0,0,1,4.1-.8,25,25,0,0,1,6.6.9.3.3,0,0,0,.4,0,.5.5,0,0,0,.2-.4V4.9a.4.4,0,0,0-.4-.4L24,4.3a.5.5,0,0,0-.6.4.7.7,0,0,0,.4.5h.6V24.2a28,28,0,0,0-6.4-.8,17.1,17.1,0,0,0-4.5.9,14.3,14.3,0,0,0-4.1-.9,31.6,31.6,0,0,0-6.8.8V5.3a31.6,31.6,0,0,1,6.8-.8,10.5,10.5,0,0,1,3.6.7V23c0,.2.3.4.5.4h.2a55.4,55.4,0,0,1,8.5-4.1c.2,0,.3-.2.3-.4V.4a.6.6,0,0,0-.1-.4H22a45,45,0,0,0-7.3,3.6.5.5,0,0,0-.2.7c.1.2.4.2.6.1a40.7,40.7,0,0,1,6.6-3.3V18.7A41.6,41.6,0,0,0,14,22.3V4.9a.5.5,0,0,0-.3-.4,10.2,10.2,0,0,0-4.2-.9,30.6,30.6,0,0,0-7.4.9c-.2.1-.3.2-.3.4V24.8c0,.1.1.3.2.3h.4a33.6,33.6,0,0,1,7.1-.8,9.2,9.2,0,0,1,3.6.7v1.1H2.3A1.4,1.4,0,0,1,.9,24.8V7.2a.4.4,0,0,0-.4-.4h0a.5.5,0,0,0-.5.4V24.8a2.2,2.2,0,0,0,2.1,2.3H24.8A2.2,2.2,0,0,0,27.2,25V7.2a.5.5,0,0,0-.5-.4h-.1Z" transform="translate(0 0)"/>
    <path class="a" d="M15.4,10.1c.1.2.2.3.4.3H16a28.7,28.7,0,0,1,4-1.8.5.5,0,0,0,.3-.6h0c-.1-.3-.3-.4-.5-.3h-.1a21.7,21.7,0,0,0-4.1,1.9.4.4,0,0,0-.2.6h0Z" transform="translate(0 0)"/>
    <path class="a" d="M15.4,15.5c.1.2.2.3.4.3H16A28.7,28.7,0,0,1,20,14a.5.5,0,0,0,.3-.6h0a.5.5,0,0,0-.5-.3h-.1a30,30,0,0,0-4.1,1.8.5.5,0,0,0-.2.6Z" transform="translate(0 0)"/>
    <path class="a" d="M10.9,8.3a14,14,0,0,0-6.1.3.3.3,0,0,0-.3.5h0c0,.2.2.3.4.3H5a15.6,15.6,0,0,1,5.7-.2.4.4,0,0,0,.5-.3h0a.4.4,0,0,0-.3-.5Z" transform="translate(0 0)"/>
    <path class="a" d="M10.9,11.1a14,14,0,0,0-6.1.2.4.4,0,0,0-.3.5h0a.4.4,0,0,0,.4.4H5a12.2,12.2,0,0,1,5.7-.2c.2,0,.5-.1.5-.4a.4.4,0,0,0-.3-.5Z" transform="translate(0 0)"/>
    <path class="a" d="M15.4,18.2c.1.2.2.3.4.3H16a28.7,28.7,0,0,1,4-1.8.5.5,0,0,0,.3-.6.6.6,0,0,0-.6-.3l-4.1,1.9a.5.5,0,0,0-.2.6h0Z" transform="translate(0 0)"/>
    <path class="a" d="M10.9,13.8a14,14,0,0,0-6.1.2.4.4,0,0,0-.3.5h0a.4.4,0,0,0,.4.4H5a12.2,12.2,0,0,1,5.7-.2.7.7,0,0,0,.6-.3h0a.5.5,0,0,0-.4-.5Z" transform="translate(0 0)"/>
    <path class="a" d="M10.9,19.1a15.7,15.7,0,0,0-6.1.3.4.4,0,0,0-.3.5h0a.4.4,0,0,0,.4.4H5a13.7,13.7,0,0,1,5.7-.2c.2,0,.5-.1.5-.4h0a.4.4,0,0,0-.3-.6Z" transform="translate(0 0)"/>
    <path class="a" d="M10.9,16.5a14,14,0,0,0-6.1.2.4.4,0,0,0-.3.5h0a.4.4,0,0,0,.4.4H5a12.2,12.2,0,0,1,5.7-.2c.2,0,.5-.1.5-.4a.4.4,0,0,0-.3-.5Z" transform="translate(0 0)"/>
  </g>
</svg>
