<svg xmlns="http://www.w3.org/2000/svg" viewBox="0 0 40 60.5">
  <defs>
    <style>
      .a {
        fill: #536eb2;
      }

      .b {
        fill: #f4ca76;
      }
    </style>
  </defs>
  <title>icon-3</title>
  <g>
    <path class="a" d="M21.3,51.5V58h5.8c.8,0,1.5.4,1.3,1.2a2,2,0,0,1-1.3,1.2,22.6,22.6,0,0,1-3.7.1H14c-1.9,0-2.6-.4-2.5-1.3S13,58,13.9,58s3.1,0,4.7,0V51.6c-1.6-.4-3.2-.7-4.8-1.2A20,20,0,0,1,0,31.9c0-1.2.4-1.7,1.6-1.7H38.3c1.3,0,1.7.5,1.7,1.9A20.1,20.1,0,0,1,22.2,51.3ZM2.6,32.8C2.8,40.2,9.5,49,20.2,48.9s17.1-9.4,17.1-16.1h-4c-.1.2-.1.4-.2.5C32,39.9,27,44.5,20.4,44.7s-9.5-2.4-12.2-7.1c-.4-.8-.5-1.5.4-2s1.3,0,1.8.7a1.6,1.6,0,0,0,.4.7,10.9,10.9,0,0,0,11.9,4.9c4.3-1.2,7.8-5.3,7.9-9.1Z"/>
    <path class="a" d="M6.7,16.8a28.6,28.6,0,0,1,.9-5.1A13,13,0,0,1,21.7,3.1,13.2,13.2,0,0,1,33.2,15.2c.2,3.4.1,6.8.1,10.2,0,.8-.3,1.6-1.3,1.6s-1.2-.8-1.2-1.7c0-3.3.1-6.5-.1-9.8a10.7,10.7,0,0,0-21.4-.2c-.2,3-.1,6.1-.1,9.1a5.7,5.7,0,0,0-.1,1.3c0,.8-.3,1.4-1.2,1.4s-1.2-.6-1.2-1.4-.1-6.3-.1-7.3A7.6,7.6,0,0,1,6.7,16.8Z"/>
    <path class="b" d="M38.6,15v.8c0,.8-.4,1.4-1.1,1.3a2.2,2.2,0,0,1-1.3-1.2c-.2-.8-.1-1.7-.3-2.6A15,15,0,0,0,28.8,2.8l-.5-.3c-.7-.5-1.2-1.1-.7-1.9s1.2-.7,2-.3a17.9,17.9,0,0,1,8.4,11,24.1,24.1,0,0,1,.7,3.7Z"/>
    <path class="b" d="M19.9,27.1H15.3c-.8,0-1.5-.2-1.6-1.2s.8-1.3,1.6-1.3h9.4c.8,0,1.5.3,1.5,1.3s-.7,1.2-1.5,1.2Z"/>
    <path class="b" d="M20,16.1H15.3c-.8,0-1.5-.2-1.6-1.2s.7-1.3,1.6-1.2h9.3c.9-.1,1.6.2,1.6,1.2s-.8,1.2-1.6,1.2Z"/>
    <path class="b" d="M19.9,21.6H15.2c-.8,0-1.5-.3-1.5-1.2a1.4,1.4,0,0,1,1.5-1.3h9.6a1.2,1.2,0,0,1,1.4,1.3c0,.9-.6,1.2-1.4,1.2Z"/>
  </g>
</svg>
