<svg xmlns="http://www.w3.org/2000/svg" viewBox="0 0 59.7 59.6">
  <defs>
    <style>
      .a {
        fill: #536eb2;
      }

      .b {
        fill: #f4ca76;
      }
    </style>
  </defs>
  <title>icon-2</title>
  <g>
    <path class="a" d="M16.1,59.6V57.4A2.3,2.3,0,0,1,18.5,55h4.4l.3-1.4a6.9,6.9,0,0,1,4.1-4.7c.2-.1.3-.2.3-.4V22.3a.7.7,0,0,0-.3-.6,4.6,4.6,0,0,1-1.8-3.4h8.7a1.7,1.7,0,0,1-.1.7,3.8,3.8,0,0,1-1.6,2.6.8.8,0,0,0-.3.8v26c0,.3,0,.4.3.6a6.5,6.5,0,0,1,4.2,5.6.6.6,0,0,0,.1.4h4.3a2.3,2.3,0,0,1,2.5,2.5v2.1Z"/>
    <path class="b" d="M0,36.6H2.4c.3,0,.3-.1.4-.3C4.3,32.2,5.9,28,7.5,23.8c.9-2.5,1.9-5,2.9-7.6a1.1,1.1,0,0,1,2.2,0c1,2.5,1.9,4.9,2.8,7.4l4.8,12.7c.1.3.2.3.5.3H23a7.3,7.3,0,0,1-.5,1.2A12,12,0,0,1,13,44.7,12.3,12.3,0,0,1,.1,37a.3.3,0,0,0-.1-.2ZM11.5,19.7,5.1,36.6H17.9Z"/>
    <path class="a" d="M29.9,0A16.3,16.3,0,0,1,31,1.7a9.2,9.2,0,0,1,1.3,2.4,2.3,2.3,0,0,1-.9,3.1c0,.1-.1.1-.1.2L33,8.5A7.1,7.1,0,0,1,36,7a8.7,8.7,0,0,1,5.3.4c1.4.5,2.7,1.2,4.1,1.8l.3.2a1.1,1.1,0,0,0,1.4-.1,2.3,2.3,0,0,1,3.2.9,2.4,2.4,0,1,1-4.1,2.3,1.1,1.1,0,0,0-.8-.7c-1.2-.6-2.5-1.3-3.8-1.8a7.2,7.2,0,0,0-4.3-.9,5,5,0,0,0-2.9,1.2,1.1,1.1,0,0,0-.4.9,3.9,3.9,0,0,1-1.4,3.3,3.9,3.9,0,0,1-4,.8,4,4,0,0,1-2.8-3.1c-.1-.4,0-.8-.1-1.2a.8.8,0,0,0-.2-.5,5,5,0,0,0-4-1.4,12,12,0,0,0-4.2,1.2L13.9,12l-.3.3a2.3,2.3,0,0,1-2.8,1.3A2.3,2.3,0,0,1,9.2,11a2.3,2.3,0,0,1,3.7-1.5.6.6,0,0,0,.7.1l4.1-2a9.7,9.7,0,0,1,6.5-.5,7.7,7.7,0,0,1,2.5,1.4l1.7-1.1a4.8,4.8,0,0,1-.9-1.1,2.2,2.2,0,0,1-.2-2.1A17.2,17.2,0,0,1,29.5.5l.3-.5Z"/>
    <path class="b" d="M59.7,36.6a12.1,12.1,0,0,1-22.9,0h2.6l6.9-18.1a20.9,20.9,0,0,1,.8-2.3,1.2,1.2,0,0,1,1.2-.9,1.1,1.1,0,0,1,1.1.9c2.2,5.9,4.4,11.9,6.7,17.8l.9,2.4c0,.2.1.2.3.2Zm-5.1,0c-2.1-5.6-4.2-11.2-6.4-16.9L41.9,36.6Z"/>
  </g>
</svg>
