<svg xmlns="http://www.w3.org/2000/svg" viewBox="0 0 66.8 58.8">
  <defs>
    <style>
      .a {
        fill: #f4ca76;
      }

      .b {
        fill: #536eb2;
      }
    </style>
  </defs>
  <title>icon-5</title>
  <g>
    <path class="a" d="M49.1,23.7l1,8.1L58,30.7l-.2-1.6-5.1.7a18.7,18.7,0,1,0-26.1,3.9A19.6,19.6,0,0,0,35,37.2l.2-1.6A17.1,17.1,0,1,1,54.7,21.2a17.9,17.9,0,0,1-3.5,8.1l-.7-5.8Z" transform="translate(0 0)"/>
    <path class="b" d="M49.1,23.7l1,8.1L58,30.7l-.2-1.6-5.1.7a18.7,18.7,0,1,0-26.1,3.9A19.6,19.6,0,0,0,35,37.2l.2-1.6A17.1,17.1,0,1,1,54.7,21.2a17.9,17.9,0,0,1-3.5,8.1l-.7-5.8Z" transform="translate(0 0)"/>
    <path class="b" d="M35.9,16.7a1.6,1.6,0,0,1,0-2.2,2.4,2.4,0,0,1,1.4-.5v3.4a3.5,3.5,0,0,1-1.5-.7Zm2.9,3.4a3.7,3.7,0,0,1,1.6.7,2.1,2.1,0,0,1,.4,1.1,1.3,1.3,0,0,1-.6,1.1,3.5,3.5,0,0,1-1.4.6V20.1Zm0,6.9V25.6a5.9,5.9,0,0,0,3.1-1.2,3.6,3.6,0,0,0,1.2-2.9,3.1,3.1,0,0,0-1-2.6,7.1,7.1,0,0,0-3.3-1.5h0V13.9A5.7,5.7,0,0,1,41.7,15L43,13.3a7.6,7.6,0,0,0-4.1-1.5v-.9H37.5v.9A5,5,0,0,0,34.7,13a3.3,3.3,0,0,0-1.2,2.9,3,3,0,0,0,1,2.5,7.1,7.1,0,0,0,3.2,1.4v3.6a6.5,6.5,0,0,1-3.4-1.7l-1.4,1.7a8.3,8.3,0,0,0,4.6,2.2V27Z" transform="translate(0 0)"/>
    <path class="a" d="M2.9,46.7l4.3,9.2,4.4-2.8L7.9,44.3ZM0,46.1H0l15-7.5h0a17.7,17.7,0,0,1,11.6,0l11.2,4.1h0a3.6,3.6,0,0,1,2.1,4.1,3.6,3.6,0,0,1-3.4,3h0l-5.8-.3L26.9,48a1.4,1.4,0,0,1-1.2-1.2,1.2,1.2,0,0,1,1.2-1.2h0l4.9.2,5.5.4a1.2,1.2,0,0,0,1.1-1,1.1,1.1,0,0,0-.6-1.4L26.5,39.7h0a15.7,15.7,0,0,0-9.6,0l-6.8,3.4,3.6,8.7a7.4,7.4,0,0,1,6.1-.9l15.1,4.5a7.2,7.2,0,0,0,5.4-.5L63.9,42.2a1.1,1.1,0,0,0,.5-1.4,1.2,1.2,0,0,0-1.3-.7L44.7,46.2a1.2,1.2,0,0,1-1.5-.7,1.2,1.2,0,0,1,.8-1.6l18.3-6.1h0a3.6,3.6,0,0,1,2.6,6.6L41.4,57.2a9.8,9.8,0,0,1-7.3.8L19,53.4a5,5,0,0,0-4.1.6L7.4,58.8H5.8L0,46.6H0Z" transform="translate(0 0)"/>
  </g>
</svg>
