<svg xmlns="http://www.w3.org/2000/svg" xmlns:xlink="http://www.w3.org/1999/xlink" viewBox="0 0 511.6 112.3">
  <defs>
    <style>
      .a {
        fill: url(#a);
      }

      .b {
        fill: url(#b);
      }

      .c {
        fill: url(#c);
      }

      .d {
        fill: #fff;
      }

      .e {
        fill: #2c0142;
      }
    </style>
    <linearGradient id="a" x1="47.54" y1="7.44" x2="47.54" y2="112.28" gradientUnits="userSpaceOnUse">
      <stop offset="0.15" stop-color="#3f64b4"/>
      <stop offset="1" stop-color="#00a6e0"/>
    </linearGradient>
    <linearGradient id="b" x1="60.25" x2="60.25" y2="104.87" gradientUnits="userSpaceOnUse">
      <stop offset="0" stop-color="#761f87"/>
      <stop offset="0.35" stop-color="#742189"/>
      <stop offset="0.53" stop-color="#6e298e"/>
      <stop offset="0.68" stop-color="#633797"/>
      <stop offset="0.81" stop-color="#544aa3"/>
      <stop offset="0.92" stop-color="#4063b3"/>
      <stop offset="0.93" stop-color="#3f64b4"/>
    </linearGradient>
    <linearGradient id="c" x1="53.89" y1="7.44" x2="53.89" y2="104.87" gradientUnits="userSpaceOnUse">
      <stop offset="0.15" stop-color="#2c0041"/>
      <stop offset="1" stop-color="#0068c2"/>
    </linearGradient>
  </defs>
  <title>logo-sm</title>
  <g>
    <g>
      <path class="a" d="M9.1,26.8,38.4,9.9a18.2,18.2,0,0,1,18.3,0L86,26.8a18.4,18.4,0,0,1,9.1,15.8V77.2a17.8,17.8,0,0,1-9.2,15.6l-29.3,17a18.2,18.2,0,0,1-18.2.1L9.1,93A18.4,18.4,0,0,1,0,77.2V42.6A18.4,18.4,0,0,1,9.1,26.8Z"/>
      <path class="b" d="M21.9,19.4,51.2,2.5a18,18,0,0,1,18.2-.1L98.7,19.3a18.4,18.4,0,0,1,9.1,15.8V69.7a18.4,18.4,0,0,1-9.1,15.8L69.4,102.4a18.2,18.2,0,0,1-18.3,0L21.8,85.5a18.4,18.4,0,0,1-9.1-15.8V35.1A18.3,18.3,0,0,1,21.9,19.4Z"/>
      <path class="c" d="M86,26.8,56.7,9.9a18.2,18.2,0,0,0-18.3,0L20.1,20.5a18.2,18.2,0,0,0-7.4,14.6V69.7a18.4,18.4,0,0,0,9.1,15.8l29.3,16.9a18.2,18.2,0,0,0,18.3,0L87.7,91.8a18.2,18.2,0,0,0,7.4-14.6V42.6A18.4,18.4,0,0,0,86,26.8Z"/>
      <g>
        <path class="d" d="M82.6,62.5C82.6,43.4,67.1,36,52.4,36H38.8V82.4h5.6V61.7h.4L76.6,98.2l4.2-2.4-10-11.7A24.6,24.6,0,0,0,82.6,62.5ZM50.9,61,62.3,44.2H56l-11.6,16V41h7.8c11.7,0,24.2,6.2,24.2,21.5a20.7,20.7,0,0,1-9.2,17.4L50.9,61Z"/>
        <path class="d" d="M53.2,84.2H34.1V22H77.7L67.1,15.9H27.9V89H53.7a34.3,34.3,0,0,0,9.6-1.4l-3.7-4.2A27.4,27.4,0,0,1,53.2,84.2Z"/>
      </g>
      <rect class="e" x="131.4" y="16.2" width="2" height="81.96"/>
    </g>
    <path d="M166.8,50.4h-3.3V44.8h11.3l.7-5.5H156.1V70.5h10.8c7.2,0,12.3-3.3,12.3-10.3S174.6,50.4,166.8,50.4Zm-.5,14.7h-2.8V55.5h2.7c3.6,0,5.3,1.6,5.3,4.7S169.6,65.1,166.3,65.1Zm35.5-1.6V54.3c0-5.6-3-8.5-9.9-8.5a27.4,27.4,0,0,0-9,1.7l1.6,4.7a21.4,21.4,0,0,1,6.3-1.2c2.9,0,4,.8,4,3.7v1h-2.4c-7.3,0-11.2,2.8-11.2,8.1s3,7.4,7.8,7.4a8.1,8.1,0,0,0,7.2-3.6c1,2.4,2.9,3.3,5.7,3.5l1.5-4.6C202.3,66.1,201.8,65.4,201.8,63.5ZM191,66.1a2.7,2.7,0,0,1-2.8-3c0-2.4,1.6-3.5,4.9-3.5h1.7v4.2A4.1,4.1,0,0,1,191,66.1Zm30.1,4.4h7.2V46.6h-7.2v9.1h-6.5V46.6h-7.1V70.5h7.1V61h6.5Zm34.2-23.9h-6.8l-5.2,9.3H241V46.6h-7.2V70.5H241V60.2h2.1l5.2,10.3h7.6L249,57.6Zm16.7-.8a8.7,8.7,0,0,0-6.9,3.4l-.3-2.6h-6.3V80.5l7.1-.8V68.8a7.7,7.7,0,0,0,5.8,2.4c5.9,0,9.5-5.4,9.5-12.8S278.2,45.8,272,45.8ZM269.3,66a4.4,4.4,0,0,1-3.7-2.1V53.8c1.1-1.8,2.5-2.8,4.2-2.8s3.8,1.6,3.8,7.5S271.9,66,269.3,66Zm26.4-20.2c-7.3,0-11.7,5-11.7,12.7s4.5,12.7,11.7,12.7,11.7-5,11.7-12.7S303,45.8,295.7,45.8Zm0,5.2c2.9,0,4.4,2.2,4.4,7.5s-1.5,7.5-4.4,7.5-4.3-2.2-4.3-7.5S292.9,51,295.7,51Zm33.6-4.4H307.8v5.2h7V70.5h7.1V51.8h6.5Zm36.8-7.2h-4.5l-7.6,13h-4.3v-13h-4.3V70.5h4.3V55.9h4.2L362,70.5h5L357.5,54ZM380,46.2c-6.8,0-10.6,5.1-10.6,12.4S373.2,71,380,71s10.5-5.1,10.5-12.4S386.8,46.2,380,46.2Zm0,3.3c3.9,0,6.1,2.9,6.1,9.1s-2.2,9.1-6.1,9.1-6.2-2.9-6.2-9.1S376,49.5,380,49.5Zm31.4,21h4.1V46.7h-4.1v10h-9.9v-10h-4.1V70.5h4.1V60h9.9Zm21.3-24.3c-6.4,0-10.3,5-10.3,12.6S426.3,71,432.7,71a11.2,11.2,0,0,0,7.3-2.6l-1.9-2.7a8.6,8.6,0,0,1-5.2,1.8c-3.7,0-6.1-2.6-6.1-8.8s2.4-9.1,6.1-9.1a7.9,7.9,0,0,1,5.1,1.8l2-2.6A10.4,10.4,0,0,0,432.7,46.2Zm28.4,18.7V54.1c0-5-2.6-7.9-8.3-7.9a22.5,22.5,0,0,0-8.2,1.6l1,3a22,22,0,0,1,6.4-1.2c3.3,0,5,1.2,5,4.7V56h-3.7c-6.6,0-10.4,2.8-10.4,7.8s2.8,7.2,7.6,7.2a8,8,0,0,0,7-3.6c.7,2.4,2.3,3.3,4.7,3.6l.9-2.9C461.9,67.7,461.1,67,461.1,64.9Zm-9.7,3c-2.7,0-4.1-1.5-4.1-4.3s2.2-4.8,6.6-4.8H457v5.4C455.6,66.7,453.8,67.9,451.4,67.9Zm20.4-21.2-1,10.9c-.7,7.8-.8,9-3.8,10.1l1.1,3.3c5.1-1.6,6-3.9,6.8-13l.6-7.9h7.4V70.5H487V46.7Zm39.8,0H491.5v3.4h7.9V70.5h4.1V50.1h7.6Z"/>
  </g>
</svg>
