<svg width="30" height="30" viewBox="0 0 30 30" fill="none" xmlns="http://www.w3.org/2000/svg">
<g clip-path="url(#clip0)">
<path d="M14.9998 30.0005C23.284 30.0005 29.9996 23.2849 29.9996 15.0007C29.9996 6.71653 23.284 0.00088501 14.9998 0.00088501C6.71565 0.00088501 0 6.71653 0 15.0007C0 23.2849 6.71565 30.0005 14.9998 30.0005Z" fill="#41B4E6"/>
<path d="M30 15.0002C30 14.6347 29.9862 14.2725 29.9606 13.9135L23.7438 7.69687L6.25617 14.5757L12.9471 21.2667L13.0348 21.5826L13.1484 21.468L13.1489 21.4685L13.0348 21.5826L20.4362 28.984C26.0331 26.8066 30 21.367 30 15.0002Z" fill="#0091C8"/>
<path d="M13.5432 17.1855L20.322 22.3035L23.7438 7.69687L6.25611 14.5757L11.5774 16.3383L21.2889 9.82406L13.5432 17.1855Z" fill="white"/>
<path d="M11.5774 16.3383L13.0348 21.5827L13.5432 17.1856L21.2889 9.82407L11.5774 16.3383Z" fill="#D2D2D7"/>
<path d="M15.7464 18.8489L13.0348 21.5827L13.5432 17.1855L15.7464 18.8489Z" fill="#B9B9BE"/>
</g>
<defs>
<clipPath id="clip0">
<rect width="30" height="30" fill="white"/>
</clipPath>
</defs>
</svg>
