<svg width="30" height="30" viewBox="0 0 30 30" fill="none" xmlns="http://www.w3.org/2000/svg">
<g clip-path="url(#clip0)">
<path d="M18.0004 0H11.9997C6.20913 0 1.49831 4.71082 1.49831 10.5013V15.0019C1.49831 19.0672 3.84288 22.7565 7.49907 24.4918V29.5038C7.49907 29.9389 8.04346 30.1665 8.35272 29.8574L12.7068 25.5033H18.0004C23.7908 25.5033 28.5017 20.7925 28.5017 15.0019V10.5013C28.5017 4.71082 23.7908 0 18.0004 0Z" fill="#665CAC"/>
<path d="M8.99924 24.4918C5.34305 22.7563 2.99848 19.0672 2.99848 15.0019V10.5013C2.99848 4.71082 7.70936 0 13.4998 0H11.9997C6.20913 0 1.49831 4.71082 1.49831 10.5013V15.0019C1.49831 19.0672 3.84288 22.7565 7.49907 24.4918V29.5038C7.49907 29.9389 8.04346 30.1665 8.35272 29.8574L8.99924 29.2109V24.4918Z" fill="#523494"/>
<path d="M22.5498 18.6387L22.1002 16.2032C22.063 16.002 21.9071 15.8437 21.7065 15.8036L18.1706 15.0964C18.0063 15.0637 17.8371 15.115 17.7188 15.2332L16.2823 16.6698C13.8619 15.5853 12.5186 14.239 11.3366 11.7148L12.7685 10.2829C12.8867 10.1647 12.938 9.99509 12.9053 9.83115L12.1981 6.29513C12.158 6.09456 11.9997 5.93859 11.7985 5.90144L9.36298 5.45191C9.2963 5.43966 9.22763 5.44095 9.16142 5.45601C8.51836 5.60208 7.9316 5.92611 7.46455 6.39327C6.65584 7.20199 6.34675 8.38206 6.57082 9.80595C6.94693 12.1969 8.11834 15.5243 10.2796 17.6943L10.3091 17.7235C12.4773 19.8833 15.8048 21.0548 18.1959 21.431C18.4971 21.4784 18.7872 21.5019 19.0654 21.5019C20.1022 21.5019 20.9709 21.1748 21.6087 20.5372C22.0757 20.0701 22.3999 19.4833 22.5459 18.8403C22.5607 18.7741 22.5621 18.7055 22.5498 18.6387Z" fill="white"/>
<path d="M12.2795 10.7718L12.7684 10.2829L12.769 10.2823L12.2795 10.7718L12.2795 10.7718Z" fill="#E5E5E5"/>
<path d="M17.7188 15.2327L17.2251 15.7264L17.2252 15.7265L17.7189 15.2328L17.7188 15.2327Z" fill="#E5E5E5"/>
<path d="M20.0082 20.5589C19.73 20.5589 19.4399 20.5354 19.1386 20.4879C16.7476 20.1117 13.4201 18.9402 11.2519 16.7805L11.2223 16.7512C9.06111 14.5813 7.88971 11.2539 7.51359 8.8629C7.3326 7.71253 7.49994 6.72141 7.99734 5.95659C7.80686 6.08368 7.62809 6.22946 7.46432 6.39323C6.65561 7.20194 6.34653 8.38202 6.57059 9.80591C6.9467 12.1969 8.11811 15.5243 10.2793 17.6942L10.3089 17.7235C12.4771 19.8832 15.8045 21.0547 18.1956 21.4309C18.4969 21.4784 18.787 21.5019 19.0652 21.5019C20.102 21.5019 20.9706 21.1749 21.6084 20.5371C21.7721 20.3733 21.9179 20.1946 22.045 20.0041C21.4803 20.3714 20.7925 20.5589 20.0082 20.5589Z" fill="#E5E5E5"/>
<path d="M16.0001 8.50107C15.724 8.50107 15.5001 8.72495 15.5001 9.00111C15.5001 9.27726 15.724 9.50115 16.0001 9.50115C17.1031 9.50115 18.0004 10.3985 18.0004 11.5014C18.0004 11.7739 18.228 12.0015 18.5005 12.0015C18.7729 12.0015 19.0005 11.7739 19.0005 11.5014C19.0005 9.84697 17.6546 8.50107 16.0001 8.50107Z" fill="white"/>
<path d="M16.0001 6.50079C15.8152 6.50079 15.6285 6.51105 15.4452 6.53126C15.1707 6.56156 14.9727 6.80865 15.003 7.08322C15.0333 7.35779 15.2809 7.55525 15.5549 7.52542C15.7019 7.50919 15.8517 7.50093 16.0001 7.50093C18.206 7.50093 20.0006 9.29554 20.0006 11.5014C20.0006 11.65 19.9924 11.7997 19.9761 11.9467C19.9462 12.2174 20.1475 12.4688 20.4183 12.4986C20.6892 12.5284 20.9403 12.3273 20.9703 12.0564C20.9905 11.8731 21.0008 11.6865 21.0008 11.5014C21.0008 8.74411 18.7575 6.50079 16.0001 6.50079Z" fill="white"/>
<path d="M16.0006 4.50058C15.8218 4.50058 15.6408 4.50738 15.4627 4.52091C15.1873 4.54177 14.981 4.78201 15.0018 5.05734C15.0226 5.33273 15.2637 5.5391 15.5382 5.51824C15.6914 5.50658 15.8469 5.50072 16.0006 5.50072C19.3094 5.50072 22.0013 8.19263 22.0013 11.5015C22.0013 11.9696 21.9473 12.4357 21.8408 12.8866C21.7797 13.145 21.9388 13.4136 22.195 13.4838C22.4646 13.5577 22.7499 13.3886 22.8141 13.1167C22.9384 12.5904 23.0015 12.047 23.0015 11.5015C23.0015 7.64115 19.8609 4.50058 16.0006 4.50058Z" fill="white"/>
</g>
<defs>
<clipPath id="clip0">
<rect width="30" height="30" fill="white"/>
</clipPath>
</defs>
</svg>
