<svg xmlns="http://www.w3.org/2000/svg" xmlns:xlink="http://www.w3.org/1999/xlink" viewBox="0 0 50 50">
  <defs>
    <style>
      .a {
        fill: url(#a);
      }

      .b {
        fill: #fff;
      }
    </style>
    <linearGradient id="a" data-name="Безымянный градиент 39" x1="25" y1="50" x2="25" gradientUnits="userSpaceOnUse">
      <stop offset="0" stop-color="#201600"/>
      <stop offset="1" stop-color="#2a2a2a"/>
    </linearGradient>
  </defs>
  <title>icon-1</title>
  <g>
    <polygon class="a" points="42 0 8 0 0 8 0 42 8 50 42 50 50 42 50 8 42 0"/>
    <g>
      <path class="b" d="M25.94153,7.41105l.557-.61265L24.51993,5,21.156,8.70038l3.36394,3.70126,1.97859-1.7984-.46663-.51353a14.9555,14.9555,0,0,1,3.55725,29.15646l.81911,2.54526A17.626,17.626,0,0,0,25.94153,7.41105Z"/>
      <path class="b" d="M21.97336,39.39676l.269.296A14.95556,14.95556,0,0,1,18.2621,11.63736L17.05562,9.25052a17.6338,17.6338,0,0,0,5.583,33.21939l-.66526.73169L23.952,45l3.36394-3.70038L23.952,37.59836Z"/>
    </g>
  </g>
</svg>
