<svg xmlns="http://www.w3.org/2000/svg" viewBox="0 0 1800 644.12349">
  <defs>
    <style>
      .a {
        fill: #fff;
      }
    </style>
  </defs>
  <title>logo-white</title>
  <g>
    <path class="a" d="M22.92843,20.3283H47.27512c3.782,0,7.80039,1.41826,12.29153,4.01839,2.36376,0,6.38214-1.41826,12.29153-4.01839,2.83651,0,4.01839.70913,4.01839,2.12738,13.70978-1.41825,23.87394-2.12738,30.72883-2.12738h73.51281c3.782,0,7.09127,8.27315,10.16416,24.58306V75.64019a104.3244,104.3244,0,0,1-2.12738,20.3283L190.28237,108.26l-1.891,12.29153,2.12738,18.4373a104.61724,104.61724,0,0,1-2.12738,18.43729,263.72036,263.72036,0,0,1,2.12738,34.74721c0,7.8004-.70913,12.52791-2.12738,14.4189a104.61744,104.61744,0,0,1,2.12738,18.43731V253.631c.23638,2.8365,1.65463,4.01838,4.01838,4.01838q2.48193,0,143.00722-171.60868L388.60146,22.692c.70914,0,3.30925-.70912,8.27315-2.12738,2.8365,0,4.01837.70913,4.01837,2.12738l14.41893-2.12738h47.03873A243.00235,243.00235,0,0,1,490.9521,22.692c2.36376-1.41825,5.673-2.12738,10.16416-2.12738A16.58858,16.58858,0,0,1,509.3894,22.692a243.00132,243.00132,0,0,1,28.60147-2.12738h26.47405l14.41893,4.01839c4.49112-2.83651,8.50954-4.01839,12.29152-4.01839h6.14578c2.12737,0,4.01838,2.12738,6.14578,6.14577v2.12738L484.57,169.71768c-13.94615,16.78267-31.67432,37.111-53.18451,61.22129-43.4931,51.52986-65.476,79.42219-65.476,83.677q0,2.48193,145.13463,194.06438l95.96851,126.69733V637.505c0,2.12737-2.12737,4.01842-6.14578,6.14578-4.01838,0-6.14578-.70909-6.14578-2.12736-13.70979,1.41827-23.87395,2.12736-30.72883,2.12736h-3.782c-23.87395,0-38.76559-.70909-44.91137-2.12736q-23.04662,2.1274-53.1845,2.12736H398.76562q-15.24624,0-65.476-79.65856c-8.74589-8.74589-28.60146-35.45634-59.33027-79.65857-11.81878-16.78268-20.09193-26.23771-24.58307-28.60146h-5.90939q-53.18451,54.60273-53.18451,67.367V611.031L188.155,623.32254c1.41825,2.36376,2.12738,5.90939,2.12738,10.16412-2.12738,6.85488-6.85489,10.16412-14.4189,10.16412H139.22523a152.4072,152.4072,0,0,1-22.45568-2.12736c-2.83651,1.41827-4.72752,2.12736-6.14577,2.12736-2.8365-1.41826-4.72751-2.12736-6.14576-2.12736l-12.29153,2.12736c-4.49114-2.83653-7.80039-4.01841-10.16415-4.01841-4.49114,2.83654-8.50952,4.01841-12.29153,4.01841H39.002c-4.01838,0-9.455-2.12736-16.30991-6.14578l-12.29153,6.14578C3.54564,641.52342.23639,636.79591.23639,629.23186V418.85758a104.61628,104.61628,0,0,1,2.12738-18.4373C.94551,398.76566.23639,394.03814.23639,386.00135v-40.893a104.32383,104.32383,0,0,1,2.12738-20.32832,70.59748,70.59748,0,0,1-2.12738-18.4373V298.0696a104.32371,104.32371,0,0,1,2.12738-20.3283L.23639,265.44978,2.36376,232.83.23638,224.55681a1.88035,1.88035,0,0,1,2.12738-2.12738L.23638,208.01052V42.54761A81.60223,81.60223,0,0,0,0,33.80171s.47275-5.43664,1.41825-7.32764A14.8969,14.8969,0,0,1,6.38214,21.2738c1.891-1.18187,6.85489-1.891,6.85489-1.891ZM10.6369,106.369v4.01838l2.12738,4.01839,10.16415-2.12738H49.4025c1.65463,0,5.20027,4.01838,10.16415,12.29153H61.694l18.4373-12.29153c0-5.673-15.60079-9.21865-47.03874-10.16415C31.438,102.11426,23.87394,103.53251,10.6369,106.369Zm0,106.13264c1.41826,2.8365,2.12738,4.72751,2.12738,6.14576h8.27315v-6.14576c0-2.8365-1.41826-4.01838-4.01839-4.01838ZM20.80105,594.721l6.14577,4.01838c9.455-3.30925,14.41891-8.27315,14.41891-14.41893L35.22,580.30208C25.52856,580.30208,20.80105,585.02959,20.80105,594.721Zm6.14577-445.568c.23637,2.8365,1.65463,4.01837,4.01838,4.01837,2.83651,0,4.01839-1.41825,4.01839-4.01838,0-2.83651-1.41826-4.01839-4.01839-4.01839C28.36507,145.371,26.94682,146.78924,26.94682,149.153ZM41.12935,398.52927v2.12736c0,2.12737,2.12738,4.01838,6.14577,6.14578h4.01839c2.12738,0,6.14576-4.01838,12.29153-12.29152,0-2.8365-1.41826-4.01838-4.01839-4.01838H49.4025C47.27512,390.25612,44.675,393.09262,41.12935,398.52927Zm10.40053-171.6087h2.12738c2.12738,0,4.72751-2.8365,8.27314-8.27315v-6.14576H59.803C54.13,214.62905,51.52988,219.35656,51.52988,226.92057Zm1.891,349.36313c2.8365,1.41827,4.72751,2.12737,6.14576,2.12737,4.49114-2.8365,8.50952-4.01838,12.29153-4.01838h8.27315c0-2.8365.70912-4.01838,2.12738-4.01838a19.0667,19.0667,0,0,0-10.16414-12.29152C59.56665,559.501,53.42089,565.6468,53.42089,576.2837ZM59.56665,596.612v4.01838c0,2.12737,2.83651,4.72748,8.27315,8.27311h4.01838c3.07288,0,6.38215-6.14578,10.16415-18.4373l-6.14576-4.01838H69.7308C68.07617,586.44786,64.76691,589.75711,59.56665,596.612Zm4.25476-259.54037v8.27315H67.8398c8.27314-8.27315,13.70978-12.29153,16.30992-12.29153v-6.14578C73.98556,326.90745,67.13067,330.45309,63.82141,337.07161Zm1.891-185.79123v4.01838l18.4373,14.41891c2.83651,0,4.01838-1.41825,4.01838-4.01838v-8.27315C88.16809,154.35327,80.84045,152.22589,65.71241,151.28038Zm18.4373,263.55879V420.985c0,3.07289,3.30926,5.20025,10.16415,6.14578l4.01838-6.14578c0-2.12737-2.12738-4.01838-6.14576-6.14578ZM86.27709,230.939v4.01838h8.27315V230.939c0-2.8365-1.41825-4.01838-4.01839-4.01838C87.459,227.15694,86.27709,228.57519,86.27709,230.939Zm6.14576,85.80435v2.12736h6.14577v-6.14578H96.44123C93.60473,312.96127,92.42285,314.37954,92.42285,316.7433Zm8.03678,249.37625,6.14576,4.01837h2.12738l4.01839-2.12736-2.12738-4.01838c0-1.41827,4.72751-6.14578,14.4189-14.41893v-2.12736l-2.12737-3.782C115.11492,543.66386,107.5509,550.99152,100.45963,566.11955ZM104.478,153.17139l-2.12738,4.01838v4.01838H106.369c2.83651,0,4.01838-1.41825,4.01838-4.01838Zm2.12738,47.03873L104.478,204.2285v2.12738h6.14576V204.2285C110.62378,201.62839,109.4419,200.21012,106.60539,200.21012Zm18.4373,377.9646-2.12738,8.27314c1.41825,2.8365,2.12738,4.72751,2.12738,6.14578l-4.01838,2.12737-14.41891-2.12737A1.88035,1.88035,0,0,1,104.478,594.721c2.36376,6.85488,6.38215,10.16416,12.29154,10.16416.70912,0,3.30926-.70914,8.27314-2.12737,4.49114,2.8365,8.50952,4.01838,12.29154,4.01838h2.12738c0-1.41827.70912-3.30925,2.12738-6.14578-5.43663-14.89167-8.7459-22.45568-10.16415-22.45568Zm8.03677-523.09921v6.14577h4.01838V55.07551ZM135.20684,380.092c0,.94549,3.30926,4.49112,10.16415,10.16416v2.12737l-6.14576,8.27314V404.675c.9455,8.27314,3.07288,12.29152,6.14576,12.29152,2.83651,0,7.564-10.16416,14.41891-30.72882-2.36376-6.85488-7.8004-10.16416-16.30992-10.16416h-4.01839C136.62509,376.30994,135.20684,377.72821,135.20684,380.092ZM145.371,469.91469c9.455,11.346,14.41891,17.96456,14.41891,20.32831a1.88037,1.88037,0,0,0-2.12739,2.12737l4.01838,2.12736c4.01838,0,7.564-6.85487,10.16416-20.32831v-2.12737c0-2.12736-2.12738-4.01837-6.14576-6.14578H151.28038Zm8.27315,114.40577v4.01838c0,3.782,1.41825,7.8004,4.01837,12.29152-1.41825,2.8365-2.12738,4.72748-2.12738,6.14575l4.01838,2.12736,14.41891-10.16416c-1.65463-13.70979-5.90939-22.45568-12.29153-26.47406C156.24426,573.4472,153.64414,577.70194,153.64414,584.32046Zm4.01837-398.29288V188.155h2.12739c9.455-6.8549,14.41891-13.00066,14.41891-18.4373l-6.38214-4.25475C163.80829,165.46292,160.499,172.31781,157.66251,186.02758Zm32.85621,296.17863v4.01838h10.16416v-4.01838c0-2.8365-1.41825-4.01838-4.01838-4.01838h-2.12738C191.7006,478.42419,190.51872,479.84245,190.51872,482.20621Zm71.38544-187.9186,6.14577,4.01838,4.01837-6.14576c0-2.8365-1.41825-4.01838-4.01837-4.01838C265.92254,288.14185,264.03153,290.26924,261.90416,294.28761Zm8.27315,14.18254v2.12737a159.83993,159.83993,0,0,1,34.74721,36.8746c2.12736,0,4.01837-2.12736,6.14578-6.14578q-8.155-16.30993-34.74721-36.8746h-2.1274C271.35919,304.92452,270.17731,306.10639,270.17731,308.47015Zm4.01838,98.09587v4.01838h4.01838c2.8365,0,4.01837-1.41827,4.01837-4.01838v-4.01838h-4.01837C275.61394,402.784,274.19569,404.20226,274.19569,406.566Zm2.12738,65.476,4.01838,2.12737h2.12738v-6.14574h-2.12738C277.505,468.26007,276.32307,469.6783,276.32307,472.04205Zm36.6382-329.03482,2.12737,4.01839V149.153c0,2.83651-1.41827,4.01839-4.01838,4.01839-4.49112-2.83651-8.50952-4.01839-12.29152-4.01839q-6.02757,0-16.30992,18.4373c1.41825,2.8365,2.12738,4.72751,2.12738,6.14576h2.12738q3.54564,0,32.61983-16.30992,11.346-2.12738,16.3099-2.12738c18.4373,9.455,30.01969,14.41891,34.7472,14.41891h4.01838c2.8365,0,4.01838-1.41825,4.01838-4.01838v-4.01838l-6.14578-8.27315,2.12736-12.29153c-1.41826,0-3.30924-.70912-6.14578-2.12738,0,1.65463-3.30924,5.20026-10.16415,10.16415h-6.14578c-8.74589-8.27315-16.30991-12.29154-22.45569-12.29154h-4.01837C320.52532,136.86147,316.50691,138.98885,312.96127,143.00723ZM298.77875,402.54764c.23638,2.8365,1.65463,4.01838,4.0184,4.01838h2.12737c2.12736,0,4.72751-2.8365,8.27314-8.27315,0-2.83649-1.41827-4.01837-4.01838-4.01837h-2.12736C304.92452,394.2745,302.088,397.111,298.77875,402.54764Zm0,89.82273c.23638,2.8365,1.65463,4.01838,4.0184,4.01838h2.12737c2.8365,0,4.01837-1.41827,4.01837-4.01838,0-2.8365-1.41826-4.01838-4.01837-4.01838h-2.12737C299.96063,488.82473,298.77875,490.00661,298.77875,492.37037Zm8.03678-298.306c0,1.41825-.70914,3.30926-2.12737,6.14576l8.27315,6.14576h2.12736c2.8365,0,4.01838-1.41825,4.01838-4.01838v-2.12738c0-2.12738-2.12736-4.01838-6.14578-6.14576Zm4.25477,165.46293v14.41893c0,3.07289,5.43664,5.90939,16.3099,8.27314l2.12736-4.01837v-4.01838c-6.38213-9.455-10.6369-14.41893-12.29152-14.41893H311.0703Zm14.18253-187.91861v2.12738c2.8365,0,4.01838.70914,4.01838,2.12739,6.85488-1.65463,10.16416-3.782,10.16416-6.14577,0-2.8365-1.41827-4.01837-4.01838-4.01837h-4.01838C329.27121,165.46292,327.3802,167.5903,325.25283,171.60868Zm2.12737,173.73608c0,3.782,3.30924,7.09126,10.16415,10.16415l2.12737-4.01837v-2.12737c0-2.12737-2.12737-4.01838-6.14578-6.14578h-2.12737Zm6.14578-151.2804,6.14578,10.16416c6.14578-2.8365,9.455-5.43665,10.16415-8.27315V191.937c0-2.8365-1.41826-4.01838-4.01837-4.01838h-6.14578C337.54435,187.9186,335.417,190.046,333.526,194.06436Zm0,198.31913c4.49112,13.70979,11.346,20.32831,20.32831,20.32831h2.12737v-4.01838l-16.3099-20.32831h-2.12737C334.70785,388.60146,333.526,390.01973,333.526,392.38349ZM337.54435,257.413v10.16416c0,2.12739,2.12737,4.01838,6.14578,6.14576h10.16416v-4.01837c-6.85488-5.20026-10.16416-9.21866-10.16416-12.29153h-6.14578Zm4.01838,241.10309v8.27315a1.88034,1.88034,0,0,1,2.12737,2.12736l4.01838-2.12736H362.1274v-6.14578l-14.41892-2.12737Zm8.27315-206.35588c.23639,2.8365,1.65462,4.01838,4.01838,4.01838,2.8365,0,4.01837-1.41825,4.01837-4.01838,0-2.8365-1.41826-4.01838-4.01837-4.01838C351.25415,288.37822,349.83588,289.79647,349.83588,292.16023ZM429.49445,67.367l-2.12737,4.01839,2.12737,10.16415c-2.8365,1.41825-4.72752,2.12738-6.14578,2.12738l-8.27315-4.01838c-1.65462,0-6.38213,5.43663-14.41893,16.30992-2.8365,0-4.72751-5.43664-6.14577-16.30992L388.365,75.64019,378.20088,90.0591,392.6198,106.369c0,8.27314,2.12737,12.29153,6.14578,12.29153l14.41893-18.43729h6.14578c2.12736,0,4.01838,2.8365,6.14578,8.27314l-6.14578,10.16415c2.8365.23637,4.01838,1.65463,4.01838,4.01839,4.72751-3.07288,17.72817-7.09127,38.76558-12.29154l2.12737-8.27314c-13.7098-6.8549-20.32832-10.87328-20.32832-12.29153C443.677,78.71307,438.94947,71.14905,429.49445,67.367Zm-49.16613,429.2581v4.01837h4.01837v-4.01837Zm24.58308-339.199c-2.12737,1.65462-4.01838,9.92777-6.14578,24.58307-2.8365.23637-4.01838,1.65462-4.01838,4.01837,0,2.12739,2.8365,4.72752,8.27315,8.27315h6.14578c0-12.29152,7.564-18.4373,22.45568-18.4373l2.12736-4.01838C433.51282,167.11754,424.0578,162.39,404.9114,157.42614ZM400.893,519.08082c1.41827,4.01838,5.43665,6.14578,12.29152,6.14578,3.782,0,7.09127-3.30925,10.16416-10.16416l-4.01838-2.12737C407.03876,513.88053,400.893,516.00793,400.893,519.08082Zm12.29152-294.28763v4.01837h6.14578v-4.01837ZM433.51282,55.07551c1.41827,4.49114,4.01838,7.09127,8.27315,8.27315,3.30924,0,8.27315-2.12738,14.41893-6.14577-2.8365-6.14577-5.43665-9.455-8.27315-10.16415H441.786C439.6586,47.03874,437.05846,49.63887,433.51282,55.07551Zm18.43731,110.38741-4.01838,6.14576c.23639,2.8365,1.65462,4.01838,4.01838,4.01838h8.27314v-8.27315Zm0-95.9685V71.6218c.23639,2.83651,1.65462,4.01839,4.01838,4.01839h10.16415c2.12737,0,4.01838-2.12738,6.14578-6.14577-1.41827-2.83651-2.12736-4.72751-2.12736-6.14576H457.85955C455.96851,63.34866,454.07753,65.476,451.95013,69.49442Zm10.16416,451.47737v4.01838h4.01837v-4.01838ZM484.57,28.60145,482.4426,38.7656l10.16416,6.14577,6.14578-8.27315V34.51084c0-2.12738-2.12737-4.01838-6.14578-6.14576H484.57Zm8.27314,26.47406-2.12736,10.16415c0,1.65463,2.12736,7.09127,6.14578,16.30992a104.61517,104.61517,0,0,0-2.12737,18.43729c1.41827,0,3.30924.70913,6.14578,2.12739.23639-2.83651,1.65462-4.01839,4.01838-4.01839L502.771,89.82273c0-.94551.70914-5.20027,2.12737-12.29154-2.8365-4.49113-4.01838-8.50952-4.01838-12.29153l2.12737-4.01839c-1.41827-2.83651-2.12737-4.72751-2.12737-6.14576Zm6.14578,470.151-4.01838,6.14578c0,2.12737,2.8365,4.72751,8.27315,8.27315H505.371l6.14578-4.01838C509.153,528.53584,505.13464,525.22656,498.98889,525.22656Zm16.3099-464.00528c0,2.83651-.70913,4.01838-2.12736,4.01838,1.41827,5.43664,4.72751,8.27315,10.16416,8.27315.23639-2.83651,1.65462-4.01839,4.01837-4.01839-2.12736-5.43663-4.01837-8.27314-6.14578-8.27314Zm26.47406,0L529.48133,77.53119v2.12739c0,2.12738,2.12737,4.01838,6.14578,6.14576L550.046,69.49442V67.367C550.046,65.476,547.2095,63.34866,541.77285,61.22128Zm24.58309-30.49245C563.04669,37.58372,557.61005,40.893,550.046,40.893c0-2.12738-2.8365-4.72752-8.27314-8.27315l-4.01838,6.14577c15.36441,9.455,25.52857,14.41891,30.72883,14.41891h2.12736c5.43665-2.36376,8.27315-7.09127,8.27315-14.41891C571.79255,33.329,567.77417,30.72883,566.35594,30.72883Z"/>
    <path class="a" d="M670.12481,20.3283h18.43726c9.92781,2.83651,15.36442,4.01839,16.30991,4.01839,3.782,0,7.80036-1.41826,12.29156-4.01839l8.27314,2.12738a16.58873,16.58873,0,0,0,8.27315-2.12738q20.91921,2.12739,32.6198,2.12738h12.29156q20.56464,0,48.92978-2.12738a15.96857,15.96857,0,0,0,8.27314,2.12738c.7091,0,3.30925-.70913,8.27315-2.12738l10.16412,2.12738c.94549,0,5.20029-.70913,12.29156-2.12738,6.85488,4.01839,12.29156,6.14577,16.3099,6.14577l20.32832-6.14577h4.01841a217.97131,217.97131,0,0,1,40.893,4.01839c11.346-2.83651,23.40117-4.01839,36.87461-4.01839q4.96386,0,16.3099,2.12738c.7091,0,3.30924-.70913,8.27314-2.12738l20.32832,2.12738c7.09127-1.41825,11.346-2.12738,12.29156-2.12738,2.36376,1.41826,5.673,2.12738,10.16412,2.12738,2.83654-1.41825,4.72751-2.12738,6.14578-2.12738,0,1.65463,3.30924,5.20026,10.16412,10.16415.7091,0,4.72751-3.30925,12.29156-10.16415h65.476c19.14644,2.83651,28.60146,8.27315,28.60146,16.30992V67.367c0,7.8004-.7091,12.52791-2.12737,14.41891a104.61516,104.61516,0,0,1,2.12737,18.4373v22.45568c0,36.8746-4.72751,55.07551-14.41893,55.07551-2.36375,5.20025-23.40117,28.83781-63.34863,71.62181h-2.12736c-3.782,0-8.50954-8.27314-14.41893-24.58306-2.83653-1.41825-4.72751-2.12739-6.14578-2.12739l-22.45568,12.29153v2.12738l8.27315,8.27315c6.85487-4.01838,11.58239-6.14577,14.41892-6.14577l12.29156,18.43731v4.01837L948.10259,416.96653h-6.14578L929.66525,404.675l-4.01841,6.14578c4.01841,6.85488,6.14578,12.29152,6.14578,16.3099,0,5.90939-12.29156,23.40117-36.87461,53.18451,0,2.36375,6.14578,7.09127,18.43727,14.41892,7.564-6.85487,12.29156-10.16415,14.41892-10.16415,5.673,2.36375,11.81878,6.38213,18.43727,12.29152h6.14578L972.68557,484.57c5.43661,2.8365,10.16412,4.01837,14.41892,4.01837l8.27315-4.01837q11.34607,2.12739,16.3099,2.12736c1.41827,0,3.30924-.70913,6.14578-2.12736,2.83654,0,4.01841.70913,4.01841,2.12736,13.70976-1.41827,23.874-2.12736,30.72883-2.12736h51.05714q11.70055,0,32.61981,2.12736c1.65465-1.41827,6.38217-2.12736,14.41892-2.12736l10.16412,2.12736a15.96853,15.96853,0,0,1,8.27315-2.12736c6.85488,2.12736,10.16412,6.14578,10.16412,12.29152a172.52314,172.52314,0,0,1-2.12736,24.583c1.41826,14.89167,2.12736,28.60146,2.12736,40.893l-2.12736,12.29153a61.71629,61.71629,0,0,1,2.12736,16.3099v12.29152l-2.12736,12.29156a15.9686,15.9686,0,0,1,2.12736,8.27315c0,10.16412-3.30924,17.01907-10.16412,20.32831h-95.96851a104.32341,104.32341,0,0,1-20.32831-2.12736,70.59751,70.59751,0,0,1-18.43727,2.12736h-4.01841a152.40834,152.40834,0,0,1-22.45568-2.12736,15.96862,15.96862,0,0,1-8.27315,2.12736c-2.83654,0-4.01841-.7091-4.01841-2.12736l-24.58305,2.12736H932.26533c-4.49113,0-7.80037-.7091-10.16413-2.12736l-12.29156,2.12736H821.8779a152.40857,152.40857,0,0,1-22.45569-2.12736c-2.83653,1.41826-4.72751,2.12736-6.14578,2.12736q-4.96386,0-16.3099-2.12736c-17.96456,1.41826-33.09258,2.12736-44.91136,2.12736-1.41827,0-3.30924-.7091-6.14578-2.12736l-12.29156,2.12736H691.16215c-4.49112,0-9.21863-2.12736-14.41893-6.14578h-2.12736c-1.41827,0-6.85488,1.41827-16.3099,4.01842H647.66913c-2.12737,0-4.72752-2.83654-8.27315-8.27315V627.5772l2.12737-12.29156a15.96847,15.96847,0,0,1-2.12737-8.27314c0-1.41827.7091-3.30925,2.12737-6.14578L639.396,588.57519a104.61516,104.61516,0,0,1,2.12737-18.4373l-2.12737-4.01838c0-2.8365.7091-4.01838,2.12737-4.01838L639.396,541.77282V509.153c0-10.16416,19.85554-34.03807,59.33029-71.62181,1.65466,0,10.6369-8.74589,26.47409-26.47406h2.12737l8.27315,2.12736c1.65465,0,7.09126-4.01838,16.3099-12.29152-1.41827-4.01838-2.83654-6.14578-4.01842-6.14578-4.49112,2.8365-8.50953,4.01838-12.29156,4.01838l-2.12736-4.01838a586.05861,586.05861,0,0,0,40.893-43.02035c5.20029,0,11.346-8.27315,18.43726-24.583l124.57-136.86147v-4.01838c0-4.01838-7.564-8.27315-22.45568-12.29152l-12.29156,6.14576c-4.01841,0-6.14578-.70914-6.14578-2.12739l-24.583,2.12739H808.87717a104.32441,104.32441,0,0,1-20.32832-2.12739,70.59785,70.59785,0,0,1-18.43727,2.12739h-8.27314c-2.83654,0-9.455-1.41825-20.32832-4.01838-23.16478,2.8365-38.76558,4.01838-47.03873,4.01838H674.14308c-9.455,0-14.41893-4.01838-14.41893-12.29152,0-4.01838,1.41827-17.019,4.01842-38.76561-2.83654-4.49114-4.01842-8.50951-4.01842-12.29153l2.12737-14.41891a57.48678,57.48678,0,0,1-2.12737-14.4189c2.83654-4.49114,4.01842-7.8004,4.01842-10.16415-2.83654-4.49114-4.01842-7.80039-4.01842-10.16415s4.01842-7.09127,12.29156-14.41891V51.0571L661.85159,40.893V28.60142C662.088,26.47407,664.6882,23.87394,670.12481,20.3283ZM649.79649,568.01056l4.01842,2.12736c2.12736,0,6.14578-5.43664,12.29156-16.3099v-2.12736c0-2.8365-1.41827-4.01838-4.01842-4.01838h-2.12736C657.59693,547.68224,654.28761,554.53716,649.79649,568.01056Zm6.14578-47.03877-2.12736,4.01838c.23639,2.8365,1.65465,4.01838,4.01841,4.01838l2.12737-4.01838C659.96069,522.39006,658.54242,520.97179,655.94227,520.97179Zm8.03676,98.09587c4.49112,4.01842,7.80036,6.14578,10.16412,6.14578a28.10657,28.10657,0,0,0,14.41892-12.29155v-2.12737c0-2.36376-4.01841-5.20029-12.29155-8.27315C668.23383,605.5943,663.979,611.03091,663.979,619.06766Zm12.29156-492.37035v6.14577l10.16412-2.12739a104.32431,104.32431,0,0,0,20.32831,2.12739l4.01842-6.14577v-6.14576H706.763C689.27124,124.56994,679.10705,126.69731,676.27059,126.69731Zm0,412.71179v2.12736l2.12736,4.01838c4.01842-.94549,6.85488-3.782,8.27315-8.27314l-4.01841-2.12737h-2.12737Q676.27063,535.8635,676.27059,539.4091ZM678.398,98.09587v6.14576h2.12737c2.83654,0,4.01841-1.41825,4.01841-4.01838l-4.01841-2.12739Zm18.43727-44.91136c.23639,2.83651,1.65466,4.01839,4.01841,4.01839,4.01842-.94551,6.85488-3.782,8.27315-8.27315l-4.01841-2.12738H702.981C700.85363,47.03874,698.72627,48.92975,696.83522,53.18451Zm1.891,16.30991v6.14577H704.872c2.83653,0,4.01841-1.41825,4.01841-4.01839V69.49442c0-2.83651-1.41827-4.01838-4.01841-4.01838h-2.12737C700.14454,65.71241,698.72627,67.13067,698.72627,69.49442Zm0,91.95012v6.14576c.23639,2.8365,1.65466,4.01838,4.01841,4.01838H704.872c2.12736,0,4.72751-2.8365,8.27314-8.27315v-2.12738c0-2.12739-2.12736-4.01838-6.14578-6.14576C701.56273,157.42614,698.72627,159.31715,698.72627,161.44454Zm2.12736,335.1806v4.01837H704.872v-4.01837ZM721.41834,163.5719v4.01838h2.12737V163.5719Zm1.891,429.02171,4.01841,2.12736,16.3099-16.3099c0-2.8365-1.41827-4.01838-4.01841-4.01838H735.6008C727.32773,578.88381,723.30932,585.02959,723.30932,592.59361Zm0,16.30993V612.922h4.01841v-4.01842ZM737.72824,71.6218l-10.16412-2.12738-2.12737,4.01839c5.2003,9.455,8.50954,14.41891,10.16413,14.41891h4.01841C754.51092,81.786,762.075,77.76757,762.075,75.64019V73.51281c-1.41827-2.83651-2.12736-4.72751-2.12736-6.14577h-2.12737C755.45641,67.367,748.60153,68.7853,737.72824,71.6218Zm-8.27314,44.91137-4.01842,6.14576,6.14578,4.01838,4.01842-6.14576Zm2.12736-69.49443v2.12738l2.12737,4.01839c6.14578-2.83651,9.455-5.43664,10.16412-8.27315V42.784l-2.12737-4.01838C735.60088,41.60211,732.29156,44.20224,731.58246,47.03874Zm6.14578,83.677,4.01842,6.14576c8.27314-3.07288,12.29156-5.673,12.29156-8.27314v-2.12739c0-2.83651-1.41827-4.01838-4.01842-4.01838C741.74658,125.27906,737.72824,128.11557,737.72824,130.7157Zm1.891,470.15105-2.12737,4.01838v2.12737h6.14578v-2.12737C743.874,602.04863,742.45575,600.86675,739.61922,600.86675Zm0-443.44061v6.14576h2.12736c14.89164-3.07289,22.45568-6.38213,22.45568-10.16415l-2.12736-4.01839A68.61456,68.61456,0,0,1,739.61922,157.42614ZM745.765,549.57325v8.27315h2.12736c2.12737,0,4.01842-2.12737,6.14578-6.14578l-4.01841-2.12737ZM774.36646,447.459c0,13.70979-8.27315,24.583-24.583,32.61983v2.12737c.23639,2.8365,1.65466,4.01838,4.01842,4.01838h2.12736c10.87329-10.87329,22.45568-19.14644,34.74724-24.583v-2.12736Q786.7761,447.459,774.36646,447.459Zm-16.3099,118.66054-2.12737,4.01837c.23639,2.8365,1.65466,4.01838,4.01842,4.01838,2.83653,0,4.01841-1.41827,4.01841-4.01838Zm2.12736-465.89629V106.369c2.83654,0,4.01842-1.41825,4.01842-4.01839ZM770.348,516.95342v6.14578h6.14578v-6.14578Zm6.14578-140.87984v6.14578c8.74593,2.8365,13.70976,4.01838,14.41893,4.01838l4.01841-6.14578c0-1.41827-3.30924-4.72751-10.16412-10.16416C779.094,371.81882,776.49382,373.94618,776.49382,376.07358ZM782.6396,69.49442c.23639,2.83651,1.65466,4.01839,4.01842,4.01839,2.12736,0,4.72751-2.83651,8.27314-8.27315V63.11229c0-2.83651-1.41826-4.01839-4.01841-4.01839C789.0217,59.33027,786.42163,62.63953,782.6396,69.49442ZM786.658,572.26533l-4.01842,6.14578v4.01837c.23639,2.8365,1.65466,4.01838,4.01842,4.01838,2.83653-1.41827,4.72751-2.12736,6.14578-2.12736v-6.14578C792.80373,576.2837,790.67636,574.1563,786.658,572.26533Zm2.12743-149.38941,4.01842,2.12737c1.65466,0,4.49112-6.85488,8.27314-20.32832,2.12737,0,4.01842-2.12736,6.14578-6.14578,0-2.8365-2.12736-4.01837-6.14578-4.01837C793.74921,394.2745,789.73087,403.96587,788.78538,422.87592Zm1.891,134.97048,4.01841,2.12737c2.12737,0,4.01842-2.12737,6.14578-6.14578v-6.14578h-4.01841C793.74921,547.68224,791.85824,550.99152,790.67636,557.8464Zm2.12737,57.20292c.23639,2.83654,1.65465,4.01842,4.01841,4.01842h4.01841c2.83654,0,4.01842-1.41827,4.01842-4.01842,0-2.83653-1.41827-4.01841-4.01842-4.01841h-4.01841C794.222,611.2673,792.80373,612.68557,792.80373,615.04932ZM794.93109,108.26v6.14576l10.16412,2.12739c10.63691-5.673,16.78269-10.63691,18.43727-14.41891V99.98687c0-2.12738-2.12736-4.01838-6.14578-6.14576L801.0768,108.26Zm42.784,423.11232H827.551c-7.09127-5.43664-13.237-8.27314-18.43727-8.27314h-8.27315c-2.12736,0-4.01841,2.12736-6.14578,6.14578v2.12736h4.01842c13.94614,0,23.40117,2.12737,28.60146,6.14578h8.27315c14.89163-5.20025,22.45568-9.21863,22.45568-12.29152,0-2.8365-1.41827-4.01838-4.01842-4.01838C851.66123,521.44457,846.22462,524.75382,837.71509,531.37234Zm-40.893-496.62513V38.7656h4.01841V34.74721Zm59.33029,271.83193C843.86087,328.32568,825.4236,339.199,801.07694,339.199v6.14578c0,3.782,8.27315,7.09126,24.583,10.16415,11.81878-10.87329,18.67366-16.3099,20.32832-16.3099l8.27314,4.01838c1.41827,0,3.30925-.70913,6.14578-2.12737l12.29156,2.12737c2.83654,0,4.01842-1.41827,4.01842-4.01838v-4.01838c-12.29156,0-18.43727-2.12736-18.43727-6.14578v-2.12736c6.85488-6.14578,10.16412-12.29152,10.16412-18.4373C867.49843,308.47015,863.2437,307.761,856.15243,306.57914ZM805.09529,437.29485l2.12736,8.27314q-2.12741,11.346-2.12736,16.30991h4.01841c3.782,0,7.09127-8.27315,10.16412-24.58305,0-2.12737-2.12736-4.01838-6.14578-6.14578h-2.12736C809.11363,431.14907,807.22265,433.27647,805.09529,437.29485Zm0,143.00723,4.01841,2.12737h2.12737c2.83653,0,4.01841-1.41827,4.01841-4.01838v-4.01838h-4.01841C809.11363,574.1563,807.22265,576.2837,805.09529,580.30208Zm2.12736-102.11425v6.14578h8.27315v-8.27314h-2.12737C810.5319,477.4787,808.40453,478.18783,807.22265,478.18783Zm4.01842-65.476c.23639,2.8365,1.65465,4.01838,4.01841,4.01838h2.12737c2.12736,0,4.01841-2.12737,6.14578-6.14578V408.457c0-2.8365-1.41827-4.01838-4.01842-4.01838C817.38677,404.675,814.55031,407.27515,811.24107,412.7118Zm6.1457,143.00723c.23639,2.8365,1.65466,4.01838,4.01842,4.01838h10.16412c2.83653,0,4.01841-1.41827,4.01841-4.01838v-2.12736c0-2.8365-1.41827-4.01838-4.01841-4.01838C822.11429,550.99152,817.38677,553.11889,817.38677,555.719Zm1.89105-404.43865v6.14576c0,3.07289,3.30925,5.20026,10.16412,6.14576,4.01842-5.43664,6.14578-9.455,6.14578-12.29153l-6.14578-4.01839h-6.14578C820.69609,147.49837,819.27782,148.91662,819.27782,151.28038Zm4.25473,453.60475c1.41827,2.83654,2.12737,4.72751,2.12737,6.14578h8.27314V607.0125c0-2.8365-1.41826-4.01838-4.01841-4.01838h-2.12736Zm8.03676-474.16943,6.14578,4.01839c2.12736,0,4.01841-2.12739,6.14578-6.14576,0-2.83651-1.41827-4.01839-4.01842-4.01839h-2.12736C835.82411,124.56994,833.69675,126.69731,831.56931,130.7157Zm6.14578,230.939c0,1.41827-.7091,3.30924-2.12737,6.14578,1.41827,2.8365,2.12737,4.72751,2.12737,6.14578h10.16412l2.12737-8.27315-6.14571-4.01841Zm-1.891,59.33029,4.01842,2.12736c7.09126,0,11.346-2.12736,12.29156-6.14578v-6.14578h-8.27322C841.26072,411.29353,838.42426,414.83917,835.82411,420.985Zm1.891-377.96459v6.14577h2.12736c2.83654,0,4.01842-1.41826,4.01842-4.01839V43.02036Zm0,451.47737,4.01841,2.12737h2.12737c4.01841-1.41827,6.14578-5.43665,6.14578-12.29152v-2.12737h-6.14578C839.84245,483.62448,837.71509,487.64286,837.71509,494.49773Zm4.2548-48.92974-2.12736,4.01838c.94548,4.01838,6.38217,6.14578,16.3099,6.14578l2.12736-4.01838C858.27979,448.16814,852.84311,446.04074,841.96989,445.568Zm0-345.34473V106.369h2.12737c2.83653,0,4.01841-1.41825,4.01841-4.01839l-4.01841-2.12738Zm16.3099-24.58307v4.01839h4.01842V75.64019Zm4.01835,55.07551-2.12737,4.01839a57.48692,57.48692,0,0,1,2.12737,14.41891h8.27314l10.16412-2.12739v-6.14576C875.29879,134.26134,869.15309,130.7157,862.29814,130.7157Zm8.27314,353.61788V488.352h4.01842c2.12736,0,4.01841-2.12736,6.14578-6.14578l-4.01842-2.12736H874.5897C871.75316,480.55159,870.57128,481.96982,870.57128,484.33358Zm1.891-182.00919v6.14576l8.27315,2.12737,4.01841-6.14578-6.14578-4.01838A13.42969,13.42969,0,0,1,872.46233,302.32439Zm8.27315,65.476c-3.07286,3.782-5.90939,11.346-8.27315,22.45568.23639,2.8365,1.65466,4.01838,4.01841,4.01838,9.21864-3.782,14.65532-7.8004,16.30991-12.29153C889.95411,373.94618,885.69938,369.21867,880.73548,367.80044Zm1.891-120.55157-2.12736,4.01838c2.36375,5.43664,7.09126,8.27314,14.41892,8.27314l2.12737-4.01838C894.918,250.08539,890.1905,247.24887,882.62645,247.24887Zm-1.891,265.68617v2.12736c.23639,2.8365,1.65465,4.01838,4.01841,4.01838,6.85488-1.65462,10.16412-3.782,10.16412-6.14578v-4.01838c-1.41827,0-3.30924-.70913-6.14578-2.12736C883.33562,508.91666,880.73548,510.80767,880.73548,512.935Zm4.01834-425.00332c.23639,2.83651,1.65466,4.01839,4.01841,4.01839C901.06379,87.459,907.2095,84.14972,907.2095,81.786V79.65858c0-2.83651-1.41827-4.01839-4.01842-4.01839C893.97252,79.4222,887.82674,83.44058,884.75382,87.93172Zm4.01841,334.9442c1.41827,4.01838,5.43661,6.14578,12.29156,6.14578,2.83654,0,4.01842-1.41827,4.01842-4.01838,0-2.12736-2.12737-4.01837-6.14578-6.14578h-6.14578C890.1905,419.33029,888.77223,420.51217,888.77223,422.87592ZM894.918,116.53317c0,4.01838,2.83654,6.14576,8.27315,6.14576,10.87329-3.30926,16.3099-6.14576,16.3099-8.27315v-4.01839a25.49138,25.49138,0,0,1-16.3099-6.14576h-2.12737C897.04538,105.65989,894.918,109.67828,894.918,116.53317Zm2.12737,220.53844L894.918,341.09v2.12736c.23639,2.8365,1.65466,4.01838,4.01842,4.01838h4.01841c2.83654,0,4.01841-1.41827,4.01841-4.01838V339.199Zm-2.12737,106.369c0,2.12736,2.12737,4.01838,6.14578,6.14578l4.01842-6.14578v-2.12737c0-2.8365-1.41827-4.01838-4.01842-4.01838C899.17274,437.29485,897.04538,439.42221,894.918,443.44063Zm30.72883-198.31915-10.16412-2.12738-4.01842,6.14576,4.01842,6.14576c16.3099-1.41825,24.583-4.01837,24.583-8.27314v-2.12739c0-2.8365-1.41826-4.01837-4.01841-4.01837h-4.01841Zm-10.1642-108.26-2.12736,4.01839c.23639,2.83651,1.65466,4.01839,4.01841,4.01839l2.12737-4.01839C919.50106,138.27972,918.08279,136.86147,915.48264,136.86147Zm1.89105,165.46292-4.01841,6.14576c.23639,2.8365,1.65466,4.01838,4.01841,4.01838h6.14578v-8.27315C922.33759,304.45177,920.21016,303.74264,917.37369,302.32439Zm0,118.66056v4.01837h4.01842V420.985Zm2.12737-85.80435c.23639,2.8365,1.65466,4.01838,4.01841,4.01838,2.83654,0,4.01842-1.41827,4.01842-4.01838v-4.25477h-4.01842C920.91933,331.39857,919.50106,332.81684,919.50106,335.1806ZM925.64684,216.52v2.12738c.23639,2.8365,1.65466,4.01838,4.01841,4.01838h2.12737c2.12736,0,4.01841-2.12738,6.14578-6.14576v-6.14576C929.66518,211.08341,925.64684,213.21078,925.64684,216.52Zm0,173.73608v2.12737c.23639,2.8365,1.65466,4.01837,4.01841,4.01837,4.01842-.94548,6.85488-3.782,8.27315-8.27314l-6.14578-4.01838C929.66518,384.11034,927.7742,386.23771,925.64684,390.25612Zm2.12736,147.262c0,2.8365-.70909,4.01837-2.12736,4.01837l6.14578,10.16416V553.828l-2.12737,14.41892,4.01842,2.12737c8.27314-2.8365,12.29156-8.27315,12.29156-16.3099-2.12737,0-6.85488-5.43665-14.41893-16.3099h-3.7821Zm0-433.27646c0,3.782,6.85488,7.8004,20.32832,12.29154l4.01841-6.14577c-6.85487-3.782-10.16412-6.38214-10.16412-8.27314V99.98687l4.01842-6.14576V91.71373c0-2.83651-1.41827-4.01839-4.01842-4.01839C939.82937,87.93172,935.10186,93.36836,927.7742,104.24163ZM960.394,126.69731l2.12736,10.16415-4.01841,2.12739h-2.12737c-7.09126-6.8549-13.237-10.16415-18.43726-10.16415H935.811l-6.14578,4.01839c0,4.01838,6.85488,8.27314,20.32832,12.29153,0,2.12738,2.12736,4.01838,6.14578,6.14576h2.12736c12.29156-9.92778,18.43727-18.67368,18.43727-26.47407v-2.12738c0-2.83651-1.41827-4.01839-4.01842-4.01839h-6.14577C964.41242,118.42417,962.52145,121.26068,960.394,126.69731ZM933.92,175.62707l-2.12736,4.01838v2.12738c.94549,4.01838,6.38217,6.14577,16.3099,6.14577v-4.01838C948.10252,181.30007,943.375,178.46357,933.92,175.62707Zm0-112.27841V67.367h2.12737V63.34866Zm10.16413,273.723L941.95674,341.09c.23639,2.8365,1.65466,4.01838,4.01841,4.01838l2.12737-4.01838C948.10252,338.48984,946.68425,337.07161,944.08411,337.07161Zm1.891,45.14772v4.01838c0,.94548,2.12737,3.07289,6.14578,6.14578,5.43661,0,9.455-6.14578,12.29156-18.43731C954.01191,373.94618,947.86613,376.78268,945.97515,382.21933Zm0,222.6658v4.01841c.23639,2.83654,1.65466,4.01842,4.01842,4.01842h6.14578c2.12736,0,4.01841-2.12737,6.14578-6.14578l-6.14578-4.01838Zm2.12737-335.18058v4.01838l4.01841,6.14576v4.01838a15.96836,15.96836,0,0,1-2.12736,8.27314c1.41827,2.8365,2.12736,4.72751,2.12736,6.14576h4.01842c4.49112,0,7.09127-10.16415,8.27314-30.72882l-6.14578-4.01838H954.2483C952.12086,263.55879,950.22989,265.68617,948.10252,269.70455Zm8.27315,265.68617-2.12737,4.01838v2.12736c1.41827,4.01838,5.43661,6.14578,12.29156,6.14578l2.12737-4.01838V541.5365C967.249,537.51809,962.99415,535.39072,956.37567,535.39072Zm1.891-296.415v6.14576c.23639,2.8365,1.65466,4.01838,4.01842,4.01838,2.12736,0,4.01841-2.12738,6.14578-6.14576v-4.01838c0-2.8365-1.41827-4.01838-4.01842-4.01838h-2.12736C959.68491,235.43009,958.26664,236.612,958.26664,238.97572Zm4.25481,390.49246c.23639,2.83653,1.65465,4.01841,4.01841,4.01841,14.89163-12.29156,22.45568-19.14644,22.45568-20.32831,0-2.83654-2.12737-4.01842-6.14578-4.01842C979.06774,609.37625,972.21279,615.99481,962.52145,629.46818Zm6.1457-447.69535c0,2.12739,2.12737,4.01838,6.14578,6.14577.23639-2.8365,1.65466-4.01838,4.01842-4.01838-1.41827-2.8365-2.12737-4.72751-2.12737-6.14576h-4.01841C969.849,178.2272,968.66715,179.40908,968.66715,181.77283Zm4.01842-87.69535c3.30924,9.455,6.14578,14.41891,8.27314,14.41891h4.01842V104.478c0-7.564-2.83654-12.29154-8.27315-14.41891C974.10384,90.29548,972.68557,91.71373,972.68557,94.07748Zm1.891,128.58832c.23639,2.8365,1.65466,4.01838,4.01842,4.01838l2.12736-4.01838v-4.01838H978.595C975.99481,218.8838,974.57654,220.30205,974.57654,222.6658ZM976.704,570.13792l-2.12736,4.01838v4.01838l8.27314,2.12737,2.12737-4.01838v-4.01838Zm0,24.58309c6.14578,4.01838,10.87329,6.14578,14.41893,6.14578l2.12736-4.01838c-1.41827-4.01838-5.43661-6.14578-12.29156-6.14578C978.12218,590.939,976.704,592.35725,976.704,594.721Zm6.14571-337.308-2.12737,4.01838v4.01838c8.27315,8.50952,12.29156,14.65528,12.29156,18.4373h6.14578c0-4.01837,2.83654-8.27314,8.27315-12.29152C1007.43281,269.70455,999.15966,264.977,982.84969,257.413Zm10.16419-136.86147c0,2.83651,4.72751,4.72751,14.41893,6.14576,10.87329-3.782,16.3099-8.50951,16.3099-14.4189-2.83654-1.41825-4.72751-2.12739-6.14578-2.12739-5.90939,3.30926-13.94615,6.14576-24.58305,8.27315Zm2.12737-85.80434v2.12738c0,2.12738,2.83653,4.72751,8.27314,8.27314h2.12737c4.01841-.9455,6.14578-6.38214,6.14578-16.30991l-4.01841-2.12738C999.15966,29.31057,995.14125,31.91071,995.14125,34.74721Zm28.60146,496.62513-14.41893-2.12736a147.10249,147.10249,0,0,1-14.41892,18.4373c.23639,2.8365,1.65466,4.01838,4.01841,4.01838,9.455-5.43665,16.3099-8.27315,20.32832-8.27315,8.27314,3.07289,12.29156,5.90939,12.29156,8.27315v10.16415c-3.782,6.85488-9.92781,10.16416-18.43727,10.16416v2.12737c0,2.12736,2.12737,4.01838,6.14578,6.14578h12.29156a104.6184,104.6184,0,0,0,18.43727-2.12737l10.16412,4.01838,2.12736-4.01838-10.16412-12.29152c.23639-2.8365,1.65466-4.01838,4.01842-4.01838l10.16412,2.12737q14.18253-18.43729,16.3099-18.43731l6.14578,4.01838h4.01841v-4.01838c-6.38217-9.455-10.6369-14.41892-12.29156-14.41892a33.3375,33.3375,0,0,1-16.3099,4.01838h-2.12736c-10.6369-13.7098-16.78268-20.32832-18.43727-20.32832h-6.14578C1030.12481,525.9357,1025.3973,531.37234,1023.74271,531.37234ZM1001.287,186.02758l-4.01842,6.14577,8.27315,6.14576h4.01841l4.01842-2.12739C1011.45115,189.33685,1007.43281,186.02758,1001.287,186.02758Zm1.891,108.26-6.14578,8.27315v2.12737c2.83654,9.455,4.01842,14.89167,4.01842,16.3099v6.14578c1.41827,0,3.30924.70913,6.14578,2.12736,10.87329-5.20025,16.3099-11.81878,16.3099-20.32831v-4.01838C1020.66978,304.45177,1013.81491,301.14251,1003.178,294.28761ZM999.15966,81.786v2.12739l2.12737,4.01838c2.83653-1.41825,4.72751-2.12738,6.14578-2.12738V81.786c0-2.83651-1.41827-4.01839-4.01842-4.01839C1000.57786,78.004,999.15966,79.4222,999.15966,81.786Zm2.12737,18.43731c.23639,2.8365,1.65466,4.01838,4.01841,4.01838l4.01842-6.14576-4.01842-2.12738C1002.7053,96.44124,1001.287,97.8595,1001.287,100.22326Zm6.14578,394.27447c.94549,10.8733,5.673,16.30991,14.41892,16.30991,5.43661-2.12737,8.27315-4.01838,8.27315-6.14578,0-1.65463-5.43661-5.673-16.3099-12.29153C1010.74205,493.7886,1008.851,494.49773,1007.43281,494.49773Zm6.14571,94.0775-2.12737,4.01838V596.612l4.01841,6.14578v2.12737l-6.14578,8.27315v2.12736c0,2.12737,2.12737,4.01841,6.14578,6.14578h2.12737c2.12737,0,4.01841-2.12737,6.14578-6.14578l-2.12737-10.16416c2.83654-1.41826,4.72752-2.12736,6.14578-2.12736,2.83654,1.41827,4.72752,2.12736,6.14578,2.12736l4.01842-6.14578C1037.92525,594.95736,1029.88849,591.64812,1013.57852,588.57523Zm0-455.73214v6.14576l2.12736,4.01838c2.83654-1.41825,4.72751-2.12738,6.14578-2.12738v-4.01839c0-2.83651-1.41827-4.01838-4.01841-4.01838Zm8.03682,147.02562-2.12736,4.01837v4.01838l10.16412,2.12739h6.14578c2.12737,0,4.01841-2.12739,6.14578-6.14577,0-2.8365-2.12737-4.01837-6.14578-4.01837l-8.27315,2.12738A12.81876,12.81876,0,0,0,1021.61534,279.86871Zm0-220.53844v4.01839c.23639,2.83651,1.65466,4.01839,4.01842,4.01839l2.12736-4.01839V59.33027Zm2.12737,18.20092-2.12737,4.01839V83.677c4.01842,14.41891,9.455,23.16481,16.30991,26.47407h6.14578c0-12.29153,4.01841-18.43729,12.29155-18.43729V85.568c-.94548,0-5.20029.70912-12.29155,2.12738C1032.25225,81.07683,1025.3973,77.53119,1023.74271,77.53119Zm2.12737,179.88183v2.12739c0,2.12738,2.12736,4.01838,6.14578,6.14576,3.782,0,7.09126-3.30926,10.16412-10.16416l-6.14578-4.01837h-4.01842C1029.88849,251.26726,1027.76105,253.39463,1025.87008,257.413Zm10.16412-95.96848-6.14578,8.27314v2.12739l4.01841,6.14576c2.12737,0,5.43661-2.8365,10.16412-8.27315C1043.12547,165.46292,1040.289,162.86279,1036.0342,161.44454Zm-2.12737,461.87793-2.12736,4.01841c0,2.12737,2.12736,4.01842,6.14578,6.14578,2.83653,0,4.01841-1.41827,4.01841-4.01841v-4.01842ZM1109.547,108.26a15.96867,15.96867,0,0,0-8.27314-2.12738l-26.474,14.41891c0,2.83651-.7091,4.01839-2.12736,4.01839,2.83653,5.43664,4.01841,9.455,4.01841,12.29153l-4.01841,2.12739c-5.43661-1.65463-8.27315-7.8004-8.27315-18.4373v-2.12738l4.01841-6.14576c0-2.83651-1.41826-4.01839-4.01841-4.01839-15.6008,12.29153-25.29222,18.43729-28.60146,18.43729v6.14577c0,2.12738,2.12737,4.01838,6.14578,6.14576a15.96871,15.96871,0,0,1,8.27315-2.12739c6.38216,9.455,10.6369,14.41891,12.29155,14.41891l6.14578-4.01839c3.782,0,7.80037,1.41825,12.29156,4.01839,10.16413-21.74656,18.43727-32.61983,24.583-32.61983l8.27315,4.01839q0-1.41827,16.3099-16.30992c0-2.12739-2.12737-4.01839-6.14578-6.14576ZM1042.18,57.2029v4.01838h22.45568c2.83653,0,4.01841-1.41825,4.01841-4.01838-1.41827,0-7.564-4.01839-18.43726-12.29154h-2.12737C1044.071,46.32962,1042.18,50.348,1042.18,57.2029ZM1054.47154,190.046c0,5.90939-2.83654,11.346-8.27315,16.30992v2.12738h6.14578c0-3.07289,3.30924-8.50951,10.16412-16.30992l-4.01841-2.12738Zm10.16412,314.61591-4.01842,6.14578c4.01842,9.455,10.16413,14.41893,18.43727,14.41893h2.12737c6.85488-3.30925,10.16412-8.74589,10.16412-16.3099-2.83654-1.41827-4.72751-2.12737-6.14578-2.12737l-8.27315,2.12737C1072.4361,506.08016,1068.41768,504.66189,1064.63566,504.66189Zm16.3099-467.7873V39.002c.23639,2.83651,1.65466,4.01839,4.01841,4.01839l2.12737-4.01839V36.87459Zm6.14578,20.32831v2.12737c1.41827,0,3.30924.70913,6.14578,2.12738l2.12737-4.01838c0-2.83651-1.41827-4.01839-4.01842-4.01839C1088.50961,53.42089,1087.09134,54.83914,1087.09134,57.2029Zm0,10.16414v4.01839c.23639,2.83651,1.65466,4.01839,4.01841,4.01839l4.01842-6.14577-4.01842-2.12738h-4.01841Zm10.16419,134.97046v2.12739l2.12737,4.01838c8.27315-2.8365,12.29156-5.43665,12.29156-8.27315l-6.14578-4.01838C1100.092,198.31913,1097.25553,200.21012,1097.25553,202.3375Zm10.16413-57.20288c-2.83654,3.30926-4.01842,6.14576-4.01842,8.27314a23.84431,23.84431,0,0,0,10.16412,12.29153h6.14578c11.81878-7.09127,17.96456-11.81878,18.43727-14.41891V147.262c-4.01841,0-9.455,2.12739-16.3099,6.14577Zm0-106.369-2.12737,4.01838v2.12738c1.41827,4.01839,5.43661,6.14577,12.29156,6.14577l4.01841-6.14577C1116.63829,40.893,1111.91078,38.7656,1107.41966,38.7656Zm-1.891,134.97046v6.14576h4.01841v-6.14576Z"/>
    <path class="a" d="M1258.46372,523.0992c5.43661,2.12736,8.27314,6.85487,8.27314,14.41892-6.85495,6.85488-10.16412,14.41893-10.16412,22.45568H1250.427c-6.855-4.01838-10.16412-8.27314-10.16412-12.29152A53.08647,53.08647,0,0,1,1258.46372,523.0992ZM1495.54841,0q64.885,0,136.86153,18.4373,26.94672,0,140.87979,47.03874c4.01842,4.49114,6.14571,7.80039,6.14571,10.16415q-72.6855,119.48785-77.53117,124.56993l-10.16412,2.12738c-8.74592-4.72751-34.74724-13.70979-77.76763-26.47405,0-2.8365-26.47409-8.74589-79.6586-18.43731l-18.43727-4.01838h-12.29156c-35.45634,4.72752-53.18451,14.41891-53.18451,28.60145v4.01837c0,17.72817,28.60139,32.61984,85.80432,44.91137,68.54892,15.60078,120.78787,33.32895,157.42608,53.18451q67.01258,36.16545,69.49449,67.367c12.29155,0,19.8556,10.16416,22.45568,30.72883,5.20029,0,9.9278,18.4373,14.41885,55.07552l-2.12744,10.16416L1800,451.47738c-6.85495,47.74787-19.85561,84.38608-38.76566,110.3874-26.47409,32.38345-64.767,55.5483-114.40584,69.49444-13.237,4.01842-31.67439,7.564-55.07548,10.16413l-10.16413-2.12737c-4.49119,2.83654-8.50946,4.01841-12.29156,4.01841h-8.27314c-4.01842,0-10.87322-2.83653-20.32824-8.27314l-10.16413,6.14578h-4.01841c-6.85495,0-10.16412-1.41827-10.16412-4.01842l-10.16412,2.12737c-20.09193,0-46.09324-4.01841-77.76763-12.29156q-24.465,0-104.24158-34.7472c-11.58246,0-19.85561-4.01838-24.58312-12.29153v-16.3099l2.12744-4.01838q14.18253,2.48193,36.87453,32.61984a60.44671,60.44671,0,0,1,16.31,2.12737l2.12743-4.01838v-1.891c-4.72751-11.81878-19.14636-24.11031-43.02038-36.87461-8.74593-9.21863-20.32825-16.78268-34.74724-22.45568L1266.973,514.826v-1.891q7.80043-27.656,48.92977-87.93172l4.01842-2.12736h4.01841c63.58509,30.01969,101.87782,44.91136,114.40585,44.91136,0,4.01838,36.87453,12.29152,110.38743,24.583,6.1457-4.01838,19.14636-7.564,38.76565-10.16416,8.27315-10.16416,12.29156-17.72817,12.29156-22.45568,0-15.6008-21.74658-30.72883-65.47607-44.91136-1.41819,0-3.30931.70913-6.1457,2.12736q-100.69609-21.98292-165.46292-51.05714-45.38407-26.59225-48.92978-34.74721c0-3.782,1.4182-7.8004,4.01842-12.29152l-4.01842-2.12736-12.29156,2.12736c-21.51012-14.89167-36.40189-40.18385-44.91136-75.64019l-2.12744-10.16416c10.87322-4.49114,16.31-7.8004,16.31-10.16415l-6.14571-4.01838a15.9687,15.9687,0,0,1-8.27315,2.12738c-4.01841-4.72751-6.1457-13.00066-6.1457-24.58306V182.00919c0-7.8004,2.83653-22.21931,8.27314-43.02036,16.07351-47.03874,39.94753-78.24032,71.62178-94.07749l10.16412,6.14577h8.27315V48.92973l-2.12744-14.41891Q1405.60738.11819,1495.54841,0ZM1276.901,566.11955h2.12744c2.12744,0,4.72751,2.8365,8.27315,8.27314v2.12737h-6.14571c-2.12744,0-4.72751-2.8365-8.27314-8.27315Zm6.14571-22.45569c8.74593,3.30925,13.70976,6.85488,14.41886,10.16416,0,2.8365-2.12744,4.01838-6.14571,4.01838-8.74593-3.30924-13.70976-6.85488-14.41886-10.16416C1276.901,544.84574,1278.792,543.66386,1283.04669,543.66386Zm4.01842-351.4905v4.01838l2.12743,4.01838c2.83654-1.41825,4.72752-2.12738,6.14571-2.12738v-4.01838l-2.12744-4.01838C1290.37442,191.46423,1288.4833,192.17336,1287.06511,192.17336Zm32.6198,255.28565c-10.87322,8.50953-16.31,13.237-16.31,14.41892,0,2.12737,2.12743,4.01838,6.1457,6.14578,5.67308-9.455,9.92781-14.41892,12.29156-14.41892,8.74593,2.8365,14.41886,4.01837,16.31,4.01837l2.12743-4.01837C1340.24961,449.58637,1333.39467,447.459,1319.68491,447.459Zm8.27315,30.72882-4.01842,6.14578,4.01842,2.12737h4.01841v-4.25477C1331.97647,479.60606,1330.55827,478.18783,1327.95806,478.18783Zm10.16412-233.06635-4.01842,6.14577c0,2.12738,2.12744,4.01837,6.14571,6.14576,2.83654,0,4.01841-1.41825,4.01841-4.01838v-6.14576C1342.84969,247.24887,1340.95871,246.53975,1338.12218,245.12148Zm14.419-51.05712-2.12743,4.01838v2.12738c.23631,2.8365,1.65465,4.01838,4.01841,4.01838h2.12744c2.83653,0,4.01841-1.41825,4.01841-4.01838C1360.57786,198.31913,1357.97778,196.19174,1352.54117,194.06436Zm12.0551,292.16023c2.12744,5.43664,4.01842,8.27314,6.14571,8.27314,2.83654,0,4.01841-1.41826,4.01841-4.01837,0-2.12737-2.12743-4.01838-6.1457-6.14578Zm2.12744-18.20091L1387.052,480.3152c.23632-2.8365,1.65466-4.01838,4.01842-4.01838a28.10659,28.10659,0,0,0-12.29156-14.41892h-6.14571C1370.74212,461.8779,1368.851,463.76891,1366.72371,468.02368Zm10.16412-255.522-2.12744,4.01838v4.01838c1.4182,0,3.30932.70913,6.14571,2.12738l2.12744-4.01838v-4.01837C1381.61534,214.62905,1379.72437,213.91991,1376.88783,212.50166Zm2.12744,22.45568-2.12744,4.01838c.23632,2.8365,1.65466,4.01838,4.01842,4.01838,2.83653,0,4.01841-1.41825,4.01841-4.01838ZM1387.052,363.782c.23632,2.8365,1.65466,4.01838,4.01842,4.01838,2.83653,0,4.01841-1.41827,4.01841-4.01838,0-2.8365-1.41819-4.01837-4.01841-4.01837C1388.47029,360,1387.052,361.41827,1387.052,363.782Zm2.12744-265.68615v4.01839h4.01842V98.09587Zm2.1273,83.677c0,8.27315,9.455,13.7098,28.60138,16.30992Q1446.50033,232.83,1456.78261,232.83c2.83654-1.41825,4.72751-2.12738,6.14571-2.12738v-6.14577c-1.65466-1.65462-7.80037-5.20025-18.43727-10.16415-4.72751-19.14642-13.00066-28.60145-24.58312-28.60145l-4.01841,2.12739c-1.4182,0-6.85495-4.01838-16.31-12.29153Zm4.01841,147.262v6.14578c0,2.12736,2.12744,4.01838,6.14571,6.14578l4.01841-6.14578c-1.41819-2.8365-2.12744-4.72751-2.12744-6.14578Zm4.01841-124.8063-2.12743,10.16415c8.27314,10.63691,12.29156,17.96455,12.29156,22.45569l-2.12744,10.16415c0,5.43665,8.74592,10.16416,26.47409,14.41891,7.564,6.8549,13.70976,10.16416,18.43727,10.16416l4.01841-6.14576c0-2.12739-10.16412-10.87328-30.72882-26.47406a104.60976,104.60976,0,0,1,2.12743-18.43731c0-2.36375-6.1457-6.38213-18.43726-12.29152,0-2.8365-1.4182-4.01838-4.01842-4.01838h-5.90939Zm2.12744,269.94093c1.4182,5.43665,5.43661,8.27315,12.29156,8.27315H1415.89v-2.12737c0-7.09126-2.12744-11.346-6.14571-12.29152h-2.12744C1405.48922,468.02368,1403.59825,469.91469,1401.47095,474.16945Zm4.01827,30.49244,2.12744,4.01838-2.12744,10.16416,14.41885,8.27314h4.01842v-2.12736c-7.80037-13.70979-12.52788-20.32832-14.41885-20.32832Zm4.25488-341.09V171.845c1.41819,0,3.30931.70913,6.1457,2.12738.23632-2.8365,1.65466-4.01837,4.01842-4.01837-1.4182-2.8365-2.12744-4.72752-2.12744-6.14577h-8.03668Zm0,443.20428,6.1457,4.01841h2.12744c2.12744,0,4.01842-2.12736,6.14571-6.14578,0-2.8365-1.4182-4.01838-4.01841-4.01838h-4.25474C1413.76237,600.86675,1411.63507,602.75776,1409.7441,606.77618Zm1.891-482.20624v4.01839c.23632,2.36375,5.67308,6.38214,16.31,12.29153,16.31-3.30926,24.58312-6.14576,24.58312-8.27315l-2.12744-4.01838-4.01842,2.12738c-6.85495-4.01839-11.58246-6.14576-14.41885-6.14576-4.49119,2.83651-8.50946,4.01839-12.29156,4.01839l-6.14571-4.01839Zm2.1273,194.30072-2.12744,4.01838v2.12736h6.14571V322.889C1417.78078,320.05254,1416.36258,318.87066,1413.76237,318.87066Zm2.12743-14.41889c.23632,2.8365,1.65466,4.01838,4.01842,4.01838,2.83653,0,4.01841-1.41827,4.01841-4.01838,0-2.8365-1.41819-4.01838-4.01841-4.01838C1417.07168,300.66975,1415.8898,302.088,1415.8898,304.45177ZM1419.90822,67.367v2.12738c0,2.12738,2.12744,4.01839,6.14571,6.14577h14.41885c2.83654,0,4.01841-2.12738,4.01841-6.14577s-4.01841-8.27314-12.29156-12.29152A20.27494,20.27494,0,0,0,1419.90822,67.367Zm12.29156,79.65858-4.01842,6.14577a23.84461,23.84461,0,0,0,10.16413,12.29153h6.1457c0-1.41825.7091-3.30927,2.12744-6.14577C1443.30932,151.28038,1438.5818,147.02562,1432.19978,147.02562Zm12.29141,237.08472c2.83654,1.41827,4.72752,2.12737,6.14571,2.12737,4.4912-2.8365,7.80037-4.01838,10.16412-4.01838,4.01842,0,11.58247,3.30924,22.45568,10.16416l4.01842-6.14578c-11.81878-8.27315-19.38283-13.00066-22.45568-14.41893C1451.10983,375.6008,1444.49119,379.85557,1444.49119,384.11034Zm4.01842-279.86871c0,2.12739,2.83653,4.72751,8.27314,8.27315l4.01842-6.14576c0-2.12739-2.12744-4.01839-6.14571-6.14576H1452.528C1449.928,100.45963,1448.50961,101.87788,1448.50961,104.24163Zm8.03683,396.40188-2.12744,4.01838c.23632,2.8365,1.65466,4.01838,4.01841,4.01838h2.12744v-4.01838C1460.80117,502.06175,1459.383,500.64351,1456.54644,500.64351Zm8.27314,89.82273a1.88035,1.88035,0,0,1-2.12744,2.12737c0,9.92776,9.455,20.80106,28.60139,32.61983l18.43727-2.12736c14.41885,1.41827,22.45568,2.12736,24.58312,2.12736,5.43661-1.41826,8.27315-4.72751,8.27315-10.16412-12.29156,0-19.14637-7.564-20.32825-22.45568-10.87322,0-20.32824,4.01838-28.60139,12.29153H1489.639C1481.12941,595.43011,1473.09273,590.46624,1464.81958,590.46624Zm2.1273-314.61593v4.01838h2.12743v-4.01838Zm4.01841-24.583-2.12744,4.01838c5.20029,9.455,8.50946,14.41891,10.16412,14.41891h2.12744V261.4314C1481.12941,259.77678,1477.82024,256.46752,1470.96529,251.26726Zm0,304.45177v4.01838c.23632,2.8365,1.65466,4.01838,4.01841,4.01838h2.12744v-4.01838c0-2.8365-1.41819-4.01838-4.01841-4.01838Zm4.01841-518.84444V39.002l10.16412,2.12738V37.111c0-2.83651-1.41819-4.01839-4.01841-4.01839H1479.002C1476.4019,33.09258,1474.9837,34.51084,1474.9837,36.87459Zm16.31,89.82272q0,3.19109-16.31,16.30992c4.4912,4.01839,7.80037,6.14577,10.16412,6.14577,5.67308-2.12739,9.92781-5.43664,12.29156-10.16415v-6.14576C1497.43938,130.7157,1495.54841,128.8247,1491.29368,126.69731Zm-12.05524,222.66582c1.41819,4.49113,4.01841,7.09127,8.27314,8.27315l4.01841-6.14578c0-2.12737-2.12743-4.01838-6.1457-6.14578Zm24.34665-322.88906-4.01841,6.14576,4.01841,2.12738h4.01842V30.72883C1507.84,27.89232,1506.42163,26.47407,1503.58509,26.47407ZM1507.84,237.08473l-4.01842,6.14576v2.12738c.23632,2.8365,1.65466,4.01838,4.01842,4.01838,2.12744,0,4.01841-2.8365,6.14571-8.27314Zm8.03668,77.5312c0,2.12737,2.83654,4.72751,8.27315,8.27315,2.83653,0,4.01841-1.41827,4.01841-4.01838,0-2.12737-2.83653-4.72751-8.27314-8.27315C1517.295,310.83391,1515.87665,312.25217,1515.87665,314.61593Zm8.27315,53.18451c2.83653,1.41827,4.72751,2.12736,6.14571,2.12736l14.41885-8.27314c-1.4182-2.8365-2.12744-4.72751-2.12744-6.14578h-6.14556C1534.31392,355.50888,1530.29565,359.52729,1524.1498,367.80044Zm8.03683,157.42612c.23631,2.8365,1.65465,4.01838,4.01841,4.01838,2.12744,0,4.01841-2.12737,6.14571-6.14578l-4.01842-2.12737h-1.891Q1532.18655,521.681,1532.18663,525.22656Zm6.1457-281.99607v2.12738h4.01842v-2.12738Zm2.12744-124.80632v4.01839c2.12744-1.41825,9.455-2.83651,22.45568-4.01839v-6.14576h-6.1457C1554.40584,112.27841,1548.96924,114.40579,1540.45977,118.42417Zm10.16412,155.29877v4.01838h4.01842c2.83653,0,4.01841-1.41825,4.01841-4.01838v-4.01837h-4.01841C1552.04209,270.17731,1550.62389,271.35919,1550.62389,273.72294Zm0,94.0775v6.14578c2.83654,5.43664,6.85495,8.27314,12.29156,8.27314,2.83654-3.30924,4.01842-6.14578,4.01842-8.27314-.7091-10.87329-2.83654-16.3099-6.14571-16.3099C1559.13336,357.63628,1555.82419,360.94552,1550.62389,367.80044Zm4.01842,190.046c2.83653,4.49112,4.01841,8.50954,4.01841,12.29152v2.12737l-6.14571,8.27315,2.12744,4.01837c10.16412,0,17.01907-6.14578,20.32824-18.4373,5.67308-2.12737,9.92781-5.43665,12.29156-10.16416,0-1.65462-6.1457-4.49112-18.43726-8.27314,0-2.8365-1.4182-4.01838-4.01842-4.01838h-2.12744C1560.07892,543.66386,1557.47884,548.39138,1554.64231,557.8464Zm4.25473-157.42616-4.01842,6.14578c0,2.12737,2.12744,4.01838,6.14571,6.14578h2.12744l6.14571-4.01838C1567.643,403.25678,1564.33365,400.42024,1558.897,400.42024Zm4.01841,110.38743-4.01841,6.14578c0,1.41827,6.85495,6.85488,20.32824,16.3099h2.12744V529.245C1577.098,516.95342,1571.1886,510.80767,1562.91545,510.80767Zm0-218.64744c4.01842,9.455,10.87322,14.41891,20.32825,14.41891h2.12743c0-13.70979-5.43661-21.03743-16.31-22.45568C1565.51553,284.12346,1563.62455,286.7236,1562.91545,292.16023Zm2.1273,32.85621c1.41819,5.43665,5.43661,8.27315,12.29156,8.27315l4.01841-6.14578V320.998c0-2.12737-2.83654-4.01838-8.27315-6.14578C1567.643,316.03416,1565.04275,319.34344,1565.04275,325.01644Zm28.60153,200.21012v4.01838c.23632,2.8365,1.65466,4.01838,4.01841,4.01838,2.83654,0,4.01842-1.41827,4.01842-4.01838v-8.27315h-4.01842C1594.82616,521.44457,1593.64428,522.86281,1593.64428,525.22656Zm6.14571-28.60142-2.12744,4.01837v4.01838l8.27315,2.12737,2.12743-4.01838V498.7525Zm6.14585-145.13464c.23632,2.8365,1.65466,4.01838,4.01841,4.01838h2.12744V351.4905Zm16.30983-22.45568,6.14571,4.01838h2.12743c2.12744,0,4.01842-2.12737,6.14571-6.14578,0-2.12737-2.12744-4.01838-6.14571-6.14578h-2.12743C1626.26408,320.76167,1624.13665,323.59817,1622.24567,329.03482Zm0,110.38739v4.01838h4.01841v-4.01838Zm10.16412-327.1438c-2.83654,3.30926-4.01841,6.14576-4.01841,8.27314,2.83653,6.14576,5.43661,9.455,8.27314,10.16415,2.83654,0,4.01842-1.41825,4.01842-4.01839C1640.44662,119.1333,1637.84654,114.40579,1632.40979,112.27841Zm4.01841,353.6179-2.12743,10.16416c2.12743,8.27314,6.85495,12.29152,14.41885,12.29152l2.12744-4.01838v-4.01838c-6.855-9.455-10.87322-14.41892-12.29156-14.41892Zm4.01842-6.14578v4.01838c2.83653,0,4.01841-1.41827,4.01841-4.01838Zm0,51.05714v4.01838h4.01841v-4.01838Zm8.27314-108.26v6.14578h4.01842v-6.14578Zm4.01842-316.7433v2.12738c0,2.12739,2.12744,4.01839,6.14571,6.14576h8.27314A19.0669,19.0669,0,0,0,1656.99291,81.786C1654.15637,82.02233,1652.73818,83.44058,1652.73818,85.80434Zm0,222.66581v6.14578h6.14571v-6.14578Zm2.12729,243.23047V555.719h4.01842v-4.01838Zm8.27315-132.84308-2.12744,4.01838c.23632,2.8365,1.65466,4.01838,4.01841,4.01838l2.12744-4.01838C1667.157,420.27581,1665.73884,418.85754,1663.13862,418.85754Zm-2.1273,65.476V488.352h4.01842v-4.01837Zm6.14571-188.15495c0,1.65462,3.30932,5.20025,10.16412,10.16415h4.01842V296.17863c0-2.8365-1.4182-4.01838-4.01842-4.01838h-6.1457C1668.57537,292.633,1667.157,293.81487,1667.157,296.17863Zm1.891,230.93894c.23632,2.8365,1.65466,4.01838,4.01841,4.01838h2.12744c7.09127,0,11.346-2.12736,12.29156-6.14578l-8.27315-6.14578C1673.30288,521.68093,1669.75725,524.51743,1669.048,527.11757Zm10.40058-204.22849-4.01841,6.14577,6.14571,4.01838h2.12743l4.01842-2.12736C1686.53986,326.90745,1683.70332,324.30731,1679.44859,322.88908Zm6.14571,53.1845v8.27315c.23632,2.8365,1.65466,4.01838,4.01841,4.01838,2.83654,0,4.01842-1.41827,4.01842-4.01838v-8.27315c0-2.8365-1.4182-4.01837-4.01842-4.01837C1686.77618,372.29156,1685.5943,373.70983,1685.5943,376.07358Zm6.14585-30.72882,4.01842,2.12736c2.83653,0,4.01841-1.41827,4.01841-4.01838l-4.01841-2.12736C1692.922,341.56273,1691.74015,342.981,1691.74015,345.34476Zm4.01842,138.98882,4.01841,2.12736h2.12744c2.83653,0,4.01841-1.41827,4.01841-4.01838V480.3152c0-2.8365-1.41819-4.01838-4.01841-4.01838C1699.77683,476.06043,1697.88586,478.897,1695.75857,484.33358Zm44.91136,30.49247-20.32825-18.4373c-1.41819,2.8365-2.12743,4.72751-2.12743,6.14578,1.41819,2.8365,2.12743,4.72751,2.12743,6.14578-10.87321,4.49112-16.31,7.8004-16.31,10.16415l10.16412,6.14578a104.61606,104.61606,0,0,1,18.43727-2.12736c3.30932,0,8.27315,2.8365,14.41885,8.27314l16.31-14.41892-2.36376-3.78206v-6.14578l18.43727-10.16416a1.88042,1.88042,0,0,0,2.12744-2.12737v-2.12736c-4.01842-6.85488-8.74593-10.16416-14.41886-10.16416-8.27314,0-15.60073,10.87329-22.45568,32.61984Zm-32.62-185.79123-2.12744,4.01838c5.20029,4.01837,9.92781,6.14578,14.41886,6.14578V333.0532Zm-2.12729,69.49445v10.16415c0,3.782,4.01841,11.346,12.29156,22.45568,0,5.20026,1.41819,9.21864,4.01841,12.29153,4.01841,0,8.27315-8.27315,12.29156-24.58305,6.14571-2.8365,9.455-5.43665,10.16412-8.27315l-4.01841-2.12736-8.27315,6.14578c-13.70975-1.41827-20.32824-8.27315-20.32824-20.32832h-2.12744C1707.34088,394.74724,1705.92269,396.16551,1705.92269,398.52927Zm12.29156,63.34863,2.12743,4.01837c5.43661-2.12736,8.27315-4.01837,8.27315-6.14578,0-2.8365-1.4182-4.01837-4.01841-4.01837C1722.23252,455.73215,1720.34154,457.62316,1718.21425,461.8779Zm40.89295-6.14575,14.41885,14.41893h2.12744c2.12744,0,4.01841-2.12737,6.1457-6.14578v-8.27315c-8.74592-2.8365-14.89163-4.01838-18.43726-4.01838C1760.52539,451.95013,1759.1072,453.3684,1759.1072,455.73215Z"/>
  </g>
</svg>
