<svg xmlns="http://www.w3.org/2000/svg" viewBox="0 0 1024.00004 724.63977">
  <defs>
    <style>
      .a {
        fill: #fceb07;
      }
    </style>
  </defs>
  <title>logo</title>
  <g>
    <g>
      <path class="a" d="M13.0215,11.54484h13.827a14.20274,14.20274,0,0,1,6.9806,2.28211c1.34243,0,3.62455-.80545,6.9806-2.28211,1.61091,0,2.28212.40272,2.28212,1.20818,7.78605-.80546,13.55848-1.20818,17.4515-1.20818h41.74935c2.14787,0,4.02727,4.69848,5.77242,13.96119v17.4515a59.24793,59.24793,0,0,1-1.20818,11.54483L108.065,61.483l-1.07395,6.9806,1.20818,10.4709a59.41428,59.41428,0,0,1-1.20818,10.47089,149.77219,149.77219,0,0,1,1.20818,19.73361c0,4.43-.40273,7.11485-1.20818,8.18878a59.41428,59.41428,0,0,1,1.20818,10.4709V144.042c.13424,1.61091.93969,2.28212,2.28211,2.28212q1.40955,0,81.21657-97.45989l28.99634-35.97693a37.25685,37.25685,0,0,0,4.69848-1.20818c1.6109,0,2.28211.40273,2.28211,1.20818l8.18879-1.20818h26.7142a138.00621,138.00621,0,0,1,16.24333,1.20818,11.20522,11.20522,0,0,1,5.77242-1.20818,9.421,9.421,0,0,1,4.69848,1.20818,138.00533,138.00533,0,0,1,16.24332-1.20818h15.03513l8.18879,2.28212a12.95091,12.95091,0,0,1,6.98059-2.28212h3.49031c1.20817,0,2.28211,1.20818,3.49031,3.4903v1.20818L275.19666,96.386c-7.92029,9.53119-17.98846,21.076-30.20451,34.76875-24.70057,29.26481-37.18511,45.1054-37.18511,47.52176q0,1.40954,82.42477,110.21292l54.50237,71.95386v1.20817c0,1.20818-1.20817,2.28214-3.49031,3.49031-2.28211,0-3.4903-.40271-3.4903-1.20817-7.78606.80546-13.55848,1.20817-17.4515,1.20817h-2.14788c-13.55848,0-22.01573-.40271-25.506-1.20817q-13.08861,1.20819-30.20451,1.20817H226.46671q-8.65863,0-37.18511-45.23964c-4.967-4.967-16.24332-20.13634-33.6948-45.23964-6.71212-9.53121-11.4106-14.9009-13.9612-16.24332h-3.35606q-30.20451,31.01-30.20451,38.259v49.93815l-1.20818,6.98061a11.545,11.545,0,0,1,1.20818,5.7724c-1.20818,3.893-3.893,5.7724-8.18878,5.7724H79.0687a86.55557,86.55557,0,0,1-12.753-1.20817,8.84309,8.84309,0,0,1-3.49029,1.20817,8.84317,8.84317,0,0,0-3.4903-1.20817l-6.9806,1.20817c-2.5506-1.61092-4.43-2.28213-5.77242-2.28213a12.95085,12.95085,0,0,1-6.98059,2.28213H22.15c-2.28212,0-5.36969-1.20817-9.26272-3.49031l-6.98059,3.49031c-3.893-1.20817-5.77242-3.893-5.77242-8.18878V237.87732a59.41342,59.41342,0,0,1,1.20818-10.4709C.537,226.46673.13425,223.78188.13425,219.21763V195.99372a59.24736,59.24736,0,0,1,1.20818-11.54485A40.09355,40.09355,0,0,1,.13425,173.978v-4.69848a59.24724,59.24724,0,0,1,1.20818-11.54483L.13425,150.75407l1.20817-18.52543L.13424,127.53016A1.06789,1.06789,0,0,1,1.34242,126.322L.13424,118.1332V24.16361A46.34351,46.34351,0,0,0,0,19.19665a17.82486,17.82486,0,0,1,.80545-4.16151A8.46021,8.46021,0,0,1,3.62454,12.0818a14.351,14.351,0,0,1,3.893-1.07393ZM6.0409,60.409v2.28212l1.20818,2.28212,5.77242-1.20818H28.05664c.93969,0,2.95333,2.28212,5.77241,6.9806h1.20818l10.4709-6.9806c0-3.22182-8.86-5.23545-26.71421-5.77242C17.85422,57.99266,13.55847,58.79811,6.0409,60.409Zm0,60.27478a8.84323,8.84323,0,0,1,1.20818,3.4903h4.69848v-3.4903a1.99921,1.99921,0,0,0-2.28212-2.28211Zm5.77242,217.06977,3.4903,2.28211c5.36969-1.87938,8.18878-4.69848,8.18878-8.18879l-3.4903-2.28211C14.49817,329.56478,11.81332,332.24962,11.81332,337.75357Zm3.4903-253.0467c.13424,1.6109.93969,2.28212,2.28212,2.28212a2.28212,2.28212,0,0,0,0-4.56424A2.18243,2.18243,0,0,0,15.30362,84.70687Zm8.05453,141.62561v1.20817c0,1.20817,1.20818,2.28212,3.4903,3.49031h2.28212c1.20818,0,3.4903-2.28212,6.9806-6.9806a1.99921,1.99921,0,0,0-2.28212-2.28211H28.05664C26.84845,221.634,25.37179,223.2449,23.35815,226.33248Zm5.90666-97.4599H30.473c1.20818,0,2.68485-1.6109,4.69848-4.69848v-3.4903H33.96329C30.74148,121.892,29.26481,124.57683,29.26481,128.87258Zm1.07394,198.41008a8.84306,8.84306,0,0,0,3.4903,1.20818,12.951,12.951,0,0,1,6.9806-2.28212h4.69848c0-1.6109.40273-2.28211,1.20818-2.28211a10.82836,10.82836,0,0,0-5.77241-6.9806C33.82905,317.75145,30.33875,321.24176,30.33875,327.28266Zm3.4903,11.54483v2.28211c0,1.20817,1.61091,2.68483,4.69848,4.69846h2.28212c1.74515,0,3.62455-3.49031,5.77242-10.4709l-3.4903-2.28212h-3.4903C38.66177,333.05509,36.78238,334.93447,33.82905,338.82749Zm2.41636-147.398V196.128h2.28212c4.69848-4.69848,7.78605-6.9806,9.26272-6.9806v-3.4903C42.01783,185.65707,38.1248,187.6707,36.24541,191.42949ZM37.31935,85.915v2.28212l10.4709,8.18878a1.99922,1.99922,0,0,0,2.28212-2.28212V89.40535C50.07237,87.66021,45.91086,86.452,37.31935,85.915Zm10.4709,149.68014v3.49031c0,1.74515,1.87939,2.95332,5.77241,3.4903l2.28212-3.4903c0-1.20818-1.20818-2.28212-3.49029-3.49031ZM48.99843,131.1547v2.28211h4.69848V131.1547a1.99921,1.99921,0,0,0-2.28212-2.28212C49.66964,129.00682,48.99843,129.81227,48.99843,131.1547Zm3.4903,48.72994v1.20818H55.979v-3.49031H54.77084C53.15994,177.73676,52.48873,178.54222,52.48873,179.88464ZM57.053,321.51024l3.49029,2.28212h1.20819l2.28211-1.20818-1.20818-2.28211c0-.80546,2.68485-3.49031,8.18878-8.18879v-1.20817L69.806,308.75723C65.376,308.75723,61.08023,312.91875,57.053,321.51024ZM59.33509,86.989,58.1269,89.27111v2.28212H60.409a1.99922,1.99922,0,0,0,2.28212-2.28212Zm1.20817,26.7142-1.20818,2.28212v1.20818h3.4903v-1.20818A1.99922,1.99922,0,0,0,60.54326,113.7032Zm10.4709,214.65341L69.806,333.05509a8.8433,8.8433,0,0,1,1.20818,3.4903L68.732,337.75357l-8.18877-1.20818a1.06789,1.06789,0,0,1-1.20818,1.20818c1.34242,3.893,3.62454,5.77242,6.98059,5.77242a37.25685,37.25685,0,0,0,4.69848-1.20817,12.951,12.951,0,0,0,6.9806,2.28211H79.203a8.84331,8.84331,0,0,1,1.20818-3.49031c-3.08757-8.45726-4.967-12.753-5.77242-12.753ZM75.5784,31.27845v3.4903h2.28212v-3.4903Zm1.20818,184.58313c0,.537,1.87939,2.55059,5.77242,5.77242v1.20817l-3.4903,4.69848v2.28212c.537,4.69848,1.74515,6.98059,3.4903,6.98059,1.61091,0,4.29575-5.77242,8.18877-17.4515-1.34242-3.893-4.43-5.77242-9.26271-5.77242H79.20294C77.592,213.71369,76.78658,214.51916,76.78658,215.86158ZM82.559,266.87364c5.36969,6.44363,8.18877,10.20242,8.18877,11.54485a1.06789,1.06789,0,0,0-1.20818,1.20817l2.28212,1.20817c2.28211,0,4.29574-3.893,5.77242-11.54484v-1.20818c0-1.20817-1.20818-2.28211-3.4903-3.4903H85.915Zm4.69848,64.97325V334.129a14.20267,14.20267,0,0,0,2.28211,6.98059,8.84326,8.84326,0,0,0-1.20818,3.49029l2.28211,1.20817,8.18878-5.77242c-.93969-7.78606-3.35606-12.753-6.98059-15.03513C88.73414,325.67176,87.25748,328.08811,87.25748,331.84689Zm2.28211-226.19823v1.20819h1.20818c5.36969-3.893,8.18878-7.38333,8.18878-10.4709L95.312,93.96959C93.0299,93.96959,91.1505,97.86262,89.53959,105.64866Zm18.65968,168.20558v2.28211h5.77242v-2.28211a1.99921,1.99921,0,0,0-2.28211-2.28212h-1.20819C108.87048,271.70635,108.19927,272.51181,108.19927,273.85424Zm40.54117-106.72261,3.4903,2.28211,2.28211-3.49029a1.99921,1.99921,0,0,0-2.28211-2.28212C151.02256,163.64133,149.94861,164.84951,148.74044,167.13163Zm4.69848,8.05454v1.20817a90.77583,90.77583,0,0,1,19.73361,20.9418c1.20817,0,2.28212-1.20817,3.49031-3.49031q-4.63137-9.26273-19.73361-20.9418H155.721C154.11013,173.17253,153.43892,173.84374,153.43892,175.18617Zm2.28212,55.71054v2.28211h2.28211a1.99922,1.99922,0,0,0,2.28212-2.28211v-2.28212h-2.28212A2.18242,2.18242,0,0,0,155.721,230.89671Zm1.20818,37.1851,2.28211,1.20818h1.20819V265.7997h-1.20819C157.60043,265.934,156.92922,266.73939,156.92922,268.08181ZM177.73676,81.21657l1.20817,2.28212v1.20819a1.99922,1.99922,0,0,1-2.28211,2.28212,12.95091,12.95091,0,0,0-6.9806-2.28212q-3.42316,0-9.26271,10.47089a8.84339,8.84339,0,0,1,1.20818,3.4903h1.20818q2.01363,0,18.52543-9.26272a57.51622,57.51622,0,0,1,9.26271-1.20818c10.4709,5.36969,17.04876,8.18878,19.73361,8.18878h2.28211a1.99922,1.99922,0,0,0,2.28212-2.28212V91.82172l-3.49031-4.69848,1.20817-6.9806a8.84348,8.84348,0,0,1-3.49031-1.20818c0,.93969-1.87938,2.95333-5.77242,5.77241h-3.49031c-4.967-4.69848-9.2627-6.9806-12.753-6.9806h-2.28212A9.15472,9.15472,0,0,0,177.73676,81.21657Zm-8.05453,147.398c.13424,1.61091.9397,2.28212,2.28213,2.28212h1.20817c1.20817,0,2.68485-1.6109,4.69848-4.69848a1.99922,1.99922,0,0,0-2.28211-2.28212h-1.20818C173.17253,223.91611,171.56163,225.527,169.68223,228.61459Zm0,51.01207c.13424,1.6109.9397,2.28211,2.28213,2.28211h1.20817a2.28212,2.28212,0,1,0,0-4.56423h-1.20817C170.35345,277.613,169.68223,278.28423,169.68223,279.62666Zm4.56424-169.41376a8.8434,8.8434,0,0,1-1.20817,3.4903l4.69848,3.4903H178.945a1.99921,1.99921,0,0,0,2.28212-2.28212V113.7032c0-1.20818-1.20817-2.28211-3.49031-3.4903Zm2.41637,93.9696v8.18879c0,1.74515,3.08758,3.35606,9.26271,4.69848l1.20817-2.28211v-2.28212c-3.62454-5.36969-6.0409-8.18879-6.98059-8.18879h-3.49029Zm8.05453-106.72261v1.20818c1.61091,0,2.28212.40273,2.28212,1.20818,3.893-.93969,5.77242-2.14787,5.77242-3.49029a1.99922,1.99922,0,0,0-2.28211-2.28212h-2.28212C186.99949,93.96959,185.92555,95.17777,184.71737,97.45989Zm1.20818,98.66808c0,2.14788,1.87938,4.02727,5.77242,5.77242l1.20817-2.28211V198.4101c0-1.20817-1.20817-2.28211-3.49031-3.4903h-1.20817Zm3.4903-85.91507,3.49031,5.77243c3.49031-1.61091,5.36969-3.08758,5.77242-4.69848v-2.28212a1.99921,1.99921,0,0,0-2.28211-2.28211h-3.49031C191.698,106.72261,190.48978,107.93079,189.41585,110.2129Zm0,112.62927c2.5506,7.78606,6.44364,11.54485,11.54485,11.54485h1.20817V232.1049l-9.26271-11.54484H191.698C190.08707,220.69429,189.41585,221.49975,189.41585,222.84217Zm2.28212-76.65233v5.77242c0,1.20818,1.20817,2.28211,3.49031,3.4903h5.77242v-2.28212c-3.893-2.95332-5.77242-5.23545-5.77242-6.98059H191.698Zm2.28211,136.9271v4.69848a1.06789,1.06789,0,0,1,1.20818,1.20818l2.28211-1.20818h8.18879v-3.4903l-8.18879-1.20818Zm4.69848-117.19349c.13425,1.6109.93969,2.28211,2.28212,2.28211a2.28212,2.28212,0,0,0,0-4.56423A2.18243,2.18243,0,0,0,198.67856,165.92345ZM243.9182,38.25905,242.71,40.54117l1.20817,5.77241a8.84319,8.84319,0,0,1-3.4903,1.20819l-4.69848-2.28212c-.93969,0-3.62454,3.08757-8.18879,9.26272-1.6109,0-2.68484-3.08758-3.49031-9.26272L220.56,42.95753l-5.77243,8.18877,8.18879,9.26272c0,4.69848,1.20817,6.9806,3.49031,6.9806l8.18879-10.47089h3.4903c1.20818,0,2.28212,1.6109,3.49031,4.69848l-3.49031,5.77241c1.61091.13424,2.28212.9397,2.28212,2.28212,2.68484-1.74515,10.06817-4.02727,22.01572-6.9806l1.20817-4.69848c-7.78605-3.893-11.54484-6.17514-11.54484-6.9806C251.97274,44.70268,249.2879,40.40692,243.9182,38.25905ZM215.99581,282.043v2.28212h2.28211V282.043ZM229.957,89.40535c-1.20818.93969-2.28212,5.63817-3.49031,13.9612-1.6109.13424-2.28212.93969-2.28212,2.28211,0,1.20819,1.61091,2.68485,4.69848,4.69848h3.49031c0-6.98059,4.29575-10.4709,12.753-10.4709l1.20817-2.28211C246.20032,94.90928,240.83063,92.22444,229.957,89.40535ZM227.6749,294.796c.80546,2.28211,3.08758,3.49031,6.9806,3.49031,2.14788,0,4.02726-1.87939,5.77242-5.77243l-2.28212-1.20817C231.16519,291.84269,227.6749,293.05088,227.6749,294.796Zm6.9806-167.13164v2.28211h3.4903V127.6644Zm11.54482-96.386a6.42356,6.42356,0,0,0,4.69848,4.69848c1.87938,0,4.69848-1.20818,8.18879-3.4903-1.61091-3.4903-3.08758-5.36969-4.69848-5.77242H250.8988C249.69063,26.71421,248.214,28.19088,246.20032,31.27845Zm10.4709,62.69114-2.28211,3.4903c.13425,1.6109.93969,2.28211,2.28211,2.28211h4.69848V95.04352Zm0-54.50236v1.20818c.13425,1.61091.93969,2.28212,2.28212,2.28212h5.77242c1.20817,0,2.28211-1.20818,3.4903-3.4903a8.84317,8.84317,0,0,1-1.20817-3.4903H260.0273C258.95334,35.97693,257.87941,37.18511,256.67122,39.46723ZM262.44364,295.87v2.28211h2.28212V295.87Zm12.753-279.62664-1.20817,5.77241,5.77242,3.4903,3.49031-4.69848V19.59937c0-1.20818-1.20818-2.28211-3.49031-3.49029h-4.56425Zm4.69848,15.03513L278.687,37.05087c0,.93969,1.20817,4.02726,3.4903,9.26271a59.41326,59.41326,0,0,0-1.20817,10.4709,8.84348,8.84348,0,0,1,3.49031,1.20818c.13425-1.61091.93969-2.28212,2.28211-2.28212l-1.20817-4.69848c0-.537.40273-2.95333,1.20817-6.9806a12.951,12.951,0,0,1-2.28211-6.98059l1.20817-2.28212a8.84317,8.84317,0,0,1-1.20817-3.4903Zm3.49031,267.00788-2.28212,3.4903c0,1.20817,1.6109,2.68485,4.69848,4.69848H287.01l3.49031-2.28211C289.15785,300.16573,286.87573,298.28633,283.38545,298.28633Zm9.2627-263.51758c0,1.61091-.40273,2.28212-1.20817,2.28212.80546,3.08757,2.68485,4.69848,5.77242,4.69848.13425-1.61091.9397-2.28212,2.28212-2.28212-1.20817-3.08757-2.28212-4.69848-3.49031-4.69848Zm15.03513,0-6.98059,9.26271v1.20819c0,1.20818,1.20817,2.28212,3.49031,3.49029l8.18878-9.26271V38.25905C312.38176,37.18511,310.77086,35.97693,307.68328,34.76875ZM321.64449,17.4515a9.52487,9.52487,0,0,1-9.26271,5.77241c0-1.20818-1.6109-2.68484-4.69848-4.69848l-2.28211,3.4903c8.72575,5.36969,14.49817,8.18878,17.4515,8.18878h1.20817c3.08757-1.34242,4.69848-4.02727,4.69848-8.18878C324.73205,18.92816,322.44993,17.4515,321.64449,17.4515Z"/>
      <path class="a" d="M380.57684,11.54484h10.47088a72.78476,72.78476,0,0,0,9.26271,2.28211,14.20289,14.20289,0,0,0,6.98062-2.28211l4.69848,1.20818a9.4211,9.4211,0,0,0,4.69848-1.20818Q428.56843,12.753,435.21342,12.753H442.194q11.679,0,27.78816-1.20818a9.069,9.069,0,0,0,4.69848,1.20818,37.25732,37.25732,0,0,0,4.69848-1.20818l5.7724,1.20818c.537,0,2.95335-.40273,6.98062-1.20818,3.893,2.28211,6.98061,3.4903,9.26271,3.4903l11.54484-3.4903h2.28214A123.79037,123.79037,0,0,1,538.44576,13.827a85.602,85.602,0,0,1,20.94181-2.28211,57.51469,57.51469,0,0,1,9.2627,1.20818,37.25732,37.25732,0,0,0,4.69848-1.20818L584.8936,12.753c4.02727-.80546,6.44361-1.20818,6.98061-1.20818a11.20522,11.20522,0,0,0,5.7724,1.20818,8.84331,8.84331,0,0,1,3.49031-1.20818c0,.93969,1.87938,2.95333,5.7724,5.77241.40271,0,2.68485-1.87939,6.98062-5.77241H651.075c10.87363,1.6109,16.24332,4.69848,16.24332,9.26271v17.4515c0,4.43-.40271,7.11484-1.20817,8.18877a59.41326,59.41326,0,0,1,1.20817,10.4709v12.753c0,20.94179-2.68484,31.27844-8.18878,31.27844-1.34243,2.95333-13.29,16.37756-35.97692,40.67542h-1.20817c-2.14788,0-4.83273-4.69848-8.18878-13.9612a8.84348,8.84348,0,0,0-3.49031-1.20818l-12.753,6.98059V134.645l4.69848,4.69848c3.893-2.28211,6.57787-3.49029,8.18879-3.49029l6.98061,10.4709v2.28211L538.4458,236.80336h-3.4903l-6.98062-6.98059-2.28213,3.4903c2.28213,3.893,3.4903,6.9806,3.4903,9.26271,0,3.35606-6.98061,13.29-20.9418,30.20451,0,1.34243,3.49031,4.02727,10.47088,8.18879,4.29577-3.893,6.98062-5.77242,8.18879-5.77242a38.25,38.25,0,0,1,10.47088,6.98059h3.49031l11.54484-6.98059a17.66488,17.66488,0,0,0,8.18879,2.28211l4.69848-2.28211a57.515,57.515,0,0,0,9.26271,1.20817,8.8435,8.8435,0,0,0,3.4903-1.20817c1.61093,0,2.28214.40273,2.28214,1.20817,7.786-.80546,13.55848-1.20817,17.45149-1.20817H626.7772q6.645,0,18.52542,1.20817c.93971-.80546,3.62456-1.20817,8.18879-1.20817l5.7724,1.20817a9.06882,9.06882,0,0,1,4.69848-1.20817c3.893,1.20817,5.7724,3.49031,5.7724,6.98059a97.97882,97.97882,0,0,1-1.20817,13.96119c.80546,8.45727,1.20817,16.24332,1.20817,23.22392l-1.20817,6.98059a35.0498,35.0498,0,0,1,1.20817,9.26271v6.98059l-1.20817,6.98062a9.06885,9.06885,0,0,1,1.20817,4.69848c0,5.7724-1.87938,9.66546-5.7724,11.54484H609.45992a59.24716,59.24716,0,0,1-11.54485-1.20817,40.09352,40.09352,0,0,1-10.47088,1.20817h-2.28213a86.55534,86.55534,0,0,1-12.753-1.20817,9.06885,9.06885,0,0,1-4.69848,1.20817c-1.61092,0-2.28213-.40271-2.28213-1.20817l-13.96119,1.20817H529.45151a11.20515,11.20515,0,0,1-5.7724-1.20817l-6.98061,1.20817H466.76036a86.55534,86.55534,0,0,1-12.753-1.20817,8.84315,8.84315,0,0,1-3.49031,1.20817,57.51458,57.51458,0,0,1-9.26271-1.20817c-10.20242.80546-18.79391,1.20817-25.506,1.20817a8.84317,8.84317,0,0,1-3.4903-1.20817l-6.98062,1.20817h-12.753c-2.5506,0-5.23545-1.20817-8.18879-3.49031H383.1274c-.80547,0-3.893.80547-9.26271,2.28214h-6.04086c-1.20818,0-2.68485-1.61092-4.69848-4.69848v-3.49031l1.20817-6.98061a9.06885,9.06885,0,0,1-1.20817-4.69848,8.84325,8.84325,0,0,1,1.20817-3.49031l-1.20817-6.98059a59.41316,59.41316,0,0,1,1.20817-10.4709l-1.20817-2.28212c0-1.6109.40271-2.28211,1.20817-2.28211l-1.20817-11.54485V289.15783c0-5.77243,11.27634-19.33088,33.69482-40.67542.93971,0,6.0409-4.967,15.03515-15.03513h1.20817l4.69848,1.20818c.93971,0,4.02727-2.28212,9.26271-6.9806-.80547-2.28211-1.61093-3.49031-2.28214-3.49031a12.95092,12.95092,0,0,1-6.98061,2.28212l-1.20818-2.28212a332.82942,332.82942,0,0,0,23.2239-24.43209c2.95335,0,6.44361-4.69848,10.47088-13.96118l70.7457-77.72628v-2.28212c0-2.28211-4.29577-4.69848-12.753-6.98059l-6.98061,3.4903c-2.28214,0-3.49031-.40273-3.49031-1.20819l-13.96119,1.20819H459.377a59.24715,59.24715,0,0,1-11.54484-1.20819,40.09357,40.09357,0,0,1-10.47088,1.20819h-4.69848c-1.61093,0-5.36969-.80545-11.54485-2.28212-13.15572,1.61091-22.01572,2.28212-26.7142,2.28212H382.8589c-5.3697,0-8.18879-2.28212-8.18879-6.9806,0-2.28211.80546-9.66544,2.28213-22.01573a12.95088,12.95088,0,0,1-2.28213-6.9806l1.20817-8.18878a32.648,32.648,0,0,1-1.20817-8.18877c1.61092-2.55061,2.28213-4.43,2.28213-5.77242-1.61092-2.5506-2.28213-4.43-2.28213-5.77242s2.28213-4.02727,6.98061-8.18878V28.99631l-5.7724-5.77241V16.2433C376.01261,15.03513,377.48929,13.55847,380.57684,11.54484ZM369.032,322.58418l2.28213,1.20818c1.20818,0,3.49031-3.08758,6.98062-9.26271v-1.20817a1.99922,1.99922,0,0,0-2.28214-2.28212h-1.20817C373.462,311.03934,371.58259,314.93238,369.032,322.58418ZM372.52231,295.87l-1.20818,2.28211c.13425,1.61091.93972,2.28212,2.28214,2.28212l1.20817-2.28212A2.05417,2.05417,0,0,0,372.52231,295.87Zm4.56422,55.71054c2.5506,2.28214,4.43,3.49031,5.77241,3.49031a15.96229,15.96229,0,0,0,8.18878-6.98061V346.882c0-1.34242-2.28213-2.95334-6.98061-4.69848C379.50292,343.92872,377.08653,347.01627,377.08653,351.5805Zm6.98062-279.62664v3.49029l5.7724-1.20818a59.248,59.248,0,0,0,11.54484,1.20818l2.28214-3.49029v-3.4903h-2.28214C391.45047,70.74568,385.678,71.95386,384.06715,71.95386Zm0,234.387V307.549l1.20817,2.28212a6.41652,6.41652,0,0,0,4.69848-4.69848l-2.28213-1.20817h-1.20818Q384.06717,304.32725,384.06715,306.34086Zm1.20817-250.63032v3.4903h1.20817a1.99922,1.99922,0,0,0,2.28214-2.28212l-2.28214-1.20818Zm10.47088-25.506c.13425,1.61091.93971,2.28212,2.28214,2.28212a6.41653,6.41653,0,0,0,4.69848-4.69848L400.44468,26.58h-1.20817C398.02834,26.71421,396.82017,27.78815,395.7462,30.20451Zm1.074,9.26272v3.4903h3.4903a1.99922,1.99922,0,0,0,2.28214-2.28212V39.46723a1.99922,1.99922,0,0,0-2.28214-2.28212H399.1023A2.18243,2.18243,0,0,0,396.82017,39.46723Zm0,52.22025v3.49029c.13425,1.61091.93971,2.28212,2.28213,2.28212h1.20817c1.20817,0,2.68485-1.61091,4.69848-4.69848V91.55323c0-1.20819-1.20817-2.28212-3.49031-3.4903C398.43105,89.40535,396.82017,90.47929,396.82017,91.68748ZM398.02834,282.043v2.28212h2.28213V282.043ZM409.70743,92.89565v2.28211h1.20817V92.89565Zm1.07392,243.64972,2.28214,1.20818,9.26271-9.26271a1.99922,1.99922,0,0,0-2.28214-2.28212h-2.28213C413.06349,328.75932,410.78135,332.24962,410.78135,336.54537Zm0,9.26273v2.28214h2.28214V345.8081Zm8.18879-305.13269-5.7724-1.20818-1.20817,2.28212c2.95334,5.36969,4.83273,8.18878,5.7724,8.18878h2.28213c8.45725-3.4903,12.753-5.77242,12.753-6.9806V41.74935a8.84317,8.84317,0,0,1-1.20817-3.4903h-1.20818C429.03831,38.25905,425.14529,39.0645,418.97014,40.67541Zm-4.69848,25.506-2.28213,3.4903,3.4903,2.28212,2.28214-3.4903Zm1.20817-39.46723v1.20818l1.20818,2.28212c3.4903-1.61091,5.36969-3.08757,5.7724-4.69848V24.29785l-1.20818-2.28212C417.762,23.62664,415.88254,25.10331,415.47983,26.71421ZM418.97014,74.236l2.28214,3.49029c4.69847-1.74515,6.98061-3.22181,6.98061-4.69848V71.81961a1.99922,1.99922,0,0,0-2.28214-2.28212C421.25223,71.1484,418.97014,72.75931,418.97014,74.236Zm1.07392,267.00787-1.20817,2.28212v1.20817h3.49031V343.526C422.46045,341.91506,421.655,341.24385,420.04406,341.24385Zm0-251.8385v3.4903h1.20817c8.45725-1.74516,12.753-3.62454,12.753-5.77242l-1.20817-2.28212A38.96746,38.96746,0,0,1,420.04406,89.40535Zm3.49031,222.70793v4.69848h1.20817c1.20817,0,2.28214-1.20817,3.49031-3.4903l-2.28214-1.20818Zm16.24332-57.99265c0,7.786-4.69848,13.96118-13.96119,18.52543v1.20818c.13425,1.6109.93972,2.28211,2.28214,2.28211h1.20817a65.717,65.717,0,0,1,19.73363-13.96119V260.967Q446.82538,254.12062,439.77769,254.12063ZM430.515,321.51024l-1.20817,2.28212c.13425,1.6109.93971,2.28211,2.28214,2.28211a1.99922,1.99922,0,0,0,2.28213-2.28211Zm1.20818-264.59151V60.409a1.99922,1.99922,0,0,0,2.28213-2.28212Zm5.7724,236.66912v3.4903h3.4903v-3.4903Zm3.4903-80.00839v3.49031a60.48022,60.48022,0,0,0,8.18879,2.28212l2.28214-3.49031c0-.80546-1.87939-2.68485-5.7724-5.77242C442.46254,211.1631,440.98586,212.37127,440.98586,213.57946Zm3.49031-174.11223c.13425,1.61091.93971,2.28212,2.28214,2.28212,1.20817,0,2.68484-1.61091,4.69848-4.69848V35.84269a1.99923,1.99923,0,0,0-2.28214-2.28212C448.10069,33.69481,446.62406,35.5742,444.47617,39.46723Zm2.2821,285.53332-2.28214,3.49031V330.773c.13425,1.6109.93971,2.28212,2.28214,2.28212a8.84306,8.84306,0,0,1,3.4903-1.20818v-3.4903C450.24857,327.28266,449.0404,326.07447,446.75827,325.00055Zm1.20821-84.84113,2.28213,1.20817c.93972,0,2.5506-3.893,4.69848-11.54484,1.20818,0,2.28214-1.20818,3.49031-3.49031,0-1.6109-1.20817-2.28212-3.49031-2.28212C450.78553,223.91611,448.50344,229.42,447.96648,240.15942Zm1.07392,76.65234,2.28214,1.20818c1.20817,0,2.28213-1.20818,3.4903-3.49031v-3.49031h-2.28213C450.78553,311.03934,449.71161,312.91875,449.0404,316.81176Zm1.20817,32.48665c.13425,1.61092.93972,2.28213,2.28214,2.28213h2.28213a2.28214,2.28214,0,1,0,0-4.56427h-2.28213A2.18246,2.18246,0,0,0,450.24857,349.29841ZM451.45675,61.483v3.4903l5.7724,1.20818c6.0409-3.22182,9.53121-6.0409,10.47088-8.18878V56.78448c0-1.20818-1.20817-2.28212-3.49031-3.4903L454.947,61.483Zm24.29786,240.29367H469.9822c-4.02726-3.08757-7.51757-4.69848-10.47088-4.69848h-4.69848c-1.20817,0-2.28213,1.20818-3.4903,3.49031v1.20817h2.28213c7.92029,0,13.29,1.20817,16.24332,3.49031h4.69848c8.45725-2.95333,12.753-5.23544,12.753-6.98059a1.99922,1.99922,0,0,0-2.28214-2.28212C483.67489,296.13846,480.58734,298.01784,475.75461,301.77663Zm-23.2239-282.043v2.28212h2.28213V19.73361Zm33.69482,154.37861c-6.98062,12.35029-17.4515,18.52544-31.27844,18.52544V196.128c0,2.14788,4.69848,4.02727,13.96119,5.77242,6.71212-6.17515,10.60513-9.26271,11.54485-9.26271l4.69848,2.28212a8.84356,8.84356,0,0,0,3.4903-1.20818l6.98062,1.20818a1.99923,1.99923,0,0,0,2.28213-2.28212v-2.28211c-6.98061,0-10.47088-1.20818-10.47088-3.49031v-1.20817c3.893-3.49031,5.7724-6.9806,5.7724-10.4709C492.66914,175.18617,490.2528,174.78343,486.22553,174.11222Zm-28.99634,74.236,1.20817,4.69848a57.51485,57.51485,0,0,0-1.20817,9.26271h2.28213c2.14789,0,4.02727-4.69848,5.7724-13.96119,0-1.20817-1.20817-2.28211-3.4903-3.4903h-1.20818C459.51128,244.8579,458.43736,246.06609,457.22919,248.3482Zm0,81.21658,2.28213,1.20817h1.20818a1.99922,1.99922,0,0,0,2.28213-2.28211v-2.28212H460.7195C459.51128,326.07447,458.43736,327.28266,457.22919,329.56478Zm1.20817-57.99266v3.49031h4.69848V270.364h-1.20817A9.56873,9.56873,0,0,1,458.43736,271.57212Zm2.28214-37.1851c.13425,1.6109.93971,2.28211,2.28213,2.28211h1.20817c1.20817,0,2.28214-1.20817,3.49031-3.49031v-1.20817a1.99922,1.99922,0,0,0-2.28214-2.28211C464.20976,229.82277,462.59888,231.29944,460.7195,234.387Zm3.49026,81.21657c.13425,1.6109.93971,2.28212,2.28214,2.28212h5.7724a1.99923,1.99923,0,0,0,2.28213-2.28212v-1.20817a1.99923,1.99923,0,0,0-2.28213-2.28212C466.89461,312.91875,464.20976,314.12692,464.20976,315.60359Zm1.074-229.68854v3.4903c0,1.74515,1.87939,2.95333,5.77241,3.4903,2.28213-3.08758,3.4903-5.36969,3.4903-6.9806l-3.4903-2.28212h-3.49031A2.18244,2.18244,0,0,0,465.28372,85.915ZM467.70007,343.526a8.84317,8.84317,0,0,1,1.20817,3.4903h4.69848v-2.28213a1.99923,1.99923,0,0,0-2.28213-2.28212h-1.20818Zm4.56423-269.29,3.49031,2.28212c1.20817,0,2.28213-1.20819,3.4903-3.4903a1.99922,1.99922,0,0,0-2.28213-2.28212h-1.20817C474.68068,70.74568,473.47251,71.95386,472.2643,74.236Zm3.49031,131.1547a8.84323,8.84323,0,0,1-1.20818,3.4903,8.84321,8.84321,0,0,1,1.20818,3.49031h5.7724l1.20817-4.69848-3.49027-2.28213Zm-1.07393,33.69482,2.28214,1.20817c4.02727,0,6.44361-1.20817,6.98061-3.49031v-3.49031h-4.69852C477.76824,233.58155,476.15736,235.59519,474.68068,239.0855Zm1.07393-214.65341v3.4903h1.20817a1.99922,1.99922,0,0,0,2.28213-2.28212V24.43209Zm0,256.40274,2.28213,1.20817h1.20817c2.28214-.80546,3.49031-3.08757,3.49031-6.98059v-1.20817h-3.49031C476.96278,274.6597,475.75461,276.94181,475.75461,280.83483Zm2.41638-27.78815-1.20817,2.28212c.537,2.28211,3.62456,3.49031,9.26271,3.49031l1.20817-2.28212C487.4337,254.52336,484.3461,253.31516,478.171,253.04668Zm0-196.12795V60.409h1.20817a1.99922,1.99922,0,0,0,2.28214-2.28212l-2.28214-1.20818Zm9.26271-13.9612v2.28212h2.28213V42.95753ZM489.71579,74.236l-1.20817,2.28212a32.648,32.648,0,0,1,1.20817,8.18877h4.69848l5.7724-1.20818v-3.4903C497.09912,76.24961,493.60885,74.236,489.71579,74.236Zm4.69848,200.82643v2.28211h2.28214c1.20817,0,2.28213-1.20817,3.49031-3.4903l-2.28214-1.20818h-1.20817C495.08548,272.91454,494.41427,273.72,494.41427,275.06241Zm1.074-103.36654v3.4903l4.69848,1.20817,2.28213-3.49031-3.49031-2.28211A7.627,7.627,0,0,1,495.48824,171.69587Zm4.69848,37.18511c-1.74514,2.14789-3.35606,6.44364-4.69848,12.753.13425,1.6109.93971,2.28211,2.28213,2.28211,5.23544-2.14788,8.323-4.43,9.26271-6.98059C505.42216,212.37127,503.00581,209.68643,500.18672,208.881Zm1.07392-68.46357-1.20818,2.28212c1.34243,3.08758,4.02727,4.69848,8.18879,4.69848l1.20817-2.28212C508.24125,142.02833,505.55641,140.41741,501.26064,140.41741Zm-1.07392,150.88832v1.20817c.13425,1.61091.93971,2.28212,2.28213,2.28212,3.893-.93969,5.7724-2.14789,5.7724-3.49031V289.0236a8.84348,8.84348,0,0,1-3.49031-1.20818C501.66339,289.02362,500.18672,290.09756,500.18672,291.30573Zm2.28209-241.3676c.13425,1.6109.93971,2.28212,2.28213,2.28212,6.98062-2.55061,10.47088-4.43,10.47088-5.77242V45.23965a1.99922,1.99922,0,0,0-2.28213-2.28212C507.70429,45.1054,504.214,47.38752,502.46881,49.93813Zm2.28213,190.22129c.80547,2.28211,3.08756,3.4903,6.98062,3.4903a1.99922,1.99922,0,0,0,2.28213-2.28211c0-1.20817-1.20817-2.28211-3.4903-3.49031h-3.49031C505.55641,238.14578,504.75094,238.817,504.75094,240.15942Zm3.49031-173.978c0,2.28212,1.61093,3.4903,4.69848,3.4903,6.17515-1.8794,9.26271-3.4903,9.26271-4.69848V62.69114a14.47709,14.47709,0,0,1-9.26271-3.4903h-1.20817C509.44942,60.0063,508.24125,62.28842,508.24125,66.18144Zm1.20817,125.24805-1.20817,2.28211v1.20818c.13425,1.6109.93971,2.28211,2.28214,2.28211h2.28213a1.99922,1.99922,0,0,0,2.28214-2.28211v-2.28212Zm-1.20817,60.409c0,1.20817,1.20817,2.28212,3.49031,3.49031l2.28213-3.49031v-1.20817a1.99923,1.99923,0,0,0-2.28213-2.28212C510.6576,248.3482,509.44942,249.55638,508.24125,251.83851Zm17.4515-112.62928-5.7724-1.20818-2.28214,3.4903,2.28214,3.49029c9.2627-.80545,13.96118-2.28211,13.96118-4.69848V139.075a1.99922,1.99922,0,0,0-2.28213-2.28211h-2.28214ZM519.9203,77.72628l-1.20817,2.28212c.13425,1.61091.93971,2.28212,2.28214,2.28212l1.20817-2.28212A2.05417,2.05417,0,0,0,519.9203,77.72628Zm1.074,93.96959-2.28214,3.4903c.13425,1.6109.93971,2.28211,2.28214,2.28211h3.4903V172.7698C523.81336,172.90405,522.60515,172.50132,520.99427,171.69587Zm0,67.38963v2.28211h2.28213V239.0855Zm1.20817-48.72995c.13425,1.6109.93971,2.28211,2.28213,2.28211a1.99922,1.99922,0,0,0,2.28214-2.28211v-2.41637h-2.28214C523.0079,188.20766,522.20244,189.01312,522.20244,190.35555Zm3.49031-67.38963v1.20818c.13425,1.61091.93971,2.28212,2.28213,2.28212h1.20817c1.20818,0,2.28214-1.20819,3.49031-3.4903v-3.4903C527.97484,119.87835,525.69275,121.08653,525.69275,122.96592Zm0,98.66808v1.20817c.13425,1.61091.93971,2.28212,2.28213,2.28212a6.41652,6.41652,0,0,0,4.69848-4.69848l-3.49031-2.28212C527.97484,218.14369,526.90092,219.35186,525.69275,221.634Zm1.20817,83.63292c0,1.6109-.40271,2.28211-1.20817,2.28211l3.4903,5.77243v1.20817l-1.20817,8.18878,2.28214,1.20818c4.69848-1.61091,6.98061-4.69848,6.98061-9.26271-1.20817,0-3.893-3.08758-8.18879-9.26271h-2.14792Zm0-246.06608c0,2.14787,3.893,4.43,11.54484,6.9806l2.28214-3.4903c-3.893-2.14787-5.7724-3.62454-5.7724-4.69848V56.78448l2.28213-3.4903V52.086a1.99922,1.99922,0,0,0-2.28213-2.28212C533.74728,49.93813,531.06244,53.0257,526.90092,59.20084Zm18.52542,12.753,1.20817,5.77241-2.28214,1.20819H543.1442c-4.02727-3.893-7.51757-5.77242-10.47088-5.77242h-1.20817l-3.49031,2.28212c0,2.28212,3.893,4.69848,11.54484,6.9806,0,1.20818,1.20818,2.28212,3.49031,3.49029h1.20817c6.98062-5.63817,10.47088-10.60514,10.47088-15.03513V69.67174a1.99922,1.99922,0,0,0-2.28213-2.28212H548.9166C547.70847,67.25538,546.63455,68.86628,545.42634,71.95386ZM530.39123,99.742l-1.20818,2.28212v1.20818c.537,2.28211,3.62456,3.4903,9.26271,3.4903v-2.28212C538.44576,102.96382,535.76092,101.35292,530.39123,99.742Zm0-63.76508v2.28212h1.20817V35.97693Zm5.7724,155.45256-1.20817,2.28211c.13425,1.61091.93971,2.28212,2.28213,2.28212l1.20817-2.28212A2.05416,2.05416,0,0,0,536.16363,191.42949Zm1.074,25.64026v2.28211c0,.537,1.20817,1.74516,3.49031,3.49031,3.08755,0,5.36969-3.49031,6.98061-10.4709C541.80182,212.37127,538.31151,213.98217,537.23759,217.06975Zm0,126.45622v2.28213c.13425,1.61093.93971,2.28214,2.28214,2.28214H543.01c1.20817,0,2.28214-1.20818,3.49031-3.49031L543.01,342.31782Zm1.20817-190.35554v2.28212l2.28214,3.49029V161.225a9.06882,9.06882,0,0,1-1.20817,4.69848,8.84309,8.84309,0,0,1,1.20817,3.49029H543.01c2.5506,0,4.02727-5.77242,4.69848-17.45149l-3.49031-2.28212h-2.28213C540.72786,149.68013,539.65393,150.88832,538.44576,153.17043Zm4.69848,150.88832-1.20817,2.28211V307.549c.80546,2.28212,3.08756,3.49031,6.98061,3.49031l1.20818-2.28211v-1.20818C549.31939,305.26692,546.903,304.05875,543.14424,304.05875Zm1.07392-168.33981v3.49029c.13425,1.61091.93972,2.28212,2.28214,2.28212,1.20817,0,2.28213-1.20819,3.49031-3.4903v-2.28211a1.99923,1.99923,0,0,0-2.28214-2.28212H546.5003C545.02363,133.7053,544.21816,134.37651,544.21816,135.71894Zm2.41639,221.76821c.13425,1.61093.93971,2.28214,2.28213,2.28214,8.45725-6.98061,12.753-10.87363,12.753-11.54484,0-1.61093-1.20817-2.28214-3.49031-2.28214C556.03151,346.07656,552.13845,349.83537,546.63455,357.48715Zm3.49027-254.25484c0,1.20818,1.20817,2.28211,3.4903,3.4903.13425-1.61091.93972-2.28212,2.28214-2.28212a8.84307,8.84307,0,0,1-1.20817-3.4903H552.407C550.796,101.21868,550.12482,101.88989,550.12482,103.23231ZM552.407,53.42842c1.87938,5.36969,3.49031,8.18878,4.69848,8.18878h2.28214V59.33508c0-4.29575-1.61093-6.9806-4.69848-8.18878A2.18244,2.18244,0,0,0,552.407,53.42842Zm1.07392,73.0278c.13425,1.6109.93971,2.28211,2.28214,2.28211l1.20817-2.28211V124.1741H555.763A2.18243,2.18243,0,0,0,553.48087,126.45622Zm1.20822,197.33614-1.20818,2.28211v2.28212l4.69848,1.20817,1.20818-2.28212v-2.28211Zm0,13.96121c3.4903,2.28211,6.17515,3.4903,8.18878,3.4903l1.20817-2.28211c-.80546-2.28212-3.08755-3.49031-6.98061-3.49031C555.49451,335.60568,554.68909,336.41114,554.68909,337.75357Zm3.49026-191.56373-1.20817,2.28211v2.28212c4.69848,4.83272,6.98061,8.323,6.98061,10.4709h3.49031c0-2.28212,1.61093-4.69848,4.69848-6.9806C572.14058,153.17043,567.4421,150.48559,558.17935,146.18984Zm5.77244-77.72628c0,1.61091,2.68485,2.68484,8.18879,3.4903,6.17515-2.14788,9.26271-4.83272,9.26271-8.18878A8.84343,8.84343,0,0,0,577.913,62.5569a48.06768,48.06768,0,0,1-13.96119,4.69848ZM565.16,19.73361v1.20818c0,1.20818,1.61092,2.68485,4.69848,4.69848h1.20817c2.28213-.537,3.49031-3.62454,3.49031-9.26271l-2.28214-1.20818C567.4421,16.646,565.16,18.12271,565.16,19.73361Zm16.24332,282.043-8.18879-1.20817a83.54282,83.54282,0,0,1-8.18878,10.4709c.13425,1.6109.93971,2.28212,2.28213,2.28212,5.36969-3.08758,9.26271-4.69848,11.54484-4.69848,4.69848,1.74515,6.98062,3.356,6.98062,4.69848v5.77242c-2.14789,3.893-5.63819,5.77242-10.47088,5.77242v1.20817c0,1.20817,1.20817,2.28212,3.49031,3.49031h6.98061a59.41468,59.41468,0,0,0,10.47088-1.20817l5.7724,2.28211,1.20817-2.28211-5.7724-6.9806c.13425-1.6109.93972-2.28211,2.28214-2.28211l5.7724,1.20817q8.05453-10.47089,9.26271-10.4709L618.32,312.1133h2.28213v-2.28211c-3.62456-5.36969-6.0409-8.18879-6.98061-8.18879a18.933,18.933,0,0,1-9.26271,2.28212H603.1506c-6.04091-7.78606-9.53121-11.54485-10.47089-11.54485h-3.4903C585.02781,298.68906,582.343,301.77663,581.40329,301.77663Zm-12.753-196.128-2.28213,3.4903,4.69848,3.4903h2.28213l2.28214-1.20818C574.42268,107.52806,572.14058,105.64866,568.65027,105.64866Zm1.07393,61.483-3.49031,4.69848v1.20817c1.61092,5.36969,2.28213,8.45727,2.28213,9.26271v3.49031a8.84348,8.84348,0,0,1,3.49031,1.20817c6.17515-2.95333,9.26271-6.71211,9.26271-11.54484v-2.28212C579.65812,172.90405,575.7651,171.02466,569.7242,167.13163ZM567.4421,46.44782V47.656l1.20817,2.28212a8.84337,8.84337,0,0,1,3.49031-1.20819V46.44782a1.99923,1.99923,0,0,0-2.28213-2.28212C568.24752,44.3,567.4421,45.1054,567.4421,46.44782Zm1.20817,10.47091c.13425,1.6109.93972,2.28212,2.28214,2.28212l2.28213-3.4903-2.28213-1.20818C569.45574,54.77085,568.65027,55.5763,568.65027,56.91873Zm3.49031,223.9161c.537,6.17515,3.22181,9.26271,8.18879,9.26271,3.08755-1.20817,4.69848-2.28212,4.69848-3.49031,0-.93969-3.08756-3.22181-9.26271-6.98059A9.9895,9.9895,0,0,1,572.14058,280.83483Zm3.49027,53.42843-1.20817,2.28211v2.28212l2.28213,3.4903V343.526l-3.49031,4.69848v1.20817c0,1.20817,1.20818,2.28213,3.49031,3.49031H577.913c1.20817,0,2.28214-1.20818,3.49031-3.49031l-1.20817-5.77242a8.84306,8.84306,0,0,1,3.4903-1.20818,8.84314,8.84314,0,0,0,3.49031,1.20818l2.28214-3.49031C589.45783,337.8878,584.8936,336.00841,575.63085,334.26326Zm0-258.8191v3.4903l1.20817,2.28211a8.84343,8.84343,0,0,1,3.49031-1.20818V77.72627a1.99922,1.99922,0,0,0-2.28214-2.28212Zm4.56427,83.49869L578.987,161.225v2.28211l5.7724,1.20818h3.4903c1.20818,0,2.28214-1.20818,3.49031-3.49029,0-1.61091-1.20817-2.28212-3.49031-2.28212l-4.69848,1.20819A7.28,7.28,0,0,0,580.19512,158.94285Zm0-125.248v2.28212c.13425,1.61091.93971,2.28212,2.28213,2.28212l1.20817-2.28212V33.69481Zm1.20817,10.33665-1.20817,2.28212v1.20819c2.28213,8.18877,5.36969,13.15574,9.26271,15.03513h3.4903c0-6.9806,2.28214-10.47089,6.98062-10.47089v-3.4903c-.537,0-2.95335.40272-6.98062,1.20818C586.236,46.0451,582.343,44.03146,581.40329,44.03146Zm1.20817,102.15838V147.398c0,1.20818,1.20817,2.28211,3.49031,3.4903,2.14788,0,4.02727-1.8794,5.7724-5.77243l-3.49031-2.28211h-2.28213C584.8936,142.69954,583.68538,143.90771,582.61146,146.18984Zm5.7724-54.50236-3.4903,4.69848v1.20818l2.28213,3.4903c1.20817,0,3.08756-1.61091,5.7724-4.69848A6.251,6.251,0,0,0,588.38386,91.68748Zm-1.20817,262.30941-1.20817,2.28213c0,1.20818,1.20817,2.28214,3.49031,3.49031A1.99922,1.99922,0,0,0,591.74,357.4872v-2.28214ZM630.13322,61.483a9.06895,9.06895,0,0,0-4.69848-1.20818l-15.03511,8.18878c0,1.61091-.40271,2.28212-1.20817,2.28212,1.61092,3.08757,2.28213,5.36969,2.28213,6.9806l-2.28213,1.20818c-3.08756-.9397-4.69848-4.43-4.69848-10.4709V67.25538l2.28213-3.4903A1.99923,1.99923,0,0,0,604.493,61.483c-8.86,6.9806-14.36394,10.4709-16.24333,10.4709v3.4903c0,1.20818,1.20818,2.28212,3.49031,3.4903a9.06886,9.06886,0,0,1,4.69848-1.20819c3.62456,5.36969,6.0409,8.18878,6.98062,8.18878l3.4903-2.28212A14.20282,14.20282,0,0,1,613.89,85.915c5.7724-12.35029,10.47088-18.52543,13.96119-18.52543l4.69847,2.28212q0-.80545,9.26271-9.26272c0-1.20819-1.20817-2.28212-3.4903-3.4903Zm-38.259-28.99633v2.28212h12.753a1.99922,1.99922,0,0,0,2.28213-2.28212c-.80546,0-4.29577-2.28212-10.47088-6.9806h-1.20817C592.94813,26.31149,591.87417,28.5936,591.87417,32.48663Zm6.98062,75.44416c0,3.35606-1.61093,6.44363-4.69848,9.26272v1.20818h3.4903c0-1.74515,1.87939-4.83272,5.7724-9.26272l-2.28213-1.20818Zm5.7724,178.67646-2.28214,3.49031c2.28214,5.36969,5.7724,8.18879,10.47088,8.18879h1.20817a9.52488,9.52488,0,0,0,5.77241-9.26271,8.84331,8.84331,0,0,0-3.49031-1.20818l-4.69848,1.20818A13.234,13.234,0,0,0,604.62719,286.60725ZM613.8899,20.9418V22.15c.13425,1.61091.93971,2.28212,2.28213,2.28212L617.3802,22.15V20.9418Zm3.4903,11.54483v1.20818a8.84343,8.84343,0,0,1,3.49031,1.20818l1.20817-2.28212a1.99922,1.99922,0,0,0-2.28213-2.28212C618.18566,30.33875,617.3802,31.14421,617.3802,32.48663Zm0,5.77242v2.28212c.13425,1.61091.93971,2.28212,2.28214,2.28212l2.28213-3.4903-2.28213-1.20818H617.3802Zm5.77244,76.65233v1.20819l1.20818,2.28211c4.69848-1.6109,6.98061-3.08758,6.98061-4.69848l-3.49031-2.28211C624.76353,112.62927,623.15264,113.7032,623.15264,114.91138Zm5.77241-32.48662c-1.61093,1.87939-2.28214,3.49029-2.28214,4.69848a13.54165,13.54165,0,0,0,5.7724,6.98059h3.49031c6.71211-4.02727,10.20242-6.71211,10.47088-8.18878V83.63293c-2.28213,0-5.36969,1.20819-9.26271,3.49031Zm0-60.409-1.20818,2.28212V25.506c.80547,2.28212,3.08756,3.4903,6.98062,3.4903l2.28213-3.4903C634.16049,23.22391,631.47564,22.01573,628.92505,22.01573Zm-1.07393,76.65234v3.4903h2.28214v-3.4903Z"/>
      <path class="a" d="M714.70589,297.07815c3.08756,1.20818,4.69848,3.893,4.69848,8.18879-3.89306,3.893-5.7724,8.18879-5.7724,12.753H710.1417c-3.89306-2.28212-5.7724-4.69848-5.7724-6.9806A30.14886,30.14886,0,0,1,714.70589,297.07815ZM849.35087,0q36.84948,0,77.72631,10.4709,15.30357,0,80.00836,26.71421c2.28214,2.5506,3.49027,4.43,3.49027,5.77242q-41.2795,67.85946-44.03145,70.74567l-5.7724,1.20818c-4.967-2.68484-19.73363-7.786-44.16574-15.03513,0-1.6109-15.03515-4.967-45.23966-10.4709l-10.47088-2.28211h-6.98062c-20.13634,2.68484-30.20451,8.18877-30.20451,16.24331v2.28211c0,10.06817,16.24328,18.52544,48.72993,25.506,38.93026,8.86,68.59777,18.92815,89.40532,30.20451q38.05773,20.53905,39.46726,38.259c6.98062,0,11.27638,5.77243,12.753,17.4515,2.95334,0,5.63819,10.4709,8.18874,31.27845l-1.20821,5.77243,1.20821,2.28211c-3.89306,27.11694-11.27638,47.92449-22.01576,62.69114-15.03515,18.39118-36.78242,31.54695-64.9733,39.46724-7.51753,2.28213-17.98849,4.29577-31.27843,5.7724l-5.7724-1.20817a12.95088,12.95088,0,0,1-6.98061,2.28213h-4.69848c-2.28214,0-6.17512-1.61092-11.54481-4.69848l-5.7724,3.49031H866.9365c-3.89306,0-5.7724-.80546-5.7724-2.28214l-5.77241,1.20818c-11.41059,0-26.17724-2.28214-44.16574-6.98062q-13.89413,0-59.20081-19.73361c-6.5779,0-11.27638-2.28211-13.96122-6.98059v-9.26271l1.20821-2.28211q8.05454,1.40954,20.94176,18.52543a34.32842,34.32842,0,0,1,9.26275,1.20818l1.20821-2.28212v-1.07394c-2.68484-6.71212-10.87359-13.69271-24.43211-20.9418a54.00114,54.00114,0,0,0-19.73363-12.753l-6.98061-8.18879v-1.07392q4.43-15.70635,27.78816-49.93812l2.28214-1.20817h2.28213c36.11121,17.04876,57.85839,25.506,64.9733,25.506,0,2.28211,20.94176,6.98059,62.69116,13.96119,3.49026-2.28212,10.87359-4.29575,22.01576-5.77242,4.69848-5.77243,6.98061-10.06817,6.98061-12.753,0-8.86-12.3503-17.4515-37.18512-25.506a8.84321,8.84321,0,0,0-3.49027,1.20817q-57.18726-12.48453-93.96959-28.99634-25.77449-15.10225-27.78816-19.73361a14.2022,14.2022,0,0,1,2.28213-6.98059l-2.28213-1.20818-6.98062,1.20818c-12.216-8.45727-20.67334-22.82119-25.506-42.95753l-1.20821-5.77242c6.17511-2.55061,9.26275-4.43,9.26275-5.77242l-3.49027-2.28212a9.06895,9.06895,0,0,1-4.69848,1.20818c-2.28214-2.68484-3.49027-7.38332-3.49027-13.96119v-8.18878c0-4.43,1.61093-12.61878,4.69848-24.4321,9.12846-26.7142,22.687-44.43419,40.67539-53.42842l5.77241,3.4903h4.69848V27.78814L764.644,19.59936Q798.27163.06713,849.35087,0ZM725.17677,321.51024H726.385c1.20822,0,2.68485,1.61091,4.69848,4.69848v1.20817H727.5932c-1.20822,0-2.68485-1.6109-4.69848-4.69848Zm3.49027-12.753c4.967,1.87938,7.786,3.893,8.18874,5.77242,0,1.6109-1.20821,2.28211-3.49026,2.28211-4.967-1.87938-7.786-3.893-8.18875-5.77242C725.17677,309.42844,726.25069,308.75723,728.667,308.75723ZM730.94917,109.139v2.28212l1.20822,2.28211a8.84347,8.84347,0,0,1,3.49026-1.20818V110.2129l-1.20821-2.28211A8.8431,8.8431,0,0,1,730.94917,109.139Zm18.52542,144.98166c-6.17511,4.83273-9.26275,7.51757-9.26275,8.18878,0,1.20817,1.20821,2.28212,3.49027,3.49031,3.22184-5.36969,5.63819-8.18879,6.98061-8.18879,4.967,1.61091,8.18875,2.28212,9.26275,2.28212l1.20821-2.28212C761.15368,255.3288,757.26063,254.12063,749.47459,254.12063Zm4.69848,17.45149-2.28214,3.49031,2.28214,1.20817h2.28213v-2.41636A2.05414,2.05414,0,0,0,754.17307,271.57212Zm5.7724-132.36289-2.28213,3.4903c0,1.20818,1.20821,2.28211,3.49026,3.4903a1.99922,1.99922,0,0,0,2.28214-2.28212v-3.4903A8.84333,8.84333,0,0,1,759.94547,139.20923Zm8.18883-28.99633-1.20821,2.28212v1.20818c.13421,1.6109.93971,2.28212,2.28213,2.28212h1.20821a1.99922,1.99922,0,0,0,2.28214-2.28212C772.69849,112.62927,771.22185,111.42109,768.1343,110.2129Zm6.84632,165.92345c1.20822,3.08758,2.28214,4.69848,3.49027,4.69848a1.99922,1.99922,0,0,0,2.28213-2.28211c0-1.20818-1.20821-2.28212-3.49026-3.49031Zm1.20822-10.33665,11.5448,6.98059c.13421-1.6109.93971-2.28211,2.28213-2.28211a15.96227,15.96227,0,0,0-6.98061-8.18879h-3.49027C778.471,262.30939,777.397,263.38333,776.18884,265.7997Zm5.7724-145.1159-1.20822,2.28212V125.248a8.843,8.843,0,0,1,3.49027,1.20819l1.20821-2.28212V121.892A8.84336,8.84336,0,0,1,781.96124,120.6838Zm1.20821,12.753-1.20821,2.28212c.13421,1.6109.93971,2.28211,2.28213,2.28211a1.99922,1.99922,0,0,0,2.28214-2.28211Zm4.56419,73.162c.13421,1.6109.93971,2.28211,2.28213,2.28211a2.28212,2.28212,0,1,0,0-4.56423A2.18246,2.18246,0,0,0,787.73364,206.59885Zm1.20821-150.88831v2.28212H791.224V55.71054ZM790.15,103.23231c0,4.69848,5.36969,7.78606,16.24328,9.26272q15.10227,19.73363,20.94177,19.73361a8.84347,8.84347,0,0,1,3.49026-1.20818v-3.4903c-.93971-.93969-4.43-2.95333-10.47088-5.77242-2.68484-10.87363-7.38332-16.24332-13.96123-16.24332l-2.28213,1.20819c-.80542,0-3.89306-2.28212-9.26275-6.9806Zm2.28214,83.63293v3.49031c0,1.20817,1.20821,2.28211,3.49026,3.4903l2.28214-3.4903a8.84406,8.84406,0,0,1-1.20821-3.49031Zm2.28213-70.87991-1.20821,5.77242c4.69848,6.0409,6.98061,10.20241,6.98061,12.753l-1.20821,5.77242c0,3.08758,4.967,5.77243,15.03515,8.18878,4.29577,3.893,7.786,5.77242,10.47088,5.77242l2.28214-3.49029c0-1.20819-5.7724-6.17515-17.4515-15.03513a59.4094,59.4094,0,0,1,1.20822-10.47091c0-1.34242-3.49027-3.62453-10.47089-6.98059a1.9992,1.9992,0,0,0-2.28213-2.28211h-3.35606ZM795.92247,269.29c.80542,3.08757,3.08755,4.69848,6.98061,4.69848h1.20821v-1.20818c0-4.02726-1.20821-6.44363-3.49026-6.98059h-1.20822C798.20452,265.7997,797.1306,266.87364,795.92247,269.29Zm2.28205,17.31724,1.20821,2.28212-1.20821,5.77242,8.18874,4.69848h2.28214V298.1521c-4.43-7.78606-7.11482-11.54485-8.18875-11.54485ZM800.621,92.89565v4.69848a8.84307,8.84307,0,0,1,3.49026,1.20818c.13421-1.6109.93971-2.28211,2.28214-2.28211a8.84414,8.84414,0,0,1-1.20822-3.4903H800.621Zm0,251.70428,3.49026,2.28213h1.20821c1.20822,0,2.28214-1.20817,3.49027-3.4903a1.99921,1.99921,0,0,0-2.28213-2.28212h-2.41635C802.903,341.24385,801.69487,342.31779,800.621,344.59993Zm1.07392-273.85425V73.0278c.13421,1.34242,3.22184,3.62454,9.26275,6.9806,9.26275-1.8794,13.96123-3.4903,13.96123-4.69848l-1.20822-2.28212L821.4285,74.236c-3.89306-2.28212-6.57791-3.4903-8.18875-3.4903a12.95092,12.95092,0,0,1-6.98061,2.28212l-3.49027-2.28212ZM802.903,181.09282l-1.20821,2.28211v1.20817h3.49026v-1.20817A1.99912,1.99912,0,0,0,802.903,181.09282Zm1.20821-8.18877c.13421,1.6109.93971,2.28212,2.28214,2.28212a2.28212,2.28212,0,1,0,0-4.56423C804.78242,170.75617,804.11121,171.56163,804.11121,172.90405Zm2.28214-134.645v1.20818c0,1.20818,1.20821,2.28212,3.49026,3.4903h8.18875c1.61092,0,2.28213-1.20818,2.28213-3.4903s-2.28213-4.69848-6.98061-6.9806A11.51454,11.51454,0,0,0,806.39335,38.25905ZM813.374,83.49869,811.09183,86.989a13.54179,13.54179,0,0,0,5.7724,6.98059h3.49026a8.84264,8.84264,0,0,1,1.20822-3.4903C819.68328,85.915,816.99844,83.49869,813.374,83.49869Zm6.98053,134.645a8.84332,8.84332,0,0,0,3.49027,1.20817c2.55064-1.6109,4.43-2.28211,5.7724-2.28211,2.28214,0,6.57791,1.87938,12.753,5.77242l2.28213-3.49031c-6.71211-4.69847-11.00788-7.38332-12.753-8.18878C824.11334,213.311,820.35449,215.72733,820.35449,218.14369Zm2.28214-158.94285c0,1.20818,1.61092,2.68485,4.69848,4.69848l2.28213-3.4903c0-1.20818-1.20821-2.28212-3.49026-3.49029h-1.20822A2.18245,2.18245,0,0,0,822.63663,59.20084Zm4.56427,225.1243-1.20821,2.28211c.13421,1.6109.93971,2.28212,2.28213,2.28212H829.483v-2.28212C829.61724,285.13058,828.81182,284.32514,827.2009,284.32514Zm4.69848,51.01206a1.06788,1.06788,0,0,1-1.20821,1.20817c0,5.63817,5.36969,11.81333,16.24328,18.52544l10.47088-1.20817c8.18874.80546,12.753,1.20817,13.96123,1.20817,3.08755-.80546,4.69848-2.68485,4.69848-5.7724-6.98062,0-10.87359-4.29577-11.54481-12.753A22.17448,22.17448,0,0,0,848.277,343.526h-2.28213C841.16205,338.15628,836.59786,335.3372,831.89938,335.3372Zm1.20813-178.67647v2.28211h1.20821v-2.28211Zm2.28213-13.96119-1.20821,2.28211c2.95335,5.3697,4.83269,8.18878,5.7724,8.18878h1.20822V148.472C841.16205,147.53226,839.2827,145.65287,835.38964,142.69954Zm0,172.904v2.28212c.13421,1.6109.93972,2.28211,2.28214,2.28211H838.88v-2.28211a1.99921,1.99921,0,0,0-2.28213-2.28212ZM837.67178,20.9418V22.15l5.7724,1.20818V21.076a1.99921,1.99921,0,0,0-2.28213-2.28212h-1.20822A2.017,2.017,0,0,0,837.67178,20.9418Zm9.26275,51.01206q0,1.81227-9.26275,9.26271c2.55064,2.28212,4.43,3.4903,5.7724,3.4903a12.12845,12.12845,0,0,0,6.98062-5.77241v-3.4903C850.4248,74.236,849.35087,73.162,846.93453,71.95386Zm-6.84641,126.45622a6.42356,6.42356,0,0,0,4.69848,4.69848l2.28214-3.49031c0-1.20817-1.20821-2.28211-3.49027-3.4903ZM853.91506,15.03513l-2.28213,3.4903,2.28213,1.20818h2.28214V17.4515C856.33149,15.84059,855.526,15.03513,853.91506,15.03513ZM856.33149,134.645l-2.28214,3.4903v1.20818c.13421,1.61091.93972,2.28212,2.28214,2.28212,1.20821,0,2.28213-1.61091,3.49026-4.69848Zm4.56419,44.03147c0,1.20817,1.61092,2.68485,4.69848,4.69848a1.99922,1.99922,0,0,0,2.28213-2.28211c0-1.20817-1.61092-2.68485-4.69848-4.69848A2.18244,2.18244,0,0,0,860.89568,178.67647Zm4.69848,30.20451a8.84314,8.84314,0,0,0,3.49026,1.20818l8.18875-4.69848a8.84412,8.84412,0,0,1-1.20822-3.49031h-3.49018C871.36656,201.90037,869.0845,204.1825,865.59416,208.881Zm4.56427,89.40535c.13421,1.6109.93971,2.28211,2.28213,2.28211,1.20821,0,2.28214-1.20817,3.49027-3.49031L873.64869,295.87h-1.07392Q870.15839,296.27271,870.15843,298.28633Zm3.49026-160.151v1.20818h2.28214V138.1353Zm1.20822-70.87992V69.5375c1.20821-.80546,5.36969-1.61091,12.753-2.28212v-3.4903h-3.49026C882.77715,63.76508,879.68959,64.97326,874.85691,67.25538Zm5.7724,88.19718v2.28211h2.28213a1.99922,1.99922,0,0,0,2.28214-2.28211v-2.28212h-2.28214C881.43473,153.43892,880.62931,154.11013,880.62931,155.45256Zm0,53.42842v3.49031c1.61092,3.08758,3.89306,4.69848,6.98061,4.69848,1.61092-1.87938,2.28214-3.49031,2.28214-4.69848-.40271-6.17515-1.61093-9.26271-3.49027-9.26271C885.462,203.10856,883.58265,204.988,880.62931,208.881Zm2.28213,107.93078a12.95081,12.95081,0,0,1,2.28214,6.9806v1.20817l-3.49027,4.69848,1.20821,2.28211c5.77241,0,9.66546-3.4903,11.54481-10.4709a12.12837,12.12837,0,0,0,6.98061-5.77242c0-.93969-3.49027-2.55059-10.47088-4.69848a1.9992,1.9992,0,0,0-2.28213-2.28211h-1.20822C885.999,308.75723,884.52237,311.44207,882.91144,316.81176Zm2.41635-89.40536-2.28214,3.49031c0,1.20817,1.20821,2.28211,3.49027,3.49031h1.20821l3.49027-2.28212C890.29477,229.01732,888.41534,227.4064,885.32779,227.4064Zm2.28213,62.69116-2.28213,3.49031c0,.80546,3.893,3.893,11.5448,9.2627h1.20821v-2.28211C895.66446,293.58785,892.3084,290.09756,887.60992,290.09756Zm0-124.17411c2.28214,5.36969,6.17511,8.18877,11.5448,8.18877h1.20822c0-7.78605-3.08756-11.94756-9.26275-12.753C889.08655,161.35921,888.01263,162.83588,887.60992,165.92345Zm1.20813,18.65967c.80542,3.08758,3.08756,4.69848,6.98062,4.69848l2.28213-3.4903V182.301c0-1.20817-1.61092-2.28212-4.69848-3.49031C890.29477,179.48191,888.81805,181.36132,888.81805,184.58312Zm16.24337,113.70321v2.28211c.13421,1.6109.93971,2.28211,2.28213,2.28211a1.99922,1.99922,0,0,0,2.28214-2.28211V295.87h-2.28214C905.73263,296.13846,905.06142,296.9439,905.06142,298.28633Zm3.49026-16.24331-1.20821,2.28212v2.28211l4.69848,1.20817,1.20821-2.28211v-2.28212Zm3.49035-82.42477c.13421,1.61091.93971,2.28212,2.28214,2.28212h1.20821v-2.28212Zm9.26267-12.753,3.49027,2.28211h1.20821c1.20821,0,2.28213-1.20817,3.49026-3.4903,0-1.20818-1.20821-2.28212-3.49026-3.49031H924.795C923.58683,182.16676,922.37862,183.77766,921.3047,186.86524Zm0,62.69114v2.28211h2.28213v-2.28211Zm5.7724-185.7913c-1.61092,1.87939-2.28213,3.4903-2.28213,4.69848,1.61092,3.4903,3.08755,5.36969,4.69847,5.77242a1.99922,1.99922,0,0,0,2.28214-2.28212C931.64137,67.65811,930.16474,64.97326,927.0771,63.76508Zm2.28214,200.82645L928.151,270.364c1.20822,4.69848,3.89306,6.98059,8.18875,6.98059l1.20821-2.28211v-2.28212c-3.89306-5.36969-6.17511-8.18878-6.98061-8.18878Zm2.28213-3.49031v2.28211a1.99923,1.99923,0,0,0,2.28214-2.28211Zm0,28.99634v2.28211h2.28214v-2.28211Zm4.69848-61.483v3.49031H938.622v-3.49031ZM938.622,48.72994v1.20819c0,1.20818,1.20822,2.28212,3.49027,3.49029h4.69848a10.82848,10.82848,0,0,0-5.7724-6.9806C939.42741,46.58207,938.622,47.38752,938.622,48.72994Zm0,126.45623v3.4903h3.49027v-3.4903Zm1.20814,138.13529v2.28211h2.28213v-2.28211Zm4.69848-75.44416-1.20822,2.28212c.13421,1.6109.93971,2.28211,2.28214,2.28211l1.20821-2.28211A2.05415,2.05415,0,0,0,944.5286,237.8773Zm-1.20814,37.18511v2.28211h2.28214v-2.28211Zm3.49027-106.85684c0,.93969,1.87943,2.95333,5.7724,5.77242h2.28214v-5.77242a1.99921,1.99921,0,0,0-2.28214-2.28211h-3.49026C947.61623,166.19194,946.81073,166.86315,946.81073,168.20557Zm1.07392,131.1547c.13421,1.6109.93971,2.28211,2.28214,2.28211H951.375c4.02727,0,6.44361-1.20817,6.98062-3.49031l-4.69848-3.4903C950.30108,296.27269,948.28744,297.88359,947.88465,299.36027Zm5.9067-115.98532-2.28214,3.49031,3.49027,2.28211h1.20821l2.28213-1.20817A6.70941,6.70941,0,0,0,953.79135,183.375Zm3.49026,30.20451v4.69848c.13421,1.61091.93971,2.28212,2.28214,2.28212a1.99922,1.99922,0,0,0,2.28213-2.28212v-4.69848a1.9992,1.9992,0,0,0-2.28213-2.28211C957.95282,211.43158,957.28161,212.237,957.28161,213.57946ZM960.772,196.128l2.28213,1.20817a1.99922,1.99922,0,0,0,2.28214-2.28211l-2.28214-1.20818C961.44317,193.98008,960.772,194.78555,960.772,196.128Zm2.28213,78.93444,2.28214,1.20817h1.20821a1.99922,1.99922,0,0,0,2.28214-2.28211v-1.20818a1.99921,1.99921,0,0,0-2.28214-2.28211C965.33615,270.36393,964.26223,271.97485,963.05409,275.06241Zm25.506,17.31726-11.54481-10.4709a8.84406,8.84406,0,0,0-1.20821,3.49031,8.844,8.844,0,0,1,1.20821,3.49031c-6.17511,2.55059-9.26275,4.43-9.26275,5.77242l5.77241,3.49031a59.41227,59.41227,0,0,1,10.47088-1.20818c1.87942,0,4.69848,1.61091,8.18874,4.69848l9.26275-8.18878-1.34242-2.14791v-3.49031l10.47088-5.77242a1.06792,1.06792,0,0,0,1.20821-1.20817v-1.20817c-2.28213-3.893-4.967-5.77242-8.18874-5.77242-4.69848,0-8.86,6.17515-12.753,18.52543Zm-18.5255-105.51443-1.20822,2.28211c2.95335,2.28212,5.6382,3.49031,8.18875,3.49031v-3.49031Zm-1.20813,39.46724v5.77242c0,2.14789,2.28213,6.44363,6.98061,12.753a10.39264,10.39264,0,0,0,2.28214,6.98059c2.28213,0,4.69848-4.69848,6.98061-13.96119,3.49027-1.6109,5.36969-3.08757,5.7724-4.69848l-2.28213-1.20817-4.69848,3.49031c-7.786-.80546-11.54481-4.69848-11.54481-11.54485h-1.20821C969.63192,224.18459,968.8265,224.99006,968.8265,226.33248Zm6.98061,35.97691,1.20821,2.28212c3.08756-1.20818,4.69848-2.28212,4.69848-3.49031a1.99921,1.99921,0,0,0-2.28213-2.28212C978.08916,258.81911,977.01524,259.89305,975.80711,262.30939Zm23.2239-3.49028,8.18874,8.18878h1.20822c1.20821,0,2.28213-1.20817,3.49026-3.49031v-4.69847c-4.967-1.61091-8.45724-2.28212-10.47088-2.28212C999.83643,256.67122,999.031,257.47668,999.031,258.81911Z"/>
    </g>
    <g>
      <path class="a" d="M3.62454,509.04671V423.13166h9.5312v41.48085l22.82119-41.48085h9.66544L23.89512,462.33042l22.41846,46.71629H36.5139L18.12271,471.72738l-4.967,8.45724v28.86209Z"/>
      <path class="a" d="M102.15837,488.23916V443.805c0-6.71211,1.6109-12.0818,4.967-15.84057,3.356-3.893,8.18877-5.7724,14.63241-5.7724s11.41059,1.87938,14.76665,5.7724,5.10121,9.12846,5.10121,15.84057v44.4342c0,6.71211-1.74516,11.94756-5.10121,15.84057s-8.323,5.7724-14.76665,5.7724-11.27636-1.87938-14.63241-5.7724S102.15837,494.95127,102.15837,488.23916Zm9.26272.537c0,4.02727.80545,7.11483,2.5506,9.26271s4.29575,3.22181,7.65181,3.22181c6.84635,0,10.20241-4.16152,10.20241-12.35031V443.53646c0-3.893-.80545-6.98061-2.55061-9.12846s-4.29575-3.2218-7.6518-3.2218-5.90667,1.07392-7.65181,3.2218-2.5506,5.23544-2.5506,9.12846Z"/>
      <path class="a" d="M199.61825,509.04671V423.13166h18.79392c6.57787,0,11.4106,1.87938,14.6324,5.50394s4.69848,8.86,4.69848,15.57211v10.33667c0,13.82694-6.71211,20.67331-20.13634,20.67331h-8.45727v33.82906h-9.53119Zm9.53121-42.55481h8.45727c3.62454,0,6.30938-.93972,8.05454-2.68485,1.74515-1.87938,2.55059-4.69848,2.55059-8.72575V443.67071c0-4.02727-.80546-6.98061-2.28211-8.86-1.6109-1.87938-4.02727-2.81909-7.51758-2.81909h-9.12848V466.4919Z"/>
      <path class="a" d="M293.45362,488.23916V443.805c0-6.71211,1.6109-12.0818,4.967-15.84057,3.35605-3.893,8.18878-5.7724,14.6324-5.7724s11.41059,1.87938,14.76665,5.7724,5.10121,9.12846,5.10121,15.84057v44.4342c0,6.71211-1.74516,11.94756-5.10121,15.84057s-8.323,5.7724-14.76665,5.7724-11.27635-1.87938-14.6324-5.7724S293.45362,494.95127,293.45362,488.23916Zm9.397.537c0,4.02727.80547,7.11483,2.5506,9.26271s4.29575,3.22181,7.65181,3.22181c6.84636,0,10.20242-4.16152,10.20242-12.35031V443.53646c0-3.893-.80547-6.98061-2.5506-9.12846s-4.29575-3.2218-7.6518-3.2218-5.90666,1.07392-7.65181,3.2218-2.55059,5.23544-2.55059,9.12846v45.23966Z"/>
      <path class="a" d="M388.49713,509.04671V500.321c3.75877,0,6.17515-.93972,7.51757-2.8191,1.20818-1.87938,1.87939-4.967,2.01364-9.53121l2.28213-65.1075h35.03724v85.91505H425.8165v-77.1893H409.43893L407.4253,487.4337c-.2685,7.24907-1.61093,12.61876-4.16152,16.10907s-6.84637,5.23544-13.15573,5.36969h-1.61092Z"/>
      <path class="a" d="M494.54852,509.04671V423.13166h35.3057v8.72575H504.07969v29.2648h20.9418v8.59149h-20.9418v30.60722h25.77453v8.72575h-35.3057Zm5.77245-91.01628V407.02255h8.323v11.00788Zm15.16936,0V407.02255h8.59149v11.00788Z"/>
      <path class="a" d="M587.71265,509.04671V423.13166h19.19663c6.57786,0,11.27634,1.61092,14.22969,4.69848s4.43,7.92028,4.43,14.36394v4.02727c0,4.69848-.80546,8.45724-2.28214,11.27634-1.61092,2.81909-4.16152,4.69848-7.786,5.90665,7.786,2.14789,11.67909,8.323,11.67909,18.39121v7.24907c0,6.57787-1.61092,11.54485-4.83273,15.03515s-8.18878,5.10119-14.76665,5.10119H587.71265Zm9.66546-49.53543h7.24908c3.893,0,6.84636-.80546,8.72574-2.55059,1.87939-1.61093,2.68485-4.69848,2.68485-8.99425v-4.967c0-3.893-.67121-6.71212-2.14788-8.5915s-3.893-2.68484-7.24908-2.68484h-9.26271Zm0,40.80969h10.20242c3.49031,0,6.04091-.93972,7.786-2.8191q2.41638-2.81907,2.41634-8.86v-7.65182c0-4.69848-.93971-7.92029-2.81909-9.93392s-4.967-2.8191-9.26271-2.8191h-8.323Z"/>
      <path class="a" d="M684.23288,488.23916V443.805c0-6.71211,1.61092-11.94755,4.83269-15.84057s8.05453-5.7724,14.36394-5.7724c6.44361,0,11.27638,1.87938,14.49815,5.7724s4.83269,9.12846,4.83269,15.84057v7.786H713.7661v-8.323c0-8.323-3.35606-12.35031-10.06817-12.35031-3.35606,0-5.9067,1.07393-7.51754,3.22181-1.74513,2.14788-2.55063,5.23544-2.55063,9.12846v45.37387c0,3.893.80542,6.98061,2.55063,9.12846s4.16148,3.2218,7.51754,3.2218c6.71211,0,10.06817-4.16151,10.06817-12.3503V477.49966h8.99425v10.60513c0,6.71211-1.61093,11.94755-4.83269,15.84057s-8.05454,5.7724-14.49815,5.7724-11.14209-1.87938-14.36394-5.7724S684.23288,494.95127,684.23288,488.23916Z"/>
      <path class="a" d="M780.61881,509.04671V423.13166H790.15v41.48085l22.82119-41.48085h9.66546l-21.74727,39.19876,22.41848,46.71629h-9.79967L795.117,471.72738l-5.10119,8.45724v28.86209Z"/>
      <path class="a" d="M879.82389,509.04671V423.13166h8.59153v64.03358l7.92033-23.62665,13.55844-40.40693h10.47088v85.91505h-8.59154V440.7174l-9.26275,28.72784L889.892,509.04671Z"/>
      <path class="a" d="M979.16317,509.04671V423.13166h8.59154v64.03358l8.18874-24.70057,13.15573-39.333h10.60517v85.915h-8.59154V440.5832l-8.59154,27.117-13.42422,41.3466h-9.93388Zm7.51753-103.5008h6.0409c.13421,2.28214.80543,3.893,2.14785,4.83273a8.22551,8.22551,0,0,0,5.10119,1.34243c4.56427,0,6.98061-2.01364,7.38332-6.17516h5.9067a11.62,11.62,0,0,1-3.49027,8.86q-3.62452,3.22183-9.66546,3.22181c-4.02727,0-7.24912-1.07392-9.53117-3.22181C988.02312,412.258,986.81491,409.30468,986.6807,405.54591Z"/>
      <path class="a" d="M5.77242,670.27165V654.16258H28.72785v17.58574c0,9.66546,3.893,14.49815,11.81332,14.49815q5.83954,0,8.86-3.62456c2.01363-2.41634,2.95333-6.71211,2.95333-12.88726V658.1898c0-6.71211-1.20819-11.41059-3.4903-14.22968s-6.17515-4.29577-11.41059-4.29577H31.81542V618.72254H38.796c4.56424,0,7.92029-1.20817,10.33665-3.4903,2.28212-2.28214,3.4903-6.30941,3.4903-11.81331v-8.18878c0-6.30941-.9397-10.60514-2.95333-13.02152s-4.967-3.62456-8.86-3.62456c-7.92029,0-11.94756,4.83273-11.94756,14.36394v11.94755H6.17514V594.02193c0-11.8133,2.95333-20.6733,8.99424-26.9827q9.06135-9.26274,25.77451-9.26271c11.14211,0,19.73362,3.22181,25.506,9.53121s8.72575,15.43786,8.72575,27.11695v3.75877c0,15.57211-5.36969,25.64028-15.97483,30.07026,10.60514,4.56423,15.97483,14.9009,15.97483,30.60722v11.54485c0,11.8133-2.95333,20.80755-8.72575,27.11695s-14.36392,9.53117-25.506,9.53117-19.86785-3.22185-26.043-9.53117C8.86,691.0792,5.77242,682.085,5.77242,670.27165Z"/>
      <path class="a" d="M108.602,705.30893l23.22391-146.05557h35.44l23.22391,146.05557H167.53435l-4.02727-26.44574H135.5847l-4.02727,26.44574Zm29.936-46.31362h22.15l-11.14212-73.56475Z"/>
      <path class="a" d="M224.58733,705.30893V559.25331h34.63451c11.81332,0,20.40482,2.68485,25.77451,8.18879,5.50394,5.50394,8.18879,13.96119,8.18879,25.37178v5.23544q0,22.35135-14.90091,29.399c11.4106,4.43,17.04877,14.9009,17.04877,31.27844v11.94755q0,16.91451-8.86,25.77453c-5.90667,5.9067-14.6324,8.86-26.043,8.86H224.58733Zm22.82118-86.5863h8.99423c4.56423,0,8.05454-1.20818,10.33665-3.49031s3.49031-6.30941,3.49031-11.81331v-8.18878c0-5.23544-.93969-8.99425-2.8191-11.4106s-4.83273-3.62455-8.86-3.62455H247.40849v38.52755Zm0,65.77871h13.15575c4.02727,0,6.98059-1.07392,8.99423-3.22181s2.95332-5.90665,2.95332-11.14209v-12.753c0-6.71211-1.07394-11.27634-3.35605-13.82693s-6.04091-3.893-11.4106-3.893H247.40851Z"/>
      <path class="a" d="M332.24962,670.27165V594.29052c0-11.6791,2.95333-20.67331,8.99423-27.117s14.63242-9.53121,25.90876-9.53121,19.86784,3.22181,25.77454,9.53121c6.0409,6.44361,8.99425,15.43786,8.99425,27.117v75.98113c0,11.67909-2.95335,20.67334-8.99425,27.11695s-14.6324,9.53117-25.77454,9.53117c-11.27634,0-19.86783-3.22184-25.90876-9.53117C335.3372,690.945,332.24962,681.95074,332.24962,670.27165Zm22.95544,1.47667c0,9.66546,4.02727,14.49815,11.94755,14.49815s11.81331-4.83273,11.81331-14.49815V592.94809c0-9.53121-3.893-14.36394-11.81331-14.36394s-11.94755,4.83273-11.94755,14.36394Z"/>
      <path class="a" d="M436.42164,724.63977V684.50134h9.2627a20.47168,20.47168,0,0,0,4.16152-7.92029,53.54292,53.54292,0,0,0,1.61093-11.00788l4.16152-106.45411H520.86v125.248h9.93392v40.13847H507.8385V705.17464H459.24278v19.33092H436.42164Zm31.41268-40.13843h30.07026V580.06083H478.5737l-4.16152,85.10959c-.2685,5.36969-.93971,9.397-2.01363,12.216A17.61076,17.61076,0,0,1,467.83432,684.50134Z"/>
      <path class="a" d="M624.09232,670.27165V594.29052c0-11.81331,2.95334-20.80756,8.72574-27.117s14.36394-9.53121,25.64029-9.53121,20.00209,3.22181,26.17724,9.53121,9.26275,15.43786,9.26275,27.117V608.5202H670.9429V592.81384c0-9.53121-3.893-14.36394-11.8133-14.36394S647.182,583.28263,647.182,592.81384v78.80023c0,9.53121,4.02727,14.22969,11.94756,14.22969s11.8133-4.69848,11.8133-14.22969v-20.9418h22.95544V670.1374c0,11.8133-3.08756,20.80751-9.26271,27.11691s-14.9009,9.53117-26.17724,9.53117-19.73363-3.22185-25.64029-9.53117C627.04566,691.0792,624.09232,682.085,624.09232,670.27165Z"/>
      <path class="a" d="M731.48617,705.30893V559.25331h34.63449c11.81331,0,20.40485,2.68485,25.77454,8.18879s8.18874,13.96119,8.18874,25.37178v5.23544q0,22.35135-14.90086,29.399c11.4106,4.43,17.04879,14.9009,17.04879,31.27844v11.94755q0,16.91451-8.86,25.77453c-5.90661,5.9067-14.63244,8.86-26.043,8.86H731.48617Zm22.9554-86.5863h8.99425c4.56427,0,8.05454-1.20818,10.33667-3.49031s3.49027-6.30941,3.49027-11.81331v-8.18878c0-5.23544-.93972-8.99425-2.81906-11.4106s-4.83269-3.62455-8.86-3.62455H754.44157Zm0,65.77871H767.5973c4.02727,0,6.98061-1.07392,8.99425-3.22181s2.95334-5.90665,2.95334-11.14209v-12.753c0-6.71211-1.07392-11.27634-3.356-13.82693s-6.04091-3.893-11.4106-3.893H754.44157Z"/>
      <path class="a" d="M835.25544,705.30893l23.22389-146.05557h35.44l23.2239,146.05557H894.18783l-4.02727-26.44574H862.10389l-4.02727,26.44574Zm29.8018-46.31362h22.15l-11.14209-73.56475Z"/>
      <path class="a" d="M951.1065,559.52177h20.539v92.22446l8.45725-32.21814,18.65971-60.14052H1024V705.30893h-20.67335l.67122-102.69534-9.26275,35.97692L974.5989,705.30893H951.1065Zm19.06242-15.70632c4.02727,4.02727,9.79967,6.04091,17.72,6.04091,8.05453,0,14.09543-2.01364,18.25691-6.17516,4.16148-4.02727,6.17511-9.79967,6.17511-17.04878H998.35971c-.2685,3.62456-1.20821,6.17515-2.95334,7.51757s-4.16148,2.01364-7.51754,2.01364c-3.22184,0-5.5039-.67121-7.11482-2.01364-1.47663-1.34242-2.41635-3.893-2.68485-7.51757H963.85952C963.99373,534.15,966.14165,539.78819,970.16892,543.81545Z"/>
    </g>
  </g>
</svg>
