<svg xmlns="http://www.w3.org/2000/svg" xmlns:xlink="http://www.w3.org/1999/xlink" width="25" height="25.031" viewBox="0 0 25 25.031">
  <metadata><?xpacket begin="﻿" id="W5M0MpCehiHzreSzNTczkc9d"?>
<x:xmpmeta xmlns:x="adobe:ns:meta/" x:xmptk="Adobe XMP Core 5.6-c140 79.160451, 2017/05/06-01:08:21        ">
   <rdf:RDF xmlns:rdf="http://www.w3.org/1999/02/22-rdf-syntax-ns#">
      <rdf:Description rdf:about=""/>
   </rdf:RDF>
</x:xmpmeta>
                                                                                                    
                                                                                                    
                                                                                                    
                                                                                                    
                                                                                                    
                                                                                                    
                                                                                                    
                                                                                                    
                                                                                                    
                                                                                                    
                                                                                                    
                                                                                                    
                                                                                                    
                                                                                                    
                                                                                                    
                                                                                                    
                                                                                                    
                                                                                                    
                                                                                                    
                                                                                                    
                           
<?xpacket end="w"?></metadata>
<defs>
    <style>
      .cls-1 {
        fill-rule: evenodd;
        fill: url(#linear-gradient);
      }
    </style>
    <linearGradient id="linear-gradient" x1="705" y1="373.985" x2="730" y2="348.985" gradientUnits="userSpaceOnUse">
      <stop offset="0" stop-color="#08aeea"/>
      <stop offset="1" stop-color="#2af598"/>
    </linearGradient>
  </defs>
  <path id="Forma_1" data-name="Forma 1" class="cls-1" d="M727.984,360.491a10.264,10.264,0,0,0-2.1,3.007,1.638,1.638,0,0,1-2.978,0,11.251,11.251,0,0,0-2.487-3.41c-0.229-.242-0.458-0.483-0.684-0.732-0.012,0-.02.008-0.032,0.011a1.79,1.79,0,0,0-1.167,2.3c0.282,0.629,2.257.51,2.088,1.864-0.14,1.108,1.381,1.4,1.92,1.346s1.368,0.844.949,1.243-1.2.414-1.078,1.442c0.032,0.3.982,0.261,0.982,0.713s-0.491.974-.113,1.5a1.243,1.243,0,0,0,.254.272,10.451,10.451,0,0,1-6.9,2.573A9.972,9.972,0,0,1,706.44,362.9a9.31,9.31,0,0,1,1.167-4.51,5.539,5.539,0,0,0,1.433,3.632c1.5,1.423,3.666.974,3.943,2.167s-1.489,1.192-1.372,2.1,2.426,1.155,1.911,2c-0.68,1.116.459,1.2,0.129,2.573-0.177.751,0.962,0.9,1.384,0.326a6.4,6.4,0,0,1,.906-1.63c0.792-.806,2.631-0.936,2.426-2.267-0.35-2.209-2.6-2.554-3.585-3.071-1.115-.584-0.841-1.983-1.083-2.651-0.338-.947-1.484.265-2.1-0.287-1.006-.905.181-2.186,1.026-2.159,1.783,0.054,2.33,1.707,2.986,1.649a1.745,1.745,0,0,0,1.167-1.358c0.237-.985-0.4-0.545-0.66-1.058-0.346-.687,1.215-1.343,1.819-1.849a0.783,0.783,0,0,0,.2-0.219c0.181-.337-0.057-0.594-0.459-0.828-0.8-.464-2.273-0.832-2.342-1.557-0.04-.445.853-0.66,1.871-0.7,0.169,0.008.334,0.023,0.5,0.038a6.283,6.283,0,0,1,.407-1.334,11.748,11.748,0,0,0-1.485-.092A11.1,11.1,0,1,0,728.266,362.9,10.386,10.386,0,0,0,727.984,360.491Zm-4.133-11.5a5.5,5.5,0,0,0-4.959,6.425c0.582,3.145,3.624,4.113,5.134,7.643a0.408,0.408,0,0,0,.742,0c1.673-3.916,5.232-4.68,5.232-8.754A5.507,5.507,0,0,0,723.851,348.993Zm0.546,8.136a2.823,2.823,0,1,1,2.959-2.82A2.892,2.892,0,0,1,724.4,357.129Z" transform="translate(-705 -348.969)"/>
</svg>
