<svg width="29" height="29" viewBox="0 0 29 29" fill="none" xmlns="http://www.w3.org/2000/svg">
<path d="M14.397 15.626C14.427 15.626 14.4571 15.626 14.4931 15.626C14.5051 15.626 14.5171 15.626 14.5291 15.626C14.5471 15.626 14.5712 15.626 14.5892 15.626C16.3488 15.596 17.772 14.9774 18.823 13.7944C21.135 11.188 20.7507 6.72003 20.7087 6.29364C20.5585 3.09277 19.0452 1.5614 17.7961 0.846759C16.8652 0.31228 15.7782 0.0240215 14.5652 0H14.5231C14.5171 0 14.5051 0 14.4991 0H14.4631C13.7965 0 12.4873 0.108097 11.2322 0.822738C9.97103 1.53738 8.43366 3.06875 8.28352 6.29364C8.24148 6.72003 7.85714 11.188 10.1692 13.7944C11.2141 14.9774 12.6374 15.596 14.397 15.626ZM9.88696 6.44378C9.88696 6.42576 9.89296 6.40775 9.89296 6.39573C10.0911 2.08987 13.1479 1.62746 14.4571 1.62746H14.4811C14.4931 1.62746 14.5111 1.62746 14.5291 1.62746C16.1506 1.66349 18.907 2.32408 19.0932 6.39573C19.0932 6.41375 19.0932 6.43177 19.0992 6.44378C19.1052 6.48582 19.5256 10.5695 17.6159 12.7194C16.8592 13.5722 15.8503 13.9925 14.5231 14.0046C14.5111 14.0046 14.5051 14.0046 14.4931 14.0046C14.4811 14.0046 14.4751 14.0046 14.4631 14.0046C13.1419 13.9925 12.127 13.5722 11.3763 12.7194C9.47259 10.5815 9.88095 6.47981 9.88696 6.44378Z" fill="#A9B1BB"/>
<path d="M26.8337 23.0367C26.8337 23.0306 26.8337 23.0246 26.8337 23.0186C26.8337 22.9706 26.8277 22.9225 26.8277 22.8685C26.7917 21.6794 26.7136 18.8989 24.1073 18.0101C24.0893 18.0041 24.0652 17.9981 24.0472 17.9921C21.3388 17.3015 19.0868 15.7401 19.0627 15.7221C18.6964 15.4639 18.192 15.5539 17.9337 15.9203C17.6755 16.2866 17.7656 16.7911 18.1319 17.0493C18.234 17.1213 20.6242 18.7848 23.6148 19.5535C25.0141 20.052 25.1702 21.5473 25.2123 22.9165C25.2123 22.9706 25.2123 23.0186 25.2183 23.0667C25.2243 23.6072 25.1882 24.4419 25.0922 24.9223C24.1193 25.4748 20.3059 27.3846 14.5047 27.3846C8.72748 27.3846 4.89004 25.4688 3.91116 24.9163C3.81508 24.4359 3.77304 23.6012 3.78505 23.0607C3.78505 23.0126 3.79106 22.9646 3.79106 22.9105C3.83309 21.5413 3.98923 20.046 5.38849 19.5475C8.37917 18.7788 10.7693 17.1093 10.8714 17.0433C11.2377 16.785 11.3278 16.2806 11.0696 15.9143C10.8114 15.5479 10.3069 15.4579 9.94057 15.7161C9.91655 15.7341 7.67654 17.2955 4.9561 17.9861C4.93208 17.9921 4.91406 17.9981 4.89605 18.0041C2.28971 18.8989 2.21164 21.6794 2.17561 22.8625C2.17561 22.9165 2.17561 22.9646 2.1696 23.0126C2.1696 23.0186 2.1696 23.0246 2.1696 23.0306C2.1636 23.3429 2.15759 24.9464 2.47588 25.7511C2.53593 25.9072 2.64403 26.0393 2.78816 26.1294C2.96832 26.2495 7.28619 29 14.5107 29C21.7351 29 26.053 26.2435 26.2332 26.1294C26.3713 26.0393 26.4854 25.9072 26.5455 25.7511C26.8457 24.9524 26.8397 23.3489 26.8337 23.0367Z" fill="#A9B1BB"/>
</svg>
