<svg width="22" height="26" viewBox="0 0 22 26" fill="none" xmlns="http://www.w3.org/2000/svg">
<path opacity="0.5" d="M0 21.2856C0 22.8571 0 24.4285 0 25.9999C2.14286 25.9999 4.42857 25.9999 6.71429 25.9999V21.2856H0Z" fill="#00448D"/>
<path d="M16.8571 16.8571C23.4286 12.4286 21.5714 0.142857 11.4286 0C7.57143 0 3.71429 0 0 0C0 2 0 4 0 5.85714H10C10.4286 5.85714 11 5.85714 11.4286 5.85714C15.2857 5.85714 15 12.4286 11.4286 12.4286H0C0 14.4286 0 16.4286 0 18.2857H10H10.1429L14.5714 26H22V25L16.8571 16.8571Z" fill="#00448D"/>
</svg>
