<svg width="404" height="390" viewBox="0 0 404 390" fill="none" xmlns="http://www.w3.org/2000/svg">
<circle cx="195.5" cy="195.5" r="106.5" fill="#22A968"/>
<path d="M197.214 194.567C197.295 194.567 197.377 194.567 197.475 194.567C197.508 194.567 197.541 194.567 197.574 194.567C197.623 194.567 197.688 194.567 197.737 194.567C202.53 194.486 206.408 192.801 209.271 189.578C215.569 182.478 214.522 170.306 214.407 169.145C213.998 160.425 209.876 156.253 206.473 154.307C203.937 152.851 200.976 152.065 197.672 152H197.557C197.541 152 197.508 152 197.492 152H197.394C195.578 152 192.011 152.294 188.592 154.241C185.157 156.188 180.969 160.36 180.56 169.145C180.445 170.306 179.398 182.478 185.697 189.578C188.543 192.801 192.42 194.486 197.214 194.567ZM184.928 169.554C184.928 169.505 184.944 169.456 184.944 169.423C185.484 157.693 193.811 156.433 197.377 156.433H197.443C197.475 156.433 197.524 156.433 197.574 156.433C201.991 156.532 209.5 158.331 210.007 169.423C210.007 169.472 210.007 169.521 210.023 169.554C210.039 169.668 211.185 180.793 205.982 186.649C203.921 188.972 201.173 190.118 197.557 190.15C197.524 190.15 197.508 190.15 197.475 190.15C197.443 190.15 197.426 190.15 197.394 190.15C193.794 190.118 191.03 188.972 188.985 186.649C183.799 180.825 184.911 169.652 184.928 169.554Z" fill="white"/>
<path d="M231.095 214.755C231.095 214.739 231.095 214.722 231.095 214.706C231.095 214.575 231.079 214.444 231.079 214.297C230.981 211.058 230.768 203.483 223.668 201.062C223.619 201.046 223.554 201.029 223.504 201.013C216.126 199.132 209.991 194.878 209.926 194.829C208.928 194.126 207.554 194.371 206.85 195.369C206.147 196.367 206.392 197.741 207.39 198.444C207.668 198.641 214.18 203.172 222.327 205.266C226.138 206.624 226.564 210.698 226.678 214.428C226.678 214.575 226.678 214.706 226.695 214.837C226.711 216.309 226.613 218.583 226.351 219.892C223.701 221.397 213.312 226.599 197.509 226.599C181.771 226.599 171.318 221.38 168.651 219.875C168.389 218.567 168.275 216.293 168.308 214.82C168.308 214.689 168.324 214.559 168.324 214.411C168.438 210.681 168.864 206.608 172.675 205.25C180.823 203.156 187.334 198.608 187.612 198.428C188.61 197.725 188.855 196.35 188.152 195.353C187.448 194.355 186.074 194.109 185.076 194.813C185.011 194.862 178.908 199.115 171.498 200.997C171.432 201.013 171.383 201.029 171.334 201.046C164.234 203.483 164.021 211.058 163.923 214.28C163.923 214.428 163.923 214.559 163.907 214.689C163.907 214.706 163.907 214.722 163.907 214.739C163.89 215.589 163.874 219.957 164.741 222.149C164.905 222.575 165.199 222.935 165.592 223.18C166.083 223.507 177.845 231 197.526 231C217.206 231 228.969 223.491 229.459 223.18C229.836 222.935 230.146 222.575 230.31 222.149C231.128 219.974 231.112 215.606 231.095 214.755Z" fill="white"/>
<circle cx="195.5" cy="195.5" r="148" stroke="#A9B1BB" stroke-opacity="0.31"/>
<circle cx="195" cy="195" r="194.5" stroke="#A9B1BB" stroke-opacity="0.31"/>
<circle cx="195.5" cy="195.5" r="173" stroke="#A9B1BB" stroke-opacity="0.31"/>
<circle cx="272" cy="73" r="21" fill="#567ABC"/>
<circle cx="26" cy="185" r="21" fill="#1876B1"/>
<circle cx="383" cy="241" r="21" fill="#D0493C"/>
<path d="M276.249 63.004L273.785 63C271.017 63 269.228 64.8353 269.228 67.6759V69.8318H266.751C266.537 69.8318 266.363 70.0054 266.363 70.2195V73.3431C266.363 73.5572 266.537 73.7306 266.751 73.7306H269.228V81.6126C269.228 81.8267 269.401 82 269.615 82H272.848C273.062 82 273.235 81.8265 273.235 81.6126V73.7306H276.132C276.346 73.7306 276.519 73.5572 276.519 73.3431L276.52 70.2195C276.52 70.1167 276.479 70.0182 276.407 69.9455C276.334 69.8728 276.235 69.8318 276.132 69.8318H273.235V68.0042C273.235 67.1258 273.444 66.6799 274.589 66.6799L276.248 66.6793C276.462 66.6793 276.636 66.5058 276.636 66.2919V63.3914C276.636 63.1777 276.462 63.0043 276.249 63.004Z" fill="white"/>
<g clip-path="url(#clip0)">
<path d="M22.724 180.147H19.512C19.3694 180.147 19.2539 180.263 19.2539 180.406V190.724C19.2539 190.867 19.3694 190.982 19.512 190.982H22.724C22.8666 190.982 22.9821 190.867 22.9821 190.724V180.406C22.9821 180.263 22.8666 180.147 22.724 180.147Z" fill="white"/>
<path d="M21.1195 175.018C19.9508 175.018 19 175.967 19 177.135C19 178.303 19.9508 179.253 21.1195 179.253C22.2873 179.253 23.2374 178.303 23.2374 177.135C23.2374 175.967 22.2873 175.018 21.1195 175.018Z" fill="white"/>
<path d="M30.8948 179.891C29.6048 179.891 28.6511 180.445 28.0727 181.076V180.405C28.0727 180.263 27.9572 180.147 27.8146 180.147H24.7385C24.596 180.147 24.4805 180.263 24.4805 180.405V190.724C24.4805 190.867 24.596 190.982 24.7385 190.982H27.9435C28.0861 190.982 28.2016 190.867 28.2016 190.724V185.619C28.2016 183.898 28.6689 183.228 29.8682 183.228C31.1743 183.228 31.2781 184.303 31.2781 185.707V190.724C31.2781 190.867 31.3936 190.982 31.5362 190.982H34.7424C34.8849 190.982 35.0004 190.867 35.0004 190.724V185.064C35.0004 182.506 34.5126 179.891 30.8948 179.891Z" fill="white"/>
</g>
<path d="M379.324 242.065L378.802 244.014L376.894 244.054C376.323 242.996 376 241.786 376 240.5C376 239.256 376.302 238.084 376.839 237.051H376.839L378.538 237.362L379.282 239.051C379.126 239.505 379.042 239.993 379.042 240.5C379.042 241.051 379.141 241.578 379.324 242.065Z" fill="white"/>
<path d="M379.324 242.065L378.802 244.014L376.894 244.054C376.323 242.996 376 241.786 376 240.5C376 239.256 376.302 238.084 376.839 237.051H376.839L378.538 237.362L379.282 239.051C379.126 239.505 379.042 239.993 379.042 240.5C379.042 241.051 379.141 241.578 379.324 242.065Z" fill="white"/>
<path d="M390.869 239.099C390.955 239.553 391 240.021 391 240.5C391 241.037 390.944 241.561 390.836 242.066C390.471 243.785 389.517 245.286 388.195 246.349L388.195 246.348L386.055 246.239L385.752 244.348C386.629 243.834 387.314 243.029 387.675 242.066H383.665V239.099H390.869Z" fill="white"/>
<path d="M390.869 239.099C390.955 239.553 391 240.021 391 240.5C391 241.037 390.944 241.561 390.836 242.066C390.471 243.785 389.517 245.286 388.195 246.349L388.195 246.348L386.055 246.239L385.752 244.348C386.629 243.834 387.314 243.029 387.675 242.066H383.665V239.099H390.869Z" fill="white"/>
<path d="M388.195 246.348L388.195 246.349C386.91 247.382 385.277 248 383.5 248C380.644 248 378.161 246.404 376.894 244.054L379.324 242.065C379.958 243.755 381.588 244.958 383.5 244.958C384.322 244.958 385.091 244.736 385.752 244.348L388.195 246.348Z" fill="white"/>
<path d="M388.195 246.348L388.195 246.349C386.91 247.382 385.277 248 383.5 248C380.644 248 378.161 246.404 376.894 244.054L379.324 242.065C379.958 243.755 381.588 244.958 383.5 244.958C384.322 244.958 385.091 244.736 385.752 244.348L388.195 246.348Z" fill="white"/>
<path d="M388.287 234.727L385.858 236.716C385.174 236.288 384.366 236.042 383.5 236.042C381.545 236.042 379.884 237.3 379.282 239.051L376.839 237.051H376.839C378.087 234.644 380.601 233 383.5 233C385.32 233 386.988 233.648 388.287 234.727Z" fill="white"/>
<path d="M388.287 234.727L385.858 236.716C385.174 236.288 384.366 236.042 383.5 236.042C381.545 236.042 379.884 237.3 379.282 239.051L376.839 237.051H376.839C378.087 234.644 380.601 233 383.5 233C385.32 233 386.988 233.648 388.287 234.727Z" fill="white"/>
<defs>
<clipPath id="clip0">
<rect x="19" y="175" width="16" height="16" fill="white"/>
</clipPath>
</defs>
</svg>
