<svg xmlns="http://www.w3.org/2000/svg" viewBox="0 0 16.21 22.4"><defs><style>.cls-1{fill:#f4ca76;}.cls-1,.cls-2{fill-rule:evenodd;}.cls-2{fill:#536eb2;}</style></defs><title>Ресурс 8</title><g id="Слой_2" data-name="Слой 2"><g id="Слой_1-2" data-name="Слой 1"><path class="cls-1" d="M15.48,21.26a.41.41,0,0,1-.41.41H1.14a.41.41,0,0,1-.41-.41V4.6H3.46A1.14,1.14,0,0,0,4.6,3.46V.73H15.07a.41.41,0,0,1,.41.41V21.26ZM3.87,1.24V3.46a.41.41,0,0,1-.41.41H1.24L3.87,1.24ZM15.07,0h-11L4.06,0h0l0,0H4l0,0H4L.11,4h0l0,0h0l0,0H0l0,0H0a.06.06,0,0,0,0,0H0a.09.09,0,0,0,0,0H0v17A1.14,1.14,0,0,0,1.14,22.4H15.07a1.14,1.14,0,0,0,1.14-1.14V1.14A1.14,1.14,0,0,0,15.07,0Z"/><path class="cls-2" d="M3.46,6.14h9.29a.36.36,0,1,0,0-.72H3.46a.36.36,0,0,0,0,.72Z"/><path class="cls-2" d="M3.46,8.08h9.29a.36.36,0,0,0,.36-.36.37.37,0,0,0-.36-.37H3.46a.37.37,0,0,0-.36.37.36.36,0,0,0,.36.36Z"/><path class="cls-2" d="M3.46,10h9.29a.36.36,0,0,0,0-.72H3.46a.36.36,0,0,0,0,.72Z"/><path class="cls-2" d="M3.46,12h9.29a.36.36,0,0,0,.36-.36.37.37,0,0,0-.36-.37H3.46a.37.37,0,0,0-.36.37.36.36,0,0,0,.36.36Z"/><path class="cls-2" d="M3.46,13.89h9.29a.37.37,0,0,0,.36-.37.36.36,0,0,0-.36-.36H3.46a.36.36,0,0,0-.36.36.37.37,0,0,0,.36.37Z"/><path class="cls-2" d="M8.1,15.87H3.46a.36.36,0,0,0,0,.72H8.1a.36.36,0,1,0,0-.72Z"/><path class="cls-2" d="M8.1,17.8H3.46a.37.37,0,0,0-.36.37.36.36,0,0,0,.36.36H8.1a.37.37,0,0,0,.37-.36.38.38,0,0,0-.37-.37Z"/><path class="cls-2" d="M11.39,16.64a.56.56,0,1,0,.56.56.56.56,0,0,0-.56-.56Z"/><path class="cls-2" d="M11.39,18.58a1.38,1.38,0,1,1,1.38-1.38,1.38,1.38,0,0,1-1.38,1.38Zm0-3.49A2.11,2.11,0,1,0,13.5,17.2a2.11,2.11,0,0,0-2.11-2.11Z"/></g></g></svg>