<svg xmlns="http://www.w3.org/2000/svg" viewBox="0 0 16.95 16.95"><defs><style>.cls-1{fill:#536eb2;}.cls-1,.cls-2{fill-rule:evenodd;}.cls-2{fill:#f4ca76;}</style></defs><title>Ресурс 4</title><g id="Слой_2" data-name="Слой 2"><g id="Слой_1-2" data-name="Слой 1"><path class="cls-1" d="M9.64,8a.27.27,0,0,0,.25.15.31.31,0,0,0,.13,0,23.58,23.58,0,0,1,2.5-1.11.28.28,0,0,0-.17-.54A22.3,22.3,0,0,0,9.76,7.66.28.28,0,0,0,9.64,8Z"/><path class="cls-1" d="M9.89,4.8a.31.31,0,0,0,.13,0,23.58,23.58,0,0,1,2.5-1.11.28.28,0,0,0-.17-.54A22.3,22.3,0,0,0,9.76,4.27a.28.28,0,0,0-.12.38.27.27,0,0,0,.25.15Z"/><path class="cls-2" d="M16.67,4.24a.27.27,0,0,0-.28.28v11a.85.85,0,0,1-.85.85H8.76v-.65a8.1,8.1,0,0,1,2.54-.48,14.45,14.45,0,0,1,4.15.55.32.32,0,0,0,.25,0,.28.28,0,0,0,.12-.23V3.11a.28.28,0,0,0-.22-.28L15,2.71a.29.29,0,0,0-.33.23.28.28,0,0,0,.23.33l.36.07V15.16a16,16,0,0,0-4-.47,9,9,0,0,0-2.81.54,6.82,6.82,0,0,0-2.56-.54,19.38,19.38,0,0,0-4.24.48V3.33a18.68,18.68,0,0,1,4.24-.5,6.22,6.22,0,0,1,2.26.46V14.41a.29.29,0,0,0,.43.24,32.35,32.35,0,0,1,5.31-2.52.27.27,0,0,0,.2-.26V.28A.28.28,0,0,0,14,.05a.29.29,0,0,0-.26,0A31.39,31.39,0,0,0,9.17,2.3a.28.28,0,0,0,.3.48A30.13,30.13,0,0,1,13.56.7v11a31.39,31.39,0,0,0-4.8,2.26V3.11a.29.29,0,0,0-.16-.26,6.63,6.63,0,0,0-2.67-.59,17.8,17.8,0,0,0-4.59.58.27.27,0,0,0-.21.27V15.54a.27.27,0,0,0,.11.22.27.27,0,0,0,.17.06h.08a18,18,0,0,1,4.44-.55,6.17,6.17,0,0,1,2.26.46v.67H1.41a.85.85,0,0,1-.84-.85v-11a.28.28,0,0,0-.29-.28A.28.28,0,0,0,0,4.52v11A1.41,1.41,0,0,0,1.41,17H15.54A1.41,1.41,0,0,0,17,15.54v-11a.27.27,0,0,0-.28-.28Z"/><path class="cls-1" d="M9.64,6.34a.28.28,0,0,0,.25.16.31.31,0,0,0,.13,0,23,23,0,0,1,2.5-1.12A.27.27,0,0,0,12.7,5a.27.27,0,0,0-.35-.18A24.78,24.78,0,0,0,9.76,6a.28.28,0,0,0-.12.38Z"/><path class="cls-1" d="M9.64,9.73a.28.28,0,0,0,.25.16.31.31,0,0,0,.13,0,23,23,0,0,1,2.5-1.12.27.27,0,0,0,.18-.35.27.27,0,0,0-.35-.18A24.78,24.78,0,0,0,9.76,9.35a.28.28,0,0,0-.12.38Z"/><path class="cls-1" d="M6.84,5.24A8.8,8.8,0,0,0,3,5.38a.26.26,0,0,0-.19.34.27.27,0,0,0,.27.21h.07a8.78,8.78,0,0,1,3.54-.13.28.28,0,0,0,.34-.21.29.29,0,0,0-.22-.34Z"/><path class="cls-1" d="M6.84,6.94A9,9,0,0,0,3,7.07a.27.27,0,0,0-.19.35.28.28,0,0,0,.27.21h.07a8.4,8.4,0,0,1,3.54-.13.29.29,0,0,0,.34-.21.29.29,0,0,0-.22-.34Z"/><path class="cls-1" d="M9.64,11.43a.27.27,0,0,0,.25.15.31.31,0,0,0,.13,0,23.58,23.58,0,0,1,2.5-1.11.28.28,0,0,0-.17-.54,22.3,22.3,0,0,0-2.59,1.15.28.28,0,0,0-.12.38Z"/><path class="cls-1" d="M6.84,8.63A8.8,8.8,0,0,0,3,8.77a.26.26,0,0,0-.19.34.27.27,0,0,0,.27.21h.07a8.78,8.78,0,0,1,3.54-.13A.28.28,0,0,0,7.06,9a.29.29,0,0,0-.22-.34Z"/><path class="cls-1" d="M6.84,12A9,9,0,0,0,3,12.16a.26.26,0,0,0-.19.34.27.27,0,0,0,.27.21h.07a8.78,8.78,0,0,1,3.54-.13.28.28,0,0,0,.34-.21A.29.29,0,0,0,6.84,12Z"/><path class="cls-1" d="M6.84,10.33A9,9,0,0,0,3,10.46a.27.27,0,0,0-.19.35.28.28,0,0,0,.27.21h.07a8.4,8.4,0,0,1,3.54-.13.29.29,0,0,0,.34-.21.29.29,0,0,0-.22-.34Z"/></g></g></svg>