<svg xmlns="http://www.w3.org/2000/svg" xmlns:xlink="http://www.w3.org/1999/xlink" viewBox="0 0 500 500"><defs><style>.cls-1{fill:url(#Безымянный_градиент_4);}.cls-2{fill:url(#Безымянный_градиент_2);}.cls-3{fill:url(#Безымянный_градиент_3);}.cls-4{fill:#fff;}</style><linearGradient id="Безымянный_градиент_4" x1="220.63" y1="468.74" x2="220.63" y2="2" gradientTransform="matrix(1, 0, 0, -1, 0, 502)" gradientUnits="userSpaceOnUse"><stop offset="0.15" stop-color="#4d64af"/><stop offset="1" stop-color="#5da3dc"/></linearGradient><linearGradient id="Безымянный_градиент_2" x1="279.37" y1="502" x2="279.37" y2="34.93" gradientTransform="matrix(1, 0, 0, -1, 0, 502)" gradientUnits="userSpaceOnUse"><stop offset="0" stop-color="#662482"/><stop offset="0.36" stop-color="#652684"/><stop offset="0.55" stop-color="#622e89"/><stop offset="0.7" stop-color="#5d3c93"/><stop offset="0.83" stop-color="#554fa0"/><stop offset="0.93" stop-color="#4d64af"/></linearGradient><linearGradient id="Безымянный_градиент_3" x1="250" y1="468.74" x2="250" y2="34.93" gradientTransform="matrix(1, 0, 0, -1, 0, 502)" gradientUnits="userSpaceOnUse"><stop offset="0.15" stop-color="#290042"/><stop offset="1" stop-color="#3b68bd"/></linearGradient></defs><g id="Слой_2" data-name="Слой 2"><g id="logo-self"><path class="cls-1" d="M42,119.56l136.36-75.2a86.19,86.19,0,0,1,84.62,0l135.66,75.2c26.15,14.34,42.39,40.93,42.66,69.84V343.84c-.41,28.87-16.62,55.4-42.66,69.83L262.94,488.88a88.41,88.41,0,0,1-84.62.67L42,414.34C16.07,399.52.16,372.78,0,343.84V189.4C0,160.59,16,134,42,119.56Z"/><path class="cls-2" d="M101.4,86.66l136.36-75.2a84.76,84.76,0,0,1,83.92-.68L457.34,86C483.7,100.44,500,127.35,500,156.5V310.26c0,29.15-16.3,56.06-42.66,70.51L321.68,456a86.24,86.24,0,0,1-84.62,0L101.4,380.77C75,366.32,58.76,339.41,58.74,310.26V156.5C59,127.59,75.25,101,101.4,86.66Z"/><path class="cls-3" d="M398.6,119.56,262.94,44.36a86.19,86.19,0,0,0-84.62,0L93,91.36c-21.42,15.36-34.1,39.47-34.27,65.14V310.26c0,29.15,16.3,56.06,42.66,70.51L237.06,456a86.24,86.24,0,0,0,84.62,0L407,409c21.25-15.49,33.89-39.51,34.27-65.13V189.4C441,160.49,424.75,133.9,398.6,119.56Z"/><path class="cls-4" d="M383.22,278c0-84.6-72-118.18-139.86-118.18H179.72V366.67h26.57v-92h1.4L355.24,437.17l19.59-10.74-46.16-51.7C363.4,354.05,384.15,317.27,383.22,278Zm-147.56-6.71,53.15-74.54H259.44L206.29,268V182.68H242c54.54,0,111.89,27.53,111.89,95.35.63,31.11-15.16,60.41-42,77.9Z"/><path class="cls-4" d="M246.85,374.73H158V98.08h202.1L311.19,71.22H129.37v325H249a166.92,166.92,0,0,0,44.76-6l-17.49-18.8A146.34,146.34,0,0,1,246.85,374.73Z"/></g></g></svg>