
<svg width="112px" height="66px" viewBox="0 0 112 66" version="1.1" xmlns="http://www.w3.org/2000/svg" xmlns:xlink="http://www.w3.org/1999/xlink">
    <g id="Page-1" stroke="none" stroke-width="1" fill="none" fill-rule="evenodd">
        <g id="Extra-large:-Desktops---12-col-Copy-2" transform="translate(-925.000000, -4962.000000)" fill="#009246" fill-rule="nonzero">
            <g id="eco-energy" transform="translate(925.000000, 4962.000000)">
                <polygon id="Shape" points="0 65.4099403 20.766 65.4099403 20.766 60.3909851 6.002 60.3909851 6.002 49.0370149 19.833 49.0370149 19.833 44.0948955 6.002 44.0948955 6.002 34.2480896 20.766 34.2480896 20.766 29.251791 0 29.251791"></polygon>
                <path d="M44.315,33.8028358 C45.834,33.8028358 47.292,34.0205373 48.666,34.4549552 C50.05,34.8933134 51.357,35.4006269 52.595,35.9768955 L54.758,31.0544776 C51.575,29.5039701 48.114,28.7306866 44.36,28.7306866 C40.792,28.7306866 37.695,29.4803284 35.047,30.980597 C32.403,32.4818507 30.386,34.6450746 28.985,37.4633731 C27.589,40.2816716 26.889,43.5718209 26.889,47.3308657 C26.889,53.301403 28.327,57.8898806 31.206,61.0953134 C34.085,64.3017313 38.207,65.9064179 43.587,65.9064179 C47.235,65.9064179 50.5,65.3734925 53.374,64.297791 L53.374,59.228597 C51.8,59.7073433 50.286,60.0984179 48.828,60.4008358 C47.37,60.7052239 45.865,60.8569254 44.312,60.8569254 C40.712,60.8569254 37.958,59.717194 36.063,57.4416716 C34.159,55.1691045 33.209,51.8119701 33.209,47.375194 C33.209,43.137403 34.202,39.8167164 36.174,37.4101791 C38.154,35.006597 40.866,33.8028358 44.315,33.8028358 Z" id="Shape"></path>
                <path d="M110.68,1.56823881 C110.269,1.42343284 109.618,1.1180597 108.853,0.94961194 C108.08,0.769343284 107.039,0.456089552 105.985,0.411761194 C104.923,0.349701493 103.722,0.363492537 102.412,0.475791045 C101.14,0.631432836 99.852,0.956507463 98.476,1.36432836 C97.108,1.77707463 95.855,2.41638806 94.527,3.1138209 C93.227,3.8319403 92.056,4.71161194 90.886,5.6681194 C89.784,6.64925373 88.737,7.722 87.785,8.86567164 C86.916,10.0290448 86.04,11.233791 85.389,12.5015821 C84.711,13.7605075 84.129,15.0548955 83.729,16.3699701 C82.864,18.9774627 82.583,21.634209 82.641,23.9885373 C82.696,25.1834328 82.819,26.2877015 83.007,27.2983881 C83.185,28.2864179 83.466,29.1946567 83.695,29.9295224 C81.885,29.2941493 79.904,28.895194 77.662,28.8035821 C77.686,28.7858507 77.707,28.7700896 77.727,28.7523582 C77.391,28.7375821 77.097,28.6745373 76.751,28.6745373 C71.214,28.6745373 66.95,30.2742985 63.959,33.4738209 C60.975,36.6743284 59.482,41.2559104 59.482,47.2225075 C59.482,47.2461493 59.482,47.2668358 59.482,47.2865373 C59.482,47.3062388 59.482,47.3269254 59.482,47.3476119 C59.482,48.5178806 59.586,49.5994925 59.702,50.6643582 L59.709,50.661403 C60.191,54.9720896 61.57,58.4582687 63.938,61.037194 C66.717,64.0712239 70.669,65.6246866 75.693,65.8197313 C75.672,65.8374627 75.652,65.8532239 75.631,65.8709552 C75.967,65.8847463 76.261,65.947791 76.607,65.947791 C82.144,65.947791 86.408,64.3470448 89.399,61.1475224 C92.383,57.9489851 93.876,53.367403 93.876,47.400806 C93.876,47.3771642 93.876,47.3564776 93.876,47.3367761 C93.876,47.3170746 93.876,47.2963881 93.876,47.2757015 C93.876,46.1054328 93.773,45.0238209 93.653,43.9589552 L93.646,43.9628955 C93.167,39.6512239 91.788,36.1689851 89.417,33.5841493 C88.612,32.6956119 87.664,31.9745373 86.662,31.3411343 L87.932,31.3381791 C88.493,31.1342687 89.102,30.9165672 89.718,30.636806 C90.625,30.2526269 91.586,29.8044179 92.555,29.2971045 C93.54,28.7966866 94.498,28.2164776 95.485,27.6096716 C96.457,27.0018806 97.387,26.3152836 98.291,25.6109552 C99.181,24.8800299 100.063,24.1451642 100.851,23.3324776 C101.638,22.5089552 102.432,21.727791 103.11,20.8382687 C104.506,19.1222687 105.677,17.305791 106.615,15.3977015 C107.107,14.4963582 107.505,13.4541493 107.894,12.5124179 C108.298,11.576597 108.626,10.5432537 108.956,9.59462687 C109.284,8.66274627 109.585,7.72002985 109.852,6.80489552 C110.146,5.85922388 110.399,5.03176119 110.612,4.35698507 C110.858,3.6841791 111.008,2.97985075 111.145,2.56513433 C111.269,2.09623881 111.331,1.8519403 111.331,1.8519403 C111.331,1.8519403 111.09,1.73373134 110.68,1.56823881 Z M87.148,51.4445373 L87.141,51.4474925 C86.984,52.3951343 86.758,53.2580597 86.488,54.0737015 C86.358,54.4480299 86.238,54.8253134 86.088,55.1691045 C85.999,55.3671045 85.906,55.559194 85.815,55.7483284 C85.5,56.3590746 85.154,56.9392836 84.751,57.4446269 C83.796,58.6454328 82.584,59.5083582 81.141,60.0816716 C79.854,60.5840597 78.382,60.8598806 76.703,60.8598806 C73.127,60.8598806 70.42,59.7102985 68.596,57.4081791 C66.772,55.1090149 65.859,51.7341493 65.859,47.2816119 C65.859,45.7783881 66.003,44.4465672 66.214,43.1925672 C66.214,43.1925672 66.214,43.1896119 66.221,43.1896119 C66.378,42.2419701 66.605,41.3790448 66.874,40.563403 C67.001,40.1890746 67.117,39.810806 67.274,39.468 C67.356,39.2690149 67.456,39.0769254 67.548,38.887791 C67.862,38.2780299 68.208,37.6978209 68.609,37.1914925 C69.567,35.9916716 70.779,35.1287463 72.223,34.5554328 C73.509,34.0510746 74.974,33.7752537 76.661,33.7752537 C80.237,33.7752537 82.943,34.9258209 84.767,37.2289254 C86.591,39.5280896 87.505,42.9029552 87.505,47.3554925 C87.501,48.8587164 87.357,50.1895522 87.148,51.4445373 Z M97.799,12.2907761 C97.504,12.5281791 97.121,12.7626269 96.758,13.1349851 C96.382,13.4935522 95.954,13.8944776 95.499,14.3328358 C95.074,14.8066567 94.616,15.3277612 94.137,15.8715224 C93.693,16.447791 93.223,17.0565672 92.741,17.6820896 C91.845,18.9863284 90.941,20.4127164 90.14,21.8922985 C88.518,24.8504776 87.21,27.9564179 86.348,30.3215821 C86.252,30.5737612 86.17,30.809194 86.088,31.0397015 C85.54,30.7323582 85.014,30.3944776 84.418,30.1501791 C84.493,29.977791 84.562,29.8211642 84.644,29.6389254 C85.726,27.2905075 87.314,24.2298806 89.203,21.3426269 C90.141,19.9034328 91.178,18.5223582 92.194,17.2732836 C92.741,16.6704179 93.261,16.090209 93.761,15.5375821 C94.287,15.0263284 94.794,14.5357612 95.259,14.0944478 C95.759,13.6836716 96.225,13.3142687 96.628,12.9852537 C97.025,12.6375224 97.436,12.4257313 97.743,12.2198507 C98.38,11.8090746 98.736,11.5815224 98.736,11.5815224 C98.736,11.5815224 98.4,11.840597 97.799,12.2907761 Z" id="Shape"></path>
            </g>
        </g>
    </g>
</svg>