
<svg width="66px" height="66px" viewBox="0 0 66 66" version="1.1" xmlns="http://www.w3.org/2000/svg" xmlns:xlink="http://www.w3.org/1999/xlink">
    <g id="Page-1" stroke="none" stroke-width="1" fill="none" fill-rule="evenodd">
        <g id="Extra-large:-Desktops---12-col-Copy-2" transform="translate(-925.000000, -766.000000)" fill="#009246" fill-rule="nonzero">
            <g id="100%-сделано-в-Италии-Copy-2" transform="translate(925.000000, 766.000000)">
                <g id="paint-brush">
                    <path d="M38.9406842,0.818043181 C37.8740003,-0.253720238 36.1438463,-0.253720238 35.0771623,0.818043181 L20.7683649,15.1929316 C20.3492669,15.6160714 20.0804577,16.1660714 20.0034804,16.7582218 C19.4153585,16.8355655 18.8687796,17.106064 18.448867,17.5267485 L12.4841528,23.5202753 C10.8835159,25.1170759 10.8122408,27.4807663 12.284175,30.1734747 C13.8391958,32.9648065 15.6813537,35.5842634 17.781324,37.9892857 L17.4025474,38.6722842 C15.6866484,41.5651041 13.3667432,44.0495163 10.6028954,45.9540551 L1.51917945,53.0160714 C1.48293096,53.0438988 1.4495335,53.0741816 1.41735782,53.1061012 C0.523363422,54.0632813 0.0517254408,55.3412946 0.108745562,56.6524554 C0.170245801,59.1155878 1.14203199,61.4678199 2.83390112,63.2512277 C4.60682023,64.9486979 6.94383143,65.9247024 9.39243925,65.9889509 L9.40017773,65.9889509 C10.7051244,66.0454241 11.9770809,65.5703126 12.9285027,64.6712425 C12.9610856,64.6389136 12.9908175,64.6053571 13.018513,64.568936 L20.0588714,55.4255952 C21.9535694,52.6502232 24.4257998,50.3209078 27.3040951,48.6001116 L27.9663433,48.2252604 C30.4051762,50.3966146 33.066795,52.3011532 35.9068054,53.9065476 C36.9832642,54.5543527 38.2063463,54.9173364 39.4603822,54.9611235 C40.6109671,54.9787202 41.7200088,54.5252976 42.5317314,53.7056175 L48.5001111,47.7100446 C48.9188018,47.2877232 49.1876111,46.7389509 49.2654028,46.1484374 C49.8539321,46.0702753 50.4009182,45.8005952 50.8220528,45.3799107 L65.1218898,31.0070684 C66.1885738,29.9353051 66.1885738,28.1969122 65.1218898,27.1251488 L38.9406842,0.818043181 Z M46.9511997,46.1574405 L40.9828199,52.1493303 C40.1083753,53.027939 38.7561833,52.9657366 36.9547542,51.9725446 C34.0308427,50.3180432 31.2999851,48.3390253 28.8147216,46.0723214 C28.8061686,46.0649554 28.7951718,46.0637277 28.7862115,46.0559524 C28.7218602,46.0084821 28.6522141,45.9675595 28.5789025,45.9356398 C28.5247334,45.9029017 28.4685278,45.874256 28.4102859,45.8505208 C28.3471564,45.8366071 28.2832124,45.8280134 28.2192684,45.825558 C28.1467713,45.8116444 28.0734597,45.805506 28.0005554,45.8067337 C27.9427207,45.8173735 27.8865151,45.8325149 27.8311241,45.8517485 C27.7488522,45.8685268 27.6698385,45.8934896 27.5940833,45.9278646 C27.5839011,45.9327753 27.5720897,45.9327753 27.5606857,45.9385044 L26.2492224,46.68125 C23.1033397,48.546503 20.4001777,51.077567 18.326681,54.098884 L11.3449719,63.1652902 C10.795542,63.6072544 10.1031547,63.8298735 9.40017773,63.7918155 L9.39162473,63.7918155 C7.52502962,63.7202009 5.74600118,62.9770461 4.37955418,61.6969866 C3.10352488,60.3219866 2.36389218,58.5308036 2.29546801,56.6524554 C2.25718311,55.9489956 2.47793246,55.2561755 2.9149511,54.7049479 L11.9216899,47.7022694 C14.9339825,45.6188988 17.4575311,42.9012277 19.3192387,39.7387277 L20.0613152,38.3985119 C20.0613152,38.3890997 20.0613152,38.3776413 20.07109,38.3678199 C20.1040802,38.2945684 20.1289248,38.217634 20.1444017,38.1386532 C20.1655806,38.0797247 20.1814648,38.01875 20.1908324,37.9569568 C20.1924614,37.8882068 20.1863522,37.8190476 20.1737263,37.7507068 C20.1814648,37.6172991 20.1427725,37.485119 20.0641662,37.3774925 C20.0319905,37.3026041 19.9912618,37.2322173 19.9432021,37.1663318 C19.9366855,37.1577381 19.9354636,37.1470983 19.9281324,37.1393229 C17.7304132,34.6884673 15.8108709,31.9990327 14.2053466,29.1213541 C13.2160471,27.3105282 13.1569905,25.9510789 14.0314352,25.077381 L20.0034804,19.0777158 C20.2160841,18.868192 20.5557613,18.868192 20.7683649,19.0777158 L46.9511997,45.3819568 C47.1638033,45.5959821 47.1638033,45.943006 46.9511997,46.1574405 Z M49.269883,43.8289435 C49.0572793,44.038058 48.7167876,44.038058 48.5045912,43.8289435 L22.3184983,17.5230655 C22.1099675,17.3102679 22.1099675,16.9681548 22.3184983,16.7545387 L25.6293321,13.427939 L31.9846342,12.8468378 C32.1459198,12.8325149 32.3051689,12.890625 32.4196164,13.0056175 C32.534064,13.1214286 32.5914914,13.281436 32.5772363,13.4434896 L32.1190388,18.511756 C32.0518365,19.257366 32.2905065,19.9984747 32.7796579,20.5627976 C33.2692165,21.127939 33.9664914,21.4671874 34.7110115,21.502381 L47.880628,22.1329985 C48.0317314,22.1399554 48.1726525,22.2095238 48.2708087,22.3249255 C48.3689648,22.4403274 48.4153954,22.5917411 48.3982894,22.7423364 L47.177651,33.7574777 C47.0147363,35.2081845 48.0101452,36.5328497 49.4433871,36.7730655 L55.3164618,37.7560268 L49.269883,43.8289435 Z M63.5758294,29.4540551 L57.2164543,35.8441221 L49.8017994,34.6021206 C49.5158842,34.5538318 49.3175355,34.2894718 49.3497112,34.0001488 L50.5679059,22.9764136 C50.6513996,22.2238468 50.4216899,21.4696429 49.9325386,20.8930432 C49.4437945,20.3160342 48.7391884,19.968192 47.9865225,19.9305432 L34.8164988,19.3003348 C34.6682464,19.2933779 34.5285471,19.2254464 34.4312055,19.1129092 C34.3322349,19.0003721 34.2845823,18.8522321 34.2988374,18.7028646 L34.7566276,13.6354167 C34.8303466,12.8239211 34.5415802,12.0218378 33.9681205,11.4452381 C33.3954754,10.8686384 32.5967861,10.5776786 31.7887292,10.6513393 L28.0461715,10.9930432 L36.617928,2.3726935 C36.8317536,2.15784968 37.17754,2.15784968 37.3913656,2.3726935 L63.5758294,28.677753 C63.7896549,28.8921874 63.7896549,29.2400298 63.5758294,29.4540551 Z" id="Shape"></path>
                    <path d="M6.00096273,55.334747 C4.70008886,56.6418155 4.70008886,58.7616071 6.00096273,60.0686755 C7.30224375,61.3761532 9.41198901,61.3761532 10.7124556,60.0686755 C12.0137366,58.7616071 12.0137366,56.6418155 10.7132701,55.334747 C10.090936,54.7008556 9.24255773,54.3448289 8.35670918,54.3448289 C7.47167503,54.3448289 6.62248223,54.7008556 6.00096273,55.334747 Z M9.17087527,58.5197544 C8.71797243,58.9563988 8.00277693,58.9563988 7.54987409,58.5197544 C7.10226605,58.0700149 7.10267331,57.341183 7.55028135,56.8910342 C7.99788949,56.4421131 8.72367449,56.4421131 9.17087527,56.8918527 C9.61563238,57.3432292 9.6144106,58.0704241 9.16761698,58.5197544 L9.17087527,58.5197544 Z" id="Shape"></path>
                    <path d="M21.1565092,22.7214658 C20.7276363,22.3052827 20.0462456,22.3114211 19.6242965,22.7353794 C19.2027547,23.1585194 19.1966454,23.8439732 19.6104487,24.2748884 L25.1532139,29.8420015 C25.5820868,30.2581845 26.2634775,30.2520461 26.6854265,29.828497 C27.106561,29.4053571 27.1126703,28.7199032 26.6984597,28.2889881 L21.1565092,22.7214658 Z" id="Shape"></path>
                    <path d="M29.8651141,31.4707218 C29.4366484,31.0545387 28.7544431,31.0602679 28.3329013,31.483817 C27.9113595,31.9077753 27.9052503,32.5928199 28.3194609,33.0237351 L29.9025844,34.6152158 C30.1766884,34.9004464 30.5831605,35.0150298 30.9651955,34.9147694 C31.3476378,34.8140997 31.6457716,34.5145461 31.7459641,34.1302827 C31.8461567,33.7464286 31.7321164,33.3380208 31.4478302,33.0622024 L29.8651141,31.4707218 Z" id="Shape"></path>
                </g>
            </g>
        </g>
    </g>
</svg>