
<svg width="67px" height="68px" viewBox="0 0 67 68" version="1.1" xmlns="http://www.w3.org/2000/svg" xmlns:xlink="http://www.w3.org/1999/xlink">
    <g id="Page-1" stroke="none" stroke-width="1" fill="none" fill-rule="evenodd">
        <g id="Extra-large:-Desktops---12-col-Copy-2" transform="translate(-545.000000, -766.000000)" fill="#009246" fill-rule="nonzero">
            <g id="100%-сделано-в-Италии-Copy" transform="translate(545.000000, 766.000000)">
                <g id="smile">
                    <path d="M47.0035764,41.3671251 C46.4107618,40.8268855 45.4999569,40.8795918 44.9718915,41.4813221 C41.970408,44.894055 37.6422861,46.8500444 33.0940171,46.8500444 C28.5471869,46.8500444 24.2176262,44.894055 21.2161427,41.4813221 C20.6851996,40.8795918 19.7772724,40.8268855 19.1844578,41.3671251 C18.5916433,41.9059006 18.5427217,42.831189 19.0722259,43.4343833 C22.6190412,47.4664153 27.7299086,49.7781721 33.0940171,49.7781721 C38.4595645,49.7781721 43.5704318,47.4649512 47.1158082,43.4343833 C47.6453125,42.831189 47.5949521,41.9059006 47.0035764,41.3671251 Z" id="Shape"></path>
                    <path d="M33.0940171,0 C14.8462638,0 0,15.1062112 0,33.6734694 C0,52.2407276 14.8462638,67.3469388 33.0940171,67.3469388 C51.3417703,67.3469388 66.1880342,52.2407276 66.1880342,33.6734694 C66.1880342,15.1062112 51.3417703,0 33.0940171,0 Z M33.0940171,64.418811 C16.4318989,64.418811 2.87774062,50.6273292 2.87774062,33.6734694 C2.87774062,16.7196096 16.4318989,2.92812777 33.0940171,2.92812777 C49.7561353,2.92812777 63.3102936,16.7196096 63.3102936,33.6734694 C63.3102936,50.6273292 49.7561353,64.418811 33.0940171,64.418811 Z" id="Shape"></path>
                    <path d="M44.6049796,23.4250222 C40.6380141,23.4250222 37.410628,26.7089175 37.410628,30.7453416 C37.410628,31.5535049 38.0552419,32.2094055 38.8494983,32.2094055 C39.6437547,32.2094055 40.2883686,31.5535049 40.2883686,30.7453416 C40.2883686,28.3237799 42.2250881,26.35315 44.6049796,26.35315 C46.9848711,26.35315 48.9215905,28.3237799 48.9215905,30.7453416 C48.9215905,31.5535049 49.5662044,32.2094055 50.3604608,32.2094055 C51.1547172,32.2094055 51.7993311,31.5535049 51.7993311,30.7453416 C51.7993311,26.7089175 48.571945,23.4250222 44.6049796,23.4250222 Z" id="Shape"></path>
                    <path d="M25.8996656,30.7453416 C25.8996656,31.5535049 26.5442795,32.2094055 27.3385359,32.2094055 C28.1327923,32.2094055 28.7774062,31.5535049 28.7774062,30.7453416 C28.7774062,26.7089175 25.5500201,23.4250222 21.5830546,23.4250222 C17.6160892,23.4250222 14.3887031,26.7089175 14.3887031,30.7453416 C14.3887031,31.5535049 15.033317,32.2094055 15.8275734,32.2094055 C16.6218298,32.2094055 17.2664437,31.5535049 17.2664437,30.7453416 C17.2664437,28.3237799 19.2031631,26.35315 21.5830546,26.35315 C23.9629461,26.35315 25.8996656,28.3237799 25.8996656,30.7453416 Z" id="Shape"></path>
                </g>
            </g>
        </g>
    </g>
</svg>