
<svg width="65px" height="46px" viewBox="0 0 65 46" version="1.1" xmlns="http://www.w3.org/2000/svg" xmlns:xlink="http://www.w3.org/1999/xlink">
    <g id="Page-1" stroke="none" stroke-width="1" fill="none" fill-rule="evenodd">
        <g id="Extra-large:-Desktops---12-col-Copy-2" transform="translate(-165.000000, -770.000000)" fill="#009246" fill-rule="nonzero">
            <g id="100%-сделано-в-Италии" transform="translate(165.000000, 766.000000)">
                <g id="coliseum" transform="translate(0.000000, 4.000000)">
                    <path d="M12.0000391,33 C12.5519922,33 13,32.5112607 13,31.9091258 L13,24.2727505 C13,22.4683911 11.6539844,21 10,21 C8.34601563,21 7,22.4683911 7,24.2727505 L7,31.9091258 C7,32.5112607 7.44800781,33 7.99996094,33 C8.55191406,33 8.99992188,32.5112607 8.99992188,31.9091258 L8.99992188,24.2727505 C8.99992188,23.6716383 9.44886719,23.1818763 9.99988281,23.1818763 C10.5508984,23.1818763 10.9998438,23.6716383 10.9998438,24.2727505 L10.9998438,31.9091258 C10.9999609,32.5112607 11.4479688,33 12.0000391,33 Z" id="Shape"></path>
                    <path d="M7,13 C7.55197469,13 8,12.5519852 8,12.0000234 L8,8.99997656 C8,8.44801481 7.55197469,8 7,8 C6.44802531,8 6,8.44801481 6,8.99997656 L6,12.0000234 C6,12.5519852 6.44802531,13 7,13 Z" id="Shape"></path>
                    <path d="M20.8333789,32 C21.4773242,32 22,31.5112659 22,30.9091374 L22,23.2727157 C22,21.4683755 20.4296484,20 18.5,20 C16.5703516,20 15,21.4683755 15,23.2727157 L15,30.9090096 C15,31.5111381 15.5226758,31.9998722 16.1666211,31.9998722 C16.8105664,31.9998722 17.3332422,31.5111381 17.3332422,30.9090096 L17.3332422,23.2727157 C17.3332422,22.6716098 17.8570117,22.181853 18.4998633,22.181853 C19.1427148,22.181853 19.6664844,22.6716098 19.6664844,23.2727157 L19.6664844,30.9090096 C19.6667578,31.5112659 20.1894336,32 20.8333789,32 Z" id="Shape"></path>
                    <path d="M7.88162138,15.1461049 C7.28717286,15.2609059 6.90222727,15.8197199 7.02175963,16.3955922 C7.13910698,16.9704685 7.7182605,17.3433847 8.31155225,17.2285838 C8.42015961,17.2084127 19.3342345,15.1248132 32.2258628,15.1248132 L35.9352216,15.1248132 L36.728248,16.6622989 C36.8346704,16.8683679 37.0067713,17.0352152 37.219616,17.1383119 L38.6257277,17.8193977 L38.3712395,18.8064117 C37.8623915,18.4930126 37.2590745,18.3123444 36.6130857,18.3123444 C34.7990216,18.3123444 33.3227328,19.7424999 33.3227328,21.4998755 L33.3227328,28.9375311 C33.3227328,29.5239871 33.8141007,30 34.4194742,30 C35.0248478,30 35.5162157,29.5239871 35.5162157,28.9375311 L35.5162157,21.5 C35.5162157,20.9145402 36.0086119,20.4375311 36.6129572,20.4375311 C37.2173024,20.4375311 37.7096986,20.9145402 37.7096986,21.5 C37.7096986,22.0365262 38.122021,22.4892553 38.6726409,22.5551226 C39.2122074,22.6167565 39.7364789,22.2778323 39.870278,21.7582398 L40.9670194,17.5082398 C41.0920786,17.0247561 40.8530139,16.5222219 40.3933927,16.2990947 L38.5266315,15.3960024 L37.5944077,13.5875765 C37.4079116,13.2273606 37.0284927,13 36.6128286,13 L32.2257343,13 C19.1082798,12.9998755 7.99241373,15.1238171 7.88162138,15.1461049 Z" id="Shape"></path>
                    <path d="M29.8333789,31 C30.4773242,31 31,30.5112607 31,29.9091258 L31,22.2727505 C31,20.4683911 29.4296484,19 27.5,19 C25.5703516,19 24,20.4683911 24,22.2727505 L24,29.9091258 C24,30.5112607 24.5226758,31 25.1666211,31 C25.8105664,31 26.3332422,30.5112607 26.3332422,29.9091258 L26.3332422,22.2727505 C26.3332422,21.6716383 26.8570117,21.1818763 27.4998633,21.1818763 C28.1427148,21.1818763 28.6664844,21.6716383 28.6664844,22.2727505 L28.6664844,29.9091258 C28.6667578,30.5112607 29.1894336,31 29.8333789,31 Z" id="Shape"></path>
                    <path d="M13,11.0000234 L13,7.99997656 C13,7.44801481 12.5519747,7 12,7 C11.4480253,7 11,7.44801481 11,7.99997656 L11,11.0000234 C11,11.5519852 11.4480253,12 12,12 C12.5519747,12.0001172 13,11.5521024 13,11.0000234 Z" id="Shape"></path>
                    <path d="M55.0000293,33 C55.5519878,33 56,32.5071895 56,31.9000387 L56,25.3000129 C56,23.480623 54.6539712,22 52.9999707,22 C52.4480122,22 52,22.4928105 52,23.0999613 C52,23.7071121 52.4480122,24.1999227 52.9999707,24.1999227 C53.5509917,24.1999227 53.9999414,24.6937644 53.9999414,25.299884 L53.9999414,31.8999098 C54.0000586,32.5071895 54.4480708,33 55.0000293,33 Z" id="Shape"></path>
                    <path d="M17,9.99358385 L17,7.00641615 C17,6.44983842 16.5519747,6 16,6 C15.4480253,6 15,6.44983842 15,7.00641615 L15,9.99358385 C15,10.5491001 15.4480253,11 16,11 C16.5519747,11 17,10.549218 17,9.99358385 Z" id="Shape"></path>
                    <path d="M63.9168338,43.8096033 L60.6668275,43.8096033 L60.6668275,38.3333547 C60.6668275,37.7298597 61.1531858,37.2381564 61.7501206,37.2381564 C62.348071,37.2381564 62.8334137,36.7474798 62.8334137,36.142958 L62.8334137,18.6191424 C62.8334137,16.6542541 61.5269366,15.3334189 59.5834074,15.3334189 L52.0001016,15.3334189 C51.5895344,15.3334189 51.214641,15.5677834 51.0305587,15.9390958 L49.9472655,18.1296209 C49.87249,18.2808155 49.8335153,18.4494655 49.8335153,18.6191424 L49.8335153,20.3562119 L47.9843125,22.2257372 C47.9020467,22.3090355 47.8337458,22.4052969 47.7806793,22.5105427 L46.6973861,24.7010678 C46.6226106,24.8522624 46.5836359,25.0209124 46.5836359,25.1905893 L46.5836359,29.2637312 L43.5969309,28.5091699 C43.3445475,28.4446106 43.0802306,28.4751576 42.8494294,28.591313 L41.3804519,29.3339379 L38.6826927,26.6066591 C38.2590493,26.1783599 37.5743898,26.1783599 37.1508733,26.6066591 C36.7272299,27.0348299 36.7272299,27.7271421 37.1508733,28.1553129 L40.4008797,31.4410364 C40.7291811,31.7729458 41.2339477,31.8572708 41.6509896,31.6469075 L43.4590595,30.7324239 L47.4035008,31.7290506 C47.7285014,31.8123488 48.0719103,31.7377783 48.3330534,31.5297253 C48.5963547,31.322699 48.7500952,31.0040095 48.7500952,30.6667094 L48.7500952,25.4489549 L49.6405462,23.6483528 L51.6825912,21.583866 C51.8862244,21.3790217 51.9999746,21.0997352 51.9999746,20.8095391 L51.9999746,18.877508 L52.6695267,17.5238156 L59.5834074,17.5238156 C60.3320514,17.5238156 60.6667005,17.8622708 60.6667005,18.619014 L60.6667005,35.2348918 C59.4056727,35.6871922 58.4999873,36.9050918 58.4999873,38.3333547 L58.4999873,43.8096033 L56.3332741,43.8096033 L56.3332741,38.3333547 C56.3332741,36.521843 54.8750876,35.0476313 53.0832677,35.0476313 C51.2914478,35.0476313 49.8332614,36.521843 49.8332614,38.3333547 L49.8332614,43.8096033 L47.6665482,43.8096033 L47.6665482,37.2381564 C47.6665482,35.4266446 46.2083617,33.9524329 44.4165418,33.9524329 C42.6247219,33.9524329 41.1665355,35.4266446 41.1665355,37.2381564 L41.1665355,43.8096033 L39.0000762,43.8096033 L39.0000762,36.142958 C39.0000762,34.3314462 37.5418897,32.8572345 35.7500698,32.8572345 C33.9582499,32.8572345 32.5000635,34.3314462 32.5000635,36.142958 L32.5000635,43.8096033 L30.3333503,43.8096033 L30.3333503,36.142958 C30.3333503,34.3314462 28.8751638,32.8572345 27.0833439,32.8572345 C25.291524,32.8572345 23.8333376,34.3314462 23.8333376,36.142958 L23.8333376,43.8096033 L21.6666243,43.8096033 L21.6666243,37.2381564 C21.6666243,35.4266446 20.2084379,33.9524329 18.416618,33.9524329 C16.6247981,33.9524329 15.1666117,35.4266446 15.1666117,37.2381564 L15.1666117,43.8096033 L13.0000254,43.8096033 L13.0000254,38.3333547 C13.0000254,36.521843 11.5418389,35.0476313 9.75001904,35.0476313 C7.95819914,35.0476313 6.5000127,36.521843 6.5000127,38.3333547 L6.5000127,43.8096033 L4.33329948,43.8096033 L4.33329948,6.21001733 C6.66035481,5.28346898 15.0561622,2.25726634 25.6500403,2.19155187 C27.9283456,4.00858261 29.8208395,9.29962416 30.3754988,11.2536028 C30.5391417,11.8341234 31.1403929,12.1714235 31.714476,12.0049554 C32.2897017,11.8395141 32.6223196,11.2328104 32.4576611,10.651263 C32.2258442,9.82765019 30.0818556,2.53000706 26.601175,0.184051853 C26.4235672,0.0646876805 26.2133324,0 25.9999238,0 C12.9208065,0 3.21623675,4.29223296 2.81011291,4.47512967 C2.41896957,4.65148061 2.16658626,5.0435855 2.16658626,5.47612019 L2.16658626,43.8096033 L1.08329313,43.8096033 C0.485342745,43.8096033 0,44.3002799 0,44.9048016 C0,45.5093234 0.485342745,46 1.08329313,46 L63.9167069,46 C64.5146573,46 65,45.5093234 65,44.9048016 C65,44.3002799 64.5147842,43.8096033 63.9168338,43.8096033 Z M10.8333122,43.8096033 L8.66672591,43.8096033 L8.66672591,38.3333547 C8.66672591,37.7298597 9.15308428,37.2381564 9.75001904,37.2381564 C10.3469538,37.2381564 10.8333122,37.7298597 10.8333122,38.3333547 L10.8333122,43.8096033 Z M19.5000381,43.8096033 L17.3333249,43.8096033 L17.3333249,37.2381564 C17.3333249,36.6346614 17.8196832,36.142958 18.416618,36.142958 C19.0135528,36.142958 19.4999111,36.6346614 19.4999111,37.2381564 L19.4999111,43.8096033 L19.5000381,43.8096033 Z M28.166764,43.8096033 L26.0000508,43.8096033 L26.0000508,36.142958 C26.0000508,35.539463 26.4864092,35.0477596 27.0833439,35.0477596 C27.6802787,35.0477596 28.166637,35.539463 28.166637,36.142958 L28.166637,43.8096033 L28.166764,43.8096033 Z M36.833363,43.8096033 L34.6666497,43.8096033 L34.6666497,36.142958 C34.6666497,35.539463 35.1530081,35.0477596 35.7499429,35.0477596 C36.3468776,35.0477596 36.833236,35.539463 36.833236,36.142958 L36.833236,43.8096033 L36.833363,43.8096033 Z M45.5000889,43.8096033 L43.3333757,43.8096033 L43.3333757,37.2381564 C43.3333757,36.6346614 43.819734,36.142958 44.4166688,36.142958 C45.0136035,36.142958 45.4999619,36.6346614 45.4999619,37.2381564 L45.4999619,43.8096033 L45.5000889,43.8096033 Z M54.1668148,43.8096033 L52.0001016,43.8096033 L52.0001016,38.3333547 C52.0001016,37.7298597 52.4864599,37.2381564 53.0833947,37.2381564 C53.6803295,37.2381564 54.1666878,37.7298597 54.1666878,38.3333547 L54.1666878,43.8096033 L54.1668148,43.8096033 Z" id="Shape"></path>
                    <path d="M52,31.8333561 L52,27.1666439 C52,26.522686 51.5519747,26 51,26 C50.4480253,26 50,26.522686 50,27.1666439 L50,31.8333561 C50,32.477314 50.4480253,33 51,33 C51.5519747,33 52,32.477314 52,31.8333561 Z" id="Shape"></path>
                    <path d="M22,10.0000234 L22,6.99997656 C22,6.44801481 21.5519747,6 21,6 C20.4480253,6 20,6.44801481 20,6.99997656 L20,10.0000234 C20,10.5519852 20.4480253,11 21,11 C21.5519747,11 22,10.5519852 22,10.0000234 Z" id="Shape"></path>
                    <path d="M26,10.0000234 L26,6.99997656 C26,6.44801481 25.5519747,6 25,6 C24.4480253,6 24,6.44801481 24,6.99997656 L24,10.0000234 C24,10.5519852 24.4480253,11 25,11 C25.5519747,11 26,10.5519852 26,10.0000234 Z" id="Shape"></path>
                </g>
            </g>
        </g>
    </g>
</svg>