<svg xmlns="http://www.w3.org/2000/svg" viewBox="0 0 318.5 96"><title>logo</title><path d="M48,0A48,48,0,1,0,96,48,48.05,48.05,0,0,0,48,0Zm0,92A44,44,0,1,1,92,48,44.05,44.05,0,0,1,48,92Z" style="fill:#00924b"/><path d="M66.1,51.85C73.92,50.86,78,44.4,78,38c0-7-4.81-14-14-14H50v4H64c6.87,0,10,5.18,10,10S70.87,48,64,48H50v4h11l17.4,21.27,3.1-2.54Z" style="fill:#00924b"/><path d="M32.2,46C22.84,45.07,18.8,40.13,19,35.94,19.2,32,23.3,28,32,28H46V24H32c-11.33,0-16.7,5.9-17,11.74-.3,6,4.83,13,16.79,14.25,9.36.94,13.4,5.88,13.19,10.07C44.8,64,40.7,68,32,68H18v4H32c11.33,0,16.7-5.9,17-11.74C49.29,54.24,44.16,47.21,32.2,46Z" style="fill:#00924b"/><path d="M109.64,37l1-1.88a12.34,12.34,0,0,0,8,2.8c4.56,0,6.55-1.81,6.55-4.08,0-6.31-15-2.43-15-10.95,0-3.39,2.79-6.32,9-6.32a14.4,14.4,0,0,1,7.56,2l-.87,1.94a13.13,13.13,0,0,0-6.69-1.91c-4.46,0-6.45,1.88-6.45,4.18,0,6.32,15,2.5,15,10.89,0,3.39-2.85,6.28-9.09,6.28C115,40,111.45,38.76,109.64,37Z" style="fill:#4a4a4a"/><path d="M158.07,16.75h2.58v23h-2.58Z" style="fill:#4a4a4a"/><path d="M188.6,16.75l-10.8,23h-2.55l-10.8-23h2.79l9.34,20,9.41-20Z" style="fill:#4a4a4a"/><path d="M232.09,39.78l-5.58-7.41a17.29,17.29,0,0,1-1.95.1H218v7.31h-2.58v-23h9.13c6.2,0,10,3,10,7.89,0,3.62-2,6.15-5.58,7.24l6,7.9ZM232,24.64c0-3.68-2.58-5.79-7.46-5.79H218V30.4h6.48C229.37,30.4,232,28.26,232,24.64Z" style="fill:#4a4a4a"/><path d="M266.41,39.78l-5.58-7.41a17.17,17.17,0,0,1-1.95.1h-6.55v7.31h-2.58v-23h9.13c6.21,0,10,3,10,7.89,0,3.62-2,6.15-5.58,7.24l6,7.9Zm-.14-15.14c0-3.68-2.58-5.79-7.46-5.79h-6.48V30.4h6.48C263.69,30.4,266.27,28.26,266.27,24.64Z" style="fill:#4a4a4a"/><path d="M274.74,29.94V16.75h2.58V29.84c0,5.46,2.72,8,7.45,8s7.5-2.5,7.5-8V16.75h2.51V29.94c0,6.61-3.77,10-10,10S274.74,36.55,274.74,29.94Z" style="fill:#4a4a4a"/><path d="M300.21,37l1-1.88a12.34,12.34,0,0,0,8,2.8c4.57,0,6.55-1.81,6.55-4.08,0-6.31-15-2.43-15-10.95,0-3.39,2.79-6.32,9-6.32a14.43,14.43,0,0,1,7.57,2l-.88,1.94a13.13,13.13,0,0,0-6.69-1.91c-4.46,0-6.44,1.88-6.44,4.18,0,6.32,15,2.5,15,10.89,0,3.39-2.86,6.28-9.1,6.28C305.61,40,302,38.76,300.21,37Z" style="fill:#4a4a4a"/><path d="M116.35,60.79h1.26v3.55h-1.55V62h-6.52v2.34H108V60.79h.77q1.52-2.15,1.52-7.08v-.42h6.06Zm-1.55-6.28h-3a14.41,14.41,0,0,1-1.33,6.28h4.3Z" style="fill:#4a4a4a"/><path d="M122.64,62.21A4.13,4.13,0,0,1,119.55,61a4.6,4.6,0,0,1-1.16-3.35,4.72,4.72,0,0,1,1.12-3.34,3.85,3.85,0,0,1,2.95-1.21,3.9,3.9,0,0,1,3,1.19,4.73,4.73,0,0,1,1.11,3.36V58H120a3.39,3.39,0,0,0,.84,2.24,2.45,2.45,0,0,0,1.81.73,2.7,2.7,0,0,0,1.46-.41,1.44,1.44,0,0,0,.69-1.18h1.59a2.85,2.85,0,0,1-1.21,2.07A4.3,4.3,0,0,1,122.64,62.21Zm2.28-5.4a3.15,3.15,0,0,0-.85-1.88,2.23,2.23,0,0,0-1.61-.63,2.27,2.27,0,0,0-1.59.62,3.11,3.11,0,0,0-.84,1.89Z" style="fill:#4a4a4a"/><path d="M135.48,62h-1.85l-2.79-4.25-1,1.06V62h-1.55V53.29h1.55V57l3.36-3.72h1.95l-3.3,3.43Z" style="fill:#4a4a4a"/><path d="M140.21,53.1a3.88,3.88,0,0,1,3,1.19,4.73,4.73,0,0,1,1.11,3.36A4.73,4.73,0,0,1,143.18,61a4.28,4.28,0,0,1-5.94,0,4.73,4.73,0,0,1-1.11-3.36,4.73,4.73,0,0,1,1.11-3.36A3.88,3.88,0,0,1,140.21,53.1Zm0,7.89a2.22,2.22,0,0,0,1.8-.84,4.87,4.87,0,0,0,0-5,2.33,2.33,0,0,0-3.6,0,4.87,4.87,0,0,0,0,5A2.22,2.22,0,0,0,140.21,61Z" style="fill:#4a4a4a"/><path d="M147.58,54.34a3.29,3.29,0,0,1,5.12,0,5.19,5.19,0,0,1,.94,3.27,5.06,5.06,0,0,1-1,3.38A3.28,3.28,0,0,1,150,62.21a3.43,3.43,0,0,1-2.38-.88v4H146V53.29h1.55Zm0,5.59A3,3,0,0,0,149.86,61a1.82,1.82,0,0,0,1.59-.86,4.53,4.53,0,0,0,.59-2.55,4.4,4.4,0,0,0-.56-2.44,1.77,1.77,0,0,0-1.56-.84,2.92,2.92,0,0,0-2.34,1.5Z" style="fill:#4a4a4a"/><path d="M160.88,61.11a4.28,4.28,0,0,1-3,1.1,3.2,3.2,0,0,1-2.13-.71,2.24,2.24,0,0,1-.84-1.81q0-3,5.26-3h.75a7.16,7.16,0,0,0-.09-1.35,1.15,1.15,0,0,0-.55-.71,2.89,2.89,0,0,0-1.44-.28c-1.38,0-2.09.5-2.13,1.48h-1.55q.18-2.69,3.76-2.68a4.46,4.46,0,0,1,2.61.66,3.05,3.05,0,0,1,.94,2.61V62h-1.55Zm0-1.4V57.78h-1c-2.25,0-3.37.61-3.37,1.83a1.18,1.18,0,0,0,.49,1,2.23,2.23,0,0,0,1.33.36,3.37,3.37,0,0,0,1.48-.34A2.81,2.81,0,0,0,160.88,59.71Z" style="fill:#4a4a4a"/><path d="M163.88,54.51V53.29H171v1.22h-2.78V62h-1.54V54.51Z" style="fill:#4a4a4a"/><path d="M172.41,62V53.29H174v6.63l3.9-6.63h1.66V62H178V55.38L174.08,62Z" style="fill:#4a4a4a"/><path d="M185.88,62h-4.07V53.29h3.52c2.15,0,3.22.77,3.22,2.31a1.89,1.89,0,0,1-1.13,1.88,2,2,0,0,1,1.51,2.08,2.15,2.15,0,0,1-.82,1.77A3.39,3.39,0,0,1,185.88,62Zm-2.52-7.49V57h1.83a2.59,2.59,0,0,0,1.39-.29,1,1,0,0,0,.42-.93,1.05,1.05,0,0,0-.44-.93,2.86,2.86,0,0,0-1.49-.29Zm0,3.64v2.64h2c1.3,0,2-.43,2-1.31s-.69-1.33-2.08-1.33Z" style="fill:#4a4a4a"/><path d="M190.72,62V53.29h1.55v3.62h4V53.29h1.54V62h-1.54V58.12h-4V62Z" style="fill:#4a4a4a"/><path d="M201.62,56.69h1.94a4.35,4.35,0,0,1,2.67.72,2.29,2.29,0,0,1,1,1.93,2.33,2.33,0,0,1-1,1.95,4.41,4.41,0,0,1-2.67.71h-3.49V53.29h1.55Zm0,4.1h1.88c1.39,0,2.08-.48,2.08-1.45s-.69-1.44-2.08-1.44h-1.88ZM209.84,62h-1.55V53.29h1.55Z" style="fill:#4a4a4a"/><path d="M215.81,62.21A4.09,4.09,0,0,1,212.73,61a4.6,4.6,0,0,1-1.17-3.35,4.72,4.72,0,0,1,1.13-3.34,3.84,3.84,0,0,1,2.95-1.21,3.88,3.88,0,0,1,3,1.19,4.69,4.69,0,0,1,1.12,3.36V58h-6.56a3.38,3.38,0,0,0,.83,2.24,2.47,2.47,0,0,0,1.81.73,2.76,2.76,0,0,0,1.47-.41A1.4,1.4,0,0,0,218,59.4h1.6a2.83,2.83,0,0,1-1.22,2.07A4.25,4.25,0,0,1,215.81,62.21Zm2.28-5.4a3.08,3.08,0,0,0-.84-1.88,2.36,2.36,0,0,0-3.2,0,3.12,3.12,0,0,0-.85,1.89Z" style="fill:#4a4a4a"/><path d="M237.11,62H225.92V53.29h1.55v7.5h3.27v-7.5h1.55v7.5h3.28v-7.5h1.54Z" style="fill:#4a4a4a"/><path d="M238.55,54.51V53.29h7.09v1.22h-2.77V62h-1.54V54.51Z" style="fill:#4a4a4a"/><path d="M247.58,64.1c.76,0,1.39-.7,1.88-2.1l-1.7-4.48-1.59-4.23h1.67l1.36,4,1,2.78,2.3-6.81h1.68L250.84,62q-.48,1.24-.81,1.92a3.43,3.43,0,0,1-.87,1.14,2,2,0,0,1-1.32.47,3.65,3.65,0,0,1-1-.12V64A2.65,2.65,0,0,0,247.58,64.1Z" style="fill:#4a4a4a"/><path d="M262.68,62h-1.84l-2.79-4.25-1,1.06V62h-1.55V53.29H257V57l3.35-3.72h2l-3.3,3.43Z" style="fill:#4a4a4a"/><path d="M269.4,61.11a4.28,4.28,0,0,1-3,1.1,3.18,3.18,0,0,1-2.13-.71,2.24,2.24,0,0,1-.84-1.81q0-3,5.26-3h.75a6.23,6.23,0,0,0-.1-1.35,1.08,1.08,0,0,0-.55-.71,2.85,2.85,0,0,0-1.43-.28c-1.38,0-2.09.5-2.13,1.48h-1.55q.18-2.69,3.76-2.68a4.46,4.46,0,0,1,2.61.66,3.05,3.05,0,0,1,.94,2.61V62H269.4Zm0-1.4V57.78h-1.06q-3.36,0-3.36,1.83a1.16,1.16,0,0,0,.49,1,2.21,2.21,0,0,0,1.33.36,3.37,3.37,0,0,0,1.48-.34A2.88,2.88,0,0,0,269.4,59.71Z" style="fill:#4a4a4a"/><path d="M272.4,54.51V53.29h7.09v1.22h-2.78V62h-1.54V54.51Z" style="fill:#4a4a4a"/><path d="M281.42,64.1c.77,0,1.39-.7,1.88-2.1l-1.7-4.48L280,53.29h1.67l1.36,4L284,60.1l2.3-6.81H288L284.68,62q-.48,1.24-.81,1.92a3.43,3.43,0,0,1-.87,1.14,2,2,0,0,1-1.32.47,3.7,3.7,0,0,1-1-.12V64A2.65,2.65,0,0,0,281.42,64.1Z" style="fill:#4a4a4a"/><path d="M290.88,54.34a3.3,3.3,0,0,1,5.13,0,5.25,5.25,0,0,1,.93,3.27,5.06,5.06,0,0,1-1,3.38,3.31,3.31,0,0,1-2.64,1.25,3.45,3.45,0,0,1-2.38-.88v4h-1.55V53.29h1.55Zm0,5.59A3,3,0,0,0,293.16,61a1.81,1.81,0,0,0,1.59-.86,4.45,4.45,0,0,0,.59-2.55,4.41,4.41,0,0,0-.55-2.44,1.77,1.77,0,0,0-1.56-.84,3,3,0,0,0-2.35,1.5Z" style="fill:#4a4a4a"/><path d="M305.87,62H304l-2.78-4.25-1,1.06V62h-1.55V53.29h1.55V57l3.35-3.72h1.95l-3.29,3.43Z" style="fill:#4a4a4a"/><path d="M307.08,62V53.29h1.55v6.63l3.89-6.63h1.67V62h-1.55V55.38L308.74,62Z" style="fill:#4a4a4a"/><path d="M318.5,62a3.11,3.11,0,0,1-.42,1.72,1.4,1.4,0,0,1-1.26.65v-.79c.56,0,.83-.52.83-1.58h-.83V60.32h1.68Z" style="fill:#4a4a4a"/><path d="M116.33,82.16h-1.84l-2.79-4.25-1,1.06v3.19h-1.55v-8.7h1.55v3.71l3.36-3.71h2l-3.3,3.43Z" style="fill:#4a4a4a"/><path d="M119.09,74.5a3.13,3.13,0,0,1,2.49-1.24,3.16,3.16,0,0,1,2.64,1.21,5.25,5.25,0,0,1,.93,3.27,5,5,0,0,1-1,3.38,3.31,3.31,0,0,1-2.64,1.25,3.4,3.4,0,0,1-2.38-.88v4h-1.55V73.46h1.55Zm0,5.6a3.05,3.05,0,0,0,2.28,1.05A1.83,1.83,0,0,0,123,80.3a4.49,4.49,0,0,0,.59-2.56A4.43,4.43,0,0,0,123,75.3a1.8,1.8,0,0,0-1.56-.83A2.93,2.93,0,0,0,119.09,76Z" style="fill:#4a4a4a"/><path d="M132.4,81.27a4.31,4.31,0,0,1-3.05,1.1,3.25,3.25,0,0,1-2.13-.7,2.24,2.24,0,0,1-.83-1.81c0-2,1.75-3,5.25-3h.76a6.28,6.28,0,0,0-.1-1.36,1.13,1.13,0,0,0-.55-.7,2.79,2.79,0,0,0-1.44-.28q-2.06,0-2.13,1.47h-1.54c.11-1.78,1.37-2.68,3.76-2.68a4.42,4.42,0,0,1,2.61.67,3,3,0,0,1,.93,2.61v5.62H132.4Zm0-1.4V78h-1.06Q128,78,128,79.78a1.18,1.18,0,0,0,.49,1,2.21,2.21,0,0,0,1.33.35,3.3,3.3,0,0,0,1.47-.34A2.77,2.77,0,0,0,132.4,79.87Z" style="fill:#4a4a4a"/><path d="M139.76,82.37a3.85,3.85,0,0,1-3-1.2,5.64,5.64,0,0,1,0-6.72,4.3,4.3,0,0,1,5.35-.47,3,3,0,0,1,1.13,2.09h-1.59a1.46,1.46,0,0,0-.59-1.19,2.13,2.13,0,0,0-1.33-.41,2.22,2.22,0,0,0-1.8.84,4.87,4.87,0,0,0,0,5,2.22,2.22,0,0,0,1.8.84,2.13,2.13,0,0,0,1.33-.41,1.44,1.44,0,0,0,.59-1.18h1.59a3,3,0,0,1-1.13,2.09A3.85,3.85,0,0,1,139.76,82.37Z" style="fill:#4a4a4a"/><path d="M151.83,82.16H150l-2.79-4.25-1,1.06v3.19h-1.55v-8.7h1.55v3.71l3.36-3.71h2l-3.3,3.43Z" style="fill:#4a4a4a"/><path d="M153,82.16v-8.7h1.55v6.62l3.9-6.62h1.67v8.7H158.6V75.54l-3.9,6.62Z" style="fill:#4a4a4a"/><path d="M164.46,82.16a3.08,3.08,0,0,1-.43,1.73,1.39,1.39,0,0,1-1.25.64v-.78c.55,0,.83-.53.83-1.59h-.83V80.48h1.68Z" style="fill:#4a4a4a"/><path d="M173.11,74.67v7.49h-1.55v-8.7h5.13v1.21Z" style="fill:#4a4a4a"/><path d="M179.54,74.5A3.13,3.13,0,0,1,182,73.26a3.18,3.18,0,0,1,2.64,1.21,5.25,5.25,0,0,1,.93,3.27,5.1,5.1,0,0,1-1,3.38,3.31,3.31,0,0,1-2.64,1.25,3.4,3.4,0,0,1-2.38-.88v4H178V73.46h1.55Zm0,5.6a3.05,3.05,0,0,0,2.28,1.05,1.83,1.83,0,0,0,1.59-.85,4.49,4.49,0,0,0,.59-2.56,4.43,4.43,0,0,0-.55-2.44,1.8,1.8,0,0,0-1.56-.83A2.93,2.93,0,0,0,179.54,76Z" style="fill:#4a4a4a"/><path d="M187.83,84.26c.76,0,1.39-.7,1.88-2.1L188,77.68l-1.59-4.22h1.67l1.35,4,.95,2.79,2.31-6.81h1.67l-3.29,8.7c-.31.83-.58,1.48-.8,1.93a3.83,3.83,0,0,1-.87,1.14,2,2,0,0,1-1.32.46,4.13,4.13,0,0,1-1-.11V84.15A2.65,2.65,0,0,0,187.83,84.26Z" style="fill:#4a4a4a"/><path d="M195.74,82.16v-8.7h1.55v3.61h4V73.46h1.54v8.7h-1.54V78.28h-4v3.88Z" style="fill:#4a4a4a"/><path d="M204.24,74.67V73.46h7.09v1.21h-2.77v7.49H207V74.67Z" style="fill:#4a4a4a"/><path d="M214.33,76.85h1.94a4.37,4.37,0,0,1,2.67.72,2.29,2.29,0,0,1,.95,1.93,2.31,2.31,0,0,1-.95,2,4.44,4.44,0,0,1-2.67.71h-3.49v-8.7h1.55Zm0,4.11h1.88c1.38,0,2.08-.49,2.08-1.46s-.7-1.44-2.08-1.44h-1.88Zm8.22,1.2H221v-8.7h1.55Z" style="fill:#4a4a4a"/><path d="M142.53,16.75H133.4v2.1h9.06c4.88,0,7.46,2.11,7.46,5.79s-2.58,5.73-7.46,5.73H133.4v9.41H136V32.51h6.55c6.21,0,10-3,10-7.87S148.74,16.75,142.53,16.75Z" style="fill:#4a4a4a"/><polygon points="194.7 18.85 198.27 18.85 208.85 18.85 208.85 16.75 192.12 16.75 192.12 18.85 194.7 18.85" style="fill:#4a4a4a"/><polygon points="194.7 29.12 202.06 29.12 207.31 29.12 207.31 27.05 198.27 27.05 194.7 27.05 192.12 27.05 192.12 29.12 194.7 29.12" style="fill:#4a4a4a"/><polygon points="202.06 37.67 194.7 37.67 192.12 37.67 192.12 39.78 209.37 39.78 209.37 37.67 202.06 37.67" style="fill:#4a4a4a"/></svg>