<svg xmlns="http://www.w3.org/2000/svg" viewBox="0 0 366.5 80">
  <title>logo-n1</title>
  <g>
    <g>
      <path d="M157.6,27l1-1.9a12.7,12.7,0,0,0,8.1,2.8c4.6,0,6.6-1.8,6.6-4.1,0-6.3-15.1-2.4-15.1-10.9,0-3.4,2.8-6.3,9-6.3a14.3,14.3,0,0,1,7.6,2l-.9,1.9a12.9,12.9,0,0,0-6.7-1.9c-4.4,0-6.4,1.9-6.4,4.2,0,6.3,15,2.5,15,10.9,0,3.4-2.9,6.3-9.1,6.3C163,30,159.4,28.8,157.6,27Z" style="fill: #4a4a4a"/>
      <path d="M206.1,6.7h2.6V29.8h-2.6Z" style="fill: #4a4a4a"/>
      <path d="M236.6,6.7,225.8,29.8h-2.5L212.4,6.7h2.8l9.4,20.1L234,6.7Z" style="fill: #4a4a4a"/>
      <path d="M280.1,29.8l-5.6-7.4H266v7.3h-2.6V6.7h9.2c6.2,0,9.9,3,9.9,7.9a7.2,7.2,0,0,1-5.5,7.3l5.9,7.9Zm-.2-15.2c0-3.6-2.5-5.7-7.4-5.7H266V20.4h6.5C277.4,20.4,279.9,18.3,279.9,14.6Z" style="fill: #4a4a4a"/>
      <path d="M314.4,29.8l-5.6-7.4h-8.5v7.3h-2.5V6.7h9.1c6.2,0,10,3,10,7.9s-2.1,6.2-5.6,7.3l5.9,7.9Zm-.1-15.2c0-3.6-2.6-5.7-7.5-5.7h-6.5V20.4h6.5C311.7,20.4,314.3,18.3,314.3,14.6Z" style="fill: #4a4a4a"/>
      <path d="M322.7,19.9V6.7h2.6V19.8c0,5.5,2.7,8,7.5,8s7.5-2.5,7.5-8V6.7h2.5V19.9c0,6.7-3.8,10.1-10,10.1S322.7,26.6,322.7,19.9Z" style="fill: #4a4a4a"/>
      <path d="M348.2,27l1-1.9a12.7,12.7,0,0,0,8.1,2.8c4.5,0,6.5-1.8,6.5-4.1,0-6.3-15-2.4-15-10.9,0-3.4,2.8-6.3,9-6.3a14.6,14.6,0,0,1,7.6,2l-.9,1.9a12.9,12.9,0,0,0-6.7-1.9c-4.5,0-6.5,1.9-6.5,4.2,0,6.3,15.1,2.5,15.1,10.9,0,3.4-2.9,6.3-9.1,6.3C353.6,30,350,28.8,348.2,27Z" style="fill: #4a4a4a"/>
    </g>
    <g>
      <path d="M164.4,50.8h1.2v3.5h-1.5V52h-6.6v2.3H156V50.8h.8c1-1.4,1.5-3.8,1.5-7.1v-.4h6.1Zm-1.6-6.3h-3a14.1,14.1,0,0,1-1.3,6.3h4.3Z" style="fill: #4a4a4a"/>
      <path d="M170.6,52.2a3.9,3.9,0,0,1-3-1.2,4.5,4.5,0,0,1-1.2-3.3,5,5,0,0,1,1.1-3.4,3.9,3.9,0,0,1,3-1.2,3.7,3.7,0,0,1,2.9,1.2,4.5,4.5,0,0,1,1.1,3.4V48H168a3.7,3.7,0,0,0,.8,2.3,2.9,2.9,0,0,0,1.8.7,2.4,2.4,0,0,0,1.5-.4,1.5,1.5,0,0,0,.7-1.2h1.6a2.8,2.8,0,0,1-1.2,2.1A4.4,4.4,0,0,1,170.6,52.2Zm2.3-5.4a3.3,3.3,0,0,0-.8-1.9,2.5,2.5,0,0,0-1.6-.6,2.1,2.1,0,0,0-1.6.6,2.9,2.9,0,0,0-.9,1.9Z" style="fill: #4a4a4a"/>
      <path d="M183.5,52h-1.9l-2.8-4.2-1,1V52h-1.5V43.3h1.5V47l3.4-3.7h1.9l-3.3,3.4Z" style="fill: #4a4a4a"/>
      <path d="M188.2,43.1a3.9,3.9,0,0,1,3,1.2,5,5,0,0,1,1.1,3.4,4.9,4.9,0,0,1-1.1,3.3,3.9,3.9,0,0,1-3,1.2,4.1,4.1,0,0,1-3-1.2,4.9,4.9,0,0,1-1.1-3.3,5,5,0,0,1,1.1-3.4A4.1,4.1,0,0,1,188.2,43.1Zm0,7.9a2.5,2.5,0,0,0,1.8-.8,3.7,3.7,0,0,0,.7-2.5,3.8,3.8,0,0,0-.7-2.6,2.4,2.4,0,0,0-3.6,0,4.5,4.5,0,0,0-.7,2.6,4.4,4.4,0,0,0,.7,2.5A2.5,2.5,0,0,0,188.2,51Z" style="fill: #4a4a4a"/>
      <path d="M195.6,44.3a3.2,3.2,0,0,1,2.5-1.2,3.1,3.1,0,0,1,2.6,1.2,5.4,5.4,0,0,1,.9,3.3,5.3,5.3,0,0,1-1,3.4,3.4,3.4,0,0,1-2.6,1.2,3.2,3.2,0,0,1-2.4-.9v4H194v-12h1.6Zm0,5.6a3,3,0,0,0,2.3,1.1,1.6,1.6,0,0,0,1.5-.9,4.2,4.2,0,0,0,.6-2.5,4.4,4.4,0,0,0-.5-2.5,1.9,1.9,0,0,0-1.6-.8,2.9,2.9,0,0,0-2.3,1.5Z" style="fill: #4a4a4a"/>
      <path d="M208.9,51.1a4.5,4.5,0,0,1-3.1,1.1,3.1,3.1,0,0,1-2.1-.7,2.2,2.2,0,0,1-.8-1.8c0-2,1.7-3.1,5.2-3.1h.8a4.5,4.5,0,0,0-.1-1.3,1.3,1.3,0,0,0-.6-.7,2.4,2.4,0,0,0-1.4-.3q-2.1,0-2.1,1.5h-1.6c.1-1.8,1.4-2.7,3.8-2.7a4,4,0,0,1,2.6.7c.6.4.9,1.3.9,2.6V52h-1.5Zm0-1.4V47.8h-1.1q-3.3,0-3.3,1.8c0,.5.1.8.5,1a1.7,1.7,0,0,0,1.3.4,2.8,2.8,0,0,0,1.5-.4A3.1,3.1,0,0,0,208.9,49.7Z" style="fill: #4a4a4a"/>
      <path d="M211.9,44.5V43.3H219v1.2h-2.8V52h-1.5V44.5Z" style="fill: #4a4a4a"/>
      <path d="M220.4,52V43.3H222v6.6l3.9-6.6h1.6V52H226V45.4L222.1,52Z" style="fill: #4a4a4a"/>
      <path d="M233.9,52h-4.1V43.3h3.5c2.2,0,3.2.8,3.2,2.3a1.9,1.9,0,0,1-1.1,1.9,2,2,0,0,1,1.5,2.1,1.9,1.9,0,0,1-.8,1.7A3.1,3.1,0,0,1,233.9,52Zm-2.5-7.5v2.4h1.8a2.8,2.8,0,0,0,1.4-.2,1.1,1.1,0,0,0,.4-1,1,1,0,0,0-.4-.9,2.8,2.8,0,0,0-1.5-.3Zm0,3.7v2.6h2c1.3,0,1.9-.4,1.9-1.3s-.7-1.3-2-1.3Z" style="fill: #4a4a4a"/>
      <path d="M238.7,52V43.3h1.6v3.6h3.9V43.3h1.6V52h-1.6V48.1h-3.9V52Z" style="fill: #4a4a4a"/>
      <path d="M249.6,46.7h2a4,4,0,0,1,2.6.7,2.2,2.2,0,0,1,1,1.9,2.2,2.2,0,0,1-1,2,4,4,0,0,1-2.6.7h-3.5V43.3h1.5Zm0,4.1h1.9q2.1,0,2.1-1.5c0-.9-.7-1.4-2.1-1.4h-1.9Zm8.2,1.2h-1.5V43.3h1.5Z" style="fill: #4a4a4a"/>
      <path d="M263.8,52.2a4.1,4.1,0,0,1-3.1-1.2,4.9,4.9,0,0,1-1.1-3.3,4.5,4.5,0,0,1,1.1-3.4,3.7,3.7,0,0,1,2.9-1.2,3.8,3.8,0,0,1,3,1.2,4.5,4.5,0,0,1,1.1,3.4V48h-6.5a3.2,3.2,0,0,0,.8,2.3,2.9,2.9,0,0,0,1.8.7,2.6,2.6,0,0,0,1.5-.4,1.9,1.9,0,0,0,.7-1.2h1.6a3.3,3.3,0,0,1-1.3,2.1A3.9,3.9,0,0,1,263.8,52.2Zm2.3-5.4a2.9,2.9,0,0,0-.9-1.9,2.1,2.1,0,0,0-1.6-.6,2.5,2.5,0,0,0-1.6.6,3.3,3.3,0,0,0-.8,1.9Z" style="fill: #4a4a4a"/>
      <path d="M285.1,52H273.9V43.3h1.6v7.5h3.2V43.3h1.6v7.5h3.3V43.3h1.5Z" style="fill: #4a4a4a"/>
      <path d="M286.6,44.5V43.3h7v1.2h-2.7V52h-1.6V44.5Z" style="fill: #4a4a4a"/>
      <path d="M295.6,54.1c.7,0,1.4-.7,1.9-2.1l-1.7-4.5-1.6-4.2h1.6l1.4,4,.9,2.8,2.4-6.8h1.6L298.8,52l-.8,1.9a3.6,3.6,0,0,1-.8,1.2,2.1,2.1,0,0,1-1.4.4h-1V54Z" style="fill: #4a4a4a"/>
      <path d="M310.7,52h-1.9L306,47.8l-1,1V52h-1.5V43.3H305V47l3.4-3.7h1.9L307,46.7Z" style="fill: #4a4a4a"/>
      <path d="M317.4,51.1a4.4,4.4,0,0,1-3,1.1,3.2,3.2,0,0,1-2.2-.7,2.5,2.5,0,0,1-.8-1.8c0-2,1.7-3.1,5.2-3.1h.8a4.5,4.5,0,0,0-.1-1.3,1.2,1.2,0,0,0-.5-.7,2.8,2.8,0,0,0-1.5-.3q-2.1,0-2.1,1.5h-1.6c.2-1.8,1.4-2.7,3.8-2.7a4,4,0,0,1,2.6.7c.6.4.9,1.3.9,2.6V52h-1.5Zm0-1.4V47.8h-1.1q-3.3,0-3.3,1.8c0,.5.1.8.5,1a1.7,1.7,0,0,0,1.3.4,2.8,2.8,0,0,0,1.5-.4A2.4,2.4,0,0,0,317.4,49.7Z" style="fill: #4a4a4a"/>
      <path d="M320.4,44.5V43.3h7.1v1.2h-2.8V52h-1.5V44.5Z" style="fill: #4a4a4a"/>
      <path d="M329.4,54.1c.8,0,1.4-.7,1.9-2.1l-1.7-4.5L328,43.3h1.7l1.3,4,1,2.8,2.3-6.8H336L332.7,52l-.8,1.9a3.8,3.8,0,0,1-.9,1.2,2,2,0,0,1-1.3.4h-1V54Z" style="fill: #4a4a4a"/>
      <path d="M338.9,44.3a3.2,3.2,0,0,1,2.5-1.2,3.1,3.1,0,0,1,2.6,1.2,5.4,5.4,0,0,1,.9,3.3,5.3,5.3,0,0,1-1,3.4,3.4,3.4,0,0,1-2.6,1.2,3.2,3.2,0,0,1-2.4-.9v4h-1.6v-12h1.6Zm0,5.6a3,3,0,0,0,2.3,1.1,1.9,1.9,0,0,0,1.6-.9,5.2,5.2,0,0,0,.5-2.5,4.4,4.4,0,0,0-.5-2.5,1.9,1.9,0,0,0-1.6-.8,2.9,2.9,0,0,0-2.3,1.5Z" style="fill: #4a4a4a"/>
      <path d="M353.9,52H352l-2.8-4.2-1,1V52h-1.5V43.3h1.5V47l3.4-3.7h1.9l-3.3,3.4Z" style="fill: #4a4a4a"/>
      <path d="M355.1,52V43.3h1.5v6.6l3.9-6.6h1.7V52h-1.6V45.4L356.7,52Z" style="fill: #4a4a4a"/>
      <path d="M366.5,52a2.9,2.9,0,0,1-.4,1.7,1.4,1.4,0,0,1-1.3.7v-.8c.6,0,.9-.5.9-1.6h-.9V50.3h1.7Z" style="fill: #4a4a4a"/>
      <path d="M164.3,72.2h-1.8l-2.8-4.3-1,1.1v3.2h-1.6V63.5h1.6v3.7l3.3-3.7h2l-3.3,3.4Z" style="fill: #4a4a4a"/>
      <path d="M167.1,64.5a3.2,3.2,0,0,1,2.5-1.2,3.1,3.1,0,0,1,2.6,1.2,5.3,5.3,0,0,1,1,3.2,5,5,0,0,1-1.1,3.4,3.2,3.2,0,0,1-2.6,1.3,3.2,3.2,0,0,1-2.4-.9v4h-1.6v-12h1.6Zm0,5.6a3.1,3.1,0,0,0,2.3,1.1,1.9,1.9,0,0,0,1.6-.9,4.5,4.5,0,0,0,.6-2.6,4.3,4.3,0,0,0-.6-2.4,1.7,1.7,0,0,0-1.6-.8,2.9,2.9,0,0,0-2.3,1.5Z" style="fill: #4a4a4a"/>
      <path d="M180.4,71.3a4.4,4.4,0,0,1-3,1.1,3.8,3.8,0,0,1-2.2-.7,2.5,2.5,0,0,1-.8-1.8c0-2.1,1.7-3.1,5.2-3.1h.8a5.3,5.3,0,0,0-.1-1.4,1.5,1.5,0,0,0-.5-.7l-1.5-.2c-1.4,0-2.1.5-2.1,1.4h-1.6c.2-1.7,1.4-2.6,3.8-2.6a4.8,4.8,0,0,1,2.6.6,3.1,3.1,0,0,1,.9,2.6v5.7h-1.5Zm0-1.4v-2h-1.1c-2.2,0-3.3.7-3.3,1.9a1,1,0,0,0,.5,1,2.2,2.2,0,0,0,1.3.4,4.2,4.2,0,0,0,1.5-.4A2.4,2.4,0,0,0,180.4,69.9Z" style="fill: #4a4a4a"/>
      <path d="M187.8,72.4a3.8,3.8,0,0,1-3-1.2,5,5,0,0,1-1.1-3.4,4.7,4.7,0,0,1,1.1-3.3,3.8,3.8,0,0,1,3-1.2,3.5,3.5,0,0,1,2.3.7,2.8,2.8,0,0,1,1.2,2.1h-1.6a1.3,1.3,0,0,0-.6-1.2,2,2,0,0,0-1.3-.4,1.9,1.9,0,0,0-1.8.8,3.7,3.7,0,0,0-.7,2.5,3.6,3.6,0,0,0,.7,2.5,2,2,0,0,0,1.8.9,2.1,2.1,0,0,0,1.3-.5,1.1,1.1,0,0,0,.6-1.1h1.6a2.5,2.5,0,0,1-1.2,2A3.6,3.6,0,0,1,187.8,72.4Z" style="fill: #4a4a4a"/>
      <path d="M199.8,72.2H198l-2.8-4.3-1,1.1v3.2h-1.6V63.5h1.6v3.7l3.3-3.7h2l-3.3,3.4Z" style="fill: #4a4a4a"/>
      <path d="M201,72.2V63.5h1.6v6.6l3.9-6.6h1.6v8.7h-1.5V65.5l-3.9,6.7Z" style="fill: #4a4a4a"/>
      <path d="M212.5,72.2a2.9,2.9,0,0,1-.5,1.7,1.3,1.3,0,0,1-1.2.6v-.8c.5,0,.8-.5.8-1.5h-.8V70.5h1.7Z" style="fill: #4a4a4a"/>
      <path d="M221.1,64.7v7.5h-1.5V63.5h5.1v1.2Z" style="fill: #4a4a4a"/>
      <path d="M227.5,64.5a3.4,3.4,0,0,1,5.2,0,5.3,5.3,0,0,1,.9,3.2,4.9,4.9,0,0,1-1,3.4,3.2,3.2,0,0,1-2.7,1.3,3.6,3.6,0,0,1-2.4-.9v4H226v-12h1.5Zm0,5.6a3.3,3.3,0,0,0,2.3,1.1,1.8,1.8,0,0,0,1.6-.9,4.5,4.5,0,0,0,.6-2.6,4.3,4.3,0,0,0-.6-2.4,1.5,1.5,0,0,0-1.5-.8,3,3,0,0,0-2.4,1.5Z" style="fill: #4a4a4a"/>
      <path d="M235.8,74.3c.8,0,1.4-.7,1.9-2.1L236,67.7l-1.6-4.2h1.7l1.3,4,1,2.8,2.3-6.8h1.7l-3.3,8.7-.8,1.9a3.1,3.1,0,0,1-.9,1.1,2.1,2.1,0,0,1-1.3.5h-1V74.1Z" style="fill: #4a4a4a"/>
      <path d="M243.7,72.2V63.5h1.6v3.6h3.9V63.5h1.6v8.7h-1.6V68.3h-3.9v3.9Z" style="fill: #4a4a4a"/>
      <path d="M252.2,64.7V63.5h7.1v1.2h-2.7v7.5H255V64.7Z" style="fill: #4a4a4a"/>
      <path d="M262.3,66.9h2a4,4,0,0,1,2.6.7,2.3,2.3,0,0,1,0,3.8,4,4,0,0,1-2.6.8h-3.5V63.5h1.5Zm0,4.1h1.9q2.1,0,2.1-1.5c0-1-.7-1.4-2.1-1.4h-1.9Zm8.2,1.2H269V63.5h1.5Z" style="fill: #4a4a4a"/>
    </g>
    <path d="M190.5,6.7h-9.1V8.9h9.1c4.8,0,7.4,2.1,7.4,5.7s-2.6,5.8-7.4,5.8h-9.1v9.4H184V22.5h6.5c6.2,0,10-3,10-7.9S196.7,6.7,190.5,6.7Z" style="fill: #4a4a4a"/>
    <polygon points="242.7 8.9 246.3 8.9 256.8 8.9 256.8 6.7 240.1 6.7 240.1 8.9 242.7 8.9" style="fill: #4a4a4a"/>
    <g>
      <polygon points="242.7 19.1 250.1 19.1 255.3 19.1 255.3 17 246.3 17 242.7 17 240.1 17 240.1 19.1 242.7 19.1" style="fill: #4a4a4a"/>
      <polygon points="250.1 27.7 242.7 27.7 240.1 27.7 240.1 29.8 257.4 29.8 257.4 27.7 250.1 27.7" style="fill: #4a4a4a"/>
    </g>
    <g>
      <path d="M71.9,80C32.3,80,0,62.1,0,40S32.3,0,71.9,0s71.9,17.9,71.9,40S111.6,80,71.9,80Zm0-76.9C34,3.1,3.1,19.6,3.1,40S34,76.9,71.9,76.9,140.7,60.4,140.7,40,109.9,3.1,71.9,3.1Z" style="fill: #52ac62"/>
      <g>
        <g>
          <path d="M56.2,25.6a15.2,15.2,0,1,1,15.2,15A15.1,15.1,0,0,1,56.2,25.6Z" style="fill: #c1d778"/>
          <path d="M56.2,25.6a15.2,15.2,0,1,1,15.2,15A15.1,15.1,0,0,1,56.2,25.6Z" style="fill: none;stroke: #52ac62;stroke-miterlimit: 3.86371;stroke-width: 0.39880000000000004px"/>
        </g>
        <g>
          <g>
            <path d="M62.8,25.7a9,9,0,1,1,9,8.9A9,9,0,0,1,62.8,25.7Z" style="fill: #fff"/>
            <path d="M62.8,25.7a9,9,0,1,1,9,8.9A9,9,0,0,1,62.8,25.7Z" style="fill: none;stroke: #52ac62;stroke-miterlimit: 3.86371;stroke-width: 0.39880000000000004px"/>
          </g>
          <g>
            <path d="M82.2,15l-6.6,2.1,1.3.7,1.4,1.1Z" style="fill: #52ac62;fill-rule: evenodd"/>
            <path d="M82.2,15l-6.6,2.1,1.3.7,1.4,1.1Z" style="fill: none;stroke: #fff;stroke-miterlimit: 3.86371;stroke-width: 0.39880000000000004px;fill-rule: evenodd"/>
          </g>
          <g>
            <path d="M82.4,15.2l-2.2,6.6a8.1,8.1,0,0,0-.7-1.4,5,5,0,0,0-1-1.2Z" style="fill: #52ac62;fill-rule: evenodd"/>
            <path d="M82.4,15.2l-2.2,6.6a8.1,8.1,0,0,0-.7-1.4,5,5,0,0,0-1-1.2Z" style="fill: none;stroke: #fff;stroke-miterlimit: 3.86371;stroke-width: 0.39880000000000004px;fill-rule: evenodd"/>
          </g>
          <g>
            <g>
              <path d="M60.9,35.7l2.5-6.3.6,1.2,1,1.3Z" style="fill: #52ac62;fill-rule: evenodd"/>
              <path d="M60.9,35.7l2.5-6.3.6,1.2,1,1.3Z" style="fill: none;stroke: #fff;stroke-miterlimit: 3.86371;stroke-width: 0.39880000000000004px;fill-rule: evenodd"/>
            </g>
            <g>
              <path d="M61.2,36l6.6-2.1a6.1,6.1,0,0,1-1.2-.7l-1.3-1Z" style="fill: #52ac62;fill-rule: evenodd"/>
              <path d="M61.2,36l6.6-2.1a6.1,6.1,0,0,1-1.2-.7l-1.3-1Z" style="fill: none;stroke: #fff;stroke-miterlimit: 3.86371;stroke-width: 0.39880000000000004px;fill-rule: evenodd"/>
            </g>
          </g>
          <g>
            <g>
              <path d="M71.6,10.9,68.5,17l1.4-.4a7.1,7.1,0,0,1,1.7-.2Z" style="fill: #52ac62;fill-rule: evenodd"/>
              <path d="M71.6,10.9,68.5,17l1.4-.4a7.1,7.1,0,0,1,1.7-.2Z" style="fill: none;stroke: #fff;stroke-miterlimit: 3.86371;stroke-width: 0.39880000000000004px;fill-rule: evenodd"/>
            </g>
            <g>
              <path d="M72,10.9,75.1,17l-1.4-.5H72Z" style="fill: #52ac62;fill-rule: evenodd"/>
              <path d="M72,10.9,75.1,17l-1.4-.5H72Z" style="fill: none;stroke: #fff;stroke-miterlimit: 3.86371;stroke-width: 0.39880000000000004px;fill-rule: evenodd"/>
            </g>
          </g>
          <g>
            <g>
              <path d="M82.3,36.1l-2-6.6s-.4.9-.7,1.4l-1.1,1.2Z" style="fill: #52ac62;fill-rule: evenodd"/>
              <path d="M82.3,36.1l-2-6.6s-.4.9-.7,1.4l-1.1,1.2Z" style="fill: none;stroke: #fff;stroke-miterlimit: 3.86371;stroke-width: 0.39880000000000004px;fill-rule: evenodd"/>
            </g>
            <g>
              <path d="M81.9,36.4l-6.4-2.3,1.3-.7a8.7,8.7,0,0,0,1.4-1Z" style="fill: #52ac62;fill-rule: evenodd"/>
              <path d="M81.9,36.4l-6.4-2.3,1.3-.7a8.7,8.7,0,0,0,1.4-1Z" style="fill: none;stroke: #fff;stroke-miterlimit: 3.86371;stroke-width: 0.39880000000000004px;fill-rule: evenodd"/>
            </g>
          </g>
          <g>
            <g>
              <path d="M61.3,14.9l6.5,2.3-1.3.7-1.2,1Z" style="fill: #52ac62;fill-rule: evenodd"/>
              <path d="M61.3,14.9l6.5,2.3-1.3.7-1.2,1Z" style="fill: none;stroke: #fff;stroke-miterlimit: 3.86371;stroke-width: 0.39880000000000004px;fill-rule: evenodd"/>
            </g>
            <g>
              <path d="M61,15.2l2.3,6.5.7-1.2,1-1.3Z" style="fill: #52ac62;fill-rule: evenodd"/>
              <path d="M61,15.2l2.3,6.5.7-1.2,1-1.3Z" style="fill: none;stroke: #fff;stroke-miterlimit: 3.86371;stroke-width: 0.39880000000000004px;fill-rule: evenodd"/>
            </g>
          </g>
          <g>
            <polygon points="62.6 24.9 62.6 24.9 62.6 25 62.6 25 62.6 24.9 62.6 24.9" style="fill: #fff68c"/>
            <polygon points="62.6 24.9 62.6 24.9 62.6 25 62.6 25 62.6 24.9 62.6 24.9" style="fill: none;stroke: #fff343;stroke-miterlimit: 3.86371;stroke-width: 0.09970000000000001px"/>
          </g>
          <g>
            <line x1="72.2" y1="13.1" x2="72.4" y2="13.1" style="fill: none"/>
            <line x1="72.2" y1="13.1" x2="72.4" y2="13.1" style="fill: none;stroke: #d24a43;stroke-miterlimit: 3.86371;stroke-width: 0.09970000000000001px"/>
          </g>
          <path d="M66.7,27.5H65.2c0,1.4-.1,2.9.5,3.7a3.5,3.5,0,0,0,2.4.5H72a16.9,16.9,0,0,0,3.2,0c3.3,0,3.3-.3,3.4-3.7.1-1.5-.2-2.6-1.1-3a4.7,4.7,0,0,0-2.4-.5H69.7c-.4,0-.7-.5-.7-1a1,1,0,0,1,.7-1h4.5c.8.1,1.1,0,1.2,1.4h3.1V21.7a2.2,2.2,0,0,0-.6-1.3c-.7-.9-.6-.6-2.7-.7H68.3c-1,0-2-.3-2.7.5s-.4.4-.5,1.9a28,28,0,0,1,0,2.9,1.9,1.9,0,0,0,1,1.3,6.8,6.8,0,0,0,3.2.5h4.3c.5.1,1.1.5,1.1,1.1s-.6.9-1.1,1h-4c-.7-.3-1.2-.2-1.3-1.4Z" style="fill: #52ac62;fill-rule: evenodd"/>
          <g>
            <g>
              <path d="M86.6,25.4l-6.3-3.1a6.4,6.4,0,0,1,.4,1.4,15,15,0,0,1,.3,1.7Z" style="fill: #52ac62;fill-rule: evenodd"/>
              <path d="M86.6,25.4l-6.3-3.1a6.4,6.4,0,0,1,.4,1.4,15,15,0,0,1,.3,1.7Z" style="fill: none;stroke: #fff;stroke-miterlimit: 3.86371;stroke-width: 0.39880000000000004px;fill-rule: evenodd"/>
            </g>
            <g>
              <path d="M86.6,25.8l-6.3,3.1a6.4,6.4,0,0,0,.4-1.4,6.9,6.9,0,0,0,.2-1.6Z" style="fill: #52ac62;fill-rule: evenodd"/>
              <path d="M86.6,25.8l-6.3,3.1a6.4,6.4,0,0,0,.4-1.4,6.9,6.9,0,0,0,.2-1.6Z" style="fill: none;stroke: #fff;stroke-miterlimit: 3.86371;stroke-width: 0.39880000000000004px;fill-rule: evenodd"/>
            </g>
          </g>
          <g>
            <g>
              <path d="M56.7,25.3l6.2-3.1a6.4,6.4,0,0,0-.4,1.4,7.6,7.6,0,0,0-.2,1.7Z" style="fill: #52ac62;fill-rule: evenodd"/>
              <path d="M56.7,25.3l6.2-3.1a6.4,6.4,0,0,0-.4,1.4,7.6,7.6,0,0,0-.2,1.7Z" style="fill: none;stroke: #fff;stroke-miterlimit: 3.86371;stroke-width: 0.39880000000000004px;fill-rule: evenodd"/>
            </g>
            <g>
              <path d="M56.7,25.7l6.2,3.2a6.3,6.3,0,0,1-.4-1.5,7.6,7.6,0,0,1-.2-1.7Z" style="fill: #52ac62;fill-rule: evenodd"/>
              <path d="M56.7,25.7l6.2,3.2a6.3,6.3,0,0,1-.4-1.5,7.6,7.6,0,0,1-.2-1.7Z" style="fill: none;stroke: #fff;stroke-miterlimit: 3.86371;stroke-width: 0.39880000000000004px;fill-rule: evenodd"/>
            </g>
          </g>
          <g>
            <g>
              <path d="M71.4,40.4l-3-6.1a6.4,6.4,0,0,0,1.4.4l1.6.2Z" style="fill: #52ac62;fill-rule: evenodd"/>
              <path d="M71.4,40.4l-3-6.1a6.4,6.4,0,0,0,1.4.4l1.6.2Z" style="fill: none;stroke: #fff;stroke-miterlimit: 3.86371;stroke-width: 0.39880000000000004px;fill-rule: evenodd"/>
            </g>
            <g>
              <path d="M71.9,40.4l3-6.1-1.4.4-1.6.2Z" style="fill: #52ac62;fill-rule: evenodd"/>
              <path d="M71.9,40.4l3-6.1-1.4.4-1.6.2Z" style="fill: none;stroke: #fff;stroke-miterlimit: 3.86371;stroke-width: 0.39880000000000004px;fill-rule: evenodd"/>
            </g>
          </g>
        </g>
        <g>
          <g>
            <path d="M41.1,58.7a3.2,3.2,0,0,0-3-2.5,3.7,3.7,0,0,0-3.7,3.9,3.8,3.8,0,0,0,3.7,4,3.1,3.1,0,0,0,3.1-2.8H39.9c-.3,1.1-.8,1.7-1.8,1.7a2.6,2.6,0,0,1-2.4-2.9A2.5,2.5,0,0,1,38,57.3a1.7,1.7,0,0,1,1.7,1.4Z" style="fill: #91785f;fill-rule: evenodd"/>
            <path d="M47.9,60.1c0,1.8-1.1,2.9-2.4,2.9s-2.4-1.1-2.4-2.9a2.4,2.4,0,1,1,4.8,0Zm1.3,0a3.7,3.7,0,0,0-3.7-3.9,3.8,3.8,0,0,0-3.8,3.9,3.8,3.8,0,0,0,3.8,4A3.8,3.8,0,0,0,49.2,60.1Z" style="fill: #91785f;fill-rule: evenodd"/>
            <polygon points="51.6 56.4 50.3 56.4 50.3 63.9 54.9 63.9 54.9 62.8 51.6 62.8 51.6 56.4" style="fill: #91785f;fill-rule: evenodd"/>
            <path d="M61.5,60.1c0,1.8-1,2.9-2.4,2.9s-2.3-1.1-2.3-2.9,1-2.8,2.3-2.8S61.5,58.4,61.5,60.1Zm1.4,0a3.8,3.8,0,1,0-7.5,0,3.8,3.8,0,1,0,7.5,0Z" style="fill: #91785f;fill-rule: evenodd"/>
            <path d="M65.2,63.9V60.8h1.3c1.1,0,1.2,0,1.2,1.1v1a2.2,2.2,0,0,0,.2,1h1.6a1.4,1.4,0,0,1-.4-1.1V61.7c0-1-.4-1.5-1.4-1.5h0a1.5,1.5,0,0,0,1.5-1.7,1.9,1.9,0,0,0-2.1-2H63.9v7.5Zm0-6.3h1.6a1,1,0,0,1,1.1,1c0,.6-.5,1-1.4,1H65.2Z" style="fill: #91785f;fill-rule: evenodd"/>
            <rect x="70.4" y="56.4" width="1.3" height="7.47" style="fill: #91785f"/>
            <polygon points="73.1 63.9 74.4 63.9 74.4 60.5 77.3 60.5 77.3 59.4 74.4 59.4 74.4 57.5 77.7 57.5 77.7 56.4 73.1 56.4 73.1 63.9" style="fill: #91785f;fill-rule: evenodd"/>
            <rect x="78.5" y="56.4" width="1.3" height="7.47" style="fill: #91785f"/>
            <path d="M87.6,58.7a3.2,3.2,0,0,0-3-2.5,3.7,3.7,0,0,0-3.7,3.9,3.8,3.8,0,0,0,3.7,4,3.1,3.1,0,0,0,3.1-2.8H86.4c-.3,1.1-.8,1.7-1.8,1.7a2.6,2.6,0,0,1-2.4-2.9,2.5,2.5,0,0,1,2.3-2.8,1.9,1.9,0,0,1,1.8,1.4Z" style="fill: #91785f;fill-rule: evenodd"/>
            <rect x="88.7" y="56.4" width="1.3" height="7.47" style="fill: #91785f"/>
            <path d="M97.1,60.1c0,1.8-1,2.9-2.3,2.9s-2.4-1.1-2.4-2.9,1-2.8,2.4-2.8S97.1,58.4,97.1,60.1Zm1.4,0a3.7,3.7,0,0,0-3.7-3.9A3.8,3.8,0,0,0,91,60.1a3.8,3.8,0,0,0,3.8,4A3.8,3.8,0,0,0,98.5,60.1Z" style="fill: #91785f;fill-rule: evenodd"/>
          </g>
          <g>
            <g>
              <path d="M32.1,40h-.3v.4a1.5,1.5,0,0,1,.3.7,2.8,2.8,0,0,0,.6.8,1.3,1.3,0,0,0,1,.4l1.6.2h1.5l.8.2h1l.5.3h-.3a6.5,6.5,0,0,0-1.8.5,5.5,5.5,0,0,0-1.1,1,8.1,8.1,0,0,0-.6,1.3c-.3.5-.4.9-.6,1.2l-1.9.3c-.1,0-.1.1-.1.3a3.2,3.2,0,0,1,1.2,1.1,4.3,4.3,0,0,1,.3,1.7v1.2c0,.3-.1.6-.1,1a2.1,2.1,0,0,0,.3,1.2h.6l1.2-.2,1.2-.3.7-.4v-.2c0-.2-.1-.3-.4-.4a.6.6,0,0,1-.2-.5,2.3,2.3,0,0,1,.3-.9,2,2,0,0,0,.3-.8l.3-.2H42l2-.2,2.2-.4,2.7-.5,1.3-.4,1.2-.4,1-.5a1.2,1.2,0,0,0,.5-1.1,4.4,4.4,0,0,0-.7-1.9,19.7,19.7,0,0,0-3.3-2.8,10,10,0,0,0-2.7-1.1,31.3,31.3,0,0,0-4-.6A92.9,92.9,0,0,0,32.1,40Zm8.5,3.5a28.2,28.2,0,0,1,4,.9l.7.2.7.3.4.3a3.3,3.3,0,0,1-1.2.5l-2,.5-1.5.3-1.9.3c-.3,0-.5-.1-.5-.2a7.3,7.3,0,0,1,.4-1.6,13.1,13.1,0,0,1,.5-1.5Z" style="fill: #52ac62;fill-rule: evenodd"/>
              <path d="M32.1,40h-.3v.4a1.5,1.5,0,0,1,.3.7,2.8,2.8,0,0,0,.6.8,1.3,1.3,0,0,0,1,.4l1.6.2h1.5l.8.2h1l.5.3h-.3a6.5,6.5,0,0,0-1.8.5,5.5,5.5,0,0,0-1.1,1,8.1,8.1,0,0,0-.6,1.3c-.3.5-.4.9-.6,1.2l-1.9.3c-.1,0-.1.1-.1.3a3.2,3.2,0,0,1,1.2,1.1,4.3,4.3,0,0,1,.3,1.7v1.2c0,.3-.1.6-.1,1a2.1,2.1,0,0,0,.3,1.2h.6l1.2-.2,1.2-.3.7-.4v-.2c0-.2-.1-.3-.4-.4a.6.6,0,0,1-.2-.5,2.3,2.3,0,0,1,.3-.9,2,2,0,0,0,.3-.8l.3-.2H42l2-.2,2.2-.4,2.7-.5,1.3-.4,1.2-.4,1-.5a1.2,1.2,0,0,0,.5-1.1,4.4,4.4,0,0,0-.7-1.9,19.7,19.7,0,0,0-3.3-2.8,10,10,0,0,0-2.7-1.1,31.3,31.3,0,0,0-4-.6A92.9,92.9,0,0,0,32.1,40Zm8.5,3.5a28.2,28.2,0,0,1,4,.9l.7.2.7.3.4.3a3.3,3.3,0,0,1-1.2.5l-2,.5-1.5.3-1.9.3c-.3,0-.5-.1-.5-.2a7.3,7.3,0,0,1,.4-1.6,13.1,13.1,0,0,1,.5-1.5Z" style="fill: none;stroke: #fff;stroke-miterlimit: 3.86371;stroke-width: 0.8524px;fill-rule: evenodd"/>
            </g>
            <g>
              <path d="M79.1,39.8h0l-2,1.5L75.3,43l-1.8,1.7a9.2,9.2,0,0,1-1.4,1.4,4.6,4.6,0,0,0-.7.7,2.4,2.4,0,0,0-.9.8l-.9.6-.4.2a.1.1,0,0,0-.1-.1H69a7.6,7.6,0,0,1-.8-1.1,8.5,8.5,0,0,1-.9-1.4l-.6-1.2a12.1,12.1,0,0,1-1-2,10.4,10.4,0,0,0-1-1.9.1.1,0,0,1-.1-.1H63.5a2.3,2.3,0,0,0-1.1.5,3.6,3.6,0,0,0-.4.9v.2c0,.2-.1.3-.1.4v.5l.6.2h.1v.2a5.5,5.5,0,0,0,.3,1.7,16.5,16.5,0,0,0,.9,2.1c.4.8.6,1.5.9,2.1a5.7,5.7,0,0,1,.3,1.8,2.2,2.2,0,0,1-.1.9h0a.7.7,0,0,0,.4.3l.5.3.6.4.9.4.7.3.9.3h.9a36.3,36.3,0,0,0,3.5-2,23.6,23.6,0,0,0,3.1-2l2.5-2a11.2,11.2,0,0,0,1.8-2.1,3.6,3.6,0,0,0,.7-2.2,4.9,4.9,0,0,0-.1-1.2c0-.1.1-.2.3-.5a2.5,2.5,0,0,0,.2-.7,5.7,5.7,0,0,0-2.5-1.7Z" style="fill: #52ac62;fill-rule: evenodd"/>
              <path d="M79.1,39.8h0l-2,1.5L75.3,43l-1.8,1.7a9.2,9.2,0,0,1-1.4,1.4,4.6,4.6,0,0,0-.7.7,2.4,2.4,0,0,0-.9.8l-.9.6-.4.2a.1.1,0,0,0-.1-.1H69a7.6,7.6,0,0,1-.8-1.1,8.5,8.5,0,0,1-.9-1.4l-.6-1.2a12.1,12.1,0,0,1-1-2,10.4,10.4,0,0,0-1-1.9.1.1,0,0,1-.1-.1H63.5a2.3,2.3,0,0,0-1.1.5,3.6,3.6,0,0,0-.4.9v.2c0,.2-.1.3-.1.4v.5l.6.2h.1v.2a5.5,5.5,0,0,0,.3,1.7,16.5,16.5,0,0,0,.9,2.1c.4.8.6,1.5.9,2.1a5.7,5.7,0,0,1,.3,1.8,2.2,2.2,0,0,1-.1.9h0a.7.7,0,0,0,.4.3l.5.3.6.4.9.4.7.3.9.3h.9a36.3,36.3,0,0,0,3.5-2,23.6,23.6,0,0,0,3.1-2l2.5-2a11.2,11.2,0,0,0,1.8-2.1,3.6,3.6,0,0,0,.7-2.2,4.9,4.9,0,0,0-.1-1.2c0-.1.1-.2.3-.5a2.5,2.5,0,0,0,.2-.7,5.7,5.7,0,0,0-2.5-1.7Z" style="fill: none;stroke: #fff;stroke-miterlimit: 3.86371;stroke-width: 0.8524px;fill-rule: evenodd"/>
            </g>
            <g>
              <path d="M94.3,40a45.3,45.3,0,0,0-8,.9h-.4l-.5.2-.6.6c-.1,0-.2.1-.2.3a11.6,11.6,0,0,0-2.1,3.7c0,.2-.2,1-.4,2.2a13,13,0,0,0-.4,2.8,7.4,7.4,0,0,0,.5,2.5l.5.2h.9l1.8.7a4.5,4.5,0,0,0,1.8.3,19.6,19.6,0,0,0,4.1-.4A16.7,16.7,0,0,0,95,53l1.4-1.1c.6-.5,1-.7,1-.8H97l-3.6.9a19.5,19.5,0,0,1-3.4.3H88.8a2.5,2.5,0,0,1-1.8-.8h0c-.1-.1-.1-.1-.1-.2H87l1.9-.8,3.2-.8,2.2-.5,2.2-.4,2-.4c.4-.5.6-.8.6-1s0-.2-.1-.2l-2.2-.5H89.3a.1.1,0,0,0-.1-.1h0a.8.8,0,0,1,.2-.4l.7-.6.6-.6.3-.3.5-.3a.5.5,0,0,1,.4-.2l1.7-.3,1.7-.2H97l2.1-.2a1,1,0,0,0,.7-.4,6.2,6.2,0,0,0,.9-1.2,1.3,1.3,0,0,0-.1-.6c0-.2-.2-.4-.5-.5Z" style="fill: #52ac62;fill-rule: evenodd"/>
              <path d="M94.3,40a45.3,45.3,0,0,0-8,.9h-.4l-.5.2-.6.6c-.1,0-.2.1-.2.3a11.6,11.6,0,0,0-2.1,3.7c0,.2-.2,1-.4,2.2a13,13,0,0,0-.4,2.8,7.4,7.4,0,0,0,.5,2.5l.5.2h.9l1.8.7a4.5,4.5,0,0,0,1.8.3,19.6,19.6,0,0,0,4.1-.4A16.7,16.7,0,0,0,95,53l1.4-1.1c.6-.5,1-.7,1-.8H97l-3.6.9a19.5,19.5,0,0,1-3.4.3H88.8a2.5,2.5,0,0,1-1.8-.8h0c-.1-.1-.1-.1-.1-.2H87l1.9-.8,3.2-.8,2.2-.5,2.2-.4,2-.4c.4-.5.6-.8.6-1s0-.2-.1-.2l-2.2-.5H89.3a.1.1,0,0,0-.1-.1h0a.8.8,0,0,1,.2-.4l.7-.6.6-.6.3-.3.5-.3a.5.5,0,0,1,.4-.2l1.7-.3,1.7-.2H97l2.1-.2a1,1,0,0,0,.7-.4,6.2,6.2,0,0,0,.9-1.2,1.3,1.3,0,0,0-.1-.6c0-.2-.2-.4-.5-.5Z" style="fill: none;stroke: #fff;stroke-miterlimit: 3.86371;stroke-width: 0.8524px;fill-rule: evenodd"/>
            </g>
            <g>
              <path d="M106.1,32.3l-1.5.6-1.5.4-1.3.4a3.4,3.4,0,0,0-1.2.9,7.8,7.8,0,0,0-.2,1.4,1.5,1.5,0,0,0,.1.7l.2.2,1.1.4a.9.9,0,0,1,.4.6v.3a2,2,0,0,1-.1.7,3.5,3.5,0,0,1-.1.6c0,.1-.1.7-.2,1.7s-.2,1.6-.3,1.8c-.3,2.3-.5,4.7-.7,7.1s-.2,4.6-.2,6.7,0,2.8.1,4.9a1.5,1.5,0,0,0,.4.8l.6.7a1.5,1.5,0,0,1,.6.4l1.1.5h.5l.9-5.7.5-.3.4.4.4.5,2.1,1.5a18.8,18.8,0,0,0,2.4,1.8,9,9,0,0,0,2.4,1.2,8.6,8.6,0,0,0,2.5.7,6.9,6.9,0,0,1,1.1-1.3l1.5-1.2a4,4,0,0,0,1.4-1.1h0a1.5,1.5,0,0,0-.2-.9,29.6,29.6,0,0,1-3.8-2,26.9,26.9,0,0,1-2.7-2,27.3,27.3,0,0,1-2.5-2.3c-.8-.9-1.7-1.9-2.5-3l-.2-.4-.2-.6h.1v-.2l2.1-.5,2.6-.2h2.2l2-.5,1.9-.3a4.2,4.2,0,0,0,1.2-.8,3.3,3.3,0,0,0,.3-1.5,3.1,3.1,0,0,0-.1-1,4.1,4.1,0,0,0-.1-1.1c0-.4,0-.7-.1-.8a16.4,16.4,0,0,0-.4-2.5,13,13,0,0,0-.4-2.1,3.4,3.4,0,0,0-1-1.3,15.4,15.4,0,0,0-5.1-2.6A37.3,37.3,0,0,0,106.1,32.3Zm1.7,7.9a15.2,15.2,0,0,1,6.1,1.5l.6.4.7.6.2.4a.5.5,0,0,1-.3.5l-.5.4a23.2,23.2,0,0,1-6.2,2.3h-.7l-.7.2-.5-.3V46a.6.6,0,0,1-.1-.4c0-.4.1-.9.1-1.4s.2-1,.4-1.7a13.7,13.7,0,0,0,.2-1.6C107.3,40.4,107.6,40.2,107.8,40.2Z" style="fill: #52ac62;fill-rule: evenodd"/>
              <path d="M106.1,32.3l-1.5.6-1.5.4-1.3.4a3.4,3.4,0,0,0-1.2.9,7.8,7.8,0,0,0-.2,1.4,1.5,1.5,0,0,0,.1.7l.2.2,1.1.4a.9.9,0,0,1,.4.6v.3a2,2,0,0,1-.1.7,3.5,3.5,0,0,1-.1.6c0,.1-.1.7-.2,1.7s-.2,1.6-.3,1.8c-.3,2.3-.5,4.7-.7,7.1s-.2,4.6-.2,6.7,0,2.8.1,4.9a1.5,1.5,0,0,0,.4.8l.6.7a1.5,1.5,0,0,1,.6.4l1.1.5h.5l.9-5.7.5-.3.4.4.4.5,2.1,1.5a18.8,18.8,0,0,0,2.4,1.8,9,9,0,0,0,2.4,1.2,8.6,8.6,0,0,0,2.5.7,6.9,6.9,0,0,1,1.1-1.3l1.5-1.2a4,4,0,0,0,1.4-1.1h0a1.5,1.5,0,0,0-.2-.9,29.6,29.6,0,0,1-3.8-2,26.9,26.9,0,0,1-2.7-2,27.3,27.3,0,0,1-2.5-2.3c-.8-.9-1.7-1.9-2.5-3l-.2-.4-.2-.6h.1v-.2l2.1-.5,2.6-.2h2.2l2-.5,1.9-.3a4.2,4.2,0,0,0,1.2-.8,3.3,3.3,0,0,0,.3-1.5,3.1,3.1,0,0,0-.1-1,4.1,4.1,0,0,0-.1-1.1c0-.4,0-.7-.1-.8a16.4,16.4,0,0,0-.4-2.5,13,13,0,0,0-.4-2.1,3.4,3.4,0,0,0-1-1.3,15.4,15.4,0,0,0-5.1-2.6A37.3,37.3,0,0,0,106.1,32.3Zm1.7,7.9a15.2,15.2,0,0,1,6.1,1.5l.6.4.7.6.2.4a.5.5,0,0,1-.3.5l-.5.4a23.2,23.2,0,0,1-6.2,2.3h-.7l-.7.2-.5-.3V46a.6.6,0,0,1-.1-.4c0-.4.1-.9.1-1.4s.2-1,.4-1.7a13.7,13.7,0,0,0,.2-1.6C107.3,40.4,107.6,40.2,107.8,40.2Z" style="fill: none;stroke: #fff;stroke-miterlimit: 3.86371;stroke-width: 0.8524px;fill-rule: evenodd"/>
            </g>
            <g>
              <path d="M30.1,31.9l-3.1.9-2.9,1.5-2.4,1.9-2.3,2-2.1,3a8.3,8.3,0,0,0-1.1,2.9,14.9,14.9,0,0,0-.5,3.5,7.7,7.7,0,0,0,.5,2.9,4.9,4.9,0,0,0,1.5,2.4,8.7,8.7,0,0,0,2.5,1.5l2.9,1.2a13.3,13.3,0,0,1,2.4,1.2,1.3,1.3,0,0,1-.1.6,13.8,13.8,0,0,1-2.9,2.2A9.5,9.5,0,0,1,17,61.3a.1.1,0,0,0-.1.1c-.1,0-.1,0-.1.1l.8,1a6.6,6.6,0,0,0,4.4,2l1.6-.2L29.2,62a10.2,10.2,0,0,0,3.5-3.1,8.1,8.1,0,0,0-.1-1.7,5,5,0,0,0-1.4-2.9,8.8,8.8,0,0,0-2.8-1.7l-3.2-1.3a7.2,7.2,0,0,1-2.5-1.7,5,5,0,0,1-.2-1.2,5,5,0,0,1,.9-2.3A9.3,9.3,0,0,1,25,44.3l2.2-1.7,1.3-.6,1.5-.7a2,2,0,0,1,1.1-.3h.6l.8,3.4h.8q.2-.7.3-1.8l.3-1.8c0-.6.1-1.2.1-1.8a11.1,11.1,0,0,0-.4-2.8,2.9,2.9,0,0,1-1.3-1.4c-.3-.7-.7-1.5-1.1-2.6Z" style="fill: #52ac62;fill-rule: evenodd"/>
              <path d="M30.1,31.9l-3.1.9-2.9,1.5-2.4,1.9-2.3,2-2.1,3a8.3,8.3,0,0,0-1.1,2.9,14.9,14.9,0,0,0-.5,3.5,7.7,7.7,0,0,0,.5,2.9,4.9,4.9,0,0,0,1.5,2.4,8.7,8.7,0,0,0,2.5,1.5l2.9,1.2a13.3,13.3,0,0,1,2.4,1.2,1.3,1.3,0,0,1-.1.6,13.8,13.8,0,0,1-2.9,2.2A9.5,9.5,0,0,1,17,61.3a.1.1,0,0,0-.1.1c-.1,0-.1,0-.1.1l.8,1a6.6,6.6,0,0,0,4.4,2l1.6-.2L29.2,62a10.2,10.2,0,0,0,3.5-3.1,8.1,8.1,0,0,0-.1-1.7,5,5,0,0,0-1.4-2.9,8.8,8.8,0,0,0-2.8-1.7l-3.2-1.3a7.2,7.2,0,0,1-2.5-1.7,5,5,0,0,1-.2-1.2,5,5,0,0,1,.9-2.3A9.3,9.3,0,0,1,25,44.3l2.2-1.7,1.3-.6,1.5-.7a2,2,0,0,1,1.1-.3h.6l.8,3.4h.8q.2-.7.3-1.8l.3-1.8c0-.6.1-1.2.1-1.8a11.1,11.1,0,0,0-.4-2.8,2.9,2.9,0,0,1-1.3-1.4c-.3-.7-.7-1.5-1.1-2.6Z" style="fill: none;stroke: #fff;stroke-miterlimit: 3.86371;stroke-width: 1.2836px;fill-rule: evenodd"/>
            </g>
            <g>
              <path d="M55.8,40h-.1a1.8,1.8,0,0,0-.7.5l-.6.7-.5.7a2.7,2.7,0,0,0-.6.9l-.4.4-.3.5a1.6,1.6,0,0,0-.4.9,2,2,0,0,0,.7,1.1,2,2,0,0,1,.4,1.4,3.8,3.8,0,0,1-.1,1,10.9,10.9,0,0,0-.5,1.4,5.1,5.1,0,0,0-.4,1.1,2.9,2.9,0,0,0-.2.9h0a1.8,1.8,0,0,0,.2.9,2.8,2.8,0,0,0,.7.9,3.9,3.9,0,0,0,1.1.6l1.6.3h.5a19.7,19.7,0,0,1,1-1.9c.6-1.2,1.2-2.2,1.7-3.1s.9-1.9,1.4-2.8,1-2,1.7-3.2v-.3a1.4,1.4,0,0,0-.5-.9,5.6,5.6,0,0,0-1.4-.9l-1.2-.9-.5-.2-.5-.2Z" style="fill: #52ac62;fill-rule: evenodd"/>
              <path d="M55.8,40h-.1a1.8,1.8,0,0,0-.7.5l-.6.7-.5.7a2.7,2.7,0,0,0-.6.9l-.4.4-.3.5a1.6,1.6,0,0,0-.4.9,2,2,0,0,0,.7,1.1,2,2,0,0,1,.4,1.4,3.8,3.8,0,0,1-.1,1,10.9,10.9,0,0,0-.5,1.4,5.1,5.1,0,0,0-.4,1.1,2.9,2.9,0,0,0-.2.9h0a1.8,1.8,0,0,0,.2.9,2.8,2.8,0,0,0,.7.9,3.9,3.9,0,0,0,1.1.6l1.6.3h.5a19.7,19.7,0,0,1,1-1.9c.6-1.2,1.2-2.2,1.7-3.1s.9-1.9,1.4-2.8,1-2,1.7-3.2v-.3a1.4,1.4,0,0,0-.5-.9,5.6,5.6,0,0,0-1.4-.9l-1.2-.9-.5-.2-.5-.2Z" style="fill: none;stroke: #fff;stroke-miterlimit: 3.86371;stroke-width: 0.8524px;fill-rule: evenodd"/>
            </g>
          </g>
        </g>
        <g>
          <g>
            <g>
              <line x1="12" y1="25.7" x2="53.6" y2="25.7" style="fill: none"/>
              <line x1="12" y1="25.7" x2="53.6" y2="25.7" style="fill: none;stroke: #91785f;stroke-miterlimit: 3.86371;stroke-width: 1.5952000000000002px"/>
            </g>
            <g>
              <line x1="12" y1="28.4" x2="54.7" y2="28.4" style="fill: none"/>
              <line x1="12" y1="28.4" x2="54.7" y2="28.4" style="fill: none;stroke: #91785f;stroke-miterlimit: 3.86371;stroke-width: 1.5952000000000002px"/>
            </g>
            <g>
              <line x1="12" y1="23.1" x2="54.7" y2="23.1" style="fill: none"/>
              <line x1="12" y1="23.1" x2="54.7" y2="23.1" style="fill: none;stroke: #91785f;stroke-miterlimit: 3.86371;stroke-width: 1.5952000000000002px"/>
            </g>
          </g>
          <g>
            <g>
              <line x1="131.5" y1="25.7" x2="89.8" y2="25.7" style="fill: none"/>
              <line x1="131.5" y1="25.7" x2="89.8" y2="25.7" style="fill: none;stroke: #91785f;stroke-miterlimit: 3.86371;stroke-width: 1.5952000000000002px"/>
            </g>
            <g>
              <line x1="131.5" y1="28.4" x2="88.8" y2="28.4" style="fill: none"/>
              <line x1="131.5" y1="28.4" x2="88.8" y2="28.4" style="fill: none;stroke: #91785f;stroke-miterlimit: 3.86371;stroke-width: 1.5952000000000002px"/>
            </g>
            <g>
              <line x1="131.5" y1="23.1" x2="88.8" y2="23.1" style="fill: none"/>
              <line x1="131.5" y1="23.1" x2="88.8" y2="23.1" style="fill: none;stroke: #91785f;stroke-miterlimit: 3.86371;stroke-width: 1.5952000000000002px"/>
            </g>
          </g>
        </g>
      </g>
    </g>
    <path d="M135.7,12.4a3,3,0,1,1-2.9-2.8A2.8,2.8,0,0,1,135.7,12.4Zm-5.2,0a2.2,2.2,0,0,0,2.3,2.2,2.1,2.1,0,0,0,2.1-2.2,2.2,2.2,0,0,0-2.2-2.3A2.2,2.2,0,0,0,130.5,12.4Zm1.8,1.5h-.7V11h1.1c.6,0,.8.1,1,.3a.6.6,0,0,1,.3.6c0,.3-.3.5-.6.6h0c.3.1.4.3.5.7a4.1,4.1,0,0,1,.2.7h-.7a6.4,6.4,0,0,1-.2-.7c0-.3-.2-.5-.6-.5h-.3Zm0-1.6h.3c.4,0,.7-.2.7-.5s-.2-.4-.6-.4h-.4Z" style="fill: #52ac62"/>
  </g>
</svg>
