<svg xmlns="http://www.w3.org/2000/svg" viewBox="0 0 245.7 136.8">
  <title>logo-new</title>
  <g>
    <path d="M227.7,24.3a3.7,3.7,0,0,0,3.8-3.9,3.8,3.8,0,0,0-3.8-3.9,3.9,3.9,0,0,0,0,7.8ZM225.8,18h1.9a2.5,2.5,0,0,1,1.7.4,1.1,1.1,0,0,1,.5,1,1.4,1.4,0,0,1-1,1.2h0a1.5,1.5,0,0,1,.8,1.2,3.5,3.5,0,0,0,.4,1.2h-1.2c-.2-.1-.3-.6-.4-1.2s-.4-.7-1-.7h-.6v1.9h-1.1Z" style="fill: none"/>
    <path d="M228.6,19.5c0-.5-.3-.8-1-.8H227v1.4h.5C228.1,20.2,228.6,20,228.6,19.5Z" style="fill: none"/>
    <path d="M77.3,98.4c-2.3,0-4.1,1.9-4.1,5s1.8,4.9,4.1,4.9,4.1-1.9,4.1-4.9S79.6,98.4,77.3,98.4Z" style="fill: #fff"/>
    <path d="M162.2,98.4c-2.2,0-4.1,1.9-4.1,5s1.9,4.9,4.1,4.9,4.1-1.9,4.1-4.9S164.5,98.4,162.2,98.4Z" style="fill: #fff"/>
    <path d="M70.8,79.2l2.4-.5,3.5-.8a4.6,4.6,0,0,0,1.4-.5c0-.1-.1-.1-.2-.1a1.9,1.9,0,0,0-.9-.4h-.2l-.9-.3h-.2c-2.9-.8-5.3-1.3-6.9-1.6h-.2a6.9,6.9,0,0,0-.8,2.3h-.1c-.1.3-.1.6-.2.8s-.4,1.2-.5,1.7h.5Z" style="fill: #fff"/>
    <path d="M100.8,98.4c-2.2,0-4.1,1.9-4.1,5s1.9,4.9,4.1,4.9,4.1-1.9,4.1-4.9S103.1,98.4,100.8,98.4Z" style="fill: #fff"/>
    <path d="M114,98.9h-2.8v3.6h2.4c1.5,0,2.3-.7,2.3-1.8A1.7,1.7,0,0,0,114,98.9Z" style="fill: #fff"/>
    <path d="M196,72.4l-1-.7a27,27,0,0,0-10.3-2.6c-.1,0-.4.2-.7,1a6.4,6.4,0,0,0-.2.9q-.2.8-.3,1.8l-.2.9a11.2,11.2,0,0,1-.4,2.1,19.3,19.3,0,0,0-.1,2.4v.4h0v.4l.5.3a2.7,2.7,0,0,0,1.1-.3l1.4-.2A42.5,42.5,0,0,0,196.2,75l.9-.7.2-.4-.3-.7A4.9,4.9,0,0,0,196,72.4Z" style="fill: #fff"/>
    <path d="M122.8,3.1C56.8,3.1,3.1,32.4,3.1,68.4s53.7,65.2,119.7,65.2,119.8-29.2,119.8-65.2S188.9,3.1,122.8,3.1Zm-.9,14a26.2,26.2,0,0,1,18.5,7.6h.2l.2.3h.1l.3.2h0a26.1,26.1,0,0,1,6.9,17.3h.1V44h-.1a25.7,25.7,0,0,1-7.2,17.4h-.2l-.5.5v.2H140a26.2,26.2,0,1,1-18.1-45.2ZM19.5,38.3H93.1v1.6H19.5Zm0,4.4H91.3v1.6H19.5Zm0,4.8H93.1v1.6H19.5Zm45,62.7c-3.6,0-6.4-2.8-6.4-6.8s2.8-6.9,6.4-6.9a5.3,5.3,0,0,1,5.2,4.4H67.4a3,3,0,0,0-3-2.5c-1.9,0-3.9,1.7-3.9,5s2,4.9,4.1,4.9,2.6-1,3.1-2.9H70A5.5,5.5,0,0,1,64.5,110.2Zm12.8,0a6.5,6.5,0,0,1-6.5-6.8,6.5,6.5,0,1,1,13,0A6.5,6.5,0,0,1,77.3,110.2Zm16.3-.4h-8V96.9h2.2V108h5.8Zm7.2.4c-3.6,0-6.4-2.8-6.4-6.8s2.8-6.9,6.4-6.9,6.5,2.9,6.5,6.9A6.4,6.4,0,0,1,100.8,110.2Zm15.2-.4a2.6,2.6,0,0,1-.3-1.7v-1.6c0-1.9-.2-2.1-2.2-2.1h-2.3v5.4H109V96.9h5.5c2.1,0,3.7.9,3.7,3.5a2.8,2.8,0,0,1-2.6,3h0c1.7.1,2.3,1,2.3,2.7v2a2.2,2.2,0,0,0,.7,1.7Zm6.4,0h-2.2V96.9h2.2Zm-3-16.4c-.3.1-.6.1-.8.3l-1,.2h-.1l-1.6-.5-.9-.4-.3-.2-1.4-.7-.8-.4-.5-.2h-.1l-.7-.4c-.7-.4-.9-.7-.9-1v-.4a4.2,4.2,0,0,0,.1-1.3,7.7,7.7,0,0,0-.5-2.9v-.2l-1.4-3.5a35.2,35.2,0,0,1-1.6-3.8,10.5,10.5,0,0,1-.5-3H106l-1.7,3.1c-.4.8-.7,1.6-1.1,2.3l-1.4,2.7-1.1,2.1-1.4,2.6c-.4.9-.9,1.8-1.4,2.8l-1.5,2.6-.4.7v.2h-1a12.6,12.6,0,0,1-2.9-.5,7.2,7.2,0,0,1-2.1-1.2,5.9,5.9,0,0,1-1.3-1.7,4.5,4.5,0,0,1-.4-1.8.6.6,0,0,1,.1-.4,4,4,0,0,1,.3-1.5,4.3,4.3,0,0,1,.6-1.7v-.3c.3-.8.6-1.6.8-2.3a2.9,2.9,0,0,0,.2-.9,2.1,2.1,0,0,1-.8,1.1l-1.7.8-.8.3-1.4.5-2.4.7-1.8.4-2.8.5a23.2,23.2,0,0,1-3.8.6l-2.3.3H71.3l-3.7.3H65.1l-.2.2h-.1a3,3,0,0,1-.6,1.4,6.9,6.9,0,0,0-.5,1.3,1.2,1.2,0,0,0,.3.6,1.1,1.1,0,0,1,.9,1v.4h-.1a2.4,2.4,0,0,1-1.4.9l-2,.5h-.6l-1.6.3h-.1l-1.3-.2h-.2v-.2a8.5,8.5,0,0,1-.3-2.3V87.3a5.9,5.9,0,0,0-.5-2.7,3.7,3.7,0,0,0-1.9-1.8h-.2v-.3a.8.8,0,0,1,.5-.9l3.2-.5.7-1.6v-.2a10.6,10.6,0,0,1,1.2-2.4,6.4,6.4,0,0,1,1.9-1.7A9.2,9.2,0,0,1,65.1,74l-1.4-.2h-.2L62,73.5l-2.5-.2H57.4a5.9,5.9,0,0,1-.2,1.4c-.1.6-.2,1.3-.3,1.8v.5h-.7a1.3,1.3,0,0,1-1.3-.1h-.3v-.5L53,70.9h-.5a3.4,3.4,0,0,0-1.6.4,12.3,12.3,0,0,0-2.6,1.3l-2.2,1-3.7,2.9a12.8,12.8,0,0,0-2.6,3,9.6,9.6,0,0,0-1.5,3.7,11.1,11.1,0,0,0,.2,1.7,16.3,16.3,0,0,0,4,2.6l5.6,2.3a15.5,15.5,0,0,1,5,3,9.9,9.9,0,0,1,2.7,5.4v3.6a18.5,18.5,0,0,1-6.1,5.4,94.9,94.9,0,0,1-9.9,4.1,9.2,9.2,0,0,1-2.9.4c-2.8,0-5.4-1.2-8-3.7a5.2,5.2,0,0,1-1.1-1.3l-.4-.6h-.1v-.2a.6.6,0,0,1,.3-.6l.6-.3c4.1-.3,7.1-1.2,9.1-2.8a20.5,20.5,0,0,0,5-3.8V98a21.3,21.3,0,0,0-3.7-1.8h-.1l-5-2.1A14.2,14.2,0,0,1,29,91.2a10,10,0,0,1-2.9-4.3,17.7,17.7,0,0,1-.8-5.4,28,28,0,0,1,.8-6.1,17.7,17.7,0,0,1,2.1-5.3l3.6-5.2c1.6-1.6,2.9-2.7,4-3.7A53.4,53.4,0,0,1,40.1,58a37.6,37.6,0,0,1,5-2.7l5.8-1.7,2.3,1v.2c.8,2.1,1.3,3.4,1.8,4.4a6.2,6.2,0,0,0,2,2.2l.2.2v.2a14.3,14.3,0,0,1,.8,5.1A4.5,4.5,0,0,1,58,68a131.6,131.6,0,0,1,13.7.8c2.7.3,5,.7,6.9,1.1a15.1,15.1,0,0,1,4.9,2,37.9,37.9,0,0,1,5,4.1,8.5,8.5,0,0,1,.7-1.5h0a1,1,0,0,0,.5-.6l.7-.8a5.7,5.7,0,0,1,1.1-1.6l.8-1.1a7.6,7.6,0,0,1,1.1-1.4l1.3-.9h4.1l.9.4.4.2h.5l2.1,1.4,2.5,1.7.2.3a3.3,3.3,0,0,1,.8-1.8,3.5,3.5,0,0,1,2.1-1l.5-.2h1.9v.2a19.6,19.6,0,0,1,1.8,3.4c.6,1.4,1.2,2.6,1.6,3.4l1.1,2.1a20.7,20.7,0,0,0,1.5,2.5,7,7,0,0,0,1.3,1.7h.6l1.4-1.1.6-.6.9-.8.7-.6.5-.5,2.5-2.4,2.4-2.3.7-.8,3.2-2.8,3.3-2.7h.8c2.3,1.1,3.8,2.1,4.5,3.2h.1v.2a2.1,2.1,0,0,1-.5,1.3c0,.2-.1.3-.2.5v.2a14.9,14.9,0,0,1,.2,2.1,7,7,0,0,1-1.3,4,18.9,18.9,0,0,1-3.2,3.7c-1.4,1.2-2.8,2.4-4.4,3.6s-3.5,2.3-5.3,3.4S121.8,92.1,119.4,93.4Zm13.5,5.4h-5.8v3.3h5V104h-5v5.8h-2.2V96.9h8Zm3.5,11h-2.2V96.9h2.2Zm8.3.4c-3.6,0-6.4-2.8-6.4-6.8s2.8-6.9,6.4-6.9a5.3,5.3,0,0,1,5.2,4.4h-2.3a3.1,3.1,0,0,0-3.1-2.5c-1.8,0-3.9,1.7-3.9,5s2.1,4.9,4.1,4.9,2.6-1,3.1-2.9h2.3A5.4,5.4,0,0,1,144.7,110.2Zm9.2-.4h-2.2V96.9h2.2Zm8.3.4c-3.6,0-6.4-2.8-6.4-6.8s2.8-6.9,6.4-6.9,6.5,2.9,6.5,6.9A6.4,6.4,0,0,1,162.2,110.2ZM154,78.8h6.8a37.3,37.3,0,0,1,5,.3,19.5,19.5,0,0,1,3.9.7.8.8,0,0,1,.5.9c0,.3-.3.8-1.1,1.9v.2h-.2l-3.6.6a20.1,20.1,0,0,0-3.6.8h-.2l-3.7.9a53.8,53.8,0,0,0-5.4,1.3,11.5,11.5,0,0,0-3.1,1.3.1.1,0,0,1,.1.1,4.6,4.6,0,0,0,2.8,1.1h2a36.6,36.6,0,0,0,5.7-.5l6.1-1.6h.2a1.1,1.1,0,0,1,.7.2l.3.2.4.3-.4.3a23.5,23.5,0,0,1-1.9,1.4,19.4,19.4,0,0,0-2.2,1.9h-.2a36.4,36.4,0,0,1-6.5,1.6,60.8,60.8,0,0,1-7.1.7,13.9,13.9,0,0,1-3.3-.6l-3-1.1h-1.5l-.8-.2-.4-.2v-.2a14.2,14.2,0,0,1-.8-4.5,22.7,22.7,0,0,1,.7-4.8c.2-1.5.5-2.6.6-3.2a2.3,2.3,0,0,0,.1-.7,25,25,0,0,1,3.6-6.6c.1-.4.3-.6.5-.6l1.1-1.1a2.1,2.1,0,0,1,1-.4h.7a88.8,88.8,0,0,1,13.9-1.6h0l10.1.3a1.5,1.5,0,0,1,1.2,1.1c0,.4.1.8.1,1.2h0a14,14,0,0,1-1.6,2.2,2.8,2.8,0,0,1-1.5.8h-2.1l-1.5.2h-3.1l-2.8.4-2.9.4-.6.3-.4.3-.3.3a1.8,1.8,0,0,1-.7.5,3.5,3.5,0,0,1-.9,1l-1.1.9h-.1c-.1.1-.2.2-.2.3Zm30.7,6.3.4.8a42.3,42.3,0,0,0,3.7,4.5l.5.6c1.2,1.3,2.6,2.5,4.3,4a34.6,34.6,0,0,0,4.7,3.4,36.6,36.6,0,0,0,6.4,3.5h.2a3.1,3.1,0,0,1,.5,1.7v.4h-.2a11.1,11.1,0,0,1-2.6,2l-2.5,2a11.8,11.8,0,0,0-1.7,2.2v.2H198a21.6,21.6,0,0,1-4.5-1.2,19.6,19.6,0,0,1-4.3-2.3,34.4,34.4,0,0,1-4.1-3l-3.6-2.7h0l-.8-.7-.2-.2-.2-.3-.4.2-1.5,9.9h-.1a2.4,2.4,0,0,1-1.2.3c-.4,0-.9-.3-2-1L174,109a6.8,6.8,0,0,1-1.2-1.2,3.4,3.4,0,0,1-.7-1.6c-.2-3.3-.3-6.1-.3-8.6s.2-7.3.5-11.7.7-8.9,1.2-12.3a1.3,1.3,0,0,1,.1-.6,17,17,0,0,1,.3-2.6l.2-1.3a15.5,15.5,0,0,1,.3-1.6v-1a9.4,9.4,0,0,0,.1-1.2v-.5a.8.8,0,0,0-.5-.7,8.5,8.5,0,0,0-1.7-.6h-.3l-.2-.3a.1.1,0,0,1-.1-.1h-.1a5.9,5.9,0,0,1-.2-1.3,14.8,14.8,0,0,1,.3-2.7h.2a7.2,7.2,0,0,1,2.2-1.5,8.8,8.8,0,0,1,2.3-.7l2.7-.8a17.3,17.3,0,0,0,2.4-1h.3a70.2,70.2,0,0,1,11.2,2.4,29.2,29.2,0,0,1,9,4.5,5.9,5.9,0,0,1,1.7,2.6,23.7,23.7,0,0,1,.9,3.6c.2,1.3.4,2.7.7,4.3v.5c0,.3.1.6.1,1s.1,1.1.2,1.7h0a10.9,10.9,0,0,1,.1,1.8,6.3,6.3,0,0,1-.5,2.8h-.1a5.1,5.1,0,0,1-2.3,1.5,10.2,10.2,0,0,1-3.3.6l-3.3.8h-3.9l-4.6.4a14.8,14.8,0,0,0-3.2.8c-.1,0-.1.1-.1.2h-.1A3.3,3.3,0,0,1,184.7,85.1Zm40.8-36H151.9V47.5h73.6Zm0-4.8H153.7V42.7h71.8Zm0-4.4H151.9V38.3h73.6Z" style="fill: #fff"/>
    <path d="M209.4,19.8C186.2,7,155.5,0,122.8,0S59.5,7,36.3,19.8,0,49.9,0,68.4,12.9,104.1,36.3,117s53.9,19.8,86.5,19.8,63.4-7.1,86.6-19.8,36.3-30.2,36.3-48.6S232.8,32.7,209.4,19.8ZM122.8,135.2C55.9,135.2,1.6,105.3,1.6,68.4S55.9,1.6,122.8,1.6,244.1,31.5,244.1,68.4,189.8,135.2,122.8,135.2Z" style="fill: #52ac62"/>
    <path d="M122.8,1.6C55.9,1.6,1.6,31.5,1.6,68.4s54.3,66.8,121.2,66.8,121.3-29.9,121.3-66.8S189.8,1.6,122.8,1.6Zm0,132c-66,0-119.7-29.2-119.7-65.2S56.8,3.1,122.8,3.1,242.6,32.4,242.6,68.4,188.9,133.6,122.8,133.6Z" style="fill: #52ac62"/>
    <path d="M126.6,58.7l-.6.2Z" style="fill: #c1d778"/>
    <path d="M129.1,57.9l2.1-1.1a22.1,22.1,0,0,0,2.3-1.7v-.2l6.4,6.8.3-.3-6.4-6.7v-.2a15.5,15.5,0,0,0,1.9-2.1c.5-.8,1.2-2.3,1.2-2.3l.2-.5L140.7,61a25.4,25.4,0,0,0,7-16.8l-10.4,5.2A16.2,16.2,0,0,1,129.1,57.9Z" style="fill: #c1d778"/>
    <path d="M128.4,58.1h0l-5.4,11a25.1,25.1,0,0,0,16.6-7l-11.2-4Z" style="fill: #c1d778"/>
    <path d="M138.5,43.5h9.2v-.3h-9.3C138.4,43.3,138.5,43.4,138.5,43.5Z" style="fill: #c1d778"/>
    <path d="M122.6,59.3h.2l2.8-.3h.3a16.1,16.1,0,0,1-10.5-1.5l.5.2.4.2-11.9,3.8-.2-.3,7.2-6.7h.2a25.3,25.3,0,0,0,2.1,1.7,8.5,8.5,0,0,0,1.5.9,15.7,15.7,0,1,1,22-20l10.5,5.3A25.7,25.7,0,0,0,141,25.9l-3.8,11.4-.2-.5a15.9,15.9,0,0,0-1.3-2.4,14.3,14.3,0,0,0-1.7-2.1h-.1l6.7-6.7-.2-.2-6.6,6.6h-.2a20,20,0,0,0-2.3-1.8,9.9,9.9,0,0,0-2.3-1.2h-.2l-.5-.2-2.4-.8-2.9-.3h-.2V17.9h.4l5.5,10.8L140,24.9a25.9,25.9,0,1,0-18.1,44.3l-5.5-11.1.5.2,2.4.7,2.7.3h.2v9.8h.4Zm-.5-41.5h.4v9.6h-.2a20.9,20.9,0,0,0-2.9.2l-2.4.8-.5.2Zm-17.5,6.9,11.7,4.1-.5.2a15,15,0,0,0-2.1,1.2,10.9,10.9,0,0,0-2.2,1.7h-.1l-7-7Zm-.5.5,7,7v.2a19.1,19.1,0,0,0-1.7,2.2c-.6,1-1.1,2.1-1.1,2.1l-.2.4-4.2-11.7ZM107.6,37l-.2.5a18.2,18.2,0,0,0-.6,2.4,21.2,21.2,0,0,0-.4,2.9V43H96.6v-.4Zm-.7,5.1v.2h-.1v-.2ZM96.5,43.8v-.4h9.8v.2a21.2,21.2,0,0,0,.4,2.9,15.1,15.1,0,0,0,.7,2.5v.4Zm7.2,17,4.4-11.3.2.4s.5,1.1,1.1,2.1l1.7,2.2v.2L104,61Z" style="fill: #c1d778"/>
    <path d="M121.9,69.6A26.2,26.2,0,0,0,140,62.3h-.2a26,26,0,1,1-17.9-44.9,25.8,25.8,0,0,1,18.3,7.5h.2a26.3,26.3,0,1,0-18.5,44.9Z" style="fill: #52ac62"/>
    <path d="M140.8,61.2v.2A25.7,25.7,0,0,0,148.1,44h-.2A25.7,25.7,0,0,1,140.8,61.2Z" style="fill: #52ac62"/>
    <path d="M140.7,25.3h0Z" style="fill: #52ac62"/>
    <path d="M140.4,61.6c0,.1-.1.2-.2.3h0l.5-.5h-.3Z" style="fill: #52ac62"/>
    <path d="M147.9,42.7h.2a26.1,26.1,0,0,0-6.9-17.3v.2A25.9,25.9,0,0,1,147.9,42.7Z" style="fill: #52ac62"/>
    <path d="M147.9,43.2h0v.3h.2v-.6h-.2Z" style="fill: #52ac62"/>
    <path d="M140.6,25.5v-.2h-.3Z" style="fill: #52ac62"/>
    <path d="M140.7,61v.2a25.7,25.7,0,0,0,7.1-17.1h-.2A25.4,25.4,0,0,1,140.7,61Z" style="fill: #52ac62"/>
    <path d="M123,69.1h-1.1A25.9,25.9,0,1,1,140,24.9h.2a25.8,25.8,0,0,0-18.3-7.5,26.1,26.1,0,1,0,17.9,44.9h-.2A25.1,25.1,0,0,1,123,69.1Z" style="fill: #52ac62"/>
    <path d="M147.7,43.3v.3h.2v-.3h-.2Z" style="fill: #52ac62"/>
    <path d="M147.7,42.6h.2a25.9,25.9,0,0,0-6.8-17v.2A25.7,25.7,0,0,1,147.7,42.6Z" style="fill: #52ac62"/>
    <path d="M140,61.7l.2.2c.1-.1.2-.2.2-.3v-.2Z" style="fill: #52ac62"/>
    <path d="M122.7,28.2a15.3,15.3,0,1,0,15.4,15.3A15.3,15.3,0,0,0,122.7,28.2ZM128.5,54a49.9,49.9,0,0,1-5.5,0h-6.6c-1.8,0-3.4-.1-4.2-1s-1-3.9-.9-6.3h5.4c0,2,.9,1.9,2.2,2.3s2.6,0,4.3,0a10.4,10.4,0,0,0,1.8,0,1.7,1.7,0,0,0,.8,0,1.9,1.9,0,0,0,1.9-1.7c0-1-1-1.6-1.9-1.8s-4.3.1-7.5,0c-1.6,0-4,0-5.4-.9s-1.7-1.1-1.7-2.2V37.3c0-2.7-.1-2.3.8-3.3s2.9-.8,4.7-1h11.9c3.5.3,3.4-.2,4.7,1.3a5.8,5.8,0,0,1,1,2.2c-.1,1.1-.1,2.2-.1,3.9h-5.4c-.1-2.5-.6-2.2-2-2.4H119a1.7,1.7,0,0,0-1.2,1.7c0,.9.6,1.7,1.2,1.7,3.6.1,6.6,0,9.4,0a9.5,9.5,0,0,1,4.1.9c1.5.8,2,2.6,1.9,5.2C134.2,53.5,134.3,54,128.5,54Z" style="fill: #fff"/>
    <path d="M138.2,43v-.2c0,.3.1.5.1.7h.2c0-.1-.1-.2-.1-.3h-.2Z" style="fill: #52ac62"/>
    <path d="M137.3,49.4l-.3.2a15.5,15.5,0,1,1,.9-9.5c-.3-1.2-.7-2.4-.7-2.4l-.2-.5h.2a15.7,15.7,0,1,0-22,20h.2a16.1,16.1,0,0,0,10.5,1.5h.1l.6-.2,1.3-.4.5-.2h0l.5-.2h.2A16.2,16.2,0,0,0,137.3,49.4Z" style="fill: #52ac62"/>
    <path d="M137.2,49.1s.4-1.2.7-2.4.3-2.9.3-2.9v-.2h.1c0-.2-.1-.4-.1-.7a15.8,15.8,0,0,0-.3-2.6h0a15.5,15.5,0,1,0-.9,9.5h0Zm-14.5,9.7a15.3,15.3,0,1,1,15.4-15.3A15.4,15.4,0,0,1,122.7,58.8Z" style="fill: #52ac62"/>
    <path d="M131.5,29.7l2.3,1.7,6.1-6.1-10.2,3.4Z" style="fill: #52ac62"/>
    <path d="M140.6,24.9h0c0,.1.1.1.1.2h.1l-.2-.3h-.2Z" style="fill: #fff"/>
    <path d="M128.8,28.7h.2a9.9,9.9,0,0,1,2.3,1.2,20,20,0,0,1,2.3,1.8h.2l6.6-6.6h-.1l-6.5,6.4-2.4-1.7a17.5,17.5,0,0,0-2.3-1.3l11-3.6H140l-11.3,3.7Z" style="fill: #fff"/>
    <path d="M140.4,25l.2.2h.1c0-.1-.1-.1-.1-.2Z" style="fill: #fff"/>
    <path d="M140.4,25h.2l-.2-.2h-.2C140.3,24.8,140.3,24.9,140.4,25Z" style="fill: #fff"/>
    <path d="M140.4,25.3h.2l-.2-.2v.2Z" style="fill: #fff"/>
    <path d="M140.1,25h.3c-.1-.1-.1-.2-.2-.2h-.1Z" style="fill: #fff"/>
    <path d="M140.6,24.9Z" style="fill: #fff"/>
    <path d="M131.4,29.9l2.4,1.7,6.5-6.4-.2-.2-11,3.6A17.5,17.5,0,0,1,131.4,29.9Zm2.4,1.5-2.3-1.7-1.8-1,10.2-3.4Z" style="fill: #fff"/>
    <path d="M140.6,24.9Z" style="fill: #fff"/>
    <path d="M140.3,25.2V25h-.3Z" style="fill: #fff"/>
    <path d="M136,34.1l1.2,2.1,3.3-10.1-6.1,6.1A11.9,11.9,0,0,1,136,34.1Z" style="fill: #52ac62"/>
    <path d="M141,25.3h0c.1.1.1.2.2.2h0l-.3-.2a.1.1,0,0,0,.1.1Z" style="fill: #fff"/>
    <path d="M134,32.3a14.3,14.3,0,0,1,1.7,2.1,15.9,15.9,0,0,1,1.3,2.4l.2.5L141,25.9h-.1l-3.7,10.9a15.9,15.9,0,0,0-1.3-2.4,12.2,12.2,0,0,0-1.8-2.1l6.6-6.6h-.1l-6.7,6.7Z" style="fill: #fff"/>
    <path d="M140.9,25.5l.2.2v-.2c-.1,0-.1-.1-.2-.2Z" style="fill: #fff"/>
    <path d="M140.7,25.3l.2.2v-.2a.1.1,0,0,1-.1-.1h-.2Z" style="fill: #fff"/>
    <path d="M141,25.9v-.2l-.2-.2v.3Z" style="fill: #fff"/>
    <path d="M140.7,25.6h.2l-.2-.2v.2Z" style="fill: #fff"/>
    <polygon points="141 25.3 141 25.3 141 25.3 141 25.3" style="fill: #fff"/>
    <path d="M135.9,34.3a15.9,15.9,0,0,1,1.3,2.4l3.7-10.9-.2-.2-6.6,6.6A12.2,12.2,0,0,1,135.9,34.3Zm1.3,1.9L136,34.1a11.9,11.9,0,0,0-1.6-1.9l6.1-6.1Z" style="fill: #fff"/>
    <path d="M141,25.3h0v.2h0Z" style="fill: #fff"/>
    <path d="M140.9,25.8v-.3h-.2Z" style="fill: #fff"/>
    <path d="M108.1,50.5l-3.7,9.6,6.2-5.8a20.5,20.5,0,0,1-1.5-2.1Z" style="fill: #52ac62"/>
    <path d="M111.1,54.2,109.4,52c-.6-1-1.1-2.1-1.1-2.1l-.2-.4-4.4,11.3.3.2,7.2-6.6Zm-7.3,6.7L108.1,50a15,15,0,0,0,1.2,2.1,13.5,13.5,0,0,0,1.6,2.2Z" style="fill: #fff"/>
    <path d="M108.1,50l-4.3,10.9,7.1-6.6a13.5,13.5,0,0,1-1.6-2.2A15,15,0,0,1,108.1,50Zm-3.7,10.1,3.7-9.6,1,1.7a20.5,20.5,0,0,0,1.5,2.1Z" style="fill: #fff"/>
    <path d="M111.5,55.1l-6.4,5.8,10.1-3.1c-.4-.3-1.1-.6-1.7-1.1A13.7,13.7,0,0,1,111.5,55.1Z" style="fill: #52ac62"/>
    <path d="M113.7,56.4a25.3,25.3,0,0,1-2.1-1.7h-.2l-7.2,6.7.2.3,11.9-3.8-.4-.2-.5-.2h-.2A8.5,8.5,0,0,1,113.7,56.4Zm-9.3,5,7.1-6.5a25.3,25.3,0,0,0,2.1,1.7,13.4,13.4,0,0,0,2.2,1.2Z" style="fill: #fff"/>
    <path d="M115.4,57.4h0Z" style="fill: #fff"/>
    <path d="M111.5,54.9l-7.1,6.5,11.4-3.6a13.4,13.4,0,0,1-2.2-1.2A25.3,25.3,0,0,1,111.5,54.9Zm-6.4,6,6.4-5.8a13.7,13.7,0,0,0,2,1.6c.6.5,1.3.8,1.7,1.1Z" style="fill: #fff"/>
    <path d="M122.1,18.7l-4.8,9.4,2.1-.6,2.7-.3Z" style="fill: #52ac62"/>
    <path d="M119.4,27.8a20.9,20.9,0,0,1,2.9-.2h.2V17.9h-.4l-5.6,11,.5-.2Zm2.9-9.9v9.5a14.1,14.1,0,0,0-2.9.3,18.4,18.4,0,0,0-2.5.8Z" style="fill: #fff"/>
    <path d="M122.3,27.4V17.9l-5.4,10.6a18.4,18.4,0,0,1,2.5-.8A14.1,14.1,0,0,1,122.3,27.4Zm-5,.7,4.8-9.4v8.5l-2.7.3Z" style="fill: #fff"/>
    <path d="M128,28.1l-4.8-9.4v8.4c.5.1,1.9.1,2.8.3Zm-4.6-6.4h0Z" style="fill: #52ac62"/>
    <path d="M128.7,28.6l-5.5-10.8h-.4v9.6h.2l2.9.3,2.4.8.5.2h-.1Zm-2.8-1-2.9-.3V17.9l5.4,10.5A18.4,18.4,0,0,0,125.9,27.6Z" style="fill: #fff"/>
    <polygon points="128.6 28.6 128.8 28.7 128.7 28.6 128.6 28.6" style="fill: #fff"/>
    <path d="M123,27.3l2.9.3a18.4,18.4,0,0,1,2.5.8L123,17.9Zm.2-8.6,4.8,9.4-2-.7c-.9-.2-2.3-.2-2.8-.3Z" style="fill: #fff"/>
    <path d="M136.2,52.6a13.7,13.7,0,0,1-1.8,2.1l5.9,6.1-3-10.1Z" style="fill: #52ac62"/>
    <path d="M140.9,61.5h0c-.1.1-.1.2-.2.2Z" style="fill: #fff"/>
    <path d="M137.1,50.1s-.7,1.5-1.2,2.3a15.5,15.5,0,0,1-1.9,2.1v.2l6.4,6.7h.1l-6.2-6.6a23.5,23.5,0,0,0,1.8-2.2c.6-.9,1.3-2.3,1.3-2.3l3.3,11c0-.1.1-.1.1-.2l-3.4-11.4Z" style="fill: #fff"/>
    <path d="M140.6,61.4v.2h0c.1,0,.1-.1.2-.2v-.2Z" style="fill: #fff"/>
    <path d="M140.3,61.4v.2h.2l-.2-.2Z" style="fill: #fff"/>
    <path d="M140.6,61.2v.2l.2-.2V61C140.7,61.1,140.6,61.1,140.6,61.2Z" style="fill: #fff"/>
    <path d="M136,52.5a23.5,23.5,0,0,1-1.8,2.2l6.2,6.6h.2l-3.3-11S136.6,51.6,136,52.5Zm-1.6,2.2a13.7,13.7,0,0,0,1.8-2.1l1.1-1.9,3,10.1Z" style="fill: #fff"/>
    <path d="M140.7,61.6v-.2h.1Z" style="fill: #fff"/>
    <path d="M140.4,61.3l.2.2h0v-.2Z" style="fill: #fff"/>
    <path d="M133.6,55.5c-.4.3-1.4,1.2-2.2,1.7l-1.9.9,9.9,3.5Z" style="fill: #52ac62"/>
    <path d="M140.1,62.3v-.2l-.2.2Z" style="fill: #fff"/>
    <path d="M131.3,57a18.1,18.1,0,0,0,2.3-1.8l6.3,6.6h.1l-6.4-6.8v.2a22.1,22.1,0,0,1-2.3,1.7l-2.1,1.1-.7.2h0l11.2,4h.2L129,58.1A18.9,18.9,0,0,0,131.3,57Z" style="fill: #fff"/>
    <path d="M140.2,61.9H140c-.1.1-.1.2-.2.2h.2l.2-.2h0Z" style="fill: #fff"/>
    <path d="M139.8,62h0c.1,0,.1-.1.2-.2Z" style="fill: #fff"/>
    <path d="M139.9,61.8V62h.2l-.2-.2Z" style="fill: #fff"/>
    <path d="M128.4,58.1l.7-.2h-.2Z" style="fill: #fff"/>
    <path d="M133.6,55.2a18.1,18.1,0,0,1-2.3,1.8,18.9,18.9,0,0,1-2.3,1.1L139.8,62c0-.1.1-.1.1-.2Zm-2.2,2c.8-.5,1.8-1.4,2.2-1.7l5.8,6.1-9.9-3.5Z" style="fill: #fff"/>
    <path d="M140.1,62.1h0Z" style="fill: #fff"/>
    <path d="M139.8,62h.2v-.2C139.9,61.9,139.8,61.9,139.8,62Z" style="fill: #fff"/>
    <path d="M113.5,29.8l1.7-1-9.9-3.5,6.1,6.1Z" style="fill: #52ac62"/>
    <path d="M111.5,31.9a10.9,10.9,0,0,1,2.2-1.7,15,15,0,0,1,2.1-1.2l.5-.2-11.7-4.1-.2.3,7,7Zm4.2-3.1a15,15,0,0,0-2.1,1.2l-2.2,1.7-6.9-6.9Z" style="fill: #fff"/>
    <path d="M113.6,30a15,15,0,0,1,2.1-1.2l-11.2-4,6.9,6.9Zm1.6-1.2-1.7,1-2.1,1.6-6.1-6.1Z" style="fill: #fff"/>
    <path d="M109,34.3a13.7,13.7,0,0,1,1.6-2l-6.1-6.2,3.5,10Z" style="fill: #52ac62"/>
    <path d="M108.2,36.7s.5-1.1,1.1-2.1a19.1,19.1,0,0,1,1.7-2.2v-.2l-7-7-.3.2L108,37.1Zm2.7-4.5a17,17,0,0,0-1.7,2.2,20.3,20.3,0,0,0-1.2,2.2l-4-11.2Z" style="fill: #fff"/>
    <path d="M109.2,34.4a17,17,0,0,1,1.7-2.2L104,25.4l4,11.2A20.3,20.3,0,0,1,109.2,34.4Zm1.4-2.1a13.7,13.7,0,0,0-1.6,2l-1,1.8-3.5-10Z" style="fill: #fff"/>
    <path d="M106.9,42.3v-.2h-.1v.2Zm-.1-.1Z" style="fill: #fff343"/>
    <rect x="106.8" y="42.2" height="0.08" style="fill: #fff343"/>
    <polygon points="123.4 21.6 123.4 21.7 123.6 21.7 123.6 21.6 123.4 21.6" style="fill: #d24a43"/>
    <path d="M132.5,42.3a9.5,9.5,0,0,0-4.1-.9c-2.8,0-5.8.1-9.4,0-.6,0-1.2-.8-1.2-1.7A1.7,1.7,0,0,1,119,38h7.8c1.4.2,1.9-.1,2,2.4h5.4c0-1.7,0-2.8.1-3.9a5.8,5.8,0,0,0-1-2.2c-1.3-1.5-1.2-1-4.7-1.3H116.7c-1.8.2-3.5-.4-4.7,1s-.8.6-.8,3.3v5.1c0,1.1.9,1.7,1.7,2.2s3.8.9,5.4.9c3.2.1,5.8,0,7.5,0s1.9.8,1.9,1.8a1.9,1.9,0,0,1-1.9,1.7,1.7,1.7,0,0,1-.8,0,10.4,10.4,0,0,1-1.8,0c-1.7,0-2.9.1-4.3,0s-2.2-.3-2.2-2.3h-5.4c-.1,2.4-.2,5,.9,6.3s2.4,1,4.2,1H123a49.9,49.9,0,0,0,5.5,0c5.8,0,5.7-.5,5.9-6.5C134.5,44.9,134,43.1,132.5,42.3Z" style="fill: #52ac62"/>
    <path d="M138.3,40.1a16.8,16.8,0,0,1,.3,2.7h8.7L137.7,38A19.1,19.1,0,0,1,138.3,40.1Z" style="fill: #52ac62"/>
    <path d="M148.2,42.8h-.1v0Z" style="fill: #fff"/>
    <path d="M138.1,40.1h0c-.3-1.2-.7-2.5-.7-2.5l10.3,5.2v-.2l-10.5-5.3A13.1,13.1,0,0,1,138.1,40.1Z" style="fill: #fff"/>
    <path d="M138.4,42.8v.4h9.3V43h-9.3Z" style="fill: #fff"/>
    <path d="M147.9,42.9h0v.2h.2v-.3h-.2Z" style="fill: #fff"/>
    <path d="M147.7,43.2h.2V43h-.2Z" style="fill: #fff"/>
    <path d="M147.7,42.8h.2v-.2h-.2Z" style="fill: #fff"/>
    <path d="M137.2,37.7s.4,1.2.7,2.4a12.4,12.4,0,0,1,.3,2.7v.4h.2v-.4a18,18,0,0,0-.3-2.7,13.1,13.1,0,0,0-.9-2.8H137Z" style="fill: #fff"/>
    <path d="M138.2,42.8a12.4,12.4,0,0,0-.3-2.7h0A15.8,15.8,0,0,1,138.2,42.8Z" style="fill: #fff"/>
    <path d="M138.1,40.1h0a12.4,12.4,0,0,1,.3,2.7V43h9.3v-.2l-10.3-5.2S137.8,38.9,138.1,40.1Zm.5,2.7a16.8,16.8,0,0,0-.3-2.7,19.1,19.1,0,0,0-.6-2.1l9.6,4.8Z" style="fill: #fff"/>
    <path d="M148.1,43h0Z" style="fill: #fff"/>
    <path d="M147.7,43h0Z" style="fill: #fff"/>
    <path d="M138.1,40.1a18,18,0,0,1,.3,2.7A12.4,12.4,0,0,0,138.1,40.1Z" style="fill: #fff"/>
    <path d="M138.3,46.7a19.1,19.1,0,0,1-.6,2.1l9.6-4.8h-8.7A16.8,16.8,0,0,1,138.3,46.7Z" style="fill: #52ac62"/>
    <path d="M148.2,44v0Z" style="fill: #fff"/>
    <path d="M137.3,49.4l10.4-5.2V44l-10.3,5.2A.3.3,0,0,0,137.3,49.4Z" style="fill: #fff"/>
    <path d="M138.4,43.8h9.3v-.2h-9.3Z" style="fill: #fff"/>
    <path d="M147.9,43.6v.2h0v.2h.2v-.3h-.2Z" style="fill: #fff"/>
    <path d="M147.7,43.8h.2v-.2h-.2Z" style="fill: #fff"/>
    <path d="M147.7,44.2h.2v-.2h-.2Z" style="fill: #fff"/>
    <path d="M137,49.6l.3-.2a.3.3,0,0,1,.1-.2h0s.4-1.2.7-2.5.3-2.9.3-2.9h0v-.2h-.2A15.3,15.3,0,0,1,137,49.6Z" style="fill: #fff"/>
    <path d="M138.2,43.6v.2s-.1,1.6-.3,2.9-.7,2.4-.7,2.4l-.2.5h0a15.3,15.3,0,0,0,1.2-6Z" style="fill: #fff"/>
    <path d="M137.4,49.2,147.7,44v-.2h-9.3A16.2,16.2,0,0,1,137.4,49.2Zm.3-.4a19.1,19.1,0,0,0,.6-2.1,16.8,16.8,0,0,0,.3-2.7h8.7Z" style="fill: #fff"/>
    <path d="M148.1,43.8h0Z" style="fill: #fff"/>
    <path d="M147.7,44h0Z" style="fill: #fff"/>
    <path d="M138.1,46.7c-.3,1.3-.7,2.5-.7,2.5h0a16.2,16.2,0,0,0,1-5.4h0S138.3,45.4,138.1,46.7Z" style="fill: #fff"/>
    <path d="M106.9,37.8l-9.4,4.8H106c.1-.5.2-1.7.4-2.7S106.8,38.3,106.9,37.8Z" style="fill: #52ac62"/>
    <path d="M106.4,43v-.2a21.2,21.2,0,0,1,.4-2.9,18.2,18.2,0,0,1,.6-2.4l.2-.5L96.5,42.6V43Zm.9-5.6a12.2,12.2,0,0,0-.7,2.5,21.2,21.2,0,0,0-.4,2.9H96.6Z" style="fill: #fff"/>
    <path d="M106.6,39.9a12.2,12.2,0,0,1,.7-2.5L96.6,42.8h9.6A21.2,21.2,0,0,1,106.6,39.9Zm-9.1,2.7,9.4-4.8c-.1.5-.4,1.3-.5,2.1s-.3,2.2-.4,2.7Z" style="fill: #fff"/>
    <path d="M106,43.8H97.5l9.4,4.8a14.3,14.3,0,0,1-.5-2C106.2,45.5,106.1,44.3,106,43.8Z" style="fill: #52ac62"/>
    <path d="M107.5,49a15.1,15.1,0,0,1-.7-2.5,21.2,21.2,0,0,1-.4-2.9v-.2H96.6v.4l11.1,5.6ZM96.6,43.6h9.6a19.3,19.3,0,0,0,.4,2.9,12.2,12.2,0,0,0,.7,2.5Z" style="fill: #fff"/>
    <path d="M106.2,43.6H96.6L107.3,49a12.2,12.2,0,0,1-.7-2.5A19.3,19.3,0,0,1,106.2,43.6Zm-8.7.2H106c.1.5.2,1.7.4,2.8a14.3,14.3,0,0,0,.5,2Z" style="fill: #fff"/>
    <path d="M119.2,59.4l-2-.6,4.6,9.4V59.7Z" style="fill: #52ac62"/>
    <path d="M122.2,59.3H122l-2.7-.3-2.4-.7-.5-.2,5.5,11.1h.3Zm-5.4-.8,2.4.7,2.8.3v9.6Z" style="fill: #fff"/>
    <path d="M121.9,69.2Z" style="fill: #fff"/>
    <path d="M119.2,59.2l-2.4-.7L122,69.1V59.5Zm-2-.4,2,.6,2.6.3v8.5Z" style="fill: #fff"/>
    <path d="M125.6,59.4l-2.6.3v8.5l4.6-9.4Z" style="fill: #52ac62"/>
    <path d="M126.6,58.7l-.6.2h-.4l-2.8.3h-.2v9.8h.4l5.4-11A6.4,6.4,0,0,1,126.6,58.7Zm-3.8.8,2.8-.3,2.4-.7-5.2,10.6Z" style="fill: #fff"/>
    <path d="M123,69.2h0Z" style="fill: #fff"/>
    <path d="M127.9,58.3l-1.3.4a6.4,6.4,0,0,0,1.8-.6h0Z" style="fill: #fff"/>
    <path d="M126,58.9h0Z" style="fill: #fff"/>
    <path d="M125.6,59.2l-2.8.3v9.6L128,58.5Zm-2.6.5,2.6-.3,2-.6L123,68.2Z" style="fill: #fff"/>
    <path d="M64.6,108.3c-2.1,0-4.1-1.8-4.1-4.9s2-5,3.9-5a3,3,0,0,1,3,2.5h2.3a5.3,5.3,0,0,0-5.2-4.4c-3.6,0-6.4,2.9-6.4,6.9s2.8,6.8,6.4,6.8a5.5,5.5,0,0,0,5.5-4.8H67.7C67.2,107.3,66.4,108.3,64.6,108.3Z" style="fill: #91785f"/>
    <path d="M77.3,96.5a6.6,6.6,0,0,0-6.5,6.9,6.5,6.5,0,1,0,13,0A6.6,6.6,0,0,0,77.3,96.5Zm0,11.8c-2.3,0-4.1-1.9-4.1-4.9s1.8-5,4.1-5,4.1,1.9,4.1,5S79.6,108.3,77.3,108.3Z" style="fill: #91785f"/>
    <polygon points="87.8 96.9 85.6 96.9 85.6 109.8 93.6 109.8 93.6 108 87.8 108 87.8 96.9" style="fill: #91785f"/>
    <path d="M100.8,96.5c-3.6,0-6.4,2.9-6.4,6.9s2.8,6.8,6.4,6.8a6.4,6.4,0,0,0,6.5-6.8C107.3,99.4,104.5,96.5,100.8,96.5Zm0,11.8c-2.2,0-4.1-1.9-4.1-4.9s1.9-5,4.1-5,4.1,1.9,4.1,5S103.1,108.3,100.8,108.3Z" style="fill: #91785f"/>
    <path d="M117.9,106.1c0-1.7-.6-2.6-2.3-2.7h0a2.8,2.8,0,0,0,2.6-3c0-2.6-1.6-3.5-3.7-3.5H109v12.9h2.2v-5.4h2.3c2,0,2.2.2,2.2,2.1v1.6a2.6,2.6,0,0,0,.3,1.7h2.6a2.2,2.2,0,0,1-.7-1.7Zm-4.3-3.6h-2.4V98.9H114a1.7,1.7,0,0,1,1.9,1.8C115.9,101.8,115.1,102.5,113.6,102.5Z" style="fill: #91785f"/>
    <rect x="120.2" y="96.9" width="2.2" height="12.98" style="fill: #91785f"/>
    <polygon points="124.9 109.8 127.1 109.8 127.1 104 132.1 104 132.1 102.1 127.1 102.1 127.1 98.8 132.9 98.8 132.9 96.9 124.9 96.9 124.9 109.8" style="fill: #91785f"/>
    <rect x="134.2" y="96.9" width="2.2" height="12.98" style="fill: #91785f"/>
    <path d="M144.7,108.3c-2,0-4.1-1.8-4.1-4.9s2.1-5,3.9-5a3.1,3.1,0,0,1,3.1,2.5h2.3a5.3,5.3,0,0,0-5.2-4.4c-3.6,0-6.4,2.9-6.4,6.9s2.8,6.8,6.4,6.8a5.4,5.4,0,0,0,5.4-4.8h-2.3C147.3,107.3,146.5,108.3,144.7,108.3Z" style="fill: #91785f"/>
    <rect x="151.7" y="96.9" width="2.2" height="12.98" style="fill: #91785f"/>
    <path d="M162.2,96.5c-3.6,0-6.4,2.9-6.4,6.9s2.8,6.8,6.4,6.8a6.4,6.4,0,0,0,6.5-6.8C168.7,99.4,165.9,96.5,162.2,96.5Zm0,11.8c-2.2,0-4.1-1.9-4.1-4.9s1.9-5,4.1-5,4.1,1.9,4.1,5S164.5,108.3,162.2,108.3Z" style="fill: #91785f"/>
    <path d="M57.6,72.3l2,.2,2.6.2,1.4.2h.2l1.5.3a2.3,2.3,0,0,1,1,.5l.2.2v.2a.7.7,0,0,1-.4.5h-.5a7.6,7.6,0,0,0-2.9,1A4.3,4.3,0,0,0,61,77.3a8.9,8.9,0,0,0-1.1,2.2v.2a11.4,11.4,0,0,1-.9,1.9h-.1l-3.1.6a4.9,4.9,0,0,1,1.8,2,7.3,7.3,0,0,1,.6,3v2.1a2.5,2.5,0,0,1-.1.8v.9a4.8,4.8,0,0,0,.3,1.8H59l1.6-.3.6-.2,1.9-.4.9-.5h0l-.3-.3h-.2a2.2,2.2,0,0,1-.6-1.2,3.4,3.4,0,0,1,.6-1.7A6.1,6.1,0,0,0,64,87v-.2l.2-.2h.2l.2-.2a1.1,1.1,0,0,1,.7-.2h2.3l3.6-.3,1.2-.2,2.3-.2,3.8-.6,2.7-.6,1.8-.3,2.3-.7,1.4-.5.7-.3a8.4,8.4,0,0,0,1.6-.7,1.8,1.8,0,0,0,.7-1.5,10.6,10.6,0,0,0-1.1-3.2A45.9,45.9,0,0,0,83,72.6a11.6,11.6,0,0,0-4.6-1.8,47.1,47.1,0,0,0-6.8-1.2c-3.9-.4-8.5-.7-13.6-.8a4.9,4.9,0,0,1-.1,1.2ZM66.9,77h0a7.8,7.8,0,0,1,1-2.6c.2-.3.6-.3.9-.3h.1c1.7.3,4,.8,7.1,1.6h.2l.8.3h.3l1,.4a2.8,2.8,0,0,1,.9.6l.3.4-.4.3a6.7,6.7,0,0,1-2.1.9l-3.6.9-2.5.4-3.4.6h0c-.7,0-1.2-.2-1.3-.7h0a6.9,6.9,0,0,1,.5-2.1A6.4,6.4,0,0,0,66.9,77Z" style="fill: #52ac62"/>
    <path d="M89.7,78.6l-.2-.3a5.7,5.7,0,0,1,.6,2.1,2.2,2.2,0,0,1-.8,1.8l-1.9.9-1.9.7-2.4.7-4.6.9c-1.2.2-2.5.5-3.8.6l-3.4.4-3.7.3H65.3c-.2,0-.3,0-.4.2l-.5.3a4.7,4.7,0,0,1-.5,1.4,3.7,3.7,0,0,0-.6,1.5,1.4,1.4,0,0,0,.5.9c.4.2.6.4.6.7v.3a2.2,2.2,0,0,1-1.2.7L61,93l-1.9.4a3,3,0,0,1-1.2-.2,5.8,5.8,0,0,1-.3-2.1c0-.6.1-1.2.1-1.7V87.3a8.3,8.3,0,0,0-.6-2.9,5.1,5.1,0,0,0-2.1-2c0-.3,0-.4.2-.4l3.4-.6c.3-.5.5-1.2.9-2.1a9,9,0,0,1,1.1-2.2,6.4,6.4,0,0,1,1.9-1.7,8.1,8.1,0,0,1,3.1-1l.3-.2h.2a2.6,2.6,0,0,0-.9-.5l-1.6-.3-1.5-.2-2.5-.2-2.1-.2v.5h2l2.5.2,1.5.3h.2l1.4.2a9.2,9.2,0,0,0-2.9,1.1,6.4,6.4,0,0,0-1.9,1.7,10.6,10.6,0,0,0-1.2,2.4v.2L58.3,81l-3.2.5a.8.8,0,0,0-.5.9v.3h.2a3.7,3.7,0,0,1,1.9,1.8,5.9,5.9,0,0,1,.5,2.7v3.8a8.5,8.5,0,0,0,.3,2.3v.2h.2l1.3.2h.1l1.6-.3h.6l2-.5a2.4,2.4,0,0,0,1.4-.9h.1v-.4a1.1,1.1,0,0,0-.9-1,1.2,1.2,0,0,1-.3-.6,6.9,6.9,0,0,1,.5-1.3,3,3,0,0,0,.6-1.4h.1l.2-.2h2.5l3.7-.3h1.2l2.3-.3a23.2,23.2,0,0,0,3.8-.6l2.8-.5,1.8-.4,2.4-.7,1.4-.5.8-.3,1.7-.8a2.1,2.1,0,0,0,.8-1.1,2.2,2.2,0,0,0,.1-.8A2.5,2.5,0,0,0,89.7,78.6Z" style="fill: #fff"/>
    <path d="M71.7,69.2c2.7.3,4.9.7,6.8,1.1a14.2,14.2,0,0,1,4.8,2,35.5,35.5,0,0,1,5.2,4.3V76a37.9,37.9,0,0,0-5-4.1,15.1,15.1,0,0,0-4.9-2c-1.9-.4-4.2-.8-6.9-1.1A131.6,131.6,0,0,0,58,68v.4C63.3,68.5,67.9,68.8,71.7,69.2Z" style="fill: #fff"/>
    <path d="M67.5,80.2l3.3-.6,2.5-.5,3.5-.8a5.8,5.8,0,0,0,2.1-.9,1.6,1.6,0,0,0-.8-.5l-1.2-.5-1-.4c-3.1-.8-5.5-1.3-7.1-1.6h-.6a13.1,13.1,0,0,0-.9,2.6,15.4,15.4,0,0,0-.7,2.7A1,1,0,0,0,67.5,80.2Zm1.1-5.4ZM67.5,78c.1-.2.1-.5.2-.8h.1a6.9,6.9,0,0,1,.8-2.3h.2c1.6.3,4,.8,6.9,1.6h.2l.9.3H77a1.9,1.9,0,0,1,.9.4c.1,0,.2,0,.2.1a4.6,4.6,0,0,1-1.4.5l-3.5.8-2.4.5-3.3.5H67C67.1,79.2,67.3,78.7,67.5,78Z" style="fill: #fff"/>
    <path d="M66.2,79.9c.1.5.6.7,1.3.7h0l3.4-.6,2.5-.4,3.6-.9a6.7,6.7,0,0,0,2.1-.9l.4-.3-.3-.4a2.8,2.8,0,0,0-.9-.6l-1-.4H77l-.8-.3H76c-3.1-.8-5.4-1.3-7.1-1.6h-.1c-.3,0-.7,0-.9.3a7.8,7.8,0,0,0-1,2.6h0a6.4,6.4,0,0,1-.2.7,6.9,6.9,0,0,0-.5,2.1Zm1.1-2.8a13.1,13.1,0,0,1,.9-2.6h.6c1.6.3,4,.8,7.1,1.6l1,.4,1.2.5a1.6,1.6,0,0,1,.8.5,5.8,5.8,0,0,1-2.1.9l-3.5.8-2.5.5-3.3.6a1,1,0,0,1-.9-.4A15.4,15.4,0,0,1,67.3,77.1Z" style="fill: #fff"/>
    <path d="M78.5,70.3c-1.9-.4-4.1-.8-6.8-1.1s-8.4-.7-13.7-.8v.4c5.1.1,9.7.4,13.6.8a47.1,47.1,0,0,1,6.8,1.2A11.6,11.6,0,0,1,83,72.6a45.9,45.9,0,0,1,5.6,4.6,10.6,10.6,0,0,1,1.1,3.2,1.8,1.8,0,0,1-.7,1.5,8.4,8.4,0,0,1-1.6.7l-.7.3-1.4.5-2.3.7-1.8.3-2.7.6-3.8.6-2.3.2-1.2.2-3.6.3H65.3a1.1,1.1,0,0,0-.7.2l-.2.2h-.2l-.2.2V87a6.1,6.1,0,0,1-.5,1.2,3.4,3.4,0,0,0-.6,1.7,2.2,2.2,0,0,0,.6,1.2h.2l.3.3h0l-.9.5-1.9.4-.6.2L59,93h-.7a4.8,4.8,0,0,1-.3-1.8v-.9a2.5,2.5,0,0,0,.1-.8V87.3a7.3,7.3,0,0,0-.6-3,4.9,4.9,0,0,0-1.8-2l3.1-.6h.1a11.4,11.4,0,0,0,.9-1.9v-.2A8.9,8.9,0,0,1,61,77.3a4.3,4.3,0,0,1,1.7-1.5,7.6,7.6,0,0,1,2.9-1h.5a.7.7,0,0,0,.4-.5v-.2l-.2-.2a2.3,2.3,0,0,0-1-.5l-1.5-.3h-.2l-1.4-.2-2.6-.2-2-.2c0,.1-.1.3-.1.4l2.1.2,2.5.2,1.5.2,1.6.3a2.6,2.6,0,0,1,.9.5h-.2l-.3.2a8.1,8.1,0,0,0-3.1,1,6.4,6.4,0,0,0-1.9,1.7,9,9,0,0,0-1.1,2.2c-.4.9-.6,1.6-.9,2.1l-3.4.6c-.2,0-.2.1-.2.4a5.1,5.1,0,0,1,2.1,2,8.3,8.3,0,0,1,.6,2.9v2.1c0,.5-.1,1.1-.1,1.7a5.8,5.8,0,0,0,.3,2.1,3,3,0,0,0,1.2.2L61,93l2.2-.5a2.2,2.2,0,0,0,1.2-.7v-.3c0-.3-.2-.5-.6-.7a1.4,1.4,0,0,1-.5-.9,3.7,3.7,0,0,1,.6-1.5,4.7,4.7,0,0,0,.5-1.4l.5-.3c.1-.2.2-.2.4-.2h2.3l3.7-.3,3.4-.4c1.3-.1,2.6-.4,3.8-.6l4.6-.9,2.4-.7,1.9-.7,1.9-.9a2.2,2.2,0,0,0,.8-1.8,5.7,5.7,0,0,0-.6-2.1,3.9,3.9,0,0,1-1-1.7,35.5,35.5,0,0,0-5.2-4.3A14.2,14.2,0,0,0,78.5,70.3Z" style="fill: #fff"/>
    <path d="M107,74.2v.5a9.8,9.8,0,0,0,.5,2.9,31.2,31.2,0,0,0,1.5,3.6c.6,1.4,1.1,2.5,1.5,3.6V85a9.5,9.5,0,0,1,.6,3.2,5.1,5.1,0,0,1-.2,1.6h0l.4.3.7.4h.1l.5.3.7.3,1.4.7.4.2.8.4,1.5.5h.5a1.6,1.6,0,0,1,.9-.3c2.3-1.2,4.2-2.3,6-3.4a50.2,50.2,0,0,0,5.1-3.4,56.7,56.7,0,0,0,4.4-3.6,16.7,16.7,0,0,0,3.1-3.4,7.2,7.2,0,0,0,1.1-3.6,6.5,6.5,0,0,0-.2-2,.9.9,0,0,1,.3-.7c0-.2.1-.3.2-.5a5.9,5.9,0,0,0,.4-.8,11.1,11.1,0,0,0-4.1-2.8h-.1L132.1,71,129,73.8l-.7.8-2.4,2.3-2.5,2.4c-.1.2-.3.3-.6.5l-.6.7a3.4,3.4,0,0,0-.9.8l-.7.5L119.1,83H119l-1.3.4v-.3h-.2V83c-.6-.6-1-1.2-1.5-1.8l-1.5-2.6-1-2.1a26.6,26.6,0,0,1-1.7-3.4,12.2,12.2,0,0,0-1.6-3.1h-1.7c-.8.2-1.4.4-1.6.8a2.4,2.4,0,0,0-.7,1.3v.9h0v.5h0l.9.3Z" style="fill: #52ac62"/>
    <path d="M130.8,86.5c1.6-1.2,3-2.4,4.4-3.6a18.9,18.9,0,0,0,3.2-3.7,7,7,0,0,0,1.3-4,14.9,14.9,0,0,0-.2-2.1v-.2c.1-.2.2-.3.2-.5a2.1,2.1,0,0,0,.5-1.3v-.2h-.1c-.7-1.1-2.2-2.1-4.5-3.2h-.8l-3.3,2.7-3.2,2.8-.7.8-2.4,2.3-2.5,2.4-.5.5-.7.6-.9.8-.6.6-1.4,1.1h-.6a7,7,0,0,1-1.3-1.7,20.7,20.7,0,0,1-1.5-2.5l-1.1-2.1c-.4-.8-1-2-1.6-3.4a19.6,19.6,0,0,0-1.8-3.4v-.2h-1.9l-.5.2a3.5,3.5,0,0,0-2.1,1,3.3,3.3,0,0,0-.8,1.8l.3.4a.5.5,0,0,0,.1-.3,3.3,3.3,0,0,1,.7-1.6,3.7,3.7,0,0,1,1.9-.9h.5l.5-.2h1.1a26.3,26.3,0,0,1,1.7,3.4,29.1,29.1,0,0,0,1.7,3.5,16.8,16.8,0,0,0,1,2l1.5,2.5a6.5,6.5,0,0,0,1.5,1.8h.2l.8-.2a8.1,8.1,0,0,0,1.4-1.2l1.6-1.3,1.2-1.2,2.5-2.4c1.1-1,2.1-2,3.1-3.1l3.1-2.8c1-.9,2.2-1.8,3.4-2.7h.3c2.2,1,3.7,2,4.4,3.1a3.7,3.7,0,0,1-.4,1.1c-.2.5-.5.8-.5.9a7.6,7.6,0,0,1,.3,2.1,8,8,0,0,1-1.2,3.8,21.2,21.2,0,0,1-3.2,3.6l-4.4,3.6c-1.5,1.1-3.4,2.3-5.2,3.4L119.2,93l-.8.3h-.8l-1.6-.5-1.2-.6-1.4-.7-1.2-.6-.8-.5c-.5-.3-.7-.5-.7-.6v-.2a4.9,4.9,0,0,0,.2-1.5,8.9,8.9,0,0,0-.6-3.1c-.4-1-.9-2.3-1.6-3.7a32,32,0,0,1-1.5-3.7,7.9,7.9,0,0,1-.5-3v-.2h-.6v.2c-.1,0-.1.1-.1.2h.4a10.5,10.5,0,0,0,.5,3,35.2,35.2,0,0,0,1.6,3.8l1.4,3.5v.2a7.7,7.7,0,0,1,.5,2.9,4.2,4.2,0,0,1-.1,1.3v.4c0,.3.2.6.9,1l.7.4h.1l.5.2.8.4,1.4.7.3.2.9.4,1.6.5h.1l1-.2c.2-.2.5-.2.8-.3,2.4-1.3,4.4-2.4,6.1-3.5S129.2,87.7,130.8,86.5Z" style="fill: #fff"/>
    <path d="M106.1,73.2v-.9a2.4,2.4,0,0,1,.7-1.3c.2-.4.8-.6,1.6-.8h1.7a12.2,12.2,0,0,1,1.6,3.1,26.6,26.6,0,0,0,1.7,3.4l1,2.1,1.5,2.6c.5.6.9,1.2,1.5,1.8v.2h.2v.3l1.3-.4h.1l1.5-1.2.7-.5a3.4,3.4,0,0,1,.9-.8l.6-.7c.3-.2.5-.3.6-.5l2.5-2.4,2.4-2.3.7-.8,3.1-2.8,3.2-2.6h.1a11.1,11.1,0,0,1,4.1,2.8,5.9,5.9,0,0,1-.4.8c-.1.2-.2.3-.2.5a.9.9,0,0,0-.3.7,6.5,6.5,0,0,1,.2,2,7.2,7.2,0,0,1-1.1,3.6,16.7,16.7,0,0,1-3.1,3.4,56.7,56.7,0,0,1-4.4,3.6,50.2,50.2,0,0,1-5.1,3.4c-1.8,1.1-3.7,2.2-6,3.4a1.6,1.6,0,0,0-.9.3h-.5l-1.5-.5-.8-.4-.4-.2-1.4-.7-.7-.3-.5-.3h-.1l-.7-.4-.4-.3h0a5.1,5.1,0,0,0,.2-1.6,9.5,9.5,0,0,0-.6-3.2v-.2c-.4-1.1-.9-2.2-1.5-3.6a31.2,31.2,0,0,1-1.5-3.6,9.8,9.8,0,0,1-.5-2.9v-.5h0l-.9-.3v.5h.6v.2a7.9,7.9,0,0,0,.5,3,32,32,0,0,0,1.5,3.7c.7,1.4,1.2,2.7,1.6,3.7a8.9,8.9,0,0,1,.6,3.1,4.9,4.9,0,0,1-.2,1.5v.2c0,.1.2.3.7.6l.8.5,1.2.6,1.4.7,1.2.6,1.6.5h.8l.8-.3,6.1-3.4c1.8-1.1,3.7-2.3,5.2-3.4l4.4-3.6a21.2,21.2,0,0,0,3.2-3.6,8,8,0,0,0,1.2-3.8,7.6,7.6,0,0,0-.3-2.1c0-.1.3-.4.5-.9a3.7,3.7,0,0,0,.4-1.1c-.7-1.1-2.2-2.1-4.4-3.1h-.3c-1.2.9-2.4,1.8-3.4,2.7l-3.1,2.8c-1,1.1-2,2.1-3.1,3.1L123.1,79l-1.2,1.2-1.6,1.3a8.1,8.1,0,0,1-1.4,1.2l-.8.2h-.2a6.5,6.5,0,0,1-1.5-1.8l-1.5-2.5a16.8,16.8,0,0,1-1-2,29.1,29.1,0,0,1-1.7-3.5,26.3,26.3,0,0,0-1.7-3.4h-1.1l-.5.2h-.5a3.7,3.7,0,0,0-1.9.9,3.3,3.3,0,0,0-.7,1.6.5.5,0,0,1-.1.3,2.5,2.5,0,0,1,.4.7Z" style="fill: #fff"/>
    <path d="M154.8,75.9h.1l.6-.6.3-.2.5-.4.9-.4,3-.5,2.9-.3h1.1l1.9-.2h1.5l2.1-.2a1.4,1.4,0,0,0,1-.5,10.4,10.4,0,0,0,1.4-1.9c-.1-.3-.1-.6-.2-.9s0-.3-.5-.5l-9.9-.2a88.3,88.3,0,0,0-13.7,1.5l-.5.2H147l-.6.2-1.2,1.2h0v.2a20.5,20.5,0,0,0-3.5,6.3,3.9,3.9,0,0,1-.2.6c-.1.7-.3,1.7-.6,3.2a28.2,28.2,0,0,0-.6,4.7,12.2,12.2,0,0,0,.7,4.1h2.2a18.8,18.8,0,0,0,3.1,1.2,11.7,11.7,0,0,0,3,.5,35.3,35.3,0,0,0,7-.7,25.6,25.6,0,0,0,6.2-1.5l2.3-1.9,1.1-.7c-2.2.6-4.1,1.1-5.8,1.4a30.3,30.3,0,0,1-5.9.6H152a5.2,5.2,0,0,1-3.4-1.5v-.2a.5.5,0,0,1-.3-.5h0l.3-.3.2-.2a13,13,0,0,1,3.3-1.4c1.7-.5,3.5-1,5.5-1.4l3.7-.8h.2a19.7,19.7,0,0,1,3.7-.8l3.4-.6a4.2,4.2,0,0,0,.8-1.4h0a20.8,20.8,0,0,0-3.6-.7c-1.4-.1-3-.3-4.9-.3h-8.4v-.4c-.1,0-.2-.2-.2-.3a1.6,1.6,0,0,1,.5-1.1h.1l1.1-1Z" style="fill: #52ac62"/>
    <path d="M153.4,78.3l1.1-.9a3.5,3.5,0,0,0,.9-1,1.8,1.8,0,0,0,.7-.5l.3-.3.4-.3.6-.3,2.9-.4,2.8-.4h3.1l1.5-.2h2.1a2.8,2.8,0,0,0,1.5-.8,14,14,0,0,0,1.6-2.2h0c0-.4-.1-.8-.1-1.2a1.5,1.5,0,0,0-1.2-1.1l-10.1-.3h0a88.8,88.8,0,0,0-13.9,1.6h-.7a2.1,2.1,0,0,0-1,.4l-1.1,1.1c-.2,0-.4.2-.5.6a25,25,0,0,0-3.6,6.6,2.3,2.3,0,0,1-.1.7c-.1.6-.4,1.7-.6,3.2a22.7,22.7,0,0,0-.7,4.8,14.2,14.2,0,0,0,.8,4.5v.2l.4.2.8.2h1.5l3,1.1a13.9,13.9,0,0,0,3.3.6,60.8,60.8,0,0,0,7.1-.7,36.4,36.4,0,0,0,6.5-1.6h.2a19.4,19.4,0,0,1,2.2-1.9,23.5,23.5,0,0,0,1.9-1.4l.4-.3-.4-.3-.3-.2a1.1,1.1,0,0,0-.7-.2h-.2l-6.1,1.6a36.6,36.6,0,0,1-5.7.5h-2a4.6,4.6,0,0,1-2.8-1.1.1.1,0,0,0-.1-.1,11.5,11.5,0,0,1,3.1-1.3,53.8,53.8,0,0,1,5.4-1.3l3.7-.9h.2a20.1,20.1,0,0,1,3.6-.8l3.6-.6h.2v-.2c.8-1.1,1.1-1.6,1.1-1.9a.8.8,0,0,0-.5-.9,19.5,19.5,0,0,0-3.9-.7,37.3,37.3,0,0,0-5-.3h-7.7c0-.1.1-.2.2-.3Zm-.7.7h1.2l1.4.2h5.5a36.3,36.3,0,0,1,5,.3,19.8,19.8,0,0,1,3.8.7c.1.1.1.2.1.5a4.6,4.6,0,0,1-1,1.7c-.6.1-1.8.4-3.6.6a22.5,22.5,0,0,0-3.6.8l-3.9.8-5.4,1.4a17.5,17.5,0,0,0-3.3,1.3v.2h-.2a.2.2,0,0,0,.2.2v.2a4.7,4.7,0,0,0,3.1,1.3h2.1a29.3,29.3,0,0,0,5.8-.6,63.3,63.3,0,0,0,6.2-1.6l.5.2h.2L165,89.1a19.2,19.2,0,0,0-2.3,1.9,35.2,35.2,0,0,1-6.4,1.6,44.4,44.4,0,0,1-7.1.6,9.8,9.8,0,0,1-3.2-.5c-.8-.2-1.8-.7-3.1-1.2l-.8.2h-.7l-.9-.3a13.2,13.2,0,0,1-.8-4.4,34,34,0,0,1,.7-4.8c.4-2.1.7-3.4.8-3.8a20.9,20.9,0,0,1,3.6-6.5c0-.3,0-.4.2-.5l1.2-1.1.7-.3.7-.2a104.6,104.6,0,0,1,13.9-1.6l10,.3c.5.2.8.4.8.8a4.3,4.3,0,0,1,.2,1.1,9.5,9.5,0,0,1-1.5,2.1,2.4,2.4,0,0,1-1.3.7l-3.6.2-3,.3-2.8.3-3,.5a2,2,0,0,0-.8.4l-.7.5-.6.6a4.9,4.9,0,0,1-1,.9L153,78.1a1.1,1.1,0,0,0-.3.8Z" style="fill: #fff"/>
    <path d="M154.2,77a4.9,4.9,0,0,0,1-.9l.6-.6.7-.5a2,2,0,0,1,.8-.4l3-.5,2.8-.3,3-.3,3.6-.2a2.4,2.4,0,0,0,1.3-.7,9.5,9.5,0,0,0,1.5-2.1,4.3,4.3,0,0,0-.2-1.1c0-.4-.3-.6-.8-.8l-10-.3a104.6,104.6,0,0,0-13.9,1.6l-.7.2-.7.3L145,71.5c-.2.1-.2.2-.2.5a20.9,20.9,0,0,0-3.6,6.5c-.1.4-.4,1.7-.8,3.8a34,34,0,0,0-.7,4.8,13.2,13.2,0,0,0,.8,4.4l.9.3h.7l.8-.2c1.3.5,2.3,1,3.1,1.2a9.8,9.8,0,0,0,3.2.5,44.4,44.4,0,0,0,7.1-.6,35.2,35.2,0,0,0,6.4-1.6,19.2,19.2,0,0,1,2.3-1.9l1.8-1.4h-.2l-.5-.2a63.3,63.3,0,0,1-6.2,1.6,29.3,29.3,0,0,1-5.8.6H152a4.7,4.7,0,0,1-3.1-1.3v-.2a.2.2,0,0,1-.2-.2h.2v-.2a17.5,17.5,0,0,1,3.3-1.3l5.4-1.4,3.9-.8a22.5,22.5,0,0,1,3.6-.8c1.8-.2,3-.5,3.6-.6a4.6,4.6,0,0,0,1-1.7c0-.3,0-.4-.1-.5a19.8,19.8,0,0,0-3.8-.7,36.3,36.3,0,0,0-5-.3h-5.5l-1.4-.2h-1.2a1.1,1.1,0,0,1,.3-.8Zm11.9,10.6Zm-13.4-9.8a1.6,1.6,0,0,0-.5,1.1c0,.1.1.3.2.3v.4h8.4c1.9,0,3.5.2,4.9.3a20.8,20.8,0,0,1,3.6.7h0a4.2,4.2,0,0,1-.8,1.4l-3.4.6a19.7,19.7,0,0,0-3.7.8h-.2l-3.7.8c-2,.4-3.8.9-5.5,1.4a13,13,0,0,0-3.3,1.4l-.2.2-.3.3h0a.5.5,0,0,0,.3.5v.2a5.2,5.2,0,0,0,3.4,1.5h2.1a30.3,30.3,0,0,0,5.9-.6c1.7-.3,3.6-.8,5.8-1.4l-1.1.7-2.3,1.9a25.6,25.6,0,0,1-6.2,1.5,35.3,35.3,0,0,1-7,.7,11.7,11.7,0,0,1-3-.5,18.8,18.8,0,0,1-3.1-1.2h-2.2a12.2,12.2,0,0,1-.7-4.1,28.2,28.2,0,0,1,.6-4.7c.3-1.5.5-2.5.6-3.2a3.9,3.9,0,0,0,.2-.6,20.5,20.5,0,0,1,3.5-6.3v-.2h0l1.2-1.2.6-.2h.3l.5-.2a88.3,88.3,0,0,1,13.7-1.5l9.9.2c.5.2.5.4.5.5s.1.6.2.9a10.4,10.4,0,0,1-1.4,1.9,1.4,1.4,0,0,1-1,.5l-2.1.2h-1.5l-1.9.2h-1.1l-2.9.3-3,.5-.9.4-.5.4-.3.2-.6.6h-.1l-.9.8-1.1,1Z" style="fill: #fff"/>
    <path d="M192.3,82.2,196,82a21.6,21.6,0,0,1,3.4-.8,11.9,11.9,0,0,0,3.2-.6,5.3,5.3,0,0,0,2-1.2,7,7,0,0,0,.3-2.4V75.1a7.8,7.8,0,0,1-.2-1.6,3.8,3.8,0,0,1-.1-1c0-.2-.1-.3-.1-.5s-.5-2.9-.7-4.3a14,14,0,0,0-.8-3.4,4,4,0,0,0-1.5-2.2,23.8,23.8,0,0,0-8.7-4.4,66.7,66.7,0,0,0-10.9-2.3,14.5,14.5,0,0,1-2.5,1l-2.7.8-2.2.7-1.9,1.2a23.2,23.2,0,0,0-.2,2.4,2.8,2.8,0,0,0,.1.9c.1.1.2.2.2.3l1.8.6a2.4,2.4,0,0,1,1,1.3h0v.6a10.5,10.5,0,0,1-.2,1.3V67a1.5,1.5,0,0,0-.1.6h0a8.8,8.8,0,0,0-.2,1.5l-.2,1.3c-.2,1.2-.3,2.1-.4,2.6a3.5,3.5,0,0,1-.1.6c-.4,3.4-.8,7.2-1.2,12.2s-.4,8.3-.4,11.7,0,5.3.2,8.5a2.7,2.7,0,0,0,.6,1.2,3.2,3.2,0,0,0,1,1l1.1.7a7.4,7.4,0,0,0,1.5.8h.5l1.6-10,1.2-.6.2.2a1.2,1.2,0,0,1,.5.5h.2l.8.9,3.5,2.7,4.1,2.9a17.8,17.8,0,0,0,4.1,2.2,18.7,18.7,0,0,0,4,1.1,8.7,8.7,0,0,1,1.7-2.1l2.6-2.1a12.5,12.5,0,0,0,2.4-1.8,1.8,1.8,0,0,0-.3-1.1,69.7,69.7,0,0,1-6.4-3.5,46.1,46.1,0,0,1-4.8-3.6c-1.7-1.4-3.1-2.7-4.4-4l-.5-.6c-1.2-1.4-2.5-2.9-3.8-4.7l-.3-.8a2.4,2.4,0,0,1-.4-1.1h0V84h.1c-.1.1-.1,0-.1-.1v-.3h.3a27.6,27.6,0,0,1,3.7-.8A35.7,35.7,0,0,1,192.3,82.2ZM184.6,80l-1.3.2a2.8,2.8,0,0,1-1.2-.5v-.9a1.5,1.5,0,0,1-.1-.6,21.1,21.1,0,0,1,.2-2.5c.1-.6.3-1.3.4-2.1l.2-1,.3-1.7a3,3,0,0,1,.2-1c.4-1,.8-1.5,1.3-1.7h.2a30.6,30.6,0,0,1,10.7,2.7l1.1.8a4.3,4.3,0,0,1,1.2,1.1l.5,1a1.5,1.5,0,0,1-.7,1.2l-.8.7a41,41,0,0,1-10.9,4Z" style="fill: #52ac62"/>
    <path d="M197.7,73.8l-.3-.8a6.9,6.9,0,0,0-1.2-1l-1-.7a27.6,27.6,0,0,0-10.6-2.6c-.3,0-.7.5-1,1.3s-.3,1.5-.5,2.7-.4,2.2-.6,3.1a19.4,19.4,0,0,0-.2,2.4c0,.1,0,.4.1.5v.6l.9.5,1.2-.2,1.3-.3a37.9,37.9,0,0,0,10.6-4l.9-.7A.9.9,0,0,0,197.7,73.8Zm-.6.5-.9.7a42.5,42.5,0,0,1-10.4,3.9l-1.4.2a2.7,2.7,0,0,1-1.1.3l-.5-.3v-.4h0v-.4a19.3,19.3,0,0,1,.1-2.4,11.2,11.2,0,0,0,.4-2.1l.2-.9q.1-1,.3-1.8a6.4,6.4,0,0,1,.2-.9c.3-.8.6-1,.7-1A27,27,0,0,1,195,71.7l1,.7a4.9,4.9,0,0,1,1,.8l.3.7Z" style="fill: #fff"/>
    <path d="M184.6,84.2a14.8,14.8,0,0,1,3.2-.8l4.6-.4h3.9l3.3-.8a10.2,10.2,0,0,0,3.3-.6,5.1,5.1,0,0,0,2.3-1.5h.1a6.3,6.3,0,0,0,.5-2.8,10.9,10.9,0,0,0-.1-1.8h0c-.1-.6-.1-1.1-.2-1.7s-.1-.7-.1-1v-.5c-.3-1.6-.5-3-.7-4.3a23.7,23.7,0,0,0-.9-3.6,5.9,5.9,0,0,0-1.7-2.6,29.2,29.2,0,0,0-9-4.5,70.2,70.2,0,0,0-11.2-2.4h-.3a17.3,17.3,0,0,1-2.4,1l-2.7.8a8.8,8.8,0,0,0-2.3.7,7.2,7.2,0,0,0-2.2,1.5h-.2a14.8,14.8,0,0,0-.3,2.7,5.9,5.9,0,0,0,.2,1.3h.1a.1.1,0,0,0,.1.1l.2.3h.3a8.5,8.5,0,0,1,1.7.6.8.8,0,0,1,.5.7v.5a9.4,9.4,0,0,1-.1,1.2v1a15.5,15.5,0,0,0-.3,1.6l-.2,1.3a17,17,0,0,0-.3,2.6,1.3,1.3,0,0,0-.1.6c-.5,3.4-.9,7.3-1.2,12.3s-.5,8.3-.5,11.7.1,5.3.3,8.6a3.4,3.4,0,0,0,.7,1.6A6.8,6.8,0,0,0,174,109l1.1.7c1.1.7,1.6,1,2,1a2.4,2.4,0,0,0,1.2-.3h.1l1.5-9.9.4-.2.2.3.2.2.8.7h0l3.6,2.7a34.4,34.4,0,0,0,4.1,3,19.6,19.6,0,0,0,4.3,2.3,21.6,21.6,0,0,0,4.5,1.2h.3v-.2a11.8,11.8,0,0,1,1.7-2.2l2.5-2a11.1,11.1,0,0,0,2.6-2h.2v-.4a3.1,3.1,0,0,0-.5-1.7h-.2a36.6,36.6,0,0,1-6.4-3.5,34.6,34.6,0,0,1-4.7-3.4c-1.7-1.5-3.1-2.7-4.3-4l-.5-.6a42.3,42.3,0,0,1-3.7-4.5l-.4-.8a3.3,3.3,0,0,0-.3-.6h.1C184.5,84.3,184.5,84.2,184.6,84.2Zm-.3,1.1.4.8c1.4,2,2.9,3.6,4.2,5.2a53.1,53.1,0,0,0,4.4,4,41,41,0,0,0,4.7,3.5,45.1,45.1,0,0,0,6.5,3.5,2.6,2.6,0,0,1,.4,1.5v.2a10.9,10.9,0,0,1-2.5,2l-2.6,2a10.2,10.2,0,0,0-1.8,2.3,19.3,19.3,0,0,1-4.4-1.2,17.8,17.8,0,0,1-4.1-2.2,42.3,42.3,0,0,1-4.2-3l-3.5-2.7-.8-.8a2.3,2.3,0,0,0-.7-.7l-.7.4-1.6,10a1.4,1.4,0,0,1-.9.2,9.1,9.1,0,0,1-1.8-.9l-1.1-.8a3.8,3.8,0,0,1-1.1-1.1,3,3,0,0,1-.6-1.4c-.2-3.6-.3-6.4-.3-8.5,0-3.7.2-7.6.5-11.7s.7-8.2,1.2-12.3c.1-.3.2-1.4.5-3.1a17.4,17.4,0,0,1,.4-2.9,5.4,5.4,0,0,1,.1-1.1c.1-.6.2-1,.2-1.2v-.6a1.6,1.6,0,0,0-.8-1l-1.8-.7-.4-.4a3.6,3.6,0,0,1-.2-1.1,26,26,0,0,1,.3-2.6,7.4,7.4,0,0,1,2.2-1.4,8.1,8.1,0,0,1,2.2-.7l2.7-.8a10,10,0,0,0,2.5-1A67,67,0,0,1,193,57.3a26.9,26.9,0,0,1,8.8,4.4,4.6,4.6,0,0,1,1.6,2.4,12.7,12.7,0,0,1,.8,3.6,43,43,0,0,1,.7,4.3c.1.3.1.8.2,1.4s.1,1.3.2,1.9a9.1,9.1,0,0,1,.1,1.7,5.4,5.4,0,0,1-.5,2.6,5.1,5.1,0,0,1-2.1,1.4,12.2,12.2,0,0,1-3.3.6l-3.4.8-3.7.2-4.6.4a19.7,19.7,0,0,0-3.6.8.6.6,0,0,1-.1.4.3.3,0,0,0-.1.2A2.9,2.9,0,0,0,184.3,85.3Z" style="fill: #fff"/>
    <path d="M184.2,83.8a19.7,19.7,0,0,1,3.6-.8l4.6-.4,3.7-.2,3.4-.8a12.2,12.2,0,0,0,3.3-.6,5.1,5.1,0,0,0,2.1-1.4,5.4,5.4,0,0,0,.5-2.6,9.1,9.1,0,0,0-.1-1.7c-.1-.6-.1-1.2-.2-1.9s-.1-1.1-.2-1.4a43,43,0,0,0-.7-4.3,12.7,12.7,0,0,0-.8-3.6,4.6,4.6,0,0,0-1.6-2.4,26.9,26.9,0,0,0-8.8-4.4A67,67,0,0,0,181.8,55a10,10,0,0,1-2.5,1l-2.7.8a8.1,8.1,0,0,0-2.2.7,7.4,7.4,0,0,0-2.2,1.4,26,26,0,0,0-.3,2.6,3.6,3.6,0,0,0,.2,1.1l.4.4,1.8.7a1.6,1.6,0,0,1,.8,1v.6c0,.2-.1.6-.2,1.2a5.4,5.4,0,0,0-.1,1.1,17.4,17.4,0,0,0-.4,2.9c-.3,1.7-.4,2.8-.5,3.1q-.7,6.2-1.2,12.3c-.3,4.1-.5,8-.5,11.7,0,2.1.1,4.9.3,8.5a3,3,0,0,0,.6,1.4,3.8,3.8,0,0,0,1.1,1.1l1.1.8a9.1,9.1,0,0,0,1.8.9,1.4,1.4,0,0,0,.9-.2l1.6-10,.7-.4a2.3,2.3,0,0,1,.7.7l.8.8,3.5,2.7a42.3,42.3,0,0,0,4.2,3,17.8,17.8,0,0,0,4.1,2.2,19.3,19.3,0,0,0,4.4,1.2,10.2,10.2,0,0,1,1.8-2.3l2.6-2a10.9,10.9,0,0,0,2.5-2v-.2a2.6,2.6,0,0,0-.4-1.5,45.1,45.1,0,0,1-6.5-3.5,41,41,0,0,1-4.7-3.5,53.1,53.1,0,0,1-4.4-4c-1.3-1.6-2.8-3.2-4.2-5.2l-.4-.8a2.9,2.9,0,0,1-.3-.9.3.3,0,0,1,.1-.2A.6.6,0,0,0,184.2,83.8Zm-.5-.3v.3c0,.1,0,.2.1.1h-.1v.2h0a2.4,2.4,0,0,0,.4,1.1l.3.8c1.3,1.8,2.6,3.3,3.8,4.7l.5.6c1.3,1.3,2.7,2.6,4.4,4a46.1,46.1,0,0,0,4.8,3.6,69.7,69.7,0,0,0,6.4,3.5,1.8,1.8,0,0,1,.3,1.1,12.5,12.5,0,0,1-2.4,1.8l-2.6,2.1a8.7,8.7,0,0,0-1.7,2.1,18.7,18.7,0,0,1-4-1.1,17.8,17.8,0,0,1-4.1-2.2l-4.1-2.9-3.5-2.7-.8-.9h-.2a1.2,1.2,0,0,0-.5-.5l-.2-.2-1.2.6-1.6,10h-.5a7.4,7.4,0,0,1-1.5-.8l-1.1-.7a3.2,3.2,0,0,1-1-1,2.7,2.7,0,0,1-.6-1.2c-.2-3.2-.2-6-.2-8.5s.1-7.2.4-11.7.8-8.8,1.2-12.2a3.5,3.5,0,0,0,.1-.6c.1-.5.2-1.4.4-2.6l.2-1.3a8.8,8.8,0,0,1,.2-1.5h0a1.5,1.5,0,0,1,.1-.6v-.4a10.5,10.5,0,0,0,.2-1.3v-.6h0a2.4,2.4,0,0,0-1-1.3l-1.8-.6c0-.1-.1-.2-.2-.3a2.8,2.8,0,0,1-.1-.9,23.2,23.2,0,0,1,.2-2.4l1.9-1.2,2.2-.7,2.7-.8a14.5,14.5,0,0,0,2.5-1,66.7,66.7,0,0,1,10.9,2.3,23.8,23.8,0,0,1,8.7,4.4,4,4,0,0,1,1.5,2.2,14,14,0,0,1,.8,3.4c.2,1.4.5,2.8.7,4.3s.1.3.1.5a3.8,3.8,0,0,0,.1,1,7.8,7.8,0,0,0,.2,1.6V77a7,7,0,0,1-.3,2.4,5.3,5.3,0,0,1-2,1.2,11.9,11.9,0,0,1-3.2.6,21.6,21.6,0,0,0-3.4.8l-3.7.2a35.7,35.7,0,0,0-4.6.4,27.6,27.6,0,0,0-3.7.8Z" style="fill: #fff"/>
    <path d="M197.5,75a1.5,1.5,0,0,0,.7-1.2l-.5-1a4.3,4.3,0,0,0-1.2-1.1l-1.1-.8a30.6,30.6,0,0,0-10.7-2.7h-.2c-.5.2-.9.7-1.3,1.7a3,3,0,0,0-.2,1l-.3,1.7-.2,1c-.1.8-.3,1.5-.4,2.1a21.1,21.1,0,0,0-.2,2.5,1.5,1.5,0,0,0,.1.6v.9a2.8,2.8,0,0,0,1.2.5l1.3-.2,1.2-.3a41,41,0,0,0,10.9-4Zm-11.7,4.3-1.3.3-1.2.2-.9-.5v-.6c-.1-.1-.1-.4-.1-.5a19.4,19.4,0,0,1,.2-2.4c.2-.9.4-1.9.6-3.1s.4-2.1.5-2.7.7-1.3,1-1.3a27.6,27.6,0,0,1,10.6,2.6l1,.7a6.9,6.9,0,0,1,1.2,1l.3.8a.9.9,0,0,1-.4.8l-.9.7A37.9,37.9,0,0,1,185.8,79.3Z" style="fill: #fff"/>
    <path d="M53.1,68.9a.7.7,0,0,1,.5-.7l.7-.2h2.5V66.9a14.4,14.4,0,0,0-.6-4.5A7.1,7.1,0,0,1,54,59.8l-1.8-4.3-1.4-.6-5.3,1.6a49.6,49.6,0,0,0-4.7,2.6,35.1,35.1,0,0,0-4.2,3.1c-1.1.9-2.3,2.1-3.8,3.6a53.5,53.5,0,0,0-3.5,5,14.5,14.5,0,0,0-1.9,4.8,25.7,25.7,0,0,0-.9,5.9,15.6,15.6,0,0,0,.9,5,8.8,8.8,0,0,0,2.4,3.8,16.1,16.1,0,0,0,4.1,2.5l5,2.1H39a20.3,20.3,0,0,1,4.2,2.1l.3.2v.3a3,3,0,0,1-.2,1.2V99a24.8,24.8,0,0,1-5.2,4.1c-2.1,1.6-5.1,2.6-9.1,2.9a4.4,4.4,0,0,0,.8,1c2.3,2.2,4.7,3.3,7.1,3.3a6.9,6.9,0,0,0,2.5-.4A95.2,95.2,0,0,0,49,106a17.1,17.1,0,0,0,5.5-4.9V98.3a8.7,8.7,0,0,0-2.3-4.7,15.6,15.6,0,0,0-4.6-2.8L42,88.5a14.6,14.6,0,0,1-4.5-2.9v-.2h0a6.4,6.4,0,0,1-.4-2.2v-.2a10,10,0,0,1,1.7-4.2,13.2,13.2,0,0,1,2.9-3.3q1.9-1.7,3.9-3h.2l2-1L50.3,70a4.7,4.7,0,0,1,2.2-.4h.7c0,.1,0,.1.1.1l-.2-.4Z" style="fill: #52ac62"/>
    <path d="M54.6,72.1l.9,3.7h.2a5.1,5.1,0,0,0,.2-1.3l.3-1.4h0a2.7,2.7,0,0,1-1.4-.7Z" style="fill: #52ac62"/>
    <path d="M56.7,68.8H54.4L54,69v.3l.5,1a4.8,4.8,0,0,0,.9,1.3,1.9,1.9,0,0,0,.9.5,20.7,20.7,0,0,0,.4-2.2Z" style="fill: #52ac62"/>
    <path d="M54.4,71l.2,1.1h.2a2.7,2.7,0,0,0,1.4.7.6.6,0,0,1,.1-.4,3.1,3.1,0,0,1-1.3-.6A3.5,3.5,0,0,1,54.4,71Z" style="fill: #52ac62"/>
    <path d="M53.8,69.7c-.1-.2-.2-.3-.2-.4v-.4c0-.1,0-.3.1-.3l.6-.2h2.5V68H54.3l-.7.2a.7.7,0,0,0-.5.7v.4l.2.4h.5Z" style="fill: #52ac62"/>
    <path d="M54.5,70.3l-.5-1V69l.4-.2h2.3a.6.6,0,0,1,.1-.4H54.3l-.6.2c-.1,0-.1.2-.1.3v.4c0,.1.1.2.2.4h.4v.5l.2.8a3.5,3.5,0,0,0,.6.9,3.1,3.1,0,0,0,1.3.6v-.4a1.9,1.9,0,0,1-.9-.5A4.8,4.8,0,0,1,54.5,70.3ZM53.9,69Z" style="fill: #52ac62"/>
    <path d="M56.8,73.1a30.3,30.3,0,0,1-.6,3.2H55l-1.4-5.9H52.5a4.1,4.1,0,0,0-1.9.4L48,71.9a10,10,0,0,1-2.2,1l-3.8,3A14.2,14.2,0,0,0,39.2,79a11.3,11.3,0,0,0-1.6,4.1,7.9,7.9,0,0,0,.4,2,13.3,13.3,0,0,0,4.3,2.8l5.6,2.3a17.8,17.8,0,0,1,4.8,3,8.7,8.7,0,0,1,2.4,5,27.3,27.3,0,0,1,.1,3.1,18,18,0,0,1-5.9,5.2,101.5,101.5,0,0,1-9.8,4.1,10.3,10.3,0,0,1-2.7.4c-2.6,0-5.1-1.2-7.5-3.5a9.4,9.4,0,0,1-1.4-1.8c0-.1,0-.1.1-.2h.1c4.2-.2,7.3-1.2,9.5-2.9a24.3,24.3,0,0,0,5.2-3.9,3.8,3.8,0,0,0,.1-1,22.4,22.4,0,0,0-4.1-2l-5.1-2.2a16.4,16.4,0,0,1-4.3-2.6,9.8,9.8,0,0,1-2.7-4.1,20,20,0,0,1-.8-5.2,30.6,30.6,0,0,1,.8-6,16.4,16.4,0,0,1,2.1-5,50.7,50.7,0,0,1,3.6-5.2c1.2-1.2,2.5-2.5,3.8-3.6a37.7,37.7,0,0,1,4.2-3.1,38.7,38.7,0,0,1,5-2.7l5.4-1.6,1.9.7a35.8,35.8,0,0,0,1.9,4.5A6.4,6.4,0,0,0,56.7,62a14.1,14.1,0,0,1,.7,4.9V68H58a4.5,4.5,0,0,0,.1-1.1,14.3,14.3,0,0,0-.8-5.1v-.2l-.2-.2a6.2,6.2,0,0,1-2-2.2c-.5-1-1-2.3-1.8-4.4v-.2l-2.3-1-5.8,1.7a37.6,37.6,0,0,0-5,2.7,53.4,53.4,0,0,0-4.3,3.2c-1.1,1-2.4,2.1-4,3.7l-3.6,5.2a17.7,17.7,0,0,0-2.1,5.3,28,28,0,0,0-.8,6.1,17.7,17.7,0,0,0,.8,5.4A10,10,0,0,0,29,91.2,14.2,14.2,0,0,0,33.4,94l5,2.1h.1A21.3,21.3,0,0,1,42.2,98v.2a20.5,20.5,0,0,1-5,3.8c-2,1.6-5,2.5-9.1,2.8l-.6.3a.6.6,0,0,0-.3.6v.2h.1l.4.6a5.2,5.2,0,0,0,1.1,1.3c2.6,2.5,5.2,3.7,8,3.7a9.2,9.2,0,0,0,2.9-.4,94.9,94.9,0,0,0,9.9-4.1,18.5,18.5,0,0,0,6.1-5.4V98.1a9.9,9.9,0,0,0-2.7-5.4,15.5,15.5,0,0,0-5-3l-5.6-2.3a16.3,16.3,0,0,1-4-2.6,11.1,11.1,0,0,1-.2-1.7,9.6,9.6,0,0,1,1.5-3.7,12.8,12.8,0,0,1,2.6-3l3.7-2.9,2.2-1a12.3,12.3,0,0,1,2.6-1.3,3.4,3.4,0,0,1,1.6-.4H53l1.4,5.5v.5h.3a1.3,1.3,0,0,0,1.3.1h.7v-.5c.1-.5.2-1.2.3-1.8a5.9,5.9,0,0,0,.2-1.4h-.6Z" style="fill: #fff"/>
    <path d="M57.3,69.9,57,72.2h.6l.3-2.3a4.9,4.9,0,0,0,.1-1.2h-.6A4.5,4.5,0,0,0,57.3,69.9Z" style="fill: #fff"/>
    <path d="M56.9,72.7c0,.1-.1.2-.1.4h.7v-.5Z" style="fill: #fff"/>
    <path d="M57.4,68.4H58V68h-.6Z" style="fill: #fff"/>
    <path d="M58,68.8v-.4h-.6v.4Z" style="fill: #fff"/>
    <path d="M57,72.2a.9.9,0,0,0-.1.5h.6c0-.1.1-.3.1-.4Z" style="fill: #fff"/>
    <path d="M56.2,72.9h0l-.3,1.4a5.1,5.1,0,0,1-.2,1.3h-.2l-.9-3.7-.9-1.4-.4-1h0c-.1,0-.1,0-.1-.1h-.7a4.7,4.7,0,0,0-2.2.4l-2.6,1.3-2,1h-.2q-1.9,1.3-3.9,3a13.2,13.2,0,0,0-2.9,3.3A10,10,0,0,0,37,82.9v.2a6.4,6.4,0,0,0,.4,2.2h0v.2A14.6,14.6,0,0,0,42,88.5l5.6,2.3a15.6,15.6,0,0,1,4.6,2.8,8.7,8.7,0,0,1,2.3,4.7v2.8A17.1,17.1,0,0,1,49,106a95.2,95.2,0,0,1-9.7,3.9,6.9,6.9,0,0,1-2.5.4c-2.4,0-4.8-1.1-7.1-3.3a4.4,4.4,0,0,1-.8-1c4-.3,7-1.3,9.1-2.9A24.8,24.8,0,0,0,43.2,99v-.2a3,3,0,0,0,.2-1.2v-.3l-.3-.2A20.3,20.3,0,0,0,39,95h-.1l-5-2.1a16.1,16.1,0,0,1-4.1-2.5,8.8,8.8,0,0,1-2.4-3.8,15.6,15.6,0,0,1-.9-5,25.7,25.7,0,0,1,.9-5.9,14.5,14.5,0,0,1,1.9-4.8,53.5,53.5,0,0,1,3.5-5c1.5-1.5,2.7-2.7,3.8-3.6a35.1,35.1,0,0,1,4.2-3.1,49.6,49.6,0,0,1,4.7-2.6l5.3-1.6,1.4.6L54,59.8a7.1,7.1,0,0,0,2.2,2.6,14.4,14.4,0,0,1,.6,4.5V68h.6V66.9a14.1,14.1,0,0,0-.7-4.9,6.4,6.4,0,0,1-2.1-2.5A35.8,35.8,0,0,1,52.7,55l-1.9-.7-5.4,1.6a38.7,38.7,0,0,0-5,2.7,37.7,37.7,0,0,0-4.2,3.1c-1.3,1.1-2.6,2.4-3.8,3.6a50.7,50.7,0,0,0-3.6,5.2,16.4,16.4,0,0,0-2.1,5,30.6,30.6,0,0,0-.8,6,20,20,0,0,0,.8,5.2,9.8,9.8,0,0,0,2.7,4.1,16.4,16.4,0,0,0,4.3,2.6l5.1,2.2a22.4,22.4,0,0,1,4.1,2,3.8,3.8,0,0,1-.1,1,24.3,24.3,0,0,1-5.2,3.9c-2.2,1.7-5.3,2.7-9.5,2.9H28c-.1.1-.1.1-.1.2a9.4,9.4,0,0,0,1.4,1.8c2.4,2.3,4.9,3.5,7.5,3.5a10.3,10.3,0,0,0,2.7-.4,101.5,101.5,0,0,0,9.8-4.1,18,18,0,0,0,5.9-5.2,27.3,27.3,0,0,0-.1-3.1,8.7,8.7,0,0,0-2.4-5,17.8,17.8,0,0,0-4.8-3l-5.6-2.3A13.3,13.3,0,0,1,38,85.1a7.9,7.9,0,0,1-.4-2A11.3,11.3,0,0,1,39.2,79,14.2,14.2,0,0,1,42,75.9l3.8-3a10,10,0,0,0,2.2-1l2.6-1.3a4.1,4.1,0,0,1,1.9-.4h1.1L55,76.3h1.2a30.3,30.3,0,0,0,.6-3.2h-.1Zm-28,33.2Z" style="fill: #fff"/>
    <path d="M57.4,68.8h-.7v1.1a20.7,20.7,0,0,1-.4,2.2H57l.3-2.3A4.5,4.5,0,0,1,57.4,68.8Z" style="fill: #fff"/>
    <path d="M56.3,72.5a.6.6,0,0,0-.1.4l.5.2h.1c0-.2.1-.3.1-.4h-.6Z" style="fill: #fff"/>
    <path d="M54.1,70.5l-.3-.8h-.5l.4,1,.9,1.4L54.4,71Z" style="fill: #fff"/>
    <path d="M56.8,68.4h.6V68h-.6Z" style="fill: #fff"/>
    <path d="M56.8,72.2h-.5v.4h.6a.9.9,0,0,1,.1-.5Z" style="fill: #fff"/>
    <path d="M54.4,71l-.2-.8v-.5h-.4l.3.8Z" style="fill: #fff"/>
    <path d="M56.7,68.8h.7v-.4h-.6A.6.6,0,0,0,56.7,68.8Z" style="fill: #fff"/>
    <path d="M102.3,70.9l-2.2-1.4-.4-.2-.4-.2-.7-.3H95a3.9,3.9,0,0,0-1,.8,4,4,0,0,0-1,1.2l-.9,1.1a4.5,4.5,0,0,0-.9,1.4v.2h-.1c-.2.2-.5.4-.6.7l-.6.7-.6,1.3a3.5,3.5,0,0,0,1,1.7,3.3,3.3,0,0,1,.9,2.7,6.3,6.3,0,0,1-.3,1.9c-.2.7-.5,1.6-.8,2.4l-.2.3-.5,1.6a6.8,6.8,0,0,0-.2,1.4.8.8,0,0,1-.1.4h0a4.4,4.4,0,0,0,.3,1.4,5.4,5.4,0,0,0,1.1,1.4,5.2,5.2,0,0,0,1.8,1,9.8,9.8,0,0,0,2.6.5h.5l.3-.5,1.4-2.6,1.5-2.8c.5-.9.9-1.8,1.4-2.6l1-2.1c.5-.9,1-1.8,1.4-2.7l1.2-2.3,1.6-3.2v-.8a2.4,2.4,0,0,0-.6-.8A17.2,17.2,0,0,0,102.3,70.9Z" style="fill: #52ac62"/>
    <path d="M105.2,74.2h.1v-.4c0-.2-.1-.3-.1-.4v.8Z" style="fill: #52ac62"/>
    <path d="M88.9,76.3a6.7,6.7,0,0,1,.6-1.6,1.4,1.4,0,0,0,.6-.7l.7-.7a5.4,5.4,0,0,1,1-1.7l.8-1.1,1.1-1.3a5,5,0,0,1,1.2-.8h3.7l.9.4.8.3,2.2,1.5a16.3,16.3,0,0,1,2.4,1.6l.4.5h0v-.2h0l-.2-.3-2.5-1.7-2.1-1.4h-.5l-.4-.2-.9-.4H94.7l-1.3.9a7.6,7.6,0,0,0-1.1,1.4l-.8,1.1A5.7,5.7,0,0,0,90.4,73l-.7.8a1,1,0,0,1-.5.6h0a8.5,8.5,0,0,0-.7,1.5l.4.4Z" style="fill: #fff"/>
    <path d="M102.8,79.9c-.8,1.6-1.6,3.2-2.5,4.8s-1.7,3.4-2.8,5.4l-1.8,3.3h-.8a11.2,11.2,0,0,1-2.7-.5,5.5,5.5,0,0,1-2-1.1A6.1,6.1,0,0,1,89,90.2a4.7,4.7,0,0,1-.4-1.6h.1v-.2a3.9,3.9,0,0,1,.2-1.5,6.8,6.8,0,0,1,.7-2c.3-.9.6-1.6.8-2.3a6.7,6.7,0,0,0,.3-1.8,3.2,3.2,0,0,0-.8-2.4c0-.1-.1-.1-.1-.2a7,7,0,0,1,.6,2.3,2,2,0,0,1-.2,1.1,2.9,2.9,0,0,1-.2.9c-.2.7-.5,1.5-.8,2.3V85a4.3,4.3,0,0,0-.6,1.7,4,4,0,0,0-.3,1.5.6.6,0,0,0-.1.4,4.5,4.5,0,0,0,.4,1.8,5.9,5.9,0,0,0,1.3,1.7A7.2,7.2,0,0,0,92,93.3a12.6,12.6,0,0,0,2.9.5h1v-.2l.4-.7,1.5-2.6c.5-1,1-1.9,1.4-2.8l1.4-2.6,1.1-2.1,1.4-2.7c.4-.7.7-1.5,1.1-2.3l1.7-3.1-.4-.2Z" style="fill: #fff"/>
    <path d="M89.9,78.1c-.6-.7-1-1.2-1-1.7l-.4-.4v.6l.4.4.6,1.3.2.3a2.5,2.5,0,0,1,.7,2.1,2.2,2.2,0,0,1-.1.8,2,2,0,0,0,.2-1.1A7,7,0,0,0,89.9,78.1Z" style="fill: #fff"/>
    <path d="M88.9,77l-.4-.4a3.9,3.9,0,0,0,1,1.7Z" style="fill: #fff"/>
    <path d="M106.1,73.3h0v.5h.1Z" style="fill: #fff"/>
    <path d="M105.4,72.4v.2h0a.9.9,0,0,1,.3.7c0-.1,0-.1.1-.2v-.6h0l-.3-.4h0Z" style="fill: #fff"/>
    <path d="M106.1,74.3l-.4-.2v.2a.3.3,0,0,1-.1.2l.4.2c0-.1,0-.2.1-.2Z" style="fill: #fff"/>
    <path d="M105.7,73.2c-.1.1-.1.1-.1.2s.1.2.1.4v.3l.4.2v-.5H106v-.5h0a2.5,2.5,0,0,0-.4-.7h0Z" style="fill: #fff"/>
    <path d="M105.4,74.4c-.1,0-.1-.1-.2-.2l-1.6,3.2-1.2,2.3c-.4.9-.9,1.8-1.4,2.7l-1,2.1c-.5.8-.9,1.7-1.4,2.6l-1.5,2.8-1.4,2.6-.3.5h-.5a9.8,9.8,0,0,1-2.6-.5,5.2,5.2,0,0,1-1.8-1,5.4,5.4,0,0,1-1.1-1.4,4.4,4.4,0,0,1-.3-1.4h0a.8.8,0,0,0,.1-.4,6.8,6.8,0,0,1,.2-1.4l.5-1.6.2-.3c.3-.8.6-1.7.8-2.4a6.3,6.3,0,0,0,.3-1.9,3.3,3.3,0,0,0-.9-2.7,3.5,3.5,0,0,1-1-1.7l.6-1.3.6-.7c.1-.3.4-.5.6-.7h.1v-.2a4.5,4.5,0,0,1,.9-1.4l.9-1.1a4,4,0,0,1,1-1.2,3.9,3.9,0,0,1,1-.8h3.6l.7.3.4.2.4.2,2.2,1.4a17.2,17.2,0,0,1,2.3,1.7,2.4,2.4,0,0,1,.6.8v-.3a.4.4,0,0,0,.1-.3h0l-.4-.5a16.3,16.3,0,0,0-2.4-1.6l-2.2-1.5-.8-.3-.9-.4H94.9a5,5,0,0,0-1.2.8l-1.1,1.3-.8,1.1a5.4,5.4,0,0,0-1,1.7l-.7.7a1.4,1.4,0,0,1-.6.7,6.7,6.7,0,0,0-.6,1.6h0l.3.3h.1l.6,1.3c0,.1.1.1.1.2a3.2,3.2,0,0,1,.8,2.4,6.7,6.7,0,0,1-.3,1.8c-.2.7-.5,1.4-.8,2.3a6.8,6.8,0,0,0-.7,2,3.9,3.9,0,0,0-.2,1.5v.2h-.1a4.7,4.7,0,0,0,.4,1.6,6.1,6.1,0,0,0,1.2,1.6,5.5,5.5,0,0,0,2,1.1,11.2,11.2,0,0,0,2.7.5h.8l1.8-3.3c1.1-2,2-3.8,2.8-5.4s1.7-3.2,2.5-4.8l2.8-5.4h-.2Z" style="fill: #fff"/>
    <path d="M89.2,76.7l-.3-.3c0,.5.4,1,1,1.7l-.6-1.3Z" style="fill: #fff"/>
    <path d="M105.6,73.6v-.2a.9.9,0,0,0-.3-.7h0a.4.4,0,0,1-.1.3v.3c0,.1.1.2.1.4v.4h-.1c.1.1.1.2.2.2h.2a.3.3,0,0,0,.1-.2v-.2h0C105.6,74.1,105.6,73.9,105.6,73.6Z" style="fill: #fff"/>
    <path d="M105.6,73.4v.2c0,.3,0,.5.1.5h0v-.3C105.7,73.6,105.7,73.5,105.6,73.4Z" style="fill: #fff"/>
    <rect x="19.5" y="42.7" width="71.8" height="1.59" style="fill: #91785f"/>
    <rect x="19.5" y="47.5" width="73.6" height="1.59" style="fill: #91785f"/>
    <rect x="19.5" y="38.3" width="73.6" height="1.59" style="fill: #91785f"/>
    <rect x="153.7" y="42.7" width="71.8" height="1.59" style="fill: #91785f"/>
    <rect x="151.9" y="47.5" width="73.6" height="1.59" style="fill: #91785f"/>
    <rect x="151.9" y="38.3" width="73.6" height="1.59" style="fill: #91785f"/>
    <path d="M226.9,21h.6c.6,0,.9.2,1,.7s.2,1.1.4,1.2h1.2a3.5,3.5,0,0,1-.4-1.2,1.5,1.5,0,0,0-.8-1.2h0a1.4,1.4,0,0,0,1-1.2,1.1,1.1,0,0,0-.5-1,2.5,2.5,0,0,0-1.7-.4h-1.9v4.9h1.1Zm.1-2.2h.6c.7,0,1,.3,1,.8s-.5.7-1.1.7H227Z" style="fill: #52ac62"/>
    <path d="M227.7,25.3a4.9,4.9,0,1,0-5.1-4.9A5,5,0,0,0,227.7,25.3Zm0-8.8a3.8,3.8,0,0,1,3.8,3.9,3.7,3.7,0,0,1-3.8,3.9,3.9,3.9,0,0,1,0-7.8Z" style="fill: #52ac62"/>
  </g>
</svg>
