<svg xmlns="http://www.w3.org/2000/svg" viewBox="0 0 70.2 70.2"><defs><style>.cls-1{fill:#F36E2C;}.cls-2{fill:#fff;}</style></defs><g id="Слой_2" data-name="Слой 2"><g id="Слой_3" data-name="Слой 3"><path class="cls-1" d="M35.1,66.9A31.8,31.8,0,1,1,66.9,35.1,31.84,31.84,0,0,1,35.1,66.9Zm0-62A30.2,30.2,0,1,0,65.3,35.1,30.24,30.24,0,0,0,35.1,4.9Z"/><path class="cls-1" d="M35.1,70.2A35.1,35.1,0,1,1,70.2,35.1,35.15,35.15,0,0,1,35.1,70.2Zm0-68A32.9,32.9,0,1,0,68,35.1,32.94,32.94,0,0,0,35.1,2.2Z"/><path class="cls-2" d="M33.42,30.19v19.6H28.33V39.37H19V49.82H13.91V30.19a9.76,9.76,0,0,1,19.51,0Zm-5.09,4.1v-4.1a4.67,4.67,0,1,0-9.34,0v4.1Z"/><path class="cls-2" d="M51.21,40h5.08a9.77,9.77,0,1,1-19.54,0V30.15a9.77,9.77,0,1,1,19.54,0H51.21a4.69,4.69,0,0,0-9.38,0V40a4.69,4.69,0,1,0,9.38,0Z"/></g></g></svg>