<svg width="20" height="18" viewBox="0 0 20 18" fill="none" xmlns="http://www.w3.org/2000/svg">
<path d="M9.66684 0L9.99135 0.998741H11.0415L10.1919 1.616L10.5164 2.61474L9.66684 1.99748L8.81726 2.61474L9.14177 1.616L8.29219 0.998741H9.34233L9.66684 0Z" fill="#E8BD0C"/>
<path d="M9.66684 14.7922L9.99135 15.7909H11.0415L10.1919 16.4082L10.5164 17.4069L9.66684 16.7897L8.81726 17.4069L9.14177 16.4082L8.29219 15.7909H9.34233L9.66684 14.7922Z" fill="#E8BD0C"/>
<path d="M5.69985 0.984353L6.02436 1.98309H7.07449L6.22491 2.60035L6.54943 3.59909L5.69985 2.98184L4.85027 3.59909L5.17478 2.60035L4.3252 1.98309H5.37533L5.69985 0.984353Z" fill="#E8BD0C"/>
<path d="M13.6365 0.984353L13.961 1.98309H15.0112L14.1616 2.60035L14.4861 3.59909L13.6365 2.98184L12.7869 3.59909L13.1115 2.60035L12.2619 1.98309H13.312L13.6365 0.984353Z" fill="#E8BD0C"/>
<path d="M5.69985 13.7467L6.02436 14.7454H7.07449L6.22491 15.3627L6.54943 16.3614L5.69985 15.7441L4.85027 16.3614L5.17478 15.3627L4.3252 14.7454H5.37533L5.69985 13.7467Z" fill="#E8BD0C"/>
<path d="M13.6365 13.7467L13.961 14.7454H15.0112L14.1616 15.3627L14.4861 16.3614L13.6365 15.7441L12.7869 16.3614L13.1115 15.3627L12.2619 14.7454H13.312L13.6365 13.7467Z" fill="#E8BD0C"/>
<path d="M2.93236 11.0404L3.25687 12.0391H4.30701L3.45743 12.6564L3.78194 13.6551L2.93236 13.0378L2.08278 13.6551L2.40729 12.6564L1.55771 12.0391H2.60785L2.93236 11.0404Z" fill="#E8BD0C"/>
<path d="M2.93236 3.72091L3.25687 4.71965H4.30701L3.45743 5.33691L3.78194 6.33565L2.93236 5.71839L2.08278 6.33565L2.40729 5.33691L1.55771 4.71965H2.60785L2.93236 3.72091Z" fill="#E8BD0C"/>
<path d="M1.70326 7.28852L2.02777 8.28726H3.07791L2.22833 8.90452L2.55284 9.90326L1.70326 9.286L0.853683 9.90326L1.17819 8.90452L0.328613 8.28726H1.37875L1.70326 7.28852Z" fill="#E8BD0C"/>
<path d="M16.404 11.0404L16.7285 12.0391H17.7787L16.9291 12.6564L17.2536 13.6551L16.404 13.0378L15.5544 13.6551L15.8789 12.6564L15.0294 12.0391H16.0795L16.404 11.0404Z" fill="#E8BD0C"/>
<path d="M16.404 3.72091L16.7285 4.71965H17.7787L16.9291 5.33691L17.2536 6.33565L16.404 5.71839L15.5544 6.33565L15.8789 5.33691L15.0294 4.71965H16.0795L16.404 3.72091Z" fill="#E8BD0C"/>
<path d="M17.6331 7.28852L17.9576 8.28726H19.0078L18.1582 8.90452L18.4827 9.90326L17.6331 9.286L16.7835 9.90326L17.108 8.90452L16.2585 8.28726H17.3086L17.6331 7.28852Z" fill="#E8BD0C"/>
</svg>
