<svg width="19" height="18" viewBox="0 0 19 18" fill="none" xmlns="http://www.w3.org/2000/svg">
<path d="M12.1187 15.5597C14.1188 15.5597 15.7668 14.8877 17.0628 13.5437L18.2148 14.6717C17.4628 15.4877 16.5588 16.1037 15.5028 16.5197C14.4468 16.9357 13.2868 17.1437 12.0228 17.1437C10.6308 17.1437 9.34275 16.8797 8.15875 16.3517C6.97475 15.8077 5.97475 15.0557 5.15875 14.0957C4.35875 13.1357 3.80675 12.0317 3.50275 10.7837H0.71875V9.72766H3.31075C3.26275 9.35966 3.23875 8.98366 3.23875 8.59966C3.23875 8.19966 3.26275 7.82366 3.31075 7.47166H0.71875V6.41566H3.50275C3.80675 5.16766 4.35875 4.06366 5.15875 3.10366C5.97475 2.14366 6.97475 1.39966 8.15875 0.871664C9.34275 0.327664 10.6308 0.0556641 12.0228 0.0556641C13.2868 0.0556641 14.4468 0.263664 15.5028 0.679665C16.5588 1.09566 17.4628 1.70366 18.2148 2.50366L17.0628 3.63166C15.7508 2.30366 14.1027 1.63966 12.1187 1.63966C10.4868 1.63966 9.05475 2.07966 7.82275 2.95966C6.60675 3.83966 5.78275 4.99166 5.35075 6.41566H13.5828V7.47166H5.08675C5.03875 7.82366 5.01475 8.19966 5.01475 8.59966C5.01475 8.98366 5.03875 9.35966 5.08675 9.72766H13.5828V10.7837H5.35075C5.78275 12.2077 6.60675 13.3597 7.82275 14.2397C9.05475 15.1197 10.4868 15.5597 12.1187 15.5597Z" fill="black"/>
</svg>
