<svg width="24" height="24" viewBox="0 0 24 24" fill="none" xmlns="http://www.w3.org/2000/svg">
<path fill-rule="evenodd" clip-rule="evenodd" d="M1.32414 0.707078C1.71467 0.316553 2.34783 0.316553 2.73836 0.707078L11.9071 9.8758L20.8787 0.904193C20.8802 0.902722 20.8816 0.901257 20.8831 0.899797L20.9112 0.871711C21.3017 0.481187 21.9349 0.481187 22.3254 0.871712C22.7159 1.26224 22.7159 1.8954 22.3254 2.28593L14.4628 10.1485C14.4613 10.15 14.4599 10.1515 14.4584 10.1529L13.3213 11.29L23.3241 21.2929C23.333 21.3017 23.3417 21.3108 23.3502 21.3199L23.3554 21.3251C23.7459 21.7156 23.7459 22.3488 23.3554 22.7393C22.9649 23.1298 22.3317 23.1298 21.9412 22.7393L14.0786 14.8767C14.0697 14.8678 14.061 14.8588 14.0526 14.8497L11.9071 12.7042L1.70711 22.9042C1.31658 23.2947 0.683417 23.2947 0.292893 22.9042C-0.0976311 22.5137 -0.0976311 21.8805 0.292893 21.49L10.4929 11.29L1.32414 2.12129C0.933619 1.73077 0.933619 1.0976 1.32414 0.707078Z" fill="white"/>
</svg>
