<svg width="25" height="28" viewBox="0 0 25 28" fill="none" xmlns="http://www.w3.org/2000/svg">
<path fill-rule="evenodd" clip-rule="evenodd" d="M0.685484 12.419C0.685484 5.75595 6.08695 0.354492 12.75 0.354492C19.413 0.354492 24.8145 5.75596 24.8145 12.419V15.1851H22.8145V12.419C22.8145 6.86053 18.3085 2.35449 12.75 2.35449C7.19152 2.35449 2.68548 6.86052 2.68548 12.419V15.5803C2.68548 21.1388 7.19152 25.6448 12.75 25.6448V27.6448C6.08695 27.6448 0.685484 22.2433 0.685484 15.5803V12.419Z" fill="#9BA8B8"/>
<path fill-rule="evenodd" clip-rule="evenodd" d="M4.05645 17.5319C4.55952 17.5319 5.6129 16.8752 5.6129 15.1851C5.6129 13.4951 4.55952 12.8384 4.05645 12.8384C3.55338 12.8384 2.5 13.4951 2.5 15.1851C2.5 16.8752 3.55338 17.5319 4.05645 17.5319ZM4.05645 19.5319C6.02063 19.5319 7.6129 17.5858 7.6129 15.1851C7.6129 12.7845 6.02063 10.8384 4.05645 10.8384C2.09228 10.8384 0.5 12.7845 0.5 15.1851C0.5 17.5858 2.09228 19.5319 4.05645 19.5319Z" fill="#9BA8B8"/>
<path fill-rule="evenodd" clip-rule="evenodd" d="M21.4435 17.5319C21.9466 17.5319 23 16.8752 23 15.1851C23 13.4951 21.9466 12.8384 21.4435 12.8384C20.9405 12.8384 19.8871 13.4951 19.8871 15.1851C19.8871 16.8752 20.9405 17.5319 21.4435 17.5319ZM21.4435 19.5319C23.4077 19.5319 25 17.5858 25 15.1851C25 12.7845 23.4077 10.8384 21.4435 10.8384C19.4794 10.8384 17.8871 12.7845 17.8871 15.1851C17.8871 17.5858 19.4794 19.5319 21.4435 19.5319Z" fill="#9BA8B8"/>
</svg>
