<svg xmlns="http://www.w3.org/2000/svg" viewBox="0 0 68.2 68.2"><path d="M32.9,43.6a9.2,9.2,0,0,0,5.6-.9,10,10,0,0,0,5.9-9.2,10.3,10.3,0,0,0-2.3-6.7h-.2a.3.3,0,0,1-.1.2,6.2,6.2,0,0,1-3,3,9.6,9.6,0,0,1-4.9,1.2H27.7a6,6,0,0,0-3.2.7,1.4,1.4,0,0,0-.8,1.3,10,10,0,0,0,3.1,7.3A9.3,9.3,0,0,0,32.9,43.6Z"/><path d="M34.1,0h-.6A34.1,34.1,0,0,0,0,34.3v.9a1.9,1.9,0,0,0,.1.8v.7c0,.4.1.7.1,1.1a1.1,1.1,0,0,0,.1.5c0,.4.1.8.1,1.1a4.3,4.3,0,0,0,.1.5c.1.4.1.8.2,1.2a.6.6,0,0,1,.1.4l.3,1.2c0,.2.1.3.1.4a5.6,5.6,0,0,0,.4,1.2.4.4,0,0,0,.1.3l.4,1.3c0,.1.1.1.1.2a5.8,5.8,0,0,1,.5,1.4c.1,0,.1,0,.1.1L3.4,49h.1a6.1,6.1,0,0,0,.7,1.4h0a34.8,34.8,0,0,0,5.9,7.8h0a34.4,34.4,0,0,0,23.8,10H34a34.6,34.6,0,0,0,24-9.8h0a11.4,11.4,0,0,0,1.1-1.1h.1l1-1.2h.1l.9-1.3h.1l.9-1.3h.1l.8-1.3h.1l.8-1.3v-.2a5.4,5.4,0,0,0,.7-1.3.3.3,0,0,0,.1-.2l.6-1.3c0-.1.1-.1.1-.2s.3-.9.5-1.3.1-.2.1-.3.3-.9.5-1.3a.4.4,0,0,1,.1-.3l.3-1.3a.6.6,0,0,0,.1-.4l.3-1.2c0-.2.1-.3.1-.5a5,5,0,0,0,.2-1.2c0-.2.1-.3.1-.5a4.9,4.9,0,0,0,.1-1.2,1.1,1.1,0,0,0,.1-.5c0-.5.1-.9.1-1.3v-.5a10.9,10.9,0,0,0,.1-1.8A34.1,34.1,0,0,0,34.1,0Zm-12,21.9a14.3,14.3,0,0,1,10.7-7.1h2.4l1,.2a14.1,14.1,0,0,1,8.4,5A17.2,17.2,0,0,1,48.4,29,17.7,17.7,0,0,1,46,40.7a13.6,13.6,0,0,1-8.8,6.7,12.5,12.5,0,0,1-10.6-1.9,16.6,16.6,0,0,1-6.9-12A18.2,18.2,0,0,1,22.1,21.9ZM54.8,54.5A29.1,29.1,0,0,1,34,63.2h-.1a28.9,28.9,0,0,1-20.3-8.6,8,8,0,0,1-1.3-1.3L13.5,52a11.8,11.8,0,0,1,8.7-3.5h.3c1.2,0,1.4.2,1.6,1.4a10,10,0,0,0,12.3,8.4,10.1,10.1,0,0,0,7.7-8.5c.1-1,.4-1.3,1.5-1.3a12,12,0,0,1,7.3,2.1,13.1,13.1,0,0,1,3,2.7Z"/></svg>