<svg xmlns="http://www.w3.org/2000/svg" viewBox="0 0 96.51979 89.15909">
  <defs>
    <style>
      .a {
        fill: #48443e;
      }

      .b {
        fill: #d5d5d5;
      }
    </style>
  </defs>
  <title>advant</title>
  <g>
    <path class="a" d="M25.2419,22.82065l-9.025-12.716a45.07426,45.07426,0,0,0-5.483,5.387l12.573,9.228q.9225-.993,1.935-1.899"/>
    <path class="a" d="M41.499,15.585V0A44.39077,44.39077,0,0,0,21.657,6.254l9.028,12.719a28.91389,28.91389,0,0,1,10.814-3.388"/>
    <path class="a" d="M66.6809,25.51746l4.286-4.283-10.905-10.907,11.78-1.187a44.41306,44.41306,0,0,0-23.659-9.114v15.605a29.07626,29.07626,0,0,1,18.498,9.886"/>
    <path class="b" d="M81.4948,11.09607l-6.554.66205-8.473.854,8.623,8.623-17.069,17.065-6.245-6.245-9.776-9.773-9.773,9.773-26.661,26.661-2.384,2.385.066.169.017.04.053.13.033.08.037.086.05.123.02.047.066.159.003.007.072.166.015.033.056.133.034.077.039.093.05.11.024.056.068.15.005.013.076.167.01.026.064.14.031.063.045.1.05.106.026.06.07.143.009.02.078.163.01.02.068.143.075.153.003.01.048.096.032.067.07.136.011.027.082.159.006.014.075.149.025.05.057.11.08.153.003.01.066.126.019.033.084.16.004.007.08.152.023.044.063.116.043.08.043.076.065.12.022.04.086.156v.004l.09.156.02.037.067.119.043.077.046.08.063.113.027.043.087.149.003.007.093.156c.09.157.183.31.276.466l.085.139.008.014.095.153.013.023.082.13.036.06.058.093.062.096.033.057.085.133.012.02.096.149.013.017.087.136.196.3.083.123.017.026.099.15.007.01.093.139.034.047.069.1.055.083.045.066c.17.246.343.493.519.735l.08.11.025.033.104.147.107.146.025.03.083.113h-.002a44.64095,44.64095,0,0,0,80.145-31.929l-4.094-4.093-11.177,11.179a29.1053,29.1053,0,0,1-52.122,15.958l20.437-20.437,16.021,16.018,9.775-9.773,17.066-17.069,3.209,3.209,5.414,5.414,1.516-15.027,1.518-15.023Z"/>
    <path class="a" d="M15.529,44.52444a28.97221,28.97221,0,0,1,3.824-14.431l-12.569-9.228a44.7108,44.7108,0,0,0-4.669,37.266l13.416-13.444Z"/>
  </g>
</svg>
