<svg xmlns="http://www.w3.org/2000/svg" viewBox="0 0 87.12 87.12">
  <defs>
    <style>
      .a {
        fill: #7fba5e;
      }

      .b {
        fill: #fff;
      }
    </style>
  </defs>
  <title>logo</title>
  <g>
    <path class="a" d="M87.12,43.56A43.56,43.56,0,1,0,43.56,87.12,43.56,43.56,0,0,0,87.12,43.56"/>
    <g>
      <path class="b" d="M75.63,27.32a1,1,0,0,0-.09-.41,2.49,2.49,0,0,0-2.28-1.51c-1.14,0-2.28,0-3.42,0-2.27,0-4.55,0-6.83,0h-.53v-1.5c0-.63,0-1.25,0-1.88a2.74,2.74,0,0,0-2.58-2.36c-10.69,0-21.37,0-32.06,0-4.77,0-9.54,0-14.3,0-1.21,0-2.71,1.2-2.55,2.53l0,34.24a2.4,2.4,0,0,0,1.28,2.2,2,2,0,0,0,.82.31c.81.06,1.62.06,2.43.06l13.92,0h.41a3.47,3.47,0,0,1,.08.52c0,.46,0,.93,0,1.39a5.3,5.3,0,0,1-.58,2.21,8.53,8.53,0,0,1-1.45,2c-.15.19-.32.36-.46.56a.65.65,0,0,0-.08.75.63.63,0,0,0,.63.36c.25,0,.5,0,.76,0,2,0,3.93,0,5.89,0,2.56,0,5.12,0,7.68,0,1.08,0,2.16,0,3.24,0a.61.61,0,0,0,.58-.35.65.65,0,0,0-.07-.76c-.27-.33-.54-.65-.82-1A8.75,8.75,0,0,1,44,62.85a5.86,5.86,0,0,1-.52-2.4A3.79,3.79,0,0,1,43.64,59c.52-.08,6.17-.06,6.5,0,0,.5.09,1,.1,1.52,0,1.58,0,3.15,0,4.73a1,1,0,0,0,0,.34,2.84,2.84,0,0,0,1.37,1.62,3.46,3.46,0,0,0,1.58.25c3.67,0,7.34,0,11,0,3,0,5.92,0,8.88,0a2.76,2.76,0,0,0,1-.18,2.2,2.2,0,0,0,1.54-1.92c.06-.86.06-1.73.06-2.59q0-15.15,0-30.28C75.68,30.79,75.65,29.06,75.63,27.32Zm-31.77,38c-.39.12-13.75.11-14.15,0l.45-.67a7.23,7.23,0,0,0,1.19-3,8,8,0,0,0,0-2.29c0-.09,0-.19,0-.34,3.56,0,7.1-.06,10.73.06A7.53,7.53,0,0,0,43.86,65.28Zm6.39-7.82H14.65l-1.32,0a1,1,0,0,1-.89-.83,2.34,2.34,0,0,1,0-.38V51c0-.06,0-.13,0-.22a.91.91,0,0,1,.21,0q18.7,0,37.4,0a.91.91,0,0,1,.21,0Zm.5-31a.57.57,0,0,1-.55.22H27.87a.68.68,0,0,0-.67.34A.72.72,0,0,0,27.76,28c.13,0,.26,0,.39,0H50.24v6.44H27.85a.81.81,0,0,0-.72.49.7.7,0,0,0,.25.8.69.69,0,0,0,.31.12,2.38,2.38,0,0,0,.38,0H50.24v6.45l-.21,0h-.42l-21.77,0c-.42,0-.58.09-.69.42a.68.68,0,0,0,.64.94h22.4c.1.32.12,4.88,0,5.53H12.37c0-.14,0-.29,0-.44q0-4.34,0-8.67,0-8.58,0-17.16a10.32,10.32,0,0,1,.06-1.11,1,1,0,0,1,.89-.81c1,0,2-.05,3.07-.05H59.72a1.22,1.22,0,0,1,1.22.73.66.66,0,0,1,.09.27c0,1.06,0,2.11,0,3.16,0,0,0,.05-.06.12h-.35c-.51,0-1,0-1.53,0l-6.28,0A2.52,2.52,0,0,0,50.75,26.41ZM74.24,61.22c0,1.07,0,2.14,0,3.2a6.54,6.54,0,0,1-.06.89.79.79,0,0,1-.68.67,8.87,8.87,0,0,1-.89.06l-14,0c-1.75,0-3.5,0-5.25,0a8.09,8.09,0,0,1-.85-.06.75.75,0,0,1-.67-.71c0-1.46,0-2.93-.06-4.39,0,0,0-.05.05-.1H74.24Zm0-2H51.79c-.08-.31-.11-25.64,0-26.17H74.24Zm0-27.87a.74.74,0,0,1,0,.19l-.33,0-9,.05c-4.2,0-8.42,0-12.62,0h-.63c0-1.4.06-2.72.1-4a.79.79,0,0,1,.7-.7,4.44,4.44,0,0,1,.63,0l8-.05H73a1.57,1.57,0,0,1,.85.23.87.87,0,0,1,.46.8C74.26,29,74.26,30.18,74.26,31.36Z"/>
      <path class="b" d="M23.15,42.48c-1-.66-1.95-1.32-2.94-2a1.45,1.45,0,0,0-.49-.22.79.79,0,0,0-.89.43c-.15.32-.08.56.28.84s.64.46,1,.69l1.15.78-.73.49c-.48.33-1,.65-1.43,1a.66.66,0,0,0,.09,1.16.72.72,0,0,0,.84,0l2.07-1.34c.42-.29.84-.57,1.25-.88a.49.49,0,0,0,0-.8A1,1,0,0,0,23.15,42.48Z"/>
      <path class="b" d="M19,28.94a.59.59,0,0,0,0,1,.85.85,0,0,0,1.1.09c.61-.38,1.21-.78,1.82-1.18s.9-.63,1.37-.94a.54.54,0,0,0,0-.92c-.07,0-.14-.1-.21-.15l-2.33-1.57a7.69,7.69,0,0,0-.87-.52.75.75,0,0,0-1,.32.64.64,0,0,0,.25.91c.41.3.84.58,1.26.87l.84.6-.81.56C19.94,28.29,19.46,28.59,19,28.94Z"/>
      <path class="b" d="M23,34.53l-2.43-1.64a5.4,5.4,0,0,0-.75-.4.74.74,0,0,0-.91.36.53.53,0,0,0,.16.81,13,13,0,0,0,1.13.82c.33.24.68.46,1.07.73l-.72.49-1.47,1a.6.6,0,0,0-.29.57.8.8,0,0,0,1.07.61,2.69,2.69,0,0,0,.38-.19c.94-.62,1.89-1.25,2.83-1.89a2,2,0,0,0,.34-.31.41.41,0,0,0,0-.64A3,3,0,0,0,23,34.53Z"/>
      <path class="b" d="M66.63,48.86a.68.68,0,0,0,.12,1,1,1,0,0,0,1.19,0l2.17-1.78c.48-.4,1-.81,1.42-1.23s.5-.77,0-1.21l-1.33-1.12c-.73-.61-1.47-1.22-2.21-1.81a.94.94,0,0,0-1.18-.05.73.73,0,0,0-.1,1.14c.43.41.87.81,1.32,1.21s.92.83,1.42,1.28c-.67.58-1.27,1.09-1.86,1.62A9.08,9.08,0,0,0,66.63,48.86Z"/>
      <path class="b" d="M56.11,48.45c.58.51,1.16,1,1.75,1.49a.87.87,0,0,0,1.22-.16A.77.77,0,0,0,59,48.69l-1.43-1.28L56.3,46.32l1.15-1c.52-.47,1.06-.93,1.57-1.42a.75.75,0,0,0-.15-1.2.81.81,0,0,0-1.06.07c-1.17,1-2.32,2-3.47,3.08a.57.57,0,0,0,0,1Q55.21,47.64,56.11,48.45Z"/>
      <path class="b" d="M61.06,50.11a.78.78,0,0,0,.77-.42c.88-1.45,1.78-2.9,2.66-4.36q.51-.84,1-1.71a.69.69,0,0,0-.3-1,.93.93,0,0,0-1.25.25c-.06.11-.14.21-.2.32-.9,1.5-1.8,3-2.69,4.5-.26.43-.51.88-.74,1.34a.61.61,0,0,0,.18.84A.73.73,0,0,0,61.06,50.11Z"/>
      <path class="b" d="M63.35,64.46a1.11,1.11,0,0,0,1.09-1,1.14,1.14,0,0,0-1-1.1,1,1,0,0,0-1.1,1A1,1,0,0,0,63.35,64.46Z"/>
    </g>
  </g>
</svg>
