<svg xmlns="http://www.w3.org/2000/svg" viewBox="0 0 230.07805 89.12402">
  <defs>
    <style>
      .a {
        fill: #fff;
      }
    </style>
  </defs>
  <title>logo-white</title>
  <g>
    <g>
      <path class="a" d="M60.075,26.3476c.513-.004,1.024-.001,1.538-.001h.351c.032-.067.054-.091.054-.115.004-1.053.01-2.106.007-3.159a.65191.65191,0,0,0-.085-.276,1.23051,1.23051,0,0,0-1.225-.729q-21.66751.018-43.334.011c-1.023.001-2.047.028-3.069.04706a.96268.96268,0,0,0-.896.818c-.035.367-.059.736-.059,1.102q-.00594,8.583-.003,17.164,0,4.33347.001,8.667c0,.15.009.299.015.44H51.231c.082-.648.054-5.203-.037-5.524H29.218c-.142,0-.284.002-.427-.001a.68238.68238,0,0,1-.645-.944c.117-.324.275-.421.689-.421q10.88553-.0195,21.773-.037c.141,0,.284.002.426-.004a1.43211,1.43211,0,0,0,.209-.039v-6.449H29.071a2.42591,2.42591,0,0,1-.382-.005.68878.68878,0,0,1-.558-.918.7901.7901,0,0,1,.723-.49c.099-.002.198,0,.298,0H51.24v-6.442H29.145c-.127,0-.256.007-.383-.00305a.72087.72087,0,0,1-.565-1.079.678.678,0,0,1,.672-.338q5.679.01355,11.356.005H51.198a.57367.57367,0,0,0,.551-.214,2.48877,2.48877,0,0,1,2.054-1.02C55.894,26.38361,57.98505,26.36261,60.075,26.3476ZM21.37732,27.81433c-.418-.292-.845-.573-1.256-.874a.6463.6463,0,0,1-.249-.915.73985.73985,0,0,1,.994-.313,7.38985,7.38985,0,0,1,.878.518c.78.518,1.553,1.045,2.329,1.569.07.048.134.107.205.151a.53637.53637,0,0,1-.013.92c-.461.305-.909.631-1.369.938-.604.401-1.205.802-1.821,1.181a.84257.84257,0,0,1-1.094-.092.58927.58927,0,0,1,.034-.958c.447-.346.925-.652,1.393-.973.251-.174.505-.347.814-.558C21.9043,28.18536,21.6413,27.99835,21.37732,27.81433ZM24.31952,44.436c-.406.31-.828.59705-1.254.879-.684.456-1.379.895-2.065,1.348a.71787.71787,0,0,1-.83905.012.64915.64915,0,0,1-.08795-1.152c.457-.358.94995-.67,1.428-1,.221-.153.443-.303.728-.498-.423-.285-.789-.527-1.149-.77594-.327-.225-.657-.447-.97-.689-.365-.282-.431-.516-.278-.84a.78943.78943,0,0,1,.884-.434,1.51077,1.51077,0,0,1,.498.224c.982.649,1.957,1.309,2.934,1.967a1.42324,1.42324,0,0,1,.199.158A.48646.48646,0,0,1,24.31952,44.436Zm.06439-7.91619a2.09367,2.09367,0,0,1-.347.313q-1.41156.95106-2.831,1.887a2.02829,2.02829,0,0,1-.38.186.78856.78856,0,0,1-1.061-.602.58255.58255,0,0,1,.288-.575q.72747-.519,1.463-1.026c.22-.15405.444-.301.729-.49506-.396-.26495-.74005-.488-1.076-.723-.383-.267-.774-.526-1.13195-.823a.53388.53388,0,0,1-.15406-.814.73379.73379,0,0,1,.905-.354,4.79645,4.79645,0,0,1,.748.401c.818.54,1.629,1.089,2.438,1.639a2.526,2.526,0,0,1,.426.351A.40749.40749,0,0,1,24.38391,36.51978Z"/>
      <path class="a" d="M52.732,61.87958c.01606,1.463.025,2.926.055,4.388a.74323.74323,0,0,0,.675.71,7.05185,7.05185,0,0,0,.847.064c1.75.018,3.499.039,5.248.036q7.02154-.00751,14.041-.036a7.61587,7.61587,0,0,0,.892-.063.781.781,0,0,0,.678-.665,7.555,7.555,0,0,0,.066-.889c.008-1.067.003-2.134.003-3.201v-.446H52.781C52.755,61.82959,52.732,61.85455,52.732,61.87958ZM64.4093,63.3233a1.12774,1.12774,0,0,1,1.029,1.101,1.089,1.089,0,0,1-1.084,1.033,1.016,1.016,0,0,1-1.044-1.09095A1.02817,1.02817,0,0,1,64.4093,63.3233Z"/>
      <path class="a" d="M43.12305,60.05255c-3.63105-.119-7.176-.03094-10.73505-.064a2.953,2.953,0,0,0,.001.344,7.99969,7.99969,0,0,1-.042,2.287,7.13307,7.13307,0,0,1-1.189,2.981c-.15.22-.296.443-.449.673.401.114,13.761.122,14.152.004A7.48722,7.48722,0,0,1,43.12305,60.05255Z"/>
      <path class="a" d="M13.64,51.76556a.85792.85792,0,0,0-.209.05805c-.007.08295-.02.152-.02.22q-.00147,2.58453,0,5.167a2.72938,2.72938,0,0,0,.03.382.94592.94592,0,0,0,.887.825c.441.018.882.037,1.322.037q9.07353.003,18.146.002H51.251v-6.632a.86442.86442,0,0,0-.212-.059Q32.34,51.76264,13.64,51.76556Z"/>
      <path class="a" d="M74.808,28.02161a1.55242,1.55242,0,0,0-.848-.227c-3.939.007-7.879-.002-11.818.006-2.673.005-5.345.029-8.019.047a5.41076,5.41076,0,0,0-.636.04095.79818.79818,0,0,0-.697.7c-.043,1.318-.067,2.639-.1,4.04h.625c4.209,0,8.42005.007,12.629-.002,2.986-.005,5.971-.029,8.956-.047.111-.001.218-.019.334-.029a1.46611,1.46611,0,0,0,.028-.189c.002-1.18-.006-2.36.006-3.541A.85794.85794,0,0,0,74.808,28.02161Z"/>
      <path class="a" d="M44.562,0A44.562,44.562,0,1,0,89.12354,44.562,44.61222,44.61222,0,0,0,44.562,0ZM76.621,66.3916a2.20243,2.20243,0,0,1-1.538,1.916,2.64937,2.64937,0,0,1-.955.179q-4.43847.03754-8.87695.042-5.508-.00145-11.014-.043a3.46087,3.46087,0,0,1-1.58-.244,2.87517,2.87517,0,0,1-1.366-1.621.915.915,0,0,1-.021-.337c-.011-1.579-.013-3.158-.034-4.737-.006-.508-.059-1.015-.092-1.513-.33-.094-5.988-.117-6.508-.029a3.86544,3.86544,0,0,0-.184,1.448,5.73758,5.73758,0,0,0,.516,2.395,8.35936,8.35936,0,0,0,1.3,1.838q.42.48147.822.97595a.62887.62887,0,0,1,.07.754.60108.60108,0,0,1-.578.352c-1.081.005-2.161.036-3.241.042-2.561.017-5.122.036-7.683.037-1.963.001-3.926-.021-5.888-.037-.256-.002-.511-.045-.765-.043a.61613.61613,0,0,1-.623-.353.66886.66886,0,0,1,.076-.757c.146-.192.31-.371.465-.555a8.74691,8.74691,0,0,0,1.445-1.994,5.19751,5.19751,0,0,0,.579-2.204c-.006-.465,0-.931-.014-1.395a4.17609,4.17609,0,0,0-.087-.517c-.157,0-.282.001-.409,0q-6.95847-.01649-13.917-.039c-.809-.003-1.621-.004-2.428-.06a1.97129,1.97129,0,0,1-.81805-.315,2.40177,2.40177,0,0,1-1.28894-2.194q-.00751-17.121-.025-34.24006a2.6101,2.6101,0,0,1,2.547-2.53295c4.766.036,9.534.014,14.302.014,10.689,0,21.376.015,32.065-.018a2.755,2.755,0,0,1,2.578,2.365c.035.624.023,1.251.028,1.876.003.481,0,.962,0,1.499h.533c2.277,0,4.553-.005,6.83.003,1.137.003,2.276.011,3.412.053a2.47948,2.47948,0,0,1,2.286,1.511,1.0358,1.0358,0,0,1,.087.409c.024,1.733.056,3.467.057,5.201q.009,15.1365,0,30.272C76.684,64.66156,76.685,65.5296,76.621,66.3916Z"/>
      <path class="a" d="M52.785,60.22559h22.46v-26.168H52.769C52.685,34.58759,52.705,59.91956,52.785,60.22559ZM69.00592,46.03931c-.441-.401-.888-.797-1.316-1.211a.7327.7327,0,0,1,.101-1.14.95644.95644,0,0,1,1.183.047c.74005.597,1.472,1.206,2.203,1.812q.67356.55645,1.336,1.121c.514.44.522.767.017,1.216q-.70047.621-1.421,1.221c-.719.599-1.442,1.196-2.17,1.784a.97667.97667,0,0,1-1.185-.017.68079.68079,0,0,1-.126-1.014,9.74084,9.74084,0,0,1,.942-.919c.59-.527,1.194-1.042,1.856-1.617C69.92792,46.87231,69.4649,46.45728,69.00592,46.03931Zm-7.73541,4.01007c.228-.457.475-.905.735-1.343q1.338-2.253,2.69-4.494c.065-.109.141-.21295.209-.322a.91917.91917,0,0,1,1.245-.247.68084.68084,0,0,1,.299.98q-.44852.86856-.955,1.709c-.881,1.457-1.779,2.90295-2.66,4.36a.77106.77106,0,0,1-.776.416.72293.72293,0,0,1-.612-.223A.60388.60388,0,0,1,61.27051,50.04938Zm-5.92938-3.22821q1.716-1.55549,3.464-3.081a.80857.80857,0,0,1,1.06-.071.73983.73983,0,0,1,.159,1.197c-.513.49-1.051.952-1.579,1.426-.369.331-.737.66094-1.142,1.02294.421.379.819.74006,1.218,1.09705.474.426.954.846,1.425,1.277a.76407.76407,0,0,1,.133,1.094.871.871,0,0,1-1.219.156c-.594-.481-1.175-.981-1.747-1.49-.603-.538-1.193-1.09-1.778-1.649A.57211.57211,0,0,1,55.34113,46.82117Z"/>
    </g>
    <g>
      <path class="a" d="M119.507,42.77618c.183.54.365,1.076.577,1.7a4.57821,4.57821,0,0,1,.265-.577.74665.74665,0,0,0,.087-.508,1.07273,1.07273,0,0,1,.196-.847.62621.62621,0,0,0,.124-.605.908.908,0,0,1,.023-.378c.047-.322.094-.643.154-.963.031-.163.104-.319.135-.483a11.10815,11.10815,0,0,1,.341-1.616,7.04023,7.04023,0,0,0,.181-1.048c.049-.265.125-.526.174-.791.188-.988.363-1.978.559-2.964.074-.375.192-.741.29-1.112a.68152.68152,0,0,0,.052-.249,3.7918,3.7918,0,0,1,.297-1.533.648.648,0,0,1,.778-.491c.295.024.594.033.891.043.28.009.562.021.842.013.282-.01.564-.044.845-.062a1.1084,1.1084,0,0,1,.756.205.95443.95443,0,0,0,.269.095c0,.838.001,1.663,0,2.487-.002,1.066-.008,2.133-.008,3.199.001.985.015,1.97.01,2.955-.004.693-.046,1.385-.044,2.077.003.821.047,1.643.052,2.465.012,1.52405.006,3.049.013,4.573.003.57.04,1.141.034,1.711-.009.767-.054,1.535-.067,2.302-.027,1.61.016,3.22.025,4.83.003.463.001.925.001,1.441-.451.00806-.931.028-1.41.027a11.38041,11.38041,0,0,0-2.176.044.54679.54679,0,0,1-.498-.191c-.089-.08795-.164-.19-.246-.284,0-.504-.005-1.032.002-1.559a2.14231,2.14231,0,0,1,.118-.958.19232.19232,0,0,0-.017-.122,3.33339,3.33339,0,0,1-.135-1.475c.028-.384.001-.77106.013-1.157a2.71435,2.71435,0,0,1,.107-.921,1.90459,1.90459,0,0,0-.008-.875,1.1109,1.1109,0,0,1,.032-.74805.161.161,0,0,0,.032-.077c-.014-.404-.031-.806-.051-1.209-.004-.084-.051-.184-.022-.251a3.11656,3.11656,0,0,0,.089-1.074,1.26987,1.26987,0,0,0,.018-.329,1.24394,1.24394,0,0,0-.147-.301,4.25224,4.25224,0,0,0-.545,1.641c-.035.15-.062.303-.111.449a24.32251,24.32251,0,0,0-.654,2.404c-.107.483-.265.95606-.397,1.434a3.181,3.181,0,0,0-.081.376,5.356,5.356,0,0,1-.467,1.58.27522.27522,0,0,0-.044.111,2.78533,2.78533,0,0,1-.387,1.451,2.14189,2.14189,0,0,0-.103.592c-.112-.1-.155-.145-.205-.181a1.7901,1.7901,0,0,0-.19-.107c-.161.264-.022.509-.068.758-.083-.322-.188-.639-.243-.966-.064-.39-.285-.757-.179-1.172-.214-.277-.151-.636-.293-.949a8.91771,8.91771,0,0,1-.396-1.382c-.045-.166-.093-.33-.139-.495-.099-.353-.128-.738-.249-1.067a7.95163,7.95163,0,0,0-.536-1.742,2.86757,2.86757,0,0,0-.253-1.005c-.05-.16-.076-.328-.118-.492a1.89418,1.89418,0,0,1-.164-1.056.28755.28755,0,0,0-.053-.201,3.84637,3.84637,0,0,0-.772-1.155c-.034.053-.103.109-.097.155.04.303.093.60394.147.903a4.318,4.318,0,0,1,.017,1.186c-.058.592-.012,1.195-.013,1.794-.001.762-.011,1.525-.006,2.287.002.411.036.822.034,1.233-.006.739-.035,1.479-.04,2.217-.002.363.034.727.051,1.089a.29052.29052,0,0,1-.013.163,2.05721,2.05721,0,0,0-.177,1.17c-.178-.01-.356-.004-.425.225-.017.059-.135.113-.212.123a8.17561,8.17561,0,0,1-.973.077c-.576-.006-1.153-.044-1.728-.07-.483-.022-.684-.231-.698-.719a6.60914,6.60914,0,0,1-.027-1.7,9.73388,9.73388,0,0,0-.011-1.639c.047-.53705-.046-1.084-.04-1.625.006-.508.061-1.016.099-1.523a2.84948,2.84948,0,0,0-.018-.878,4.65271,4.65271,0,0,1-.034-1.011q-.0015-.78744.008-1.576c.004-.41.018-.819.023-1.229a.90735.90735,0,0,1,.162-.644.39564.39564,0,0,0,.021-.444.7841.7841,0,0,1-.01-.713c.027.107.055.214.085.323.097.018.2.035.314.054-.005-.202.106-.406-.095-.59705-.061-.057-.017-.237.001-.357.036-.254-.002-.456-.299-.53-.13.225.175.494-.077.742a2.75231,2.75231,0,0,1-.044-1.405.7612.7612,0,0,0-.003-.382,14.06282,14.06282,0,0,1-.034-2.879c.014-.256-.021-.511-.017-.767.012-.827.034-1.653.05-2.479a1.09368,1.09368,0,0,0-.007-.214,7.19882,7.19882,0,0,1-.05-1.861c.033-.569-.008-1.14106-.014-1.712-.006-.656-.013-1.312-.016-1.968,0-.111.016-.223.026-.368.157,0,.294.003.431,0a10.99324,10.99324,0,0,1,1.86-.026,8.95728,8.95728,0,0,0,1.566-.049c.478-.02.56.056.646.529.072.401.163.80005.256,1.197.178.761.362,1.52.545,2.28q.189.78442.384,1.565a8.26845,8.26845,0,0,1,.301,1.193c.063.674.371,1.282.448,1.957a11.59708,11.59708,0,0,0,.474,1.769c.132.47894.279.955.393,1.439a1.39362,1.39362,0,0,1-.07.46m7.502-11.666c.007-.163.069-.374-.162-.434-.187-.049-.38-.068-.572-.099-.007-.001-.017.016-.03.029v.345c.286-.002.344.211.388.435.139-.101.251-.184.376-.276m-.192,27.077a.60748.60748,0,0,0-.59.00995c.042.09405.079.179.132.298.163-.107.439.059.458-.308m-13.876-25.263c.134-.132.219-.215.288-.283-.12-.128-.192-.203-.26-.276-.199.135-.165.285-.028.559m3.765.18c-.032.014-.063.027-.096.04.095.245.188.489.282.734.032-.012.064-.024.095-.036a1.48134,1.48134,0,0,0-.281-.738m9.227-2.535a.56875.56875,0,0,0-.659.005c.227.273.412.065.659-.005m.726,26.213c.01.08.001.132.024.157a1.71352,1.71352,0,0,0,.22.206c.005.004.085-.064.079-.073a1.73643,1.73643,0,0,0-.162-.268c-.017-.022-.076-.011-.161-.022m-13.052,1.443c-.006.036-.01.072-.014.107.177.178.343.015.511-.084Zm2.493-2.489c-.034.00305-.067.006-.102.01105v.24395c.049-.006.097-.014.146-.02-.016-.079-.029-.156-.044-.235m10.727-10.98395c-.075-.051-.121-.099-.174-.108-.026-.004-.095.072-.089.101a.48711.48711,0,0,0,.097.152c.046-.04.092-.08.166-.145m-3.678-13.53c-.16.122-.16.122-.09.318.034-.119.057-.205.09-.318m3.649.366c-.032-.014-.065-.027-.097-.041a.4818.4818,0,0,0-.08.089c-.055.095.006.198.078.147.053-.038.068-.128.099-.19494m-10.584,25.784.105-.06305c-.053-.085-.106-.169-.159-.254-.026.015-.053.03-.078.046.044.09.088.181.132.271m-3.651-26.241.086.062c.034-.064.07-.129.104-.193-.019-.012-.038-.024-.058-.036Zm3.641-.274a.70612.70612,0,0,0,.065-.135c.002-.01-.07-.058-.086-.048a.44157.44157,0,0,0-.092.104c.029.021.058.041.113.079m-2.937,27.447c-.016-.034-.03-.068-.046-.102-.061.033-.122.065-.179.102a.22023.22023,0,0,0,.028.065c.067-.01794.132-.042.197-.065"/>
      <path class="a" d="M156.17612,43.32012c-.21-.084-.171-.28595-.19-.444-.032-.279-.028-.563-.033-.845a1.0441,1.0441,0,0,1,.063-.219c.089.158.15.268.25.447a1.36109,1.36109,0,0,0-.048-.743c-.076.023-.136.04095-.194.059-.104-.252-.107-.467.168-.626.063-.037.075-.166.139-.322-.151.055-.231.084-.371.136-.009-.369-.017-.71906-.025-1.069-.003-.099-.004-.198-.01-.296a2.63122,2.63122,0,0,1,.031-.883,3.36782,3.36782,0,0,0,.013-.893c-.02-.924-.044-1.85-.067-2.774-.015-.649-.039-1.298-.042-1.946-.001-.368.04-.737.044-1.106a7.2711,7.2711,0,0,0-.035-.768c-.028-.303-.034-.301.274-.389.081-.023.158-.059.215-.08a1.594,1.594,0,0,0,1.006.466c-.062-.25-.606-.101-.395-.501.213-.016.406-.035.598-.041a4.91339,4.91339,0,0,1,1.583.158.51241.51241,0,0,0,.212-.013.71322.71322,0,0,1,.823.675,1.77892,1.77892,0,0,0,.231.632,6.12878,6.12878,0,0,1,.272.822c.186.591.376,1.18.557,1.772.222.728.431,1.458.656,2.184.14.447.304.886.446,1.333.189.597.349,1.203.554,1.794.136.386.337.748.492,1.128a1.14806,1.14806,0,0,1,.139.559.62512.62512,0,0,0,.171.545,1.71635,1.71635,0,0,0,.564.54c.029-.392.148-.713-.094-1.018-.038-.05-.017-.161.001-.237a1.77831,1.77831,0,0,0,0-.916c-.06-.203.176-.392.008-.59.169-.445-.037-.888-.001-1.339.052-.674-.009-1.356-.016-2.035-.008-1.022-.002-2.04505-.02-3.067-.007-.439-.058-.877-.09-1.315a.37266.37266,0,0,1-.009-.127,5.49769,5.49769,0,0,0,.16-1.201c.011-.234.13-.301.325-.299a5.16094,5.16094,0,0,1,2.181.192c.396-.121.759.291,1.17.069.072-.04.194.007.298.016a1.60226,1.60226,0,0,1,.18.871c-.008.325-.038.648-.059.973a.23958.23958,0,0,0,.003.085,11.86756,11.86756,0,0,1,.146,2.124,4.061,4.061,0,0,1-.063.718c-.002.378.028.755.037,1.134.005.227-.007.456-.008.683-.006,1.184-.016,2.368-.017,3.552-.001.95105-.031,1.903.03,2.851.038.598-.031,1.184-.043,1.776-.008.455.028.91.03,1.365.005.995-.004,1.989-.003,2.984.001.439.019.878.013,1.318-.005.267-.068.533-.065.799.009.739.042,1.478.058,2.218a9.54428,9.54428,0,0,1-.009,1.622c-.058.377.023.731-.003,1.093-.016.219.078.456-.107.652-.026.028.003.108.002.163-.008.404-.02.809-.032,1.268-.226-.024-.399-.054-.573-.057-.827-.015-1.655-.013-2.48-.037a1.8087,1.8087,0,0,1-.614-.137c-.224-.092-.222-.16205-.052-.448a.374.374,0,0,1-.33-.30506,14.87059,14.87059,0,0,0-.638-2.16c-.044-.093.017-.236.033-.378a3.426,3.426,0,0,1-.538-1.3c-.061-.291-.189-.567-.267-.855-.136-.508-.237-1.024-.39-1.525-.166-.553-.391-1.088-.559-1.64-.129-.419-.18-.864-.326-1.276a9.26159,9.26159,0,0,0-.272-.939,10.413,10.413,0,0,1-.502-1.404.37411.37411,0,0,0-.48-.314.86947.86947,0,0,1,.033.843,1.22114,1.22114,0,0,0,.015.652c.052.344.089.69.175,1.03295a4.73968,4.73968,0,0,1,.083,1.061c.006.381-.045.765-.023,1.144a6.77245,6.77245,0,0,0,.029,1.597,1.59877,1.59877,0,0,1,.016.47c-.011.705-.026,1.411-.04,2.116-.007.465-.023.931-.023,1.396,0,.459.023.918.022,1.37805a1.69935,1.69935,0,0,1-.071.589.54972.54972,0,0,1-.318.304c-.234.064-.489.19494-.737.01a.10063.10063,0,0,0-.078-.025,3.8738,3.8738,0,0,1-1.229.048c-.582.014-1.166.005-1.75.002a.65775.65775,0,0,1-.168-.047,3.87637,3.87637,0,0,1-.287-1.834,6.49476,6.49476,0,0,0-.026-.72205c0-.638.004-1.275.019-1.913.002-.082.076-.162.133-.276-.021-.164-.033-.389-.078-.606a12.025,12.025,0,0,1-.056-2.881c.023-.735.024-1.467.017-2.202-.009-.68.05-1.359.067-2.04a3.8218,3.8218,0,0,0-.057-.629,12.6784,12.6784,0,0,0-.006-1.484,2.21934,2.21934,0,0,1,.035-.64295h.235c-.017-.091-.034-.171-.051-.252.027-.003.074,0,.078-.01a5.15513,5.15513,0,0,0,.181-.624c.025-.144-.063-.232-.246-.186Zm.083,6.121c-.034.002-.069.003-.103.004v1.023a.91685.91685,0,0,0,.103-1.027m10.457-18.517c.011.039.022.078.035.11505.365-.091.763.176,1.111-.121a1.40988,1.40988,0,0,1-.868-.055c-.075-.027-.184.038-.278.061m-10.496,17.067a1.055,1.055,0,0,0,.017.831.72684.72684,0,0,0-.017-.831m-.061,3.781c.15-.2.269-.401,0-.681Zm11.887-8.054c.049-.125.048-.225-.099-.26-.025-.005-.084.041-.091.071-.042.161.062.183.19.189m-1.801,13.793c.095-.186.095-.186-.149-.214.058.082.099.143.149.214m-4.679-20.724c-.029.017-.058.033-.087.049l.147.206c.018-.011.034-.021.05-.032Zm6.349,7.729.105-.056c-.036-.084-.073-.168-.111-.25-.029.011-.059.024-.089.035Zm.1-1.56305c.043-.06494.084-.10095.078-.123a.42852.42852,0,0,0-.081-.109c-.025.02405-.074.053-.071.075a.60754.60754,0,0,0,.074.157"/>
      <path class="a" d="M229.56528,32.21966c-.008-.165-.016-.33-.027-.559-.301.432-.242.931-.486,1.339.116.069.212.124.343.202-.026.169.006.392-.09.51905a3.01089,3.01089,0,0,0-.338,1.113.45324.45324,0,0,1-.042.082c-.075.011-.155.023-.234.034,0,.039-.012.079.002.09.206.183.105.381.042.583-.107.333-.207.669-.307,1.004-.095.325-.17.657-.28595.97595-.045.12305-.196.203-.258.325a1.39437,1.39437,0,0,0-.20105.875.66951.66951,0,0,1-.263.64c-.202-.329.249-.685-.044-1a2.87194,2.87194,0,0,0-.302.898,3.549,3.549,0,0,1-.324.881c.206.061.158-.289.362-.134.043-.124.086-.246.155-.444.037.147.095.246.071.315a2.28128,2.28128,0,0,1-.268.743,2.98759,2.98759,0,0,0-.282.928c.174.145.369.306.56.47.05.044.118.095.132.153.036.164.114.208.276.173a.37744.37744,0,0,1,.239.046,3.47552,3.47552,0,0,1,1.758,2.578,14.9709,14.9709,0,0,1,.051,2.986c-.013.369.002.738.006,1.108.009.825.084,1.655.016,2.473-.097,1.141.093,2.274.014,3.41a9.60433,9.60433,0,0,0,.124,1.997,3.31926,3.31926,0,0,1-.037.609c-.113-.211-.192-.356-.285-.531-.178.212-.27905.372-.108.599a1.14871,1.14871,0,0,1,.092.385c-.449.042-.92895-.048-1.31195.28a3.6034,3.6034,0,0,0,.416-.003,4.051,4.051,0,0,0,.443-.109c.071.052.195.14405.39605.29206a3.43868,3.43868,0,0,1-.36.041c-.537-.002-1.074,0-1.611-.021a6.02089,6.02089,0,0,1-1.263-.113,1.08526,1.08526,0,0,1-.752-.999,19.57309,19.57309,0,0,1-.169-2.108c-.026-1.394-.007-2.789-.009-4.18305-.001-.627-.051-1.257-.002-1.881.06-.78-.048-1.551-.034-2.328a2.53935,2.53935,0,0,0-.177-.688c-.038-.139-.081-.276-.142-.479-.11-.085-.286-.227-.467-.361a1.17279,1.17279,0,0,0-.848-.262,2.3753,2.3753,0,0,0-.795.213,1.08076,1.08076,0,0,0-.565.946,26.94653,26.94653,0,0,0-.153,2.979,8.78316,8.78316,0,0,0,.051,1.565,5.29053,5.29053,0,0,1,.062,1.217.97856.97856,0,0,1-.08.351,1.01076,1.01076,0,0,0-.022.578,2.14706,2.14706,0,0,1-.06006,1.116,2.30457,2.30457,0,0,0,.062.739,2.781,2.781,0,0,1,.038.336q-.033,1.17-.077,2.337a.63846.63846,0,0,1-.057.28595c-.105.179-.025.288.153.393-.258.139-.456.315-.74.194a.156.156,0,0,0-.124.016,1.908,1.908,0,0,1-1.281.098,4.7349,4.7349,0,0,0-.967-.01,2.1035,2.1035,0,0,1-1.144-.271c-.047-.02-.075-.08-.119-.129a1.35594,1.35594,0,0,0-.113-1.425.39992.39992,0,0,1-.082-.189c.008-.751.024-1.501.036-2.254.006-.369.007-.738.008-1.108.004-.7.034-1.401.002-2.1-.046-1.054.024-2.104.015-3.155q-.0195-1.83893-.027-3.68c-.002-.5.01-1,.009-1.5a4.52432,4.52432,0,0,0-.038-.637.63835.63835,0,0,1,.195-.686c-.056-.165-.107-.311-.172-.495.108.027.177.044.276.068a.71952.71952,0,0,0,.01-.254,3.247,3.247,0,0,1-.033-1.543,3.29231,3.29231,0,0,0-.13-.898,3.0019,3.0019,0,0,1-.078-.314c-.017-.427-.022-.853-.033-1.28-.02-.768-.04505-1.537-.05805-2.306-.004-.253.026-.507.035-.761.016-.465.011-.931.046-1.395a3.877,3.877,0,0,1,.135-1.339c.062-.142-.013-.343-.029-.556.846.043,1.706.086,2.655.134-.152.107-.22.155-.322.227a.799.799,0,0,0,.194.056c.414-.003.826-.00695,1.239-.023.538-.021.795.202.731.73a23.35487,23.35487,0,0,0,.009,2.552c-.007.485-.024.971-.032,1.455-.009.463.001.927-.022,1.391-.019.404-.093.807-.102,1.21-.006.338.067.675.07,1.013.005.481-.02.962-.034,1.443-.005.149-.022.297-.036.465.113.018.191.031.27.043.071-.194.146-.374.203-.56a7.4816,7.4816,0,0,1,.391-1.25c.143-.277.061-.612.261-.83a.60225.60225,0,0,0,.161-.48.36678.36678,0,0,1,.18805-.356c.12195-.073.231-.165.397-.284a.51533.51533,0,0,1-.208-.756,2.461,2.461,0,0,0,.326-.752,4.25277,4.25277,0,0,1,.23505-.89c.063-.21.034-.454.264-.59.015-.009.012-.053.02-.08.16595-.69.331-1.381.503-2.069a.38684.38684,0,0,1,.112-.221c.108-.077.065-.153.064-.252a.8034.8034,0,0,1,.41706-.835c.15795-.043.374.082.47-.158-.074-.117-.168-.165-.28-.069a1.63545,1.63545,0,0,0-.18994.23.883.883,0,0,1,.06994-.286c.056-.082.16205-.186.245-.185,1.04.006,2.08.029,3.12005.048a.26383.26383,0,0,1,.05.017c.011.26-.245.165-.366.256.108.324.345.201.528.151a3.24775,3.24775,0,0,0,.532-.256c.011.043.069.134.05.208-.113.465-.242.926-.375,1.385-.011.034-.09094.046-.139.067Zm-1.495,4.693c-.246.17206-.434.372-.353.702.117-.234.236-.468.353-.702m-2.998,8.677c.11895.205.185.34.272.462.033.046.114.058.172.086.022-.027.044-.054.066-.08-.22-.084-.117-.439-.51-.468m-6.836-7.363c-.117.297.05.446.206.685.026-.292.059-.501-.206-.685m2.888-7.176.027.095c.166.003.344.049.429-.227-.152.044-.303.088-.456.132m-1.19605-.444h-.545a.41039.41039,0,0,0,.545,0m6.044,27.333c.226-.284.222-.305-.072-.546.025.188.046.339.072.546m-7.838-18.193c.034.183.087.289.27.317.093-.24-.094-.244-.27-.317m7.54895-8.213c.03705.008.075.015.113.021.095-.11.198-.219-.042-.407-.031.164-.051.275-.071.386m-7.627.624-.112-.00305v.392c.029,0,.059,0,.088.001.009-.13.016-.26.024-.38995m1.221,5.894c-.113-.14-.18695-.26-.376-.184.067.155.139.263.376.184m10.465,18.968c.027-.017.054-.033.082-.05005-.055-.093-.10895-.186-.163-.279l-.065.036c.048.097.098.196.146.293m-1.108.671.027.115c.152.07.25.012.362-.227-.182.052-.284.082-.389.112m-9.838-20.852c-.043.038-.093.071-.09.081a.25041.25041,0,0,0,.086.116c.018.008.07-.045.106-.07-.03-.039-.061-.077-.102-.127m3.244-1.355c-.03-.016-.06195-.031-.09295-.046a1.296,1.296,0,0,0-.068.165.433.433,0,0,0,.09.047c.023-.056.048-.111.071-.166m4.604-3.882c-.098.084-.167.145-.235.205.168.044.272.02.235-.205m-4.556,4.222c-.103.016-.19.029-.312.04505.234.149.234.149.312-.04505m5.546,2.063c-.035.002-.069.003-.105.005l.028.258.077-.00494Z"/>
      <path class="a" d="M143.42718,58.17413c-.126-.054-.251-.107-.459-.195-.092.015-.212.085-.197.315.01.188-.106.259-.304.264-.767.017-1.532.075-2.298.076a3.61654,3.61654,0,0,1-1-.17c-.119-.035-.229-.21-.281-.345a2.05309,2.05309,0,0,1-.115-.58c-.062-.777-.104-1.557-.173-2.336-.034-.407-.114-.81195-.16-1.22-.024-.21-.003-.425-.027-.636-.013-.099-.078-.27-.13-.276-.282-.025-.413-.286-.66-.383-.159.126-.276.392-.549.203-.353.185-.79-.118-1.111.183a41.85207,41.85207,0,0,1-.682,5.326c-.053-.044-.103-.086-.187-.155-.024.117-.044.215-.064.311a.27246.27246,0,0,1-.09-.007c-.084-.046-.111-.202-.273-.095a.46322.46322,0,0,1-.332.02795.67927.67927,0,0,0-.677.083.489.489,0,0,1-.369.038,7.22187,7.22187,0,0,0-1.532-.113c-.293-.002-.586-.057-.908-.092.066-.489.13-.919.184-1.351.045-.366.064-.736.119-1.1.148-.968.313-1.933.464-2.902.023-.138.008-.283.025-.423.034-.308.072-.619.118-.926.145-.941.284-1.882.441-2.82.096-.571.235-1.136.324-1.709.079-.495.097-1.002.168-1.498.117-.827.258-1.651.386-2.475.011-.084.007-.169.018-.252.03-.21.07-.418.096-.627.04-.31.08-.622.108-.934.022-.262.023-.526.371-.644a.51086.51086,0,0,1-.143-.56695c.06-.34705.042-.706.092-1.055a5.16415,5.16415,0,0,1,.187-.599c.041-.147.122-.33.071-.446a.66916.66916,0,0,1,.121-.708c.154-.21295.268-.397.064-.638a.24384.24384,0,0,1-.025-.165q.10047-.975.21-1.949c.03-.265.066-.53.11-.793.101-.605.211-1.208.313-1.812a1.7532,1.7532,0,0,0,.04-.38.46872.46872,0,0,1,.178-.40795c.181-.144.296-.305.208-.524a.82369.82369,0,0,1,.833-.188,2.8244,2.8244,0,0,0,.836.004c.253-.002.507.007.76.011.085.001.171.009.255.005.326-.016.649-.041.974-.05.292-.008.364.045.427.305.092.385.183.771.253,1.161.118.644.192,1.297.335,1.935a9.42207,9.42207,0,0,1,.176,1.585,3.80558,3.80558,0,0,0,.169.786c.054.204.179.393.065.612-.007.013-.011.034-.005.041.278.36.154.799.23,1.198a2.40842,2.40842,0,0,1,.082,1.126c-.016.052-.027.14,0,.163.297.256.193.637.286.951a5.52718,5.52718,0,0,1,.1,1.123.78663.78663,0,0,0,.035.28205,5.59825,5.59825,0,0,1,.406,2.036c.037.331.129.65594.197.984.027.134.054.268.097.476-.133-.094-.197-.14-.283-.202a.22484.22484,0,0,0,.061.33.75461.75461,0,0,1,.275.72205.49449.49449,0,0,0,.019.17,9.70425,9.70425,0,0,1,.215,1.529,5.67731,5.67731,0,0,0,.162.617c.074.401.134.804.193,1.207a.68817.68817,0,0,1-.03.207c-.012.069-.063.154-.038.202a10.45119,10.45119,0,0,1,.436,2.103,5.94362,5.94362,0,0,1,.204,1.898,3.89077,3.89077,0,0,0,.087.672c.037.308.064.617.096.925.008.07.015.139.025.207.026.16895.054.337.094.594.054.152.146.394.23.639.074.211-.186.146-.212.209.105.334.196.621.286.907Zm-5.912-16.734c-.234.17-.235.498-.521.551-.028.401-.317.777-.114,1.202a.3768.3768,0,0,1,.041.243,5.0516,5.0516,0,0,0-.233,1.748.3455.3455,0,0,1-.001.085c-.096.717-.195,1.433-.286,2.151a2.47041,2.47041,0,0,0-.033.593c.036.293.03.535-.294.664a.29611.29611,0,0,0-.008.23,4.8026,4.8026,0,0,0,.618.253c.36.12.761.017,1.111.215.113.064.216-.00695.273-.129a.50793.50793,0,0,0-.009-.563.90964.90964,0,0,1-.129-.612,3.38935,3.38935,0,0,0-.029-.50305,7.99712,7.99712,0,0,1-.15-1.814,1.346,1.346,0,0,0-.043-.251.6363.6363,0,0,1,.003-.29206.97029.97029,0,0,0-.085-.861.66646.66646,0,0,1,.004-.732.51514.51514,0,0,0,.035-.374,6.59787,6.59787,0,0,1-.133-.819c-.033-.314.014-.617-.017-.985m4.692,15.255a.27862.27862,0,0,0,.025.423c.027.025.192-.02405.201-.062.04-.169.017-.329-.226-.361m-.205,1.451c-.208-.086-.375-.138-.535.092.209.091.38.179.535-.092m-5.014-8.269c.108-.026.19-.042.27-.067.063-.02.124-.052.223-.094-.236-.033-.411-.058-.636-.09l.143.251m5.56,7.846c-.047-.212-.139-.286-.278-.234-.062.023-.097.125-.172.234Zm-.957-1.234c-.205-.075-.305.01-.407.169.223.114.319.022.407-.169m-1.336,1.92c.172-.009.299-.03094.348-.235-.184-.009-.322-.007-.348.235m-1.861-9.947-.12.003c-.03.115-.112.236.12.366Zm-3.049,7.321.127-.003-.015-.256c-.029,0-.059,0-.089-.001-.009.087-.015.174-.023.26m5.888.134c-.029.022-.059.043-.088.065.041.06305.082.126.124.189q.03451-.021.069-.039Z"/>
      <path class="a" d="M198.44751,56.26794a7.52007,7.52007,0,0,1,.259.799c.013.073-.115.174-.19.278a2.26959,2.26959,0,0,1,.173.386,3.26653,3.26653,0,0,1,.041.539c-.146-.153-.217-.228-.294-.308-.173.037-.304.085-.286.328.017.21-.132.265-.342.267-.71.006-1.42.016-2.126.072a4.3803,4.3803,0,0,1-1.129-.167c-.114-.01905-.239-.206-.28-.34a3.7702,3.7702,0,0,1-.16-.834c-.053-.707-.067-1.415-.124-2.121-.034-.407-.123-.81-.184-1.216a2.48781,2.48781,0,0,1-.02-.335c-.003-.168-.001-.334-.001-.444-.294-.177-.529-.319-.783-.471a.65547.65547,0,0,1-.559.221,3.45,3.45,0,0,0-.815.02,1.1043,1.1043,0,0,0-.293.124c-.058.561-.119,1.094-.169,1.63-.039.421-.054.843-.097,1.26495-.029.279-.092.555-.131.83405a2.8419,2.8419,0,0,0-.057.59295,1.04183,1.04183,0,0,1-.149.691,1.08413,1.08413,0,0,0-.076.341c-.048-.05805-.094-.112-.171-.202-.023.13-.038.23-.056.33-.022.006-.059.026-.074.01495-.11-.084-.212-.17395-.366-.085a.21711.21711,0,0,1-.127.004,1.20635,1.20635,0,0,0-.929.114c-.068.046-.193.015-.291.009-.482-.035-.964-.069-1.446-.109-.32-.027-.642-.063-.953-.093.074-.721.133-1.383.214-2.04.044-.351.136-.697.189-1.047.091-.603.166-1.208.254-1.812.103-.697.26-1.389.306-2.089.054-.843.268-1.655.38-2.485.08-.58795.225-1.167.314-1.753.078-.512.116-1.031.178-1.545.064-.536.128-1.071.201-1.604.06-.427.168-.843.186-1.28a8.746,8.746,0,0,1,.203-1.169,1.232,1.232,0,0,0,.025-.256.55726.55726,0,0,1,.332-.587.615.615,0,0,1-.118-.583c.066-.39.065-.791.107-1.187a.87276.87276,0,0,1,.116-.358.67547.67547,0,0,0,.095-.677.55725.55725,0,0,1,.159-.588.42191.42191,0,0,0,.069-.606.67864.67864,0,0,1-.027-.369c.012-.269.026-.539.059-.807.037-.322.097-.643.146-.965.026-.179.055-.359.079-.54.034-.267.06-.536.1-.804.087-.575.177-1.151.281-1.724a.53741.53741,0,0,1,.183-.321.45387.45387,0,0,0,.217-.523.86179.86179,0,0,1,.837-.179,2.22223,2.22223,0,0,0,.709.008c.294-.023.592.007.887.012.085.001.17.001.255-.003.34-.016.678-.027,1.016-.052a.31917.31917,0,0,1,.367.282c.104.498.188.999.285,1.497.13.671.269,1.34.389,2.013a3.78836,3.78836,0,0,1,.103.919,5.19206,5.19206,0,0,0,.194,1.204c.062.383.155.759.207,1.143.049.375.081.753.114,1.13.016.179.012.359.021.539.002.083-.021.195.024.246a.95785.95785,0,0,1,.17.596,10.28217,10.28217,0,0,0,.206,1.01905.11053.11053,0,0,1,.008.042c-.152.563.242,1.025.286,1.552.033.395.065.791.123,1.183.048.319.131.631.202.947.028.121.061.241.115.444-.147-.086-.219-.129-.319-.189-.092.16-.009.271.097.36a.769.769,0,0,1,.259.638,7.48415,7.48415,0,0,0,.161,1.03295,1.02013,1.02013,0,0,1,.029.21,5.658,5.658,0,0,0,.226,1.298c.061.356.12.712.181,1.07-.252.416.16.761.124,1.177a5.53984,5.53984,0,0,0,.215,1.211c.084.577.142,1.158.209,1.737.035.31.062.621.092.931.032.307.063.614.095.921.007.069-.005.158.033.202a.3341.3341,0,0,1,.037.443m-5.091-6.905a.64.64,0,0,0,.052-.754,1.50746,1.50746,0,0,1-.086-.534c-.062-.5-.132-.999-.176-1.5a5.32283,5.32283,0,0,1-.047-1.342,1.76427,1.76427,0,0,0-.112-.938.86973.86973,0,0,1-.023-.59705.86026.86026,0,0,0,.038-.644,2.67281,2.67281,0,0,1-.143-.934,3.0857,3.0857,0,0,1,.066-.706,3.22984,3.22984,0,0,0-.529.618,1.14776,1.14776,0,0,0-.191.847,2.39372,2.39372,0,0,1-.028,1.023c-.04.192-.077.385-.113.578a.59339.59339,0,0,0-.029.246,3.22835,3.22835,0,0,1-.082,1.219c-.062.662-.177,1.323-.195,1.986-.011.36-.018.661-.461.854a1.6878,1.6878,0,0,0,.627.366c.464.084.935.14,1.432.212m4.223,7.336a.277.277,0,0,0,.03.415.18275.18275,0,0,0,.175-.033.2562.2562,0,0,0-.126-.376.45427.45427,0,0,0-.079-.006m-.72,1.496c.3.195.359.188.491-.072-.179-.063-.344-.098-.491.072m-3.947-8.461c-.268-.045-.449-.076-.673-.114.055.101.099.178.143.258.165-.04394.308-.084.53-.144m4.579,7.908c.013.025.025.051.039.076h.38c.013-.025.024-.05.036-.076-.076-.057-.152-.155-.23-.156-.074,0-.15.099-.225.156m-3.751-9.296c-.167.426-.167.426.115.443-.031-.118-.06-.228-.115-.443m3.227,8.129c-.21-.047-.326.007-.392.209.216.071.321-.001.392-.209m-1.34,1.937c.176-.015.305-.031.359-.241-.19-.005-.328-.002-.359.241m1.621-9.467c.025-.009.05-.017.075-.025-.033-.09205-.067-.182-.1-.273l-.06.021c.028.092.058.184.085.277m-6.508,6.837c.035-.001.07-.002.106-.002-.013-.09-.025-.18-.037-.27l-.069.006Zm5.9.14294c-.037.01-.073.02106-.111.03.031.075.063.148.094.223.03-.012.057-.022.085-.034-.022-.072-.046-.146-.068-.21905"/>
      <path class="a" d="M202.53662,56.81432a1.57386,1.57386,0,0,0,.134-.798,2.78357,2.78357,0,0,1-.024-.794c.019-.181.11-.372-.1-.525-.045-.033-.001-.185-.001-.284,0-.58-.014-1.162.004-1.743.022-.639-.205-1.297.134-1.915a.46.46,0,0,1,.032-.05c.414.02.814.053,1.215.055.435.002.87-.041,1.304-.029.112.005.22.14.37195.245h.786a1.76977,1.76977,0,0,1,.091.38c.011.455-.022.912.012,1.364.021.26-.22.287-.323.473.108.056.2.102.331.168-.021.109-.002.283-.075.34-.236.181-.15.401-.145.627a1.60181,1.60181,0,0,0,.926.171,1.35479,1.35479,0,0,1,.58.082c.156.055.261.225.453.232.064.002.153.06695.184.043a.79484.79484,0,0,1,.655-.117.51523.51523,0,0,0,.516-.37,2.8837,2.8837,0,0,0,.102-.378.9895.9895,0,0,0-.165-.102c-.225-.084-.26-.216-.231-.463.047-.405-.017-.823-.004-1.233a11.2668,11.2668,0,0,1,.108-1.418,3.007,3.007,0,0,0-.095-.821,1.3034,1.3034,0,0,1-.022-.255.56829.56829,0,0,0-.183-.444c-.312-.368-.582-.772-.859-1.16894a4.91288,4.91288,0,0,1-.68-1.06806,3.37868,3.37868,0,0,0-.59-.836c-.513-.702-1.073-1.36895-1.612-2.05a1.48085,1.48085,0,0,1-.149-.209,20.4487,20.4487,0,0,0-1.721-2.6c-.29-.38605-.557-.79-.847-1.174-.205-.273-.1-.572-.101-.86005,0-.375.056-.75.049-1.125a1.078,1.078,0,0,1,.344-.99,1.74938,1.74938,0,0,1-.342-1.486c.016-.396.048-.792.073-1.189.002-.042-.014-.095.005-.125.073-.108.227-.217.215-.308-.012-.105-.198-.177-.258-.29a.85431.85431,0,0,1-.062-.376c-.002-.485-.014-.972.019-1.455a1.48986,1.48986,0,0,1,.405-.917c.142-.152.294-.219.479-.075.126-.24194.169-.538.557-.577-.071.131-.126.233-.211.39.163-.032.276-.054.392-.076a.79965.79965,0,0,0,.024-.191c-.043-.209.064-.288.249-.308a4.46055,4.46055,0,0,1,.549-.05c.569.012,1.136.058,1.704.056.981-.004,1.962-.042,2.943-.052.397-.005.794.029,1.19.043a7.626,7.626,0,0,0,1.05694.016,1.49969,1.49969,0,0,1,.863.306,1.51937,1.51937,0,0,1,.699,1.49,2.49723,2.49723,0,0,0-.01.335c-.006.265-.015.529-.01795.795-.004.453-.013.908-.007,1.363.005.41.048.82.04,1.229-.008.275-.085.549-.117.824-.01.108.028.219.027.328a2.15589,2.15589,0,0,1-.042.318c-.013.062-.06006.125-.052.182.041.291.03.348-.208.356a6.83552,6.83552,0,0,1-1.679-.004,2.73725,2.73725,0,0,0-.974-.032,2.69386,2.69386,0,0,1-.849-.148.70993.70993,0,0,1-.011-.607.55846.55846,0,0,0,.002-.361,2.1101,2.1101,0,0,1-.059-1.21295c.007-.057.116-.104.172-.151-.038-.258-.077-.52-.124-.832a.66489.66489,0,0,0-.474-.11c-.731.043-1.463.076-2.193.127a.27767.27767,0,0,0-.278.259,3.19534,3.19534,0,0,0-.063,1.255,3.25505,3.25505,0,0,1,.014.726c-.015.467-.046.934-.06006,1.4a.826.826,0,0,0,.065.367,6.26975,6.26975,0,0,0,.958,1.507,7.88122,7.88122,0,0,1,.541.795c.265.385.534.768.802,1.151.235.33905.47.676.705,1.015.248.358.494.72.745,1.075q.64353.906,1.296,1.806a9.38925,9.38925,0,0,0,1.015,1.413,7.75754,7.75754,0,0,1,.715.907.57647.57647,0,0,1,.111.427,7.99712,7.99712,0,0,0,.078.919c.01605.291.00305.583.00305.874-.032.005-.06305.009-.095.013-.016-.059-.066-.133-.047-.176.14-.299-.015-.501-.222-.701.122.439-.275.844-.07,1.34.071-.09406.111-.14606.164-.21906a.42661.42661,0,0,1,.238.399c.012.592.048,1.184.072,1.776.004.10095.002.2.001.301a8.7142,8.7142,0,0,1-.012.929c-.106.938.04895,1.886-.081,2.812a1.984,1.984,0,0,1-.76605,1.471c-.098.066-.166.22-.31995.087a.08628.08628,0,0,0-.066.027c-.041.307-.309.238-.472.24-1.082.017-2.163.005-3.244.007-.285,0-.57.015-.855.028-.711.034-1.421.073-2.133.102-.17.007-.341-.024-.511-.031-.199-.007-.397.001-.594-.011-.223-.014-.444-.038-.665-.066-.112-.015-.219-.064-.331-.072a1.0258,1.0258,0,0,1-.945-.824,2.24161,2.24161,0,0,1-.074-.921c.075.122.15.241.252.407.017-.411.017-.411-.25-.399m7.172-6.081c-.033-.008-.066-.015-.1-.023-.032.09-.117.214-.084.26.098.144.023.245-.01.376-.041.168-.137.398.186.489a1.693,1.693,0,0,0,.008-1.102m3.347-14.569c-.018.321-.035.64-.054.973a.55842.55842,0,0,0,.127-.002,1.12843,1.12843,0,0,0-.073-.971m-4.182,19.24805c.1.016.221.071.308.038a.47114.47114,0,0,0,.25-.239c.017-.04-.128-.212-.201-.213a.50537.50537,0,0,0-.299.167c-.047.046-.037.149-.058.247m4.204-21.865c-.309.22094-.072.431-.052.621h.305c-.088-.216-.166-.407-.253-.621m-.327,17.037c-.256.144-.257.229,0,.549Zm-1.342-16.17c-.005-.13995-.011-.24-.018-.386-.23394.21-.23394.21.018.386m-5.815,19.349c.202.13.233.046.212-.137-.087.057-.15.097-.212.137m1.023.881c.226.154.226.154.421,0Zm2.001-12.822-.106.091a1.80146,1.80146,0,0,0,.115.143c.003.003.081-.049.078-.059a1.18821,1.18821,0,0,0-.087-.175m-2.441-6.116h.079v-.323h-.079Z"/>
      <path class="a" d="M175.47241,34.79321c-.394-.07-.708-.125-1.032-.181.006.086.01.148.016.255-.476.008-.943.033-1.409.019a.7518.7518,0,0,1-.666-.677c-.029-.266-.018-.536-.043-.804a18.33348,18.33348,0,0,1-.099-2.19806,1.5113,1.5113,0,0,1,.052-.373c.099-.351.232-.421.613-.394.239.018.479-.002.72-.003.44-.003.881-.006,1.322-.003a.4665.4665,0,0,1,.248.053,1.28793,1.28793,0,0,0,1.359.017.67558.67558,0,0,1,.248-.062c.423,0,.849.012,1.272.015.28.002.56-.007.84-.001.682.017,1.365.044,2.048.055a3.7375,3.7375,0,0,0,.502-.052,3.17889,3.17889,0,0,1,1.374.316.28289.28289,0,0,1,.14.216c-.007.298-.046.594-.066.89a2.02192,2.02192,0,0,0,.013.339c.007.07.07.16.045.204-.199.343.049.683-.007,1.029-.054.331-.008.675-.054,1.007a2.39279,2.39279,0,0,1-.26.576c-.115-.164-.184-.263-.28-.398a1.524,1.524,0,0,0-.375.062,2.36459,2.36459,0,0,1-1.096.118c-.557-.042-.814.175-.82.745-.008.671.017,1.342.014,2.013-.006,1.098-.021,2.196-.035,3.295-.003.198-.039.395-.037.592a1.30417,1.30417,0,0,1-.118.482,1.56954,1.56954,0,0,0-.028,1.037,4.15994,4.15994,0,0,1,.09,1.601c-.007.099-.045.196-.044.294.007,1.122.03,2.245.025,3.366-.004.868-.116,1.741-.042,2.599.057.652-.034,1.299.046,1.953a13.65716,13.65716,0,0,1-.026,1.83c-.006.387.011.775.009,1.163-.002.569.018,1.141-.038,1.705a2.1115,2.1115,0,0,0-.019.888,7.68405,7.68405,0,0,1-.915.179c-.707.049-1.415.066-2.123.095-.198.00994-.398.019-.596.032a.63541.63541,0,0,1-.765-.645c-.03-.678-.015-1.359-.015-2.041,0-.426.004-.854.014-1.281.003-.184.037-.36695.036-.551-.006-.825-.029-1.65-.028-2.476,0-.638.028-1.275.043-1.912.011-.426.017-.851.034-1.277a4.85466,4.85466,0,0,1,.058-.507,3.70675,3.70675,0,0,0-.003-1.057,11.036,11.036,0,0,1-.007-1.533c.001-.126.017-.252.017-.378-.001-.368-.008-.734-.01-1.101-.001-.169.004-.337.005-.506.005-.512.008-1.024.013-1.535.009-.892.028-1.785.026-2.677-.001-.607-.036-1.21405-.049-1.822-.002-.183.039-.369.03-.552-.015-.352-.054-.704-.075-1.056a.977.977,0,0,1,.027-.295.88931.88931,0,0,0-.119-.69195m4.195,1.016c.102.006.251.092.266-.08905.015-.16095-.011-.335-.28-.343.008.162.015.296.027.433.01.19-.151.44.225.557a.599.599,0,0,0-.238-.558m-3.537,3.063c-.264.181-.181.398-.16.679a.58357.58357,0,0,0,.16-.679m5.392-7.849c-.131-.106-.2-.164-.311-.254-.022.238.042.301.311.254m-5.019,7.171c-.033-.014-.065-.02594-.099-.041l-.089.227c.033.012.064.026.096.038Z"/>
      <path class="a" d="M151.7063,57.4771a1.27125,1.27125,0,0,1-.041,1.07c-.308.055-.157-.198-.228-.321-.075.057-.14.144-.22.163a1.87277,1.87277,0,0,1-.659.093c-.725-.108-1.46.205-2.179-.051a.291.291,0,0,0-.125-.005,2.17565,2.17565,0,0,1-.42.056,2.02228,2.02228,0,0,1-.41-.112,3.38013,3.38013,0,0,1-.277-1.156c.003-.408.019-.815.026-1.222.007-.352.013-.705.016-1.058.002-.156-.016-.314-.002-.47.015-.196.03-.404.29-.441a2.7655,2.7655,0,0,1-.276-1.615c.073.007.144.013.241.021a.52093.52093,0,0,0-.014-.619c-.227-.293-.229-.41-.009-.729.015-.022.017-.053.008-.019-.072-.201-.133-.35-.173-.505a.20043.20043,0,0,1,.04-.177c.169-.099.12-.25.077-.368a3.37711,3.37711,0,0,1-.138-1.292,8.69127,8.69127,0,0,0,.025-1.737.27492.27492,0,0,1,.002-.086,20.53084,20.53084,0,0,0,.001-2.795,4.06129,4.06129,0,0,0-.044-.802.52967.52967,0,0,1,.319-.609,3.15641,3.15641,0,0,1-.277-1.82c.015-.599-.014-1.197-.001-1.795.01-.512.067-1.021.078-1.534.009-.47-.02-.939-.022-1.41a4.85324,4.85324,0,0,0,.017-.751,3.13249,3.13249,0,0,1-.131-.741c.048-.832.039-1.667.064-2.5.012-.37.044-.739.084-1.107a.57541.57541,0,0,1,.638-.566q1.494-.015,2.985-.033a.45692.45692,0,0,1,.435.277,2.28027,2.28027,0,0,1,.206,1.31494,9.86112,9.86112,0,0,0-.092,1.322.36585.36585,0,0,0,.115.259.7296.7296,0,0,1,.196.629c-.007.499-.025.998-.032,1.497-.011.816-.018,1.634-.028,2.451a.8518.8518,0,0,0-.006.213,10.6322,10.6322,0,0,1,.089,1.87c.024.321-.023.647-.027.97-.011.75-.014,1.5-.021,2.251-.004.354-.024.709-.016,1.064a4.79309,4.79309,0,0,1,.066.716c-.1.73.003,1.461-.059,2.192-.029.33.027.671.018,1.012-.019.751.03,1.505.038,2.257.004.369-.024.739-.029,1.109-.009.612-.008,1.223-.015,1.835-.007.583-.02,1.167-.027,1.75-.005.356-.001.712-.001,1.095-.08.008-.155.015-.229.022-.03.298-.03.298.23.417-.022.169-.045.35-.07.53-.069-.063-.138-.123-.284-.25305.022.236.033.353.044.474.169-.013.272-.057.234-.231m-.843-19.364c.094-.226.172-.392-.043-.54-.159.28-.159.28.043.54m.356-1.066c-.161.31195-.161.31195.084.455-.024-.131-.045-.243-.084-.455m.266,1.193c.029-.022.059-.043.089-.064-.081-.121-.162-.242-.275-.409-.066.257-.047.413.186.473m-4.056,6.304c.047.001.095.002.143.004a2.03852,2.03852,0,0,0-.005-.235c-.001-.011-.069-.013-.106-.018-.011.083-.022.167-.032.249m.025-1.031.113.02906c.014-.069.027-.138.04-.206a.70535.70535,0,0,0-.116-.015,1.35375,1.35375,0,0,0-.037.19195"/>
    </g>
  </g>
</svg>
