<svg xmlns="http://www.w3.org/2000/svg" viewBox="0 0 87.12402 87.12396">
  <defs>
    <style>
      .a {
        fill: #48443e;
      }

      .b {
        fill: #fff;
      }
    </style>
  </defs>
  <title>logo-dark-f</title>
  <g>
    <path class="a" d="M87.124,43.562A43.562,43.562,0,1,0,43.562,87.124,43.56215,43.56215,0,0,0,87.124,43.562"/>
    <path class="b" d="M62.48,25.34668h.533c2.277,0,4.553-.005,6.83.00305,1.137.003,2.276.011,3.412.053a2.47956,2.47956,0,0,1,2.286,1.511,1.03571,1.03571,0,0,1,.087.409c.024,1.733.056,3.467.057,5.201q.009,15.13652,0,30.272c-.001.866,0,1.734-.064,2.596a2.20242,2.20242,0,0,1-1.538,1.916,2.64961,2.64961,0,0,1-.955.179q-4.43847.03755-8.877.042-5.508-.00147-11.014-.043a3.461,3.461,0,0,1-1.58-.244,2.87512,2.87512,0,0,1-1.366-1.621.91492.91492,0,0,1-.021-.337c-.011-1.579-.013-3.158-.034-4.737-.006-.508-.059-1.015-.092-1.513-.33-.094-5.988-.117-6.508-.029a3.86485,3.86485,0,0,0-.184,1.448,5.738,5.738,0,0,0,.516,2.395,8.358,8.358,0,0,0,1.3,1.838q.42.48147.822.97595a.62879.62879,0,0,1,.07.754.60108.60108,0,0,1-.578.352c-1.081.005-2.161.036-3.241.042-2.561.017-5.122.036-7.683.037-1.963.001-3.926-.021-5.888-.037-.256-.002-.511-.045-.765-.043a.61619.61619,0,0,1-.623-.353.66893.66893,0,0,1,.076-.757c.146-.192.31-.371.465-.555a8.74707,8.74707,0,0,0,1.445-1.994,5.19758,5.19758,0,0,0,.579-2.204c-.006-.465,0-.931-.014-1.395a4.17012,4.17012,0,0,0-.087-.517c-.157,0-.282.001-.409,0q-6.95852-.01648-13.917-.039c-.809-.003-1.621-.004-2.428-.06a1.97133,1.97133,0,0,1-.818-.315,2.40175,2.40175,0,0,1-1.289-2.194q-.00751-17.121-.025-34.24a2.61012,2.61012,0,0,1,2.547-2.533c4.766.036,9.534.014,14.302.014,10.689,0,21.376.015,32.065-.018a2.755,2.755,0,0,1,2.578,2.365c.035.624.023,1.251.028,1.876.003.481,0,.962,0,1.499m-12.237,17v-6.449H28.071a2.426,2.426,0,0,1-.382-.005.68881.68881,0,0,1-.558-.918.79016.79016,0,0,1,.723-.49005c.099-.002.198,0,.298,0H50.24v-6.442H28.145c-.127,0-.256.007-.383-.003a.72087.72087,0,0,1-.565-1.079.678.678,0,0,1,.672-.338q5.679.01355,11.356.005H50.198a.57362.57362,0,0,0,.551-.214,2.48875,2.48875,0,0,1,2.054-1.02c2.091-.00995,4.182-.031,6.272-.046.513-.004,1.024-.001,1.538-.001h.351c.032-.067.054-.091.054-.115.004-1.053.01-2.106.007-3.159a.65229.65229,0,0,0-.085-.276,1.23052,1.23052,0,0,0-1.225-.729q-21.66752.018-43.334.011c-1.023.001-2.047.028-3.069.04706a.96266.96266,0,0,0-.896.818c-.035.367-.059.736-.059,1.102q-.006,8.583-.003,17.164,0,4.33346.001,8.667c0,.15.009.299.015.44H50.231c.082-.648.054-5.203-.037-5.524H28.218c-.142,0-.284.002-.427-.001a.68236.68236,0,0,1-.645-.944c.117-.324.275-.421.689-.421q10.88553-.0195,21.773-.037c.141,0,.284.002.426-.004a1.431,1.431,0,0,0,.209-.039m24.002-9.289H51.769c-.084.53-.064,25.862.016,26.168h22.46Zm-23.994,17.767a.86422.86422,0,0,0-.212-.059q-18.699-.00294-37.399,0a.85851.85851,0,0,0-.209.058c-.007.083-.02.152-.02.22q-.00151,2.58453,0,5.167a2.72933,2.72933,0,0,0,.03.382.946.946,0,0,0,.887.825c.441.018.882.037,1.322.037q9.07353.003,18.146.002H50.251Zm23.986,9.953H51.781c-.026.052-.049.077-.049.102.016,1.463.025,2.926.055,4.388a.7432.7432,0,0,0,.675.71,7.05279,7.05279,0,0,0,.847.064c1.75.018,3.499.039,5.248.036q7.0215-.00751,14.041-.036a7.619,7.619,0,0,0,.892-.063.78093.78093,0,0,0,.678-.665,7.54862,7.54862,0,0,0,.066-.889c.008-1.06695.003-2.134.003-3.201ZM51.69,31.62872h.625c4.209,0,8.42.007,12.629-.002,2.986-.005,5.971-.029,8.956-.047.111-.001.218-.019.334-.029a1.47036,1.47036,0,0,0,.028-.189c.002-1.18-.006-2.36.006-3.541a.85792.85792,0,0,0-.46-.79895,1.55228,1.55228,0,0,0-.848-.22705c-3.939.007-7.879-.002-11.818.006-2.673.005-5.345.029-8.019.047a5.41025,5.41025,0,0,0-.636.041.79824.79824,0,0,0-.697.7c-.043,1.318-.067,2.639-.1,4.04m-9.567,27.424c-3.631-.11895-7.176-.03094-10.735-.064a2.95409,2.95409,0,0,0,.001.344,7.99968,7.99968,0,0,1-.042,2.287,7.13217,7.13217,0,0,1-1.189,2.981c-.15.22-.296.443-.449.673.401.114,13.761.122,14.152.004a7.48742,7.48742,0,0,1-1.738-6.225"/>
    <path class="b" d="M21.22952,43.02509c-.423-.285-.789-.527-1.149-.77594-.327-.225-.657-.447-.97-.689-.365-.282-.431-.516-.278-.84a.78938.78938,0,0,1,.884-.434,1.511,1.511,0,0,1,.498.224c.982.649,1.957,1.309,2.934,1.967a1.423,1.423,0,0,1,.199.158.48646.48646,0,0,1-.028.801c-.406.31-.828.597-1.254.879-.684.456-1.379.895-2.065,1.348a.71784.71784,0,0,1-.839.012.64916.64916,0,0,1-.088-1.152c.457-.358.95-.67,1.428-1,.221-.153.443-.303.728-.498"/>
    <path class="b" d="M21.22232,27.40845c-.318-.223-.581-.41-.845-.594-.418-.292-.845-.573-1.256-.874a.64629.64629,0,0,1-.249-.915.73981.73981,0,0,1,.994-.313,7.38506,7.38506,0,0,1,.878.518c.78.518,1.553,1.045,2.329,1.569.07.048.134.107.205.151a.53637.53637,0,0,1-.013.92c-.461.305-.909.631-1.369.938-.604.401-1.205.802-1.821,1.181a.84261.84261,0,0,1-1.094-.092.58927.58927,0,0,1,.034-.958c.447-.34594.925-.652,1.393-.973.251-.174.505-.347.814-.558"/>
    <path class="b" d="M21.2449,35.20789c-.396-.265-.74-.488-1.076-.723-.383-.267-.774-.526-1.132-.823a.5339.5339,0,0,1-.154-.814.73375.73375,0,0,1,.905-.354,4.79775,4.79775,0,0,1,.748.401c.818.54,1.629,1.089,2.438,1.639a2.52713,2.52713,0,0,1,.426.35095.40751.40751,0,0,1-.016.635,2.09417,2.09417,0,0,1-.347.313q-1.41151.951-2.831,1.887a2.02829,2.02829,0,0,1-.38.186.78854.78854,0,0,1-1.061-.602.58257.58257,0,0,1,.288-.575q.72752-.519,1.463-1.026c.22-.154.444-.301.729-.495"/>
    <path class="b" d="M69.4259,46.32239c-.498-.45-.961-.865-1.42-1.283-.441-.401-.888-.797-1.316-1.211a.73266.73266,0,0,1,.101-1.14.95644.95644,0,0,1,1.183.047c.74.597,1.472,1.206,2.203,1.812q.67351.55647,1.336,1.121c.514.44.522.767.017,1.216q-.70047.621-1.421,1.221c-.719.599-1.442,1.196-2.17,1.784a.97668.97668,0,0,1-1.185-.017.68083.68083,0,0,1-.126-1.014,9.74461,9.74461,0,0,1,.942-.919c.59-.527,1.194-1.042,1.856-1.617"/>
    <path class="b" d="M56.3031,46.31525c.421.379.819.74005,1.218,1.097.474.426.954.846,1.425,1.277a.764.764,0,0,1,.133,1.094.871.871,0,0,1-1.219.156c-.594-.481-1.175-.981-1.747-1.49-.603-.538-1.193-1.09-1.778-1.649a.57209.57209,0,0,1,.006-.979q1.716-1.55548,3.464-3.081a.80859.80859,0,0,1,1.06-.071.73981.73981,0,0,1,.159,1.197c-.513.49-1.051.952-1.579,1.426-.369.331-.737.66095-1.142,1.023"/>
    <path class="b" d="M61.0575,50.10846a.723.723,0,0,1-.612-.223.60387.60387,0,0,1-.175-.836c.228-.457.475-.905.735-1.343q1.338-2.253,2.69-4.494c.065-.10894.141-.21295.209-.322a.91918.91918,0,0,1,1.245-.247.68086.68086,0,0,1,.299.98q-.44852.86856-.955,1.70905c-.881,1.457-1.779,2.90295-2.66,4.36a.771.771,0,0,1-.776.416"/>
    <path class="b" d="M63.35431,64.4574a1.01593,1.01593,0,0,1-1.044-1.09094,1.02817,1.02817,0,0,1,1.099-1.043,1.12775,1.12775,0,0,1,1.029,1.101,1.08907,1.08907,0,0,1-1.084,1.033"/>
  </g>
</svg>
