<?xml version="1.0" encoding="UTF-8"?>
<svg id="b" data-name="Слой 2" xmlns="http://www.w3.org/2000/svg" viewBox="0 0 512 512">
  <defs>
    <style>
      .d {
        fill: none;
      }
    </style>
  </defs>
  <g id="c" data-name="Слой 1">
    <rect class="d" width="512" height="512"/>
    <path d="M504.3,49.32c-5.65-4.58-14.37-5.55-18.27-5.48-17.73,.32-44.94,9.78-175.87,64.24-45.86,19.08-137.51,58.56-274.95,118.44C12.88,235.38,1.19,244.06,.12,252.55c-2.04,16.3,21.42,21.37,50.95,30.97,24.07,7.83,56.46,16.98,73.29,17.34,15.27,.33,32.31-5.97,51.13-18.89,128.42-86.69,194.71-130.5,198.87-131.45,2.94-.66,7-1.49,9.76,.95s2.48,7.09,2.19,8.33c-2.33,9.95-122.97,119.68-129.91,126.89-26.53,27.57-56.7,44.42-10.16,75.09,40.28,26.54,63.72,43.48,105.22,70.68,26.52,17.38,47.31,38,74.69,35.48,12.6-1.16,25.61-13.01,32.22-48.34,15.63-83.5,46.33-264.42,53.42-338.97,.43-6.2,.16-12.43-.79-18.57-.56-4.95-2.95-9.5-6.71-12.77Z"/>
  </g>
</svg>