<?xml version="1.0" encoding="UTF-8"?>
<svg id="b" data-name="Слой 2" xmlns="http://www.w3.org/2000/svg" viewBox="0 0 512 512">
  <defs>
    <style>
      .d {
        fill: none;
      }
    </style>
  </defs>
  <g id="c" data-name="Слой 1">
    <rect class="d" width="512" height="512"/>
    <path d="M246.73,9.25C110.67,9.25,0,119.92,0,255.85c0,46.65,12.96,91.96,37.69,131.25l5.88,9.36-24.86,91.02,93.29-24.46,8.96,5.35c37.82,22.45,81.26,34.35,125.64,34.35,135.93,0,249.4-110.67,249.4-246.73,.13-65.89-28.47-127.78-74.98-174.42C374.51,34.91,312.62,9.25,246.73,9.25Zm144.88,352.85c-6.15,17.38-35.69,33.15-49.99,35.29-23.52,3.48-41.97,1.74-89.02-18.58-74.45-32.21-122.96-107.06-126.71-112-3.61-4.95-30.21-40.23-30.21-76.72s19.11-54.4,25.93-61.88c6.82-7.35,14.84-9.22,19.78-9.22s9.89,0,14.17,.27c4.54,.27,10.69-1.74,16.71,12.7,6.15,14.84,20.98,51.32,22.86,55.07,1.87,3.74,3.07,8.02,.67,12.96-14.17,28.34-29.4,27.4-21.79,40.5,28.74,49.32,57.34,66.43,100.91,88.21,7.35,3.74,11.76,3.07,16.04-1.87,4.41-5.08,18.58-21.65,23.52-29.14s9.89-6.28,16.71-3.74c6.82,2.41,43.3,20.32,50.66,24.06,7.35,3.61,12.3,5.48,14.03,8.82,1.87,3.07,1.87,17.91-4.28,35.29Z"/>
  </g>
</svg>