<?xml version="1.0" standalone="no"?>
<!DOCTYPE svg PUBLIC "-//W3C//DTD SVG 1.1//EN" "http://www.w3.org/Graphics/SVG/1.1/DTD/svg11.dtd" >
<svg xmlns="http://www.w3.org/2000/svg">
<metadata>Generated by IcoMoon</metadata>
<defs>
<font id="icomoon" horiz-adv-x="1024">
<font-face units-per-em="1024" ascent="960" descent="-64" />
<missing-glyph horiz-adv-x="1024" />
<glyph unicode="&#x20;" horiz-adv-x="512" d="" />
<glyph unicode="&#xe900;" glyph-name="add" d="M482.419 424.141v-220.068h62.877v220.068h220.070v62.877h-220.070v220.070h-62.877v-220.070h-220.068v-62.877h220.068z" />
<glyph unicode="&#xe901;" glyph-name="bag" d="M357.771 672.211h282.947c0 38.308-26.838 62.877-52.396 62.877h-167.674c-34.726 0-62.877-28.151-62.877-62.877zM892.227 420.702v-282.947l-31.439-31.439h-691.648l-31.439 31.439v503.018l31.439 31.439h125.754c0 69.452 56.302 125.754 125.754 125.754h167.674c67.043 0 115.274-59.885 115.274-125.754h157.193l31.439-31.439v-220.070zM829.35 420.702v188.632h-628.772v-188.632h125.754v31.439l31.439 31.439h62.877v62.877l31.439 31.439h125.754l31.439-31.439v-62.877h62.877l31.439-31.439v-31.439h125.754zM640.719 357.825v62.877h-94.316v94.316h-62.877v-94.316h-94.316v-62.877h94.316v-94.316h62.877v94.316h94.316zM703.596 357.825v-31.439l-31.439-31.439h-62.877v-62.877l-31.439-31.439h-125.754l-31.439 31.439v62.877h-62.877l-31.439 31.439v31.439h-125.754v-188.632h628.772v188.632h-125.754z" />
<glyph unicode="&#xe902;" glyph-name="ball" d="M475.034 690.631l-36.298 36.298c-66.63-16.37-123.981-56.342-162.685-110.543l14.171-52.887 86.729-34.166 98.083 65.387v95.911zM223.527 452.141c0-63.438 20.877-122 56.135-169.19h40.937l54.238 54.24-22.223 134.149-84.816 33.411-41.24-11.050c-1.998-13.564-3.031-27.441-3.031-41.56zM373.275 202.443c39.695-21.22 85.042-33.249 133.199-33.249 51.823 0 100.392 13.932 142.165 38.254v30.287l-57.211 57.213h-169.912l-48.241-48.243v-44.262zM696.758 278.539h33.163c37.292 47.929 59.5 108.172 59.5 173.602 0 9.471-0.465 18.834-1.374 28.068l-42.668 24.633-85.049-33.503-22.223-134.149 58.652-58.652zM741.75 609.37c-38.678 57.763-98.063 100.489-167.534 117.557l-36.305-36.305v-95.902l98.081-65.387 77.078 30.364 28.679 49.673zM160.649 452.141c0 190.992 154.831 345.824 345.825 345.824s345.825-154.832 345.825-345.824c0-190.994-154.831-345.825-345.825-345.825s-345.825 154.831-345.825 345.825zM415.052 479.164l20.101-121.339h142.638l20.101 121.339-91.42 60.946-91.42-60.946z" />
<glyph unicode="&#xe903;" glyph-name="bank" d="M875.847 605.489l-360.879 196.844-360.879-196.844 15.054-59.038h62.877v-251.509h-31.439v-62.877h628.772v62.877h-31.439v251.509h62.877l15.055 59.038zM294.898 294.943v251.509h94.316v-251.509h-94.316zM452.091 294.943v251.509h125.754v-251.509h-125.754zM640.722 294.943v251.509h94.316v-251.509h-94.316zM514.968 730.71l222.533-121.382h-445.066l222.533 121.382zM137.702 137.75h754.526v62.877h-754.526v-62.877z" />
<glyph unicode="&#xe904;" glyph-name="car" d="M702.371 731.359l109.227-220.070h40.263v-62.877h-31.439v-282.947l-31.439-31.439h-125.754l-31.439 31.439v44.014h-251.509v-44.014l-31.439-31.439h-125.754l-31.439 31.439v282.947h-31.439v62.877h40.262l109.227 220.070h392.672zM741.401 511.289l-78.018 157.193h-314.697l-78.018-157.193h470.733zM254.527 448.411v-251.509h62.877v44.014l31.439 31.439h314.386l31.439-31.439v-44.014h62.877v251.509h-503.018zM364.562 322.657c26.044 0 47.158 21.114 47.158 47.158 0 26.046-21.114 47.158-47.158 47.158-26.046 0-47.158-21.112-47.158-47.158 0-26.044 21.112-47.158 47.158-47.158zM694.667 369.815c0-26.044-21.114-47.158-47.158-47.158-26.046 0-47.158 21.114-47.158 47.158 0 26.046 21.112 47.158 47.158 47.158 26.044 0 47.158-21.112 47.158-47.158z" />
<glyph unicode="&#xe905;" glyph-name="cart" d="M240.875 703.65h-69.77v62.877h118.863l31.439-125.754h486.224l-71.38-321.207-30.689-24.617h-345.825l-30.689 24.617-62.787 282.545-25.384 101.539zM336.052 577.895l48.904-220.070h295.386l48.904 220.070h-393.194zM454.052 200.632c0-34.726-28.151-62.877-62.877-62.877s-62.877 28.151-62.877 62.877c0 34.726 28.151 62.877 62.877 62.877s62.877-28.151 62.877-62.877zM642.684 137.755c34.726 0 62.877 28.151 62.877 62.877s-28.151 62.877-62.877 62.877c-34.726 0-62.877-28.151-62.877-62.877s28.151-62.877 62.877-62.877z" />
<glyph unicode="&#xe906;" glyph-name="case" d="M382.685 766.527l-31.439-31.439v-94.316h-157.193l-31.439-31.439v-440.14l31.439-31.439h628.772l31.439 31.439v440.14l-31.439 31.439h-157.193v94.316l-31.439 31.439h-251.509zM602.755 640.772h-188.632v62.877h188.632v-62.877zM414.124 577.895h188.632v-377.263h-188.632v377.263zM351.246 577.895v-377.263h-125.754v377.263h125.754zM665.632 200.632v377.263h125.754v-377.263h-125.754z" />
<glyph unicode="&#xe907;" glyph-name="child" d="M186.673 309.004c20.426-26.947 49.116-52.727 90.166-73.207v163.642c3.521 78.704 31.78 112.892 32.301 134.557-1.689 0.234-3.431 0.090-6.306-0.269-11.533-5.713-10.689-14.336-22.061-26.426-12.072-12.827-36.415-21.432-68.86-16.671-10.078 3.575-22.582 11.623-27.738 19.456-4.922 7.473-8.156 19.366-8.767 27.774-1.096 15.288 2.946 35.050 8.048 51.092 6.773 21.27 17.767 43.87 26.588 58.997-3.144 3.306-7.042 7.060-11.462 11.282-7.042 6.737-15.396 14.659-20.839 21.558-3.162 4.024-7.833 11.857-9.144 18.073-0.952 4.455-0.305 14.444 2.246 19.761 2.479 5.21 10.509 11.821 15.019 14.641 54.775 24.594 106.011 32.894 146.899 27.594 41.912-5.407 79.962-25.6 107.161-50.122 54.092-48.757 75.381-106.55 88.28-156.888 26.283-1.132 54.613-2.012 91.441-10.941 26.157-7.294 46.224-17.21 63.272-31.187 34.205 14.102 69.614 5.875 95.933-14.965 28.618-22.654 47.212-60.2 47.212-102.49h-53.895c0 26.732-11.767 48.362-26.768 60.236-7.15 5.659-14.839 9.072-22.672 10.042 12.126-21.935 19.977-53.032 23.48-70.494l0.521-2.605v-150.133c35.499 19.492 61.009 43.098 79.656 67.692l42.954-32.534c-59.841-79.010-168.529-138.671-362.819-138.671-194.273 0-302.96 59.661-362.801 138.671l42.954 32.534zM506.521 191.693c48.631 0 90.723 3.916 127.174 10.851-20.588 47.751-42.595 81.237-66.398 104.807-23.678 23.444-41.912 32.211-63.883 32.319-21.809 0.108-38.553-8.048-60.236-31.043-22.33-23.678-42.056-57.524-59.428-106.891 35.427-6.431 76.081-10.042 122.772-10.042zM675.642 438.423c-20.534 33.864-31.816 44.301-69.057 52.206-31.439 8.138-79.369 9.881-100.136 9.863l-22.672-0.018-3.844 22.223c-8.228 47.373-31.151 107.484-76.099 148.013-22.33 20.139-45.487 32.499-77.986 36.702-26.301 3.395-54.362 1.042-88.208-10.959 6.755-6.467 14.48-14.067 19.833-21.001 3.234-4.204 7.527-11.282 9.216-16.959 2.264-7.563-2.443-23.318-7.833-32.768-3.036-2.264-15.486-26.229-24.055-53.122-4.222-13.312-6.198-22.869-5.623-30.918 0.018-0.305 0.036-0.593 0.036-0.808 9.036-4.222 7.276-1.994 12.306 3.341 6.396 6.809 16.204 22.007 36.666 37.636l4.186 3.198 6.324 0.97c12.899 1.958 31.007 2.066 43.565-2.803 6.97-2.731 16.905-9.719 21.845-16.671 4.743-6.665 8.030-19.115 8.641-28.51-3.844-40.062-35.75-73.279-31.996-138.599v-152.414l11.048-4.437c17.947 43.493 34.996 74.213 62.177 103.029 28.295 30.001 66.075 48.11 99.687 47.948 33.451-0.162 71.572-18.216 101.556-47.912 26.642-26.39 52.655-66.057 74.896-115.029 1.347 0.287 2.838 0.665 4.563 1.168 3.862 1.114 6.162 1.958 8.156 3.108v151.211c-3.431 17.103-7.671 38.589-17.192 52.314z" />
<glyph unicode="&#xe908;" glyph-name="engin" d="M424.347 291.218l-22.418 61.756-13.759 11.029c-43.252 34.672-70.766 87.744-70.766 147.285 0 104.179 84.453 188.632 188.632 188.632s188.632-84.453 188.632-188.632c0-59.541-27.515-112.613-70.767-147.285l-13.758-11.029-22.418-61.756h-163.377zM380.281 228.341h251.509l31.439 86.602c57.498 46.094 94.316 116.921 94.316 196.346 0 138.905-112.604 251.509-251.509 251.509s-251.509-112.604-251.509-251.509c0-79.425 36.817-150.251 94.316-196.346l31.439-86.602zM600.351 134.025v62.877h-188.632v-62.877h188.632z" />
<glyph unicode="&#xe909;" glyph-name="gk" d="M348.843 731.359v-628.772h62.877v171.439h188.632v-171.439h62.877v628.772h-314.386zM474.597 102.587h62.877v108.562h-62.877v-108.562zM663.229 39.71h-565.895v314.386h188.632v440.141h440.14v-314.387h188.632v-440.14h-251.509zM285.965 291.218h-125.755v-188.632h125.755v188.632zM726.106 102.587h125.754v314.386h-125.754v-314.386z" />
<glyph unicode="&#xe90a;" glyph-name="grad" d="M703.599 471.904v-124.795l-188.632-80.842-188.632 80.842v124.791l188.628-85.741 188.635 85.745zM766.477 500.484l170.288 77.402-421.8 191.727-377.262-171.482v-303.192h62.876v234.124l62.881-28.582v-194.833l251.509-107.789 251.509 107.789v194.837zM245.115 577.886l269.849 122.659 269.851-122.659-269.851-122.659-269.849 122.659zM137.706 200.623v62.877h62.876v-62.877h-62.876z" />
<glyph unicode="&#xe90b;" glyph-name="hand" d="M467.492 707.088h0.011v-152.889c-0.39-3.825-0.587-7.721-0.587-11.675h0.587v-118.383h62.877v127.062c1.904 13.141 8.645 22.76 22.999 22.76 17.363 0 24.359-14.076 24.359-31.439h0.104v-136.88h49.86v105.215h0.181c0 17.363 4.908 31.439 18.604 31.439 10.54 0 16.237-8.336 18.303-20.090v-123.642h50.86v74.105c1.547 10.474 5.7 17.561 15.588 17.561 13.686 0 15.31-13.578 15.311-30.923h-0.041v-140.442h0.18c-5.698-116.192-101.509-208.7-219.017-209.11-29.091 0-80.603 2.925-120.854 24.549-39.907 21.441-85.464 62.981-126.99 145.593l-54.685 135.454-1.022 2.271c-7.754 15.534-1.446 34.415 14.090 42.169 15.516 7.745 34.37 1.461 42.142-14.034l79.559-161.28 59.633 13.908v62.877h0.002v345.825h0.002c0 17.363 6.221 31.439 23.584 31.439s24.36-14.076 24.36-31.439zM809.386 329.825v129.484h-0.252c-0.018 52.071-36.817 93.8-77.896 93.8-7.691 0-14.812-1.462-21.312-4.18-9.951 33.127-33.037 56.246-63.439 56.246-8.258 0-15.951-1.705-22.974-4.854-15.25 22.221-39.825 36.519-70.135 36.519-8.118 0-15.806-1.024-22.999-2.953v80.158h-0.223c-2.98 48.841-37.275 87.359-87.026 87.359-52.089 0-86.462-42.226-86.462-94.315h-0.002v-273.909l-20.031 40.604c-23.263 46.606-79.903 65.531-126.509 42.268-46.197-23.058-65.196-78.911-42.87-125.28l54.742-135.592 1.033-2.291c46.353-92.708 100.483-145.207 154.026-173.972 52.944-28.444 115.841-31.983 149.827-32.037v-0.002c156.268 0 282.947 126.68 282.947 282.947h-0.447z" />
<glyph unicode="&#xe90c;" glyph-name="layers" d="M895.258 538.169l-123.852-61.298 123.852-61.296-127.044-62.877 127.044-62.877-382.103-189.111-382.103 189.111 127.044 62.877-127.044 62.877 123.852 61.296-123.852 61.298 382.103 189.111 382.103-189.111zM328.973 317.62l-56.169-27.799 240.351-118.955 240.351 118.955-56.169 27.799-184.182-91.156-184.182 91.156zM513.155 349.058l-187.374 92.735-52.977-26.218 240.351-118.955 240.351 118.955-52.977 26.218-187.374-92.735zM513.155 657.124l-240.351-118.955 240.351-118.955 240.351 118.955-240.351 118.955z" />
<glyph unicode="&#xe90d;" glyph-name="left" d="M277.055 424.148l203.674-197.499-43.772-45.14-282.644 274.078 282.644 274.080 43.772-45.14-203.674-197.501h614.068v-62.877h-614.068z" />
<glyph unicode="&#xe90e;" glyph-name="map" d="M921.86 735.825v-567.909l-278.224-70.967-122.318 33.429-133.49 29.664-283.372-70.843v567.83l282.522 70.631 149.457-33.212 107.755-29.45 277.669 70.827zM612.476 608.484l-91.158 24.912-102.475 22.772v-438.606l117.593-26.132 76.040-20.782v437.835zM675.353 169.93l183.63 46.838v438.128l-183.63-46.84v-438.126zM355.966 216.889v438.206l-188.632-47.158v-438.206l188.632 47.158z" />
<glyph unicode="&#xe90f;" glyph-name="minus" d="M262.351 487.018h503.018v-62.877h-503.018v62.877z" />
<glyph unicode="&#xe910;" glyph-name="naber" d="M587.507 507.212c1.779 9.378 2.551 17.552 2.551 27.432 0 42.81-14.713 75.56-43.026 103.873s-61.063 43.026-103.891 43.026c-42.81 0-75.56-14.713-103.873-43.026s-43.026-61.063-43.026-103.873c0-15.486 1.796-28.852 5.875-42.074 11.929 1.15 23.624 1.832 34.582 1.832 36.954 0 65.32-7.815 90.453-14.767l0.755-0.198c25.295-6.97 47.338-12.953 76.351-12.953 28.654 0 50.481 5.821 75.363 12.683 2.030 6.378 6.539 20.893 7.887 28.043zM233.364 534.645c0 55.673 25.205 112.101 61.44 148.336s92.663 61.44 148.336 61.44c55.673 0 112.119-25.205 148.354-61.44s61.44-92.663 61.44-148.336c0-12.719-2.928-28.618-5.892-41.427 7.833 0.755 16.079 1.186 24.792 1.186 36.199 0 80.429-7.491 114.365-14.552 17.228-3.575 32.319-7.15 43.098-9.827 5.407-1.347 9.755-2.479 12.755-3.27 1.509-0.395 2.677-0.719 3.485-0.934l0.934-0.252 0.359-0.090c0 0 0.018 0-7.42-26.929-7.42-26.929-7.42-26.929-7.42-26.929l-0.036 0.018-0.18 0.054-0.79 0.198c-0.701 0.198-1.779 0.485-3.162 0.844-2.785 0.737-6.881 1.796-12.001 3.072-10.258 2.551-24.63 5.964-40.996 9.36-33.271 6.916-72.83 13.384-102.993 13.384-29.013 0-51.056-5.982-76.351-12.953l-0.755-0.216c-25.133-6.934-53.5-14.767-90.471-14.767-36.954 0-65.32 7.833-90.453 14.767l-0.755 0.216c-25.295 6.97-47.338 12.953-76.351 12.953-30.163 0-69.722-6.467-102.993-13.384-16.366-3.395-30.738-6.809-40.996-9.36-5.12-1.276-9.216-2.335-12.001-3.072-1.383-0.359-2.461-0.647-3.162-0.844l-0.79-0.198-0.18-0.054-0.036-0.018c0 0 0 0-7.42 26.929-7.437 26.929-7.437 26.929-7.437 26.929l0.108 0.018 0.252 0.072 0.952 0.252c0.808 0.216 1.976 0.539 3.485 0.934 3 0.79 7.348 1.922 12.755 3.27 10.779 2.677 25.869 6.252 43.098 9.827 5.623 1.168 11.516 2.353 17.624 3.503-4.15 16.653-6.593 34.277-6.593 51.29zM177.146 299.919c0 0 0.004 0-7.425 26.924-7.428 26.922-7.422 26.924-7.422 26.924l0.104 0.029 0.255 0.070 0.936 0.255c0.809 0.217 1.983 0.532 3.489 0.929 3.010 0.794 7.35 1.917 12.752 3.261 10.792 2.684 25.88 6.261 43.112 9.841 33.93 7.051 78.162 14.55 114.35 14.55 36.963 0 65.324-7.827 90.464-14.764l0.751-0.207c25.289-6.978 47.347-12.96 76.36-12.96s51.071 5.982 76.36 12.96l0.749 0.207c25.142 6.936 53.503 14.764 90.466 14.764 36.189 0 80.42-7.499 114.348-14.55 17.234-3.58 32.322-7.157 43.114-9.841 5.402-1.344 9.741-2.467 12.751-3.261 1.505-0.397 2.679-0.711 3.489-0.929l1.295-0.354c0 0 0.005-0.002-7.423-26.924-7.428-26.924-7.425-26.924-7.425-26.924l-0.041 0.011-0.181 0.050-0.785 0.212c-0.706 0.192-1.771 0.476-3.164 0.844-2.786 0.733-6.873 1.793-11.999 3.067-10.262 2.553-24.628 5.959-40.996 9.36-33.271 6.913-72.826 13.38-102.984 13.38-29.013 0-51.071-5.982-76.36-12.958l-0.749-0.208c-25.142-6.936-53.503-14.764-90.466-14.764s-65.326 7.827-90.466 14.764l-0.749 0.208c-25.289 6.976-47.347 12.958-76.36 12.958-30.158 0-69.713-6.467-102.986-13.38-16.368-3.401-30.733-6.807-40.994-9.36-5.125-1.274-9.212-2.334-11.999-3.067-1.392-0.368-2.458-0.652-3.164-0.844l-0.785-0.212-0.181-0.050-0.041-0.011zM177.146 188.2c0 0 0.004 0.002-7.425 26.924-7.428 26.924-7.422 26.926-7.422 26.926l0.104 0.029 0.255 0.070 0.936 0.253c0.809 0.219 1.983 0.534 3.489 0.931 3.010 0.792 7.35 1.917 12.752 3.259 10.792 2.684 25.88 6.263 43.112 9.843 33.93 7.051 78.162 14.548 114.35 14.548 36.963 0 65.324-7.826 90.464-14.762l0.751-0.208c25.289-6.978 47.347-12.958 76.36-12.958s51.071 5.981 76.36 12.958l0.749 0.208c25.142 6.936 53.503 14.762 90.466 14.762 36.189 0 80.42-7.497 114.348-14.548 17.234-3.58 32.322-7.159 43.114-9.843 5.402-1.342 9.741-2.467 12.751-3.259 1.505-0.397 2.679-0.711 3.489-0.931l0.936-0.253 0.359-0.099c0 0 0.005-0.002-7.423-26.926-7.428-26.922-7.425-26.924-7.425-26.924l-0.041 0.013-0.181 0.049-0.785 0.214c-0.706 0.19-1.771 0.476-3.164 0.843-2.786 0.735-6.873 1.793-11.999 3.068-10.262 2.553-24.628 5.957-40.996 9.358-33.271 6.915-72.826 13.38-102.984 13.38-29.013 0-51.071-5.981-76.36-12.958l-0.749-0.207c-25.142-6.938-53.503-14.764-90.466-14.764s-65.326 7.826-90.466 14.764l-0.749 0.207c-25.289 6.978-47.347 12.958-76.36 12.958-30.158 0-69.713-6.466-102.986-13.38-16.368-3.401-30.733-6.805-40.994-9.358-5.125-1.276-9.212-2.334-11.999-3.068-1.392-0.366-2.458-0.652-3.164-0.843l-1.008-0.275z" />
<glyph unicode="&#xe911;" glyph-name="park" d="M380.281 731.359c82.443 0 157.193-79.732 157.193-188.632 0-94.822-56.676-167.532-125.754-184.744v143.788l57.597 86.395-52.317 34.879-45.439-68.159-68.157 45.439-34.877-52.317 80.316-53.543v-136.481c-69.080 17.212-125.754 89.922-125.754 184.744 0 108.9 74.748 188.632 157.193 188.632zM160.211 542.727c0-122.756 78.804-231.402 188.632-249.017v-159.685h-220.071v-62.877h754.527v62.877h-94.316v62.877l-31.439 31.439h-251.509l-31.439-31.439v-62.877h-62.877v159.685c109.828 17.615 188.632 126.261 188.632 249.017 0 134.184-94.158 251.51-220.070 251.51-125.914 0-220.071-117.326-220.071-251.51zM537.474 134.025v31.439h188.632v-31.439h-188.632z" />
<glyph unicode="&#xe912;" glyph-name="parking" d="M510.527 160.973c-156.268 0-282.947 126.681-282.947 282.947 0 156.268 126.68 282.947 282.947 282.947s282.947-126.68 282.947-282.947c0-156.266-126.68-282.947-282.947-282.947zM510.527 98.096c190.992 0 345.825 154.832 345.825 345.825s-154.832 345.825-345.825 345.825c-190.994 0-345.825-154.831-345.825-345.825 0-190.992 154.831-345.825 345.825-345.825zM407.719 282.040v320.776h103.187c37.087 0 66.098-8.375 87.036-25.124 21.235-16.45 31.852-41.125 31.852-74.026v-1.793c0-32.601-10.617-57.127-31.852-73.577-21.236-16.15-49.799-24.227-85.691-24.227h-44.864v-122.028h-59.669zM467.388 447.139h43.518c19.74 0 34.694 4.635 44.864 13.907 10.468 9.572 15.701 23.18 15.701 40.827v1.793c0 35.294-20.187 52.941-60.565 52.941h-43.518v-109.467z" />
<glyph unicode="&#xe913;" glyph-name="public" d="M128.772 196.903v-125.754h503.018v125.754c0 67.97-26.962 129.642-70.775 174.906 21.854 8.851 45.744 13.725 70.775 13.725 104.179 0 188.632-84.453 188.632-188.632v-62.877h-157.193v-62.877h220.070v125.754c0 109.219-69.619 202.179-166.899 236.923-26.441 9.444-54.924 14.586-84.609 14.586s-58.17-5.142-84.609-14.586c-14.363-5.129-28.124-11.528-41.145-19.061-13.023 7.533-26.782 13.932-41.145 19.061-26.441 9.444-54.924 14.586-84.609 14.586s-58.17-5.142-84.609-14.586c-97.282-34.744-166.9-127.704-166.9-236.923zM380.281 479.85c28.879 0 55.941 7.79 79.197 21.38 18.152 10.606 33.986 24.75 46.558 41.483 12.572-16.733 28.406-30.876 46.556-41.483 23.257-13.59 50.318-21.38 79.198-21.38s55.941 7.79 79.197 21.38c46.653 27.264 77.996 77.878 77.996 135.813 0 86.815-70.378 157.194-157.193 157.194-51.421 0-97.075-24.69-125.754-62.862-28.679 38.172-74.333 62.862-125.754 62.862-86.815 0-157.193-70.378-157.193-157.194 0-57.935 31.342-108.549 77.995-135.813 23.257-13.59 50.318-21.38 79.198-21.38zM568.913 196.903v-62.877h-377.263v62.877c0 104.179 84.453 188.632 188.632 188.632s188.632-84.453 188.632-188.632zM474.597 637.043c0-52.087-42.227-94.316-94.316-94.316s-94.316 42.228-94.316 94.316c0 52.089 42.227 94.316 94.316 94.316s94.316-42.227 94.316-94.316zM631.79 731.359c52.089 0 94.316-42.227 94.316-94.316 0-52.087-42.227-94.316-94.316-94.316s-94.316 42.228-94.316 94.316c0 52.089 42.227 94.316 94.316 94.316z" />
<glyph unicode="&#xe914;" glyph-name="store" d="M207.417 794.237h597.235l78.647-214.488v-68.461c0-31.507-11.835-60.633-31.439-82.441v-357.699h-691.65v357.699c-19.603 21.808-31.439 50.934-31.439 82.441v68.461l78.646 214.488zM765.404 390.027c-34.532 0-65.103 15.067-86.456 38.82-21.355-23.753-51.926-38.82-86.456-38.82-34.532 0-65.103 15.067-86.456 38.82-21.355-23.753-51.926-38.82-86.456-38.82-34.532 0-65.103 15.067-86.456 38.82-21.355-23.753-51.926-38.82-86.456-38.82-8.1 0-15.983 0.828-23.579 2.404v-258.406h157.193v188.632h251.509v-188.632h157.193v258.406c-7.597-1.576-15.479-2.404-23.579-2.404zM443.158 134.025h125.754v125.754h-125.754v-125.754zM820.422 542.727h-110.035v-31.439c0-33.388 25.753-58.384 55.018-58.384 29.263 0 55.018 24.996 55.018 58.384v31.439zM806.847 605.604l-46.111 125.754h-509.404l-46.109-125.754h601.623zM191.65 542.727v-31.439c0-33.388 25.753-58.384 55.018-58.384 29.263 0 55.018 24.996 55.018 58.384v31.439h-110.035zM364.562 542.727v-31.439c0-33.388 25.753-58.384 55.018-58.384 29.263 0 55.018 24.996 55.018 58.384v31.439h-110.035zM537.474 542.727v-31.439c0-33.388 25.753-58.384 55.018-58.384 29.263 0 55.018 24.996 55.018 58.384v31.439h-110.035z" />
<glyph unicode="&#xe915;" glyph-name="sun" d="M547.953 951.439v-170.267c61.226-7.635 117.327-31.774 163.707-67.826l120.41 120.409 59.281-59.282-120.406-120.406c36.059-46.385 60.206-102.493 67.841-163.727h170.268v-83.837h-170.268c-7.635-61.235-31.782-117.341-67.841-163.727l120.401-120.403-59.281-59.281-120.404 120.404c-46.382-36.052-102.481-60.191-163.707-67.827v-170.268h-83.837v170.268c-61.233 7.635-117.341 31.782-163.725 67.841l-120.417-120.421-59.282 59.281 120.419 120.422c-36.052 46.382-60.191 102.483-67.826 163.709h-170.267v83.837h170.267c7.637 61.233 31.781 117.341 67.842 163.727l-120.394 120.394 59.281 59.281 120.395-120.395c46.382 36.052 102.481 60.191 163.707 67.826v170.267h83.837zM506.036 699.929c-138.905 0-251.509-112.604-251.509-251.509 0-138.903 112.604-251.509 251.509-251.509s251.509 112.606 251.509 251.509c0 138.905-112.604 251.509-251.509 251.509z" />
<glyph unicode="&#xe916;" glyph-name="swim" d="M680.369 577.895c-26.046 0-47.158-21.114-47.158-47.158 0-26.046 21.112-47.158 47.158-47.158 26.044 0 47.158 21.112 47.158 47.158 0 26.044-21.114 47.158-47.158 47.158zM570.334 530.737c0 60.77 49.263 110.035 110.035 110.035 60.77 0 110.035-49.265 110.035-110.035 0-60.772-49.265-110.035-110.035-110.035-60.772 0-110.035 49.263-110.035 110.035zM733.691 704.257l-96.883-19.377c-28.541-5.709-52.846-24.272-65.863-50.305l-71.96-143.921-230.655-98.852-24.768 57.793 209.485 89.78 61.661 123.318c21.693 43.389 62.202 74.33 109.769 83.842l96.883 19.377 12.331-61.656zM138.555 264.639c0.002 0.002 0.004 0.002-8.358 30.309-8.362 30.305-8.359 30.307-8.355 30.307l0.117 0.032 0.287 0.079 1.054 0.286c0.911 0.246 2.232 0.6 3.927 1.047 3.388 0.893 8.273 2.158 14.353 3.67 12.148 3.020 29.132 7.048 48.531 11.079 38.193 7.937 87.981 16.377 128.717 16.377 41.607 0 73.534-8.81 101.832-16.619l0.844-0.234c28.467-7.852 53.295-14.586 85.955-14.586s57.488 6.733 85.955 14.586l0.844 0.234c28.3 7.809 60.226 16.619 101.832 16.619 40.735 0 90.525-8.44 128.719-16.377 19.397-4.031 36.383-8.059 48.53-11.079 6.079-1.513 10.964-2.777 14.352-3.67 1.696-0.447 3.016-0.801 3.927-1.047l1.055-0.286 0.404-0.111c0.004 0 0.005-0.002-8.355-30.307-8.361-30.307-8.359-30.307-8.357-30.309l-0.047 0.013-0.205 0.057-0.884 0.239c-0.794 0.216-1.994 0.537-3.562 0.95-3.135 0.825-7.736 2.017-13.504 3.453-11.553 2.873-27.723 6.706-46.146 10.535-37.453 7.782-81.979 15.062-115.926 15.062-32.66 0-57.488-6.733-85.955-14.588l-0.844-0.234c-28.298-7.808-60.226-16.618-101.832-16.618s-73.532 8.81-101.832 16.618l-0.844 0.234c-28.467 7.854-53.295 14.588-85.955 14.588-33.946 0-78.473-7.279-115.924-15.062-18.425-3.828-34.595-7.662-46.147-10.535-5.77-1.435-10.371-2.628-13.506-3.453-1.567-0.413-2.767-0.735-3.562-0.95l-0.884-0.239-0.251-0.070zM138.555 138.885c0.002 0.002 0.004 0.002-8.358 30.309-8.362 30.305-8.359 30.307-8.355 30.307l0.117 0.032 0.287 0.079 1.054 0.286c0.911 0.246 2.232 0.6 3.927 1.047 3.388 0.893 8.273 2.158 14.353 3.67 12.148 3.020 29.132 7.048 48.531 11.079 38.193 7.937 87.981 16.377 128.717 16.377 41.607 0 73.534-8.81 101.832-16.619l0.844-0.234c28.467-7.852 53.295-14.586 85.955-14.586s57.488 6.733 85.955 14.586l0.844 0.234c28.3 7.809 60.226 16.619 101.832 16.619 40.735 0 90.525-8.44 128.719-16.377 19.397-4.031 36.383-8.059 48.53-11.079 6.079-1.513 10.964-2.777 14.352-3.67 1.696-0.447 3.016-0.801 3.927-1.047l1.055-0.286 0.404-0.111c0.004 0 0.005-0.002-8.355-30.307-8.361-30.307-8.359-30.307-8.357-30.309l-0.047 0.013-0.205 0.057-0.884 0.239c-0.794 0.216-1.994 0.537-3.562 0.95-3.135 0.825-7.736 2.017-13.504 3.453-11.553 2.873-27.723 6.706-46.146 10.535-37.453 7.782-81.979 15.062-115.926 15.062-32.66 0-57.488-6.733-85.955-14.588l-0.844-0.234c-28.298-7.808-60.226-16.618-101.832-16.618s-73.532 8.81-101.832 16.618l-0.844 0.234c-28.467 7.854-53.295 14.588-85.955 14.588-33.946 0-78.473-7.279-115.924-15.062-18.425-3.828-34.595-7.662-46.147-10.535-5.77-1.435-10.371-2.628-13.506-3.453-1.567-0.413-2.767-0.735-3.562-0.95l-0.884-0.239-0.251-0.070z" />
<glyph unicode="&#xe917;" glyph-name="tennis" d="M439.134 522.412l49.098 88.244-94.639 54.128c-15.737-35.121-22.744-69.614-22.815-103.029l68.356-39.343zM496.981 626.357l51.972 93.4-82.908 47.661c-22.762-20.157-42.936-45.631-59.626-77.285-1.725-3.054-3.377-6.108-4.976-9.144l95.537-54.631zM557.703 735.458l50.877 91.424c-21.881-0.359-44.625-5.264-68.464-14.534-20.857-8.102-40.726-18.881-59.176-32.768l76.764-44.122zM573.278 726.494l103.334-59.41 55.799 100.927c-12.647 16.043-28.385 29.247-47.499 39.685-18.252 9.971-36.954 15.989-56.302 18.216l-55.332-99.418zM692.188 658.137l78.596-45.182c2.767 25.78 1.276 50.984-3.701 75.435-4.886 23.983-12.557 44.984-23.318 63.057l-51.577-93.31zM683.511 642.418l-51.559-93.256 94.783-54.2-8.911-15.612-94.567 54.074-49.062-88.747 66.776-38.427c37.654 22.546 70.548 56.122 95.573 103.604 16.061 28.42 26.229 56.5 31.421 84.004l-84.453 48.559zM565.517 428.959l-30.864-55.835c21.791 0.395 44.445 5.3 68.195 14.516 6.629 2.569 13.168 5.425 19.582 8.551l-56.913 32.768zM549.942 437.906l-103.963 59.859-36.127-64.889c12.773-16.456 28.744-29.948 48.2-40.583 18.342-10.006 37.133-16.043 56.589-18.252l35.301 63.865zM430.403 506.729l-58.727 33.792c0.826-9.737 2.246-19.384 4.186-28.924 4.797-23.534 12.288-44.194 22.726-62.033l31.816 57.164zM309.607 576.253l0.036 0.054c3.252 47.445 17.013 97.567 41.589 143.971 40.421 71.806 102.993 126.186 166.122 150.69 63.901 24.81 140.288 23.265 197.686-8.084s99.993-94.783 113.664-161.954c13.51-66.344 1.581-148.39-36.99-221.202-40.421-71.824-102.993-126.204-166.122-150.708-18.288-7.096-37.601-12.036-57.2-14.731-1.904-0.665-3.647-1.293-5.228-1.868-17.534-6.413-33.397-12.737-48.362-19.187-29.75-12.809-53.715-25.133-73.908-37.008-39.289-23.139-57.344-39.289-64.566-49.386l-157.965-258.713-56.679 34.6 157.93 258.677c10.725 20.929 25.402 87.040 8.623 211.878-6.090 14.821-10.833 30.199-13.995 45.775-4.904 24.055-6.449 50.176-4.599 77.177l-0.036 0.018zM564.547 710.81l-51.972-93.382 103.783-59.356 51.577 93.292-103.388 59.446zM503.844 601.728l-49.134-88.28 103.927-59.805 49.026 88.711-103.819 59.374zM427.906 337.104c-14.605 7.976-28.259 18.037-40.726 29.714 0.431-32.876-1.329-60.847-4.204-83.824 9.072 6.396 19.276 13.025 30.576 19.672 12.144 7.15 26.013 14.677 41.445 22.312-9.396 3.377-18.45 7.42-27.091 12.126z" />
<glyph unicode="&#xe918;" glyph-name="warn" d="M828.245 455.579c0-173.631-140.755-314.386-314.386-314.386s-314.386 140.755-314.386 314.386c0 173.631 140.755 314.386 314.386 314.386s314.386-140.755 314.386-314.386zM891.123 455.579c0 208.357-168.906 377.263-377.263 377.263s-377.263-168.906-377.263-377.263c0-208.357 168.906-377.263 377.263-377.263s377.263 168.906 377.263 377.263zM482.421 474.771v-176.385h62.877v176.385h-62.877zM482.421 612.772v-62.877h62.877v62.877h-62.877z" />
<glyph unicode="&#xe919;" glyph-name="workout" d="M254.527 637.043v-377.263h62.877v377.263h-62.877zM380.281 416.973v-220.070h-188.632v62.877h-125.755v377.263h125.755v62.877h188.632v-220.070h251.509v220.070h188.632v-62.877h125.754v-377.263h-125.754v-62.877h-188.632v220.070h-251.509zM694.667 416.973v-157.193h62.877v377.263h-62.877v-220.070zM191.65 574.166h-62.878v-251.509h62.878v251.509zM820.422 322.657h62.877v251.509h-62.877v-251.509z" />
</font>
</defs>
</svg>
