<svg width="32" height="62" viewBox="0 0 32 62" fill="none" xmlns="http://www.w3.org/2000/svg">
<path d="M30.3864 1.81769H31.8864V0.317692H30.3864V1.81769ZM15.8409 1.81769V0.317692H15.4189L15.0587 0.537769L15.8409 1.81769ZM1.52273 10.5677L0.740553 9.28777L0.0227275 9.72644V10.5677H1.52273ZM1.52273 23.9768H0.0227275V26.622L2.29278 25.264L1.52273 23.9768ZM14.25 16.3631V14.8631H13.8356L13.4799 15.0759L14.25 16.3631ZM14.5909 16.3631H16.0909V14.8631H14.5909V16.3631ZM14.5909 59.9995H13.0909V61.4995H14.5909V59.9995ZM30.3864 59.9995V61.4995H31.8864V59.9995H30.3864ZM30.3864 0.317692H15.8409V3.31769H30.3864V0.317692ZM15.0587 0.537769L0.740553 9.28777L2.3049 11.8476L16.6231 3.09761L15.0587 0.537769ZM0.0227275 10.5677V23.9768H3.02273V10.5677H0.0227275ZM2.29278 25.264L15.0201 17.6504L13.4799 15.0759L0.752675 22.6895L2.29278 25.264ZM14.25 17.8631H14.5909V14.8631H14.25V17.8631ZM13.0909 16.3631V59.9995H16.0909V16.3631H13.0909ZM14.5909 61.4995H30.3864V58.4995H14.5909V61.4995ZM31.8864 59.9995V1.81769H28.8864V59.9995H31.8864Z" fill="black"/>
</svg>
