<svg width="50" height="63" viewBox="0 0 50 63" fill="none" xmlns="http://www.w3.org/2000/svg">
<path d="M2.86364 60.9995H1.36364V62.4995H2.86364V60.9995ZM47.5227 60.9995V62.4995H49.0227V60.9995H47.5227ZM47.5227 48.3859H49.0227V46.8859H47.5227V48.3859ZM24.7955 48.3859H23.2955V49.8859H24.7955V48.3859ZM24.7955 48.045L23.8352 46.8926L23.2955 47.3424V48.045H24.7955ZM30.25 43.4995L29.29 42.347L29.2897 42.3472L30.25 43.4995ZM1.72727 21.795L0.227277 21.7984L0.230749 23.295H1.72727V21.795ZM16.7273 21.795V23.295H18.236L18.2272 21.7862L16.7273 21.795ZM24.5682 31.6813L25.5243 32.8371L25.5247 32.8368L24.5682 31.6813ZM2.86364 49.6359L1.90753 48.4801L1.36364 48.93V49.6359H2.86364ZM2.86364 62.4995H47.5227V59.4995H2.86364V62.4995ZM49.0227 60.9995V48.3859H46.0227V60.9995H49.0227ZM47.5227 46.8859H24.7955V49.8859H47.5227V46.8859ZM26.2955 48.3859V48.045H23.2955V48.3859H26.2955ZM25.7557 49.1973L31.2103 44.6518L29.2897 42.3472L23.8352 46.8926L25.7557 49.1973ZM31.21 44.652C44.4979 33.5836 48.3977 27.4497 48.3977 19.9768H45.3977C45.3977 25.9698 42.5362 31.3132 29.29 42.347L31.21 44.652ZM48.3977 19.9768C48.3977 14.1003 45.9713 9.17457 41.6377 5.75266C37.3382 2.35773 31.2701 0.522237 24.0568 0.522237V3.52224C30.7924 3.52224 36.1448 5.23788 39.7785 8.10715C43.3781 10.9494 45.3977 15.001 45.3977 19.9768H48.3977ZM24.0568 0.522237C17.0134 0.522237 11.0409 2.48009 6.81079 6.18914C2.55776 9.9183 0.212181 15.2923 0.227277 21.7984L3.22727 21.7915C3.21396 16.0534 5.25758 11.5409 8.78864 8.44483C12.3426 5.32859 17.5491 3.52224 24.0568 3.52224V0.522237ZM1.72727 23.295H16.7273V20.295H1.72727V23.295ZM18.2272 21.7862C18.2149 19.6542 18.8536 18.1669 19.8029 17.215C20.7552 16.26 22.182 15.6813 24.0568 15.6813V12.6813C21.5567 12.6813 19.3045 13.4663 17.6786 15.0966C16.0498 16.7299 15.2113 19.0494 15.2273 21.8037L18.2272 21.7862ZM24.0568 15.6813C25.9218 15.6813 27.3927 16.2569 28.3837 17.1838C29.3624 18.0992 30 19.4743 30 21.3404H33C33 18.7464 32.0893 16.5419 30.433 14.9928C28.7891 13.4552 26.5384 12.6813 24.0568 12.6813V15.6813ZM30 21.3404C30 24.674 27.955 26.9304 23.6117 30.5259L25.5247 32.8368C29.7609 29.33 33 26.2454 33 21.3404H30ZM23.6121 30.5255L1.90753 48.4801L3.81974 50.7917L25.5243 32.8371L23.6121 30.5255ZM1.36364 49.6359V60.9995H4.36364V49.6359H1.36364Z" fill="black"/>
</svg>
