<svg width="52" height="64" viewBox="0 0 52 64" fill="none" xmlns="http://www.w3.org/2000/svg">
<path d="M49.7955 44.295L48.2955 44.283L48.2954 44.2931L48.2955 44.3033L49.7955 44.295ZM35.7045 31.1131H34.2045V32.4584L35.5419 32.6043L35.7045 31.1131ZM35.7045 30.6586L35.5456 29.167L34.2045 29.3099V30.6586H35.7045ZM47.6364 18.9541L46.1364 18.9454L46.1363 18.9563L46.1364 18.9672L47.6364 18.9541ZM3.09091 20.2041L1.59093 20.1961L1.58289 21.7041H3.09091V20.2041ZM18.2045 20.2041V21.7041H19.6805L19.7044 20.2282L18.2045 20.2041ZM32.4091 19.9768L30.9093 19.9516L30.9089 19.9763L30.9093 20.001L32.4091 19.9768ZM18.5455 25.9995V24.4995H17.0455V25.9995H18.5455ZM18.5455 36.9086H17.0455V38.4086H18.5455V36.9086ZM33.0909 42.9313L31.5911 42.9071L31.5907 42.931L31.5911 42.9549L33.0909 42.9313ZM17.8636 43.2722L19.3634 43.247L19.3386 41.7722H17.8636V43.2722ZM1.95455 43.2722V41.7722H0.446672L0.454566 43.2801L1.95455 43.2722ZM25.5909 63.295C32.9456 63.295 39.3395 61.425 43.9306 58.1065C48.5484 54.7686 51.3269 49.9617 51.2954 44.2867L48.2955 44.3033C48.3209 48.8839 46.1135 52.827 42.1731 55.6752C38.206 58.5427 32.4692 60.295 25.5909 60.295V63.295ZM51.2954 44.3069C51.3267 40.3816 50.0174 36.9299 47.3287 34.3344C44.6641 31.7621 40.7783 30.1577 35.8672 29.622L35.5419 32.6043C40.0058 33.0913 43.1938 34.5125 45.2451 36.4928C47.2724 38.4498 48.321 41.0777 48.2955 44.283L51.2954 44.3069ZM37.2045 31.1131V30.6586H34.2045V31.1131H37.2045ZM35.8635 32.1502C43.3322 31.3543 49.2017 26.4304 49.1363 18.941L46.1364 18.9672C46.1847 24.4891 41.9406 28.4856 35.5456 29.167L35.8635 32.1502ZM49.1363 18.9628C49.2 7.98934 39.0471 0.522237 25.7045 0.522237V3.52224C38.1575 3.52224 46.1864 10.3165 46.1364 18.9454L49.1363 18.9628ZM25.7045 0.522237C12.0109 0.522237 1.65365 8.43552 1.59093 20.1961L4.59089 20.2121C4.6418 10.6658 13.0345 3.52224 25.7045 3.52224V0.522237ZM3.09091 21.7041H18.2045V18.7041H3.09091V21.7041ZM19.7044 20.2282C19.7437 17.7902 21.8826 15.6813 25.7045 15.6813V12.6813C20.8333 12.6813 16.7791 15.5724 16.7047 20.1799L19.7044 20.2282ZM25.7045 15.6813C27.3953 15.6813 28.7185 16.1932 29.5881 16.9456C30.4412 17.6837 30.9302 18.7093 30.9093 19.9516L33.9089 20.002C33.9448 17.8636 33.0702 15.9914 31.5511 14.677C30.0486 13.3769 27.9911 12.6813 25.7045 12.6813V15.6813ZM30.9093 20.001C30.9292 21.2379 30.3795 22.3077 29.3158 23.1135C28.2253 23.9396 26.5621 24.4995 24.4545 24.4995V27.4995C27.0629 27.4995 29.4053 26.8094 31.1274 25.5048C32.8762 24.18 33.9458 22.2384 33.9089 19.9526L30.9093 20.001ZM24.4545 24.4995H18.5455V27.4995H24.4545V24.4995ZM17.0455 25.9995V36.9086H20.0455V25.9995H17.0455ZM18.5455 38.4086H24.4545V35.4086H18.5455V38.4086ZM24.4545 38.4086C26.7855 38.4086 28.6373 38.9807 29.8534 39.8291C31.0414 40.658 31.6102 41.7244 31.5911 42.9071L34.5907 42.9555C34.6285 40.6155 33.4359 38.6706 31.5699 37.3688C29.732 36.0865 27.2373 35.4086 24.4545 35.4086V38.4086ZM31.5911 42.9549C31.6121 44.2913 31.0691 45.3965 30.1025 46.1976C29.1141 47.0168 27.6125 47.5677 25.7045 47.5677V50.5677C28.1716 50.5677 30.3916 49.8544 32.0168 48.5074C33.6639 47.1423 34.6265 45.1793 34.5907 42.9077L31.5911 42.9549ZM25.7045 47.5677C21.5607 47.5677 19.4004 45.4475 19.3634 43.247L16.3638 43.2974C16.4405 47.8583 20.7575 50.5677 25.7045 50.5677V47.5677ZM17.8636 41.7722H1.95455V44.7722H17.8636V41.7722ZM0.454566 43.2801C0.517345 55.2708 11.3398 63.295 25.5909 63.295V60.295C12.2852 60.295 3.50538 52.9782 3.45452 43.2644L0.454566 43.2801Z" fill="black"/>
</svg>
