<svg width="112" height="34" viewBox="0 0 112 34" fill="none" xmlns="http://www.w3.org/2000/svg">
<path fill-rule="evenodd" clip-rule="evenodd" d="M69.523 26.775C63.04 31.491 53.64 34.001 45.548 34.001C34.206 34.001 23.991 29.867 16.262 22.984C15.655 22.444 16.196 21.706 16.926 22.124C25.266 26.909 35.578 29.791 46.229 29.791C53.414 29.791 61.312 28.321 68.58 25.281C69.676 24.823 70.595 25.993 69.523 26.775ZM72.034 22.946C71.212 21.878 66.603 22.44 64.532 22.692C63.905 22.768 63.808 22.212 64.372 21.809C68.05 19.186 74.076 19.943 74.776 20.822C75.481 21.707 74.59 27.841 71.145 30.768C70.615 31.218 70.11 30.978 70.345 30.383C71.121 28.417 72.857 24.015 72.035 22.946H72.034ZM64.664 4.25498V1.65898C64.6619 1.57188 64.6776 1.48527 64.7101 1.40442C64.7426 1.32358 64.7911 1.25019 64.8529 1.18872C64.9146 1.12726 64.9882 1.079 65.0692 1.0469C65.1502 1.01479 65.2369 0.999509 65.324 1.00198L76.977 1.00098C77.35 1.00098 77.649 1.27098 77.649 1.65598V3.88198C77.645 4.25598 77.33 4.74198 76.772 5.51598L70.735 14.12C72.975 14.067 75.345 14.403 77.382 15.545C77.841 15.803 77.964 16.184 78 16.558V19.328C78 19.708 77.581 20.151 77.141 19.921C73.555 18.045 68.796 17.841 64.829 19.944C64.424 20.159 64 19.724 64 19.342V16.709C64 16.288 64.008 15.568 64.434 14.925L71.427 4.90898H65.338C64.966 4.90898 64.668 4.64398 64.665 4.25498H64.664ZM23.026 19.001H19.612C19.4583 18.9944 19.312 18.9328 19.1999 18.8275C19.0877 18.7221 19.0172 18.58 19.001 18.427L19.004 0.996977C19.004 0.646977 19.298 0.368977 19.663 0.368977L22.843 0.367977C23.0003 0.372338 23.1505 0.434509 23.2649 0.542609C23.3792 0.650709 23.4498 0.797159 23.463 0.953977V3.22898H23.527C24.355 1.02898 25.916 0.000976562 28.02 0.000976562C30.155 0.000976562 31.494 1.02798 32.45 3.22898C33.28 1.02898 35.16 0.000976562 37.168 0.000976562C38.602 0.000976562 40.164 0.587976 41.12 1.90798C42.203 3.37598 41.981 5.50298 41.981 7.37398L41.978 18.374C41.978 18.722 41.684 19.001 41.319 19.001H37.909C37.7462 18.9946 37.592 18.9262 37.4781 18.8098C37.3641 18.6934 37.2989 18.5379 37.296 18.375V9.13398C37.296 8.40198 37.359 6.56698 37.199 5.86998C36.945 4.69598 36.179 4.36598 35.192 4.36598C34.362 4.36598 33.502 4.91598 33.152 5.79598C32.802 6.67598 32.832 8.14398 32.832 9.13398V18.374C32.832 18.722 32.538 19.001 32.174 19.001H28.764C28.6012 18.9946 28.447 18.9262 28.3331 18.8098C28.2191 18.6934 28.1539 18.5379 28.151 18.375L28.147 9.13398C28.147 7.18998 28.466 4.32998 26.044 4.32998C23.589 4.32998 23.685 7.11698 23.685 9.13398V18.374C23.685 18.722 23.389 19.001 23.025 19.001H23.026ZM86.936 0.000976562C92.169 0.000976562 95 4.47098 95 10.153C95 15.643 91.873 20.001 86.935 20.001C81.798 20.001 79 15.531 79 9.96298C79 4.35698 81.831 0.000976562 86.935 0.000976562H86.936ZM86.968 3.67598C84.368 3.67598 84.203 7.19698 84.203 9.39498C84.203 11.592 84.17 16.288 86.936 16.288C89.669 16.288 89.8 12.5 89.8 10.191C89.8 8.67598 89.734 6.85698 89.272 5.41798C88.878 4.16798 88.087 3.67598 86.968 3.67598ZM102.014 19.001H98.617C98.4546 18.9941 98.3009 18.9255 98.1873 18.8092C98.0738 18.6928 98.0089 18.5375 98.006 18.375L98 0.937977C98.029 0.617977 98.312 0.368977 98.655 0.368977L101.817 0.367977C101.957 0.372747 102.092 0.422901 102.201 0.510902C102.311 0.598902 102.388 0.719994 102.423 0.855977V3.52198H102.487C103.442 1.13698 104.777 0.000976562 107.132 0.000976562C108.659 0.000976562 110.155 0.550977 111.109 2.05498C112 3.44898 112 5.79598 112 7.48398V18.453C111.962 18.761 111.684 19.001 111.347 19.001H107.93C107.781 18.9948 107.638 18.9366 107.528 18.8366C107.417 18.7365 107.344 18.6008 107.323 18.453V8.98898C107.323 7.08098 107.546 4.29298 105.191 4.29298C104.364 4.29298 103.601 4.84298 103.218 5.68598C102.741 6.74998 102.678 7.81398 102.678 8.98898V18.374C102.672 18.5448 102.599 18.7064 102.475 18.8237C102.35 18.9411 102.185 19.0048 102.014 19.001ZM59.064 19.708C58.9487 19.805 58.8066 19.8646 58.6566 19.8791C58.5066 19.8936 58.3557 19.8621 58.224 19.789C57.044 18.823 56.832 18.377 56.186 17.457C54.234 19.414 52.852 20.001 50.323 20.001C47.329 20.001 45 18.182 45 14.547C45 11.706 46.564 9.77398 48.792 8.82698C50.722 7.99398 53.417 7.84198 55.48 7.61398V7.15998C55.48 6.32598 55.546 5.34198 55.047 4.62198C54.614 3.97798 53.783 3.71298 53.051 3.71298C51.694 3.71298 50.489 4.39698 50.192 5.81398C50.13 6.12998 49.897 6.44198 49.575 6.45798L46.128 6.09098C45.836 6.02598 45.514 5.79598 45.597 5.35898C46.39 1.24398 50.166 0.000976562 53.55 0.000976562C55.28 0.000976562 57.542 0.454977 58.906 1.74298C60.636 3.33398 60.469 5.45598 60.469 7.76698V13.217C60.469 14.859 61.162 15.577 61.812 16.461C62.039 16.781 62.09 17.158 61.8 17.391C61.074 17.991 59.783 19.093 59.073 19.716L59.063 19.708H59.064ZM55.48 11.175V10.418C52.907 10.418 50.19 10.96 50.19 13.94C50.19 15.455 50.988 16.479 52.352 16.479C53.35 16.479 54.249 15.872 54.814 14.888C55.512 13.675 55.48 12.539 55.48 11.175ZM14.065 19.708C13.83 19.916 13.49 19.929 13.225 19.789C12.043 18.823 11.831 18.377 11.186 17.457C9.233 19.414 7.851 20.001 5.323 20.001C2.329 20.001 0 18.182 0 14.547C0 11.706 1.563 9.77398 3.792 8.82698C5.722 7.99398 8.417 7.84198 10.479 7.61398V7.15998C10.479 6.32598 10.546 5.34198 10.047 4.62198C9.614 3.97798 8.782 3.71298 8.051 3.71298C6.694 3.71298 5.488 4.39698 5.193 5.81398C5.131 6.12998 4.897 6.44198 4.575 6.45798L1.128 6.09098C0.836 6.02598 0.513 5.79598 0.597 5.35898C1.389 1.24398 5.165 0.000976562 8.55 0.000976562C10.28 0.000976562 12.542 0.454977 13.906 1.74298C15.636 3.33398 15.47 5.45598 15.47 7.76698V13.217C15.47 14.859 16.162 15.577 16.812 16.461C17.038 16.781 17.09 17.158 16.801 17.391C16.074 17.991 14.783 19.093 14.073 19.716L14.065 19.708ZM10.479 11.175V10.418C7.907 10.418 5.189 10.96 5.189 13.94C5.189 15.455 5.989 16.479 7.352 16.479C8.35 16.479 9.249 15.872 9.814 14.888C10.512 13.675 10.479 12.539 10.479 11.175Z" fill="#9BA2AA"/>
</svg>
