<svg width="150" height="44" viewBox="0 0 150 44" fill="none" xmlns="http://www.w3.org/2000/svg">
<circle cx="128" cy="22" r="21.5" transform="rotate(180 128 22)" fill="white" stroke="#E5E8EB"/>
<path d="M133.707 22.7071C134.098 22.3166 134.098 21.6834 133.707 21.2929L127.343 14.9289C126.953 14.5384 126.319 14.5384 125.929 14.9289C125.538 15.3194 125.538 15.9526 125.929 16.3431L131.586 22L125.929 27.6568C125.538 28.0474 125.538 28.6805 125.929 29.0711C126.319 29.4616 126.953 29.4616 127.343 29.0711L133.707 22.7071ZM8.74228e-08 23L133 23L133 21L-8.74228e-08 21L8.74228e-08 23Z" fill="url(#paint0_linear)"/>
<defs>
<linearGradient id="paint0_linear" x1="132.5" y1="21.4999" x2="-1" y2="21.4999" gradientUnits="userSpaceOnUse">
<stop stop-color="#2BB673"/>
<stop offset="1" stop-color="white"/>
</linearGradient>
</defs>
</svg>
