<svg width="48" height="48" viewBox="0 0 48 48" fill="none" xmlns="http://www.w3.org/2000/svg">
<g clip-path="url(#clip0)">
<path d="M36.4791 4.56008L41.5991 8.80008C41.9191 9.12008 42.3991 9.20008 42.7991 9.20008C43.3591 9.20008 43.8391 8.96008 44.2391 8.56008C44.8791 7.76008 44.7991 6.56008 43.9991 5.92008L38.8791 1.68008C38.0791 1.04008 36.8791 1.12008 36.2391 1.92008C35.5191 2.72008 35.6791 3.92008 36.4791 4.56008Z" fill="black"/>
<path d="M4.72018 9.27967C5.12018 9.27967 5.60018 9.11967 5.92018 8.87967L11.0402 4.63967C11.8402 3.99967 11.9202 2.79967 11.2802 1.99967C10.6402 1.19967 9.44018 1.11967 8.64018 1.75967L3.52018 5.91967C2.72018 6.55967 2.64018 7.75967 3.28018 8.55967C3.60018 9.03967 4.16018 9.27967 4.72018 9.27967Z" fill="black"/>
<path d="M39.3596 10.24C35.5996 6.48 30.7996 4.24 25.5996 3.84V1.84C25.5996 0.8 24.7996 0 23.7596 0C22.7196 0 21.9196 0.8 21.9196 1.84V3.76C16.7196 4.16 11.9196 6.4 8.15961 10.16C3.91961 14.4 1.59961 20 1.59961 25.84C1.59961 31.68 3.91961 37.28 8.07961 41.52C12.2396 45.68 17.8396 48 23.7596 48C28.4796 48 33.0396 46.48 36.8796 43.68C37.6796 43.04 37.9196 41.92 37.2796 41.04C36.6396 40.24 35.5196 40 34.6396 40.64C31.4396 42.96 27.6796 44.24 23.7596 44.24C13.5996 44.24 5.35961 36 5.35961 25.84C5.35961 15.68 13.5996 7.44 23.7596 7.44C33.9196 7.44 42.1596 15.68 42.1596 25.84C42.1596 28.96 41.3596 32 39.9196 34.72C39.4396 35.6 39.7596 36.8 40.6396 37.28C41.5196 37.76 42.7196 37.44 43.1996 36.56C44.9596 33.28 45.9196 29.6 45.9196 25.92C45.8396 20 43.5196 14.4 39.3596 10.24Z" fill="black"/>
<path d="M32.88 14.56C32.08 13.92 30.88 14 30.24 14.8L24.32 22.08C24.16 22.08 23.92 22 23.76 22C21.68 22 20 23.68 20 25.76C20 27.84 21.68 29.52 23.76 29.52C25.84 29.52 27.52 27.84 27.52 25.76C27.52 25.28 27.44 24.8 27.28 24.4L33.2 17.12C33.76 16.4 33.68 15.2 32.88 14.56Z" fill="black"/>
</g>
<defs>
<clipPath id="clip0">
<rect width="48" height="48" fill="white"/>
</clipPath>
</defs>
</svg>
