<svg width="48" height="48" viewBox="0 0 48 48" fill="none" xmlns="http://www.w3.org/2000/svg">
<g clip-path="url(#clip0)">
<path d="M46.0832 33.0646C47.1215 33.0646 47.9201 32.2659 47.9201 31.2277V11.3408C47.9201 7.18774 44.5657 3.83333 40.4126 3.83333H38.0166V1.91653C38.0166 0.878259 37.218 0.0795898 36.1797 0.0795898C35.1414 0.0795898 34.3428 0.878259 34.3428 1.91653V3.75347H25.7171V1.91653C25.7171 0.878259 24.9185 0.0795898 23.8802 0.0795898C22.8419 0.0795898 22.0433 0.878259 22.0433 1.91653V3.75347H13.5774V1.91653C13.5774 0.878259 12.6988 0.0795898 11.6606 0.0795898C10.6223 0.0795898 9.82363 0.878259 9.82363 1.91653V3.75347H7.50749C3.35441 3.83333 0 7.18774 0 11.3408V40.5721C0 44.6453 3.35441 47.9997 7.50749 47.9997H40.4925C44.6456 47.9997 48 44.6453 48 40.4922C48 39.454 47.2013 38.6553 46.1631 38.6553C45.1248 38.6553 44.3261 39.454 44.3261 40.4922C44.3261 42.5688 42.6489 44.246 40.5724 44.246H7.50749C5.43095 44.246 3.75374 42.5688 3.75374 40.4922V11.3408C3.75374 9.26428 5.43095 7.58708 7.50749 7.58708H9.82363V9.42402C9.82363 10.4623 10.6223 11.261 11.6606 11.261C12.6988 11.261 13.4975 10.4623 13.4975 9.42402V7.58708H21.8835V9.42402C21.8835 10.4623 22.6822 11.261 23.7205 11.261C24.7587 11.261 25.5574 10.4623 25.5574 9.42402V7.58708H34.1032V9.42402C34.1032 10.4623 34.9018 11.261 35.9401 11.261C36.9784 11.261 37.777 10.4623 37.777 9.42402V7.58708H40.173C42.2496 7.58708 43.9268 9.26428 43.9268 11.3408V31.1478C44.1664 32.1861 45.0449 33.0646 46.0832 33.0646Z" fill="black"/>
<path d="M32.2672 19.6467L23.0027 32.5852C22.7631 32.9046 22.4436 32.9046 22.2839 32.9845C22.1241 32.9845 21.8047 32.9845 21.4852 32.665L15.4952 26.9146C14.7764 26.1958 13.5784 26.1958 12.8596 26.9945C12.1408 27.7133 12.1408 28.9113 12.9395 29.6301L18.9295 35.3805C19.808 36.259 21.006 36.7382 22.2839 36.7382C22.3637 36.7382 22.5235 36.7382 22.6033 36.7382C23.9611 36.6584 25.1591 36.0194 26.0376 34.9812L26.1175 34.9013L35.3821 21.9629C36.021 21.0843 35.7814 19.9662 34.9827 19.3273C34.0243 18.6085 32.9062 18.8481 32.2672 19.6467Z" fill="black"/>
</g>
<defs>
<clipPath id="clip0">
<rect width="48" height="47.9201" fill="white" transform="translate(0 0.0795898)"/>
</clipPath>
</defs>
</svg>
