<svg width="48" height="48" viewBox="0 0 48 48" fill="none" xmlns="http://www.w3.org/2000/svg">
<g clip-path="url(#clip0)">
<path d="M46.0832 32.0266C47.1215 32.0266 47.9201 31.228 47.9201 30.1897V7.50749C47.9201 3.35441 44.5657 0 40.4126 0H7.50749C3.35441 0 0 3.35441 0 7.50749V40.4925C0 44.5657 3.35441 47.9201 7.50749 47.9201H40.4925C44.6456 47.9201 48 44.5657 48 40.4126C48 39.3744 47.2013 38.5757 46.1631 38.5757C45.1248 38.5757 44.3261 39.3744 44.3261 40.4126C44.3261 42.4892 42.6489 44.1664 40.5724 44.1664H15.015V36.8985H38.6556C39.6938 36.8985 40.4925 36.0998 40.4925 35.0616C40.4925 34.0233 39.6938 33.2246 38.6556 33.2246H14.8552V25.9567H44.1664V30.2696C44.1664 31.1481 45.0449 32.0266 46.0832 32.0266ZM11.1015 44.1664H7.50749C5.43095 44.1664 3.75374 42.4892 3.75374 40.4126V36.8186H11.1814V44.1664H11.1015ZM11.1015 33.1448H3.75374V25.8769H11.1814V33.1448H11.1015ZM11.1015 22.1231H3.75374V14.6955H11.1814V22.1231H11.1015ZM11.1015 10.9418H3.75374V7.50749C3.75374 5.43095 5.43095 3.75374 7.50749 3.75374H11.1814V10.9418H11.1015ZM14.8552 3.75374H40.4126C42.4892 3.75374 44.1664 5.43095 44.1664 7.50749V10.9418H14.8552V3.75374ZM14.8552 22.1231V14.6955H44.1664V22.1231H14.8552Z" fill="black"/>
</g>
<defs>
<clipPath id="clip0">
<rect width="48" height="47.9201" fill="white"/>
</clipPath>
</defs>
</svg>
