<svg width="49" height="48" viewBox="0 0 49 48" fill="none" xmlns="http://www.w3.org/2000/svg">
<g clip-path="url(#clip0)">
<path d="M46.16 18.56C45.12 18.56 44.32 19.36 44.32 20.4V40.48C44.32 42.08 43.36 43.44 41.92 44C42 43.44 42 42.96 41.84 42.4C40.96 38.4 38.8 34.72 35.52 32.08C34 30.88 32.32 29.84 30.56 29.2C32.56 27.44 33.84 24.8 33.84 21.92C33.84 16.56 29.44 12.16 24.08 12.16C18.72 12.16 14.32 16.56 14.32 21.92C14.32 24.8 15.6 27.44 17.6 29.2C15.76 29.92 14 30.88 12.48 32.16C9.28 34.8 7.04 38.48 6.16 42.48C6.08 43.04 6 43.52 6.08 44.08C4.72 43.52 3.68 42.16 3.68 40.56V7.52C3.68 5.44 5.36 3.76 7.44 3.76H27.6C28.64 3.76 29.44 2.96 29.44 1.92C29.44 0.88 28.72 0 27.68 0H7.52C3.36 0 0 3.36 0 7.52V40.56C0 44.64 3.36 48 7.52 48H40.56C44.72 48 48.08 44.64 48.08 40.48V20.4C48 19.44 47.2 18.56 46.16 18.56ZM24.08 15.84C27.36 15.84 30.08 18.56 30.08 21.84C30.08 25.12 27.36 27.84 24.08 27.84C20.8 27.84 18.08 25.12 18.08 21.84C18.08 18.56 20.8 15.84 24.08 15.84ZM10.08 43.92C10 43.76 9.84 43.52 9.92 43.2C11.28 36.56 17.28 31.76 24.08 31.76C30.88 31.84 36.8 36.64 38.24 43.2C38.32 43.6 38.16 43.84 38.08 43.92C38 44.08 37.76 44.24 37.36 44.24H10.72C10.4 44.24 10.16 44.08 10.08 43.92ZM33.28 4.8H36.72C37.2 4.8 37.68 4.64 37.84 4.08L38.88 0.8C39.04 0.24 39.52 0 40 0C40.48 0 40.96 0.24 41.12 0.8L42.16 4.08C42.4 4.56 42.88 4.8 43.36 4.8H46.8C47.92 4.8 48.4 6.4 47.52 7.04L44.72 9.04C44.32 9.36 44.16 9.84 44.32 10.32L45.44 13.6C45.52 13.76 45.52 13.92 45.52 14C45.52 14.88 44.4 15.44 43.6 14.88L40.8 12.88C40.56 12.72 40.32 12.64 40.08 12.64C39.84 12.64 39.6 12.72 39.36 12.88L36.56 14.88C35.76 15.44 34.64 14.88 34.64 14C34.64 13.84 34.64 13.76 34.72 13.6L35.84 10.32C36 9.84 35.84 9.28 35.44 9.04L32.64 7.04C31.6 6.4 32.08 4.8 33.28 4.8Z" fill="black"/>
</g>
<defs>
<clipPath id="clip0">
<rect width="48.08" height="48" fill="white"/>
</clipPath>
</defs>
</svg>
