<svg width="18" height="19" viewBox="0 0 18 19" fill="none" xmlns="http://www.w3.org/2000/svg">
<path d="M5.99609 9.33384C5.99609 11.019 7.33899 12.3845 8.99609 12.3845C10.6533 12.3845 11.9961 11.019 11.9961 9.33384C11.9961 7.64877 10.6533 6.2832 8.99609 6.2832C7.33899 6.2832 5.99609 7.64877 5.99609 9.33384Z" fill="black"/>
<path fill-rule="evenodd" clip-rule="evenodd" d="M5.2857 0.24054C6.2464 0.196916 6.5535 0.186035 8.9964 0.186035C11.4393 0.186035 11.7464 0.196916 12.7107 0.236879C13.6714 0.280503 14.325 0.436594 14.8964 0.661833C15.4857 0.897851 15.9893 1.21013 16.4893 1.71857C16.9893 2.22701 17.3 2.73545 17.5286 3.33836C17.75 3.92307 17.9036 4.5877 17.9464 5.56095C17.9893 6.53787 18 6.84659 18 9.33429C18 11.8221 17.9893 12.1307 17.9464 13.1077C17.9036 14.0845 17.75 14.7492 17.5286 15.3303C17.2965 15.9295 16.9893 16.4416 16.4893 16.95C15.9893 17.4584 15.4893 17.7745 14.8964 18.0068C14.3214 18.2321 13.6678 18.3882 12.7107 18.4317C11.75 18.4753 11.4465 18.4862 9 18.4862C6.5535 18.4862 6.25 18.4753 5.2893 18.4317C4.3286 18.3882 3.675 18.2321 3.1036 18.0068C2.5143 17.7708 2.0107 17.4584 1.5107 16.95C1.0107 16.4416 0.7 15.9331 0.4714 15.3303C0.25 14.7455 0.0964003 14.081 0.0536003 13.1077C0.0107003 12.1307 0 11.8184 0 9.33429C0 6.85015 0.0107003 6.53787 0.0536003 5.56462C0.0964003 4.5877 0.25 3.92307 0.4714 3.34202C0.7036 2.74277 1.0107 2.23067 1.5107 1.72223C2.0107 1.2138 2.5107 0.897851 3.1036 0.665392C3.675 0.440255 4.3286 0.284063 5.2857 0.24054ZM14.8785 4.44971C14.8785 5.05536 14.3957 5.54641 13.8 5.54641C13.2043 5.54641 12.7214 5.05536 12.7214 4.44971C12.7214 3.84395 13.2043 3.3529 13.8 3.3529C14.3957 3.3529 14.8785 3.84395 14.8785 4.44971ZM4.375 9.33795C4.375 6.74125 6.4464 4.63854 8.9964 4.63854C11.55 4.63854 13.6178 6.74125 13.6178 9.33795C13.6178 11.9347 11.55 14.0374 8.9964 14.0374C6.4428 14.0374 4.375 11.9347 4.375 9.33795Z" fill="black"/>
</svg>
