<svg width="92" height="37" viewBox="0 0 92 37" fill="none" xmlns="http://www.w3.org/2000/svg">
<path d="M0 0.000976562V2.53198H17.908V0.000976562H0ZM20.445 0.000976562V2.53198H45.964C45.964 2.53198 43.357 0.000976562 39.905 0.000976562H20.445ZM50.97 0.000976562V2.53198H66.41L65.493 0.000976562H50.97ZM77.478 0.000976562L76.561 2.53198H91.86V0.000976562H77.478ZM0 4.92398V7.45498H17.908V4.92398H0ZM20.445 4.92798V7.45598H48.925C48.925 7.45598 48.593 5.50698 48.012 4.92798H20.445ZM50.97 4.92798V7.45598H68.102L67.253 4.92798H50.97ZM75.645 4.92798L74.797 7.45598H91.86V4.92798H75.645ZM5.146 9.84798V12.382H12.902V9.84698H5.146V9.84798ZM25.591 9.84798V12.382H33.346V9.84698H25.591V9.84798ZM40.89 9.84798V12.382H48.645C48.645 12.382 49.137 11.043 49.137 9.84698H40.89V9.84798ZM56.116 9.84798V12.382H69.866L68.95 9.84698H56.116V9.84798ZM73.956 9.84798L73.036 12.382H86.854V9.84698H73.956V9.84798ZM5.146 14.774V17.305H12.902V14.774H5.146ZM25.591 14.774V17.305H45.4C45.4 17.305 47.057 16.006 47.585 14.774H25.59H25.591ZM56.116 14.774V17.305H63.872V15.896L64.364 17.306H78.57L79.098 15.896V17.306H86.854V14.774H72.295L71.523 16.918L70.747 14.774H56.117H56.116ZM5.146 19.697V22.228H12.902V19.697H5.146ZM25.591 19.697V22.228H47.585C47.057 21.001 45.4 19.697 45.4 19.697H25.59H25.591ZM56.116 19.697V22.228H63.872V19.697H56.116ZM65.28 19.697L66.218 22.228H76.87L77.762 19.697H65.28ZM79.098 19.697V22.228H86.854V19.697H79.098ZM5.146 24.62V27.151H12.902V24.621H5.146V24.62ZM25.591 24.62V27.151H33.346V24.621H25.591V24.62ZM40.89 24.62V27.151H49.137C49.137 25.957 48.645 24.62 48.645 24.62H40.89ZM56.116 24.62V27.151H63.872V24.621H56.116V24.62ZM67.041 24.62L67.951 27.151H75.091L76.008 24.62H67.04H67.041ZM79.098 24.62V27.151H86.854V24.621H79.098V24.62ZM0.14 29.543V32.078H18.048V29.543H0.14ZM20.445 29.543V32.078H48.012C48.592 31.498 48.925 29.543 48.925 29.543H20.445ZM51.11 29.543V32.078H63.872V29.543H51.11ZM68.806 29.543L69.74 32.078H73.373L74.25 29.543H68.806ZM79.098 29.543V32.078H92V29.543H79.098ZM0.14 34.47V37.001H18.048V34.47H0.14ZM20.445 34.47V36.997H39.905C43.357 36.997 45.964 34.47 45.964 34.47H20.444H20.445ZM51.11 34.47V37.001H63.872V34.47H51.11ZM70.578 34.47L71.476 36.994L71.631 36.997L72.543 34.47H70.578ZM79.098 34.47V37.001H92V34.47H79.098Z" fill="#9BA2AA"/>
</svg>
