<svg width="85" height="35" viewBox="0 0 85 35" fill="none" xmlns="http://www.w3.org/2000/svg">
<path fill-rule="evenodd" clip-rule="evenodd" d="M67.307 0.000976562C76.85 0.000976562 84.587 7.68998 84.587 17.174C84.587 26.658 76.85 34.347 67.307 34.347C64.0044 34.352 60.7695 33.411 57.9849 31.6353C55.2003 29.8596 52.9825 27.3235 51.594 24.327C51.596 24.447 51.597 24.568 51.597 24.691C51.597 27.31 50.199 30.075 48.009 31.63C45.642 33.317 43.268 34.328 40.497 34.328H26.47V0.500977H41.437C43.76 0.500977 45.701 1.34098 47.622 2.71798C49.677 4.18198 51.114 6.88198 51.114 9.36798C51.114 10.157 51.072 10.876 50.983 11.534C53.33 4.82098 59.752 0.000976562 67.307 0.000976562ZM35.21 7.83298V13.669L38.963 13.656C41.428 13.656 42.658 12.446 42.527 10.405C42.527 8.14298 40.653 7.83298 38.869 7.83298H35.209H35.21ZM41.998 26.025C42.67 25.535 43.181 24.425 43.181 23.579C43.084 20.972 41.159 20.393 38.911 20.393H35.197V26.603H39.269C40.209 26.603 41.237 26.648 41.999 26.025H41.998ZM50.234 19.505C49.9763 17.6166 50.0337 15.6985 50.404 13.829C49.795 15.166 48.772 16.169 47.179 16.986C48.589 17.792 49.563 18.625 50.234 19.505ZM67.228 23.725C63.588 23.725 60.638 20.792 60.638 17.174C60.638 13.556 63.588 10.624 67.228 10.624C70.868 10.624 73.818 13.556 73.818 17.174C73.818 20.792 70.868 23.724 67.228 23.724V23.725ZM67.228 26.108C72.191 26.108 76.215 22.108 76.215 17.174C76.215 12.239 72.191 8.23898 67.228 8.23898C62.264 8.23898 58.24 12.239 58.24 17.174C58.24 22.108 62.264 26.108 67.228 26.108ZM15.773 12.916V0.439977H24.555V34.386H15.73V21.136H8.668V34.386H0V0.439977H8.71V12.916H15.773ZM81.08 32.438C81.666 32.438 82.126 32.846 82.126 33.441C82.126 34.034 81.664 34.441 81.08 34.441C80.496 34.441 80.034 34.036 80.034 33.441C80.034 32.846 80.494 32.438 81.08 32.438ZM81.08 34.156C81.1752 34.1585 81.27 34.1419 81.3587 34.107C81.4474 34.0722 81.5282 34.0198 81.5962 33.9531C81.6642 33.8864 81.7181 33.8067 81.7547 33.7187C81.7912 33.6307 81.8097 33.5363 81.809 33.441C81.8101 33.3455 81.7919 33.2508 81.7555 33.1625C81.7191 33.0742 81.6653 32.9942 81.5972 32.9272C81.5291 32.8603 81.4482 32.8077 81.3593 32.7728C81.2705 32.7379 81.1755 32.7213 81.08 32.724C80.66 32.724 80.351 33.03 80.351 33.441C80.351 33.851 80.661 34.156 81.081 34.156H81.08ZM81.258 33.511L81.536 33.979H81.222L80.972 33.521H80.926V33.979H80.653V32.903H81.063C81.348 32.903 81.52 32.968 81.52 33.228C81.52 33.428 81.405 33.504 81.258 33.511ZM81.082 33.338C81.178 33.338 81.232 33.314 81.232 33.202C81.232 33.098 81.139 33.088 81.058 33.088H80.926V33.338H81.082Z" fill="#9BA2AA"/>
</svg>
