<svg width="117" height="36" viewBox="0 0 117 36" fill="none" xmlns="http://www.w3.org/2000/svg">
<path fill-rule="evenodd" clip-rule="evenodd" d="M31.5461 29.154C31.2901 31.028 30.0111 32.65 28.2201 33.37C27.3431 33.731 26.3931 33.84 25.4431 33.731C24.5281 33.622 23.6151 33.334 22.6651 32.794C21.3491 32.073 20.0341 30.956 18.4981 29.298C20.9111 26.38 22.3721 23.713 22.9211 21.334C23.1584 20.3312 23.2199 19.2948 23.1031 18.271C22.9667 17.3893 22.629 16.551 22.1161 15.821C20.9831 14.199 19.0831 13.261 16.9631 13.261C14.8431 13.261 12.9431 14.235 11.8091 15.821C11.2963 16.551 10.9585 17.3893 10.8221 18.271C10.6685 19.2935 10.7308 20.337 11.0051 21.334C11.5541 23.714 13.0521 26.415 15.4271 29.334C13.9291 30.992 12.5771 32.11 11.2611 32.83C10.3111 33.37 9.39713 33.659 8.48313 33.767C7.54167 33.8707 6.58905 33.7473 5.70513 33.407C3.91513 32.685 2.63513 31.064 2.37913 29.19C2.25919 28.2404 2.37246 27.2759 2.70913 26.38C2.81813 26.018 3.00013 25.658 3.18313 25.226C3.43913 24.65 3.73213 24.036 4.02413 23.424L4.06013 23.352C6.61613 17.8977 9.29717 12.503 12.1011 7.17198L12.2111 6.95598C12.5041 6.41498 12.7961 5.83898 13.0891 5.29798C13.3811 4.72198 13.7101 4.17998 14.1121 3.71198C14.8791 2.84798 15.9021 2.37898 17.0361 2.37898C18.1691 2.37898 19.1931 2.84798 19.9601 3.71198C20.3621 4.17998 20.6901 4.72198 20.9841 5.29798C21.2761 5.83798 21.5681 6.41498 21.8611 6.95598L21.9711 7.17098C24.7418 12.5257 27.4103 17.9327 29.9751 23.389V23.424C30.2671 24.001 30.5231 24.65 30.8151 25.226C30.9981 25.658 31.1811 26.018 31.2901 26.38C31.5821 27.317 31.6931 28.217 31.5461 29.154ZM16.9631 27.46C14.9891 25.01 13.7101 22.704 13.2711 20.758C13.0881 19.928 13.0511 19.208 13.1611 18.559C13.2341 17.983 13.4541 17.479 13.7461 17.046C14.4411 16.073 15.6101 15.46 16.9631 15.46C18.3141 15.46 19.5211 16.037 20.1791 17.046C20.4711 17.479 20.6911 17.983 20.7641 18.559C20.8741 19.209 20.8371 19.965 20.6541 20.758C20.2151 22.668 18.9371 24.974 16.9631 27.46ZM33.4471 25.586C33.2641 25.154 33.0821 24.686 32.8971 24.289C32.6061 23.641 32.3141 23.027 32.0581 22.452L32.0211 22.415C29.461 16.9209 26.7675 11.49 23.9431 6.12698L23.8331 5.91098C23.5339 5.35009 23.2419 4.78538 22.9571 4.21698C22.5921 3.56698 22.2271 2.88298 21.6411 2.23498C20.4711 0.793977 18.7911 0.000976562 17.0001 0.000976562C15.1721 0.000976562 13.5281 0.793977 12.3211 2.16298C11.7731 2.81098 11.3711 3.49598 11.0061 4.14498C10.7213 4.71349 10.4289 5.27821 10.1291 5.83898L10.0191 6.05398C7.20413 11.461 4.46313 16.937 1.94113 22.343L1.90313 22.415C1.64913 22.992 1.35613 23.605 1.06313 24.253C0.881133 24.649 0.698133 25.081 0.516133 25.55C0.0401326 26.884 -0.106867 28.145 0.0761327 29.442C0.277194 30.7671 0.821628 32.0165 1.6553 33.066C2.48897 34.1154 3.58284 34.9284 4.82813 35.424C5.77813 35.821 6.76513 36.001 7.78813 36.001C8.10591 35.995 8.42308 35.9709 8.73813 35.929C10.0262 35.768 11.2691 35.3515 12.3941 34.704C13.8921 33.874 15.3181 32.685 16.9271 30.956C18.5341 32.686 19.9971 33.875 21.4591 34.704C22.5836 35.3512 23.8258 35.7677 25.1131 35.929C25.4051 35.965 25.7721 36.001 26.0631 36.001C27.0871 36.001 28.1101 35.821 29.0241 35.424C30.2703 34.9297 31.3649 34.1171 32.1988 33.0674C33.0326 32.0177 33.5765 30.7676 33.7761 29.442C34.0681 28.182 33.9221 26.92 33.4461 25.586H33.4471ZM69.8871 12.901C70.9471 12.901 71.4951 13.081 71.4951 13.081V16.289C71.4951 16.289 68.5721 15.317 66.7431 17.369V26.848H63.2351V13.261H66.1951C66.3289 13.263 66.4568 13.3165 66.5522 13.4103C66.6475 13.5042 66.703 13.6312 66.7071 13.765V14.342C67.3661 13.585 68.7911 12.9 69.8871 12.9V12.901ZM79.3901 23.892C78.0381 23.892 76.9781 23.208 76.4301 22.415V17.586C76.9781 16.866 78.1481 16.109 79.3901 16.109C81.7301 16.109 83.5201 17.551 83.5201 20.001C83.5201 22.451 81.7301 23.892 79.3901 23.892ZM79.9751 12.902C77.5631 12.902 76.4301 14.343 76.4301 14.343V6.73898H72.9201V26.812H75.8801C76.0143 26.8102 76.1425 26.7567 76.2381 26.6626C76.3337 26.5685 76.3893 26.4411 76.3931 26.307V25.695C76.3931 25.695 77.5261 27.172 79.9381 27.172C83.9211 27.172 87.0281 24.145 87.0281 20.037C87.0641 15.929 83.9581 12.901 79.9741 12.901L79.9751 12.902ZM101.065 18.776V26.848H97.5551V19.171C97.5551 16.937 96.8251 16.037 94.8511 16.037C93.7911 16.037 92.6941 16.577 92.0001 17.37V26.812H88.4901V13.262H91.2681C91.4019 13.264 91.5298 13.3175 91.6252 13.4113C91.7205 13.5052 91.776 13.6322 91.7801 13.766V14.343C92.8041 13.298 94.1551 12.901 95.5081 12.901C97.0441 12.901 98.3221 13.334 99.3461 14.199C100.588 15.208 101.064 16.505 101.064 18.776H101.065ZM109.362 23.892C108.009 23.892 106.948 23.208 106.401 22.415V17.586C106.948 16.866 108.119 16.109 109.362 16.109C111.7 16.109 113.492 17.551 113.492 20.001C113.492 22.451 111.7 23.892 109.362 23.892ZM109.946 12.902C107.534 12.902 106.401 14.343 106.401 14.343V6.73898H102.892V26.812H105.852C105.986 26.81 106.114 26.7563 106.21 26.6623C106.305 26.5682 106.36 26.4409 106.364 26.307V25.695C106.364 25.695 107.497 27.172 109.91 27.172C113.894 27.172 117 24.145 117 20.037C117 15.929 113.894 12.901 109.946 12.901V12.902ZM57.5331 26.811H61.0411V13.261H57.5331V26.811ZM51.8681 22.451C51.3201 23.244 50.2231 23.929 48.9081 23.929C46.5681 23.929 44.7781 22.487 44.7781 20.037C44.7781 17.587 46.5681 16.145 48.9081 16.145C50.1871 16.145 51.3561 16.866 51.8681 17.622V22.452V22.451ZM51.8681 13.766V14.343C51.8681 14.343 50.7351 12.901 48.3221 12.901C44.3381 12.901 41.2321 15.892 41.2321 20.037C41.2321 24.145 44.3021 27.172 48.3221 27.172C50.7721 27.172 51.8681 25.695 51.8681 25.695V26.307C51.8681 26.595 52.0881 26.812 52.3801 26.812H55.3401V13.262H52.3801C52.2463 13.264 52.1185 13.3175 52.0231 13.4113C51.9277 13.5052 51.8722 13.6322 51.8681 13.766ZM61.6641 9.04598C61.6641 10.343 60.6041 11.388 59.2881 11.388C57.9721 11.388 56.9121 10.343 56.9121 9.04598C56.9121 7.74798 57.9351 6.70398 59.2881 6.70398C60.6401 6.73898 61.6641 7.78498 61.6641 9.04598Z" fill="#9BA2AA"/>
</svg>
