<svg width="41" height="31" viewBox="0 0 41 31" fill="none" xmlns="http://www.w3.org/2000/svg">
<path d="M15.0254 14.7609C15.0254 15.8174 14.9172 16.3445 14.1608 16.3445C13.3722 16.3445 13.2468 15.8645 13.2468 14.9066V6.47766H7.11931V16.3777C7.11931 18.0995 7.52859 19.517 8.4886 20.6324C9.44753 21.7467 10.6315 22.3038 12.1133 22.3038C13.1151 22.3038 14.1201 21.992 15.1647 21.3663C14.5894 23.5735 13.2961 24.6771 11.3568 24.6771C10.7493 24.6771 10.1697 24.5056 9.21182 24.1596C9.21182 24.1596 8.30538 23.8681 7.11931 23.1685V28.3114C7.11931 28.3114 8.30003 29.0614 9.21182 29.4096C10.3304 29.8403 11.4297 30.0557 12.5386 30.0557C15.064 30.0557 17.1769 29.0753 18.9565 27.1167C20.448 25.4689 21.154 23.3046 21.154 20.6238V6.47874H15.0254V14.762V14.7609ZM28.9209 0.131555C21.648 0.795845 22.143 8.67304 22.143 8.67304V22.4485C26.0966 22.4485 28.0723 20.5252 28.0723 17.8627V16.0638H30.9887V10.0734H28.0723V9.27197C28.0723 8.33553 28.3176 7.61446 28.728 7.10767C29.1298 6.61374 29.7159 6.36195 30.4477 6.35124C30.9352 6.35659 31.832 6.52052 32.012 7.23303L32.0259 7.28874V13.5352C32.0259 15.8281 32.4523 17.6699 33.3695 19.0585C34.0914 20.149 35.0783 21.0385 36.2377 21.6438C37.4104 22.2728 38.7213 22.5994 40.052 22.5942C40.2009 22.5942 40.472 22.5899 40.7227 22.5781V16.232C39.4691 16.232 38.9324 15.9974 38.5327 15.512C38.1331 15.0277 37.9402 14.0688 37.9402 12.8698H40.0734V6.47766H38.0527C37.6723 4.08086 36.2527 0.470129 30.9823 0.0683403C30.9823 0.0683403 30.3587 0.0447688 29.8691 0.0619117C29.4877 0.0758404 28.9209 0.131555 28.9209 0.131555ZM8.20253 21.9503L8.20681 21.961C7.55969 22.348 6.86094 22.6413 6.13144 22.832V22.8642L6.11001 22.8353C5.75952 22.9154 5.40133 22.9571 5.04179 22.9596C3.54821 22.9596 2.35249 22.3981 1.38499 21.2742C0.41748 20.1492 0.00390625 18.7188 0.00390625 16.982V0.4712H6.13144V16.982C6.13144 18.7199 6.54073 20.1502 7.50824 21.2742C7.71931 21.5206 7.95181 21.7467 8.20253 21.9503Z" fill="#9BA2AA"/>
</svg>
