<svg width="105" height="28" viewBox="0 0 105 28" fill="none" xmlns="http://www.w3.org/2000/svg">
<path d="M88.9985 26.2206C90.4359 26.36 91.8726 26.5096 93.3058 26.6645L96.4703 18.8507L99.4782 27.3852C101.022 27.5786 102.564 27.7815 104.102 27.9935L98.8287 13.0276L104.104 0.00103211H99.6361L99.5897 0.0650227L96.74 7.10226L94.2382 0.00206421H89.827L94.381 12.9257L88.9989 26.2206H88.9985ZM85.6624 25.9145V0.00103211H81.2529V25.5508C82.7237 25.6643 84.1951 25.7861 85.6624 25.9141V25.9145ZM52.5387 24.4654C53.7291 24.4654 54.9181 24.4743 56.105 24.484V14.9638H61.4021V10.9097H56.1053V4.05996H62.2061V0.00103211H51.6786V24.4688C51.9645 24.4688 52.2518 24.4643 52.5387 24.4654V24.4654ZM38.8482 24.7131C40.3172 24.6608 41.7876 24.6168 43.2601 24.581V4.06065H47.3816V0.00206421H34.7266V4.06065H38.8489V24.7131H38.8482ZM5.12445 27.4454V12.0068L10.3455 26.822C11.9511 26.6417 13.5592 26.4721 15.1717 26.3118V0.00137614H10.9407V15.9932L5.30678 0.00137614H0.894531V28.0003H0.921022C2.31884 27.807 3.72147 27.6233 5.12445 27.4454V27.4454ZM30.4747 4.05962V0.00137614H19.9462V25.8732C23.4491 25.5708 26.9561 25.3172 30.4661 25.1125V21.0505C28.4308 21.1688 26.3996 21.3051 24.3732 21.4568V14.9655H29.6703V10.909H24.3732V4.05962H30.4747ZM70.9449 20.8565V0H66.5162V24.7279C70.0391 24.8572 73.5483 25.0375 77.0457 25.2646V21.2001C75.0159 21.0691 72.9827 20.9552 70.9449 20.8561" fill="#9BA2AA"/>
</svg>
