<svg width="42" height="34" viewBox="0 0 42 34" fill="none" xmlns="http://www.w3.org/2000/svg">
<path d="M36.2439 0.141602H30.0309C27.175 0.141602 24.8535 2.46541 24.8535 5.31935V11.5324C24.8535 14.3859 27.175 16.7097 30.0309 16.7097H36.2439C36.5981 16.7097 36.9439 16.6726 37.2795 16.6039V20.8519C37.2795 25.4202 33.564 29.1357 28.9956 29.1357H26.9244C25.7792 29.1357 24.8535 30.0637 24.8535 31.2066C24.8535 32.3499 25.7792 33.2778 26.9244 33.2778H28.9956C35.8484 33.2778 41.4216 27.7046 41.4216 20.8519V5.31935C41.4216 2.46541 39.1001 0.141602 36.2439 0.141602Z" fill="#333333"/>
<path d="M11.3904 0.141602H5.17737C2.32153 0.141602 0 2.46541 0 5.31935V11.5324C0 14.3859 2.32153 16.7097 5.17737 16.7097H11.3904C11.7446 16.7097 12.0904 16.6726 12.426 16.6039V20.8519C12.426 25.4202 8.71048 29.1357 4.14213 29.1357H2.07087C0.925655 29.1357 0 30.0637 0 31.2066C0 32.3499 0.925655 33.2778 2.07087 33.2778H4.14213C10.9949 33.2778 16.5681 27.7046 16.5681 20.8519V5.31935C16.5681 2.46541 14.2466 0.141602 11.3904 0.141602Z" fill="#333333"/>
</svg>
