<svg width="20" height="15" viewBox="0 0 20 15" fill="none" xmlns="http://www.w3.org/2000/svg">
<path d="M19.5835 2.45462C19.4694 2.02153 19.246 1.62658 18.9357 1.30931C18.6254 0.992148 18.239 0.763858 17.8153 0.647222C16.2545 0.219726 10 0.219727 10 0.219727C10 0.219727 3.7438 0.219726 2.1864 0.647222C1.7626 0.763858 1.3763 0.992148 1.0659 1.30931C0.7556 1.62658 0.5323 2.02153 0.4182 2.45462C-4.47035e-07 4.04838 0 7.37551 0 7.37551C0 7.37551 -4.47035e-07 10.7027 0.4182 12.2964C0.5323 12.7296 0.7556 13.1245 1.0659 13.4417C1.3763 13.759 1.7626 13.9873 2.1864 14.1039C3.7455 14.5247 10 14.5247 10 14.5247C10 14.5247 16.2562 14.5247 17.8136 14.0972C18.2374 13.9805 18.6237 13.7523 18.9341 13.435C19.2444 13.1178 19.4677 12.7229 19.5818 12.2897C20 10.6959 20 7.36879 20 7.36879C20 7.36879 20 4.04838 19.5835 2.45462ZM7.9997 10.4418V4.30921L13.1972 7.37551L7.9997 10.4418Z" fill="black"/>
</svg>
