<svg xmlns="http://www.w3.org/2000/svg" viewBox="0 0 51.92 41.24"><defs><style>.cls-1{fill:#fd8338;}</style></defs><g id="Слой_2" data-name="Слой 2"><g id="Слой_1-2" data-name="Слой 1"><path class="cls-1" d="M26.28,0a7,7,0,0,1,2.35,1.2L50.5,14.86a2.67,2.67,0,0,1,1.42,2.2,2.5,2.5,0,0,1-1.29,2.42,2.55,2.55,0,0,1-2.77-.05c-1.21-.74-2.41-1.51-3.62-2.26l-18-11.26a.39.39,0,0,0-.51,0L7.51,17.28c-1.09.68-2.2,1.34-3.27,2.06A2.67,2.67,0,0,1,0,17.69a.1.1,0,0,0,0-.07v-.81a3.15,3.15,0,0,1,1.49-2Q12.59,7.91,23.67,1a5.9,5.9,0,0,1,2-1Z"/><path class="cls-1" d="M26,41.24H10.37a2.67,2.67,0,0,1-2.73-2.78c0-2.34,0-4.68,0-7,0-3,0-6,0-8.92a2.84,2.84,0,0,1,1.44-2.61l15.41-9.62a2.62,2.62,0,0,1,3,0l14.82,9.26c.21.13.42.27.63.39a2.72,2.72,0,0,1,1.39,2.5v16A2.57,2.57,0,0,1,42.73,41a3,3,0,0,1-1.18.25Zm4-6.09h0c.45,0,.91,0,1.36,0a1.61,1.61,0,0,0,1.65-1.67c0-.89,0-1.79,0-2.68a1.61,1.61,0,0,0-1.66-1.66c-.9,0-1.79,0-2.69,0a1.63,1.63,0,0,0-1.67,1.69v2.65a1.64,1.64,0,0,0,1.63,1.68Zm-7.94,0h1.35A1.64,1.64,0,0,0,25,33.45V30.83a1.63,1.63,0,0,0-1.64-1.7c-.92,0-1.84,0-2.77,0A1.59,1.59,0,0,0,19,30.64q0,1.5,0,3a1.58,1.58,0,0,0,1.55,1.5C21,35.16,21.51,35.14,22,35.14Zm0-13.67H20.64A1.61,1.61,0,0,0,19,23.09c0,.92,0,1.85,0,2.77a1.58,1.58,0,0,0,1.51,1.61c1,0,2,0,3,0a1.57,1.57,0,0,0,1.5-1.6c0-.93,0-1.85,0-2.77a1.62,1.62,0,0,0-1.59-1.62Zm8,0H28.53a1.63,1.63,0,0,0-1.61,1.64c0,.9,0,1.8,0,2.71a1.61,1.61,0,0,0,1.59,1.65c.95,0,1.9,0,2.85,0A1.57,1.57,0,0,0,32.92,26q.06-1.55,0-3.09a1.56,1.56,0,0,0-1.53-1.45C30.91,21.46,30.43,21.48,29.94,21.48Z"/></g></g></svg>