<svg xmlns="http://www.w3.org/2000/svg" viewBox="0 0 23.26 19.53"><defs><style>.cls-1{fill:#536eb2;}.cls-1,.cls-2{fill-rule:evenodd;}.cls-2{fill:#f4ca76;}</style></defs><title>Ресурс 7</title><g id="Слой_2" data-name="Слой 2"><g id="Слой_1-2" data-name="Слой 1"><path class="cls-1" d="M19.33,5.68a2.49,2.49,0,1,1,2.5-2.48,2.5,2.5,0,0,1-2.5,2.48Zm0-5.68a3.17,3.17,0,0,0-3.18,3.2,3.16,3.16,0,0,0,3.18,3.18,3.2,3.2,0,0,0,3.2-3.2A3.17,3.17,0,0,0,19.33,0Z"/><path class="cls-1" d="M20.34,3.69a.45.45,0,0,0-.07-.18.55.55,0,0,0-.08-.15,1.54,1.54,0,0,0-.12-.13.36.36,0,0,0-.15-.12A.55.55,0,0,0,19.77,3c-.07,0-.11-.07-.18-.09a.67.67,0,0,1-.17-.07.15.15,0,0,1-.09,0s-.07,0-.09,0-.06,0-.09,0l-.06-.06S19,2.63,19,2.59a.15.15,0,0,1,0-.09V2.39s0-.06,0-.09,0-.06.05-.08l.06-.07a.21.21,0,0,1,.11,0,.17.17,0,0,1,.11,0h.13a.14.14,0,0,1,.11,0l.11,0,.09,0c.05,0,.07,0,.09,0l.11.05,0-.14,0-.35V1.64l-.08,0-.09,0s0,0-.09,0l-.11,0-.11,0h0V1.12H19v.44h0a1,1,0,0,0-.2.08.58.58,0,0,0-.15.11,1.12,1.12,0,0,0-.13.16.46.46,0,0,0-.09.17l-.06.2a.56.56,0,0,0,0,.22.38.38,0,0,0,0,.18.58.58,0,0,0,.06.17s.07.11.09.16l.11.13a.42.42,0,0,0,.15.11.6.6,0,0,0,.16.08l.17.09.18.07a.15.15,0,0,1,.08,0s.07,0,.09.05a.13.13,0,0,0,.07,0l.06.07s0,0,.05.08,0,.07,0,.11V4a.15.15,0,0,1,0,.09.46.46,0,0,0-.07.07.23.23,0,0,1-.09.06s-.06,0-.09,0l-.1,0H19l-.11,0a.35.35,0,0,1-.13,0l-.13,0-.07,0-.06,0-.14-.07,0,.15,0,.4v.06l.06,0a.26.26,0,0,1,.2,0,.48.48,0,0,0,.15,0c.05,0,.11,0,.18,0a.55.55,0,0,0,.18,0h0v.44h.53V4.81h0l.2-.09A.82.82,0,0,0,20,4.61a1.12,1.12,0,0,0,.13-.16.71.71,0,0,0,.11-.17c0-.07.05-.13.07-.2a.72.72,0,0,0,0-.22.5.5,0,0,0,0-.17Z"/><path class="cls-1" d="M17.79,6.8a.37.37,0,0,0-.5-.06L13.73,9.57,9.15,7.66a.35.35,0,0,0-.33,0L3.91,11.21a.34.34,0,0,0-.09.48.31.31,0,0,0,.28.16.32.32,0,0,0,.2-.07l4.76-3.4,4.61,1.91a.43.43,0,0,0,.35,0l3.71-2.94a.38.38,0,0,0,.06-.51Z"/><path class="cls-2" d="M20.6,18.82H18.08V9H20.6v9.8Zm-5.13,0H12.94V12.53h2.53v6.29Zm-5.11,0H7.83V12h2.53v6.82Zm-5.14,0H2.7V14.06H5.22v4.76Zm17.71,0H21.3V8.67A.34.34,0,0,0,21,8.32H17.73a.34.34,0,0,0-.35.35V18.82H16.19V12.18a.34.34,0,0,0-.35-.35H12.59a.35.35,0,0,0-.35.35v6.64H11.06V11.65a.35.35,0,0,0-.35-.35H7.48a.34.34,0,0,0-.35.35v7.17H6V13.71a.35.35,0,0,0-.35-.35H2.35a.35.35,0,0,0-.35.35v5.11H.35a.36.36,0,0,0,0,.71H22.91a.36.36,0,0,0,.35-.36.33.33,0,0,0-.33-.35Z"/></g></g></svg>