<?xml version="1.0" encoding="utf-8"?>
<!-- Generator: Adobe Illustrator 24.2.3, SVG Export Plug-In . SVG Version: 6.00 Build 0)  -->
<svg version="1.1" id="Слой_1" xmlns="http://www.w3.org/2000/svg" xmlns:xlink="http://www.w3.org/1999/xlink" x="0px" y="0px"
	 viewBox="0 0 323.9 76.3" style="enable-background:new 0 0 323.9 76.3;" xml:space="preserve">
<style type="text/css">
	.st0{fill:#B6B6B6;}
	.st1{fill:url(#SVGID_1_);}
	.st2{fill:url(#SVGID_2_);}
	.st3{fill:url(#SVGID_3_);}
	.st4{fill:#FFFFFF;}
	.st5{fill:#2C0F54;}
</style>
<g>
	<path class="st0" d="M101.6,39.7h-8.3v12.1h1.6V41.2h5v10.6h1.7V39.7z M108.5,42.4c-2.7,0-4.2,2-4.2,4.8s1.5,4.8,4.2,4.8
		s4.1-2,4.1-4.8S111.1,42.4,108.5,42.4z M108.5,43.7c1.5,0,2.3,1.1,2.3,3.5s-0.8,3.5-2.3,3.5s-2.4-1.1-2.4-3.5
		S106.9,43.7,108.5,43.7z M123.4,42.6h-2.1l-2,6.6l-1.8-6.6h-2.1l-0.8,9.2h1.6l0.3-4.4c0.1-0.9,0.1-2.1,0.1-3.2l1.9,6.6h1.6l2.1-6.7
		c0,1.4,0,2.3,0.1,3.4l0.4,4.3h1.6L123.4,42.6z M130.4,42.4c-2.6,0-4.1,2-4.1,4.8s1.5,4.8,4.1,4.8c2.6,0,4.1-2,4.1-4.8
		S133.1,42.4,130.4,42.4z M130.4,43.7c1.6,0,2.4,1.1,2.4,3.5s-0.8,3.5-2.4,3.5s-2.3-1.1-2.3-3.5S128.9,43.7,130.4,43.7z M147.8,50.5
		v-7.9h-1.6v7.9h-2.9v-7.9h-1.6v7.9h-2.9v-7.9h-1.6v9.2h10.5l0.2,2.6h1.3v-3.9H147.8z M154,45.6h-1.2v-3h-1.6v9.2h3.1
		c1.9,0,3.6-0.9,3.6-3.1S156.9,45.6,154,45.6L154,45.6z M154.1,50.6h-1.3v-3.8h1.2c1.7,0,2.2,0.6,2.2,1.9S155.4,50.6,154.1,50.6
		L154.1,50.6z M173.2,42.4c-0.8,0-1.6,0.3-2.1,1v-4.5l-1.6-0.2v4.7c-0.5-0.6-1.4-1-2.2-1c-2.3,0-3.1,1.9-3.1,4.8s1.2,4.8,3.1,4.8
		c0.9,0,1.7-0.4,2.2-1.1v4.6h1.6v-4.6c0.5,0.7,1.3,1.1,2.1,1.1c2,0,3.2-1.9,3.2-4.8S175.6,42.4,173.2,42.4z M167.6,50.7
		c-1,0-1.6-1.1-1.6-3.5s0.6-3.5,1.6-3.5c0.8,0,1.5,0.4,1.9,1v4.9C169.1,50.3,168.4,50.7,167.6,50.7L167.6,50.7z M172.9,50.7
		c-0.8,0-1.5-0.4-1.8-1.1v-4.9c0.4-0.6,1.1-1,1.8-1c1.1,0,1.7,1.1,1.7,3.5S174,50.7,172.9,50.7z M186.3,42.6h-1.9l-3.9,7.3
		c0.2-1,0.2-2.1,0.2-3.1v-4.2h-1.6v9.2h1.9l3.9-7.4c0,0.2-0.2,1.6-0.2,3.2v4.2h1.6L186.3,42.6z M191.9,42.4c-1.2-0.1-2.4,0.3-3.3,1
		l0.7,1c0.7-0.5,1.5-0.8,2.4-0.8c1,0,1.9,0.4,1.9,1.3s-1,1.5-2.2,1.5h-1v1.2h1.3c1.3,0,2.4,0.3,2.4,1.5s-1.1,1.6-2.3,1.6
		c-0.9,0-1.8-0.3-2.6-0.8l-0.9,1c1,0.8,2.3,1.2,3.6,1.1c2.1,0,3.9-0.9,3.9-2.9s-0.8-2-2.3-2.2c1.3-0.4,1.8-1,1.8-2
		S193.6,42.4,191.9,42.4z M199,42.6l-0.3,4.2c-0.3,3.1-0.4,3.5-1.5,3.9l0.4,1.3c2-0.6,2.3-1.5,2.6-5l0.3-3.1h2.9v7.9h1.6v-9.2H199z
		 M215.5,42.6h-2l-3.8,7.3c0.2-1,0.2-2.1,0.2-3.1v-4.2h-1.6v9.2h1.9l3.9-7.4c-0.2,1.1-0.2,2.1-0.2,3.2v4.2h1.6L215.5,42.6z
		 M225.7,50.5v-7.9h-1.6v7.9h-3.7v-7.9h-1.6v9.2h6.7l0.3,2.6h1.3v-3.9H225.7z M235.3,49.7v-4.3c0-1.9-1-3-3.3-3
		c-1.1,0-2.2,0.2-3.2,0.6l0.4,1.2c0.8-0.3,1.6-0.5,2.5-0.5c1.3,0,2,0.5,2,1.8v0.7h-1.5c-2.5,0-4,1.1-4,3c-0.1,1.5,1.1,2.7,2.6,2.8
		c0.1,0,0.2,0,0.3,0c1.1,0.1,2.2-0.5,2.8-1.4c0.2,1,0.8,1.3,1.8,1.4l0.3-1.1C235.5,50.7,235.2,50.2,235.3,49.7z M231.5,50.8
		c-0.8,0.1-1.5-0.4-1.6-1.2c0-0.1,0-0.3,0-0.4c0-1.3,0.8-1.9,2.5-1.9h1.3v2.1C233.3,50.2,232.4,50.8,231.5,50.8z M246.8,42.6h-2.1
		l-2,6.6l-1.8-6.6h-2.1l-0.8,9.2h1.5l0.4-4.4v-3.2l2,6.6h1.5l2.1-6.7c0,1.4,0,2.3,0.1,3.4l0.4,4.3h1.6L246.8,42.6z M262.1,42.6h-1.9
		l-3.8,7.3c0-0.2,0.2-1.7,0.2-3.1v-4.2H255v9.2h1.9l3.8-7.4c0,0.2-0.1,1.6-0.1,3.2v4.2h1.5L262.1,42.6z M278.6,39.7h-2l-5,10.3
		c0.2-1.5,0.3-2.9,0.3-4.4v-5.9h-1.7v12.1h2.1l4.9-10.2c-0.1,1.4-0.2,2.9-0.2,4.3v5.9h1.6L278.6,39.7z M290.5,39.7h-8.4v12.1h1.7
		V41.2h5v10.6h1.7L290.5,39.7z M98.1,68.7c1-0.1,1.8-0.9,1.8-1.9c0-1.7-1.5-2.5-3.7-2.5c-1,0-2,0.1-3,0.3v9.1h3.3
		c2.2,0,3.9-0.8,3.9-2.8S99.6,68.9,98.1,68.7z M96.2,65.5c1.4,0,2.1,0.4,2.1,1.3s-0.7,1.4-1.8,1.4h-1.7v-2.6L96.2,65.5z M96.5,72.5
		h-1.7v-3.1h1.7c1.6,0,2.2,0.5,2.2,1.4S97.7,72.5,96.5,72.5z M111.2,64.3c-2.7,0-4.2,2-4.2,4.8s1.5,4.8,4.2,4.8s4.1-2,4.1-4.8
		S113.8,64.3,111.2,64.3z M111.2,65.6c1.5,0,2.3,1.1,2.3,3.5s-0.8,3.5-2.3,3.5s-2.4-1.1-2.4-3.5S109.6,65.6,111.2,65.6z M121.3,64.3
		c-2.5,0-4,1.9-4,4.9s1.5,4.7,4,4.7c1,0,2-0.3,2.8-1l-0.7-1c-0.6,0.4-1.3,0.7-2,0.7c-1.5,0-2.4-1-2.4-3.5s0.9-3.5,2.4-3.5
		c0.7,0,1.4,0.2,1.9,0.7l0.8-1C123.3,64.6,122.3,64.3,121.3,64.3z M131.2,68.7c1-0.1,1.8-0.9,1.8-1.9c0-1.7-1.4-2.5-3.7-2.5
		c-1,0-2,0.1-3,0.3v9.1h3.3c2.3,0,3.9-0.8,3.9-2.8S132.7,68.9,131.2,68.7z M129.3,65.5c1.4,0,2.1,0.4,2.1,1.3s-0.7,1.4-1.8,1.4h-1.7
		v-2.6L129.3,65.5z M129.6,72.5h-1.7v-3.1h1.8c1.5,0,2.1,0.5,2.1,1.4S130.8,72.5,129.6,72.5z M139.6,64.3c-2.6,0-4.1,2-4.1,4.8
		s1.4,4.8,4.1,4.8s4.1-2,4.1-4.8S142.2,64.3,139.6,64.3z M139.6,65.6c1.5,0,2.3,1.1,2.3,3.5s-0.8,3.5-2.3,3.5s-2.4-1.1-2.4-3.5
		S138,65.6,139.6,65.6L139.6,65.6z M150.4,65.1c-1.2,0-2.4,0.6-3,1.7c0.2-2.5,1-3.2,2.6-3.7c1-0.3,1.9-0.8,2.8-1.3l-0.7-1.2
		c-0.9,0.6-1.9,1-2.9,1.3c-2.8,1-3.5,2.9-3.5,6.7s1.7,5.3,4.1,5.3s4-1.6,4-4.6S152.5,65.1,150.4,65.1L150.4,65.1z M149.8,72.6
		c-1.5,0-2.4-1.2-2.4-3.4v-1.1c0.5-1.1,1.5-1.7,2.7-1.7c1.2,0,2,0.8,2,3S151,72.6,149.8,72.6L149.8,72.6z M160,64.3
		c-2.7,0-4.2,2-4.2,4.8s1.5,4.8,4.1,4.8s4.2-2,4.2-4.8S162.6,64.3,160,64.3z M160,65.6c1.5,0,2.3,1.1,2.3,3.5s-0.8,3.5-2.4,3.5
		s-2.3-1.1-2.3-3.5S158.4,65.6,160,65.6z M176.8,64.5h-1.7l-1.9,3.8H172v-3.8h-1.6v3.8h-1.2l-1.9-3.8h-1.7l2.3,4.3l-2.7,4.9h1.8
		l2.2-4.2h1.2v4.2h1.6v-4.2h1.2l2.2,4.2h1.7l-2.6-4.9L176.8,64.5z M185.6,72.4v-7.9h-5.8l-0.2,3.4c-0.3,3.6-0.8,4.1-1.5,4.5h-0.6
		v3.9h1.3l0.3-2.6h5.9l0.2,2.6h1.4v-3.9L185.6,72.4z M184,72.4h-4.4c1-0.7,1.3-1.5,1.5-4.7l0.2-1.9h2.7V72.4z M195.9,68.8
		c0-2.8-1.4-4.5-3.8-4.5s-3.9,2-3.9,4.9s1.5,4.7,4.1,4.7c1.2,0,2.3-0.4,3.2-1.1l-0.7-1c-0.7,0.5-1.5,0.8-2.4,0.8
		c-1.3,0-2.3-0.8-2.5-3h5.9C195.8,69.4,195.9,69.1,195.9,68.8z M194.3,68.5h-4.4c0.2-2.1,1-2.9,2.2-2.9S194.3,66.5,194.3,68.5
		L194.3,68.5z M203.9,73.7h1.6v-9.2h-1.6v3.9H200v-3.9h-1.6v9.2h1.6v-4.1h3.9V73.7z M216,64.5h-1.9l-3.9,7.3c0.2-1,0.2-2.1,0.2-3.1
		v-4.2h-1.6v9.2h1.9l3.9-7.4c0,0.2-0.2,1.6-0.2,3.2v4.2h1.6V64.5z M226.5,64.5h-1.9l-3.9,7.3c0.2-1,0.2-2.1,0.2-3.1v-4.2h-1.6v9.2
		h1.9l3.9-7.4c0,0.2-0.2,1.6-0.2,3.2v4.2h1.6V64.5z M237.9,64.3c-2.6,0-4.1,2-4.1,4.8s1.5,4.8,4.1,4.8s4.1-2,4.1-4.8
		S240.5,64.3,237.9,64.3z M237.9,65.6c1.5,0,2.4,1.1,2.4,3.5s-0.9,3.5-2.4,3.5s-2.4-1.1-2.4-3.5S236.4,65.6,237.9,65.6z M250.5,64.5
		h-7.8v1.3h3v7.9h1.6v-7.9h3L250.5,64.5z M263.2,72.4v-7.9h-5.8l-0.2,3.4c-0.3,3.6-0.8,4.1-1.4,4.5h-0.7v3.9h1.3l0.3-2.6h5.9
		l0.3,2.6h1.3v-3.9L263.2,72.4z M261.6,72.4h-4.4c1-0.7,1.3-1.5,1.6-4.7v-1.9h2.7L261.6,72.4z M270,64.3c-2.6,0-4.2,2-4.2,4.8
		s1.5,4.8,4.2,4.8s4.1-2,4.1-4.8S272.6,64.3,270,64.3z M270,65.6c1.5,0,2.3,1.1,2.3,3.5s-0.8,3.5-2.3,3.5s-2.4-1.1-2.4-3.5
		S268.4,65.6,270,65.6L270,65.6z M277.4,64.5l-0.4,4.2c-0.2,3.1-0.3,3.5-1.4,3.9l0.4,1.3c2-0.6,2.3-1.5,2.6-5l0.3-3.1h2.8v7.9h1.6
		v-9.2L277.4,64.5z M288.3,73.7v-7.9h3.9l0.2-1.3h-5.7v9.2L288.3,73.7z M297.2,64.3c-2.6,0-4.1,2-4.1,4.8s1.4,4.8,4.1,4.8
		s4.1-2,4.1-4.8S299.8,64.3,297.2,64.3L297.2,64.3z M297.2,65.6c1.5,0,2.4,1.1,2.4,3.5s-0.9,3.5-2.4,3.5s-2.4-1.1-2.4-3.5
		S295.7,65.6,297.2,65.6L297.2,65.6z M308.8,68.7c1.2-0.2,1.9-0.9,1.9-1.9s-1.5-2.5-3.7-2.5c-1,0-2,0.1-3,0.3v9.1h3.3
		c2.2,0,3.9-0.8,3.9-2.8S310.4,68.9,308.8,68.7L308.8,68.7z M307,65.5c1.3,0,2.1,0.4,2.1,1.3s-0.8,1.4-1.8,1.4h-1.7v-2.6L307,65.5z
		 M307.3,72.5h-1.7v-3.1h1.7c1.6,0,2.2,0.5,2.2,1.4S308.5,72.5,307.3,72.5z"/>
	<path d="M100.4,11.1h-2.2V7.5h7.3l0.5-3.6H93.4v20.2h7.1c4.6,0,7.9-2.1,7.9-6.7S105.4,11.1,100.4,11.1z M100,20.6h-1.8v-6.2h1.8
		c2.3,0,3.4,1,3.4,3.1S102.2,20.6,100,20.6z M123,19.6v-6c0-3.6-1.9-5.5-6.4-5.5c-2,0-3.9,0.4-5.8,1.1l1,3.1
		c1.3-0.5,2.7-0.8,4.1-0.9c1.9,0,2.6,0.6,2.6,2.4v0.7h-1.6c-4.7,0-7.2,1.8-7.2,5.2c-0.2,2.5,1.7,4.7,4.3,4.9c0.2,0,0.5,0,0.7,0
		c1.9,0.1,3.7-0.8,4.7-2.4c0.7,1.6,1.9,2.1,3.7,2.3l1-3C123.4,21.2,123,20.8,123,19.6z M116.1,21.3c-1.2,0-1.8-0.7-1.8-2
		s1-2.3,3.1-2.3h1.1v2.8C118,20.7,117.1,21.3,116.1,21.3z M135.6,24.1h4.6V8.6h-4.6v5.9h-4.3V8.6h-4.6v15.5h4.6v-6.2h4.3V24.1z
		 M157.7,8.6h-4.4l-3.4,6h-1.5v-6h-4.6v15.5h4.6v-6.7h1.4l3.4,6.7h4.9l-4.5-8.3L157.7,8.6z M168.6,8.1c-1.8,0-3.4,0.8-4.5,2.2
		l-0.2-1.7h-4.1v22l4.6-0.5V23c1,1.1,2.4,1.7,3.8,1.6c3.8,0,6.1-3.5,6.1-8.3S172.6,8.1,168.6,8.1L168.6,8.1z M166.8,21.2
		c-1,0-1.9-0.5-2.4-1.4v-6.5c0.5-1.1,1.5-1.8,2.7-1.8c1.5,0,2.5,1,2.5,4.8S168.5,21.2,166.8,21.2L166.8,21.2z M183.9,8.1
		c-4.7,0-7.5,3.3-7.5,8.2s2.8,8.3,7.5,8.3s7.6-3.3,7.6-8.3S188.7,8.1,183.9,8.1z M183.9,11.5c1.9,0,2.8,1.4,2.8,4.8
		s-0.9,4.9-2.8,4.9s-2.8-1.4-2.8-4.9S182.1,11.5,183.9,11.5z M205.7,8.6h-13.9V12h4.5v12.1h4.6V12h4.2L205.7,8.6z M229.6,4h-2.9
		l-5,8.4h-2.8V4h-2.8v20.1h2.8v-9.4h2.8l5.2,9.4h3.2L224,13.4L229.6,4z M238.6,8.3c-4.4,0-6.9,3.3-6.9,8.1s2.5,8,6.8,8
		s6.9-3.3,6.9-8S242.9,8.3,238.6,8.3z M238.6,10.5c2.5,0,3.9,1.9,3.9,5.9s-1.4,5.9-4,5.9s-3.9-1.9-3.9-5.9S236,10.5,238.6,10.5z
		 M258.9,24.1h2.7V8.7h-2.7v6.5h-6.4V8.7h-2.7v15.4h2.7v-6.8h6.4V24.1z M272.7,8.3c-4.1,0-6.7,3.3-6.7,8.2s2.6,7.9,6.7,7.9
		c1.7,0.1,3.4-0.5,4.7-1.7l-1.2-1.7c-1,0.7-2.1,1.1-3.3,1.2c-2.5,0-4-1.7-4-5.7s1.5-5.9,4-5.9c1.2,0,2.4,0.4,3.3,1.1l1.2-1.7
		C276.1,8.8,274.4,8.2,272.7,8.3z M291.2,20.5v-7c0-3.3-1.7-5.2-5.4-5.2c-1.9,0-3.7,0.4-5.4,1.1l0.7,2c1.3-0.5,2.8-0.9,4.2-0.9
		c2.1,0,3.2,0.9,3.2,3.1v1.1h-2.4c-4.3,0-6.8,1.8-6.8,5.1s1.9,4.6,4.9,4.6c1.8,0.1,3.6-0.8,4.6-2.3c0.4,1.4,1.6,2.3,3,2.3l0.6-1.8
		C291.5,22.3,291,21.4,291.2,20.5z M284.9,22.4c-1.8,0-2.7-0.9-2.7-2.8s1.4-3.1,4.3-3.1h2V20C287.9,21.4,286.5,22.4,284.9,22.4
		L284.9,22.4z M298,8.7l-0.6,7c-0.4,5.1-0.5,5.9-2.4,6.6l0.7,2.1c3.3-1,3.9-2.5,4.4-8.4l0.4-5.1h4.8v13.2h2.6V8.7H298z M323.9,8.7
		h-13v2.2h5v13.2h2.7V10.9h5L323.9,8.7z"/>
	<g>
		
			<linearGradient id="SVGID_1_" gradientUnits="userSpaceOnUse" x1="31.55" y1="73.0527" x2="31.55" y2="3.5437" gradientTransform="matrix(1 0 0 -1 0 78)">
			<stop  offset="0.15" style="stop-color:#4D64AF"/>
			<stop  offset="1" style="stop-color:#5DA3DC"/>
		</linearGradient>
		<path class="st1" d="M6,17.8L25.5,6.6c3.7-2.2,8.4-2.2,12.1,0L57,17.8c3.7,2.1,6.1,6.1,6.1,10.4v23c-0.1,4.3-2.4,8.3-6.1,10.4
			L37.6,72.8c-3.7,2.2-8.3,2.2-12.1,0.1L6,61.7c-3.7-2.2-6-6.2-6-10.5v-23C0,23.9,2.3,19.9,6,17.8z"/>
		
			<linearGradient id="SVGID_2_" gradientUnits="userSpaceOnUse" x1="39.95" y1="78.0061" x2="39.95" y2="8.4473" gradientTransform="matrix(1 0 0 -1 0 78)">
			<stop  offset="0" style="stop-color:#662482"/>
			<stop  offset="0.36" style="stop-color:#652684"/>
			<stop  offset="0.55" style="stop-color:#622E89"/>
			<stop  offset="0.7" style="stop-color:#5D3C93"/>
			<stop  offset="0.83" style="stop-color:#554FA0"/>
			<stop  offset="0.93" style="stop-color:#4D64AF"/>
		</linearGradient>
		<path class="st2" d="M14.5,12.9L34,1.7c3.7-2.2,8.3-2.3,12-0.1l19.4,11.2c3.8,2.2,6.1,6.2,6.1,10.5v22.9c0,4.3-2.3,8.3-6.1,10.5
			L46,67.9c-3.7,2.2-8.4,2.2-12.1,0L14.5,56.7c-3.8-2.2-6.1-6.2-6.1-10.5V23.3C8.4,19,10.8,15,14.5,12.9z"/>
		
			<linearGradient id="SVGID_3_" gradientUnits="userSpaceOnUse" x1="35.75" y1="73.0527" x2="35.75" y2="8.4473" gradientTransform="matrix(1 0 0 -1 0 78)">
			<stop  offset="0.15" style="stop-color:#290042"/>
			<stop  offset="1" style="stop-color:#3B68BD"/>
		</linearGradient>
		<path class="st3" d="M57,17.8L37.6,6.6c-3.7-2.2-8.4-2.2-12.1,0l-12.2,7c-3.1,2.3-4.9,5.9-4.9,9.7v22.9c0,4.3,2.3,8.3,6.1,10.5
			l19.4,11.2c3.7,2.2,8.4,2.2,12.1,0l12.2-7c3-2.3,4.8-5.9,4.9-9.7v-23C63.1,23.9,60.7,19.9,57,17.8z"/>
		<g>
			<path class="st4" d="M54.8,41.4c0-12.6-10.3-17.6-20-17.6h-9.1v30.8h3.8V40.9h0.2l21.1,24.2l2.8-1.6L47,55.8
				C52,52.7,54.9,47.2,54.8,41.4z M33.7,40.4l7.6-11.1h-4.2l-7.6,10.6V27.2h5.1c7.8,0,16,4.1,16,14.2c0.1,4.6-2.2,9-6,11.6
				C44.6,53,33.7,40.4,33.7,40.4z"/>
			<path class="st4" d="M35.3,55.8H22.6V14.6h28.9l-7-4h-26V59h17.1c2.2,0,4.3-0.3,6.4-0.9l-2.5-2.8C38.1,55.6,36.7,55.8,35.3,55.8z
				"/>
		</g>
	</g>
</g>
<rect x="81.1" y="9.8" class="st5" width="2" height="50"/>
</svg>
