<svg xmlns="http://www.w3.org/2000/svg" viewBox="0 0 23.17 20.81"><defs><style>.cls-1{fill:#536eb2;}.cls-1,.cls-3{fill-rule:evenodd;}.cls-2{fill:#546ca9;stroke:#546ca9;stroke-miterlimit:22.93;stroke-width:0.75px;}.cls-3{fill:#f4ca76;}</style></defs><title>Ресурс 9</title><g id="Слой_2" data-name="Слой 2"><g id="Слой_1-2" data-name="Слой 1"><path class="cls-1" d="M17,8.59l.35,2.79L20.09,11,20,10.47l-1.74.22a6.47,6.47,0,1,0-6.16,2.56l.07-.53a5.94,5.94,0,1,1,5.55-2.19l-.25-2L17,8.59Z"/><path class="cls-2" d="M17,8.59l.35,2.79L20.09,11,20,10.47l-1.74.22a6.47,6.47,0,1,0-6.16,2.56l.07-.53a5.94,5.94,0,1,1,5.55-2.19l-.25-2L17,8.59Z"/><path class="cls-1" d="M12.42,6.15a.56.56,0,0,1,0-.75.91.91,0,0,1,.49-.19V6.4a1.45,1.45,0,0,1-.52-.25Zm1,1.18a1.42,1.42,0,0,1,.55.25.56.56,0,0,1,.14.38.44.44,0,0,1-.19.39,1,1,0,0,1-.5.19V7.33Zm0,2.39V9.23a1.79,1.79,0,0,0,1.1-.41,1.28,1.28,0,0,0,.41-1,1.08,1.08,0,0,0-.36-.91,2.49,2.49,0,0,0-1.13-.49h0V5.19a2,2,0,0,1,1,.38l.44-.6a2.68,2.68,0,0,0-1.4-.5V4.14H13v.33a1.74,1.74,0,0,0-1,.41,1.24,1.24,0,0,0-.41,1,1.08,1.08,0,0,0,.35.88,2.65,2.65,0,0,0,1.1.46V8.48a2.22,2.22,0,0,1-1.15-.57l-.5.57A2.83,2.83,0,0,0,13,9.23v.49Z"/><path class="cls-3" d="M1,16.54,2.5,19.75l1.53-1L2.72,15.7,1,16.54Zm-1-.21v0s0,0,0,0a.06.06,0,0,0,0,0l0,0,0,0s0,0,0,0a.08.08,0,0,1,0,0l0,0,0,0,0,0,0,0,5.21-2.57,0,0a6.08,6.08,0,0,1,4,0l3.88,1.4,0,0a1.25,1.25,0,0,1,.73,1.42,1.28,1.28,0,0,1-1.2,1.05h0l-2-.13L9.32,17a.43.43,0,0,1-.41-.42.42.42,0,0,1,.42-.43l1.68.1,1.9.12a.42.42,0,0,0,.39-.35.41.41,0,0,0-.23-.48l-3.88-1.4,0,0a5.19,5.19,0,0,0-3.35,0L3.49,15.31l1.27,3A2.61,2.61,0,0,1,6.87,18l5.2,1.57a2.51,2.51,0,0,0,1.88-.2L22.11,15a.37.37,0,0,0,.17-.49.36.36,0,0,0-.45-.23l-6.34,2.11a.44.44,0,0,1-.54-.27.43.43,0,0,1,.27-.54l6.35-2.13h0a1.2,1.2,0,0,1,1.47.74,1.22,1.22,0,0,1-.56,1.57l-8.16,4.43a3.33,3.33,0,0,1-2.53.26l-5.2-1.57a1.73,1.73,0,0,0-1.42.2L2.55,20.74l0,0H2.14l0,0h0s0,0,0,0H2l0,0,0,0a0,0,0,0,1,0,0l0,0H2s0,0,0,0L0,16.53s0,0,0,0,0,0,0,0v0s0,0,0,0v0Z"/></g></g></svg>