<svg xmlns="http://www.w3.org/2000/svg" viewBox="0 0 500 468.6"><defs><style>.cls-1{fill:#e9454e;fill-rule:evenodd;}</style></defs><g id="Слой_2" data-name="Слой 2"><g id="Слой_2-2" data-name="Слой 2"><path class="cls-1" d="M496.67,88.29C486,34.63,445.79,36.49,372,21.81,296.86,6.75,107.92-1.87,66.91.34,26.16,2.47-3.79,30.3.39,86.2c4.3,55.73,69.67,263.42,102.09,315s80,42.54,108.53,39.1c39.06-4.82,186.1-39.1,186.1-39.1-13.16-16.9,54.49,58.31,84.56,66.94h0c30.09,8.64-8.62-98.65-8.62-98.65C490.31,317.9,507.38,141.93,496.67,88.29ZM303.13,251.19V346.8H213.69V251.19l-47.64-90.72-37.7-71.56h78l52,110.36,26-55L310.4,88.91h78Z"/></g></g></svg>