<svg xmlns="http://www.w3.org/2000/svg" width="162" height="32" fill="none" viewBox="0 0 162 32"><path fill="#EBFF00" d="M81.61 15.847l5.889-9.41c4.27-6.877 14.083-3.551 9.56 4.21l-4.704 8.078c-2.043 3.37-6.753 3.275-9.058-.103l-1.785-2.62.098-.155z"/><path fill="url(#Logo_svg__Logo_svg__paint0_linear)" d="M81.61 15.847l5.889-9.41c4.27-6.877 14.083-3.551 9.56 4.21l-4.704 8.078c-2.043 3.37-6.753 3.275-9.058-.103l-1.785-2.62.098-.155z"/><path fill="#EBFF00" d="M92.035 19.272l.032-.053.108-.186-.14.24z"/><path fill="url(#Logo_svg__Logo_svg__paint1_linear)" d="M92.035 19.272l.032-.053.108-.186-.14.24z"/><path fill="#02BE9C" d="M83.296 18.622l-3.477-5.104c-4.89-7.178-13.458-1.035-9.213 5.402 1.418 2.15 1.98 2.97 3.398 5.12 3.893 5.84 11.861 5.8 15.241 0l3.169-5.418c-2.009 3.475-6.79 3.412-9.118 0z"/><path fill="url(#Logo_svg__Logo_svg__paint2_linear)" d="M83.296 18.622l-3.477-5.104c-4.89-7.178-13.458-1.035-9.213 5.402 1.418 2.15 1.98 2.97 3.398 5.12 3.893 5.84 11.861 5.8 15.241 0l3.169-5.418c-2.009 3.475-6.79 3.412-9.118 0z"/><path fill="#172033" d="M1.11 10.461c0 3.17 1.244 4.888 3.111 5.836L.25 24.976h2.637l3.616-8.116H8.4v8.116h2.281V3.796H7.273c-3.348 0-6.164 2.222-6.164 6.665zm7.29 4.503H7.184c-1.985 0-3.615-1.096-3.615-4.503 0-3.525 1.778-4.74 3.615-4.74H8.4v9.243zm10.994 1.422h-3.437v-6.34h-2.312v14.93h2.312v-6.694h3.437v6.694h2.282v-14.93h-2.282v6.34zm34.792-6.339h-2.342l-3.585 6.901v-6.901h-2.312v14.929h2.312V17.54l3.941 7.435h2.519l-4.238-7.909 3.705-7.02zm-21.812 0H25.44v1.273c0 3.97-.148 8.59-1.512 11.76h-.918v4.829h2.074v-2.933h6.401v2.933h2.075V23.08h-1.186V10.047zM30.092 23.08h-3.97c1.244-3.17 1.392-7.76 1.392-10.9v-.267h2.579V23.08zm32.628-.74a3.775 3.775 0 01-2.519.918c-1.867 0-2.756-2.133-2.756-5.865 0-3.762 1.186-5.628 2.845-5.628.916.05 1.785.416 2.46 1.036l.326-2.192a4.702 4.702 0 00-2.756-.77c-3.497 0-5.305 2.992-5.305 7.672 0 5.095 1.926 7.672 5.127 7.672a4.523 4.523 0 003.112-1.125l-.534-1.718zm-22.581.859c-1.838 0-2.786-1.778-2.786-5.155h6.223v-1.273c0-5.066-1.63-6.932-4.119-6.932-3.17 0-4.504 3.496-4.504 8.294 0 4.592 1.896 7.05 4.978 7.05a5.883 5.883 0 003.675-1.214l-.534-1.778A5.18 5.18 0 0140.14 23.2zm-.682-11.464c1.334 0 1.748 1.866 1.748 4.414h-3.822c.148-2.666.651-4.414 2.074-4.414zm65.233 13.26c-.103 0-.207-.005-.31-.015a2.265 2.265 0 00-.252-.015l-.148-1.39c.225.091.468.131.71.118a2.048 2.048 0 001.835-1.05c.499-.85.887-1.76 1.155-2.707l-4.41-16.123h1.48l3.669 13.638 3.582-13.638h1.361l-4.291 15.975a24.24 24.24 0 01-.652 2.012 6.89 6.89 0 01-.873 1.656 4.081 4.081 0 01-1.213 1.124 3.15 3.15 0 01-1.643.415zm13.822-.917c.431.008.86-.074 1.258-.241.337-.144.651-.337.932-.573.3-.226.561-.5.769-.814l.444 1.154a3.298 3.298 0 01-.828.829c-.329.245-.694.44-1.081.576a4.3 4.3 0 01-1.524.252 3.857 3.857 0 01-3.477-2.026c-.819-1.351-1.229-3.25-1.229-5.695 0-2.465.405-4.379 1.214-5.74a3.865 3.865 0 013.522-2.04 4.336 4.336 0 011.953.399c.497.238.94.576 1.302.99l-.384 1.48a5.338 5.338 0 00-1.214-1.184 2.796 2.796 0 00-1.657-.502c-1.145 0-1.989.573-2.531 1.72-.543 1.146-.814 2.777-.814 4.891 0 2.056.267 3.658.799 4.804.533 1.146 1.382 1.72 2.546 1.72zm7.695-4.29a36.357 36.357 0 01-.326 2.248 6.815 6.815 0 01-.488 1.642c-.175.403-.45.754-.799 1.02a2.04 2.04 0 01-1.229.356 1.213 1.213 0 01-.414-.06.873.873 0 01-.177-.059l-.119-1.242c.044.03.095.05.148.06.166.027.335.037.503.029.454 0 .824-.35 1.11-1.05a10.65 10.65 0 00.577-3.092c.02-.296.039-.66.059-1.095.02-.433.045-.902.074-1.405.03-.503.055-1.025.074-1.568l.06-1.612c.059-1.223.108-2.524.148-3.905h6.215v14.91h-1.391V11.15h-3.611c-.04 1.203-.079 2.347-.118 3.431l-.06 1.45a51.62 51.62 0 01-.074 1.42c-.029.454-.059.883-.088 1.287-.03.404-.055.754-.074 1.05zm9.056 9.91c-.158 0-.301-.005-.429-.013a3.145 3.145 0 01-.34-.043l-.148-1.245c.13.042.263.071.399.088.172.021.345.031.518.03a1.592 1.592 0 001.302-.697c.41-.586.702-1.247.859-1.944l.118-.445-3.7-15.374h1.391l2.368 9.733c.138.572.256 1.134.355 1.686.099.553.188 1.115.267 1.686h.088c.099-.591.207-1.163.326-1.715a49.52 49.52 0 01.385-1.657l2.308-9.733h1.243l-3.818 15.68c-.116.503-.269.998-.458 1.479a5.315 5.315 0 01-.696 1.257 3.49 3.49 0 01-.977.887 2.584 2.584 0 01-1.361.34zm10.921-18.46v13.727h-1.361v-14.91h6.303v1.183h-4.942zm14.028 3.343c0-.394.01-.754.03-1.08.019-.325.049-.646.089-.961h-.089c-.096.328-.215.65-.355.961-.139.306-.287.627-.444.962l-4.854 10.502h-1.184v-14.91h1.302v10.354c0 .395-.01.76-.029 1.095-.02.335-.05.67-.089 1.006h.089c.099-.337.217-.668.355-.991.138-.326.286-.656.444-.992l4.854-10.472h1.213v14.91h-1.332V14.581z"/><defs><linearGradient id="Logo_svg__Logo_svg__paint0_linear" x1="79.181" x2="98.631" y1="32.331" y2="-.266" gradientUnits="userSpaceOnUse"><stop stop-color="#28BD7C"/><stop offset="1" stop-color="#38CF90" stop-opacity="0"/></linearGradient><linearGradient id="Logo_svg__Logo_svg__paint1_linear" x1="79.181" x2="98.631" y1="32.331" y2="-.266" gradientUnits="userSpaceOnUse"><stop stop-color="#28BD7C"/><stop offset="1" stop-color="#38CF90" stop-opacity="0"/></linearGradient><linearGradient id="Logo_svg__Logo_svg__paint2_linear" x1="92.405" x2="73.894" y1="45.607" y2="14.932" gradientUnits="userSpaceOnUse"><stop stop-color="#414B80"/><stop offset="1" stop-color="#414B80" stop-opacity="0"/></linearGradient></defs></svg>