<svg xmlns="http://www.w3.org/2000/svg" width="56" height="56" viewBox="0 0 56 56">
  <metadata><?xpacket begin="﻿" id="W5M0MpCehiHzreSzNTczkc9d"?>
<x:xmpmeta xmlns:x="adobe:ns:meta/" x:xmptk="Adobe XMP Core 5.6-c140 79.160451, 2017/05/06-01:08:21        ">
   <rdf:RDF xmlns:rdf="http://www.w3.org/1999/02/22-rdf-syntax-ns#">
      <rdf:Description rdf:about=""/>
   </rdf:RDF>
</x:xmpmeta>
                                                                                                    
                                                                                                    
                                                                                                    
                                                                                                    
                                                                                                    
                                                                                                    
                                                                                                    
                                                                                                    
                                                                                                    
                                                                                                    
                                                                                                    
                                                                                                    
                                                                                                    
                                                                                                    
                                                                                                    
                                                                                                    
                                                                                                    
                                                                                                    
                                                                                                    
                                                                                                    
                           
<?xpacket end="w"?></metadata>
<defs>
    <style>
      .cls-1 {
        fill: #1f5dea;
        fill-rule: evenodd;
      }
    </style>
  </defs>
  <path id="Path" class="cls-1" d="M960,1951a28,28,0,0,1-27.513-22.82,1,1,0,0,1,.983-1.18h19.047a1.014,1.014,0,0,1,.831.44,7.994,7.994,0,0,0,13.3,0,1.016,1.016,0,0,1,.831-0.44H986.53a1,1,0,0,1,.983,1.18A28,28,0,0,1,960,1951Zm-25.3-22a26,26,0,0,0,50.594,0H968a10,10,0,0,1-16,0H934.7Zm25.3,4a10,10,0,0,1-8-4H933.47a1,1,0,0,1-.983-0.82,28,28,0,1,1,55.026,0,1,1,0,0,1-.983.82H968A10,10,0,0,1,960,1933Zm-25.687-6h18.2a1.014,1.014,0,0,1,.831.44,7.994,7.994,0,0,0,13.3,0,1.016,1.016,0,0,1,.831-0.44h18.205A26,26,0,1,0,934.313,1927Zm27.807-5.12a1.019,1.019,0,0,1-.707-0.29,1.008,1.008,0,0,1,0-1.42l8.041-8.04a1,1,0,0,1,1.414,1.42l-8.041,8.04A1.016,1.016,0,0,1,962.12,1921.88ZM960,1927a4,4,0,1,1,4-4A4,4,0,0,1,960,1927Zm0-6a2,2,0,1,0,2,2A2,2,0,0,0,960,1921Zm0-16a1,1,0,0,1-1-1v-4a1,1,0,0,1,2,0v4A1,1,0,0,1,960,1905Zm23,19h-4a1,1,0,0,1,0-2h4A1,1,0,0,1,983,1924Zm-42,0h-4a1,1,0,0,1,0-2h4A1,1,0,0,1,941,1924Zm9.5-16.45a1,1,0,0,1-.867-0.5l-2-3.47a1,1,0,0,1,1.732-1l2,3.47a1,1,0,0,1-.366,1.36A1.013,1.013,0,0,1,950.5,1907.55Zm25.954,6.95a1,1,0,0,1-.5-1.87l3.464-2a1,1,0,0,1,1,1.74l-3.464,2A1,1,0,0,1,976.455,1914.5Zm-32.911,0a1,1,0,0,1-.5-0.13l-3.464-2a1,1,0,0,1,1-1.74l3.464,2A1,1,0,0,1,943.544,1914.5Zm25.955-6.95a1.01,1.01,0,0,1-.5-0.14,1,1,0,0,1-.366-1.36l2-3.47a1,1,0,0,1,1.732,1l-2,3.47A1,1,0,0,1,969.5,1907.55Z" transform="translate(-932 -1895)"/>
</svg>
