<svg xmlns="http://www.w3.org/2000/svg" width="58" height="58" viewBox="0 0 58 58">
  <metadata><?xpacket begin="﻿" id="W5M0MpCehiHzreSzNTczkc9d"?>
<x:xmpmeta xmlns:x="adobe:ns:meta/" x:xmptk="Adobe XMP Core 5.6-c140 79.160451, 2017/05/06-01:08:21        ">
   <rdf:RDF xmlns:rdf="http://www.w3.org/1999/02/22-rdf-syntax-ns#">
      <rdf:Description rdf:about=""/>
   </rdf:RDF>
</x:xmpmeta>
                                                                                                    
                                                                                                    
                                                                                                    
                                                                                                    
                                                                                                    
                                                                                                    
                                                                                                    
                                                                                                    
                                                                                                    
                                                                                                    
                                                                                                    
                                                                                                    
                                                                                                    
                                                                                                    
                                                                                                    
                                                                                                    
                                                                                                    
                                                                                                    
                                                                                                    
                                                                                                    
                           
<?xpacket end="w"?></metadata>
<defs>
    <style>
      .cls-1 {
        fill: #1f5dea;
        fill-rule: evenodd;
      }
    </style>
  </defs>
  <path id="Path" class="cls-1" d="M517,1922a6,6,0,1,1,6-6A6.005,6.005,0,0,1,517,1922Zm0-10a4,4,0,1,0,4,4A4,4,0,0,0,517,1912Zm30,10a6,6,0,1,1,6-6A6.005,6.005,0,0,1,547,1922Zm0-10a4,4,0,1,0,4,4A4,4,0,0,0,547,1912Zm-5,5H522a1,1,0,0,1,0-2h20A1,1,0,0,1,542,1917Zm-25,35a6,6,0,1,1,6-6A6.005,6.005,0,0,1,517,1952Zm0-10a4,4,0,1,0,4,4A4,4,0,0,0,517,1942Zm30,10a6,6,0,1,1,6-6A6.005,6.005,0,0,1,547,1952Zm0-10a4,4,0,1,0,4,4A4,4,0,0,0,547,1942Zm-5,5H522a1,1,0,0,1,0-2h20A1,1,0,0,1,542,1947Zm-25-5a1,1,0,0,1-1-1v-20a1,1,0,0,1,2,0v20A1,1,0,0,1,517,1942Zm30,0a1,1,0,0,1-1-1v-20a1,1,0,0,1,2,0v20A1,1,0,0,1,547,1942Zm-14-36a6,6,0,1,1,6-6A6.005,6.005,0,0,1,533,1906Zm0-10a4,4,0,1,0,4,4A4,4,0,0,0,533,1896Zm30,10a6,6,0,1,1,6-6A6.005,6.005,0,0,1,563,1906Zm0-10a4,4,0,1,0,4,4A4,4,0,0,0,563,1896Zm-5,5H538a1,1,0,0,1,0-2h20A1,1,0,0,1,558,1901Zm-25,35a6,6,0,1,1,6-6A6.005,6.005,0,0,1,533,1936Zm0-10a4,4,0,1,0,4,4A4,4,0,0,0,533,1926Zm30,10a6,6,0,1,1,6-6A6.005,6.005,0,0,1,563,1936Zm0-10a4,4,0,1,0,4,4A4,4,0,0,0,563,1926Zm0,0a1,1,0,0,1-1-1v-20a1,1,0,0,1,2,0v20A1,1,0,0,1,563,1926Zm-42.4-12.6a1,1,0,0,1-.707-1.71l8.8-8.8a1,1,0,1,1,1.414,1.42l-8.8,8.8A1.016,1.016,0,0,1,520.6,1913.4Zm30,0a1,1,0,0,1-.707-1.71l8.8-8.8a1,1,0,1,1,1.414,1.42l-8.8,8.8A1.016,1.016,0,0,1,550.6,1913.4ZM538.99,1931h-1a1,1,0,0,1,0-2h1A1,1,0,1,1,538.99,1931Zm15,0h-2a1,1,0,0,1,0-2h2A1,1,0,0,1,553.991,1931Zm-5,0h-2a1,1,0,0,1,0-2h2A1,1,0,0,1,548.99,1931Zm-5,0h-2a1,1,0,1,1,0-2h2A1,1,0,0,1,543.99,1931Zm14,0h-1a1,1,0,1,1,0-2h1A1,1,0,0,1,557.991,1931Zm-25-24a1,1,0,0,1-1-1v-1a1,1,0,1,1,2,0v1A1,1,0,0,1,532.99,1907Zm0,15a1,1,0,0,1-1-1v-2a1,1,0,1,1,2,0v2A1,1,0,0,1,532.99,1922Zm0-5a1,1,0,0,1-1-1v-2a1,1,0,1,1,2,0v2A1,1,0,0,1,532.99,1917Zm0-5a1,1,0,0,1-1-1v-2a1,1,0,1,1,2,0v2A1,1,0,0,1,532.99,1912Zm0,14a1,1,0,0,1-1-1v-1a1,1,0,1,1,2,0v1A1,1,0,0,1,532.99,1926Zm-4.25,9.25a1,1,0,0,1-.708-1.71l0.708-.7a1,1,0,1,1,1.414,1.41l-0.708.71A1.015,1.015,0,0,1,528.74,1935.25Zm-5.681,5.68a1,1,0,0,1-.707-1.71l1.136-1.13a1,1,0,0,1,1.414,1.41l-1.136,1.14A1.016,1.016,0,0,1,523.059,1940.93Zm2.84-2.84a1,1,0,0,1-.707-1.71l1.136-1.13a1,1,0,1,1,1.414,1.41l-1.136,1.14A1.016,1.016,0,0,1,525.9,1938.09Zm-5.252,5.25a0.974,0.974,0,0,1-.707-0.29,0.994,0.994,0,0,1,0-1.41l0.707-.71a1,1,0,0,1,1.414,1.41l-0.707.71A0.975,0.975,0,0,1,520.647,1943.34ZM551,1943.71a1,1,0,0,1-.707-1.71l8.8-8.8a1,1,0,0,1,1.414,1.41l-8.8,8.81A1.016,1.016,0,0,1,551,1943.71Z" transform="translate(-511 -1894)"/>
</svg>
