<svg xmlns="http://www.w3.org/2000/svg" width="60" height="48" viewBox="0 0 60 48">
  <metadata><?xpacket begin="﻿" id="W5M0MpCehiHzreSzNTczkc9d"?>
<x:xmpmeta xmlns:x="adobe:ns:meta/" x:xmptk="Adobe XMP Core 5.6-c140 79.160451, 2017/05/06-01:08:21        ">
   <rdf:RDF xmlns:rdf="http://www.w3.org/1999/02/22-rdf-syntax-ns#">
      <rdf:Description rdf:about=""/>
   </rdf:RDF>
</x:xmpmeta>
                                                                                                    
                                                                                                    
                                                                                                    
                                                                                                    
                                                                                                    
                                                                                                    
                                                                                                    
                                                                                                    
                                                                                                    
                                                                                                    
                                                                                                    
                                                                                                    
                                                                                                    
                                                                                                    
                                                                                                    
                                                                                                    
                                                                                                    
                                                                                                    
                                                                                                    
                                                                                                    
                           
<?xpacket end="w"?></metadata>
<defs>
    <style>
      .cls-1 {
        fill: #1f5dea;
        fill-rule: evenodd;
      }
    </style>
  </defs>
  <path id="path" class="cls-1" d="M1398,1947h-54a3.009,3.009,0,0,1-3-3v-42a3.009,3.009,0,0,1,3-3h54a3.009,3.009,0,0,1,3,3v42A3.009,3.009,0,0,1,1398,1947Zm-54-46a1,1,0,0,0-1,1v42a1,1,0,0,0,1,1h54a1,1,0,0,0,1-1v-42a1,1,0,0,0-1-1h-54Zm23.54,28.74a0.991,0.991,0,0,1-.66-0.25,8.7,8.7,0,0,0-4.05-1.64,1.593,1.593,0,0,1-1.32-1.61c0.02-.33.02-0.65,0.02-0.98a3.686,3.686,0,0,1,.56-1.7,3.643,3.643,0,0,0,.46-1.24,1.021,1.021,0,0,1,.1-0.38,3.715,3.715,0,0,0,.4-1.42v-0.07a0.96,0.96,0,0,1-.21-0.82c0.04-.24.09-0.49,0.13-0.75l0.1-.55c0.32-1.83-.58-2.38-1.28-2.63-0.1-.03-0.29-0.08-0.53-0.14a15.5,15.5,0,0,1-2.33-.72,1.247,1.247,0,0,1-.7.94,1.975,1.975,0,0,0-1.3,2.54l0.1,0.56c0.04,0.26.08,0.51,0.13,0.75a0.96,0.96,0,0,1-.21.82v0.07a3.715,3.715,0,0,0,.4,1.42,1.021,1.021,0,0,1,.1.38,3.333,3.333,0,0,0,.45,1.19,3.741,3.741,0,0,1,.57,1.75c0,0.33,0,.65.02,0.94a1.606,1.606,0,0,1-1.32,1.65,8.7,8.7,0,0,0-4.05,1.64,1,1,0,0,1-1.32-1.5,10.2,10.2,0,0,1,4.68-2.05c-0.01-.21-0.01-0.45-0.01-0.68a2.746,2.746,0,0,0-.35-0.83,19.487,19.487,0,0,1-1.17-3.91,2.141,2.141,0,0,1,.18-0.91c-0.03-.13-0.05-0.27-0.07-0.4l-0.09-.54a3.89,3.89,0,0,1,2.03-4.52c0.01-.09.01-0.18,0.02-0.25a1.533,1.533,0,0,1,.76-1.6,1.184,1.184,0,0,1,1.15.25,8.275,8.275,0,0,0,2.82,1.07c0.31,0.08.55,0.14,0.7,0.19,2.07,0.75,3,2.52,2.58,4.87l-0.09.53c-0.02.13-.04,0.27-0.07,0.4a2.141,2.141,0,0,1,.18.91,5.415,5.415,0,0,1-.52,2.11,5.687,5.687,0,0,1-.66,1.84,2.991,2.991,0,0,0-.34.79c0,0.23,0,.46-0.01.68a10.2,10.2,0,0,1,4.68,2.05,1,1,0,0,1,.09,1.41A1.012,1.012,0,0,1,1367.54,1929.74ZM1388,1909h-10a1,1,0,0,1,0-2h10A1,1,0,0,1,1388,1909Zm6,4h-16a1,1,0,0,1,0-2h16A1,1,0,0,1,1394,1913Zm0,4h-16a1,1,0,0,1,0-2h16A1,1,0,0,1,1394,1917Zm0,4h-16a1,1,0,0,1,0-2h16A1,1,0,0,1,1394,1921Zm0,4h-16a1,1,0,0,1,0-2h16A1,1,0,0,1,1394,1925Zm0,4h-16a1,1,0,0,1,0-2h16A1,1,0,0,1,1394,1929Zm0,4h-16a1,1,0,0,1,0-2h16A1,1,0,0,1,1394,1933Zm0,8h-12a1,1,0,0,1,0-2h12A1,1,0,0,1,1394,1941Zm-36,0h-10a1,1,0,0,1,0-2h10A1,1,0,0,1,1358,1941Zm18,0h-12a1,1,0,0,1,0-2h12A1,1,0,0,1,1376,1941Zm-16-8a12.985,12.985,0,1,1,8.28-2.97A13.006,13.006,0,0,1,1360,1933Zm0-24a11,11,0,1,0,11,11A11.007,11.007,0,0,0,1360,1909Z" transform="translate(-1341 -1899)"/>
</svg>
