<svg xmlns="http://www.w3.org/2000/svg" xmlns:xlink="http://www.w3.org/1999/xlink" viewBox="0 0 958.98 115.47"><defs><style>.cls-1{fill:url(#Безымянный_градиент_10);}</style><linearGradient id="Безымянный_градиент_10" x1="10.57" y1="97.17" x2="89.43" y2="18.3" gradientUnits="userSpaceOnUse"><stop offset="0" stop-color="#16bffd"/><stop offset="1" stop-color="#cb3066"/></linearGradient></defs><title>logo_1</title><g id="Слой_2" data-name="Слой 2"><g id="Слой_1-2" data-name="Слой 1"><path d="M225.24,107.54A58.63,58.63,0,0,1,212,106.33a40.21,40.21,0,0,1-9.85-3.44,25.36,25.36,0,0,1-6.85-5.06,26.38,26.38,0,0,1-4.36-6.19,27.07,27.07,0,0,1-2.34-6.73,34.35,34.35,0,0,1-.69-6.74h-9.75l-5.2,29.37H145.33L162.91,7.93h44.31a36,36,0,0,1,13,2.23,29.19,29.19,0,0,1,9.93,6.19,27.4,27.4,0,0,1,6.33,9.41,31.32,31.32,0,0,1,2.24,12A38,38,0,0,1,237,49.13a37.39,37.39,0,0,1-4.76,9.92,41.14,41.14,0,0,1-7.4,8.24,44.76,44.76,0,0,1-9.59,6.26,16.06,16.06,0,0,0,.55,4.29,7.74,7.74,0,0,0,2,3.51,10.17,10.17,0,0,0,4.21,2.38,23.45,23.45,0,0,0,7.1.88h18.53l-3.95,22.93ZM197.55,55.17a11.52,11.52,0,0,0,4.87-1.1,14.15,14.15,0,0,0,4.22-3,15.21,15.21,0,0,0,3-4.39,12.92,12.92,0,0,0,1.14-5.38,11.85,11.85,0,0,0-.66-4,10.8,10.8,0,0,0-1.83-3.3,9,9,0,0,0-2.79-2.27,7.63,7.63,0,0,0-3.59-.84H186.42l-4.25,24.24Z"/><path d="M256.88,7.93h27.61l-17.58,99.61H239.3Z"/><path d="M370.62,7.86h29.16l-58.45,99.68H316.65L293.43,7.86h29.15l12.6,63.35h.36Z"/><path d="M409.3,7.93h71.85l-4.11,23H432.81L430,46.82h37.72l-4,22.92H426l-2.64,14.8h67.53l-4,23H391.72Z"/><path d="M518.65,76.7h-9.23L504,107.54H476.39L494,7.93h44.32a38.08,38.08,0,0,1,13.07,2.12,29.46,29.46,0,0,1,10,5.94,25.6,25.6,0,0,1,6.37,9.19A30.55,30.55,0,0,1,569.92,37a37.25,37.25,0,0,1-1.72,11.42,38,38,0,0,1-4.8,9.85,38.41,38.41,0,0,1-7.4,8.06,46.45,46.45,0,0,1-9.52,6l13.84,35.16H528.75ZM529,53.7A12.89,12.89,0,0,0,538,50a13.31,13.31,0,0,0,2.85-4.17,12.94,12.94,0,0,0,1.06-5.28,11,11,0,0,0-.65-3.8,9.71,9.71,0,0,0-1.84-3.08,8.27,8.27,0,0,0-2.78-2.05,8.53,8.53,0,0,0-3.59-.73H517.47l-4,22.77Z"/><path d="M598.7,75.82q-1,5.5,2.6,8.39t12.2,2.89a36.4,36.4,0,0,0,8-.73,13.91,13.91,0,0,0,5-2.05,7,7,0,0,0,2.53-3.11,10.84,10.84,0,0,0,.69-3.92,5.78,5.78,0,0,0-1.42-4.1,12.17,12.17,0,0,0-4.07-2.71,48.34,48.34,0,0,0-6.44-2.24c-2.54-.7-5.4-1.62-8.57-2.74q-2.21-.73-5.13-1.61c-2-.59-4-1.29-6-2.09A45,45,0,0,1,592,58.87a25.11,25.11,0,0,1-5.38-4.14,19.59,19.59,0,0,1-3.85-5.6,17.76,17.76,0,0,1-1.46-7.44,37,37,0,0,1,2.89-14.83,29.64,29.64,0,0,1,8.9-11.5A42.76,42.76,0,0,1,608.22,8a79.38,79.38,0,0,1,21.61-2.61,48.44,48.44,0,0,1,15.71,2.28,25.66,25.66,0,0,1,10.62,6.54,22,22,0,0,1,5.38,10.29A34.17,34.17,0,0,1,661.62,38H633.93a12.28,12.28,0,0,0,.11-3.37,5.58,5.58,0,0,0-1.32-3,8,8,0,0,0-3.4-2.19,17.75,17.75,0,0,0-6.08-.85,27.5,27.5,0,0,0-7.07.74,11.46,11.46,0,0,0-4.1,1.86,5.63,5.63,0,0,0-1.91,2.53,8,8,0,0,0-.47,2.63A4.72,4.72,0,0,0,611,39.6a11.73,11.73,0,0,0,3.63,2.52,37.73,37.73,0,0,0,5.38,2q3.07.91,6.6,1.65a125.25,125.25,0,0,1,13,4,38.81,38.81,0,0,1,10,5.38,22.16,22.16,0,0,1,6.37,7.61,23.39,23.39,0,0,1,2.23,10.65,31.39,31.39,0,0,1-4,16A35,35,0,0,1,643.41,101a49.56,49.56,0,0,1-15.74,6.92,75.83,75.83,0,0,1-18.86,2.3,65.93,65.93,0,0,1-14.39-1.39,40,40,0,0,1-10.63-3.84,25.54,25.54,0,0,1-7.21-5.75,24.77,24.77,0,0,1-4.25-7.11,25.7,25.7,0,0,1-1.68-7.94,36.48,36.48,0,0,1,.51-8.32Z"/><path d="M670,64.76a49.46,49.46,0,0,1,2.49-15.6A58.34,58.34,0,0,1,679.41,35a63.16,63.16,0,0,1,10.48-12A69.37,69.37,0,0,1,718.45,7.53a63.4,63.4,0,0,1,16.48-2.17,49.23,49.23,0,0,1,18.71,3.48,45.1,45.1,0,0,1,14.73,9.56A43.44,43.44,0,0,1,778,32.72a45.5,45.5,0,0,1,3.44,17.69A49.46,49.46,0,0,1,779,66,58.36,58.36,0,0,1,772,80.18,64.3,64.3,0,0,1,761.48,92.3a69.31,69.31,0,0,1-28.6,15.49A63.09,63.09,0,0,1,716.47,110a51.27,51.27,0,0,1-12.89-1.57,46.19,46.19,0,0,1-11.24-4.5,44.12,44.12,0,0,1-9.3-7,43.05,43.05,0,0,1-7-9.11,44,44,0,0,1-4.43-10.84A47.17,47.17,0,0,1,670,64.76Zm77.27-29.44a21.12,21.12,0,0,0-7.18-5.13,22.73,22.73,0,0,0-9.23-1.83A30.19,30.19,0,0,0,718.56,31,34.5,34.5,0,0,0,708,38.25a36.13,36.13,0,0,0-7.4,10.8,32,32,0,0,0-2.78,13.3,27.83,27.83,0,0,0,1.68,9.78,23.88,23.88,0,0,0,4.69,7.8,21.51,21.51,0,0,0,7.18,5.16A22.42,22.42,0,0,0,720.58,87,30.38,30.38,0,0,0,733,84.32a34.25,34.25,0,0,0,10.55-7.25,35.72,35.72,0,0,0,7.32-10.84,32.66,32.66,0,0,0,2.75-13.33A28.2,28.2,0,0,0,752,43.12"/><path d="M802.17,7.93h71.92l-4.1,23H825.68l-3.44,19.85H860l-4.1,23h-37.8l-5.93,33.77H784.59Z"/><path d="M901.26,30.93H875l4-23h80l-4,23H928.73l-13.48,76.61H887.79Z"/><polygon class="cls-1" points="0 28.87 0 86.6 50 115.47 100 86.6 100 28.87 50 0 0 28.87"/></g></g></svg>