<svg xmlns="http://www.w3.org/2000/svg" viewBox="0 0 512 503.17">
  <defs>
    <style>
      .cls-1 {
        fill: #235087;
      }

      .cls-2 {
        fill: #4db5ff;
      }

      .cls-3 {
        fill: #b7e5ff;
      }

      .cls-4 {
        fill: #6b778a;
      }

      .cls-5 {
        fill: #8994a3;
      }

      .cls-6 {
        fill: #99c8e0;
      }

      .cls-7 {
        fill: #535b6d;
      }

      .cls-8 {
        fill: #163768;
      }

      .cls-9 {
        fill: #3596d8;
      }
    </style>
  </defs>
  <title>icon-3</title>
  <g id="Слой_2" data-name="Слой 2">
    <g id="icon-3">
      <g>
        <path class="cls-1" d="M512,176.55H494.35V97.1H476.69V79.45h26.48A8.83,8.83,0,0,1,512,88.28v88.27Z"/>
        <path class="cls-1" d="M423.72,79.45V70.62a26.48,26.48,0,0,1,26.49-26.48h0a26.48,26.48,0,0,1,26.48,26.48v8.83Z"/>
        <path class="cls-1" d="M448.69,448.69l1.52,1.52,1.52-1.52a85.27,85.27,0,0,0,25-60.28h-53A85.24,85.24,0,0,0,448.69,448.69Z"/>
      </g>
      <rect class="cls-2" x="423.72" y="79.45" width="52.97" height="308.97"/>
      <rect class="cls-3" width="388.41" height="503.17"/>
      <g>
        <path class="cls-4" d="M353.1,238.35H35.31a8.83,8.83,0,1,1,0-17.66H353.1a8.83,8.83,0,0,1,0,17.66Z"/>
        <path class="cls-4" d="M353.1,273.66h-53a8.83,8.83,0,1,1,0-17.66h53a8.83,8.83,0,0,1,0,17.66Z"/>
        <path class="cls-4" d="M353.1,309H194.21a8.83,8.83,0,1,1,0-17.65H353.1a8.83,8.83,0,1,1,0,17.65Z"/>
        <path class="cls-4" d="M353.1,344.28H317.79a8.83,8.83,0,0,1,0-17.66H353.1a8.83,8.83,0,0,1,0,17.66Z"/>
        <path class="cls-4" d="M282.48,344.28H114.76a8.83,8.83,0,0,1,0-17.66H282.48a8.83,8.83,0,0,1,0,17.66Z"/>
        <path class="cls-4" d="M229.52,379.59H35.31a8.83,8.83,0,0,1,0-17.66H229.52a8.83,8.83,0,0,1,0,17.66Z"/>
      </g>
      <path class="cls-5" d="M238.35,97.1H150.07a8.83,8.83,0,1,1,0-17.65h88.28a8.83,8.83,0,0,1,0,17.65Z"/>
      <g>
        <path class="cls-4" d="M123.59,203h-53a8.83,8.83,0,1,1,0-17.65h53a8.83,8.83,0,1,1,0,17.65Z"/>
        <path class="cls-4" d="M353.1,203H158.9a8.83,8.83,0,1,1,0-17.65H353.1a8.83,8.83,0,1,1,0,17.65Z"/>
        <path class="cls-4" d="M264.83,273.66H35.31a8.83,8.83,0,1,1,0-17.66H264.83a8.83,8.83,0,0,1,0,17.66Z"/>
        <path class="cls-4" d="M158.9,309H35.31a8.83,8.83,0,1,1,0-17.65H158.9a8.83,8.83,0,0,1,0,17.65Z"/>
        <path class="cls-4" d="M79.45,344.28H35.31a8.83,8.83,0,0,1,0-17.66H79.45a8.83,8.83,0,1,1,0,17.66Z"/>
      </g>
      <g>
        <path class="cls-5" d="M273.65,61.79H114.76a8.83,8.83,0,1,1,0-17.65h158.9a8.83,8.83,0,0,1,0,17.65Z"/>
        <path class="cls-5" d="M353.1,150.07H247.17a8.83,8.83,0,1,1,0-17.66H353.1a8.83,8.83,0,0,1,0,17.66Z"/>
      </g>
      <path class="cls-6" d="M349.06,220.69h4a8.83,8.83,0,0,1,0,17.66H337.21q-6.31,9-13,17.65h28.9a8.83,8.83,0,0,1,0,17.66H309.85q-7.69,9-15.83,17.65H353.1a8.83,8.83,0,1,1,0,17.66H276.55q-9.49,9.09-19.48,17.65h25.41a8.83,8.83,0,0,1,0,17.66H235.3q-12.11,9.21-24.81,17.65h19a8.83,8.83,0,0,1,0,17.66H181.66A473.49,473.49,0,0,1,0,438.38v64.79H388.41V144.77A475.25,475.25,0,0,1,349.06,220.69Zm4,123.59H317.79a8.83,8.83,0,0,1,0-17.66H353.1a8.83,8.83,0,0,1,0,17.66Z"/>
      <g>
        <path class="cls-7" d="M353.1,238.35a8.83,8.83,0,0,0,0-17.66h-4q-5.71,9-11.82,17.65H353.1Z"/>
        <path class="cls-7" d="M353.1,273.66a8.83,8.83,0,0,0,0-17.66H324.23q-7,9-14.34,17.65H353.1Z"/>
        <path class="cls-7" d="M276.55,309H353.1a8.83,8.83,0,1,0,0-17.65h-59Q285.53,300.37,276.55,309Z"/>
        <path class="cls-7" d="M353.1,326.62H317.79a8.83,8.83,0,0,0,0,17.66H353.1a8.83,8.83,0,0,0,0-17.66Z"/>
        <path class="cls-7" d="M282.48,344.28a8.83,8.83,0,0,0,0-17.66H257.07c-7.06,6.08-14.32,12-21.77,17.65h47.18Z"/>
        <path class="cls-7" d="M229.52,379.59a8.83,8.83,0,0,0,0-17.66h-19c-9.37,6.23-19,12.08-28.83,17.65h47.86Z"/>
      </g>
      <path class="cls-8" d="M426.67,410.28a85.11,85.11,0,0,0,22,38.41l1.52,1.52,1.52-1.52a85.27,85.27,0,0,0,25-60.28H449.76A150.29,150.29,0,0,1,426.67,410.28Z"/>
      <path class="cls-9" d="M449.76,388.41h26.93V341.63A149.61,149.61,0,0,1,449.76,388.41Z"/>
      <g>
        <path class="cls-8" d="M476.69,70.62a26.4,26.4,0,0,0-47.5-16,109.64,109.64,0,0,1,47.5,20.51Z"/>
        <path class="cls-8" d="M500.4,79.45H476.69V97.1h7.14A53.29,53.29,0,0,1,500.4,79.45Z"/>
      </g>
      <path class="cls-5" d="M344.28,450.21H220.69a8.83,8.83,0,1,1,0-17.66H344.28a8.83,8.83,0,0,1,0,17.66Z"/>
    </g>
  </g>
</svg>
