<svg xmlns="http://www.w3.org/2000/svg" viewBox="0 0 512 512">
  <defs>
    <style>
      .cls-1 {
        fill: #ff9e24;
      }

      .cls-2 {
        fill: #fff;
      }

      .cls-3 {
        fill: #181818;
      }

      .cls-4 {
        fill: #ee3840;
      }

      .cls-5 {
        fill: #524e4d;
      }

      .cls-6 {
        fill: #7a7674;
      }
    </style>
  </defs>
  <title>icon-2</title>
  <g id="Слой_2" data-name="Слой 2">
    <g id="icon-2">
      <circle class="cls-1" cx="256" cy="256" r="256"/>
      <circle class="cls-2" cx="256" cy="256" r="207.47"/>
      <path class="cls-3" d="M342.65,196.8a19.41,19.41,0,0,0-27.45-27.45L241.59,243,269,270.41Z"/>
      <path class="cls-4" d="M244.23,250.61,135,359.81A12.13,12.13,0,0,0,152.19,377l109.2-109.2Z"/>
      <path class="cls-3" d="M171.07,143.61a19.42,19.42,0,0,0-27.46,27.46L243,270.41,270.41,243Z"/>
      <path class="cls-5" d="M256,286.33A30.33,30.33,0,1,1,286.33,256,30.36,30.36,0,0,1,256,286.33Z"/>
      <g>
        <path class="cls-6" d="M115.26,268.13H97.06a12.13,12.13,0,0,1,0-24.26h18.2a12.13,12.13,0,0,1,0,24.26Z"/>
        <path class="cls-6" d="M256,127.39a12.13,12.13,0,0,1-12.13-12.13V97.06a12.13,12.13,0,0,1,24.26,0v18.2A12.13,12.13,0,0,1,256,127.39Z"/>
        <path class="cls-6" d="M414.94,268.13h-18.2a12.13,12.13,0,0,1,0-24.26h18.2a12.13,12.13,0,1,1,0,24.26Z"/>
        <path class="cls-6" d="M256,427.07a12.13,12.13,0,0,1-12.13-12.13v-18.2a12.13,12.13,0,0,1,24.26,0v18.2A12.13,12.13,0,0,1,256,427.07Z"/>
      </g>
    </g>
  </g>
</svg>
