<svg xmlns="http://www.w3.org/2000/svg" viewBox="0 0 503.32 512">
  <defs>
    <style>
      .cls-1 {
        fill: #b7e5ff;
      }

      .cls-2 {
        fill: #ffa511;
      }

      .cls-3 {
        fill: #ef2648;
      }

      .cls-4 {
        fill: #163768;
      }

      .cls-5 {
        fill: #ffdc13;
      }

      .cls-6 {
        fill: #235087;
      }

      .cls-7 {
        fill: #99c8e0;
      }

      .cls-8 {
        fill: #f08015;
      }

      .cls-9 {
        fill: #b20d24;
      }
    </style>
  </defs>
  <title>icon-1</title>
  <g id="Слой_2" data-name="Слой 2">
    <g id="icon-1">
      <rect class="cls-1" width="503.32" height="390.51"/>
      <g>
        <rect class="cls-2" x="234.31" y="269.02" width="34.71" height="86.78"/>
        <rect class="cls-2" x="321.09" y="216.95" width="34.71" height="138.85"/>
      </g>
      <rect class="cls-3" x="407.87" y="121.49" width="34.71" height="234.31"/>
      <g>
        <path class="cls-4" d="M130.17,512a8.68,8.68,0,0,1-8.68-8.68,8.8,8.8,0,0,1,.38-2.55L156.59,388a8.68,8.68,0,1,1,16.59,5.1L138.47,505.87A8.68,8.68,0,0,1,130.17,512Z"/>
        <path class="cls-4" d="M373.15,512a8.66,8.66,0,0,1-8.29-6.13L330.15,393.06a8.68,8.68,0,1,1,16.59-5.1l34.71,112.81a8.67,8.67,0,0,1-8.3,11.23Z"/>
        <rect class="cls-4" x="147.53" y="433.9" width="208.27" height="17.36"/>
      </g>
      <g>
        <rect class="cls-5" x="60.75" y="321.08" width="34.71" height="34.71"/>
        <rect class="cls-5" x="147.53" y="303.73" width="34.71" height="52.07"/>
      </g>
      <g>
        <path class="cls-6" d="M52.07,295.05V277.7c150.56,0,294-96.84,365.34-246.72l15.67,7.46C358.84,194.33,209.28,295.05,52.07,295.05Z"/>
        <path class="cls-6" d="M442.58,95.46a8.69,8.69,0,0,1-8.23-5.94L420.15,47,377,68.56A8.68,8.68,0,0,1,369.27,53l52.07-26A8.68,8.68,0,0,1,433,30.82a10.26,10.26,0,0,1,.49,1.19l17.36,52.07A8.67,8.67,0,0,1,445.3,95,8.38,8.38,0,0,1,442.58,95.46Z"/>
      </g>
      <path class="cls-7" d="M442.58,355.8H407.87V293q-25.69,11.06-52.07,20.7V355.8H321.09V325.58q-25.74,8.3-52.07,15.23v15H234.31v-6.57A992.06,992.06,0,0,1,17.36,373.15c-5.81,0-11.58-.12-17.36-.21v17.57H503.32V245.69q-29.76,16.81-60.74,31.62V355.8Z"/>
      <g>
        <path class="cls-8" d="M269,355.8v-15q-17.24,4.51-34.71,8.42v6.57Z"/>
        <path class="cls-8" d="M355.8,355.8V313.73c-11.47,4.17-23.05,8.09-34.71,11.85V355.8Z"/>
      </g>
      <path class="cls-9" d="M442.58,355.8V277.31Q425.41,285.5,407.87,293V355.8Z"/>
    </g>
  </g>
</svg>
