<svg xmlns="http://www.w3.org/2000/svg" xmlns:xlink="http://www.w3.org/1999/xlink" viewBox="0 0 948 163.14">
  <defs>
    <style>
      .cls-1 {
        fill: url(#Безымянный_градиент_13);
      }

      .cls-2 {
        fill: url(#Безымянный_градиент_18);
      }

      .cls-3 {
        fill: url(#Безымянный_градиент_26);
      }

      .cls-4 {
        fill: #2452c3;
      }
    </style>
    <linearGradient id="Безымянный_градиент_13" data-name="Безымянный градиент 13" y1="63.91" x2="138.76" y2="63.91" gradientUnits="userSpaceOnUse">
      <stop offset="0" stop-color="#2f3035"/>
      <stop offset="0.52" stop-color="#2452c3"/>
      <stop offset="1" stop-color="#2f3035"/>
    </linearGradient>
    <linearGradient id="Безымянный_градиент_18" data-name="Безымянный градиент 18" y1="134.55" x2="138.76" y2="134.55" gradientUnits="userSpaceOnUse">
      <stop offset="0" stop-color="#2452c3"/>
      <stop offset="0.14" stop-color="#2451be"/>
      <stop offset="0.32" stop-color="#264dae"/>
      <stop offset="0.51" stop-color="#284794"/>
      <stop offset="0.72" stop-color="#2a3e70"/>
      <stop offset="0.94" stop-color="#2e3343"/>
      <stop offset="1" stop-color="#2f3035"/>
    </linearGradient>
    <linearGradient id="Безымянный_градиент_26" data-name="Безымянный градиент 26" x1="23.97" y1="81.57" x2="114.79" y2="81.57" gradientUnits="userSpaceOnUse">
      <stop offset="0" stop-color="#e4ebff"/>
      <stop offset="0.29" stop-color="#e2e6ff"/>
      <stop offset="0.51" stop-color="#deddff"/>
      <stop offset="0.72" stop-color="#cde1ff"/>
      <stop offset="0.97" stop-color="#b3e7ff"/>
    </linearGradient>
  </defs>
  <title>logo</title>
  <g id="Слой_2" data-name="Слой 2">
    <g id="Слой_1-2" data-name="Слой 1">
      <g>
        <polygon class="cls-1" points="0 92.5 138.76 57.19 138.76 35.32 0 70.64 0 92.5"/>
        <polygon class="cls-2" points="0 163.15 138.76 127.83 138.76 105.96 0 141.28 0 163.15"/>
        <circle class="cls-3" cx="69.38" cy="81.57" r="45.41"/>
        <polygon class="cls-4" points="138.76 57.19 0 21.86 0 0 138.76 35.32 138.76 57.19"/>
        <polygon class="cls-4" points="138.76 127.83 0 92.5 0 70.64 138.76 105.96 138.76 127.83"/>
      </g>
      <g>
        <path d="M215.42,102.57l27.89-63.15a6.48,6.48,0,0,1,1-1.49,6,6,0,0,1,1.68-1.4,6.3,6.3,0,0,1,2.24-.74,5.48,5.48,0,0,1,2.75.37,6.16,6.16,0,0,1,2.66,1.73,5.09,5.09,0,0,1,1.12,2.19,6,6,0,0,1,0,2.24,8,8,0,0,1-.56,2l-7.74,17.81,18,40.3,27.8-62.78a6.94,6.94,0,0,1,1.16-1.72,6.32,6.32,0,0,1,1.92-1.45,6.08,6.08,0,0,1,2.47-.61,5.42,5.42,0,0,1,2.84.8,5.27,5.27,0,0,1,2.89,3.45,5.89,5.89,0,0,1-.28,4.29L269.89,118.8a8.9,8.9,0,0,1-1.86,2.66,4.39,4.39,0,0,1-3.17,1.07,7.22,7.22,0,0,1-3.83-1,5.75,5.75,0,0,1-2.42-3.08L240,75.71l-18.84,43a6.68,6.68,0,0,1-2.24,2.75,6,6,0,0,1-3.64,1.07,5.35,5.35,0,0,1-1-.14,6.19,6.19,0,0,1-1.54-.56,7.69,7.69,0,0,1-1.68-1.16,6.21,6.21,0,0,1-1.39-1.87L176.43,44.55a5.47,5.47,0,0,1-.51-3.21,6.53,6.53,0,0,1,1.16-2.94A6,6,0,0,1,183,36a5.41,5.41,0,0,1,2.94,1.4,6.91,6.91,0,0,1,1.63,2.24Z"/>
        <path d="M330.24,84.76a29.93,29.93,0,0,0,3.45,10.68,30.72,30.72,0,0,0,6.86,8.48,31.68,31.68,0,0,0,9.47,5.65,31,31,0,0,0,11.28,2.05,32.92,32.92,0,0,0,13-2.61,25.89,25.89,0,0,0,10.07-7.37q3.27-2.33,6.06-1.31a5.25,5.25,0,0,1,2.8,2.43,6.15,6.15,0,0,1,1.26,4,5.57,5.57,0,0,1-2.28,4.2,40.67,40.67,0,0,1-12.64,9.09,41.81,41.81,0,0,1-18.24,3.69,43,43,0,0,1-17.3-3.5,44.9,44.9,0,0,1-23.69-23.74,44.63,44.63,0,0,1,0-34.65A45,45,0,0,1,344,38.17a42.87,42.87,0,0,1,17.3-3.5,43.64,43.64,0,0,1,17.26,3.45,44.25,44.25,0,0,1,14.13,9.47,45.62,45.62,0,0,1,9.56,14.08,43.65,43.65,0,0,1,3.64,17.21,5.69,5.69,0,0,1-6,5.88ZM393.39,74.5a29.4,29.4,0,0,0-3.41-11,31.61,31.61,0,0,0-16.74-14.6,32.7,32.7,0,0,0-11.75-2.1,32,32,0,0,0-11.75,2.15A32.37,32.37,0,0,0,340,54.77a30.25,30.25,0,0,0-6.85,8.77,30.69,30.69,0,0,0-3.31,11Z"/>
        <path d="M427.25,8.55A6.38,6.38,0,0,1,429,4.07a5.78,5.78,0,0,1,4.43-1.86,5.52,5.52,0,0,1,4.29,1.86,6.48,6.48,0,0,1,1.68,4.48V48.66a46.26,46.26,0,0,1,14.46-10.21A44.41,44.41,0,0,1,489,38.17a44.64,44.64,0,0,1,23.6,23.59,44.65,44.65,0,0,1,0,34.66A45,45,0,0,1,489,120.2a43.89,43.89,0,0,1-36.24-.75,45.36,45.36,0,0,1-14.92-11.56L436.57,119a8.46,8.46,0,0,1-1.26,2.19,3.8,3.8,0,0,1-3.31,1.35c-1.8,0-3-.56-3.73-1.68a8.35,8.35,0,0,1-1-4.38Zm12.12,70.52a31.41,31.41,0,0,0,2.52,12.5,32.81,32.81,0,0,0,17.21,17.34,32,32,0,0,0,25.37,0,32.44,32.44,0,0,0,10.26-7,32.79,32.79,0,0,0,6.81-10.3,32.81,32.81,0,0,0-.05-25.1,33,33,0,0,0-6.85-10.26,32.68,32.68,0,0,0-35.54-6.9,32.29,32.29,0,0,0-10.31,6.9,32.63,32.63,0,0,0-6.9,10.26A31.65,31.65,0,0,0,439.37,79.07Z"/>
        <path d="M534.14,79.25a43.54,43.54,0,0,1,3.5-17.39,44.22,44.22,0,0,1,9.56-14.18,45.38,45.38,0,0,1,14.17-9.51,44.41,44.41,0,0,1,34.56,0,44.37,44.37,0,0,1,23.6,23.69,44.81,44.81,0,0,1,1.4,30.92,45.5,45.5,0,0,1-5.83,11.84,25,25,0,0,1,5.32,9.24,36.62,36.62,0,0,1,1.68,11.28,34,34,0,0,1-2.62,13.72,29.8,29.8,0,0,1-17,16.32,32.39,32.39,0,0,1-11.61,2.14,44.83,44.83,0,0,1-4.76-.27c-1.68-.19-3.39-.39-5.13-.61s-3.47-.39-5.17-.51a42.94,42.94,0,0,0-4.9-.1,28.63,28.63,0,0,0-5.6,1,15.9,15.9,0,0,0-5.41,2.7,5.17,5.17,0,0,1-4.34,1.31,7,7,0,0,1-4-2,5.79,5.79,0,0,1,.37-8.67,17.38,17.38,0,0,1,6.11-3.31,56.51,56.51,0,0,1,7.23-1.92,49,49,0,0,1,10.87-.28q5.36.47,10.68.47,10.81,0,17-5.22T610,125.14a21.8,21.8,0,0,0-.33-4,21.17,21.17,0,0,0-.79-3.08,11.77,11.77,0,0,0-1.07-2.33c-.41-.66-.83-1.29-1.26-1.92a41.84,41.84,0,0,1-12.78,7.33,44.07,44.07,0,0,1-15.11,2.56,43,43,0,0,1-17.26-3.5,45.38,45.38,0,0,1-14.17-9.51,44.33,44.33,0,0,1-9.56-14.13A43,43,0,0,1,534.14,79.25Zm12.12,0a31.08,31.08,0,0,0,2.52,12.46,32.64,32.64,0,0,0,6.9,10.21,33,33,0,0,0,10.31,7,32.61,32.61,0,0,0,25.33,0,32.18,32.18,0,0,0,17-17.16,31.74,31.74,0,0,0,2.47-12.46,32.69,32.69,0,0,0-9.28-23,31.7,31.7,0,0,0-22.9-9.47,32.16,32.16,0,0,0-23,9.47,33,33,0,0,0-6.9,10.35A32,32,0,0,0,546.26,79.25Z"/>
        <path d="M641.78,79.25a43.71,43.71,0,0,1,3.49-17.39,44.41,44.41,0,0,1,9.57-14.18A45.38,45.38,0,0,1,669,38.17a44.63,44.63,0,0,1,36,.6,45.54,45.54,0,0,1,14.83,11.1l.65-8.21a19.81,19.81,0,0,1,2.24-4.29,4.1,4.1,0,0,1,3.55-1.68c1.8,0,3,.56,3.73,1.68a8.37,8.37,0,0,1,1,4.39v74.43a6.29,6.29,0,0,1-1.72,4.52,5.83,5.83,0,0,1-4.43,1.82,5.53,5.53,0,0,1-4.29-1.82,6.39,6.39,0,0,1-1.68-4.52v-7.65a48.92,48.92,0,0,1-14.6,11,40,40,0,0,1-18.05,4.2,43.16,43.16,0,0,1-17.26-3.5,44.85,44.85,0,0,1-23.74-23.74A43.15,43.15,0,0,1,641.78,79.25Zm12.12,0a31.08,31.08,0,0,0,2.52,12.46,33.33,33.33,0,0,0,6.9,10.26,32.65,32.65,0,0,0,10.31,7A32.47,32.47,0,0,0,699,109a32.14,32.14,0,0,0,10.22-7A33.07,33.07,0,0,0,716,91.71a31.56,31.56,0,0,0,2.47-12.46,32.69,32.69,0,0,0-9.28-23,31.74,31.74,0,0,0-22.9-9.47,32.16,32.16,0,0,0-22.95,9.47,33,33,0,0,0-6.9,10.35A32,32,0,0,0,653.9,79.25Z"/>
        <path d="M758.46,41.76a8,8,0,0,1,1.08-4.39,4,4,0,0,1,3.68-1.68A4.53,4.53,0,0,1,767,37.42a15.18,15.18,0,0,1,2.28,4.43L770,53.23a41.64,41.64,0,0,1,5.88-7.51,38.8,38.8,0,0,1,7.41-5.88A35.64,35.64,0,0,1,802,34.67,35.15,35.15,0,0,1,817.6,38,32.84,32.84,0,0,1,829,47.07a41.25,41.25,0,0,1,7,13.53,55.11,55.11,0,0,1,2.42,16.6v39.36a6,6,0,0,1-1.67,4.34,5.73,5.73,0,0,1-4.29,1.73,6.09,6.09,0,0,1-4.34-1.73,5.73,5.73,0,0,1-1.82-4.34v-39a40.3,40.3,0,0,0-1.73-11.93,30.22,30.22,0,0,0-5-9.8,23.17,23.17,0,0,0-8.16-6.62,24.72,24.72,0,0,0-11.14-2.43,26.59,26.59,0,0,0-11.8,2.66,30.3,30.3,0,0,0-9.42,7.09,34.22,34.22,0,0,0-8.54,22.62v37a6.53,6.53,0,0,1-1.63,4.52,5.53,5.53,0,0,1-4.34,1.82,5.84,5.84,0,0,1-4.38-1.82,6.17,6.17,0,0,1-1.78-4.52Z"/>
        <path d="M859.11,79.25a43.54,43.54,0,0,1,3.5-17.39,44.22,44.22,0,0,1,9.56-14.18,45.49,45.49,0,0,1,14.17-9.51,44.41,44.41,0,0,1,34.56,0,44.37,44.37,0,0,1,23.6,23.69,44.81,44.81,0,0,1,1.4,30.92,45.5,45.5,0,0,1-5.83,11.84,25,25,0,0,1,5.32,9.24,36.62,36.62,0,0,1,1.68,11.28,33.78,33.78,0,0,1-2.62,13.72,29.8,29.8,0,0,1-17,16.32,32.39,32.39,0,0,1-11.61,2.14,44.83,44.83,0,0,1-4.76-.27c-1.68-.19-3.39-.39-5.13-.61s-3.46-.39-5.17-.51a42.94,42.94,0,0,0-4.9-.1,28.63,28.63,0,0,0-5.6,1,15.9,15.9,0,0,0-5.41,2.7,5.17,5.17,0,0,1-4.34,1.31,7,7,0,0,1-4-2,5.79,5.79,0,0,1,.37-8.67,17.38,17.38,0,0,1,6.11-3.31,56.51,56.51,0,0,1,7.23-1.92,49,49,0,0,1,10.87-.28q5.36.47,10.68.47,10.82,0,17-5.22t6.15-14.84a21.8,21.8,0,0,0-.33-4,21.17,21.17,0,0,0-.79-3.08,11.77,11.77,0,0,0-1.07-2.33c-.41-.66-.83-1.29-1.26-1.92a41.84,41.84,0,0,1-12.78,7.33,44,44,0,0,1-15.11,2.56,43.06,43.06,0,0,1-17.26-3.5,45.49,45.49,0,0,1-14.17-9.51,44.33,44.33,0,0,1-9.56-14.13A43,43,0,0,1,859.11,79.25Zm12.12,0a31.08,31.08,0,0,0,2.52,12.46,32.64,32.64,0,0,0,6.9,10.21,33,33,0,0,0,10.31,7,32.61,32.61,0,0,0,25.33,0,32.18,32.18,0,0,0,17-17.16,31.56,31.56,0,0,0,2.47-12.46,32.69,32.69,0,0,0-9.28-23,31.7,31.7,0,0,0-22.9-9.47,32.16,32.16,0,0,0-23,9.47,33,33,0,0,0-6.9,10.35A32,32,0,0,0,871.23,79.25Z"/>
      </g>
    </g>
  </g>
</svg>
