<svg xmlns="http://www.w3.org/2000/svg" viewBox="0 0 500 500">
  <defs>
    <style>
      .a {
        fill: #fff;
      }

      .b {
        fill: #F50003;
      }
    </style>
  </defs>
  <title>stop</title>
  <g>
    <path class="a" d="M413.6,61l8.9,8Z"/>
    <path class="a" d="M469.8,130.8c2.9,5.3,5.6,10.8,8.1,16.3C475.4,141.6,472.7,136.1,469.8,130.8Z"/>
    <path class="a" d="M488.8,175.7c1.2,3.9,2.3,7.8,3.3,11.8C491.1,183.5,490,179.6,488.8,175.7Z"/>
    <path class="a" d="M484.8,164c1.4,3.9,2.7,7.7,4,11.7C487.5,171.7,486.2,167.9,484.8,164Z"/>
    <path class="a" d="M453.9,105.3c3.5,4.9,6.8,9.9,9.9,15.1C460.7,115.2,457.4,110.2,453.9,105.3Z"/>
    <path class="a" d="M435.1,81.9c5.3,5.9,10.4,12.1,15.2,18.5C445.5,94,440.4,87.8,435.1,81.9Z"/>
    <path class="a" d="M7.9,187.5c1-4,2.1-7.9,3.3-11.8C10,179.6,8.9,183.5,7.9,187.5Z"/>
    <path class="a" d="M369.3,93.2A197,197,0,0,0,93.2,369.3Z"/>
    <path class="a" d="M496.1,205.7c1.1,6.2,2,12.4,2.6,18.7C498.1,218.1,497.2,211.9,496.1,205.7Z"/>
    <path class="a" d="M130.7,406.8A197,197,0,0,0,406.8,130.7Z"/>
    <path class="a" d="M77.5,69c-2.9,2.8-5.7,5.6-8.5,8.5C71.8,74.6,74.6,71.8,77.5,69Z"/>
    <path class="a" d="M431,77.5,422.5,69Z"/>
    <path class="a" d="M463.8,120.4c2.1,3.4,4.1,6.9,6,10.4C467.9,127.3,465.9,123.8,463.8,120.4Z"/>
    <path class="a" d="M30.2,130.8c1.9-3.5,3.9-7,6-10.4C34.1,123.8,32.1,127.3,30.2,130.8Z"/>
    <path class="a" d="M22.1,147.1c2.5-5.5,5.2-11,8.1-16.3C27.3,136.1,24.6,141.6,22.1,147.1Z"/>
    <path class="a" d="M1.3,224.4c.6-6.3,1.5-12.5,2.6-18.7C2.8,211.9,1.9,218.1,1.3,224.4Z"/>
    <path class="a" d="M36.2,120.4c3.1-5.2,6.4-10.2,9.9-15.1C42.6,110.2,39.3,115.2,36.2,120.4Z"/>
    <path class="a" d="M11.2,175.7c1.3-4,2.6-7.8,4-11.7C13.8,167.9,12.5,171.7,11.2,175.7Z"/>
    <path class="a" d="M77.5,69l8.9-8Z"/>
    <path class="a" d="M105.3,46.1c3.2-2.3,6.6-4.5,10-6.7C111.9,41.6,108.5,43.8,105.3,46.1Z"/>
    <path class="a" d="M49.7,100.4c4.8-6.4,9.9-12.6,15.2-18.5C59.6,87.8,54.5,94,49.7,100.4Z"/>
    <path class="a" d="M384.7,39.4c3.4,2.2,6.8,4.4,10,6.7C391.5,43.8,388.1,41.6,384.7,39.4Z"/>
    <path class="b" d="M498.7,224.4c-.6-6.3-1.5-12.5-2.6-18.7s-2.4-12.2-4-18.2c-1-4-2.1-7.9-3.3-11.8s-2.6-7.8-4-11.7c-2.1-5.7-4.4-11.3-6.9-16.9s-5.2-11-8.1-16.3c-1.9-3.5-3.9-7-6-10.4-3.1-5.2-6.4-10.2-9.9-15.1l-3.6-4.9c-4.8-6.4-9.9-12.6-15.2-18.5-1.4-1.5-2.8-2.9-4.1-4.4L422.5,69l-8.9-8a229.3,229.3,0,0,0-18.9-14.9c-3.2-2.3-6.6-4.5-10-6.7a250,250,0,0,0-269.4,0c-3.4,2.2-6.8,4.4-10,6.7A229.3,229.3,0,0,0,86.4,61l-8.9,8c-2.9,2.8-5.7,5.6-8.5,8.5-1.3,1.5-2.7,2.9-4.1,4.4C59.6,87.8,54.5,94,49.7,100.4l-3.6,4.9c-3.5,4.9-6.8,9.9-9.9,15.1-2.1,3.4-4.1,6.9-6,10.4-2.9,5.3-5.6,10.8-8.1,16.3s-4.8,11.2-6.9,16.9c-1.4,3.9-2.7,7.7-4,11.7s-2.3,7.8-3.3,11.8c-1.6,6-2.9,12.1-4,18.2s-2,12.4-2.6,18.7A241.1,241.1,0,0,0,0,250C0,388.1,111.9,500,250,500S500,388.1,500,250A241.1,241.1,0,0,0,498.7,224.4ZM53,250A197,197,0,0,1,369.3,93.2L93.2,369.3A195.2,195.2,0,0,1,53,250ZM389.3,389.3a197.1,197.1,0,0,1-258.6,17.5L406.8,130.7a197.1,197.1,0,0,1-17.5,258.6Z"/>
  </g>
</svg>
