<svg xmlns="http://www.w3.org/2000/svg" viewBox="0 0 439.96 179.4"><defs><style>.cls-1{fill:#000607;}.cls-1,.cls-2,.cls-3{fill-rule:evenodd;}.cls-2{fill:#2f6ef6;}.cls-3{fill:#fff;}</style></defs><title>logo</title><g id="Слой_2" data-name="Слой 2"><g id="Слой_1-2" data-name="Слой 1"><path class="cls-1" d="M8.67,6.71l422.54.17-38.5,151.61a580.59,580.59,0,0,0-104.36-23.62v34a632,632,0,0,1-137.76,0V134.44a569.47,569.47,0,0,0-105.12,23ZM174.81,128.24a5.55,5.55,0,0,0-3.31.85,6,6,0,0,0-1.87,1.7,6.64,6.64,0,0,0-1.28,4.25V140a5.75,5.75,0,0,0,.34,2.29,7.58,7.58,0,0,0,2.72,4,8.76,8.76,0,0,0,4.17,1.44l3.4.26a.31.31,0,0,1,.25.08,1,1,0,0,1,.68.94v6.11a.83.83,0,0,1-.93.6l-3.91-.26c-.09,0-.17,0-.17-.08a.9.9,0,0,1-.68-.94v-1.86a1.28,1.28,0,0,0-.17-.51c-.17-.43-.43-.6-1-.68-1.11-.09-2.3-.17-3.49-.34-.76,0-1.19.34-1.19,1.1v1.28a6.19,6.19,0,0,0,.34,2.37,7.58,7.58,0,0,0,6.89,5.53l3,.25a6.6,6.6,0,0,0,3.74-.51,5.63,5.63,0,0,0,1.7-1.36,5.7,5.7,0,0,0,1.7-4.16v-6.46a7.08,7.08,0,0,0-1-3.48,6.82,6.82,0,0,0-1.79-2,7.65,7.65,0,0,0-4.33-1.61c-1.19-.09-2.38-.17-3.48-.17-.09,0-.17,0-.17-.09a.89.89,0,0,1-.68-.93V134.7a.81.81,0,0,1,.85-.6c1.27.09,2.63.17,3.91.17a.29.29,0,0,1,.25.09,1,1,0,0,1,.68.93v1.87a1,1,0,0,0,.09.51,1.27,1.27,0,0,0,1,.68c1.19,0,2.38.09,3.57.17.6,0,1-.25,1.11-.76.08-.85,0-1.62,0-2.47a6.35,6.35,0,0,0-1.87-4.5,6.26,6.26,0,0,0-4.59-2.38C177.79,128.33,176.34,128.33,174.81,128.24Zm25.84.93c-.51,0-.77.43-.77,1.11v31.44c0,.85.43,1.28,1.19,1.28,1.11.08,2.3.08,3.49.17a3.19,3.19,0,0,0,.42-.09,1.07,1.07,0,0,0,.68-1.1V151.19c1.87.08,3.82.08,5.69.17v10.7a1.15,1.15,0,0,0,1.19,1.28H216c.59,0,1-.26,1-.85.17-5.36,0-10.79,0-16.15V130.11c-.17-.51-.43-.77-.77-.77-1.36,0-2.72-.08-4.08,0-.59,0-.85.43-.85,1.11v14.87c-1.87-.08-3.82-.08-5.69-.08V130.45a.89.89,0,0,0-.09-.43.8.8,0,0,0-.76-.76A34,34,0,0,0,200.65,129.17Zm31.52.09c-.51.08-.76.51-.76,1.1V162c0,.85.34,1.19,1.1,1.19,1.19,0,2.38-.09,3.57-.09.6-.08,1-.34,1.11-.93.08-5.36,0-10.71,0-16.06V129.94c-.26-.51-.51-.77-.85-.77C235,129.17,233.53,129.17,232.17,129.26Zm24.06-.68c-1.45.09-2.81.09-4.25.17a1.07,1.07,0,0,0-.77,1V161c0,.85.34,1.19,1.11,1.11l3.57-.26c.17,0,.34-.08.51-.08a1.34,1.34,0,0,0,.59-1.11V143.2h0c2.46,5.61,4.33,9.77,5.61,12.57s1.95,4.25,1.95,4.34c.17.68.6,1,1.11.93,1.27-.08,2.46-.25,3.65-.34.6-.08,1.11-.34,1.11-.93.08-5.19,0-10.37,0-15.55V128.67c-.17-.51-.43-.77-.85-.77l-4.08.26h-.26a1.27,1.27,0,0,0-.59,1.18v17.34h-.09c-2.38-5.52-4.16-9.77-5.44-12.58s-1.78-4.33-1.78-4.33C257,129,256.65,128.58,256.23,128.58ZM23,19q7.4,30.47,14.79,61.1c4.93,20.31,9.86,40.71,14.87,61,13.43-3.91,27.19-7.65,41.13-11.22-1.27-6.88-2.46-13.77-3.74-20.65l-21.84,4.33c-1.87-8.41-3.65-16.82-5.35-25.32,6-.85,12-1.62,18-2.47-1.19-6.46-2.38-12.91-3.57-19.29-6.28.51-12.49,1.11-18.69,1.79-2-9.27-3.91-18.44-5.87-27.62,8.59-.34,17.17-.77,25.75-1.11C77.33,32.72,76.06,25.92,74.87,19ZM136.31,67.73c1.79-8.24,3.57-16.4,5.53-24.56S145.66,27,147.79,19H123.65c-.93,6-1.78,12.06-2.55,18.18s-1.53,12.24-2.29,18.44c-2.21-6-4.51-12.15-6.8-18.18S107.33,25.16,105,19H80.65C84.9,27.7,89.15,36.37,93.23,45c4,8.41,7.9,16.82,11.81,25.15-1.28,9.52-2.47,19.21-3.48,29s-1.87,19.72-2.72,29.74c7-1.52,13.85-3,20.9-4.33.43-6.37.94-12.75,1.45-19.12s1.1-12.58,1.7-18.87c2.21,5.95,4.42,11.82,6.54,17.76,2.12,5.78,4.16,11.65,6.29,17.43,7.14-1,14.28-2,21.5-3q-5.1-12.5-10.2-25.24C143.62,85,140,76.4,136.31,67.73Zm44-31.7,1,19.12c.26,6.38.6,12.75.94,19.13,3.74-.09,7.48-.17,11.3-.34.94,0,1.53-.17,1.7-.51a2.49,2.49,0,0,0,.43-1.53c-.26-5.7-.34-11.39-.51-17.09s-.34-11.38-.51-17c-.09-1.28-.85-1.87-2.21-1.87C188.41,36,184.41,36,180.33,36Zm23-17H155.18c1.27,16.48,2.63,33.05,3.91,49.54s2.63,33.06,4,49.55c7.06-.68,14.11-1.36,21.25-1.87-.26-4.34-.43-8.59-.68-12.92s-.43-8.67-.6-13c6.38-.17,12.75-.51,19-.68a22.72,22.72,0,0,0,7.73-1.11,12.32,12.32,0,0,0,4.93-2.72,8.56,8.56,0,0,0,2.47-4.08,16.81,16.81,0,0,0,.85-5.09c-.09-7.65-.09-15.3-.09-23s0-15.29-.08-22.94a10.58,10.58,0,0,0-3.66-8.5C211.78,20.06,208.21,19,203.37,19Zm24.13,0c-.17,16-.34,32-.51,48s-.34,32-.42,48c14.87.34,29.74,1.19,44.61,2.46q.65-9.18,1.28-18.35c-7.65-.6-15.3-1-23.12-1.36.34-7.06.68-14.11.94-21.08,6.2.17,12.49.42,18.78.77.42-5.7.76-11.31,1.19-16.92-6.46-.25-12.84-.42-19.29-.59.34-7.65.68-15.3.93-23,8.75.09,17.42.17,26.09.34.43-6.12.94-12.23,1.45-18.35Zm82.77,17.84c-.68,5.87-1.36,11.82-2,17.68s-1.35,11.73-2,17.59c3.73.26,7.47.6,11.13.85a2,2,0,0,0,2.46-2c.68-5.27,1.45-10.54,2.13-15.81s1.27-10.54,2-15.81c.17-1.44-.43-2.21-2-2.21C318.09,37.14,314.18,37,310.27,36.88ZM340.44,83.2c1.36-8.33,2.72-16.66,4.08-25.07s2.72-16.74,4.08-25.07c.68-4.25,0-7.73-2.29-10.28S340.1,19,334.32,19H287.84c-1.45,16.57-2.81,33.14-4.25,49.63s-2.8,33.14-4.16,49.71c7.13.85,14.1,1.79,21.16,2.72.68-5.35,1.27-10.79,1.87-16.23s1.27-10.79,1.87-16.23l2.89.25c1.1,5.61,2.2,11.31,3.22,17.08s2,11.56,3,17.34c7.22,1.28,14.36,2.72,21.5,4.25-.94-6.12-1.87-12.24-2.8-18.27s-2-12-3-17.93a8.85,8.85,0,0,0,7.73-2A10.11,10.11,0,0,0,340.44,83.2ZM415.82,19H358c-1.19,6.8-2.38,13.59-3.49,20.39,5.18.17,10.54.34,15.81.6Q365.89,63,361.6,85.92q-4.46,23-8.83,45.89c6.88,1.7,13.59,3.48,20.31,5.52q5.35-24.09,10.71-48.1c3.65-16.06,7.13-32.12,10.7-48.18,5.19.25,10.46.51,15.81.68C412.17,34.16,414,26.6,415.82,19Z"/><path class="cls-2" d="M8.58,0,440,.17l-42.49,167L390.58,165c-17-5.52-34.16-10.28-51.24-14.19-14.79-3.31-29.49-6-44.28-8.16v32.3l-6,.68a632,632,0,0,1-69.35,3.82,644.56,644.56,0,0,1-69.85-3.82l-6-.68V142.09q-22.31,3.06-44.61,7.91c-17.43,3.82-34.68,8.49-51.67,13.85l-6.89,2.21L0,0Z"/><path class="cls-1" d="M8.67,6.71l422.54.17-38.5,151.61a580.59,580.59,0,0,0-104.36-23.62v34a632,632,0,0,1-137.76,0V134.44a569.47,569.47,0,0,0-105.12,23ZM174.81,128.24a5.55,5.55,0,0,0-3.31.85,6,6,0,0,0-1.87,1.7,6.64,6.64,0,0,0-1.28,4.25V140a5.75,5.75,0,0,0,.34,2.29,7.58,7.58,0,0,0,2.72,4,8.76,8.76,0,0,0,4.17,1.44l3.4.26a.31.31,0,0,1,.25.08,1,1,0,0,1,.68.94v6.11a.83.83,0,0,1-.93.6l-3.91-.26c-.09,0-.17,0-.17-.08a.9.9,0,0,1-.68-.94v-1.86a1.28,1.28,0,0,0-.17-.51c-.17-.43-.43-.6-1-.68-1.11-.09-2.3-.17-3.49-.34-.76,0-1.19.34-1.19,1.1v1.28a6.19,6.19,0,0,0,.34,2.37,7.58,7.58,0,0,0,6.89,5.53l3,.25a6.6,6.6,0,0,0,3.74-.51,5.63,5.63,0,0,0,1.7-1.36,5.7,5.7,0,0,0,1.7-4.16v-6.46a7.08,7.08,0,0,0-1-3.48,6.82,6.82,0,0,0-1.79-2,7.65,7.65,0,0,0-4.33-1.61c-1.19-.09-2.38-.17-3.48-.17-.09,0-.17,0-.17-.09a.89.89,0,0,1-.68-.93V134.7a.81.81,0,0,1,.85-.6c1.27.09,2.63.17,3.91.17a.29.29,0,0,1,.25.09,1,1,0,0,1,.68.93v1.87a1,1,0,0,0,.09.51,1.27,1.27,0,0,0,1,.68c1.19,0,2.38.09,3.57.17.6,0,1-.25,1.11-.76.08-.85,0-1.62,0-2.47a6.35,6.35,0,0,0-1.87-4.5,6.26,6.26,0,0,0-4.59-2.38C177.79,128.33,176.34,128.33,174.81,128.24Zm25.84.93c-.51,0-.77.43-.77,1.11v31.44c0,.85.43,1.28,1.19,1.28,1.11.08,2.3.08,3.49.17a3.19,3.19,0,0,0,.42-.09,1.07,1.07,0,0,0,.68-1.1V151.19c1.87.08,3.82.08,5.69.17v10.7a1.15,1.15,0,0,0,1.19,1.28H216c.59,0,1-.26,1-.85.17-5.36,0-10.79,0-16.15V130.11c-.17-.51-.43-.77-.77-.77-1.36,0-2.72-.08-4.08,0-.59,0-.85.43-.85,1.11v14.87c-1.87-.08-3.82-.08-5.69-.08V130.45a.89.89,0,0,0-.09-.43.8.8,0,0,0-.76-.76A34,34,0,0,0,200.65,129.17Zm31.52.09c-.51.08-.76.51-.76,1.1V162c0,.85.34,1.19,1.1,1.19,1.19,0,2.38-.09,3.57-.09.6-.08,1-.34,1.11-.93.08-5.36,0-10.71,0-16.06V129.94c-.26-.51-.51-.77-.85-.77C235,129.17,233.53,129.17,232.17,129.26Zm24.06-.68c-1.45.09-2.81.09-4.25.17a1.07,1.07,0,0,0-.77,1V161c0,.85.34,1.19,1.11,1.11l3.57-.26c.17,0,.34-.08.51-.08a1.34,1.34,0,0,0,.59-1.11V143.2h0c2.46,5.61,4.33,9.77,5.61,12.57s1.95,4.25,1.95,4.34c.17.68.6,1,1.11.93,1.27-.08,2.46-.25,3.65-.34.6-.08,1.11-.34,1.11-.93.08-5.19,0-10.37,0-15.55V128.67c-.17-.51-.43-.77-.85-.77l-4.08.26h-.26a1.27,1.27,0,0,0-.59,1.18v17.34h-.09c-2.38-5.52-4.16-9.77-5.44-12.58s-1.78-4.33-1.78-4.33C257,129,256.65,128.58,256.23,128.58ZM23,19q7.4,30.47,14.79,61.1c4.93,20.31,9.86,40.71,14.87,61,13.43-3.91,27.19-7.65,41.13-11.22-1.27-6.88-2.46-13.77-3.74-20.65l-21.84,4.33c-1.87-8.41-3.65-16.82-5.35-25.32,6-.85,12-1.62,18-2.47-1.19-6.46-2.38-12.91-3.57-19.29-6.28.51-12.49,1.11-18.69,1.79-2-9.27-3.91-18.44-5.87-27.62,8.59-.34,17.17-.77,25.75-1.11C77.33,32.72,76.06,25.92,74.87,19ZM136.31,67.73c1.79-8.24,3.57-16.4,5.53-24.56S145.66,27,147.79,19H123.65c-.93,6-1.78,12.06-2.55,18.18s-1.53,12.24-2.29,18.44c-2.21-6-4.51-12.15-6.8-18.18S107.33,25.16,105,19H80.65C84.9,27.7,89.15,36.37,93.23,45c4,8.41,7.9,16.82,11.81,25.15-1.28,9.52-2.47,19.21-3.48,29s-1.87,19.72-2.72,29.74c7-1.52,13.85-3,20.9-4.33.43-6.37.94-12.75,1.45-19.12s1.1-12.58,1.7-18.87c2.21,5.95,4.42,11.82,6.54,17.76,2.12,5.78,4.16,11.65,6.29,17.43,7.14-1,14.28-2,21.5-3q-5.1-12.5-10.2-25.24C143.62,85,140,76.4,136.31,67.73Zm44-31.7,1,19.12c.26,6.38.6,12.75.94,19.13,3.74-.09,7.48-.17,11.3-.34.94,0,1.53-.17,1.7-.51a2.49,2.49,0,0,0,.43-1.53c-.26-5.7-.34-11.39-.51-17.09s-.34-11.38-.51-17c-.09-1.28-.85-1.87-2.21-1.87C188.41,36,184.41,36,180.33,36Zm23-17H155.18c1.27,16.48,2.63,33.05,3.91,49.54s2.63,33.06,4,49.55c7.06-.68,14.11-1.36,21.25-1.87-.26-4.34-.43-8.59-.68-12.92s-.43-8.67-.6-13c6.38-.17,12.75-.51,19-.68a22.72,22.72,0,0,0,7.73-1.11,12.32,12.32,0,0,0,4.93-2.72,8.56,8.56,0,0,0,2.47-4.08,16.81,16.81,0,0,0,.85-5.09c-.09-7.65-.09-15.3-.09-23s0-15.29-.08-22.94a10.58,10.58,0,0,0-3.66-8.5C211.78,20.06,208.21,19,203.37,19Zm24.13,0c-.17,16-.34,32-.51,48s-.34,32-.42,48c14.87.34,29.74,1.19,44.61,2.46q.65-9.18,1.28-18.35c-7.65-.6-15.3-1-23.12-1.36.34-7.06.68-14.11.94-21.08,6.2.17,12.49.42,18.78.77.42-5.7.76-11.31,1.19-16.92-6.46-.25-12.84-.42-19.29-.59.34-7.65.68-15.3.93-23,8.75.09,17.42.17,26.09.34.43-6.12.94-12.23,1.45-18.35Zm82.77,17.84c-.68,5.87-1.36,11.82-2,17.68s-1.35,11.73-2,17.59c3.73.26,7.47.6,11.13.85a2,2,0,0,0,2.46-2c.68-5.27,1.45-10.54,2.13-15.81s1.27-10.54,2-15.81c.17-1.44-.43-2.21-2-2.21C318.09,37.14,314.18,37,310.27,36.88ZM340.44,83.2c1.36-8.33,2.72-16.66,4.08-25.07s2.72-16.74,4.08-25.07c.68-4.25,0-7.73-2.29-10.28S340.1,19,334.32,19H287.84c-1.45,16.57-2.81,33.14-4.25,49.63s-2.8,33.14-4.16,49.71c7.13.85,14.1,1.79,21.16,2.72.68-5.35,1.27-10.79,1.87-16.23s1.27-10.79,1.87-16.23l2.89.25c1.1,5.61,2.2,11.31,3.22,17.08s2,11.56,3,17.34c7.22,1.28,14.36,2.72,21.5,4.25-.94-6.12-1.87-12.24-2.8-18.27s-2-12-3-17.93a8.85,8.85,0,0,0,7.73-2A10.11,10.11,0,0,0,340.44,83.2ZM415.82,19H358c-1.19,6.8-2.38,13.59-3.49,20.39,5.18.17,10.54.34,15.81.6Q365.89,63,361.6,85.92q-4.46,23-8.83,45.89c6.88,1.7,13.59,3.48,20.31,5.52q5.35-24.09,10.71-48.1c3.65-16.06,7.13-32.12,10.7-48.18,5.19.25,10.46.51,15.81.68C412.17,34.16,414,26.6,415.82,19Z"/><path class="cls-3" d="M23,19H74.87c1.19,6.88,2.46,13.68,3.65,20.56-8.58.34-17.16.77-25.75,1.11,2,9.18,3.91,18.35,5.87,27.62,6.2-.68,12.41-1.28,18.69-1.79,1.19,6.38,2.38,12.83,3.57,19.29-6,.85-12.06,1.62-18,2.47,1.7,8.5,3.48,16.91,5.35,25.41,7.23-1.53,14.53-3,21.84-4.42,1.28,6.88,2.47,13.77,3.74,20.65-13.94,3.57-27.7,7.31-41.13,11.22-5-20.31-9.94-40.71-14.87-61S28,39.35,23,19ZM136.31,67.73c1.79-8.24,3.57-16.4,5.44-24.56s3.91-16.15,6-24.13H123.57c-.85,6-1.7,12.06-2.47,18.18s-1.53,12.24-2.29,18.44c-2.21-6-4.51-12.15-6.8-18.18S107.33,25.16,105,19H80.65C84.9,27.7,89.06,36.37,93.23,45c4,8.41,7.9,16.82,11.81,25.15-1.28,9.52-2.47,19.21-3.48,29s-1.87,19.72-2.72,29.74c7-1.44,13.85-3,20.9-4.33.43-6.37.85-12.75,1.36-19.12s1.19-12.58,1.79-18.87c2.21,5.95,4.42,11.82,6.54,17.76,2.12,5.78,4.16,11.65,6.29,17.43,7.14-1,14.28-2,21.5-3q-5.1-12.5-10.2-25.24C143.62,85,140,76.4,136.31,67.73Zm44-31.7,1,19.12c.26,6.38.6,12.75.94,19.13,3.74-.09,7.48-.17,11.3-.34.94,0,1.53-.17,1.7-.51a2,2,0,0,0,.34-1.53c-.17-5.7-.25-11.39-.42-17.09s-.34-11.38-.51-17c-.09-1.28-.85-1.87-2.21-1.87C188.41,36,184.41,36,180.33,36Zm23-17c4.84,0,8.41,1,10.87,3.14a10.58,10.58,0,0,1,3.66,8.5c0,7.65,0,15.3.08,22.94s0,15.39.09,23a16.81,16.81,0,0,1-.85,5.09,8.56,8.56,0,0,1-2.47,4.08,12.32,12.32,0,0,1-4.93,2.72,22.72,22.72,0,0,1-7.73,1.11c-6.29.17-12.66.51-19,.68.17,4.33.43,8.67.6,13s.42,8.67.68,12.92c-7.14.51-14.19,1.19-21.33,1.87-1.28-16.49-2.55-33.06-3.91-49.55S156.45,35.52,155.18,19Zm24.13,0h51.93c-.51,6.12-1,12.23-1.45,18.35-8.67-.17-17.34-.25-26.09-.34-.25,7.65-.59,15.3-.93,23,6.45.17,12.83.34,19.29.59-.43,5.61-.85,11.22-1.19,16.92-6.29-.35-12.58-.6-18.78-.77-.26,7-.6,14-.94,21.08,7.73.34,15.47.76,23.12,1.36q-.65,9.16-1.28,18.35c-14.87-1.27-29.74-2.12-44.7-2.38.17-16.06.34-32,.51-48.1S227.33,35,227.5,19Zm82.77,17.84c-.68,5.87-1.36,11.82-2,17.68s-1.35,11.73-2,17.59c3.73.26,7.47.6,11.13.85a2,2,0,0,0,2.46-2c.77-5.27,1.45-10.54,2.13-15.81l2-15.81c.25-1.44-.43-2.21-2-2.21C318.09,37.14,314.18,37,310.27,36.88ZM340.44,83.2c1.36-8.33,2.72-16.66,4.08-25.07s2.72-16.74,4.08-25.07c.68-4.25-.08-7.73-2.29-10.28S340.1,19,334.32,19H287.84c-1.45,16.57-2.81,33.14-4.25,49.63s-2.8,33.14-4.16,49.71c7.13.85,14.1,1.79,21.16,2.81.59-5.44,1.27-10.88,1.87-16.32s1.27-10.79,1.87-16.23l2.89.25c1.1,5.61,2.2,11.31,3.22,17.08s2,11.56,3,17.34c7.22,1.36,14.36,2.72,21.5,4.25-.94-6.12-1.87-12.24-2.8-18.27s-2-12-3.06-17.93c3.23.51,5.86-.17,7.81-2A10.11,10.11,0,0,0,340.44,83.2ZM415.82,19c-1.78,7.56-3.65,15.12-5.52,22.69-5.35-.17-10.62-.43-15.81-.68-3.57,16.06-7.05,32.12-10.7,48.18s-7.14,32-10.71,48.1c-6.72-2-13.52-3.82-20.31-5.52q4.34-22.95,8.83-45.89Q365.94,63,370.36,40c-5.27-.26-10.63-.43-15.89-.6L358,19Z"/><path class="cls-3" d="M174.81,128.16l4.42.25a6.47,6.47,0,0,1,4.59,2.29,7,7,0,0,1,1.87,4.59v2.38a.88.88,0,0,1-1.11.77c-1.19,0-2.38-.09-3.57-.17a1,1,0,0,1-1-.68c-.09-.09-.09-.26-.09-.51v-1.87c0-.43-.25-.68-.68-.94H179l-3.91-.25a.88.88,0,0,0-.85.68c-.09.08-.09.08-.09.17v5.95a1,1,0,0,0,.77.93h.17l3.4.26a7.82,7.82,0,0,1,4.41,1.53,7.69,7.69,0,0,1,1.7,2,6.92,6.92,0,0,1,1.11,3.57v6.46a5.7,5.7,0,0,1-1.7,4.16,8.91,8.91,0,0,1-1.7,1.36,6.77,6.77,0,0,1-3.82.51l-2.89-.25a8.45,8.45,0,0,1-4.17-1.53,8.56,8.56,0,0,1-2.8-4,9,9,0,0,1-.26-2.46v-1.19a1,1,0,0,1,1.19-1.1c1.19.17,2.3.25,3.49.34a1,1,0,0,1,1,.68,1.14,1.14,0,0,1,.08.51v1.86a1,1,0,0,0,.77.94c0,.08.08.08.17.08l3.91.26a.83.83,0,0,0,.93-.6V149a1.09,1.09,0,0,0-.68-1H179l-3.4-.26a8.42,8.42,0,0,1-4.17-1.44,8.56,8.56,0,0,1-2.8-4,8.75,8.75,0,0,1-.26-2.38V135a6.49,6.49,0,0,1,1.28-4.25,6.77,6.77,0,0,1,1.78-1.7A6.86,6.86,0,0,1,174.81,128.16Zm25.84,1c1.44-.08,2.8,0,4.16,0a1,1,0,0,1,.76.85.89.89,0,0,1,.09.43v14.7c1.87.09,3.82.09,5.69.09V130.45c0-.68.26-1.11.85-1.11,1.36-.08,2.72,0,4.08,0,.34,0,.6.26.77.77v16.23c0,5.36.17,10.79,0,16.15,0,.59-.43.85-1,.85-1.19,0-2.38,0-3.49-.09a1,1,0,0,1-1.19-1.19v-10.7c-1.87-.09-3.82-.09-5.69-.17V162a1.07,1.07,0,0,1-.68,1.1,3.19,3.19,0,0,1-.42.09c-1.19-.09-2.38-.17-3.49-.17-.76,0-1.19-.43-1.19-1.28V130.28C199.88,129.6,200.14,129.17,200.65,129.17Zm31.52.09c1.36-.09,2.81-.09,4.17-.09.34,0,.59.26.85.77v16.15c0,5.35.08,10.7,0,16.06a1,1,0,0,1-1.11.85c-1.19.08-2.38.17-3.57.17-.76,0-1.1-.34-1.1-1.19V130.36C231.41,129.77,231.66,129.34,232.17,129.26Zm24.14-.68c.43,0,.76.42,1,1.19,0,0,.59,1.44,1.87,4.33s3.06,7,5.44,12.58h0V129.34a1.46,1.46,0,0,1,.59-1.18h.26l4.08-.26c.42,0,.68.26.85.77v15.46c0,5.27.08,10.45,0,15.64,0,.51-.43.85-1,.93-1.28.09-2.47.26-3.66.34-.59.09-.93-.25-1.19-.93,0-.09-.68-1.53-1.95-4.34s-3.06-7-5.61-12.57h0v17.5a1.17,1.17,0,0,1-.59,1.11,3.4,3.4,0,0,1-.51.08l-3.49.26a1,1,0,0,1-1.19-1.11V129.77a1,1,0,0,1,.77-1C253.42,128.67,254.87,128.67,256.31,128.58Z"/></g></g></svg>