<svg xmlns="http://www.w3.org/2000/svg" viewBox="0 0 53.23 45.17"><defs><style>.cls-1{fill:#fd8338;}</style></defs><g id="Слой_2" data-name="Слой 2"><g id="Слой_1-2" data-name="Слой 1"><path class="cls-1" d="M4.8,36.66V15.18c-.66,0-1.3,0-1.93,0A2.15,2.15,0,0,1,.53,13.45,2.25,2.25,0,0,1,2,11Q12.89,5.82,23.82.67a6,6,0,0,1,5.46,0C36.52,4.09,43.79,7.48,51.06,10.9a2.21,2.21,0,0,1,1.14,3.15,1.79,1.79,0,0,1-1.53,1c-.83,0-1.68,0-2.56,0V36.61c.46,0,.9,0,1.33,0a2.65,2.65,0,0,1,2.31,1.71c.44,1,.84,2,1.25,3.06a2.64,2.64,0,0,1-2.58,3.78H2.86a2.72,2.72,0,0,1-2.61-3.9c.38-.93.78-1.86,1.17-2.79a2.67,2.67,0,0,1,2.69-1.82Zm17.41,0V36c0-4.77,0-9.54,0-14.31a4.28,4.28,0,1,1,8.55.08q0,7.14,0,14.27v.59H33V28.14c0-2.22,0-4.43,0-6.65a4.29,4.29,0,0,1,5.78-3.91,4.34,4.34,0,0,1,2.79,4.28q0,7.08,0,14.17v.6h4.33V25.46l0-11.15c0-.91.38-1.31,1.29-1.32h2.62l.48,0-.3-.16L27.86,2.34a3,3,0,0,0-2.7,0L3.35,12.65a2,2,0,0,0-.31.19l0,.08H27.64a3.49,3.49,0,0,1,.73.05,1.07,1.07,0,0,1,0,2.09,3.54,3.54,0,0,1-.73,0H7.06v21.5h4.38V22.14q0-.48,0-1a4.28,4.28,0,0,1,8.54.44c0,4.82,0,9.63,0,14.45v.56Zm4.32,6.5H50.34c.64,0,.87-.38.63-1l-1-2.55c-.33-.8-.33-.8-1.2-.8H4.43a1.37,1.37,0,0,0-.5,0,1,1,0,0,0-.55.37c-.45,1-.87,2-1.27,3a.63.63,0,0,0,.62.94h23.8Zm-13-6.51H17.8c0-.14,0-.25,0-.36V21.78a2.75,2.75,0,0,0,0-.41,2.16,2.16,0,0,0-4.31.39V36.62Zm15.16,0V21.81a3.46,3.46,0,0,0,0-.46,2.17,2.17,0,0,0-4.31.43V36.27c0,.11,0,.23,0,.37Zm6.45,0h4.31V21.91a4.1,4.1,0,0,0,0-.5,2.13,2.13,0,0,0-2.81-1.86,2.19,2.19,0,0,0-1.51,2.26V36.2C35.07,36.34,35.09,36.47,35.1,36.63Z"/><path class="cls-1" d="M33.72,15.12c-.26,0-.52,0-.78,0A1.13,1.13,0,0,1,31.86,14a1.09,1.09,0,0,1,1.07-1,12.68,12.68,0,0,1,1.51,0,1.09,1.09,0,0,1,0,2.17C34.21,15.13,34,15.12,33.72,15.12Z"/></g></g></svg>