<svg xmlns="http://www.w3.org/2000/svg" viewBox="0 0 15.92 17.12"><defs><style>.cls-1{fill:#fd8338;}</style></defs><g id="Слой_2" data-name="Слой 2"><g id="Слой_1-2" data-name="Слой 1"><path class="cls-1" d="M0,5.26A5.76,5.76,0,0,1,.65,2.55a6.19,6.19,0,0,1,2-2.23A1.75,1.75,0,0,1,3.3,0,1.07,1.07,0,0,1,4.37.36,8.66,8.66,0,0,1,6.1,2.94a2.6,2.6,0,0,1,.23,1.29,1.33,1.33,0,0,1-.47.89l-1.15.93A1.38,1.38,0,0,0,4.24,7.7a5.81,5.81,0,0,0,.63,1.21,13.21,13.21,0,0,0,2.6,2.93,4.48,4.48,0,0,0,.82.61,1.49,1.49,0,0,0,2-.44,2.88,2.88,0,0,1,1.51-1,1.65,1.65,0,0,1,1.38.24A15,15,0,0,1,15.34,13a1.91,1.91,0,0,1,.55.87,1.06,1.06,0,0,1-.22,1,6.31,6.31,0,0,1-2.4,1.85,5.23,5.23,0,0,1-2.55.45,7.36,7.36,0,0,1-2-.51,9.84,9.84,0,0,1-3.31-2.07c-.62-.58-1.18-1.21-1.75-1.84a27.54,27.54,0,0,1-1.81-2.23,11.06,11.06,0,0,1-1-1.78A8.19,8.19,0,0,1,.09,6.22C.05,5.9,0,5.58,0,5.26Z"/></g></g></svg>