<svg xmlns="http://www.w3.org/2000/svg" viewBox="0 0 17.33 17.26"><defs><style>.cls-1{fill:#fd8338;}</style></defs><g id="Слой_2" data-name="Слой 2"><g id="Слой_1-2" data-name="Слой 1"><path class="cls-1" d="M16.76,8.71c0,.33-.08.73-.11,1.14a.63.63,0,0,0,.07.36,4.73,4.73,0,0,1-3.51,7,4.82,4.82,0,0,1-2.84-.52.71.71,0,0,0-.4-.07,8.1,8.1,0,0,1-8.25-3.85,8,8,0,0,1-1-5.42.5.5,0,0,0-.05-.27A4.71,4.71,0,0,1,2.94.37,4.59,4.59,0,0,1,7,.59a.68.68,0,0,0,.4.06A8,8,0,0,1,13.9,2.5a7.91,7.91,0,0,1,2.8,5.25C16.73,8,16.74,8.34,16.76,8.71ZM8.24,2.87c-.27,0-.78.07-1.28.18a3.26,3.26,0,0,0-2.68,3A2.45,2.45,0,0,0,5.51,8.55a6.85,6.85,0,0,0,1.32.6c.83.25,1.68.43,2.51.68a5,5,0,0,1,1.1.5.84.84,0,0,1,.31,1.06,1.3,1.3,0,0,1-.53.67,2.69,2.69,0,0,1-2.42.19,3.25,3.25,0,0,1-1.26-1,3.36,3.36,0,0,0-.64-.61,1,1,0,0,0-1.53.62,1.67,1.67,0,0,0,0,.63,2.27,2.27,0,0,0,1.19,1.58,6.4,6.4,0,0,0,5.16.61,3.34,3.34,0,0,0,2.53-2.72,2.56,2.56,0,0,0-1.09-2.8A4.52,4.52,0,0,0,11.05,8c-.83-.27-1.68-.47-2.52-.71a7.41,7.41,0,0,1-1.29-.48.74.74,0,0,1-.32-1.1,1.16,1.16,0,0,1,.79-.61,2.75,2.75,0,0,1,2.67.58,7.87,7.87,0,0,0,.82.69,1.28,1.28,0,0,0,1.48-.1,1.15,1.15,0,0,0,.22-1.39,2.7,2.7,0,0,0-1.14-1.13A7.3,7.3,0,0,0,8.24,2.87Z"/></g></g></svg>