<svg xmlns="http://www.w3.org/2000/svg" viewBox="0 0 56.95 56.95"><defs><style>.cls-1{fill:#fd8338;}</style></defs><g id="Слой_2" data-name="Слой 2"><g id="Слой_1-2" data-name="Слой 1"><path class="cls-1" d="M28.43,57A28.48,28.48,0,1,1,57,28.55,28.48,28.48,0,0,1,28.43,57Zm0-2.05A26.44,26.44,0,1,0,2,28.46,26.52,26.52,0,0,0,28.44,54.9Z"/><path class="cls-1" d="M42.42,32.58a3.33,3.33,0,0,1-2.68-1.25c-1.16-1.06-2.29-2.16-3.52-3.16-.72-.58-1.36-1.27-2.06-1.9-1.19-1.07-2.48-2.05-3.58-3.21-.71-.76-1.34-.5-2.08-.3a13.71,13.71,0,0,1-4.1.82,5,5,0,0,1-4.15-2.42,1.28,1.28,0,0,1,.86-1.91c2.27-.58,4.41-1.54,6.62-2.3a4.43,4.43,0,0,1,3.5,0c1.61.71,3.33,1.16,4.94,1.87a4.28,4.28,0,0,0,3.33,0c1.07-.37,2.18-.62,3.27-.91.2-.06.31,0,.46.18a25.94,25.94,0,0,1,2.45,4.24c1,2,1.84,4.06,2.75,6.1.13.3.23.61.38.91a.87.87,0,0,1-.33,1.05,9,9,0,0,1-4.45,2C43.5,32.51,42.94,32.46,42.42,32.58Z"/><path class="cls-1" d="M21.45,35.85A2.41,2.41,0,0,1,23.87,38a1.71,1.71,0,0,1-.48,1.42c-.63.74-1.31,1.45-2,2.14a2,2,0,0,1-2.84,0,59.8,59.8,0,0,1-5.35-6.43c-.67-.9-1.38-1.76-2-2.67a2.21,2.21,0,0,1-.47-2.2,1.62,1.62,0,0,1,.4-.6c.47-.46,1-.93,1.41-1.41,1.28-1.34,2.89-.67,3.6.67.17.32.24.23.47.16a2.19,2.19,0,0,1,2.4.62,2.06,2.06,0,0,1,.48,2.23c-.1.28-.1.33.21.36a2.34,2.34,0,0,1,1.93,1.18A2.18,2.18,0,0,1,21.45,35.85Z"/><path class="cls-1" d="M40.26,33.55c.7.06,1.29.12,1.88.16.17,0,.36,0,.34.25a5.67,5.67,0,0,1-.15,2,4,4,0,0,1-1.86,2.09,2.44,2.44,0,0,0-1.27,1.33,3.63,3.63,0,0,1-2.71,2.15,1.84,1.84,0,0,0-1.18.81,3.82,3.82,0,0,1-5,1.17.34.34,0,0,0-.49,0,5.43,5.43,0,0,1-1.55.92c-.38.18-.9,0-1.35.07a3,3,0,0,1-2.35-1c-.54-.5-1.06-1-1.6-1.53-.17-.17-.23-.3,0-.49a5,5,0,0,0,.72-.73c.34-.48.66-.32,1,0s.87.88,1.31,1.31a1.85,1.85,0,0,0,2.73-.26c.19-.26,0-.34-.14-.45L25.2,38c-.53-.53-.6-.91-.24-1.29s.86-.36,1.41.18l4.5,4.51A1.93,1.93,0,0,0,34,40.69c.09-.24-.05-.32-.16-.41-.9-.8-1.73-1.69-2.58-2.54s-1.58-1.57-2.35-2.37a12.42,12.42,0,0,0-1.73-1.67.88.88,0,0,1-.24-1.23.81.81,0,0,1,1.34,0c2.26,2.26,4.53,4.5,6.76,6.78a1.08,1.08,0,0,0,1.39.27,2.21,2.21,0,0,0,1-1.07.78.78,0,0,0-.22-1c-1.29-1.21-2.53-2.48-3.78-3.73s-2.65-2.63-3.94-4a.66.66,0,0,1-.15-.9.81.81,0,0,1,1.07-.36,1.4,1.4,0,0,1,.48.38l7.41,7.41a.85.85,0,0,0,1.36,0A2,2,0,0,0,40.26,33.55Z"/><path class="cls-1" d="M10.92,28.12A5.15,5.15,0,0,1,9.16,25.4a6.11,6.11,0,0,1-.05-1.87,13.15,13.15,0,0,1,4.49-9.72c.43-.41,1-.72,1.42-1.09a.47.47,0,0,1,.48-.06c2.12.85,4.33,1.43,6.49,2.15l3.74,1.25c.11,0,.23,0,.23.17s-.07.16-.17.17a13.11,13.11,0,0,0-2.31.79,1.13,1.13,0,0,1-.81,0q-2.45-.84-4.9-1.65a18.36,18.36,0,0,1-2.07-.64c-.15-.07-.22,0-.33.07a10.53,10.53,0,0,0-2.75,3.19,11.33,11.33,0,0,0-1.45,6.64A2.77,2.77,0,0,0,12,26.47c.23.26.17.36,0,.54Z"/></g></g></svg>