<svg xmlns="http://www.w3.org/2000/svg" viewBox="0 0 19.45 20.91"><defs><style>.cls-1{fill:#a8abb3;}</style></defs><g id="Слой_2" data-name="Слой 2"><g id="Слой_1-2" data-name="Слой 1"><path class="cls-1" d="M0,6.42a7,7,0,0,1,.79-3.3A7.52,7.52,0,0,1,3.19.39,2.21,2.21,0,0,1,4,0a1.32,1.32,0,0,1,1.3.41A10.37,10.37,0,0,1,7.45,3.59a3.18,3.18,0,0,1,.28,1.58,1.57,1.57,0,0,1-.58,1.08c-.46.39-.93.77-1.4,1.14a1.68,1.68,0,0,0-.57,2A6.94,6.94,0,0,0,6,10.88a16.39,16.39,0,0,0,3.17,3.58,5.75,5.75,0,0,0,1,.75,1.83,1.83,0,0,0,2.47-.54,3.4,3.4,0,0,1,1.84-1.26,2,2,0,0,1,1.68.3,17.81,17.81,0,0,1,2.62,2.13,2.3,2.3,0,0,1,.66,1.06,1.31,1.31,0,0,1-.26,1.19,7.78,7.78,0,0,1-2.94,2.26,6.28,6.28,0,0,1-3.11.54,8.92,8.92,0,0,1-2.44-.61A12.49,12.49,0,0,1,6.6,17.74C5.86,17,5.16,16.26,4.47,15.5a32,32,0,0,1-2.21-2.72A14.06,14.06,0,0,1,1.05,10.6a10.24,10.24,0,0,1-.94-3C.06,7.2,0,6.81,0,6.42Z" transform="translate(0 0)"/></g></g></svg>