<svg xmlns="http://www.w3.org/2000/svg" viewBox="0 0 42.12 19.73"><defs><style>.cls-1{fill:#fd8338;}</style></defs><g id="Слой_2" data-name="Слой 2"><g id="Слой_1-2" data-name="Слой 1"><rect class="cls-1" x="10.72" y="12.25"/><path class="cls-1" d="M31.49,7.87A1,1,0,0,0,30.21,8c-.2.2-.43.43-.33.72s.4.1.63.13l.39,0a2.06,2.06,0,0,0,.43,0c.26,0,.66.16.72-.13S31.82,8,31.49,7.87Z"/><path class="cls-1" d="M25.21,7.84c-.69,0-1.21.59-1.21,1.48s.49,1.55,1.15,1.58,1.22-.59,1.22-1.48S25.87,7.87,25.21,7.84Z"/><path class="cls-1" d="M42,6.23a5.51,5.51,0,0,0-4.47-5.1A42.83,42.83,0,0,0,31.17.31C26.73.08,22.3,0,17.86,0A85.77,85.77,0,0,0,5.17,1a5.58,5.58,0,0,0-5,5,16.48,16.48,0,0,0,0,4.21c.26,3.22,2.17,4.77,5,5.43a16.52,16.52,0,0,0,2.5.29c.69,0,.83.3.79.89,0,.75,0,1.54,0,2.3,0,.2-.1.46.13.56s.37-.17.5-.3c.85-.92,1.67-1.84,2.5-2.76a.83.83,0,0,1,.72-.33c3.19.2,6.38.27,9.3.23,4.21,0,8.12-.19,12.1-.49a15.58,15.58,0,0,0,5-1A5.25,5.25,0,0,0,42,10.77,19.17,19.17,0,0,0,42,6.23ZM8.59,4.52h.22A3.58,3.58,0,0,1,12.16,8c0,.16.07.43-.19.43s-.2-.27-.2-.46,0-.24,0-.35a3,3,0,0,0-.07-.32l-.06-.23A.58.58,0,0,0,11.54,7a.58.58,0,0,0,0-.14,2,2,0,0,0-.11-.26l-.06-.13a2.5,2.5,0,0,0-.48-.63.86.86,0,0,0-.14-.13,2.75,2.75,0,0,0-.33-.23l-.24-.14a4.89,4.89,0,0,0-1.35-.39c-.17,0-.4,0-.4-.2S8.48,4.52,8.59,4.52ZM11.08,8.1c-.3,0-.23-.23-.26-.39A1.9,1.9,0,0,0,9,5.87c-.16,0-.43,0-.39-.26s.29-.17.46-.14a2.37,2.37,0,0,1,2.13,2.24C11.21,7.84,11.31,8.07,11.08,8.1Zm-.72-.59c0,.13,0,.3-.2.33s-.2-.1-.23-.23a.8.8,0,0,0-.79-.82c-.13,0-.3-.07-.23-.26s.16-.14.29-.14a1.22,1.22,0,0,1,1.16,1.12Zm1.84,3.62h0a1.82,1.82,0,0,1-1.47,1.11h0c-.1,0-.23,0-.4-.1A9.89,9.89,0,0,1,4.8,6.59h0a1.47,1.47,0,0,1-.11-.38,1.3,1.3,0,0,1,1-1.52.6.6,0,0,1,.49,0l.06,0,.11.08a.39.39,0,0,1,.1.08L6.62,5l0,0,0,.06.06.06a4.1,4.1,0,0,1,.83,1.4h0a.13.13,0,0,1,0,.06.69.69,0,0,1-.4.56.67.67,0,0,0-.33.55,1.07,1.07,0,0,0,.1.44H7A3.74,3.74,0,0,0,8.84,10a.84.84,0,0,0,.33.08.5.5,0,0,0,.46-.28h0A.81.81,0,0,1,11,9.58h0a6.36,6.36,0,0,1,.72.53h0c.27.21.58.39.58.75A1,1,0,0,1,12.2,11.13Zm7.46-5.36c-.53,1.38-1.09,2.76-1.61,4.17-.23.6-.46,1.19-.69,1.75a.87.87,0,0,1-.76.62.81.81,0,0,1-.82-.66C15,9.71,14.23,7.74,13.48,5.8A.8.8,0,0,1,14,4.62c.59-.2.86.16,1,.66.46,1.31,1,2.63,1.52,4.17.52-1.38.95-2.53,1.38-3.71a3.28,3.28,0,0,1,.23-.59c.19-.46.52-.73,1.05-.53S19.82,5.24,19.66,5.77Zm2.1,5.69a.74.74,0,0,1-.79.85c-.52,0-.75-.36-.75-.89V9.58h0V7.71c0-.53.23-.86.79-.86s.75.33.75.83Zm-.69-5.13a.84.84,0,0,1-.89-.86.88.88,0,0,1,.89-.88.91.91,0,0,1,.82.88C21.83,6,21.6,6.3,21.07,6.33Zm6.41,4.86a2.2,2.2,0,0,1-3.19.83c-.19-.14-.26-.2-.42,0a.73.73,0,0,1-1,.2.87.87,0,0,1-.46-.89v-3h0V5.61c0-.56.2-1,.83-1s.75.42.75,1v.36c0,.86,0,.86.79.63a2.2,2.2,0,0,1,2.66,1.08A3.43,3.43,0,0,1,27.48,11.19Zm5.3-1.28h-2.6c-.36,0-.4.17-.23.43a1.55,1.55,0,0,0,1.87.53,5.91,5.91,0,0,0,.76-.37.67.67,0,1,1,.69,1.15,3.38,3.38,0,0,1-3.39.46,2.68,2.68,0,0,1-1.64-2.69,2.86,2.86,0,0,1,2.46-3,2.78,2.78,0,0,1,3,2.33C33.86,9.58,33.63,9.88,32.78,9.91Zm4.47-2.1c-1.35.33-1.55,1.25-1.42,2.43a4.72,4.72,0,0,1,0,1.25.79.79,0,1,1-1.58-.07V9.32h0v-2a.79.79,0,0,1,.46-.79.75.75,0,0,1,1,.16c.19.3.29.17.46,0A1.14,1.14,0,0,1,37,6.46a.74.74,0,0,1,.66.62C37.67,7.45,37.54,7.74,37.25,7.81Z"/></g></g></svg>