<svg xmlns="http://www.w3.org/2000/svg" viewBox="0 0 19.68 15.46"><defs><style>.cls-1{fill:#fd8338;}</style></defs><g id="Слой_2" data-name="Слой 2"><g id="Слой_1-2" data-name="Слой 1"><path class="cls-1" d="M19.68,5v8.85a.29.29,0,0,1,0,.09,1.76,1.76,0,0,1-1.76,1.51H1.79A1.74,1.74,0,0,1,.11,14.27c0-.13-.07-.28-.11-.43V5l.07,0A8.08,8.08,0,0,0,1.39,6.13C3,7.25,4.66,8.38,6.28,9.52A18.63,18.63,0,0,0,8.1,10.74a4,4,0,0,0,1.58.5,3.57,3.57,0,0,0,1.91-.5,15.15,15.15,0,0,0,1.59-1.06L18,6.33A9.16,9.16,0,0,0,19.63,5S19.67,5,19.68,5Z"/><path class="cls-1" d="M0,2.1V1.84c0-.14,0-.27.07-.4A1.75,1.75,0,0,1,.88.22a1.86,1.86,0,0,1,1-.22H17.9a1.76,1.76,0,0,1,1.73,1.35,1.84,1.84,0,0,1,.05.25V2a.29.29,0,0,1,0,.09,2.8,2.8,0,0,1-.33,1,4.82,4.82,0,0,1-1.55,1.69L11.79,9a7.06,7.06,0,0,1-1.22.71,1.76,1.76,0,0,1-1.37,0A6.73,6.73,0,0,1,7.87,9L2.27,5A6.89,6.89,0,0,1,.88,3.84,4,4,0,0,1,.09,2.5C.05,2.37,0,2.23,0,2.1Z"/></g></g></svg>