<svg xmlns="http://www.w3.org/2000/svg" viewBox="0 0 43.16 50.32"><defs><style>.cls-1{fill:#fd8338;}</style></defs><g id="Слой_2" data-name="Слой 2"><g id="Слой_1-2" data-name="Слой 1"><path class="cls-1" d="M14.81,13.44c-.28-.43-.53-.82-.8-1.22-1.56-2.37-3.13-4.73-4.7-7.1-.69-1-.65-1.43.25-2.28a8.85,8.85,0,0,1,4-2.35,8.61,8.61,0,0,1,4.19,0,34,34,0,0,1,3.44,1,3.35,3.35,0,0,0,2.49,0C24.8,1.12,25.91.64,27.05.3a6,6,0,0,1,6.09,1.46,1.33,1.33,0,0,1,.34,2c-1.66,3.06-3.31,6.13-5,9.19-.18.33-.19.52.15.78a39.4,39.4,0,0,1,10.9,12.7,28.92,28.92,0,0,1,3.37,10.47c.14,1.23.22,2.48.24,3.72a9.67,9.67,0,0,1-7.85,9.55,11.17,11.17,0,0,1-2.08.18c-7.77,0-15.54,0-23.3,0a9.67,9.67,0,0,1-9.46-6.8A10.07,10.07,0,0,1,0,40.39a28.88,28.88,0,0,1,1.74-9.78,34.38,34.38,0,0,1,4.94-9,40.69,40.69,0,0,1,7.83-7.9Zm6.75,34.41c4,0,7.92,0,11.88,0a7.79,7.79,0,0,0,1.74-.18,7.12,7.12,0,0,0,5.5-6.35,23,23,0,0,0-.71-7.1,30.86,30.86,0,0,0-5.9-11.76,38.57,38.57,0,0,0-7.29-7.15,1.66,1.66,0,0,0-1-.34c-2.77,0-5.54,0-8.31,0a1.69,1.69,0,0,0-1.07.36A39.68,39.68,0,0,0,11.13,20a34.36,34.36,0,0,0-6.89,10.8,26.19,26.19,0,0,0-1.77,8.24,12.69,12.69,0,0,0,.15,3.08,7.22,7.22,0,0,0,7.14,5.7C13.69,47.82,17.62,47.85,21.56,47.85ZM11.67,4.2l.11.23c1.74,2.62,3.47,5.25,5.22,7.86a.64.64,0,0,0,.48.24h8.1a.52.52,0,0,0,.54-.31q2.34-4.38,4.71-8.75c.17-.32.06-.44-.19-.59a3.42,3.42,0,0,0-2.79-.31c-1,.3-1.9.67-2.83,1a6.07,6.07,0,0,1-4.75.17,13.68,13.68,0,0,0-4.58-1.12A5.46,5.46,0,0,0,11.67,4.2Z" transform="translate(0 0)"/><path class="cls-1" d="M20.73,37.93c.86,0,1.71,0,2.56,0a1.9,1.9,0,0,0,1.88-1.55,1.85,1.85,0,0,0-1.1-2.13,3.15,3.15,0,0,0-1.1-.2c-.95,0-1.9,0-2.85,0a4.35,4.35,0,0,1,.15-8.7c.27,0,.37-.11.36-.38,0-.46,0-.92,0-1.39a1.22,1.22,0,0,1,1.19-1.25A1.18,1.18,0,0,1,23,23.5a12.89,12.89,0,0,1,0,1.39c0,.35.13.46.47.45.64,0,1.28,0,1.93,0a1.21,1.21,0,1,1,0,2.41H20.59a2,2,0,0,0-2.11,2,1.93,1.93,0,0,0,2,1.92c.92,0,1.85,0,2.77,0a4.36,4.36,0,0,1,.84,8.66l-.25,0c-.73.06-.73.06-.73.81a11.63,11.63,0,0,1,0,1.18,1.21,1.21,0,0,1-1.21,1.1,1.25,1.25,0,0,1-1.2-1.23c0-.47,0-.95,0-1.43,0-.31-.09-.42-.4-.41-.66,0-1.32,0-2,0a1.19,1.19,0,0,1-1.34-1.22,1.21,1.21,0,0,1,1.34-1.19Z" transform="translate(0 0)"/></g></g></svg>