<svg xmlns="http://www.w3.org/2000/svg" viewBox="0 0 46.01 46.01"><defs><style>.cls-1{fill:#fd8338;}</style></defs><g id="Слой_2" data-name="Слой 2"><g id="Слой_1-2" data-name="Слой 1"><path class="cls-1" d="M23,20a5.35,5.35,0,1,0-5.34-5.35A5.35,5.35,0,0,0,23,20Zm0-9.2a3.86,3.86,0,1,1-3.85,3.85A3.83,3.83,0,0,1,23,10.76Z"/><path class="cls-1" d="M22.88,42,34.63,25c4.42-5.9,3.79-15.54-1.37-20.7a14.7,14.7,0,0,0-20.76,0c-5.16,5.16-5.79,14.8-1.37,20.64ZM13.55,5.41a13.21,13.21,0,0,1,18.66,0c4.66,4.66,5.22,13.37,1.18,18.71L22.88,39.29,12.31,24.06c-4-5.28-3.42-14,1.24-18.65Z"/><path class="cls-1" d="M32.27,33a.77.77,0,0,0-.87.69.78.78,0,0,0,.68.87c8.08.93,12.37,3.48,12.37,5,0,2.05-8.14,5-21.45,5s-21.45-2.92-21.45-5c0-1.49,4.29-4,12.38-5a.78.78,0,0,0,.68-.87.77.77,0,0,0-.87-.69C5.66,34,0,36.62,0,39.48,0,42.71,7.9,46,23,46s23-3.3,23-6.53C46,36.62,40.35,34,32.27,33Z"/></g></g></svg>