<svg xmlns="http://www.w3.org/2000/svg" viewBox="0 0 352.16144 409.5002">
  <defs>
    <style>
      .a {
        fill: #201600;
      }
    </style>
  </defs>
  <title>operator_1</title>
  <g>
    <path class="a" d="M352.15168,398.61831c-.331-11.30567.56024-22.666-2.31763-33.80872q-9.64691-37.35195-44.99322-52.69928c-.96064-.41833-1.89283-.902-3.33625-1.59387,1.18341-1.24438,2.14936-2.26477,3.1203-3.28027a54.679,54.679,0,0,0,15.56446-36.27c.36114-7.60517-2.28089-10.335-9.96424-10.77985a39.82229,39.82229,0,0,1-35.84747-26.85443c-.46905-1.34869-.75482-2.76117-1.25629-4.63055,7.38459,0,14.288.02124,21.19129-.00434,15.76977-.05847,25.69616-9.96,25.7583-25.74542.0451-11.46429.08441-22.92956-.01911-34.39307-.08941-9.90124-4.37469-17.47662-13.28741-22.01922-2.16718-1.10455-2.75323-2.35809-2.71906-4.60071.21937-14.40265.0058-28.74206-3.21081-42.93512C288.8462,46.107,242.5998,5.49648,188.44129.55324,119.31446-5.7562,58.295,42.57284,49.26191,111.17873c-1.3324,10.11945-.88776,20.47949-1.12415,30.73151-.05072,2.20087-.49048,3.50659-2.69208,4.62353-8.91491,4.52277-13.23785,12.0802-13.32434,21.99048q-.15361,17.59526-.0072,35.19275c.11359,14.77924,10.20526,24.85425,24.91913,24.97217,7.175.05749,14.35083.01,21.90063.01a34.82083,34.82083,0,0,1-6.90673,15.51,39.31485,39.31485,0,0,1-30.05024,15.97625c-7.66973.46088-10.33868,3.21454-9.97149,10.7854a54.44435,54.44435,0,0,0,15.32635,35.95673,36.39991,36.39991,0,0,0,4.29749,3.20752c-2.51892,1.21222-3.87262,1.87811-5.23822,2.51868C17.22718,326.33382,2.03315,349.43215.20222,381.43026c-.327,5.71454.12475,11.47259-.17475,17.19006-.25635,4.89392,1.25464,8.56067,5.65918,10.87988h340.8C350.8863,407.177,352.29481,403.50619,352.15168,398.61831ZM303.54127,275.76156A35.32179,35.32179,0,0,1,295.83,292.93661a50.86813,50.86813,0,0,1-6.728,6.79748c-4.93359,4.12885-10.11425,6.45838-17.16326,5.15729-12.42988-2.29437-25.06116-3.5191-37.626-5.044-2.7555-.33435-4.2016-1.282-4.747-4.20141-.87811-4.7002-2.37817-9.28186-3.34485-13.96936-.22992-1.11475.21027-3.06574,1.01929-3.59278a99.30223,99.30223,0,0,0,33.28143-35.64575C269.57081,260.90194,283.7685,271.863,303.54127,275.76156Zm-156.24366-4.496c-31.38226-12.47192-50.91931-40.93811-51.19531-74.702-.08826-10.79565.09674-21.59454-.0899-32.3877-.05664-3.27551.85321-4.365,4.22967-4.32049,13.32654.17584,26.6593-.09631,39.98493.109,21.99383.33893,39.22381-8.31177,51.84478-27.20648,1.07569,1.44671,1.8515,2.48748,2.6247,3.53021,10.92065,14.72833,25.51513,22.65124,43.84717,23.50958,4.78888.22418,9.59417.11676,14.392.12408,1.72785.00263,3.22828.0846,3.15638,2.45777-.49164,16.22833.7257,32.71564-1.72742,48.63885C246.79,260.184,193.54694,289.646,147.29761,271.26552Zm59.41016,55.31177c-11.168,12.19464-24.86523,16.9046-40.82062,12.64844-15.59753-4.16064-25.23456-14.70215-28.85736-30.53217a8.19121,8.19121,0,0,1-.12262-3.55883c1.41852-6.06848,2.97852-12.10395,4.64252-18.762,23.30621,8.46112,46.11951,8.45142,68.68475.13953C216.30787,300.78152,217.98792,314.26009,206.70777,326.57729Zm-110.517-183.116q.718-38.19022,30.28674-62.2259c24.42688-19.86785,59.35907-22.81518,87.18842-8.00293,27.22339,14.48987,42.92981,43.46833,42.12927,70.35529-17.12189,1.19025-33.38959.78668-45.658-13.55749-6.43213-7.52039-9.30645-16.19886-10.13733-25.921a11.47309,11.47309,0,0,0-3.74536-7.33477c-4.69946-3.69269-11.07647-.24445-12.01544,6.03387-.60895,4.07221-.66089,8.32721-1.92572,12.18445-5.27978,16.10059-16.16595,26.88837-33.22595,28.179C131.76191,144.48263,114.26,143.46133,96.19074,143.46133ZM295.294,159.95785c5.76111.09039,8.75391,3.18933,8.77924,9.03527q.07544,17.3661-.00311,34.73273c-.02857,5.63678-2.98151,8.81269-8.4809,8.941-6.78326.15827-13.5741-.02576-20.35883.09668-2.50378.04517-3.20489-.99939-3.1792-3.33.08674-7.85052.033-15.70263.033-23.55413-.0017-7.45227.09931-14.90662-.0534-22.35572-.05786-2.822.94885-3.70807,3.70251-3.64337C282.25049,160.03353,288.77491,159.85549,295.294,159.95785ZM86.262,60.96505C121.23585,12.8475,191.65034,1.34853,239.99744,36.01241c31.36029,22.48468,48.01221,55.0246,48.09357,93.98078-.00086,3.46563-.16773,6.94183.05041,10.39367.18384,2.9093-1.01495,3.72351-3.71246,3.54755a52.13255,52.13255,0,0,0-8.38953.01532c-3.27136.3172-3.97357-1.07733-4.10949-4.09393a94.24069,94.24069,0,0,0-22.657-58.11A95.8638,95.8638,0,0,0,80.38318,138.99587c-.21667,4.126-1.41857,5.07825-5.33013,4.991-10.96839-.24475-10.75818-.0777-11.01423-11.07807C63.42225,106.41476,70.6305,82.47121,86.262,60.96505ZM76.68824,212.76949c-6.65051-.13867-13.308.0503-19.95838-.09314-5.56457-.11993-8.5932-3.24743-8.6242-8.80652q-.098-17.56439-.00086-35.1297c.02979-5.569,3.06842-8.67523,8.63465-8.775,6.65124-.11932,13.308.05591,19.95874-.07855,2.63183-.05323,3.47308.92822,3.434,3.49511-.11743,7.71613-.0423,15.43525-.0423,23.15314,0,7.5849-.07611,15.171.04224,22.754C80.17231,211.86361,79.31244,212.82424,76.68824,212.76949Zm-27.6593,65.3197a15.15582,15.15582,0,0,1-.20783-2.34191c19.63757-4.02808,33.73676-14.74561,42.62543-33.094,1.01965,1.47412,1.78235,2.45032,2.41168,3.506A93.26915,93.26915,0,0,0,123.56147,276.926c2.50152,1.62585,3.4173,3.07324,2.40661,6.11187-1.4649,4.404-2.1618,9.0611-3.57568,13.48584a5.10558,5.10558,0,0,1-3.30554,3.00794c-14.49548,2.09216-29.02179,3.975-43.55274,5.81164a8.0636,8.0636,0,0,1-4.23284-.59124C59.77668,299.32223,52.38221,290.37191,49.02894,278.08919ZM326.9007,393.516H24.161c-8.14545,0-8.12336.00006-8.082-8.33307.08654-17.4107,5.4776-32.716,17.94152-45.19891,10.91468-10.93133,24.40039-16.38751,39.48713-18.34332,14.66314-1.90082,29.34881-3.6388,43.98779-5.70874,3.58179-.50647,4.95831.3739,6.19531,3.88672a55.86495,55.86495,0,0,0,105.28113-.60669c.6474-1.848.79553-3.89368,3.77746-3.48395,17.68232,2.42963,35.54474,3.89136,53.03907,7.27045,30.79266,5.94775,49.571,29.3656,50.28949,60.89666C336.29706,393.516,336.29712,393.516,326.9007,393.516Z"/>
    <path class="a" d="M278.88331,356.72555c-4.93158-.06031-9.86444-.01258-14.79676-.01325q-7.19852-.001-14.397-.00055c-.1333,0-.26666-.00128-.3999.00183-5.65552.13343-9.09894,3.10523-9.15015,7.89649-.05115,4.79089,3.41559,8.01037,8.97919,8.05383q14.996.11719,29.99341.00018c5.558-.04321,8.99078-3.25909,8.93109-8.08154C287.98408,359.80172,284.533,356.79464,278.88331,356.72555Z"/>
    <path class="a" d="M312.08741,356.75741a7.94144,7.94144,0,1,0,7.921,7.87054A7.93366,7.93366,0,0,0,312.08741,356.75741Z"/>
    <path class="a" d="M216.07319,175.96889a7.951,7.951,0,1,0,7.96881,7.7898A8.00051,8.00051,0,0,0,216.07319,175.96889Z"/>
    <path class="a" d="M136.05561,175.9692a7.95009,7.95009,0,1,0,7.965,7.81665A7.98792,7.98792,0,0,0,136.05561,175.9692Z"/>
    <path class="a" d="M191.00892,231.43349c-11.19239,8.51563-21.17578,8.51758-32.37012,0a7.9998,7.9998,0,0,0-9.6875,12.7334c8.46289,6.439,17.168,9.65869,25.87207,9.65869,8.70508,0,17.41016-3.21972,25.873-9.65869a7.9998,7.9998,0,0,0-9.6875-12.7334Z"/>
  </g>
</svg>
