<svg xmlns="http://www.w3.org/2000/svg" viewBox="0 0 383.99926 359.99794">
  <title>cart</title>
  <g>
    <path d="M380.64184,145.88136a21.48015,21.48015,0,0,0-18.9469-10.83874c-8.86438-.15485-17.73346-.035-27.19861-.035,0-1.56518.00006-2.99871.00006-4.43225q0-52.85338-.00213-105.70678C334.49133,9.11989,325.3612.00288,309.59625.0024Q167.15447-.0021,24.71264.003C9.20025.00374.0061,9.18452.00457,24.67561q-.0087,87.90153.00061,175.80317c.00189,15.21746,9.29016,24.49768,24.50134,24.51458,8.21173.0091,16.42347.00159,24.99567.00159V332.45778c0,16.23437,3.84,21.87549,18.74707,27.54016h297q14.83256-3.91753,18.75-18.75v-187.5C382.89947,151.114,382.10687,148.29347,380.64184,145.88136ZM15.22308,21.25325c.17364-3.55261,2.92541-5.68665,6.54937-6.1781a30.83628,30.83628,0,0,1,4.11982-.07794q141.3653-.00366,282.73065-.002c8.7937.00007,10.87707,2.0633,10.879,10.76813.00135,6.23627.00031,12.47254.00031,19.0976H15.10473C15.10473,36.90089,14.84148,29.06129,15.22308,21.25325ZM319.33117,60.2563V89.80586H15.30175V60.2563ZM49.50274,160.3196c-.0025,16.36309-.00055,32.72613-.00055,49.63262-9.49207,0-18.58679.15607-27.67194-.07037-4.12463-.10278-6.753-3.44391-6.80969-7.94629-.08014-6.3714-.02392-12.7445-.024-19.11688-.00048-25.737-.00018-51.47406-.00018-77.51727h304.202v29.69946h-4.603q-119.951,0-239.90216.00092C58.45489,135.00221,49.50524,144.00056,49.50274,160.3196ZM369.00115,334.62276c-.00024,8.16-2.25012,10.37732-10.52105,10.37744q-141.70295.00146-283.40595.00006c-8.41559-.00012-10.57721-2.186-10.57733-10.69153q-.00138-86.97116.00043-173.94226c.00018-8.15747,2.24615-10.37061,10.51684-10.37085q70.85138-.00192,141.7027-.00061,71.03887,0,142.07782.00116c7.90625.00043,10.2063,2.32465,10.20654,10.30945Q369.004,247.46419,369.00115,334.62276Z"/>
    <path d="M274.52441,187.22585c-21.37348-13.99128-41.64991-5.37134-51.3692,6.32641a37.40044,37.40044,0,0,0-.58405,47.07764,36.49076,36.49076,0,0,0,21.08325,13.39557c11.22327,2.56585,21.52075.05322,30.77728-6.40949,19.96924,13.45764,40.53028,6.54291,51.032-5.76184a37.51086,37.51086,0,0,0,.39856-48.25391C315.95788,181.55452,295.49914,173.39534,274.52441,187.22585Zm-22.73255,52.76251a22.49185,22.49185,0,1,1,22.69745-22.10364A22.56029,22.56029,0,0,1,251.79186,239.98836Zm62.24115-7.8393a21.99277,21.99277,0,0,1-29.33856,3.84211c6.39508-12.40546,6.43817-24.7262.03784-36.86518,8.061-6.447,20.8244-5.12231,28.41309,2.731A22.4225,22.4225,0,0,1,314.033,232.14906Z"/>
    <path d="M169.46606,262.32039c-.10773-4.50067-3.51953-7.30719-9.01923-7.31232q-28.43738-.02673-56.87482-.00012c-5.65606.00537-9.15533,3.01044-9.04162,7.66132.11017,4.50744,3.51452,7.30413,9.01672,7.31854,9.47907.02472,18.95825.00683,28.43738.0069s18.95831.01763,28.43738-.00672C166.05755,269.97353,169.57714,266.95717,169.46606,262.32039Z"/>
    <path d="M131.30975,300.0229q-14.38743-.09924-28.77576.00617c-4.76587.03967-8.05,3.25622-8.0036,7.54077.04638,4.28351,3.32715,7.329,8.154,7.40625,4.73248.07568,9.46716.01648,14.20093.01526,4.85827-.00122,9.71783.06848,14.57452-.02112,4.76038-.08777,8.05-3.27069,8.00635-7.55041C139.42254,303.14326,136.13146,300.05617,131.30975,300.0229Z"/>
    <path d="M191.204,300.01662c-4.60827-.06427-9.21814-.0138-13.82727-.0138-4.85833,0-9.71728-.05011-14.57477.014-4.8789.06445-8.15966,3.01-8.27166,7.28485-.1156,4.4126,3.25677,7.63916,8.25952,7.67279q14.20056.09549,28.40216.00043c5.00159-.0329,8.38336-3.25592,8.27411-7.66077C199.36028,303.04646,196.06786,300.08449,191.204,300.01662Z"/>
    <path d="M251.20336,300.01662c-4.60827-.06421-9.21814-.0138-13.82733-.0138-4.85828,0-9.71722-.05017-14.57471.014-4.87866.06452-8.15942,3.0105-8.271,7.28558-.11518,4.41254,3.25714,7.63843,8.26019,7.67206q14.20056.09549,28.40216.00037c5.00128-.033,8.38306-3.25653,8.27338-7.66138C259.35986,303.04634,256.067,300.08443,251.20336,300.01662Z"/>
    <path d="M311.18511,300.02016q-14.20065-.09009-28.40216.0003c-4.87042.031-8.15179,3.02393-8.25262,7.3003-.10413,4.41265,3.26709,7.58715,8.27856,7.65783,4.73279.06677,9.46729.01435,14.201.01435s9.4682.05236,14.20105-.01465c4.86072-.06873,8.1499-3.03876,8.25507-7.30939C319.57439,303.26582,316.19054,300.0519,311.18511,300.02016Z"/>
    <path d="M191.76348,269.966a7.47269,7.47269,0,1,0-7.23309-7.51923A7.56212,7.56212,0,0,0,191.76348,269.966Z"/>
  </g>
</svg>
