<svg xmlns="http://www.w3.org/2000/svg" viewBox="0 0 409.59998 367.9368">
  <title>chat</title>
  <g>
    <path d="M407.49548,99.43247c-5.49572-25.789-19.30114-46.51331-39.10437-63.459C322.541-3.26077,254.22632-11.47689,200.15424,16.64365,162.796,36.07206,139.00977,66.08854,133.468,108.8632c-.35578,2.74591-1.47211,3.36523-4.00073,3.5794-31.59821,2.67682-60.2569,13.13-85.14216,33.02735C22.8399,162.64878,7.96771,184.1998,2.09991,211.42942,1.26233,215.31626.6933,219.261,0,223.17887v18.4a8.257,8.257,0,0,1,.65332,1.83039,106.31341,106.31341,0,0,0,25.705,59.19336c5.06506,5.85943,6.48211,11.97412,6.10864,19.02252a56.02094,56.02094,0,0,1-1.5979,10.64074,47.608,47.608,0,0,1-12.44068,22.00525,7.54665,7.54665,0,0,0-1.72857,8.83252c1.4339,3.26917,4.16955,4.715,7.65619,4.81861,1.19745.03564,2.40039.00293,3.597-.06543,20.52509-1.17334,38.68109-8.30457,54.1388-21.90631,2.31518-2.0373,4.14117-2.35285,7.07635-1.52106,36.38641,10.312,72.71784,11.39667,108.10034-3.51282,43.67383-18.4032,72.2229-49.57776,78.87549-98.01941.39386-2.8678,1.82752-3.16235,4.18775-3.48645,10.936-1.50165,22.109-2.25976,32.67181-5.18262,8.28564-2.29278,13.83642-1.1668,20.58447,4.29438,14.72937,11.92059,32.30622,17.11316,51.27307,17.41992,3.70392.05987,6.49713-1.45465,8.02191-4.846,1.47211-3.27417.64045-6.24072-1.71368-8.84332-.80463-.88953-1.65234-1.74323-2.41467-2.66748-9.41681-11.41663-13.30426-24.45362-11.028-39.11218a14.02992,14.02992,0,0,1,3.17316-6.60651c12.38409-14.39295,21.26385-30.5918,25.73736-49.08923,1.212-5.012,1.98719-10.12964,2.9629-15.19886v-18.4C408.90466,107.26206,408.3241,103.32084,407.49548,99.43247ZM232.27313,298.9628c-28.2063,28.5561-63.35156,39.06366-102.81061,36.59937a145.79462,145.79462,0,0,1-42.53112-8.7381c-4.25507-1.60119-7.65479-.63452-10.78778,2.68286a70.3611,70.3611,0,0,1-32.02411,19.54364c-.60779.17682-1.23963.27082-1.452.31617,1.88709-7.77515,4.64679-15.28644,5.30866-22.97821.63885-7.4245-.547-15.08521-1.64484-22.537-.38416-2.60736-2.59412-5.16425-4.47595-7.29834-17.19165-19.49567-26.75763-41.89392-25.72791-68.16773.86066-21.958,9.60279-40.87365,24.10663-57.01953,23.38538-26.03283,53.18457-39.4588,87.68622-42.6969,28.088-2.63611,54.73724,2.56671,79.254,16.801,26.139,15.17615,44.8266,36.50451,51.28711,66.68585C265.642,245.70084,256.07141,274.86936,232.27313,298.9628ZM367.759,184.60532a22.44005,22.44005,0,0,0-5.1167,9.60541c-3.34954,13.66168-1.67645,26.98639,3.93384,39.846.41272.946.79138,1.90692,1.47681,3.56457-13.34467-3.23272-24.17224-9.39807-32.97815-18.59069-4.726-4.93348-9.04395-5.611-15.25067-3.25892-13.67542,5.18225-28.06824,7.088-43.23541,7.89429-3.205-32.14123-17.95008-58.12817-43.24048-79.685h5.15429q47.79329-.00009,95.58661-.00555a32.73624,32.73624,0,0,0,4.7901-.15051,7.89138,7.89138,0,0,0,6.67548-7.41443,7.60285,7.60285,0,0,0-5.90058-7.97534,24.577,24.577,0,0,0-5.55249-.41169q-60.59151-.03177-121.183-.05749a14.64965,14.64965,0,0,1-6.1886-.99927,153.44741,153.44741,0,0,0-54.12353-14.52838c-.9206-.08057-1.83264-.25885-3.4195-.48889.50836-3.44184.82453-6.84,1.5293-10.15552,5.98993-28.17853,22.238-49.27264,45.9256-64.759,27.71136-18.117,58.34631-24.00775,90.97607-19.71924,30.59363,4.02087,57.10163,16.58929,78.82263,38.75616C402.01733,92.37864,402.49548,147.46073,367.759,184.60532Z"/>
    <path d="M205.96777,256.19687a26.96048,26.96048,0,0,0-4.38519-.18261q-63.1842-.01254-126.36853.00006a27.11647,27.11647,0,0,0-4.38531.18536,7.816,7.816,0,0,0-6.79236,8.09357,7.91777,7.91777,0,0,0,7.353,7.61121c1.32178.13,2.66352.07342,3.9961.07366q31.39224.00531,62.78442.00257,31.5921.00018,63.18427-.00208c1.3327-.00018,2.67389.05909,3.99652-.06512a7.95541,7.95541,0,0,0,7.36914-7.6A7.789,7.789,0,0,0,205.96777,256.19687Z"/>
    <path d="M105.43536,223.96622c.26636.00428.5329.00171.79938.00171q48.16461.00028,96.32929-.01611a16.96342,16.96342,0,0,0,4.34423-.4112,7.84008,7.84008,0,0,0-.16845-15.18939,18.47068,18.47068,0,0,0-4.35657-.34778q-23.78247-.03369-47.565-.01422-18.18667-.00018-36.37335,0c-4.39673.00013-8.794-.03991-13.19019.01306-5.555.0669-9.10327,3.14856-9.16541,7.86371C96.025,220.74192,99.63794,223.87351,105.43536,223.96622Z"/>
    <path d="M71.915,223.91739a7.94157,7.94157,0,1,0-.09241-15.88128,7.94153,7.94153,0,0,0,.09241,15.88128Z"/>
    <path d="M336.23383,80.15311c-13.72229-.35211-27.45844-.16375-41.18976-.16388q-28.19586-.00018-56.3916-.01642c-3.67456-.0072-6.95118.68329-8.82947,4.22962-3.06384,5.78461.98932,11.70709,8.16186,11.73938,16.39722.07385,32.795.02338,49.19263.02508q4.99923.00248,9.99847.00159,19.79709-.00219,39.59418-.01239c3.425-.00531,6.75141-1.02392,7.76367-4.43774.71393-2.4076.82172-6.04187-.53558-7.746A11.362,11.362,0,0,0,336.23383,80.15311Z"/>
    <path d="M205.00928,80.03062a7.95071,7.95071,0,1,0,7.7102,8.05621A7.9592,7.9592,0,0,0,205.00928,80.03062Z"/>
  </g>
</svg>
