<svg xmlns="http://www.w3.org/2000/svg" viewBox="0 0 352.16144 409.50022">
  <defs>
    <style>
      .a {
        fill: #52b2a6;
      }

      .b {
        fill: #3b4b61;
      }

      .c {
        fill: #f4d0aa;
      }

      .d {
        fill: #1b1815;
      }
    </style>
  </defs>
  <title>icon-call</title>
  <g>
    <polygon class="a" points="9 401.667 345 401.667 342 358.667 312.067 322 264.851 312 224.044 307 210.667 334.333 180 350.333 144.022 340.761 126.372 308.333 87.597 310.667 41 324 16.073 350.667 9 401.667"/>
    <polygon class="a" points="264.091 151.5 264.851 219.5 301 219.5 312.067 208 312.067 162 297.5 151.5 264.091 151.5"/>
    <polygon class="a" points="44.5 219.5 87.597 219.5 87.597 151.5 44.5 151.5 37.5 175.969 44.5 219.5"/>
    <polygon class="b" points="37.5 270 60 313.567 128.122 305.411 136.768 276.78 90 229.803 64.002 262.5 37.5 270"/>
    <polygon class="b" points="261.5 224 240.139 260 214.997 274.032 224.044 307 288.044 315.675 304.126 293 312.067 269.838 278.5 253.826 261.5 224"/>
    <polygon class="b" points="87.597 151.5 154.5 151.5 185 132.758 192 109 208.142 140.5 246.5 154 264.091 151.5 256.094 106.5 224.044 68 177 55 130.5 66.5 102 94 87.597 129 87.597 151.5"/>
    <polygon class="c" points="87.134 159.885 96.191 236.022 126.372 269.838 163 286.373 218 276.78 260.5 229.803 264.851 163.5 263.532 148.354 218.122 144.013 189.5 117.485 171.5 143.994 128.122 154 99.5 151.5 87.134 159.885"/>
    <polygon class="c" points="128.122 311.548 144.022 340.761 175.844 349.228 208.142 340.761 226.16 311.548 214.997 274.032 179.499 283.495 136.768 276.78 128.122 311.548"/>
    <path class="d" d="M352.15167,398.61832c-.331-11.30566.56025-22.666-2.31762-33.80872q-9.647-37.35195-44.99323-52.69928c-.96063-.41833-1.89282-.902-3.33624-1.59387,1.18341-1.24438,2.14935-2.26477,3.1203-3.28027a54.67911,54.67911,0,0,0,15.56445-36.27c.36115-7.60516-2.28088-10.335-9.96423-10.77985a39.8223,39.8223,0,0,1-35.84747-26.85443c-.46906-1.34869-.75483-2.76117-1.25629-4.63055,7.38458,0,14.288.02124,21.19128-.00434,15.76978-.05847,25.69617-9.96,25.7583-25.74542.04511-11.46429.08442-22.92956-.0191-34.39306-.08942-9.90125-4.37469-17.47663-13.28741-22.01923-2.16718-1.10455-2.75324-2.35809-2.71906-4.60071.21936-14.40265.0058-28.74206-3.21081-42.93512C288.84619,46.107,242.59979,5.49648,188.44129.55324,119.31446-5.7562,58.295,42.57284,49.26191,111.17873c-1.3324,10.11945-.88776,20.47949-1.12415,30.73151-.05072,2.20086-.49048,3.50659-2.69208,4.62353-8.91491,4.52277-13.23785,12.0802-13.32434,21.99048q-.15361,17.59524-.0072,35.19275c.11359,14.77923,10.20526,24.85425,24.91913,24.97217,7.175.05749,14.35083.01,21.90063.01a34.82083,34.82083,0,0,1-6.90673,15.51A39.31488,39.31488,0,0,1,41.97693,260.1854c-7.66973.46087-10.33868,3.21454-9.97149,10.7854a54.44437,54.44437,0,0,0,15.32635,35.95672,36.40225,36.40225,0,0,0,4.29749,3.20752c-2.51892,1.21222-3.87262,1.87812-5.23822,2.51868C17.22718,326.33383,2.03315,349.43216.20222,381.43027c-.327,5.71454.12475,11.4726-.17475,17.19006-.25635,4.89392,1.25464,8.56067,5.65918,10.87989h340.8C350.88629,407.177,352.2948,403.5062,352.15167,398.61832ZM303.54126,275.76157A35.32181,35.32181,0,0,1,295.83,292.93662a50.86668,50.86668,0,0,1-6.728,6.79748c-4.93359,4.12885-10.11426,6.45838-17.16327,5.15729-12.42987-2.29437-25.06115-3.5191-37.626-5.044-2.7555-.33435-4.2016-1.282-4.747-4.20141-.87811-4.7002-2.37817-9.28186-3.34485-13.96936-.22992-1.11475.21027-3.06574,1.01929-3.59278a99.302,99.302,0,0,0,33.28142-35.64575C269.5708,260.902,283.7685,271.863,303.54126,275.76157Zm-156.24367-4.496c-31.38226-12.47193-50.91931-40.93811-51.19531-74.702-.08826-10.79565.09674-21.59454-.0899-32.38769-.05664-3.27552.85321-4.365,4.22967-4.3205,13.32654.17584,26.6593-.09631,39.98493.109,21.99383.33893,39.2238-8.31176,51.84477-27.20648,1.07568,1.44672,1.8515,2.48747,2.62469,3.53021,10.92066,14.72834,25.51514,22.65125,43.84717,23.50959,4.78888.22418,9.59418.11676,14.392.12408,1.72784.00263,3.22827.0846,3.15637,2.45776-.49164,16.22834.72571,32.71564-1.72741,48.63886-7.57457,49.1656-60.81763,78.62761-107.067,60.24715Zm59.41016,55.31176c-11.168,12.19465-24.86523,16.90461-40.82062,12.64844-15.59753-4.16064-25.23456-14.70215-28.85736-30.53216a8.19151,8.19151,0,0,1-.12262-3.55884c1.41852-6.06848,2.97852-12.10394,4.64252-18.762,23.30621,8.46112,46.11951,8.45141,68.68475.13952,6.07346,14.26923,7.7535,27.7478-3.52665,40.065Zm-110.517-183.116q.718-38.19023,30.28675-62.2259c24.42688-19.86785,59.35907-22.81518,87.18843-8.00293,27.22338,14.48987,42.92981,43.46833,42.12927,70.35529-17.12189,1.19025-33.38959.78668-45.658-13.55749-6.43213-7.5204-9.30644-16.19886-10.13733-25.921a11.473,11.473,0,0,0-3.74536-7.33477c-4.69946-3.69269-11.07647-.24445-12.01544,6.03387-.60895,4.07221-.66089,8.32721-1.92572,12.18444-5.27978,16.1006-16.166,26.88838-33.226,28.179C131.76192,144.48264,114.26,143.46134,96.19075,143.46134ZM295.294,159.95786c5.76111.09039,8.7539,3.18933,8.77923,9.03526q.07545,17.36609-.00311,34.73273c-.02856,5.63678-2.9815,8.81268-8.48089,8.941-6.78327.15827-13.5741-.02575-20.35883.09668-2.50378.04517-3.2049-.99939-3.1792-3.33.08673-7.85052.033-15.70264.033-23.55412-.00171-7.45227.0993-14.90662-.05341-22.35572-.05786-2.822.94886-3.70806,3.70252-3.64337C282.25049,160.03353,288.7749,159.85549,295.294,159.95786ZM86.262,60.96505C121.23585,12.8475,191.65035,1.34853,239.99744,36.01241,271.35773,58.49709,288.00965,91.037,288.091,129.9932c-.00086,3.46563-.16773,6.94183.05041,10.39367.18384,2.90931-1.01495,3.72352-3.71246,3.54755a52.132,52.132,0,0,0-8.38953.01532c-3.27136.3172-3.97357-1.07733-4.1095-4.09393a94.24065,94.24065,0,0,0-22.657-58.11A95.8638,95.8638,0,0,0,80.38318,138.99587c-.21667,4.126-1.41857,5.07825-5.33013,4.991-10.96839-.24476-10.75818-.0777-11.01423-11.07807C63.42225,106.41476,70.6305,82.47121,86.262,60.96505ZM76.68824,212.76949c-6.65051-.13867-13.308.05029-19.95838-.09314-5.56457-.11994-8.5932-3.24744-8.6242-8.80652q-.098-17.56439-.00086-35.1297c.02979-5.569,3.06842-8.67523,8.63465-8.775,6.65125-.11933,13.308.0559,19.95875-.07856,2.63183-.05322,3.47308.92823,3.434,3.49512-.11744,7.71613-.0423,15.43526-.0423,23.15314,0,7.5849-.07611,15.171.04224,22.754C80.17231,211.86362,79.31244,212.82424,76.68824,212.76949Zm-27.6593,65.31969a15.15617,15.15617,0,0,1-.20783-2.34192c19.63757-4.02808,33.73676-14.74561,42.62543-33.094,1.01966,1.47412,1.78235,2.45032,2.41168,3.506A93.26908,93.26908,0,0,0,123.56147,276.926c2.50152,1.62585,3.4173,3.07324,2.40661,6.11188-1.4649,4.404-2.1618,9.06109-3.57568,13.48584a5.10562,5.10562,0,0,1-3.30554,3.00793c-14.49549,2.09216-29.02179,3.975-43.55274,5.81165a8.06373,8.06373,0,0,1-4.23284-.59125c-11.5246-5.42981-18.91907-14.38013-22.27234-26.66284ZM326.9007,393.516H24.161c-8.14545,0-8.12336.00007-8.082-8.33306.08654-17.41071,5.4776-32.716,17.94152-45.19892,10.91468-10.93133,24.40039-16.38751,39.48713-18.34332,14.66314-1.90082,29.3488-3.63879,43.98779-5.70874,3.58179-.50647,4.95831.3739,6.19531,3.88672a55.86494,55.86494,0,0,0,105.28113-.60669c.6474-1.848.79553-3.89368,3.77747-3.48395,17.68232,2.42963,35.54472,3.89136,53.03907,7.27045,30.79267,5.94775,49.571,29.3656,50.28949,60.89666C336.29706,393.516,336.29712,393.516,326.9007,393.516Z"/>
    <path class="d" d="M278.8833,356.72556c-4.93158-.0603-9.86444-.01257-14.79675-.01325q-7.19852-.001-14.397-.00055c-.1333,0-.26667-.00128-.39991.00184-5.65551.13342-9.09893,3.10522-9.15014,7.89648-.05115,4.79089,3.41559,8.01038,8.97918,8.05383q14.996.11719,29.99341.00019c5.558-.04322,8.99079-3.2591,8.93109-8.08155C287.98407,359.80173,284.533,356.79465,278.8833,356.72556Z"/>
    <path class="d" d="M312.0874,356.75742a7.94145,7.94145,0,1,0,7.9213,7.96155q.00009-.04551-.00031-.091A7.93362,7.93362,0,0,0,312.0874,356.75742Z"/>
    <path class="d" d="M216.0732,175.96889a7.951,7.951,0,1,0,7.97043,7.93153q-.0002-.07088-.00162-.14173A8.00051,8.00051,0,0,0,216.0732,175.96889Z"/>
    <path class="d" d="M136.05561,175.9692a7.95009,7.95009,0,1,0,7.96609,7.93405q-.00012-.05871-.0011-.1174A7.98791,7.98791,0,0,0,136.05561,175.9692Z"/>
    <path class="d" d="M191.00893,231.43349c-11.1924,8.51563-21.17578,8.51758-32.37012,0a7.9998,7.9998,0,0,0-9.6875,12.7334c8.46289,6.439,17.168,9.65869,25.87207,9.65869,8.70508,0,17.41016-3.21973,25.873-9.65869a7.9998,7.9998,0,0,0-9.6875-12.7334Z"/>
  </g>
</svg>
