<svg xmlns="http://www.w3.org/2000/svg" viewBox="0 0 500 500"><defs><style>.cls-1{fill:#201600;}.cls-2{fill:#fff;}</style></defs><title>logo</title><g id="Слой_2" data-name="Слой 2"><g id="logo"><rect id="background" class="cls-1" width="500" height="500"/><path id="line-l" class="cls-2" d="M25,250,154.54,379.54a10,10,0,0,0,14.14,0h0a10,10,0,0,0,0-14.14L53.28,250l115.4-115.4a10,10,0,0,0,0-14.14h0a10,10,0,0,0-14.14,0Z"/><path id="line-r" class="cls-2" d="M331.32,120.46h0a10,10,0,0,0,0,14.14L446.72,250,331.32,365.4a10,10,0,0,0,0,14.14h0a10,10,0,0,0,14.14,0L475,250,345.46,120.46A10,10,0,0,0,331.32,120.46Z"/><rect id="line-c" class="cls-2" x="240" y="75" width="20" height="350" rx="10" ry="10" transform="translate(100.58 -70.43) rotate(20)"/></g></g></svg>