<svg width="305" height="189" viewBox="0 0 305 189" fill="none" xmlns="http://www.w3.org/2000/svg">
<rect x="0.820312" y="0.438477" width="304" height="187.923" rx="16.9433" fill="white" fill-opacity="0.8"/>
<rect x="20.8203" y="23.9639" width="24.1836" height="25.8525" fill="#FF4C4C"/>
<path d="M60.8639 34.5285C60.0539 34.5285 59.3289 34.3535 58.6889 34.0035C58.0589 33.6535 57.5639 33.1735 57.2039 32.5635C56.8439 31.9435 56.6639 31.2435 56.6639 30.4635C56.6639 29.6835 56.8439 28.9885 57.2039 28.3785C57.5639 27.7585 58.0589 27.2785 58.6889 26.9385C59.3289 26.5885 60.0539 26.4135 60.8639 26.4135C61.5839 26.4135 62.2239 26.5585 62.7839 26.8485C63.3539 27.1385 63.7939 27.5585 64.1039 28.1085L63.0089 28.8135C62.7589 28.4335 62.4489 28.1485 62.0789 27.9585C61.7089 27.7685 61.2989 27.6735 60.8489 27.6735C60.3289 27.6735 59.8589 27.7885 59.4389 28.0185C59.0289 28.2485 58.7039 28.5785 58.4639 29.0085C58.2339 29.4285 58.1189 29.9135 58.1189 30.4635C58.1189 31.0235 58.2339 31.5185 58.4639 31.9485C58.7039 32.3685 59.0289 32.6935 59.4389 32.9235C59.8589 33.1535 60.3289 33.2685 60.8489 33.2685C61.2989 33.2685 61.7089 33.1735 62.0789 32.9835C62.4489 32.7935 62.7589 32.5085 63.0089 32.1285L64.1039 32.8185C63.7939 33.3685 63.3539 33.7935 62.7839 34.0935C62.2239 34.3835 61.5839 34.5285 60.8639 34.5285ZM73.3332 26.4885V34.4385H71.8932V27.7485H67.4082V34.4385H65.9682V26.4885H73.3332ZM79.5246 34.5285C78.7346 34.5285 78.0246 34.3535 77.3946 34.0035C76.7646 33.6535 76.2696 33.1735 75.9096 32.5635C75.5596 31.9435 75.3846 31.2435 75.3846 30.4635C75.3846 29.6835 75.5596 28.9885 75.9096 28.3785C76.2696 27.7585 76.7646 27.2785 77.3946 26.9385C78.0246 26.5885 78.7346 26.4135 79.5246 26.4135C80.3146 26.4135 81.0196 26.5885 81.6396 26.9385C82.2696 27.2785 82.7596 27.7585 83.1096 28.3785C83.4696 28.9885 83.6496 29.6835 83.6496 30.4635C83.6496 31.2435 83.4696 31.9435 83.1096 32.5635C82.7596 33.1735 82.2696 33.6535 81.6396 34.0035C81.0196 34.3535 80.3146 34.5285 79.5246 34.5285ZM79.5246 33.2685C80.0346 33.2685 80.4896 33.1535 80.8896 32.9235C81.2996 32.6835 81.6196 32.3535 81.8496 31.9335C82.0796 31.5035 82.1946 31.0135 82.1946 30.4635C82.1946 29.9135 82.0796 29.4285 81.8496 29.0085C81.6196 28.5785 81.2996 28.2485 80.8896 28.0185C80.4896 27.7885 80.0346 27.6735 79.5246 27.6735C79.0146 27.6735 78.5546 27.7885 78.1446 28.0185C77.7446 28.2485 77.4246 28.5785 77.1846 29.0085C76.9546 29.4285 76.8396 29.9135 76.8396 30.4635C76.8396 31.0135 76.9546 31.5035 77.1846 31.9335C77.4246 32.3535 77.7446 32.6835 78.1446 32.9235C78.5546 33.1535 79.0146 33.2685 79.5246 33.2685ZM89.944 26.4135C90.714 26.4135 91.404 26.5835 92.014 26.9235C92.624 27.2635 93.099 27.7385 93.439 28.3485C93.789 28.9585 93.964 29.6635 93.964 30.4635C93.964 31.2635 93.789 31.9735 93.439 32.5935C93.099 33.2035 92.624 33.6785 92.014 34.0185C91.404 34.3585 90.714 34.5285 89.944 34.5285C89.374 34.5285 88.849 34.4185 88.369 34.1985C87.899 33.9785 87.499 33.6585 87.169 33.2385V37.3485H85.729V26.4885H87.109V27.7485C87.429 27.3085 87.834 26.9785 88.324 26.7585C88.814 26.5285 89.354 26.4135 89.944 26.4135ZM89.824 33.2685C90.334 33.2685 90.789 33.1535 91.189 32.9235C91.599 32.6835 91.919 32.3535 92.149 31.9335C92.389 31.5035 92.509 31.0135 92.509 30.4635C92.509 29.9135 92.389 29.4285 92.149 29.0085C91.919 28.5785 91.599 28.2485 91.189 28.0185C90.789 27.7885 90.334 27.6735 89.824 27.6735C89.324 27.6735 88.869 27.7935 88.459 28.0335C88.059 28.2635 87.739 28.5885 87.499 29.0085C87.269 29.4285 87.154 29.9135 87.154 30.4635C87.154 31.0135 87.269 31.5035 87.499 31.9335C87.729 32.3535 88.049 32.6835 88.459 32.9235C88.869 33.1535 89.324 33.2685 89.824 33.2685ZM101.688 27.7485H98.7782V34.4385H97.3382V27.7485H94.4282V26.4885H101.688V27.7485ZM103.161 26.4885H104.601V32.2785L109.476 26.4885H110.781V34.4385H109.341V28.6485L104.481 34.4385H103.161V26.4885ZM118.991 30.3135C120.021 30.5735 120.536 31.2185 120.536 32.2485C120.536 32.9485 120.271 33.4885 119.741 33.8685C119.221 34.2485 118.441 34.4385 117.401 34.4385H113.576V26.4885H117.266C118.206 26.4885 118.941 26.6685 119.471 27.0285C120.001 27.3785 120.266 27.8785 120.266 28.5285C120.266 28.9485 120.151 29.3135 119.921 29.6235C119.701 29.9235 119.391 30.1535 118.991 30.3135ZM114.986 29.9085H117.146C117.696 29.9085 118.111 29.8085 118.391 29.6085C118.681 29.4085 118.826 29.1185 118.826 28.7385C118.826 27.9785 118.266 27.5985 117.146 27.5985H114.986V29.9085ZM117.296 33.3285C117.896 33.3285 118.346 33.2335 118.646 33.0435C118.946 32.8535 119.096 32.5585 119.096 32.1585C119.096 31.7485 118.956 31.4435 118.676 31.2435C118.406 31.0435 117.976 30.9435 117.386 30.9435H114.986V33.3285H117.296ZM122.79 26.4885H124.23V29.8635H128.76V26.4885H130.2V34.4385H128.76V31.1085H124.23V34.4385H122.79V26.4885ZM136.584 29.1885C137.584 29.1985 138.349 29.4285 138.879 29.8785C139.409 30.3285 139.674 30.9635 139.674 31.7835C139.674 32.6435 139.384 33.3085 138.804 33.7785C138.234 34.2385 137.414 34.4635 136.344 34.4535L132.999 34.4385V26.4885H134.439V29.1735L136.584 29.1885ZM140.859 26.4885H142.299V34.4385H140.859V26.4885ZM136.239 33.3585C136.889 33.3685 137.379 33.2385 137.709 32.9685C138.049 32.6985 138.219 32.2985 138.219 31.7685C138.219 31.2485 138.054 30.8685 137.724 30.6285C137.394 30.3885 136.899 30.2635 136.239 30.2535L134.439 30.2235V33.3435L136.239 33.3585ZM152.284 30.5085C152.284 30.6185 152.274 30.7635 152.254 30.9435H145.804C145.894 31.6435 146.199 32.2085 146.719 32.6385C147.249 33.0585 147.904 33.2685 148.684 33.2685C149.634 33.2685 150.399 32.9485 150.979 32.3085L151.774 33.2385C151.414 33.6585 150.964 33.9785 150.424 34.1985C149.894 34.4185 149.299 34.5285 148.639 34.5285C147.799 34.5285 147.054 34.3585 146.404 34.0185C145.754 33.6685 145.249 33.1835 144.889 32.5635C144.539 31.9435 144.364 31.2435 144.364 30.4635C144.364 29.6935 144.534 28.9985 144.874 28.3785C145.224 27.7585 145.699 27.2785 146.299 26.9385C146.909 26.5885 147.594 26.4135 148.354 26.4135C149.114 26.4135 149.789 26.5885 150.379 26.9385C150.979 27.2785 151.444 27.7585 151.774 28.3785C152.114 28.9985 152.284 29.7085 152.284 30.5085ZM148.354 27.6285C147.664 27.6285 147.084 27.8385 146.614 28.2585C146.154 28.6785 145.884 29.2285 145.804 29.9085H150.904C150.824 29.2385 150.549 28.6935 150.079 28.2735C149.619 27.8435 149.044 27.6285 148.354 27.6285ZM165.911 26.4885V34.4385H164.471V27.7485H159.986V34.4385H158.546V26.4885H165.911ZM175.523 26.4885V34.4385H174.083V27.7485H170.663L170.573 29.5185C170.523 30.5885 170.428 31.4835 170.288 32.2035C170.148 32.9135 169.918 33.4835 169.598 33.9135C169.278 34.3435 168.833 34.5585 168.263 34.5585C168.003 34.5585 167.708 34.5135 167.378 34.4235L167.468 33.2085C167.598 33.2385 167.718 33.2535 167.828 33.2535C168.228 33.2535 168.528 33.0785 168.728 32.7285C168.928 32.3785 169.058 31.9635 169.118 31.4835C169.178 31.0035 169.233 30.3185 169.283 29.4285L169.418 26.4885H175.523ZM181.712 34.5285C180.922 34.5285 180.212 34.3535 179.582 34.0035C178.952 33.6535 178.457 33.1735 178.097 32.5635C177.747 31.9435 177.572 31.2435 177.572 30.4635C177.572 29.6835 177.747 28.9885 178.097 28.3785C178.457 27.7585 178.952 27.2785 179.582 26.9385C180.212 26.5885 180.922 26.4135 181.712 26.4135C182.502 26.4135 183.207 26.5885 183.827 26.9385C184.457 27.2785 184.947 27.7585 185.297 28.3785C185.657 28.9885 185.837 29.6835 185.837 30.4635C185.837 31.2435 185.657 31.9435 185.297 32.5635C184.947 33.1735 184.457 33.6535 183.827 34.0035C183.207 34.3535 182.502 34.5285 181.712 34.5285ZM181.712 33.2685C182.222 33.2685 182.677 33.1535 183.077 32.9235C183.487 32.6835 183.807 32.3535 184.037 31.9335C184.267 31.5035 184.382 31.0135 184.382 30.4635C184.382 29.9135 184.267 29.4285 184.037 29.0085C183.807 28.5785 183.487 28.2485 183.077 28.0185C182.677 27.7885 182.222 27.6735 181.712 27.6735C181.202 27.6735 180.742 27.7885 180.332 28.0185C179.932 28.2485 179.612 28.5785 179.372 29.0085C179.142 29.4285 179.027 29.9135 179.027 30.4635C179.027 31.0135 179.142 31.5035 179.372 31.9335C179.612 32.3535 179.932 32.6835 180.332 32.9235C180.742 33.1535 181.202 33.2685 181.712 33.2685ZM199.241 26.4885V34.4385H187.916V26.4885H189.356V33.1785H192.866V26.4885H194.306V33.1785H197.801V26.4885H199.241ZM200.426 33.1785V36.1335H199.076V34.4385H197.741V33.1785H200.426ZM204.873 26.4135C205.973 26.4135 206.813 26.6835 207.393 27.2235C207.983 27.7635 208.278 28.5685 208.278 29.6385V34.4385H206.913V33.3885C206.673 33.7585 206.328 34.0435 205.878 34.2435C205.438 34.4335 204.913 34.5285 204.303 34.5285C203.413 34.5285 202.698 34.3135 202.158 33.8835C201.628 33.4535 201.363 32.8885 201.363 32.1885C201.363 31.4885 201.618 30.9285 202.128 30.5085C202.638 30.0785 203.448 29.8635 204.558 29.8635H206.838V29.5785C206.838 28.9585 206.658 28.4835 206.298 28.1535C205.938 27.8235 205.408 27.6585 204.708 27.6585C204.238 27.6585 203.778 27.7385 203.328 27.8985C202.878 28.0485 202.498 28.2535 202.188 28.5135L201.588 27.4335C201.998 27.1035 202.488 26.8535 203.058 26.6835C203.628 26.5035 204.233 26.4135 204.873 26.4135ZM204.543 33.4185C205.093 33.4185 205.568 33.2985 205.968 33.0585C206.368 32.8085 206.658 32.4585 206.838 32.0085V30.8985H204.618C203.398 30.8985 202.788 31.3085 202.788 32.1285C202.788 32.5285 202.943 32.8435 203.253 33.0735C203.563 33.3035 203.993 33.4185 204.543 33.4185ZM218.956 33.1785V36.2835H217.606V34.4385H210.961V36.2835H209.596V33.1785H210.016C210.526 33.1485 210.876 32.7885 211.066 32.0985C211.256 31.4085 211.386 30.4335 211.456 29.1735L211.576 26.4885H217.741V33.1785H218.956ZM212.776 29.2785C212.736 30.2785 212.651 31.1085 212.521 31.7685C212.401 32.4185 212.176 32.8885 211.846 33.1785H216.301V27.7485H212.851L212.776 29.2785ZM223.922 31.0785H222.272V34.4385H220.832V26.4885H222.272V29.8485H223.952L226.532 26.4885H228.077L225.062 30.3135L228.287 34.4385H226.592L223.922 31.0785ZM229.796 26.4885H231.236V32.2785L236.111 26.4885H237.416V34.4385H235.976V28.6485L231.116 34.4385H229.796V26.4885ZM60.8039 52.5285C60.0139 52.5285 59.3039 52.3535 58.6739 52.0035C58.0439 51.6535 57.5489 51.1735 57.1889 50.5635C56.8389 49.9435 56.6639 49.2435 56.6639 48.4635C56.6639 47.6835 56.8389 46.9885 57.1889 46.3785C57.5489 45.7585 58.0439 45.2785 58.6739 44.9385C59.3039 44.5885 60.0139 44.4135 60.8039 44.4135C61.5939 44.4135 62.2989 44.5885 62.9189 44.9385C63.5489 45.2785 64.0389 45.7585 64.3889 46.3785C64.7489 46.9885 64.9289 47.6835 64.9289 48.4635C64.9289 49.2435 64.7489 49.9435 64.3889 50.5635C64.0389 51.1735 63.5489 51.6535 62.9189 52.0035C62.2989 52.3535 61.5939 52.5285 60.8039 52.5285ZM60.8039 51.2685C61.3139 51.2685 61.7689 51.1535 62.1689 50.9235C62.5789 50.6835 62.8989 50.3535 63.1289 49.9335C63.3589 49.5035 63.4739 49.0135 63.4739 48.4635C63.4739 47.9135 63.3589 47.4285 63.1289 47.0085C62.8989 46.5785 62.5789 46.2485 62.1689 46.0185C61.7689 45.7885 61.3139 45.6735 60.8039 45.6735C60.2939 45.6735 59.8339 45.7885 59.4239 46.0185C59.0239 46.2485 58.7039 46.5785 58.4639 47.0085C58.2339 47.4285 58.1189 47.9135 58.1189 48.4635C58.1189 49.0135 58.2339 49.5035 58.4639 49.9335C58.7039 50.3535 59.0239 50.6835 59.4239 50.9235C59.8339 51.1535 60.2939 51.2685 60.8039 51.2685ZM71.0583 44.7585C71.7983 44.7585 72.4583 44.9235 73.0383 45.2535C73.6183 45.5835 74.0683 46.0435 74.3883 46.6335C74.7183 47.2135 74.8833 47.8785 74.8833 48.6285C74.8833 49.3985 74.7083 50.0835 74.3583 50.6835C74.0183 51.2735 73.5333 51.7335 72.9033 52.0635C72.2833 52.3935 71.5733 52.5585 70.7733 52.5585C69.4233 52.5585 68.3783 52.0985 67.6383 51.1785C66.9083 50.2485 66.5433 48.9435 66.5433 47.2635C66.5433 45.6335 66.8783 44.3585 67.5483 43.4385C68.2183 42.5085 69.2433 41.8935 70.6233 41.5935L74.2533 40.7835L74.4633 42.1035L71.1183 42.8235C70.0783 43.0535 69.3033 43.4435 68.7933 43.9935C68.2833 44.5435 67.9933 45.3335 67.9233 46.3635C68.2633 45.8535 68.7033 45.4585 69.2433 45.1785C69.7833 44.8985 70.3883 44.7585 71.0583 44.7585ZM70.8033 51.3585C71.3133 51.3585 71.7633 51.2435 72.1533 51.0135C72.5533 50.7835 72.8633 50.4685 73.0833 50.0685C73.3033 49.6585 73.4133 49.1935 73.4133 48.6735C73.4133 47.8835 73.1733 47.2485 72.6933 46.7685C72.2133 46.2885 71.5833 46.0485 70.8033 46.0485C70.0233 46.0485 69.3883 46.2885 68.8983 46.7685C68.4183 47.2485 68.1783 47.8835 68.1783 48.6735C68.1783 49.1935 68.2883 49.6585 68.5083 50.0685C68.7383 50.4685 69.0533 50.7835 69.4533 51.0135C69.8533 51.2435 70.3033 51.3585 70.8033 51.3585ZM88.2649 44.4885V52.4385H76.9399V44.4885H78.3799V51.1785H81.8899V44.4885H83.3299V51.1785H86.8249V44.4885H88.2649ZM89.4499 51.1785V54.1335H88.0999V52.4385H86.7649V51.1785H89.4499ZM98.246 48.5085C98.246 48.6185 98.236 48.7635 98.216 48.9435H91.766C91.856 49.6435 92.161 50.2085 92.681 50.6385C93.211 51.0585 93.866 51.2685 94.646 51.2685C95.596 51.2685 96.361 50.9485 96.941 50.3085L97.736 51.2385C97.376 51.6585 96.926 51.9785 96.386 52.1985C95.856 52.4185 95.261 52.5285 94.601 52.5285C93.761 52.5285 93.016 52.3585 92.366 52.0185C91.716 51.6685 91.211 51.1835 90.851 50.5635C90.501 49.9435 90.326 49.2435 90.326 48.4635C90.326 47.6935 90.496 46.9985 90.836 46.3785C91.186 45.7585 91.661 45.2785 92.261 44.9385C92.871 44.5885 93.556 44.4135 94.316 44.4135C95.076 44.4135 95.751 44.5885 96.341 44.9385C96.941 45.2785 97.406 45.7585 97.736 46.3785C98.076 46.9985 98.246 47.7085 98.246 48.5085ZM94.316 45.6285C93.626 45.6285 93.046 45.8385 92.576 46.2585C92.116 46.6785 91.846 47.2285 91.766 47.9085H96.866C96.786 47.2385 96.511 46.6935 96.041 46.2735C95.581 45.8435 95.006 45.6285 94.316 45.6285ZM106.33 45.7485H101.92V52.4385H100.48V44.4885H106.33V45.7485ZM110.858 52.5285C110.068 52.5285 109.358 52.3535 108.728 52.0035C108.098 51.6535 107.603 51.1735 107.243 50.5635C106.893 49.9435 106.718 49.2435 106.718 48.4635C106.718 47.6835 106.893 46.9885 107.243 46.3785C107.603 45.7585 108.098 45.2785 108.728 44.9385C109.358 44.5885 110.068 44.4135 110.858 44.4135C111.648 44.4135 112.353 44.5885 112.973 44.9385C113.603 45.2785 114.093 45.7585 114.443 46.3785C114.803 46.9885 114.983 47.6835 114.983 48.4635C114.983 49.2435 114.803 49.9435 114.443 50.5635C114.093 51.1735 113.603 51.6535 112.973 52.0035C112.353 52.3535 111.648 52.5285 110.858 52.5285ZM110.858 51.2685C111.368 51.2685 111.823 51.1535 112.223 50.9235C112.633 50.6835 112.953 50.3535 113.183 49.9335C113.413 49.5035 113.528 49.0135 113.528 48.4635C113.528 47.9135 113.413 47.4285 113.183 47.0085C112.953 46.5785 112.633 46.2485 112.223 46.0185C111.823 45.7885 111.368 45.6735 110.858 45.6735C110.348 45.6735 109.888 45.7885 109.478 46.0185C109.078 46.2485 108.758 46.5785 108.518 47.0085C108.288 47.4285 108.173 47.9135 108.173 48.4635C108.173 49.0135 108.288 49.5035 108.518 49.9335C108.758 50.3535 109.078 50.6835 109.478 50.9235C109.888 51.1535 110.348 51.2685 110.858 51.2685ZM128.455 44.4885V52.4385H127.015V45.7485H122.53V52.4385H121.09V44.4885H128.455ZM134.647 52.5285C133.857 52.5285 133.147 52.3535 132.517 52.0035C131.887 51.6535 131.392 51.1735 131.032 50.5635C130.682 49.9435 130.507 49.2435 130.507 48.4635C130.507 47.6835 130.682 46.9885 131.032 46.3785C131.392 45.7585 131.887 45.2785 132.517 44.9385C133.147 44.5885 133.857 44.4135 134.647 44.4135C135.437 44.4135 136.142 44.5885 136.762 44.9385C137.392 45.2785 137.882 45.7585 138.232 46.3785C138.592 46.9885 138.772 47.6835 138.772 48.4635C138.772 49.2435 138.592 49.9435 138.232 50.5635C137.882 51.1735 137.392 51.6535 136.762 52.0035C136.142 52.3535 135.437 52.5285 134.647 52.5285ZM134.647 51.2685C135.157 51.2685 135.612 51.1535 136.012 50.9235C136.422 50.6835 136.742 50.3535 136.972 49.9335C137.202 49.5035 137.317 49.0135 137.317 48.4635C137.317 47.9135 137.202 47.4285 136.972 47.0085C136.742 46.5785 136.422 46.2485 136.012 46.0185C135.612 45.7885 135.157 45.6735 134.647 45.6735C134.137 45.6735 133.677 45.7885 133.267 46.0185C132.867 46.2485 132.547 46.5785 132.307 47.0085C132.077 47.4285 131.962 47.9135 131.962 48.4635C131.962 49.0135 132.077 49.5035 132.307 49.9335C132.547 50.3535 132.867 50.6835 133.267 50.9235C133.677 51.1535 134.137 51.2685 134.647 51.2685ZM147.617 44.4885V52.4385H146.177V45.7485H142.757L142.667 47.5185C142.617 48.5885 142.522 49.4835 142.382 50.2035C142.242 50.9135 142.012 51.4835 141.692 51.9135C141.372 52.3435 140.927 52.5585 140.357 52.5585C140.097 52.5585 139.802 52.5135 139.472 52.4235L139.562 51.2085C139.692 51.2385 139.812 51.2535 139.922 51.2535C140.322 51.2535 140.622 51.0785 140.822 50.7285C141.022 50.3785 141.152 49.9635 141.212 49.4835C141.272 49.0035 141.327 48.3185 141.377 47.4285L141.512 44.4885H147.617ZM154.077 47.1885C155.087 47.1985 155.857 47.4285 156.387 47.8785C156.917 48.3285 157.182 48.9635 157.182 49.7835C157.182 50.6435 156.892 51.3085 156.312 51.7785C155.742 52.2385 154.922 52.4635 153.852 52.4535L150.402 52.4385V44.4885H151.842V47.1735L154.077 47.1885ZM153.732 51.3585C154.382 51.3685 154.872 51.2385 155.202 50.9685C155.542 50.6985 155.712 50.2985 155.712 49.7685C155.712 49.2485 155.547 48.8685 155.217 48.6285C154.897 48.3885 154.402 48.2635 153.732 48.2535L151.842 48.2235V51.3435L153.732 51.3585ZM163.218 48.2985C163.748 48.4385 164.158 48.6635 164.448 48.9735C164.738 49.2835 164.883 49.6685 164.883 50.1285C164.883 50.5985 164.723 51.0185 164.403 51.3885C164.083 51.7485 163.638 52.0335 163.068 52.2435C162.508 52.4435 161.878 52.5435 161.178 52.5435C160.588 52.5435 160.008 52.4685 159.438 52.3185C158.878 52.1585 158.378 51.9335 157.938 51.6435L158.373 50.5485C158.753 50.7885 159.188 50.9785 159.678 51.1185C160.168 51.2485 160.663 51.3135 161.163 51.3135C161.843 51.3135 162.383 51.1985 162.783 50.9685C163.193 50.7285 163.398 50.4085 163.398 50.0085C163.398 49.6385 163.233 49.3535 162.903 49.1535C162.583 48.9535 162.128 48.8535 161.538 48.8535H160.083V47.8185H161.433C161.973 47.8185 162.398 47.7235 162.708 47.5335C163.018 47.3435 163.173 47.0835 163.173 46.7535C163.173 46.3935 162.988 46.1135 162.618 45.9135C162.258 45.7135 161.768 45.6135 161.148 45.6135C160.358 45.6135 159.523 45.8185 158.643 46.2285L158.253 45.1185C159.223 44.6285 160.238 44.3835 161.298 44.3835C161.938 44.3835 162.513 44.4735 163.023 44.6535C163.533 44.8335 163.933 45.0885 164.223 45.4185C164.513 45.7485 164.658 46.1235 164.658 46.5435C164.658 46.9335 164.528 47.2835 164.268 47.5935C164.008 47.9035 163.658 48.1385 163.218 48.2985ZM170.477 52.5285C169.687 52.5285 168.977 52.3535 168.347 52.0035C167.717 51.6535 167.222 51.1735 166.862 50.5635C166.512 49.9435 166.337 49.2435 166.337 48.4635C166.337 47.6835 166.512 46.9885 166.862 46.3785C167.222 45.7585 167.717 45.2785 168.347 44.9385C168.977 44.5885 169.687 44.4135 170.477 44.4135C171.267 44.4135 171.972 44.5885 172.592 44.9385C173.222 45.2785 173.712 45.7585 174.062 46.3785C174.422 46.9885 174.602 47.6835 174.602 48.4635C174.602 49.2435 174.422 49.9435 174.062 50.5635C173.712 51.1735 173.222 51.6535 172.592 52.0035C171.972 52.3535 171.267 52.5285 170.477 52.5285ZM170.477 51.2685C170.987 51.2685 171.442 51.1535 171.842 50.9235C172.252 50.6835 172.572 50.3535 172.802 49.9335C173.032 49.5035 173.147 49.0135 173.147 48.4635C173.147 47.9135 173.032 47.4285 172.802 47.0085C172.572 46.5785 172.252 46.2485 171.842 46.0185C171.442 45.7885 170.987 45.6735 170.477 45.6735C169.967 45.6735 169.507 45.7885 169.097 46.0185C168.697 46.2485 168.377 46.5785 168.137 47.0085C167.907 47.4285 167.792 47.9135 167.792 48.4635C167.792 49.0135 167.907 49.5035 168.137 49.9335C168.377 50.3535 168.697 50.6835 169.097 50.9235C169.507 51.1535 169.967 51.2685 170.477 51.2685ZM182.096 48.3135C183.126 48.5735 183.641 49.2185 183.641 50.2485C183.641 50.9485 183.376 51.4885 182.846 51.8685C182.326 52.2485 181.546 52.4385 180.506 52.4385H176.681V44.4885H180.371C181.311 44.4885 182.046 44.6685 182.576 45.0285C183.106 45.3785 183.371 45.8785 183.371 46.5285C183.371 46.9485 183.256 47.3135 183.026 47.6235C182.806 47.9235 182.496 48.1535 182.096 48.3135ZM178.091 47.9085H180.251C180.801 47.9085 181.216 47.8085 181.496 47.6085C181.786 47.4085 181.931 47.1185 181.931 46.7385C181.931 45.9785 181.371 45.5985 180.251 45.5985H178.091V47.9085ZM180.401 51.3285C181.001 51.3285 181.451 51.2335 181.751 51.0435C182.051 50.8535 182.201 50.5585 182.201 50.1585C182.201 49.7485 182.061 49.4435 181.781 49.2435C181.511 49.0435 181.081 48.9435 180.491 48.9435H178.091V51.3285H180.401ZM188.73 44.4135C189.83 44.4135 190.67 44.6835 191.25 45.2235C191.84 45.7635 192.135 46.5685 192.135 47.6385V52.4385H190.77V51.3885C190.53 51.7585 190.185 52.0435 189.735 52.2435C189.295 52.4335 188.77 52.5285 188.16 52.5285C187.27 52.5285 186.555 52.3135 186.015 51.8835C185.485 51.4535 185.22 50.8885 185.22 50.1885C185.22 49.4885 185.475 48.9285 185.985 48.5085C186.495 48.0785 187.305 47.8635 188.415 47.8635H190.695V47.5785C190.695 46.9585 190.515 46.4835 190.155 46.1535C189.795 45.8235 189.265 45.6585 188.565 45.6585C188.095 45.6585 187.635 45.7385 187.185 45.8985C186.735 46.0485 186.355 46.2535 186.045 46.5135L185.445 45.4335C185.855 45.1035 186.345 44.8535 186.915 44.6835C187.485 44.5035 188.09 44.4135 188.73 44.4135ZM188.4 51.4185C188.95 51.4185 189.425 51.2985 189.825 51.0585C190.225 50.8085 190.515 50.4585 190.695 50.0085V48.8985H188.475C187.255 48.8985 186.645 49.3085 186.645 50.1285C186.645 50.5285 186.8 50.8435 187.11 51.0735C187.42 51.3035 187.85 51.4185 188.4 51.4185ZM194.728 44.4885H196.168V47.8635H200.698V44.4885H202.138V52.4385H200.698V49.1085H196.168V52.4385H194.728V44.4885ZM204.938 44.4885H206.378V50.2785L211.253 44.4885H212.558V52.4385H211.118V46.6485L206.258 52.4385H204.938V44.4885ZM221.728 44.4885V52.4385H220.438V49.9185H218.128H217.963L216.223 52.4385H214.678L216.613 49.7235C216.013 49.5435 215.553 49.2485 215.233 48.8385C214.913 48.4185 214.753 47.8985 214.753 47.2785C214.753 46.3685 215.063 45.6785 215.683 45.2085C216.303 44.7285 217.158 44.4885 218.248 44.4885H221.728ZM216.223 47.3235C216.223 47.8535 216.388 48.2485 216.718 48.5085C217.058 48.7585 217.563 48.8835 218.233 48.8835H220.438V45.7485H218.293C216.913 45.7485 216.223 46.2735 216.223 47.3235Z" fill="black"/>
<rect x="20.8203" y="73.9492" width="24.1836" height="25.8525" fill="#EE9B9B"/>
<path d="M68.7239 74.3918V82.3418H57.3989V74.3918H58.8389V81.0818H62.3489V74.3918H63.7889V81.0818H67.2839V74.3918H68.7239ZM74.61 78.9818H72.96V82.3418H71.52V74.3918H72.96V77.7518H74.64L77.22 74.3918H78.765L75.75 78.2168L78.975 82.3418H77.28L74.61 78.9818ZM83.6262 82.4318C82.8362 82.4318 82.1262 82.2568 81.4962 81.9068C80.8662 81.5568 80.3712 81.0768 80.0112 80.4668C79.6612 79.8468 79.4862 79.1468 79.4862 78.3668C79.4862 77.5868 79.6612 76.8918 80.0112 76.2818C80.3712 75.6618 80.8662 75.1818 81.4962 74.8418C82.1262 74.4918 82.8362 74.3168 83.6262 74.3168C84.4162 74.3168 85.1212 74.4918 85.7412 74.8418C86.3712 75.1818 86.8612 75.6618 87.2112 76.2818C87.5712 76.8918 87.7512 77.5868 87.7512 78.3668C87.7512 79.1468 87.5712 79.8468 87.2112 80.4668C86.8612 81.0768 86.3712 81.5568 85.7412 81.9068C85.1212 82.2568 84.4162 82.4318 83.6262 82.4318ZM83.6262 81.1718C84.1362 81.1718 84.5912 81.0568 84.9912 80.8268C85.4012 80.5868 85.7212 80.2568 85.9512 79.8368C86.1812 79.4068 86.2962 78.9168 86.2962 78.3668C86.2962 77.8168 86.1812 77.3318 85.9512 76.9118C85.7212 76.4818 85.4012 76.1518 84.9912 75.9218C84.5912 75.6918 84.1362 75.5768 83.6262 75.5768C83.1162 75.5768 82.6562 75.6918 82.2462 75.9218C81.8462 76.1518 81.5262 76.4818 81.2862 76.9118C81.0562 77.3318 80.9412 77.8168 80.9412 78.3668C80.9412 78.9168 81.0562 79.4068 81.2862 79.8368C81.5262 80.2568 81.8462 80.5868 82.2462 80.8268C82.6562 81.0568 83.1162 81.1718 83.6262 81.1718ZM96.597 74.3918V82.3418H95.157V75.6518H91.737L91.647 77.4218C91.597 78.4918 91.502 79.3868 91.362 80.1068C91.222 80.8168 90.992 81.3868 90.672 81.8168C90.352 82.2468 89.907 82.4618 89.337 82.4618C89.077 82.4618 88.782 82.4168 88.452 82.3268L88.542 81.1118C88.672 81.1418 88.792 81.1568 88.902 81.1568C89.302 81.1568 89.602 80.9818 89.802 80.6318C90.002 80.2818 90.132 79.8668 90.192 79.3868C90.252 78.9068 90.307 78.2218 90.357 77.3318L90.492 74.3918H96.597ZM103.056 77.0918C104.066 77.1018 104.836 77.3318 105.366 77.7818C105.896 78.2318 106.161 78.8668 106.161 79.6868C106.161 80.5468 105.871 81.2118 105.291 81.6818C104.721 82.1418 103.901 82.3668 102.831 82.3568L99.3813 82.3418V74.3918H100.821V77.0768L103.056 77.0918ZM102.711 81.2618C103.361 81.2718 103.851 81.1418 104.181 80.8718C104.521 80.6018 104.691 80.2018 104.691 79.6718C104.691 79.1518 104.526 78.7718 104.196 78.5318C103.876 78.2918 103.381 78.1668 102.711 78.1568L100.821 78.1268V81.2468L102.711 81.2618ZM108.009 74.3918H109.449V77.7668H113.979V74.3918H115.419V82.3418H113.979V79.0118H109.449V82.3418H108.009V74.3918ZM121.804 77.0918C122.804 77.1018 123.569 77.3318 124.099 77.7818C124.629 78.2318 124.894 78.8668 124.894 79.6868C124.894 80.5468 124.604 81.2118 124.024 81.6818C123.454 82.1418 122.634 82.3668 121.564 82.3568L118.219 82.3418V74.3918H119.659V77.0768L121.804 77.0918ZM126.079 74.3918H127.519V82.3418H126.079V74.3918ZM121.459 81.2618C122.109 81.2718 122.599 81.1418 122.929 80.8718C123.269 80.6018 123.439 80.2018 123.439 79.6718C123.439 79.1518 123.274 78.7718 122.944 78.5318C122.614 78.2918 122.119 78.1668 121.459 78.1568L119.659 78.1268V81.2468L121.459 81.2618ZM137.504 78.4118C137.504 78.5218 137.494 78.6668 137.474 78.8468H131.024C131.114 79.5468 131.419 80.1118 131.939 80.5418C132.469 80.9618 133.124 81.1718 133.904 81.1718C134.854 81.1718 135.619 80.8518 136.199 80.2118L136.994 81.1418C136.634 81.5618 136.184 81.8818 135.644 82.1018C135.114 82.3218 134.519 82.4318 133.859 82.4318C133.019 82.4318 132.274 82.2618 131.624 81.9218C130.974 81.5718 130.469 81.0868 130.109 80.4668C129.759 79.8468 129.584 79.1468 129.584 78.3668C129.584 77.5968 129.754 76.9018 130.094 76.2818C130.444 75.6618 130.919 75.1818 131.519 74.8418C132.129 74.4918 132.814 74.3168 133.574 74.3168C134.334 74.3168 135.009 74.4918 135.599 74.8418C136.199 75.1818 136.664 75.6618 136.994 76.2818C137.334 76.9018 137.504 77.6118 137.504 78.4118ZM133.574 75.5318C132.884 75.5318 132.304 75.7418 131.834 76.1618C131.374 76.5818 131.104 77.1318 131.024 77.8118H136.124C136.044 77.1418 135.769 76.5968 135.299 76.1768C134.839 75.7468 134.264 75.5318 133.574 75.5318ZM147.231 82.4318C146.421 82.4318 145.696 82.2568 145.056 81.9068C144.426 81.5568 143.931 81.0768 143.571 80.4668C143.211 79.8468 143.031 79.1468 143.031 78.3668C143.031 77.5868 143.211 76.8918 143.571 76.2818C143.931 75.6618 144.426 75.1818 145.056 74.8418C145.696 74.4918 146.421 74.3168 147.231 74.3168C147.951 74.3168 148.591 74.4618 149.151 74.7518C149.721 75.0418 150.161 75.4618 150.471 76.0118L149.376 76.7168C149.126 76.3368 148.816 76.0518 148.446 75.8618C148.076 75.6718 147.666 75.5768 147.216 75.5768C146.696 75.5768 146.226 75.6918 145.806 75.9218C145.396 76.1518 145.071 76.4818 144.831 76.9118C144.601 77.3318 144.486 77.8168 144.486 78.3668C144.486 78.9268 144.601 79.4218 144.831 79.8518C145.071 80.2718 145.396 80.5968 145.806 80.8268C146.226 81.0568 146.696 81.1718 147.216 81.1718C147.666 81.1718 148.076 81.0768 148.446 80.8868C148.816 80.6968 149.126 80.4118 149.376 80.0318L150.471 80.7218C150.161 81.2718 149.721 81.6968 149.151 81.9968C148.591 82.2868 147.951 82.4318 147.231 82.4318ZM159.7 74.3918V82.3418H158.26V75.6518H153.775V82.3418H152.335V74.3918H159.7ZM165.892 82.4318C165.102 82.4318 164.392 82.2568 163.762 81.9068C163.132 81.5568 162.637 81.0768 162.277 80.4668C161.927 79.8468 161.752 79.1468 161.752 78.3668C161.752 77.5868 161.927 76.8918 162.277 76.2818C162.637 75.6618 163.132 75.1818 163.762 74.8418C164.392 74.4918 165.102 74.3168 165.892 74.3168C166.682 74.3168 167.387 74.4918 168.007 74.8418C168.637 75.1818 169.127 75.6618 169.477 76.2818C169.837 76.8918 170.017 77.5868 170.017 78.3668C170.017 79.1468 169.837 79.8468 169.477 80.4668C169.127 81.0768 168.637 81.5568 168.007 81.9068C167.387 82.2568 166.682 82.4318 165.892 82.4318ZM165.892 81.1718C166.402 81.1718 166.857 81.0568 167.257 80.8268C167.667 80.5868 167.987 80.2568 168.217 79.8368C168.447 79.4068 168.562 78.9168 168.562 78.3668C168.562 77.8168 168.447 77.3318 168.217 76.9118C167.987 76.4818 167.667 76.1518 167.257 75.9218C166.857 75.6918 166.402 75.5768 165.892 75.5768C165.382 75.5768 164.922 75.6918 164.512 75.9218C164.112 76.1518 163.792 76.4818 163.552 76.9118C163.322 77.3318 163.207 77.8168 163.207 78.3668C163.207 78.9168 163.322 79.4068 163.552 79.8368C163.792 80.2568 164.112 80.5868 164.512 80.8268C164.922 81.0568 165.382 81.1718 165.892 81.1718ZM176.311 74.3168C177.081 74.3168 177.771 74.4868 178.381 74.8268C178.991 75.1668 179.466 75.6418 179.806 76.2518C180.156 76.8618 180.331 77.5668 180.331 78.3668C180.331 79.1668 180.156 79.8768 179.806 80.4968C179.466 81.1068 178.991 81.5818 178.381 81.9218C177.771 82.2618 177.081 82.4318 176.311 82.4318C175.741 82.4318 175.216 82.3218 174.736 82.1018C174.266 81.8818 173.866 81.5618 173.536 81.1418V85.2518H172.096V74.3918H173.476V75.6518C173.796 75.2118 174.201 74.8818 174.691 74.6618C175.181 74.4318 175.721 74.3168 176.311 74.3168ZM176.191 81.1718C176.701 81.1718 177.156 81.0568 177.556 80.8268C177.966 80.5868 178.286 80.2568 178.516 79.8368C178.756 79.4068 178.876 78.9168 178.876 78.3668C178.876 77.8168 178.756 77.3318 178.516 76.9118C178.286 76.4818 177.966 76.1518 177.556 75.9218C177.156 75.6918 176.701 75.5768 176.191 75.5768C175.691 75.5768 175.236 75.6968 174.826 75.9368C174.426 76.1668 174.106 76.4918 173.866 76.9118C173.636 77.3318 173.521 77.8168 173.521 78.3668C173.521 78.9168 173.636 79.4068 173.866 79.8368C174.096 80.2568 174.416 80.5868 174.826 80.8268C175.236 81.0568 175.691 81.1718 176.191 81.1718ZM188.055 75.6518H185.145V82.3418H183.705V75.6518H180.795V74.3918H188.055V75.6518ZM189.528 74.3918H190.968V80.1818L195.843 74.3918H197.148V82.3418H195.708V76.5518L190.848 82.3418H189.528V74.3918ZM205.358 78.2168C206.388 78.4768 206.903 79.1218 206.903 80.1518C206.903 80.8518 206.638 81.3918 206.108 81.7718C205.588 82.1518 204.808 82.3418 203.768 82.3418H199.943V74.3918H203.633C204.573 74.3918 205.308 74.5718 205.838 74.9318C206.368 75.2818 206.633 75.7818 206.633 76.4318C206.633 76.8518 206.518 77.2168 206.288 77.5268C206.068 77.8268 205.758 78.0568 205.358 78.2168ZM201.353 77.8118H203.513C204.063 77.8118 204.478 77.7118 204.758 77.5118C205.048 77.3118 205.193 77.0218 205.193 76.6418C205.193 75.8818 204.633 75.5018 203.513 75.5018H201.353V77.8118ZM203.663 81.2318C204.263 81.2318 204.713 81.1368 205.013 80.9468C205.313 80.7568 205.463 80.4618 205.463 80.0618C205.463 79.6518 205.323 79.3468 205.043 79.1468C204.773 78.9468 204.343 78.8468 203.753 78.8468H201.353V81.2318H203.663ZM209.157 74.3918H210.597V77.7668H215.127V74.3918H216.567V82.3418H215.127V79.0118H210.597V82.3418H209.157V74.3918ZM222.952 77.0918C223.952 77.1018 224.717 77.3318 225.247 77.7818C225.777 78.2318 226.042 78.8668 226.042 79.6868C226.042 80.5468 225.752 81.2118 225.172 81.6818C224.602 82.1418 223.782 82.3668 222.712 82.3568L219.367 82.3418V74.3918H220.807V77.0768L222.952 77.0918ZM227.227 74.3918H228.667V82.3418H227.227V74.3918ZM222.607 81.2618C223.257 81.2718 223.747 81.1418 224.077 80.8718C224.417 80.6018 224.587 80.2018 224.587 79.6718C224.587 79.1518 224.422 78.7718 224.092 78.5318C223.762 78.2918 223.267 78.1668 222.607 78.1568L220.807 78.1268V81.2468L222.607 81.2618ZM238.651 78.4118C238.651 78.5218 238.641 78.6668 238.621 78.8468H232.171C232.261 79.5468 232.566 80.1118 233.086 80.5418C233.616 80.9618 234.271 81.1718 235.051 81.1718C236.001 81.1718 236.766 80.8518 237.346 80.2118L238.141 81.1418C237.781 81.5618 237.331 81.8818 236.791 82.1018C236.261 82.3218 235.666 82.4318 235.006 82.4318C234.166 82.4318 233.421 82.2618 232.771 81.9218C232.121 81.5718 231.616 81.0868 231.256 80.4668C230.906 79.8468 230.731 79.1468 230.731 78.3668C230.731 77.5968 230.901 76.9018 231.241 76.2818C231.591 75.6618 232.066 75.1818 232.666 74.8418C233.276 74.4918 233.961 74.3168 234.721 74.3168C235.481 74.3168 236.156 74.4918 236.746 74.8418C237.346 75.1818 237.811 75.6618 238.141 76.2818C238.481 76.9018 238.651 77.6118 238.651 78.4118ZM234.721 75.5318C234.031 75.5318 233.451 75.7418 232.981 76.1618C232.521 76.5818 232.251 77.1318 232.171 77.8118H237.271C237.191 77.1418 236.916 76.5968 236.446 76.1768C235.986 75.7468 235.411 75.5318 234.721 75.5318ZM64.7639 92.3918V100.342H63.3239V93.6518H58.8389V100.342H57.3989V92.3918H64.7639ZM74.3753 92.3918V100.342H72.9353V93.6518H69.5153L69.4253 95.4218C69.3753 96.4918 69.2803 97.3868 69.1403 98.1068C69.0003 98.8168 68.7703 99.3868 68.4503 99.8168C68.1303 100.247 67.6853 100.462 67.1153 100.462C66.8553 100.462 66.5603 100.417 66.2303 100.327L66.3203 99.1118C66.4503 99.1418 66.5703 99.1568 66.6803 99.1568C67.0803 99.1568 67.3803 98.9818 67.5803 98.6318C67.7803 98.2818 67.9103 97.8668 67.9703 97.3868C68.0303 96.9068 68.0853 96.2218 68.1353 95.3318L68.2703 92.3918H74.3753ZM80.5646 100.432C79.7746 100.432 79.0646 100.257 78.4346 99.9068C77.8046 99.5568 77.3096 99.0768 76.9496 98.4668C76.5996 97.8468 76.4246 97.1468 76.4246 96.3668C76.4246 95.5868 76.5996 94.8918 76.9496 94.2818C77.3096 93.6618 77.8046 93.1818 78.4346 92.8418C79.0646 92.4918 79.7746 92.3168 80.5646 92.3168C81.3546 92.3168 82.0596 92.4918 82.6796 92.8418C83.3096 93.1818 83.7996 93.6618 84.1496 94.2818C84.5096 94.8918 84.6896 95.5868 84.6896 96.3668C84.6896 97.1468 84.5096 97.8468 84.1496 98.4668C83.7996 99.0768 83.3096 99.5568 82.6796 99.9068C82.0596 100.257 81.3546 100.432 80.5646 100.432ZM80.5646 99.1718C81.0746 99.1718 81.5296 99.0568 81.9296 98.8268C82.3396 98.5868 82.6596 98.2568 82.8896 97.8368C83.1196 97.4068 83.2346 96.9168 83.2346 96.3668C83.2346 95.8168 83.1196 95.3318 82.8896 94.9118C82.6596 94.4818 82.3396 94.1518 81.9296 93.9218C81.5296 93.6918 81.0746 93.5768 80.5646 93.5768C80.0546 93.5768 79.5946 93.6918 79.1846 93.9218C78.7846 94.1518 78.4646 94.4818 78.2246 94.9118C77.9946 95.3318 77.8796 95.8168 77.8796 96.3668C77.8796 96.9168 77.9946 97.4068 78.2246 97.8368C78.4646 98.2568 78.7846 98.5868 79.1846 98.8268C79.5946 99.0568 80.0546 99.1718 80.5646 99.1718ZM98.094 92.3918V100.342H86.769V92.3918H88.209V99.0818H91.719V92.3918H93.159V99.0818H96.654V92.3918H98.094ZM99.279 99.0818V102.037H97.929V100.342H96.594V99.0818H99.279ZM103.725 92.3168C104.825 92.3168 105.665 92.5868 106.245 93.1268C106.835 93.6668 107.13 94.4718 107.13 95.5418V100.342H105.765V99.2918C105.525 99.6618 105.18 99.9468 104.73 100.147C104.29 100.337 103.765 100.432 103.155 100.432C102.265 100.432 101.55 100.217 101.01 99.7868C100.48 99.3568 100.215 98.7918 100.215 98.0918C100.215 97.3918 100.47 96.8318 100.98 96.4118C101.49 95.9818 102.3 95.7668 103.41 95.7668H105.69V95.4818C105.69 94.8618 105.51 94.3868 105.15 94.0568C104.79 93.7268 104.26 93.5618 103.56 93.5618C103.09 93.5618 102.63 93.6418 102.18 93.8018C101.73 93.9518 101.35 94.1568 101.04 94.4168L100.44 93.3368C100.85 93.0068 101.34 92.7568 101.91 92.5868C102.48 92.4068 103.085 92.3168 103.725 92.3168ZM103.395 99.3218C103.945 99.3218 104.42 99.2018 104.82 98.9618C105.22 98.7118 105.51 98.3618 105.69 97.9118V96.8018H103.47C102.25 96.8018 101.64 97.2118 101.64 98.0318C101.64 98.4318 101.795 98.7468 102.105 98.9768C102.415 99.2068 102.845 99.3218 103.395 99.3218ZM117.808 99.0818V102.187H116.458V100.342H109.813V102.187H108.448V99.0818H108.868C109.378 99.0518 109.728 98.6918 109.918 98.0018C110.108 97.3118 110.238 96.3368 110.308 95.0768L110.428 92.3918H116.593V99.0818H117.808ZM111.628 95.1818C111.588 96.1818 111.503 97.0118 111.373 97.6718C111.253 98.3218 111.028 98.7918 110.698 99.0818H115.153V93.6518H111.703L111.628 95.1818ZM122.774 96.9818H121.124V100.342H119.684V92.3918H121.124V95.7518H122.804L125.384 92.3918H126.929L123.914 96.2168L127.139 100.342H125.444L122.774 96.9818ZM128.649 92.3918H130.089V98.1818L134.964 92.3918H136.269V100.342H134.829V94.5518L129.969 100.342H128.649V92.3918Z" fill="black"/>
<rect x="20.8203" y="124.428" width="24.1836" height="8.43848" fill="#FF4C4C"/>
<path d="M62.8139 130.283C63.8439 130.543 64.3589 131.188 64.3589 132.218C64.3589 132.918 64.0939 133.458 63.5639 133.838C63.0439 134.218 62.2639 134.408 61.2239 134.408H57.3989V126.458H61.0889C62.0289 126.458 62.7639 126.638 63.2939 126.998C63.8239 127.348 64.0889 127.848 64.0889 128.498C64.0889 128.918 63.9739 129.283 63.7439 129.593C63.5239 129.893 63.2139 130.123 62.8139 130.283ZM58.8089 129.878H60.9689C61.5189 129.878 61.9339 129.778 62.2139 129.578C62.5039 129.378 62.6489 129.088 62.6489 128.708C62.6489 127.948 62.0889 127.568 60.9689 127.568H58.8089V129.878ZM61.1189 133.298C61.7189 133.298 62.1689 133.203 62.4689 133.013C62.7689 132.823 62.9189 132.528 62.9189 132.128C62.9189 131.718 62.7789 131.413 62.4989 131.213C62.2289 131.013 61.7989 130.913 61.2089 130.913H58.8089V133.298H61.1189ZM73.7978 130.478C73.7978 130.588 73.7878 130.733 73.7678 130.913H67.3178C67.4078 131.613 67.7128 132.178 68.2328 132.608C68.7628 133.028 69.4178 133.238 70.1978 133.238C71.1478 133.238 71.9128 132.918 72.4928 132.278L73.2878 133.208C72.9278 133.628 72.4778 133.948 71.9378 134.168C71.4078 134.388 70.8128 134.498 70.1528 134.498C69.3128 134.498 68.5678 134.328 67.9178 133.988C67.2678 133.638 66.7628 133.153 66.4028 132.533C66.0528 131.913 65.8778 131.213 65.8778 130.433C65.8778 129.663 66.0478 128.968 66.3878 128.348C66.7378 127.728 67.2128 127.248 67.8128 126.908C68.4228 126.558 69.1078 126.383 69.8678 126.383C70.6278 126.383 71.3028 126.558 71.8928 126.908C72.4928 127.248 72.9578 127.728 73.2878 128.348C73.6278 128.968 73.7978 129.678 73.7978 130.478ZM69.8678 127.598C69.1778 127.598 68.5978 127.808 68.1278 128.228C67.6678 128.648 67.3978 129.198 67.3178 129.878H72.4178C72.3378 129.208 72.0628 128.663 71.5928 128.243C71.1328 127.813 70.5578 127.598 69.8678 127.598ZM82.7249 126.458V134.408H81.2849V127.718H77.8649L77.7749 129.488C77.7249 130.558 77.6299 131.453 77.4899 132.173C77.3499 132.883 77.1199 133.453 76.7999 133.883C76.4799 134.313 76.0349 134.528 75.4649 134.528C75.2049 134.528 74.9099 134.483 74.5799 134.393L74.6699 133.178C74.7999 133.208 74.9199 133.223 75.0299 133.223C75.4299 133.223 75.7299 133.048 75.9299 132.698C76.1299 132.348 76.2599 131.933 76.3199 131.453C76.3799 130.973 76.4349 130.288 76.4849 129.398L76.6199 126.458H82.7249ZM88.9143 134.498C88.1243 134.498 87.4143 134.323 86.7843 133.973C86.1543 133.623 85.6593 133.143 85.2993 132.533C84.9493 131.913 84.7743 131.213 84.7743 130.433C84.7743 129.653 84.9493 128.958 85.2993 128.348C85.6593 127.728 86.1543 127.248 86.7843 126.908C87.4143 126.558 88.1243 126.383 88.9143 126.383C89.7043 126.383 90.4093 126.558 91.0293 126.908C91.6593 127.248 92.1493 127.728 92.4993 128.348C92.8593 128.958 93.0393 129.653 93.0393 130.433C93.0393 131.213 92.8593 131.913 92.4993 132.533C92.1493 133.143 91.6593 133.623 91.0293 133.973C90.4093 134.323 89.7043 134.498 88.9143 134.498ZM88.9143 133.238C89.4243 133.238 89.8793 133.123 90.2793 132.893C90.6893 132.653 91.0093 132.323 91.2393 131.903C91.4693 131.473 91.5843 130.983 91.5843 130.433C91.5843 129.883 91.4693 129.398 91.2393 128.978C91.0093 128.548 90.6893 128.218 90.2793 127.988C89.8793 127.758 89.4243 127.643 88.9143 127.643C88.4043 127.643 87.9443 127.758 87.5343 127.988C87.1343 128.218 86.8143 128.548 86.5743 128.978C86.3443 129.398 86.2293 129.883 86.2293 130.433C86.2293 130.983 86.3443 131.473 86.5743 131.903C86.8143 132.323 87.1343 132.653 87.5343 132.893C87.9443 133.123 88.4043 133.238 88.9143 133.238ZM103.145 133.148V136.253H101.795V134.408H95.15V136.253H93.785V133.148H94.205C94.715 133.118 95.065 132.758 95.255 132.068C95.445 131.378 95.575 130.403 95.645 129.143L95.765 126.458H101.93V133.148H103.145ZM96.965 129.248C96.925 130.248 96.84 131.078 96.71 131.738C96.59 132.388 96.365 132.858 96.035 133.148H100.49V127.718H97.04L96.965 129.248ZM108.426 134.498C107.636 134.498 106.926 134.323 106.296 133.973C105.666 133.623 105.171 133.143 104.811 132.533C104.461 131.913 104.286 131.213 104.286 130.433C104.286 129.653 104.461 128.958 104.811 128.348C105.171 127.728 105.666 127.248 106.296 126.908C106.926 126.558 107.636 126.383 108.426 126.383C109.216 126.383 109.921 126.558 110.541 126.908C111.171 127.248 111.661 127.728 112.011 128.348C112.371 128.958 112.551 129.653 112.551 130.433C112.551 131.213 112.371 131.913 112.011 132.533C111.661 133.143 111.171 133.623 110.541 133.973C109.921 134.323 109.216 134.498 108.426 134.498ZM108.426 133.238C108.936 133.238 109.391 133.123 109.791 132.893C110.201 132.653 110.521 132.323 110.751 131.903C110.981 131.473 111.096 130.983 111.096 130.433C111.096 129.883 110.981 129.398 110.751 128.978C110.521 128.548 110.201 128.218 109.791 127.988C109.391 127.758 108.936 127.643 108.426 127.643C107.916 127.643 107.456 127.758 107.046 127.988C106.646 128.218 106.326 128.548 106.086 128.978C105.856 129.398 105.741 129.883 105.741 130.433C105.741 130.983 105.856 131.473 106.086 131.903C106.326 132.323 106.646 132.653 107.046 132.893C107.456 133.123 107.916 133.238 108.426 133.238ZM118.845 126.383C119.615 126.383 120.305 126.553 120.915 126.893C121.525 127.233 122 127.708 122.34 128.318C122.69 128.928 122.865 129.633 122.865 130.433C122.865 131.233 122.69 131.943 122.34 132.563C122 133.173 121.525 133.648 120.915 133.988C120.305 134.328 119.615 134.498 118.845 134.498C118.275 134.498 117.75 134.388 117.27 134.168C116.8 133.948 116.4 133.628 116.07 133.208V137.318H114.63V126.458H116.01V127.718C116.33 127.278 116.735 126.948 117.225 126.728C117.715 126.498 118.255 126.383 118.845 126.383ZM118.725 133.238C119.235 133.238 119.69 133.123 120.09 132.893C120.5 132.653 120.82 132.323 121.05 131.903C121.29 131.473 121.41 130.983 121.41 130.433C121.41 129.883 121.29 129.398 121.05 128.978C120.82 128.548 120.5 128.218 120.09 127.988C119.69 127.758 119.235 127.643 118.725 127.643C118.225 127.643 117.77 127.763 117.36 128.003C116.96 128.233 116.64 128.558 116.4 128.978C116.17 129.398 116.055 129.883 116.055 130.433C116.055 130.983 116.17 131.473 116.4 131.903C116.63 132.323 116.95 132.653 117.36 132.893C117.77 133.123 118.225 133.238 118.725 133.238ZM128.363 134.498C127.573 134.498 126.863 134.323 126.233 133.973C125.603 133.623 125.108 133.143 124.748 132.533C124.398 131.913 124.223 131.213 124.223 130.433C124.223 129.653 124.398 128.958 124.748 128.348C125.108 127.728 125.603 127.248 126.233 126.908C126.863 126.558 127.573 126.383 128.363 126.383C129.153 126.383 129.858 126.558 130.478 126.908C131.108 127.248 131.598 127.728 131.948 128.348C132.308 128.958 132.488 129.653 132.488 130.433C132.488 131.213 132.308 131.913 131.948 132.533C131.598 133.143 131.108 133.623 130.478 133.973C129.858 134.323 129.153 134.498 128.363 134.498ZM128.363 133.238C128.873 133.238 129.328 133.123 129.728 132.893C130.138 132.653 130.458 132.323 130.688 131.903C130.918 131.473 131.033 130.983 131.033 130.433C131.033 129.883 130.918 129.398 130.688 128.978C130.458 128.548 130.138 128.218 129.728 127.988C129.328 127.758 128.873 127.643 128.363 127.643C127.853 127.643 127.393 127.758 126.983 127.988C126.583 128.218 126.263 128.548 126.023 128.978C125.793 129.398 125.678 129.883 125.678 130.433C125.678 130.983 125.793 131.473 126.023 131.903C126.263 132.323 126.583 132.653 126.983 132.893C127.393 133.123 127.853 133.238 128.363 133.238ZM141.533 131.048H139.988V134.408H138.548V131.048H137.003L134.813 134.408H133.103L135.833 130.298L133.313 126.458H134.843L136.988 129.818H138.548V126.458H139.988V129.818H141.548L143.693 126.458H145.238L142.718 130.313L145.448 134.408H143.738L141.533 131.048ZM150.123 131.048H148.473V134.408H147.033V126.458H148.473V129.818H150.153L152.733 126.458H154.278L151.263 130.283L154.488 134.408H152.793L150.123 131.048ZM158.686 126.383C159.786 126.383 160.626 126.653 161.206 127.193C161.796 127.733 162.091 128.538 162.091 129.608V134.408H160.726V133.358C160.486 133.728 160.141 134.013 159.691 134.213C159.251 134.403 158.726 134.498 158.116 134.498C157.226 134.498 156.511 134.283 155.971 133.853C155.441 133.423 155.176 132.858 155.176 132.158C155.176 131.458 155.431 130.898 155.941 130.478C156.451 130.048 157.261 129.833 158.371 129.833H160.651V129.548C160.651 128.928 160.471 128.453 160.111 128.123C159.751 127.793 159.221 127.628 158.521 127.628C158.051 127.628 157.591 127.708 157.141 127.868C156.691 128.018 156.311 128.223 156.001 128.483L155.401 127.403C155.811 127.073 156.301 126.823 156.871 126.653C157.441 126.473 158.046 126.383 158.686 126.383ZM158.356 133.388C158.906 133.388 159.381 133.268 159.781 133.028C160.181 132.778 160.471 132.428 160.651 131.978V130.868H158.431C157.211 130.868 156.601 131.278 156.601 132.098C156.601 132.498 156.756 132.813 157.066 133.043C157.376 133.273 157.806 133.388 158.356 133.388Z" fill="black"/>
<rect x="20.8203" y="155.904" width="24.1836" height="8.43848" fill="#0035F3"/>
<path d="M61.4489 158.205C62.1889 158.205 62.8489 158.37 63.4289 158.7C64.0089 159.03 64.4589 159.49 64.7789 160.08C65.1089 160.66 65.2739 161.325 65.2739 162.075C65.2739 162.845 65.0989 163.53 64.7489 164.13C64.4089 164.72 63.9239 165.18 63.2939 165.51C62.6739 165.84 61.9639 166.005 61.1639 166.005C59.8139 166.005 58.7689 165.545 58.0289 164.625C57.2989 163.695 56.9339 162.39 56.9339 160.71C56.9339 159.08 57.2689 157.805 57.9389 156.885C58.6089 155.955 59.6339 155.34 61.0139 155.04L64.6439 154.23L64.8539 155.55L61.5089 156.27C60.4689 156.5 59.6939 156.89 59.1839 157.44C58.6739 157.99 58.3839 158.78 58.3139 159.81C58.6539 159.3 59.0939 158.905 59.6339 158.625C60.1739 158.345 60.7789 158.205 61.4489 158.205ZM61.1939 164.805C61.7039 164.805 62.1539 164.69 62.5439 164.46C62.9439 164.23 63.2539 163.915 63.4739 163.515C63.6939 163.105 63.8039 162.64 63.8039 162.12C63.8039 161.33 63.5639 160.695 63.0839 160.215C62.6039 159.735 61.9739 159.495 61.1939 159.495C60.4139 159.495 59.7789 159.735 59.2889 160.215C58.8089 160.695 58.5689 161.33 58.5689 162.12C58.5689 162.64 58.6789 163.105 58.8989 163.515C59.1289 163.915 59.4439 164.23 59.8439 164.46C60.2439 164.69 60.6939 164.805 61.1939 164.805ZM74.5155 161.955C74.5155 162.065 74.5055 162.21 74.4855 162.39H68.0355C68.1255 163.09 68.4305 163.655 68.9505 164.085C69.4805 164.505 70.1355 164.715 70.9155 164.715C71.8655 164.715 72.6305 164.395 73.2105 163.755L74.0055 164.685C73.6455 165.105 73.1955 165.425 72.6555 165.645C72.1255 165.865 71.5305 165.975 70.8705 165.975C70.0305 165.975 69.2855 165.805 68.6355 165.465C67.9855 165.115 67.4805 164.63 67.1205 164.01C66.7705 163.39 66.5955 162.69 66.5955 161.91C66.5955 161.14 66.7655 160.445 67.1055 159.825C67.4555 159.205 67.9305 158.725 68.5305 158.385C69.1405 158.035 69.8255 157.86 70.5855 157.86C71.3455 157.86 72.0205 158.035 72.6105 158.385C73.2105 158.725 73.6755 159.205 74.0055 159.825C74.3455 160.445 74.5155 161.155 74.5155 161.955ZM70.5855 159.075C69.8955 159.075 69.3155 159.285 68.8455 159.705C68.3855 160.125 68.1155 160.675 68.0355 161.355H73.1355C73.0555 160.685 72.7805 160.14 72.3105 159.72C71.8505 159.29 71.2755 159.075 70.5855 159.075ZM82.5995 159.195H78.1895V165.885H76.7495V157.935H82.5995V159.195ZM87.1271 165.975C86.3371 165.975 85.6271 165.8 84.9971 165.45C84.3671 165.1 83.8721 164.62 83.5121 164.01C83.1621 163.39 82.9871 162.69 82.9871 161.91C82.9871 161.13 83.1621 160.435 83.5121 159.825C83.8721 159.205 84.3671 158.725 84.9971 158.385C85.6271 158.035 86.3371 157.86 87.1271 157.86C87.9171 157.86 88.6221 158.035 89.2421 158.385C89.8721 158.725 90.3621 159.205 90.7121 159.825C91.0721 160.435 91.2521 161.13 91.2521 161.91C91.2521 162.69 91.0721 163.39 90.7121 164.01C90.3621 164.62 89.8721 165.1 89.2421 165.45C88.6221 165.8 87.9171 165.975 87.1271 165.975ZM87.1271 164.715C87.6371 164.715 88.0921 164.6 88.4921 164.37C88.9021 164.13 89.2221 163.8 89.4521 163.38C89.6821 162.95 89.7971 162.46 89.7971 161.91C89.7971 161.36 89.6821 160.875 89.4521 160.455C89.2221 160.025 88.9021 159.695 88.4921 159.465C88.0921 159.235 87.6371 159.12 87.1271 159.12C86.6171 159.12 86.1571 159.235 85.7471 159.465C85.3471 159.695 85.0271 160.025 84.7871 160.455C84.5571 160.875 84.4421 161.36 84.4421 161.91C84.4421 162.46 84.5571 162.95 84.7871 163.38C85.0271 163.8 85.3471 164.13 85.7471 164.37C86.1571 164.6 86.6171 164.715 87.1271 164.715ZM98.7465 161.76C99.7765 162.02 100.292 162.665 100.292 163.695C100.292 164.395 100.027 164.935 99.4965 165.315C98.9765 165.695 98.1965 165.885 97.1565 165.885H93.3315V157.935H97.0215C97.9615 157.935 98.6965 158.115 99.2265 158.475C99.7565 158.825 100.022 159.325 100.022 159.975C100.022 160.395 99.9065 160.76 99.6765 161.07C99.4565 161.37 99.1465 161.6 98.7465 161.76ZM94.7415 161.355H96.9015C97.4515 161.355 97.8665 161.255 98.1465 161.055C98.4365 160.855 98.5815 160.565 98.5815 160.185C98.5815 159.425 98.0215 159.045 96.9015 159.045H94.7415V161.355ZM97.0515 164.775C97.6515 164.775 98.1015 164.68 98.4015 164.49C98.7015 164.3 98.8515 164.005 98.8515 163.605C98.8515 163.195 98.7115 162.89 98.4315 162.69C98.1615 162.49 97.7315 162.39 97.1415 162.39H94.7415V164.775H97.0515ZM105.38 157.86C106.48 157.86 107.32 158.13 107.9 158.67C108.49 159.21 108.785 160.015 108.785 161.085V165.885H107.42V164.835C107.18 165.205 106.835 165.49 106.385 165.69C105.945 165.88 105.42 165.975 104.81 165.975C103.92 165.975 103.205 165.76 102.665 165.33C102.135 164.9 101.87 164.335 101.87 163.635C101.87 162.935 102.125 162.375 102.635 161.955C103.145 161.525 103.955 161.31 105.065 161.31H107.345V161.025C107.345 160.405 107.165 159.93 106.805 159.6C106.445 159.27 105.915 159.105 105.215 159.105C104.745 159.105 104.285 159.185 103.835 159.345C103.385 159.495 103.005 159.7 102.695 159.96L102.095 158.88C102.505 158.55 102.995 158.3 103.565 158.13C104.135 157.95 104.74 157.86 105.38 157.86ZM105.05 164.865C105.6 164.865 106.075 164.745 106.475 164.505C106.875 164.255 107.165 163.905 107.345 163.455V162.345H105.125C103.905 162.345 103.295 162.755 103.295 163.575C103.295 163.975 103.45 164.29 103.76 164.52C104.07 164.75 104.5 164.865 105.05 164.865ZM117.753 157.935V165.885H116.463V163.365H114.153H113.988L112.248 165.885H110.703L112.638 163.17C112.038 162.99 111.578 162.695 111.258 162.285C110.938 161.865 110.778 161.345 110.778 160.725C110.778 159.815 111.088 159.125 111.708 158.655C112.328 158.175 113.183 157.935 114.273 157.935H117.753ZM112.248 160.77C112.248 161.3 112.413 161.695 112.743 161.955C113.083 162.205 113.588 162.33 114.258 162.33H116.463V159.195H114.318C112.938 159.195 112.248 159.72 112.248 160.77ZM132.676 164.625V167.73H131.326V165.885H124.681V167.73H123.316V164.625H123.736C124.246 164.595 124.596 164.235 124.786 163.545C124.976 162.855 125.106 161.88 125.176 160.62L125.296 157.935H131.461V164.625H132.676ZM126.496 160.725C126.456 161.725 126.371 162.555 126.241 163.215C126.121 163.865 125.896 164.335 125.566 164.625H130.021V159.195H126.571L126.496 160.725ZM137.957 165.975C137.167 165.975 136.457 165.8 135.827 165.45C135.197 165.1 134.702 164.62 134.342 164.01C133.992 163.39 133.817 162.69 133.817 161.91C133.817 161.13 133.992 160.435 134.342 159.825C134.702 159.205 135.197 158.725 135.827 158.385C136.457 158.035 137.167 157.86 137.957 157.86C138.747 157.86 139.452 158.035 140.072 158.385C140.702 158.725 141.192 159.205 141.542 159.825C141.902 160.435 142.082 161.13 142.082 161.91C142.082 162.69 141.902 163.39 141.542 164.01C141.192 164.62 140.702 165.1 140.072 165.45C139.452 165.8 138.747 165.975 137.957 165.975ZM137.957 164.715C138.467 164.715 138.922 164.6 139.322 164.37C139.732 164.13 140.052 163.8 140.282 163.38C140.512 162.95 140.627 162.46 140.627 161.91C140.627 161.36 140.512 160.875 140.282 160.455C140.052 160.025 139.732 159.695 139.322 159.465C138.922 159.235 138.467 159.12 137.957 159.12C137.447 159.12 136.987 159.235 136.577 159.465C136.177 159.695 135.857 160.025 135.617 160.455C135.387 160.875 135.272 161.36 135.272 161.91C135.272 162.46 135.387 162.95 135.617 163.38C135.857 163.8 136.177 164.13 136.577 164.37C136.987 164.6 137.447 164.715 137.957 164.715ZM148.377 157.86C149.147 157.86 149.837 158.03 150.447 158.37C151.057 158.71 151.532 159.185 151.872 159.795C152.222 160.405 152.397 161.11 152.397 161.91C152.397 162.71 152.222 163.42 151.872 164.04C151.532 164.65 151.057 165.125 150.447 165.465C149.837 165.805 149.147 165.975 148.377 165.975C147.807 165.975 147.282 165.865 146.802 165.645C146.332 165.425 145.932 165.105 145.602 164.685V168.795H144.162V157.935H145.542V159.195C145.862 158.755 146.267 158.425 146.757 158.205C147.247 157.975 147.787 157.86 148.377 157.86ZM148.257 164.715C148.767 164.715 149.222 164.6 149.622 164.37C150.032 164.13 150.352 163.8 150.582 163.38C150.822 162.95 150.942 162.46 150.942 161.91C150.942 161.36 150.822 160.875 150.582 160.455C150.352 160.025 150.032 159.695 149.622 159.465C149.222 159.235 148.767 159.12 148.257 159.12C147.757 159.12 147.302 159.24 146.892 159.48C146.492 159.71 146.172 160.035 145.932 160.455C145.702 160.875 145.587 161.36 145.587 161.91C145.587 162.46 145.702 162.95 145.932 163.38C146.162 163.8 146.482 164.13 146.892 164.37C147.302 164.6 147.757 164.715 148.257 164.715ZM157.894 165.975C157.104 165.975 156.394 165.8 155.764 165.45C155.134 165.1 154.639 164.62 154.279 164.01C153.929 163.39 153.754 162.69 153.754 161.91C153.754 161.13 153.929 160.435 154.279 159.825C154.639 159.205 155.134 158.725 155.764 158.385C156.394 158.035 157.104 157.86 157.894 157.86C158.684 157.86 159.389 158.035 160.009 158.385C160.639 158.725 161.129 159.205 161.479 159.825C161.839 160.435 162.019 161.13 162.019 161.91C162.019 162.69 161.839 163.39 161.479 164.01C161.129 164.62 160.639 165.1 160.009 165.45C159.389 165.8 158.684 165.975 157.894 165.975ZM157.894 164.715C158.404 164.715 158.859 164.6 159.259 164.37C159.669 164.13 159.989 163.8 160.219 163.38C160.449 162.95 160.564 162.46 160.564 161.91C160.564 161.36 160.449 160.875 160.219 160.455C159.989 160.025 159.669 159.695 159.259 159.465C158.859 159.235 158.404 159.12 157.894 159.12C157.384 159.12 156.924 159.235 156.514 159.465C156.114 159.695 155.794 160.025 155.554 160.455C155.324 160.875 155.209 161.36 155.209 161.91C155.209 162.46 155.324 162.95 155.554 163.38C155.794 163.8 156.114 164.13 156.514 164.37C156.924 164.6 157.384 164.715 157.894 164.715ZM171.064 162.525H169.519V165.885H168.079V162.525H166.534L164.344 165.885H162.634L165.364 161.775L162.844 157.935H164.374L166.519 161.295H168.079V157.935H169.519V161.295H171.079L173.224 157.935H174.769L172.249 161.79L174.979 165.885H173.269L171.064 162.525ZM179.654 162.525H178.004V165.885H176.564V157.935H178.004V161.295H179.684L182.264 157.935H183.809L180.794 161.76L184.019 165.885H182.324L179.654 162.525ZM188.217 157.86C189.317 157.86 190.157 158.13 190.737 158.67C191.327 159.21 191.622 160.015 191.622 161.085V165.885H190.257V164.835C190.017 165.205 189.672 165.49 189.222 165.69C188.782 165.88 188.257 165.975 187.647 165.975C186.757 165.975 186.042 165.76 185.502 165.33C184.972 164.9 184.707 164.335 184.707 163.635C184.707 162.935 184.962 162.375 185.472 161.955C185.982 161.525 186.792 161.31 187.902 161.31H190.182V161.025C190.182 160.405 190.002 159.93 189.642 159.6C189.282 159.27 188.752 159.105 188.052 159.105C187.582 159.105 187.122 159.185 186.672 159.345C186.222 159.495 185.842 159.7 185.532 159.96L184.932 158.88C185.342 158.55 185.832 158.3 186.402 158.13C186.972 157.95 187.577 157.86 188.217 157.86ZM187.887 164.865C188.437 164.865 188.912 164.745 189.312 164.505C189.712 164.255 190.002 163.905 190.182 163.455V162.345H187.962C186.742 162.345 186.132 162.755 186.132 163.575C186.132 163.975 186.287 164.29 186.597 164.52C186.907 164.75 187.337 164.865 187.887 164.865Z" fill="black"/>
</svg>
