<svg width="1921" height="1080" viewBox="0 0 1921 1080" fill="none" xmlns="http://www.w3.org/2000/svg">
<mask id="mask0_4190_17336" style="mask-type:luminance" maskUnits="userSpaceOnUse" x="0" y="0" width="1921" height="1080">
<path d="M0.40625 0V1080H1920.41V0H0.40625ZM1736.77 576.837L1742.69 572.642L1795.22 592.948L1792.22 605.236L1781.43 607.634L1733.85 589.051L1736.77 576.837H1736.77ZM1656 562.228L1673.84 553.385L1677.66 555.034L1683.95 551.962L1699.46 558.106L1705.38 553.836L1723.74 560.953L1720.07 577.063L1714.22 581.033L1685.6 569.718L1663.35 581.033L1653.01 576.238L1656.01 562.228H1656ZM1539.64 516.972C1539.64 516.972 1546.83 513.9 1547.21 513.675C1547.58 513.449 1580.33 530.007 1580.33 530.007L1578.45 539.597L1566.91 540.895L1538.14 526.784L1539.64 516.969V516.972ZM1560.92 550.239L1561.67 544.994C1561.67 544.994 1568.19 543.271 1568.56 543.197C1568.94 543.122 1574.63 547.167 1574.63 547.167L1573.77 552.187L1573.06 552.487L1577.55 555.559L1576.66 560.428C1576.66 560.428 1570.21 562.376 1569.99 562.45L1559.65 556.007L1560.4 550.912L1561.75 550.462L1560.92 550.237L1560.92 550.239ZM1544.66 554.284L1551.18 552.185L1557.4 556.155L1556.65 561.326L1549.83 563.5L1543.76 559.529L1544.66 554.284H1544.66ZM1531.7 551.363L1525.63 547.241V545.48L1530.28 543.57L1543.76 539.899L1544.73 539.6L1551.78 544.169L1551.48 545.966L1531.7 551.36L1531.7 551.363ZM1492.06 490.747L1505.1 486.925L1514.62 491.72L1514.84 490.071L1522.71 486.925L1537.17 494.042L1533.2 517.269L1525.71 520.341C1525.26 520.267 1502.7 509.102 1502.7 509.102L1479.02 516.626C1479.45 516.936 1479.7 517.118 1479.7 517.118L1477.98 529.582C1480.52 528.932 1485.75 527.588 1485.92 527.532C1486.15 527.458 1494.09 533.077 1494.09 533.077L1498.66 531.879L1511.1 540.639L1509 554.056C1509 554.056 1499.93 556.455 1499.71 556.529L1475.28 539.671L1476.25 532.708L1468.46 534.877L1444.71 518.544C1444.71 518.544 1446.36 507.228 1446.59 507.08C1446.81 506.929 1455.2 504.907 1455.5 504.832C1455.8 504.758 1463.37 510.004 1463.37 510.004C1463.37 510.004 1467.64 508.88 1467.87 508.805C1467.91 508.79 1468.37 509.087 1469.08 509.573C1469.55 506.03 1470.19 501.013 1470.19 501.013L1491.54 494.495L1492.07 490.75L1492.06 490.747ZM1498.66 657.234L1506.3 656.561L1507.95 658.583C1507.95 658.583 1521.29 657.309 1521.51 657.309C1521.74 657.309 1526.76 664.425 1526.76 664.425L1524.73 677.087C1524.73 677.087 1490.34 680.159 1490.04 680.085C1490.04 680.085 1470.71 659.031 1470.64 658.806C1470.56 658.581 1472.81 644.419 1472.81 644.419L1468.84 644.718L1464.94 639.773L1465.69 634.302L1469.37 633.928L1466.59 630.782L1467.49 625.163L1475.88 624.113L1483.38 632.131L1486.3 631.606L1494.24 640.072L1494.16 640.523L1508.4 638.649H1510.5C1510.8 638.649 1515.75 644.342 1515.75 644.342L1515.29 646.216L1492.67 649.439L1492.44 650.637L1498.66 657.232L1498.66 657.234ZM1375.78 560.128L1357.5 540.798L1358.99 525.064C1358.99 525.064 1374.05 521.841 1374.35 521.841C1374.65 521.841 1378.02 524.839 1378.02 524.839C1378.02 524.839 1389.34 522.292 1389.56 522.217C1389.79 522.143 1396.31 527.537 1396.31 527.537L1394.58 539.001L1387.02 540.642L1388.36 542.446L1387.07 554.576C1390.22 554.043 1394.74 553.36 1394.88 553.311C1395.11 553.237 1405.67 564.549 1405.67 564.549C1405.67 564.549 1409.27 563.95 1409.49 563.95C1409.72 563.95 1414.74 569.27 1414.97 569.421C1415.19 569.572 1421.86 568.822 1422.16 568.822C1422.46 568.822 1426.81 574.741 1426.81 574.741L1424.48 590.925C1424.48 590.925 1407.33 592.5 1407.1 592.5L1382.6 566.951C1382.6 566.951 1383.24 562.041 1383.68 558.564L1375.78 560.133L1375.78 560.128ZM1337.3 564.849C1337.3 564.849 1323.85 550.539 1323.85 550.313C1323.85 550.088 1288.86 553.311 1288.86 553.311L1285.19 547.467L1286.61 533.829L1314.86 531.431V529.483C1314.86 529.483 1331.35 528.133 1331.57 528.133C1331.8 528.133 1341.01 538.174 1341.01 538.174L1340.71 541.996L1346.49 548.608L1346.56 547.991C1346.56 547.991 1357.27 546.343 1357.5 546.268C1357.72 546.194 1366.34 555.559 1366.34 555.559L1364.84 567.547L1373.98 577.214C1373.98 577.214 1372.56 589.202 1372.56 589.428C1372.56 589.653 1361.85 591.002 1361.62 591.076L1344.01 571.971L1344.91 563.528L1337.31 564.852L1337.3 564.849ZM1332.99 732.012C1333.09 732.311 1332.3 737.206 1332.3 737.206L1321.9 736.707C1321.9 736.707 1321.11 727.117 1321.21 726.818C1321.31 726.518 1321.7 721.524 1321.7 721.524L1331.39 721.823L1332.29 716.429C1332.29 716.429 1342.08 717.527 1342.58 717.527C1343.09 717.527 1342.58 723.021 1342.58 723.021L1341.89 728.814L1332.65 727.816C1332.65 727.816 1332.89 731.712 1332.99 732.012ZM1320.61 696.546V689.503L1322.5 674.317L1339.29 675.866L1339.41 678.139L1364.24 680.238L1364.52 681.009L1366.55 681.086L1366.96 690.553L1363.76 716.427L1349.88 715.129L1349.43 699.244L1320.6 696.546H1320.61ZM1321.9 710.631V718.823C1321.9 718.823 1292.63 717.026 1292.33 716.926L1291.83 711.033V708.734C1291.83 708.734 1296.63 708.235 1296.93 708.235C1297.23 708.235 1317.41 709.732 1317.71 709.732C1318.01 709.732 1321.9 710.631 1321.9 710.631ZM1305.2 684.58C1305.2 684.805 1304 694.994 1304 694.994L1274.1 692.296L1266.23 723.016L1252.82 720.617C1252.82 720.617 1254.02 708.104 1254.02 707.879C1254.02 707.654 1257.09 696.19 1257.09 696.154C1257.09 696.118 1257.54 691.62 1257.54 691.62L1260.46 680.082L1260.84 679.857L1263.76 669.292L1283.91 670.94L1283.99 675.211L1305.19 677.233V684.575L1305.2 684.58ZM1222.3 520.415L1222.8 513.757L1217.41 514.622L1205.22 500.985L1205.72 491.244C1205.72 491.244 1223.3 487.348 1223.25 487.348C1223.2 487.348 1229.1 492.468 1229.1 492.468L1228.36 506.217C1230.97 505.808 1233.64 505.383 1233.79 505.332C1234.09 505.232 1245.38 518.618 1245.38 518.618L1244.58 532.329C1244.58 532.329 1234.09 533.604 1233.79 533.704L1222.3 520.418V520.415ZM1231.84 575.26C1231.84 575.56 1231.54 579.83 1231.54 579.83L1218.28 579.456C1218.28 579.456 1216.86 554.056 1216.93 553.831C1217.01 553.605 1217.31 548.585 1217.31 548.585C1217.31 548.585 1229.97 549.036 1230.2 549.036C1230.42 549.036 1231.84 574.961 1231.84 575.26ZM1251.07 431.401C1251.23 431.401 1257.97 429.453 1257.97 429.453L1264.56 433.549L1263.54 446.288L1247.08 450.834L1227.7 435.7C1227.7 435.7 1227.98 432.1 1228.32 427.82L1221.31 430.405L1217.41 425.81L1217.96 416.62C1217.96 416.62 1247.68 405.781 1247.83 405.781C1247.98 405.781 1255.27 409.278 1255.27 409.278L1254.52 418.169L1247.04 420.926L1246.58 427.958C1246.58 427.958 1250.93 431.404 1251.08 431.404L1251.07 431.401ZM1240.58 499.036L1235.09 494.341L1236.99 471.662L1248.88 469.064L1254.39 473.659L1253.87 481.078L1265.26 478.679L1273.05 484.672L1276.87 483.961L1286.46 491.641L1285.91 497.411L1294.26 495.611L1304 503.854L1303.55 507.377L1315.68 517.417L1314.41 529.032L1294.25 532.03L1289.23 526.71L1289.83 518.992L1283.09 513.221L1283.83 505.14L1275.67 507.003L1260.77 494.841L1240.58 499.036ZM1301.75 486.774L1302.12 481.905L1308.57 480.256L1316.51 486.249L1316.06 490.745L1309.76 492.468L1301.74 486.774H1301.75ZM1249.23 532.329C1249.23 532.329 1270.06 532.406 1270.36 532.329C1270.66 532.255 1272.38 538.1 1272.38 538.1L1270.8 553.91H1262.56L1263.69 568.221L1262.56 582.083L1250.35 581.469C1250.35 581.469 1247.57 548.665 1247.57 548.439C1247.57 548.214 1249.22 532.329 1249.22 532.329H1249.23ZM1290.81 582.38L1281.89 582.229L1280.77 577.508L1281.37 572.562H1290.13L1291.33 577.027L1300.32 577.283L1301.6 585.001C1301.6 585.001 1301.07 590.096 1301.07 590.321C1301.07 590.546 1292.16 589.87 1292.16 589.87L1290.81 582.377L1290.81 582.38ZM1295.91 575.862L1295.16 571.067L1295.53 569.193L1299.88 568.669L1318.16 569.193L1321.68 570.243L1322.2 575.263V577.06L1295.91 575.862ZM1316.44 579.833H1325.35C1325.35 579.833 1326.63 584.103 1326.63 584.328C1326.63 584.553 1326.1 589.049 1326.03 589.274C1325.95 589.499 1317.41 589.274 1316.96 589.274L1315.91 584.604L1316.44 579.835L1316.44 579.833ZM1420.58 532.255L1412.49 534.429L1405.52 529.334C1405.52 529.334 1406.95 516.073 1407.1 515.848C1407.25 515.623 1424.11 511.353 1424.48 511.278C1424.85 511.204 1450.18 528.661 1450.18 528.661L1448.23 542.597L1439.09 545.145L1420.58 532.258V532.255ZM1438.19 569.943C1438.19 569.943 1485.17 561.326 1485.4 561.326C1485.62 561.326 1487.42 567.545 1487.42 567.545C1487.42 567.545 1485.54 579.607 1485.54 579.833C1485.54 580.058 1443.36 587.625 1442.99 587.7L1436.54 581.855L1438.19 569.941V569.943ZM1494.69 629.509C1494.69 629.21 1495.51 624.116 1495.51 624.116C1495.51 624.116 1503.68 623.217 1503.98 623.143C1504.28 623.069 1508.25 628.012 1508.25 628.012C1508.25 628.012 1507.27 633.183 1507.27 633.406C1507.27 633.629 1498.96 634.379 1498.73 634.379C1498.73 634.379 1494.69 629.809 1494.69 629.509ZM1418.56 448.712L1420.66 444.142L1473.48 464.523V466.32C1473.48 466.545 1491.16 473.288 1491.16 473.288C1491.16 473.288 1489.14 486.027 1489.22 486.326C1489.29 486.626 1475.43 492.396 1475.28 492.47L1466.59 488.349L1467.11 483.779L1416.54 463.698L1418.56 448.712ZM1416.16 477.635C1416.16 477.635 1415.79 481.006 1415.71 481.306C1415.64 481.605 1436.17 492.47 1436.17 492.47C1436.17 492.47 1434.52 503.409 1434.52 503.634C1434.52 503.86 1426.5 506.407 1426.5 506.407C1426.5 506.407 1393.76 488.574 1393.46 488.574C1393.16 488.574 1395.11 473.739 1395.18 473.513C1395.25 473.288 1403.2 470.741 1403.2 470.741L1416.16 477.635H1416.16ZM1348.43 470.741L1356.52 467.894L1359.49 469.502L1360.27 460.926L1377.35 456.579L1378.77 443.467C1378.77 443.467 1392.56 440.021 1392.78 439.944C1393.01 439.87 1399.6 444.14 1399.6 444.14L1396.9 466.468L1382.74 470.29L1381.92 475.536C1381.92 475.536 1374.57 478.157 1374.27 478.157L1369.08 475.295C1369.05 475.751 1369.03 476.334 1369.03 476.508C1369.03 476.808 1381.69 483.702 1381.69 483.702C1381.69 483.702 1381.38 486.454 1381.05 489.493C1383.25 488.96 1384.91 488.574 1384.91 488.574L1390.68 492.02C1390.68 492.02 1392.03 491.569 1392.26 491.421C1392.48 491.269 1408.07 500.112 1408.07 500.112L1406.72 511.575C1406.72 511.575 1375.1 520.492 1374.72 520.341C1374.72 520.341 1367.68 515.694 1367.45 515.546C1367.3 515.446 1368.72 505.214 1369.66 498.407L1346.7 485.799L1348.42 470.738L1348.43 470.741ZM1341.76 501.612V503.486L1347.6 508.132L1353.97 507.083L1359.44 512.402L1358.02 523.866L1342.36 526.413L1320.78 508.844L1321.83 498.99L1320.78 498.092V496.295L1324.75 494.646L1338.61 491.275H1340.26L1346.03 495.171L1345.81 496.968L1338.61 498.765L1341.76 501.612H1341.76ZM1323.03 483.63L1323.48 478.91L1330.22 477.412L1334.87 481.009L1334.42 485.804L1327.6 487.301L1323.03 483.63H1323.03ZM1328.8 443.17V444.967L1330.9 446.091L1334.57 444.967L1341.38 449.088L1340.78 454.933L1331.19 457.705L1327.97 455.908L1319.06 458.455V460.03L1311.04 462.277L1305.94 459.054V457.332L1303.77 456.057L1300.1 457.18L1293.36 452.985L1293.88 447.14L1303.47 444.142L1306.84 446.242L1315.68 443.769V442.12L1323.33 439.947L1328.8 443.17ZM1294.13 422.715L1294.23 420.368L1291.73 419.218L1292.13 414.472L1297.18 412.373L1298.68 413.072L1302.12 411.623L1316.76 418.665L1315.71 431.253L1276.24 442.591L1269.75 438.444C1269.75 438.444 1270.9 424.259 1270.9 424.057C1270.9 423.854 1276.79 422.26 1276.79 422.26L1268.05 418.663V416.866C1268.05 416.866 1273.79 414.367 1273.94 414.318C1274.09 414.27 1274.74 414.267 1274.89 414.267C1275.04 414.267 1287.23 419.313 1287.23 419.313L1290.93 421.712L1290.88 423.161L1290.58 423.711L1294.12 422.713L1294.13 422.715ZM1263.87 407.581L1269.19 405.52L1274.66 408.067C1274.66 408.067 1282.72 404.509 1282.87 404.509C1283.02 404.509 1288.67 407.017 1288.79 407.017C1288.9 407.017 1288.34 411.625 1288.34 411.625C1288.34 411.625 1280.24 415.184 1280.13 415.184C1280.02 415.184 1274.29 412.675 1274.29 412.675L1269.19 414.736L1263.53 412.227L1263.87 407.581ZM1218.6 391.895L1221.82 390.784L1222.05 385.603C1222.05 385.603 1225.35 381.758 1225.55 381.858C1225.75 381.957 1259.26 388.652 1259.26 388.652L1258.71 397.243L1251.02 400.29C1250.94 400.318 1242.37 398.608 1234.51 397.033C1234.21 401.086 1233.84 406.144 1233.84 406.234C1233.84 406.234 1200.72 417.972 1200.57 418.097C1200.42 418.222 1193.73 414.426 1193.73 414.426C1193.73 414.426 1194.42 402.338 1194.42 402.138C1194.42 401.938 1206.36 397.891 1206.51 397.791C1206.66 397.691 1208.66 398.841 1208.66 398.841L1218.35 395.344L1218.6 391.898L1218.6 391.895ZM1128.69 589.154C1128.69 589.154 1129.49 573.668 1129.49 573.369C1129.49 573.069 1130.44 567.074 1130.44 567.074L1160.26 569.372V573.369L1168.15 573.824L1167.35 571.369C1167.35 571.07 1168.15 564.214 1168.15 564.214H1166.46L1164.06 549.292H1156.86L1157.46 537.204L1157.96 531.61L1166.25 532.334L1166.35 531.354L1177.84 531.61L1179.74 540.644L1178.84 557.21H1180.14L1181.84 566.877V569.175L1183.53 581.064L1182.84 593.052L1128.69 589.156L1128.69 589.154ZM1141.38 601.941L1140.78 614.029L1131.29 634.01H1128.44L1127.99 641.091L1122.3 653.591L1082.54 649.396L1083.04 638.905L1084.83 632.287L1104.51 634.309L1105.61 630.413L1113.7 631.112L1116.4 625.119L1119.5 625.618L1119.9 616.128L1124.89 605.837L1126.49 606.237L1129.39 599.842L1141.38 601.941ZM1164.36 493.847L1167.65 494.746L1168.15 500.99L1143.78 500.439L1143.28 496.144L1143.52 494.247L1146.58 493.448L1164.36 493.847ZM1162.56 488.953L1163.16 480.261H1171.25V484.557L1170.75 488.953C1170.75 488.953 1162.96 489.053 1162.56 488.953ZM1160.26 529.613L1161.52 508.933L1175.95 509.932L1175.75 513.828L1181.24 514.133L1175.25 507.008L1175.95 497.541L1185.94 496.144L1196.93 508.931L1196.62 514.985L1204.52 515.423L1204.12 521.117L1203.22 532.329L1160.26 529.608L1160.26 529.613ZM1166.9 392.648C1166.9 392.497 1173.85 387.354 1174 387.303C1174.15 387.252 1177.4 388.153 1177.4 388.153L1181.44 385.206C1181.44 385.206 1182.24 372.918 1182.29 372.718C1182.34 372.519 1187.98 368.622 1188.13 368.523C1188.29 368.423 1196.98 370.821 1196.98 370.821L1196.73 374.267L1211.36 377.265L1210.56 387.756C1210.56 387.756 1207.12 391.253 1206.92 391.401C1206.72 391.55 1198.43 389.553 1198.43 389.553C1198.43 389.553 1187.83 397.645 1187.64 397.694C1187.44 397.742 1187.14 406.784 1187.14 406.784L1181.44 410.107L1166.16 404.987C1166.16 404.987 1166.91 392.799 1166.91 392.648H1166.9ZM1177.44 434.706C1177.67 434.706 1177.29 438.152 1177.29 438.152C1177.29 438.152 1181.04 436.355 1181.26 436.278C1181.49 436.204 1195.35 442.197 1195.35 442.197L1194.82 447.967L1184.26 453.287L1193.73 457.257L1193.17 463.102L1184.63 467.372L1145.15 450.837V447.514L1140.58 445.64L1140.95 439.647L1159.46 430.956L1159.53 430.405L1162.98 428.857C1162.98 428.857 1177.21 434.701 1177.44 434.701L1177.44 434.706ZM1121.77 380.534C1121.84 380.352 1123.66 372.24 1124.44 369.175C1124.62 368.494 1125.23 368.021 1125.93 368.023C1132.19 368.036 1161.21 368.087 1161.41 368.023C1161.64 367.949 1160.66 381.284 1160.66 381.284L1139.76 396.795L1121.17 394.023C1121.17 394.023 1121.7 380.762 1121.77 380.537L1121.77 380.534ZM1112.21 510.633L1116.4 500.342L1118.8 500.442C1118.8 500.442 1123.4 489.951 1123.6 489.652C1123.73 489.454 1128.48 490.128 1131.69 490.606V483.756L1139.58 484.055L1139.68 478.162H1148.17L1148.57 484.657L1148.17 488.953H1139.58V492.475L1134.52 492.511L1134.18 500.342L1131.29 506.537L1135.18 507.011L1135.28 508.933L1149.47 509.932L1148.77 523.019L1147.67 528.812L1111.41 525.914L1112.2 510.628L1112.21 510.633ZM1108.74 608.912L1105.59 613.481L1096.82 611.607V606.362L1100.2 601.867L1108.74 603.741V608.912H1108.74ZM1107.91 555.19L1107.21 579.067L1101.62 584.661L1068.15 575.071V565.182L1082.84 546.1L1083.09 540.393L1089.73 532.04L1092.23 532.34L1095.83 527.419L1107.12 529.718L1106.62 540.652L1098.03 552.297L1107.92 555.195L1107.91 555.19ZM1083.74 596.549V601.57L1078.84 609.137L1070.15 607.34L1066.85 611.687L1058.16 609.89L1058.42 604.419L1061.53 600.105L1070.22 602.248L1075.02 594.755L1083.73 596.552L1083.74 596.549ZM1029.59 441.652C1029.59 441.652 1029.59 440.402 1031.84 439.703C1034.36 438.92 1039.98 438.009 1042.18 437.604C1046.27 436.854 1044.57 439.752 1044.97 440.402C1045.97 442.03 1052.47 441.9 1052.47 441.9C1052.47 441.9 1059.05 441.257 1059.46 439.453C1059.48 439.35 1059.16 439.153 1059.16 439.153V434.458C1059.2 434.212 1059.46 433.508 1059.46 433.508C1059.46 433.508 1061.27 431.499 1061.91 430.861C1062.91 429.863 1064.95 429.812 1064.95 429.812C1064.95 429.812 1085.49 428.176 1092.33 427.612C1095.97 427.313 1098.52 429.712 1098.47 430.759C1098.42 432.146 1098.17 436.053 1098.17 436.053L1090.63 443.495C1090.63 443.495 1089.03 444.593 1086.74 444.493C1085.46 444.437 1081.64 444.142 1081.64 444.142C1081.64 444.142 1084.73 444.944 1085.44 445.691C1085.97 446.257 1086.44 448.638 1086.44 448.638C1086.59 449.037 1086.46 452.173 1086.38 452.985C1086.28 454.083 1084.39 454.633 1084.39 454.633C1084.39 454.633 1066.56 458.11 1066.36 458.13C1064.76 458.284 1062.16 458.161 1060.01 457.081C1058.47 456.308 1056.6 453.141 1055.17 452.186C1053.21 450.883 1048.56 449.518 1046.22 449.288C1036.53 448.338 1033.64 451.835 1030.69 448.989C1030.26 448.576 1029.59 446.889 1029.59 446.889V441.644L1029.59 441.652ZM1028.07 630.761L1031.94 618.504L1032.09 614.459L1034.71 606.367L1047 607.565L1046.7 624.049L1045.8 625.846L1051.79 626.371L1052.02 620.826L1054.04 614.157L1069.62 615.88L1069.61 616.366L1072.47 612.135H1076.14L1093.97 615.657L1098.4 617.306V619.18L1095.25 624.274L1069.53 619.188L1068.95 640.758L1067 647.652L1027.82 643.231L1028.07 630.761H1028.07ZM1040.52 691.159V689.262L1041.67 682.768H1045.67L1066.05 684.365L1070.25 685.563V687.56L1069.35 693.43L1040.52 691.157V691.159ZM1046.47 695.143V700.749L1044.97 706.243C1044.97 706.243 1035.68 705.344 1035.08 705.344V699.851L1036.78 694.357L1046.47 695.143ZM1021.14 669.156C1021.14 668.931 1032.83 652.972 1033.06 652.747C1033.28 652.521 1045.05 655.668 1045.05 655.668L1044.75 665.933L1033.36 682.768L1021.14 679.621V669.156ZM983.424 496.525C983.424 496.525 1014.4 483.564 1014.63 483.487C1014.85 483.413 1015.38 503.867 1015.38 503.867V513.833C1015.38 513.833 983.531 506.266 983.306 506.266L983.424 496.525ZM751.905 542.756L743.713 547.403C743.713 547.403 728.927 540.808 728.678 540.652L727.88 526.923L738.819 519.88L741.018 520.53C741.018 520.53 756.603 510.441 756.751 510.29C756.902 510.139 765.842 513.437 765.842 513.437L766.441 524.826L751.455 534.715L751.905 542.756ZM661.343 562.586C661.343 562.586 633.62 580.619 633.469 580.718C633.318 580.818 617.736 573.276 617.536 573.325C617.536 573.325 617.17 569.442 616.827 565.765C613.225 566.674 607.004 568.244 606.897 568.279L581.891 556.798C581.891 556.798 581.023 546.901 580.971 546.752C580.92 546.601 589.914 542.357 589.914 542.357L618.186 555.395L618.504 558.075C621.153 556.698 625.18 554.696 625.18 554.696L631.875 557.694L638.318 553.649C638.318 553.649 637.419 543.808 637.419 543.66C637.419 543.511 650.007 535.719 650.207 535.568C650.386 535.435 657.431 537.961 658.954 538.509L666.191 533.87L665.841 530.125C665.841 530.125 673.882 525.878 674.084 525.73C674.283 525.579 688.97 532.324 688.97 532.324L689.969 543.962C689.969 543.962 669.338 557.3 669.189 557.448L660.631 554.42L661.345 562.594L661.343 562.586ZM513.836 527.921V525.973L519.13 521.928C519.13 521.928 520.527 521.728 520.678 521.728C520.829 521.728 535.365 524.926 535.365 524.926L540.16 526.723V528.571L534.966 532.718C534.966 532.718 514.086 527.924 513.836 527.924V527.921ZM527.473 539.51L522.726 543.406L515.284 542.009C515.284 542.009 514.634 537.163 514.634 537.014C514.634 536.866 519.181 533.069 519.181 533.069L526.723 534.518L527.473 539.513V539.51ZM522.678 518.431C522.678 518.431 511.14 517.632 510.889 517.681L509.24 504.295L536.164 487.911L544.855 490.609L546.404 503.895L522.678 518.431ZM603.499 372.972L615.037 367.578L622.231 370.051L629.499 366.605L641.613 372.15L642.163 380.693L634.57 383.614L629.199 381.292L611.817 389.384L608.072 387.81L609.234 399.109L616.164 396.35L624.256 400.172L626.053 399.573L636.319 404.519L637.368 416.958L629.276 420.181L609.047 409.941L608.451 403.582L601.48 406.395L582.374 396.954C582.374 396.954 581.025 385.04 581.176 384.817C581.327 384.592 589.343 381.072 589.343 381.072V380.173L597.435 377.252L604.329 380.549L603.505 372.982L603.499 372.972ZM594.657 326.667C593.907 326.516 593.907 326.068 593.907 326.068V324.199C593.907 324.012 594.01 323.84 594.173 323.751L597.12 322.133C597.512 321.918 597.972 321.856 598.405 321.961L648.438 334.139C648.668 334.196 648.829 334.4 648.829 334.636V336.556L646.282 338.204C646.282 338.204 645.197 338.99 643.435 338.578L594.657 326.664V326.667ZM646.807 505.193C646.807 505.193 645.558 492.007 645.609 491.707C645.66 491.408 658.647 484.014 658.847 483.915C659.046 483.815 667.29 486.662 667.438 486.713C667.587 486.764 668.037 493.806 668.037 493.806L678.177 498.253L679.275 511.591L671.135 515.787L646.81 505.196L646.807 505.193ZM661.343 531.367L652.951 535.762C652.951 535.762 627.725 524.473 627.576 524.424C627.425 524.373 626.278 510.938 626.327 510.787C626.378 510.636 634.419 506.742 634.57 506.591C634.721 506.44 645.21 511.186 645.21 511.186L647.107 510.288L659.994 515.932L661.343 531.367ZM632.97 497.649C632.771 497.7 617.285 492.455 617.285 492.455L615.836 479.217L623.178 474.87L630.62 477.392L637.015 473.421L636.116 463.98L647.754 457.137C647.754 457.137 656.146 459.835 656.297 459.784C656.448 459.733 658.245 482.412 658.245 482.412C658.245 482.412 633.17 497.598 632.97 497.646V497.649ZM577.5 581.044C577.5 581.044 569.933 579.469 569.707 579.546L569.183 574.375L573.245 570.179L581.622 571.753L582.147 576.699L577.5 581.046V581.044ZM582.221 588.386L587.241 590.334V592.208L581.847 596.777L559.37 591.307L559.252 589.509L564.616 584.789H566.49L582.223 588.386H582.221ZM565.988 540.908L557.445 538.061C557.445 538.061 556.247 528.571 556.196 528.372C556.145 528.172 569.034 520.43 569.034 520.43L568.484 514.786L581.171 507.193L585.567 508.69L592.561 504.443L591.762 495.801L600.154 491.705C600.154 491.705 614.039 497.948 614.039 497.797C614.039 497.646 615.388 511.135 615.388 511.135L565.985 540.905L565.988 540.908ZM611.543 465.631L603.502 462.933C603.502 462.933 602.353 452.043 602.353 451.894C602.353 451.746 625.48 438.756 625.48 438.756L633.572 441.355L634.57 452.393L611.543 465.631ZM550.676 380.24L549.102 366.229V362.484L580.047 360.011L584.617 363.682L586.115 377.467L550.674 380.24H550.676ZM567.46 398.411L564.539 401.37L557.571 400.697L556.897 396.35L559.895 393.052L566.863 394.025L567.462 398.408L567.46 398.411ZM556.895 385.26C557.046 385.109 559.667 385.26 559.667 385.26H561.242L564.613 385.859V387.433L555.996 396.35L549.599 395.753L550.075 399.57L547.302 402.793L535.465 401.744L534.792 397.323L537.938 394.025L548.429 395.244V394.025C548.429 394.025 556.746 385.408 556.895 385.26ZM542.659 404.066L554.573 405.264L555.023 409.759L551.951 412.982L540.188 411.858L539.589 407.437L542.661 404.066H542.659ZM545.805 484.311L561.889 476.818L566.136 478.715L565.885 475.318C565.885 475.318 574.177 471.373 574.377 471.322C574.466 471.299 576.952 472.397 579.64 473.603L578.673 463.381L591.959 455.788L600.202 458.435L601.3 469.174L610.243 473.119L611.192 482.509L603.1 486.405L586.729 479.455L588.964 499.444L580.521 503.54C580.521 503.54 562.089 495.399 561.889 495.348C561.69 495.296 554.547 498.793 554.547 498.793L547.154 495.647L545.805 484.309V484.311ZM561.764 604.419L572.477 606.367L594.731 588.309L594.657 586.135L591.736 585.385L591.211 580.365L599.153 573.323L606.945 575.197L607.396 580.217L604.173 583.063L607.019 583.813L607.245 585.611L610.691 586.66L612.265 600.745L578.173 628.619L557.642 624.797L555.768 610.711L561.761 604.416L561.764 604.419ZM705.198 511.435L712.292 507.589C712.292 507.589 712.292 505.941 712.241 505.741C712.189 505.541 714.539 504.492 714.539 504.492L702.451 499.746V497.749C702.451 497.749 708.995 494.303 709.146 494.203C709.297 494.103 721.733 499.298 721.884 499.298C722.035 499.298 726.131 501.545 726.131 501.545L726.182 502.144L730.278 504.041L731.128 517.479C731.128 517.479 706.102 530.716 705.953 530.716L680.978 519.926C680.978 519.926 679.928 506.688 679.928 506.54C679.928 506.391 688.12 502.244 688.12 502.244L698.01 506.591V508.388L705.203 511.435H705.198ZM700.303 486.308C700.303 486.308 706.196 483.561 706.347 483.41C706.499 483.259 711.992 485.957 711.992 485.957C711.992 485.957 721.234 481.111 721.434 480.963C721.633 480.812 727.578 483.461 727.578 483.461L727.877 488.308L718.188 493.302L712.195 490.855L706.301 493.753L700.608 491.205L700.308 486.311L700.303 486.308ZM688.614 576.221L693.309 577.57L699.853 572.775V570.128L706.447 565.133L714.089 567.381L714.189 569.178L718.41 570.128C718.41 570.128 721.183 567.929 721.283 567.78C721.382 567.629 731.072 570.926 731.072 570.926L731.371 577.221L723.231 583.516L718.635 582.119L712.141 587.213V589.712L705.446 594.957L697.754 592.558L697.554 590.761L693.658 589.612L690.36 592.011L680.671 588.913L680.12 582.569L688.612 576.226L688.614 576.221ZM731.123 492.404L737.367 489.306L743.112 491.853L743.311 496.799L737.367 499.845L731.374 497.05L731.123 492.404ZM778.027 446.697C778.027 446.697 785.021 443.3 785.17 443.252C785.321 443.2 790.989 445.65 790.989 445.65V447.248L793.71 448.297L796.956 446.6L804.698 449.846V455.639L795.955 460.035L792.259 458.486L784.566 462.331V464.029L777.272 467.474L771.379 465.027V463.378L768.832 462.28L765.386 464.128L758.044 460.831L757.693 454.987L766.635 450.591L770.232 452.089L778.074 448.292L778.022 446.695L778.027 446.697ZM765.688 502.592L779.226 494.457L795.661 500.045L795.812 503.842C795.812 503.842 799.508 504.991 799.608 505.14C799.708 505.291 799.209 498.596 799.209 498.596L806.116 494.285L803.453 493.302C803.453 493.302 802.954 480.215 803.003 480.064C803.054 479.913 812.245 474.97 812.245 474.97L811.894 465.58L823.831 459.185L832.023 462.431V466.228L836.119 464.08V460.434C836.119 460.434 849.905 452.992 850.081 452.893C850.258 452.793 864.292 459.587 864.292 459.587L864.392 469.648C866.156 468.918 872.067 466.471 872.259 466.407C872.484 466.332 889.94 475.848 889.94 475.848L890.314 488.96L882.148 492.332L864.389 482.816L864.082 474.74L856.796 478.121C856.796 478.121 850.703 475.323 850.652 475.175C850.606 475.034 816.202 493.881 812.093 496.133L820.18 498.798V497.204C820.18 497.204 825.574 494.505 825.8 494.206C826.025 493.906 832.018 496.904 832.018 496.904V501.625L826.399 504.546L820.915 502.498L821.678 522.279L814.735 526.774L781.568 515.236L775.173 519.033L766.431 515.986L765.681 502.6L765.688 502.592ZM892.04 488.955L893.463 487.906L893.389 482.734C893.389 482.734 900.808 478.912 900.956 478.838C901.107 478.764 913.469 484.084 913.469 484.084V499.369L884.472 518.027L875.082 514.955V501.617L892.116 490.678L892.042 488.955H892.04ZM893.514 544.653L900.457 547.449V552.395C900.457 552.395 895.163 555.84 895.012 555.84L888.218 553.088L888.018 548.247L893.512 544.653H893.514ZM825.981 530.714C825.83 530.714 825.482 517.228 825.482 517.228L832.376 512.681L861.699 522.821L862.149 536.308C862.149 536.308 846.664 544.551 846.515 544.651C846.367 544.75 838.024 540.854 838.024 540.854V535.061C838.024 535.061 826.135 530.714 825.987 530.714H825.981ZM858.099 510.871L851.955 508.286L842.964 513.457L836.521 510.984V505.89L845.437 500.869L852.18 503.491C852.18 503.491 857.126 500.419 857.426 500.268C857.725 500.117 863.644 502.815 863.644 502.815V507.684L858.099 510.869V510.871ZM836.122 494.549V492.752L842.716 489.406H843.814L855.951 494.201L860.347 496.548V498.432L854.554 501.691L836.122 494.549ZM799.357 545.05L803.653 547.098C803.653 547.098 825.331 535.76 825.382 535.609C825.434 535.458 837.471 537.457 837.471 537.457L838.021 549.246L798.011 570.576L789.619 566.631L788.869 550.797L799.36 545.052L799.357 545.05ZM852.454 549.246L864.691 551.143L865.042 562.98L857.999 566.677L858.199 576.318L871.186 581.712L872.983 580.562L881.175 583.86C881.175 583.86 887.969 579.712 888.118 579.664C888.266 579.615 888.018 577.915 888.169 577.815C888.32 577.716 897.81 571.671 897.81 571.671L907.4 575.668V591.752L882.824 606.938L839.066 588.355L838.866 577.265L827.776 583.358L819.185 579.313L818.685 567.325L852.452 549.243L852.454 549.246ZM900.956 566.828C900.956 566.828 894.812 570.524 894.661 570.573L875.08 562.432V560.535C875.08 560.535 881.024 556.839 881.224 556.939C881.423 557.038 882.972 556.939 882.972 556.939L896.458 562.484L900.954 565.082V566.83L900.956 566.828ZM897.81 532.442V520.948L909.274 512.256V508.434L916.992 502.815L926.582 505.662L926.807 521.096L924.759 522.371L940.892 528.74V542.226L933.55 546.796L897.81 532.442ZM927.631 511.355C927.631 511.355 927.258 498.317 927.258 498.094C927.258 497.872 933.926 493.748 933.926 493.748L963.748 503.714V517.2L957.153 521.621L927.631 511.355ZM959.324 455.76L945.5 461.53L952.881 465.352V471.122L943.066 475.167L908.449 457.634L908.375 453.963L905.377 452.465V446.695L926.881 438.004V437.63L931.003 436.055L943.741 442.199V445.046L947.039 443.697L959.327 449.841V455.76H959.324ZM912.87 333.778L915.192 331.531L920.512 332.654V336.85L918.113 338.949C918.113 338.949 913.093 338.199 912.868 338.051V333.781L912.87 333.778ZM908.675 370.043L910.249 366.073L957.453 369.37V377.762L955.579 381.732L908.675 378.586V370.043ZM899.384 331.531L901.483 329.431L907.103 330.33V334.677L904.781 336.85L899.387 335.952V331.531H899.384ZM895.862 370.494L905.751 370.043L906.424 376.886L906.35 380.009L907.1 387.126L906.99 390.953L911.145 389.374L919.388 393.27V394.768L925.757 397.914L930.852 396.191V392.968C930.852 392.968 951.232 386.599 951.457 386.525C951.682 386.45 957.45 390.047 957.45 390.047V404.209L924.183 414.549L903.652 404.509V397.594C900.977 397.579 897.541 397.568 897.357 397.614L895.859 384.354V370.491L895.862 370.494ZM886.121 329.585C886.121 329.585 888.22 327.486 888.52 327.337C888.819 327.189 893.614 328.236 893.614 328.236V332.657L891.366 334.679L886.121 333.781V329.585ZM872.934 327.337C872.934 327.337 875.108 325.389 875.333 325.415C875.558 325.44 880.504 326.139 880.504 326.139V330.335L878.106 332.657L872.934 331.607V327.337ZM874.209 402.862C874.209 402.862 882.975 399.191 883.139 399.04C883.3 398.889 888.52 401.362 888.52 401.362L888.594 405.858L883.136 408.18L887.47 409.977V412.898L890.916 411.223L890.842 408.551L896.387 406.229L901.481 408.628V413.197L899.607 413.796V426.158L876.155 437.248L868.887 434.251C868.887 434.251 868.288 416.343 868.436 416.118C868.588 415.893 864.791 414.321 864.791 414.321V412.672L871.659 409.9L872.783 410.199L876.306 408.477L874.284 407.578L868.813 409.751L863.898 407.204L863.567 402.783C863.567 402.783 869.038 400.61 869.338 400.535C869.637 400.461 874.207 402.857 874.207 402.857L874.209 402.862ZM859.4 325.412L861.097 323.29L866.568 323.889V328.011L864.794 330.332L859.4 329.659V325.415V325.412ZM844.39 324.27L845.215 322.141H850.9L850.985 326.359L850.086 328.681H844.393V324.268L844.39 324.27ZM826.982 392.397C826.982 392.397 838.121 389.55 838.272 389.451C838.423 389.351 838.121 387.902 838.121 387.902C838.121 387.902 842.706 386.763 846.717 385.759L844.764 382.958C844.764 382.958 835.873 383.409 835.574 383.458C835.574 383.458 834.424 379.513 834.475 379.362C834.527 379.211 834.176 369.022 834.176 369.022L845.614 368.272L845.414 364.327L855.155 363.228L858.852 369.424L859.402 390.554H857.267L857.505 400.244L855.634 400.717L857.654 402.292L857.953 416.477L850.811 418.609C855.043 421.881 864.369 429.097 864.445 429.213C864.545 429.364 864.796 442 864.796 442L857.853 446.196L840.12 432.011C840.12 432.011 839.992 428.78 839.869 425.582L834.176 427.213L825.185 419.771L824.735 409.232L841.818 404.885C841.818 404.885 841.805 404.616 841.789 404.227L814.195 411.229L809.549 407.432L808.799 393.296C808.799 393.296 823.286 389.699 823.434 389.599C823.585 389.499 826.98 392.397 826.98 392.397H826.982ZM786.422 375.463C786.522 375.312 800.758 372.017 800.758 372.017L805.304 375.463L805.404 376.261L815.245 373.814L819.84 377.36L820.191 386.002L791.67 392.996L787.023 389.351C787.023 389.351 786.324 375.614 786.424 375.465L786.422 375.463ZM748.959 388.301L752.456 390.999L766.441 387.802L770.155 391.112C770.074 389.64 770.025 388.649 770.038 388.601C770.089 388.401 779.08 386.402 779.228 386.353C779.379 386.302 784.822 390.948 784.822 390.948L785.372 401.687L792.415 407.481L792.814 418.171L763.144 427.513L757.599 424.085L756.8 409.731L770.985 405.085C770.985 405.085 770.967 404.772 770.934 404.235L765.942 405.635L762.097 402.338L731.126 409.931L726.879 406.185L726.029 393.797L748.956 388.304L748.959 388.301ZM722.23 415.225V413.428L729.38 411.129L738.616 417.132C743.972 415.429 748.401 414.016 748.459 413.978C748.611 413.878 754.104 417.575 754.104 417.575L754.854 430.213L726.083 439.304L720.538 435.607L720.143 428.009L717.289 429.064L712.842 426.64L712.643 421.87C712.643 421.87 718.938 419.671 719.086 419.623C719.235 419.574 722.972 422.093 722.972 422.093C724.657 421.561 726.902 420.849 729.359 420.071C727.212 418.696 722.227 415.23 722.227 415.23L722.23 415.225ZM705.751 409.38L711.844 407.232L716.439 409.78C716.439 409.78 716.59 414.175 716.639 414.326C716.687 414.477 714.24 415.176 714.24 415.176C714.24 415.176 714.44 418.873 714.44 419.021C714.44 419.17 703.601 422.467 703.601 422.467L699.505 419.82L699.254 415.325L705.848 413.077L705.748 409.38H705.751ZM700.058 464.876L701.207 479.711C701.207 479.711 678.679 493.696 678.528 493.748L670.036 491.101C670.036 491.101 669.187 481.759 669.187 481.611C669.187 481.462 680.724 474.417 680.724 474.417L680.174 469.072L691.663 462.029L700.055 464.876H700.058ZM679.078 459.331C679.078 459.482 642.813 447.842 642.514 447.893C642.514 447.893 641.615 438.951 641.615 438.751C641.615 438.551 648.358 434.806 648.509 434.706C648.66 434.606 681.777 444.997 681.777 444.997L682.527 453.988C682.527 453.988 679.081 459.182 679.081 459.333L679.078 459.331ZM681.651 389.673C681.876 389.673 682.176 398.365 682.176 398.365L646.51 412.45L640.215 409.227L639.316 400.535L675.282 386.673C675.282 386.673 681.426 389.671 681.651 389.671V389.673ZM611.855 296.249L626.263 288.763C626.532 288.622 626.842 288.584 627.139 288.651L655.892 295.212C656.225 295.289 656.466 295.573 656.489 295.911L656.791 300.67C656.796 300.77 656.745 300.862 656.66 300.91L642.767 308.575C642.767 308.575 641.669 309.074 640.42 308.775L612.124 302.073C612.017 302.047 611.94 301.957 611.93 301.85L611.448 297.004C611.418 296.692 611.579 296.392 611.858 296.246L611.855 296.249ZM560.666 317.62L594.644 299.833C595.133 299.577 595.697 299.505 596.234 299.63C599.514 300.393 611.499 303.184 614.213 303.854C614.548 303.936 614.784 304.233 614.794 304.576L614.938 309.576L581.471 327.458C581.471 327.458 580.273 328.156 579.123 327.908L560.891 323.413L560.259 318.398C560.218 318.08 560.381 317.771 560.663 317.622L560.666 317.62ZM542.436 335.051L547.305 336.625L556.895 332.429L567.608 337.6V339.175L573.153 341.348L576.898 339.851L586.115 344.272L587.354 353.413L594.281 350.789L610.691 358.132L611.658 366.897L598.628 372.59L591.885 370.117L591.286 364.125L587.241 362.251L586.765 356.235L579.822 358.879L556.521 348.24C556.521 348.24 539.438 355.659 539.062 355.659L532.467 353.485C532.467 353.485 530.893 340.224 530.893 339.999C530.893 339.774 542.431 335.053 542.431 335.053L542.436 335.051ZM513.738 354.082L519.882 347.787L528.947 348.537L530.522 361.575L535.542 362.399L537.039 374.388L532.093 378.284L508.342 374.687L507.144 364.421L514.186 357.003L513.736 354.082H513.738ZM469.381 395.892L476.283 397.131L475.75 392.745L485.939 385.252L493.281 386.002L492.831 382.257C492.831 382.257 497.101 378.061 497.326 377.91C497.551 377.759 537.562 381.881 537.562 381.881L537.935 386.151L533.514 390.572L514.931 388.849L516.129 398.59L511.933 402.635L491.028 400.761L485.934 404.506L478.956 403.51L479.191 405.256L480.315 405.929L481.812 416.794L488.256 419.154L493.801 417.393L493.276 413.796L507.663 408.702L509.837 409.977L522.276 405.556L524.897 406.83L529.992 401.884H534.036L537.559 402.709V404.283L528.717 413.499L529.541 421.141L487.357 436.427L466.977 427.51L466.004 420.468L460.16 424.663L453.791 421.292L451.917 408.853L469.376 395.892H469.381ZM494.456 530.76L493.857 525.814C493.857 525.814 498.253 522.018 498.404 521.969C498.555 521.92 505.946 523.467 505.946 523.467L506.396 528.361L508.544 528.761L509.243 533.906L500.9 540.25L493.606 538.701L492.908 533.755L496.305 531.108L494.456 530.76ZM433.567 564.626L435.215 574.516L401.948 596.918L392.581 593.997C392.581 593.997 390.784 584.182 390.707 583.957C390.63 583.732 427.571 559.68 427.571 559.68L433.564 564.626H433.567ZM377.672 528.812L381.98 525.778C382.953 525.105 385.651 525.517 385.651 525.517L389.248 526.103C390.559 526.203 391.004 527.028 391.135 527.616L391.252 530.041C391.265 530.281 391.163 530.514 390.976 530.668L388.385 532.821L401.385 535.442C402.396 535.703 402.547 536.791 402.547 536.791L403.08 541.942C403.098 542.119 403.023 542.29 402.885 542.398L396.664 547.244C395.592 547.83 394.117 548.142 391.795 547.694C391.598 547.656 379.732 545.26 379.62 545.26C379.507 545.26 378.57 544.848 378.422 544.136C378.422 544.136 377.695 540.089 377.672 539.979C377.377 538.443 377.933 538.256 377.933 538.256L383.066 534.134L379.021 533.271C379.021 533.271 377.859 533.01 377.746 532.222L377.446 530.312C377.446 530.312 377.185 529.227 377.672 528.814V528.812ZM350.362 510.155L368.269 513.526C369.766 513.705 369.843 514.65 369.843 514.65L370.115 517.266C370.132 517.433 370.066 517.599 369.938 517.709L366.584 520.569C366.584 520.569 368.082 519.819 369.882 519.97L375.127 520.942C376.251 521.204 376.251 522.217 376.251 522.217L376.95 527.125C376.973 527.304 376.899 527.481 376.758 527.591L373.668 529.987C373.668 529.987 372.168 531.246 369.469 531.06L364.861 530.309C364.861 530.309 363.512 530.048 363.213 528.661C363.18 528.505 362.749 524.987 362.726 524.877C362.501 523.792 362.877 523.415 362.877 523.415L364.526 521.954C364.526 521.954 361.94 522.926 359.767 522.44L342.533 519.107C340.959 518.956 340.547 517.497 340.547 517.497L340.301 515.6C340.268 515.333 340.372 515.07 340.582 514.903L345.792 510.715C345.792 510.715 347.402 509.553 350.362 510.152V510.155ZM308.065 537.877L312.934 534.431L314.808 533.533C314.808 533.533 310.912 533.571 310.5 531.546L309.151 525.289C309.151 525.289 308.739 523.528 309.604 522.847C309.775 522.711 314.02 519.708 314.02 519.708C315.218 518.997 316.831 518.958 316.831 518.958L312.896 518.172C311.511 518.021 311.473 517.461 311.473 516.263C311.473 515.915 311.442 515.129 311.421 514.594C311.409 514.253 311.562 513.931 311.836 513.731C314.184 512.011 325.158 503.967 325.258 503.901C325.371 503.826 326.868 502.702 329.979 503.115L341.78 505.362C343.542 505.736 343.468 506.524 343.468 506.524L343.77 509.113C343.79 509.294 343.713 509.476 343.565 509.584L329.418 519.972C328.333 520.758 325.448 520.645 325.448 520.645C325.448 520.645 325.788 521.278 325.86 521.508C325.86 521.508 327.096 529.413 327.135 529.526C327.173 529.639 334.065 524.506 334.065 524.506C335.601 523.456 338.109 523.943 338.109 523.943L350.548 526.303C352.087 526.874 352.159 527.952 352.159 527.952L352.794 532.788C352.817 532.969 352.742 533.151 352.594 533.264L344.701 539.229C344.701 539.229 343.391 540.053 340.355 539.528L337.733 539.003L338.506 543.637C338.537 543.826 338.46 544.018 338.304 544.133L332.188 548.629C332.188 548.629 330.803 549.602 327.355 548.967L309.673 545.557C309.673 545.557 308.211 545.183 308.137 544.208L307.274 539.188C307.274 539.188 307.087 538.476 308.06 537.877H308.065ZM308.191 564.027L312.686 564.877C314.335 565.177 314.383 566.027 314.383 566.027L314.783 568.599C314.813 568.796 314.726 568.996 314.557 569.106L303.944 576.093C303.944 576.093 303.045 576.891 299.948 576.466L296.251 575.716C295.427 575.616 295.301 574.467 295.301 574.467L294.95 572.519C294.917 571.694 295.401 571.369 295.401 571.369C295.401 571.369 304.015 564.841 304.192 564.726C304.965 564.227 305.69 563.753 308.188 564.027H308.191ZM289.434 562.553C289.434 562.553 295.951 557.033 296.051 556.882C296.151 556.731 297.626 555.49 299.448 555.671C299.584 555.684 304.044 556.534 304.044 556.534C305.592 556.734 305.692 557.584 305.692 557.584L306.086 559.778C306.12 559.965 306.048 560.154 305.9 560.272C304.476 561.38 297.277 566.992 297.052 567.125C297.052 567.125 295.979 567.924 293.906 567.624C293.806 567.609 289.961 567.125 289.961 567.125C289.149 567.074 288.794 566.065 288.763 565.576C288.742 565.251 288.614 564.491 288.612 564.127C288.612 563.328 288.837 563.052 289.436 562.553H289.434ZM278.694 598.792C278.694 598.792 278.994 600.814 277.046 601.413L268.879 603.886L269.704 607.483L274.273 610.555L277.015 624.267C277.033 624.359 277 624.453 276.925 624.515L265.206 634.158C262.507 635.508 261.084 634.084 261.084 634.084L260.035 632.21C260.035 632.21 250.593 638.58 243.551 641.652C238.687 643.774 227.517 646.971 227.517 646.971L223.547 652.741C223.547 652.741 222.124 654.764 219.351 655.063C219.351 655.063 194.476 656.937 194.25 656.937C192.003 656.937 191.478 655.44 191.478 655.44L190.505 650.944C190.505 650.944 183.557 648.958 181.514 647.721C177.544 645.323 176.568 641.052 176.568 641.052C176.568 641.052 160.532 642.745 160.31 642.775C157.612 643.149 156.938 641.352 156.938 641.352L151.299 616.914L150.195 614.229L149.501 608.169C149.279 606.234 153.631 604.923 156.265 605.312L182.505 607.493C182.943 607.534 183.306 607.849 183.409 608.279L185.339 616.479C191.032 611.833 202.947 605.614 202.947 605.614L195.277 572.329C195.118 571.638 195.453 570.926 196.088 570.609L211.412 562.983C211.412 562.983 214.559 562.084 214.881 563.861L222.577 597.676L222.502 598.874C230.669 596.552 245.204 595.129 245.204 595.129L242.806 584.116C242.806 584.116 241.907 581.343 243.479 580.519L264.758 569.954L269.67 566.61C269.978 566.4 270.359 566.336 270.717 566.431L282.714 569.603C283.005 569.68 283.223 569.92 283.274 570.217L283.689 572.654C283.704 572.747 283.668 572.839 283.597 572.898L279.892 575.875C279.892 575.875 278.095 576.625 276.521 576.174L273.823 575.501L278.692 598.802L278.694 598.792ZM288.609 585.106L283.868 584.046C283.763 584.023 283.684 583.936 283.671 583.831L283.418 581.911C283.418 581.911 283.218 580.788 283.697 580.414C283.697 580.414 286.367 578.166 286.515 578.066C286.666 577.966 288.138 577.116 289.661 577.367L293.358 578.018C293.358 578.018 294.533 578.343 294.607 579.067L294.92 581.469C294.943 581.65 294.868 581.832 294.72 581.942C293.88 582.577 291.087 584.686 290.962 584.835C290.962 584.835 290.012 585.36 288.614 585.109L288.609 585.106ZM311.301 607.767C310.395 608.477 307.169 611.001 307.041 611.131C307.041 611.131 305.736 612.214 303.695 611.83C303.214 611.741 292.554 608.571 292.554 608.571C292.372 608.518 292.234 608.369 292.196 608.182L291.817 606.306C291.817 606.306 291.507 604.956 292.311 604.498C292.659 604.299 295.304 602.141 295.455 602.043C296.041 601.659 297.39 601.373 298.601 601.593L309.791 603.94C309.791 603.94 311.073 604.327 311.14 604.99L311.493 607.291C311.521 607.476 311.45 607.657 311.304 607.773L311.301 607.767ZM312.384 599.291L308.987 599.691C308.987 599.691 305.741 598.992 305.59 598.892L304.691 598.093L304.44 596.445C304.44 596.445 304.64 594.947 304.691 594.796C304.742 594.645 307.889 592.397 307.889 592.397L310.909 591.998L314.232 592.548L315.781 593.498L316.232 596.296L312.387 599.294L312.384 599.291ZM317.957 581.233C316.575 582.321 309.225 588.107 309.089 588.15C309.089 588.15 308.339 588.875 306.191 588.649L301.245 587.751C301.245 587.751 300.347 587.551 300.196 586.801L299.945 585.152C299.771 584.103 300.296 583.555 300.296 583.555C300.296 583.555 309.532 577.355 309.686 577.26C311.26 576.287 313.083 576.709 313.083 576.709L316.229 577.36C316.229 577.36 317.678 577.611 317.878 578.258L318.147 580.775C318.164 580.949 318.093 581.123 317.955 581.23L317.957 581.233ZM336.302 585.582C335.621 586.166 333.45 588.014 332.564 588.601C331.384 589.382 329.766 589.924 326.971 589.451C326.011 589.287 323.174 588.601 323.174 588.601C323.174 588.601 322.25 588.375 322.125 587.551C322.107 587.426 321.774 585.754 321.774 585.603C321.774 585.452 321.5 584.405 322.125 583.906C322.125 583.906 325.555 581.264 325.67 581.159C327.145 579.81 330.266 580.209 330.266 580.209L334.31 581.059C334.31 581.059 335.885 581.31 336.108 582.257C336.207 582.674 336.474 585.132 336.474 585.132C336.494 585.303 336.43 585.472 336.3 585.585L336.302 585.582ZM342.505 574.664C342.505 574.664 339.443 576.981 338.358 577.662C337.608 578.133 335.235 578.86 332.813 578.66C332.664 578.647 327.818 577.762 327.619 577.662C327.619 577.662 326.295 577.211 326.07 576.464C326.026 576.318 325.819 574.615 325.77 574.467C325.719 574.316 325.371 572.57 326.221 572.119C326.221 572.119 329.702 569.344 331.016 568.674C333.315 567.499 336.509 567.924 336.509 567.924L340.355 568.674C340.355 568.674 342.953 569.273 343.002 570.471L343.352 573.417C343.352 573.417 343.352 574.091 342.502 574.667L342.505 574.664ZM350.51 555.669C350.42 555.653 342.187 554 339.026 553.385C338.296 553.245 337.073 553.017 336.878 552.797C336.55 552.43 336.499 551.921 336.499 551.921C336.451 551.532 336.22 550.362 336.125 549.842C335.972 549.008 336.65 548.437 336.65 548.437C336.65 548.437 350.377 538.005 350.548 537.872C351.808 536.899 353.83 536.973 354.931 537.122C358.205 537.565 364.71 538.845 367.892 539.707C368.963 539.997 369.129 540.637 369.129 540.637C369.129 540.637 369.39 542.928 369.428 543.04C369.467 543.153 369.569 543.806 369.016 544.238C365.32 547.139 355.453 554.804 355.453 554.804C355.453 554.804 353.354 556.176 350.508 555.666L350.51 555.669ZM380.741 549.97C379.4 551.051 372.534 556.58 372.5 556.683C372.462 556.795 371.116 557.356 369.615 557.169L365.645 556.683C364.782 556.608 364.483 555.897 364.483 555.897C364.454 555.518 364.239 554.053 364.132 553.337C364.093 553.086 364.183 552.832 364.37 552.661L371.116 546.399C372.278 545.48 374.149 545.669 374.149 545.669L379.356 546.399C380.442 546.399 380.593 547.167 380.593 547.167L380.925 549.502C380.951 549.681 380.882 549.86 380.741 549.973V549.97ZM469.082 651.464C469.082 651.464 448.028 647.419 447.729 647.342C447.429 647.268 429.97 664.425 429.747 664.5L410.266 660.529L409.367 655.583L404.946 659.779L385.615 655.734L384.266 648.392L387.187 645.763L388.16 645.919L407.79 627.861L420.977 630.26L420.603 628.386L422.326 626.512L476.273 636.701L477.245 643.444L469.079 651.461L469.082 651.464ZM467.958 607.857L465.636 593.92L496.507 570.768L507.22 570.693L505.449 557.609L505.121 560.43C505.121 560.43 445.555 564.176 445.33 564.101C445.33 564.101 442.632 548.368 442.557 548.142C442.483 547.917 444.055 542.523 444.055 542.523L473.951 540.644C473.951 540.644 474.476 544.471 474.476 544.697C474.476 544.922 504.522 542.749 504.522 542.749L505.879 552.825L516.884 544.845L519.956 545.669C519.956 545.669 522.877 543.721 523.103 543.647C523.328 543.573 538.987 549.266 538.987 549.266L540.861 563.129L517.709 580.212L510.666 578.112L511.565 584.781L477.773 610.706C477.773 610.706 468.106 608.085 467.958 607.86V607.857ZM505.871 615.65L503.698 601.639L510.067 595.569L520.781 597.143L520.481 594.596L521.306 593.247L520.855 589.502C520.855 589.502 546.78 569.721 547.005 569.572C547.231 569.424 553.823 574.441 553.823 574.441L555.397 586.504L545.131 594.371L547.83 616.1L541.535 622.395C541.535 622.395 506.094 615.726 505.869 615.652L505.871 615.65ZM586.194 699.492L545.585 695.522L543.411 680.612L555.4 666.827L555.026 664.878L569.861 647.721L581.85 649.444L583.723 666.002L587.395 666.453L590.618 692.002L586.196 699.495L586.194 699.492ZM628.378 638.277C628.378 638.277 617.887 636.329 617.664 636.255C617.439 636.181 595.561 655.737 595.336 655.811L584.696 653.038L583.048 638.577L600.73 622.992L605.225 623.965L611.968 617.895L632.873 621.566L633.923 631.755L628.378 638.272V638.277ZM651.904 705.562C651.904 705.562 639.767 703.614 639.542 703.54L638.418 690.952L659.848 661.955L671.447 661.238L669.962 645.622L643.812 640.753L642.314 626.443L647.708 619.999L676.931 624.945V627.118L698.734 631.015L699.932 643.229C699.932 643.229 683.374 663.982 683.149 664.059L674.529 662.669L675.505 673.275L651.901 705.57L651.904 705.562ZM739.794 714.404C739.794 714.404 683.3 709.085 683.075 709.085L681.426 691.927L688.694 677.991L697.702 678.828C697.359 674.729 696.937 669.655 696.937 669.522C696.937 669.297 710.574 652.063 710.574 652.063L709.675 641.349L716.27 633.106L728.184 635.205L729.981 660.455L710.126 686.152L701.937 684.662L702.034 686.152L709.601 686.679L709.901 691.026L742.643 694.098L743.316 706.911L739.794 714.404ZM736.049 674.542V672.443L741.143 667.124H743.465L760.998 671.394L766.244 673.268V675.216L761.224 680.61L736.049 674.54V674.542ZM746.283 655.511L750.51 650.716L759.501 652.739V657.984L755.305 662.93L746.539 661.133L746.283 655.514V655.511ZM775.386 717.85L762.724 715.902L761.674 700.992L777.933 675.367L776.059 675.067L775.608 669.522L776.133 669.223L771.412 667.948L771.039 662.477C771.039 662.477 778.307 654.61 778.532 654.459C778.757 654.308 787.149 656.558 787.149 656.558L787.448 661.804L784.151 665.401L788.721 666.525L788.764 670.72C788.764 670.72 794.79 670.347 795.013 670.347C795.236 670.347 795.686 684.957 795.686 684.957L775.38 717.85H775.386ZM798.239 624.492L799.137 636.78L791.57 642.55L751.109 628.089C751.109 628.089 750.059 612.055 750.059 611.83C750.059 611.605 761.674 600.891 761.674 600.891L772.613 603.589L772.163 594.973C772.163 594.973 796.664 578.263 796.964 577.964C797.263 577.664 806.479 581.335 806.479 581.335L807.304 595.572L782.653 612.729L773.138 609.431V615.501L798.239 624.492ZM808.353 648.318C808.353 648.318 807.603 634.156 807.603 633.931C807.603 633.705 815.171 628.012 815.171 628.012L825.06 631.383L830.305 628.086L832.253 629.059L844.168 621.64V617.595L864.998 604.708L874.365 608.978L874.739 625.388C874.739 625.388 827.535 655.058 827.31 655.135L808.353 648.318ZM929.385 709.133L926.188 718.324L862.349 712.231L862.149 708.485L850.534 707.362V700.393L857.129 682.635V679.862L858.327 676.565H859.346L859.602 676.04L881.93 678.288L882.155 685.182L879.534 691.851L869.494 690.727L869.043 692.076L867.246 691.925L866.496 693.049L883.354 694.472L885.627 688.09L885.727 685.256L888.125 678.661C888.125 678.661 910.003 680.861 910.303 680.861C910.602 680.861 910.502 687.655 910.502 687.655L906.307 699.843C906.307 699.843 928.783 702.341 929.385 702.341C929.987 702.341 929.385 709.136 929.385 709.136V709.133ZM941.773 569.92C941.773 569.92 917.248 585.355 917.197 585.506C917.146 585.657 908.106 581.661 908.106 581.661L907.755 571.72C907.755 571.72 909.163 570.847 911.306 569.516C909.591 568.832 905.029 567.015 904.909 566.976L904.709 561.882L905.559 561.383L903.411 560.533V555.487C903.411 555.487 912.653 549.942 912.801 549.794C912.95 549.645 919.644 552.692 919.644 552.692V557.737L915.497 560.236L917.294 560.986V565.799C924.237 561.483 932.444 556.375 932.529 556.291C932.68 556.14 941.77 560.236 941.77 560.236V569.925L941.773 569.92ZM946.742 537.204L952.66 532.183L969.039 536.978V540.875L977.539 543.197L981.21 538.85L987.054 540.209V526.638L994.322 518.172L998.592 519.071L1001.36 515.848L1011.86 518.17V527.412L997.619 544.576L991.849 543.309V550.766L982.932 561.406L946.742 550.766V537.204ZM956.856 629.415V622.82L976.637 596.247C976.637 596.247 1015.9 604.439 1016.4 604.439C1016.9 604.439 1016.4 610.834 1016.4 610.834L997.217 637.909L956.856 629.417V629.415ZM1064.85 731.515L1063.15 739.907L1003.61 734.313V723.822L1005.81 715.83L1065.25 721.713L1064.85 731.515H1064.85ZM1087.75 697.173L1086.33 703.243L1076.51 702.044L1074.64 711.634L1064.75 710.636V704.743L1066.55 695.678L1076.66 696.502L1077.86 691.257C1077.86 691.257 1087.53 692.155 1087.75 692.38C1087.97 692.606 1087.75 697.175 1087.75 697.175L1087.75 697.173ZM1103.78 669.824L1099.59 691.927C1099.59 691.927 1086.7 690.804 1086.48 690.804L1086.93 680.238L1087.85 675.218L1061.98 673.045L1062.35 660.306L1063.93 653.589L1079.51 654.764L1080.11 652.741L1104.31 654.989L1103.79 669.824H1103.78ZM1161.03 716.355L1126.41 715.456L1125.81 720.177H1124.46C1124.46 720.177 1124.17 730.891 1124.17 731.267C1124.17 731.643 1121.09 751.048 1121.09 751.048L1107.31 749.85L1108.06 732.391L1111.2 712.684L1112.48 712.835C1112.48 712.835 1112.78 704.069 1112.85 703.844C1112.93 703.619 1114.8 692.38 1114.8 692.38L1139.6 693.054V695.301L1161.41 695.826L1161.78 703.468C1161.78 703.468 1161.18 716.13 1161.03 716.355ZM1218.05 718.152C1217.97 718.452 1206.21 759.363 1206.21 759.363L1185.31 757.341L1186.36 742.431L1187.25 734.039L1195.8 734.638L1198.2 727.371L1198.27 722.35L1178.34 717.63L1179.39 700.322L1183.43 693.428L1199.62 697.024L1199.39 701.294L1219.4 705.79C1219.4 705.79 1218.12 717.853 1218.05 718.152H1218.05ZM1220.99 680.164L1216.6 693.85C1216.6 693.85 1180.83 685.957 1180.53 685.957C1180.23 685.957 1142.47 684.959 1142.47 684.959L1143.07 677.067L1144.77 665.378C1144.77 665.378 1181.23 668.375 1181.97 668.375C1182.71 668.375 1221.09 672.072 1221.39 672.172C1221.69 672.272 1220.99 680.164 1220.99 680.164ZM1239.85 639.555L1239.18 646.073L1224.27 644.798L1224.42 641.8L1208.24 640.377L1208.16 642.025L1196.1 641.088L1196.62 631.834L1194.3 631.683L1194.68 625.014L1195.35 618.496L1210.04 619.881V622.915L1225.85 624.264L1226 622.615L1237.99 623.739L1237.39 632.505L1240.23 632.878L1239.86 639.547L1239.85 639.555ZM1280.31 753.219C1280.31 753.518 1278.96 766.257 1279 766.48C1279.04 766.702 1243.37 763.108 1243.37 763.108C1243.37 763.108 1243.75 755.689 1243.82 755.467C1243.9 755.244 1245.02 741.829 1245.02 741.53C1245.02 741.23 1280.31 745.052 1280.31 745.052V753.219ZM1301.42 726.82L1301.02 732.713C1301.02 732.713 1290.63 731.915 1290.33 731.815L1290.83 725.62L1291.23 720.625C1291.23 720.625 1301.11 721.424 1301.41 721.424C1301.71 721.424 1301.41 726.818 1301.41 726.818L1301.42 726.82ZM1368.45 757.289C1368.45 757.289 1365.95 774.372 1366.05 774.871L1308.11 769.278L1301.91 759.988C1301.91 759.988 1303.51 743.204 1303.71 742.805C1303.91 742.405 1368.45 749 1368.45 749V757.292L1368.45 757.289ZM1376.22 676.342L1306.76 670.124L1302.26 648.771L1303.31 639.33L1300.39 639.404L1296.57 620.972L1298.22 606.585C1298.22 606.585 1320.4 605.911 1320.62 605.835C1320.85 605.76 1323.47 612.352 1323.62 612.578C1323.77 612.803 1321.82 626.589 1321.82 626.589L1313.66 626.888L1314.18 629.361V630.034H1317.25L1319.28 638.577L1318.68 642.773L1320.25 649.442L1328.34 649.892C1328.34 649.892 1329.54 639.852 1329.62 639.552C1329.69 639.253 1346.03 640.827 1346.25 640.827C1346.48 640.827 1346.18 648.021 1346.18 648.021L1345.58 653.64L1377.65 656.638L1378.02 663.606L1376.23 676.345L1376.22 676.342ZM1425.99 735.409H1416.4L1415.01 745.8H1416.8C1416.8 745.8 1418.6 766.38 1418.6 766.679C1418.6 766.979 1416.8 779.866 1416.8 779.866L1401.92 778.568C1401.92 778.568 1400.62 758.288 1400.62 757.988C1400.62 757.689 1401.92 748.997 1401.92 748.997L1400.02 748.898L1398.72 727.02L1400.82 711.634C1400.82 711.634 1425.6 712.533 1426 712.533C1426.4 712.533 1428.3 720.126 1428.3 720.126L1426 735.412L1425.99 735.409ZM1413.23 651.167C1413.23 651.167 1414.6 642.043 1415.2 638.178C1413.16 638.411 1404.36 639.419 1404.17 639.552L1390.45 622.695L1352.62 624.868L1349.02 618.35L1351.12 602.018L1381.24 600.221L1383.56 604.191L1399.15 603.367L1399.67 603.741C1399.67 603.741 1410.24 602.542 1410.46 602.542C1410.69 602.542 1419.15 613.033 1419.15 613.033L1415.88 636.375C1417.89 635.981 1426.9 634.903 1427.1 634.837C1427.32 634.763 1452.57 665.708 1452.57 665.708C1452.57 665.708 1450.32 680.469 1450.4 680.694C1450.47 680.919 1435.94 679.419 1435.94 679.419L1413.24 651.172L1413.23 651.167ZM1505.62 788.357L1477.45 785.859L1476.15 777.467L1479.24 759.685H1482.14L1481.54 757.888L1483.84 744.302L1476.75 743.703L1474.35 737.109L1445.08 736.11L1442.58 727.918L1444.48 717.328L1461.56 717.927L1462.26 713.431L1488.03 714.13L1493.43 729.117L1493.03 731.515H1500.12L1504.82 745.101L1503.32 753.792L1509.01 770.576L1505.62 788.357H1505.62ZM1532.49 704.64L1529.4 720.126H1516.41L1505.42 698.747L1507.52 686.06L1530.7 683.661L1533.09 670.974L1536.35 670.682L1534.17 668.475L1537.01 651.467L1555.97 648.095L1556.03 647.844L1547.05 648.771L1523.53 621.123L1516.03 621.197L1512.21 614.528L1513.94 604.488L1532.29 603.738L1537.46 609.956L1543.61 609.431L1552.6 619.922L1552.3 622.021L1561.59 632.96L1559.29 644.45L1568.63 643.451L1579.27 656.113L1576.95 668.926L1551.48 673.119L1554.37 676.77L1549.38 702.743L1532.5 704.141V704.64H1532.49ZM1548.68 712.932L1549.08 710.533L1554.77 709.236L1573.85 707.638H1576.35L1581.25 713.431V715.63L1553.27 718.528L1548.68 712.935V712.932ZM1562.46 730.614L1563.46 724.721L1572.55 723.623L1577.75 729.716L1576.65 735.209L1567.36 736.308L1562.46 730.614ZM1631.89 786.461L1614.61 784.863L1613.61 780.767L1595.89 779.2L1595.35 781.092L1581.45 779.869L1580.05 773.074L1581.05 768.779L1576.05 768.279L1574.36 759.788L1575.85 752.994L1592.74 754.591L1593.74 758.587L1611.12 759.885L1611.62 758.088L1625.5 759.386L1627.1 765.681L1625.9 770.276L1631.4 770.875L1633.39 779.167L1631.89 786.461ZM1590.64 719.227L1591.63 713.434L1600.92 712.935L1605.62 718.628L1604.32 724.322H1599.93L1603.87 729.017L1602.62 734.71L1593.23 735.808L1585.14 726.119L1586.24 720.325L1591.13 719.826L1590.63 719.227H1590.64ZM1634.09 717.53L1622.9 720.628L1592.93 696.052L1571.06 700.048L1563.66 692.854L1566.68 677.768L1581.25 675.52L1581.82 673.047L1599.53 670.075L1615.41 682.663L1614.21 689.058L1636.39 706.74L1634.09 717.53H1634.09ZM1640.41 634.535L1633.07 636.857L1630.82 635.508H1630.15L1629.32 639.778L1619.58 642.699L1609.32 635.357L1609.84 631.611L1602.65 626.591C1602.65 626.591 1600.25 627.19 1600.03 627.19C1599.81 627.19 1591.94 621.497 1591.94 621.497L1593.21 614.754L1600.55 612.58L1602.8 614.004L1603.47 613.853L1604.15 609.956L1613.66 607.035L1623.93 613.853L1623.26 617.749L1630.64 622.843L1633 622.019L1641.69 628.012L1640.41 634.53V634.535ZM1661.02 601.193C1661.02 601.193 1652.4 604.114 1652.18 604.114C1652.18 604.114 1627.45 588.98 1627.15 588.754C1626.85 588.529 1629.17 578.714 1629.17 578.714C1629.17 578.714 1643.03 572.496 1643.26 572.345C1643.48 572.194 1653.15 577.291 1653.15 577.291L1653.3 578.115L1664.69 585.009L1661.02 601.193H1661.02ZM1674.5 590.554L1683.94 587.707L1695.33 594.975L1693.09 605.389L1701.33 610.635L1709.8 608.162L1710.02 606.288L1733.25 599.319L1742.69 605.013L1738.87 621.571C1738.87 621.571 1697.96 634.01 1697.73 634.01L1669.19 615.278L1674.51 590.551L1674.5 590.554ZM1736.99 810.939L1708.72 808.241L1697.33 770.153L1699.73 760.889L1694.34 760.29L1687.74 737.913L1691.94 720.43L1717.21 720.93L1721.71 729.321L1717.91 745.306H1718.71L1725.5 766.085L1722.51 777.375L1725 785.068L1738.09 786.266L1741.09 794.619L1736.99 810.942V810.939ZM1743.36 703.319H1742.46L1738.27 700.398L1738.34 699.574L1711.37 681.367L1713.16 674.624L1716.39 673.426L1717.81 668.255L1764.79 653.494L1777 661.287L1775.43 668.255L1765.16 671.401L1784.65 684.288L1782.85 691.106L1765.99 696.651L1762.17 694.252L1761.34 697.997L1743.96 703.842L1743.36 703.317V703.319ZM1795.29 748.949L1748.38 747.674L1744.26 739.733L1748.53 722.125L1783.82 722.949L1784.94 725.197L1810.49 726.096L1812.22 729.767L1820.01 730.44L1823.98 740.629L1816.71 767.304L1801.88 765.955L1795.28 748.946L1795.29 748.949ZM1824.13 819.08L1808.02 816.382L1803.6 782.439L1807.05 771.2L1821.81 770.151L1827.13 807.913L1824.13 819.077L1824.13 819.08ZM1744.86 681.89L1750.93 685.86L1745.91 687.509L1744.26 686.234L1742.69 686.833L1738.45 683.73L1744.86 681.887V681.89ZM326.5 535.179C326.5 535.179 319.232 533.868 319.045 533.829C319.045 533.829 321.743 533.643 322.772 532.836L325.939 530.494C325.939 530.494 325.947 531.508 325.978 531.843C326.054 532.683 326.502 535.176 326.502 535.176L326.5 535.179ZM252.846 613.476C252.846 613.476 253.97 618.123 254.044 618.422C254.044 618.422 247.9 625.165 241.457 629.061C238.264 630.992 231.811 634.21 231.811 634.21L229.317 622.992C229.317 622.992 228.644 621.269 225.421 622.019L197.699 631.084C197.025 627.561 191.404 625.539 191.404 625.539C191.404 625.539 195.551 620.032 204.89 618.944C211.333 618.194 220.401 614.636 220.401 614.636C220.401 614.636 230.666 611.077 236.81 610.852C246.344 610.504 252.844 613.474 252.844 613.474L252.846 613.476ZM409.818 643.298L419.484 645.172L416.637 647.87H415.588L411.21 651.766L410.417 646.746L406.894 646.147L409.815 643.3L409.818 643.298ZM933.632 449.687C933.857 449.762 930.711 450.811 930.711 450.811L926.515 449.088L928.389 448.19L929.664 448.789L930.714 448.19C930.714 448.19 933.412 449.613 933.635 449.687H933.632ZM1167.14 443.694L1161.52 441.296L1162.09 441.032L1163.44 441.631C1163.44 441.631 1164.45 441.068 1164.56 441.032C1164.67 440.994 1168.53 442.793 1168.64 442.793C1168.76 442.793 1167.14 443.692 1167.14 443.692L1167.14 443.694Z" fill="white"/>
</mask>
<g mask="url(#mask0_4190_17336)">
<g opacity="0.4">
<path d="M1066.81 340.109C1067.06 348.982 1091.4 351.952 1100.27 351.982C1110.01 352.016 1123.61 346.847 1123.2 340.444C1122.69 332.283 1100.65 328.95 1092.48 329.206C1085.51 329.424 1066.62 333.143 1066.81 340.112V340.109Z" stroke="#8CC866" stroke-width="2" stroke-miterlimit="10" stroke-dasharray="4 4"/>
<path d="M1082.66 340.352C1082.79 344.701 1094.72 346.158 1099.07 346.173C1103.84 346.189 1110.5 343.657 1110.31 340.516C1110.05 336.515 1099.25 334.881 1095.25 335.007C1091.83 335.114 1082.57 336.937 1082.66 340.352Z" fill="#8CC866"/>
<path d="M1834.17 552.047C1834.99 550.06 1834.24 547.766 1832.4 546.653L1740.52 491.047L1661.92 442.945C1661.92 442.945 1627.9 424.812 1590.14 421.067C1551.22 417.206 1533.65 419.569 1510.12 424.065C1491.71 427.582 1455.41 434.509 1436.69 435.303C1416.75 436.15 1374.94 429.484 1355.61 420.499C1330.51 408.83 1328.05 398.291 1328.05 398.291L1326.55 355.884L1149.27 337.301C1149.27 337.301 1109.71 369.071 1107.91 369.67C1106.11 370.269 973.642 349.889 971.844 350.488C970.047 351.087 951.464 358.879 951.464 358.879C951.464 358.879 896 356.642 886 357.142C876 357.642 825.5 361.142 825.5 361.142L780.594 293.244C780.239 292.673 779.65 292.286 778.984 292.186L750.425 287.86C743.976 286.882 737.384 288.095 731.704 291.3L618.216 355.375C616.949 356.092 617.018 357.937 618.337 358.557L694.317 394.246L624.186 421.221L592.918 414.39C579.299 411.416 565.104 412.506 552.099 417.529L494.412 439.801L471.935 447.893C471.037 448.492 361.343 487.755 361.343 487.755C345.159 494.349 356.249 504.239 357.147 504.239C358.046 504.239 416.04 540.647 416.04 540.647L236.538 660.465C234.147 662.06 235.061 665.775 237.921 666.074C249.146 667.26 268.274 669.261 274.354 669.807C275.558 669.914 276.756 669.571 277.718 668.842C336.754 624.152 441.666 555.784 441.666 555.784C441.666 555.784 508.584 513.8 531.304 500.496C542.512 493.932 571.66 478.086 576.834 475.464C592.655 467.446 623.398 449.706 639.172 441.598C652.264 434.868 679.108 422.682 692.82 417.322C709.877 410.653 744.737 399.261 762.352 394.243C769.868 392.103 784.964 388.002 792.621 386.451C811.553 382.613 849.822 376.953 869.048 375.061C905.612 371.464 972.746 380.156 972.746 380.156L956.956 415.276C956.024 417.347 956.651 419.789 958.466 421.156C958.466 421.156 972.735 431.53 977.244 435.303C981.752 439.076 1001.67 458.904 1005.12 463.476C1011.79 472.331 1012.92 483.441 1014.11 490.451C1015.53 498.845 1019.21 514.704 1017.56 524.332C1016.51 530.469 1013.21 539.004 1001.22 548.596C977.901 567.251 927.098 598.923 902.018 615.13C896.888 618.445 886.545 624.976 881.638 628.616C870.251 637.064 848.847 655.798 838.929 665.931C833.907 671.061 824.883 682.274 820.497 687.96C817.018 692.47 807.311 706.543 807.311 706.543L802.739 714.474C801.162 717.208 802.93 720.659 806.072 720.976L945.372 735.061C946.92 735.217 948.433 734.536 949.342 733.272L1013.81 643.603L1095.03 539.306L1107.32 525.52C1107.32 525.52 1117.87 511.391 1120.2 506.038C1121.47 503.141 1122.95 496.902 1123.2 493.75C1123.95 484.383 1120.64 465.672 1120.2 456.287C1119.65 444.386 1119.13 425.012 1119.61 408.633C1119.8 401.759 1125 381.658 1125 381.658C1125 381.658 1149.08 381 1176.77 382.933C1191.66 383.97 1208.39 386.722 1221.2 388.552C1263.16 394.545 1348.88 432.011 1348.88 432.011L1413.62 457.186L1491.24 487.156C1491.24 487.156 1561.37 515.029 1562.27 515.029C1563.17 515.029 1678.85 561.183 1678.85 561.183L1797.63 607.087C1797.63 607.087 1807.28 610.635 1810.2 605.914C1811.77 603.375 1814.7 597.973 1816.27 594.901C1816.63 594.2 1829.74 562.678 1834.17 552.052V552.047Z" fill="#A3C55B"/>
<path d="M742.612 282.151L778.235 286.439L757.253 225.805L897.518 95.7317L892.122 93.9346L734.863 233.854L742.612 282.151Z" fill="#A3C55B"/>
<path d="M968.851 316.842C968.178 317.515 957.879 356.197 957.879 356.197L971.846 350.485L992.677 316.844L1039.73 253.681L1048.42 241.767L1061.01 209.849L1084.16 177.931L1117.21 129.829C1117.21 129.829 1111.28 128.705 1110.31 129.829C1109.34 130.952 1049.54 212.998 1048.87 213.446C1048.2 213.894 1032.24 238.396 1032.01 239.071C1031.79 239.747 1023.25 255.03 1023.25 255.03C1023.25 255.03 1011.33 263.123 1010.89 263.796C1010.44 264.469 968.851 316.844 968.851 316.844V316.842Z" fill="#A3C55B"/>
<path d="M1301.95 353.301L1326.55 355.879L1388.06 285.372L1383.57 271.212L1431 165.789L1424.25 159.046L1373.68 269.187L1372.78 278.181L1301.95 353.301Z" fill="#A3C55B"/>
<path d="M1574.86 383.827L1606.1 387.423L1604.98 330.33L1612.4 264.021L1626.11 167.591L1617.35 165.118C1617.35 165.118 1607.96 223.957 1601.61 267.843C1596.4 303.878 1594.05 326.455 1593.74 326.961C1593.07 328.085 1574.86 383.832 1574.86 383.832L1574.86 383.827Z" fill="#A3C55B"/>
<path d="M459.408 485.072C459.938 487.428 464.597 490.651 477.018 489.537C486.531 488.685 493.17 483.437 492.102 479.581C490.627 474.251 477.894 474.392 473.411 475.053C469.129 475.682 457.995 478.78 459.408 485.072Z" fill="#CEFF55"/>
<path d="M548.753 442.878C549.237 445.036 553.51 447.991 564.894 446.972C573.614 446.191 579.699 441.381 578.721 437.848C577.369 432.963 565.698 433.091 561.589 433.695C557.665 434.274 547.458 437.113 548.753 442.878Z" fill="#CEFF55"/>
<path d="M648.809 356.169C649.145 358.355 653.202 361.596 664.63 361.365C673.383 361.189 679.785 356.809 679.053 353.214C678.04 348.248 666.389 347.57 662.247 347.892C658.105 348.215 647.913 350.327 648.809 356.169Z" fill="#CEFF55"/>
<path d="M767.001 357.266C767.336 359.452 771.394 362.693 782.822 362.463C791.574 362.286 797.977 357.906 797.245 354.312C796.231 349.346 784.58 348.667 780.438 348.99C776.296 349.312 766.105 351.424 767.001 357.266Z" fill="#CEFF55"/>
<path d="M723.036 314.76C723.371 316.947 727.429 320.188 738.857 319.957C747.609 319.781 754.012 315.4 753.28 311.806C752.266 306.84 740.615 306.161 736.473 306.484C732.331 306.806 722.14 308.918 723.036 314.76Z" fill="#CEFF55"/>
<path d="M1009.33 425.13C1009.46 427.337 1013.19 430.946 1024.59 431.788C1033.32 432.434 1040.11 428.675 1039.72 425.03C1039.17 419.992 1027.64 418.22 1023.49 418.151C1019.33 418.082 1008.99 419.229 1009.33 425.13Z" fill="#CEFF55"/>
<path d="M1183.84 342.505C1184 344.712 1187.77 348.273 1199.18 348.977C1207.92 349.515 1214.66 345.675 1214.22 342.032C1213.62 336.999 1202.06 335.373 1197.91 335.353C1193.94 335.335 1183.43 336.607 1183.84 342.505Z" fill="#CEFF55"/>
<path d="M1267.86 382.032C1268.01 384.238 1271.79 387.799 1283.2 388.503C1291.94 389.041 1298.68 385.201 1298.24 381.558C1297.64 376.525 1286.08 374.9 1281.93 374.879C1277.96 374.861 1267.44 376.134 1267.86 382.032Z" fill="#CEFF55"/>
<path d="M1458.21 448.919C1457.99 451.121 1461.12 455.271 1472.24 457.892C1480.76 459.899 1488.06 457.252 1488.24 453.591C1488.5 448.53 1477.38 444.972 1473.29 444.252C1469.38 443.564 1458.8 443.042 1458.21 448.922V448.919Z" fill="#CEFF55"/>
<path d="M1630.08 454.713C1629.86 456.915 1632.99 461.065 1644.11 463.686C1652.64 465.693 1659.93 463.046 1660.11 459.385C1660.37 454.324 1649.25 450.766 1645.16 450.046C1641.25 449.358 1630.67 448.836 1630.08 454.716V454.713Z" fill="#CEFF55"/>
<path d="M1736.42 525.666C1736.2 527.868 1739.32 532.018 1750.45 534.639C1758.97 536.646 1766.26 533.999 1766.44 530.338C1766.7 525.277 1755.58 521.719 1751.49 521C1747.59 520.311 1737.01 519.789 1736.42 525.669V525.666Z" fill="#CEFF55"/>
<path d="M1043.26 503.607C1043.25 505.818 1046.76 509.646 1058.09 511.174C1066.76 512.344 1073.76 509.001 1073.59 505.337C1073.35 500.274 1061.95 497.813 1057.8 497.493C1053.66 497.173 1043.27 497.696 1043.25 503.607H1043.26Z" fill="#CEFF55"/>
<path d="M1032.27 381.812C1032.4 384.021 1036.12 387.641 1047.52 388.517C1056.24 389.187 1063.04 385.45 1062.66 381.802C1062.13 376.761 1050.6 374.959 1046.45 374.877C1042.48 374.798 1031.95 375.911 1032.27 381.814V381.812Z" fill="#CEFF55"/>
<path d="M1165.57 339.559C1164.3 344.909 1175.3 354.803 1198.23 356.03C1216.67 357.015 1231.94 353.623 1232.58 345.331C1233.27 336.29 1209.51 329.239 1200.48 328.438C1191.36 327.629 1168.26 328.215 1165.57 339.559Z" stroke="#CEFF55" stroke-width="2" stroke-miterlimit="10" stroke-dasharray="4 4"/>
<path d="M525.883 445.94C529.334 457.501 553.905 460.025 569.782 457.837C594.069 454.486 604.245 443.762 601.411 436.051C597.665 425.862 576.855 424.28 561.257 425.225C540.869 426.461 523.466 437.838 525.886 445.94H525.883Z" stroke="#CEFF55" stroke-width="2" stroke-miterlimit="10" stroke-dasharray="4 4"/>
<path d="M436.609 490.041C437.899 495.778 449.258 503.635 479.53 500.924C502.718 498.847 518.895 486.058 516.294 476.66C512.697 463.673 481.667 464.011 470.739 465.621C460.302 467.16 433.163 474.707 436.609 490.041Z" stroke="#CEFF55" stroke-width="2" stroke-miterlimit="10" stroke-dasharray="4 4"/>
<path d="M629.583 357.228C630.966 367.578 655.467 369.603 665.858 368.569C685.929 366.57 699.717 359.65 698.217 351.486C696.333 341.238 673.541 338.998 656.857 341.195C644.859 342.774 628.536 349.39 629.583 357.228Z" stroke="#CEFF55" stroke-width="2" stroke-miterlimit="10" stroke-dasharray="4 4"/>
<path d="M705.558 315.567C706.259 325.164 733.08 326.124 738.259 326.106C752.188 326.055 773.241 319.112 770.546 310.221C767.686 300.796 741.536 299.334 731.785 300.732C724.327 301.799 704.81 305.327 705.56 315.567H705.558Z" stroke="#CEFF55" stroke-width="2" stroke-miterlimit="10" stroke-dasharray="4 4"/>
<path d="M747.994 357.164C749.75 368.349 774.831 370.52 786.133 369.862C804.212 368.81 817.659 361.017 816.2 353.882C814.124 343.742 792.62 341.428 780.534 341.428C764.951 341.428 746.75 349.236 747.994 357.164Z" stroke="#CEFF55" stroke-width="2" stroke-miterlimit="10" stroke-dasharray="4 4"/>
<path d="M1012.29 381.253C1012.3 392.553 1037.99 396.639 1048.36 396.69C1064.66 396.769 1083.4 390.451 1082.64 381.801C1081.7 371.072 1058.96 366.267 1044.48 366.779C1022.91 367.539 1012.28 373.561 1012.29 381.253Z" stroke="#CEFF55" stroke-width="2" stroke-miterlimit="10" stroke-dasharray="4 4"/>
<path d="M989.371 426.679C989.386 438.537 1016.34 442.825 1027.23 442.876C1044.32 442.958 1063.99 436.33 1063.19 427.252C1062.21 415.996 1038.35 410.953 1023.15 411.488C1000.52 412.286 989.361 418.604 989.371 426.676V426.679Z" stroke="#CEFF55" stroke-width="2" stroke-miterlimit="10" stroke-dasharray="4 4"/>
<path d="M1018.32 503.796C1018.33 518.157 1047.43 523.413 1059.18 523.413C1084.74 523.413 1099.38 515.374 1098.52 504.382C1097.46 490.747 1071.18 484.749 1054.77 485.397C1030.35 486.365 1018.3 494.016 1018.32 503.793V503.796Z" stroke="#CEFF55" stroke-width="2" stroke-miterlimit="10" stroke-dasharray="4 4"/>
<path d="M1247.43 377.757C1246.08 383.45 1257.78 393.985 1282.19 395.29C1301.82 396.34 1318.08 392.728 1318.76 383.901C1319.5 374.278 1294.21 366.772 1284.59 365.919C1274.88 365.057 1250.29 365.681 1247.43 377.757Z" stroke="#CEFF55" stroke-width="2" stroke-miterlimit="10" stroke-dasharray="4 4"/>
<path d="M1433.85 446.24C1432.8 459.877 1463.84 467.787 1475.66 468.417C1495.29 469.467 1512.65 465.604 1512.67 455.829C1512.7 443.541 1484.45 435.255 1473.26 434.1C1463.01 433.04 1434.8 433.9 1433.85 446.237L1433.85 446.24Z" stroke="#CEFF55" stroke-width="2" stroke-miterlimit="10" stroke-dasharray="4 4"/>
<path d="M1707.18 519.369C1705.27 532.921 1737.08 545.629 1750.19 546.94C1780.16 549.94 1795.19 546.21 1795.74 536.451C1796.45 524.184 1768.9 510.895 1750.19 508.729C1735.95 507.081 1708.91 507.106 1707.18 519.369Z" stroke="#CEFF55" stroke-width="2" stroke-miterlimit="10" stroke-dasharray="4 4"/>
<path d="M1604.79 450.635C1603.21 464.221 1636.06 473.027 1647.84 474.115C1667.41 475.922 1685.05 473.542 1685.45 463.775C1685.96 451.497 1655.78 441.618 1644.64 440.031C1634.44 438.577 1606.21 438.344 1604.79 450.635Z" stroke="#CEFF55" stroke-width="2" stroke-miterlimit="10" stroke-dasharray="4 4"/>
<path d="M1230 349.642L1315.45 359.35C1319.26 359.75 1322.19 362.893 1322.32 366.718L1323.07 389.676C1323.27 395.83 1318.15 400.835 1312.01 400.497V400.5C1302.78 399.993 1264.74 393.065 1221.86 383.988C1219.44 383.476 1216.84 383.258 1214.12 382.856C1202.49 381.133 1189.3 379.185 1177.09 378.333C1155.63 376.838 1129.19 373.42 1118.49 371.966C1116.69 371.72 1116.08 369.434 1117.51 368.32C1123.12 363.966 1132.13 356.87 1132.13 356.87C1132.13 356.87 1143.06 348.16 1148.39 343.911C1149.86 342.736 1151.73 342.188 1153.61 342.385L1166.5 343.911" stroke="#CEFF55" stroke-width="2" stroke-miterlimit="10" stroke-dasharray="4 4"/>
<path d="M1434.26 449.634C1434.26 462.948 1462.47 473.962 1462.47 473.962L1492.16 484.76C1519.34 495.56 1560.57 511.862 1562.88 512.538C1562.85 512.528 1562.72 512.495 1562.54 512.474C1563.28 512.574 1565.41 513.383 1581.81 519.85C1591.52 523.679 1604.99 529.017 1621.85 535.719C1650.31 547.032 1679.04 558.493 1679.79 558.792C1679.79 558.792 1732.79 578.085 1761.18 577.02C1782.11 576.234 1809.21 574.5 1816.27 554.207C1820.99 540.639 1784.01 521.05 1783.24 520.587L1739.19 493.233L1660.75 445.226C1660.69 445.185 1660.62 445.146 1660.55 445.11C1657.94 443.751 1625.35 427.126 1589.89 423.606C1550.83 419.731 1533.14 422.265 1510.6 426.571C1500.94 428.417 1485.61 431.345 1470.58 433.767" stroke="#CEFF55" stroke-width="2" stroke-miterlimit="10" stroke-dasharray="4 4"/>
<path d="M359.033 500.16C359.717 500.46 360.541 500.949 361.818 501.704C363.198 502.521 365.185 503.724 367.722 505.275C368.106 505.511 381.382 513.554 442.018 550.277C455.253 541.986 509.029 508.35 529.043 496.63C540.437 489.956 569.877 473.969 574.81 471.468C577.864 469.919 581.356 468.204 585.055 466.386C600.669 458.714 642.471 442.88 621.407 430.124C616.559 427.188 606.805 421.072 592.236 418.814C577.332 416.505 564.732 417.452 553.718 421.704L495.937 444.012L473.457 452.104C472.042 452.69 468.176 454.109 455.804 458.583C446.59 461.917 433.811 466.517 417.821 472.261C391.402 481.751 364.755 491.29 362.952 491.935C359.455 493.374 357.272 495.081 357.105 496.515C356.957 497.792 358.27 499.495 359.038 500.16H359.033Z" stroke="#CEFF55" stroke-width="2" stroke-miterlimit="10" stroke-dasharray="4 4"/>
<path d="M638.514 365.484L656.214 373.796C656.555 373.955 666.684 378.64 710.967 399.094C718.274 402.471 726.588 402.967 734.245 400.489C744.718 397.102 754.608 394.048 761.719 392.023C769.86 389.704 784.688 385.703 792.163 384.19C796.453 383.319 801.827 382.336 807.963 381.297C816.493 379.85 822.066 371.543 820.174 363.103C819.872 361.761 815.92 353.216 815.771 352.484L787.084 307.656C781.718 299.269 772.996 293.607 763.15 292.114L759.423 291.548C747.429 289.731 735.172 291.984 724.61 297.948L638.504 346.563" stroke="#CEFF55" stroke-width="2" stroke-miterlimit="10" stroke-dasharray="4 4"/>
<path d="M1034.83 524.987C1045.5 530.491 1066.04 531.208 1076.52 530.381C1083.42 529.836 1097.87 527.117 1103.09 522.56C1107.67 518.556 1110.4 507.986 1111.05 504.499C1111.75 500.713 1111.87 493.453 1111.94 488.648C1111.98 486.152 1112.01 484.35 1112.1 483.218C1112.85 473.805 1114.73 427.308 1114.32 418.384C1114.22 416.164 1111.28 406.536 1095.54 378.847C1093.23 374.782 1089.16 372.017 1084.53 371.362C1059.61 367.831 1015.35 361.132 993.266 357.75C989.679 357.202 986.282 359.519 985.481 363.057L963.616 414.091C962.92 417.15 964.092 420.329 966.604 422.208C969.576 424.43 977.86 429.399 980.53 431.376C987.957 436.874 1003.47 451.935 1009.2 460.391C1015.49 469.65 1017.94 501.358 1018.56 506.018C1019.51 513.119 1028.47 521.703 1034.84 524.987H1034.83Z" stroke="#CEFF55" stroke-width="2" stroke-miterlimit="10" stroke-dasharray="4 4"/>
</g>
</g>
</svg>
