<svg width="610" height="660" viewBox="0 0 610 660" fill="none" xmlns="http://www.w3.org/2000/svg">
<path d="M363.5 276.571C366.181 276.571 368.375 278.757 368.375 281.429V378.511L366.852 376.537L325.414 323.109C324.043 321.318 321.88 320.286 319.625 320.286C317.37 320.286 315.237 321.318 313.836 323.109L288.547 355.713L279.254 342.75C277.883 340.838 275.689 339.714 273.312 339.714C270.936 339.714 268.742 340.838 267.371 342.78L242.996 376.78L241.625 378.662V378.571V281.429C241.625 278.757 243.819 276.571 246.5 276.571H363.5ZM246.5 262C235.745 262 227 270.713 227 281.429V378.571C227 389.288 235.745 398 246.5 398H363.5C374.255 398 383 389.288 383 378.571V281.429C383 270.713 374.255 262 363.5 262H246.5ZM270.875 320.286C272.796 320.286 274.697 319.909 276.472 319.177C278.246 318.444 279.858 317.371 281.216 316.018C282.574 314.665 283.652 313.058 284.387 311.291C285.122 309.523 285.5 307.628 285.5 305.714C285.5 303.801 285.122 301.906 284.387 300.138C283.652 298.37 282.574 296.764 281.216 295.411C279.858 294.058 278.246 292.984 276.472 292.252C274.697 291.52 272.796 291.143 270.875 291.143C268.954 291.143 267.053 291.52 265.278 292.252C263.504 292.984 261.892 294.058 260.534 295.411C259.176 296.764 258.098 298.37 257.363 300.138C256.628 301.906 256.25 303.801 256.25 305.714C256.25 307.628 256.628 309.523 257.363 311.291C258.098 313.058 259.176 314.665 260.534 316.018C261.892 317.371 263.504 318.444 265.278 319.177C267.053 319.909 268.954 320.286 270.875 320.286Z" fill="#92AF96"/>
</svg>
