<svg width="253" height="94" viewBox="0 0 253 94" fill="none" xmlns="http://www.w3.org/2000/svg">
<path d="M0 0.641602H32V84.6416H0V0.641602Z" fill="#D2E1A7"/>
<path d="M46.432 32.8016H49.792C50.432 31.6496 51.024 30.2096 51.568 28.4816C52.112 26.7536 52.576 24.8656 52.96 22.8176C53.376 20.7376 53.696 18.5456 53.92 16.2416C54.144 13.9056 54.256 11.5536 54.256 9.1856V2.3696H76.336V32.8016H80.128V45.1376H75.76V36.6416H50.8V45.1376H46.432V32.8016ZM71.776 32.8016V6.2096H58.672V11.1536C58.672 13.2656 58.56 15.3936 58.336 17.5376C58.144 19.6496 57.856 21.6656 57.472 23.5856C57.12 25.4736 56.704 27.2176 56.224 28.8176C55.776 30.4176 55.296 31.7456 54.784 32.8016H71.776Z" fill="#D2E1A7"/>
<path d="M99.2087 37.4096C96.4887 37.4096 94.1047 36.9296 92.0567 35.9696C90.0087 34.9776 88.2968 33.6496 86.9208 31.9856C85.5448 30.3216 84.5048 28.4176 83.8008 26.2736C83.1288 24.1296 82.7927 21.8736 82.7927 19.5056C82.7927 17.1696 83.1288 14.9296 83.8008 12.7856C84.5048 10.6096 85.5448 8.6896 86.9208 7.0256C88.2968 5.3616 90.0087 4.0336 92.0567 3.0416C94.1047 2.0496 96.4887 1.5536 99.2087 1.5536C101.929 1.5536 104.313 2.0496 106.361 3.0416C108.409 4.0336 110.121 5.3616 111.497 7.0256C112.873 8.6896 113.897 10.6096 114.569 12.7856C115.273 14.9296 115.625 17.1696 115.625 19.5056C115.625 21.8736 115.273 24.1296 114.569 26.2736C113.897 28.4176 112.873 30.3216 111.497 31.9856C110.121 33.6496 108.409 34.9776 106.361 35.9696C104.313 36.9296 101.929 37.4096 99.2087 37.4096ZM99.2087 33.6176C101.289 33.6176 103.081 33.2176 104.585 32.4176C106.089 31.5856 107.321 30.4976 108.281 29.1536C109.241 27.8096 109.945 26.3056 110.393 24.6416C110.841 22.9456 111.065 21.2336 111.065 19.5056C111.065 17.7776 110.841 16.0816 110.393 14.4176C109.945 12.7216 109.241 11.2016 108.281 9.8576C107.321 8.5136 106.089 7.4416 104.585 6.6416C103.081 5.8096 101.289 5.3936 99.2087 5.3936C97.1287 5.3936 95.3367 5.8096 93.8327 6.6416C92.3287 7.4416 91.0967 8.5136 90.1367 9.8576C89.1767 11.2016 88.4728 12.7216 88.0247 14.4176C87.5767 16.0816 87.3528 17.7776 87.3528 19.5056C87.3528 21.2336 87.5767 22.9456 88.0247 24.6416C88.4728 26.3056 89.1767 27.8096 90.1367 29.1536C91.0967 30.4976 92.3287 31.5856 93.8327 32.4176C95.3367 33.2176 97.1287 33.6176 99.2087 33.6176Z" fill="#D2E1A7"/>
<path d="M120.701 37.1216C120.221 37.1216 119.709 37.0736 119.165 36.9776C118.653 36.9136 118.238 36.8016 117.918 36.6416V32.5136C118.526 32.7056 119.181 32.8016 119.885 32.8016C121.325 32.8016 122.445 32.0656 123.245 30.5936C124.077 29.0896 124.686 26.9936 125.07 24.3056C125.454 21.6176 125.693 18.4176 125.789 14.7056C125.885 10.9616 125.934 6.8496 125.934 2.3696H147.438V36.6416H142.878V6.2096H130.398C130.366 8.9296 130.302 11.5856 130.206 14.1776C130.142 16.7376 129.997 19.1696 129.773 21.4736C129.581 23.7456 129.277 25.8416 128.861 27.7616C128.445 29.6816 127.886 31.3456 127.182 32.7536C126.478 34.1296 125.598 35.2016 124.542 35.9696C123.486 36.7376 122.205 37.1216 120.701 37.1216Z" fill="#D2E1A7"/>
<path d="M154.932 2.3696H159.492V31.4096L176.723 2.3696H182.484V36.6416H177.924V7.5056L160.643 36.6416H154.932V2.3696Z" fill="#D2E1A7"/>
<path d="M189.994 2.3696H194.554V17.1056H212.602V2.3696H217.162V36.6416H212.602V20.9456H194.554V36.6416H189.994V2.3696Z" fill="#D2E1A7"/>
<path d="M233.947 2.3696H238.987L252.379 36.6416H247.339L243.595 26.3216H229.099L225.259 36.6416H220.603L233.947 2.3696ZM242.155 22.4816L236.443 6.4976H236.347L230.539 22.4816H242.155Z" fill="#D2E1A7"/>
<path d="M63.904 85.4096C61.248 85.4096 58.928 84.9616 56.944 84.0656C54.96 83.1376 53.312 81.8736 52 80.2736C50.688 78.6736 49.696 76.7856 49.024 74.6096C48.384 72.4336 48.064 70.0976 48.064 67.6016C48.064 65.1056 48.416 62.7696 49.12 60.5936C49.824 58.3856 50.848 56.4656 52.192 54.8336C53.568 53.2016 55.264 51.9216 57.28 50.9936C59.296 50.0336 61.632 49.5536 64.288 49.5536C66.08 49.5536 67.776 49.7936 69.376 50.2736C70.976 50.7536 72.4 51.4576 73.648 52.3856C74.896 53.3136 75.936 54.4816 76.768 55.8896C77.6 57.2656 78.144 58.8656 78.4 60.6896H73.84C73.328 58.2576 72.192 56.4336 70.432 55.2176C68.704 54.0016 66.64 53.3936 64.24 53.3936C62.192 53.3936 60.432 53.7776 58.96 54.5456C57.52 55.3136 56.32 56.3536 55.36 57.6656C54.432 58.9456 53.744 60.4176 53.296 62.0816C52.848 63.7456 52.624 65.4736 52.624 67.2656C52.624 69.2176 52.848 71.0736 53.296 72.8336C53.744 74.5616 54.432 76.0816 55.36 77.3936C56.32 78.6736 57.536 79.6976 59.008 80.4656C60.48 81.2336 62.24 81.6176 64.288 81.6176C65.76 81.6176 67.088 81.3776 68.272 80.8976C69.456 80.3856 70.464 79.6976 71.296 78.8336C72.16 77.9376 72.832 76.8816 73.312 75.6656C73.792 74.4496 74.08 73.1376 74.176 71.7296H78.736C78.288 76.0816 76.8 79.4576 74.272 81.8576C71.776 84.2256 68.32 85.4096 63.904 85.4096Z" fill="#D2E1A7"/>
<path d="M84.3846 50.3696H88.9446V79.4096L106.177 50.3696H111.937V84.6416H107.377V55.5056L90.0966 84.6416H84.3846V50.3696Z" fill="#D2E1A7"/>
<path d="M119.543 50.3696H125.783L136.583 79.1696L147.431 50.3696H153.671V84.6416H149.351V56.1296H149.255L138.551 84.6416H134.663L123.959 56.1296H123.863V84.6416H119.543V50.3696Z" fill="#D2E1A7"/>
<path d="M157.948 80.8016H161.308C161.948 79.6496 162.54 78.2096 163.084 76.4816C163.628 74.7536 164.092 72.8656 164.476 70.8176C164.892 68.7376 165.212 66.5456 165.436 64.2416C165.66 61.9056 165.772 59.5536 165.772 57.1856V50.3696H187.852V80.8016H191.644V93.1376H187.276V84.6416H162.316V93.1376H157.948V80.8016ZM183.292 80.8016V54.2096H170.188V59.1536C170.188 61.2656 170.076 63.3936 169.852 65.5376C169.66 67.6496 169.372 69.6656 168.988 71.5856C168.636 73.4736 168.22 75.2176 167.74 76.8176C167.292 78.4176 166.812 79.7456 166.3 80.8016H183.292Z" fill="#D2E1A7"/>
</svg>
