<svg width="305" height="159" viewBox="0 0 305 159" fill="none" xmlns="http://www.w3.org/2000/svg">
<rect x="0.925781" y="0.652344" width="304" height="157.705" rx="16.9433" fill="white" fill-opacity="0.8"/>
<rect x="20.9258" y="20.6523" width="24.1836" height="25.8525" fill="#B8B0D2"/>
<path d="M62.9194 33.624C63.9494 33.884 64.4644 34.529 64.4644 35.559C64.4644 36.259 64.1994 36.799 63.6694 37.179C63.1494 37.559 62.3694 37.749 61.3294 37.749H57.5044V29.799H61.1944C62.1344 29.799 62.8694 29.979 63.3994 30.339C63.9294 30.689 64.1944 31.189 64.1944 31.839C64.1944 32.259 64.0794 32.624 63.8494 32.934C63.6294 33.234 63.3194 33.464 62.9194 33.624ZM58.9144 33.219H61.0744C61.6244 33.219 62.0394 33.119 62.3194 32.919C62.6094 32.719 62.7544 32.429 62.7544 32.049C62.7544 31.289 62.1944 30.909 61.0744 30.909H58.9144V33.219ZM61.2244 36.639C61.8244 36.639 62.2744 36.544 62.5744 36.354C62.8744 36.164 63.0244 35.869 63.0244 35.469C63.0244 35.059 62.8844 34.754 62.6044 34.554C62.3344 34.354 61.9044 34.254 61.3144 34.254H58.9144V36.639H61.2244ZM74.8032 36.489V39.594H73.4532V37.749H66.8082V39.594H65.4432V36.489H65.8632C66.3732 36.459 66.7232 36.099 66.9132 35.409C67.1032 34.719 67.2332 33.744 67.3032 32.484L67.4232 29.799H73.5882V36.489H74.8032ZM68.6232 32.589C68.5832 33.589 68.4982 34.419 68.3682 35.079C68.2482 35.729 68.0232 36.199 67.6932 36.489H72.1482V31.059H68.6982L68.6232 32.589ZM80.0842 37.839C79.2942 37.839 78.5842 37.664 77.9542 37.314C77.3242 36.964 76.8292 36.484 76.4692 35.874C76.1192 35.254 75.9442 34.554 75.9442 33.774C75.9442 32.994 76.1192 32.299 76.4692 31.689C76.8292 31.069 77.3242 30.589 77.9542 30.249C78.5842 29.899 79.2942 29.724 80.0842 29.724C80.8742 29.724 81.5792 29.899 82.1992 30.249C82.8292 30.589 83.3192 31.069 83.6692 31.689C84.0292 32.299 84.2092 32.994 84.2092 33.774C84.2092 34.554 84.0292 35.254 83.6692 35.874C83.3192 36.484 82.8292 36.964 82.1992 37.314C81.5792 37.664 80.8742 37.839 80.0842 37.839ZM80.0842 36.579C80.5942 36.579 81.0492 36.464 81.4492 36.234C81.8592 35.994 82.1792 35.664 82.4092 35.244C82.6392 34.814 82.7542 34.324 82.7542 33.774C82.7542 33.224 82.6392 32.739 82.4092 32.319C82.1792 31.889 81.8592 31.559 81.4492 31.329C81.0492 31.099 80.5942 30.984 80.0842 30.984C79.5742 30.984 79.1142 31.099 78.7042 31.329C78.3042 31.559 77.9842 31.889 77.7442 32.319C77.5142 32.739 77.3992 33.224 77.3992 33.774C77.3992 34.324 77.5142 34.814 77.7442 35.244C77.9842 35.664 78.3042 35.994 78.7042 36.234C79.1142 36.464 79.5742 36.579 80.0842 36.579ZM93.055 29.799V37.749H91.615V31.059H88.195L88.105 32.829C88.055 33.899 87.96 34.794 87.82 35.514C87.68 36.224 87.45 36.794 87.13 37.224C86.81 37.654 86.365 37.869 85.795 37.869C85.535 37.869 85.24 37.824 84.91 37.734L85 36.519C85.13 36.549 85.25 36.564 85.36 36.564C85.76 36.564 86.06 36.389 86.26 36.039C86.46 35.689 86.59 35.274 86.65 34.794C86.71 34.314 86.765 33.629 86.815 32.739L86.95 29.799H93.055ZM99.5143 32.499C100.524 32.509 101.294 32.739 101.824 33.189C102.354 33.639 102.619 34.274 102.619 35.094C102.619 35.954 102.329 36.619 101.749 37.089C101.179 37.549 100.359 37.774 99.2893 37.764L95.8393 37.749V29.799H97.2793V32.484L99.5143 32.499ZM99.1693 36.669C99.8193 36.679 100.309 36.549 100.639 36.279C100.979 36.009 101.149 35.609 101.149 35.079C101.149 34.559 100.984 34.179 100.654 33.939C100.334 33.699 99.8393 33.574 99.1693 33.564L97.2793 33.534V36.654L99.1693 36.669ZM115.591 29.799L111.736 38.544C111.396 39.354 110.996 39.924 110.536 40.254C110.086 40.584 109.541 40.749 108.901 40.749C108.511 40.749 108.131 40.684 107.761 40.554C107.401 40.434 107.101 40.254 106.861 40.014L107.476 38.934C107.886 39.324 108.361 39.519 108.901 39.519C109.251 39.519 109.541 39.424 109.771 39.234C110.011 39.054 110.226 38.739 110.416 38.289L110.671 37.734L107.161 29.799H108.661L111.436 36.159L114.181 29.799H115.591ZM124.725 36.489V39.594H123.375V37.749H116.73V39.594H115.365V36.489H115.785C116.295 36.459 116.645 36.099 116.835 35.409C117.025 34.719 117.155 33.744 117.225 32.484L117.345 29.799H123.51V36.489H124.725ZM118.545 32.589C118.505 33.589 118.42 34.419 118.29 35.079C118.17 35.729 117.945 36.199 117.615 36.489H122.07V31.059H118.62L118.545 32.589ZM130.066 37.839C129.256 37.839 128.531 37.664 127.891 37.314C127.261 36.964 126.766 36.484 126.406 35.874C126.046 35.254 125.866 34.554 125.866 33.774C125.866 32.994 126.046 32.299 126.406 31.689C126.766 31.069 127.261 30.589 127.891 30.249C128.531 29.899 129.256 29.724 130.066 29.724C130.786 29.724 131.426 29.869 131.986 30.159C132.556 30.449 132.996 30.869 133.306 31.419L132.211 32.124C131.961 31.744 131.651 31.459 131.281 31.269C130.911 31.079 130.501 30.984 130.051 30.984C129.531 30.984 129.061 31.099 128.641 31.329C128.231 31.559 127.906 31.889 127.666 32.319C127.436 32.739 127.321 33.224 127.321 33.774C127.321 34.334 127.436 34.829 127.666 35.259C127.906 35.679 128.231 36.004 128.641 36.234C129.061 36.464 129.531 36.579 130.051 36.579C130.501 36.579 130.911 36.484 131.281 36.294C131.651 36.104 131.961 35.819 132.211 35.439L133.306 36.129C132.996 36.679 132.556 37.104 131.986 37.404C131.426 37.694 130.786 37.839 130.066 37.839Z" fill="black"/>
<rect x="20.9258" y="61.5049" width="24.1836" height="25.8525" fill="#2F7081"/>
<path d="M62.9194 74.2734C63.9494 74.5334 64.4644 75.1784 64.4644 76.2084C64.4644 76.9084 64.1994 77.4484 63.6694 77.8284C63.1494 78.2084 62.3694 78.3984 61.3294 78.3984H57.5044V70.4484H61.1944C62.1344 70.4484 62.8694 70.6284 63.3994 70.9884C63.9294 71.3384 64.1944 71.8384 64.1944 72.4884C64.1944 72.9084 64.0794 73.2734 63.8494 73.5834C63.6294 73.8834 63.3194 74.1134 62.9194 74.2734ZM58.9144 73.8684H61.0744C61.6244 73.8684 62.0394 73.7684 62.3194 73.5684C62.6094 73.3684 62.7544 73.0784 62.7544 72.6984C62.7544 71.9384 62.1944 71.5584 61.0744 71.5584H58.9144V73.8684ZM61.2244 77.2884C61.8244 77.2884 62.2744 77.1934 62.5744 77.0034C62.8744 76.8134 63.0244 76.5184 63.0244 76.1184C63.0244 75.7084 62.8844 75.4034 62.6044 75.2034C62.3344 75.0034 61.9044 74.9034 61.3144 74.9034H58.9144V77.2884H61.2244ZM79.2366 77.1384V80.3034H77.8716V78.3984H70.7466V70.4484H72.1866V77.1384H76.5366V70.4484H77.9766V77.1384H79.2366ZM84.508 78.4884C83.718 78.4884 83.008 78.3134 82.378 77.9634C81.748 77.6134 81.253 77.1334 80.893 76.5234C80.543 75.9034 80.368 75.2034 80.368 74.4234C80.368 73.6434 80.543 72.9484 80.893 72.3384C81.253 71.7184 81.748 71.2384 82.378 70.8984C83.008 70.5484 83.718 70.3734 84.508 70.3734C85.298 70.3734 86.003 70.5484 86.623 70.8984C87.253 71.2384 87.743 71.7184 88.093 72.3384C88.453 72.9484 88.633 73.6434 88.633 74.4234C88.633 75.2034 88.453 75.9034 88.093 76.5234C87.743 77.1334 87.253 77.6134 86.623 77.9634C86.003 78.3134 85.298 78.4884 84.508 78.4884ZM84.508 77.2284C85.018 77.2284 85.473 77.1134 85.873 76.8834C86.283 76.6434 86.603 76.3134 86.833 75.8934C87.063 75.4634 87.178 74.9734 87.178 74.4234C87.178 73.8734 87.063 73.3884 86.833 72.9684C86.603 72.5384 86.283 72.2084 85.873 71.9784C85.473 71.7484 85.018 71.6334 84.508 71.6334C83.998 71.6334 83.538 71.7484 83.128 71.9784C82.728 72.2084 82.408 72.5384 82.168 72.9684C81.938 73.3884 81.823 73.8734 81.823 74.4234C81.823 74.9734 81.938 75.4634 82.168 75.8934C82.408 76.3134 82.728 76.6434 83.128 76.8834C83.538 77.1134 83.998 77.2284 84.508 77.2284ZM93.8024 75.0384H92.1524V78.3984H90.7124V70.4484H92.1524V73.8084H93.8324L96.4124 70.4484H97.9574L94.9424 74.2734L98.1674 78.3984H96.4724L93.8024 75.0384ZM102.819 78.4884C102.029 78.4884 101.319 78.3134 100.689 77.9634C100.059 77.6134 99.5636 77.1334 99.2036 76.5234C98.8536 75.9034 98.6786 75.2034 98.6786 74.4234C98.6786 73.6434 98.8536 72.9484 99.2036 72.3384C99.5636 71.7184 100.059 71.2384 100.689 70.8984C101.319 70.5484 102.029 70.3734 102.819 70.3734C103.609 70.3734 104.314 70.5484 104.934 70.8984C105.564 71.2384 106.054 71.7184 106.404 72.3384C106.764 72.9484 106.944 73.6434 106.944 74.4234C106.944 75.2034 106.764 75.9034 106.404 76.5234C106.054 77.1334 105.564 77.6134 104.934 77.9634C104.314 78.3134 103.609 78.4884 102.819 78.4884ZM102.819 77.2284C103.329 77.2284 103.784 77.1134 104.184 76.8834C104.594 76.6434 104.914 76.3134 105.144 75.8934C105.374 75.4634 105.489 74.9734 105.489 74.4234C105.489 73.8734 105.374 73.3884 105.144 72.9684C104.914 72.5384 104.594 72.2084 104.184 71.9784C103.784 71.7484 103.329 71.6334 102.819 71.6334C102.309 71.6334 101.849 71.7484 101.439 71.9784C101.039 72.2084 100.719 72.5384 100.479 72.9684C100.249 73.3884 100.134 73.8734 100.134 74.4234C100.134 74.9734 100.249 75.4634 100.479 75.8934C100.719 76.3134 101.039 76.6434 101.439 76.8834C101.849 77.1134 102.309 77.2284 102.819 77.2284ZM115.789 70.4484V78.3984H114.349V71.7084H110.929L110.839 73.4784C110.789 74.5484 110.694 75.4434 110.554 76.1634C110.414 76.8734 110.184 77.4434 109.864 77.8734C109.544 78.3034 109.099 78.5184 108.529 78.5184C108.269 78.5184 107.974 78.4734 107.644 78.3834L107.734 77.1684C107.864 77.1984 107.984 77.2134 108.094 77.2134C108.494 77.2134 108.794 77.0384 108.994 76.6884C109.194 76.3384 109.324 75.9234 109.384 75.4434C109.444 74.9634 109.499 74.2784 109.549 73.3884L109.684 70.4484H115.789ZM122.249 73.1484C123.259 73.1584 124.029 73.3884 124.559 73.8384C125.089 74.2884 125.354 74.9234 125.354 75.7434C125.354 76.6034 125.064 77.2684 124.484 77.7384C123.914 78.1984 123.094 78.4234 122.024 78.4134L118.574 78.3984V70.4484H120.014V73.1334L122.249 73.1484ZM121.904 77.3184C122.554 77.3284 123.044 77.1984 123.374 76.9284C123.714 76.6584 123.884 76.2584 123.884 75.7284C123.884 75.2084 123.719 74.8284 123.389 74.5884C123.069 74.3484 122.574 74.2234 121.904 74.2134L120.014 74.1834V77.3034L121.904 77.3184ZM127.202 70.4484H128.642V73.8234H133.172V70.4484H134.612V78.3984H133.172V75.0684H128.642V78.3984H127.202V70.4484ZM140.817 78.4884C140.027 78.4884 139.317 78.3134 138.687 77.9634C138.057 77.6134 137.562 77.1334 137.202 76.5234C136.852 75.9034 136.677 75.2034 136.677 74.4234C136.677 73.6434 136.852 72.9484 137.202 72.3384C137.562 71.7184 138.057 71.2384 138.687 70.8984C139.317 70.5484 140.027 70.3734 140.817 70.3734C141.607 70.3734 142.312 70.5484 142.932 70.8984C143.562 71.2384 144.052 71.7184 144.402 72.3384C144.762 72.9484 144.942 73.6434 144.942 74.4234C144.942 75.2034 144.762 75.9034 144.402 76.5234C144.052 77.1334 143.562 77.6134 142.932 77.9634C142.312 78.3134 141.607 78.4884 140.817 78.4884ZM140.817 77.2284C141.327 77.2284 141.782 77.1134 142.182 76.8834C142.592 76.6434 142.912 76.3134 143.142 75.8934C143.372 75.4634 143.487 74.9734 143.487 74.4234C143.487 73.8734 143.372 73.3884 143.142 72.9684C142.912 72.5384 142.592 72.2084 142.182 71.9784C141.782 71.7484 141.327 71.6334 140.817 71.6334C140.307 71.6334 139.847 71.7484 139.437 71.9784C139.037 72.2084 138.717 72.5384 138.477 72.9684C138.247 73.3884 138.132 73.8734 138.132 74.4234C138.132 74.9734 138.247 75.4634 138.477 75.8934C138.717 76.3134 139.037 76.6434 139.437 76.8834C139.847 77.1134 140.307 77.2284 140.817 77.2284ZM156.186 70.4484V78.3984H154.881V72.5934L151.911 77.4984H151.281L148.341 72.5784V78.3984H147.021V70.4484H148.506L151.626 75.8184L154.836 70.4484H156.186ZM165.312 70.3584C166.122 70.3584 166.852 70.5334 167.502 70.8834C168.162 71.2334 168.677 71.7184 169.047 72.3384C169.417 72.9584 169.602 73.6534 169.602 74.4234C169.602 75.2034 169.417 75.9034 169.047 76.5234C168.677 77.1434 168.162 77.6284 167.502 77.9784C166.852 78.3284 166.122 78.5034 165.312 78.5034C164.612 78.5034 163.977 78.3934 163.407 78.1734C162.847 77.9534 162.372 77.6334 161.982 77.2134L162.822 76.3734C163.462 77.0034 164.272 77.3184 165.252 77.3184C166.032 77.3184 166.697 77.0984 167.247 76.6584C167.797 76.2084 168.127 75.6234 168.237 74.9034H164.247V73.8384H168.207C168.077 73.1484 167.742 72.5934 167.202 72.1734C166.662 71.7434 166.012 71.5284 165.252 71.5284C164.282 71.5284 163.472 71.8484 162.822 72.4884L161.982 71.6634C162.372 71.2334 162.852 70.9084 163.422 70.6884C163.992 70.4684 164.622 70.3584 165.312 70.3584ZM177.277 71.7084H174.367V78.3984H172.927V71.7084H170.017V70.4484H177.277V71.7084ZM181.584 70.3734C182.684 70.3734 183.524 70.6434 184.104 71.1834C184.694 71.7234 184.989 72.5284 184.989 73.5984V78.3984H183.624V77.3484C183.384 77.7184 183.039 78.0034 182.589 78.2034C182.149 78.3934 181.624 78.4884 181.014 78.4884C180.124 78.4884 179.409 78.2734 178.869 77.8434C178.339 77.4134 178.074 76.8484 178.074 76.1484C178.074 75.4484 178.329 74.8884 178.839 74.4684C179.349 74.0384 180.159 73.8234 181.269 73.8234H183.549V73.5384C183.549 72.9184 183.369 72.4434 183.009 72.1134C182.649 71.7834 182.119 71.6184 181.419 71.6184C180.949 71.6184 180.489 71.6984 180.039 71.8584C179.589 72.0084 179.209 72.2134 178.899 72.4734L178.299 71.3934C178.709 71.0634 179.199 70.8134 179.769 70.6434C180.339 70.4634 180.944 70.3734 181.584 70.3734ZM181.254 77.3784C181.804 77.3784 182.279 77.2584 182.679 77.0184C183.079 76.7684 183.369 76.4184 183.549 75.9684V74.8584H181.329C180.109 74.8584 179.499 75.2684 179.499 76.0884C179.499 76.4884 179.654 76.8034 179.964 77.0334C180.274 77.2634 180.704 77.3784 181.254 77.3784ZM194.813 75.0384H193.268V78.3984H191.828V75.0384H190.283L188.093 78.3984H186.383L189.113 74.2884L186.593 70.4484H188.123L190.268 73.8084H191.828V70.4484H193.268V73.8084H194.828L196.973 70.4484H198.518L195.998 74.3034L198.728 78.3984H197.018L194.813 75.0384ZM207.233 74.4684C207.233 74.5784 207.223 74.7234 207.203 74.9034H200.753C200.843 75.6034 201.148 76.1684 201.668 76.5984C202.198 77.0184 202.853 77.2284 203.633 77.2284C204.583 77.2284 205.348 76.9084 205.928 76.2684L206.723 77.1984C206.363 77.6184 205.913 77.9384 205.373 78.1584C204.843 78.3784 204.248 78.4884 203.588 78.4884C202.748 78.4884 202.003 78.3184 201.353 77.9784C200.703 77.6284 200.198 77.1434 199.838 76.5234C199.488 75.9034 199.313 75.2034 199.313 74.4234C199.313 73.6534 199.483 72.9584 199.823 72.3384C200.173 71.7184 200.648 71.2384 201.248 70.8984C201.858 70.5484 202.543 70.3734 203.303 70.3734C204.063 70.3734 204.738 70.5484 205.328 70.8984C205.928 71.2384 206.393 71.7184 206.723 72.3384C207.063 72.9584 207.233 73.6684 207.233 74.4684ZM203.303 71.5884C202.613 71.5884 202.033 71.7984 201.563 72.2184C201.103 72.6384 200.833 73.1884 200.753 73.8684H205.853C205.773 73.1984 205.498 72.6534 205.028 72.2334C204.568 71.8034 203.993 71.5884 203.303 71.5884ZM217.801 74.2584C218.331 74.3984 218.741 74.6234 219.031 74.9334C219.321 75.2434 219.466 75.6284 219.466 76.0884C219.466 76.5584 219.306 76.9784 218.986 77.3484C218.666 77.7084 218.221 77.9934 217.651 78.2034C217.091 78.4034 216.461 78.5034 215.761 78.5034C215.171 78.5034 214.591 78.4284 214.021 78.2784C213.461 78.1184 212.961 77.8934 212.521 77.6034L212.956 76.5084C213.336 76.7484 213.771 76.9384 214.261 77.0784C214.751 77.2084 215.246 77.2734 215.746 77.2734C216.426 77.2734 216.966 77.1584 217.366 76.9284C217.776 76.6884 217.981 76.3684 217.981 75.9684C217.981 75.5984 217.816 75.3134 217.486 75.1134C217.166 74.9134 216.711 74.8134 216.121 74.8134H214.666V73.7784H216.016C216.556 73.7784 216.981 73.6834 217.291 73.4934C217.601 73.3034 217.756 73.0434 217.756 72.7134C217.756 72.3534 217.571 72.0734 217.201 71.8734C216.841 71.6734 216.351 71.5734 215.731 71.5734C214.941 71.5734 214.106 71.7784 213.226 72.1884L212.836 71.0784C213.806 70.5884 214.821 70.3434 215.881 70.3434C216.521 70.3434 217.096 70.4334 217.606 70.6134C218.116 70.7934 218.516 71.0484 218.806 71.3784C219.096 71.7084 219.241 72.0834 219.241 72.5034C219.241 72.8934 219.111 73.2434 218.851 73.5534C218.591 73.8634 218.241 74.0984 217.801 74.2584ZM229.74 77.1384V80.2434H228.39V78.3984H221.745V80.2434H220.38V77.1384H220.8C221.31 77.1084 221.66 76.7484 221.85 76.0584C222.04 75.3684 222.17 74.3934 222.24 73.1334L222.36 70.4484H228.525V77.1384H229.74ZM223.56 73.2384C223.52 74.2384 223.435 75.0684 223.305 75.7284C223.185 76.3784 222.96 76.8484 222.63 77.1384H227.085V71.7084H223.635L223.56 73.2384ZM234.451 70.3734C235.551 70.3734 236.391 70.6434 236.971 71.1834C237.561 71.7234 237.856 72.5284 237.856 73.5984V78.3984H236.491V77.3484C236.251 77.7184 235.906 78.0034 235.456 78.2034C235.016 78.3934 234.491 78.4884 233.881 78.4884C232.991 78.4884 232.276 78.2734 231.736 77.8434C231.206 77.4134 230.941 76.8484 230.941 76.1484C230.941 75.4484 231.196 74.8884 231.706 74.4684C232.216 74.0384 233.026 73.8234 234.136 73.8234H236.416V73.5384C236.416 72.9184 236.236 72.4434 235.876 72.1134C235.516 71.7834 234.986 71.6184 234.286 71.6184C233.816 71.6184 233.356 71.6984 232.906 71.8584C232.456 72.0084 232.076 72.2134 231.766 72.4734L231.166 71.3934C231.576 71.0634 232.066 70.8134 232.636 70.6434C233.206 70.4634 233.811 70.3734 234.451 70.3734ZM234.121 77.3784C234.671 77.3784 235.146 77.2584 235.546 77.0184C235.946 76.7684 236.236 76.4184 236.416 75.9684V74.8584H234.196C232.976 74.8584 232.366 75.2684 232.366 76.0884C232.366 76.4884 232.521 76.8034 232.831 77.0334C233.141 77.2634 233.571 77.3784 234.121 77.3784ZM240.449 70.4484H241.889V73.8234H246.419V70.4484H247.859V78.3984H246.419V75.0684H241.889V78.3984H240.449V70.4484ZM250.659 70.4484H252.099V76.2384L256.974 70.4484H258.279V78.3984H256.839V72.6084L251.979 78.3984H250.659V70.4484ZM261.074 70.4484H262.514V76.2384L267.389 70.4484H268.694V78.3984H267.254V72.6084L262.394 78.3984H261.074V70.4484ZM264.794 69.4134C264.054 69.4134 263.479 69.2384 263.069 68.8884C262.659 68.5284 262.449 68.0134 262.439 67.3434H263.414C263.424 67.7134 263.549 68.0134 263.789 68.2434C264.039 68.4634 264.369 68.5734 264.779 68.5734C265.189 68.5734 265.519 68.4634 265.769 68.2434C266.019 68.0134 266.149 67.7134 266.159 67.3434H267.164C267.154 68.0134 266.939 68.5284 266.519 68.8884C266.099 69.2384 265.524 69.4134 264.794 69.4134Z" fill="black"/>
<rect x="20.9258" y="107.432" width="24.1836" height="25.8525" fill="#384D6F"/>
<path d="M62.9194 112.232C63.9494 112.492 64.4644 113.137 64.4644 114.167C64.4644 114.867 64.1994 115.407 63.6694 115.787C63.1494 116.167 62.3694 116.357 61.3294 116.357H57.5044V108.407H61.1944C62.1344 108.407 62.8694 108.587 63.3994 108.947C63.9294 109.297 64.1944 109.797 64.1944 110.447C64.1944 110.867 64.0794 111.232 63.8494 111.542C63.6294 111.842 63.3194 112.072 62.9194 112.232ZM58.9144 111.827H61.0744C61.6244 111.827 62.0394 111.727 62.3194 111.527C62.6094 111.327 62.7544 111.037 62.7544 110.657C62.7544 109.897 62.1944 109.517 61.0744 109.517H58.9144V111.827ZM61.2244 115.247C61.8244 115.247 62.2744 115.152 62.5744 114.962C62.8744 114.772 63.0244 114.477 63.0244 114.077C63.0244 113.667 62.8844 113.362 62.6044 113.162C62.3344 112.962 61.9044 112.862 61.3144 112.862H58.9144V115.247H61.2244ZM79.9116 108.407V116.357H78.6066V110.552L75.6366 115.457H75.0066L72.0666 110.537V116.357H70.7466V108.407H72.2316L75.3516 113.777L78.5616 108.407H79.9116ZM82.7143 108.407H84.1543V111.782H88.6843V108.407H90.1243V116.357H88.6843V113.027H84.1543V116.357H82.7143V108.407ZM96.3293 116.447C95.5393 116.447 94.8293 116.272 94.1993 115.922C93.5693 115.572 93.0743 115.092 92.7143 114.482C92.3643 113.862 92.1893 113.162 92.1893 112.382C92.1893 111.602 92.3643 110.907 92.7143 110.297C93.0743 109.677 93.5693 109.197 94.1993 108.857C94.8293 108.507 95.5393 108.332 96.3293 108.332C97.1193 108.332 97.8243 108.507 98.4443 108.857C99.0743 109.197 99.5643 109.677 99.9143 110.297C100.274 110.907 100.454 111.602 100.454 112.382C100.454 113.162 100.274 113.862 99.9143 114.482C99.5643 115.092 99.0743 115.572 98.4443 115.922C97.8243 116.272 97.1193 116.447 96.3293 116.447ZM96.3293 115.187C96.8393 115.187 97.2943 115.072 97.6943 114.842C98.1043 114.602 98.4243 114.272 98.6543 113.852C98.8843 113.422 98.9993 112.932 98.9993 112.382C98.9993 111.832 98.8843 111.347 98.6543 110.927C98.4243 110.497 98.1043 110.167 97.6943 109.937C97.2943 109.707 96.8393 109.592 96.3293 109.592C95.8193 109.592 95.3593 109.707 94.9493 109.937C94.5493 110.167 94.2293 110.497 93.9893 110.927C93.7593 111.347 93.6443 111.832 93.6443 112.382C93.6443 112.932 93.7593 113.422 93.9893 113.852C94.2293 114.272 94.5493 114.602 94.9493 114.842C95.3593 115.072 95.8193 115.187 96.3293 115.187ZM108.384 109.667H103.974V116.357H102.534V108.407H108.384V109.667ZM112.911 116.447C112.121 116.447 111.411 116.272 110.781 115.922C110.151 115.572 109.656 115.092 109.296 114.482C108.946 113.862 108.771 113.162 108.771 112.382C108.771 111.602 108.946 110.907 109.296 110.297C109.656 109.677 110.151 109.197 110.781 108.857C111.411 108.507 112.121 108.332 112.911 108.332C113.701 108.332 114.406 108.507 115.026 108.857C115.656 109.197 116.146 109.677 116.496 110.297C116.856 110.907 117.036 111.602 117.036 112.382C117.036 113.162 116.856 113.862 116.496 114.482C116.146 115.092 115.656 115.572 115.026 115.922C114.406 116.272 113.701 116.447 112.911 116.447ZM112.911 115.187C113.421 115.187 113.876 115.072 114.276 114.842C114.686 114.602 115.006 114.272 115.236 113.852C115.466 113.422 115.581 112.932 115.581 112.382C115.581 111.832 115.466 111.347 115.236 110.927C115.006 110.497 114.686 110.167 114.276 109.937C113.876 109.707 113.421 109.592 112.911 109.592C112.401 109.592 111.941 109.707 111.531 109.937C111.131 110.167 110.811 110.497 110.571 110.927C110.341 111.347 110.226 111.832 110.226 112.382C110.226 112.932 110.341 113.422 110.571 113.852C110.811 114.272 111.131 114.602 111.531 114.842C111.941 115.072 112.401 115.187 112.911 115.187ZM125.991 108.407L122.136 117.152C121.796 117.962 121.396 118.532 120.936 118.862C120.486 119.192 119.941 119.357 119.301 119.357C118.911 119.357 118.531 119.292 118.161 119.162C117.801 119.042 117.501 118.862 117.261 118.622L117.876 117.542C118.286 117.932 118.761 118.127 119.301 118.127C119.651 118.127 119.941 118.032 120.171 117.842C120.411 117.662 120.626 117.347 120.816 116.897L121.071 116.342L117.561 108.407H119.061L121.836 114.767L124.581 108.407H125.991ZM131.68 108.332C132.45 108.332 133.14 108.502 133.75 108.842C134.36 109.182 134.835 109.657 135.175 110.267C135.525 110.877 135.7 111.582 135.7 112.382C135.7 113.182 135.525 113.892 135.175 114.512C134.835 115.122 134.36 115.597 133.75 115.937C133.14 116.277 132.45 116.447 131.68 116.447C131.11 116.447 130.585 116.337 130.105 116.117C129.635 115.897 129.235 115.577 128.905 115.157V119.267H127.465V108.407H128.845V109.667C129.165 109.227 129.57 108.897 130.06 108.677C130.55 108.447 131.09 108.332 131.68 108.332ZM131.56 115.187C132.07 115.187 132.525 115.072 132.925 114.842C133.335 114.602 133.655 114.272 133.885 113.852C134.125 113.422 134.245 112.932 134.245 112.382C134.245 111.832 134.125 111.347 133.885 110.927C133.655 110.497 133.335 110.167 132.925 109.937C132.525 109.707 132.07 109.592 131.56 109.592C131.06 109.592 130.605 109.712 130.195 109.952C129.795 110.182 129.475 110.507 129.235 110.927C129.005 111.347 128.89 111.832 128.89 112.382C128.89 112.932 129.005 113.422 129.235 113.852C129.465 114.272 129.785 114.602 130.195 114.842C130.605 115.072 131.06 115.187 131.56 115.187ZM141.197 116.447C140.407 116.447 139.697 116.272 139.067 115.922C138.437 115.572 137.942 115.092 137.582 114.482C137.232 113.862 137.057 113.162 137.057 112.382C137.057 111.602 137.232 110.907 137.582 110.297C137.942 109.677 138.437 109.197 139.067 108.857C139.697 108.507 140.407 108.332 141.197 108.332C141.987 108.332 142.692 108.507 143.312 108.857C143.942 109.197 144.432 109.677 144.782 110.297C145.142 110.907 145.322 111.602 145.322 112.382C145.322 113.162 145.142 113.862 144.782 114.482C144.432 115.092 143.942 115.572 143.312 115.922C142.692 116.272 141.987 116.447 141.197 116.447ZM141.197 115.187C141.707 115.187 142.162 115.072 142.562 114.842C142.972 114.602 143.292 114.272 143.522 113.852C143.752 113.422 143.867 112.932 143.867 112.382C143.867 111.832 143.752 111.347 143.522 110.927C143.292 110.497 142.972 110.167 142.562 109.937C142.162 109.707 141.707 109.592 141.197 109.592C140.687 109.592 140.227 109.707 139.817 109.937C139.417 110.167 139.097 110.497 138.857 110.927C138.627 111.347 138.512 111.832 138.512 112.382C138.512 112.932 138.627 113.422 138.857 113.852C139.097 114.272 139.417 114.602 139.817 114.842C140.227 115.072 140.687 115.187 141.197 115.187ZM152.817 112.232C153.847 112.492 154.362 113.137 154.362 114.167C154.362 114.867 154.097 115.407 153.567 115.787C153.047 116.167 152.267 116.357 151.227 116.357H147.402V108.407H151.092C152.032 108.407 152.767 108.587 153.297 108.947C153.827 109.297 154.092 109.797 154.092 110.447C154.092 110.867 153.977 111.232 153.747 111.542C153.527 111.842 153.217 112.072 152.817 112.232ZM148.812 111.827H150.972C151.522 111.827 151.937 111.727 152.217 111.527C152.507 111.327 152.652 111.037 152.652 110.657C152.652 109.897 152.092 109.517 150.972 109.517H148.812V111.827ZM151.122 115.247C151.722 115.247 152.172 115.152 152.472 114.962C152.772 114.772 152.922 114.477 152.922 114.077C152.922 113.667 152.782 113.362 152.502 113.162C152.232 112.962 151.802 112.862 151.212 112.862H148.812V115.247H151.122ZM156.616 108.407H158.056V111.782H162.586V108.407H164.026V116.357H162.586V113.027H158.056V116.357H156.616V108.407ZM174.011 112.427C174.011 112.537 174.001 112.682 173.981 112.862H167.531C167.621 113.562 167.926 114.127 168.446 114.557C168.976 114.977 169.631 115.187 170.411 115.187C171.361 115.187 172.126 114.867 172.706 114.227L173.501 115.157C173.141 115.577 172.691 115.897 172.151 116.117C171.621 116.337 171.026 116.447 170.366 116.447C169.526 116.447 168.781 116.277 168.131 115.937C167.481 115.587 166.976 115.102 166.616 114.482C166.266 113.862 166.091 113.162 166.091 112.382C166.091 111.612 166.261 110.917 166.601 110.297C166.951 109.677 167.426 109.197 168.026 108.857C168.636 108.507 169.321 108.332 170.081 108.332C170.841 108.332 171.516 108.507 172.106 108.857C172.706 109.197 173.171 109.677 173.501 110.297C173.841 110.917 174.011 111.627 174.011 112.427ZM170.081 109.547C169.391 109.547 168.811 109.757 168.341 110.177C167.881 110.597 167.611 111.147 167.531 111.827H172.631C172.551 111.157 172.276 110.612 171.806 110.192C171.346 109.762 170.771 109.547 170.081 109.547ZM181.66 112.232C182.69 112.492 183.205 113.137 183.205 114.167C183.205 114.867 182.94 115.407 182.41 115.787C181.89 116.167 181.11 116.357 180.07 116.357H176.245V108.407H179.935C180.875 108.407 181.61 108.587 182.14 108.947C182.67 109.297 182.935 109.797 182.935 110.447C182.935 110.867 182.82 111.232 182.59 111.542C182.37 111.842 182.06 112.072 181.66 112.232ZM177.655 111.827H179.815C180.365 111.827 180.78 111.727 181.06 111.527C181.35 111.327 181.495 111.037 181.495 110.657C181.495 109.897 180.935 109.517 179.815 109.517H177.655V111.827ZM179.965 115.247C180.565 115.247 181.015 115.152 181.315 114.962C181.615 114.772 181.765 114.477 181.765 114.077C181.765 113.667 181.625 113.362 181.345 113.162C181.075 112.962 180.645 112.862 180.055 112.862H177.655V115.247H179.965ZM189.043 111.107C190.043 111.117 190.808 111.347 191.338 111.797C191.868 112.247 192.133 112.882 192.133 113.702C192.133 114.562 191.843 115.227 191.263 115.697C190.693 116.157 189.873 116.382 188.803 116.372L185.458 116.357V108.407H186.898V111.092L189.043 111.107ZM193.318 108.407H194.758V116.357H193.318V108.407ZM188.698 115.277C189.348 115.287 189.838 115.157 190.168 114.887C190.508 114.617 190.678 114.217 190.678 113.687C190.678 113.167 190.513 112.787 190.183 112.547C189.853 112.307 189.358 112.182 188.698 112.172L186.898 112.142V115.262L188.698 115.277ZM202.523 116.357L200.228 113.312L197.903 116.357H196.298L199.433 112.292L196.448 108.407H198.053L200.243 111.272L202.418 108.407H203.993L200.993 112.292L204.158 116.357H202.523ZM64.8694 126.407V134.357H63.4294V127.667H58.9444V134.357H57.5044V126.407H64.8694ZM70.4907 126.332C71.5907 126.332 72.4307 126.602 73.0107 127.142C73.6007 127.682 73.8957 128.487 73.8957 129.557V134.357H72.5307V133.307C72.2907 133.677 71.9457 133.962 71.4957 134.162C71.0557 134.352 70.5307 134.447 69.9207 134.447C69.0307 134.447 68.3157 134.232 67.7757 133.802C67.2457 133.372 66.9807 132.807 66.9807 132.107C66.9807 131.407 67.2357 130.847 67.7457 130.427C68.2557 129.997 69.0657 129.782 70.1757 129.782H72.4557V129.497C72.4557 128.877 72.2757 128.402 71.9157 128.072C71.5557 127.742 71.0257 127.577 70.3257 127.577C69.8557 127.577 69.3957 127.657 68.9457 127.817C68.4957 127.967 68.1157 128.172 67.8057 128.432L67.2057 127.352C67.6157 127.022 68.1057 126.772 68.6757 126.602C69.2457 126.422 69.8507 126.332 70.4907 126.332ZM70.1607 133.337C70.7107 133.337 71.1857 133.217 71.5857 132.977C71.9857 132.727 72.2757 132.377 72.4557 131.927V130.817H70.2357C69.0157 130.817 68.4057 131.227 68.4057 132.047C68.4057 132.447 68.5607 132.762 68.8707 132.992C69.1807 133.222 69.6107 133.337 70.1607 133.337ZM80.7038 126.332C81.4738 126.332 82.1638 126.502 82.7738 126.842C83.3838 127.182 83.8588 127.657 84.1988 128.267C84.5488 128.877 84.7238 129.582 84.7238 130.382C84.7238 131.182 84.5488 131.892 84.1988 132.512C83.8588 133.122 83.3838 133.597 82.7738 133.937C82.1638 134.277 81.4738 134.447 80.7038 134.447C80.1338 134.447 79.6088 134.337 79.1288 134.117C78.6588 133.897 78.2588 133.577 77.9288 133.157V137.267H76.4888V126.407H77.8688V127.667C78.1888 127.227 78.5938 126.897 79.0838 126.677C79.5738 126.447 80.1138 126.332 80.7038 126.332ZM80.5838 133.187C81.0938 133.187 81.5488 133.072 81.9488 132.842C82.3588 132.602 82.6788 132.272 82.9088 131.852C83.1488 131.422 83.2688 130.932 83.2688 130.382C83.2688 129.832 83.1488 129.347 82.9088 128.927C82.6788 128.497 82.3588 128.167 81.9488 127.937C81.5488 127.707 81.0938 127.592 80.5838 127.592C80.0838 127.592 79.6288 127.712 79.2188 127.952C78.8188 128.182 78.4988 128.507 78.2588 128.927C78.0288 129.347 77.9138 129.832 77.9138 130.382C77.9138 130.932 78.0288 131.422 78.2588 131.852C78.4888 132.272 78.8088 132.602 79.2188 132.842C79.6288 133.072 80.0838 133.187 80.5838 133.187ZM89.9059 130.997H88.2559V134.357H86.8159V126.407H88.2559V129.767H89.9359L92.5159 126.407H94.0609L91.0459 130.232L94.2709 134.357H92.5759L89.9059 130.997ZM95.7807 126.407H97.2207V132.197L102.096 126.407H103.401V134.357H101.961V128.567L97.1007 134.357H95.7807V126.407ZM106.196 126.407H107.636V129.782H112.166V126.407H113.606V134.357H112.166V131.027H107.636V134.357H106.196V126.407ZM122.256 127.667H117.846V134.357H116.406V126.407H122.256V127.667ZM126.565 126.332C127.665 126.332 128.505 126.602 129.085 127.142C129.675 127.682 129.97 128.487 129.97 129.557V134.357H128.605V133.307C128.365 133.677 128.02 133.962 127.57 134.162C127.13 134.352 126.605 134.447 125.995 134.447C125.105 134.447 124.39 134.232 123.85 133.802C123.32 133.372 123.055 132.807 123.055 132.107C123.055 131.407 123.31 130.847 123.82 130.427C124.33 129.997 125.14 129.782 126.25 129.782H128.53V129.497C128.53 128.877 128.35 128.402 127.99 128.072C127.63 127.742 127.1 127.577 126.4 127.577C125.93 127.577 125.47 127.657 125.02 127.817C124.57 127.967 124.19 128.172 123.88 128.432L123.28 127.352C123.69 127.022 124.18 126.772 124.75 126.602C125.32 126.422 125.925 126.332 126.565 126.332ZM126.235 133.337C126.785 133.337 127.26 133.217 127.66 132.977C128.06 132.727 128.35 132.377 128.53 131.927V130.817H126.31C125.09 130.817 124.48 131.227 124.48 132.047C124.48 132.447 124.635 132.762 124.945 132.992C125.255 133.222 125.685 133.337 126.235 133.337ZM137.528 134.357L135.233 131.312L132.908 134.357H131.303L134.438 130.292L131.453 126.407H133.058L135.248 129.272L137.423 126.407H138.998L135.998 130.292L139.163 134.357H137.528Z" fill="black"/>
</svg>
