<svg width="1920" height="1023" viewBox="0 0 1920 1023" fill="none" xmlns="http://www.w3.org/2000/svg">
<path fill-rule="evenodd" clip-rule="evenodd" d="M1920 279.459L1798.44 265.583V265.576C1797.21 265.435 1796.09 266.29 1795.9 267.514C1795.18 272.186 1793.84 281.146 1793.84 281.146C1793.84 281.146 1794.24 286.442 1787.25 289.788C1786.31 290.236 1785.12 290.774 1783.75 291.368L1857.18 333.172L1814.94 435.457C1814.34 436.919 1814.16 438.522 1814.42 440.083L1816.93 455.005L1849.09 655.732L1851.18 669.948C1851.6 672.767 1849.24 675.217 1846.41 674.912L1810.2 671.018L1540.99 644.832C1538.16 644.555 1536.02 647.359 1537.03 650.021C1537.52 651.292 1537.94 652.41 1538.3 653.343L1538.34 653.443L1538.34 653.45L1538.35 653.479C1539.03 655.267 1539.44 656.345 1539.49 656.48C1539.79 657.381 1554.17 699.639 1554.17 699.639L1920 736.803V751.789L471.447 607.064C462.595 619.222 440.074 650.246 439.713 651.69C439.695 651.764 439.642 651.898 439.557 652.074L439.219 652.902L439.213 652.916L439.203 652.94C435.631 661.689 414.501 713.432 414.09 715.078C413.909 715.801 411.476 723.499 408.601 732.594C404.326 746.12 399.074 762.735 398.804 764.079C398.354 766.327 403.3 826.569 403.3 826.569L410.043 876.471L405.998 923.224L388.017 976.723L356.997 1023H332.27C332.27 1023 365.985 974.478 366.436 973.129C366.886 971.78 383.969 923.677 383.969 923.677L388.014 881.868L385.992 867.48L382.62 831.965C382.62 831.965 380.372 802.746 380.372 801.396C380.372 800.047 379.023 764.532 379.023 764.532C379.023 764.532 391.16 720.925 391.611 719.576C392.059 718.227 406.446 694.849 406.446 694.849L311.588 773.523L216.282 850.397L199.24 864.342C199.24 864.342 235.917 848.913 252.022 846.127C262.497 844.315 292.252 841.873 302.815 843.078C314.929 844.463 342.016 853.667 350.252 859.165C359.383 865.263 370.033 876.699 370.931 902.998C371.861 930.182 342.659 958.493 335.465 965.188C311.598 987.396 283.016 996.458 283.016 996.458C283.016 996.458 238.359 1017.54 190.106 1008.95C162.383 1004.01 138.957 981.672 138.957 981.672L148.846 1023H106.588L86.5075 956.197C64.896 974.01 4.86656 1023 4.40064 1023H0V1011.34L82.8288 945.379C66.4294 913.038 51.1437 883.967 0 809.041V781.167L51.7427 855.794L0 703.843V592.352L71.0758 771.736L82.8902 806.447C82.88 803.252 82.9005 800.546 82.9875 800.283C83.2128 799.609 85.4605 777.581 85.4605 777.581L91.305 762.07L101.645 747.46L123.448 727.679L141.207 716.888L161.661 707.222L183.69 699.803L205.494 694.857L227.297 693.283L247.752 694.181L265.06 697.327L280.794 703.845L292.708 712.163L300.127 722.502L303.724 735.315C303.724 735.315 302.825 747.903 302.6 748.576C302.374 749.252 293.384 769.706 293.384 769.706C293.384 769.706 282.371 783.418 283.226 784.879C307.935 765.062 328.225 748.801 328.225 748.801L398.356 689.01L422.182 659.787C422.182 659.787 454.999 613.032 456.348 612.133C456.963 611.724 458.422 608.877 459.827 605.902L0 559.686V543.576L5.21472 540.205L0 542.002V538.405L26.1274 525.16L64.1152 498.41L145.71 440.193L221.012 386.246L379.707 275.204L421.517 245.083C421.517 245.083 452.611 219.531 463.775 207.768C477.125 193.701 519.744 154.047 519.744 154.047L605.386 71.5532L633.034 51.0988L720.474 0.523438H724.744L645.397 46.6034L612.355 68.8575L583.928 96.4466L624.492 102.35L708.541 114.326C708.951 114.382 709.348 114.507 709.717 114.692L721.713 120.69C722.23 120.951 722.785 121.128 723.359 121.217L780.787 130.223L929.219 153.225L944.653 155.698L930.378 198.957C930.135 199.699 929.436 200.196 928.655 200.186C922.102 200.091 893.228 199.679 893.028 199.679C892.803 199.679 852.193 201.627 852.193 201.627L809.011 136.669C808.691 136.188 808.184 135.866 807.613 135.778L721.828 122.705C721.277 122.62 720.742 122.454 720.238 122.213L706.099 115.419C705.743 115.25 705.365 115.135 704.973 115.078L608.95 101.498C608.074 101.372 607.188 101.669 606.564 102.294L575.516 133.341C575.235 133.626 575.37 134.107 575.759 134.202L606.31 141.562L604.861 142.811L575.849 135.935C574.38 135.586 572.836 136.024 571.768 137.092L541.002 167.804C540.746 168.058 540.826 168.488 541.156 168.634L555.979 175.193L552.709 176.624L540.892 171.383C539.441 170.738 537.746 171.053 536.622 172.174L518.497 190.263C518.497 190.263 479.434 229.024 479.135 229.124C479.094 229.137 478.72 229.439 478.106 229.948C477.581 230.383 477.844 231.238 478.523 231.302L480.666 231.508L478.025 233.45C477.636 233.413 477.423 233.394 477.409 233.394C477.35 233.394 476.985 233.363 476.471 233.32L476.342 233.309C475.049 233.199 473.764 233.609 472.776 234.451C468.309 238.251 462.846 242.929 461.167 244.367L451.948 251.211H451.943L451.974 251.419L438.508 261.677C437.883 262.153 438.003 263.123 438.723 263.433L480.182 281.273L481.075 281.693C482.063 282.157 483.195 282.208 484.219 281.834C498.058 276.783 528.102 265.878 535.168 263.315C535.872 263.062 536.072 262.163 535.542 261.633L535.178 261.27L541.322 259.096C541.322 259.096 545.669 261.267 545.444 261.418C545.257 261.541 502.19 277.042 486.95 282.525C486.095 282.833 486.039 284.023 486.863 284.41L491.197 286.442L565.96 318.53L566.147 321.063L561.9 319.166L556.712 321.583L528.282 309.131V309.139L435.151 268.02C433.144 267.135 430.82 267.386 429.048 268.678L404.344 286.703C403.861 287.057 403.95 287.802 404.503 288.032L405.888 288.608L403.827 290.218L402.662 289.855C401.5 289.491 400.236 289.701 399.253 290.418L397.01 292.054C397.01 292.054 341.862 331.816 341.563 332.215C341.263 332.614 329.475 340.806 329.475 340.806L270.198 383.366C269.652 383.758 269.834 384.611 270.492 384.744L286.333 387.969C287.849 388.279 289.418 387.805 290.511 386.712L291.062 386.164L294.508 386.763C294.508 386.763 293.891 387.409 293.179 388.169C292.767 388.607 292.997 389.326 293.586 389.446L372.808 405.569L367.713 409.765L360.294 408.342L360.627 407.656C361.068 406.752 360.533 405.677 359.547 405.48L283.238 390.253C281.953 389.997 280.622 390.332 279.613 391.167L278.326 392.232L274.803 391.482L276.416 389.677C276.68 389.382 276.524 388.911 276.134 388.835L267.715 387.155C266.322 386.879 264.878 387.191 263.726 388.018L256.847 392.956L218.226 420.827L217.421 417.29L321.485 342.396L394.913 289.947L428.882 265.243L410.598 257.171C407.194 259.665 404.178 261.866 402.952 262.752C388.493 273.192 352.346 298.203 352.346 298.203C352.346 298.203 319.452 321.384 317.271 322.92C282.002 347.762 262.579 361.514 216.586 394.249L216.589 394.246C164.25 431.497 111.05 469.643 71.0298 498.359L98.0915 500.96C99.4458 501.091 100.8 500.727 101.906 499.936L152.377 463.857L153.265 467.705L142.359 475.575L109.56 499.373C108.416 500.205 108.908 502.01 110.316 502.145L229.873 513.637L303.71 520.827L303.699 520.818L314.871 521.906L322.172 513.327L336.357 498.74C336.357 498.74 347.047 487.952 351.443 484.855C351.689 484.683 367.527 472.367 367.527 472.367L385.01 459.979L387.815 458.113C388.566 457.614 388.351 456.459 387.472 456.262C385.256 455.765 382.611 455.174 380.466 454.693C379.024 454.37 377.514 454.759 376.408 455.74L309.584 514.927L279.914 512.229C279.914 512.229 295.599 498.244 295.899 497.944C296.198 497.644 309.185 488.055 309.185 488.055L315.38 489.353L309.487 494.946L305.491 494.247L289.819 507.803C288.784 508.699 289.35 510.398 290.715 510.496L293.49 510.693C294.713 510.78 295.924 510.375 296.848 509.569L371.979 443.995L372.008 443.983L376.778 439.809L384.271 441.158L383.788 441.824C383.455 442.28 383.713 442.925 384.266 443.03L398.526 445.713C399.109 445.763 399.693 445.612 400.18 445.282L453.448 409.232C453.742 409.213 497.633 406.286 506.239 405.653L506.454 407.235L455.138 410.43L416.777 436.604L404.266 445.003C403.506 445.513 403.746 446.69 404.647 446.859L407.389 447.374C407.4 447.376 407.409 447.38 407.417 447.386L438.817 453.295L443.654 454.174L443.654 454.171L449.565 455.095C450.448 455.233 451.347 455.01 452.064 454.478C454.353 452.775 459.944 448.616 466.855 443.475L467.281 446.028L456.063 454.688C455.361 455.23 455.632 456.347 456.505 456.505L459.559 457.061L459.558 457.064L477.908 460.399C480.184 460.814 482.527 460.246 484.36 458.84L503.748 443.972L503.719 444L504.298 447.735L488.056 460.064C487.171 460.737 487.506 462.143 488.602 462.342L509.727 466.182L535.805 470.892L535.799 470.883L539.18 471.495C540.604 471.751 542.063 471.285 543.072 470.248C546.502 466.722 554.365 458.639 556.26 456.653L556.859 461.156L547.05 470.87C546.312 471.6 546.704 472.854 547.723 473.038L551.896 473.791C551.906 473.793 551.915 473.797 551.921 473.803L574.945 477.961C578.253 478.557 581.655 477.646 584.22 475.478C598.828 463.131 612.05 452.097 612.05 452.097L680.832 400.247L699.113 388.059C700.808 386.93 700.57 384.372 698.698 383.574L694.395 381.738L689.4 379.573L688.979 374.657C688.979 374.657 674.292 367.914 674.092 368.062C673.979 368.148 671.331 369.557 669.066 370.756L660.784 367.165L660.096 359.289L662.973 360.558L662.979 360.549L666.259 361.996C667.605 362.59 669.146 362.544 670.455 361.868L680.542 356.658C680.617 357.6 680.689 358.512 680.753 359.318C677.713 360.98 674.657 362.669 672.961 363.609C672.405 363.916 672.444 364.727 673.025 364.983L676.302 366.427C676.307 366.429 676.31 366.434 676.311 366.441L697.769 375.907L703.334 378.287C707.31 379.987 711.872 379.567 715.469 377.169L745.572 357.101L765.738 345.387L766.125 352.31L762.533 354.565C759.972 353.641 756.849 352.539 756.762 352.628C756.611 352.779 741.028 362.868 741.028 362.868L738.829 362.218L727.891 369.26L728.286 376.054L723.241 379.219L719.204 382.099L719.186 382.097C718.047 382.911 718.236 384.654 719.521 385.204L735.061 391.85L735.063 391.851L735.072 391.842L739.874 393.931C740.865 394.361 741.997 394.325 742.957 393.826L746.206 392.138L746.308 392.085L746.34 392.069C751.823 389.22 759.984 384.98 760.249 384.848C760.649 384.649 752.257 381.052 752.257 381.052C752.257 381.052 782.227 361.67 782.526 361.57C782.69 361.516 798.482 367.128 812.84 372.231L812.852 372.235L812.858 372.237L812.885 372.247L812.919 372.259L812.924 372.261C820.196 374.845 827.092 377.296 831.392 378.809C828.55 378.357 825.722 377.924 825.422 377.944C812.285 373.258 783.359 363.395 783.128 363.472C782.829 363.572 756.645 380.655 756.645 380.655L765.044 385.15L746.139 395.303C745.573 395.608 745.609 396.427 746.195 396.683L748.678 397.763L748.664 397.771L769.933 407.028L769.942 407.018L774.542 409.02C775.686 409.516 776.992 409.468 778.093 408.884L778.83 408.493L778.953 408.428C781.268 407.201 784.96 405.244 789.346 402.918L789.444 404.997C785.504 407.074 782.301 408.761 780.404 409.76C779.644 410.159 779.687 411.26 780.473 411.603L783.42 412.885C783.439 412.894 783.453 412.904 783.464 412.917L797.55 419.048L798.144 419.301C799.578 419.91 801.211 419.836 802.581 419.096L818.733 410.38L818.857 413.349L805.993 420.387C805.053 420.901 805.123 422.271 806.106 422.688L817.109 427.368L863.701 447.882L855.936 452.686L826.044 439.061C826.046 439.063 826.047 439.065 826.048 439.066C826.049 439.067 826.051 439.069 826.052 439.069C826.081 439.082 825.716 438.923 825.158 438.68L825.076 438.644L825.039 438.628C824.367 438.336 823.456 437.939 822.606 437.569C821.119 436.921 819.401 437.103 818.082 438.045L792.316 456.485L784.587 461.879C784.587 461.879 784.568 461.898 784.533 461.935L781.878 460.984C782.65 460.491 786.145 458.249 786.323 457.982C786.5 457.716 810.953 440.165 816.487 436.194C816.974 435.846 816.892 435.101 816.342 434.866L811.324 432.715L811.333 432.715L806.908 430.818L806.495 423.694C806.495 423.694 797.279 420.023 796.98 420.322C796.889 420.413 794.591 422 791.426 424.173C791.37 424.125 791.305 424.084 791.232 424.052L781.829 419.954L780.257 419.232C779.034 418.669 777.605 418.789 776.492 419.547C766.579 426.303 740.086 444.361 739.72 444.604C739.361 444.845 727.002 454.683 722.081 458.602C721.26 459.258 721.536 460.571 722.552 460.84L736.033 464.411C737.037 464.674 738.107 464.457 738.926 463.822L750.132 455.127C750.19 456.053 750.288 457.578 750.4 459.316C744.117 464.179 738.57 468.442 738.376 468.571C737.925 468.87 713.649 461.078 713.649 461.078L736.277 443.396C736.277 443.396 751.365 433.179 756.357 429.72C757.308 429.061 758.606 428.154 760.09 427.115L760.115 427.098L760.118 427.096C764.178 424.256 769.619 420.45 773.153 418.1C773.988 417.545 773.888 416.29 772.977 415.873L753.958 407.131L713.672 389.953C711.537 389.044 709.084 389.311 707.195 390.657L703.729 393.13C703.729 393.13 663.345 421.533 650.557 431.41C641.165 438.663 626.554 450.076 613.664 460.555L611.987 460.261L605.243 466.331L600.748 465.358L583.066 480.943L583.663 486.18C581.801 487.82 579.886 489.511 577.935 491.24L569.877 490.082L555.042 507.239L555.416 509.187L544.399 521.856C539.607 526.425 535.145 530.81 531.274 534.811L530.167 535.955C529.577 536.565 528.947 537.215 528.283 537.901L526.682 539.555C525.637 540.632 526.303 542.442 527.798 542.586L581.635 547.716L581.633 547.71L586.182 548.143C587.964 548.312 589.679 547.437 590.588 545.895C593.304 541.29 598.816 531.956 599.154 531.506C599.34 531.258 595.121 530.726 590.107 530.187L589.904 528.576C596.731 529.429 604.305 530.307 604.548 530.307C604.914 530.307 597.723 542.583 595.017 547.18C594.546 547.982 595.06 549.003 595.984 549.101L599.438 549.469C599.449 549.47 599.458 549.473 599.464 549.476L619.653 551.627L619.649 551.62L622.329 551.904C623.935 552.075 625.511 551.394 626.487 550.109L638.524 534.256L638.929 538.801L630.173 550.324L630.176 550.327C629.441 551.294 630.066 552.69 631.274 552.787L632.429 552.879L632.424 552.886L655.898 554.781C656.745 554.85 657.569 554.492 658.102 553.829L661.248 549.897L683.927 519.927L707.704 491.555L710.405 492.182L710.593 494.424C710.593 494.424 709.426 495.899 707.774 497.991C707.167 498.224 706.621 498.622 706.209 499.16L689.259 520.402L688.712 520.352L687.456 522.761L664.607 553.517C663.875 554.474 664.479 555.864 665.679 555.979L782.415 567.22C783.575 567.333 784.699 566.78 785.316 565.792L809.406 527.248L809.391 527.259L810.085 526.148C811.086 524.546 809.839 522.485 807.955 522.631C804.745 522.878 800.208 523.23 795.585 523.595C795.563 522.966 795.539 522.289 795.514 521.593L813.879 520.081L813.884 520.083L814.654 518.852L823.644 520.426L821.171 526.045L817.969 525.628C816.771 525.472 815.593 526.033 814.961 527.062C809.882 535.323 787.904 571.081 787.904 571.677C787.904 572.353 733.507 566.058 733.507 566.058L525.379 545.755C522.665 545.491 519.98 546.477 518.083 548.435C500.134 566.954 474.97 592.89 474.97 592.89L1541.22 698.369L1541.22 698.359L1526 653.787C1526 653.787 1524.83 650.802 1523.31 646.921C1522.37 644.497 1520.14 642.807 1517.54 642.554L954.012 587.629C954.012 587.629 1002.35 520.877 1016.9 500.991C1017.82 499.736 1017.06 497.954 1015.52 497.755C1012.75 497.396 1010.21 497.056 1008.63 496.818C996.408 494.977 972.068 490.52 960 487.827C950.042 485.605 930.307 480.367 920.52 477.487C908.806 474.04 888.582 467.478 874.592 460.592L874.41 452.597L877.35 453.892C877.35 453.892 881.938 455.973 887.212 458.3C887.995 458.646 888.899 458.577 889.621 458.118L922.383 437.259L950.124 419.237C950.843 418.769 950.705 417.678 949.891 417.407L948.311 416.879L953.257 413.283L960.75 415.958L900.36 454.939L894.533 458.907C893.53 459.59 893.681 461.114 894.799 461.59C897.175 462.598 899.29 463.469 900.733 464.004C904.608 465.44 912.489 467.876 919.127 469.927L919.129 469.928L919.13 469.928C924.918 471.717 929.76 473.214 930.179 473.501C931.08 474.118 965.245 483.109 973.338 484.683C980.675 486.109 1014.7 491.178 1014.7 491.178L1063.89 496.176L1062.4 502.54L1044.97 500.937L1045.05 498.008C1045.05 498.008 1033.29 494.862 1033.07 495.087C1032.99 495.164 1031.59 497.061 1029.77 499.54L1029.54 499.519L1029.01 499.454L1028.16 499.35C1027.33 499.248 1026.17 499.106 1024.82 498.938C1024.07 498.845 1023.34 499.168 1022.9 499.78L964.165 582.048C963.249 583.331 964.065 585.125 965.635 585.276L1083.79 596.709C1085.92 596.916 1087.84 595.452 1088.22 593.348L1092.16 571.086C1092.53 569.038 1091.19 567.072 1089.15 566.655L1087.31 566.278L1088.43 560.884H1088.44L1098.33 562.008C1098.33 562.008 1094.73 584.956 1093.18 595.183C1092.98 596.489 1093.92 597.692 1095.24 597.82L1119 600.118V600.111L1123.89 600.585C1125.67 600.759 1127.26 599.497 1127.51 597.725C1128.77 588.463 1132.41 562.077 1132.79 562.077L1132.78 562.075C1132.99 562.075 1141.83 562.268 1151.3 562.476C1162.22 562.715 1173.97 562.973 1174.29 562.973C1174.89 562.973 1194.67 567.768 1194.67 567.768L1192.03 576.729L1188.76 576.5C1189.92 572.742 1190.97 569.217 1190.83 569.171C1190.53 569.071 1173.15 564.975 1173.15 564.975L1136.39 564.176L1132.04 592.349C1132.49 592.498 1174.75 596.394 1174.75 596.394L1175.94 584.705L1185.93 585.455H1185.94C1185.94 585.455 1186.15 584.797 1186.48 583.746L1186.37 584.787L1186.19 587.336L1179.54 586.799L1178.04 599.238L1132.04 594.592L1131.32 599.12C1131.13 600.285 1131.97 601.365 1133.14 601.478C1134.03 601.565 1135.03 601.661 1135.81 601.736C1136.55 601.808 1137.09 601.86 1137.13 601.865C1137.13 601.865 1137.13 601.865 1137.14 601.867C1137.14 601.867 1137.14 601.869 1137.14 601.871L1137.14 601.873L1217.86 609.678C1219.11 609.798 1220.26 609 1220.58 607.791C1224.6 592.754 1238.51 540.776 1243.65 522.659C1244.26 520.508 1242.78 518.332 1240.55 518.115L1234.32 517.503C1234.32 517.503 1229.3 517.073 1221.45 516.401C1221.5 515.339 1221.51 514.559 1221.41 514.528C1221.11 514.428 1182.73 510.731 1181.99 510.731C1181.25 510.731 1144.79 507.733 1144.79 507.733L1144.48 509.834C1135.09 509.037 1128.83 508.512 1128.67 508.512C1128.48 508.512 1126.74 508.369 1124.34 508.164C1123.26 508.072 1122.29 508.84 1122.14 509.912L1119.27 529.842C1119.12 530.84 1119.83 531.759 1120.83 531.877L1122.82 532.113V534.954L1114.82 534.736C1114.82 534.736 1114.24 538.196 1113.72 541.315L1087.8 538.924C1087.82 538.491 1087.84 537.875 1087.86 537.247L1112.51 539.104L1112.93 536.606L1112.93 536.608C1112.93 536.608 1116.02 516.632 1117.33 508.945C1117.46 508.207 1116.93 507.521 1116.18 507.455C1111.71 507.063 1107.76 506.712 1107.76 506.712L1104.01 506.367L1104.23 500.042L1134.99 502.78C1136.54 502.918 1138 502.04 1138.6 500.609L1153.16 466.287C1153.83 464.703 1152.78 462.921 1151.07 462.742L1150.24 462.655L1152.26 458.149L1156.96 458.876L1161.03 459.508C1161.03 459.508 1148.62 488.779 1143.69 500.896C1143.17 502.173 1144.03 503.587 1145.4 503.709L1263.08 514.13L1261.42 520.125L1257.25 519.745L1252.43 519.274C1250.68 519.103 1249.05 520.237 1248.61 521.944L1231.65 587.492C1231.47 588.508 1232.19 589.477 1233.24 589.577C1235.87 589.829 1239.72 590.201 1244.49 590.662C1244.42 591.504 1244.34 592.349 1244.28 593.149L1232.69 592.043C1231.5 591.928 1230.4 592.652 1230.02 593.768L1226.69 606.66C1226.17 608.641 1227.55 610.61 1229.59 610.807L1378.8 625.222C1380.34 625.371 1381.66 624.134 1381.6 622.588C1381.5 619.463 1381.35 615.278 1381.2 610.935L1381.19 610.938L1381.16 610.249C1381.08 607.938 1379.3 606.046 1376.99 605.826L1367.71 604.938C1367.82 604.129 1367.93 603.367 1368.03 602.687C1371.83 603.058 1375.12 603.379 1377.76 603.637C1379.44 603.801 1380.88 602.444 1380.82 600.754L1380.83 600.75C1380.61 594.392 1380.43 589.431 1380.43 589.431L1390.77 590.555V595.949H1388.6C1386.97 595.949 1385.68 597.321 1385.79 598.944L1387.35 623.671C1387.44 625.051 1388.52 626.162 1389.89 626.295L1414.61 628.683V628.681L1421.73 629.367C1423.32 629.52 1424.66 628.187 1424.52 626.589L1420.5 581.758L1468.96 583.056L1477.78 610.54L1476.92 615.488C1466.47 614.511 1427.15 610.843 1426.8 610.932V610.935C1426.49 611.014 1427.8 622.439 1428.4 627.582C1428.57 629.019 1429.72 630.142 1431.16 630.281L1435.17 630.669L1438.7 631.01L1440.29 631.164L1440.98 631.23L1440.99 631.231L1440.99 631.232L1514.45 638.33C1517.09 638.586 1519.08 635.987 1518.15 633.504C1517.35 631.379 1516.81 629.858 1516.74 629.518C1516.32 627.28 1513.16 618.47 1509.47 608.163L1509.47 608.159L1509.46 608.153C1507.67 603.139 1505.74 597.772 1503.94 592.635L1504.83 587.462L1500.14 573.876H1497.79C1497.72 573.636 1497.66 573.401 1497.6 573.172C1494.54 561.934 1482.22 542.322 1482.22 542.322L1480.48 540.074H1480.49C1478.18 537.084 1474.55 535.417 1470.78 535.612C1469.6 535.674 1468.87 535.709 1468.76 535.709C1468.09 535.709 1420.66 535.709 1389.64 531.887C1389.41 531.859 1387.38 531.667 1384.5 531.396C1383.58 531.309 1382.79 532.051 1382.83 532.978L1383.8 560.884L1383.79 560.884V566.425L1342.77 562.646C1342.83 561.267 1342.84 559.883 1342.58 559.883C1342.43 559.883 1341.32 559.771 1339.88 559.619V546.349L1282.79 541.403L1278.75 558.786L1281.59 559.385L1280.1 563.947C1280.1 563.947 1274.1 563.281 1274.25 562.679C1274.4 562.08 1280.1 539.301 1280.1 539.301L1342.43 544.695C1342.43 544.695 1342.88 560.88 1343.33 560.88C1343.78 560.88 1373.75 563.944 1373.75 563.944L1373.45 559.756L1373.46 559.756V553.691L1374.93 553.755C1376.91 553.839 1378.52 552.196 1378.4 550.222L1377.4 534.204C1377.27 532.189 1375.7 530.566 1373.69 530.379C1371.25 530.151 1368.86 529.929 1366.82 529.74L1366.56 523.6C1369.95 523.902 1400.41 526.605 1415.28 527.542L1415.28 527.538L1424.89 527.94C1425.92 527.98 1426.7 527.026 1426.45 526.03L1426.44 526.032L1425.6 522.671L1409.56 503.789C1409.56 503.789 1385.2 506.751 1377.8 507.605L1378.03 505.962L1378.04 505.964L1378.03 505.805L1409.27 501.538C1409.27 501.538 1385.14 470.519 1384.99 470.519C1384.84 470.519 1320.55 474.116 1320.55 474.116C1320.55 474.116 1322.78 484.121 1324.66 492.044L1321.83 491.887L1317.55 472.766L1387.09 468.722L1430.24 522.82L1431.23 526.319C1431.53 527.405 1432.51 528.162 1433.63 528.188L1437.29 528.267L1437.29 528.271C1444.48 528.42 1450.77 528.518 1450.77 528.518C1450.77 528.518 1457.93 528.593 1466.42 528.651C1468.55 528.667 1469.77 526.217 1468.46 524.527L1460.66 514.433C1460.66 514.433 1449.39 502.295 1436.67 488.628C1431.58 482.434 1427.21 477.162 1427.11 477.193C1427.08 477.205 1426.72 477.255 1426.15 477.329C1423.12 474.081 1420.16 470.91 1417.41 467.956L1418.8 457.995L1479.55 521.632C1479.55 521.632 1483.3 526.299 1485.09 527.026C1490.19 529.089 1493.73 528.659 1493.94 528.523C1494.24 528.322 1504.43 527.367 1516.17 526.268L1516.17 526.268L1516.19 526.266C1521.03 525.812 1526.14 525.334 1530.93 524.874L1530.71 526.022L1507.53 528.421L1506.61 534.005C1505.22 534.058 1503.85 534.1 1502.48 534.132C1500.9 534.171 1498.77 534.248 1496.33 534.35C1492.75 534.501 1490.7 538.502 1492.68 541.495L1495.59 545.898C1495.59 545.898 1506.08 559.087 1517.91 597.449C1520.04 604.346 1524.55 616.772 1528.9 628.453C1529.85 631.016 1530.8 633.545 1531.71 635.969C1532.67 638.529 1535.01 640.316 1537.73 640.58L1555.07 642.257L1686.59 655.328C1688.5 655.52 1689.94 653.61 1689.22 651.826L1660.95 581.567L1671.51 582.465L1673.76 588.084H1671.91C1670.64 588.084 1669.78 589.362 1670.24 590.539L1695.21 653.267C1695.96 655.133 1697.68 656.429 1699.68 656.628L1704.33 657.092L1784.66 664.583L1784.66 664.577L1794.31 665.478C1796.01 665.637 1797.28 663.96 1796.68 662.365L1790.34 645.697L1740.28 640.24L1740.77 638.299C1758.99 640.004 1794.84 643.301 1794.84 643.301L1790.94 607.635L1786.3 597.144C1786.3 597.144 1736.13 595.408 1721.21 595.261L1720.62 593.468C1739.93 594.026 1789.38 595.437 1789.74 595.196C1790.19 594.896 1794.84 607.934 1794.84 607.934L1798.79 645.997H1796.34L1802.72 663.745C1803.29 665.332 1804.73 666.448 1806.41 666.604L1809.42 666.886L1811.13 667.045L1812.52 667.175C1812.53 667.177 1812.55 667.18 1812.56 667.185L1839.91 669.736C1842.06 669.935 1843.83 668.064 1843.51 665.926L1834.03 602.92V602.912L1811.89 462.035C1811.5 459.565 1809.21 457.855 1806.73 458.182L1805.26 458.377L1692.19 492.768L1614.19 517.27L1607.54 518.747C1607.53 518.749 1607.52 518.751 1607.51 518.754L1599.92 512.735C1600.55 512.439 1600.72 511.579 1600.19 511.072L1582.74 494.246C1580.99 492.665 1578.61 491.971 1576.27 492.377C1575.69 492.478 1575.08 492.585 1574.43 492.697L1572.41 490.293L1574.71 489.904C1575.92 489.697 1576.4 488.24 1575.59 487.355L1554.78 467.291L1552.31 464.382L1552.61 462.283L1545.86 454.409L1546.31 454.345C1546.31 454.345 1586.43 493.172 1602.84 509.06C1604.28 510.452 1606.34 510.975 1608.27 510.432C1636.7 502.429 1673.98 490.984 1673.98 490.984L1691.37 485.725C1692.62 485.347 1692.86 483.677 1691.76 482.966L1625.97 440.26C1623.95 438.946 1621.41 438.739 1619.2 439.704L1619.14 439.73L1613.07 435.235L1619.14 433.437C1619.89 433.624 1676.91 470.378 1695.44 482.328C1696.89 483.263 1698.68 483.514 1700.33 483.014L1758.73 465.355L1773.14 460.722L1773.14 460.716L1780.41 458.379C1781.2 458.126 1781.37 457.084 1780.71 456.585L1779.1 455.384L1775.66 453.136L1775.66 453.131L1756.18 445.638L1742.13 449.849L1742.66 447.535C1749.08 445.58 1753.5 444.192 1753.33 444.148C1752.73 443.997 1688.14 418.523 1688.14 418.523L1663.9 430.936L1664.63 427.69L1687.39 415.968L1740.29 436.798L1778.5 452.384L1783.4 455.259C1784.9 456.147 1786.72 456.347 1788.39 455.811C1790.29 455.202 1792.77 454.406 1794.21 453.941C1794.85 453.734 1795.29 453.593 1795.38 453.564C1795.39 453.56 1795.41 453.559 1795.42 453.561L1809.08 449.171L1809.82 448.877L1808.48 440.388C1808.14 438.196 1808.42 435.951 1809.29 433.914L1824.36 398.821C1824.36 398.821 1826.72 393.243 1830.05 385.343L1777.31 353.041C1777.31 353.041 1704.63 308.235 1704.18 308.235C1703.73 308.235 1673.91 289.955 1673.91 289.955C1673.91 289.955 1671.71 288.749 1668.86 287.218C1668.3 287.056 1664.98 285.168 1661.74 283.328L1661.74 283.328L1661.73 283.325L1661.73 283.324C1659.04 281.795 1656.41 280.302 1655.48 279.863C1649.62 277.101 1638.3 272.869 1631.2 270.872C1621.9 268.253 1604.14 264.536 1597.99 263.272L1594.13 262.639C1587.97 261.961 1566.84 259.693 1558.97 259.682C1548.82 259.667 1527.95 260.43 1518.51 263.128C1517.92 263.297 1481.5 269.871 1481.5 269.871C1481.5 269.871 1454.52 275.565 1442.39 275.864C1433.95 276.074 1418.86 276.164 1408.67 274.666C1382.99 270.89 1366.56 266.272 1355.17 260.279C1349.04 257.053 1337.34 249.939 1333.74 242.746C1332.66 240.593 1331.49 237.802 1331.19 233.455C1330.69 226.187 1330.09 206.816 1329.9 200.449C1329.87 199.359 1330.81 198.496 1331.89 198.616L1475.5 214.573L1652.78 235.403L1702.08 240.767L1708.61 241.803C1709.58 241.96 1710.02 243.114 1709.39 243.88C1708.76 244.648 1708 245.564 1707.29 246.401C1706.02 247.891 1704.49 249.686 1702.8 251.682C1702.4 252.151 1702.68 252.875 1703.29 252.945L1920 277.51V279.459ZM1661.86 439.915L1671.67 446.153L1672.08 444.241L1662.29 438.024L1661.86 439.915ZM1542.2 492.908C1536.78 486.283 1520.95 466.928 1520.76 466.928H1511.92L1506 457.412H1499.63L1503.23 463.556L1506.9 463.63L1509.82 468.725L1518.74 468.651L1539.19 493.443L1542.2 492.908ZM1535.25 504.447L1526.23 506.039C1526.23 506.039 1526.23 506.039 1526.22 506.04C1526.55 506.499 1526.75 506.786 1526.75 506.786L1526.59 507.794C1527.47 507.628 1530.92 507.008 1534.94 506.289L1535.25 504.447ZM1553.8 522.184L1552.4 529.454C1556.94 528.78 1561.25 528.085 1565.24 527.404L1566.7 520.129L1581.26 517.881L1581.37 517.418C1576.35 518.443 1569.7 519.538 1563.33 520.586L1563.32 520.589C1559.97 521.139 1556.71 521.676 1553.8 522.184ZM1635.78 552.052C1636.23 551.671 1636.34 551.044 1636.1 550.54L1636.41 549.1H1636.41L1614.23 531.418L1614.75 528.646L1648.13 554.81L1640.27 557.283L1635.48 553.454L1635.78 552.052ZM1531.42 552.406L1531.7 551.012C1537.91 550.365 1578.04 545.957 1591.44 543.001C1591.44 543.001 1622 567.776 1622.41 567.876C1622.81 567.976 1649.38 560.683 1649.38 560.683L1645.38 556.986L1649.08 555.79L1655.77 561.284C1655.77 561.284 1622.1 570.674 1621.8 570.574C1621.69 570.536 1617 566.707 1611.29 562.053C1602.35 554.756 1590.91 545.429 1590.73 545.499C1587.85 546.641 1563.77 549.405 1548.25 551.187L1548.25 551.187C1540.66 552.058 1535.12 552.694 1535.09 552.793C1534.99 553.092 1537.79 558.038 1537.79 558.038L1540.28 557.388L1542.78 562.183L1537.69 562.582L1534.39 558.036C1534.39 558.036 1532.41 554.418 1531.42 552.406ZM1723.39 616.464L1722.52 619.733L1725.02 627.426L1726.9 627.599C1725.82 624.252 1724.59 620.362 1723.39 616.464ZM1406.69 445.308L1365.77 402.438L1364.84 409.9L1373.98 419.567C1373.98 419.567 1373.88 420.415 1373.73 421.665C1382.4 430.922 1391.21 440.309 1396.47 445.865L1399.16 445.723L1399.69 446.096C1399.69 446.096 1403.58 445.655 1406.69 445.308ZM1285.88 383.211L1286.15 380.652L1284.53 380.742L1284.54 380.747L1272.28 381.434L1272.05 383.758C1276.64 383.568 1281.74 383.363 1285.88 383.211ZM1248.23 384.283C1248.32 383.472 1248.4 382.639 1248.49 381.819L1237.91 381.963C1237.91 381.963 1236.33 381.925 1234.16 381.874C1233.22 381.851 1232.33 381.434 1231.72 380.719C1224.64 372.504 1201.02 345 1201.02 345L1193.53 346.198L1196.53 349.695L1197.43 349.587C1199.49 349.341 1201.53 350.148 1202.86 351.73L1208.27 358.153L1209.8 359.968L1209.81 359.98L1209.82 359.997C1210.3 360.604 1209.95 361.509 1209.18 361.637C1207.94 361.843 1206.15 362.138 1204.19 362.46L1204.12 363.467L1204.02 364.75L1210.9 363.729C1212.04 363.56 1213.18 363.995 1213.93 364.878L1215.98 367.31L1225.54 378.661C1226.54 379.846 1225.66 381.654 1224.11 381.608C1222.76 381.567 1221.86 381.533 1221.81 381.515C1221.58 381.441 1190.41 379.718 1190.41 379.718L1178.91 378.98L1179.44 381.509L1196.47 382.634L1231.69 384.283H1232.5C1234.41 384.283 1235.99 385.788 1236.08 387.703L1237.33 415.026C1237.41 416.808 1235.97 418.285 1234.18 418.239L1233.69 418.226V422.522L1238.78 422.801V428.715L1272.25 430.412C1272.25 430.412 1269.15 401.141 1269.25 400.741C1269.35 400.342 1292.13 400.043 1292.43 400.043C1292.73 400.043 1318.71 397.744 1319.01 397.644C1319.3 397.544 1347.38 428.415 1347.38 428.415L1336.19 430.412L1341.48 436.907C1341.48 436.907 1355.67 434.408 1355.97 434.408C1356.27 434.408 1320.4 396.146 1320.4 396.146C1320.4 396.146 1292.63 398.545 1291.93 398.545C1291.51 398.545 1282.4 398.8 1275.2 399.002L1275.18 399.003L1275.16 399.003C1270.46 399.135 1266.57 399.244 1266.46 399.244C1266.16 399.244 1268.75 427.816 1268.75 427.816L1242.78 426.818V423.021L1242.78 423.021C1242.78 423.021 1241.05 396.666 1240.41 386.733C1240.33 385.404 1241.38 384.283 1242.71 384.283H1248.23ZM1157.45 380.056L1153.87 379.819C1152.96 379.818 1152.19 380.498 1152.09 381.41C1151.68 385.045 1150.77 393.26 1150.77 393.493C1150.77 393.793 1158.34 394.392 1158.56 394.392C1158.71 394.392 1160.47 406.899 1161.71 415.795L1160.27 415.712V411.715L1158.1 411.548L1155.94 395.518L1147.47 394.994L1148.96 381.09C1149.04 380.264 1148.46 379.528 1147.66 379.409L1145.45 379.263L1125.37 377.74L1122.83 377.568C1121.43 377.473 1120.08 378.098 1119.25 379.227L1118.98 379.593L1118.92 379.676L1118.85 379.767C1116.24 383.319 1111.08 390.347 1106.18 397.021L1103.35 396.192C1108.38 389.348 1113.55 382.345 1115.96 379.086C1116.54 378.307 1116.07 377.214 1115.14 377.063L1106.91 376.523L1107.02 374.118L1148.38 377.02L1157.64 377.615L1157.47 379.546L1157.45 380.056ZM1093.52 372.915L1064.54 370.052L1040.86 366.68L1011.87 361.278V363.91L1038.45 368.849L1075.39 373.643L1089.3 374.92L1089.73 374.378L1092.23 374.677L1093.52 372.915ZM1107.31 417.995C1111.28 418.855 1118.8 420.468 1119.08 420.468H1119.08C1119.26 420.468 1122.39 420.957 1125.57 421.454C1126.82 421.651 1128.09 421.849 1129.19 422.019C1129.21 421.529 1129.23 421.047 1129.26 420.582L1126.05 420.169C1126.05 420.169 1109.04 417.02 1108.74 416.946C1108.68 416.932 1108.16 416.793 1107.35 416.575L1107.31 417.995ZM987.07 377.159L983.128 381.648L981.226 381.205L977.555 385.552L976.449 385.25L985.703 374.839C985.478 374.839 955.209 368.17 955.209 368.17C955.209 368.17 938.425 362.551 938.126 362.551C937.981 362.551 934.726 364.904 931.433 367.349L929.299 366.507C930.81 365.388 932.311 364.281 933.601 363.328L933.606 363.325L933.619 363.315C935.754 361.739 937.31 360.591 937.378 360.523C937.523 360.38 944.297 362.818 949.176 364.574C951.867 365.542 953.981 366.303 954.087 366.309C954.238 366.316 962.533 368.103 970.792 369.883C978.278 371.495 985.734 373.101 987.07 373.371V377.159ZM996.825 361.052L998.608 361.427L1000.67 359.03L976.12 353.043L963.766 349.209V352.133C966.76 353.066 968.859 353.714 968.922 353.714C969.147 353.714 990.799 359.407 990.799 359.407L996.33 360.651C996.543 360.732 996.712 360.875 996.825 361.052ZM927.402 345.016C927.348 343.108 927.302 341.452 927.284 340.772C927.258 341.061 927.11 341.341 926.83 341.526L920.009 346.056L924.081 347.265L927.402 345.016ZM897.828 365.043V363.298L909.292 354.607V353.173L891.62 364.909C891.085 365.265 890.417 365.346 889.81 365.137L887.775 364.425L887.243 364.893C886.989 364.808 867.299 358.229 867.398 358.03C867.436 357.955 870.864 355.753 875.098 353.048V350.918L863.65 358.181L885.923 366.055L884.029 367.722L890.773 369.821L897.828 365.043ZM881.196 340.046L885.235 337.453L882.53 338.7L871.066 333.106L850.712 321.317L817.083 340.108L818.929 340.716L820.204 340.021V339.541C820.204 339.541 825.598 336.843 825.823 336.544C825.862 336.492 826.07 336.538 826.389 336.649L850.661 323.414H850.663L873.542 336.301L881.196 340.046ZM890.112 323.371C890.255 323.442 891.608 324.109 893.494 325.034C893.88 324.835 895.458 324.022 897.065 323.194L895.875 322.623L889.998 319.369L890.112 323.371ZM872.169 308.789L864.331 303.453L864.372 307.631L868.401 310.337C870.095 309.637 871.725 308.966 872.169 308.789ZM803.294 330.766C803.202 328.258 803.099 325.39 803.051 323.748C794.712 328.541 788.682 332.059 788.682 332.059L780.057 337.069L787.628 339.644L803.294 330.766ZM832.047 307.359V308.565L836.143 306.418V305.117C834.822 305.835 833.452 306.585 832.047 307.359ZM848.912 295.877C849.628 295.49 850.074 295.248 850.105 295.23C850.221 295.164 856.533 298.178 860.705 300.184C860.742 299.956 860.881 299.743 861.112 299.624L861.11 299.621L891.226 284.256C891.226 284.256 920.789 270.442 930.488 265.524C941.128 260.13 956.516 255.848 965.555 253.986C966.689 253.753 967.909 253.492 969.2 253.215C975.292 251.91 982.965 250.267 990.582 249.64C1005.01 248.454 1017.12 247.926 1028 247.451C1031.85 247.284 1035.54 247.123 1039.13 246.941C1045.04 246.644 1050.75 246.236 1056.12 245.852L1056.12 245.851C1060.78 245.518 1065.18 245.203 1069.26 244.993C1089.64 243.944 1126.55 245.559 1144.78 250.687C1146.42 251.148 1148.53 251.677 1150.95 252.283L1150.95 252.284C1157.62 253.954 1166.6 256.205 1174.45 259.229C1198.58 268.52 1211.32 280.959 1211.32 280.959L1262.83 321.549L1265.26 321.038L1273.05 327.031L1276.87 326.319L1286.46 333.999L1285.91 339.769L1294.1 338.003L1257.47 308.54C1257.47 308.54 1225.42 282.932 1214.31 274.973C1212.16 273.43 1209.27 271.487 1206.08 269.446C1205.01 268.76 1205.19 267.14 1206.38 266.707L1217.74 262.608L1217.87 260.462L1204.53 265.315C1202.52 266.044 1200.3 265.847 1198.46 264.767C1193.28 261.723 1188.09 258.981 1184.34 257.591C1175.84 254.447 1167.67 251.851 1159.46 249.716C1158.84 249.555 1158.67 248.751 1159.19 248.367C1161.07 246.953 1163.64 244.992 1166.43 242.85C1166.51 241.639 1166.59 240.332 1166.66 239.139L1155.67 247.361C1154.76 248.037 1153.61 248.278 1152.5 248.027C1137.87 244.704 1122.73 242.751 1104.92 241.709C1086.59 240.636 1049.82 242.382 1031.49 243.506C1027.87 243.729 1023.71 243.882 1019.2 244.049C1011.42 244.335 1002.56 244.662 993.429 245.454C987.098 246.002 980.572 246.829 974.464 247.802C972.552 248.106 970.837 246.591 970.911 244.655L971.551 227.524L963.459 227.025V232.319H965.171C966.195 232.319 967.012 233.176 966.961 234.2L966.313 247.059C966.249 248.342 965.322 249.419 964.063 249.675C962.652 249.962 961.295 250.254 960.005 250.548C950.546 252.704 943.434 254.65 923.297 262.987C903.8 271.059 881.339 282.018 863.529 291.777C862.692 292.235 861.86 292.671 861.038 293.085C857.313 294.959 852.838 294.493 849.567 291.91L847.099 289.962C847.099 289.962 839.398 283.721 831.432 277.26L831.442 277.258L831.448 277.262L831.445 277.257L831.442 277.258L828.737 275.061L840.048 272.09C840.027 271.541 840.002 270.922 839.977 270.266L826.904 273.573L824.367 271.515L824.354 271.518C818.672 266.906 814.139 263.222 814.057 263.139C814.038 263.119 813.845 262.961 813.51 262.686L813.496 262.674L813.496 262.674L813.304 262.516C812.672 261.997 812.872 260.98 813.655 260.745L824.998 257.302L824.928 255.665C819.651 257.16 814.707 258.561 811.584 259.444C810.629 259.713 809.605 259.503 808.835 258.876C806.405 256.899 803.433 254.482 800.605 252.185L800.613 252.181L799.241 251.065C798.752 250.668 798.918 249.888 799.525 249.726C801.948 249.08 806.804 247.791 809.426 247.118L809.379 246.227C804.828 247.367 800.494 248.434 798.381 248.953C797.599 249.144 796.779 248.992 796.12 248.541C793.01 246.016 790.753 244.184 790.753 244.184L789.115 242.914C789.112 242.908 789.108 242.902 789.101 242.896L787.201 241.424C786.694 241.033 786.861 240.229 787.48 240.073C791.422 239.074 801.668 236.466 801.908 236.304C802.208 236.105 831.079 229.31 831.079 229.31L838.772 228.911L839.359 229.952C839.997 229.794 840.845 229.583 841.806 229.344L840.871 227.605L830.58 228.304L785.924 239.202C785.667 239.265 785.406 239.286 785.149 239.27L785.393 244.038L792.436 249.831L792.44 249.945L801.318 257.222L803.356 258.914C803.812 259.293 803.681 260.023 803.126 260.223C794.563 263.274 767.708 272.797 767.455 272.882C767.227 272.958 743.257 282.796 731.785 287.506L731.805 287.474H727.881C727.881 287.474 713.87 278.033 713.644 277.959C713.596 277.943 716.244 277.071 720.442 275.707L720.363 274.194L709.894 277.513L723.531 286.955L723.536 286.949L726.536 290.967C726.548 290.986 726.561 291.004 726.574 291.022L729.644 295.062C730.847 296.646 732.974 297.215 734.807 296.436L755.965 287.469L779.942 277.779L809.357 266.758C810.821 266.21 812.465 266.49 813.665 267.488L814.656 268.312L830.016 280.526L847.398 294.688L848.912 295.877ZM732.549 255.523L729.401 253.477L722.251 255.776V257.573C722.251 257.573 722.49 257.739 722.885 258.013L718.836 259.081L716.62 256.142C716.556 254.936 716.46 252.133 716.46 252.133L716.306 252.047L725.779 248.89L731.134 254.522L759.645 247.692L762.629 250.179L760.548 250.861C759.473 249.98 758.73 249.396 758.672 249.415C758.484 249.477 738.915 254.04 732.549 255.523ZM754.333 263.424L754.413 264.762C755.456 264.427 756.478 264.099 757.472 263.78L757.398 262.452L754.333 263.424ZM769.99 233.296L770.177 233.463C770.173 233.392 770.169 233.322 770.165 233.253L769.99 233.296ZM857.822 251.723L857.872 254.089L863.01 258.213C863.658 258.733 863.45 259.765 862.654 259.995L853.138 262.748C853.565 263.078 854.008 263.421 854.462 263.772L868.441 260.066C868.44 260.039 868.44 260.013 868.44 259.986L857.822 251.723ZM868.742 271.463C867.109 272.21 865.677 272.865 864.553 273.379C864.568 273.833 864.583 274.351 864.598 274.91L868.792 273.031C868.776 272.539 868.759 272.013 868.742 271.463ZM899.151 268.74L899.628 268.514V259.421C901.246 260.205 903.436 261.308 905.313 262.253L905.315 262.254C907.411 263.309 909.117 264.168 909.203 264.168C909.428 264.168 899.313 268.814 899.313 268.814L899.151 268.74ZM1177.01 230.39C1177.25 230.454 1177.4 230.496 1177.4 230.496L1181.38 227.598L1178.74 226.822L1175.55 229.421L1176.52 229.889C1176.75 230.001 1176.92 230.182 1177.01 230.39ZM1187.24 246.337C1187.25 246.01 1187.27 245.668 1187.28 245.32C1190.44 242.846 1200.63 234.855 1200.82 234.727C1200.94 234.646 1209.56 236.372 1217.52 237.993L1215.36 238.771C1209.16 237.484 1202.45 236.111 1202.25 236.151C1201.87 236.225 1189.36 245.666 1189.58 245.74C1189.68 245.773 1191.85 246.523 1194.27 247.363C1194.25 247.774 1194.23 248.213 1194.2 248.668L1187.24 246.337ZM1234.13 244.658L1244.31 249.392C1245.37 249.008 1246.24 248.695 1246.85 248.477C1244.61 247.416 1240.61 245.47 1237.16 243.792L1237.15 243.785C1236.13 243.289 1235.16 242.816 1234.3 242.398C1234.24 243.179 1234.18 243.945 1234.13 244.658ZM1255.2 252.41L1255.02 254.611L1265.41 259.601L1246.82 266.577L1246.73 267.992C1251.35 266.288 1257.14 264.181 1261.75 262.504C1264.39 261.545 1266.64 260.727 1268.06 260.206V259.216C1268.06 259.216 1268.27 259.126 1268.61 258.979C1265.74 257.481 1257.91 253.713 1255.2 252.41ZM1270.11 276.448C1270.07 276.953 1270.03 277.437 1270 277.885L1264.27 279.546L1264.38 278.069L1270.11 276.448ZM1298.03 341.162L1304 346.213L1303.55 349.735L1315.68 359.776L1315.24 363.819L1324.15 371.078C1327.94 370.771 1331.47 370.487 1331.57 370.487C1331.79 370.487 1341.01 380.527 1341.01 380.527L1340.71 384.349L1346.49 390.962L1346.56 390.345C1346.56 390.345 1350.16 389.789 1353.24 389.309L1347.23 383.013L1345.66 381.467C1344.15 379.977 1345 377.402 1347.1 377.107C1349.32 376.797 1350.77 376.593 1350.83 376.575C1350.91 376.546 1354.2 375.924 1358.25 375.163L1358.51 372.481L1347.15 374.624L1346.39 374.724C1342.17 375.277 1337.93 373.851 1334.9 370.866L1334.61 370.582L1298.03 341.162ZM1390.77 365.418C1391.58 366.041 1392.67 366.918 1393.67 367.729L1406.32 364.39C1406.44 363.388 1406.55 362.403 1406.65 361.524C1403.59 362.365 1401.48 362.935 1401.4 362.935C1401.28 362.935 1396.51 364.059 1390.77 365.418ZM1420.95 354.515C1422.95 354.008 1424.37 353.65 1424.48 353.629C1424.6 353.605 1427.2 355.329 1430.71 357.7L1430.87 357.657C1432.06 357.323 1432.82 357.109 1432.87 357.093C1432.93 357.072 1438.25 355.571 1445.85 353.426C1446.19 351.281 1446.5 349.495 1446.59 349.436C1446.67 349.381 1447.86 349.073 1449.34 348.701C1449.03 348.599 1448.73 348.47 1448.44 348.315C1445.88 346.939 1441.06 344.348 1435.21 341.205C1435.14 341.711 1435.06 342.208 1434.99 342.678L1445.06 348.128L1445.06 348.133C1446.28 348.791 1446.08 350.596 1444.74 350.964L1442.53 351.579L1442.53 351.585L1431.6 354.62C1431.6 354.62 1431.29 354.707 1430.73 354.863C1430.44 354.941 1430.1 355.037 1429.7 355.147C1429.06 355.327 1428.38 355.25 1427.79 354.935C1424 352.895 1416.59 348.906 1407.87 344.207L1407.52 347.177L1420.95 354.515ZM1347.62 320.2C1347.61 320.207 1347.6 320.214 1347.59 320.222C1344.3 322.743 1338.7 327.036 1338.48 327.108C1338.29 327.173 1356.43 337.419 1369.14 344.578C1369.07 345.045 1369.01 345.517 1368.95 345.989C1357.59 339.589 1337.52 328.292 1334.55 326.698L1334.61 326.072C1336.86 324.169 1347.08 316.72 1347.08 316.72H1347.12L1348.05 316.46L1347.62 320.2ZM1381.27 329.889C1381.2 330.509 1381.13 331.17 1381.06 331.846C1382.11 331.591 1383.04 331.369 1383.72 331.208C1382.9 330.765 1382.08 330.325 1381.27 329.889ZM1368.01 352.909C1367.92 353.623 1367.84 354.287 1367.76 354.882L1359.15 357.117L1359.36 355.405L1368.01 352.909ZM1394.52 320.775C1394.58 320.288 1394.64 319.818 1394.7 319.374C1390.68 317.192 1388.18 315.826 1388.24 315.826C1388.54 315.826 1413.32 309.531 1413.32 309.531L1459.37 327.512L1455.67 329.509L1473.42 340.658C1474 341.018 1474.14 341.69 1473.93 342.227L1477.43 341.158C1476.85 341.04 1476.29 340.817 1475.78 340.491L1459.17 329.908L1464.06 327.709C1464.06 327.709 1413.51 307.928 1413.21 307.928C1412.91 307.928 1384.44 315.321 1384.44 315.321L1394.52 320.775ZM1507.8 330.642L1514.62 334.076L1514.84 332.427L1516.3 331.846L1512.22 329.519C1512.22 329.519 1509.62 330.176 1507.8 330.642ZM1534.72 350.752L1534.29 353.266L1543.4 357.718C1544.54 357.228 1545.68 356.733 1546.41 356.405L1534.72 350.752ZM1580.25 372.763L1579.72 375.458L1592.54 381.721C1593.34 382.213 1593.1 383.482 1592.13 383.602C1586.59 384.298 1575.68 385.659 1569.92 386.307C1570.67 386.788 1571.62 387.431 1572.47 388.015L1599.42 385.078L1601.03 385.865L1606.52 383.011L1599.63 379.869C1598.25 380.622 1596.59 380.663 1595.18 379.979L1580.25 372.763ZM1563.17 386.958C1563.87 386.775 1564.72 386.551 1565.54 386.336C1558.96 383 1503.03 354.989 1503.03 354.989L1479.3 362.397L1479.04 364.256C1487.28 361.744 1503.03 356.789 1503.03 356.789L1563.17 386.958ZM1478.43 368.691L1478.13 370.837L1479.26 371.611C1480.02 371.415 1480.88 371.195 1481.72 370.98C1480.5 370.136 1479.4 369.367 1478.43 368.691ZM1509.92 390.547L1509.61 392.504L1517.52 397.948L1495.65 403.757L1495.64 403.755C1493.99 404.192 1492.23 403.857 1490.85 402.843L1488.06 400.782V400.789L1466.76 385.066L1465.84 384.42C1465.84 384.414 1465.84 384.409 1465.83 384.405C1465.83 384.399 1465.82 384.395 1465.82 384.393C1465.81 384.386 1465.78 384.369 1465.73 384.341L1449.88 373.161L1449.47 376.055L1460.72 384.058C1461.13 384.464 1460.96 385.195 1460.37 385.345C1455.02 386.697 1438.14 390.949 1437.89 390.949C1437.74 390.949 1433.3 387.82 1428.84 384.683L1428.84 384.681L1428.83 384.677L1428.83 384.675L1428.83 384.674L1428.82 384.672L1428.82 384.666C1424.34 381.516 1419.86 378.361 1419.71 378.361C1419.49 378.361 1399.53 383.286 1388.23 386.077L1388.04 387.786C1389.91 387.321 1392.38 386.703 1395.1 386.021C1405.22 383.481 1418.96 380.037 1419.21 380.163C1419.35 380.233 1421.59 381.875 1424.45 383.974L1424.46 383.977C1429.76 387.864 1437.2 393.315 1437.39 393.25C1437.64 393.166 1455.68 388.427 1461.82 386.814C1463.01 386.503 1464.26 386.706 1465.29 387.366L1491.38 406.737C1491.78 407.151 1491.59 407.876 1491 408.014L1487.13 408.913C1487.3 409.504 1487.42 409.898 1487.42 409.898C1487.42 409.898 1487.36 410.271 1487.26 410.887C1489.69 410.378 1491.78 409.937 1493.15 409.65C1494.13 409.443 1495.14 409.626 1495.98 410.152L1497.31 411.137C1497.97 411.631 1497.81 412.671 1497.02 412.932C1496.3 413.167 1495.7 413.393 1495.83 413.439C1496.13 413.539 1501.62 417.635 1501.62 417.635L1508.62 415.965L1499.42 409.173C1499.41 409.161 1499.4 409.149 1499.38 409.136L1496.86 407.275C1496.17 406.768 1496.37 405.695 1497.19 405.465L1521.61 398.647C1521.61 398.647 1516.64 395.206 1509.92 390.547ZM1437.06 420.49L1437.32 418.606L1426.3 420.603L1426.03 422.459C1429.31 421.877 1433.12 421.197 1437.06 420.49ZM1388.94 396.619C1389.82 396.477 1390.71 396.335 1391.53 396.206C1390.03 394.647 1388.69 393.243 1387.59 392.081L1387.29 394.893C1387.82 395.447 1388.37 396.023 1388.94 396.619ZM1469.76 346.679C1469.92 345.446 1470.06 344.403 1470.13 343.834L1460.74 346.528L1458.99 347.014C1458.99 347.014 1458.98 347.014 1458.97 347.015C1458.96 347.016 1458.96 347.017 1458.95 347.019L1456.46 347.711C1457.2 348.173 1458.27 348.886 1459.36 349.615C1462.78 348.65 1466.3 347.656 1469.76 346.679ZM1289.71 375.92C1286.17 372.196 1281.66 367.395 1281.84 367.31C1282.14 367.171 1289.13 365.973 1289.13 365.973C1289.13 365.973 1259.06 340.499 1258.76 340.599C1258.51 340.685 1234.92 345.748 1228.43 347.141L1228.35 348.576C1229.08 348.461 1229.82 348.346 1230.5 348.237C1230.49 348.209 1230.48 348.193 1230.49 348.189C1230.89 347.989 1257.96 342.296 1257.96 342.296L1284.94 364.875C1284.94 364.875 1277.75 365.973 1277.95 366.273C1278.07 366.462 1283.09 372.076 1286.75 376.171L1289.71 375.92ZM1245.13 365.182L1244.94 368.567L1250.21 374.688C1250.98 374.691 1252.16 374.695 1253.56 374.699C1251.09 371.911 1248.11 368.555 1245.13 365.182ZM913.485 330.989V334.119C918.513 336.285 924.716 339.025 924.716 339.025L926.613 339.711C927 339.851 927.228 340.177 927.278 340.529C927.277 340.482 927.276 340.454 927.276 340.445C927.276 340.326 929.126 339.127 930.877 338.018L913.485 330.989ZM940.911 381.006C942.488 381.503 944.567 382.153 946.758 382.836V381.221C944.519 380.516 942.463 379.869 940.911 379.384V381.006ZM1160.76 363.809L1160.85 362.262L1148.98 361.476L1148.9 362.96L1160.76 363.809ZM1136.7 351.381L1139.43 351.573C1140.41 349.345 1141.21 347.542 1141.28 347.396C1141.48 346.994 1153.97 349.093 1153.97 349.093C1153.97 349.093 1154.97 347.294 1155.17 346.994C1155.3 346.785 1160.2 347.547 1163.29 348.028L1163.3 348.028L1163.3 348.029L1163.3 348.029L1163.31 348.03C1164.64 348.238 1165.64 348.392 1165.76 348.392C1165.88 348.392 1167.06 349.812 1168.64 351.777L1171.37 351.966L1167.56 347.194L1139.88 343.697L1136.7 351.381ZM1322.15 519.525L1293.06 516.855C1291.7 516.73 1290.59 515.731 1290.33 514.4L1282.5 475.368C1282.02 472.961 1283.62 470.634 1286.04 470.222L1286.9 470.076L1285.78 465.355H1276.34L1284.9 512.523C1285.09 513.569 1284.68 514.552 1283.95 515.173L1283.99 517.574L1305.2 519.596L1305.2 519.602V524.114L1321.39 525.589L1322.15 519.525ZM1302.52 596.303C1294.97 595.568 1287.48 594.838 1280.33 594.143V595.575C1280.33 595.623 1280.3 595.994 1280.24 596.584L1302.29 598.69C1302.36 597.955 1302.44 597.147 1302.52 596.303ZM1140.95 453.117L1158.06 456.086L1156.96 458.876L1161.03 459.506L1163.05 455.085L1141.03 451.449L1140.95 453.117ZM1119.89 458.917L1112.91 473.391L1109.99 473.138L1121.9 448.291L1124.63 448.742L1119.91 458.477L1119.89 458.917ZM1083.48 479.635L1083.04 481.253L1083.04 481.335C1078.36 480.838 1073.52 480.324 1069.04 479.846L1069.09 478.04C1073.62 478.547 1078.64 479.103 1083.48 479.635ZM1079.83 533.796L1082.04 521.02L1045.77 517.424L1038.38 528.263H1041.12L1041.68 525.111H1045.68L1047.39 525.245L1047.57 524.215L1044.77 523.916L1047.77 519.72C1047.77 519.72 1078.84 522.119 1078.54 522.518C1078.24 522.917 1075.66 537.804 1075.66 537.804L1076.9 537.918L1077.88 533.61C1077.88 533.61 1078.68 533.684 1079.83 533.796ZM807.695 477.841C807.648 476.925 807.619 476.336 807.619 476.291C807.619 476.266 807.716 476.17 807.889 476.02C804.89 475 801.744 473.924 798.695 472.873L798.826 474.664C801.81 475.733 804.826 476.814 807.695 477.841ZM761.705 543.488C760.928 544.638 760.44 545.347 760.4 545.374C760.309 545.435 752.405 544.676 743.045 543.752L743.126 545.288L761.96 547.111L761.705 543.488ZM713.324 533.707L716.612 534.015C724.043 524.202 742.54 499.786 742.718 499.668C742.83 499.593 736.2 498.058 729.554 496.544L729.764 499.498C734.21 500.498 737.881 501.316 737.998 501.316C738.196 501.316 726.388 516.692 718.31 527.21L718.296 527.228L718.256 527.281C716.323 529.798 714.607 532.033 713.324 533.707ZM670.825 496.826L665.397 503.969L661.329 504.22L669.436 493.543L621.334 484.752L592.411 510.677C592.411 510.677 590.589 512.945 588.291 515.79L587.825 512.099L590.463 508.878C590.463 508.878 619.083 482.953 619.534 482.653C619.912 482.402 658.109 489.544 670.351 491.842L670.825 496.826ZM772.435 442.239C770.385 443.636 768.958 444.634 768.589 444.951L764.534 443.951L765.048 443.552L772.244 438.584L772.435 442.239ZM907.418 419.646L907.959 419.309L907.865 416.663C907.371 416.97 906.875 417.278 906.38 417.586L907.418 418.018V419.646ZM858.157 415.756L858.109 413.435C863.799 410.285 869.252 407.281 869.441 407.234C869.674 407.175 870.9 407.8 871.937 408.329C872.672 408.704 873.313 409.031 873.437 409.031C873.737 409.031 868.942 411.629 868.942 411.629L867.045 410.83L858.157 415.756ZM941.791 405.59V408.632L953.258 413.278L960.751 415.953L963.25 414.125C963.25 414.125 951.006 409.204 941.791 405.59ZM857.262 392.339L853.302 391.725L865.285 385.258L871.58 387.805L865.887 390.952L863.526 389.859C862.938 389.585 862.254 389.608 861.683 389.92L857.262 392.339ZM730.875 355.681C732.98 356.536 734.703 357.234 734.703 357.234L741.446 352.588L730.418 348.454L730.875 355.681ZM680.042 348.801L678.822 348.289L678.966 350.044C679.334 350.201 679.699 350.358 680.06 350.513C679.984 349.543 679.937 348.914 679.937 348.883C679.937 348.873 679.973 348.845 680.042 348.801ZM678 340.509L678.188 340.591L678.357 342.642L700.315 328.713L700.312 328.651C700.312 328.651 700.454 328.585 700.695 328.472L708.56 323.483C713.345 320.296 711.689 315.314 707.416 313.855L700.407 311.463L700.537 313.139L705.711 314.797C709.246 315.929 709.833 320.683 706.679 322.638C698.615 327.637 686.228 335.331 678 340.509ZM669.471 326.966L666.603 328.76C665.658 328.435 664.063 327.891 662.566 327.392C662.978 327.125 663.92 326.512 664.849 325.908L665.414 325.541C666.136 325.072 665.993 323.974 665.171 323.708L657.989 321.38C657.94 320.775 657.887 320.11 657.829 319.401C661.503 320.588 665.385 321.871 667.511 322.576C668.545 322.919 669.677 322.773 670.591 322.179L673.491 320.295L673.506 320.312L676.928 318.089C677.463 317.741 677.366 316.932 676.764 316.719L674.542 315.939L680.326 312.696L680.746 316.77C680.746 316.77 669.208 323.813 669.208 323.964C669.208 324.02 669.324 325.333 669.471 326.966ZM687.162 307.154L685.177 308.371C672.191 304.215 643.75 295.118 643.365 295.041C642.958 294.96 618.505 309.69 609.491 315.131L607.422 314.218C618.136 307.914 642.651 293.492 642.963 293.336C643.252 293.192 671.515 302.167 687.162 307.154ZM587.403 327.733L588.26 335.4L593.074 337.508L600.164 334.048C600.164 334.048 614.05 340.289 614.05 340.14C614.05 340.064 614.404 343.567 614.749 347.001L617.07 348.018L627.351 352.574C628.303 352.085 629.785 351.35 631.16 350.667C632.927 349.79 634.518 349 634.584 348.934C634.732 348.783 645.223 353.529 645.223 353.529L646.099 353.115L637.504 349.323C636.565 348.909 636.47 347.611 637.343 347.068L646.254 341.492C646.152 340.384 646.049 339.251 645.956 338.213L634.209 345.844C633.05 346.597 631.59 346.715 630.326 346.157L623.368 343.087L613.87 339.036L613.881 339.022L609.934 337.337C609.353 337.091 609.302 336.29 609.844 335.97L616.967 331.769L616.667 329.031L607.115 334.757C606.271 335.264 605.236 335.335 604.33 334.949L598.194 332.332L598.185 332.347L592.799 330.049L587.403 327.733ZM615.993 322.876L610.777 320.648L610.601 318.906L616.374 321.252L615.849 321.562L615.993 322.876ZM626.451 354.795L572.04 392.651L579.533 394.751L581.396 393.463C581.194 391.222 581.003 389.153 580.98 389.085C580.949 388.99 584.587 387.232 587.231 385.969C593.055 381.943 603.059 375.031 612.303 368.651C613.229 368.116 614.363 368.056 615.346 368.505C618.09 369.754 623.192 372.064 623.484 372.064C623.785 372.064 607.494 383.446 599.424 389.071L601.578 390.065C607.764 385.637 625.717 372.814 626.461 372.283L626.483 372.267L626.485 372.267L626.486 372.268C626.715 372.366 636.539 376.609 645.788 380.671C646.372 380.306 646.932 379.956 647.446 379.636C647.483 379.613 647.519 379.59 647.555 379.568L617.639 365.899C617.31 365.747 617.245 365.321 617.486 365.075C620.949 362.687 624.146 360.484 626.774 358.676C626.647 357.205 626.531 355.816 626.451 354.795ZM588.431 349.301C587.101 349.958 585.972 350.52 585.21 350.908L582.052 349.832C583.784 349.049 588.284 346.789 592.38 344.71L592.571 346.786L588.431 349.301ZM580.653 349.853C577.149 348.387 561.319 341.352 561.319 341.352L523.186 364.595C527.378 365.504 535.379 367.264 535.379 367.264L540.173 369.061V369.532L556.554 373.318C556.482 372.759 556.416 372.252 556.361 371.836L526.555 364.651C526.555 364.651 560.646 343.523 560.945 343.372C561.123 343.284 570.742 347.587 578.552 351.109L580.653 349.853ZM581.418 441.469C570.585 438.799 554.552 434.858 554.353 435.007C554.226 435.102 550.278 438.208 545.776 441.751L546.075 444.162L555.027 437.106H555.029C555.029 437.106 570.251 440.74 579.597 442.946L581.418 441.469ZM555.943 454.272L547.141 452.744L547.364 454.542C551.35 455.197 554.913 455.802 556.183 456.071L555.943 454.272ZM551.651 415.151L555.855 411.936L548.063 409.988L511.379 438.12L516.06 438.807L521.239 434.877L520.876 431.863C520.876 431.863 546.804 412.084 547.026 411.933C547.163 411.84 549.71 413.703 551.651 415.151ZM453.448 409.232L453.451 409.23L453.446 409.232L453.448 409.232ZM199.779 434.138L178.484 449.506L173.082 449.057L198.955 430.562L199.779 434.138ZM529.325 261.249L530.451 261.849V261.851L534.721 260.277L528.847 256.818L529.325 261.249ZM481.55 257.063C486.823 252.868 494.116 247.088 494.26 247.088C494.315 247.088 495.618 247.224 497.563 247.427C503.646 248.063 516.007 249.356 516.064 249.187C516.122 249.008 523.109 242.178 525.961 239.392C526.642 238.727 527.554 238.363 528.497 238.374L535.027 239.013C535.027 239.013 538.325 235.79 538.099 235.79C537.874 235.79 531.282 234.966 531.282 234.966L531.029 235.234C530.432 235.869 529.577 236.189 528.709 236.107L515.403 234.833L515.685 237.121C518.224 237.369 520.652 237.606 522.879 237.824C523.409 237.982 523.615 238.668 523.206 239.093L514.714 247.915C514.714 247.915 493.436 245.741 493.136 245.892C492.97 245.976 486.751 250.731 481.265 254.992L481.55 257.063ZM591.956 194.032L586.834 191.761L586.414 188.661L692.078 235.419L685.335 237.966L682.027 236.598C682.009 236.204 681.989 235.807 681.969 235.421C682.35 234.999 682.304 234.342 681.887 233.973C681.814 232.845 681.739 232.032 681.67 232.032C681.444 232.032 675.3 229.034 675.3 229.034V229.031L672.926 229.947L656.99 222.879C655.986 222.534 654.885 222.568 653.897 222.982C652.013 223.773 649.23 224.933 648.984 224.981C648.748 225.028 658.253 229.558 665.289 232.89L663.654 233.52C657.039 230.479 646.962 225.959 646.962 225.959L633.624 230.754L628.604 228.355V228.361C628.604 228.361 614.633 234.822 608.83 237.454L608.68 235.996C616.292 232.434 628.832 226.704 628.832 226.704L633.253 229.026L651.442 221.825C652.017 221.597 652.084 220.84 651.622 220.497L641.723 216.107L641.619 214.48L629.505 208.935L627.595 209.84L610.931 202.449L610.714 200.485L594.305 193.143L591.956 194.032ZM586.952 200.658C584.667 201.578 582.473 202.454 580.934 203.055L582.383 204.219C583.444 203.833 585.152 203.191 587.094 202.454L586.952 200.658ZM584.674 206.423L584.86 208.143L588.517 209.772C588.517 209.772 586.884 210.636 585.225 211.498L585.361 212.753L591.583 209.847L591.589 209.849V209.844L591.583 209.847C591.422 209.767 587.621 207.906 584.674 206.423ZM549.982 216.282L549.857 215.174L536.625 213.258L536.775 214.461C541.694 215.135 547.298 215.906 549.982 216.282ZM535.342 204.721L535.563 204.757L535.813 206.761L540.788 201.307L555.398 195.012L573.116 202.908L576.139 202.667C575.825 202.524 575.487 202.372 575.13 202.211L575.118 202.205L575.116 202.204C568.632 199.275 555.793 193.474 555.623 193.586C555.543 193.639 553.422 194.529 550.72 195.664L550.718 195.665C545.881 197.697 539.182 200.51 538.989 200.702C538.878 200.813 537.292 202.563 535.342 204.721ZM636.608 250.212C637.631 249.817 638.756 249.384 639.958 248.921L639.824 247.623C638.626 248.082 637.507 248.511 636.497 248.897L636.608 250.212ZM610.836 240.804C610.2 240.484 609.611 240.189 609.084 239.924L609.24 241.44L610.836 240.804ZM574.243 183.275L567.632 180.35V181.528L573.177 183.701L574.243 183.275ZM326.975 523.093L500.708 540.01L507.415 540.65C510.825 540.975 514.202 539.767 516.631 537.35C529.411 524.637 542.997 511.307 550.459 504.547C555.246 500.207 563.412 493.162 572.26 485.623C574.024 484.12 573.32 481.248 571.062 480.733L565.312 479.423L407.348 450.484C405.947 450.303 404.526 450.632 403.344 451.419C398.053 454.936 383.955 464.293 383.712 464.375C383.562 464.425 378.492 468.146 373.422 471.868L373.414 471.874L373.413 471.875C368.346 475.594 363.282 479.311 363.132 479.361C362.982 479.411 359.041 482.803 355.097 486.198L355.096 486.199L355.094 486.2L355.09 486.204C351.143 489.6 347.197 492.997 347.047 493.047C346.748 493.147 335.558 504.237 335.558 504.237L319.461 522.354L326.98 523.086L326.975 523.093ZM398.065 448.783L392.409 447.747L389.152 447.22C387.485 446.951 385.783 447.443 384.518 448.564L382.608 450.256C381.974 450.819 382.258 451.864 383.09 452.028C385.721 452.545 389.362 453.272 392.004 453.802C393.133 454.027 394.308 453.797 395.268 453.157L398.399 451.073C399.314 450.464 399.076 449.085 398.065 448.783ZM377.733 445.058L380.617 445.587C381.341 445.83 381.563 446.789 380.962 447.323H380.96L326.076 496.042C326.076 496.042 313.071 507.321 309.057 510.933C308.281 511.63 307.257 511.98 306.218 511.906L302.542 511.643C301.41 511.561 300.934 510.158 301.787 509.408L325.277 488.649L361.143 457.278L373.564 446.36C374.711 445.353 376.227 444.883 377.733 445.058ZM738.112 291.639C743.398 289.545 762.755 281.576 768.696 279.128H768.699C769.452 278.819 769.559 277.8 768.888 277.339L768.172 276.847C767.096 276.107 765.722 275.964 764.518 276.466L734.746 288.872C734.418 289.007 734.326 289.425 734.561 289.686L735.839 291.104C736.41 291.739 737.316 291.954 738.112 291.639ZM775.928 276.225L806.871 265.34C807.447 265.138 807.567 264.378 807.086 264.006L806.244 263.356C805.286 262.619 804.022 262.411 802.88 262.808L771.773 273.609C771.428 273.729 771.315 274.164 771.561 274.436L772.355 275.316C773.253 276.312 774.664 276.671 775.928 276.225ZM925.862 198.442C926.651 198.44 927.342 197.92 927.567 197.165L927.565 197.162C928.855 192.833 933.013 178.907 933.181 178.653C933.258 178.539 921.597 176.715 907.106 174.501V173.118C917.918 174.795 927.198 176.234 931.392 176.884C932.767 177.097 934.088 176.278 934.508 174.952C935.933 170.451 939.213 160.424 940.193 157.434C940.342 156.986 940.053 156.509 939.584 156.438C929.208 154.822 831.414 139.603 815.173 137.14L815.171 137.135C814.295 137.002 813.676 137.97 814.165 138.71C817.779 144.183 828.063 159.768 830.994 164.312C831.493 165.085 832.369 165.531 833.288 165.48L845.094 164.817L844.395 166.623C840.265 166.816 835.676 167.033 833.777 167.123C833.38 167.141 833.157 167.586 833.377 167.917L853.77 198.693C854.321 199.522 855.265 200.001 856.261 199.95C863.073 199.599 889.29 198.26 889.725 198.434C890.168 198.611 919.253 198.475 925.862 198.442ZM850.94 166.321C851.717 166.286 852.199 166.266 852.26 166.266C852.334 166.266 855.165 166.681 859.729 167.359L860.861 165.943C856.241 165.226 852.965 164.717 851.814 164.538C851.512 164.491 851.208 164.476 850.901 164.491L850.816 164.496H850.904L850.94 166.321ZM866.573 166.829V168.379C868.663 168.691 870.916 169.029 873.285 169.384C873.68 169.037 874.336 168.469 874.804 168.107C871.888 167.654 869.119 167.224 866.573 166.829ZM880.513 168.992V170.47C882.529 170.774 884.589 171.084 886.672 171.399C887.059 171.019 887.578 170.514 887.975 170.15C885.451 169.759 882.951 169.371 880.513 168.992ZM893.622 171.026V172.45C895.717 172.767 897.808 173.084 899.873 173.398L901.087 172.184C898.629 171.803 896.128 171.415 893.622 171.026ZM265.736 862.314C248.916 864.833 221.453 872.429 200.998 883.219H200.996C190.592 888.705 158.513 903.448 158.513 903.448L139.855 912.664L129.741 922.331L131.09 926.601C131.09 926.601 172.675 973.579 173.348 974.478C174.024 975.377 193.677 984.818 193.677 984.818C193.677 984.818 199.903 987.373 209.764 987.516C213.154 987.566 217.671 987.543 222.178 987.521C226.47 987.499 230.751 987.477 234.04 987.519C244.416 987.649 251.09 985.581 251.348 985.494C251.381 985.483 251.49 985.448 251.668 985.39L251.71 985.377C255.394 984.189 285.444 974.503 294.956 968.859C304.863 962.981 323.912 948.73 330.022 938.963C335.613 930.029 344.184 916.036 342.61 898.728C341.512 886.639 328.061 873.622 319.683 869.057C308.035 862.711 278.853 860.351 265.736 862.314ZM125.248 911.543C126.372 910.867 202.122 849.952 203.021 849.053V849.056C203.919 848.157 260.564 802.976 260.564 802.976L285.965 769.934L295.406 749.928L297.428 735.766L294.508 725.426L286.415 715.759L276.974 708.118L263.037 702.273L244.155 698.369H224.824L207.066 699.578C207.066 699.578 187.735 703.397 186.836 703.622C185.938 703.848 165.033 710.365 165.033 710.365L146.601 718.908L134.013 726.327C134.013 726.327 124.797 732.622 124.347 733.295C123.896 733.969 108.163 748.131 108.163 748.131L99.1719 760.267C99.1719 760.267 95.5776 768.81 95.127 769.483C94.679 770.159 92.2061 778.251 91.9808 779.15C91.8682 779.599 91.4189 784.993 90.9697 790.387L90.9696 790.388C90.5203 795.783 90.071 801.177 89.9584 801.627C89.7331 802.525 90.857 825.678 90.857 825.678C90.9515 825.868 92.4865 829.828 94.8606 835.954L94.8813 836.007L94.8825 836.01L94.8828 836.011C103.775 858.956 124.362 912.074 125.248 911.543ZM447.811 227.537C447.135 228.21 424.658 246.867 424.658 246.867H424.66C424.66 246.867 420.419 249.98 415.636 253.485L431.173 260.171C433.001 260.957 435.105 260.722 436.713 259.552L437.773 258.781L461.299 240.349L477.258 226.413L540.646 164.148L604.485 100.76L582.551 97.7651L535.926 143.018C535.926 143.018 448.484 226.863 447.811 227.537ZM4.40064 546.333L464.292 591.832L464.289 591.827L486.021 568.075C486.021 568.075 494.277 559.702 505.126 548.829C506.959 546.994 505.833 543.853 503.25 543.602L421.957 535.709C421.957 535.709 270.228 520.874 269.555 520.649C268.956 520.449 85.1789 502.801 67.2358 501.078C63.863 503.498 60.5913 505.845 57.4296 508.114L56.9382 508.467C25.1578 531.271 4.62234 546.007 4.53888 545.898C4.46976 545.806 4.42624 545.985 4.40064 546.333ZM1422.62 274.223C1424.58 274.305 1427.84 274.326 1431.37 274.313L1431.37 274.31C1432.17 274.308 1432.43 273.233 1431.72 272.861L1420.81 267.188C1420.81 267.188 1410.22 260.84 1407.45 258.848C1401.05 254.25 1394.95 246.98 1394.73 246.693C1390.54 241.199 1390.14 233.207 1390.14 233.207L1387.72 207.73C1387.64 206.882 1386.98 206.209 1386.13 206.117L1335.22 200.5C1334.44 200.413 1333.77 201.038 1333.8 201.819L1334.94 233.156C1335.92 242.631 1340.91 247.105 1344.74 250.528C1345.03 250.787 1345.31 251.04 1345.58 251.288C1352.22 257.32 1373.27 265.158 1381.85 267.772C1394.14 271.517 1412.31 273.801 1422.62 274.223ZM1447.78 274.065C1458.82 272.564 1470.66 270.245 1479.61 268.335L1479.61 268.33C1480.29 268.182 1480.44 267.263 1479.82 266.912L1472.75 262.872C1472.75 262.872 1458.49 253.659 1455.17 249.186C1453.06 246.345 1450.28 242.239 1449.78 236.1C1449.73 235.585 1447.1 220.493 1446.08 214.625L1446.01 214.202C1445.85 213.306 1445.12 212.619 1444.22 212.52L1392.81 206.849C1392.01 206.762 1391.33 207.418 1391.39 208.216C1391.78 213.494 1393.22 226.017 1393.79 231.004L1393.8 231.041L1393.8 231.047L1393.8 231.072C1393.88 231.783 1393.95 232.335 1393.99 232.683C1394.02 232.935 1394.03 233.08 1394.03 233.102C1394.23 237.4 1395.99 242.571 1397.63 245.29C1399.74 248.787 1408.04 256.048 1410.27 257.995L1410.27 257.996L1410.29 258.009C1410.59 258.276 1410.78 258.44 1410.82 258.477C1410.99 258.646 1416.92 261.907 1422.13 264.767C1426.14 266.971 1429.72 268.937 1429.9 269.067C1430.18 269.28 1436.69 272.349 1440.61 273.957C1441.03 274.129 1441.47 274.211 1441.93 274.203C1445.19 274.152 1447.57 274.093 1447.78 274.065ZM1525.41 259.68C1525 259.649 1532.56 259.089 1539.66 258.628V258.625C1540.62 258.564 1541.29 257.632 1541.04 256.698C1539.15 249.711 1534.02 230.642 1532.32 224.257C1532.11 223.446 1531.42 222.849 1530.59 222.749L1456.02 213.823L1451.53 213.329C1450.7 213.236 1450 213.956 1450.12 214.785C1450.42 216.835 1450.88 219.929 1451.36 223.136C1452.28 229.396 1453.27 236.089 1453.27 236.302C1453.27 236.704 1455.57 246.793 1460.27 250.989C1464.44 254.716 1475.86 261.766 1482.05 265.496C1483.86 266.589 1486.03 266.935 1488.09 266.464C1490.65 265.883 1492.52 265.441 1493.45 265.22L1493.45 265.22C1493.97 265.097 1494.2 265.044 1494.09 265.074C1493.66 265.194 1525.41 259.68 1525.41 259.68ZM1593.36 260.817C1594.11 260.947 1594.84 260.509 1595.08 259.79L1603.97 233.181C1604.28 232.257 1603.66 231.279 1602.69 231.169L1562.42 226.564L1538.14 223.656C1537.24 223.548 1536.51 224.383 1536.75 225.258L1537.93 229.602L1538 229.864C1540.18 237.89 1543.6 250.505 1545.18 256.262C1545.49 257.425 1546.58 258.205 1547.78 258.144C1548.79 258.093 1549.64 258.054 1550.28 258.034C1560.03 257.732 1578 258.661 1587.15 259.831C1588.63 260.018 1590.86 260.381 1593.36 260.817ZM1646.04 273.765C1650.44 275.462 1659.04 279.466 1666.65 283.368V283.37C1668.32 284.225 1670.36 283.831 1671.59 282.415C1679.43 273.409 1697.54 251.997 1703.38 245.088C1704.17 244.151 1703.6 242.71 1702.38 242.571L1609.59 231.958C1608.86 231.873 1608.18 232.314 1607.95 233.007C1606.21 238.391 1601.24 253.444 1599.05 260.066C1598.76 260.95 1599.32 261.889 1600.23 262.058C1605.33 263.005 1609.77 263.876 1609.77 263.876C1609.77 263.876 1637.27 270.383 1646.04 273.765ZM1831.15 382.744C1839.29 363.46 1851.86 333.638 1852.01 333.183H1852.01C1852.21 332.581 1793.44 299.91 1780.54 292.75C1771.31 296.636 1758.18 301.738 1758.18 301.738L1724.18 316.166C1723.6 316.41 1723.54 317.208 1724.08 317.531L1738.8 326.363L1786.6 355.585L1831.15 382.744ZM1789.45 280.06C1789.52 279.689 1790.7 271.026 1791.3 266.612H1791.31C1791.44 265.619 1790.74 264.705 1789.74 264.593L1700.74 254.434C1700.56 254.442 1700.39 254.524 1700.27 254.665C1691.12 265.422 1678.77 279.932 1673.99 285.569C1673.36 286.304 1673.58 287.423 1674.43 287.878C1679.71 290.705 1683.5 292.799 1683.5 292.799L1716.32 312.879L1717.43 313.547C1718.96 314.464 1720.83 314.605 1722.48 313.926C1732.88 309.641 1760.18 298.244 1760.18 298.244C1760.18 298.244 1778.44 291.457 1783.86 287.953C1789.51 284.293 1789.46 281.32 1789.44 280.339C1789.44 280.211 1789.44 280.117 1789.45 280.06ZM914.31 233.212C914.018 229.038 913.703 224.608 913.703 224.608L963.455 228.005V227.006C963.325 227.006 959.705 226.738 954.411 226.346L954.373 226.344L954.353 226.342L954.35 226.342C939.184 225.219 910.406 223.088 910.406 223.31C910.406 223.454 910.798 227.541 911.238 231.76L914.31 233.212ZM1426.5 608.733L1424.6 583.957C1424.6 583.957 1465.56 585.056 1465.86 585.056C1466.16 585.056 1475.15 613.328 1475.15 613.328C1475.15 613.328 1426.8 608.733 1426.5 608.733Z" fill="#015FAE"/>
</svg>
