<svg width="305" height="189" viewBox="0 0 305 189" fill="none" xmlns="http://www.w3.org/2000/svg">
<rect x="0.818359" y="0.4375" width="304" height="187.923" rx="16.9433" fill="white" fill-opacity="0.8"/>
<rect x="20.8184" y="23.9629" width="24.1836" height="25.8525" fill="#FF4C4C"/>
<path d="M60.862 34.5275C60.052 34.5275 59.327 34.3525 58.687 34.0025C58.057 33.6525 57.562 33.1725 57.202 32.5625C56.842 31.9425 56.662 31.2425 56.662 30.4625C56.662 29.6825 56.842 28.9875 57.202 28.3775C57.562 27.7575 58.057 27.2775 58.687 26.9375C59.327 26.5875 60.052 26.4125 60.862 26.4125C61.582 26.4125 62.222 26.5575 62.782 26.8475C63.352 27.1375 63.792 27.5575 64.102 28.1075L63.007 28.8125C62.757 28.4325 62.447 28.1475 62.077 27.9575C61.707 27.7675 61.297 27.6725 60.847 27.6725C60.327 27.6725 59.857 27.7875 59.437 28.0175C59.027 28.2475 58.702 28.5775 58.462 29.0075C58.232 29.4275 58.117 29.9125 58.117 30.4625C58.117 31.0225 58.232 31.5175 58.462 31.9475C58.702 32.3675 59.027 32.6925 59.437 32.9225C59.857 33.1525 60.327 33.2675 60.847 33.2675C61.297 33.2675 61.707 33.1725 62.077 32.9825C62.447 32.7925 62.757 32.5075 63.007 32.1275L64.102 32.8175C63.792 33.3675 63.352 33.7925 62.782 34.0925C62.222 34.3825 61.582 34.5275 60.862 34.5275ZM73.3313 26.4875V34.4375H71.8913V27.7475H67.4063V34.4375H65.9663V26.4875H73.3313ZM79.5227 34.5275C78.7327 34.5275 78.0227 34.3525 77.3927 34.0025C76.7627 33.6525 76.2677 33.1725 75.9077 32.5625C75.5577 31.9425 75.3827 31.2425 75.3827 30.4625C75.3827 29.6825 75.5577 28.9875 75.9077 28.3775C76.2677 27.7575 76.7627 27.2775 77.3927 26.9375C78.0227 26.5875 78.7327 26.4125 79.5227 26.4125C80.3127 26.4125 81.0177 26.5875 81.6377 26.9375C82.2677 27.2775 82.7577 27.7575 83.1077 28.3775C83.4677 28.9875 83.6477 29.6825 83.6477 30.4625C83.6477 31.2425 83.4677 31.9425 83.1077 32.5625C82.7577 33.1725 82.2677 33.6525 81.6377 34.0025C81.0177 34.3525 80.3127 34.5275 79.5227 34.5275ZM79.5227 33.2675C80.0327 33.2675 80.4877 33.1525 80.8877 32.9225C81.2977 32.6825 81.6177 32.3525 81.8477 31.9325C82.0777 31.5025 82.1927 31.0125 82.1927 30.4625C82.1927 29.9125 82.0777 29.4275 81.8477 29.0075C81.6177 28.5775 81.2977 28.2475 80.8877 28.0175C80.4877 27.7875 80.0327 27.6725 79.5227 27.6725C79.0127 27.6725 78.5527 27.7875 78.1427 28.0175C77.7427 28.2475 77.4227 28.5775 77.1827 29.0075C76.9527 29.4275 76.8377 29.9125 76.8377 30.4625C76.8377 31.0125 76.9527 31.5025 77.1827 31.9325C77.4227 32.3525 77.7427 32.6825 78.1427 32.9225C78.5527 33.1525 79.0127 33.2675 79.5227 33.2675ZM89.942 26.4125C90.712 26.4125 91.402 26.5825 92.012 26.9225C92.622 27.2625 93.097 27.7375 93.437 28.3475C93.787 28.9575 93.962 29.6625 93.962 30.4625C93.962 31.2625 93.787 31.9725 93.437 32.5925C93.097 33.2025 92.622 33.6775 92.012 34.0175C91.402 34.3575 90.712 34.5275 89.942 34.5275C89.372 34.5275 88.847 34.4175 88.367 34.1975C87.897 33.9775 87.497 33.6575 87.167 33.2375V37.3475H85.727V26.4875H87.107V27.7475C87.427 27.3075 87.832 26.9775 88.322 26.7575C88.812 26.5275 89.352 26.4125 89.942 26.4125ZM89.822 33.2675C90.332 33.2675 90.787 33.1525 91.187 32.9225C91.597 32.6825 91.917 32.3525 92.147 31.9325C92.387 31.5025 92.507 31.0125 92.507 30.4625C92.507 29.9125 92.387 29.4275 92.147 29.0075C91.917 28.5775 91.597 28.2475 91.187 28.0175C90.787 27.7875 90.332 27.6725 89.822 27.6725C89.322 27.6725 88.867 27.7925 88.457 28.0325C88.057 28.2625 87.737 28.5875 87.497 29.0075C87.267 29.4275 87.152 29.9125 87.152 30.4625C87.152 31.0125 87.267 31.5025 87.497 31.9325C87.727 32.3525 88.047 32.6825 88.457 32.9225C88.867 33.1525 89.322 33.2675 89.822 33.2675ZM101.686 27.7475H98.7762V34.4375H97.3362V27.7475H94.4262V26.4875H101.686V27.7475ZM103.159 26.4875H104.599V32.2775L109.474 26.4875H110.779V34.4375H109.339V28.6475L104.479 34.4375H103.159V26.4875ZM118.989 30.3125C120.019 30.5725 120.534 31.2175 120.534 32.2475C120.534 32.9475 120.269 33.4875 119.739 33.8675C119.219 34.2475 118.439 34.4375 117.399 34.4375H113.574V26.4875H117.264C118.204 26.4875 118.939 26.6675 119.469 27.0275C119.999 27.3775 120.264 27.8775 120.264 28.5275C120.264 28.9475 120.149 29.3125 119.919 29.6225C119.699 29.9225 119.389 30.1525 118.989 30.3125ZM114.984 29.9075H117.144C117.694 29.9075 118.109 29.8075 118.389 29.6075C118.679 29.4075 118.824 29.1175 118.824 28.7375C118.824 27.9775 118.264 27.5975 117.144 27.5975H114.984V29.9075ZM117.294 33.3275C117.894 33.3275 118.344 33.2325 118.644 33.0425C118.944 32.8525 119.094 32.5575 119.094 32.1575C119.094 31.7475 118.954 31.4425 118.674 31.2425C118.404 31.0425 117.974 30.9425 117.384 30.9425H114.984V33.3275H117.294ZM122.788 26.4875H124.228V29.8625H128.758V26.4875H130.198V34.4375H128.758V31.1075H124.228V34.4375H122.788V26.4875ZM136.583 29.1875C137.583 29.1975 138.348 29.4275 138.878 29.8775C139.408 30.3275 139.673 30.9625 139.673 31.7825C139.673 32.6425 139.383 33.3075 138.803 33.7775C138.233 34.2375 137.413 34.4625 136.343 34.4525L132.998 34.4375V26.4875H134.438V29.1725L136.583 29.1875ZM140.858 26.4875H142.298V34.4375H140.858V26.4875ZM136.238 33.3575C136.888 33.3675 137.378 33.2375 137.708 32.9675C138.048 32.6975 138.218 32.2975 138.218 31.7675C138.218 31.2475 138.053 30.8675 137.723 30.6275C137.393 30.3875 136.898 30.2625 136.238 30.2525L134.438 30.2225V33.3425L136.238 33.3575ZM152.282 30.5075C152.282 30.6175 152.272 30.7625 152.252 30.9425H145.802C145.892 31.6425 146.197 32.2075 146.717 32.6375C147.247 33.0575 147.902 33.2675 148.682 33.2675C149.632 33.2675 150.397 32.9475 150.977 32.3075L151.772 33.2375C151.412 33.6575 150.962 33.9775 150.422 34.1975C149.892 34.4175 149.297 34.5275 148.637 34.5275C147.797 34.5275 147.052 34.3575 146.402 34.0175C145.752 33.6675 145.247 33.1825 144.887 32.5625C144.537 31.9425 144.362 31.2425 144.362 30.4625C144.362 29.6925 144.532 28.9975 144.872 28.3775C145.222 27.7575 145.697 27.2775 146.297 26.9375C146.907 26.5875 147.592 26.4125 148.352 26.4125C149.112 26.4125 149.787 26.5875 150.377 26.9375C150.977 27.2775 151.442 27.7575 151.772 28.3775C152.112 28.9975 152.282 29.7075 152.282 30.5075ZM148.352 27.6275C147.662 27.6275 147.082 27.8375 146.612 28.2575C146.152 28.6775 145.882 29.2275 145.802 29.9075H150.902C150.822 29.2375 150.547 28.6925 150.077 28.2725C149.617 27.8425 149.042 27.6275 148.352 27.6275ZM165.909 26.4875V34.4375H164.469V27.7475H159.984V34.4375H158.544V26.4875H165.909ZM175.521 26.4875V34.4375H174.081V27.7475H170.661L170.571 29.5175C170.521 30.5875 170.426 31.4825 170.286 32.2025C170.146 32.9125 169.916 33.4825 169.596 33.9125C169.276 34.3425 168.831 34.5575 168.261 34.5575C168.001 34.5575 167.706 34.5125 167.376 34.4225L167.466 33.2075C167.596 33.2375 167.716 33.2525 167.826 33.2525C168.226 33.2525 168.526 33.0775 168.726 32.7275C168.926 32.3775 169.056 31.9625 169.116 31.4825C169.176 31.0025 169.231 30.3175 169.281 29.4275L169.416 26.4875H175.521ZM181.71 34.5275C180.92 34.5275 180.21 34.3525 179.58 34.0025C178.95 33.6525 178.455 33.1725 178.095 32.5625C177.745 31.9425 177.57 31.2425 177.57 30.4625C177.57 29.6825 177.745 28.9875 178.095 28.3775C178.455 27.7575 178.95 27.2775 179.58 26.9375C180.21 26.5875 180.92 26.4125 181.71 26.4125C182.5 26.4125 183.205 26.5875 183.825 26.9375C184.455 27.2775 184.945 27.7575 185.295 28.3775C185.655 28.9875 185.835 29.6825 185.835 30.4625C185.835 31.2425 185.655 31.9425 185.295 32.5625C184.945 33.1725 184.455 33.6525 183.825 34.0025C183.205 34.3525 182.5 34.5275 181.71 34.5275ZM181.71 33.2675C182.22 33.2675 182.675 33.1525 183.075 32.9225C183.485 32.6825 183.805 32.3525 184.035 31.9325C184.265 31.5025 184.38 31.0125 184.38 30.4625C184.38 29.9125 184.265 29.4275 184.035 29.0075C183.805 28.5775 183.485 28.2475 183.075 28.0175C182.675 27.7875 182.22 27.6725 181.71 27.6725C181.2 27.6725 180.74 27.7875 180.33 28.0175C179.93 28.2475 179.61 28.5775 179.37 29.0075C179.14 29.4275 179.025 29.9125 179.025 30.4625C179.025 31.0125 179.14 31.5025 179.37 31.9325C179.61 32.3525 179.93 32.6825 180.33 32.9225C180.74 33.1525 181.2 33.2675 181.71 33.2675ZM199.24 26.4875V34.4375H187.915V26.4875H189.355V33.1775H192.865V26.4875H194.305V33.1775H197.8V26.4875H199.24ZM200.425 33.1775V36.1325H199.075V34.4375H197.74V33.1775H200.425ZM204.871 26.4125C205.971 26.4125 206.811 26.6825 207.391 27.2225C207.981 27.7625 208.276 28.5675 208.276 29.6375V34.4375H206.911V33.3875C206.671 33.7575 206.326 34.0425 205.876 34.2425C205.436 34.4325 204.911 34.5275 204.301 34.5275C203.411 34.5275 202.696 34.3125 202.156 33.8825C201.626 33.4525 201.361 32.8875 201.361 32.1875C201.361 31.4875 201.616 30.9275 202.126 30.5075C202.636 30.0775 203.446 29.8625 204.556 29.8625H206.836V29.5775C206.836 28.9575 206.656 28.4825 206.296 28.1525C205.936 27.8225 205.406 27.6575 204.706 27.6575C204.236 27.6575 203.776 27.7375 203.326 27.8975C202.876 28.0475 202.496 28.2525 202.186 28.5125L201.586 27.4325C201.996 27.1025 202.486 26.8525 203.056 26.6825C203.626 26.5025 204.231 26.4125 204.871 26.4125ZM204.541 33.4175C205.091 33.4175 205.566 33.2975 205.966 33.0575C206.366 32.8075 206.656 32.4575 206.836 32.0075V30.8975H204.616C203.396 30.8975 202.786 31.3075 202.786 32.1275C202.786 32.5275 202.941 32.8425 203.251 33.0725C203.561 33.3025 203.991 33.4175 204.541 33.4175ZM218.954 33.1775V36.2825H217.604V34.4375H210.959V36.2825H209.594V33.1775H210.014C210.524 33.1475 210.874 32.7875 211.064 32.0975C211.254 31.4075 211.384 30.4325 211.454 29.1725L211.574 26.4875H217.739V33.1775H218.954ZM212.774 29.2775C212.734 30.2775 212.649 31.1075 212.519 31.7675C212.399 32.4175 212.174 32.8875 211.844 33.1775H216.299V27.7475H212.849L212.774 29.2775ZM223.92 31.0775H222.27V34.4375H220.83V26.4875H222.27V29.8475H223.95L226.53 26.4875H228.075L225.06 30.3125L228.285 34.4375H226.59L223.92 31.0775ZM229.794 26.4875H231.234V32.2775L236.109 26.4875H237.414V34.4375H235.974V28.6475L231.114 34.4375H229.794V26.4875ZM60.802 52.5275C60.012 52.5275 59.302 52.3525 58.672 52.0025C58.042 51.6525 57.547 51.1725 57.187 50.5625C56.837 49.9425 56.662 49.2425 56.662 48.4625C56.662 47.6825 56.837 46.9875 57.187 46.3775C57.547 45.7575 58.042 45.2775 58.672 44.9375C59.302 44.5875 60.012 44.4125 60.802 44.4125C61.592 44.4125 62.297 44.5875 62.917 44.9375C63.547 45.2775 64.037 45.7575 64.387 46.3775C64.747 46.9875 64.927 47.6825 64.927 48.4625C64.927 49.2425 64.747 49.9425 64.387 50.5625C64.037 51.1725 63.547 51.6525 62.917 52.0025C62.297 52.3525 61.592 52.5275 60.802 52.5275ZM60.802 51.2675C61.312 51.2675 61.767 51.1525 62.167 50.9225C62.577 50.6825 62.897 50.3525 63.127 49.9325C63.357 49.5025 63.472 49.0125 63.472 48.4625C63.472 47.9125 63.357 47.4275 63.127 47.0075C62.897 46.5775 62.577 46.2475 62.167 46.0175C61.767 45.7875 61.312 45.6725 60.802 45.6725C60.292 45.6725 59.832 45.7875 59.422 46.0175C59.022 46.2475 58.702 46.5775 58.462 47.0075C58.232 47.4275 58.117 47.9125 58.117 48.4625C58.117 49.0125 58.232 49.5025 58.462 49.9325C58.702 50.3525 59.022 50.6825 59.422 50.9225C59.832 51.1525 60.292 51.2675 60.802 51.2675ZM71.0563 44.7575C71.7963 44.7575 72.4563 44.9225 73.0363 45.2525C73.6163 45.5825 74.0663 46.0425 74.3863 46.6325C74.7163 47.2125 74.8813 47.8775 74.8813 48.6275C74.8813 49.3975 74.7063 50.0825 74.3563 50.6825C74.0163 51.2725 73.5313 51.7325 72.9013 52.0625C72.2813 52.3925 71.5713 52.5575 70.7713 52.5575C69.4213 52.5575 68.3763 52.0975 67.6363 51.1775C66.9063 50.2475 66.5413 48.9425 66.5413 47.2625C66.5413 45.6325 66.8763 44.3575 67.5463 43.4375C68.2163 42.5075 69.2413 41.8925 70.6213 41.5925L74.2513 40.7825L74.4613 42.1025L71.1163 42.8225C70.0763 43.0525 69.3013 43.4425 68.7913 43.9925C68.2813 44.5425 67.9913 45.3325 67.9213 46.3625C68.2613 45.8525 68.7013 45.4575 69.2413 45.1775C69.7813 44.8975 70.3863 44.7575 71.0563 44.7575ZM70.8013 51.3575C71.3113 51.3575 71.7613 51.2425 72.1513 51.0125C72.5513 50.7825 72.8613 50.4675 73.0813 50.0675C73.3013 49.6575 73.4113 49.1925 73.4113 48.6725C73.4113 47.8825 73.1713 47.2475 72.6913 46.7675C72.2113 46.2875 71.5813 46.0475 70.8013 46.0475C70.0213 46.0475 69.3863 46.2875 68.8963 46.7675C68.4163 47.2475 68.1763 47.8825 68.1763 48.6725C68.1763 49.1925 68.2863 49.6575 68.5063 50.0675C68.7363 50.4675 69.0513 50.7825 69.4513 51.0125C69.8513 51.2425 70.3013 51.3575 70.8013 51.3575ZM88.263 44.4875V52.4375H76.938V44.4875H78.378V51.1775H81.888V44.4875H83.328V51.1775H86.823V44.4875H88.263ZM89.448 51.1775V54.1325H88.098V52.4375H86.763V51.1775H89.448ZM98.2441 48.5075C98.2441 48.6175 98.2341 48.7625 98.2141 48.9425H91.7641C91.8541 49.6425 92.1591 50.2075 92.6791 50.6375C93.2091 51.0575 93.8641 51.2675 94.6441 51.2675C95.5941 51.2675 96.3591 50.9475 96.9391 50.3075L97.7341 51.2375C97.3741 51.6575 96.9241 51.9775 96.3841 52.1975C95.8541 52.4175 95.2591 52.5275 94.5991 52.5275C93.7591 52.5275 93.0141 52.3575 92.3641 52.0175C91.7141 51.6675 91.2091 51.1825 90.8491 50.5625C90.4991 49.9425 90.3241 49.2425 90.3241 48.4625C90.3241 47.6925 90.4941 46.9975 90.8341 46.3775C91.1841 45.7575 91.6591 45.2775 92.2591 44.9375C92.8691 44.5875 93.5541 44.4125 94.3141 44.4125C95.0741 44.4125 95.7491 44.5875 96.3391 44.9375C96.9391 45.2775 97.4041 45.7575 97.7341 46.3775C98.0741 46.9975 98.2441 47.7075 98.2441 48.5075ZM94.3141 45.6275C93.6241 45.6275 93.0441 45.8375 92.5741 46.2575C92.1141 46.6775 91.8441 47.2275 91.7641 47.9075H96.8641C96.7841 47.2375 96.5091 46.6925 96.0391 46.2725C95.5791 45.8425 95.0041 45.6275 94.3141 45.6275ZM106.328 45.7475H101.918V52.4375H100.478V44.4875H106.328V45.7475ZM110.856 52.5275C110.066 52.5275 109.356 52.3525 108.726 52.0025C108.096 51.6525 107.601 51.1725 107.241 50.5625C106.891 49.9425 106.716 49.2425 106.716 48.4625C106.716 47.6825 106.891 46.9875 107.241 46.3775C107.601 45.7575 108.096 45.2775 108.726 44.9375C109.356 44.5875 110.066 44.4125 110.856 44.4125C111.646 44.4125 112.351 44.5875 112.971 44.9375C113.601 45.2775 114.091 45.7575 114.441 46.3775C114.801 46.9875 114.981 47.6825 114.981 48.4625C114.981 49.2425 114.801 49.9425 114.441 50.5625C114.091 51.1725 113.601 51.6525 112.971 52.0025C112.351 52.3525 111.646 52.5275 110.856 52.5275ZM110.856 51.2675C111.366 51.2675 111.821 51.1525 112.221 50.9225C112.631 50.6825 112.951 50.3525 113.181 49.9325C113.411 49.5025 113.526 49.0125 113.526 48.4625C113.526 47.9125 113.411 47.4275 113.181 47.0075C112.951 46.5775 112.631 46.2475 112.221 46.0175C111.821 45.7875 111.366 45.6725 110.856 45.6725C110.346 45.6725 109.886 45.7875 109.476 46.0175C109.076 46.2475 108.756 46.5775 108.516 47.0075C108.286 47.4275 108.171 47.9125 108.171 48.4625C108.171 49.0125 108.286 49.5025 108.516 49.9325C108.756 50.3525 109.076 50.6825 109.476 50.9225C109.886 51.1525 110.346 51.2675 110.856 51.2675ZM128.453 44.4875V52.4375H127.013V45.7475H122.528V52.4375H121.088V44.4875H128.453ZM134.645 52.5275C133.855 52.5275 133.145 52.3525 132.515 52.0025C131.885 51.6525 131.39 51.1725 131.03 50.5625C130.68 49.9425 130.505 49.2425 130.505 48.4625C130.505 47.6825 130.68 46.9875 131.03 46.3775C131.39 45.7575 131.885 45.2775 132.515 44.9375C133.145 44.5875 133.855 44.4125 134.645 44.4125C135.435 44.4125 136.14 44.5875 136.76 44.9375C137.39 45.2775 137.88 45.7575 138.23 46.3775C138.59 46.9875 138.77 47.6825 138.77 48.4625C138.77 49.2425 138.59 49.9425 138.23 50.5625C137.88 51.1725 137.39 51.6525 136.76 52.0025C136.14 52.3525 135.435 52.5275 134.645 52.5275ZM134.645 51.2675C135.155 51.2675 135.61 51.1525 136.01 50.9225C136.42 50.6825 136.74 50.3525 136.97 49.9325C137.2 49.5025 137.315 49.0125 137.315 48.4625C137.315 47.9125 137.2 47.4275 136.97 47.0075C136.74 46.5775 136.42 46.2475 136.01 46.0175C135.61 45.7875 135.155 45.6725 134.645 45.6725C134.135 45.6725 133.675 45.7875 133.265 46.0175C132.865 46.2475 132.545 46.5775 132.305 47.0075C132.075 47.4275 131.96 47.9125 131.96 48.4625C131.96 49.0125 132.075 49.5025 132.305 49.9325C132.545 50.3525 132.865 50.6825 133.265 50.9225C133.675 51.1525 134.135 51.2675 134.645 51.2675ZM147.616 44.4875V52.4375H146.176V45.7475H142.756L142.666 47.5175C142.616 48.5875 142.521 49.4825 142.381 50.2025C142.241 50.9125 142.011 51.4825 141.691 51.9125C141.371 52.3425 140.926 52.5575 140.356 52.5575C140.096 52.5575 139.801 52.5125 139.471 52.4225L139.561 51.2075C139.691 51.2375 139.811 51.2525 139.921 51.2525C140.321 51.2525 140.621 51.0775 140.821 50.7275C141.021 50.3775 141.151 49.9625 141.211 49.4825C141.271 49.0025 141.326 48.3175 141.376 47.4275L141.511 44.4875H147.616ZM154.075 47.1875C155.085 47.1975 155.855 47.4275 156.385 47.8775C156.915 48.3275 157.18 48.9625 157.18 49.7825C157.18 50.6425 156.89 51.3075 156.31 51.7775C155.74 52.2375 154.92 52.4625 153.85 52.4525L150.4 52.4375V44.4875H151.84V47.1725L154.075 47.1875ZM153.73 51.3575C154.38 51.3675 154.87 51.2375 155.2 50.9675C155.54 50.6975 155.71 50.2975 155.71 49.7675C155.71 49.2475 155.545 48.8675 155.215 48.6275C154.895 48.3875 154.4 48.2625 153.73 48.2525L151.84 48.2225V51.3425L153.73 51.3575ZM163.216 48.2975C163.746 48.4375 164.156 48.6625 164.446 48.9725C164.736 49.2825 164.881 49.6675 164.881 50.1275C164.881 50.5975 164.721 51.0175 164.401 51.3875C164.081 51.7475 163.636 52.0325 163.066 52.2425C162.506 52.4425 161.876 52.5425 161.176 52.5425C160.586 52.5425 160.006 52.4675 159.436 52.3175C158.876 52.1575 158.376 51.9325 157.936 51.6425L158.371 50.5475C158.751 50.7875 159.186 50.9775 159.676 51.1175C160.166 51.2475 160.661 51.3125 161.161 51.3125C161.841 51.3125 162.381 51.1975 162.781 50.9675C163.191 50.7275 163.396 50.4075 163.396 50.0075C163.396 49.6375 163.231 49.3525 162.901 49.1525C162.581 48.9525 162.126 48.8525 161.536 48.8525H160.081V47.8175H161.431C161.971 47.8175 162.396 47.7225 162.706 47.5325C163.016 47.3425 163.171 47.0825 163.171 46.7525C163.171 46.3925 162.986 46.1125 162.616 45.9125C162.256 45.7125 161.766 45.6125 161.146 45.6125C160.356 45.6125 159.521 45.8175 158.641 46.2275L158.251 45.1175C159.221 44.6275 160.236 44.3825 161.296 44.3825C161.936 44.3825 162.511 44.4725 163.021 44.6525C163.531 44.8325 163.931 45.0875 164.221 45.4175C164.511 45.7475 164.656 46.1225 164.656 46.5425C164.656 46.9325 164.526 47.2825 164.266 47.5925C164.006 47.9025 163.656 48.1375 163.216 48.2975ZM170.475 52.5275C169.685 52.5275 168.975 52.3525 168.345 52.0025C167.715 51.6525 167.22 51.1725 166.86 50.5625C166.51 49.9425 166.335 49.2425 166.335 48.4625C166.335 47.6825 166.51 46.9875 166.86 46.3775C167.22 45.7575 167.715 45.2775 168.345 44.9375C168.975 44.5875 169.685 44.4125 170.475 44.4125C171.265 44.4125 171.97 44.5875 172.59 44.9375C173.22 45.2775 173.71 45.7575 174.06 46.3775C174.42 46.9875 174.6 47.6825 174.6 48.4625C174.6 49.2425 174.42 49.9425 174.06 50.5625C173.71 51.1725 173.22 51.6525 172.59 52.0025C171.97 52.3525 171.265 52.5275 170.475 52.5275ZM170.475 51.2675C170.985 51.2675 171.44 51.1525 171.84 50.9225C172.25 50.6825 172.57 50.3525 172.8 49.9325C173.03 49.5025 173.145 49.0125 173.145 48.4625C173.145 47.9125 173.03 47.4275 172.8 47.0075C172.57 46.5775 172.25 46.2475 171.84 46.0175C171.44 45.7875 170.985 45.6725 170.475 45.6725C169.965 45.6725 169.505 45.7875 169.095 46.0175C168.695 46.2475 168.375 46.5775 168.135 47.0075C167.905 47.4275 167.79 47.9125 167.79 48.4625C167.79 49.0125 167.905 49.5025 168.135 49.9325C168.375 50.3525 168.695 50.6825 169.095 50.9225C169.505 51.1525 169.965 51.2675 170.475 51.2675ZM182.094 48.3125C183.124 48.5725 183.639 49.2175 183.639 50.2475C183.639 50.9475 183.374 51.4875 182.844 51.8675C182.324 52.2475 181.544 52.4375 180.504 52.4375H176.679V44.4875H180.369C181.309 44.4875 182.044 44.6675 182.574 45.0275C183.104 45.3775 183.369 45.8775 183.369 46.5275C183.369 46.9475 183.254 47.3125 183.024 47.6225C182.804 47.9225 182.494 48.1525 182.094 48.3125ZM178.089 47.9075H180.249C180.799 47.9075 181.214 47.8075 181.494 47.6075C181.784 47.4075 181.929 47.1175 181.929 46.7375C181.929 45.9775 181.369 45.5975 180.249 45.5975H178.089V47.9075ZM180.399 51.3275C180.999 51.3275 181.449 51.2325 181.749 51.0425C182.049 50.8525 182.199 50.5575 182.199 50.1575C182.199 49.7475 182.059 49.4425 181.779 49.2425C181.509 49.0425 181.079 48.9425 180.489 48.9425H178.089V51.3275H180.399ZM188.728 44.4125C189.828 44.4125 190.668 44.6825 191.248 45.2225C191.838 45.7625 192.133 46.5675 192.133 47.6375V52.4375H190.768V51.3875C190.528 51.7575 190.183 52.0425 189.733 52.2425C189.293 52.4325 188.768 52.5275 188.158 52.5275C187.268 52.5275 186.553 52.3125 186.013 51.8825C185.483 51.4525 185.218 50.8875 185.218 50.1875C185.218 49.4875 185.473 48.9275 185.983 48.5075C186.493 48.0775 187.303 47.8625 188.413 47.8625H190.693V47.5775C190.693 46.9575 190.513 46.4825 190.153 46.1525C189.793 45.8225 189.263 45.6575 188.563 45.6575C188.093 45.6575 187.633 45.7375 187.183 45.8975C186.733 46.0475 186.353 46.2525 186.043 46.5125L185.443 45.4325C185.853 45.1025 186.343 44.8525 186.913 44.6825C187.483 44.5025 188.088 44.4125 188.728 44.4125ZM188.398 51.4175C188.948 51.4175 189.423 51.2975 189.823 51.0575C190.223 50.8075 190.513 50.4575 190.693 50.0075V48.8975H188.473C187.253 48.8975 186.643 49.3075 186.643 50.1275C186.643 50.5275 186.798 50.8425 187.108 51.0725C187.418 51.3025 187.848 51.4175 188.398 51.4175ZM194.726 44.4875H196.166V47.8625H200.696V44.4875H202.136V52.4375H200.696V49.1075H196.166V52.4375H194.726V44.4875ZM204.936 44.4875H206.376V50.2775L211.251 44.4875H212.556V52.4375H211.116V46.6475L206.256 52.4375H204.936V44.4875ZM221.726 44.4875V52.4375H220.436V49.9175H218.126H217.961L216.221 52.4375H214.676L216.611 49.7225C216.011 49.5425 215.551 49.2475 215.231 48.8375C214.911 48.4175 214.751 47.8975 214.751 47.2775C214.751 46.3675 215.061 45.6775 215.681 45.2075C216.301 44.7275 217.156 44.4875 218.246 44.4875H221.726ZM216.221 47.3225C216.221 47.8525 216.386 48.2475 216.716 48.5075C217.056 48.7575 217.561 48.8825 218.231 48.8825H220.436V45.7475H218.291C216.911 45.7475 216.221 46.2725 216.221 47.3225Z" fill="black"/>
<rect x="20.8184" y="73.9473" width="24.1836" height="25.8525" fill="#EE9B9B"/>
<path d="M68.722 74.3908V82.3408H57.397V74.3908H58.837V81.0808H62.347V74.3908H63.787V81.0808H67.282V74.3908H68.722ZM74.608 78.9808H72.958V82.3408H71.518V74.3908H72.958V77.7508H74.638L77.218 74.3908H78.763L75.748 78.2158L78.973 82.3408H77.278L74.608 78.9808ZM83.6242 82.4308C82.8342 82.4308 82.1242 82.2558 81.4942 81.9058C80.8642 81.5558 80.3692 81.0758 80.0092 80.4658C79.6592 79.8458 79.4842 79.1458 79.4842 78.3658C79.4842 77.5858 79.6592 76.8908 80.0092 76.2808C80.3692 75.6608 80.8642 75.1808 81.4942 74.8408C82.1242 74.4908 82.8342 74.3158 83.6242 74.3158C84.4142 74.3158 85.1192 74.4908 85.7392 74.8408C86.3692 75.1808 86.8592 75.6608 87.2092 76.2808C87.5692 76.8908 87.7492 77.5858 87.7492 78.3658C87.7492 79.1458 87.5692 79.8458 87.2092 80.4658C86.8592 81.0758 86.3692 81.5558 85.7392 81.9058C85.1192 82.2558 84.4142 82.4308 83.6242 82.4308ZM83.6242 81.1708C84.1342 81.1708 84.5892 81.0558 84.9892 80.8258C85.3992 80.5858 85.7192 80.2558 85.9492 79.8358C86.1792 79.4058 86.2942 78.9158 86.2942 78.3658C86.2942 77.8158 86.1792 77.3308 85.9492 76.9108C85.7192 76.4808 85.3992 76.1508 84.9892 75.9208C84.5892 75.6908 84.1342 75.5758 83.6242 75.5758C83.1142 75.5758 82.6542 75.6908 82.2442 75.9208C81.8442 76.1508 81.5242 76.4808 81.2842 76.9108C81.0542 77.3308 80.9392 77.8158 80.9392 78.3658C80.9392 78.9158 81.0542 79.4058 81.2842 79.8358C81.5242 80.2558 81.8442 80.5858 82.2442 80.8258C82.6542 81.0558 83.1142 81.1708 83.6242 81.1708ZM96.595 74.3908V82.3408H95.155V75.6508H91.735L91.645 77.4208C91.595 78.4908 91.5 79.3858 91.36 80.1058C91.22 80.8158 90.99 81.3858 90.67 81.8158C90.35 82.2458 89.905 82.4608 89.335 82.4608C89.075 82.4608 88.78 82.4158 88.45 82.3258L88.54 81.1108C88.67 81.1408 88.79 81.1558 88.9 81.1558C89.3 81.1558 89.6 80.9808 89.8 80.6308C90 80.2808 90.13 79.8658 90.19 79.3858C90.25 78.9058 90.305 78.2208 90.355 77.3308L90.49 74.3908H96.595ZM103.054 77.0908C104.064 77.1008 104.834 77.3308 105.364 77.7808C105.894 78.2308 106.159 78.8658 106.159 79.6858C106.159 80.5458 105.869 81.2108 105.289 81.6808C104.719 82.1408 103.899 82.3658 102.829 82.3558L99.3794 82.3408V74.3908H100.819V77.0758L103.054 77.0908ZM102.709 81.2608C103.359 81.2708 103.849 81.1408 104.179 80.8708C104.519 80.6008 104.689 80.2008 104.689 79.6708C104.689 79.1508 104.524 78.7708 104.194 78.5308C103.874 78.2908 103.379 78.1658 102.709 78.1558L100.819 78.1258V81.2458L102.709 81.2608ZM108.007 74.3908H109.447V77.7658H113.977V74.3908H115.417V82.3408H113.977V79.0108H109.447V82.3408H108.007V74.3908ZM121.802 77.0908C122.802 77.1008 123.567 77.3308 124.097 77.7808C124.627 78.2308 124.892 78.8658 124.892 79.6858C124.892 80.5458 124.602 81.2108 124.022 81.6808C123.452 82.1408 122.632 82.3658 121.562 82.3558L118.217 82.3408V74.3908H119.657V77.0758L121.802 77.0908ZM126.077 74.3908H127.517V82.3408H126.077V74.3908ZM121.457 81.2608C122.107 81.2708 122.597 81.1408 122.927 80.8708C123.267 80.6008 123.437 80.2008 123.437 79.6708C123.437 79.1508 123.272 78.7708 122.942 78.5308C122.612 78.2908 122.117 78.1658 121.457 78.1558L119.657 78.1258V81.2458L121.457 81.2608ZM137.502 78.4108C137.502 78.5208 137.492 78.6658 137.472 78.8458H131.022C131.112 79.5458 131.417 80.1108 131.937 80.5408C132.467 80.9608 133.122 81.1708 133.902 81.1708C134.852 81.1708 135.617 80.8508 136.197 80.2108L136.992 81.1408C136.632 81.5608 136.182 81.8808 135.642 82.1008C135.112 82.3208 134.517 82.4308 133.857 82.4308C133.017 82.4308 132.272 82.2608 131.622 81.9208C130.972 81.5708 130.467 81.0858 130.107 80.4658C129.757 79.8458 129.582 79.1458 129.582 78.3658C129.582 77.5958 129.752 76.9008 130.092 76.2808C130.442 75.6608 130.917 75.1808 131.517 74.8408C132.127 74.4908 132.812 74.3158 133.572 74.3158C134.332 74.3158 135.007 74.4908 135.597 74.8408C136.197 75.1808 136.662 75.6608 136.992 76.2808C137.332 76.9008 137.502 77.6108 137.502 78.4108ZM133.572 75.5308C132.882 75.5308 132.302 75.7408 131.832 76.1608C131.372 76.5808 131.102 77.1308 131.022 77.8108H136.122C136.042 77.1408 135.767 76.5958 135.297 76.1758C134.837 75.7458 134.262 75.5308 133.572 75.5308ZM147.229 82.4308C146.419 82.4308 145.694 82.2558 145.054 81.9058C144.424 81.5558 143.929 81.0758 143.569 80.4658C143.209 79.8458 143.029 79.1458 143.029 78.3658C143.029 77.5858 143.209 76.8908 143.569 76.2808C143.929 75.6608 144.424 75.1808 145.054 74.8408C145.694 74.4908 146.419 74.3158 147.229 74.3158C147.949 74.3158 148.589 74.4608 149.149 74.7508C149.719 75.0408 150.159 75.4608 150.469 76.0108L149.374 76.7158C149.124 76.3358 148.814 76.0508 148.444 75.8608C148.074 75.6708 147.664 75.5758 147.214 75.5758C146.694 75.5758 146.224 75.6908 145.804 75.9208C145.394 76.1508 145.069 76.4808 144.829 76.9108C144.599 77.3308 144.484 77.8158 144.484 78.3658C144.484 78.9258 144.599 79.4208 144.829 79.8508C145.069 80.2708 145.394 80.5958 145.804 80.8258C146.224 81.0558 146.694 81.1708 147.214 81.1708C147.664 81.1708 148.074 81.0758 148.444 80.8858C148.814 80.6958 149.124 80.4108 149.374 80.0308L150.469 80.7208C150.159 81.2708 149.719 81.6958 149.149 81.9958C148.589 82.2858 147.949 82.4308 147.229 82.4308ZM159.698 74.3908V82.3408H158.258V75.6508H153.773V82.3408H152.333V74.3908H159.698ZM165.89 82.4308C165.1 82.4308 164.39 82.2558 163.76 81.9058C163.13 81.5558 162.635 81.0758 162.275 80.4658C161.925 79.8458 161.75 79.1458 161.75 78.3658C161.75 77.5858 161.925 76.8908 162.275 76.2808C162.635 75.6608 163.13 75.1808 163.76 74.8408C164.39 74.4908 165.1 74.3158 165.89 74.3158C166.68 74.3158 167.385 74.4908 168.005 74.8408C168.635 75.1808 169.125 75.6608 169.475 76.2808C169.835 76.8908 170.015 77.5858 170.015 78.3658C170.015 79.1458 169.835 79.8458 169.475 80.4658C169.125 81.0758 168.635 81.5558 168.005 81.9058C167.385 82.2558 166.68 82.4308 165.89 82.4308ZM165.89 81.1708C166.4 81.1708 166.855 81.0558 167.255 80.8258C167.665 80.5858 167.985 80.2558 168.215 79.8358C168.445 79.4058 168.56 78.9158 168.56 78.3658C168.56 77.8158 168.445 77.3308 168.215 76.9108C167.985 76.4808 167.665 76.1508 167.255 75.9208C166.855 75.6908 166.4 75.5758 165.89 75.5758C165.38 75.5758 164.92 75.6908 164.51 75.9208C164.11 76.1508 163.79 76.4808 163.55 76.9108C163.32 77.3308 163.205 77.8158 163.205 78.3658C163.205 78.9158 163.32 79.4058 163.55 79.8358C163.79 80.2558 164.11 80.5858 164.51 80.8258C164.92 81.0558 165.38 81.1708 165.89 81.1708ZM176.309 74.3158C177.079 74.3158 177.769 74.4858 178.379 74.8258C178.989 75.1658 179.464 75.6408 179.804 76.2508C180.154 76.8608 180.329 77.5658 180.329 78.3658C180.329 79.1658 180.154 79.8758 179.804 80.4958C179.464 81.1058 178.989 81.5808 178.379 81.9208C177.769 82.2608 177.079 82.4308 176.309 82.4308C175.739 82.4308 175.214 82.3208 174.734 82.1008C174.264 81.8808 173.864 81.5608 173.534 81.1408V85.2508H172.094V74.3908H173.474V75.6508C173.794 75.2108 174.199 74.8808 174.689 74.6608C175.179 74.4308 175.719 74.3158 176.309 74.3158ZM176.189 81.1708C176.699 81.1708 177.154 81.0558 177.554 80.8258C177.964 80.5858 178.284 80.2558 178.514 79.8358C178.754 79.4058 178.874 78.9158 178.874 78.3658C178.874 77.8158 178.754 77.3308 178.514 76.9108C178.284 76.4808 177.964 76.1508 177.554 75.9208C177.154 75.6908 176.699 75.5758 176.189 75.5758C175.689 75.5758 175.234 75.6958 174.824 75.9358C174.424 76.1658 174.104 76.4908 173.864 76.9108C173.634 77.3308 173.519 77.8158 173.519 78.3658C173.519 78.9158 173.634 79.4058 173.864 79.8358C174.094 80.2558 174.414 80.5858 174.824 80.8258C175.234 81.0558 175.689 81.1708 176.189 81.1708ZM188.053 75.6508H185.143V82.3408H183.703V75.6508H180.793V74.3908H188.053V75.6508ZM189.526 74.3908H190.966V80.1808L195.841 74.3908H197.146V82.3408H195.706V76.5508L190.846 82.3408H189.526V74.3908ZM205.356 78.2158C206.386 78.4758 206.901 79.1208 206.901 80.1508C206.901 80.8508 206.636 81.3908 206.106 81.7708C205.586 82.1508 204.806 82.3408 203.766 82.3408H199.941V74.3908H203.631C204.571 74.3908 205.306 74.5708 205.836 74.9308C206.366 75.2808 206.631 75.7808 206.631 76.4308C206.631 76.8508 206.516 77.2158 206.286 77.5258C206.066 77.8258 205.756 78.0558 205.356 78.2158ZM201.351 77.8108H203.511C204.061 77.8108 204.476 77.7108 204.756 77.5108C205.046 77.3108 205.191 77.0208 205.191 76.6408C205.191 75.8808 204.631 75.5008 203.511 75.5008H201.351V77.8108ZM203.661 81.2308C204.261 81.2308 204.711 81.1358 205.011 80.9458C205.311 80.7558 205.461 80.4608 205.461 80.0608C205.461 79.6508 205.321 79.3458 205.041 79.1458C204.771 78.9458 204.341 78.8458 203.751 78.8458H201.351V81.2308H203.661ZM209.155 74.3908H210.595V77.7658H215.125V74.3908H216.565V82.3408H215.125V79.0108H210.595V82.3408H209.155V74.3908ZM222.95 77.0908C223.95 77.1008 224.715 77.3308 225.245 77.7808C225.775 78.2308 226.04 78.8658 226.04 79.6858C226.04 80.5458 225.75 81.2108 225.17 81.6808C224.6 82.1408 223.78 82.3658 222.71 82.3558L219.365 82.3408V74.3908H220.805V77.0758L222.95 77.0908ZM227.225 74.3908H228.665V82.3408H227.225V74.3908ZM222.605 81.2608C223.255 81.2708 223.745 81.1408 224.075 80.8708C224.415 80.6008 224.585 80.2008 224.585 79.6708C224.585 79.1508 224.42 78.7708 224.09 78.5308C223.76 78.2908 223.265 78.1658 222.605 78.1558L220.805 78.1258V81.2458L222.605 81.2608ZM238.649 78.4108C238.649 78.5208 238.639 78.6658 238.619 78.8458H232.169C232.259 79.5458 232.564 80.1108 233.084 80.5408C233.614 80.9608 234.269 81.1708 235.049 81.1708C235.999 81.1708 236.764 80.8508 237.344 80.2108L238.139 81.1408C237.779 81.5608 237.329 81.8808 236.789 82.1008C236.259 82.3208 235.664 82.4308 235.004 82.4308C234.164 82.4308 233.419 82.2608 232.769 81.9208C232.119 81.5708 231.614 81.0858 231.254 80.4658C230.904 79.8458 230.729 79.1458 230.729 78.3658C230.729 77.5958 230.899 76.9008 231.239 76.2808C231.589 75.6608 232.064 75.1808 232.664 74.8408C233.274 74.4908 233.959 74.3158 234.719 74.3158C235.479 74.3158 236.154 74.4908 236.744 74.8408C237.344 75.1808 237.809 75.6608 238.139 76.2808C238.479 76.9008 238.649 77.6108 238.649 78.4108ZM234.719 75.5308C234.029 75.5308 233.449 75.7408 232.979 76.1608C232.519 76.5808 232.249 77.1308 232.169 77.8108H237.269C237.189 77.1408 236.914 76.5958 236.444 76.1758C235.984 75.7458 235.409 75.5308 234.719 75.5308ZM64.762 92.3908V100.341H63.322V93.6508H58.837V100.341H57.397V92.3908H64.762ZM74.3733 92.3908V100.341H72.9333V93.6508H69.5133L69.4233 95.4208C69.3733 96.4908 69.2783 97.3858 69.1383 98.1058C68.9983 98.8158 68.7683 99.3858 68.4483 99.8158C68.1283 100.246 67.6833 100.461 67.1133 100.461C66.8533 100.461 66.5583 100.416 66.2283 100.326L66.3183 99.1108C66.4483 99.1408 66.5683 99.1558 66.6783 99.1558C67.0783 99.1558 67.3783 98.9808 67.5783 98.6308C67.7783 98.2808 67.9083 97.8658 67.9683 97.3858C68.0283 96.9058 68.0833 96.2208 68.1333 95.3308L68.2683 92.3908H74.3733ZM80.5627 100.431C79.7727 100.431 79.0627 100.256 78.4327 99.9058C77.8027 99.5558 77.3077 99.0758 76.9477 98.4658C76.5977 97.8458 76.4227 97.1458 76.4227 96.3658C76.4227 95.5858 76.5977 94.8908 76.9477 94.2808C77.3077 93.6608 77.8027 93.1808 78.4327 92.8408C79.0627 92.4908 79.7727 92.3158 80.5627 92.3158C81.3527 92.3158 82.0577 92.4908 82.6777 92.8408C83.3077 93.1808 83.7977 93.6608 84.1477 94.2808C84.5077 94.8908 84.6877 95.5858 84.6877 96.3658C84.6877 97.1458 84.5077 97.8458 84.1477 98.4658C83.7977 99.0758 83.3077 99.5558 82.6777 99.9058C82.0577 100.256 81.3527 100.431 80.5627 100.431ZM80.5627 99.1708C81.0727 99.1708 81.5277 99.0558 81.9277 98.8258C82.3377 98.5858 82.6577 98.2558 82.8877 97.8358C83.1177 97.4058 83.2327 96.9158 83.2327 96.3658C83.2327 95.8158 83.1177 95.3308 82.8877 94.9108C82.6577 94.4808 82.3377 94.1508 81.9277 93.9208C81.5277 93.6908 81.0727 93.5758 80.5627 93.5758C80.0527 93.5758 79.5927 93.6908 79.1827 93.9208C78.7827 94.1508 78.4627 94.4808 78.2227 94.9108C77.9927 95.3308 77.8777 95.8158 77.8777 96.3658C77.8777 96.9158 77.9927 97.4058 78.2227 97.8358C78.4627 98.2558 78.7827 98.5858 79.1827 98.8258C79.5927 99.0558 80.0527 99.1708 80.5627 99.1708ZM98.0921 92.3908V100.341H86.7671V92.3908H88.2071V99.0808H91.7171V92.3908H93.1571V99.0808H96.6521V92.3908H98.0921ZM99.2771 99.0808V102.036H97.9271V100.341H96.5921V99.0808H99.2771ZM103.723 92.3158C104.823 92.3158 105.663 92.5858 106.243 93.1258C106.833 93.6658 107.128 94.4708 107.128 95.5408V100.341H105.763V99.2908C105.523 99.6608 105.178 99.9458 104.728 100.146C104.288 100.336 103.763 100.431 103.153 100.431C102.263 100.431 101.548 100.216 101.008 99.7858C100.478 99.3558 100.213 98.7908 100.213 98.0908C100.213 97.3908 100.468 96.8308 100.978 96.4108C101.488 95.9808 102.298 95.7658 103.408 95.7658H105.688V95.4808C105.688 94.8608 105.508 94.3858 105.148 94.0558C104.788 93.7258 104.258 93.5608 103.558 93.5608C103.088 93.5608 102.628 93.6408 102.178 93.8008C101.728 93.9508 101.348 94.1558 101.038 94.4158L100.438 93.3358C100.848 93.0058 101.338 92.7558 101.908 92.5858C102.478 92.4058 103.083 92.3158 103.723 92.3158ZM103.393 99.3208C103.943 99.3208 104.418 99.2008 104.818 98.9608C105.218 98.7108 105.508 98.3608 105.688 97.9108V96.8008H103.468C102.248 96.8008 101.638 97.2108 101.638 98.0308C101.638 98.4308 101.793 98.7458 102.103 98.9758C102.413 99.2058 102.843 99.3208 103.393 99.3208ZM117.806 99.0808V102.186H116.456V100.341H109.811V102.186H108.446V99.0808H108.866C109.376 99.0508 109.726 98.6908 109.916 98.0008C110.106 97.3108 110.236 96.3358 110.306 95.0758L110.426 92.3908H116.591V99.0808H117.806ZM111.626 95.1808C111.586 96.1808 111.501 97.0108 111.371 97.6708C111.251 98.3208 111.026 98.7908 110.696 99.0808H115.151V93.6508H111.701L111.626 95.1808ZM122.772 96.9808H121.122V100.341H119.682V92.3908H121.122V95.7508H122.802L125.382 92.3908H126.927L123.912 96.2158L127.137 100.341H125.442L122.772 96.9808ZM128.647 92.3908H130.087V98.1808L134.962 92.3908H136.267V100.341H134.827V94.5508L129.967 100.341H128.647V92.3908Z" fill="black"/>
<rect x="20.8184" y="124.426" width="24.1836" height="8.43848" fill="#FF4C4C"/>
<path d="M62.812 130.282C63.842 130.542 64.357 131.187 64.357 132.217C64.357 132.917 64.092 133.457 63.562 133.837C63.042 134.217 62.262 134.407 61.222 134.407H57.397V126.457H61.087C62.027 126.457 62.762 126.637 63.292 126.997C63.822 127.347 64.087 127.847 64.087 128.497C64.087 128.917 63.972 129.282 63.742 129.592C63.522 129.892 63.212 130.122 62.812 130.282ZM58.807 129.877H60.967C61.517 129.877 61.932 129.777 62.212 129.577C62.502 129.377 62.647 129.087 62.647 128.707C62.647 127.947 62.087 127.567 60.967 127.567H58.807V129.877ZM61.117 133.297C61.717 133.297 62.167 133.202 62.467 133.012C62.767 132.822 62.917 132.527 62.917 132.127C62.917 131.717 62.777 131.412 62.497 131.212C62.227 131.012 61.797 130.912 61.207 130.912H58.807V133.297H61.117ZM73.7958 130.477C73.7958 130.587 73.7858 130.732 73.7658 130.912H67.3158C67.4058 131.612 67.7108 132.177 68.2308 132.607C68.7608 133.027 69.4158 133.237 70.1958 133.237C71.1458 133.237 71.9108 132.917 72.4908 132.277L73.2858 133.207C72.9258 133.627 72.4758 133.947 71.9358 134.167C71.4058 134.387 70.8108 134.497 70.1508 134.497C69.3108 134.497 68.5658 134.327 67.9158 133.987C67.2658 133.637 66.7608 133.152 66.4008 132.532C66.0508 131.912 65.8758 131.212 65.8758 130.432C65.8758 129.662 66.0458 128.967 66.3858 128.347C66.7358 127.727 67.2108 127.247 67.8108 126.907C68.4208 126.557 69.1058 126.382 69.8658 126.382C70.6258 126.382 71.3008 126.557 71.8908 126.907C72.4908 127.247 72.9558 127.727 73.2858 128.347C73.6258 128.967 73.7958 129.677 73.7958 130.477ZM69.8658 127.597C69.1758 127.597 68.5958 127.807 68.1258 128.227C67.6658 128.647 67.3958 129.197 67.3158 129.877H72.4158C72.3358 129.207 72.0608 128.662 71.5908 128.242C71.1308 127.812 70.5558 127.597 69.8658 127.597ZM82.7229 126.457V134.407H81.2829V127.717H77.8629L77.7729 129.487C77.7229 130.557 77.6279 131.452 77.4879 132.172C77.3479 132.882 77.1179 133.452 76.7979 133.882C76.4779 134.312 76.0329 134.527 75.4629 134.527C75.2029 134.527 74.9079 134.482 74.5779 134.392L74.6679 133.177C74.7979 133.207 74.9179 133.222 75.0279 133.222C75.4279 133.222 75.7279 133.047 75.9279 132.697C76.1279 132.347 76.2579 131.932 76.3179 131.452C76.3779 130.972 76.4329 130.287 76.4829 129.397L76.6179 126.457H82.7229ZM88.9123 134.497C88.1223 134.497 87.4123 134.322 86.7823 133.972C86.1523 133.622 85.6573 133.142 85.2973 132.532C84.9473 131.912 84.7723 131.212 84.7723 130.432C84.7723 129.652 84.9473 128.957 85.2973 128.347C85.6573 127.727 86.1523 127.247 86.7823 126.907C87.4123 126.557 88.1223 126.382 88.9123 126.382C89.7023 126.382 90.4073 126.557 91.0273 126.907C91.6573 127.247 92.1473 127.727 92.4973 128.347C92.8573 128.957 93.0373 129.652 93.0373 130.432C93.0373 131.212 92.8573 131.912 92.4973 132.532C92.1473 133.142 91.6573 133.622 91.0273 133.972C90.4073 134.322 89.7023 134.497 88.9123 134.497ZM88.9123 133.237C89.4223 133.237 89.8773 133.122 90.2773 132.892C90.6873 132.652 91.0073 132.322 91.2373 131.902C91.4673 131.472 91.5823 130.982 91.5823 130.432C91.5823 129.882 91.4673 129.397 91.2373 128.977C91.0073 128.547 90.6873 128.217 90.2773 127.987C89.8773 127.757 89.4223 127.642 88.9123 127.642C88.4023 127.642 87.9423 127.757 87.5323 127.987C87.1323 128.217 86.8123 128.547 86.5723 128.977C86.3423 129.397 86.2273 129.882 86.2273 130.432C86.2273 130.982 86.3423 131.472 86.5723 131.902C86.8123 132.322 87.1323 132.652 87.5323 132.892C87.9423 133.122 88.4023 133.237 88.9123 133.237ZM103.143 133.147V136.252H101.793V134.407H95.1481V136.252H93.7831V133.147H94.2031C94.7131 133.117 95.0631 132.757 95.2531 132.067C95.4431 131.377 95.5731 130.402 95.6431 129.142L95.7631 126.457H101.928V133.147H103.143ZM96.9631 129.247C96.9231 130.247 96.8381 131.077 96.7081 131.737C96.5881 132.387 96.3631 132.857 96.0331 133.147H100.488V127.717H97.0381L96.9631 129.247ZM108.424 134.497C107.634 134.497 106.924 134.322 106.294 133.972C105.664 133.622 105.169 133.142 104.809 132.532C104.459 131.912 104.284 131.212 104.284 130.432C104.284 129.652 104.459 128.957 104.809 128.347C105.169 127.727 105.664 127.247 106.294 126.907C106.924 126.557 107.634 126.382 108.424 126.382C109.214 126.382 109.919 126.557 110.539 126.907C111.169 127.247 111.659 127.727 112.009 128.347C112.369 128.957 112.549 129.652 112.549 130.432C112.549 131.212 112.369 131.912 112.009 132.532C111.659 133.142 111.169 133.622 110.539 133.972C109.919 134.322 109.214 134.497 108.424 134.497ZM108.424 133.237C108.934 133.237 109.389 133.122 109.789 132.892C110.199 132.652 110.519 132.322 110.749 131.902C110.979 131.472 111.094 130.982 111.094 130.432C111.094 129.882 110.979 129.397 110.749 128.977C110.519 128.547 110.199 128.217 109.789 127.987C109.389 127.757 108.934 127.642 108.424 127.642C107.914 127.642 107.454 127.757 107.044 127.987C106.644 128.217 106.324 128.547 106.084 128.977C105.854 129.397 105.739 129.882 105.739 130.432C105.739 130.982 105.854 131.472 106.084 131.902C106.324 132.322 106.644 132.652 107.044 132.892C107.454 133.122 107.914 133.237 108.424 133.237ZM118.843 126.382C119.613 126.382 120.303 126.552 120.913 126.892C121.523 127.232 121.998 127.707 122.338 128.317C122.688 128.927 122.863 129.632 122.863 130.432C122.863 131.232 122.688 131.942 122.338 132.562C121.998 133.172 121.523 133.647 120.913 133.987C120.303 134.327 119.613 134.497 118.843 134.497C118.273 134.497 117.748 134.387 117.268 134.167C116.798 133.947 116.398 133.627 116.068 133.207V137.317H114.628V126.457H116.008V127.717C116.328 127.277 116.733 126.947 117.223 126.727C117.713 126.497 118.253 126.382 118.843 126.382ZM118.723 133.237C119.233 133.237 119.688 133.122 120.088 132.892C120.498 132.652 120.818 132.322 121.048 131.902C121.288 131.472 121.408 130.982 121.408 130.432C121.408 129.882 121.288 129.397 121.048 128.977C120.818 128.547 120.498 128.217 120.088 127.987C119.688 127.757 119.233 127.642 118.723 127.642C118.223 127.642 117.768 127.762 117.358 128.002C116.958 128.232 116.638 128.557 116.398 128.977C116.168 129.397 116.053 129.882 116.053 130.432C116.053 130.982 116.168 131.472 116.398 131.902C116.628 132.322 116.948 132.652 117.358 132.892C117.768 133.122 118.223 133.237 118.723 133.237ZM128.361 134.497C127.571 134.497 126.861 134.322 126.231 133.972C125.601 133.622 125.106 133.142 124.746 132.532C124.396 131.912 124.221 131.212 124.221 130.432C124.221 129.652 124.396 128.957 124.746 128.347C125.106 127.727 125.601 127.247 126.231 126.907C126.861 126.557 127.571 126.382 128.361 126.382C129.151 126.382 129.856 126.557 130.476 126.907C131.106 127.247 131.596 127.727 131.946 128.347C132.306 128.957 132.486 129.652 132.486 130.432C132.486 131.212 132.306 131.912 131.946 132.532C131.596 133.142 131.106 133.622 130.476 133.972C129.856 134.322 129.151 134.497 128.361 134.497ZM128.361 133.237C128.871 133.237 129.326 133.122 129.726 132.892C130.136 132.652 130.456 132.322 130.686 131.902C130.916 131.472 131.031 130.982 131.031 130.432C131.031 129.882 130.916 129.397 130.686 128.977C130.456 128.547 130.136 128.217 129.726 127.987C129.326 127.757 128.871 127.642 128.361 127.642C127.851 127.642 127.391 127.757 126.981 127.987C126.581 128.217 126.261 128.547 126.021 128.977C125.791 129.397 125.676 129.882 125.676 130.432C125.676 130.982 125.791 131.472 126.021 131.902C126.261 132.322 126.581 132.652 126.981 132.892C127.391 133.122 127.851 133.237 128.361 133.237ZM141.531 131.047H139.986V134.407H138.546V131.047H137.001L134.811 134.407H133.101L135.831 130.297L133.311 126.457H134.841L136.986 129.817H138.546V126.457H139.986V129.817H141.546L143.691 126.457H145.236L142.716 130.312L145.446 134.407H143.736L141.531 131.047ZM150.121 131.047H148.471V134.407H147.031V126.457H148.471V129.817H150.151L152.731 126.457H154.276L151.261 130.282L154.486 134.407H152.791L150.121 131.047ZM158.684 126.382C159.784 126.382 160.624 126.652 161.204 127.192C161.794 127.732 162.089 128.537 162.089 129.607V134.407H160.724V133.357C160.484 133.727 160.139 134.012 159.689 134.212C159.249 134.402 158.724 134.497 158.114 134.497C157.224 134.497 156.509 134.282 155.969 133.852C155.439 133.422 155.174 132.857 155.174 132.157C155.174 131.457 155.429 130.897 155.939 130.477C156.449 130.047 157.259 129.832 158.369 129.832H160.649V129.547C160.649 128.927 160.469 128.452 160.109 128.122C159.749 127.792 159.219 127.627 158.519 127.627C158.049 127.627 157.589 127.707 157.139 127.867C156.689 128.017 156.309 128.222 155.999 128.482L155.399 127.402C155.809 127.072 156.299 126.822 156.869 126.652C157.439 126.472 158.044 126.382 158.684 126.382ZM158.354 133.387C158.904 133.387 159.379 133.267 159.779 133.027C160.179 132.777 160.469 132.427 160.649 131.977V130.867H158.429C157.209 130.867 156.599 131.277 156.599 132.097C156.599 132.497 156.754 132.812 157.064 133.042C157.374 133.272 157.804 133.387 158.354 133.387Z" fill="black"/>
<rect x="20.8184" y="155.902" width="24.1836" height="8.43848" fill="#0035F3"/>
<path d="M61.447 158.204C62.187 158.204 62.847 158.369 63.427 158.699C64.007 159.029 64.457 159.489 64.777 160.079C65.107 160.659 65.272 161.324 65.272 162.074C65.272 162.844 65.097 163.529 64.747 164.129C64.407 164.719 63.922 165.179 63.292 165.509C62.672 165.839 61.962 166.004 61.162 166.004C59.812 166.004 58.767 165.544 58.027 164.624C57.297 163.694 56.932 162.389 56.932 160.709C56.932 159.079 57.267 157.804 57.937 156.884C58.607 155.954 59.632 155.339 61.012 155.039L64.642 154.229L64.852 155.549L61.507 156.269C60.467 156.499 59.692 156.889 59.182 157.439C58.672 157.989 58.382 158.779 58.312 159.809C58.652 159.299 59.092 158.904 59.632 158.624C60.172 158.344 60.777 158.204 61.447 158.204ZM61.192 164.804C61.702 164.804 62.152 164.689 62.542 164.459C62.942 164.229 63.252 163.914 63.472 163.514C63.692 163.104 63.802 162.639 63.802 162.119C63.802 161.329 63.562 160.694 63.082 160.214C62.602 159.734 61.972 159.494 61.192 159.494C60.412 159.494 59.777 159.734 59.287 160.214C58.807 160.694 58.567 161.329 58.567 162.119C58.567 162.639 58.677 163.104 58.897 163.514C59.127 163.914 59.442 164.229 59.842 164.459C60.242 164.689 60.692 164.804 61.192 164.804ZM74.5136 161.954C74.5136 162.064 74.5036 162.209 74.4836 162.389H68.0336C68.1236 163.089 68.4286 163.654 68.9486 164.084C69.4786 164.504 70.1336 164.714 70.9136 164.714C71.8636 164.714 72.6286 164.394 73.2086 163.754L74.0036 164.684C73.6436 165.104 73.1936 165.424 72.6536 165.644C72.1236 165.864 71.5286 165.974 70.8686 165.974C70.0286 165.974 69.2836 165.804 68.6336 165.464C67.9836 165.114 67.4786 164.629 67.1186 164.009C66.7686 163.389 66.5936 162.689 66.5936 161.909C66.5936 161.139 66.7636 160.444 67.1036 159.824C67.4536 159.204 67.9286 158.724 68.5286 158.384C69.1386 158.034 69.8236 157.859 70.5836 157.859C71.3436 157.859 72.0186 158.034 72.6086 158.384C73.2086 158.724 73.6736 159.204 74.0036 159.824C74.3436 160.444 74.5136 161.154 74.5136 161.954ZM70.5836 159.074C69.8936 159.074 69.3136 159.284 68.8436 159.704C68.3836 160.124 68.1136 160.674 68.0336 161.354H73.1336C73.0536 160.684 72.7786 160.139 72.3086 159.719C71.8486 159.289 71.2736 159.074 70.5836 159.074ZM82.5975 159.194H78.1875V165.884H76.7475V157.934H82.5975V159.194ZM87.1252 165.974C86.3352 165.974 85.6252 165.799 84.9952 165.449C84.3652 165.099 83.8702 164.619 83.5102 164.009C83.1602 163.389 82.9852 162.689 82.9852 161.909C82.9852 161.129 83.1602 160.434 83.5102 159.824C83.8702 159.204 84.3652 158.724 84.9952 158.384C85.6252 158.034 86.3352 157.859 87.1252 157.859C87.9152 157.859 88.6202 158.034 89.2402 158.384C89.8702 158.724 90.3602 159.204 90.7102 159.824C91.0702 160.434 91.2502 161.129 91.2502 161.909C91.2502 162.689 91.0702 163.389 90.7102 164.009C90.3602 164.619 89.8702 165.099 89.2402 165.449C88.6202 165.799 87.9152 165.974 87.1252 165.974ZM87.1252 164.714C87.6352 164.714 88.0902 164.599 88.4902 164.369C88.9002 164.129 89.2202 163.799 89.4502 163.379C89.6802 162.949 89.7952 162.459 89.7952 161.909C89.7952 161.359 89.6802 160.874 89.4502 160.454C89.2202 160.024 88.9002 159.694 88.4902 159.464C88.0902 159.234 87.6352 159.119 87.1252 159.119C86.6152 159.119 86.1552 159.234 85.7452 159.464C85.3452 159.694 85.0252 160.024 84.7852 160.454C84.5552 160.874 84.4402 161.359 84.4402 161.909C84.4402 162.459 84.5552 162.949 84.7852 163.379C85.0252 163.799 85.3452 164.129 85.7452 164.369C86.1552 164.599 86.6152 164.714 87.1252 164.714ZM98.7446 161.759C99.7746 162.019 100.29 162.664 100.29 163.694C100.29 164.394 100.025 164.934 99.4946 165.314C98.9746 165.694 98.1946 165.884 97.1546 165.884H93.3296V157.934H97.0196C97.9596 157.934 98.6946 158.114 99.2246 158.474C99.7546 158.824 100.02 159.324 100.02 159.974C100.02 160.394 99.9046 160.759 99.6746 161.069C99.4546 161.369 99.1446 161.599 98.7446 161.759ZM94.7396 161.354H96.8996C97.4496 161.354 97.8646 161.254 98.1446 161.054C98.4346 160.854 98.5796 160.564 98.5796 160.184C98.5796 159.424 98.0196 159.044 96.8996 159.044H94.7396V161.354ZM97.0496 164.774C97.6496 164.774 98.0996 164.679 98.3996 164.489C98.6996 164.299 98.8496 164.004 98.8496 163.604C98.8496 163.194 98.7096 162.889 98.4296 162.689C98.1596 162.489 97.7296 162.389 97.1396 162.389H94.7396V164.774H97.0496ZM105.378 157.859C106.478 157.859 107.318 158.129 107.898 158.669C108.488 159.209 108.783 160.014 108.783 161.084V165.884H107.418V164.834C107.178 165.204 106.833 165.489 106.383 165.689C105.943 165.879 105.418 165.974 104.808 165.974C103.918 165.974 103.203 165.759 102.663 165.329C102.133 164.899 101.868 164.334 101.868 163.634C101.868 162.934 102.123 162.374 102.633 161.954C103.143 161.524 103.953 161.309 105.063 161.309H107.343V161.024C107.343 160.404 107.163 159.929 106.803 159.599C106.443 159.269 105.913 159.104 105.213 159.104C104.743 159.104 104.283 159.184 103.833 159.344C103.383 159.494 103.003 159.699 102.693 159.959L102.093 158.879C102.503 158.549 102.993 158.299 103.563 158.129C104.133 157.949 104.738 157.859 105.378 157.859ZM105.048 164.864C105.598 164.864 106.073 164.744 106.473 164.504C106.873 164.254 107.163 163.904 107.343 163.454V162.344H105.123C103.903 162.344 103.293 162.754 103.293 163.574C103.293 163.974 103.448 164.289 103.758 164.519C104.068 164.749 104.498 164.864 105.048 164.864ZM117.751 157.934V165.884H116.461V163.364H114.151H113.986L112.246 165.884H110.701L112.636 163.169C112.036 162.989 111.576 162.694 111.256 162.284C110.936 161.864 110.776 161.344 110.776 160.724C110.776 159.814 111.086 159.124 111.706 158.654C112.326 158.174 113.181 157.934 114.271 157.934H117.751ZM112.246 160.769C112.246 161.299 112.411 161.694 112.741 161.954C113.081 162.204 113.586 162.329 114.256 162.329H116.461V159.194H114.316C112.936 159.194 112.246 159.719 112.246 160.769ZM132.674 164.624V167.729H131.324V165.884H124.679V167.729H123.314V164.624H123.734C124.244 164.594 124.594 164.234 124.784 163.544C124.974 162.854 125.104 161.879 125.174 160.619L125.294 157.934H131.459V164.624H132.674ZM126.494 160.724C126.454 161.724 126.369 162.554 126.239 163.214C126.119 163.864 125.894 164.334 125.564 164.624H130.019V159.194H126.569L126.494 160.724ZM137.955 165.974C137.165 165.974 136.455 165.799 135.825 165.449C135.195 165.099 134.7 164.619 134.34 164.009C133.99 163.389 133.815 162.689 133.815 161.909C133.815 161.129 133.99 160.434 134.34 159.824C134.7 159.204 135.195 158.724 135.825 158.384C136.455 158.034 137.165 157.859 137.955 157.859C138.745 157.859 139.45 158.034 140.07 158.384C140.7 158.724 141.19 159.204 141.54 159.824C141.9 160.434 142.08 161.129 142.08 161.909C142.08 162.689 141.9 163.389 141.54 164.009C141.19 164.619 140.7 165.099 140.07 165.449C139.45 165.799 138.745 165.974 137.955 165.974ZM137.955 164.714C138.465 164.714 138.92 164.599 139.32 164.369C139.73 164.129 140.05 163.799 140.28 163.379C140.51 162.949 140.625 162.459 140.625 161.909C140.625 161.359 140.51 160.874 140.28 160.454C140.05 160.024 139.73 159.694 139.32 159.464C138.92 159.234 138.465 159.119 137.955 159.119C137.445 159.119 136.985 159.234 136.575 159.464C136.175 159.694 135.855 160.024 135.615 160.454C135.385 160.874 135.27 161.359 135.27 161.909C135.27 162.459 135.385 162.949 135.615 163.379C135.855 163.799 136.175 164.129 136.575 164.369C136.985 164.599 137.445 164.714 137.955 164.714ZM148.375 157.859C149.145 157.859 149.835 158.029 150.445 158.369C151.055 158.709 151.53 159.184 151.87 159.794C152.22 160.404 152.395 161.109 152.395 161.909C152.395 162.709 152.22 163.419 151.87 164.039C151.53 164.649 151.055 165.124 150.445 165.464C149.835 165.804 149.145 165.974 148.375 165.974C147.805 165.974 147.28 165.864 146.8 165.644C146.33 165.424 145.93 165.104 145.6 164.684V168.794H144.16V157.934H145.54V159.194C145.86 158.754 146.265 158.424 146.755 158.204C147.245 157.974 147.785 157.859 148.375 157.859ZM148.255 164.714C148.765 164.714 149.22 164.599 149.62 164.369C150.03 164.129 150.35 163.799 150.58 163.379C150.82 162.949 150.94 162.459 150.94 161.909C150.94 161.359 150.82 160.874 150.58 160.454C150.35 160.024 150.03 159.694 149.62 159.464C149.22 159.234 148.765 159.119 148.255 159.119C147.755 159.119 147.3 159.239 146.89 159.479C146.49 159.709 146.17 160.034 145.93 160.454C145.7 160.874 145.585 161.359 145.585 161.909C145.585 162.459 145.7 162.949 145.93 163.379C146.16 163.799 146.48 164.129 146.89 164.369C147.3 164.599 147.755 164.714 148.255 164.714ZM157.892 165.974C157.102 165.974 156.392 165.799 155.762 165.449C155.132 165.099 154.637 164.619 154.277 164.009C153.927 163.389 153.752 162.689 153.752 161.909C153.752 161.129 153.927 160.434 154.277 159.824C154.637 159.204 155.132 158.724 155.762 158.384C156.392 158.034 157.102 157.859 157.892 157.859C158.682 157.859 159.387 158.034 160.007 158.384C160.637 158.724 161.127 159.204 161.477 159.824C161.837 160.434 162.017 161.129 162.017 161.909C162.017 162.689 161.837 163.389 161.477 164.009C161.127 164.619 160.637 165.099 160.007 165.449C159.387 165.799 158.682 165.974 157.892 165.974ZM157.892 164.714C158.402 164.714 158.857 164.599 159.257 164.369C159.667 164.129 159.987 163.799 160.217 163.379C160.447 162.949 160.562 162.459 160.562 161.909C160.562 161.359 160.447 160.874 160.217 160.454C159.987 160.024 159.667 159.694 159.257 159.464C158.857 159.234 158.402 159.119 157.892 159.119C157.382 159.119 156.922 159.234 156.512 159.464C156.112 159.694 155.792 160.024 155.552 160.454C155.322 160.874 155.207 161.359 155.207 161.909C155.207 162.459 155.322 162.949 155.552 163.379C155.792 163.799 156.112 164.129 156.512 164.369C156.922 164.599 157.382 164.714 157.892 164.714ZM171.063 162.524H169.518V165.884H168.078V162.524H166.533L164.343 165.884H162.633L165.363 161.774L162.843 157.934H164.373L166.518 161.294H168.078V157.934H169.518V161.294H171.078L173.223 157.934H174.768L172.248 161.789L174.978 165.884H173.268L171.063 162.524ZM179.652 162.524H178.002V165.884H176.562V157.934H178.002V161.294H179.682L182.262 157.934H183.807L180.792 161.759L184.017 165.884H182.322L179.652 162.524ZM188.215 157.859C189.315 157.859 190.155 158.129 190.735 158.669C191.325 159.209 191.62 160.014 191.62 161.084V165.884H190.255V164.834C190.015 165.204 189.67 165.489 189.22 165.689C188.78 165.879 188.255 165.974 187.645 165.974C186.755 165.974 186.04 165.759 185.5 165.329C184.97 164.899 184.705 164.334 184.705 163.634C184.705 162.934 184.96 162.374 185.47 161.954C185.98 161.524 186.79 161.309 187.9 161.309H190.18V161.024C190.18 160.404 190 159.929 189.64 159.599C189.28 159.269 188.75 159.104 188.05 159.104C187.58 159.104 187.12 159.184 186.67 159.344C186.22 159.494 185.84 159.699 185.53 159.959L184.93 158.879C185.34 158.549 185.83 158.299 186.4 158.129C186.97 157.949 187.575 157.859 188.215 157.859ZM187.885 164.864C188.435 164.864 188.91 164.744 189.31 164.504C189.71 164.254 190 163.904 190.18 163.454V162.344H187.96C186.74 162.344 186.13 162.754 186.13 163.574C186.13 163.974 186.285 164.289 186.595 164.519C186.905 164.749 187.335 164.864 187.885 164.864Z" fill="black"/>
</svg>
